G75*
G70*
%OFA0B0*%
%FSLAX24Y24*%
%IPPOS*%
%LPD*%
%AMOC8*
5,1,8,0,0,1.08239X$1,22.5*
%
%ADD10C,0.0000*%
D10*
X000114Y001475D02*
X000114Y001517D01*
X000114Y008368D01*
X000114Y008371D01*
X000114Y008368D02*
X000116Y008440D01*
X000122Y008512D01*
X000131Y008584D01*
X000144Y008655D01*
X000161Y008725D01*
X000181Y008794D01*
X000206Y008862D01*
X000233Y008928D01*
X000264Y008994D01*
X000299Y009057D01*
X000336Y009119D01*
X000377Y009178D01*
X000421Y009235D01*
X000468Y009290D01*
X000518Y009342D01*
X000570Y009392D01*
X000625Y009439D01*
X000682Y009483D01*
X000741Y009524D01*
X000803Y009561D01*
X000866Y009596D01*
X000932Y009627D01*
X000998Y009654D01*
X001066Y009679D01*
X001135Y009699D01*
X001205Y009716D01*
X001276Y009729D01*
X001348Y009738D01*
X001420Y009744D01*
X001492Y009746D01*
X001885Y009746D01*
X001885Y010189D01*
X001350Y010189D01*
X001489Y009746D02*
X001492Y009746D01*
X001420Y009744D01*
X001348Y009738D01*
X001276Y009729D01*
X001205Y009716D01*
X001135Y009699D01*
X001066Y009679D01*
X000998Y009654D01*
X000932Y009627D01*
X000866Y009596D01*
X000803Y009561D01*
X000741Y009524D01*
X000682Y009483D01*
X000625Y009439D01*
X000570Y009392D01*
X000518Y009342D01*
X000468Y009290D01*
X000421Y009235D01*
X000377Y009178D01*
X000336Y009119D01*
X000299Y009057D01*
X000264Y008994D01*
X000233Y008928D01*
X000206Y008862D01*
X000181Y008794D01*
X000161Y008725D01*
X000144Y008655D01*
X000131Y008584D01*
X000122Y008512D01*
X000116Y008440D01*
X000114Y008368D01*
X000100Y011439D02*
X000100Y018189D01*
X000102Y018257D01*
X000107Y018324D01*
X000116Y018391D01*
X000129Y018458D01*
X000146Y018523D01*
X000165Y018588D01*
X000189Y018652D01*
X000216Y018714D01*
X000246Y018775D01*
X000279Y018833D01*
X000315Y018890D01*
X000355Y018945D01*
X000397Y018998D01*
X000443Y019049D01*
X000490Y019096D01*
X000541Y019142D01*
X000594Y019184D01*
X000649Y019224D01*
X000706Y019260D01*
X000764Y019293D01*
X000825Y019323D01*
X000887Y019350D01*
X000951Y019374D01*
X001016Y019393D01*
X001081Y019410D01*
X001148Y019423D01*
X001215Y019432D01*
X001282Y019437D01*
X001350Y019439D01*
X001801Y019439D01*
X001801Y019444D02*
X001801Y019785D01*
X001689Y019785D01*
X001612Y019787D01*
X001535Y019793D01*
X001458Y019802D01*
X001382Y019815D01*
X001306Y019832D01*
X001232Y019853D01*
X001158Y019877D01*
X001086Y019905D01*
X001016Y019936D01*
X000947Y019971D01*
X000879Y020009D01*
X000814Y020050D01*
X000751Y020095D01*
X000690Y020143D01*
X000631Y020193D01*
X000575Y020246D01*
X000522Y020302D01*
X000472Y020361D01*
X000424Y020422D01*
X000379Y020485D01*
X000338Y020550D01*
X000300Y020618D01*
X000265Y020687D01*
X000234Y020757D01*
X000206Y020829D01*
X000182Y020903D01*
X000161Y020977D01*
X000144Y021053D01*
X000131Y021129D01*
X000122Y021206D01*
X000116Y021283D01*
X000114Y021360D01*
X000114Y037895D01*
X000116Y037972D01*
X000122Y038049D01*
X000131Y038126D01*
X000144Y038202D01*
X000161Y038278D01*
X000182Y038352D01*
X000206Y038426D01*
X000234Y038498D01*
X000265Y038568D01*
X000300Y038637D01*
X000338Y038705D01*
X000379Y038770D01*
X000424Y038833D01*
X000472Y038894D01*
X000522Y038953D01*
X000575Y039009D01*
X000631Y039062D01*
X000690Y039112D01*
X000751Y039160D01*
X000814Y039205D01*
X000879Y039246D01*
X000947Y039284D01*
X001016Y039319D01*
X001086Y039350D01*
X001158Y039378D01*
X001232Y039402D01*
X001306Y039423D01*
X001382Y039440D01*
X001458Y039453D01*
X001535Y039462D01*
X001612Y039468D01*
X001689Y039470D01*
X018224Y039470D01*
X018301Y039468D01*
X018378Y039462D01*
X018455Y039453D01*
X018531Y039440D01*
X018607Y039423D01*
X018681Y039402D01*
X018755Y039378D01*
X018827Y039350D01*
X018897Y039319D01*
X018966Y039284D01*
X019034Y039246D01*
X019099Y039205D01*
X019162Y039160D01*
X019223Y039112D01*
X019282Y039062D01*
X019338Y039009D01*
X019391Y038953D01*
X019441Y038894D01*
X019489Y038833D01*
X019534Y038770D01*
X019575Y038705D01*
X019613Y038637D01*
X019648Y038568D01*
X019679Y038498D01*
X019707Y038426D01*
X019731Y038352D01*
X019752Y038278D01*
X019769Y038202D01*
X019782Y038126D01*
X019791Y038049D01*
X019797Y037972D01*
X019799Y037895D01*
X019799Y037781D01*
X020208Y037781D01*
X020208Y038232D01*
X020210Y038300D01*
X020215Y038367D01*
X020224Y038434D01*
X020237Y038501D01*
X020254Y038566D01*
X020273Y038631D01*
X020297Y038695D01*
X020324Y038757D01*
X020354Y038818D01*
X020387Y038876D01*
X020423Y038933D01*
X020463Y038988D01*
X020505Y039041D01*
X020551Y039092D01*
X020598Y039139D01*
X020649Y039185D01*
X020702Y039227D01*
X020757Y039267D01*
X020814Y039303D01*
X020872Y039336D01*
X020933Y039366D01*
X020995Y039393D01*
X021059Y039417D01*
X021124Y039436D01*
X021189Y039453D01*
X021256Y039466D01*
X021323Y039475D01*
X021390Y039480D01*
X021458Y039482D01*
X028208Y039482D01*
X028276Y039480D01*
X028343Y039475D01*
X028410Y039466D01*
X028477Y039453D01*
X028542Y039436D01*
X028607Y039417D01*
X028671Y039393D01*
X028733Y039366D01*
X028794Y039336D01*
X028852Y039303D01*
X028909Y039267D01*
X028964Y039227D01*
X029017Y039185D01*
X029068Y039139D01*
X029115Y039092D01*
X029161Y039041D01*
X029203Y038988D01*
X029243Y038933D01*
X029279Y038876D01*
X029312Y038818D01*
X029342Y038757D01*
X029369Y038695D01*
X029393Y038631D01*
X029412Y038566D01*
X029429Y038501D01*
X029442Y038434D01*
X029451Y038367D01*
X029456Y038300D01*
X029458Y038232D01*
X029458Y037781D01*
X030208Y037781D01*
X030208Y038232D01*
X030210Y038300D01*
X030215Y038367D01*
X030224Y038434D01*
X030237Y038501D01*
X030254Y038566D01*
X030273Y038631D01*
X030297Y038695D01*
X030324Y038757D01*
X030354Y038818D01*
X030387Y038876D01*
X030423Y038933D01*
X030463Y038988D01*
X030505Y039041D01*
X030551Y039092D01*
X030598Y039139D01*
X030649Y039185D01*
X030702Y039227D01*
X030757Y039267D01*
X030814Y039303D01*
X030872Y039336D01*
X030933Y039366D01*
X030995Y039393D01*
X031059Y039417D01*
X031124Y039436D01*
X031189Y039453D01*
X031256Y039466D01*
X031323Y039475D01*
X031390Y039480D01*
X031458Y039482D01*
X038208Y039482D01*
X038276Y039480D01*
X038343Y039475D01*
X038410Y039466D01*
X038477Y039453D01*
X038542Y039436D01*
X038607Y039417D01*
X038671Y039393D01*
X038733Y039366D01*
X038794Y039336D01*
X038852Y039303D01*
X038909Y039267D01*
X038964Y039227D01*
X039017Y039185D01*
X039068Y039139D01*
X039115Y039092D01*
X039161Y039041D01*
X039203Y038988D01*
X039243Y038933D01*
X039279Y038876D01*
X039312Y038818D01*
X039342Y038757D01*
X039369Y038695D01*
X039393Y038631D01*
X039412Y038566D01*
X039429Y038501D01*
X039442Y038434D01*
X039451Y038367D01*
X039456Y038300D01*
X039458Y038232D01*
X039458Y031482D01*
X039456Y031414D01*
X039451Y031347D01*
X039442Y031280D01*
X039429Y031213D01*
X039412Y031148D01*
X039393Y031083D01*
X039369Y031019D01*
X039342Y030957D01*
X039312Y030896D01*
X039279Y030838D01*
X039243Y030781D01*
X039203Y030726D01*
X039161Y030673D01*
X039115Y030622D01*
X039068Y030575D01*
X039017Y030529D01*
X038964Y030487D01*
X038909Y030447D01*
X038852Y030411D01*
X038794Y030378D01*
X038733Y030348D01*
X038671Y030321D01*
X038607Y030297D01*
X038542Y030278D01*
X038477Y030261D01*
X038410Y030248D01*
X038343Y030239D01*
X038276Y030234D01*
X038208Y030232D01*
X037757Y030232D01*
X037757Y029482D01*
X038208Y029482D01*
X038276Y029480D01*
X038343Y029475D01*
X038410Y029466D01*
X038477Y029453D01*
X038542Y029436D01*
X038607Y029417D01*
X038671Y029393D01*
X038733Y029366D01*
X038794Y029336D01*
X038852Y029303D01*
X038909Y029267D01*
X038964Y029227D01*
X039017Y029185D01*
X039068Y029139D01*
X039115Y029092D01*
X039161Y029041D01*
X039203Y028988D01*
X039243Y028933D01*
X039279Y028876D01*
X039312Y028818D01*
X039342Y028757D01*
X039369Y028695D01*
X039393Y028631D01*
X039412Y028566D01*
X039429Y028501D01*
X039442Y028434D01*
X039451Y028367D01*
X039456Y028300D01*
X039458Y028232D01*
X039458Y021482D01*
X039456Y021414D01*
X039451Y021347D01*
X039442Y021280D01*
X039429Y021213D01*
X039412Y021148D01*
X039393Y021083D01*
X039369Y021019D01*
X039342Y020957D01*
X039312Y020896D01*
X039279Y020838D01*
X039243Y020781D01*
X039203Y020726D01*
X039161Y020673D01*
X039115Y020622D01*
X039068Y020575D01*
X039017Y020529D01*
X038964Y020487D01*
X038909Y020447D01*
X038852Y020411D01*
X038794Y020378D01*
X038733Y020348D01*
X038671Y020321D01*
X038607Y020297D01*
X038542Y020278D01*
X038477Y020261D01*
X038410Y020248D01*
X038343Y020239D01*
X038276Y020234D01*
X038208Y020232D01*
X037364Y020232D01*
X037364Y019785D01*
X037909Y019785D01*
X037986Y019783D01*
X038063Y019777D01*
X038140Y019768D01*
X038216Y019755D01*
X038292Y019738D01*
X038366Y019717D01*
X038440Y019693D01*
X038512Y019665D01*
X038582Y019634D01*
X038651Y019599D01*
X038719Y019561D01*
X038784Y019520D01*
X038847Y019475D01*
X038908Y019427D01*
X038967Y019377D01*
X039023Y019324D01*
X039076Y019268D01*
X039126Y019209D01*
X039174Y019148D01*
X039219Y019085D01*
X039260Y019020D01*
X039298Y018952D01*
X039333Y018883D01*
X039364Y018813D01*
X039392Y018741D01*
X039416Y018667D01*
X039437Y018593D01*
X039454Y018517D01*
X039467Y018441D01*
X039476Y018364D01*
X039482Y018287D01*
X039484Y018210D01*
X039484Y001675D01*
X039482Y001598D01*
X039476Y001521D01*
X039467Y001444D01*
X039454Y001368D01*
X039437Y001292D01*
X039416Y001218D01*
X039392Y001144D01*
X039364Y001072D01*
X039333Y001002D01*
X039298Y000933D01*
X039260Y000865D01*
X039219Y000800D01*
X039174Y000737D01*
X039126Y000676D01*
X039076Y000617D01*
X039023Y000561D01*
X038967Y000508D01*
X038908Y000458D01*
X038847Y000410D01*
X038784Y000365D01*
X038719Y000324D01*
X038651Y000286D01*
X038582Y000251D01*
X038512Y000220D01*
X038440Y000192D01*
X038366Y000168D01*
X038292Y000147D01*
X038216Y000130D01*
X038140Y000117D01*
X038063Y000108D01*
X037986Y000102D01*
X037909Y000100D01*
X021374Y000100D01*
X021297Y000102D01*
X021220Y000108D01*
X021143Y000117D01*
X021067Y000130D01*
X020991Y000147D01*
X020917Y000168D01*
X020843Y000192D01*
X020771Y000220D01*
X020701Y000251D01*
X020632Y000286D01*
X020564Y000324D01*
X020499Y000365D01*
X020436Y000410D01*
X020375Y000458D01*
X020316Y000508D01*
X020260Y000561D01*
X020207Y000617D01*
X020157Y000676D01*
X020109Y000737D01*
X020064Y000800D01*
X020023Y000865D01*
X019985Y000933D01*
X019950Y001002D01*
X019919Y001072D01*
X019891Y001144D01*
X019867Y001218D01*
X019846Y001292D01*
X019829Y001368D01*
X019816Y001444D01*
X019807Y001521D01*
X019801Y001598D01*
X019799Y001675D01*
X019799Y002069D01*
X019405Y002069D01*
X019405Y001478D01*
X019403Y001406D01*
X019397Y001334D01*
X019388Y001262D01*
X019375Y001191D01*
X019358Y001121D01*
X019338Y001052D01*
X019313Y000984D01*
X019286Y000918D01*
X019255Y000852D01*
X019220Y000789D01*
X019183Y000727D01*
X019142Y000668D01*
X019098Y000611D01*
X019051Y000556D01*
X019001Y000504D01*
X018949Y000454D01*
X018894Y000407D01*
X018837Y000363D01*
X018778Y000322D01*
X018716Y000285D01*
X018653Y000250D01*
X018587Y000219D01*
X018521Y000192D01*
X018453Y000167D01*
X018384Y000147D01*
X018314Y000130D01*
X018243Y000117D01*
X018171Y000108D01*
X018099Y000102D01*
X018027Y000100D01*
X018030Y000100D01*
X018027Y000100D02*
X001492Y000100D01*
X001489Y000100D01*
X001491Y000100D02*
X001418Y000103D01*
X001345Y000110D01*
X001273Y000120D01*
X001201Y000135D01*
X001130Y000153D01*
X001060Y000175D01*
X000992Y000200D01*
X000924Y000229D01*
X000859Y000261D01*
X000795Y000297D01*
X000733Y000336D01*
X000673Y000379D01*
X000616Y000424D01*
X000561Y000472D01*
X000509Y000523D01*
X000459Y000577D01*
X000412Y000634D01*
X000369Y000692D01*
X000328Y000753D01*
X000291Y000816D01*
X000257Y000881D01*
X000226Y000947D01*
X000199Y001015D01*
X000175Y001085D01*
X000156Y001155D01*
X000140Y001227D01*
X000127Y001299D01*
X000119Y001371D01*
X000114Y001445D01*
X000113Y001518D01*
X000114Y001445D01*
X000119Y001371D01*
X000127Y001299D01*
X000140Y001227D01*
X000156Y001155D01*
X000175Y001085D01*
X000199Y001015D01*
X000226Y000947D01*
X000257Y000881D01*
X000291Y000816D01*
X000328Y000753D01*
X000369Y000692D01*
X000412Y000634D01*
X000459Y000577D01*
X000509Y000523D01*
X000561Y000472D01*
X000616Y000424D01*
X000673Y000379D01*
X000733Y000336D01*
X000795Y000297D01*
X000859Y000261D01*
X000924Y000229D01*
X000992Y000200D01*
X001060Y000175D01*
X001130Y000153D01*
X001201Y000135D01*
X001273Y000120D01*
X001345Y000110D01*
X001418Y000103D01*
X001491Y000100D01*
X007988Y010189D02*
X008100Y010189D01*
X001350Y010189D02*
X001282Y010191D01*
X001215Y010196D01*
X001148Y010205D01*
X001081Y010218D01*
X001016Y010235D01*
X000951Y010254D01*
X000887Y010278D01*
X000825Y010305D01*
X000764Y010335D01*
X000706Y010368D01*
X000649Y010404D01*
X000594Y010444D01*
X000541Y010486D01*
X000490Y010532D01*
X000443Y010579D01*
X000397Y010630D01*
X000355Y010683D01*
X000315Y010738D01*
X000279Y010795D01*
X000246Y010853D01*
X000216Y010914D01*
X000189Y010976D01*
X000165Y011040D01*
X000146Y011105D01*
X000129Y011170D01*
X000116Y011237D01*
X000107Y011304D01*
X000102Y011371D01*
X000100Y011439D01*
X000102Y011371D01*
X000107Y011304D01*
X000116Y011237D01*
X000129Y011170D01*
X000146Y011105D01*
X000165Y011040D01*
X000189Y010976D01*
X000216Y010914D01*
X000246Y010853D01*
X000279Y010795D01*
X000315Y010738D01*
X000355Y010683D01*
X000397Y010630D01*
X000443Y010579D01*
X000490Y010532D01*
X000541Y010486D01*
X000594Y010444D01*
X000649Y010404D01*
X000706Y010368D01*
X000764Y010335D01*
X000825Y010305D01*
X000887Y010278D01*
X000951Y010254D01*
X001016Y010235D01*
X001081Y010218D01*
X001148Y010205D01*
X001215Y010196D01*
X001282Y010191D01*
X001350Y010189D01*
X000100Y018189D02*
X000102Y018257D01*
X000107Y018324D01*
X000116Y018391D01*
X000129Y018458D01*
X000146Y018523D01*
X000165Y018588D01*
X000189Y018652D01*
X000216Y018714D01*
X000246Y018775D01*
X000279Y018833D01*
X000315Y018890D01*
X000355Y018945D01*
X000397Y018998D01*
X000443Y019049D01*
X000490Y019096D01*
X000541Y019142D01*
X000594Y019184D01*
X000649Y019224D01*
X000706Y019260D01*
X000764Y019293D01*
X000825Y019323D01*
X000887Y019350D01*
X000951Y019374D01*
X001016Y019393D01*
X001081Y019410D01*
X001148Y019423D01*
X001215Y019432D01*
X001282Y019437D01*
X001350Y019439D01*
X001689Y019785D02*
X001612Y019787D01*
X001535Y019793D01*
X001458Y019802D01*
X001382Y019815D01*
X001306Y019832D01*
X001232Y019853D01*
X001158Y019877D01*
X001086Y019905D01*
X001016Y019936D01*
X000947Y019971D01*
X000879Y020009D01*
X000814Y020050D01*
X000751Y020095D01*
X000690Y020143D01*
X000631Y020193D01*
X000575Y020246D01*
X000522Y020302D01*
X000472Y020361D01*
X000424Y020422D01*
X000379Y020485D01*
X000338Y020550D01*
X000300Y020618D01*
X000265Y020687D01*
X000234Y020757D01*
X000206Y020829D01*
X000182Y020903D01*
X000161Y020977D01*
X000144Y021053D01*
X000131Y021129D01*
X000122Y021206D01*
X000116Y021283D01*
X000114Y021360D01*
X000114Y037895D02*
X000116Y037972D01*
X000122Y038049D01*
X000131Y038126D01*
X000144Y038202D01*
X000161Y038278D01*
X000182Y038352D01*
X000206Y038426D01*
X000234Y038498D01*
X000265Y038568D01*
X000300Y038637D01*
X000338Y038705D01*
X000379Y038770D01*
X000424Y038833D01*
X000472Y038894D01*
X000522Y038953D01*
X000575Y039009D01*
X000631Y039062D01*
X000690Y039112D01*
X000751Y039160D01*
X000814Y039205D01*
X000879Y039246D01*
X000947Y039284D01*
X001016Y039319D01*
X001086Y039350D01*
X001158Y039378D01*
X001232Y039402D01*
X001306Y039423D01*
X001382Y039440D01*
X001458Y039453D01*
X001535Y039462D01*
X001612Y039468D01*
X001689Y039470D01*
X018224Y039470D02*
X018301Y039468D01*
X018378Y039462D01*
X018455Y039453D01*
X018531Y039440D01*
X018607Y039423D01*
X018681Y039402D01*
X018755Y039378D01*
X018827Y039350D01*
X018897Y039319D01*
X018966Y039284D01*
X019034Y039246D01*
X019099Y039205D01*
X019162Y039160D01*
X019223Y039112D01*
X019282Y039062D01*
X019338Y039009D01*
X019391Y038953D01*
X019441Y038894D01*
X019489Y038833D01*
X019534Y038770D01*
X019575Y038705D01*
X019613Y038637D01*
X019648Y038568D01*
X019679Y038498D01*
X019707Y038426D01*
X019731Y038352D01*
X019752Y038278D01*
X019769Y038202D01*
X019782Y038126D01*
X019791Y038049D01*
X019797Y037972D01*
X019799Y037895D01*
X020208Y038232D02*
X020210Y038300D01*
X020215Y038367D01*
X020224Y038434D01*
X020237Y038501D01*
X020254Y038566D01*
X020273Y038631D01*
X020297Y038695D01*
X020324Y038757D01*
X020354Y038818D01*
X020387Y038876D01*
X020423Y038933D01*
X020463Y038988D01*
X020505Y039041D01*
X020551Y039092D01*
X020598Y039139D01*
X020649Y039185D01*
X020702Y039227D01*
X020757Y039267D01*
X020814Y039303D01*
X020872Y039336D01*
X020933Y039366D01*
X020995Y039393D01*
X021059Y039417D01*
X021124Y039436D01*
X021189Y039453D01*
X021256Y039466D01*
X021323Y039475D01*
X021390Y039480D01*
X021458Y039482D01*
X028208Y039482D02*
X028276Y039480D01*
X028343Y039475D01*
X028410Y039466D01*
X028477Y039453D01*
X028542Y039436D01*
X028607Y039417D01*
X028671Y039393D01*
X028733Y039366D01*
X028794Y039336D01*
X028852Y039303D01*
X028909Y039267D01*
X028964Y039227D01*
X029017Y039185D01*
X029068Y039139D01*
X029115Y039092D01*
X029161Y039041D01*
X029203Y038988D01*
X029243Y038933D01*
X029279Y038876D01*
X029312Y038818D01*
X029342Y038757D01*
X029369Y038695D01*
X029393Y038631D01*
X029412Y038566D01*
X029429Y038501D01*
X029442Y038434D01*
X029451Y038367D01*
X029456Y038300D01*
X029458Y038232D01*
X030208Y038232D02*
X030210Y038300D01*
X030215Y038367D01*
X030224Y038434D01*
X030237Y038501D01*
X030254Y038566D01*
X030273Y038631D01*
X030297Y038695D01*
X030324Y038757D01*
X030354Y038818D01*
X030387Y038876D01*
X030423Y038933D01*
X030463Y038988D01*
X030505Y039041D01*
X030551Y039092D01*
X030598Y039139D01*
X030649Y039185D01*
X030702Y039227D01*
X030757Y039267D01*
X030814Y039303D01*
X030872Y039336D01*
X030933Y039366D01*
X030995Y039393D01*
X031059Y039417D01*
X031124Y039436D01*
X031189Y039453D01*
X031256Y039466D01*
X031323Y039475D01*
X031390Y039480D01*
X031458Y039482D01*
X038208Y039482D02*
X038276Y039480D01*
X038343Y039475D01*
X038410Y039466D01*
X038477Y039453D01*
X038542Y039436D01*
X038607Y039417D01*
X038671Y039393D01*
X038733Y039366D01*
X038794Y039336D01*
X038852Y039303D01*
X038909Y039267D01*
X038964Y039227D01*
X039017Y039185D01*
X039068Y039139D01*
X039115Y039092D01*
X039161Y039041D01*
X039203Y038988D01*
X039243Y038933D01*
X039279Y038876D01*
X039312Y038818D01*
X039342Y038757D01*
X039369Y038695D01*
X039393Y038631D01*
X039412Y038566D01*
X039429Y038501D01*
X039442Y038434D01*
X039451Y038367D01*
X039456Y038300D01*
X039458Y038232D01*
X039458Y031482D02*
X039456Y031414D01*
X039451Y031347D01*
X039442Y031280D01*
X039429Y031213D01*
X039412Y031148D01*
X039393Y031083D01*
X039369Y031019D01*
X039342Y030957D01*
X039312Y030896D01*
X039279Y030838D01*
X039243Y030781D01*
X039203Y030726D01*
X039161Y030673D01*
X039115Y030622D01*
X039068Y030575D01*
X039017Y030529D01*
X038964Y030487D01*
X038909Y030447D01*
X038852Y030411D01*
X038794Y030378D01*
X038733Y030348D01*
X038671Y030321D01*
X038607Y030297D01*
X038542Y030278D01*
X038477Y030261D01*
X038410Y030248D01*
X038343Y030239D01*
X038276Y030234D01*
X038208Y030232D01*
X038208Y029482D02*
X038276Y029480D01*
X038343Y029475D01*
X038410Y029466D01*
X038477Y029453D01*
X038542Y029436D01*
X038607Y029417D01*
X038671Y029393D01*
X038733Y029366D01*
X038794Y029336D01*
X038852Y029303D01*
X038909Y029267D01*
X038964Y029227D01*
X039017Y029185D01*
X039068Y029139D01*
X039115Y029092D01*
X039161Y029041D01*
X039203Y028988D01*
X039243Y028933D01*
X039279Y028876D01*
X039312Y028818D01*
X039342Y028757D01*
X039369Y028695D01*
X039393Y028631D01*
X039412Y028566D01*
X039429Y028501D01*
X039442Y028434D01*
X039451Y028367D01*
X039456Y028300D01*
X039458Y028232D01*
X039458Y021482D02*
X039456Y021414D01*
X039451Y021347D01*
X039442Y021280D01*
X039429Y021213D01*
X039412Y021148D01*
X039393Y021083D01*
X039369Y021019D01*
X039342Y020957D01*
X039312Y020896D01*
X039279Y020838D01*
X039243Y020781D01*
X039203Y020726D01*
X039161Y020673D01*
X039115Y020622D01*
X039068Y020575D01*
X039017Y020529D01*
X038964Y020487D01*
X038909Y020447D01*
X038852Y020411D01*
X038794Y020378D01*
X038733Y020348D01*
X038671Y020321D01*
X038607Y020297D01*
X038542Y020278D01*
X038477Y020261D01*
X038410Y020248D01*
X038343Y020239D01*
X038276Y020234D01*
X038208Y020232D01*
X037909Y019785D02*
X037986Y019783D01*
X038063Y019777D01*
X038140Y019768D01*
X038216Y019755D01*
X038292Y019738D01*
X038366Y019717D01*
X038440Y019693D01*
X038512Y019665D01*
X038582Y019634D01*
X038651Y019599D01*
X038719Y019561D01*
X038784Y019520D01*
X038847Y019475D01*
X038908Y019427D01*
X038967Y019377D01*
X039023Y019324D01*
X039076Y019268D01*
X039126Y019209D01*
X039174Y019148D01*
X039219Y019085D01*
X039260Y019020D01*
X039298Y018952D01*
X039333Y018883D01*
X039364Y018813D01*
X039392Y018741D01*
X039416Y018667D01*
X039437Y018593D01*
X039454Y018517D01*
X039467Y018441D01*
X039476Y018364D01*
X039482Y018287D01*
X039484Y018210D01*
X039484Y001675D02*
X039482Y001598D01*
X039476Y001521D01*
X039467Y001444D01*
X039454Y001368D01*
X039437Y001292D01*
X039416Y001218D01*
X039392Y001144D01*
X039364Y001072D01*
X039333Y001002D01*
X039298Y000933D01*
X039260Y000865D01*
X039219Y000800D01*
X039174Y000737D01*
X039126Y000676D01*
X039076Y000617D01*
X039023Y000561D01*
X038967Y000508D01*
X038908Y000458D01*
X038847Y000410D01*
X038784Y000365D01*
X038719Y000324D01*
X038651Y000286D01*
X038582Y000251D01*
X038512Y000220D01*
X038440Y000192D01*
X038366Y000168D01*
X038292Y000147D01*
X038216Y000130D01*
X038140Y000117D01*
X038063Y000108D01*
X037986Y000102D01*
X037909Y000100D01*
X021374Y000100D02*
X021297Y000102D01*
X021220Y000108D01*
X021143Y000117D01*
X021067Y000130D01*
X020991Y000147D01*
X020917Y000168D01*
X020843Y000192D01*
X020771Y000220D01*
X020701Y000251D01*
X020632Y000286D01*
X020564Y000324D01*
X020499Y000365D01*
X020436Y000410D01*
X020375Y000458D01*
X020316Y000508D01*
X020260Y000561D01*
X020207Y000617D01*
X020157Y000676D01*
X020109Y000737D01*
X020064Y000800D01*
X020023Y000865D01*
X019985Y000933D01*
X019950Y001002D01*
X019919Y001072D01*
X019891Y001144D01*
X019867Y001218D01*
X019846Y001292D01*
X019829Y001368D01*
X019816Y001444D01*
X019807Y001521D01*
X019801Y001598D01*
X019799Y001675D01*
X019405Y001478D02*
X019403Y001406D01*
X019397Y001334D01*
X019388Y001262D01*
X019375Y001191D01*
X019358Y001121D01*
X019338Y001052D01*
X019313Y000984D01*
X019286Y000918D01*
X019255Y000852D01*
X019220Y000789D01*
X019183Y000727D01*
X019142Y000668D01*
X019098Y000611D01*
X019051Y000556D01*
X019001Y000504D01*
X018949Y000454D01*
X018894Y000407D01*
X018837Y000363D01*
X018778Y000322D01*
X018716Y000285D01*
X018653Y000250D01*
X018587Y000219D01*
X018521Y000192D01*
X018453Y000167D01*
X018384Y000147D01*
X018314Y000130D01*
X018243Y000117D01*
X018171Y000108D01*
X018099Y000102D01*
X018027Y000100D01*
X018421Y009746D02*
X018424Y009746D01*
X018030Y019588D02*
X018027Y019588D01*
M02*
