G75*
G70*
%OFA0B0*%
%FSLAX24Y24*%
%IPPOS*%
%LPD*%
%AMOC8*
5,1,8,0,0,1.08239X$1,22.5*
%
%ADD10C,0.0000*%
%ADD11C,0.0000*%
%ADD12C,0.0030*%
%ADD13C,0.0080*%
%ADD14C,0.0060*%
%ADD15R,0.0079X0.0079*%
%ADD16C,0.0050*%
%ADD17C,0.0160*%
%ADD18R,0.0230X0.0160*%
%ADD19C,0.0040*%
%ADD20C,0.0000*%
%ADD21C,0.0030*%
%ADD22C,0.0080*%
%ADD23C,0.0060*%
%ADD24R,0.0079X0.0079*%
%ADD25C,0.0050*%
%ADD26C,0.0160*%
%ADD27R,0.0230X0.0160*%
%ADD28C,0.0040*%
D10*
X001475Y001583D02*
X001478Y001583D01*
X018407Y001583D01*
X018410Y001583D01*
X018408Y001583D02*
X018482Y001586D01*
X018556Y001593D01*
X018630Y001604D01*
X018702Y001619D01*
X018774Y001637D01*
X018845Y001660D01*
X018915Y001686D01*
X018983Y001716D01*
X019049Y001749D01*
X019114Y001786D01*
X019176Y001827D01*
X019237Y001870D01*
X019295Y001917D01*
X019350Y001967D01*
X019402Y002019D01*
X019452Y002074D01*
X019499Y002132D01*
X019542Y002193D01*
X019583Y002255D01*
X019620Y002320D01*
X019653Y002386D01*
X019683Y002454D01*
X019709Y002524D01*
X019732Y002595D01*
X019750Y002667D01*
X019765Y002739D01*
X019776Y002813D01*
X019783Y002887D01*
X019786Y002961D01*
X019785Y002961D02*
X019785Y002958D01*
X019785Y002961D02*
X019785Y009812D01*
X019785Y009857D01*
X019785Y009812D02*
X019787Y009884D01*
X019785Y009955D01*
X019780Y010027D01*
X019771Y010098D01*
X019758Y010169D01*
X019741Y010238D01*
X019720Y010307D01*
X019696Y010375D01*
X019669Y010441D01*
X019637Y010505D01*
X019603Y010568D01*
X019565Y010629D01*
X019524Y010688D01*
X019480Y010744D01*
X019432Y010798D01*
X019382Y010849D01*
X019330Y010898D01*
X019275Y010944D01*
X019217Y010987D01*
X019157Y011026D01*
X019095Y011063D01*
X019032Y011096D01*
X018967Y011125D01*
X018900Y011151D01*
X018832Y011174D01*
X018762Y011192D01*
X018692Y011207D01*
X018621Y011219D01*
X018550Y011226D01*
X018479Y011230D01*
X018407Y011229D01*
X001872Y011229D01*
X001872Y011623D01*
X018407Y011623D01*
X018410Y011623D01*
X018407Y011229D02*
X018410Y011229D01*
X018408Y011622D02*
X018482Y011625D01*
X018556Y011632D01*
X018630Y011643D01*
X018702Y011658D01*
X018774Y011676D01*
X018845Y011699D01*
X018915Y011725D01*
X018983Y011755D01*
X019049Y011788D01*
X019114Y011825D01*
X019176Y011866D01*
X019237Y011909D01*
X019295Y011956D01*
X019350Y012006D01*
X019402Y012058D01*
X019452Y012113D01*
X019499Y012171D01*
X019542Y012232D01*
X019583Y012294D01*
X019620Y012359D01*
X019653Y012425D01*
X019683Y012493D01*
X019709Y012563D01*
X019732Y012634D01*
X019750Y012706D01*
X019765Y012778D01*
X019776Y012852D01*
X019783Y012926D01*
X019786Y013000D01*
X019785Y013001D02*
X019785Y012998D01*
X019785Y013001D02*
X019785Y019851D01*
X019785Y019897D01*
X019785Y019851D02*
X019787Y019923D01*
X019785Y019994D01*
X019780Y020066D01*
X019771Y020137D01*
X019758Y020208D01*
X019741Y020277D01*
X019720Y020346D01*
X019696Y020414D01*
X019669Y020480D01*
X019637Y020544D01*
X019603Y020607D01*
X019565Y020668D01*
X019524Y020727D01*
X019480Y020783D01*
X019432Y020837D01*
X019382Y020888D01*
X019330Y020937D01*
X019275Y020983D01*
X019217Y021026D01*
X019157Y021065D01*
X019095Y021102D01*
X019032Y021135D01*
X018967Y021164D01*
X018900Y021190D01*
X018832Y021213D01*
X018762Y021231D01*
X018692Y021246D01*
X018621Y021258D01*
X018550Y021265D01*
X018479Y021269D01*
X018407Y021268D01*
X018410Y021268D01*
X018407Y021268D02*
X001478Y021268D01*
X001475Y021268D01*
X001478Y021269D02*
X001404Y021266D01*
X001330Y021259D01*
X001256Y021248D01*
X001184Y021233D01*
X001112Y021215D01*
X001041Y021192D01*
X000971Y021166D01*
X000903Y021136D01*
X000837Y021103D01*
X000772Y021066D01*
X000710Y021025D01*
X000649Y020982D01*
X000591Y020935D01*
X000536Y020885D01*
X000484Y020833D01*
X000434Y020778D01*
X000387Y020720D01*
X000344Y020659D01*
X000303Y020597D01*
X000266Y020532D01*
X000233Y020466D01*
X000203Y020398D01*
X000177Y020328D01*
X000154Y020257D01*
X000136Y020185D01*
X000121Y020113D01*
X000110Y020039D01*
X000103Y019965D01*
X000100Y019891D01*
X000100Y019890D02*
X000100Y019894D01*
X000100Y019890D02*
X000100Y013040D01*
X000100Y012998D01*
X000100Y013040D02*
X000101Y012967D01*
X000106Y012893D01*
X000114Y012821D01*
X000127Y012749D01*
X000143Y012677D01*
X000162Y012607D01*
X000186Y012537D01*
X000213Y012469D01*
X000244Y012403D01*
X000278Y012338D01*
X000315Y012275D01*
X000356Y012214D01*
X000399Y012156D01*
X000446Y012099D01*
X000496Y012045D01*
X000548Y011994D01*
X000603Y011946D01*
X000660Y011901D01*
X000720Y011858D01*
X000782Y011819D01*
X000846Y011783D01*
X000911Y011751D01*
X000979Y011722D01*
X001047Y011697D01*
X001117Y011675D01*
X001188Y011657D01*
X001260Y011642D01*
X001332Y011632D01*
X001405Y011625D01*
X001478Y011622D01*
X001478Y011623D02*
X001478Y011229D01*
X001475Y011229D01*
X001475Y011623D02*
X001478Y011623D01*
X001478Y011229D02*
X001404Y011226D01*
X001330Y011219D01*
X001256Y011208D01*
X001184Y011193D01*
X001112Y011175D01*
X001041Y011152D01*
X000971Y011126D01*
X000903Y011096D01*
X000837Y011063D01*
X000772Y011026D01*
X000710Y010985D01*
X000649Y010942D01*
X000591Y010895D01*
X000536Y010845D01*
X000484Y010793D01*
X000434Y010738D01*
X000387Y010680D01*
X000344Y010619D01*
X000303Y010557D01*
X000266Y010492D01*
X000233Y010426D01*
X000203Y010358D01*
X000177Y010288D01*
X000154Y010217D01*
X000136Y010145D01*
X000121Y010073D01*
X000110Y009999D01*
X000103Y009925D01*
X000100Y009851D01*
X000100Y009854D01*
X000100Y009851D02*
X000100Y003001D01*
X000100Y002958D01*
X000100Y003001D02*
X000101Y002928D01*
X000106Y002854D01*
X000114Y002782D01*
X000127Y002710D01*
X000143Y002638D01*
X000162Y002568D01*
X000186Y002498D01*
X000213Y002430D01*
X000244Y002364D01*
X000278Y002299D01*
X000315Y002236D01*
X000356Y002175D01*
X000399Y002117D01*
X000446Y002060D01*
X000496Y002006D01*
X000548Y001955D01*
X000603Y001907D01*
X000660Y001862D01*
X000720Y001819D01*
X000782Y001780D01*
X000846Y001744D01*
X000911Y001712D01*
X000979Y001683D01*
X001047Y001658D01*
X001117Y001636D01*
X001188Y001618D01*
X001260Y001603D01*
X001332Y001593D01*
X001405Y001586D01*
X001478Y001583D01*
D11*
X1475Y1583D02*
X1478Y1583D01*
X18407Y1583D01*
X18410Y1583D01*
X17760Y2958D02*
X17762Y3008D01*
X17768Y3058D01*
X17778Y3108D01*
X17791Y3156D01*
X17808Y3204D01*
X17829Y3250D01*
X17853Y3294D01*
X17881Y3336D01*
X17912Y3376D01*
X17946Y3413D01*
X17983Y3448D01*
X18022Y3479D01*
X18063Y3508D01*
X18107Y3533D01*
X18153Y3555D01*
X18200Y3573D01*
X18248Y3587D01*
X18297Y3598D01*
X18347Y3605D01*
X18397Y3608D01*
X18448Y3607D01*
X18498Y3602D01*
X18548Y3593D01*
X18596Y3581D01*
X18644Y3564D01*
X18690Y3544D01*
X18735Y3521D01*
X18778Y3494D01*
X18818Y3464D01*
X18856Y3431D01*
X18891Y3395D01*
X18924Y3356D01*
X18953Y3315D01*
X18979Y3272D01*
X19002Y3227D01*
X19021Y3180D01*
X19036Y3132D01*
X19048Y3083D01*
X19056Y3033D01*
X19060Y2983D01*
X19060Y2933D01*
X19056Y2883D01*
X19048Y2833D01*
X19036Y2784D01*
X19021Y2736D01*
X19002Y2689D01*
X18979Y2644D01*
X18953Y2601D01*
X18924Y2560D01*
X18891Y2521D01*
X18856Y2485D01*
X18818Y2452D01*
X18778Y2422D01*
X18735Y2395D01*
X18690Y2372D01*
X18644Y2352D01*
X18596Y2335D01*
X18548Y2323D01*
X18498Y2314D01*
X18448Y2309D01*
X18397Y2308D01*
X18347Y2311D01*
X18297Y2318D01*
X18248Y2329D01*
X18200Y2343D01*
X18153Y2361D01*
X18107Y2383D01*
X18063Y2408D01*
X18022Y2437D01*
X17983Y2468D01*
X17946Y2503D01*
X17912Y2540D01*
X17881Y2580D01*
X17853Y2622D01*
X17829Y2666D01*
X17808Y2712D01*
X17791Y2760D01*
X17778Y2808D01*
X17768Y2858D01*
X17762Y2908D01*
X17760Y2958D01*
X18407Y1583D02*
X18481Y1586D01*
X18555Y1593D01*
X18629Y1604D01*
X18701Y1619D01*
X18773Y1637D01*
X18844Y1660D01*
X18914Y1686D01*
X18982Y1716D01*
X19048Y1749D01*
X19113Y1786D01*
X19175Y1827D01*
X19236Y1870D01*
X19294Y1917D01*
X19349Y1967D01*
X19401Y2019D01*
X19451Y2074D01*
X19498Y2132D01*
X19541Y2193D01*
X19582Y2255D01*
X19619Y2320D01*
X19652Y2386D01*
X19682Y2454D01*
X19708Y2524D01*
X19731Y2595D01*
X19749Y2667D01*
X19764Y2739D01*
X19775Y2813D01*
X19782Y2887D01*
X19785Y2961D01*
X19785Y2958D01*
X19785Y2961D02*
X19785Y9812D01*
X19785Y9857D01*
X19785Y9812D02*
X19787Y9884D01*
X19785Y9955D01*
X19780Y10027D01*
X19771Y10098D01*
X19758Y10169D01*
X19741Y10238D01*
X19720Y10307D01*
X19696Y10375D01*
X19669Y10441D01*
X19637Y10505D01*
X19603Y10568D01*
X19565Y10629D01*
X19524Y10688D01*
X19480Y10744D01*
X19432Y10798D01*
X19382Y10849D01*
X19330Y10898D01*
X19275Y10944D01*
X19217Y10987D01*
X19157Y11026D01*
X19095Y11063D01*
X19032Y11096D01*
X18967Y11125D01*
X18900Y11151D01*
X18832Y11174D01*
X18762Y11192D01*
X18692Y11207D01*
X18621Y11219D01*
X18550Y11226D01*
X18479Y11230D01*
X18407Y11229D01*
X18410Y11229D01*
X18407Y11229D02*
X1478Y11229D01*
X825Y9854D02*
X827Y9904D01*
X833Y9954D01*
X843Y10004D01*
X856Y10052D01*
X873Y10100D01*
X894Y10146D01*
X918Y10190D01*
X946Y10232D01*
X977Y10272D01*
X1011Y10309D01*
X1048Y10344D01*
X1087Y10375D01*
X1128Y10404D01*
X1172Y10429D01*
X1218Y10451D01*
X1265Y10469D01*
X1313Y10483D01*
X1362Y10494D01*
X1412Y10501D01*
X1462Y10504D01*
X1513Y10503D01*
X1563Y10498D01*
X1613Y10489D01*
X1661Y10477D01*
X1709Y10460D01*
X1755Y10440D01*
X1800Y10417D01*
X1843Y10390D01*
X1883Y10360D01*
X1921Y10327D01*
X1956Y10291D01*
X1989Y10252D01*
X2018Y10211D01*
X2044Y10168D01*
X2067Y10123D01*
X2086Y10076D01*
X2101Y10028D01*
X2113Y9979D01*
X2121Y9929D01*
X2125Y9879D01*
X2125Y9829D01*
X2121Y9779D01*
X2113Y9729D01*
X2101Y9680D01*
X2086Y9632D01*
X2067Y9585D01*
X2044Y9540D01*
X2018Y9497D01*
X1989Y9456D01*
X1956Y9417D01*
X1921Y9381D01*
X1883Y9348D01*
X1843Y9318D01*
X1800Y9291D01*
X1755Y9268D01*
X1709Y9248D01*
X1661Y9231D01*
X1613Y9219D01*
X1563Y9210D01*
X1513Y9205D01*
X1462Y9204D01*
X1412Y9207D01*
X1362Y9214D01*
X1313Y9225D01*
X1265Y9239D01*
X1218Y9257D01*
X1172Y9279D01*
X1128Y9304D01*
X1087Y9333D01*
X1048Y9364D01*
X1011Y9399D01*
X977Y9436D01*
X946Y9476D01*
X918Y9518D01*
X894Y9562D01*
X873Y9608D01*
X856Y9656D01*
X843Y9704D01*
X833Y9754D01*
X827Y9804D01*
X825Y9854D01*
X100Y9851D02*
X102Y9923D01*
X108Y9995D01*
X117Y10067D01*
X130Y10138D01*
X147Y10208D01*
X167Y10277D01*
X192Y10345D01*
X219Y10411D01*
X250Y10477D01*
X285Y10540D01*
X322Y10602D01*
X363Y10661D01*
X407Y10718D01*
X454Y10773D01*
X504Y10825D01*
X556Y10875D01*
X611Y10922D01*
X668Y10966D01*
X727Y11007D01*
X789Y11044D01*
X852Y11079D01*
X918Y11110D01*
X984Y11137D01*
X1052Y11162D01*
X1121Y11182D01*
X1191Y11199D01*
X1262Y11212D01*
X1334Y11221D01*
X1406Y11227D01*
X1478Y11229D01*
X100Y9854D02*
X100Y9851D01*
X100Y3001D01*
X100Y2958D01*
X825Y2958D02*
X827Y3008D01*
X833Y3058D01*
X843Y3108D01*
X856Y3156D01*
X873Y3204D01*
X894Y3250D01*
X918Y3294D01*
X946Y3336D01*
X977Y3376D01*
X1011Y3413D01*
X1048Y3448D01*
X1087Y3479D01*
X1128Y3508D01*
X1172Y3533D01*
X1218Y3555D01*
X1265Y3573D01*
X1313Y3587D01*
X1362Y3598D01*
X1412Y3605D01*
X1462Y3608D01*
X1513Y3607D01*
X1563Y3602D01*
X1613Y3593D01*
X1661Y3581D01*
X1709Y3564D01*
X1755Y3544D01*
X1800Y3521D01*
X1843Y3494D01*
X1883Y3464D01*
X1921Y3431D01*
X1956Y3395D01*
X1989Y3356D01*
X2018Y3315D01*
X2044Y3272D01*
X2067Y3227D01*
X2086Y3180D01*
X2101Y3132D01*
X2113Y3083D01*
X2121Y3033D01*
X2125Y2983D01*
X2125Y2933D01*
X2121Y2883D01*
X2113Y2833D01*
X2101Y2784D01*
X2086Y2736D01*
X2067Y2689D01*
X2044Y2644D01*
X2018Y2601D01*
X1989Y2560D01*
X1956Y2521D01*
X1921Y2485D01*
X1883Y2452D01*
X1843Y2422D01*
X1800Y2395D01*
X1755Y2372D01*
X1709Y2352D01*
X1661Y2335D01*
X1613Y2323D01*
X1563Y2314D01*
X1513Y2309D01*
X1462Y2308D01*
X1412Y2311D01*
X1362Y2318D01*
X1313Y2329D01*
X1265Y2343D01*
X1218Y2361D01*
X1172Y2383D01*
X1128Y2408D01*
X1087Y2437D01*
X1048Y2468D01*
X1011Y2503D01*
X977Y2540D01*
X946Y2580D01*
X918Y2622D01*
X894Y2666D01*
X873Y2712D01*
X856Y2760D01*
X843Y2808D01*
X833Y2858D01*
X827Y2908D01*
X825Y2958D01*
X99Y3001D02*
X100Y2928D01*
X105Y2854D01*
X113Y2782D01*
X126Y2710D01*
X142Y2638D01*
X161Y2568D01*
X185Y2498D01*
X212Y2430D01*
X243Y2364D01*
X277Y2299D01*
X314Y2236D01*
X355Y2175D01*
X398Y2117D01*
X445Y2060D01*
X495Y2006D01*
X547Y1955D01*
X602Y1907D01*
X659Y1862D01*
X719Y1819D01*
X781Y1780D01*
X845Y1744D01*
X910Y1712D01*
X978Y1683D01*
X1046Y1658D01*
X1116Y1636D01*
X1187Y1618D01*
X1259Y1603D01*
X1331Y1593D01*
X1404Y1586D01*
X1477Y1583D01*
X1281Y4434D02*
X1283Y4464D01*
X1289Y4494D01*
X1298Y4523D01*
X1311Y4550D01*
X1328Y4575D01*
X1347Y4598D01*
X1370Y4619D01*
X1395Y4636D01*
X1421Y4650D01*
X1450Y4660D01*
X1479Y4667D01*
X1509Y4670D01*
X1540Y4669D01*
X1570Y4664D01*
X1599Y4655D01*
X1626Y4643D01*
X1652Y4628D01*
X1676Y4609D01*
X1697Y4587D01*
X1715Y4563D01*
X1730Y4536D01*
X1741Y4508D01*
X1749Y4479D01*
X1753Y4449D01*
X1753Y4419D01*
X1749Y4389D01*
X1741Y4360D01*
X1730Y4332D01*
X1715Y4305D01*
X1697Y4281D01*
X1676Y4259D01*
X1652Y4240D01*
X1626Y4225D01*
X1599Y4213D01*
X1570Y4204D01*
X1540Y4199D01*
X1509Y4198D01*
X1479Y4201D01*
X1450Y4208D01*
X1421Y4218D01*
X1395Y4232D01*
X1370Y4249D01*
X1347Y4270D01*
X1328Y4293D01*
X1311Y4318D01*
X1298Y4345D01*
X1289Y4374D01*
X1283Y4404D01*
X1281Y4434D01*
X297Y4434D02*
X299Y4464D01*
X305Y4494D01*
X314Y4523D01*
X327Y4550D01*
X344Y4575D01*
X363Y4598D01*
X386Y4619D01*
X411Y4636D01*
X437Y4650D01*
X466Y4660D01*
X495Y4667D01*
X525Y4670D01*
X556Y4669D01*
X586Y4664D01*
X615Y4655D01*
X642Y4643D01*
X668Y4628D01*
X692Y4609D01*
X713Y4587D01*
X731Y4563D01*
X746Y4536D01*
X757Y4508D01*
X765Y4479D01*
X769Y4449D01*
X769Y4419D01*
X765Y4389D01*
X757Y4360D01*
X746Y4332D01*
X731Y4305D01*
X713Y4281D01*
X692Y4259D01*
X668Y4240D01*
X642Y4225D01*
X615Y4213D01*
X586Y4204D01*
X556Y4199D01*
X525Y4198D01*
X495Y4201D01*
X466Y4208D01*
X437Y4218D01*
X411Y4232D01*
X386Y4249D01*
X363Y4270D01*
X344Y4293D01*
X327Y4318D01*
X314Y4345D01*
X305Y4374D01*
X299Y4404D01*
X297Y4434D01*
X3250Y6402D02*
X3252Y6432D01*
X3258Y6462D01*
X3267Y6491D01*
X3280Y6518D01*
X3297Y6543D01*
X3316Y6566D01*
X3339Y6587D01*
X3364Y6604D01*
X3390Y6618D01*
X3419Y6628D01*
X3448Y6635D01*
X3478Y6638D01*
X3509Y6637D01*
X3539Y6632D01*
X3568Y6623D01*
X3595Y6611D01*
X3621Y6596D01*
X3645Y6577D01*
X3666Y6555D01*
X3684Y6531D01*
X3699Y6504D01*
X3710Y6476D01*
X3718Y6447D01*
X3722Y6417D01*
X3722Y6387D01*
X3718Y6357D01*
X3710Y6328D01*
X3699Y6300D01*
X3684Y6273D01*
X3666Y6249D01*
X3645Y6227D01*
X3621Y6208D01*
X3595Y6193D01*
X3568Y6181D01*
X3539Y6172D01*
X3509Y6167D01*
X3478Y6166D01*
X3448Y6169D01*
X3419Y6176D01*
X3390Y6186D01*
X3364Y6200D01*
X3339Y6217D01*
X3316Y6238D01*
X3297Y6261D01*
X3280Y6286D01*
X3267Y6313D01*
X3258Y6342D01*
X3252Y6372D01*
X3250Y6402D01*
X1281Y8371D02*
X1283Y8401D01*
X1289Y8431D01*
X1298Y8460D01*
X1311Y8487D01*
X1328Y8512D01*
X1347Y8535D01*
X1370Y8556D01*
X1395Y8573D01*
X1421Y8587D01*
X1450Y8597D01*
X1479Y8604D01*
X1509Y8607D01*
X1540Y8606D01*
X1570Y8601D01*
X1599Y8592D01*
X1626Y8580D01*
X1652Y8565D01*
X1676Y8546D01*
X1697Y8524D01*
X1715Y8500D01*
X1730Y8473D01*
X1741Y8445D01*
X1749Y8416D01*
X1753Y8386D01*
X1753Y8356D01*
X1749Y8326D01*
X1741Y8297D01*
X1730Y8269D01*
X1715Y8242D01*
X1697Y8218D01*
X1676Y8196D01*
X1652Y8177D01*
X1626Y8162D01*
X1599Y8150D01*
X1570Y8141D01*
X1540Y8136D01*
X1509Y8135D01*
X1479Y8138D01*
X1450Y8145D01*
X1421Y8155D01*
X1395Y8169D01*
X1370Y8186D01*
X1347Y8207D01*
X1328Y8230D01*
X1311Y8255D01*
X1298Y8282D01*
X1289Y8311D01*
X1283Y8341D01*
X1281Y8371D01*
X297Y8371D02*
X299Y8401D01*
X305Y8431D01*
X314Y8460D01*
X327Y8487D01*
X344Y8512D01*
X363Y8535D01*
X386Y8556D01*
X411Y8573D01*
X437Y8587D01*
X466Y8597D01*
X495Y8604D01*
X525Y8607D01*
X556Y8606D01*
X586Y8601D01*
X615Y8592D01*
X642Y8580D01*
X668Y8565D01*
X692Y8546D01*
X713Y8524D01*
X731Y8500D01*
X746Y8473D01*
X757Y8445D01*
X765Y8416D01*
X769Y8386D01*
X769Y8356D01*
X765Y8326D01*
X757Y8297D01*
X746Y8269D01*
X731Y8242D01*
X713Y8218D01*
X692Y8196D01*
X668Y8177D01*
X642Y8162D01*
X615Y8150D01*
X586Y8141D01*
X556Y8136D01*
X525Y8135D01*
X495Y8138D01*
X466Y8145D01*
X437Y8155D01*
X411Y8169D01*
X386Y8186D01*
X363Y8207D01*
X344Y8230D01*
X327Y8255D01*
X314Y8282D01*
X305Y8311D01*
X299Y8341D01*
X297Y8371D01*
X17757Y9851D02*
X17759Y9901D01*
X17765Y9951D01*
X17775Y10001D01*
X17788Y10049D01*
X17805Y10097D01*
X17826Y10143D01*
X17850Y10187D01*
X17878Y10229D01*
X17909Y10269D01*
X17943Y10306D01*
X17980Y10341D01*
X18019Y10372D01*
X18060Y10401D01*
X18104Y10426D01*
X18150Y10448D01*
X18197Y10466D01*
X18245Y10480D01*
X18294Y10491D01*
X18344Y10498D01*
X18394Y10501D01*
X18445Y10500D01*
X18495Y10495D01*
X18545Y10486D01*
X18593Y10474D01*
X18641Y10457D01*
X18687Y10437D01*
X18732Y10414D01*
X18775Y10387D01*
X18815Y10357D01*
X18853Y10324D01*
X18888Y10288D01*
X18921Y10249D01*
X18950Y10208D01*
X18976Y10165D01*
X18999Y10120D01*
X19018Y10073D01*
X19033Y10025D01*
X19045Y9976D01*
X19053Y9926D01*
X19057Y9876D01*
X19057Y9826D01*
X19053Y9776D01*
X19045Y9726D01*
X19033Y9677D01*
X19018Y9629D01*
X18999Y9582D01*
X18976Y9537D01*
X18950Y9494D01*
X18921Y9453D01*
X18888Y9414D01*
X18853Y9378D01*
X18815Y9345D01*
X18775Y9315D01*
X18732Y9288D01*
X18687Y9265D01*
X18641Y9245D01*
X18593Y9228D01*
X18545Y9216D01*
X18495Y9207D01*
X18445Y9202D01*
X18394Y9201D01*
X18344Y9204D01*
X18294Y9211D01*
X18245Y9222D01*
X18197Y9236D01*
X18150Y9254D01*
X18104Y9276D01*
X18060Y9301D01*
X18019Y9330D01*
X17980Y9361D01*
X17943Y9396D01*
X17909Y9433D01*
X17878Y9473D01*
X17850Y9515D01*
X17826Y9559D01*
X17805Y9605D01*
X17788Y9653D01*
X17775Y9701D01*
X17765Y9751D01*
X17759Y9801D01*
X17757Y9851D01*
D12*
X16860Y7887D02*
X16860Y7640D01*
X16983Y7763D02*
X16736Y7763D01*
X17045Y7519D02*
X17045Y7272D01*
X17045Y7395D02*
X16674Y7395D01*
X16798Y7272D01*
X16736Y7150D02*
X16674Y7089D01*
X16674Y6965D01*
X16736Y6903D01*
X16983Y6903D01*
X16736Y7150D01*
X16983Y7150D01*
X17045Y7089D01*
X17045Y6965D01*
X16983Y6903D01*
X17045Y6782D02*
X17045Y6535D01*
X16674Y6535D01*
X16674Y6352D02*
X16860Y6167D01*
X16860Y6414D01*
X17045Y6352D02*
X16674Y6352D01*
X16736Y6045D02*
X16674Y5984D01*
X16674Y5860D01*
X16736Y5798D01*
X16674Y5677D02*
X16674Y5430D01*
X17045Y5430D01*
X17045Y5309D02*
X16921Y5185D01*
X16921Y5247D02*
X16921Y5062D01*
X17045Y5062D02*
X16674Y5062D01*
X16674Y5247D01*
X16736Y5309D01*
X16860Y5309D01*
X16921Y5247D01*
X16860Y5430D02*
X16860Y5554D01*
X17045Y5798D02*
X16798Y6045D01*
X16736Y6045D01*
X17045Y6045D02*
X17045Y5798D01*
X17045Y4940D02*
X16674Y4940D01*
X16674Y4694D02*
X17045Y4940D01*
X17045Y4694D02*
X16674Y4694D01*
X19214Y4709D02*
X19505Y4903D01*
X19214Y4903D01*
X19214Y5004D02*
X19214Y5149D01*
X19263Y5197D01*
X19456Y5197D01*
X19505Y5149D01*
X19505Y5004D01*
X19214Y5004D01*
X19214Y4709D02*
X19505Y4709D01*
X19456Y4608D02*
X19360Y4608D01*
X19360Y4511D01*
X19456Y4414D02*
X19263Y4414D01*
X19214Y4463D01*
X19214Y4560D01*
X19263Y4608D01*
X19456Y4608D02*
X19505Y4560D01*
X19505Y4463D01*
X19456Y4414D01*
X17165Y2169D02*
X17020Y2169D01*
X17020Y1878D01*
X17165Y1878D01*
X17214Y1927D01*
X17214Y2120D01*
X17165Y2169D01*
X16919Y2169D02*
X16919Y1878D01*
X16725Y2169D01*
X16725Y1878D01*
X16624Y1927D02*
X16624Y2023D01*
X16528Y2023D01*
X16624Y1927D02*
X16576Y1878D01*
X16479Y1878D01*
X16431Y1927D01*
X16431Y2120D01*
X16479Y2169D01*
X16576Y2169D01*
X16624Y2120D01*
X16214Y2120D02*
X16165Y2169D01*
X16068Y2169D01*
X16020Y2120D01*
X16020Y1927D01*
X16068Y1878D01*
X16165Y1878D01*
X16214Y1927D01*
X15919Y1927D02*
X15871Y1878D01*
X15774Y1878D01*
X15725Y1927D01*
X15725Y2120D01*
X15774Y2169D01*
X15871Y2169D01*
X15919Y2120D01*
X15624Y2169D02*
X15624Y1975D01*
X15528Y1878D01*
X15431Y1975D01*
X15431Y2169D01*
X15214Y2120D02*
X15165Y2169D01*
X15020Y2169D01*
X15020Y1878D01*
X15165Y1878D01*
X15214Y1927D01*
X15214Y2120D01*
X14919Y2169D02*
X14725Y1878D01*
X14919Y1878D02*
X14725Y2169D01*
X14624Y2169D02*
X14431Y2169D01*
X14528Y2169D02*
X14528Y1878D01*
X14264Y1927D02*
X14264Y2120D01*
X14215Y2169D01*
X14070Y2169D01*
X14070Y1878D01*
X14215Y1878D01*
X14264Y1927D01*
X13969Y1878D02*
X13775Y2169D01*
X13674Y2120D02*
X13674Y2023D01*
X13626Y1975D01*
X13481Y1975D01*
X13578Y1975D02*
X13674Y1878D01*
X13775Y1878D02*
X13969Y2169D01*
X13674Y2120D02*
X13626Y2169D01*
X13481Y2169D01*
X13481Y1878D01*
X13167Y1878D02*
X13167Y2169D01*
X13070Y2169D02*
X13264Y2169D01*
X12969Y2120D02*
X12921Y2169D01*
X12824Y2169D01*
X12775Y2120D01*
X12775Y2072D01*
X12824Y2023D01*
X12921Y2023D01*
X12969Y1975D01*
X12969Y1927D01*
X12921Y1878D01*
X12824Y1878D01*
X12775Y1927D01*
X12674Y1878D02*
X12578Y1975D01*
X12626Y1975D02*
X12481Y1975D01*
X12481Y1878D02*
X12481Y2169D01*
X12626Y2169D01*
X12674Y2120D01*
X12674Y2023D01*
X12626Y1975D01*
X12214Y2169D02*
X12020Y2169D01*
X12117Y2169D02*
X12117Y1878D01*
X11919Y1927D02*
X11871Y1878D01*
X11774Y1878D01*
X11725Y1927D01*
X11774Y2023D02*
X11725Y2072D01*
X11725Y2120D01*
X11774Y2169D01*
X11871Y2169D01*
X11919Y2120D01*
X11871Y2023D02*
X11919Y1975D01*
X11919Y1927D01*
X11871Y2023D02*
X11774Y2023D01*
X11528Y1878D02*
X11528Y2169D01*
X11624Y2169D02*
X11431Y2169D01*
X10543Y2083D02*
X10296Y2083D01*
X10482Y2269D01*
X10482Y1898D01*
X10175Y1898D02*
X10052Y2022D01*
X10113Y2022D02*
X9928Y2022D01*
X9928Y1898D02*
X9928Y2269D01*
X10113Y2269D01*
X10175Y2207D01*
X10175Y2083D01*
X10113Y2022D01*
X8343Y2022D02*
X8343Y1960D01*
X8282Y1898D01*
X8158Y1898D01*
X8096Y1960D01*
X7975Y1960D02*
X7913Y1898D01*
X7790Y1898D01*
X7728Y1960D01*
X7728Y2207D01*
X7790Y2269D01*
X7913Y2269D01*
X7975Y2207D01*
X8096Y2207D02*
X8158Y2269D01*
X8282Y2269D01*
X8343Y2207D01*
X8343Y2145D01*
X8282Y2083D01*
X8343Y2022D01*
X8282Y2083D02*
X8220Y2083D01*
X5987Y1898D02*
X5740Y1898D01*
X5618Y1898D02*
X5495Y2021D01*
X5557Y2021D02*
X5371Y2021D01*
X5371Y1898D02*
X5371Y2268D01*
X5557Y2268D01*
X5618Y2207D01*
X5618Y2083D01*
X5557Y2021D01*
X5740Y2145D02*
X5863Y2268D01*
X5863Y1898D01*
X4588Y1808D02*
X4341Y2178D01*
X4219Y2116D02*
X4219Y1993D01*
X4158Y1931D01*
X3973Y1931D01*
X4096Y1931D02*
X4219Y1808D01*
X4341Y1808D02*
X4588Y2178D01*
X4219Y2116D02*
X4158Y2178D01*
X3973Y2178D01*
X3973Y1808D01*
X3670Y1808D02*
X3423Y2178D01*
X3301Y2178D02*
X3054Y2178D01*
X3178Y2178D02*
X3178Y1808D01*
X3423Y1808D02*
X3670Y2178D01*
X4212Y3846D02*
X4212Y4216D01*
X4398Y4216D01*
X4459Y4154D01*
X4459Y4031D01*
X4398Y3969D01*
X4212Y3969D01*
X4336Y3969D02*
X4459Y3846D01*
X4581Y3846D02*
X4828Y4092D01*
X4828Y4154D01*
X4766Y4216D01*
X4642Y4216D01*
X4581Y4154D01*
X4581Y3846D02*
X4828Y3846D01*
X4813Y5098D02*
X4875Y5160D01*
X4813Y5098D02*
X4690Y5098D01*
X4628Y5160D01*
X4628Y5407D01*
X4690Y5469D01*
X4813Y5469D01*
X4875Y5407D01*
X4996Y5283D02*
X5182Y5283D01*
X5243Y5222D01*
X5243Y5160D01*
X5182Y5098D01*
X5058Y5098D01*
X4996Y5160D01*
X4996Y5283D01*
X5120Y5407D01*
X5243Y5469D01*
X7415Y5469D02*
X7415Y5098D01*
X7415Y5222D02*
X7600Y5222D01*
X7662Y5283D01*
X7662Y5407D01*
X7600Y5469D01*
X7415Y5469D01*
X7538Y5222D02*
X7662Y5098D01*
X7783Y5098D02*
X7783Y5160D01*
X8030Y5407D01*
X8030Y5469D01*
X7783Y5469D01*
X8115Y4669D02*
X8300Y4669D01*
X8362Y4607D01*
X8362Y4483D01*
X8300Y4422D01*
X8115Y4422D01*
X8238Y4422D02*
X8362Y4298D01*
X8483Y4360D02*
X8545Y4298D01*
X8668Y4298D01*
X8730Y4360D01*
X8730Y4422D01*
X8668Y4483D01*
X8606Y4483D01*
X8668Y4483D02*
X8730Y4545D01*
X8730Y4607D01*
X8668Y4669D01*
X8545Y4669D01*
X8483Y4607D01*
X8115Y4669D02*
X8115Y4298D01*
X10665Y4219D02*
X10665Y3848D01*
X10788Y3972D01*
X10912Y3848D01*
X10912Y4219D01*
X11033Y4219D02*
X11280Y3848D01*
X11280Y4219D01*
X11401Y4157D02*
X11463Y4219D01*
X11587Y4219D01*
X11648Y4157D01*
X11401Y3910D01*
X11463Y3848D01*
X11587Y3848D01*
X11648Y3910D01*
X11648Y4157D01*
X11770Y4095D02*
X11893Y4219D01*
X11893Y3848D01*
X11770Y3848D02*
X12017Y3848D01*
X11401Y3910D02*
X11401Y4157D01*
X11033Y4219D02*
X11033Y3848D01*
X11033Y4448D02*
X11156Y4448D01*
X11095Y4448D02*
X11095Y4695D01*
X11033Y4695D01*
X11095Y4819D02*
X11095Y4880D01*
X10912Y4819D02*
X10912Y4448D01*
X10788Y4572D01*
X10665Y4448D01*
X10665Y4819D01*
X11279Y4633D02*
X11340Y4695D01*
X11525Y4695D01*
X11647Y4633D02*
X11709Y4695D01*
X11832Y4695D01*
X11894Y4633D01*
X11894Y4572D01*
X11647Y4572D01*
X11647Y4633D02*
X11647Y4510D01*
X11709Y4448D01*
X11832Y4448D01*
X12015Y4448D02*
X12015Y4695D01*
X12200Y4695D01*
X12262Y4633D01*
X12262Y4448D01*
X12384Y4510D02*
X12384Y4633D01*
X12445Y4695D01*
X12569Y4695D01*
X12630Y4633D01*
X12630Y4510D01*
X12569Y4448D01*
X12445Y4448D01*
X12384Y4510D01*
X12752Y4510D02*
X12752Y4633D01*
X12814Y4695D01*
X12999Y4695D01*
X12999Y4819D02*
X12999Y4448D01*
X12814Y4448D01*
X12752Y4510D01*
X13120Y4510D02*
X13120Y4633D01*
X13182Y4695D01*
X13305Y4695D01*
X13367Y4633D01*
X13367Y4572D01*
X13120Y4572D01*
X13120Y4510D02*
X13182Y4448D01*
X13305Y4448D01*
X11525Y4510D02*
X11464Y4572D01*
X11340Y4572D01*
X11279Y4633D01*
X11279Y4448D02*
X11464Y4448D01*
X11525Y4510D01*
X11537Y5848D02*
X11413Y5848D01*
X11351Y5910D01*
X11351Y6033D01*
X11413Y6095D01*
X11537Y6095D01*
X11598Y6033D01*
X11598Y5910D01*
X11537Y5848D01*
X11720Y5848D02*
X11720Y6219D01*
X11598Y6387D02*
X11598Y6695D01*
X11413Y6695D01*
X11351Y6633D01*
X11351Y6510D01*
X11413Y6448D01*
X11598Y6448D01*
X11598Y6387D02*
X11537Y6325D01*
X11475Y6325D01*
X11720Y6448D02*
X11843Y6448D01*
X11781Y6448D02*
X11781Y6695D01*
X11720Y6695D01*
X11781Y6819D02*
X11781Y6880D01*
X12027Y6695D02*
X11965Y6633D01*
X11965Y6510D01*
X12027Y6448D01*
X12212Y6448D01*
X12212Y6695D02*
X12027Y6695D01*
X11230Y6633D02*
X11230Y6448D01*
X11045Y6448D01*
X10983Y6510D01*
X11045Y6572D01*
X11230Y6572D01*
X11230Y6633D02*
X11168Y6695D01*
X11045Y6695D01*
X10862Y6819D02*
X10862Y6448D01*
X10615Y6448D02*
X10615Y6819D01*
X10738Y6695D01*
X10862Y6819D01*
X10800Y6219D02*
X10676Y6219D01*
X10615Y6157D01*
X10615Y6095D01*
X10676Y6033D01*
X10800Y6033D01*
X10862Y5972D01*
X10862Y5910D01*
X10800Y5848D01*
X10676Y5848D01*
X10615Y5910D01*
X10862Y6157D02*
X10800Y6219D01*
X10983Y6095D02*
X11045Y6095D01*
X11106Y6033D01*
X11168Y6095D01*
X11230Y6033D01*
X11230Y5848D01*
X11106Y5848D02*
X11106Y6033D01*
X10983Y6095D02*
X10983Y5848D01*
X11720Y5972D02*
X11905Y6095D01*
X12027Y6033D02*
X12088Y6095D01*
X12212Y6095D01*
X12273Y6033D01*
X12273Y5972D01*
X12027Y5972D01*
X12027Y6033D02*
X12027Y5910D01*
X12088Y5848D01*
X12212Y5848D01*
X11905Y5848D02*
X11720Y5972D01*
X9386Y6750D02*
X9139Y6750D01*
X9018Y6750D02*
X8894Y6873D01*
X8832Y6750D02*
X8771Y6812D01*
X8771Y7058D01*
X8832Y7120D01*
X8956Y7120D01*
X9018Y7058D01*
X9018Y6812D01*
X8956Y6750D01*
X8832Y6750D01*
X9139Y6997D02*
X9262Y7120D01*
X9262Y6750D01*
X7918Y8298D02*
X7795Y8298D01*
X7733Y8360D01*
X7733Y8483D02*
X7856Y8545D01*
X7918Y8545D01*
X7980Y8483D01*
X7980Y8360D01*
X7918Y8298D01*
X7733Y8483D02*
X7733Y8669D01*
X7980Y8669D01*
X7993Y8848D02*
X7746Y8848D01*
X7870Y8848D02*
X7870Y9219D01*
X7746Y9095D01*
X7625Y9157D02*
X7563Y9219D01*
X7440Y9219D01*
X7378Y9157D01*
X7378Y8910D01*
X7440Y8848D01*
X7563Y8848D01*
X7625Y8910D01*
X7550Y8669D02*
X7365Y8669D01*
X7365Y8298D01*
X7365Y8422D02*
X7550Y8422D01*
X7612Y8483D01*
X7612Y8607D01*
X7550Y8669D01*
X7488Y8422D02*
X7612Y8298D01*
X6430Y8310D02*
X6430Y8372D01*
X6368Y8433D01*
X6183Y8433D01*
X6183Y8310D01*
X6245Y8248D01*
X6368Y8248D01*
X6430Y8310D01*
X6183Y8433D02*
X6306Y8557D01*
X6430Y8619D01*
X6062Y8557D02*
X6062Y8433D01*
X6000Y8372D01*
X5815Y8372D01*
X5938Y8372D02*
X6062Y8248D01*
X5815Y8248D02*
X5815Y8619D01*
X6000Y8619D01*
X6062Y8557D01*
X6079Y9178D02*
X6127Y9227D01*
X6127Y9323D01*
X6031Y9323D01*
X5934Y9227D02*
X5934Y9420D01*
X5982Y9469D01*
X6079Y9469D01*
X6127Y9420D01*
X6229Y9469D02*
X6422Y9178D01*
X6422Y9469D01*
X6523Y9469D02*
X6668Y9469D01*
X6717Y9420D01*
X6717Y9227D01*
X6668Y9178D01*
X6523Y9178D01*
X6523Y9469D01*
X6229Y9469D02*
X6229Y9178D01*
X6079Y9178D02*
X5982Y9178D01*
X5934Y9227D01*
X5717Y9323D02*
X5523Y9323D01*
X5668Y9469D01*
X5668Y9178D01*
X5422Y9178D02*
X5229Y9178D01*
X5325Y9178D02*
X5325Y9469D01*
X5229Y9372D01*
X5127Y9420D02*
X5127Y9323D01*
X5079Y9275D01*
X4934Y9275D01*
X4934Y9178D02*
X4934Y9469D01*
X5079Y9469D01*
X5127Y9420D01*
X4617Y9420D02*
X4617Y9372D01*
X4568Y9323D01*
X4617Y9275D01*
X4617Y9227D01*
X4568Y9178D01*
X4472Y9178D01*
X4423Y9227D01*
X4322Y9178D02*
X4129Y9178D01*
X4225Y9178D02*
X4225Y9469D01*
X4129Y9372D01*
X4027Y9420D02*
X4027Y9323D01*
X3979Y9275D01*
X3834Y9275D01*
X3834Y9178D02*
X3834Y9469D01*
X3979Y9469D01*
X4027Y9420D01*
X4423Y9420D02*
X4472Y9469D01*
X4568Y9469D01*
X4617Y9420D01*
X4568Y9323D02*
X4520Y9323D01*
X3617Y9227D02*
X3568Y9178D01*
X3472Y9178D01*
X3423Y9227D01*
X3423Y9420D01*
X3472Y9469D01*
X3568Y9469D01*
X3617Y9420D01*
X3322Y9420D02*
X3274Y9469D01*
X3177Y9469D01*
X3129Y9420D01*
X3129Y9227D01*
X3177Y9178D01*
X3274Y9178D01*
X3322Y9227D01*
X3027Y9275D02*
X2931Y9178D01*
X2834Y9275D01*
X2834Y9469D01*
X3027Y9469D02*
X3027Y9275D01*
X1264Y7520D02*
X1215Y7569D01*
X1070Y7569D01*
X1070Y7278D01*
X1215Y7278D01*
X1264Y7327D01*
X1264Y7520D01*
X969Y7569D02*
X969Y7278D01*
X775Y7569D01*
X775Y7278D01*
X674Y7327D02*
X674Y7423D01*
X578Y7423D01*
X674Y7327D02*
X626Y7278D01*
X529Y7278D01*
X481Y7327D01*
X481Y7520D01*
X529Y7569D01*
X626Y7569D01*
X674Y7520D01*
X621Y6619D02*
X475Y6619D01*
X475Y6328D01*
X621Y6328D01*
X669Y6377D01*
X669Y6570D01*
X621Y6619D01*
X770Y6570D02*
X818Y6619D01*
X915Y6619D01*
X964Y6570D01*
X964Y6377D01*
X915Y6328D01*
X818Y6328D01*
X770Y6377D01*
X770Y6570D01*
X867Y6425D02*
X964Y6328D01*
X921Y5619D02*
X824Y5619D01*
X775Y5570D01*
X775Y5377D01*
X824Y5328D01*
X921Y5328D01*
X969Y5377D01*
X1070Y5377D02*
X1118Y5328D01*
X1215Y5328D01*
X1264Y5377D01*
X1264Y5570D02*
X1215Y5619D01*
X1118Y5619D01*
X1070Y5570D01*
X1070Y5377D01*
X969Y5570D02*
X921Y5619D01*
X674Y5619D02*
X674Y5425D01*
X578Y5328D01*
X481Y5425D01*
X481Y5619D01*
X8615Y10560D02*
X8676Y10498D01*
X8800Y10498D01*
X8862Y10560D01*
X8983Y10498D02*
X9230Y10745D01*
X9230Y10807D01*
X9168Y10869D01*
X9045Y10869D01*
X8983Y10807D01*
X8862Y10807D02*
X8800Y10869D01*
X8676Y10869D01*
X8615Y10807D01*
X8615Y10560D01*
X8983Y10498D02*
X9230Y10498D01*
X10514Y10197D02*
X10805Y10197D01*
X10514Y10004D01*
X10805Y10004D01*
X10805Y9806D02*
X10514Y9806D01*
X10514Y9709D02*
X10514Y9903D01*
X10563Y9608D02*
X10611Y9608D01*
X10660Y9560D01*
X10660Y9414D01*
X10805Y9414D02*
X10514Y9414D01*
X10514Y9560D01*
X10563Y9608D01*
X10660Y9560D02*
X10708Y9608D01*
X10756Y9608D01*
X10805Y9560D01*
X10805Y9414D01*
X10293Y9169D02*
X10046Y9169D01*
X10046Y8983D01*
X10170Y9045D01*
X10232Y9045D01*
X10293Y8983D01*
X10293Y8860D01*
X10232Y8798D01*
X10108Y8798D01*
X10046Y8860D01*
X9925Y8860D02*
X9863Y8798D01*
X9740Y8798D01*
X9678Y8860D01*
X9678Y9107D01*
X9740Y9169D01*
X9863Y9169D01*
X9925Y9107D01*
X10926Y10498D02*
X11050Y10498D01*
X11112Y10560D01*
X11233Y10683D02*
X11480Y10683D01*
X11418Y10869D02*
X11233Y10683D01*
X11112Y10807D02*
X11050Y10869D01*
X10926Y10869D01*
X10865Y10807D01*
X10865Y10560D01*
X10926Y10498D01*
X11418Y10498D02*
X11418Y10869D01*
D13*
X6741Y10312D02*
X6741Y9812D01*
X6491Y9562D01*
X5991Y9562D01*
X5741Y9812D01*
X5491Y9562D01*
X4991Y9562D01*
X4741Y9812D01*
X4491Y9562D01*
X3991Y9562D01*
X3741Y9812D01*
X3491Y9562D01*
X2991Y9562D01*
X2741Y9812D01*
X2741Y10312D01*
X2991Y10562D01*
X3491Y10562D01*
X3741Y10312D01*
X3991Y10562D01*
X4491Y10562D01*
X4741Y10312D01*
X4991Y10562D01*
X5491Y10562D01*
X5741Y10312D01*
X5991Y10562D01*
X6491Y10562D01*
X6741Y10312D01*
X4470Y8764D02*
X4076Y8764D01*
X4470Y8764D02*
X4470Y4040D01*
X4076Y4040D01*
X2895Y4040D02*
X139Y4040D01*
X139Y8764D01*
X2895Y8764D01*
X2770Y7873D02*
X2270Y7873D01*
X2020Y7623D01*
X2020Y7123D01*
X2270Y6873D01*
X2020Y6623D01*
X2020Y6123D01*
X2270Y5873D01*
X2020Y5623D01*
X2020Y5123D01*
X2270Y4873D01*
X2770Y4873D01*
X3020Y5123D01*
X3020Y5623D01*
X2770Y5873D01*
X3020Y6123D01*
X3020Y6623D01*
X2770Y6873D01*
X3020Y7123D01*
X3020Y7623D01*
X2770Y7873D01*
X11327Y3009D02*
X11577Y3259D01*
X12077Y3259D01*
X12327Y3009D01*
X12577Y3259D01*
X13077Y3259D01*
X13327Y3009D01*
X13577Y3259D01*
X14077Y3259D01*
X14327Y3009D01*
X14577Y3259D01*
X15077Y3259D01*
X15327Y3009D01*
X15577Y3259D01*
X16077Y3259D01*
X16327Y3009D01*
X16577Y3259D01*
X17077Y3259D01*
X17327Y3009D01*
X17327Y2509D01*
X17077Y2259D01*
X16577Y2259D01*
X16327Y2509D01*
X16077Y2259D01*
X15577Y2259D01*
X15327Y2509D01*
X15077Y2259D01*
X14577Y2259D01*
X14327Y2509D01*
X14077Y2259D01*
X13577Y2259D01*
X13327Y2509D01*
X13077Y2259D01*
X12577Y2259D01*
X12327Y2509D01*
X12077Y2259D01*
X11577Y2259D01*
X11327Y2509D01*
X11327Y3009D01*
X14306Y5063D02*
X15093Y5063D01*
X15920Y5693D02*
X15920Y6874D01*
X15093Y7504D02*
X14306Y7504D01*
X13479Y6874D02*
X13479Y5693D01*
X14011Y6283D02*
X14013Y6335D01*
X14019Y6387D01*
X14029Y6438D01*
X14042Y6488D01*
X14060Y6538D01*
X14081Y6585D01*
X14105Y6631D01*
X14134Y6675D01*
X14165Y6717D01*
X14199Y6756D01*
X14236Y6793D01*
X14276Y6826D01*
X14319Y6857D01*
X14363Y6884D01*
X14409Y6908D01*
X14458Y6928D01*
X14507Y6944D01*
X14558Y6957D01*
X14609Y6966D01*
X14661Y6971D01*
X14713Y6972D01*
X14765Y6969D01*
X14817Y6962D01*
X14868Y6951D01*
X14918Y6937D01*
X14967Y6918D01*
X15014Y6896D01*
X15059Y6871D01*
X15103Y6842D01*
X15144Y6810D01*
X15183Y6775D01*
X15218Y6737D01*
X15251Y6696D01*
X15281Y6654D01*
X15307Y6609D01*
X15330Y6562D01*
X15349Y6513D01*
X15365Y6463D01*
X15377Y6413D01*
X15385Y6361D01*
X15389Y6309D01*
X15389Y6257D01*
X15385Y6205D01*
X15377Y6153D01*
X15365Y6103D01*
X15349Y6053D01*
X15330Y6004D01*
X15307Y5957D01*
X15281Y5912D01*
X15251Y5870D01*
X15218Y5829D01*
X15183Y5791D01*
X15144Y5756D01*
X15103Y5724D01*
X15059Y5695D01*
X15014Y5670D01*
X14967Y5648D01*
X14918Y5629D01*
X14868Y5615D01*
X14817Y5604D01*
X14765Y5597D01*
X14713Y5594D01*
X14661Y5595D01*
X14609Y5600D01*
X14558Y5609D01*
X14507Y5622D01*
X14458Y5638D01*
X14409Y5658D01*
X14363Y5682D01*
X14319Y5709D01*
X14276Y5740D01*
X14236Y5773D01*
X14199Y5810D01*
X14165Y5849D01*
X14134Y5891D01*
X14105Y5935D01*
X14081Y5981D01*
X14060Y6028D01*
X14042Y6078D01*
X14029Y6128D01*
X14019Y6179D01*
X14013Y6231D01*
X14011Y6283D01*
D14*
X17108Y6051D02*
X17108Y5551D01*
X17358Y5301D01*
X17108Y5051D01*
X17108Y4551D01*
X17358Y4301D01*
X18858Y4301D01*
X19108Y4551D01*
X19108Y5051D01*
X18858Y5301D01*
X19108Y5551D01*
X19108Y6051D01*
X18858Y6301D01*
X19108Y6551D01*
X19108Y7051D01*
X18858Y7301D01*
X19108Y7551D01*
X19108Y8051D01*
X18858Y8301D01*
X17358Y8301D01*
X17108Y8051D01*
X17108Y7551D01*
X17358Y7301D01*
X17108Y7051D01*
X17108Y6551D01*
X17358Y6301D01*
X17108Y6051D01*
X17132Y4446D02*
X17332Y4446D01*
X17332Y4246D01*
X16532Y4446D02*
X16332Y4446D01*
X16332Y4246D01*
X16332Y3646D02*
X16332Y3446D01*
X16532Y3446D01*
X17132Y3446D02*
X17332Y3446D01*
X17332Y3646D01*
X17332Y8170D02*
X17332Y8370D01*
X17332Y8170D02*
X17132Y8170D01*
X16532Y8170D02*
X16332Y8170D01*
X16332Y8370D01*
X16332Y8970D02*
X16332Y9170D01*
X16532Y9170D01*
X16575Y9315D02*
X13575Y9315D01*
X13575Y9365D01*
X13575Y10465D01*
X13575Y10515D01*
X16575Y10515D01*
X16592Y10513D01*
X16609Y10509D01*
X16625Y10502D01*
X16639Y10492D01*
X16652Y10479D01*
X16662Y10465D01*
X16669Y10449D01*
X16673Y10432D01*
X16675Y10415D01*
X16675Y9415D01*
X16673Y9398D01*
X16669Y9381D01*
X16662Y9365D01*
X16652Y9351D01*
X16639Y9338D01*
X16625Y9328D01*
X16609Y9321D01*
X16592Y9317D01*
X16575Y9315D01*
X17132Y9170D02*
X17332Y9170D01*
X17332Y8970D01*
X15325Y9915D02*
X15125Y9915D01*
X15125Y9615D01*
X14975Y9615D02*
X14975Y10215D01*
X14825Y10215D01*
X14825Y9615D01*
X14975Y9615D01*
X14675Y9615D02*
X14675Y9915D01*
X14475Y9915D01*
X14675Y9915D02*
X14675Y10215D01*
X15125Y10215D02*
X15125Y9915D01*
X13575Y9365D02*
X13425Y9365D01*
X13425Y10465D01*
X13575Y10465D01*
D15*
X4256Y3101D03*
X3371Y3101D03*
D16*
X8134Y5476D02*
X8134Y8291D01*
X9866Y8291D01*
X9866Y5476D01*
X8134Y5476D01*
X8251Y8133D02*
X8253Y8141D01*
X8258Y8148D01*
X8265Y8152D01*
X8273Y8153D01*
X8281Y8150D01*
X8287Y8145D01*
X8291Y8137D01*
X8291Y8129D01*
X8287Y8121D01*
X8281Y8116D01*
X8273Y8113D01*
X8265Y8114D01*
X8258Y8118D01*
X8253Y8125D01*
X8251Y8133D01*
X15907Y8670D02*
X16207Y8670D01*
X16057Y8820D02*
X16057Y8520D01*
X15907Y3996D02*
X16207Y3996D01*
D17*
X13225Y9715D02*
X13075Y9715D01*
X13055Y9695D01*
X13075Y10115D02*
X13055Y10135D01*
X13075Y10115D02*
X13175Y10115D01*
D18*
X13290Y10115D03*
X13290Y9715D03*
D19*
X15645Y9795D02*
X15705Y9735D01*
X15825Y9735D01*
X15885Y9795D01*
X15885Y10035D01*
X15825Y10096D01*
X15705Y10096D01*
X15645Y10035D01*
X15645Y9795D01*
X15765Y9855D02*
X15885Y9735D01*
X16193Y9735D02*
X16193Y10096D01*
X16013Y9915D01*
X16253Y9915D01*
D20*
X1475Y11623D02*
X1478Y11623D01*
X18407Y11623D01*
X18410Y11623D01*
X17760Y12998D02*
X17762Y13048D01*
X17768Y13098D01*
X17778Y13148D01*
X17791Y13196D01*
X17808Y13244D01*
X17829Y13290D01*
X17853Y13334D01*
X17881Y13376D01*
X17912Y13416D01*
X17946Y13453D01*
X17983Y13488D01*
X18022Y13519D01*
X18063Y13548D01*
X18107Y13573D01*
X18153Y13595D01*
X18200Y13613D01*
X18248Y13627D01*
X18297Y13638D01*
X18347Y13645D01*
X18397Y13648D01*
X18448Y13647D01*
X18498Y13642D01*
X18548Y13633D01*
X18596Y13621D01*
X18644Y13604D01*
X18690Y13584D01*
X18735Y13561D01*
X18778Y13534D01*
X18818Y13504D01*
X18856Y13471D01*
X18891Y13435D01*
X18924Y13396D01*
X18953Y13355D01*
X18979Y13312D01*
X19002Y13267D01*
X19021Y13220D01*
X19036Y13172D01*
X19048Y13123D01*
X19056Y13073D01*
X19060Y13023D01*
X19060Y12973D01*
X19056Y12923D01*
X19048Y12873D01*
X19036Y12824D01*
X19021Y12776D01*
X19002Y12729D01*
X18979Y12684D01*
X18953Y12641D01*
X18924Y12600D01*
X18891Y12561D01*
X18856Y12525D01*
X18818Y12492D01*
X18778Y12462D01*
X18735Y12435D01*
X18690Y12412D01*
X18644Y12392D01*
X18596Y12375D01*
X18548Y12363D01*
X18498Y12354D01*
X18448Y12349D01*
X18397Y12348D01*
X18347Y12351D01*
X18297Y12358D01*
X18248Y12369D01*
X18200Y12383D01*
X18153Y12401D01*
X18107Y12423D01*
X18063Y12448D01*
X18022Y12477D01*
X17983Y12508D01*
X17946Y12543D01*
X17912Y12580D01*
X17881Y12620D01*
X17853Y12662D01*
X17829Y12706D01*
X17808Y12752D01*
X17791Y12800D01*
X17778Y12848D01*
X17768Y12898D01*
X17762Y12948D01*
X17760Y12998D01*
X18407Y11623D02*
X18481Y11626D01*
X18555Y11633D01*
X18629Y11644D01*
X18701Y11659D01*
X18773Y11677D01*
X18844Y11700D01*
X18914Y11726D01*
X18982Y11756D01*
X19048Y11789D01*
X19113Y11826D01*
X19175Y11867D01*
X19236Y11910D01*
X19294Y11957D01*
X19349Y12007D01*
X19401Y12059D01*
X19451Y12114D01*
X19498Y12172D01*
X19541Y12233D01*
X19582Y12295D01*
X19619Y12360D01*
X19652Y12426D01*
X19682Y12494D01*
X19708Y12564D01*
X19731Y12635D01*
X19749Y12707D01*
X19764Y12779D01*
X19775Y12853D01*
X19782Y12927D01*
X19785Y13001D01*
X19785Y12998D01*
X19785Y13001D02*
X19785Y19852D01*
X19785Y19897D01*
X19785Y19852D02*
X19787Y19924D01*
X19785Y19995D01*
X19780Y20067D01*
X19771Y20138D01*
X19758Y20209D01*
X19741Y20278D01*
X19720Y20347D01*
X19696Y20415D01*
X19669Y20481D01*
X19637Y20545D01*
X19603Y20608D01*
X19565Y20669D01*
X19524Y20728D01*
X19480Y20784D01*
X19432Y20838D01*
X19382Y20889D01*
X19330Y20938D01*
X19275Y20984D01*
X19217Y21027D01*
X19157Y21066D01*
X19095Y21103D01*
X19032Y21136D01*
X18967Y21165D01*
X18900Y21191D01*
X18832Y21214D01*
X18762Y21232D01*
X18692Y21247D01*
X18621Y21259D01*
X18550Y21266D01*
X18479Y21270D01*
X18407Y21269D01*
X18410Y21269D01*
X18407Y21269D02*
X1478Y21269D01*
X825Y19894D02*
X827Y19944D01*
X833Y19994D01*
X843Y20044D01*
X856Y20092D01*
X873Y20140D01*
X894Y20186D01*
X918Y20230D01*
X946Y20272D01*
X977Y20312D01*
X1011Y20349D01*
X1048Y20384D01*
X1087Y20415D01*
X1128Y20444D01*
X1172Y20469D01*
X1218Y20491D01*
X1265Y20509D01*
X1313Y20523D01*
X1362Y20534D01*
X1412Y20541D01*
X1462Y20544D01*
X1513Y20543D01*
X1563Y20538D01*
X1613Y20529D01*
X1661Y20517D01*
X1709Y20500D01*
X1755Y20480D01*
X1800Y20457D01*
X1843Y20430D01*
X1883Y20400D01*
X1921Y20367D01*
X1956Y20331D01*
X1989Y20292D01*
X2018Y20251D01*
X2044Y20208D01*
X2067Y20163D01*
X2086Y20116D01*
X2101Y20068D01*
X2113Y20019D01*
X2121Y19969D01*
X2125Y19919D01*
X2125Y19869D01*
X2121Y19819D01*
X2113Y19769D01*
X2101Y19720D01*
X2086Y19672D01*
X2067Y19625D01*
X2044Y19580D01*
X2018Y19537D01*
X1989Y19496D01*
X1956Y19457D01*
X1921Y19421D01*
X1883Y19388D01*
X1843Y19358D01*
X1800Y19331D01*
X1755Y19308D01*
X1709Y19288D01*
X1661Y19271D01*
X1613Y19259D01*
X1563Y19250D01*
X1513Y19245D01*
X1462Y19244D01*
X1412Y19247D01*
X1362Y19254D01*
X1313Y19265D01*
X1265Y19279D01*
X1218Y19297D01*
X1172Y19319D01*
X1128Y19344D01*
X1087Y19373D01*
X1048Y19404D01*
X1011Y19439D01*
X977Y19476D01*
X946Y19516D01*
X918Y19558D01*
X894Y19602D01*
X873Y19648D01*
X856Y19696D01*
X843Y19744D01*
X833Y19794D01*
X827Y19844D01*
X825Y19894D01*
X100Y19891D02*
X102Y19963D01*
X108Y20035D01*
X117Y20107D01*
X130Y20178D01*
X147Y20248D01*
X167Y20317D01*
X192Y20385D01*
X219Y20451D01*
X250Y20517D01*
X285Y20580D01*
X322Y20642D01*
X363Y20701D01*
X407Y20758D01*
X454Y20813D01*
X504Y20865D01*
X556Y20915D01*
X611Y20962D01*
X668Y21006D01*
X727Y21047D01*
X789Y21084D01*
X852Y21119D01*
X918Y21150D01*
X984Y21177D01*
X1052Y21202D01*
X1121Y21222D01*
X1191Y21239D01*
X1262Y21252D01*
X1334Y21261D01*
X1406Y21267D01*
X1478Y21269D01*
X100Y19894D02*
X100Y19891D01*
X100Y13041D01*
X100Y12998D01*
X825Y12998D02*
X827Y13048D01*
X833Y13098D01*
X843Y13148D01*
X856Y13196D01*
X873Y13244D01*
X894Y13290D01*
X918Y13334D01*
X946Y13376D01*
X977Y13416D01*
X1011Y13453D01*
X1048Y13488D01*
X1087Y13519D01*
X1128Y13548D01*
X1172Y13573D01*
X1218Y13595D01*
X1265Y13613D01*
X1313Y13627D01*
X1362Y13638D01*
X1412Y13645D01*
X1462Y13648D01*
X1513Y13647D01*
X1563Y13642D01*
X1613Y13633D01*
X1661Y13621D01*
X1709Y13604D01*
X1755Y13584D01*
X1800Y13561D01*
X1843Y13534D01*
X1883Y13504D01*
X1921Y13471D01*
X1956Y13435D01*
X1989Y13396D01*
X2018Y13355D01*
X2044Y13312D01*
X2067Y13267D01*
X2086Y13220D01*
X2101Y13172D01*
X2113Y13123D01*
X2121Y13073D01*
X2125Y13023D01*
X2125Y12973D01*
X2121Y12923D01*
X2113Y12873D01*
X2101Y12824D01*
X2086Y12776D01*
X2067Y12729D01*
X2044Y12684D01*
X2018Y12641D01*
X1989Y12600D01*
X1956Y12561D01*
X1921Y12525D01*
X1883Y12492D01*
X1843Y12462D01*
X1800Y12435D01*
X1755Y12412D01*
X1709Y12392D01*
X1661Y12375D01*
X1613Y12363D01*
X1563Y12354D01*
X1513Y12349D01*
X1462Y12348D01*
X1412Y12351D01*
X1362Y12358D01*
X1313Y12369D01*
X1265Y12383D01*
X1218Y12401D01*
X1172Y12423D01*
X1128Y12448D01*
X1087Y12477D01*
X1048Y12508D01*
X1011Y12543D01*
X977Y12580D01*
X946Y12620D01*
X918Y12662D01*
X894Y12706D01*
X873Y12752D01*
X856Y12800D01*
X843Y12848D01*
X833Y12898D01*
X827Y12948D01*
X825Y12998D01*
X99Y13041D02*
X100Y12968D01*
X105Y12894D01*
X113Y12822D01*
X126Y12750D01*
X142Y12678D01*
X161Y12608D01*
X185Y12538D01*
X212Y12470D01*
X243Y12404D01*
X277Y12339D01*
X314Y12276D01*
X355Y12215D01*
X398Y12157D01*
X445Y12100D01*
X495Y12046D01*
X547Y11995D01*
X602Y11947D01*
X659Y11902D01*
X719Y11859D01*
X781Y11820D01*
X845Y11784D01*
X910Y11752D01*
X978Y11723D01*
X1046Y11698D01*
X1116Y11676D01*
X1187Y11658D01*
X1259Y11643D01*
X1331Y11633D01*
X1404Y11626D01*
X1477Y11623D01*
X1281Y14474D02*
X1283Y14504D01*
X1289Y14534D01*
X1298Y14563D01*
X1311Y14590D01*
X1328Y14615D01*
X1347Y14638D01*
X1370Y14659D01*
X1395Y14676D01*
X1421Y14690D01*
X1450Y14700D01*
X1479Y14707D01*
X1509Y14710D01*
X1540Y14709D01*
X1570Y14704D01*
X1599Y14695D01*
X1626Y14683D01*
X1652Y14668D01*
X1676Y14649D01*
X1697Y14627D01*
X1715Y14603D01*
X1730Y14576D01*
X1741Y14548D01*
X1749Y14519D01*
X1753Y14489D01*
X1753Y14459D01*
X1749Y14429D01*
X1741Y14400D01*
X1730Y14372D01*
X1715Y14345D01*
X1697Y14321D01*
X1676Y14299D01*
X1652Y14280D01*
X1626Y14265D01*
X1599Y14253D01*
X1570Y14244D01*
X1540Y14239D01*
X1509Y14238D01*
X1479Y14241D01*
X1450Y14248D01*
X1421Y14258D01*
X1395Y14272D01*
X1370Y14289D01*
X1347Y14310D01*
X1328Y14333D01*
X1311Y14358D01*
X1298Y14385D01*
X1289Y14414D01*
X1283Y14444D01*
X1281Y14474D01*
X297Y14474D02*
X299Y14504D01*
X305Y14534D01*
X314Y14563D01*
X327Y14590D01*
X344Y14615D01*
X363Y14638D01*
X386Y14659D01*
X411Y14676D01*
X437Y14690D01*
X466Y14700D01*
X495Y14707D01*
X525Y14710D01*
X556Y14709D01*
X586Y14704D01*
X615Y14695D01*
X642Y14683D01*
X668Y14668D01*
X692Y14649D01*
X713Y14627D01*
X731Y14603D01*
X746Y14576D01*
X757Y14548D01*
X765Y14519D01*
X769Y14489D01*
X769Y14459D01*
X765Y14429D01*
X757Y14400D01*
X746Y14372D01*
X731Y14345D01*
X713Y14321D01*
X692Y14299D01*
X668Y14280D01*
X642Y14265D01*
X615Y14253D01*
X586Y14244D01*
X556Y14239D01*
X525Y14238D01*
X495Y14241D01*
X466Y14248D01*
X437Y14258D01*
X411Y14272D01*
X386Y14289D01*
X363Y14310D01*
X344Y14333D01*
X327Y14358D01*
X314Y14385D01*
X305Y14414D01*
X299Y14444D01*
X297Y14474D01*
X3250Y16442D02*
X3252Y16472D01*
X3258Y16502D01*
X3267Y16531D01*
X3280Y16558D01*
X3297Y16583D01*
X3316Y16606D01*
X3339Y16627D01*
X3364Y16644D01*
X3390Y16658D01*
X3419Y16668D01*
X3448Y16675D01*
X3478Y16678D01*
X3509Y16677D01*
X3539Y16672D01*
X3568Y16663D01*
X3595Y16651D01*
X3621Y16636D01*
X3645Y16617D01*
X3666Y16595D01*
X3684Y16571D01*
X3699Y16544D01*
X3710Y16516D01*
X3718Y16487D01*
X3722Y16457D01*
X3722Y16427D01*
X3718Y16397D01*
X3710Y16368D01*
X3699Y16340D01*
X3684Y16313D01*
X3666Y16289D01*
X3645Y16267D01*
X3621Y16248D01*
X3595Y16233D01*
X3568Y16221D01*
X3539Y16212D01*
X3509Y16207D01*
X3478Y16206D01*
X3448Y16209D01*
X3419Y16216D01*
X3390Y16226D01*
X3364Y16240D01*
X3339Y16257D01*
X3316Y16278D01*
X3297Y16301D01*
X3280Y16326D01*
X3267Y16353D01*
X3258Y16382D01*
X3252Y16412D01*
X3250Y16442D01*
X1281Y18411D02*
X1283Y18441D01*
X1289Y18471D01*
X1298Y18500D01*
X1311Y18527D01*
X1328Y18552D01*
X1347Y18575D01*
X1370Y18596D01*
X1395Y18613D01*
X1421Y18627D01*
X1450Y18637D01*
X1479Y18644D01*
X1509Y18647D01*
X1540Y18646D01*
X1570Y18641D01*
X1599Y18632D01*
X1626Y18620D01*
X1652Y18605D01*
X1676Y18586D01*
X1697Y18564D01*
X1715Y18540D01*
X1730Y18513D01*
X1741Y18485D01*
X1749Y18456D01*
X1753Y18426D01*
X1753Y18396D01*
X1749Y18366D01*
X1741Y18337D01*
X1730Y18309D01*
X1715Y18282D01*
X1697Y18258D01*
X1676Y18236D01*
X1652Y18217D01*
X1626Y18202D01*
X1599Y18190D01*
X1570Y18181D01*
X1540Y18176D01*
X1509Y18175D01*
X1479Y18178D01*
X1450Y18185D01*
X1421Y18195D01*
X1395Y18209D01*
X1370Y18226D01*
X1347Y18247D01*
X1328Y18270D01*
X1311Y18295D01*
X1298Y18322D01*
X1289Y18351D01*
X1283Y18381D01*
X1281Y18411D01*
X297Y18411D02*
X299Y18441D01*
X305Y18471D01*
X314Y18500D01*
X327Y18527D01*
X344Y18552D01*
X363Y18575D01*
X386Y18596D01*
X411Y18613D01*
X437Y18627D01*
X466Y18637D01*
X495Y18644D01*
X525Y18647D01*
X556Y18646D01*
X586Y18641D01*
X615Y18632D01*
X642Y18620D01*
X668Y18605D01*
X692Y18586D01*
X713Y18564D01*
X731Y18540D01*
X746Y18513D01*
X757Y18485D01*
X765Y18456D01*
X769Y18426D01*
X769Y18396D01*
X765Y18366D01*
X757Y18337D01*
X746Y18309D01*
X731Y18282D01*
X713Y18258D01*
X692Y18236D01*
X668Y18217D01*
X642Y18202D01*
X615Y18190D01*
X586Y18181D01*
X556Y18176D01*
X525Y18175D01*
X495Y18178D01*
X466Y18185D01*
X437Y18195D01*
X411Y18209D01*
X386Y18226D01*
X363Y18247D01*
X344Y18270D01*
X327Y18295D01*
X314Y18322D01*
X305Y18351D01*
X299Y18381D01*
X297Y18411D01*
X17757Y19891D02*
X17759Y19941D01*
X17765Y19991D01*
X17775Y20041D01*
X17788Y20089D01*
X17805Y20137D01*
X17826Y20183D01*
X17850Y20227D01*
X17878Y20269D01*
X17909Y20309D01*
X17943Y20346D01*
X17980Y20381D01*
X18019Y20412D01*
X18060Y20441D01*
X18104Y20466D01*
X18150Y20488D01*
X18197Y20506D01*
X18245Y20520D01*
X18294Y20531D01*
X18344Y20538D01*
X18394Y20541D01*
X18445Y20540D01*
X18495Y20535D01*
X18545Y20526D01*
X18593Y20514D01*
X18641Y20497D01*
X18687Y20477D01*
X18732Y20454D01*
X18775Y20427D01*
X18815Y20397D01*
X18853Y20364D01*
X18888Y20328D01*
X18921Y20289D01*
X18950Y20248D01*
X18976Y20205D01*
X18999Y20160D01*
X19018Y20113D01*
X19033Y20065D01*
X19045Y20016D01*
X19053Y19966D01*
X19057Y19916D01*
X19057Y19866D01*
X19053Y19816D01*
X19045Y19766D01*
X19033Y19717D01*
X19018Y19669D01*
X18999Y19622D01*
X18976Y19577D01*
X18950Y19534D01*
X18921Y19493D01*
X18888Y19454D01*
X18853Y19418D01*
X18815Y19385D01*
X18775Y19355D01*
X18732Y19328D01*
X18687Y19305D01*
X18641Y19285D01*
X18593Y19268D01*
X18545Y19256D01*
X18495Y19247D01*
X18445Y19242D01*
X18394Y19241D01*
X18344Y19244D01*
X18294Y19251D01*
X18245Y19262D01*
X18197Y19276D01*
X18150Y19294D01*
X18104Y19316D01*
X18060Y19341D01*
X18019Y19370D01*
X17980Y19401D01*
X17943Y19436D01*
X17909Y19473D01*
X17878Y19513D01*
X17850Y19555D01*
X17826Y19599D01*
X17805Y19645D01*
X17788Y19693D01*
X17775Y19741D01*
X17765Y19791D01*
X17759Y19841D01*
X17757Y19891D01*
D21*
X16860Y17927D02*
X16860Y17680D01*
X16983Y17803D02*
X16736Y17803D01*
X17045Y17559D02*
X17045Y17312D01*
X17045Y17435D02*
X16674Y17435D01*
X16798Y17312D01*
X16736Y17190D02*
X16674Y17129D01*
X16674Y17005D01*
X16736Y16943D01*
X16983Y16943D01*
X16736Y17190D01*
X16983Y17190D01*
X17045Y17129D01*
X17045Y17005D01*
X16983Y16943D01*
X17045Y16822D02*
X17045Y16575D01*
X16674Y16575D01*
X16674Y16392D02*
X16860Y16207D01*
X16860Y16454D01*
X17045Y16392D02*
X16674Y16392D01*
X16736Y16085D02*
X16674Y16024D01*
X16674Y15900D01*
X16736Y15838D01*
X16674Y15717D02*
X16674Y15470D01*
X17045Y15470D01*
X17045Y15349D02*
X16921Y15225D01*
X16921Y15287D02*
X16921Y15102D01*
X17045Y15102D02*
X16674Y15102D01*
X16674Y15287D01*
X16736Y15349D01*
X16860Y15349D01*
X16921Y15287D01*
X16860Y15470D02*
X16860Y15594D01*
X17045Y15838D02*
X16798Y16085D01*
X16736Y16085D01*
X17045Y16085D02*
X17045Y15838D01*
X17045Y14980D02*
X16674Y14980D01*
X16674Y14734D02*
X17045Y14980D01*
X17045Y14734D02*
X16674Y14734D01*
X19214Y14749D02*
X19505Y14943D01*
X19214Y14943D01*
X19214Y15044D02*
X19214Y15189D01*
X19263Y15237D01*
X19456Y15237D01*
X19505Y15189D01*
X19505Y15044D01*
X19214Y15044D01*
X19214Y14749D02*
X19505Y14749D01*
X19456Y14648D02*
X19360Y14648D01*
X19360Y14551D01*
X19456Y14454D02*
X19263Y14454D01*
X19214Y14503D01*
X19214Y14600D01*
X19263Y14648D01*
X19456Y14648D02*
X19505Y14600D01*
X19505Y14503D01*
X19456Y14454D01*
X17165Y12209D02*
X17020Y12209D01*
X17020Y11918D01*
X17165Y11918D01*
X17214Y11967D01*
X17214Y12160D01*
X17165Y12209D01*
X16919Y12209D02*
X16919Y11918D01*
X16725Y12209D01*
X16725Y11918D01*
X16624Y11967D02*
X16624Y12063D01*
X16528Y12063D01*
X16624Y11967D02*
X16576Y11918D01*
X16479Y11918D01*
X16431Y11967D01*
X16431Y12160D01*
X16479Y12209D01*
X16576Y12209D01*
X16624Y12160D01*
X16214Y12160D02*
X16165Y12209D01*
X16068Y12209D01*
X16020Y12160D01*
X16020Y11967D01*
X16068Y11918D01*
X16165Y11918D01*
X16214Y11967D01*
X15919Y11967D02*
X15871Y11918D01*
X15774Y11918D01*
X15725Y11967D01*
X15725Y12160D01*
X15774Y12209D01*
X15871Y12209D01*
X15919Y12160D01*
X15624Y12209D02*
X15624Y12015D01*
X15528Y11918D01*
X15431Y12015D01*
X15431Y12209D01*
X15214Y12160D02*
X15165Y12209D01*
X15020Y12209D01*
X15020Y11918D01*
X15165Y11918D01*
X15214Y11967D01*
X15214Y12160D01*
X14919Y12209D02*
X14725Y11918D01*
X14919Y11918D02*
X14725Y12209D01*
X14624Y12209D02*
X14431Y12209D01*
X14528Y12209D02*
X14528Y11918D01*
X14264Y11967D02*
X14264Y12160D01*
X14215Y12209D01*
X14070Y12209D01*
X14070Y11918D01*
X14215Y11918D01*
X14264Y11967D01*
X13969Y11918D02*
X13775Y12209D01*
X13674Y12160D02*
X13674Y12063D01*
X13626Y12015D01*
X13481Y12015D01*
X13578Y12015D02*
X13674Y11918D01*
X13775Y11918D02*
X13969Y12209D01*
X13674Y12160D02*
X13626Y12209D01*
X13481Y12209D01*
X13481Y11918D01*
X13167Y11918D02*
X13167Y12209D01*
X13070Y12209D02*
X13264Y12209D01*
X12969Y12160D02*
X12921Y12209D01*
X12824Y12209D01*
X12775Y12160D01*
X12775Y12112D01*
X12824Y12063D01*
X12921Y12063D01*
X12969Y12015D01*
X12969Y11967D01*
X12921Y11918D01*
X12824Y11918D01*
X12775Y11967D01*
X12674Y11918D02*
X12578Y12015D01*
X12626Y12015D02*
X12481Y12015D01*
X12481Y11918D02*
X12481Y12209D01*
X12626Y12209D01*
X12674Y12160D01*
X12674Y12063D01*
X12626Y12015D01*
X12214Y12209D02*
X12020Y12209D01*
X12117Y12209D02*
X12117Y11918D01*
X11919Y11967D02*
X11871Y11918D01*
X11774Y11918D01*
X11725Y11967D01*
X11774Y12063D02*
X11725Y12112D01*
X11725Y12160D01*
X11774Y12209D01*
X11871Y12209D01*
X11919Y12160D01*
X11871Y12063D02*
X11919Y12015D01*
X11919Y11967D01*
X11871Y12063D02*
X11774Y12063D01*
X11528Y11918D02*
X11528Y12209D01*
X11624Y12209D02*
X11431Y12209D01*
X10543Y12123D02*
X10296Y12123D01*
X10482Y12309D01*
X10482Y11938D01*
X10175Y11938D02*
X10052Y12062D01*
X10113Y12062D02*
X9928Y12062D01*
X9928Y11938D02*
X9928Y12309D01*
X10113Y12309D01*
X10175Y12247D01*
X10175Y12123D01*
X10113Y12062D01*
X8343Y12062D02*
X8343Y12000D01*
X8282Y11938D01*
X8158Y11938D01*
X8096Y12000D01*
X7975Y12000D02*
X7913Y11938D01*
X7790Y11938D01*
X7728Y12000D01*
X7728Y12247D01*
X7790Y12309D01*
X7913Y12309D01*
X7975Y12247D01*
X8096Y12247D02*
X8158Y12309D01*
X8282Y12309D01*
X8343Y12247D01*
X8343Y12185D01*
X8282Y12123D01*
X8343Y12062D01*
X8282Y12123D02*
X8220Y12123D01*
X5987Y11938D02*
X5740Y11938D01*
X5618Y11938D02*
X5495Y12061D01*
X5557Y12061D02*
X5371Y12061D01*
X5371Y11938D02*
X5371Y12308D01*
X5557Y12308D01*
X5618Y12247D01*
X5618Y12123D01*
X5557Y12061D01*
X5740Y12185D02*
X5863Y12308D01*
X5863Y11938D01*
X4588Y11848D02*
X4341Y12218D01*
X4219Y12156D02*
X4219Y12033D01*
X4158Y11971D01*
X3973Y11971D01*
X4096Y11971D02*
X4219Y11848D01*
X4341Y11848D02*
X4588Y12218D01*
X4219Y12156D02*
X4158Y12218D01*
X3973Y12218D01*
X3973Y11848D01*
X3670Y11848D02*
X3423Y12218D01*
X3301Y12218D02*
X3054Y12218D01*
X3178Y12218D02*
X3178Y11848D01*
X3423Y11848D02*
X3670Y12218D01*
X4212Y13886D02*
X4212Y14256D01*
X4398Y14256D01*
X4459Y14194D01*
X4459Y14071D01*
X4398Y14009D01*
X4212Y14009D01*
X4336Y14009D02*
X4459Y13886D01*
X4581Y13886D02*
X4828Y14132D01*
X4828Y14194D01*
X4766Y14256D01*
X4642Y14256D01*
X4581Y14194D01*
X4581Y13886D02*
X4828Y13886D01*
X4813Y15138D02*
X4875Y15200D01*
X4813Y15138D02*
X4690Y15138D01*
X4628Y15200D01*
X4628Y15447D01*
X4690Y15509D01*
X4813Y15509D01*
X4875Y15447D01*
X4996Y15323D02*
X5182Y15323D01*
X5243Y15262D01*
X5243Y15200D01*
X5182Y15138D01*
X5058Y15138D01*
X4996Y15200D01*
X4996Y15323D01*
X5120Y15447D01*
X5243Y15509D01*
X7415Y15509D02*
X7415Y15138D01*
X7415Y15262D02*
X7600Y15262D01*
X7662Y15323D01*
X7662Y15447D01*
X7600Y15509D01*
X7415Y15509D01*
X7538Y15262D02*
X7662Y15138D01*
X7783Y15138D02*
X7783Y15200D01*
X8030Y15447D01*
X8030Y15509D01*
X7783Y15509D01*
X8115Y14709D02*
X8300Y14709D01*
X8362Y14647D01*
X8362Y14523D01*
X8300Y14462D01*
X8115Y14462D01*
X8238Y14462D02*
X8362Y14338D01*
X8483Y14400D02*
X8545Y14338D01*
X8668Y14338D01*
X8730Y14400D01*
X8730Y14462D01*
X8668Y14523D01*
X8606Y14523D01*
X8668Y14523D02*
X8730Y14585D01*
X8730Y14647D01*
X8668Y14709D01*
X8545Y14709D01*
X8483Y14647D01*
X8115Y14709D02*
X8115Y14338D01*
X10665Y14259D02*
X10665Y13888D01*
X10788Y14012D01*
X10912Y13888D01*
X10912Y14259D01*
X11033Y14259D02*
X11280Y13888D01*
X11280Y14259D01*
X11401Y14197D02*
X11463Y14259D01*
X11587Y14259D01*
X11648Y14197D01*
X11401Y13950D01*
X11463Y13888D01*
X11587Y13888D01*
X11648Y13950D01*
X11648Y14197D01*
X11770Y14135D02*
X11893Y14259D01*
X11893Y13888D01*
X11770Y13888D02*
X12017Y13888D01*
X11401Y13950D02*
X11401Y14197D01*
X11033Y14259D02*
X11033Y13888D01*
X11033Y14488D02*
X11156Y14488D01*
X11095Y14488D02*
X11095Y14735D01*
X11033Y14735D01*
X11095Y14859D02*
X11095Y14920D01*
X10912Y14859D02*
X10912Y14488D01*
X10788Y14612D01*
X10665Y14488D01*
X10665Y14859D01*
X11279Y14673D02*
X11340Y14735D01*
X11525Y14735D01*
X11647Y14673D02*
X11709Y14735D01*
X11832Y14735D01*
X11894Y14673D01*
X11894Y14612D01*
X11647Y14612D01*
X11647Y14673D02*
X11647Y14550D01*
X11709Y14488D01*
X11832Y14488D01*
X12015Y14488D02*
X12015Y14735D01*
X12200Y14735D01*
X12262Y14673D01*
X12262Y14488D01*
X12384Y14550D02*
X12384Y14673D01*
X12445Y14735D01*
X12569Y14735D01*
X12630Y14673D01*
X12630Y14550D01*
X12569Y14488D01*
X12445Y14488D01*
X12384Y14550D01*
X12752Y14550D02*
X12752Y14673D01*
X12814Y14735D01*
X12999Y14735D01*
X12999Y14859D02*
X12999Y14488D01*
X12814Y14488D01*
X12752Y14550D01*
X13120Y14550D02*
X13120Y14673D01*
X13182Y14735D01*
X13305Y14735D01*
X13367Y14673D01*
X13367Y14612D01*
X13120Y14612D01*
X13120Y14550D02*
X13182Y14488D01*
X13305Y14488D01*
X11525Y14550D02*
X11464Y14612D01*
X11340Y14612D01*
X11279Y14673D01*
X11279Y14488D02*
X11464Y14488D01*
X11525Y14550D01*
X11537Y15888D02*
X11413Y15888D01*
X11351Y15950D01*
X11351Y16073D01*
X11413Y16135D01*
X11537Y16135D01*
X11598Y16073D01*
X11598Y15950D01*
X11537Y15888D01*
X11720Y15888D02*
X11720Y16259D01*
X11598Y16427D02*
X11598Y16735D01*
X11413Y16735D01*
X11351Y16673D01*
X11351Y16550D01*
X11413Y16488D01*
X11598Y16488D01*
X11598Y16427D02*
X11537Y16365D01*
X11475Y16365D01*
X11720Y16488D02*
X11843Y16488D01*
X11781Y16488D02*
X11781Y16735D01*
X11720Y16735D01*
X11781Y16859D02*
X11781Y16920D01*
X12027Y16735D02*
X11965Y16673D01*
X11965Y16550D01*
X12027Y16488D01*
X12212Y16488D01*
X12212Y16735D02*
X12027Y16735D01*
X11230Y16673D02*
X11230Y16488D01*
X11045Y16488D01*
X10983Y16550D01*
X11045Y16612D01*
X11230Y16612D01*
X11230Y16673D02*
X11168Y16735D01*
X11045Y16735D01*
X10862Y16859D02*
X10862Y16488D01*
X10615Y16488D02*
X10615Y16859D01*
X10738Y16735D01*
X10862Y16859D01*
X10800Y16259D02*
X10676Y16259D01*
X10615Y16197D01*
X10615Y16135D01*
X10676Y16073D01*
X10800Y16073D01*
X10862Y16012D01*
X10862Y15950D01*
X10800Y15888D01*
X10676Y15888D01*
X10615Y15950D01*
X10862Y16197D02*
X10800Y16259D01*
X10983Y16135D02*
X11045Y16135D01*
X11106Y16073D01*
X11168Y16135D01*
X11230Y16073D01*
X11230Y15888D01*
X11106Y15888D02*
X11106Y16073D01*
X10983Y16135D02*
X10983Y15888D01*
X11720Y16012D02*
X11905Y16135D01*
X12027Y16073D02*
X12088Y16135D01*
X12212Y16135D01*
X12273Y16073D01*
X12273Y16012D01*
X12027Y16012D01*
X12027Y16073D02*
X12027Y15950D01*
X12088Y15888D01*
X12212Y15888D01*
X11905Y15888D02*
X11720Y16012D01*
X9386Y16790D02*
X9139Y16790D01*
X9018Y16790D02*
X8894Y16913D01*
X8832Y16790D02*
X8771Y16852D01*
X8771Y17098D01*
X8832Y17160D01*
X8956Y17160D01*
X9018Y17098D01*
X9018Y16852D01*
X8956Y16790D01*
X8832Y16790D01*
X9139Y17037D02*
X9262Y17160D01*
X9262Y16790D01*
X7918Y18338D02*
X7795Y18338D01*
X7733Y18400D01*
X7733Y18523D02*
X7856Y18585D01*
X7918Y18585D01*
X7980Y18523D01*
X7980Y18400D01*
X7918Y18338D01*
X7733Y18523D02*
X7733Y18709D01*
X7980Y18709D01*
X7993Y18888D02*
X7746Y18888D01*
X7870Y18888D02*
X7870Y19259D01*
X7746Y19135D01*
X7625Y19197D02*
X7563Y19259D01*
X7440Y19259D01*
X7378Y19197D01*
X7378Y18950D01*
X7440Y18888D01*
X7563Y18888D01*
X7625Y18950D01*
X7550Y18709D02*
X7365Y18709D01*
X7365Y18338D01*
X7365Y18462D02*
X7550Y18462D01*
X7612Y18523D01*
X7612Y18647D01*
X7550Y18709D01*
X7488Y18462D02*
X7612Y18338D01*
X6430Y18350D02*
X6430Y18412D01*
X6368Y18473D01*
X6183Y18473D01*
X6183Y18350D01*
X6245Y18288D01*
X6368Y18288D01*
X6430Y18350D01*
X6183Y18473D02*
X6306Y18597D01*
X6430Y18659D01*
X6062Y18597D02*
X6062Y18473D01*
X6000Y18412D01*
X5815Y18412D01*
X5938Y18412D02*
X6062Y18288D01*
X5815Y18288D02*
X5815Y18659D01*
X6000Y18659D01*
X6062Y18597D01*
X6079Y19218D02*
X6127Y19267D01*
X6127Y19363D01*
X6031Y19363D01*
X5934Y19267D02*
X5934Y19460D01*
X5982Y19509D01*
X6079Y19509D01*
X6127Y19460D01*
X6229Y19509D02*
X6422Y19218D01*
X6422Y19509D01*
X6523Y19509D02*
X6668Y19509D01*
X6717Y19460D01*
X6717Y19267D01*
X6668Y19218D01*
X6523Y19218D01*
X6523Y19509D01*
X6229Y19509D02*
X6229Y19218D01*
X6079Y19218D02*
X5982Y19218D01*
X5934Y19267D01*
X5717Y19363D02*
X5523Y19363D01*
X5668Y19509D01*
X5668Y19218D01*
X5422Y19218D02*
X5229Y19218D01*
X5325Y19218D02*
X5325Y19509D01*
X5229Y19412D01*
X5127Y19460D02*
X5127Y19363D01*
X5079Y19315D01*
X4934Y19315D01*
X4934Y19218D02*
X4934Y19509D01*
X5079Y19509D01*
X5127Y19460D01*
X4617Y19460D02*
X4617Y19412D01*
X4568Y19363D01*
X4617Y19315D01*
X4617Y19267D01*
X4568Y19218D01*
X4472Y19218D01*
X4423Y19267D01*
X4322Y19218D02*
X4129Y19218D01*
X4225Y19218D02*
X4225Y19509D01*
X4129Y19412D01*
X4027Y19460D02*
X4027Y19363D01*
X3979Y19315D01*
X3834Y19315D01*
X3834Y19218D02*
X3834Y19509D01*
X3979Y19509D01*
X4027Y19460D01*
X4423Y19460D02*
X4472Y19509D01*
X4568Y19509D01*
X4617Y19460D01*
X4568Y19363D02*
X4520Y19363D01*
X3617Y19267D02*
X3568Y19218D01*
X3472Y19218D01*
X3423Y19267D01*
X3423Y19460D01*
X3472Y19509D01*
X3568Y19509D01*
X3617Y19460D01*
X3322Y19460D02*
X3274Y19509D01*
X3177Y19509D01*
X3129Y19460D01*
X3129Y19267D01*
X3177Y19218D01*
X3274Y19218D01*
X3322Y19267D01*
X3027Y19315D02*
X2931Y19218D01*
X2834Y19315D01*
X2834Y19509D01*
X3027Y19509D02*
X3027Y19315D01*
X1264Y17560D02*
X1215Y17609D01*
X1070Y17609D01*
X1070Y17318D01*
X1215Y17318D01*
X1264Y17367D01*
X1264Y17560D01*
X969Y17609D02*
X969Y17318D01*
X775Y17609D01*
X775Y17318D01*
X674Y17367D02*
X674Y17463D01*
X578Y17463D01*
X674Y17367D02*
X626Y17318D01*
X529Y17318D01*
X481Y17367D01*
X481Y17560D01*
X529Y17609D01*
X626Y17609D01*
X674Y17560D01*
X621Y16659D02*
X475Y16659D01*
X475Y16368D01*
X621Y16368D01*
X669Y16417D01*
X669Y16610D01*
X621Y16659D01*
X770Y16610D02*
X818Y16659D01*
X915Y16659D01*
X964Y16610D01*
X964Y16417D01*
X915Y16368D01*
X818Y16368D01*
X770Y16417D01*
X770Y16610D01*
X867Y16465D02*
X964Y16368D01*
X921Y15659D02*
X824Y15659D01*
X775Y15610D01*
X775Y15417D01*
X824Y15368D01*
X921Y15368D01*
X969Y15417D01*
X1070Y15417D02*
X1118Y15368D01*
X1215Y15368D01*
X1264Y15417D01*
X1264Y15610D02*
X1215Y15659D01*
X1118Y15659D01*
X1070Y15610D01*
X1070Y15417D01*
X969Y15610D02*
X921Y15659D01*
X674Y15659D02*
X674Y15465D01*
X578Y15368D01*
X481Y15465D01*
X481Y15659D01*
X8615Y20600D02*
X8676Y20538D01*
X8800Y20538D01*
X8862Y20600D01*
X8983Y20538D02*
X9230Y20785D01*
X9230Y20847D01*
X9168Y20909D01*
X9045Y20909D01*
X8983Y20847D01*
X8862Y20847D02*
X8800Y20909D01*
X8676Y20909D01*
X8615Y20847D01*
X8615Y20600D01*
X8983Y20538D02*
X9230Y20538D01*
X10514Y20237D02*
X10805Y20237D01*
X10514Y20044D01*
X10805Y20044D01*
X10805Y19846D02*
X10514Y19846D01*
X10514Y19749D02*
X10514Y19943D01*
X10563Y19648D02*
X10611Y19648D01*
X10660Y19600D01*
X10660Y19454D01*
X10805Y19454D02*
X10514Y19454D01*
X10514Y19600D01*
X10563Y19648D01*
X10660Y19600D02*
X10708Y19648D01*
X10756Y19648D01*
X10805Y19600D01*
X10805Y19454D01*
X10293Y19209D02*
X10046Y19209D01*
X10046Y19023D01*
X10170Y19085D01*
X10232Y19085D01*
X10293Y19023D01*
X10293Y18900D01*
X10232Y18838D01*
X10108Y18838D01*
X10046Y18900D01*
X9925Y18900D02*
X9863Y18838D01*
X9740Y18838D01*
X9678Y18900D01*
X9678Y19147D01*
X9740Y19209D01*
X9863Y19209D01*
X9925Y19147D01*
X10926Y20538D02*
X11050Y20538D01*
X11112Y20600D01*
X11233Y20723D02*
X11480Y20723D01*
X11418Y20909D02*
X11233Y20723D01*
X11112Y20847D02*
X11050Y20909D01*
X10926Y20909D01*
X10865Y20847D01*
X10865Y20600D01*
X10926Y20538D01*
X11418Y20538D02*
X11418Y20909D01*
D22*
X6741Y20352D02*
X6741Y19852D01*
X6491Y19602D01*
X5991Y19602D01*
X5741Y19852D01*
X5491Y19602D01*
X4991Y19602D01*
X4741Y19852D01*
X4491Y19602D01*
X3991Y19602D01*
X3741Y19852D01*
X3491Y19602D01*
X2991Y19602D01*
X2741Y19852D01*
X2741Y20352D01*
X2991Y20602D01*
X3491Y20602D01*
X3741Y20352D01*
X3991Y20602D01*
X4491Y20602D01*
X4741Y20352D01*
X4991Y20602D01*
X5491Y20602D01*
X5741Y20352D01*
X5991Y20602D01*
X6491Y20602D01*
X6741Y20352D01*
X4470Y18804D02*
X4076Y18804D01*
X4470Y18804D02*
X4470Y14080D01*
X4076Y14080D01*
X2895Y14080D02*
X139Y14080D01*
X139Y18804D01*
X2895Y18804D01*
X2770Y17913D02*
X2270Y17913D01*
X2020Y17663D01*
X2020Y17163D01*
X2270Y16913D01*
X2020Y16663D01*
X2020Y16163D01*
X2270Y15913D01*
X2020Y15663D01*
X2020Y15163D01*
X2270Y14913D01*
X2770Y14913D01*
X3020Y15163D01*
X3020Y15663D01*
X2770Y15913D01*
X3020Y16163D01*
X3020Y16663D01*
X2770Y16913D01*
X3020Y17163D01*
X3020Y17663D01*
X2770Y17913D01*
X11327Y13049D02*
X11577Y13299D01*
X12077Y13299D01*
X12327Y13049D01*
X12577Y13299D01*
X13077Y13299D01*
X13327Y13049D01*
X13577Y13299D01*
X14077Y13299D01*
X14327Y13049D01*
X14577Y13299D01*
X15077Y13299D01*
X15327Y13049D01*
X15577Y13299D01*
X16077Y13299D01*
X16327Y13049D01*
X16577Y13299D01*
X17077Y13299D01*
X17327Y13049D01*
X17327Y12549D01*
X17077Y12299D01*
X16577Y12299D01*
X16327Y12549D01*
X16077Y12299D01*
X15577Y12299D01*
X15327Y12549D01*
X15077Y12299D01*
X14577Y12299D01*
X14327Y12549D01*
X14077Y12299D01*
X13577Y12299D01*
X13327Y12549D01*
X13077Y12299D01*
X12577Y12299D01*
X12327Y12549D01*
X12077Y12299D01*
X11577Y12299D01*
X11327Y12549D01*
X11327Y13049D01*
X14306Y15103D02*
X15093Y15103D01*
X15920Y15733D02*
X15920Y16914D01*
X15093Y17544D02*
X14306Y17544D01*
X13479Y16914D02*
X13479Y15733D01*
X14011Y16323D02*
X14013Y16375D01*
X14019Y16427D01*
X14029Y16478D01*
X14042Y16528D01*
X14060Y16578D01*
X14081Y16625D01*
X14105Y16671D01*
X14134Y16715D01*
X14165Y16757D01*
X14199Y16796D01*
X14236Y16833D01*
X14276Y16866D01*
X14319Y16897D01*
X14363Y16924D01*
X14409Y16948D01*
X14458Y16968D01*
X14507Y16984D01*
X14558Y16997D01*
X14609Y17006D01*
X14661Y17011D01*
X14713Y17012D01*
X14765Y17009D01*
X14817Y17002D01*
X14868Y16991D01*
X14918Y16977D01*
X14967Y16958D01*
X15014Y16936D01*
X15059Y16911D01*
X15103Y16882D01*
X15144Y16850D01*
X15183Y16815D01*
X15218Y16777D01*
X15251Y16736D01*
X15281Y16694D01*
X15307Y16649D01*
X15330Y16602D01*
X15349Y16553D01*
X15365Y16503D01*
X15377Y16453D01*
X15385Y16401D01*
X15389Y16349D01*
X15389Y16297D01*
X15385Y16245D01*
X15377Y16193D01*
X15365Y16143D01*
X15349Y16093D01*
X15330Y16044D01*
X15307Y15997D01*
X15281Y15952D01*
X15251Y15910D01*
X15218Y15869D01*
X15183Y15831D01*
X15144Y15796D01*
X15103Y15764D01*
X15059Y15735D01*
X15014Y15710D01*
X14967Y15688D01*
X14918Y15669D01*
X14868Y15655D01*
X14817Y15644D01*
X14765Y15637D01*
X14713Y15634D01*
X14661Y15635D01*
X14609Y15640D01*
X14558Y15649D01*
X14507Y15662D01*
X14458Y15678D01*
X14409Y15698D01*
X14363Y15722D01*
X14319Y15749D01*
X14276Y15780D01*
X14236Y15813D01*
X14199Y15850D01*
X14165Y15889D01*
X14134Y15931D01*
X14105Y15975D01*
X14081Y16021D01*
X14060Y16068D01*
X14042Y16118D01*
X14029Y16168D01*
X14019Y16219D01*
X14013Y16271D01*
X14011Y16323D01*
D23*
X17108Y16091D02*
X17108Y15591D01*
X17358Y15341D01*
X17108Y15091D01*
X17108Y14591D01*
X17358Y14341D01*
X18858Y14341D01*
X19108Y14591D01*
X19108Y15091D01*
X18858Y15341D01*
X19108Y15591D01*
X19108Y16091D01*
X18858Y16341D01*
X19108Y16591D01*
X19108Y17091D01*
X18858Y17341D01*
X19108Y17591D01*
X19108Y18091D01*
X18858Y18341D01*
X17358Y18341D01*
X17108Y18091D01*
X17108Y17591D01*
X17358Y17341D01*
X17108Y17091D01*
X17108Y16591D01*
X17358Y16341D01*
X17108Y16091D01*
X17132Y14486D02*
X17332Y14486D01*
X17332Y14286D01*
X16532Y14486D02*
X16332Y14486D01*
X16332Y14286D01*
X16332Y13686D02*
X16332Y13486D01*
X16532Y13486D01*
X17132Y13486D02*
X17332Y13486D01*
X17332Y13686D01*
X17332Y18210D02*
X17332Y18410D01*
X17332Y18210D02*
X17132Y18210D01*
X16532Y18210D02*
X16332Y18210D01*
X16332Y18410D01*
X16332Y19010D02*
X16332Y19210D01*
X16532Y19210D01*
X16575Y19355D02*
X13575Y19355D01*
X13575Y19405D01*
X13575Y20505D01*
X13575Y20555D01*
X16575Y20555D01*
X16592Y20553D01*
X16609Y20549D01*
X16625Y20542D01*
X16639Y20532D01*
X16652Y20519D01*
X16662Y20505D01*
X16669Y20489D01*
X16673Y20472D01*
X16675Y20455D01*
X16675Y19455D01*
X16673Y19438D01*
X16669Y19421D01*
X16662Y19405D01*
X16652Y19391D01*
X16639Y19378D01*
X16625Y19368D01*
X16609Y19361D01*
X16592Y19357D01*
X16575Y19355D01*
X17132Y19210D02*
X17332Y19210D01*
X17332Y19010D01*
X15325Y19955D02*
X15125Y19955D01*
X15125Y19655D01*
X14975Y19655D02*
X14975Y20255D01*
X14825Y20255D01*
X14825Y19655D01*
X14975Y19655D01*
X14675Y19655D02*
X14675Y19955D01*
X14475Y19955D01*
X14675Y19955D02*
X14675Y20255D01*
X15125Y20255D02*
X15125Y19955D01*
X13575Y19405D02*
X13425Y19405D01*
X13425Y20505D01*
X13575Y20505D01*
D24*
X4256Y13141D03*
X3371Y13141D03*
D25*
X8134Y15516D02*
X8134Y18331D01*
X9866Y18331D01*
X9866Y15516D01*
X8134Y15516D01*
X8251Y18173D02*
X8253Y18181D01*
X8258Y18188D01*
X8265Y18192D01*
X8273Y18193D01*
X8281Y18190D01*
X8287Y18185D01*
X8291Y18177D01*
X8291Y18169D01*
X8287Y18161D01*
X8281Y18156D01*
X8273Y18153D01*
X8265Y18154D01*
X8258Y18158D01*
X8253Y18165D01*
X8251Y18173D01*
X15907Y18710D02*
X16207Y18710D01*
X16057Y18860D02*
X16057Y18560D01*
X15907Y14036D02*
X16207Y14036D01*
D26*
X13225Y19755D02*
X13075Y19755D01*
X13055Y19735D01*
X13075Y20155D02*
X13055Y20175D01*
X13075Y20155D02*
X13175Y20155D01*
D27*
X13290Y20155D03*
X13290Y19755D03*
D28*
X15645Y19835D02*
X15705Y19775D01*
X15825Y19775D01*
X15885Y19835D01*
X15885Y20075D01*
X15825Y20136D01*
X15705Y20136D01*
X15645Y20075D01*
X15645Y19835D01*
X15765Y19895D02*
X15885Y19775D01*
X16193Y19775D02*
X16193Y20136D01*
X16013Y19955D01*
X16253Y19955D01*
M02*
