G75*
G70*
%OFA0B0*%
%FSLAX24Y24*%
%IPPOS*%
%LPD*%
%AMOC8*
5,1,8,0,0,1.08239X$1,22.5*
%
%ADD10C,0.0000*%
%ADD11R,0.0394X0.0394*%
%ADD12C,0.0000*%
%ADD13C,0.0926*%
%ADD14C,0.0512*%
%ADD15OC8,0.0780*%
%ADD16C,0.0808*%
%ADD17C,0.0560*%
%ADD18R,0.0780X0.0780*%
%ADD19C,0.0780*%
%ADD20C,0.0634*%
%ADD21C,0.1340*%
%ADD22OC8,0.1040*%
%ADD23C,0.0000*%
%ADD24C,0.0926*%
%ADD25C,0.0512*%
%ADD26OC8,0.0780*%
%ADD27C,0.0808*%
%ADD28C,0.0560*%
%ADD29R,0.0780X0.0780*%
%ADD30C,0.0780*%
%ADD31C,0.0634*%
%ADD32C,0.1340*%
%ADD33OC8,0.1040*%
D10*
X001475Y001583D02*
X001478Y001583D01*
X018407Y001583D01*
X018410Y001583D01*
X018408Y001583D02*
X018482Y001586D01*
X018556Y001593D01*
X018630Y001604D01*
X018702Y001619D01*
X018774Y001637D01*
X018845Y001660D01*
X018915Y001686D01*
X018983Y001716D01*
X019049Y001749D01*
X019114Y001786D01*
X019176Y001827D01*
X019237Y001870D01*
X019295Y001917D01*
X019350Y001967D01*
X019402Y002019D01*
X019452Y002074D01*
X019499Y002132D01*
X019542Y002193D01*
X019583Y002255D01*
X019620Y002320D01*
X019653Y002386D01*
X019683Y002454D01*
X019709Y002524D01*
X019732Y002595D01*
X019750Y002667D01*
X019765Y002739D01*
X019776Y002813D01*
X019783Y002887D01*
X019786Y002961D01*
X019785Y002961D02*
X019785Y002958D01*
X019785Y002961D02*
X019785Y009812D01*
X019785Y009857D01*
X019785Y009812D02*
X019787Y009884D01*
X019785Y009955D01*
X019780Y010027D01*
X019771Y010098D01*
X019758Y010169D01*
X019741Y010238D01*
X019720Y010307D01*
X019696Y010375D01*
X019669Y010441D01*
X019637Y010505D01*
X019603Y010568D01*
X019565Y010629D01*
X019524Y010688D01*
X019480Y010744D01*
X019432Y010798D01*
X019382Y010849D01*
X019330Y010898D01*
X019275Y010944D01*
X019217Y010987D01*
X019157Y011026D01*
X019095Y011063D01*
X019032Y011096D01*
X018967Y011125D01*
X018900Y011151D01*
X018832Y011174D01*
X018762Y011192D01*
X018692Y011207D01*
X018621Y011219D01*
X018550Y011226D01*
X018479Y011230D01*
X018407Y011229D01*
X001872Y011229D01*
X001872Y011623D01*
X018407Y011623D01*
X018410Y011623D01*
X018407Y011229D02*
X018410Y011229D01*
X018408Y011622D02*
X018482Y011625D01*
X018556Y011632D01*
X018630Y011643D01*
X018702Y011658D01*
X018774Y011676D01*
X018845Y011699D01*
X018915Y011725D01*
X018983Y011755D01*
X019049Y011788D01*
X019114Y011825D01*
X019176Y011866D01*
X019237Y011909D01*
X019295Y011956D01*
X019350Y012006D01*
X019402Y012058D01*
X019452Y012113D01*
X019499Y012171D01*
X019542Y012232D01*
X019583Y012294D01*
X019620Y012359D01*
X019653Y012425D01*
X019683Y012493D01*
X019709Y012563D01*
X019732Y012634D01*
X019750Y012706D01*
X019765Y012778D01*
X019776Y012852D01*
X019783Y012926D01*
X019786Y013000D01*
X019785Y013001D02*
X019785Y012998D01*
X019785Y013001D02*
X019785Y019851D01*
X019785Y019897D01*
X019785Y019851D02*
X019787Y019923D01*
X019785Y019994D01*
X019780Y020066D01*
X019771Y020137D01*
X019758Y020208D01*
X019741Y020277D01*
X019720Y020346D01*
X019696Y020414D01*
X019669Y020480D01*
X019637Y020544D01*
X019603Y020607D01*
X019565Y020668D01*
X019524Y020727D01*
X019480Y020783D01*
X019432Y020837D01*
X019382Y020888D01*
X019330Y020937D01*
X019275Y020983D01*
X019217Y021026D01*
X019157Y021065D01*
X019095Y021102D01*
X019032Y021135D01*
X018967Y021164D01*
X018900Y021190D01*
X018832Y021213D01*
X018762Y021231D01*
X018692Y021246D01*
X018621Y021258D01*
X018550Y021265D01*
X018479Y021269D01*
X018407Y021268D01*
X018410Y021268D01*
X018407Y021268D02*
X001478Y021268D01*
X001475Y021268D01*
X001478Y021269D02*
X001404Y021266D01*
X001330Y021259D01*
X001256Y021248D01*
X001184Y021233D01*
X001112Y021215D01*
X001041Y021192D01*
X000971Y021166D01*
X000903Y021136D01*
X000837Y021103D01*
X000772Y021066D01*
X000710Y021025D01*
X000649Y020982D01*
X000591Y020935D01*
X000536Y020885D01*
X000484Y020833D01*
X000434Y020778D01*
X000387Y020720D01*
X000344Y020659D01*
X000303Y020597D01*
X000266Y020532D01*
X000233Y020466D01*
X000203Y020398D01*
X000177Y020328D01*
X000154Y020257D01*
X000136Y020185D01*
X000121Y020113D01*
X000110Y020039D01*
X000103Y019965D01*
X000100Y019891D01*
X000100Y019890D02*
X000100Y019894D01*
X000100Y019890D02*
X000100Y013040D01*
X000100Y012998D01*
X000100Y013040D02*
X000101Y012967D01*
X000106Y012893D01*
X000114Y012821D01*
X000127Y012749D01*
X000143Y012677D01*
X000162Y012607D01*
X000186Y012537D01*
X000213Y012469D01*
X000244Y012403D01*
X000278Y012338D01*
X000315Y012275D01*
X000356Y012214D01*
X000399Y012156D01*
X000446Y012099D01*
X000496Y012045D01*
X000548Y011994D01*
X000603Y011946D01*
X000660Y011901D01*
X000720Y011858D01*
X000782Y011819D01*
X000846Y011783D01*
X000911Y011751D01*
X000979Y011722D01*
X001047Y011697D01*
X001117Y011675D01*
X001188Y011657D01*
X001260Y011642D01*
X001332Y011632D01*
X001405Y011625D01*
X001478Y011622D01*
X001478Y011623D02*
X001478Y011229D01*
X001475Y011229D01*
X001475Y011623D02*
X001478Y011623D01*
X001478Y011229D02*
X001404Y011226D01*
X001330Y011219D01*
X001256Y011208D01*
X001184Y011193D01*
X001112Y011175D01*
X001041Y011152D01*
X000971Y011126D01*
X000903Y011096D01*
X000837Y011063D01*
X000772Y011026D01*
X000710Y010985D01*
X000649Y010942D01*
X000591Y010895D01*
X000536Y010845D01*
X000484Y010793D01*
X000434Y010738D01*
X000387Y010680D01*
X000344Y010619D01*
X000303Y010557D01*
X000266Y010492D01*
X000233Y010426D01*
X000203Y010358D01*
X000177Y010288D01*
X000154Y010217D01*
X000136Y010145D01*
X000121Y010073D01*
X000110Y009999D01*
X000103Y009925D01*
X000100Y009851D01*
X000100Y009854D01*
X000100Y009851D02*
X000100Y003001D01*
X000100Y002958D01*
X000100Y003001D02*
X000101Y002928D01*
X000106Y002854D01*
X000114Y002782D01*
X000127Y002710D01*
X000143Y002638D01*
X000162Y002568D01*
X000186Y002498D01*
X000213Y002430D01*
X000244Y002364D01*
X000278Y002299D01*
X000315Y002236D01*
X000356Y002175D01*
X000399Y002117D01*
X000446Y002060D01*
X000496Y002006D01*
X000548Y001955D01*
X000603Y001907D01*
X000660Y001862D01*
X000720Y001819D01*
X000782Y001780D01*
X000846Y001744D01*
X000911Y001712D01*
X000979Y001683D01*
X001047Y001658D01*
X001117Y001636D01*
X001188Y001618D01*
X001260Y001603D01*
X001332Y001593D01*
X001405Y001586D01*
X001478Y001583D01*
D11*
X001675Y011426D03*
D12*
X1475Y1583D02*
X1478Y1583D01*
X18407Y1583D01*
X18410Y1583D01*
X17760Y2958D02*
X17762Y3008D01*
X17768Y3058D01*
X17778Y3108D01*
X17791Y3156D01*
X17808Y3204D01*
X17829Y3250D01*
X17853Y3294D01*
X17881Y3336D01*
X17912Y3376D01*
X17946Y3413D01*
X17983Y3448D01*
X18022Y3479D01*
X18063Y3508D01*
X18107Y3533D01*
X18153Y3555D01*
X18200Y3573D01*
X18248Y3587D01*
X18297Y3598D01*
X18347Y3605D01*
X18397Y3608D01*
X18448Y3607D01*
X18498Y3602D01*
X18548Y3593D01*
X18596Y3581D01*
X18644Y3564D01*
X18690Y3544D01*
X18735Y3521D01*
X18778Y3494D01*
X18818Y3464D01*
X18856Y3431D01*
X18891Y3395D01*
X18924Y3356D01*
X18953Y3315D01*
X18979Y3272D01*
X19002Y3227D01*
X19021Y3180D01*
X19036Y3132D01*
X19048Y3083D01*
X19056Y3033D01*
X19060Y2983D01*
X19060Y2933D01*
X19056Y2883D01*
X19048Y2833D01*
X19036Y2784D01*
X19021Y2736D01*
X19002Y2689D01*
X18979Y2644D01*
X18953Y2601D01*
X18924Y2560D01*
X18891Y2521D01*
X18856Y2485D01*
X18818Y2452D01*
X18778Y2422D01*
X18735Y2395D01*
X18690Y2372D01*
X18644Y2352D01*
X18596Y2335D01*
X18548Y2323D01*
X18498Y2314D01*
X18448Y2309D01*
X18397Y2308D01*
X18347Y2311D01*
X18297Y2318D01*
X18248Y2329D01*
X18200Y2343D01*
X18153Y2361D01*
X18107Y2383D01*
X18063Y2408D01*
X18022Y2437D01*
X17983Y2468D01*
X17946Y2503D01*
X17912Y2540D01*
X17881Y2580D01*
X17853Y2622D01*
X17829Y2666D01*
X17808Y2712D01*
X17791Y2760D01*
X17778Y2808D01*
X17768Y2858D01*
X17762Y2908D01*
X17760Y2958D01*
X18407Y1583D02*
X18481Y1586D01*
X18555Y1593D01*
X18629Y1604D01*
X18701Y1619D01*
X18773Y1637D01*
X18844Y1660D01*
X18914Y1686D01*
X18982Y1716D01*
X19048Y1749D01*
X19113Y1786D01*
X19175Y1827D01*
X19236Y1870D01*
X19294Y1917D01*
X19349Y1967D01*
X19401Y2019D01*
X19451Y2074D01*
X19498Y2132D01*
X19541Y2193D01*
X19582Y2255D01*
X19619Y2320D01*
X19652Y2386D01*
X19682Y2454D01*
X19708Y2524D01*
X19731Y2595D01*
X19749Y2667D01*
X19764Y2739D01*
X19775Y2813D01*
X19782Y2887D01*
X19785Y2961D01*
X19785Y2958D01*
X19785Y2961D02*
X19785Y9812D01*
X19785Y9857D01*
X19785Y9812D02*
X19787Y9884D01*
X19785Y9955D01*
X19780Y10027D01*
X19771Y10098D01*
X19758Y10169D01*
X19741Y10238D01*
X19720Y10307D01*
X19696Y10375D01*
X19669Y10441D01*
X19637Y10505D01*
X19603Y10568D01*
X19565Y10629D01*
X19524Y10688D01*
X19480Y10744D01*
X19432Y10798D01*
X19382Y10849D01*
X19330Y10898D01*
X19275Y10944D01*
X19217Y10987D01*
X19157Y11026D01*
X19095Y11063D01*
X19032Y11096D01*
X18967Y11125D01*
X18900Y11151D01*
X18832Y11174D01*
X18762Y11192D01*
X18692Y11207D01*
X18621Y11219D01*
X18550Y11226D01*
X18479Y11230D01*
X18407Y11229D01*
X18410Y11229D01*
X18407Y11229D02*
X1478Y11229D01*
X825Y9854D02*
X827Y9904D01*
X833Y9954D01*
X843Y10004D01*
X856Y10052D01*
X873Y10100D01*
X894Y10146D01*
X918Y10190D01*
X946Y10232D01*
X977Y10272D01*
X1011Y10309D01*
X1048Y10344D01*
X1087Y10375D01*
X1128Y10404D01*
X1172Y10429D01*
X1218Y10451D01*
X1265Y10469D01*
X1313Y10483D01*
X1362Y10494D01*
X1412Y10501D01*
X1462Y10504D01*
X1513Y10503D01*
X1563Y10498D01*
X1613Y10489D01*
X1661Y10477D01*
X1709Y10460D01*
X1755Y10440D01*
X1800Y10417D01*
X1843Y10390D01*
X1883Y10360D01*
X1921Y10327D01*
X1956Y10291D01*
X1989Y10252D01*
X2018Y10211D01*
X2044Y10168D01*
X2067Y10123D01*
X2086Y10076D01*
X2101Y10028D01*
X2113Y9979D01*
X2121Y9929D01*
X2125Y9879D01*
X2125Y9829D01*
X2121Y9779D01*
X2113Y9729D01*
X2101Y9680D01*
X2086Y9632D01*
X2067Y9585D01*
X2044Y9540D01*
X2018Y9497D01*
X1989Y9456D01*
X1956Y9417D01*
X1921Y9381D01*
X1883Y9348D01*
X1843Y9318D01*
X1800Y9291D01*
X1755Y9268D01*
X1709Y9248D01*
X1661Y9231D01*
X1613Y9219D01*
X1563Y9210D01*
X1513Y9205D01*
X1462Y9204D01*
X1412Y9207D01*
X1362Y9214D01*
X1313Y9225D01*
X1265Y9239D01*
X1218Y9257D01*
X1172Y9279D01*
X1128Y9304D01*
X1087Y9333D01*
X1048Y9364D01*
X1011Y9399D01*
X977Y9436D01*
X946Y9476D01*
X918Y9518D01*
X894Y9562D01*
X873Y9608D01*
X856Y9656D01*
X843Y9704D01*
X833Y9754D01*
X827Y9804D01*
X825Y9854D01*
X100Y9851D02*
X102Y9923D01*
X108Y9995D01*
X117Y10067D01*
X130Y10138D01*
X147Y10208D01*
X167Y10277D01*
X192Y10345D01*
X219Y10411D01*
X250Y10477D01*
X285Y10540D01*
X322Y10602D01*
X363Y10661D01*
X407Y10718D01*
X454Y10773D01*
X504Y10825D01*
X556Y10875D01*
X611Y10922D01*
X668Y10966D01*
X727Y11007D01*
X789Y11044D01*
X852Y11079D01*
X918Y11110D01*
X984Y11137D01*
X1052Y11162D01*
X1121Y11182D01*
X1191Y11199D01*
X1262Y11212D01*
X1334Y11221D01*
X1406Y11227D01*
X1478Y11229D01*
X100Y9854D02*
X100Y9851D01*
X100Y3001D01*
X100Y2958D01*
X825Y2958D02*
X827Y3008D01*
X833Y3058D01*
X843Y3108D01*
X856Y3156D01*
X873Y3204D01*
X894Y3250D01*
X918Y3294D01*
X946Y3336D01*
X977Y3376D01*
X1011Y3413D01*
X1048Y3448D01*
X1087Y3479D01*
X1128Y3508D01*
X1172Y3533D01*
X1218Y3555D01*
X1265Y3573D01*
X1313Y3587D01*
X1362Y3598D01*
X1412Y3605D01*
X1462Y3608D01*
X1513Y3607D01*
X1563Y3602D01*
X1613Y3593D01*
X1661Y3581D01*
X1709Y3564D01*
X1755Y3544D01*
X1800Y3521D01*
X1843Y3494D01*
X1883Y3464D01*
X1921Y3431D01*
X1956Y3395D01*
X1989Y3356D01*
X2018Y3315D01*
X2044Y3272D01*
X2067Y3227D01*
X2086Y3180D01*
X2101Y3132D01*
X2113Y3083D01*
X2121Y3033D01*
X2125Y2983D01*
X2125Y2933D01*
X2121Y2883D01*
X2113Y2833D01*
X2101Y2784D01*
X2086Y2736D01*
X2067Y2689D01*
X2044Y2644D01*
X2018Y2601D01*
X1989Y2560D01*
X1956Y2521D01*
X1921Y2485D01*
X1883Y2452D01*
X1843Y2422D01*
X1800Y2395D01*
X1755Y2372D01*
X1709Y2352D01*
X1661Y2335D01*
X1613Y2323D01*
X1563Y2314D01*
X1513Y2309D01*
X1462Y2308D01*
X1412Y2311D01*
X1362Y2318D01*
X1313Y2329D01*
X1265Y2343D01*
X1218Y2361D01*
X1172Y2383D01*
X1128Y2408D01*
X1087Y2437D01*
X1048Y2468D01*
X1011Y2503D01*
X977Y2540D01*
X946Y2580D01*
X918Y2622D01*
X894Y2666D01*
X873Y2712D01*
X856Y2760D01*
X843Y2808D01*
X833Y2858D01*
X827Y2908D01*
X825Y2958D01*
X99Y3001D02*
X100Y2928D01*
X105Y2854D01*
X113Y2782D01*
X126Y2710D01*
X142Y2638D01*
X161Y2568D01*
X185Y2498D01*
X212Y2430D01*
X243Y2364D01*
X277Y2299D01*
X314Y2236D01*
X355Y2175D01*
X398Y2117D01*
X445Y2060D01*
X495Y2006D01*
X547Y1955D01*
X602Y1907D01*
X659Y1862D01*
X719Y1819D01*
X781Y1780D01*
X845Y1744D01*
X910Y1712D01*
X978Y1683D01*
X1046Y1658D01*
X1116Y1636D01*
X1187Y1618D01*
X1259Y1603D01*
X1331Y1593D01*
X1404Y1586D01*
X1477Y1583D01*
X1281Y4434D02*
X1283Y4464D01*
X1289Y4494D01*
X1298Y4523D01*
X1311Y4550D01*
X1328Y4575D01*
X1347Y4598D01*
X1370Y4619D01*
X1395Y4636D01*
X1421Y4650D01*
X1450Y4660D01*
X1479Y4667D01*
X1509Y4670D01*
X1540Y4669D01*
X1570Y4664D01*
X1599Y4655D01*
X1626Y4643D01*
X1652Y4628D01*
X1676Y4609D01*
X1697Y4587D01*
X1715Y4563D01*
X1730Y4536D01*
X1741Y4508D01*
X1749Y4479D01*
X1753Y4449D01*
X1753Y4419D01*
X1749Y4389D01*
X1741Y4360D01*
X1730Y4332D01*
X1715Y4305D01*
X1697Y4281D01*
X1676Y4259D01*
X1652Y4240D01*
X1626Y4225D01*
X1599Y4213D01*
X1570Y4204D01*
X1540Y4199D01*
X1509Y4198D01*
X1479Y4201D01*
X1450Y4208D01*
X1421Y4218D01*
X1395Y4232D01*
X1370Y4249D01*
X1347Y4270D01*
X1328Y4293D01*
X1311Y4318D01*
X1298Y4345D01*
X1289Y4374D01*
X1283Y4404D01*
X1281Y4434D01*
X297Y4434D02*
X299Y4464D01*
X305Y4494D01*
X314Y4523D01*
X327Y4550D01*
X344Y4575D01*
X363Y4598D01*
X386Y4619D01*
X411Y4636D01*
X437Y4650D01*
X466Y4660D01*
X495Y4667D01*
X525Y4670D01*
X556Y4669D01*
X586Y4664D01*
X615Y4655D01*
X642Y4643D01*
X668Y4628D01*
X692Y4609D01*
X713Y4587D01*
X731Y4563D01*
X746Y4536D01*
X757Y4508D01*
X765Y4479D01*
X769Y4449D01*
X769Y4419D01*
X765Y4389D01*
X757Y4360D01*
X746Y4332D01*
X731Y4305D01*
X713Y4281D01*
X692Y4259D01*
X668Y4240D01*
X642Y4225D01*
X615Y4213D01*
X586Y4204D01*
X556Y4199D01*
X525Y4198D01*
X495Y4201D01*
X466Y4208D01*
X437Y4218D01*
X411Y4232D01*
X386Y4249D01*
X363Y4270D01*
X344Y4293D01*
X327Y4318D01*
X314Y4345D01*
X305Y4374D01*
X299Y4404D01*
X297Y4434D01*
X3250Y6402D02*
X3252Y6432D01*
X3258Y6462D01*
X3267Y6491D01*
X3280Y6518D01*
X3297Y6543D01*
X3316Y6566D01*
X3339Y6587D01*
X3364Y6604D01*
X3390Y6618D01*
X3419Y6628D01*
X3448Y6635D01*
X3478Y6638D01*
X3509Y6637D01*
X3539Y6632D01*
X3568Y6623D01*
X3595Y6611D01*
X3621Y6596D01*
X3645Y6577D01*
X3666Y6555D01*
X3684Y6531D01*
X3699Y6504D01*
X3710Y6476D01*
X3718Y6447D01*
X3722Y6417D01*
X3722Y6387D01*
X3718Y6357D01*
X3710Y6328D01*
X3699Y6300D01*
X3684Y6273D01*
X3666Y6249D01*
X3645Y6227D01*
X3621Y6208D01*
X3595Y6193D01*
X3568Y6181D01*
X3539Y6172D01*
X3509Y6167D01*
X3478Y6166D01*
X3448Y6169D01*
X3419Y6176D01*
X3390Y6186D01*
X3364Y6200D01*
X3339Y6217D01*
X3316Y6238D01*
X3297Y6261D01*
X3280Y6286D01*
X3267Y6313D01*
X3258Y6342D01*
X3252Y6372D01*
X3250Y6402D01*
X1281Y8371D02*
X1283Y8401D01*
X1289Y8431D01*
X1298Y8460D01*
X1311Y8487D01*
X1328Y8512D01*
X1347Y8535D01*
X1370Y8556D01*
X1395Y8573D01*
X1421Y8587D01*
X1450Y8597D01*
X1479Y8604D01*
X1509Y8607D01*
X1540Y8606D01*
X1570Y8601D01*
X1599Y8592D01*
X1626Y8580D01*
X1652Y8565D01*
X1676Y8546D01*
X1697Y8524D01*
X1715Y8500D01*
X1730Y8473D01*
X1741Y8445D01*
X1749Y8416D01*
X1753Y8386D01*
X1753Y8356D01*
X1749Y8326D01*
X1741Y8297D01*
X1730Y8269D01*
X1715Y8242D01*
X1697Y8218D01*
X1676Y8196D01*
X1652Y8177D01*
X1626Y8162D01*
X1599Y8150D01*
X1570Y8141D01*
X1540Y8136D01*
X1509Y8135D01*
X1479Y8138D01*
X1450Y8145D01*
X1421Y8155D01*
X1395Y8169D01*
X1370Y8186D01*
X1347Y8207D01*
X1328Y8230D01*
X1311Y8255D01*
X1298Y8282D01*
X1289Y8311D01*
X1283Y8341D01*
X1281Y8371D01*
X297Y8371D02*
X299Y8401D01*
X305Y8431D01*
X314Y8460D01*
X327Y8487D01*
X344Y8512D01*
X363Y8535D01*
X386Y8556D01*
X411Y8573D01*
X437Y8587D01*
X466Y8597D01*
X495Y8604D01*
X525Y8607D01*
X556Y8606D01*
X586Y8601D01*
X615Y8592D01*
X642Y8580D01*
X668Y8565D01*
X692Y8546D01*
X713Y8524D01*
X731Y8500D01*
X746Y8473D01*
X757Y8445D01*
X765Y8416D01*
X769Y8386D01*
X769Y8356D01*
X765Y8326D01*
X757Y8297D01*
X746Y8269D01*
X731Y8242D01*
X713Y8218D01*
X692Y8196D01*
X668Y8177D01*
X642Y8162D01*
X615Y8150D01*
X586Y8141D01*
X556Y8136D01*
X525Y8135D01*
X495Y8138D01*
X466Y8145D01*
X437Y8155D01*
X411Y8169D01*
X386Y8186D01*
X363Y8207D01*
X344Y8230D01*
X327Y8255D01*
X314Y8282D01*
X305Y8311D01*
X299Y8341D01*
X297Y8371D01*
X17757Y9851D02*
X17759Y9901D01*
X17765Y9951D01*
X17775Y10001D01*
X17788Y10049D01*
X17805Y10097D01*
X17826Y10143D01*
X17850Y10187D01*
X17878Y10229D01*
X17909Y10269D01*
X17943Y10306D01*
X17980Y10341D01*
X18019Y10372D01*
X18060Y10401D01*
X18104Y10426D01*
X18150Y10448D01*
X18197Y10466D01*
X18245Y10480D01*
X18294Y10491D01*
X18344Y10498D01*
X18394Y10501D01*
X18445Y10500D01*
X18495Y10495D01*
X18545Y10486D01*
X18593Y10474D01*
X18641Y10457D01*
X18687Y10437D01*
X18732Y10414D01*
X18775Y10387D01*
X18815Y10357D01*
X18853Y10324D01*
X18888Y10288D01*
X18921Y10249D01*
X18950Y10208D01*
X18976Y10165D01*
X18999Y10120D01*
X19018Y10073D01*
X19033Y10025D01*
X19045Y9976D01*
X19053Y9926D01*
X19057Y9876D01*
X19057Y9826D01*
X19053Y9776D01*
X19045Y9726D01*
X19033Y9677D01*
X19018Y9629D01*
X18999Y9582D01*
X18976Y9537D01*
X18950Y9494D01*
X18921Y9453D01*
X18888Y9414D01*
X18853Y9378D01*
X18815Y9345D01*
X18775Y9315D01*
X18732Y9288D01*
X18687Y9265D01*
X18641Y9245D01*
X18593Y9228D01*
X18545Y9216D01*
X18495Y9207D01*
X18445Y9202D01*
X18394Y9201D01*
X18344Y9204D01*
X18294Y9211D01*
X18245Y9222D01*
X18197Y9236D01*
X18150Y9254D01*
X18104Y9276D01*
X18060Y9301D01*
X18019Y9330D01*
X17980Y9361D01*
X17943Y9396D01*
X17909Y9433D01*
X17878Y9473D01*
X17850Y9515D01*
X17826Y9559D01*
X17805Y9605D01*
X17788Y9653D01*
X17775Y9701D01*
X17765Y9751D01*
X17759Y9801D01*
X17757Y9851D01*
D13*
X3486Y8371D03*
X3486Y7386D03*
X1517Y6402D03*
X3486Y5418D03*
X3486Y4434D03*
D14*
X1517Y4434D03*
X533Y4434D03*
X3486Y6402D03*
X1517Y8371D03*
X533Y8371D03*
D15*
X17608Y7801D03*
X18608Y7801D03*
X18608Y6801D03*
X17608Y6801D03*
X17608Y5801D03*
X18608Y5801D03*
X18608Y4801D03*
X17608Y4801D03*
D16*
X12809Y6480D03*
X4935Y6480D03*
D17*
X12775Y9415D03*
X12775Y10415D03*
D18*
X3241Y10062D03*
D19*
X4241Y10062D03*
X5241Y10062D03*
X6241Y10062D03*
X2520Y7373D03*
X2520Y6373D03*
X2520Y5373D03*
X11827Y2759D03*
X12827Y2759D03*
X13827Y2759D03*
X14827Y2759D03*
X15827Y2759D03*
X16827Y2759D03*
D20*
X15586Y4707D02*
X15586Y5301D01*
X13814Y5301D02*
X13814Y4707D01*
X13814Y7266D02*
X13814Y7860D01*
X15586Y7860D02*
X15586Y7266D01*
D21*
X18407Y9851D03*
X18410Y2958D03*
X1475Y2958D03*
X1475Y9854D03*
D22*
X16832Y8670D03*
X16832Y3946D03*
D23*
X1475Y11623D02*
X1478Y11623D01*
X18407Y11623D01*
X18410Y11623D01*
X17760Y12998D02*
X17762Y13048D01*
X17768Y13098D01*
X17778Y13148D01*
X17791Y13196D01*
X17808Y13244D01*
X17829Y13290D01*
X17853Y13334D01*
X17881Y13376D01*
X17912Y13416D01*
X17946Y13453D01*
X17983Y13488D01*
X18022Y13519D01*
X18063Y13548D01*
X18107Y13573D01*
X18153Y13595D01*
X18200Y13613D01*
X18248Y13627D01*
X18297Y13638D01*
X18347Y13645D01*
X18397Y13648D01*
X18448Y13647D01*
X18498Y13642D01*
X18548Y13633D01*
X18596Y13621D01*
X18644Y13604D01*
X18690Y13584D01*
X18735Y13561D01*
X18778Y13534D01*
X18818Y13504D01*
X18856Y13471D01*
X18891Y13435D01*
X18924Y13396D01*
X18953Y13355D01*
X18979Y13312D01*
X19002Y13267D01*
X19021Y13220D01*
X19036Y13172D01*
X19048Y13123D01*
X19056Y13073D01*
X19060Y13023D01*
X19060Y12973D01*
X19056Y12923D01*
X19048Y12873D01*
X19036Y12824D01*
X19021Y12776D01*
X19002Y12729D01*
X18979Y12684D01*
X18953Y12641D01*
X18924Y12600D01*
X18891Y12561D01*
X18856Y12525D01*
X18818Y12492D01*
X18778Y12462D01*
X18735Y12435D01*
X18690Y12412D01*
X18644Y12392D01*
X18596Y12375D01*
X18548Y12363D01*
X18498Y12354D01*
X18448Y12349D01*
X18397Y12348D01*
X18347Y12351D01*
X18297Y12358D01*
X18248Y12369D01*
X18200Y12383D01*
X18153Y12401D01*
X18107Y12423D01*
X18063Y12448D01*
X18022Y12477D01*
X17983Y12508D01*
X17946Y12543D01*
X17912Y12580D01*
X17881Y12620D01*
X17853Y12662D01*
X17829Y12706D01*
X17808Y12752D01*
X17791Y12800D01*
X17778Y12848D01*
X17768Y12898D01*
X17762Y12948D01*
X17760Y12998D01*
X18407Y11623D02*
X18481Y11626D01*
X18555Y11633D01*
X18629Y11644D01*
X18701Y11659D01*
X18773Y11677D01*
X18844Y11700D01*
X18914Y11726D01*
X18982Y11756D01*
X19048Y11789D01*
X19113Y11826D01*
X19175Y11867D01*
X19236Y11910D01*
X19294Y11957D01*
X19349Y12007D01*
X19401Y12059D01*
X19451Y12114D01*
X19498Y12172D01*
X19541Y12233D01*
X19582Y12295D01*
X19619Y12360D01*
X19652Y12426D01*
X19682Y12494D01*
X19708Y12564D01*
X19731Y12635D01*
X19749Y12707D01*
X19764Y12779D01*
X19775Y12853D01*
X19782Y12927D01*
X19785Y13001D01*
X19785Y12998D01*
X19785Y13001D02*
X19785Y19852D01*
X19785Y19897D01*
X19785Y19852D02*
X19787Y19924D01*
X19785Y19995D01*
X19780Y20067D01*
X19771Y20138D01*
X19758Y20209D01*
X19741Y20278D01*
X19720Y20347D01*
X19696Y20415D01*
X19669Y20481D01*
X19637Y20545D01*
X19603Y20608D01*
X19565Y20669D01*
X19524Y20728D01*
X19480Y20784D01*
X19432Y20838D01*
X19382Y20889D01*
X19330Y20938D01*
X19275Y20984D01*
X19217Y21027D01*
X19157Y21066D01*
X19095Y21103D01*
X19032Y21136D01*
X18967Y21165D01*
X18900Y21191D01*
X18832Y21214D01*
X18762Y21232D01*
X18692Y21247D01*
X18621Y21259D01*
X18550Y21266D01*
X18479Y21270D01*
X18407Y21269D01*
X18410Y21269D01*
X18407Y21269D02*
X1478Y21269D01*
X825Y19894D02*
X827Y19944D01*
X833Y19994D01*
X843Y20044D01*
X856Y20092D01*
X873Y20140D01*
X894Y20186D01*
X918Y20230D01*
X946Y20272D01*
X977Y20312D01*
X1011Y20349D01*
X1048Y20384D01*
X1087Y20415D01*
X1128Y20444D01*
X1172Y20469D01*
X1218Y20491D01*
X1265Y20509D01*
X1313Y20523D01*
X1362Y20534D01*
X1412Y20541D01*
X1462Y20544D01*
X1513Y20543D01*
X1563Y20538D01*
X1613Y20529D01*
X1661Y20517D01*
X1709Y20500D01*
X1755Y20480D01*
X1800Y20457D01*
X1843Y20430D01*
X1883Y20400D01*
X1921Y20367D01*
X1956Y20331D01*
X1989Y20292D01*
X2018Y20251D01*
X2044Y20208D01*
X2067Y20163D01*
X2086Y20116D01*
X2101Y20068D01*
X2113Y20019D01*
X2121Y19969D01*
X2125Y19919D01*
X2125Y19869D01*
X2121Y19819D01*
X2113Y19769D01*
X2101Y19720D01*
X2086Y19672D01*
X2067Y19625D01*
X2044Y19580D01*
X2018Y19537D01*
X1989Y19496D01*
X1956Y19457D01*
X1921Y19421D01*
X1883Y19388D01*
X1843Y19358D01*
X1800Y19331D01*
X1755Y19308D01*
X1709Y19288D01*
X1661Y19271D01*
X1613Y19259D01*
X1563Y19250D01*
X1513Y19245D01*
X1462Y19244D01*
X1412Y19247D01*
X1362Y19254D01*
X1313Y19265D01*
X1265Y19279D01*
X1218Y19297D01*
X1172Y19319D01*
X1128Y19344D01*
X1087Y19373D01*
X1048Y19404D01*
X1011Y19439D01*
X977Y19476D01*
X946Y19516D01*
X918Y19558D01*
X894Y19602D01*
X873Y19648D01*
X856Y19696D01*
X843Y19744D01*
X833Y19794D01*
X827Y19844D01*
X825Y19894D01*
X100Y19891D02*
X102Y19963D01*
X108Y20035D01*
X117Y20107D01*
X130Y20178D01*
X147Y20248D01*
X167Y20317D01*
X192Y20385D01*
X219Y20451D01*
X250Y20517D01*
X285Y20580D01*
X322Y20642D01*
X363Y20701D01*
X407Y20758D01*
X454Y20813D01*
X504Y20865D01*
X556Y20915D01*
X611Y20962D01*
X668Y21006D01*
X727Y21047D01*
X789Y21084D01*
X852Y21119D01*
X918Y21150D01*
X984Y21177D01*
X1052Y21202D01*
X1121Y21222D01*
X1191Y21239D01*
X1262Y21252D01*
X1334Y21261D01*
X1406Y21267D01*
X1478Y21269D01*
X100Y19894D02*
X100Y19891D01*
X100Y13041D01*
X100Y12998D01*
X825Y12998D02*
X827Y13048D01*
X833Y13098D01*
X843Y13148D01*
X856Y13196D01*
X873Y13244D01*
X894Y13290D01*
X918Y13334D01*
X946Y13376D01*
X977Y13416D01*
X1011Y13453D01*
X1048Y13488D01*
X1087Y13519D01*
X1128Y13548D01*
X1172Y13573D01*
X1218Y13595D01*
X1265Y13613D01*
X1313Y13627D01*
X1362Y13638D01*
X1412Y13645D01*
X1462Y13648D01*
X1513Y13647D01*
X1563Y13642D01*
X1613Y13633D01*
X1661Y13621D01*
X1709Y13604D01*
X1755Y13584D01*
X1800Y13561D01*
X1843Y13534D01*
X1883Y13504D01*
X1921Y13471D01*
X1956Y13435D01*
X1989Y13396D01*
X2018Y13355D01*
X2044Y13312D01*
X2067Y13267D01*
X2086Y13220D01*
X2101Y13172D01*
X2113Y13123D01*
X2121Y13073D01*
X2125Y13023D01*
X2125Y12973D01*
X2121Y12923D01*
X2113Y12873D01*
X2101Y12824D01*
X2086Y12776D01*
X2067Y12729D01*
X2044Y12684D01*
X2018Y12641D01*
X1989Y12600D01*
X1956Y12561D01*
X1921Y12525D01*
X1883Y12492D01*
X1843Y12462D01*
X1800Y12435D01*
X1755Y12412D01*
X1709Y12392D01*
X1661Y12375D01*
X1613Y12363D01*
X1563Y12354D01*
X1513Y12349D01*
X1462Y12348D01*
X1412Y12351D01*
X1362Y12358D01*
X1313Y12369D01*
X1265Y12383D01*
X1218Y12401D01*
X1172Y12423D01*
X1128Y12448D01*
X1087Y12477D01*
X1048Y12508D01*
X1011Y12543D01*
X977Y12580D01*
X946Y12620D01*
X918Y12662D01*
X894Y12706D01*
X873Y12752D01*
X856Y12800D01*
X843Y12848D01*
X833Y12898D01*
X827Y12948D01*
X825Y12998D01*
X99Y13041D02*
X100Y12968D01*
X105Y12894D01*
X113Y12822D01*
X126Y12750D01*
X142Y12678D01*
X161Y12608D01*
X185Y12538D01*
X212Y12470D01*
X243Y12404D01*
X277Y12339D01*
X314Y12276D01*
X355Y12215D01*
X398Y12157D01*
X445Y12100D01*
X495Y12046D01*
X547Y11995D01*
X602Y11947D01*
X659Y11902D01*
X719Y11859D01*
X781Y11820D01*
X845Y11784D01*
X910Y11752D01*
X978Y11723D01*
X1046Y11698D01*
X1116Y11676D01*
X1187Y11658D01*
X1259Y11643D01*
X1331Y11633D01*
X1404Y11626D01*
X1477Y11623D01*
X1281Y14474D02*
X1283Y14504D01*
X1289Y14534D01*
X1298Y14563D01*
X1311Y14590D01*
X1328Y14615D01*
X1347Y14638D01*
X1370Y14659D01*
X1395Y14676D01*
X1421Y14690D01*
X1450Y14700D01*
X1479Y14707D01*
X1509Y14710D01*
X1540Y14709D01*
X1570Y14704D01*
X1599Y14695D01*
X1626Y14683D01*
X1652Y14668D01*
X1676Y14649D01*
X1697Y14627D01*
X1715Y14603D01*
X1730Y14576D01*
X1741Y14548D01*
X1749Y14519D01*
X1753Y14489D01*
X1753Y14459D01*
X1749Y14429D01*
X1741Y14400D01*
X1730Y14372D01*
X1715Y14345D01*
X1697Y14321D01*
X1676Y14299D01*
X1652Y14280D01*
X1626Y14265D01*
X1599Y14253D01*
X1570Y14244D01*
X1540Y14239D01*
X1509Y14238D01*
X1479Y14241D01*
X1450Y14248D01*
X1421Y14258D01*
X1395Y14272D01*
X1370Y14289D01*
X1347Y14310D01*
X1328Y14333D01*
X1311Y14358D01*
X1298Y14385D01*
X1289Y14414D01*
X1283Y14444D01*
X1281Y14474D01*
X297Y14474D02*
X299Y14504D01*
X305Y14534D01*
X314Y14563D01*
X327Y14590D01*
X344Y14615D01*
X363Y14638D01*
X386Y14659D01*
X411Y14676D01*
X437Y14690D01*
X466Y14700D01*
X495Y14707D01*
X525Y14710D01*
X556Y14709D01*
X586Y14704D01*
X615Y14695D01*
X642Y14683D01*
X668Y14668D01*
X692Y14649D01*
X713Y14627D01*
X731Y14603D01*
X746Y14576D01*
X757Y14548D01*
X765Y14519D01*
X769Y14489D01*
X769Y14459D01*
X765Y14429D01*
X757Y14400D01*
X746Y14372D01*
X731Y14345D01*
X713Y14321D01*
X692Y14299D01*
X668Y14280D01*
X642Y14265D01*
X615Y14253D01*
X586Y14244D01*
X556Y14239D01*
X525Y14238D01*
X495Y14241D01*
X466Y14248D01*
X437Y14258D01*
X411Y14272D01*
X386Y14289D01*
X363Y14310D01*
X344Y14333D01*
X327Y14358D01*
X314Y14385D01*
X305Y14414D01*
X299Y14444D01*
X297Y14474D01*
X3250Y16442D02*
X3252Y16472D01*
X3258Y16502D01*
X3267Y16531D01*
X3280Y16558D01*
X3297Y16583D01*
X3316Y16606D01*
X3339Y16627D01*
X3364Y16644D01*
X3390Y16658D01*
X3419Y16668D01*
X3448Y16675D01*
X3478Y16678D01*
X3509Y16677D01*
X3539Y16672D01*
X3568Y16663D01*
X3595Y16651D01*
X3621Y16636D01*
X3645Y16617D01*
X3666Y16595D01*
X3684Y16571D01*
X3699Y16544D01*
X3710Y16516D01*
X3718Y16487D01*
X3722Y16457D01*
X3722Y16427D01*
X3718Y16397D01*
X3710Y16368D01*
X3699Y16340D01*
X3684Y16313D01*
X3666Y16289D01*
X3645Y16267D01*
X3621Y16248D01*
X3595Y16233D01*
X3568Y16221D01*
X3539Y16212D01*
X3509Y16207D01*
X3478Y16206D01*
X3448Y16209D01*
X3419Y16216D01*
X3390Y16226D01*
X3364Y16240D01*
X3339Y16257D01*
X3316Y16278D01*
X3297Y16301D01*
X3280Y16326D01*
X3267Y16353D01*
X3258Y16382D01*
X3252Y16412D01*
X3250Y16442D01*
X1281Y18411D02*
X1283Y18441D01*
X1289Y18471D01*
X1298Y18500D01*
X1311Y18527D01*
X1328Y18552D01*
X1347Y18575D01*
X1370Y18596D01*
X1395Y18613D01*
X1421Y18627D01*
X1450Y18637D01*
X1479Y18644D01*
X1509Y18647D01*
X1540Y18646D01*
X1570Y18641D01*
X1599Y18632D01*
X1626Y18620D01*
X1652Y18605D01*
X1676Y18586D01*
X1697Y18564D01*
X1715Y18540D01*
X1730Y18513D01*
X1741Y18485D01*
X1749Y18456D01*
X1753Y18426D01*
X1753Y18396D01*
X1749Y18366D01*
X1741Y18337D01*
X1730Y18309D01*
X1715Y18282D01*
X1697Y18258D01*
X1676Y18236D01*
X1652Y18217D01*
X1626Y18202D01*
X1599Y18190D01*
X1570Y18181D01*
X1540Y18176D01*
X1509Y18175D01*
X1479Y18178D01*
X1450Y18185D01*
X1421Y18195D01*
X1395Y18209D01*
X1370Y18226D01*
X1347Y18247D01*
X1328Y18270D01*
X1311Y18295D01*
X1298Y18322D01*
X1289Y18351D01*
X1283Y18381D01*
X1281Y18411D01*
X297Y18411D02*
X299Y18441D01*
X305Y18471D01*
X314Y18500D01*
X327Y18527D01*
X344Y18552D01*
X363Y18575D01*
X386Y18596D01*
X411Y18613D01*
X437Y18627D01*
X466Y18637D01*
X495Y18644D01*
X525Y18647D01*
X556Y18646D01*
X586Y18641D01*
X615Y18632D01*
X642Y18620D01*
X668Y18605D01*
X692Y18586D01*
X713Y18564D01*
X731Y18540D01*
X746Y18513D01*
X757Y18485D01*
X765Y18456D01*
X769Y18426D01*
X769Y18396D01*
X765Y18366D01*
X757Y18337D01*
X746Y18309D01*
X731Y18282D01*
X713Y18258D01*
X692Y18236D01*
X668Y18217D01*
X642Y18202D01*
X615Y18190D01*
X586Y18181D01*
X556Y18176D01*
X525Y18175D01*
X495Y18178D01*
X466Y18185D01*
X437Y18195D01*
X411Y18209D01*
X386Y18226D01*
X363Y18247D01*
X344Y18270D01*
X327Y18295D01*
X314Y18322D01*
X305Y18351D01*
X299Y18381D01*
X297Y18411D01*
X17757Y19891D02*
X17759Y19941D01*
X17765Y19991D01*
X17775Y20041D01*
X17788Y20089D01*
X17805Y20137D01*
X17826Y20183D01*
X17850Y20227D01*
X17878Y20269D01*
X17909Y20309D01*
X17943Y20346D01*
X17980Y20381D01*
X18019Y20412D01*
X18060Y20441D01*
X18104Y20466D01*
X18150Y20488D01*
X18197Y20506D01*
X18245Y20520D01*
X18294Y20531D01*
X18344Y20538D01*
X18394Y20541D01*
X18445Y20540D01*
X18495Y20535D01*
X18545Y20526D01*
X18593Y20514D01*
X18641Y20497D01*
X18687Y20477D01*
X18732Y20454D01*
X18775Y20427D01*
X18815Y20397D01*
X18853Y20364D01*
X18888Y20328D01*
X18921Y20289D01*
X18950Y20248D01*
X18976Y20205D01*
X18999Y20160D01*
X19018Y20113D01*
X19033Y20065D01*
X19045Y20016D01*
X19053Y19966D01*
X19057Y19916D01*
X19057Y19866D01*
X19053Y19816D01*
X19045Y19766D01*
X19033Y19717D01*
X19018Y19669D01*
X18999Y19622D01*
X18976Y19577D01*
X18950Y19534D01*
X18921Y19493D01*
X18888Y19454D01*
X18853Y19418D01*
X18815Y19385D01*
X18775Y19355D01*
X18732Y19328D01*
X18687Y19305D01*
X18641Y19285D01*
X18593Y19268D01*
X18545Y19256D01*
X18495Y19247D01*
X18445Y19242D01*
X18394Y19241D01*
X18344Y19244D01*
X18294Y19251D01*
X18245Y19262D01*
X18197Y19276D01*
X18150Y19294D01*
X18104Y19316D01*
X18060Y19341D01*
X18019Y19370D01*
X17980Y19401D01*
X17943Y19436D01*
X17909Y19473D01*
X17878Y19513D01*
X17850Y19555D01*
X17826Y19599D01*
X17805Y19645D01*
X17788Y19693D01*
X17775Y19741D01*
X17765Y19791D01*
X17759Y19841D01*
X17757Y19891D01*
D24*
X3486Y18411D03*
X3486Y17426D03*
X1517Y16442D03*
X3486Y15458D03*
X3486Y14474D03*
D25*
X1517Y14474D03*
X533Y14474D03*
X3486Y16442D03*
X1517Y18411D03*
X533Y18411D03*
D26*
X17608Y17841D03*
X18608Y17841D03*
X18608Y16841D03*
X17608Y16841D03*
X17608Y15841D03*
X18608Y15841D03*
X18608Y14841D03*
X17608Y14841D03*
D27*
X12809Y16520D03*
X4935Y16520D03*
D28*
X12775Y19455D03*
X12775Y20455D03*
D29*
X3241Y20102D03*
D30*
X4241Y20102D03*
X5241Y20102D03*
X6241Y20102D03*
X2520Y17413D03*
X2520Y16413D03*
X2520Y15413D03*
X11827Y12799D03*
X12827Y12799D03*
X13827Y12799D03*
X14827Y12799D03*
X15827Y12799D03*
X16827Y12799D03*
D31*
X15586Y14747D02*
X15586Y15341D01*
X13814Y15341D02*
X13814Y14747D01*
X13814Y17306D02*
X13814Y17900D01*
X15586Y17900D02*
X15586Y17306D01*
D32*
X18407Y19891D03*
X18410Y12998D03*
X1475Y12998D03*
X1475Y19894D03*
D33*
X16832Y18710D03*
X16832Y13986D03*
M02*
