G75*
G70*
%OFA0B0*%
%FSLAX24Y24*%
%IPPOS*%
%LPD*%
%AMOC8*
5,1,8,0,0,1.08239X$1,22.5*
%
%ADD10C,0.0000*%
%ADD11C,0.0030*%
%ADD12C,0.0030*%
%ADD13C,0.0000*%
%ADD14R,0.0130X0.0010*%
%ADD15R,0.0260X0.0010*%
%ADD16R,0.0330X0.0010*%
%ADD17R,0.0390X0.0010*%
%ADD18R,0.0450X0.0010*%
%ADD19R,0.0490X0.0010*%
%ADD20R,0.0530X0.0010*%
%ADD21R,0.0570X0.0010*%
%ADD22R,0.0610X0.0010*%
%ADD23R,0.0640X0.0010*%
%ADD24R,0.0670X0.0010*%
%ADD25R,0.0690X0.0010*%
%ADD26R,0.0730X0.0010*%
%ADD27R,0.0750X0.0010*%
%ADD28R,0.0770X0.0010*%
%ADD29R,0.0210X0.0010*%
%ADD30R,0.0320X0.0010*%
%ADD31R,0.0290X0.0010*%
%ADD32R,0.0370X0.0010*%
%ADD33R,0.0270X0.0010*%
%ADD34R,0.0420X0.0010*%
%ADD35R,0.0250X0.0010*%
%ADD36R,0.0460X0.0010*%
%ADD37R,0.0240X0.0010*%
%ADD38R,0.0520X0.0010*%
%ADD39R,0.0230X0.0010*%
%ADD40R,0.0550X0.0010*%
%ADD41R,0.0220X0.0010*%
%ADD42R,0.0800X0.0010*%
%ADD43R,0.0200X0.0010*%
%ADD44R,0.0190X0.0010*%
%ADD45R,0.0810X0.0010*%
%ADD46R,0.0280X0.0010*%
%ADD47R,0.0840X0.0010*%
%ADD48R,0.0360X0.0010*%
%ADD49R,0.0860X0.0010*%
%ADD50R,0.0880X0.0010*%
%ADD51R,0.0470X0.0010*%
%ADD52R,0.0350X0.0010*%
%ADD53R,0.0650X0.0010*%
%ADD54R,0.0310X0.0010*%
%ADD55R,0.0660X0.0010*%
%ADD56R,0.0410X0.0010*%
%ADD57R,0.0680X0.0010*%
%ADD58R,0.0700X0.0010*%
%ADD59R,0.0180X0.0010*%
%ADD60R,0.0170X0.0010*%
%ADD61R,0.0140X0.0010*%
%ADD62R,0.0110X0.0010*%
%ADD63R,0.0720X0.0010*%
%ADD64R,0.0090X0.0010*%
%ADD65R,0.0040X0.0010*%
%ADD66R,0.0160X0.0010*%
%ADD67R,0.0100X0.0010*%
%ADD68R,0.0050X0.0010*%
%ADD69R,0.0150X0.0010*%
%ADD70R,0.0120X0.0010*%
%ADD71R,0.0380X0.0010*%
%ADD72R,0.0590X0.0010*%
%ADD73R,0.0890X0.0010*%
%ADD74R,0.0970X0.0010*%
%ADD75R,0.0940X0.0010*%
%ADD76R,0.0740X0.0010*%
%ADD77R,0.0620X0.0010*%
%ADD78R,0.0510X0.0010*%
%ADD79R,0.0400X0.0010*%
%ADD80R,0.0500X0.0010*%
%ADD81R,0.0580X0.0010*%
%ADD82R,0.0760X0.0010*%
%ADD83R,0.0430X0.0010*%
%ADD84R,0.0340X0.0010*%
%ADD85R,0.0080X0.0010*%
%ADD86R,0.0440X0.0010*%
%ADD87R,0.0300X0.0010*%
%ADD88R,0.0980X0.0010*%
%ADD89R,0.1000X0.0010*%
%ADD90R,0.0630X0.0010*%
%ADD91R,0.0600X0.0010*%
%ADD92R,0.0560X0.0010*%
%ADD93R,0.0480X0.0010*%
%ADD94C,0.0040*%
%ADD95C,0.0059*%
%ADD96C,0.0080*%
%ADD97C,0.0030*%
%ADD98C,0.0000*%
%ADD99R,0.0130X0.0010*%
%ADD100R,0.0260X0.0010*%
%ADD101R,0.0330X0.0010*%
%ADD102R,0.0390X0.0010*%
%ADD103R,0.0450X0.0010*%
%ADD104R,0.0490X0.0010*%
%ADD105R,0.0530X0.0010*%
%ADD106R,0.0570X0.0010*%
%ADD107R,0.0610X0.0010*%
%ADD108R,0.0640X0.0010*%
%ADD109R,0.0670X0.0010*%
%ADD110R,0.0690X0.0010*%
%ADD111R,0.0730X0.0010*%
%ADD112R,0.0750X0.0010*%
%ADD113R,0.0770X0.0010*%
%ADD114R,0.0210X0.0010*%
%ADD115R,0.0320X0.0010*%
%ADD116R,0.0290X0.0010*%
%ADD117R,0.0370X0.0010*%
%ADD118R,0.0270X0.0010*%
%ADD119R,0.0420X0.0010*%
%ADD120R,0.0250X0.0010*%
%ADD121R,0.0460X0.0010*%
%ADD122R,0.0240X0.0010*%
%ADD123R,0.0520X0.0010*%
%ADD124R,0.0230X0.0010*%
%ADD125R,0.0550X0.0010*%
%ADD126R,0.0220X0.0010*%
%ADD127R,0.0800X0.0010*%
%ADD128R,0.0200X0.0010*%
%ADD129R,0.0190X0.0010*%
%ADD130R,0.0810X0.0010*%
%ADD131R,0.0280X0.0010*%
%ADD132R,0.0840X0.0010*%
%ADD133R,0.0360X0.0010*%
%ADD134R,0.0860X0.0010*%
%ADD135R,0.0880X0.0010*%
%ADD136R,0.0470X0.0010*%
%ADD137R,0.0350X0.0010*%
%ADD138R,0.0650X0.0010*%
%ADD139R,0.0310X0.0010*%
%ADD140R,0.0660X0.0010*%
%ADD141R,0.0410X0.0010*%
%ADD142R,0.0680X0.0010*%
%ADD143R,0.0700X0.0010*%
%ADD144R,0.0180X0.0010*%
%ADD145R,0.0170X0.0010*%
%ADD146R,0.0140X0.0010*%
%ADD147R,0.0110X0.0010*%
%ADD148R,0.0720X0.0010*%
%ADD149R,0.0090X0.0010*%
%ADD150R,0.0040X0.0010*%
%ADD151R,0.0160X0.0010*%
%ADD152R,0.0100X0.0010*%
%ADD153R,0.0050X0.0010*%
%ADD154R,0.0150X0.0010*%
%ADD155R,0.0120X0.0010*%
%ADD156R,0.0380X0.0010*%
%ADD157R,0.0590X0.0010*%
%ADD158R,0.0890X0.0010*%
%ADD159R,0.0970X0.0010*%
%ADD160R,0.0940X0.0010*%
%ADD161R,0.0740X0.0010*%
%ADD162R,0.0620X0.0010*%
%ADD163R,0.0510X0.0010*%
%ADD164R,0.0400X0.0010*%
%ADD165R,0.0500X0.0010*%
%ADD166R,0.0580X0.0010*%
%ADD167R,0.0760X0.0010*%
%ADD168R,0.0430X0.0010*%
%ADD169R,0.0340X0.0010*%
%ADD170R,0.0080X0.0010*%
%ADD171R,0.0440X0.0010*%
%ADD172R,0.0300X0.0010*%
%ADD173R,0.0980X0.0010*%
%ADD174R,0.1000X0.0010*%
%ADD175R,0.0630X0.0010*%
%ADD176R,0.0600X0.0010*%
%ADD177R,0.0560X0.0010*%
%ADD178R,0.0480X0.0010*%
%ADD179C,0.0040*%
%ADD180C,0.0059*%
%ADD181C,0.0080*%
D10*
X001475Y001583D02*
X001478Y001583D01*
X018407Y001583D01*
X018410Y001583D01*
X018408Y001583D02*
X018482Y001586D01*
X018556Y001593D01*
X018630Y001604D01*
X018702Y001619D01*
X018774Y001637D01*
X018845Y001660D01*
X018915Y001686D01*
X018983Y001716D01*
X019049Y001749D01*
X019114Y001786D01*
X019176Y001827D01*
X019237Y001870D01*
X019295Y001917D01*
X019350Y001967D01*
X019402Y002019D01*
X019452Y002074D01*
X019499Y002132D01*
X019542Y002193D01*
X019583Y002255D01*
X019620Y002320D01*
X019653Y002386D01*
X019683Y002454D01*
X019709Y002524D01*
X019732Y002595D01*
X019750Y002667D01*
X019765Y002739D01*
X019776Y002813D01*
X019783Y002887D01*
X019786Y002961D01*
X019785Y002961D02*
X019785Y002958D01*
X019785Y002961D02*
X019785Y009812D01*
X019785Y009857D01*
X019785Y009812D02*
X019787Y009884D01*
X019785Y009955D01*
X019780Y010027D01*
X019771Y010098D01*
X019758Y010169D01*
X019741Y010238D01*
X019720Y010307D01*
X019696Y010375D01*
X019669Y010441D01*
X019637Y010505D01*
X019603Y010568D01*
X019565Y010629D01*
X019524Y010688D01*
X019480Y010744D01*
X019432Y010798D01*
X019382Y010849D01*
X019330Y010898D01*
X019275Y010944D01*
X019217Y010987D01*
X019157Y011026D01*
X019095Y011063D01*
X019032Y011096D01*
X018967Y011125D01*
X018900Y011151D01*
X018832Y011174D01*
X018762Y011192D01*
X018692Y011207D01*
X018621Y011219D01*
X018550Y011226D01*
X018479Y011230D01*
X018407Y011229D01*
X001872Y011229D01*
X001872Y011623D01*
X018407Y011623D01*
X018410Y011623D01*
X018407Y011229D02*
X018410Y011229D01*
X018408Y011622D02*
X018482Y011625D01*
X018556Y011632D01*
X018630Y011643D01*
X018702Y011658D01*
X018774Y011676D01*
X018845Y011699D01*
X018915Y011725D01*
X018983Y011755D01*
X019049Y011788D01*
X019114Y011825D01*
X019176Y011866D01*
X019237Y011909D01*
X019295Y011956D01*
X019350Y012006D01*
X019402Y012058D01*
X019452Y012113D01*
X019499Y012171D01*
X019542Y012232D01*
X019583Y012294D01*
X019620Y012359D01*
X019653Y012425D01*
X019683Y012493D01*
X019709Y012563D01*
X019732Y012634D01*
X019750Y012706D01*
X019765Y012778D01*
X019776Y012852D01*
X019783Y012926D01*
X019786Y013000D01*
X019785Y013001D02*
X019785Y012998D01*
X019785Y013001D02*
X019785Y019851D01*
X019785Y019897D01*
X019785Y019851D02*
X019787Y019923D01*
X019785Y019994D01*
X019780Y020066D01*
X019771Y020137D01*
X019758Y020208D01*
X019741Y020277D01*
X019720Y020346D01*
X019696Y020414D01*
X019669Y020480D01*
X019637Y020544D01*
X019603Y020607D01*
X019565Y020668D01*
X019524Y020727D01*
X019480Y020783D01*
X019432Y020837D01*
X019382Y020888D01*
X019330Y020937D01*
X019275Y020983D01*
X019217Y021026D01*
X019157Y021065D01*
X019095Y021102D01*
X019032Y021135D01*
X018967Y021164D01*
X018900Y021190D01*
X018832Y021213D01*
X018762Y021231D01*
X018692Y021246D01*
X018621Y021258D01*
X018550Y021265D01*
X018479Y021269D01*
X018407Y021268D01*
X018410Y021268D01*
X018407Y021268D02*
X001478Y021268D01*
X001475Y021268D01*
X001478Y021269D02*
X001404Y021266D01*
X001330Y021259D01*
X001256Y021248D01*
X001184Y021233D01*
X001112Y021215D01*
X001041Y021192D01*
X000971Y021166D01*
X000903Y021136D01*
X000837Y021103D01*
X000772Y021066D01*
X000710Y021025D01*
X000649Y020982D01*
X000591Y020935D01*
X000536Y020885D01*
X000484Y020833D01*
X000434Y020778D01*
X000387Y020720D01*
X000344Y020659D01*
X000303Y020597D01*
X000266Y020532D01*
X000233Y020466D01*
X000203Y020398D01*
X000177Y020328D01*
X000154Y020257D01*
X000136Y020185D01*
X000121Y020113D01*
X000110Y020039D01*
X000103Y019965D01*
X000100Y019891D01*
X000100Y019890D02*
X000100Y019894D01*
X000100Y019890D02*
X000100Y013040D01*
X000100Y012998D01*
X000100Y013040D02*
X000101Y012967D01*
X000106Y012893D01*
X000114Y012821D01*
X000127Y012749D01*
X000143Y012677D01*
X000162Y012607D01*
X000186Y012537D01*
X000213Y012469D01*
X000244Y012403D01*
X000278Y012338D01*
X000315Y012275D01*
X000356Y012214D01*
X000399Y012156D01*
X000446Y012099D01*
X000496Y012045D01*
X000548Y011994D01*
X000603Y011946D01*
X000660Y011901D01*
X000720Y011858D01*
X000782Y011819D01*
X000846Y011783D01*
X000911Y011751D01*
X000979Y011722D01*
X001047Y011697D01*
X001117Y011675D01*
X001188Y011657D01*
X001260Y011642D01*
X001332Y011632D01*
X001405Y011625D01*
X001478Y011622D01*
X001478Y011623D02*
X001478Y011229D01*
X001475Y011229D01*
X001475Y011623D02*
X001478Y011623D01*
X001478Y011229D02*
X001404Y011226D01*
X001330Y011219D01*
X001256Y011208D01*
X001184Y011193D01*
X001112Y011175D01*
X001041Y011152D01*
X000971Y011126D01*
X000903Y011096D01*
X000837Y011063D01*
X000772Y011026D01*
X000710Y010985D01*
X000649Y010942D01*
X000591Y010895D01*
X000536Y010845D01*
X000484Y010793D01*
X000434Y010738D01*
X000387Y010680D01*
X000344Y010619D01*
X000303Y010557D01*
X000266Y010492D01*
X000233Y010426D01*
X000203Y010358D01*
X000177Y010288D01*
X000154Y010217D01*
X000136Y010145D01*
X000121Y010073D01*
X000110Y009999D01*
X000103Y009925D01*
X000100Y009851D01*
X000100Y009854D01*
X000100Y009851D02*
X000100Y003001D01*
X000100Y002958D01*
X000100Y003001D02*
X000101Y002928D01*
X000106Y002854D01*
X000114Y002782D01*
X000127Y002710D01*
X000143Y002638D01*
X000162Y002568D01*
X000186Y002498D01*
X000213Y002430D01*
X000244Y002364D01*
X000278Y002299D01*
X000315Y002236D01*
X000356Y002175D01*
X000399Y002117D01*
X000446Y002060D01*
X000496Y002006D01*
X000548Y001955D01*
X000603Y001907D01*
X000660Y001862D01*
X000720Y001819D01*
X000782Y001780D01*
X000846Y001744D01*
X000911Y001712D01*
X000979Y001683D01*
X001047Y001658D01*
X001117Y001636D01*
X001188Y001618D01*
X001260Y001603D01*
X001332Y001593D01*
X001405Y001586D01*
X001478Y001583D01*
D11*
X003807Y000433D02*
X004053Y000433D01*
X003930Y000310D02*
X003930Y000557D01*
D12*
X3806Y433D02*
X4053Y433D01*
X3930Y310D02*
X3930Y557D01*
X9247Y4503D02*
X9296Y4455D01*
X9393Y4455D01*
X9441Y4503D01*
X9247Y4697D01*
X9247Y4503D01*
X9441Y4503D02*
X9441Y4697D01*
X9393Y4745D01*
X9296Y4745D01*
X9247Y4697D01*
X9540Y4503D02*
X9540Y4455D01*
X9588Y4455D01*
X9588Y4503D01*
X9540Y4503D01*
X9689Y4503D02*
X9689Y4552D01*
X9738Y4600D01*
X9786Y4600D01*
X9738Y4600D02*
X9689Y4649D01*
X9689Y4697D01*
X9738Y4745D01*
X9834Y4745D01*
X9883Y4697D01*
X9883Y4503D02*
X9834Y4455D01*
X9738Y4455D01*
X9689Y4503D01*
X10279Y4455D02*
X10279Y4649D01*
X10375Y4745D01*
X10472Y4649D01*
X10472Y4455D01*
X10573Y4503D02*
X10622Y4455D01*
X10718Y4455D01*
X10767Y4503D01*
X10718Y4600D02*
X10622Y4600D01*
X10573Y4552D01*
X10573Y4503D01*
X10472Y4600D02*
X10279Y4600D01*
X10573Y4697D02*
X10622Y4745D01*
X10718Y4745D01*
X10767Y4697D01*
X10767Y4649D01*
X10718Y4600D01*
X10868Y4600D02*
X11061Y4600D01*
X11163Y4697D02*
X11163Y4745D01*
X11163Y4697D02*
X11259Y4600D01*
X11259Y4455D01*
X11259Y4600D02*
X11356Y4697D01*
X11356Y4745D01*
X11457Y4697D02*
X11457Y4649D01*
X11506Y4600D01*
X11651Y4600D01*
X11651Y4455D02*
X11506Y4455D01*
X11457Y4503D01*
X11457Y4552D01*
X11506Y4600D01*
X11457Y4697D02*
X11506Y4745D01*
X11651Y4745D01*
X11651Y4455D01*
X12047Y4503D02*
X12095Y4455D01*
X12192Y4455D01*
X12240Y4503D01*
X12240Y4697D01*
X12192Y4745D01*
X12095Y4745D01*
X12047Y4697D01*
X12341Y4697D02*
X12390Y4745D01*
X12486Y4745D01*
X12535Y4697D01*
X12535Y4503D01*
X12486Y4455D01*
X12390Y4455D01*
X12341Y4503D01*
X14568Y5748D02*
X14691Y5748D01*
X14753Y5810D01*
X14753Y5933D01*
X14691Y5995D01*
X14568Y5995D01*
X14506Y5933D01*
X14506Y5872D01*
X14753Y5872D01*
X14875Y5995D02*
X15060Y5872D01*
X14875Y5748D01*
X15060Y5748D02*
X15060Y6119D01*
X15181Y6287D02*
X15181Y6595D01*
X15367Y6595D01*
X15428Y6533D01*
X15428Y6410D01*
X15367Y6348D01*
X15181Y6348D01*
X15181Y6287D02*
X15243Y6225D01*
X15305Y6225D01*
X15550Y6348D02*
X15735Y6348D01*
X15797Y6410D01*
X15735Y6472D01*
X15550Y6472D01*
X15550Y6533D02*
X15550Y6348D01*
X15550Y6533D02*
X15611Y6595D01*
X15735Y6595D01*
X15918Y6719D02*
X15918Y6348D01*
X16165Y6348D02*
X16165Y6719D01*
X16041Y6595D01*
X15918Y6719D01*
X16675Y6782D02*
X16675Y6535D01*
X17045Y6535D01*
X17045Y6352D02*
X16860Y6167D01*
X16860Y6414D01*
X16675Y6352D02*
X17045Y6352D01*
X16983Y6045D02*
X17045Y5984D01*
X17045Y5860D01*
X16983Y5798D01*
X17045Y5677D02*
X17045Y5430D01*
X16675Y5430D01*
X16675Y5309D02*
X16798Y5185D01*
X16798Y5247D02*
X16798Y5062D01*
X16675Y5062D02*
X17045Y5062D01*
X17045Y5247D01*
X16983Y5309D01*
X16860Y5309D01*
X16798Y5247D01*
X16860Y5430D02*
X16860Y5554D01*
X16675Y5798D02*
X16922Y6045D01*
X16983Y6045D01*
X16675Y6045D02*
X16675Y5798D01*
X16165Y5810D02*
X16103Y5748D01*
X15980Y5748D01*
X15918Y5810D01*
X15918Y5872D01*
X15980Y5933D01*
X16103Y5933D01*
X16165Y5995D01*
X16165Y6057D01*
X16103Y6119D01*
X15980Y6119D01*
X15918Y6057D01*
X15797Y5995D02*
X15735Y5995D01*
X15673Y5933D01*
X15611Y5995D01*
X15550Y5933D01*
X15550Y5748D01*
X15673Y5748D02*
X15673Y5933D01*
X15797Y5995D02*
X15797Y5748D01*
X15428Y5810D02*
X15428Y5933D01*
X15367Y5995D01*
X15243Y5995D01*
X15181Y5933D01*
X15181Y5810D01*
X15243Y5748D01*
X15367Y5748D01*
X15428Y5810D01*
X15060Y6348D02*
X14937Y6348D01*
X14998Y6348D02*
X14998Y6595D01*
X15060Y6595D01*
X14998Y6719D02*
X14998Y6780D01*
X14753Y6595D02*
X14814Y6533D01*
X14814Y6410D01*
X14753Y6348D01*
X14568Y6348D01*
X14568Y6595D02*
X14753Y6595D01*
X16675Y6965D02*
X16736Y6903D01*
X16983Y7150D01*
X16736Y7150D01*
X16675Y7089D01*
X16675Y6965D01*
X16736Y6903D02*
X16983Y6903D01*
X17045Y6965D01*
X17045Y7089D01*
X16983Y7150D01*
X16922Y7272D02*
X17045Y7395D01*
X16675Y7395D01*
X16675Y7272D02*
X16675Y7519D01*
X16860Y7640D02*
X16860Y7887D01*
X16983Y7763D02*
X16736Y7763D01*
X19263Y5181D02*
X19457Y5181D01*
X19505Y5133D01*
X19505Y4988D01*
X19215Y4988D01*
X19215Y5133D01*
X19263Y5181D01*
X19215Y4886D02*
X19505Y4886D01*
X19505Y4693D02*
X19215Y4886D01*
X19215Y4693D02*
X19505Y4693D01*
X19457Y4592D02*
X19505Y4543D01*
X19505Y4447D01*
X19457Y4398D01*
X19263Y4398D01*
X19215Y4447D01*
X19215Y4543D01*
X19263Y4592D01*
X19360Y4592D01*
X19360Y4495D01*
X17045Y4694D02*
X16675Y4940D01*
X17045Y4940D01*
X17045Y4694D02*
X16675Y4694D01*
X16135Y4169D02*
X16135Y3798D01*
X16011Y3922D01*
X15888Y3798D01*
X15888Y4169D01*
X15766Y4169D02*
X15520Y3798D01*
X15520Y4169D01*
X15398Y4107D02*
X15336Y4169D01*
X15213Y4169D01*
X15151Y4107D01*
X15398Y3860D01*
X15336Y3798D01*
X15213Y3798D01*
X15151Y3860D01*
X15151Y4107D01*
X15030Y4045D02*
X14906Y4169D01*
X14906Y3798D01*
X14783Y3798D02*
X15030Y3798D01*
X15398Y3860D02*
X15398Y4107D01*
X15766Y4169D02*
X15766Y3798D01*
X15779Y2169D02*
X15876Y2169D01*
X15924Y2120D01*
X15924Y1927D01*
X15876Y1878D01*
X15779Y1878D01*
X15731Y1927D01*
X15629Y1927D02*
X15581Y1878D01*
X15484Y1878D01*
X15436Y1927D01*
X15436Y2120D02*
X15484Y2169D01*
X15581Y2169D01*
X15629Y2120D01*
X15629Y1927D01*
X15731Y2120D02*
X15779Y2169D01*
X16025Y2169D02*
X16025Y1975D01*
X16122Y1878D01*
X16219Y1975D01*
X16219Y2169D01*
X16436Y2120D02*
X16484Y2169D01*
X16629Y2169D01*
X16629Y1878D01*
X16484Y1878D01*
X16436Y1927D01*
X16436Y2120D01*
X16731Y2169D02*
X16731Y1878D01*
X16924Y2169D01*
X16924Y1878D01*
X17025Y1927D02*
X17074Y1878D01*
X17170Y1878D01*
X17219Y1927D01*
X17219Y2120D01*
X17170Y2169D01*
X17074Y2169D01*
X17025Y2120D01*
X17025Y2023D02*
X17122Y2023D01*
X17025Y2023D02*
X17025Y1927D01*
X15219Y2169D02*
X15025Y2169D01*
X15122Y2169D02*
X15122Y1878D01*
X14924Y1878D02*
X14731Y2169D01*
X14629Y2169D02*
X14484Y2169D01*
X14436Y2120D01*
X14436Y1927D01*
X14484Y1878D01*
X14629Y1878D01*
X14629Y2169D01*
X14924Y2169D02*
X14731Y1878D01*
X14269Y1878D02*
X14269Y2169D01*
X14124Y2169D01*
X14075Y2120D01*
X14075Y2023D01*
X14124Y1975D01*
X14269Y1975D01*
X14172Y1975D02*
X14075Y1878D01*
X13974Y1878D02*
X13781Y2169D01*
X13679Y2169D02*
X13534Y2169D01*
X13486Y2120D01*
X13486Y1927D01*
X13534Y1878D01*
X13679Y1878D01*
X13679Y2169D01*
X13974Y2169D02*
X13781Y1878D01*
X13269Y1878D02*
X13269Y2169D01*
X13124Y2169D01*
X13075Y2120D01*
X13075Y2023D01*
X13124Y1975D01*
X13269Y1975D01*
X13172Y1975D02*
X13075Y1878D01*
X12974Y1927D02*
X12926Y1878D01*
X12829Y1878D01*
X12781Y1927D01*
X12781Y1975D01*
X12829Y2023D01*
X12926Y2023D01*
X12974Y2072D01*
X12974Y2120D01*
X12926Y2169D01*
X12829Y2169D01*
X12781Y2120D01*
X12679Y2169D02*
X12486Y2169D01*
X12583Y2169D02*
X12583Y1878D01*
X12122Y1878D02*
X12122Y2169D01*
X12219Y2169D02*
X12025Y2169D01*
X11924Y2120D02*
X11924Y2072D01*
X11876Y2023D01*
X11779Y2023D01*
X11731Y1975D01*
X11731Y1927D01*
X11779Y1878D01*
X11876Y1878D01*
X11924Y1927D01*
X11924Y2120D02*
X11876Y2169D01*
X11779Y2169D01*
X11731Y2120D01*
X11629Y2169D02*
X11436Y2169D01*
X11533Y2169D02*
X11533Y1878D01*
X1269Y5425D02*
X1172Y5328D01*
X1075Y5425D01*
X1075Y5619D01*
X974Y5570D02*
X974Y5377D01*
X926Y5328D01*
X829Y5328D01*
X781Y5377D01*
X679Y5377D02*
X631Y5328D01*
X534Y5328D01*
X486Y5377D01*
X486Y5570D02*
X534Y5619D01*
X631Y5619D01*
X679Y5570D01*
X679Y5377D01*
X781Y5570D02*
X829Y5619D01*
X926Y5619D01*
X974Y5570D01*
X1269Y5619D02*
X1269Y5425D01*
X974Y6328D02*
X829Y6328D01*
X781Y6377D01*
X781Y6570D01*
X829Y6619D01*
X974Y6619D01*
X974Y6328D01*
X679Y6377D02*
X679Y6570D01*
X631Y6619D01*
X534Y6619D01*
X486Y6570D01*
X486Y6377D01*
X534Y6328D01*
X631Y6328D01*
X679Y6377D01*
X583Y6425D02*
X486Y6328D01*
X534Y7278D02*
X486Y7327D01*
X486Y7520D01*
X534Y7569D01*
X679Y7569D01*
X679Y7278D01*
X534Y7278D01*
X781Y7278D02*
X781Y7569D01*
X974Y7569D02*
X781Y7278D01*
X974Y7278D02*
X974Y7569D01*
X1075Y7520D02*
X1124Y7569D01*
X1220Y7569D01*
X1269Y7520D01*
X1269Y7327D01*
X1220Y7278D01*
X1124Y7278D01*
X1075Y7327D01*
X1075Y7423D01*
X1172Y7423D01*
X2837Y9178D02*
X2789Y9227D01*
X2837Y9178D02*
X2934Y9178D01*
X2983Y9227D01*
X2983Y9420D01*
X2934Y9469D01*
X2837Y9469D01*
X2789Y9420D01*
X3084Y9420D02*
X3132Y9469D01*
X3229Y9469D01*
X3277Y9420D01*
X3277Y9227D01*
X3229Y9178D01*
X3132Y9178D01*
X3084Y9227D01*
X3378Y9275D02*
X3378Y9469D01*
X3572Y9469D02*
X3572Y9275D01*
X3475Y9178D01*
X3378Y9275D01*
X3789Y9265D02*
X3789Y9217D01*
X3837Y9168D01*
X3934Y9168D01*
X3983Y9217D01*
X4084Y9168D02*
X4277Y9168D01*
X4180Y9168D02*
X4180Y9459D01*
X4277Y9362D01*
X4378Y9410D02*
X4378Y9313D01*
X4427Y9265D01*
X4572Y9265D01*
X4572Y9168D02*
X4572Y9459D01*
X4427Y9459D01*
X4378Y9410D01*
X3983Y9410D02*
X3934Y9459D01*
X3837Y9459D01*
X3789Y9410D01*
X3789Y9362D01*
X3837Y9313D01*
X3789Y9265D01*
X3837Y9313D02*
X3886Y9313D01*
X4889Y9313D02*
X5083Y9313D01*
X4937Y9459D01*
X4937Y9168D01*
X5184Y9168D02*
X5377Y9168D01*
X5280Y9168D02*
X5280Y9459D01*
X5377Y9362D01*
X5478Y9410D02*
X5478Y9313D01*
X5527Y9265D01*
X5672Y9265D01*
X5672Y9168D02*
X5672Y9459D01*
X5527Y9459D01*
X5478Y9410D01*
X5889Y9420D02*
X5889Y9227D01*
X5937Y9178D01*
X6083Y9178D01*
X6083Y9469D01*
X5937Y9469D01*
X5889Y9420D01*
X6184Y9469D02*
X6184Y9178D01*
X6377Y9469D01*
X6377Y9178D01*
X6478Y9227D02*
X6527Y9178D01*
X6623Y9178D01*
X6672Y9227D01*
X6672Y9420D01*
X6623Y9469D01*
X6527Y9469D01*
X6478Y9420D01*
X6478Y9323D02*
X6575Y9323D01*
X6478Y9323D02*
X6478Y9227D01*
D13*
X1478Y1583D02*
X1475Y1583D01*
X1478Y1583D02*
X18407Y1583D01*
X18410Y1583D01*
X17760Y2958D02*
X17762Y3008D01*
X17768Y3058D01*
X17778Y3108D01*
X17791Y3156D01*
X17808Y3204D01*
X17829Y3250D01*
X17853Y3294D01*
X17881Y3336D01*
X17912Y3376D01*
X17946Y3413D01*
X17983Y3448D01*
X18022Y3479D01*
X18063Y3508D01*
X18107Y3533D01*
X18153Y3555D01*
X18200Y3573D01*
X18248Y3587D01*
X18297Y3598D01*
X18347Y3605D01*
X18397Y3608D01*
X18448Y3607D01*
X18498Y3602D01*
X18548Y3593D01*
X18596Y3581D01*
X18644Y3564D01*
X18690Y3544D01*
X18735Y3521D01*
X18778Y3494D01*
X18818Y3464D01*
X18856Y3431D01*
X18891Y3395D01*
X18924Y3356D01*
X18953Y3315D01*
X18979Y3272D01*
X19002Y3227D01*
X19021Y3180D01*
X19036Y3132D01*
X19048Y3083D01*
X19056Y3033D01*
X19060Y2983D01*
X19060Y2933D01*
X19056Y2883D01*
X19048Y2833D01*
X19036Y2784D01*
X19021Y2736D01*
X19002Y2689D01*
X18979Y2644D01*
X18953Y2601D01*
X18924Y2560D01*
X18891Y2521D01*
X18856Y2485D01*
X18818Y2452D01*
X18778Y2422D01*
X18735Y2395D01*
X18690Y2372D01*
X18644Y2352D01*
X18596Y2335D01*
X18548Y2323D01*
X18498Y2314D01*
X18448Y2309D01*
X18397Y2308D01*
X18347Y2311D01*
X18297Y2318D01*
X18248Y2329D01*
X18200Y2343D01*
X18153Y2361D01*
X18107Y2383D01*
X18063Y2408D01*
X18022Y2437D01*
X17983Y2468D01*
X17946Y2503D01*
X17912Y2540D01*
X17881Y2580D01*
X17853Y2622D01*
X17829Y2666D01*
X17808Y2712D01*
X17791Y2760D01*
X17778Y2808D01*
X17768Y2858D01*
X17762Y2908D01*
X17760Y2958D01*
X18407Y1583D02*
X18481Y1586D01*
X18555Y1593D01*
X18629Y1604D01*
X18701Y1619D01*
X18773Y1637D01*
X18844Y1660D01*
X18914Y1686D01*
X18982Y1716D01*
X19048Y1749D01*
X19113Y1786D01*
X19175Y1827D01*
X19236Y1870D01*
X19294Y1917D01*
X19349Y1967D01*
X19401Y2019D01*
X19451Y2074D01*
X19498Y2132D01*
X19541Y2193D01*
X19582Y2255D01*
X19619Y2320D01*
X19652Y2386D01*
X19682Y2454D01*
X19708Y2524D01*
X19731Y2595D01*
X19749Y2667D01*
X19764Y2739D01*
X19775Y2813D01*
X19782Y2887D01*
X19785Y2961D01*
X19785Y2958D01*
X19785Y2961D02*
X19785Y9812D01*
X19785Y9857D01*
X19785Y9812D02*
X19787Y9884D01*
X19785Y9955D01*
X19780Y10027D01*
X19771Y10098D01*
X19758Y10169D01*
X19741Y10238D01*
X19720Y10307D01*
X19696Y10375D01*
X19669Y10441D01*
X19637Y10505D01*
X19603Y10568D01*
X19565Y10629D01*
X19524Y10688D01*
X19480Y10744D01*
X19432Y10798D01*
X19382Y10849D01*
X19330Y10898D01*
X19275Y10944D01*
X19217Y10987D01*
X19157Y11026D01*
X19095Y11063D01*
X19032Y11096D01*
X18967Y11125D01*
X18900Y11151D01*
X18832Y11174D01*
X18762Y11192D01*
X18692Y11207D01*
X18621Y11219D01*
X18550Y11226D01*
X18479Y11230D01*
X18407Y11229D01*
X18410Y11229D01*
X18407Y11229D02*
X1478Y11229D01*
X825Y9854D02*
X827Y9904D01*
X833Y9954D01*
X843Y10004D01*
X856Y10052D01*
X873Y10100D01*
X894Y10146D01*
X918Y10190D01*
X946Y10232D01*
X977Y10272D01*
X1011Y10309D01*
X1048Y10344D01*
X1087Y10375D01*
X1128Y10404D01*
X1172Y10429D01*
X1218Y10451D01*
X1265Y10469D01*
X1313Y10483D01*
X1362Y10494D01*
X1412Y10501D01*
X1462Y10504D01*
X1513Y10503D01*
X1563Y10498D01*
X1613Y10489D01*
X1661Y10477D01*
X1709Y10460D01*
X1755Y10440D01*
X1800Y10417D01*
X1843Y10390D01*
X1883Y10360D01*
X1921Y10327D01*
X1956Y10291D01*
X1989Y10252D01*
X2018Y10211D01*
X2044Y10168D01*
X2067Y10123D01*
X2086Y10076D01*
X2101Y10028D01*
X2113Y9979D01*
X2121Y9929D01*
X2125Y9879D01*
X2125Y9829D01*
X2121Y9779D01*
X2113Y9729D01*
X2101Y9680D01*
X2086Y9632D01*
X2067Y9585D01*
X2044Y9540D01*
X2018Y9497D01*
X1989Y9456D01*
X1956Y9417D01*
X1921Y9381D01*
X1883Y9348D01*
X1843Y9318D01*
X1800Y9291D01*
X1755Y9268D01*
X1709Y9248D01*
X1661Y9231D01*
X1613Y9219D01*
X1563Y9210D01*
X1513Y9205D01*
X1462Y9204D01*
X1412Y9207D01*
X1362Y9214D01*
X1313Y9225D01*
X1265Y9239D01*
X1218Y9257D01*
X1172Y9279D01*
X1128Y9304D01*
X1087Y9333D01*
X1048Y9364D01*
X1011Y9399D01*
X977Y9436D01*
X946Y9476D01*
X918Y9518D01*
X894Y9562D01*
X873Y9608D01*
X856Y9656D01*
X843Y9704D01*
X833Y9754D01*
X827Y9804D01*
X825Y9854D01*
X100Y9851D02*
X102Y9923D01*
X108Y9995D01*
X117Y10067D01*
X130Y10138D01*
X147Y10208D01*
X167Y10277D01*
X192Y10345D01*
X219Y10411D01*
X250Y10477D01*
X285Y10540D01*
X322Y10602D01*
X363Y10661D01*
X407Y10718D01*
X454Y10773D01*
X504Y10825D01*
X556Y10875D01*
X611Y10922D01*
X668Y10966D01*
X727Y11007D01*
X789Y11044D01*
X852Y11079D01*
X918Y11110D01*
X984Y11137D01*
X1052Y11162D01*
X1121Y11182D01*
X1191Y11199D01*
X1262Y11212D01*
X1334Y11221D01*
X1406Y11227D01*
X1478Y11229D01*
X100Y9854D02*
X100Y9851D01*
X100Y3001D01*
X100Y2958D01*
X825Y2958D02*
X827Y3008D01*
X833Y3058D01*
X843Y3108D01*
X856Y3156D01*
X873Y3204D01*
X894Y3250D01*
X918Y3294D01*
X946Y3336D01*
X977Y3376D01*
X1011Y3413D01*
X1048Y3448D01*
X1087Y3479D01*
X1128Y3508D01*
X1172Y3533D01*
X1218Y3555D01*
X1265Y3573D01*
X1313Y3587D01*
X1362Y3598D01*
X1412Y3605D01*
X1462Y3608D01*
X1513Y3607D01*
X1563Y3602D01*
X1613Y3593D01*
X1661Y3581D01*
X1709Y3564D01*
X1755Y3544D01*
X1800Y3521D01*
X1843Y3494D01*
X1883Y3464D01*
X1921Y3431D01*
X1956Y3395D01*
X1989Y3356D01*
X2018Y3315D01*
X2044Y3272D01*
X2067Y3227D01*
X2086Y3180D01*
X2101Y3132D01*
X2113Y3083D01*
X2121Y3033D01*
X2125Y2983D01*
X2125Y2933D01*
X2121Y2883D01*
X2113Y2833D01*
X2101Y2784D01*
X2086Y2736D01*
X2067Y2689D01*
X2044Y2644D01*
X2018Y2601D01*
X1989Y2560D01*
X1956Y2521D01*
X1921Y2485D01*
X1883Y2452D01*
X1843Y2422D01*
X1800Y2395D01*
X1755Y2372D01*
X1709Y2352D01*
X1661Y2335D01*
X1613Y2323D01*
X1563Y2314D01*
X1513Y2309D01*
X1462Y2308D01*
X1412Y2311D01*
X1362Y2318D01*
X1313Y2329D01*
X1265Y2343D01*
X1218Y2361D01*
X1172Y2383D01*
X1128Y2408D01*
X1087Y2437D01*
X1048Y2468D01*
X1011Y2503D01*
X977Y2540D01*
X946Y2580D01*
X918Y2622D01*
X894Y2666D01*
X873Y2712D01*
X856Y2760D01*
X843Y2808D01*
X833Y2858D01*
X827Y2908D01*
X825Y2958D01*
X99Y3001D02*
X100Y2928D01*
X105Y2854D01*
X113Y2782D01*
X126Y2710D01*
X142Y2638D01*
X161Y2568D01*
X185Y2498D01*
X212Y2430D01*
X243Y2364D01*
X277Y2299D01*
X314Y2236D01*
X355Y2175D01*
X398Y2117D01*
X445Y2060D01*
X495Y2006D01*
X547Y1955D01*
X602Y1907D01*
X659Y1862D01*
X719Y1819D01*
X781Y1780D01*
X845Y1744D01*
X910Y1712D01*
X978Y1683D01*
X1046Y1658D01*
X1116Y1636D01*
X1187Y1618D01*
X1259Y1603D01*
X1331Y1593D01*
X1404Y1586D01*
X1477Y1583D01*
X1281Y4434D02*
X1283Y4464D01*
X1289Y4494D01*
X1298Y4523D01*
X1311Y4550D01*
X1328Y4575D01*
X1347Y4598D01*
X1370Y4619D01*
X1395Y4636D01*
X1421Y4650D01*
X1450Y4660D01*
X1479Y4667D01*
X1509Y4670D01*
X1540Y4669D01*
X1570Y4664D01*
X1599Y4655D01*
X1626Y4643D01*
X1652Y4628D01*
X1676Y4609D01*
X1697Y4587D01*
X1715Y4563D01*
X1730Y4536D01*
X1741Y4508D01*
X1749Y4479D01*
X1753Y4449D01*
X1753Y4419D01*
X1749Y4389D01*
X1741Y4360D01*
X1730Y4332D01*
X1715Y4305D01*
X1697Y4281D01*
X1676Y4259D01*
X1652Y4240D01*
X1626Y4225D01*
X1599Y4213D01*
X1570Y4204D01*
X1540Y4199D01*
X1509Y4198D01*
X1479Y4201D01*
X1450Y4208D01*
X1421Y4218D01*
X1395Y4232D01*
X1370Y4249D01*
X1347Y4270D01*
X1328Y4293D01*
X1311Y4318D01*
X1298Y4345D01*
X1289Y4374D01*
X1283Y4404D01*
X1281Y4434D01*
X297Y4434D02*
X299Y4464D01*
X305Y4494D01*
X314Y4523D01*
X327Y4550D01*
X344Y4575D01*
X363Y4598D01*
X386Y4619D01*
X411Y4636D01*
X437Y4650D01*
X466Y4660D01*
X495Y4667D01*
X525Y4670D01*
X556Y4669D01*
X586Y4664D01*
X615Y4655D01*
X642Y4643D01*
X668Y4628D01*
X692Y4609D01*
X713Y4587D01*
X731Y4563D01*
X746Y4536D01*
X757Y4508D01*
X765Y4479D01*
X769Y4449D01*
X769Y4419D01*
X765Y4389D01*
X757Y4360D01*
X746Y4332D01*
X731Y4305D01*
X713Y4281D01*
X692Y4259D01*
X668Y4240D01*
X642Y4225D01*
X615Y4213D01*
X586Y4204D01*
X556Y4199D01*
X525Y4198D01*
X495Y4201D01*
X466Y4208D01*
X437Y4218D01*
X411Y4232D01*
X386Y4249D01*
X363Y4270D01*
X344Y4293D01*
X327Y4318D01*
X314Y4345D01*
X305Y4374D01*
X299Y4404D01*
X297Y4434D01*
X3250Y6402D02*
X3252Y6432D01*
X3258Y6462D01*
X3267Y6491D01*
X3280Y6518D01*
X3297Y6543D01*
X3316Y6566D01*
X3339Y6587D01*
X3364Y6604D01*
X3390Y6618D01*
X3419Y6628D01*
X3448Y6635D01*
X3478Y6638D01*
X3509Y6637D01*
X3539Y6632D01*
X3568Y6623D01*
X3595Y6611D01*
X3621Y6596D01*
X3645Y6577D01*
X3666Y6555D01*
X3684Y6531D01*
X3699Y6504D01*
X3710Y6476D01*
X3718Y6447D01*
X3722Y6417D01*
X3722Y6387D01*
X3718Y6357D01*
X3710Y6328D01*
X3699Y6300D01*
X3684Y6273D01*
X3666Y6249D01*
X3645Y6227D01*
X3621Y6208D01*
X3595Y6193D01*
X3568Y6181D01*
X3539Y6172D01*
X3509Y6167D01*
X3478Y6166D01*
X3448Y6169D01*
X3419Y6176D01*
X3390Y6186D01*
X3364Y6200D01*
X3339Y6217D01*
X3316Y6238D01*
X3297Y6261D01*
X3280Y6286D01*
X3267Y6313D01*
X3258Y6342D01*
X3252Y6372D01*
X3250Y6402D01*
X1281Y8371D02*
X1283Y8401D01*
X1289Y8431D01*
X1298Y8460D01*
X1311Y8487D01*
X1328Y8512D01*
X1347Y8535D01*
X1370Y8556D01*
X1395Y8573D01*
X1421Y8587D01*
X1450Y8597D01*
X1479Y8604D01*
X1509Y8607D01*
X1540Y8606D01*
X1570Y8601D01*
X1599Y8592D01*
X1626Y8580D01*
X1652Y8565D01*
X1676Y8546D01*
X1697Y8524D01*
X1715Y8500D01*
X1730Y8473D01*
X1741Y8445D01*
X1749Y8416D01*
X1753Y8386D01*
X1753Y8356D01*
X1749Y8326D01*
X1741Y8297D01*
X1730Y8269D01*
X1715Y8242D01*
X1697Y8218D01*
X1676Y8196D01*
X1652Y8177D01*
X1626Y8162D01*
X1599Y8150D01*
X1570Y8141D01*
X1540Y8136D01*
X1509Y8135D01*
X1479Y8138D01*
X1450Y8145D01*
X1421Y8155D01*
X1395Y8169D01*
X1370Y8186D01*
X1347Y8207D01*
X1328Y8230D01*
X1311Y8255D01*
X1298Y8282D01*
X1289Y8311D01*
X1283Y8341D01*
X1281Y8371D01*
X297Y8371D02*
X299Y8401D01*
X305Y8431D01*
X314Y8460D01*
X327Y8487D01*
X344Y8512D01*
X363Y8535D01*
X386Y8556D01*
X411Y8573D01*
X437Y8587D01*
X466Y8597D01*
X495Y8604D01*
X525Y8607D01*
X556Y8606D01*
X586Y8601D01*
X615Y8592D01*
X642Y8580D01*
X668Y8565D01*
X692Y8546D01*
X713Y8524D01*
X731Y8500D01*
X746Y8473D01*
X757Y8445D01*
X765Y8416D01*
X769Y8386D01*
X769Y8356D01*
X765Y8326D01*
X757Y8297D01*
X746Y8269D01*
X731Y8242D01*
X713Y8218D01*
X692Y8196D01*
X668Y8177D01*
X642Y8162D01*
X615Y8150D01*
X586Y8141D01*
X556Y8136D01*
X525Y8135D01*
X495Y8138D01*
X466Y8145D01*
X437Y8155D01*
X411Y8169D01*
X386Y8186D01*
X363Y8207D01*
X344Y8230D01*
X327Y8255D01*
X314Y8282D01*
X305Y8311D01*
X299Y8341D01*
X297Y8371D01*
X17757Y9851D02*
X17759Y9901D01*
X17765Y9951D01*
X17775Y10001D01*
X17788Y10049D01*
X17805Y10097D01*
X17826Y10143D01*
X17850Y10187D01*
X17878Y10229D01*
X17909Y10269D01*
X17943Y10306D01*
X17980Y10341D01*
X18019Y10372D01*
X18060Y10401D01*
X18104Y10426D01*
X18150Y10448D01*
X18197Y10466D01*
X18245Y10480D01*
X18294Y10491D01*
X18344Y10498D01*
X18394Y10501D01*
X18445Y10500D01*
X18495Y10495D01*
X18545Y10486D01*
X18593Y10474D01*
X18641Y10457D01*
X18687Y10437D01*
X18732Y10414D01*
X18775Y10387D01*
X18815Y10357D01*
X18853Y10324D01*
X18888Y10288D01*
X18921Y10249D01*
X18950Y10208D01*
X18976Y10165D01*
X18999Y10120D01*
X19018Y10073D01*
X19033Y10025D01*
X19045Y9976D01*
X19053Y9926D01*
X19057Y9876D01*
X19057Y9826D01*
X19053Y9776D01*
X19045Y9726D01*
X19033Y9677D01*
X19018Y9629D01*
X18999Y9582D01*
X18976Y9537D01*
X18950Y9494D01*
X18921Y9453D01*
X18888Y9414D01*
X18853Y9378D01*
X18815Y9345D01*
X18775Y9315D01*
X18732Y9288D01*
X18687Y9265D01*
X18641Y9245D01*
X18593Y9228D01*
X18545Y9216D01*
X18495Y9207D01*
X18445Y9202D01*
X18394Y9201D01*
X18344Y9204D01*
X18294Y9211D01*
X18245Y9222D01*
X18197Y9236D01*
X18150Y9254D01*
X18104Y9276D01*
X18060Y9301D01*
X18019Y9330D01*
X17980Y9361D01*
X17943Y9396D01*
X17909Y9433D01*
X17878Y9473D01*
X17850Y9515D01*
X17826Y9559D01*
X17805Y9605D01*
X17788Y9653D01*
X17775Y9701D01*
X17765Y9751D01*
X17759Y9801D01*
X17757Y9851D01*
D14*
X15540Y8783D03*
X15030Y9063D03*
X15010Y9033D03*
X15100Y9163D03*
X15120Y9193D03*
X15210Y9323D03*
X15230Y9353D03*
X15300Y9453D03*
X14910Y9893D03*
X14920Y9903D03*
X14930Y9913D03*
X14940Y9923D03*
X14950Y9933D03*
X14960Y9943D03*
X14990Y9983D03*
X15000Y9993D03*
X15010Y10003D03*
X15020Y10013D03*
X15030Y10023D03*
X15060Y10063D03*
X15070Y10073D03*
X15080Y10083D03*
X15090Y10093D03*
X15100Y10103D03*
X15110Y10113D03*
X15130Y10143D03*
X15140Y10153D03*
X15150Y10163D03*
X15160Y10173D03*
X15170Y10183D03*
X15180Y10193D03*
X15210Y10233D03*
X15220Y10243D03*
X15230Y10253D03*
X15240Y10263D03*
X15250Y10273D03*
X15260Y10283D03*
X15280Y10313D03*
X15060Y8363D03*
D15*
X15055Y8373D03*
X14755Y8543D03*
X14985Y8893D03*
X14035Y8673D03*
X16075Y8773D03*
X13945Y10153D03*
X14405Y10703D03*
X15305Y10413D03*
X15315Y10423D03*
X15325Y10433D03*
X15335Y10443D03*
X15345Y10453D03*
X15465Y10913D03*
D16*
X15470Y10903D03*
X14480Y10733D03*
X14090Y10243D03*
X14000Y10173D03*
X15290Y8513D03*
X15060Y8383D03*
D17*
X15060Y8393D03*
X14680Y8673D03*
X16100Y10423D03*
X15730Y10713D03*
X15470Y10893D03*
X15040Y10713D03*
D18*
X15470Y10883D03*
X16140Y10383D03*
X16200Y10333D03*
X15060Y8403D03*
D19*
X15060Y8413D03*
X15160Y9513D03*
X15040Y9833D03*
D20*
X15470Y10863D03*
X15060Y8423D03*
D21*
X15060Y8433D03*
X15070Y9823D03*
X15470Y10853D03*
D22*
X15470Y10843D03*
X15060Y8443D03*
D23*
X15055Y8453D03*
X15695Y8643D03*
X15465Y10833D03*
D24*
X15470Y10823D03*
X15680Y9723D03*
X15740Y8673D03*
X15060Y8463D03*
D25*
X15060Y8473D03*
D26*
X15060Y8483D03*
X15810Y8743D03*
X15140Y9803D03*
X15470Y10803D03*
D27*
X15470Y10793D03*
X15210Y9793D03*
X15360Y9773D03*
X15650Y9733D03*
X15060Y8493D03*
D28*
X15060Y8503D03*
X15470Y10783D03*
D29*
X15480Y10583D03*
X15470Y10573D03*
X15460Y10563D03*
X15840Y10693D03*
X15850Y10683D03*
X16400Y10253D03*
X16410Y10243D03*
X16420Y10233D03*
X15060Y10663D03*
X14340Y10653D03*
X14330Y10643D03*
X14320Y10633D03*
X16290Y9413D03*
X14330Y8503D03*
X13960Y8723D03*
X13950Y8733D03*
X13940Y8743D03*
D30*
X14825Y8513D03*
X15815Y9683D03*
X14975Y9853D03*
X16285Y10323D03*
X15735Y10743D03*
X15705Y10773D03*
X15225Y10773D03*
X14705Y10863D03*
D31*
X15230Y10343D03*
X15220Y10333D03*
X15210Y10323D03*
X15240Y10353D03*
X15250Y10363D03*
X16040Y10463D03*
X16310Y10313D03*
X15730Y10763D03*
X14110Y10263D03*
X14380Y9653D03*
X14330Y8513D03*
X14800Y8523D03*
X15320Y8523D03*
D32*
X14700Y8683D03*
X14320Y8523D03*
X14030Y10183D03*
X14040Y10193D03*
X14050Y10203D03*
X16090Y10433D03*
D33*
X16330Y10303D03*
X15290Y10403D03*
X15280Y10393D03*
X14120Y10273D03*
X15010Y8923D03*
X15000Y8913D03*
X14990Y8903D03*
X14770Y8533D03*
X15340Y8533D03*
D34*
X15785Y8633D03*
X14635Y8653D03*
X14325Y8533D03*
X16115Y10403D03*
D35*
X16350Y10293D03*
X15370Y10473D03*
X15360Y10463D03*
X14390Y10693D03*
X14130Y10283D03*
X13930Y10143D03*
X14940Y9863D03*
X16330Y9463D03*
X16340Y9473D03*
X16090Y8783D03*
X15360Y8543D03*
X14970Y8883D03*
X14960Y8873D03*
X14740Y8553D03*
D36*
X14325Y8543D03*
D37*
X14015Y8683D03*
X14935Y8843D03*
X14945Y8853D03*
X14955Y8863D03*
X15375Y8553D03*
X15575Y8753D03*
X16305Y9433D03*
X16315Y9443D03*
X16325Y9453D03*
X16355Y9483D03*
X15845Y9673D03*
X16365Y10283D03*
X15385Y10493D03*
X15375Y10483D03*
X15055Y10673D03*
X13915Y10133D03*
D38*
X14705Y10823D03*
X14325Y8553D03*
D39*
X14730Y8563D03*
X14900Y8803D03*
X14910Y8813D03*
X14920Y8823D03*
X14930Y8833D03*
X15390Y8563D03*
X16110Y8793D03*
X16120Y8803D03*
X16300Y9423D03*
X16370Y9493D03*
X16380Y9503D03*
X16370Y10273D03*
X16010Y10473D03*
X15430Y10533D03*
X15420Y10523D03*
X15410Y10513D03*
X15400Y10503D03*
X14710Y10873D03*
X14380Y10683D03*
X13900Y10123D03*
X14000Y8693D03*
D40*
X14320Y8563D03*
D41*
X13985Y8703D03*
X13975Y8713D03*
X14875Y8773D03*
X14885Y8783D03*
X14895Y8793D03*
X15405Y8573D03*
X15415Y8583D03*
X16135Y8813D03*
X16145Y8823D03*
X16395Y9513D03*
X16385Y10263D03*
X15825Y10703D03*
X15455Y10553D03*
X15445Y10543D03*
X14365Y10673D03*
X14355Y10663D03*
X14145Y10293D03*
X13885Y10113D03*
X13875Y10103D03*
D42*
X15025Y9543D03*
X14395Y8593D03*
X14415Y8583D03*
X14425Y8573D03*
D43*
X14845Y8743D03*
X14855Y8753D03*
X14865Y8763D03*
X15425Y8593D03*
X15435Y8603D03*
X15445Y8613D03*
X16155Y8833D03*
X16165Y8843D03*
X16175Y8853D03*
X16285Y9403D03*
X16405Y9523D03*
X16415Y9533D03*
X16425Y9543D03*
X16435Y9553D03*
X15495Y10593D03*
X15505Y10603D03*
X15515Y10613D03*
X15525Y10623D03*
X15855Y10673D03*
X15865Y10663D03*
X15875Y10653D03*
X13865Y10093D03*
X13855Y10083D03*
X13845Y10073D03*
X13835Y10063D03*
D44*
X13830Y10053D03*
X13820Y10043D03*
X13810Y10033D03*
X14160Y10303D03*
X14300Y10613D03*
X14310Y10623D03*
X15060Y10653D03*
X15540Y10633D03*
X15550Y10643D03*
X15880Y10643D03*
X15890Y10633D03*
X16430Y10223D03*
X16440Y10213D03*
X16450Y10203D03*
X16450Y9573D03*
X16440Y9563D03*
X16280Y9393D03*
X16200Y8883D03*
X16190Y8873D03*
X16180Y8863D03*
X15790Y8603D03*
X15560Y8763D03*
X15460Y8633D03*
X15450Y8623D03*
X14840Y8733D03*
X14830Y8723D03*
X14820Y8713D03*
X13930Y8753D03*
X13920Y8763D03*
X13910Y8773D03*
X13900Y8793D03*
X13850Y9373D03*
X13840Y9393D03*
X13830Y9403D03*
X13820Y9413D03*
X14340Y9663D03*
D45*
X14390Y8603D03*
D46*
X14045Y8663D03*
X15015Y8933D03*
X15785Y8613D03*
X16055Y8763D03*
X15245Y9493D03*
X13965Y10163D03*
X14425Y10713D03*
X15055Y10683D03*
X15275Y10383D03*
X15265Y10373D03*
D47*
X14595Y9603D03*
X14385Y8613D03*
D48*
X15785Y8623D03*
X14075Y10223D03*
X14065Y10213D03*
X15735Y10723D03*
D49*
X14385Y8623D03*
D50*
X14385Y8633D03*
D51*
X14600Y8643D03*
X16180Y10343D03*
X16170Y10353D03*
X16160Y10363D03*
X16150Y10373D03*
D52*
X14080Y10233D03*
X14100Y8643D03*
D53*
X15710Y8653D03*
D54*
X16030Y8753D03*
X14070Y8653D03*
X14100Y10253D03*
X15050Y10693D03*
X16060Y10453D03*
D55*
X15105Y9813D03*
X14705Y10783D03*
X15725Y8663D03*
D56*
X14660Y8663D03*
X15780Y9693D03*
X15010Y9843D03*
X16110Y10413D03*
D57*
X15755Y8683D03*
D58*
X15765Y8693D03*
X15775Y8703D03*
X15785Y8713D03*
X15065Y9533D03*
X14705Y10773D03*
X15465Y10813D03*
D59*
X15565Y10663D03*
X15555Y10653D03*
X15895Y10623D03*
X15905Y10613D03*
X16455Y10193D03*
X16465Y10183D03*
X16475Y10163D03*
X16485Y10153D03*
X16475Y9603D03*
X16465Y9593D03*
X16455Y9583D03*
X15295Y9483D03*
X16205Y8893D03*
X16215Y8903D03*
X14815Y8703D03*
X14805Y8693D03*
X13905Y8783D03*
X13895Y8803D03*
X13885Y8813D03*
X13855Y9363D03*
X13845Y9383D03*
X13815Y9423D03*
X13805Y9433D03*
X13805Y9443D03*
X13795Y9453D03*
X13785Y9993D03*
X13795Y10013D03*
X13805Y10023D03*
X14265Y10563D03*
X14275Y10573D03*
X14285Y10593D03*
X14295Y10603D03*
D60*
X14280Y10583D03*
X14260Y10553D03*
X14250Y10543D03*
X14250Y10533D03*
X14240Y10523D03*
X15060Y10643D03*
X15580Y10673D03*
X15590Y10683D03*
X15600Y10693D03*
X15610Y10703D03*
X15910Y10603D03*
X15920Y10593D03*
X15920Y10583D03*
X15930Y10573D03*
X15940Y10553D03*
X15950Y10533D03*
X16470Y10173D03*
X16490Y10143D03*
X16500Y10133D03*
X16500Y10123D03*
X16510Y10103D03*
X16500Y9653D03*
X16500Y9643D03*
X16490Y9633D03*
X16490Y9623D03*
X16480Y9613D03*
X16270Y9383D03*
X16260Y8983D03*
X16250Y8963D03*
X16240Y8943D03*
X16230Y8933D03*
X16230Y8923D03*
X16220Y8913D03*
X14610Y8693D03*
X13880Y8823D03*
X13870Y8833D03*
X13860Y8853D03*
X13850Y8873D03*
X13840Y9283D03*
X13860Y9353D03*
X13790Y9463D03*
X13780Y9473D03*
X13770Y9493D03*
X13760Y9513D03*
X13760Y9953D03*
X13770Y9973D03*
X13780Y9983D03*
X13790Y10003D03*
D61*
X13715Y9653D03*
X13805Y9153D03*
X13805Y9033D03*
X13805Y9023D03*
X14615Y8703D03*
X15135Y8983D03*
X15145Y8993D03*
X15255Y9093D03*
X15265Y9103D03*
X15375Y9203D03*
X15385Y9213D03*
X15495Y9313D03*
X15505Y9323D03*
X15615Y9423D03*
X15625Y9433D03*
X15725Y9523D03*
X15735Y9533D03*
X15745Y9543D03*
X15855Y9643D03*
X15865Y9653D03*
X16305Y9233D03*
X16305Y9223D03*
X16305Y9213D03*
X16305Y9203D03*
X16305Y9163D03*
X16305Y9153D03*
X16555Y9953D03*
X15275Y10303D03*
X15265Y10293D03*
X15205Y10223D03*
X15195Y10213D03*
X15185Y10203D03*
X15125Y10133D03*
X15115Y10123D03*
X15055Y10053D03*
X15045Y10043D03*
X15035Y10033D03*
X14985Y9973D03*
X14975Y9963D03*
X14965Y9953D03*
X14905Y9883D03*
X15065Y10633D03*
D62*
X14620Y8713D03*
D63*
X15795Y8723D03*
X15805Y8733D03*
D64*
X14620Y8723D03*
D65*
X14625Y8733D03*
D66*
X13865Y8843D03*
X13855Y8863D03*
X13845Y8883D03*
X13845Y8893D03*
X13835Y8903D03*
X13835Y8913D03*
X13825Y8933D03*
X13825Y8943D03*
X13815Y8973D03*
X13815Y9203D03*
X13825Y9243D03*
X13835Y9263D03*
X13835Y9273D03*
X13845Y9293D03*
X13845Y9303D03*
X13855Y9313D03*
X13855Y9323D03*
X13865Y9333D03*
X13865Y9343D03*
X13775Y9483D03*
X13765Y9503D03*
X13755Y9523D03*
X13755Y9533D03*
X13745Y9543D03*
X13745Y9553D03*
X13735Y9563D03*
X13735Y9573D03*
X13725Y9603D03*
X13735Y9883D03*
X13735Y9893D03*
X13745Y9913D03*
X13745Y9923D03*
X13755Y9933D03*
X13755Y9943D03*
X13765Y9963D03*
X14355Y9683D03*
X14365Y9693D03*
X14375Y9703D03*
X14385Y9713D03*
X14405Y9723D03*
X14415Y9733D03*
X14425Y9743D03*
X14435Y9753D03*
X14465Y9773D03*
X14475Y9783D03*
X14485Y9793D03*
X14515Y9813D03*
X14525Y9823D03*
X14535Y9833D03*
X14545Y9843D03*
X14565Y9853D03*
X14575Y9863D03*
X14585Y9873D03*
X14595Y9883D03*
X14625Y9903D03*
X14635Y9913D03*
X14645Y9923D03*
X14655Y9933D03*
X14675Y9943D03*
X14685Y9953D03*
X14695Y9963D03*
X14705Y9973D03*
X14725Y9983D03*
X14735Y9993D03*
X14745Y10003D03*
X14755Y10013D03*
X14785Y10033D03*
X14795Y10043D03*
X14805Y10053D03*
X14815Y10063D03*
X14835Y10073D03*
X14845Y10083D03*
X14855Y10093D03*
X14865Y10103D03*
X14885Y10113D03*
X14895Y10123D03*
X14905Y10133D03*
X14915Y10143D03*
X14945Y10163D03*
X14955Y10173D03*
X14965Y10183D03*
X14975Y10193D03*
X14995Y10203D03*
X15005Y10213D03*
X15015Y10223D03*
X15025Y10233D03*
X15045Y10243D03*
X15055Y10253D03*
X15065Y10263D03*
X15075Y10273D03*
X15095Y10283D03*
X15105Y10293D03*
X15115Y10303D03*
X15125Y10313D03*
X14905Y9873D03*
X14205Y10433D03*
X14215Y10453D03*
X14215Y10463D03*
X14225Y10483D03*
X14225Y10493D03*
X14235Y10503D03*
X14235Y10513D03*
X15935Y10563D03*
X15945Y10543D03*
X15955Y10523D03*
X15955Y10513D03*
X15965Y10493D03*
X16505Y10113D03*
X16515Y10093D03*
X16525Y10073D03*
X16525Y10063D03*
X16535Y10053D03*
X16535Y10043D03*
X16545Y9763D03*
X16535Y9733D03*
X16535Y9723D03*
X16525Y9703D03*
X16525Y9693D03*
X16515Y9683D03*
X16515Y9673D03*
X16505Y9663D03*
X16275Y9373D03*
X16275Y9363D03*
X16285Y9343D03*
X16285Y9333D03*
X16295Y9093D03*
X16285Y9053D03*
X16275Y9023D03*
X16275Y9013D03*
X16265Y9003D03*
X16265Y8993D03*
X16255Y8973D03*
X16245Y8953D03*
X15545Y8773D03*
X15875Y9663D03*
D67*
X15535Y8793D03*
X15065Y10613D03*
D68*
X15530Y8803D03*
D69*
X15220Y9063D03*
X15210Y9053D03*
X15200Y9043D03*
X15190Y9033D03*
X15180Y9023D03*
X15170Y9013D03*
X15160Y9003D03*
X15120Y8973D03*
X15110Y8963D03*
X15100Y8953D03*
X15090Y8943D03*
X15230Y9073D03*
X15240Y9083D03*
X15280Y9113D03*
X15290Y9123D03*
X15300Y9133D03*
X15310Y9143D03*
X15320Y9153D03*
X15330Y9163D03*
X15340Y9173D03*
X15350Y9183D03*
X15360Y9193D03*
X15400Y9223D03*
X15410Y9233D03*
X15420Y9243D03*
X15430Y9253D03*
X15440Y9263D03*
X15450Y9273D03*
X15460Y9283D03*
X15470Y9293D03*
X15480Y9303D03*
X15520Y9333D03*
X15530Y9343D03*
X15540Y9353D03*
X15550Y9363D03*
X15560Y9373D03*
X15570Y9383D03*
X15580Y9393D03*
X15590Y9403D03*
X15600Y9413D03*
X15640Y9443D03*
X15650Y9453D03*
X15660Y9463D03*
X15670Y9473D03*
X15680Y9483D03*
X15690Y9493D03*
X15700Y9503D03*
X15710Y9513D03*
X15760Y9553D03*
X15770Y9563D03*
X15780Y9573D03*
X15790Y9583D03*
X15800Y9593D03*
X15810Y9603D03*
X15820Y9613D03*
X15830Y9623D03*
X15840Y9633D03*
X16280Y9353D03*
X16290Y9323D03*
X16290Y9313D03*
X16290Y9303D03*
X16300Y9293D03*
X16300Y9283D03*
X16300Y9273D03*
X16300Y9263D03*
X16300Y9253D03*
X16300Y9243D03*
X16310Y9193D03*
X16310Y9183D03*
X16310Y9173D03*
X16300Y9143D03*
X16300Y9133D03*
X16300Y9123D03*
X16300Y9113D03*
X16300Y9103D03*
X16290Y9083D03*
X16290Y9073D03*
X16290Y9063D03*
X16280Y9043D03*
X16280Y9033D03*
X16530Y9713D03*
X16540Y9743D03*
X16540Y9753D03*
X16550Y9773D03*
X16550Y9783D03*
X16550Y9793D03*
X16550Y9803D03*
X16550Y9813D03*
X16560Y9823D03*
X16560Y9833D03*
X16560Y9843D03*
X16560Y9853D03*
X16560Y9863D03*
X16560Y9873D03*
X16560Y9883D03*
X16560Y9893D03*
X16560Y9903D03*
X16560Y9913D03*
X16560Y9923D03*
X16560Y9933D03*
X16560Y9943D03*
X16550Y9963D03*
X16550Y9973D03*
X16550Y9983D03*
X16550Y9993D03*
X16550Y10003D03*
X16540Y10013D03*
X16540Y10023D03*
X16540Y10033D03*
X16520Y10083D03*
X15970Y10483D03*
X15960Y10503D03*
X15470Y10923D03*
X14930Y10153D03*
X14770Y10023D03*
X14610Y9893D03*
X14500Y9803D03*
X14450Y9763D03*
X14340Y9673D03*
X13730Y9593D03*
X13730Y9583D03*
X13720Y9613D03*
X13720Y9623D03*
X13720Y9633D03*
X13720Y9643D03*
X13710Y9663D03*
X13710Y9673D03*
X13710Y9683D03*
X13710Y9693D03*
X13710Y9703D03*
X13710Y9713D03*
X13710Y9723D03*
X13710Y9733D03*
X13710Y9743D03*
X13710Y9753D03*
X13710Y9763D03*
X13710Y9773D03*
X13710Y9783D03*
X13710Y9793D03*
X13710Y9803D03*
X13720Y9813D03*
X13720Y9823D03*
X13720Y9833D03*
X13720Y9843D03*
X13730Y9853D03*
X13730Y9863D03*
X13730Y9873D03*
X13740Y9903D03*
X14180Y10313D03*
X14190Y10323D03*
X14190Y10333D03*
X14190Y10343D03*
X14190Y10353D03*
X14190Y10363D03*
X14190Y10373D03*
X14190Y10383D03*
X14200Y10393D03*
X14200Y10403D03*
X14200Y10413D03*
X14200Y10423D03*
X14210Y10443D03*
X14220Y10473D03*
X13830Y9253D03*
X13820Y9233D03*
X13820Y9223D03*
X13820Y9213D03*
X13810Y9193D03*
X13810Y9183D03*
X13810Y9173D03*
X13810Y9163D03*
X13800Y9143D03*
X13800Y9133D03*
X13800Y9123D03*
X13800Y9113D03*
X13800Y9103D03*
X13800Y9093D03*
X13800Y9083D03*
X13800Y9073D03*
X13800Y9063D03*
X13800Y9053D03*
X13800Y9043D03*
X13810Y9013D03*
X13810Y9003D03*
X13810Y8993D03*
X13810Y8983D03*
X13820Y8963D03*
X13820Y8953D03*
X13830Y8923D03*
D70*
X14945Y8943D03*
X14955Y8953D03*
X14965Y8963D03*
X14965Y8973D03*
X14975Y8983D03*
X14985Y8993D03*
X14985Y9003D03*
X14995Y9013D03*
X15005Y9023D03*
X15015Y9043D03*
X15025Y9053D03*
X15035Y9073D03*
X15045Y9083D03*
X15055Y9093D03*
X15055Y9103D03*
X15065Y9113D03*
X15075Y9123D03*
X15075Y9133D03*
X15085Y9143D03*
X15095Y9153D03*
X15105Y9173D03*
X15115Y9183D03*
X15125Y9203D03*
X15135Y9213D03*
X15145Y9223D03*
X15145Y9233D03*
X15155Y9243D03*
X15165Y9253D03*
X15165Y9263D03*
X15175Y9273D03*
X15185Y9283D03*
X15185Y9293D03*
X15195Y9303D03*
X15205Y9313D03*
X15215Y9333D03*
X15225Y9343D03*
X15235Y9363D03*
X15245Y9373D03*
X15255Y9383D03*
X15255Y9393D03*
X15265Y9403D03*
X15275Y9413D03*
X15275Y9423D03*
X15285Y9433D03*
X15295Y9443D03*
X15305Y9463D03*
X15315Y9473D03*
X15065Y10623D03*
D71*
X14705Y10853D03*
X15205Y9503D03*
D72*
X15110Y9523D03*
D73*
X14980Y9553D03*
D74*
X14910Y9563D03*
X14820Y9573D03*
X14730Y9583D03*
X14810Y10743D03*
D75*
X14635Y9593D03*
D76*
X14555Y9613D03*
D77*
X14505Y9623D03*
D78*
X14470Y9633D03*
X15020Y10733D03*
D79*
X14425Y9643D03*
D80*
X15745Y9703D03*
X15465Y10873D03*
D81*
X15715Y9713D03*
D82*
X15585Y9743D03*
X15505Y9753D03*
X15435Y9763D03*
X15285Y9783D03*
D83*
X16130Y10393D03*
X14710Y10843D03*
D84*
X15045Y10703D03*
X15735Y10733D03*
X16075Y10443D03*
D85*
X15065Y10603D03*
X14705Y10883D03*
D86*
X15035Y10723D03*
D87*
X14445Y10723D03*
X15735Y10753D03*
D88*
X14825Y10753D03*
D89*
X14845Y10763D03*
D90*
X14710Y10793D03*
D91*
X14705Y10803D03*
D92*
X14705Y10813D03*
D93*
X14705Y10833D03*
D94*
X16287Y8237D02*
X16287Y7930D01*
X16440Y8084D02*
X16133Y8084D01*
X16133Y4484D02*
X16440Y4484D01*
D95*
X11820Y5990D02*
X11503Y5958D01*
X11469Y5851D01*
X11417Y5751D01*
X11619Y5504D01*
X11449Y5334D01*
X11202Y5536D01*
X11102Y5485D01*
X10961Y5826D01*
X11014Y5854D01*
X11061Y5893D01*
X11099Y5939D01*
X11128Y5992D01*
X11145Y6050D01*
X11151Y6110D01*
X11145Y6173D01*
X11125Y6233D01*
X11094Y6288D01*
X11053Y6336D01*
X11002Y6373D01*
X10945Y6400D01*
X10884Y6415D01*
X10820Y6417D01*
X10758Y6406D01*
X10700Y6382D01*
X10647Y6347D01*
X10603Y6302D01*
X10569Y6249D01*
X10546Y6190D01*
X10536Y6127D01*
X10539Y6064D01*
X10555Y6003D01*
X10583Y5946D01*
X10622Y5897D01*
X10670Y5856D01*
X10726Y5826D01*
X10584Y5485D01*
X10485Y5536D01*
X10237Y5334D01*
X10068Y5504D01*
X10270Y5751D01*
X10218Y5851D01*
X10184Y5958D01*
X9867Y5990D01*
X9867Y6230D01*
X10184Y6262D01*
X10218Y6369D01*
X10270Y6469D01*
X10068Y6716D01*
X10237Y6886D01*
X10485Y6684D01*
X10584Y6735D01*
X10691Y6769D01*
X10723Y7087D01*
X10963Y7087D01*
X10996Y6769D01*
X11102Y6735D01*
X11202Y6684D01*
X11449Y6886D01*
X11619Y6716D01*
X11417Y6469D01*
X11469Y6369D01*
X11503Y6262D01*
X11820Y6230D01*
X11820Y5990D01*
X11820Y6015D02*
X11135Y6015D01*
X11147Y6073D02*
X11820Y6073D01*
X11820Y6130D02*
X11149Y6130D01*
X11140Y6188D02*
X11820Y6188D01*
X11669Y6245D02*
X11118Y6245D01*
X11081Y6303D02*
X11490Y6303D01*
X11471Y6360D02*
X11020Y6360D01*
X10667Y6360D02*
X10216Y6360D01*
X10197Y6303D02*
X10604Y6303D01*
X10568Y6245D02*
X10018Y6245D01*
X9867Y6188D02*
X10546Y6188D01*
X10537Y6130D02*
X9867Y6130D01*
X9867Y6073D02*
X10539Y6073D01*
X10552Y6015D02*
X9867Y6015D01*
X10184Y5958D02*
X10577Y5958D01*
X10619Y5900D02*
X10203Y5900D01*
X10223Y5842D02*
X10695Y5842D01*
X10709Y5785D02*
X10252Y5785D01*
X10250Y5727D02*
X10685Y5727D01*
X10661Y5670D02*
X10203Y5670D01*
X10156Y5612D02*
X10637Y5612D01*
X10613Y5555D02*
X10109Y5555D01*
X10075Y5497D02*
X10437Y5497D01*
X10366Y5440D02*
X10132Y5440D01*
X10190Y5382D02*
X10296Y5382D01*
X10561Y5497D02*
X10590Y5497D01*
X11026Y5670D02*
X11484Y5670D01*
X11437Y5727D02*
X11002Y5727D01*
X10978Y5785D02*
X11435Y5785D01*
X11464Y5842D02*
X10992Y5842D01*
X11067Y5900D02*
X11484Y5900D01*
X11503Y5958D02*
X11109Y5958D01*
X11050Y5612D02*
X11531Y5612D01*
X11578Y5555D02*
X11073Y5555D01*
X11097Y5497D02*
X11126Y5497D01*
X11250Y5497D02*
X11612Y5497D01*
X11555Y5440D02*
X11321Y5440D01*
X11391Y5382D02*
X11497Y5382D01*
X11443Y6418D02*
X10244Y6418D01*
X10264Y6476D02*
X11423Y6476D01*
X11470Y6533D02*
X10217Y6533D01*
X10170Y6591D02*
X11517Y6591D01*
X11564Y6648D02*
X10123Y6648D01*
X10076Y6706D02*
X10458Y6706D01*
X10527Y6706D02*
X11160Y6706D01*
X11229Y6706D02*
X11611Y6706D01*
X11572Y6763D02*
X11299Y6763D01*
X11370Y6821D02*
X11514Y6821D01*
X11457Y6878D02*
X11441Y6878D01*
X11015Y6763D02*
X10672Y6763D01*
X10696Y6821D02*
X10990Y6821D01*
X10985Y6878D02*
X10702Y6878D01*
X10708Y6936D02*
X10979Y6936D01*
X10973Y6994D02*
X10714Y6994D01*
X10720Y7051D02*
X10967Y7051D01*
X10387Y6763D02*
X10115Y6763D01*
X10173Y6821D02*
X10317Y6821D01*
X10246Y6878D02*
X10230Y6878D01*
D96*
X5329Y8055D02*
X5411Y8245D01*
X5502Y8431D01*
X5602Y8613D01*
X5710Y8789D01*
X5827Y8960D01*
X5952Y9125D01*
X6086Y9284D01*
X6226Y9436D01*
X6374Y9581D01*
X6529Y9719D01*
X6691Y9848D01*
X6858Y9970D01*
X7032Y10084D01*
X7210Y10188D01*
X7394Y10284D01*
X7582Y10371D01*
X7774Y10449D01*
X7970Y10517D01*
X8169Y10576D01*
X8370Y10624D01*
X8574Y10663D01*
X8779Y10692D01*
X8985Y10711D01*
X9192Y10719D01*
X9399Y10718D01*
X9606Y10706D01*
X9812Y10685D01*
X10017Y10653D01*
X10220Y10611D01*
X10421Y10560D01*
X10618Y10499D01*
X10813Y10428D01*
X11004Y10347D01*
X11191Y10258D01*
X11373Y10159D01*
X11550Y10052D01*
X11722Y9936D01*
X11888Y9812D01*
X12048Y9680D01*
X12201Y9540D01*
X12347Y9393D01*
X12485Y9239D01*
X12616Y9079D01*
X12739Y8912D01*
X12854Y8739D01*
X12960Y8561D01*
X13057Y8378D01*
X13145Y8191D01*
X13224Y7999D01*
X13294Y7804D01*
X13354Y7606D01*
X13404Y7405D01*
X13444Y7202D01*
X13474Y6997D01*
X13495Y6791D01*
X13505Y6584D01*
X13505Y6376D01*
X13495Y6169D01*
X13474Y5963D01*
X13444Y5758D01*
X13404Y5555D01*
X13354Y5354D01*
X13294Y5156D01*
X13224Y4961D01*
X13145Y4769D01*
X13057Y4582D01*
X12960Y4399D01*
X12854Y4221D01*
X12739Y4048D01*
X12616Y3881D01*
X12485Y3721D01*
X12347Y3567D01*
X12201Y3420D01*
X12048Y3280D01*
X11888Y3148D01*
X11722Y3024D01*
X11550Y2908D01*
X11373Y2801D01*
X11191Y2702D01*
X11004Y2613D01*
X10813Y2532D01*
X10618Y2461D01*
X10421Y2400D01*
X10220Y2349D01*
X10017Y2307D01*
X9812Y2275D01*
X9606Y2254D01*
X9399Y2242D01*
X9192Y2241D01*
X8985Y2249D01*
X8779Y2268D01*
X8574Y2297D01*
X8370Y2336D01*
X8169Y2384D01*
X7970Y2443D01*
X7774Y2511D01*
X7582Y2589D01*
X7394Y2676D01*
X7210Y2772D01*
X7032Y2876D01*
X6858Y2990D01*
X6691Y3112D01*
X6529Y3241D01*
X6374Y3379D01*
X6226Y3524D01*
X6086Y3676D01*
X5952Y3835D01*
X5827Y4000D01*
X5710Y4171D01*
X5602Y4347D01*
X5502Y4529D01*
X5411Y4715D01*
X5329Y4905D01*
X4148Y4905D01*
X4148Y8055D01*
X5329Y8055D01*
D97*
X3806Y10473D02*
X4053Y10473D01*
X3930Y10350D02*
X3930Y10597D01*
X9247Y14543D02*
X9296Y14495D01*
X9393Y14495D01*
X9441Y14543D01*
X9247Y14737D01*
X9247Y14543D01*
X9441Y14543D02*
X9441Y14737D01*
X9393Y14785D01*
X9296Y14785D01*
X9247Y14737D01*
X9540Y14543D02*
X9540Y14495D01*
X9588Y14495D01*
X9588Y14543D01*
X9540Y14543D01*
X9689Y14543D02*
X9689Y14592D01*
X9738Y14640D01*
X9786Y14640D01*
X9738Y14640D02*
X9689Y14689D01*
X9689Y14737D01*
X9738Y14785D01*
X9834Y14785D01*
X9883Y14737D01*
X9883Y14543D02*
X9834Y14495D01*
X9738Y14495D01*
X9689Y14543D01*
X10279Y14495D02*
X10279Y14689D01*
X10375Y14785D01*
X10472Y14689D01*
X10472Y14495D01*
X10573Y14543D02*
X10622Y14495D01*
X10718Y14495D01*
X10767Y14543D01*
X10718Y14640D02*
X10622Y14640D01*
X10573Y14592D01*
X10573Y14543D01*
X10472Y14640D02*
X10279Y14640D01*
X10573Y14737D02*
X10622Y14785D01*
X10718Y14785D01*
X10767Y14737D01*
X10767Y14689D01*
X10718Y14640D01*
X10868Y14640D02*
X11061Y14640D01*
X11163Y14737D02*
X11163Y14785D01*
X11163Y14737D02*
X11259Y14640D01*
X11259Y14495D01*
X11259Y14640D02*
X11356Y14737D01*
X11356Y14785D01*
X11457Y14737D02*
X11457Y14689D01*
X11506Y14640D01*
X11651Y14640D01*
X11651Y14495D02*
X11506Y14495D01*
X11457Y14543D01*
X11457Y14592D01*
X11506Y14640D01*
X11457Y14737D02*
X11506Y14785D01*
X11651Y14785D01*
X11651Y14495D01*
X12047Y14543D02*
X12095Y14495D01*
X12192Y14495D01*
X12240Y14543D01*
X12240Y14737D01*
X12192Y14785D01*
X12095Y14785D01*
X12047Y14737D01*
X12341Y14737D02*
X12390Y14785D01*
X12486Y14785D01*
X12535Y14737D01*
X12535Y14543D01*
X12486Y14495D01*
X12390Y14495D01*
X12341Y14543D01*
X14568Y15788D02*
X14691Y15788D01*
X14753Y15850D01*
X14753Y15973D01*
X14691Y16035D01*
X14568Y16035D01*
X14506Y15973D01*
X14506Y15912D01*
X14753Y15912D01*
X14875Y16035D02*
X15060Y15912D01*
X14875Y15788D01*
X15060Y15788D02*
X15060Y16159D01*
X15181Y16327D02*
X15181Y16635D01*
X15367Y16635D01*
X15428Y16573D01*
X15428Y16450D01*
X15367Y16388D01*
X15181Y16388D01*
X15181Y16327D02*
X15243Y16265D01*
X15305Y16265D01*
X15550Y16388D02*
X15735Y16388D01*
X15797Y16450D01*
X15735Y16512D01*
X15550Y16512D01*
X15550Y16573D02*
X15550Y16388D01*
X15550Y16573D02*
X15611Y16635D01*
X15735Y16635D01*
X15918Y16759D02*
X15918Y16388D01*
X16165Y16388D02*
X16165Y16759D01*
X16041Y16635D01*
X15918Y16759D01*
X16675Y16822D02*
X16675Y16575D01*
X17045Y16575D01*
X17045Y16392D02*
X16860Y16207D01*
X16860Y16454D01*
X16675Y16392D02*
X17045Y16392D01*
X16983Y16085D02*
X17045Y16024D01*
X17045Y15900D01*
X16983Y15838D01*
X17045Y15717D02*
X17045Y15470D01*
X16675Y15470D01*
X16675Y15349D02*
X16798Y15225D01*
X16798Y15287D02*
X16798Y15102D01*
X16675Y15102D02*
X17045Y15102D01*
X17045Y15287D01*
X16983Y15349D01*
X16860Y15349D01*
X16798Y15287D01*
X16860Y15470D02*
X16860Y15594D01*
X16675Y15838D02*
X16922Y16085D01*
X16983Y16085D01*
X16675Y16085D02*
X16675Y15838D01*
X16165Y15850D02*
X16103Y15788D01*
X15980Y15788D01*
X15918Y15850D01*
X15918Y15912D01*
X15980Y15973D01*
X16103Y15973D01*
X16165Y16035D01*
X16165Y16097D01*
X16103Y16159D01*
X15980Y16159D01*
X15918Y16097D01*
X15797Y16035D02*
X15735Y16035D01*
X15673Y15973D01*
X15611Y16035D01*
X15550Y15973D01*
X15550Y15788D01*
X15673Y15788D02*
X15673Y15973D01*
X15797Y16035D02*
X15797Y15788D01*
X15428Y15850D02*
X15428Y15973D01*
X15367Y16035D01*
X15243Y16035D01*
X15181Y15973D01*
X15181Y15850D01*
X15243Y15788D01*
X15367Y15788D01*
X15428Y15850D01*
X15060Y16388D02*
X14937Y16388D01*
X14998Y16388D02*
X14998Y16635D01*
X15060Y16635D01*
X14998Y16759D02*
X14998Y16820D01*
X14753Y16635D02*
X14814Y16573D01*
X14814Y16450D01*
X14753Y16388D01*
X14568Y16388D01*
X14568Y16635D02*
X14753Y16635D01*
X16675Y17005D02*
X16736Y16943D01*
X16983Y17190D01*
X16736Y17190D01*
X16675Y17129D01*
X16675Y17005D01*
X16736Y16943D02*
X16983Y16943D01*
X17045Y17005D01*
X17045Y17129D01*
X16983Y17190D01*
X16922Y17312D02*
X17045Y17435D01*
X16675Y17435D01*
X16675Y17312D02*
X16675Y17559D01*
X16860Y17680D02*
X16860Y17927D01*
X16983Y17803D02*
X16736Y17803D01*
X19263Y15221D02*
X19457Y15221D01*
X19505Y15173D01*
X19505Y15028D01*
X19215Y15028D01*
X19215Y15173D01*
X19263Y15221D01*
X19215Y14926D02*
X19505Y14926D01*
X19505Y14733D02*
X19215Y14926D01*
X19215Y14733D02*
X19505Y14733D01*
X19457Y14632D02*
X19505Y14583D01*
X19505Y14487D01*
X19457Y14438D01*
X19263Y14438D01*
X19215Y14487D01*
X19215Y14583D01*
X19263Y14632D01*
X19360Y14632D01*
X19360Y14535D01*
X17045Y14734D02*
X16675Y14980D01*
X17045Y14980D01*
X17045Y14734D02*
X16675Y14734D01*
X16135Y14209D02*
X16135Y13838D01*
X16011Y13962D01*
X15888Y13838D01*
X15888Y14209D01*
X15766Y14209D02*
X15520Y13838D01*
X15520Y14209D01*
X15398Y14147D02*
X15336Y14209D01*
X15213Y14209D01*
X15151Y14147D01*
X15398Y13900D01*
X15336Y13838D01*
X15213Y13838D01*
X15151Y13900D01*
X15151Y14147D01*
X15030Y14085D02*
X14906Y14209D01*
X14906Y13838D01*
X14783Y13838D02*
X15030Y13838D01*
X15398Y13900D02*
X15398Y14147D01*
X15766Y14209D02*
X15766Y13838D01*
X15779Y12209D02*
X15876Y12209D01*
X15924Y12160D01*
X15924Y11967D01*
X15876Y11918D01*
X15779Y11918D01*
X15731Y11967D01*
X15629Y11967D02*
X15581Y11918D01*
X15484Y11918D01*
X15436Y11967D01*
X15436Y12160D02*
X15484Y12209D01*
X15581Y12209D01*
X15629Y12160D01*
X15629Y11967D01*
X15731Y12160D02*
X15779Y12209D01*
X16025Y12209D02*
X16025Y12015D01*
X16122Y11918D01*
X16219Y12015D01*
X16219Y12209D01*
X16436Y12160D02*
X16484Y12209D01*
X16629Y12209D01*
X16629Y11918D01*
X16484Y11918D01*
X16436Y11967D01*
X16436Y12160D01*
X16731Y12209D02*
X16731Y11918D01*
X16924Y12209D01*
X16924Y11918D01*
X17025Y11967D02*
X17074Y11918D01*
X17170Y11918D01*
X17219Y11967D01*
X17219Y12160D01*
X17170Y12209D01*
X17074Y12209D01*
X17025Y12160D01*
X17025Y12063D02*
X17122Y12063D01*
X17025Y12063D02*
X17025Y11967D01*
X15219Y12209D02*
X15025Y12209D01*
X15122Y12209D02*
X15122Y11918D01*
X14924Y11918D02*
X14731Y12209D01*
X14629Y12209D02*
X14484Y12209D01*
X14436Y12160D01*
X14436Y11967D01*
X14484Y11918D01*
X14629Y11918D01*
X14629Y12209D01*
X14924Y12209D02*
X14731Y11918D01*
X14269Y11918D02*
X14269Y12209D01*
X14124Y12209D01*
X14075Y12160D01*
X14075Y12063D01*
X14124Y12015D01*
X14269Y12015D01*
X14172Y12015D02*
X14075Y11918D01*
X13974Y11918D02*
X13781Y12209D01*
X13679Y12209D02*
X13534Y12209D01*
X13486Y12160D01*
X13486Y11967D01*
X13534Y11918D01*
X13679Y11918D01*
X13679Y12209D01*
X13974Y12209D02*
X13781Y11918D01*
X13269Y11918D02*
X13269Y12209D01*
X13124Y12209D01*
X13075Y12160D01*
X13075Y12063D01*
X13124Y12015D01*
X13269Y12015D01*
X13172Y12015D02*
X13075Y11918D01*
X12974Y11967D02*
X12926Y11918D01*
X12829Y11918D01*
X12781Y11967D01*
X12781Y12015D01*
X12829Y12063D01*
X12926Y12063D01*
X12974Y12112D01*
X12974Y12160D01*
X12926Y12209D01*
X12829Y12209D01*
X12781Y12160D01*
X12679Y12209D02*
X12486Y12209D01*
X12583Y12209D02*
X12583Y11918D01*
X12122Y11918D02*
X12122Y12209D01*
X12219Y12209D02*
X12025Y12209D01*
X11924Y12160D02*
X11924Y12112D01*
X11876Y12063D01*
X11779Y12063D01*
X11731Y12015D01*
X11731Y11967D01*
X11779Y11918D01*
X11876Y11918D01*
X11924Y11967D01*
X11924Y12160D02*
X11876Y12209D01*
X11779Y12209D01*
X11731Y12160D01*
X11629Y12209D02*
X11436Y12209D01*
X11533Y12209D02*
X11533Y11918D01*
X1269Y15465D02*
X1172Y15368D01*
X1075Y15465D01*
X1075Y15659D01*
X974Y15610D02*
X974Y15417D01*
X926Y15368D01*
X829Y15368D01*
X781Y15417D01*
X679Y15417D02*
X631Y15368D01*
X534Y15368D01*
X486Y15417D01*
X486Y15610D02*
X534Y15659D01*
X631Y15659D01*
X679Y15610D01*
X679Y15417D01*
X781Y15610D02*
X829Y15659D01*
X926Y15659D01*
X974Y15610D01*
X1269Y15659D02*
X1269Y15465D01*
X974Y16368D02*
X829Y16368D01*
X781Y16417D01*
X781Y16610D01*
X829Y16659D01*
X974Y16659D01*
X974Y16368D01*
X679Y16417D02*
X679Y16610D01*
X631Y16659D01*
X534Y16659D01*
X486Y16610D01*
X486Y16417D01*
X534Y16368D01*
X631Y16368D01*
X679Y16417D01*
X583Y16465D02*
X486Y16368D01*
X534Y17318D02*
X486Y17367D01*
X486Y17560D01*
X534Y17609D01*
X679Y17609D01*
X679Y17318D01*
X534Y17318D01*
X781Y17318D02*
X781Y17609D01*
X974Y17609D02*
X781Y17318D01*
X974Y17318D02*
X974Y17609D01*
X1075Y17560D02*
X1124Y17609D01*
X1220Y17609D01*
X1269Y17560D01*
X1269Y17367D01*
X1220Y17318D01*
X1124Y17318D01*
X1075Y17367D01*
X1075Y17463D01*
X1172Y17463D01*
X2837Y19218D02*
X2789Y19267D01*
X2837Y19218D02*
X2934Y19218D01*
X2983Y19267D01*
X2983Y19460D01*
X2934Y19509D01*
X2837Y19509D01*
X2789Y19460D01*
X3084Y19460D02*
X3132Y19509D01*
X3229Y19509D01*
X3277Y19460D01*
X3277Y19267D01*
X3229Y19218D01*
X3132Y19218D01*
X3084Y19267D01*
X3378Y19315D02*
X3378Y19509D01*
X3572Y19509D02*
X3572Y19315D01*
X3475Y19218D01*
X3378Y19315D01*
X3789Y19305D02*
X3789Y19257D01*
X3837Y19208D01*
X3934Y19208D01*
X3983Y19257D01*
X4084Y19208D02*
X4277Y19208D01*
X4180Y19208D02*
X4180Y19499D01*
X4277Y19402D01*
X4378Y19450D02*
X4378Y19353D01*
X4427Y19305D01*
X4572Y19305D01*
X4572Y19208D02*
X4572Y19499D01*
X4427Y19499D01*
X4378Y19450D01*
X3983Y19450D02*
X3934Y19499D01*
X3837Y19499D01*
X3789Y19450D01*
X3789Y19402D01*
X3837Y19353D01*
X3789Y19305D01*
X3837Y19353D02*
X3886Y19353D01*
X4889Y19353D02*
X5083Y19353D01*
X4937Y19499D01*
X4937Y19208D01*
X5184Y19208D02*
X5377Y19208D01*
X5280Y19208D02*
X5280Y19499D01*
X5377Y19402D01*
X5478Y19450D02*
X5478Y19353D01*
X5527Y19305D01*
X5672Y19305D01*
X5672Y19208D02*
X5672Y19499D01*
X5527Y19499D01*
X5478Y19450D01*
X5889Y19460D02*
X5889Y19267D01*
X5937Y19218D01*
X6083Y19218D01*
X6083Y19509D01*
X5937Y19509D01*
X5889Y19460D01*
X6184Y19509D02*
X6184Y19218D01*
X6377Y19509D01*
X6377Y19218D01*
X6478Y19267D02*
X6527Y19218D01*
X6623Y19218D01*
X6672Y19267D01*
X6672Y19460D01*
X6623Y19509D01*
X6527Y19509D01*
X6478Y19460D01*
X6478Y19363D02*
X6575Y19363D01*
X6478Y19363D02*
X6478Y19267D01*
D98*
X1478Y11623D02*
X1475Y11623D01*
X1478Y11623D02*
X18407Y11623D01*
X18410Y11623D01*
X17760Y12998D02*
X17762Y13048D01*
X17768Y13098D01*
X17778Y13148D01*
X17791Y13196D01*
X17808Y13244D01*
X17829Y13290D01*
X17853Y13334D01*
X17881Y13376D01*
X17912Y13416D01*
X17946Y13453D01*
X17983Y13488D01*
X18022Y13519D01*
X18063Y13548D01*
X18107Y13573D01*
X18153Y13595D01*
X18200Y13613D01*
X18248Y13627D01*
X18297Y13638D01*
X18347Y13645D01*
X18397Y13648D01*
X18448Y13647D01*
X18498Y13642D01*
X18548Y13633D01*
X18596Y13621D01*
X18644Y13604D01*
X18690Y13584D01*
X18735Y13561D01*
X18778Y13534D01*
X18818Y13504D01*
X18856Y13471D01*
X18891Y13435D01*
X18924Y13396D01*
X18953Y13355D01*
X18979Y13312D01*
X19002Y13267D01*
X19021Y13220D01*
X19036Y13172D01*
X19048Y13123D01*
X19056Y13073D01*
X19060Y13023D01*
X19060Y12973D01*
X19056Y12923D01*
X19048Y12873D01*
X19036Y12824D01*
X19021Y12776D01*
X19002Y12729D01*
X18979Y12684D01*
X18953Y12641D01*
X18924Y12600D01*
X18891Y12561D01*
X18856Y12525D01*
X18818Y12492D01*
X18778Y12462D01*
X18735Y12435D01*
X18690Y12412D01*
X18644Y12392D01*
X18596Y12375D01*
X18548Y12363D01*
X18498Y12354D01*
X18448Y12349D01*
X18397Y12348D01*
X18347Y12351D01*
X18297Y12358D01*
X18248Y12369D01*
X18200Y12383D01*
X18153Y12401D01*
X18107Y12423D01*
X18063Y12448D01*
X18022Y12477D01*
X17983Y12508D01*
X17946Y12543D01*
X17912Y12580D01*
X17881Y12620D01*
X17853Y12662D01*
X17829Y12706D01*
X17808Y12752D01*
X17791Y12800D01*
X17778Y12848D01*
X17768Y12898D01*
X17762Y12948D01*
X17760Y12998D01*
X18407Y11623D02*
X18481Y11626D01*
X18555Y11633D01*
X18629Y11644D01*
X18701Y11659D01*
X18773Y11677D01*
X18844Y11700D01*
X18914Y11726D01*
X18982Y11756D01*
X19048Y11789D01*
X19113Y11826D01*
X19175Y11867D01*
X19236Y11910D01*
X19294Y11957D01*
X19349Y12007D01*
X19401Y12059D01*
X19451Y12114D01*
X19498Y12172D01*
X19541Y12233D01*
X19582Y12295D01*
X19619Y12360D01*
X19652Y12426D01*
X19682Y12494D01*
X19708Y12564D01*
X19731Y12635D01*
X19749Y12707D01*
X19764Y12779D01*
X19775Y12853D01*
X19782Y12927D01*
X19785Y13001D01*
X19785Y12998D01*
X19785Y13001D02*
X19785Y19852D01*
X19785Y19897D01*
X19785Y19852D02*
X19787Y19924D01*
X19785Y19995D01*
X19780Y20067D01*
X19771Y20138D01*
X19758Y20209D01*
X19741Y20278D01*
X19720Y20347D01*
X19696Y20415D01*
X19669Y20481D01*
X19637Y20545D01*
X19603Y20608D01*
X19565Y20669D01*
X19524Y20728D01*
X19480Y20784D01*
X19432Y20838D01*
X19382Y20889D01*
X19330Y20938D01*
X19275Y20984D01*
X19217Y21027D01*
X19157Y21066D01*
X19095Y21103D01*
X19032Y21136D01*
X18967Y21165D01*
X18900Y21191D01*
X18832Y21214D01*
X18762Y21232D01*
X18692Y21247D01*
X18621Y21259D01*
X18550Y21266D01*
X18479Y21270D01*
X18407Y21269D01*
X18410Y21269D01*
X18407Y21269D02*
X1478Y21269D01*
X825Y19894D02*
X827Y19944D01*
X833Y19994D01*
X843Y20044D01*
X856Y20092D01*
X873Y20140D01*
X894Y20186D01*
X918Y20230D01*
X946Y20272D01*
X977Y20312D01*
X1011Y20349D01*
X1048Y20384D01*
X1087Y20415D01*
X1128Y20444D01*
X1172Y20469D01*
X1218Y20491D01*
X1265Y20509D01*
X1313Y20523D01*
X1362Y20534D01*
X1412Y20541D01*
X1462Y20544D01*
X1513Y20543D01*
X1563Y20538D01*
X1613Y20529D01*
X1661Y20517D01*
X1709Y20500D01*
X1755Y20480D01*
X1800Y20457D01*
X1843Y20430D01*
X1883Y20400D01*
X1921Y20367D01*
X1956Y20331D01*
X1989Y20292D01*
X2018Y20251D01*
X2044Y20208D01*
X2067Y20163D01*
X2086Y20116D01*
X2101Y20068D01*
X2113Y20019D01*
X2121Y19969D01*
X2125Y19919D01*
X2125Y19869D01*
X2121Y19819D01*
X2113Y19769D01*
X2101Y19720D01*
X2086Y19672D01*
X2067Y19625D01*
X2044Y19580D01*
X2018Y19537D01*
X1989Y19496D01*
X1956Y19457D01*
X1921Y19421D01*
X1883Y19388D01*
X1843Y19358D01*
X1800Y19331D01*
X1755Y19308D01*
X1709Y19288D01*
X1661Y19271D01*
X1613Y19259D01*
X1563Y19250D01*
X1513Y19245D01*
X1462Y19244D01*
X1412Y19247D01*
X1362Y19254D01*
X1313Y19265D01*
X1265Y19279D01*
X1218Y19297D01*
X1172Y19319D01*
X1128Y19344D01*
X1087Y19373D01*
X1048Y19404D01*
X1011Y19439D01*
X977Y19476D01*
X946Y19516D01*
X918Y19558D01*
X894Y19602D01*
X873Y19648D01*
X856Y19696D01*
X843Y19744D01*
X833Y19794D01*
X827Y19844D01*
X825Y19894D01*
X100Y19891D02*
X102Y19963D01*
X108Y20035D01*
X117Y20107D01*
X130Y20178D01*
X147Y20248D01*
X167Y20317D01*
X192Y20385D01*
X219Y20451D01*
X250Y20517D01*
X285Y20580D01*
X322Y20642D01*
X363Y20701D01*
X407Y20758D01*
X454Y20813D01*
X504Y20865D01*
X556Y20915D01*
X611Y20962D01*
X668Y21006D01*
X727Y21047D01*
X789Y21084D01*
X852Y21119D01*
X918Y21150D01*
X984Y21177D01*
X1052Y21202D01*
X1121Y21222D01*
X1191Y21239D01*
X1262Y21252D01*
X1334Y21261D01*
X1406Y21267D01*
X1478Y21269D01*
X100Y19894D02*
X100Y19891D01*
X100Y13041D01*
X100Y12998D01*
X825Y12998D02*
X827Y13048D01*
X833Y13098D01*
X843Y13148D01*
X856Y13196D01*
X873Y13244D01*
X894Y13290D01*
X918Y13334D01*
X946Y13376D01*
X977Y13416D01*
X1011Y13453D01*
X1048Y13488D01*
X1087Y13519D01*
X1128Y13548D01*
X1172Y13573D01*
X1218Y13595D01*
X1265Y13613D01*
X1313Y13627D01*
X1362Y13638D01*
X1412Y13645D01*
X1462Y13648D01*
X1513Y13647D01*
X1563Y13642D01*
X1613Y13633D01*
X1661Y13621D01*
X1709Y13604D01*
X1755Y13584D01*
X1800Y13561D01*
X1843Y13534D01*
X1883Y13504D01*
X1921Y13471D01*
X1956Y13435D01*
X1989Y13396D01*
X2018Y13355D01*
X2044Y13312D01*
X2067Y13267D01*
X2086Y13220D01*
X2101Y13172D01*
X2113Y13123D01*
X2121Y13073D01*
X2125Y13023D01*
X2125Y12973D01*
X2121Y12923D01*
X2113Y12873D01*
X2101Y12824D01*
X2086Y12776D01*
X2067Y12729D01*
X2044Y12684D01*
X2018Y12641D01*
X1989Y12600D01*
X1956Y12561D01*
X1921Y12525D01*
X1883Y12492D01*
X1843Y12462D01*
X1800Y12435D01*
X1755Y12412D01*
X1709Y12392D01*
X1661Y12375D01*
X1613Y12363D01*
X1563Y12354D01*
X1513Y12349D01*
X1462Y12348D01*
X1412Y12351D01*
X1362Y12358D01*
X1313Y12369D01*
X1265Y12383D01*
X1218Y12401D01*
X1172Y12423D01*
X1128Y12448D01*
X1087Y12477D01*
X1048Y12508D01*
X1011Y12543D01*
X977Y12580D01*
X946Y12620D01*
X918Y12662D01*
X894Y12706D01*
X873Y12752D01*
X856Y12800D01*
X843Y12848D01*
X833Y12898D01*
X827Y12948D01*
X825Y12998D01*
X99Y13041D02*
X100Y12968D01*
X105Y12894D01*
X113Y12822D01*
X126Y12750D01*
X142Y12678D01*
X161Y12608D01*
X185Y12538D01*
X212Y12470D01*
X243Y12404D01*
X277Y12339D01*
X314Y12276D01*
X355Y12215D01*
X398Y12157D01*
X445Y12100D01*
X495Y12046D01*
X547Y11995D01*
X602Y11947D01*
X659Y11902D01*
X719Y11859D01*
X781Y11820D01*
X845Y11784D01*
X910Y11752D01*
X978Y11723D01*
X1046Y11698D01*
X1116Y11676D01*
X1187Y11658D01*
X1259Y11643D01*
X1331Y11633D01*
X1404Y11626D01*
X1477Y11623D01*
X1281Y14474D02*
X1283Y14504D01*
X1289Y14534D01*
X1298Y14563D01*
X1311Y14590D01*
X1328Y14615D01*
X1347Y14638D01*
X1370Y14659D01*
X1395Y14676D01*
X1421Y14690D01*
X1450Y14700D01*
X1479Y14707D01*
X1509Y14710D01*
X1540Y14709D01*
X1570Y14704D01*
X1599Y14695D01*
X1626Y14683D01*
X1652Y14668D01*
X1676Y14649D01*
X1697Y14627D01*
X1715Y14603D01*
X1730Y14576D01*
X1741Y14548D01*
X1749Y14519D01*
X1753Y14489D01*
X1753Y14459D01*
X1749Y14429D01*
X1741Y14400D01*
X1730Y14372D01*
X1715Y14345D01*
X1697Y14321D01*
X1676Y14299D01*
X1652Y14280D01*
X1626Y14265D01*
X1599Y14253D01*
X1570Y14244D01*
X1540Y14239D01*
X1509Y14238D01*
X1479Y14241D01*
X1450Y14248D01*
X1421Y14258D01*
X1395Y14272D01*
X1370Y14289D01*
X1347Y14310D01*
X1328Y14333D01*
X1311Y14358D01*
X1298Y14385D01*
X1289Y14414D01*
X1283Y14444D01*
X1281Y14474D01*
X297Y14474D02*
X299Y14504D01*
X305Y14534D01*
X314Y14563D01*
X327Y14590D01*
X344Y14615D01*
X363Y14638D01*
X386Y14659D01*
X411Y14676D01*
X437Y14690D01*
X466Y14700D01*
X495Y14707D01*
X525Y14710D01*
X556Y14709D01*
X586Y14704D01*
X615Y14695D01*
X642Y14683D01*
X668Y14668D01*
X692Y14649D01*
X713Y14627D01*
X731Y14603D01*
X746Y14576D01*
X757Y14548D01*
X765Y14519D01*
X769Y14489D01*
X769Y14459D01*
X765Y14429D01*
X757Y14400D01*
X746Y14372D01*
X731Y14345D01*
X713Y14321D01*
X692Y14299D01*
X668Y14280D01*
X642Y14265D01*
X615Y14253D01*
X586Y14244D01*
X556Y14239D01*
X525Y14238D01*
X495Y14241D01*
X466Y14248D01*
X437Y14258D01*
X411Y14272D01*
X386Y14289D01*
X363Y14310D01*
X344Y14333D01*
X327Y14358D01*
X314Y14385D01*
X305Y14414D01*
X299Y14444D01*
X297Y14474D01*
X3250Y16442D02*
X3252Y16472D01*
X3258Y16502D01*
X3267Y16531D01*
X3280Y16558D01*
X3297Y16583D01*
X3316Y16606D01*
X3339Y16627D01*
X3364Y16644D01*
X3390Y16658D01*
X3419Y16668D01*
X3448Y16675D01*
X3478Y16678D01*
X3509Y16677D01*
X3539Y16672D01*
X3568Y16663D01*
X3595Y16651D01*
X3621Y16636D01*
X3645Y16617D01*
X3666Y16595D01*
X3684Y16571D01*
X3699Y16544D01*
X3710Y16516D01*
X3718Y16487D01*
X3722Y16457D01*
X3722Y16427D01*
X3718Y16397D01*
X3710Y16368D01*
X3699Y16340D01*
X3684Y16313D01*
X3666Y16289D01*
X3645Y16267D01*
X3621Y16248D01*
X3595Y16233D01*
X3568Y16221D01*
X3539Y16212D01*
X3509Y16207D01*
X3478Y16206D01*
X3448Y16209D01*
X3419Y16216D01*
X3390Y16226D01*
X3364Y16240D01*
X3339Y16257D01*
X3316Y16278D01*
X3297Y16301D01*
X3280Y16326D01*
X3267Y16353D01*
X3258Y16382D01*
X3252Y16412D01*
X3250Y16442D01*
X1281Y18411D02*
X1283Y18441D01*
X1289Y18471D01*
X1298Y18500D01*
X1311Y18527D01*
X1328Y18552D01*
X1347Y18575D01*
X1370Y18596D01*
X1395Y18613D01*
X1421Y18627D01*
X1450Y18637D01*
X1479Y18644D01*
X1509Y18647D01*
X1540Y18646D01*
X1570Y18641D01*
X1599Y18632D01*
X1626Y18620D01*
X1652Y18605D01*
X1676Y18586D01*
X1697Y18564D01*
X1715Y18540D01*
X1730Y18513D01*
X1741Y18485D01*
X1749Y18456D01*
X1753Y18426D01*
X1753Y18396D01*
X1749Y18366D01*
X1741Y18337D01*
X1730Y18309D01*
X1715Y18282D01*
X1697Y18258D01*
X1676Y18236D01*
X1652Y18217D01*
X1626Y18202D01*
X1599Y18190D01*
X1570Y18181D01*
X1540Y18176D01*
X1509Y18175D01*
X1479Y18178D01*
X1450Y18185D01*
X1421Y18195D01*
X1395Y18209D01*
X1370Y18226D01*
X1347Y18247D01*
X1328Y18270D01*
X1311Y18295D01*
X1298Y18322D01*
X1289Y18351D01*
X1283Y18381D01*
X1281Y18411D01*
X297Y18411D02*
X299Y18441D01*
X305Y18471D01*
X314Y18500D01*
X327Y18527D01*
X344Y18552D01*
X363Y18575D01*
X386Y18596D01*
X411Y18613D01*
X437Y18627D01*
X466Y18637D01*
X495Y18644D01*
X525Y18647D01*
X556Y18646D01*
X586Y18641D01*
X615Y18632D01*
X642Y18620D01*
X668Y18605D01*
X692Y18586D01*
X713Y18564D01*
X731Y18540D01*
X746Y18513D01*
X757Y18485D01*
X765Y18456D01*
X769Y18426D01*
X769Y18396D01*
X765Y18366D01*
X757Y18337D01*
X746Y18309D01*
X731Y18282D01*
X713Y18258D01*
X692Y18236D01*
X668Y18217D01*
X642Y18202D01*
X615Y18190D01*
X586Y18181D01*
X556Y18176D01*
X525Y18175D01*
X495Y18178D01*
X466Y18185D01*
X437Y18195D01*
X411Y18209D01*
X386Y18226D01*
X363Y18247D01*
X344Y18270D01*
X327Y18295D01*
X314Y18322D01*
X305Y18351D01*
X299Y18381D01*
X297Y18411D01*
X17757Y19891D02*
X17759Y19941D01*
X17765Y19991D01*
X17775Y20041D01*
X17788Y20089D01*
X17805Y20137D01*
X17826Y20183D01*
X17850Y20227D01*
X17878Y20269D01*
X17909Y20309D01*
X17943Y20346D01*
X17980Y20381D01*
X18019Y20412D01*
X18060Y20441D01*
X18104Y20466D01*
X18150Y20488D01*
X18197Y20506D01*
X18245Y20520D01*
X18294Y20531D01*
X18344Y20538D01*
X18394Y20541D01*
X18445Y20540D01*
X18495Y20535D01*
X18545Y20526D01*
X18593Y20514D01*
X18641Y20497D01*
X18687Y20477D01*
X18732Y20454D01*
X18775Y20427D01*
X18815Y20397D01*
X18853Y20364D01*
X18888Y20328D01*
X18921Y20289D01*
X18950Y20248D01*
X18976Y20205D01*
X18999Y20160D01*
X19018Y20113D01*
X19033Y20065D01*
X19045Y20016D01*
X19053Y19966D01*
X19057Y19916D01*
X19057Y19866D01*
X19053Y19816D01*
X19045Y19766D01*
X19033Y19717D01*
X19018Y19669D01*
X18999Y19622D01*
X18976Y19577D01*
X18950Y19534D01*
X18921Y19493D01*
X18888Y19454D01*
X18853Y19418D01*
X18815Y19385D01*
X18775Y19355D01*
X18732Y19328D01*
X18687Y19305D01*
X18641Y19285D01*
X18593Y19268D01*
X18545Y19256D01*
X18495Y19247D01*
X18445Y19242D01*
X18394Y19241D01*
X18344Y19244D01*
X18294Y19251D01*
X18245Y19262D01*
X18197Y19276D01*
X18150Y19294D01*
X18104Y19316D01*
X18060Y19341D01*
X18019Y19370D01*
X17980Y19401D01*
X17943Y19436D01*
X17909Y19473D01*
X17878Y19513D01*
X17850Y19555D01*
X17826Y19599D01*
X17805Y19645D01*
X17788Y19693D01*
X17775Y19741D01*
X17765Y19791D01*
X17759Y19841D01*
X17757Y19891D01*
D99*
X15540Y18823D03*
X15030Y19103D03*
X15010Y19073D03*
X15100Y19203D03*
X15120Y19233D03*
X15210Y19363D03*
X15230Y19393D03*
X15300Y19493D03*
X14910Y19933D03*
X14920Y19943D03*
X14930Y19953D03*
X14940Y19963D03*
X14950Y19973D03*
X14960Y19983D03*
X14990Y20023D03*
X15000Y20033D03*
X15010Y20043D03*
X15020Y20053D03*
X15030Y20063D03*
X15060Y20103D03*
X15070Y20113D03*
X15080Y20123D03*
X15090Y20133D03*
X15100Y20143D03*
X15110Y20153D03*
X15130Y20183D03*
X15140Y20193D03*
X15150Y20203D03*
X15160Y20213D03*
X15170Y20223D03*
X15180Y20233D03*
X15210Y20273D03*
X15220Y20283D03*
X15230Y20293D03*
X15240Y20303D03*
X15250Y20313D03*
X15260Y20323D03*
X15280Y20353D03*
X15060Y18403D03*
D100*
X15055Y18413D03*
X14755Y18583D03*
X14985Y18933D03*
X14035Y18713D03*
X16075Y18813D03*
X13945Y20193D03*
X14405Y20743D03*
X15305Y20453D03*
X15315Y20463D03*
X15325Y20473D03*
X15335Y20483D03*
X15345Y20493D03*
X15465Y20953D03*
D101*
X15470Y20943D03*
X14480Y20773D03*
X14090Y20283D03*
X14000Y20213D03*
X15290Y18553D03*
X15060Y18423D03*
D102*
X15060Y18433D03*
X14680Y18713D03*
X16100Y20463D03*
X15730Y20753D03*
X15470Y20933D03*
X15040Y20753D03*
D103*
X15470Y20923D03*
X16140Y20423D03*
X16200Y20373D03*
X15060Y18443D03*
D104*
X15060Y18453D03*
X15160Y19553D03*
X15040Y19873D03*
D105*
X15470Y20903D03*
X15060Y18463D03*
D106*
X15060Y18473D03*
X15070Y19863D03*
X15470Y20893D03*
D107*
X15470Y20883D03*
X15060Y18483D03*
D108*
X15055Y18493D03*
X15695Y18683D03*
X15465Y20873D03*
D109*
X15470Y20863D03*
X15680Y19763D03*
X15740Y18713D03*
X15060Y18503D03*
D110*
X15060Y18513D03*
D111*
X15060Y18523D03*
X15810Y18783D03*
X15140Y19843D03*
X15470Y20843D03*
D112*
X15470Y20833D03*
X15210Y19833D03*
X15360Y19813D03*
X15650Y19773D03*
X15060Y18533D03*
D113*
X15060Y18543D03*
X15470Y20823D03*
D114*
X15480Y20623D03*
X15470Y20613D03*
X15460Y20603D03*
X15840Y20733D03*
X15850Y20723D03*
X16400Y20293D03*
X16410Y20283D03*
X16420Y20273D03*
X15060Y20703D03*
X14340Y20693D03*
X14330Y20683D03*
X14320Y20673D03*
X16290Y19453D03*
X14330Y18543D03*
X13960Y18763D03*
X13950Y18773D03*
X13940Y18783D03*
D115*
X14825Y18553D03*
X15815Y19723D03*
X14975Y19893D03*
X16285Y20363D03*
X15735Y20783D03*
X15705Y20813D03*
X15225Y20813D03*
X14705Y20903D03*
D116*
X15230Y20383D03*
X15220Y20373D03*
X15210Y20363D03*
X15240Y20393D03*
X15250Y20403D03*
X16040Y20503D03*
X16310Y20353D03*
X15730Y20803D03*
X14110Y20303D03*
X14380Y19693D03*
X14330Y18553D03*
X14800Y18563D03*
X15320Y18563D03*
D117*
X14700Y18723D03*
X14320Y18563D03*
X14030Y20223D03*
X14040Y20233D03*
X14050Y20243D03*
X16090Y20473D03*
D118*
X16330Y20343D03*
X15290Y20443D03*
X15280Y20433D03*
X14120Y20313D03*
X15010Y18963D03*
X15000Y18953D03*
X14990Y18943D03*
X14770Y18573D03*
X15340Y18573D03*
D119*
X15785Y18673D03*
X14635Y18693D03*
X14325Y18573D03*
X16115Y20443D03*
D120*
X16350Y20333D03*
X15370Y20513D03*
X15360Y20503D03*
X14390Y20733D03*
X14130Y20323D03*
X13930Y20183D03*
X14940Y19903D03*
X16330Y19503D03*
X16340Y19513D03*
X16090Y18823D03*
X15360Y18583D03*
X14970Y18923D03*
X14960Y18913D03*
X14740Y18593D03*
D121*
X14325Y18583D03*
D122*
X14015Y18723D03*
X14935Y18883D03*
X14945Y18893D03*
X14955Y18903D03*
X15375Y18593D03*
X15575Y18793D03*
X16305Y19473D03*
X16315Y19483D03*
X16325Y19493D03*
X16355Y19523D03*
X15845Y19713D03*
X16365Y20323D03*
X15385Y20533D03*
X15375Y20523D03*
X15055Y20713D03*
X13915Y20173D03*
D123*
X14705Y20863D03*
X14325Y18593D03*
D124*
X14730Y18603D03*
X14900Y18843D03*
X14910Y18853D03*
X14920Y18863D03*
X14930Y18873D03*
X15390Y18603D03*
X16110Y18833D03*
X16120Y18843D03*
X16300Y19463D03*
X16370Y19533D03*
X16380Y19543D03*
X16370Y20313D03*
X16010Y20513D03*
X15430Y20573D03*
X15420Y20563D03*
X15410Y20553D03*
X15400Y20543D03*
X14710Y20913D03*
X14380Y20723D03*
X13900Y20163D03*
X14000Y18733D03*
D125*
X14320Y18603D03*
D126*
X13985Y18743D03*
X13975Y18753D03*
X14875Y18813D03*
X14885Y18823D03*
X14895Y18833D03*
X15405Y18613D03*
X15415Y18623D03*
X16135Y18853D03*
X16145Y18863D03*
X16395Y19553D03*
X16385Y20303D03*
X15825Y20743D03*
X15455Y20593D03*
X15445Y20583D03*
X14365Y20713D03*
X14355Y20703D03*
X14145Y20333D03*
X13885Y20153D03*
X13875Y20143D03*
D127*
X15025Y19583D03*
X14395Y18633D03*
X14415Y18623D03*
X14425Y18613D03*
D128*
X14845Y18783D03*
X14855Y18793D03*
X14865Y18803D03*
X15425Y18633D03*
X15435Y18643D03*
X15445Y18653D03*
X16155Y18873D03*
X16165Y18883D03*
X16175Y18893D03*
X16285Y19443D03*
X16405Y19563D03*
X16415Y19573D03*
X16425Y19583D03*
X16435Y19593D03*
X15495Y20633D03*
X15505Y20643D03*
X15515Y20653D03*
X15525Y20663D03*
X15855Y20713D03*
X15865Y20703D03*
X15875Y20693D03*
X13865Y20133D03*
X13855Y20123D03*
X13845Y20113D03*
X13835Y20103D03*
D129*
X13830Y20093D03*
X13820Y20083D03*
X13810Y20073D03*
X14160Y20343D03*
X14300Y20653D03*
X14310Y20663D03*
X15060Y20693D03*
X15540Y20673D03*
X15550Y20683D03*
X15880Y20683D03*
X15890Y20673D03*
X16430Y20263D03*
X16440Y20253D03*
X16450Y20243D03*
X16450Y19613D03*
X16440Y19603D03*
X16280Y19433D03*
X16200Y18923D03*
X16190Y18913D03*
X16180Y18903D03*
X15790Y18643D03*
X15560Y18803D03*
X15460Y18673D03*
X15450Y18663D03*
X14840Y18773D03*
X14830Y18763D03*
X14820Y18753D03*
X13930Y18793D03*
X13920Y18803D03*
X13910Y18813D03*
X13900Y18833D03*
X13850Y19413D03*
X13840Y19433D03*
X13830Y19443D03*
X13820Y19453D03*
X14340Y19703D03*
D130*
X14390Y18643D03*
D131*
X14045Y18703D03*
X15015Y18973D03*
X15785Y18653D03*
X16055Y18803D03*
X15245Y19533D03*
X13965Y20203D03*
X14425Y20753D03*
X15055Y20723D03*
X15275Y20423D03*
X15265Y20413D03*
D132*
X14595Y19643D03*
X14385Y18653D03*
D133*
X15785Y18663D03*
X14075Y20263D03*
X14065Y20253D03*
X15735Y20763D03*
D134*
X14385Y18663D03*
D135*
X14385Y18673D03*
D136*
X14600Y18683D03*
X16180Y20383D03*
X16170Y20393D03*
X16160Y20403D03*
X16150Y20413D03*
D137*
X14080Y20273D03*
X14100Y18683D03*
D138*
X15710Y18693D03*
D139*
X16030Y18793D03*
X14070Y18693D03*
X14100Y20293D03*
X15050Y20733D03*
X16060Y20493D03*
D140*
X15105Y19853D03*
X14705Y20823D03*
X15725Y18703D03*
D141*
X14660Y18703D03*
X15780Y19733D03*
X15010Y19883D03*
X16110Y20453D03*
D142*
X15755Y18723D03*
D143*
X15765Y18733D03*
X15775Y18743D03*
X15785Y18753D03*
X15065Y19573D03*
X14705Y20813D03*
X15465Y20853D03*
D144*
X15565Y20703D03*
X15555Y20693D03*
X15895Y20663D03*
X15905Y20653D03*
X16455Y20233D03*
X16465Y20223D03*
X16475Y20203D03*
X16485Y20193D03*
X16475Y19643D03*
X16465Y19633D03*
X16455Y19623D03*
X15295Y19523D03*
X16205Y18933D03*
X16215Y18943D03*
X14815Y18743D03*
X14805Y18733D03*
X13905Y18823D03*
X13895Y18843D03*
X13885Y18853D03*
X13855Y19403D03*
X13845Y19423D03*
X13815Y19463D03*
X13805Y19473D03*
X13805Y19483D03*
X13795Y19493D03*
X13785Y20033D03*
X13795Y20053D03*
X13805Y20063D03*
X14265Y20603D03*
X14275Y20613D03*
X14285Y20633D03*
X14295Y20643D03*
D145*
X14280Y20623D03*
X14260Y20593D03*
X14250Y20583D03*
X14250Y20573D03*
X14240Y20563D03*
X15060Y20683D03*
X15580Y20713D03*
X15590Y20723D03*
X15600Y20733D03*
X15610Y20743D03*
X15910Y20643D03*
X15920Y20633D03*
X15920Y20623D03*
X15930Y20613D03*
X15940Y20593D03*
X15950Y20573D03*
X16470Y20213D03*
X16490Y20183D03*
X16500Y20173D03*
X16500Y20163D03*
X16510Y20143D03*
X16500Y19693D03*
X16500Y19683D03*
X16490Y19673D03*
X16490Y19663D03*
X16480Y19653D03*
X16270Y19423D03*
X16260Y19023D03*
X16250Y19003D03*
X16240Y18983D03*
X16230Y18973D03*
X16230Y18963D03*
X16220Y18953D03*
X14610Y18733D03*
X13880Y18863D03*
X13870Y18873D03*
X13860Y18893D03*
X13850Y18913D03*
X13840Y19323D03*
X13860Y19393D03*
X13790Y19503D03*
X13780Y19513D03*
X13770Y19533D03*
X13760Y19553D03*
X13760Y19993D03*
X13770Y20013D03*
X13780Y20023D03*
X13790Y20043D03*
D146*
X13715Y19693D03*
X13805Y19193D03*
X13805Y19073D03*
X13805Y19063D03*
X14615Y18743D03*
X15135Y19023D03*
X15145Y19033D03*
X15255Y19133D03*
X15265Y19143D03*
X15375Y19243D03*
X15385Y19253D03*
X15495Y19353D03*
X15505Y19363D03*
X15615Y19463D03*
X15625Y19473D03*
X15725Y19563D03*
X15735Y19573D03*
X15745Y19583D03*
X15855Y19683D03*
X15865Y19693D03*
X16305Y19273D03*
X16305Y19263D03*
X16305Y19253D03*
X16305Y19243D03*
X16305Y19203D03*
X16305Y19193D03*
X16555Y19993D03*
X15275Y20343D03*
X15265Y20333D03*
X15205Y20263D03*
X15195Y20253D03*
X15185Y20243D03*
X15125Y20173D03*
X15115Y20163D03*
X15055Y20093D03*
X15045Y20083D03*
X15035Y20073D03*
X14985Y20013D03*
X14975Y20003D03*
X14965Y19993D03*
X14905Y19923D03*
X15065Y20673D03*
D147*
X14620Y18753D03*
D148*
X15795Y18763D03*
X15805Y18773D03*
D149*
X14620Y18763D03*
D150*
X14625Y18773D03*
D151*
X13865Y18883D03*
X13855Y18903D03*
X13845Y18923D03*
X13845Y18933D03*
X13835Y18943D03*
X13835Y18953D03*
X13825Y18973D03*
X13825Y18983D03*
X13815Y19013D03*
X13815Y19243D03*
X13825Y19283D03*
X13835Y19303D03*
X13835Y19313D03*
X13845Y19333D03*
X13845Y19343D03*
X13855Y19353D03*
X13855Y19363D03*
X13865Y19373D03*
X13865Y19383D03*
X13775Y19523D03*
X13765Y19543D03*
X13755Y19563D03*
X13755Y19573D03*
X13745Y19583D03*
X13745Y19593D03*
X13735Y19603D03*
X13735Y19613D03*
X13725Y19643D03*
X13735Y19923D03*
X13735Y19933D03*
X13745Y19953D03*
X13745Y19963D03*
X13755Y19973D03*
X13755Y19983D03*
X13765Y20003D03*
X14355Y19723D03*
X14365Y19733D03*
X14375Y19743D03*
X14385Y19753D03*
X14405Y19763D03*
X14415Y19773D03*
X14425Y19783D03*
X14435Y19793D03*
X14465Y19813D03*
X14475Y19823D03*
X14485Y19833D03*
X14515Y19853D03*
X14525Y19863D03*
X14535Y19873D03*
X14545Y19883D03*
X14565Y19893D03*
X14575Y19903D03*
X14585Y19913D03*
X14595Y19923D03*
X14625Y19943D03*
X14635Y19953D03*
X14645Y19963D03*
X14655Y19973D03*
X14675Y19983D03*
X14685Y19993D03*
X14695Y20003D03*
X14705Y20013D03*
X14725Y20023D03*
X14735Y20033D03*
X14745Y20043D03*
X14755Y20053D03*
X14785Y20073D03*
X14795Y20083D03*
X14805Y20093D03*
X14815Y20103D03*
X14835Y20113D03*
X14845Y20123D03*
X14855Y20133D03*
X14865Y20143D03*
X14885Y20153D03*
X14895Y20163D03*
X14905Y20173D03*
X14915Y20183D03*
X14945Y20203D03*
X14955Y20213D03*
X14965Y20223D03*
X14975Y20233D03*
X14995Y20243D03*
X15005Y20253D03*
X15015Y20263D03*
X15025Y20273D03*
X15045Y20283D03*
X15055Y20293D03*
X15065Y20303D03*
X15075Y20313D03*
X15095Y20323D03*
X15105Y20333D03*
X15115Y20343D03*
X15125Y20353D03*
X14905Y19913D03*
X14205Y20473D03*
X14215Y20493D03*
X14215Y20503D03*
X14225Y20523D03*
X14225Y20533D03*
X14235Y20543D03*
X14235Y20553D03*
X15935Y20603D03*
X15945Y20583D03*
X15955Y20563D03*
X15955Y20553D03*
X15965Y20533D03*
X16505Y20153D03*
X16515Y20133D03*
X16525Y20113D03*
X16525Y20103D03*
X16535Y20093D03*
X16535Y20083D03*
X16545Y19803D03*
X16535Y19773D03*
X16535Y19763D03*
X16525Y19743D03*
X16525Y19733D03*
X16515Y19723D03*
X16515Y19713D03*
X16505Y19703D03*
X16275Y19413D03*
X16275Y19403D03*
X16285Y19383D03*
X16285Y19373D03*
X16295Y19133D03*
X16285Y19093D03*
X16275Y19063D03*
X16275Y19053D03*
X16265Y19043D03*
X16265Y19033D03*
X16255Y19013D03*
X16245Y18993D03*
X15545Y18813D03*
X15875Y19703D03*
D152*
X15535Y18833D03*
X15065Y20653D03*
D153*
X15530Y18843D03*
D154*
X15220Y19103D03*
X15210Y19093D03*
X15200Y19083D03*
X15190Y19073D03*
X15180Y19063D03*
X15170Y19053D03*
X15160Y19043D03*
X15120Y19013D03*
X15110Y19003D03*
X15100Y18993D03*
X15090Y18983D03*
X15230Y19113D03*
X15240Y19123D03*
X15280Y19153D03*
X15290Y19163D03*
X15300Y19173D03*
X15310Y19183D03*
X15320Y19193D03*
X15330Y19203D03*
X15340Y19213D03*
X15350Y19223D03*
X15360Y19233D03*
X15400Y19263D03*
X15410Y19273D03*
X15420Y19283D03*
X15430Y19293D03*
X15440Y19303D03*
X15450Y19313D03*
X15460Y19323D03*
X15470Y19333D03*
X15480Y19343D03*
X15520Y19373D03*
X15530Y19383D03*
X15540Y19393D03*
X15550Y19403D03*
X15560Y19413D03*
X15570Y19423D03*
X15580Y19433D03*
X15590Y19443D03*
X15600Y19453D03*
X15640Y19483D03*
X15650Y19493D03*
X15660Y19503D03*
X15670Y19513D03*
X15680Y19523D03*
X15690Y19533D03*
X15700Y19543D03*
X15710Y19553D03*
X15760Y19593D03*
X15770Y19603D03*
X15780Y19613D03*
X15790Y19623D03*
X15800Y19633D03*
X15810Y19643D03*
X15820Y19653D03*
X15830Y19663D03*
X15840Y19673D03*
X16280Y19393D03*
X16290Y19363D03*
X16290Y19353D03*
X16290Y19343D03*
X16300Y19333D03*
X16300Y19323D03*
X16300Y19313D03*
X16300Y19303D03*
X16300Y19293D03*
X16300Y19283D03*
X16310Y19233D03*
X16310Y19223D03*
X16310Y19213D03*
X16300Y19183D03*
X16300Y19173D03*
X16300Y19163D03*
X16300Y19153D03*
X16300Y19143D03*
X16290Y19123D03*
X16290Y19113D03*
X16290Y19103D03*
X16280Y19083D03*
X16280Y19073D03*
X16530Y19753D03*
X16540Y19783D03*
X16540Y19793D03*
X16550Y19813D03*
X16550Y19823D03*
X16550Y19833D03*
X16550Y19843D03*
X16550Y19853D03*
X16560Y19863D03*
X16560Y19873D03*
X16560Y19883D03*
X16560Y19893D03*
X16560Y19903D03*
X16560Y19913D03*
X16560Y19923D03*
X16560Y19933D03*
X16560Y19943D03*
X16560Y19953D03*
X16560Y19963D03*
X16560Y19973D03*
X16560Y19983D03*
X16550Y20003D03*
X16550Y20013D03*
X16550Y20023D03*
X16550Y20033D03*
X16550Y20043D03*
X16540Y20053D03*
X16540Y20063D03*
X16540Y20073D03*
X16520Y20123D03*
X15970Y20523D03*
X15960Y20543D03*
X15470Y20963D03*
X14930Y20193D03*
X14770Y20063D03*
X14610Y19933D03*
X14500Y19843D03*
X14450Y19803D03*
X14340Y19713D03*
X13730Y19633D03*
X13730Y19623D03*
X13720Y19653D03*
X13720Y19663D03*
X13720Y19673D03*
X13720Y19683D03*
X13710Y19703D03*
X13710Y19713D03*
X13710Y19723D03*
X13710Y19733D03*
X13710Y19743D03*
X13710Y19753D03*
X13710Y19763D03*
X13710Y19773D03*
X13710Y19783D03*
X13710Y19793D03*
X13710Y19803D03*
X13710Y19813D03*
X13710Y19823D03*
X13710Y19833D03*
X13710Y19843D03*
X13720Y19853D03*
X13720Y19863D03*
X13720Y19873D03*
X13720Y19883D03*
X13730Y19893D03*
X13730Y19903D03*
X13730Y19913D03*
X13740Y19943D03*
X14180Y20353D03*
X14190Y20363D03*
X14190Y20373D03*
X14190Y20383D03*
X14190Y20393D03*
X14190Y20403D03*
X14190Y20413D03*
X14190Y20423D03*
X14200Y20433D03*
X14200Y20443D03*
X14200Y20453D03*
X14200Y20463D03*
X14210Y20483D03*
X14220Y20513D03*
X13830Y19293D03*
X13820Y19273D03*
X13820Y19263D03*
X13820Y19253D03*
X13810Y19233D03*
X13810Y19223D03*
X13810Y19213D03*
X13810Y19203D03*
X13800Y19183D03*
X13800Y19173D03*
X13800Y19163D03*
X13800Y19153D03*
X13800Y19143D03*
X13800Y19133D03*
X13800Y19123D03*
X13800Y19113D03*
X13800Y19103D03*
X13800Y19093D03*
X13800Y19083D03*
X13810Y19053D03*
X13810Y19043D03*
X13810Y19033D03*
X13810Y19023D03*
X13820Y19003D03*
X13820Y18993D03*
X13830Y18963D03*
D155*
X14945Y18983D03*
X14955Y18993D03*
X14965Y19003D03*
X14965Y19013D03*
X14975Y19023D03*
X14985Y19033D03*
X14985Y19043D03*
X14995Y19053D03*
X15005Y19063D03*
X15015Y19083D03*
X15025Y19093D03*
X15035Y19113D03*
X15045Y19123D03*
X15055Y19133D03*
X15055Y19143D03*
X15065Y19153D03*
X15075Y19163D03*
X15075Y19173D03*
X15085Y19183D03*
X15095Y19193D03*
X15105Y19213D03*
X15115Y19223D03*
X15125Y19243D03*
X15135Y19253D03*
X15145Y19263D03*
X15145Y19273D03*
X15155Y19283D03*
X15165Y19293D03*
X15165Y19303D03*
X15175Y19313D03*
X15185Y19323D03*
X15185Y19333D03*
X15195Y19343D03*
X15205Y19353D03*
X15215Y19373D03*
X15225Y19383D03*
X15235Y19403D03*
X15245Y19413D03*
X15255Y19423D03*
X15255Y19433D03*
X15265Y19443D03*
X15275Y19453D03*
X15275Y19463D03*
X15285Y19473D03*
X15295Y19483D03*
X15305Y19503D03*
X15315Y19513D03*
X15065Y20663D03*
D156*
X14705Y20893D03*
X15205Y19543D03*
D157*
X15110Y19563D03*
D158*
X14980Y19593D03*
D159*
X14910Y19603D03*
X14820Y19613D03*
X14730Y19623D03*
X14810Y20783D03*
D160*
X14635Y19633D03*
D161*
X14555Y19653D03*
D162*
X14505Y19663D03*
D163*
X14470Y19673D03*
X15020Y20773D03*
D164*
X14425Y19683D03*
D165*
X15745Y19743D03*
X15465Y20913D03*
D166*
X15715Y19753D03*
D167*
X15585Y19783D03*
X15505Y19793D03*
X15435Y19803D03*
X15285Y19823D03*
D168*
X16130Y20433D03*
X14710Y20883D03*
D169*
X15045Y20743D03*
X15735Y20773D03*
X16075Y20483D03*
D170*
X15065Y20643D03*
X14705Y20923D03*
D171*
X15035Y20763D03*
D172*
X14445Y20763D03*
X15735Y20793D03*
D173*
X14825Y20793D03*
D174*
X14845Y20803D03*
D175*
X14710Y20833D03*
D176*
X14705Y20843D03*
D177*
X14705Y20853D03*
D178*
X14705Y20873D03*
D179*
X16287Y18277D02*
X16287Y17970D01*
X16440Y18124D02*
X16133Y18124D01*
X16133Y14524D02*
X16440Y14524D01*
D180*
X11820Y16030D02*
X11503Y15998D01*
X11469Y15891D01*
X11417Y15791D01*
X11619Y15544D01*
X11449Y15374D01*
X11202Y15576D01*
X11102Y15525D01*
X10961Y15866D01*
X11014Y15894D01*
X11061Y15933D01*
X11099Y15979D01*
X11128Y16032D01*
X11145Y16090D01*
X11151Y16150D01*
X11145Y16213D01*
X11125Y16273D01*
X11094Y16328D01*
X11053Y16376D01*
X11002Y16413D01*
X10945Y16440D01*
X10884Y16455D01*
X10820Y16457D01*
X10758Y16446D01*
X10700Y16422D01*
X10647Y16387D01*
X10603Y16342D01*
X10569Y16289D01*
X10546Y16230D01*
X10536Y16167D01*
X10539Y16104D01*
X10555Y16043D01*
X10583Y15986D01*
X10622Y15937D01*
X10670Y15896D01*
X10726Y15866D01*
X10584Y15525D01*
X10485Y15576D01*
X10237Y15374D01*
X10068Y15544D01*
X10270Y15791D01*
X10218Y15891D01*
X10184Y15998D01*
X9867Y16030D01*
X9867Y16270D01*
X10184Y16302D01*
X10218Y16409D01*
X10270Y16509D01*
X10068Y16756D01*
X10237Y16926D01*
X10485Y16724D01*
X10584Y16775D01*
X10691Y16809D01*
X10723Y17127D01*
X10963Y17127D01*
X10996Y16809D01*
X11102Y16775D01*
X11202Y16724D01*
X11449Y16926D01*
X11619Y16756D01*
X11417Y16509D01*
X11469Y16409D01*
X11503Y16302D01*
X11820Y16270D01*
X11820Y16030D01*
X11820Y16055D02*
X11135Y16055D01*
X11147Y16113D02*
X11820Y16113D01*
X11820Y16170D02*
X11149Y16170D01*
X11140Y16228D02*
X11820Y16228D01*
X11669Y16285D02*
X11118Y16285D01*
X11081Y16343D02*
X11490Y16343D01*
X11471Y16400D02*
X11020Y16400D01*
X10667Y16400D02*
X10216Y16400D01*
X10197Y16343D02*
X10604Y16343D01*
X10568Y16285D02*
X10018Y16285D01*
X9867Y16228D02*
X10546Y16228D01*
X10537Y16170D02*
X9867Y16170D01*
X9867Y16113D02*
X10539Y16113D01*
X10552Y16055D02*
X9867Y16055D01*
X10184Y15998D02*
X10577Y15998D01*
X10619Y15940D02*
X10203Y15940D01*
X10223Y15882D02*
X10695Y15882D01*
X10709Y15825D02*
X10252Y15825D01*
X10250Y15767D02*
X10685Y15767D01*
X10661Y15710D02*
X10203Y15710D01*
X10156Y15652D02*
X10637Y15652D01*
X10613Y15595D02*
X10109Y15595D01*
X10075Y15537D02*
X10437Y15537D01*
X10366Y15480D02*
X10132Y15480D01*
X10190Y15422D02*
X10296Y15422D01*
X10561Y15537D02*
X10590Y15537D01*
X11026Y15710D02*
X11484Y15710D01*
X11437Y15767D02*
X11002Y15767D01*
X10978Y15825D02*
X11435Y15825D01*
X11464Y15882D02*
X10992Y15882D01*
X11067Y15940D02*
X11484Y15940D01*
X11503Y15998D02*
X11109Y15998D01*
X11050Y15652D02*
X11531Y15652D01*
X11578Y15595D02*
X11073Y15595D01*
X11097Y15537D02*
X11126Y15537D01*
X11250Y15537D02*
X11612Y15537D01*
X11555Y15480D02*
X11321Y15480D01*
X11391Y15422D02*
X11497Y15422D01*
X11443Y16458D02*
X10244Y16458D01*
X10264Y16516D02*
X11423Y16516D01*
X11470Y16573D02*
X10217Y16573D01*
X10170Y16631D02*
X11517Y16631D01*
X11564Y16688D02*
X10123Y16688D01*
X10076Y16746D02*
X10458Y16746D01*
X10527Y16746D02*
X11160Y16746D01*
X11229Y16746D02*
X11611Y16746D01*
X11572Y16803D02*
X11299Y16803D01*
X11370Y16861D02*
X11514Y16861D01*
X11457Y16918D02*
X11441Y16918D01*
X11015Y16803D02*
X10672Y16803D01*
X10696Y16861D02*
X10990Y16861D01*
X10985Y16918D02*
X10702Y16918D01*
X10708Y16976D02*
X10979Y16976D01*
X10973Y17034D02*
X10714Y17034D01*
X10720Y17091D02*
X10967Y17091D01*
X10387Y16803D02*
X10115Y16803D01*
X10173Y16861D02*
X10317Y16861D01*
X10246Y16918D02*
X10230Y16918D01*
D181*
X5329Y18095D02*
X5411Y18285D01*
X5502Y18471D01*
X5602Y18653D01*
X5710Y18829D01*
X5827Y19000D01*
X5952Y19165D01*
X6086Y19324D01*
X6226Y19476D01*
X6374Y19621D01*
X6529Y19759D01*
X6691Y19888D01*
X6858Y20010D01*
X7032Y20124D01*
X7210Y20228D01*
X7394Y20324D01*
X7582Y20411D01*
X7774Y20489D01*
X7970Y20557D01*
X8169Y20616D01*
X8370Y20664D01*
X8574Y20703D01*
X8779Y20732D01*
X8985Y20751D01*
X9192Y20759D01*
X9399Y20758D01*
X9606Y20746D01*
X9812Y20725D01*
X10017Y20693D01*
X10220Y20651D01*
X10421Y20600D01*
X10618Y20539D01*
X10813Y20468D01*
X11004Y20387D01*
X11191Y20298D01*
X11373Y20199D01*
X11550Y20092D01*
X11722Y19976D01*
X11888Y19852D01*
X12048Y19720D01*
X12201Y19580D01*
X12347Y19433D01*
X12485Y19279D01*
X12616Y19119D01*
X12739Y18952D01*
X12854Y18779D01*
X12960Y18601D01*
X13057Y18418D01*
X13145Y18231D01*
X13224Y18039D01*
X13294Y17844D01*
X13354Y17646D01*
X13404Y17445D01*
X13444Y17242D01*
X13474Y17037D01*
X13495Y16831D01*
X13505Y16624D01*
X13505Y16416D01*
X13495Y16209D01*
X13474Y16003D01*
X13444Y15798D01*
X13404Y15595D01*
X13354Y15394D01*
X13294Y15196D01*
X13224Y15001D01*
X13145Y14809D01*
X13057Y14622D01*
X12960Y14439D01*
X12854Y14261D01*
X12739Y14088D01*
X12616Y13921D01*
X12485Y13761D01*
X12347Y13607D01*
X12201Y13460D01*
X12048Y13320D01*
X11888Y13188D01*
X11722Y13064D01*
X11550Y12948D01*
X11373Y12841D01*
X11191Y12742D01*
X11004Y12653D01*
X10813Y12572D01*
X10618Y12501D01*
X10421Y12440D01*
X10220Y12389D01*
X10017Y12347D01*
X9812Y12315D01*
X9606Y12294D01*
X9399Y12282D01*
X9192Y12281D01*
X8985Y12289D01*
X8779Y12308D01*
X8574Y12337D01*
X8370Y12376D01*
X8169Y12424D01*
X7970Y12483D01*
X7774Y12551D01*
X7582Y12629D01*
X7394Y12716D01*
X7210Y12812D01*
X7032Y12916D01*
X6858Y13030D01*
X6691Y13152D01*
X6529Y13281D01*
X6374Y13419D01*
X6226Y13564D01*
X6086Y13716D01*
X5952Y13875D01*
X5827Y14040D01*
X5710Y14211D01*
X5602Y14387D01*
X5502Y14569D01*
X5411Y14755D01*
X5329Y14945D01*
X4148Y14945D01*
X4148Y18095D01*
X5329Y18095D01*
M02*
