%
M48
M72
T01C0.0236
T02C0.0320
T03C0.0394
T04C0.0400
T05C0.0472
T06C0.0512
T07C0.0591
T08C0.1250
T09C0.1300
%
T01
X2301Y4396
X1014Y4883
X4814Y6783
X5714Y7183
X6564Y6783
X7014Y7583
X8614Y7283
X9114Y6583
X9514Y6083
X10514Y5183
X11114Y5183
X12651Y6289
X12309Y7086
X12007Y7677
X10964Y7933
X9514Y7983
X8714Y7983
X7517Y9780
X9514Y10633
X12114Y10078
X14814Y8183
X14414Y6833
X15598Y6418
X16136Y6407
X14214Y5883
X16484Y4941
X17370Y4154
X15500Y3465
X14968Y3485
X14320Y3483
X14976Y4339
X11137Y3453
X8468Y3112
X7102Y2371
X7102Y3945
X7941Y4339
X7939Y4880
X6614Y4733
X1014Y7883
X17370Y8682
X824Y14197
X3724Y13897
X4752Y16325
X6174Y16947
X7424Y18447
X3324Y17397
X7324Y13997
X12600Y18547
X16975Y18547
X17225Y15797
T02
X12592Y9612
X12592Y10612
T03
X13828Y7563
X15600Y7563
X15600Y5004
X13828Y5004
T04
X16551Y3847
X16545Y2759
X15545Y2759
X14545Y2759
X13545Y2759
X12545Y2759
X11545Y2759
X17228Y4899
X18228Y4899
X18228Y5899
X17228Y5899
X17228Y6899
X18228Y6899
X18228Y7899
X17228Y7899
X16551Y8965
X6058Y10062
X5058Y10062
X4058Y10062
X3058Y10062
X2534Y7373
X2534Y6373
X2534Y5373
X8124Y14797
X8124Y15797
X8124Y16797
X8124Y17797
X6224Y19697
X5224Y19697
X4224Y19697
X3224Y19697
X3224Y12897
X4224Y12897
X5224Y12897
X6224Y12897
X18100Y15797
X18100Y16797
X18100Y17797
X18100Y14797
X11350Y14797
X11350Y15797
X11350Y16797
X11350Y17797
T05
X1531Y4434
X547Y4434
X3500Y6402
X1531Y8371
X547Y8371
T06
X5414Y4512
X12233Y8449
T07
X3500Y8371
X3500Y7386
X1531Y6402
X3500Y5418
X3500Y4434
T08
X1349Y12922
X1349Y19672
X8099Y19672
X8099Y12922
X11350Y12922
X11350Y19672
X18100Y19672
X18100Y12922
T09
X1489Y2958
X1489Y9854
X18027Y9851
X18030Y2958
M30
