G75*
G70*
%OFA0B0*%
%FSLAX24Y24*%
%IPPOS*%
%LPD*%
%AMOC8*
5,1,8,0,0,1.08239X$1,22.5*
%
%ADD10C,0.0000*%
%ADD11C,0.0000*%
%ADD12C,0.0050*%
%ADD13C,0.0060*%
%ADD14R,0.0110X0.0005*%
%ADD15R,0.0210X0.0005*%
%ADD16R,0.0280X0.0005*%
%ADD17R,0.0325X0.0005*%
%ADD18R,0.0365X0.0005*%
%ADD19R,0.0410X0.0005*%
%ADD20R,0.0440X0.0005*%
%ADD21R,0.0470X0.0005*%
%ADD22R,0.0505X0.0005*%
%ADD23R,0.0530X0.0005*%
%ADD24R,0.0555X0.0005*%
%ADD25R,0.0580X0.0005*%
%ADD26R,0.0600X0.0005*%
%ADD27R,0.0625X0.0005*%
%ADD28R,0.0645X0.0005*%
%ADD29R,0.0665X0.0005*%
%ADD30R,0.0685X0.0005*%
%ADD31R,0.0705X0.0005*%
%ADD32R,0.0715X0.0005*%
%ADD33R,0.0735X0.0005*%
%ADD34R,0.0755X0.0005*%
%ADD35R,0.0090X0.0005*%
%ADD36R,0.0770X0.0005*%
%ADD37R,0.0190X0.0005*%
%ADD38R,0.0355X0.0005*%
%ADD39R,0.0360X0.0005*%
%ADD40R,0.0260X0.0005*%
%ADD41R,0.0315X0.0005*%
%ADD42R,0.0320X0.0005*%
%ADD43R,0.0295X0.0005*%
%ADD44R,0.0275X0.0005*%
%ADD45R,0.0400X0.0005*%
%ADD46R,0.0265X0.0005*%
%ADD47R,0.0435X0.0005*%
%ADD48R,0.0255X0.0005*%
%ADD49R,0.0465X0.0005*%
%ADD50R,0.0245X0.0005*%
%ADD51R,0.0495X0.0005*%
%ADD52R,0.0235X0.0005*%
%ADD53R,0.0525X0.0005*%
%ADD54R,0.0230X0.0005*%
%ADD55R,0.0240X0.0005*%
%ADD56R,0.0545X0.0005*%
%ADD57R,0.0820X0.0005*%
%ADD58R,0.0220X0.0005*%
%ADD59R,0.0025X0.0005*%
%ADD60R,0.0795X0.0005*%
%ADD61R,0.0215X0.0005*%
%ADD62R,0.0035X0.0005*%
%ADD63R,0.0040X0.0005*%
%ADD64R,0.0800X0.0005*%
%ADD65R,0.0205X0.0005*%
%ADD66R,0.0050X0.0005*%
%ADD67R,0.0805X0.0005*%
%ADD68R,0.0165X0.0005*%
%ADD69R,0.0055X0.0005*%
%ADD70R,0.0200X0.0005*%
%ADD71R,0.0060X0.0005*%
%ADD72R,0.0300X0.0005*%
%ADD73R,0.0195X0.0005*%
%ADD74R,0.0065X0.0005*%
%ADD75R,0.0345X0.0005*%
%ADD76R,0.0070X0.0005*%
%ADD77R,0.0385X0.0005*%
%ADD78R,0.0080X0.0005*%
%ADD79R,0.0425X0.0005*%
%ADD80R,0.0185X0.0005*%
%ADD81R,0.0085X0.0005*%
%ADD82R,0.0635X0.0005*%
%ADD83R,0.0810X0.0005*%
%ADD84R,0.0095X0.0005*%
%ADD85R,0.0335X0.0005*%
%ADD86R,0.0655X0.0005*%
%ADD87R,0.0105X0.0005*%
%ADD88R,0.0290X0.0005*%
%ADD89R,0.0660X0.0005*%
%ADD90R,0.0115X0.0005*%
%ADD91R,0.0285X0.0005*%
%ADD92R,0.0120X0.0005*%
%ADD93R,0.0270X0.0005*%
%ADD94R,0.0675X0.0005*%
%ADD95R,0.0130X0.0005*%
%ADD96R,0.0680X0.0005*%
%ADD97R,0.0135X0.0005*%
%ADD98R,0.0250X0.0005*%
%ADD99R,0.0140X0.0005*%
%ADD100R,0.0180X0.0005*%
%ADD101R,0.0695X0.0005*%
%ADD102R,0.0150X0.0005*%
%ADD103R,0.0160X0.0005*%
%ADD104R,0.0155X0.0005*%
%ADD105R,0.0145X0.0005*%
%ADD106R,0.0700X0.0005*%
%ADD107R,0.0225X0.0005*%
%ADD108R,0.0170X0.0005*%
%ADD109R,0.0100X0.0005*%
%ADD110R,0.0075X0.0005*%
%ADD111R,0.0720X0.0005*%
%ADD112R,0.0725X0.0005*%
%ADD113R,0.0340X0.0005*%
%ADD114R,0.0305X0.0005*%
%ADD115R,0.0175X0.0005*%
%ADD116R,0.0005X0.0005*%
%ADD117R,0.0010X0.0005*%
%ADD118R,0.0015X0.0005*%
%ADD119R,0.0020X0.0005*%
%ADD120R,0.0030X0.0005*%
%ADD121R,0.0125X0.0005*%
%ADD122R,0.0045X0.0005*%
%ADD123R,0.0370X0.0005*%
%ADD124R,0.0375X0.0005*%
%ADD125R,0.0350X0.0005*%
%ADD126R,0.0330X0.0005*%
%ADD127R,0.0485X0.0005*%
%ADD128R,0.0480X0.0005*%
%ADD129R,0.0460X0.0005*%
%ADD130R,0.0445X0.0005*%
%ADD131R,0.0310X0.0005*%
%ADD132R,0.0380X0.0005*%
%ADD133R,0.0415X0.0005*%
%ADD134R,0.0450X0.0005*%
%ADD135R,0.0490X0.0005*%
%ADD136R,0.0965X0.0005*%
%ADD137R,0.0975X0.0005*%
%ADD138R,0.0980X0.0005*%
%ADD139R,0.0990X0.0005*%
%ADD140R,0.1005X0.0005*%
%ADD141R,0.0615X0.0005*%
%ADD142R,0.0640X0.0005*%
%ADD143R,0.0605X0.0005*%
%ADD144R,0.0620X0.0005*%
%ADD145R,0.0590X0.0005*%
%ADD146R,0.0570X0.0005*%
%ADD147R,0.0540X0.0005*%
%ADD148R,0.0515X0.0005*%
%ADD149R,0.0565X0.0005*%
%ADD150R,0.0535X0.0005*%
%ADD151R,0.0395X0.0005*%
%ADD152R,0.0520X0.0005*%
%ADD153R,0.0500X0.0005*%
%ADD154R,0.0430X0.0005*%
%ADD155C,0.0080*%
%ADD156R,0.0079X0.0079*%
%ADD157C,0.0160*%
%ADD158R,0.0230X0.0160*%
%ADD159C,0.0100*%
%ADD160C,0.0080*%
%ADD161C,0.0060*%
%ADD162C,0.0050*%
%ADD163C,0.0000*%
%ADD164C,0.0120*%
%ADD165C,0.0070*%
%ADD166C,0.0000*%
%ADD167C,0.0060*%
%ADD168C,0.0120*%
%ADD169C,0.0080*%
%ADD170C,0.0040*%
%ADD171C,0.0100*%
%ADD172C,0.0050*%
D10*
X001489Y001583D02*
X001492Y001583D01*
X018027Y001583D01*
X018030Y001583D01*
X018027Y001583D02*
X018099Y001585D01*
X018171Y001591D01*
X018243Y001600D01*
X018314Y001613D01*
X018384Y001630D01*
X018453Y001650D01*
X018521Y001675D01*
X018587Y001702D01*
X018653Y001733D01*
X018716Y001768D01*
X018778Y001805D01*
X018837Y001846D01*
X018894Y001890D01*
X018949Y001937D01*
X019001Y001987D01*
X019051Y002039D01*
X019098Y002094D01*
X019142Y002151D01*
X019183Y002210D01*
X019220Y002272D01*
X019255Y002335D01*
X019286Y002401D01*
X019313Y002467D01*
X019338Y002535D01*
X019358Y002604D01*
X019375Y002674D01*
X019388Y002745D01*
X019397Y002817D01*
X019403Y002889D01*
X019405Y002961D01*
X019405Y009851D01*
X019403Y009923D01*
X019397Y009995D01*
X019388Y010067D01*
X019375Y010138D01*
X019358Y010208D01*
X019338Y010277D01*
X019313Y010345D01*
X019286Y010411D01*
X019255Y010477D01*
X019220Y010540D01*
X019183Y010602D01*
X019142Y010661D01*
X019098Y010718D01*
X019051Y010773D01*
X019001Y010825D01*
X018949Y010875D01*
X018894Y010922D01*
X018837Y010966D01*
X018778Y011007D01*
X018716Y011044D01*
X018653Y011079D01*
X018587Y011110D01*
X018521Y011137D01*
X018453Y011162D01*
X018384Y011182D01*
X018314Y011199D01*
X018243Y011212D01*
X018171Y011221D01*
X018099Y011227D01*
X018027Y011229D01*
X007988Y011229D01*
X007988Y011672D01*
X008100Y011672D01*
X007397Y011672D02*
X007397Y011229D01*
X001492Y011229D01*
X001489Y011229D01*
X001350Y011672D02*
X007397Y011672D01*
X008100Y011672D02*
X008166Y011670D01*
X008232Y011672D01*
X008298Y011678D01*
X008364Y011687D01*
X008429Y011700D01*
X008494Y011717D01*
X008557Y011737D01*
X008619Y011761D01*
X008679Y011788D01*
X008738Y011819D01*
X008796Y011853D01*
X008851Y011890D01*
X008904Y011930D01*
X008954Y011973D01*
X009003Y012018D01*
X009048Y012067D01*
X009091Y012117D01*
X009131Y012170D01*
X009168Y012225D01*
X009202Y012283D01*
X009233Y012342D01*
X009260Y012402D01*
X009284Y012464D01*
X009304Y012527D01*
X009321Y012592D01*
X009334Y012657D01*
X009343Y012723D01*
X009349Y012789D01*
X009351Y012855D01*
X009349Y012921D01*
X009350Y012922D02*
X010100Y012922D01*
X010100Y013672D02*
X010100Y019672D01*
X009350Y019672D02*
X009350Y013672D01*
X010100Y013672D01*
X010100Y012922D02*
X010102Y012854D01*
X010107Y012787D01*
X010116Y012720D01*
X010129Y012653D01*
X010146Y012588D01*
X010165Y012523D01*
X010189Y012459D01*
X010216Y012397D01*
X010246Y012336D01*
X010279Y012278D01*
X010315Y012221D01*
X010355Y012166D01*
X010397Y012113D01*
X010443Y012062D01*
X010490Y012015D01*
X010541Y011969D01*
X010594Y011927D01*
X010649Y011887D01*
X010706Y011851D01*
X010764Y011818D01*
X010825Y011788D01*
X010887Y011761D01*
X010951Y011737D01*
X011016Y011718D01*
X011081Y011701D01*
X011148Y011688D01*
X011215Y011679D01*
X011282Y011674D01*
X011350Y011672D01*
X018100Y011672D01*
X018421Y011229D02*
X018424Y011229D01*
X018100Y011672D02*
X018166Y011670D01*
X018232Y011672D01*
X018298Y011678D01*
X018364Y011687D01*
X018429Y011700D01*
X018494Y011717D01*
X018557Y011737D01*
X018619Y011761D01*
X018679Y011788D01*
X018738Y011819D01*
X018796Y011853D01*
X018851Y011890D01*
X018904Y011930D01*
X018954Y011973D01*
X019003Y012018D01*
X019048Y012067D01*
X019091Y012117D01*
X019131Y012170D01*
X019168Y012225D01*
X019202Y012283D01*
X019233Y012342D01*
X019260Y012402D01*
X019284Y012464D01*
X019304Y012527D01*
X019321Y012592D01*
X019334Y012657D01*
X019343Y012723D01*
X019349Y012789D01*
X019351Y012855D01*
X019349Y012921D01*
X019350Y012922D02*
X019350Y019672D01*
X019348Y019740D01*
X019343Y019807D01*
X019334Y019874D01*
X019321Y019941D01*
X019304Y020006D01*
X019285Y020071D01*
X019261Y020135D01*
X019234Y020197D01*
X019204Y020258D01*
X019171Y020316D01*
X019135Y020373D01*
X019095Y020428D01*
X019053Y020481D01*
X019007Y020532D01*
X018960Y020579D01*
X018909Y020625D01*
X018856Y020667D01*
X018801Y020707D01*
X018744Y020743D01*
X018686Y020776D01*
X018625Y020806D01*
X018563Y020833D01*
X018499Y020857D01*
X018434Y020876D01*
X018369Y020893D01*
X018302Y020906D01*
X018235Y020915D01*
X018168Y020920D01*
X018100Y020922D01*
X018137Y020922D02*
X011350Y020922D01*
X011282Y020920D01*
X011215Y020915D01*
X011148Y020906D01*
X011081Y020893D01*
X011016Y020876D01*
X010951Y020857D01*
X010887Y020833D01*
X010825Y020806D01*
X010764Y020776D01*
X010706Y020743D01*
X010649Y020707D01*
X010594Y020667D01*
X010541Y020625D01*
X010490Y020579D01*
X010443Y020532D01*
X010397Y020481D01*
X010355Y020428D01*
X010315Y020373D01*
X010279Y020316D01*
X010246Y020258D01*
X010216Y020197D01*
X010189Y020135D01*
X010165Y020071D01*
X010146Y020006D01*
X010129Y019941D01*
X010116Y019874D01*
X010107Y019807D01*
X010102Y019740D01*
X010100Y019672D01*
X009350Y019672D02*
X009348Y019740D01*
X009343Y019807D01*
X009334Y019874D01*
X009321Y019941D01*
X009304Y020006D01*
X009285Y020071D01*
X009261Y020135D01*
X009234Y020197D01*
X009204Y020258D01*
X009171Y020316D01*
X009135Y020373D01*
X009095Y020428D01*
X009053Y020481D01*
X009007Y020532D01*
X008960Y020579D01*
X008909Y020625D01*
X008856Y020667D01*
X008801Y020707D01*
X008744Y020743D01*
X008686Y020776D01*
X008625Y020806D01*
X008563Y020833D01*
X008499Y020857D01*
X008434Y020876D01*
X008369Y020893D01*
X008302Y020906D01*
X008235Y020915D01*
X008168Y020920D01*
X008100Y020922D01*
X001350Y020922D01*
X001282Y020920D01*
X001215Y020915D01*
X001148Y020906D01*
X001081Y020893D01*
X001016Y020876D01*
X000951Y020857D01*
X000887Y020833D01*
X000825Y020806D01*
X000764Y020776D01*
X000706Y020743D01*
X000649Y020707D01*
X000594Y020667D01*
X000541Y020625D01*
X000490Y020579D01*
X000443Y020532D01*
X000397Y020481D01*
X000355Y020428D01*
X000315Y020373D01*
X000279Y020316D01*
X000246Y020258D01*
X000216Y020197D01*
X000189Y020135D01*
X000165Y020071D01*
X000146Y020006D01*
X000129Y019941D01*
X000116Y019874D01*
X000107Y019807D01*
X000102Y019740D01*
X000100Y019672D01*
X000100Y012922D01*
X000102Y012854D01*
X000107Y012787D01*
X000116Y012720D01*
X000129Y012653D01*
X000146Y012588D01*
X000165Y012523D01*
X000189Y012459D01*
X000216Y012397D01*
X000246Y012336D01*
X000279Y012278D01*
X000315Y012221D01*
X000355Y012166D01*
X000397Y012113D01*
X000443Y012062D01*
X000490Y012015D01*
X000541Y011969D01*
X000594Y011927D01*
X000649Y011887D01*
X000706Y011851D01*
X000764Y011818D01*
X000825Y011788D01*
X000887Y011761D01*
X000951Y011737D01*
X001016Y011718D01*
X001081Y011701D01*
X001148Y011688D01*
X001215Y011679D01*
X001282Y011674D01*
X001350Y011672D01*
X001492Y011229D02*
X001420Y011227D01*
X001348Y011221D01*
X001276Y011212D01*
X001205Y011199D01*
X001135Y011182D01*
X001066Y011162D01*
X000998Y011137D01*
X000932Y011110D01*
X000866Y011079D01*
X000803Y011044D01*
X000741Y011007D01*
X000682Y010966D01*
X000625Y010922D01*
X000570Y010875D01*
X000518Y010825D01*
X000468Y010773D01*
X000421Y010718D01*
X000377Y010661D01*
X000336Y010602D01*
X000299Y010540D01*
X000264Y010477D01*
X000233Y010411D01*
X000206Y010345D01*
X000181Y010277D01*
X000161Y010208D01*
X000144Y010138D01*
X000131Y010067D01*
X000122Y009995D01*
X000116Y009923D01*
X000114Y009851D01*
X000114Y009854D01*
X000114Y009851D02*
X000114Y003001D01*
X000114Y002958D01*
X000113Y003001D02*
X000114Y002928D01*
X000119Y002854D01*
X000127Y002782D01*
X000140Y002710D01*
X000156Y002638D01*
X000175Y002568D01*
X000199Y002498D01*
X000226Y002430D01*
X000257Y002364D01*
X000291Y002299D01*
X000328Y002236D01*
X000369Y002175D01*
X000412Y002117D01*
X000459Y002060D01*
X000509Y002006D01*
X000561Y001955D01*
X000616Y001907D01*
X000673Y001862D01*
X000733Y001819D01*
X000795Y001780D01*
X000859Y001744D01*
X000924Y001712D01*
X000992Y001683D01*
X001060Y001658D01*
X001130Y001636D01*
X001201Y001618D01*
X001273Y001603D01*
X001345Y001593D01*
X001418Y001586D01*
X001491Y001583D01*
X018027Y021072D02*
X018030Y021072D01*
D11*
X1489Y1583D02*
X1492Y1583D01*
X18027Y1583D01*
X18030Y1583D01*
X17380Y2958D02*
X17382Y3008D01*
X17388Y3058D01*
X17398Y3108D01*
X17411Y3156D01*
X17428Y3204D01*
X17449Y3250D01*
X17473Y3294D01*
X17501Y3336D01*
X17532Y3376D01*
X17566Y3413D01*
X17603Y3448D01*
X17642Y3479D01*
X17683Y3508D01*
X17727Y3533D01*
X17773Y3555D01*
X17820Y3573D01*
X17868Y3587D01*
X17917Y3598D01*
X17967Y3605D01*
X18017Y3608D01*
X18068Y3607D01*
X18118Y3602D01*
X18168Y3593D01*
X18216Y3581D01*
X18264Y3564D01*
X18310Y3544D01*
X18355Y3521D01*
X18398Y3494D01*
X18438Y3464D01*
X18476Y3431D01*
X18511Y3395D01*
X18544Y3356D01*
X18573Y3315D01*
X18599Y3272D01*
X18622Y3227D01*
X18641Y3180D01*
X18656Y3132D01*
X18668Y3083D01*
X18676Y3033D01*
X18680Y2983D01*
X18680Y2933D01*
X18676Y2883D01*
X18668Y2833D01*
X18656Y2784D01*
X18641Y2736D01*
X18622Y2689D01*
X18599Y2644D01*
X18573Y2601D01*
X18544Y2560D01*
X18511Y2521D01*
X18476Y2485D01*
X18438Y2452D01*
X18398Y2422D01*
X18355Y2395D01*
X18310Y2372D01*
X18264Y2352D01*
X18216Y2335D01*
X18168Y2323D01*
X18118Y2314D01*
X18068Y2309D01*
X18017Y2308D01*
X17967Y2311D01*
X17917Y2318D01*
X17868Y2329D01*
X17820Y2343D01*
X17773Y2361D01*
X17727Y2383D01*
X17683Y2408D01*
X17642Y2437D01*
X17603Y2468D01*
X17566Y2503D01*
X17532Y2540D01*
X17501Y2580D01*
X17473Y2622D01*
X17449Y2666D01*
X17428Y2712D01*
X17411Y2760D01*
X17398Y2808D01*
X17388Y2858D01*
X17382Y2908D01*
X17380Y2958D01*
X18027Y1583D02*
X18099Y1585D01*
X18171Y1591D01*
X18243Y1600D01*
X18314Y1613D01*
X18384Y1630D01*
X18453Y1650D01*
X18521Y1675D01*
X18587Y1702D01*
X18653Y1733D01*
X18716Y1768D01*
X18778Y1805D01*
X18837Y1846D01*
X18894Y1890D01*
X18949Y1937D01*
X19001Y1987D01*
X19051Y2039D01*
X19098Y2094D01*
X19142Y2151D01*
X19183Y2210D01*
X19220Y2272D01*
X19255Y2335D01*
X19286Y2401D01*
X19313Y2467D01*
X19338Y2535D01*
X19358Y2604D01*
X19375Y2674D01*
X19388Y2745D01*
X19397Y2817D01*
X19403Y2889D01*
X19405Y2961D01*
X19405Y9851D01*
X17377Y9851D02*
X17379Y9901D01*
X17385Y9951D01*
X17395Y10001D01*
X17408Y10049D01*
X17425Y10097D01*
X17446Y10143D01*
X17470Y10187D01*
X17498Y10229D01*
X17529Y10269D01*
X17563Y10306D01*
X17600Y10341D01*
X17639Y10372D01*
X17680Y10401D01*
X17724Y10426D01*
X17770Y10448D01*
X17817Y10466D01*
X17865Y10480D01*
X17914Y10491D01*
X17964Y10498D01*
X18014Y10501D01*
X18065Y10500D01*
X18115Y10495D01*
X18165Y10486D01*
X18213Y10474D01*
X18261Y10457D01*
X18307Y10437D01*
X18352Y10414D01*
X18395Y10387D01*
X18435Y10357D01*
X18473Y10324D01*
X18508Y10288D01*
X18541Y10249D01*
X18570Y10208D01*
X18596Y10165D01*
X18619Y10120D01*
X18638Y10073D01*
X18653Y10025D01*
X18665Y9976D01*
X18673Y9926D01*
X18677Y9876D01*
X18677Y9826D01*
X18673Y9776D01*
X18665Y9726D01*
X18653Y9677D01*
X18638Y9629D01*
X18619Y9582D01*
X18596Y9537D01*
X18570Y9494D01*
X18541Y9453D01*
X18508Y9414D01*
X18473Y9378D01*
X18435Y9345D01*
X18395Y9315D01*
X18352Y9288D01*
X18307Y9265D01*
X18261Y9245D01*
X18213Y9228D01*
X18165Y9216D01*
X18115Y9207D01*
X18065Y9202D01*
X18014Y9201D01*
X17964Y9204D01*
X17914Y9211D01*
X17865Y9222D01*
X17817Y9236D01*
X17770Y9254D01*
X17724Y9276D01*
X17680Y9301D01*
X17639Y9330D01*
X17600Y9361D01*
X17563Y9396D01*
X17529Y9433D01*
X17498Y9473D01*
X17470Y9515D01*
X17446Y9559D01*
X17425Y9605D01*
X17408Y9653D01*
X17395Y9701D01*
X17385Y9751D01*
X17379Y9801D01*
X17377Y9851D01*
X18027Y11229D02*
X18099Y11227D01*
X18171Y11221D01*
X18243Y11212D01*
X18314Y11199D01*
X18384Y11182D01*
X18453Y11162D01*
X18521Y11137D01*
X18587Y11110D01*
X18653Y11079D01*
X18716Y11044D01*
X18778Y11007D01*
X18837Y10966D01*
X18894Y10922D01*
X18949Y10875D01*
X19001Y10825D01*
X19051Y10773D01*
X19098Y10718D01*
X19142Y10661D01*
X19183Y10602D01*
X19220Y10540D01*
X19255Y10477D01*
X19286Y10411D01*
X19313Y10345D01*
X19338Y10277D01*
X19358Y10208D01*
X19375Y10138D01*
X19388Y10067D01*
X19397Y9995D01*
X19403Y9923D01*
X19405Y9851D01*
X18027Y11229D02*
X1492Y11229D01*
X839Y9854D02*
X841Y9904D01*
X847Y9954D01*
X857Y10004D01*
X870Y10052D01*
X887Y10100D01*
X908Y10146D01*
X932Y10190D01*
X960Y10232D01*
X991Y10272D01*
X1025Y10309D01*
X1062Y10344D01*
X1101Y10375D01*
X1142Y10404D01*
X1186Y10429D01*
X1232Y10451D01*
X1279Y10469D01*
X1327Y10483D01*
X1376Y10494D01*
X1426Y10501D01*
X1476Y10504D01*
X1527Y10503D01*
X1577Y10498D01*
X1627Y10489D01*
X1675Y10477D01*
X1723Y10460D01*
X1769Y10440D01*
X1814Y10417D01*
X1857Y10390D01*
X1897Y10360D01*
X1935Y10327D01*
X1970Y10291D01*
X2003Y10252D01*
X2032Y10211D01*
X2058Y10168D01*
X2081Y10123D01*
X2100Y10076D01*
X2115Y10028D01*
X2127Y9979D01*
X2135Y9929D01*
X2139Y9879D01*
X2139Y9829D01*
X2135Y9779D01*
X2127Y9729D01*
X2115Y9680D01*
X2100Y9632D01*
X2081Y9585D01*
X2058Y9540D01*
X2032Y9497D01*
X2003Y9456D01*
X1970Y9417D01*
X1935Y9381D01*
X1897Y9348D01*
X1857Y9318D01*
X1814Y9291D01*
X1769Y9268D01*
X1723Y9248D01*
X1675Y9231D01*
X1627Y9219D01*
X1577Y9210D01*
X1527Y9205D01*
X1476Y9204D01*
X1426Y9207D01*
X1376Y9214D01*
X1327Y9225D01*
X1279Y9239D01*
X1232Y9257D01*
X1186Y9279D01*
X1142Y9304D01*
X1101Y9333D01*
X1062Y9364D01*
X1025Y9399D01*
X991Y9436D01*
X960Y9476D01*
X932Y9518D01*
X908Y9562D01*
X887Y9608D01*
X870Y9656D01*
X857Y9704D01*
X847Y9754D01*
X841Y9804D01*
X839Y9854D01*
X114Y9851D02*
X116Y9923D01*
X122Y9995D01*
X131Y10067D01*
X144Y10138D01*
X161Y10208D01*
X181Y10277D01*
X206Y10345D01*
X233Y10411D01*
X264Y10477D01*
X299Y10540D01*
X336Y10602D01*
X377Y10661D01*
X421Y10718D01*
X468Y10773D01*
X518Y10825D01*
X570Y10875D01*
X625Y10922D01*
X682Y10966D01*
X741Y11007D01*
X803Y11044D01*
X866Y11079D01*
X932Y11110D01*
X998Y11137D01*
X1066Y11162D01*
X1135Y11182D01*
X1205Y11199D01*
X1276Y11212D01*
X1348Y11221D01*
X1420Y11227D01*
X1492Y11229D01*
X114Y9854D02*
X114Y9851D01*
X114Y3001D01*
X114Y2958D01*
X839Y2958D02*
X841Y3008D01*
X847Y3058D01*
X857Y3108D01*
X870Y3156D01*
X887Y3204D01*
X908Y3250D01*
X932Y3294D01*
X960Y3336D01*
X991Y3376D01*
X1025Y3413D01*
X1062Y3448D01*
X1101Y3479D01*
X1142Y3508D01*
X1186Y3533D01*
X1232Y3555D01*
X1279Y3573D01*
X1327Y3587D01*
X1376Y3598D01*
X1426Y3605D01*
X1476Y3608D01*
X1527Y3607D01*
X1577Y3602D01*
X1627Y3593D01*
X1675Y3581D01*
X1723Y3564D01*
X1769Y3544D01*
X1814Y3521D01*
X1857Y3494D01*
X1897Y3464D01*
X1935Y3431D01*
X1970Y3395D01*
X2003Y3356D01*
X2032Y3315D01*
X2058Y3272D01*
X2081Y3227D01*
X2100Y3180D01*
X2115Y3132D01*
X2127Y3083D01*
X2135Y3033D01*
X2139Y2983D01*
X2139Y2933D01*
X2135Y2883D01*
X2127Y2833D01*
X2115Y2784D01*
X2100Y2736D01*
X2081Y2689D01*
X2058Y2644D01*
X2032Y2601D01*
X2003Y2560D01*
X1970Y2521D01*
X1935Y2485D01*
X1897Y2452D01*
X1857Y2422D01*
X1814Y2395D01*
X1769Y2372D01*
X1723Y2352D01*
X1675Y2335D01*
X1627Y2323D01*
X1577Y2314D01*
X1527Y2309D01*
X1476Y2308D01*
X1426Y2311D01*
X1376Y2318D01*
X1327Y2329D01*
X1279Y2343D01*
X1232Y2361D01*
X1186Y2383D01*
X1142Y2408D01*
X1101Y2437D01*
X1062Y2468D01*
X1025Y2503D01*
X991Y2540D01*
X960Y2580D01*
X932Y2622D01*
X908Y2666D01*
X887Y2712D01*
X870Y2760D01*
X857Y2808D01*
X847Y2858D01*
X841Y2908D01*
X839Y2958D01*
X113Y3001D02*
X114Y2928D01*
X119Y2854D01*
X127Y2782D01*
X140Y2710D01*
X156Y2638D01*
X175Y2568D01*
X199Y2498D01*
X226Y2430D01*
X257Y2364D01*
X291Y2299D01*
X328Y2236D01*
X369Y2175D01*
X412Y2117D01*
X459Y2060D01*
X509Y2006D01*
X561Y1955D01*
X616Y1907D01*
X673Y1862D01*
X733Y1819D01*
X795Y1780D01*
X859Y1744D01*
X924Y1712D01*
X992Y1683D01*
X1060Y1658D01*
X1130Y1636D01*
X1201Y1618D01*
X1273Y1603D01*
X1345Y1593D01*
X1418Y1586D01*
X1491Y1583D01*
X1295Y4434D02*
X1297Y4464D01*
X1303Y4494D01*
X1312Y4523D01*
X1325Y4550D01*
X1342Y4575D01*
X1361Y4598D01*
X1384Y4619D01*
X1409Y4636D01*
X1435Y4650D01*
X1464Y4660D01*
X1493Y4667D01*
X1523Y4670D01*
X1554Y4669D01*
X1584Y4664D01*
X1613Y4655D01*
X1640Y4643D01*
X1666Y4628D01*
X1690Y4609D01*
X1711Y4587D01*
X1729Y4563D01*
X1744Y4536D01*
X1755Y4508D01*
X1763Y4479D01*
X1767Y4449D01*
X1767Y4419D01*
X1763Y4389D01*
X1755Y4360D01*
X1744Y4332D01*
X1729Y4305D01*
X1711Y4281D01*
X1690Y4259D01*
X1666Y4240D01*
X1640Y4225D01*
X1613Y4213D01*
X1584Y4204D01*
X1554Y4199D01*
X1523Y4198D01*
X1493Y4201D01*
X1464Y4208D01*
X1435Y4218D01*
X1409Y4232D01*
X1384Y4249D01*
X1361Y4270D01*
X1342Y4293D01*
X1325Y4318D01*
X1312Y4345D01*
X1303Y4374D01*
X1297Y4404D01*
X1295Y4434D01*
X311Y4434D02*
X313Y4464D01*
X319Y4494D01*
X328Y4523D01*
X341Y4550D01*
X358Y4575D01*
X377Y4598D01*
X400Y4619D01*
X425Y4636D01*
X451Y4650D01*
X480Y4660D01*
X509Y4667D01*
X539Y4670D01*
X570Y4669D01*
X600Y4664D01*
X629Y4655D01*
X656Y4643D01*
X682Y4628D01*
X706Y4609D01*
X727Y4587D01*
X745Y4563D01*
X760Y4536D01*
X771Y4508D01*
X779Y4479D01*
X783Y4449D01*
X783Y4419D01*
X779Y4389D01*
X771Y4360D01*
X760Y4332D01*
X745Y4305D01*
X727Y4281D01*
X706Y4259D01*
X682Y4240D01*
X656Y4225D01*
X629Y4213D01*
X600Y4204D01*
X570Y4199D01*
X539Y4198D01*
X509Y4201D01*
X480Y4208D01*
X451Y4218D01*
X425Y4232D01*
X400Y4249D01*
X377Y4270D01*
X358Y4293D01*
X341Y4318D01*
X328Y4345D01*
X319Y4374D01*
X313Y4404D01*
X311Y4434D01*
X3264Y6402D02*
X3266Y6432D01*
X3272Y6462D01*
X3281Y6491D01*
X3294Y6518D01*
X3311Y6543D01*
X3330Y6566D01*
X3353Y6587D01*
X3378Y6604D01*
X3404Y6618D01*
X3433Y6628D01*
X3462Y6635D01*
X3492Y6638D01*
X3523Y6637D01*
X3553Y6632D01*
X3582Y6623D01*
X3609Y6611D01*
X3635Y6596D01*
X3659Y6577D01*
X3680Y6555D01*
X3698Y6531D01*
X3713Y6504D01*
X3724Y6476D01*
X3732Y6447D01*
X3736Y6417D01*
X3736Y6387D01*
X3732Y6357D01*
X3724Y6328D01*
X3713Y6300D01*
X3698Y6273D01*
X3680Y6249D01*
X3659Y6227D01*
X3635Y6208D01*
X3609Y6193D01*
X3582Y6181D01*
X3553Y6172D01*
X3523Y6167D01*
X3492Y6166D01*
X3462Y6169D01*
X3433Y6176D01*
X3404Y6186D01*
X3378Y6200D01*
X3353Y6217D01*
X3330Y6238D01*
X3311Y6261D01*
X3294Y6286D01*
X3281Y6313D01*
X3272Y6342D01*
X3266Y6372D01*
X3264Y6402D01*
X1295Y8371D02*
X1297Y8401D01*
X1303Y8431D01*
X1312Y8460D01*
X1325Y8487D01*
X1342Y8512D01*
X1361Y8535D01*
X1384Y8556D01*
X1409Y8573D01*
X1435Y8587D01*
X1464Y8597D01*
X1493Y8604D01*
X1523Y8607D01*
X1554Y8606D01*
X1584Y8601D01*
X1613Y8592D01*
X1640Y8580D01*
X1666Y8565D01*
X1690Y8546D01*
X1711Y8524D01*
X1729Y8500D01*
X1744Y8473D01*
X1755Y8445D01*
X1763Y8416D01*
X1767Y8386D01*
X1767Y8356D01*
X1763Y8326D01*
X1755Y8297D01*
X1744Y8269D01*
X1729Y8242D01*
X1711Y8218D01*
X1690Y8196D01*
X1666Y8177D01*
X1640Y8162D01*
X1613Y8150D01*
X1584Y8141D01*
X1554Y8136D01*
X1523Y8135D01*
X1493Y8138D01*
X1464Y8145D01*
X1435Y8155D01*
X1409Y8169D01*
X1384Y8186D01*
X1361Y8207D01*
X1342Y8230D01*
X1325Y8255D01*
X1312Y8282D01*
X1303Y8311D01*
X1297Y8341D01*
X1295Y8371D01*
X311Y8371D02*
X313Y8401D01*
X319Y8431D01*
X328Y8460D01*
X341Y8487D01*
X358Y8512D01*
X377Y8535D01*
X400Y8556D01*
X425Y8573D01*
X451Y8587D01*
X480Y8597D01*
X509Y8604D01*
X539Y8607D01*
X570Y8606D01*
X600Y8601D01*
X629Y8592D01*
X656Y8580D01*
X682Y8565D01*
X706Y8546D01*
X727Y8524D01*
X745Y8500D01*
X760Y8473D01*
X771Y8445D01*
X779Y8416D01*
X783Y8386D01*
X783Y8356D01*
X779Y8326D01*
X771Y8297D01*
X760Y8269D01*
X745Y8242D01*
X727Y8218D01*
X706Y8196D01*
X682Y8177D01*
X656Y8162D01*
X629Y8150D01*
X600Y8141D01*
X570Y8136D01*
X539Y8135D01*
X509Y8138D01*
X480Y8145D01*
X451Y8155D01*
X425Y8169D01*
X400Y8186D01*
X377Y8207D01*
X358Y8230D01*
X341Y8255D01*
X328Y8282D01*
X319Y8311D01*
X313Y8341D01*
X311Y8371D01*
D12*
X550Y7558D02*
X505Y7513D01*
X505Y7333D01*
X550Y7288D01*
X640Y7288D01*
X685Y7333D01*
X685Y7423D01*
X595Y7423D01*
X685Y7513D02*
X640Y7558D01*
X550Y7558D01*
X799Y7558D02*
X980Y7288D01*
X980Y7558D01*
X1094Y7558D02*
X1229Y7558D01*
X1274Y7513D01*
X1274Y7333D01*
X1229Y7288D01*
X1094Y7288D01*
X1094Y7558D01*
X799Y7558D02*
X799Y7288D01*
X839Y6608D02*
X929Y6608D01*
X974Y6563D01*
X974Y6383D01*
X929Y6338D01*
X839Y6338D01*
X794Y6383D01*
X794Y6563D01*
X839Y6608D01*
X680Y6563D02*
X635Y6608D01*
X499Y6608D01*
X499Y6338D01*
X635Y6338D01*
X680Y6383D01*
X680Y6563D01*
X884Y6428D02*
X974Y6338D01*
X935Y5608D02*
X844Y5608D01*
X799Y5563D01*
X799Y5383D01*
X844Y5338D01*
X935Y5338D01*
X980Y5383D01*
X1094Y5383D02*
X1139Y5338D01*
X1229Y5338D01*
X1274Y5383D01*
X1094Y5383D02*
X1094Y5563D01*
X1139Y5608D01*
X1229Y5608D01*
X1274Y5563D01*
X980Y5563D02*
X935Y5608D01*
X685Y5608D02*
X685Y5428D01*
X595Y5338D01*
X505Y5428D01*
X505Y5608D01*
X8148Y5476D02*
X8148Y8291D01*
X9880Y8291D01*
X9880Y5476D01*
X8148Y5476D01*
X8265Y8133D02*
X8267Y8141D01*
X8272Y8148D01*
X8279Y8152D01*
X8287Y8153D01*
X8295Y8150D01*
X8301Y8145D01*
X8305Y8137D01*
X8305Y8129D01*
X8301Y8121D01*
X8295Y8116D01*
X8287Y8113D01*
X8279Y8114D01*
X8272Y8118D01*
X8267Y8125D01*
X8265Y8133D01*
X6387Y10665D02*
X6252Y10665D01*
X6252Y10935D01*
X6387Y10935D01*
X6432Y10890D01*
X6432Y10710D01*
X6387Y10665D01*
X6137Y10665D02*
X6137Y10935D01*
X5957Y10935D02*
X6137Y10665D01*
X5957Y10665D02*
X5957Y10935D01*
X5843Y10890D02*
X5798Y10935D01*
X5708Y10935D01*
X5663Y10890D01*
X5663Y10710D01*
X5708Y10665D01*
X5798Y10665D01*
X5843Y10710D01*
X5843Y10800D01*
X5753Y10800D01*
X5432Y10800D02*
X5252Y10800D01*
X5387Y10935D01*
X5387Y10665D01*
X5137Y10665D02*
X4957Y10665D01*
X5047Y10665D02*
X5047Y10935D01*
X4957Y10845D01*
X4843Y10890D02*
X4798Y10935D01*
X4663Y10935D01*
X4663Y10665D01*
X4663Y10755D02*
X4798Y10755D01*
X4843Y10800D01*
X4843Y10890D01*
X4431Y10890D02*
X4431Y10845D01*
X4385Y10800D01*
X4431Y10755D01*
X4431Y10710D01*
X4385Y10665D01*
X4295Y10665D01*
X4250Y10710D01*
X4136Y10665D02*
X3956Y10665D01*
X4046Y10665D02*
X4046Y10935D01*
X3956Y10845D01*
X3841Y10890D02*
X3841Y10800D01*
X3796Y10755D01*
X3661Y10755D01*
X3661Y10665D02*
X3661Y10935D01*
X3796Y10935D01*
X3841Y10890D01*
X4250Y10890D02*
X4295Y10935D01*
X4385Y10935D01*
X4431Y10890D01*
X4385Y10800D02*
X4340Y10800D01*
X3431Y10890D02*
X3385Y10935D01*
X3295Y10935D01*
X3250Y10890D01*
X3250Y10710D01*
X3295Y10665D01*
X3385Y10665D01*
X3431Y10710D01*
X3136Y10710D02*
X3091Y10665D01*
X3001Y10665D01*
X2956Y10710D01*
X2956Y10890D01*
X3001Y10935D01*
X3091Y10935D01*
X3136Y10890D01*
X2841Y10935D02*
X2841Y10755D01*
X2751Y10665D01*
X2661Y10755D01*
X2661Y10935D01*
X14339Y6478D02*
X14339Y6208D01*
X14474Y6208D01*
X14519Y6253D01*
X14519Y6298D01*
X14474Y6343D01*
X14339Y6343D01*
X14474Y6343D02*
X14519Y6388D01*
X14519Y6433D01*
X14474Y6478D01*
X14339Y6478D01*
X14633Y6478D02*
X14814Y6478D01*
X14723Y6478D02*
X14723Y6208D01*
X14928Y6208D02*
X14928Y6478D01*
X15108Y6208D01*
X15108Y6478D01*
X17861Y4254D02*
X17861Y4074D01*
X17906Y4029D01*
X17996Y4029D01*
X18041Y4074D01*
X18041Y4164D01*
X17951Y4164D01*
X18041Y4254D02*
X17996Y4299D01*
X17906Y4299D01*
X17861Y4254D01*
X18155Y4299D02*
X18336Y4029D01*
X18336Y4299D01*
X18450Y4299D02*
X18585Y4299D01*
X18630Y4254D01*
X18630Y4074D01*
X18585Y4029D01*
X18450Y4029D01*
X18450Y4299D01*
X18155Y4299D02*
X18155Y4029D01*
X16879Y2158D02*
X16744Y2158D01*
X16744Y1888D01*
X16879Y1888D01*
X16924Y1933D01*
X16924Y2113D01*
X16879Y2158D01*
X16630Y2158D02*
X16630Y1888D01*
X16449Y2158D01*
X16449Y1888D01*
X16335Y1933D02*
X16290Y1888D01*
X16200Y1888D01*
X16155Y1933D01*
X16155Y2113D01*
X16200Y2158D01*
X16290Y2158D01*
X16335Y2113D01*
X16335Y2023D02*
X16245Y2023D01*
X16335Y2023D02*
X16335Y1933D01*
X15924Y1933D02*
X15879Y1888D01*
X15789Y1888D01*
X15744Y1933D01*
X15744Y2113D01*
X15789Y2158D01*
X15879Y2158D01*
X15924Y2113D01*
X15630Y2113D02*
X15585Y2158D01*
X15494Y2158D01*
X15449Y2113D01*
X15449Y1933D01*
X15494Y1888D01*
X15585Y1888D01*
X15630Y1933D01*
X15335Y1978D02*
X15335Y2158D01*
X15155Y2158D02*
X15155Y1978D01*
X15245Y1888D01*
X15335Y1978D01*
X14924Y1933D02*
X14879Y1888D01*
X14744Y1888D01*
X14744Y2158D01*
X14879Y2158D01*
X14924Y2113D01*
X14924Y1933D01*
X14630Y1888D02*
X14449Y2158D01*
X14335Y2158D02*
X14155Y2158D01*
X14245Y2158D02*
X14245Y1888D01*
X14449Y1888D02*
X14630Y2158D01*
X13974Y2113D02*
X13974Y1933D01*
X13929Y1888D01*
X13794Y1888D01*
X13794Y2158D01*
X13929Y2158D01*
X13974Y2113D01*
X13680Y2158D02*
X13499Y1888D01*
X13385Y1888D02*
X13295Y1978D01*
X13340Y1978D02*
X13205Y1978D01*
X13205Y1888D02*
X13205Y2158D01*
X13340Y2158D01*
X13385Y2113D01*
X13385Y2023D01*
X13340Y1978D01*
X13499Y2158D02*
X13680Y1888D01*
X12974Y2158D02*
X12794Y2158D01*
X12884Y2158D02*
X12884Y1888D01*
X12680Y1933D02*
X12635Y1888D01*
X12544Y1888D01*
X12499Y1933D01*
X12544Y2023D02*
X12635Y2023D01*
X12680Y1978D01*
X12680Y1933D01*
X12544Y2023D02*
X12499Y2068D01*
X12499Y2113D01*
X12544Y2158D01*
X12635Y2158D01*
X12680Y2113D01*
X12385Y2113D02*
X12385Y2023D01*
X12340Y1978D01*
X12205Y1978D01*
X12205Y1888D02*
X12205Y2158D01*
X12340Y2158D01*
X12385Y2113D01*
X12295Y1978D02*
X12385Y1888D01*
X11834Y1888D02*
X11834Y2158D01*
X11744Y2158D02*
X11924Y2158D01*
X11630Y2113D02*
X11585Y2158D01*
X11494Y2158D01*
X11449Y2113D01*
X11449Y2068D01*
X11494Y2023D01*
X11585Y2023D01*
X11630Y1978D01*
X11630Y1933D01*
X11585Y1888D01*
X11494Y1888D01*
X11449Y1933D01*
X11245Y1888D02*
X11245Y2158D01*
X11155Y2158D02*
X11335Y2158D01*
D13*
X10778Y1980D02*
X10551Y1980D01*
X10722Y2150D01*
X10722Y1810D01*
X10410Y1810D02*
X10297Y1923D01*
X10353Y1923D02*
X10183Y1923D01*
X10183Y1810D02*
X10183Y2150D01*
X10353Y2150D01*
X10410Y2094D01*
X10410Y1980D01*
X10353Y1923D01*
X9400Y1923D02*
X9400Y1867D01*
X9344Y1810D01*
X9230Y1810D01*
X9173Y1867D01*
X9032Y1867D02*
X8975Y1810D01*
X8862Y1810D01*
X8805Y1867D01*
X8805Y2094D01*
X8862Y2150D01*
X8975Y2150D01*
X9032Y2094D01*
X9173Y2094D02*
X9230Y2150D01*
X9344Y2150D01*
X9400Y2094D01*
X9400Y2037D01*
X9344Y1980D01*
X9400Y1923D01*
X9344Y1980D02*
X9287Y1980D01*
X8121Y1923D02*
X8121Y1867D01*
X8064Y1810D01*
X7951Y1810D01*
X7894Y1867D01*
X7752Y1810D02*
X7639Y1923D01*
X7696Y1923D02*
X7526Y1923D01*
X7526Y1810D02*
X7526Y2150D01*
X7696Y2150D01*
X7752Y2094D01*
X7752Y1980D01*
X7696Y1923D01*
X7894Y2094D02*
X7951Y2150D01*
X8064Y2150D01*
X8121Y2094D01*
X8121Y2037D01*
X8064Y1980D01*
X8121Y1923D01*
X8064Y1980D02*
X8007Y1980D01*
X6743Y2037D02*
X6743Y2094D01*
X6686Y2150D01*
X6573Y2150D01*
X6516Y2094D01*
X6375Y2094D02*
X6375Y1980D01*
X6318Y1923D01*
X6148Y1923D01*
X6148Y1810D02*
X6148Y2150D01*
X6318Y2150D01*
X6375Y2094D01*
X6261Y1923D02*
X6375Y1810D01*
X6516Y1810D02*
X6743Y2037D01*
X6743Y1810D02*
X6516Y1810D01*
X5449Y1812D02*
X5222Y1812D01*
X5335Y1812D02*
X5335Y2153D01*
X5222Y2039D01*
X5080Y2096D02*
X5080Y1982D01*
X5023Y1926D01*
X4853Y1926D01*
X4853Y1812D02*
X4853Y2153D01*
X5023Y2153D01*
X5080Y2096D01*
X4967Y1926D02*
X5080Y1812D01*
X4381Y1810D02*
X4154Y2150D01*
X4012Y2094D02*
X4012Y1980D01*
X3956Y1923D01*
X3785Y1923D01*
X3785Y1810D02*
X3785Y2150D01*
X3956Y2150D01*
X4012Y2094D01*
X3899Y1923D02*
X4012Y1810D01*
X4154Y1810D02*
X4381Y2150D01*
X3495Y2150D02*
X3268Y1810D01*
X3495Y1810D02*
X3268Y2150D01*
X3126Y2150D02*
X2900Y2150D01*
X3013Y2150D02*
X3013Y1810D01*
X4207Y4663D02*
X4207Y5003D01*
X4377Y5003D01*
X4434Y4947D01*
X4434Y4833D01*
X4377Y4777D01*
X4207Y4777D01*
X4321Y4777D02*
X4434Y4663D01*
X4575Y4720D02*
X4575Y4777D01*
X4632Y4833D01*
X4746Y4833D01*
X4802Y4777D01*
X4802Y4720D01*
X4746Y4663D01*
X4632Y4663D01*
X4575Y4720D01*
X4632Y4833D02*
X4575Y4890D01*
X4575Y4947D01*
X4632Y5003D01*
X4746Y5003D01*
X4802Y4947D01*
X4802Y4890D01*
X4746Y4833D01*
X5813Y4937D02*
X5813Y4710D01*
X5870Y4654D01*
X5984Y4654D01*
X6040Y4710D01*
X6182Y4710D02*
X6182Y4824D01*
X6352Y4824D01*
X6409Y4767D01*
X6409Y4710D01*
X6352Y4654D01*
X6238Y4654D01*
X6182Y4710D01*
X6182Y4824D02*
X6295Y4937D01*
X6409Y4994D01*
X6040Y4937D02*
X5984Y4994D01*
X5870Y4994D01*
X5813Y4937D01*
X6853Y5006D02*
X6853Y4666D01*
X6853Y4779D02*
X7023Y4779D01*
X7080Y4836D01*
X7080Y4950D01*
X7023Y5006D01*
X6853Y5006D01*
X7221Y5006D02*
X7448Y5006D01*
X7448Y4950D01*
X7221Y4723D01*
X7221Y4666D01*
X7080Y4666D02*
X6967Y4779D01*
X8421Y4796D02*
X8421Y5136D01*
X8534Y5023D01*
X8648Y5136D01*
X8648Y4796D01*
X8789Y4853D02*
X8846Y4910D01*
X9016Y4910D01*
X9016Y4966D02*
X9016Y4796D01*
X8846Y4796D01*
X8789Y4853D01*
X8959Y5023D02*
X9016Y4966D01*
X8959Y5023D02*
X8846Y5023D01*
X9157Y4966D02*
X9157Y4853D01*
X9214Y4796D01*
X9384Y4796D01*
X9384Y4739D02*
X9384Y5023D01*
X9214Y5023D01*
X9157Y4966D01*
X9271Y4683D02*
X9328Y4683D01*
X9384Y4739D01*
X9526Y4796D02*
X9639Y4796D01*
X9582Y4796D02*
X9582Y5023D01*
X9526Y5023D01*
X9582Y5136D02*
X9582Y5193D01*
X9771Y4966D02*
X9771Y4853D01*
X9828Y4796D01*
X9998Y4796D01*
X9828Y5023D02*
X9771Y4966D01*
X9828Y5023D02*
X9998Y5023D01*
X9573Y4423D02*
X9630Y4366D01*
X9630Y4310D01*
X9403Y4310D01*
X9403Y4366D02*
X9403Y4253D01*
X9460Y4196D01*
X9573Y4196D01*
X9271Y4196D02*
X9214Y4253D01*
X9214Y4480D01*
X9157Y4423D02*
X9271Y4423D01*
X9403Y4366D02*
X9460Y4423D01*
X9573Y4423D01*
X9016Y4366D02*
X9016Y4253D01*
X8959Y4196D01*
X8846Y4196D01*
X8789Y4253D01*
X8789Y4366D01*
X8846Y4423D01*
X8959Y4423D01*
X9016Y4366D01*
X8648Y4536D02*
X8648Y4196D01*
X8421Y4196D02*
X8421Y4536D01*
X8534Y4423D01*
X8648Y4536D01*
X8856Y5780D02*
X8800Y5837D01*
X8800Y6064D01*
X8856Y6121D01*
X8970Y6121D01*
X9027Y6064D01*
X9027Y5837D01*
X8970Y5780D01*
X8856Y5780D01*
X8913Y5894D02*
X9027Y5780D01*
X9168Y5780D02*
X9395Y5780D01*
X9281Y5780D02*
X9281Y6121D01*
X9168Y6007D01*
X6302Y7520D02*
X6302Y7577D01*
X6246Y7633D01*
X6075Y7633D01*
X6075Y7520D01*
X6132Y7463D01*
X6246Y7463D01*
X6302Y7520D01*
X6189Y7747D02*
X6075Y7633D01*
X5934Y7633D02*
X5934Y7747D01*
X5877Y7803D01*
X5707Y7803D01*
X5707Y7463D01*
X5707Y7577D02*
X5877Y7577D01*
X5934Y7633D01*
X5821Y7577D02*
X5934Y7463D01*
X6189Y7747D02*
X6302Y7803D01*
X5302Y7747D02*
X5302Y7520D01*
X5246Y7463D01*
X5132Y7463D01*
X5075Y7520D01*
X5132Y7633D02*
X5075Y7690D01*
X5075Y7747D01*
X5132Y7803D01*
X5246Y7803D01*
X5302Y7747D01*
X5302Y7633D02*
X5132Y7633D01*
X4934Y7633D02*
X4934Y7747D01*
X4877Y7803D01*
X4707Y7803D01*
X4707Y7463D01*
X4707Y7577D02*
X4877Y7577D01*
X4934Y7633D01*
X4821Y7577D02*
X4934Y7463D01*
X7707Y8870D02*
X7707Y9097D01*
X7764Y9153D01*
X7877Y9153D01*
X7934Y9097D01*
X8075Y9040D02*
X8189Y9153D01*
X8189Y8813D01*
X8302Y8813D02*
X8075Y8813D01*
X7934Y8870D02*
X7877Y8813D01*
X7764Y8813D01*
X7707Y8870D01*
X7228Y9381D02*
X7115Y9381D01*
X7058Y9438D01*
X7058Y9551D02*
X7172Y9608D01*
X7228Y9608D01*
X7285Y9551D01*
X7285Y9438D01*
X7228Y9381D01*
X6917Y9381D02*
X6803Y9495D01*
X6860Y9495D02*
X6690Y9495D01*
X6690Y9381D02*
X6690Y9722D01*
X6860Y9722D01*
X6917Y9665D01*
X6917Y9551D01*
X6860Y9495D01*
X7058Y9551D02*
X7058Y9722D01*
X7285Y9722D01*
X8644Y10520D02*
X8700Y10463D01*
X8814Y10463D01*
X8871Y10520D01*
X9012Y10463D02*
X9239Y10690D01*
X9239Y10747D01*
X9182Y10803D01*
X9069Y10803D01*
X9012Y10747D01*
X8871Y10747D02*
X8814Y10803D01*
X8700Y10803D01*
X8644Y10747D01*
X8644Y10520D01*
X9012Y10463D02*
X9239Y10463D01*
X10844Y10470D02*
X10900Y10413D01*
X11014Y10413D01*
X11071Y10470D01*
X11212Y10583D02*
X11439Y10583D01*
X11382Y10413D02*
X11382Y10753D01*
X11212Y10583D01*
X11071Y10697D02*
X11014Y10753D01*
X10900Y10753D01*
X10844Y10697D01*
X10844Y10470D01*
X13242Y10662D02*
X13242Y9562D01*
X13392Y9562D01*
X13392Y10662D01*
X13392Y10712D01*
X16392Y10712D01*
X16409Y10710D01*
X16426Y10706D01*
X16442Y10699D01*
X16456Y10689D01*
X16469Y10676D01*
X16479Y10662D01*
X16486Y10646D01*
X16490Y10629D01*
X16492Y10612D01*
X16492Y9612D01*
X16490Y9595D01*
X16486Y9578D01*
X16479Y9562D01*
X16469Y9548D01*
X16456Y9535D01*
X16442Y9525D01*
X16426Y9518D01*
X16409Y9514D01*
X16392Y9512D01*
X13392Y9512D01*
X13392Y9562D01*
X14292Y10112D02*
X14492Y10112D01*
X14492Y9812D01*
X14642Y9812D02*
X14792Y9812D01*
X14792Y10412D01*
X14642Y10412D01*
X14642Y9812D01*
X14942Y9812D02*
X14942Y10112D01*
X15142Y10112D01*
X14942Y10112D02*
X14942Y10412D01*
X14492Y10412D02*
X14492Y10112D01*
X15472Y9999D02*
X15529Y9942D01*
X15642Y9942D01*
X15699Y9999D01*
X15699Y10226D01*
X15642Y10282D01*
X15529Y10282D01*
X15472Y10226D01*
X15472Y9999D01*
X15586Y10055D02*
X15699Y9942D01*
X15840Y10112D02*
X16067Y10112D01*
X16011Y9942D02*
X16011Y10282D01*
X15840Y10112D01*
X16051Y9465D02*
X16051Y9265D01*
X16051Y9465D02*
X16251Y9465D01*
X16851Y9465D02*
X17051Y9465D01*
X17051Y9265D01*
X17051Y8665D02*
X17051Y8465D01*
X16851Y8465D01*
X16978Y8399D02*
X18478Y8399D01*
X18728Y8149D01*
X18728Y7649D01*
X18478Y7399D01*
X18728Y7149D01*
X18728Y6649D01*
X18478Y6399D01*
X18728Y6149D01*
X18728Y5649D01*
X18478Y5399D01*
X18728Y5149D01*
X18728Y4649D01*
X18478Y4399D01*
X16978Y4399D01*
X16728Y4649D01*
X16728Y5149D01*
X16978Y5399D01*
X16728Y5649D01*
X16728Y6149D01*
X16978Y6399D01*
X16728Y6649D01*
X16728Y7149D01*
X16978Y7399D01*
X16728Y7649D01*
X16728Y8149D01*
X16978Y8399D01*
X16251Y8465D02*
X16051Y8465D01*
X16051Y8665D01*
X18926Y7768D02*
X19152Y7768D01*
X19039Y7655D02*
X19039Y7882D01*
X19209Y7513D02*
X19209Y7287D01*
X19209Y7400D02*
X18869Y7400D01*
X18982Y7287D01*
X18926Y7145D02*
X19152Y6918D01*
X19209Y6975D01*
X19209Y7088D01*
X19152Y7145D01*
X18926Y7145D01*
X18869Y7088D01*
X18869Y6975D01*
X18926Y6918D01*
X19152Y6918D01*
X19209Y6777D02*
X19209Y6550D01*
X18869Y6550D01*
X18869Y6352D02*
X19039Y6182D01*
X19039Y6408D01*
X19209Y6352D02*
X18869Y6352D01*
X18926Y6040D02*
X18869Y5983D01*
X18869Y5870D01*
X18926Y5813D01*
X18869Y5672D02*
X18869Y5445D01*
X19209Y5445D01*
X19209Y5304D02*
X19096Y5190D01*
X19096Y5247D02*
X19039Y5304D01*
X18926Y5304D01*
X18869Y5247D01*
X18869Y5077D01*
X19209Y5077D01*
X19096Y5077D02*
X19096Y5247D01*
X19039Y5445D02*
X19039Y5558D01*
X19209Y5813D02*
X18982Y6040D01*
X18926Y6040D01*
X19209Y6040D02*
X19209Y5813D01*
X19209Y4935D02*
X18869Y4935D01*
X18869Y4708D02*
X19209Y4935D01*
X19209Y4708D02*
X18869Y4708D01*
X17051Y4347D02*
X17051Y4147D01*
X17051Y4347D02*
X16851Y4347D01*
X16251Y4347D02*
X16051Y4347D01*
X16051Y4147D01*
X16051Y3547D02*
X16051Y3347D01*
X16251Y3347D01*
X16851Y3347D02*
X17051Y3347D01*
X17051Y3547D01*
X11452Y8270D02*
X11396Y8213D01*
X11282Y8213D01*
X11225Y8270D01*
X11225Y8383D02*
X11339Y8440D01*
X11396Y8440D01*
X11452Y8383D01*
X11452Y8270D01*
X11225Y8383D02*
X11225Y8553D01*
X11452Y8553D01*
X11084Y8497D02*
X11027Y8553D01*
X10914Y8553D01*
X10857Y8497D01*
X10857Y8270D01*
X10914Y8213D01*
X11027Y8213D01*
X11084Y8270D01*
X13242Y10662D02*
X13392Y10662D01*
D14*
X11845Y7077D03*
X11845Y7072D03*
X11690Y6512D03*
X11690Y6507D03*
X11530Y6532D03*
X11530Y6537D03*
X12095Y6197D03*
X11875Y5967D03*
X11890Y5957D03*
X11895Y5952D03*
X11905Y5947D03*
X11910Y5942D03*
X11920Y5937D03*
X11925Y5932D03*
X11930Y5927D03*
X11940Y5922D03*
X11945Y5917D03*
X11960Y5907D03*
X11975Y5897D03*
X11980Y5892D03*
X11995Y5882D03*
X12040Y5852D03*
X12055Y5842D03*
X12060Y5837D03*
X12065Y5832D03*
X12080Y5822D03*
X11975Y5547D03*
X11500Y5867D03*
X11470Y6062D03*
X12215Y6352D03*
X12215Y6357D03*
X12220Y6362D03*
X12220Y6367D03*
D15*
X13165Y6852D03*
X12880Y7002D03*
X11975Y7272D03*
X11565Y7467D03*
X10625Y6962D03*
X10625Y6422D03*
X10630Y6417D03*
X10885Y5897D03*
X11615Y5717D03*
X11975Y5552D03*
X13080Y5822D03*
D16*
X12250Y5672D03*
X11975Y5557D03*
X12915Y6982D03*
X11565Y7462D03*
X10720Y7012D03*
D17*
X11567Y7457D03*
X11987Y7302D03*
X12947Y5762D03*
X11977Y5562D03*
D18*
X11977Y5567D03*
X12972Y6937D03*
D19*
X10880Y7067D03*
X11975Y5572D03*
D20*
X11975Y5577D03*
X10870Y7057D03*
D21*
X10860Y7042D03*
X11975Y5582D03*
D22*
X11977Y5587D03*
X11577Y7427D03*
D23*
X11975Y5592D03*
D24*
X11977Y5597D03*
X11602Y7407D03*
D25*
X11620Y7392D03*
X11975Y5602D03*
D26*
X11975Y5607D03*
X11630Y7382D03*
D27*
X11977Y5612D03*
D28*
X11977Y5617D03*
X11332Y5762D03*
D29*
X11302Y5777D03*
X11977Y5622D03*
D30*
X11977Y5627D03*
X11277Y5792D03*
D31*
X11247Y5812D03*
X11977Y5632D03*
D32*
X11977Y5637D03*
X11242Y5817D03*
X11237Y5822D03*
D33*
X11977Y5642D03*
D34*
X11977Y5647D03*
D35*
X12160Y5757D03*
X12095Y6172D03*
X12230Y6402D03*
X12235Y6412D03*
X12235Y6417D03*
X11690Y6532D03*
X11525Y6507D03*
X11470Y6037D03*
X11505Y5872D03*
X12710Y5647D03*
X11850Y7102D03*
D36*
X11975Y5652D03*
D37*
X11895Y5982D03*
X12710Y5652D03*
X13185Y6307D03*
X13190Y6312D03*
X13195Y6322D03*
X13200Y6327D03*
X13205Y6332D03*
X13210Y6337D03*
X13215Y6812D03*
X13210Y6817D03*
X13205Y6822D03*
X12870Y7007D03*
X12745Y7227D03*
X12740Y7232D03*
X12735Y7237D03*
X10755Y6322D03*
X10595Y6447D03*
X10590Y6452D03*
X10590Y6932D03*
X10595Y6937D03*
X10840Y5932D03*
X10845Y5927D03*
D38*
X11762Y5657D03*
X12712Y5667D03*
X12957Y6947D03*
D39*
X12965Y6942D03*
X13015Y6912D03*
X11780Y7362D03*
X10900Y7087D03*
X10780Y7027D03*
X12190Y5657D03*
D40*
X12710Y5657D03*
X13010Y5782D03*
X10955Y5857D03*
X12905Y6987D03*
X12625Y7307D03*
X11980Y7287D03*
D41*
X11812Y7357D03*
X11732Y5662D03*
X12222Y5662D03*
D42*
X12710Y5662D03*
X13045Y6907D03*
X12935Y6967D03*
X10755Y7022D03*
D43*
X10737Y7017D03*
X12922Y6977D03*
X13062Y6902D03*
X12237Y5667D03*
X11717Y5667D03*
D44*
X11702Y5672D03*
X11447Y5837D03*
X10972Y5852D03*
X11902Y6007D03*
X10932Y7112D03*
D45*
X10885Y7072D03*
X12710Y5672D03*
D46*
X12447Y5772D03*
X12267Y5677D03*
X11912Y5997D03*
X11687Y5677D03*
X13092Y6892D03*
X10707Y7007D03*
D47*
X12712Y5677D03*
D48*
X12277Y5682D03*
X11912Y5992D03*
X11677Y5682D03*
X10947Y5862D03*
X10697Y7002D03*
X13102Y6887D03*
D49*
X11552Y7442D03*
X12712Y5682D03*
D50*
X12287Y5687D03*
X11667Y5687D03*
X10937Y5867D03*
X10722Y6357D03*
X10717Y6362D03*
X10682Y6387D03*
X12647Y7297D03*
X13112Y6882D03*
D51*
X12712Y5687D03*
D52*
X12297Y5692D03*
X11657Y5692D03*
X11252Y5732D03*
X10917Y5877D03*
X10732Y6347D03*
X10727Y6352D03*
X10667Y6987D03*
X12657Y7292D03*
X13132Y6872D03*
D53*
X12712Y5692D03*
D54*
X13040Y5797D03*
X13050Y5802D03*
X11650Y5697D03*
X11640Y5702D03*
X10665Y6397D03*
X10655Y6402D03*
X10655Y6982D03*
X12665Y7287D03*
X12890Y6997D03*
X13140Y6867D03*
D55*
X13125Y6877D03*
X11980Y7282D03*
X10675Y6992D03*
X10675Y6392D03*
X10925Y5872D03*
X11915Y6012D03*
X12305Y5697D03*
X12440Y5777D03*
X13030Y5792D03*
D56*
X12712Y5697D03*
X11597Y7412D03*
D57*
X12590Y5702D03*
D58*
X13065Y5812D03*
X11630Y5707D03*
X10900Y5887D03*
X10640Y6972D03*
X12675Y7282D03*
X12680Y7277D03*
X13150Y6862D03*
D59*
X12282Y6572D03*
X12282Y6567D03*
X11682Y6597D03*
X11507Y6422D03*
X11507Y6417D03*
X11462Y5967D03*
X12082Y6067D03*
X12082Y6072D03*
X12187Y5707D03*
X11862Y7187D03*
X11862Y7192D03*
D60*
X12612Y5707D03*
X12622Y5712D03*
D61*
X12432Y5782D03*
X11927Y6017D03*
X11622Y5712D03*
X10892Y5892D03*
X10742Y6337D03*
X10637Y6412D03*
X10632Y6967D03*
X12687Y7272D03*
X13157Y6857D03*
X13072Y5817D03*
D62*
X12182Y5712D03*
X11507Y5882D03*
X11507Y6432D03*
X11682Y6587D03*
X11682Y6592D03*
X12272Y6537D03*
X12277Y6547D03*
X12277Y6552D03*
X11857Y7172D03*
D63*
X11860Y7167D03*
X11685Y6582D03*
X11510Y6442D03*
X11510Y6437D03*
X11465Y5987D03*
X11465Y5982D03*
X12085Y6092D03*
X12085Y6097D03*
X12410Y5827D03*
X12180Y5717D03*
X12270Y6527D03*
X12270Y6532D03*
X12275Y6542D03*
D64*
X12660Y5732D03*
X12650Y5727D03*
X12630Y5717D03*
D65*
X13087Y5827D03*
X13092Y5832D03*
X11607Y5722D03*
X11602Y5727D03*
X10877Y5902D03*
X10747Y6332D03*
X10617Y6427D03*
X10617Y6957D03*
X12697Y7267D03*
X12702Y7262D03*
X13172Y6847D03*
D66*
X12265Y6512D03*
X12265Y6507D03*
X11685Y6572D03*
X11515Y6457D03*
X11465Y6002D03*
X11465Y5997D03*
X11465Y5992D03*
X12180Y5722D03*
X11855Y7152D03*
D67*
X12682Y5747D03*
X12677Y5742D03*
X12667Y5737D03*
X12642Y5722D03*
X12692Y5752D03*
D68*
X13172Y5912D03*
X13177Y5917D03*
X13177Y5922D03*
X13182Y5927D03*
X13187Y6252D03*
X13182Y6262D03*
X13177Y6267D03*
X13177Y6272D03*
X13172Y6282D03*
X13172Y6287D03*
X13272Y6407D03*
X13277Y6412D03*
X13282Y6422D03*
X13277Y6737D03*
X13272Y6747D03*
X13267Y6752D03*
X12857Y7012D03*
X12802Y7157D03*
X12797Y7162D03*
X12797Y7167D03*
X12792Y7172D03*
X12787Y7177D03*
X10762Y6312D03*
X10772Y6017D03*
X10777Y6007D03*
X10782Y6002D03*
X10782Y5997D03*
X10787Y5992D03*
X11252Y5727D03*
X12127Y5807D03*
X10537Y6507D03*
X10532Y6517D03*
X10527Y6522D03*
X10522Y6527D03*
X10517Y6537D03*
X10517Y6847D03*
X10522Y6857D03*
X10527Y6862D03*
X10532Y6867D03*
X10537Y6877D03*
D69*
X11397Y7157D03*
X11392Y7187D03*
X11387Y7217D03*
X11382Y7247D03*
X11377Y7272D03*
X11377Y7277D03*
X11372Y7302D03*
X11372Y7307D03*
X11367Y7332D03*
X11367Y7337D03*
X11347Y7457D03*
X11347Y7462D03*
X11857Y7147D03*
X11687Y6567D03*
X11512Y6462D03*
X12087Y6117D03*
X12087Y6112D03*
X12177Y5727D03*
X12257Y6487D03*
X12257Y6492D03*
X12262Y6497D03*
X12262Y6502D03*
D70*
X13180Y6842D03*
X13185Y6837D03*
X12710Y7257D03*
X11435Y7362D03*
X10965Y7127D03*
X10610Y6952D03*
X10605Y6947D03*
X10605Y6437D03*
X10610Y6432D03*
X10750Y6327D03*
X10865Y5912D03*
X10870Y5907D03*
X11475Y5847D03*
X11595Y5732D03*
X12430Y5787D03*
X13100Y5837D03*
D71*
X12195Y5922D03*
X12195Y5927D03*
X12195Y5932D03*
X12195Y5937D03*
X12195Y5942D03*
X12195Y5947D03*
X12195Y5952D03*
X12195Y5957D03*
X12195Y5962D03*
X12195Y5967D03*
X12200Y5972D03*
X12200Y5977D03*
X12200Y5982D03*
X12200Y5987D03*
X12200Y5992D03*
X12200Y5997D03*
X12200Y6002D03*
X12200Y6007D03*
X12200Y6012D03*
X12200Y6017D03*
X12205Y6022D03*
X12205Y6027D03*
X12205Y6032D03*
X12205Y6037D03*
X12205Y6042D03*
X12205Y6047D03*
X12205Y6052D03*
X12205Y6057D03*
X12205Y6062D03*
X12210Y6072D03*
X12210Y6077D03*
X12210Y6082D03*
X12210Y6087D03*
X12215Y6122D03*
X12215Y6127D03*
X12215Y6132D03*
X12220Y6172D03*
X12220Y6177D03*
X12225Y6202D03*
X12225Y6207D03*
X12225Y6212D03*
X12225Y6217D03*
X12225Y6222D03*
X12230Y6232D03*
X12230Y6237D03*
X12230Y6242D03*
X12230Y6247D03*
X12230Y6252D03*
X12230Y6257D03*
X12230Y6262D03*
X12230Y6267D03*
X12235Y6277D03*
X12235Y6282D03*
X12235Y6287D03*
X12235Y6292D03*
X12235Y6297D03*
X12235Y6302D03*
X12060Y6257D03*
X12060Y6252D03*
X12060Y6247D03*
X12065Y6237D03*
X12065Y6232D03*
X12055Y6272D03*
X12055Y6277D03*
X12055Y6282D03*
X12050Y6292D03*
X12050Y6297D03*
X12045Y6312D03*
X12040Y6337D03*
X12035Y6357D03*
X12030Y6377D03*
X12025Y6402D03*
X12020Y6422D03*
X12015Y6442D03*
X12010Y6467D03*
X12005Y6487D03*
X12000Y6507D03*
X11995Y6532D03*
X11990Y6552D03*
X11985Y6572D03*
X11980Y6597D03*
X11975Y6617D03*
X11970Y6637D03*
X11965Y6662D03*
X11960Y6682D03*
X11955Y6702D03*
X11950Y6727D03*
X11945Y6747D03*
X11940Y6767D03*
X11935Y6792D03*
X11930Y6812D03*
X11925Y6832D03*
X11920Y6857D03*
X11915Y6877D03*
X11910Y6897D03*
X11905Y6922D03*
X11900Y6942D03*
X11895Y6962D03*
X11890Y6982D03*
X11890Y6987D03*
X11885Y7007D03*
X11880Y7027D03*
X11855Y7137D03*
X11855Y7142D03*
X11415Y7067D03*
X11415Y7062D03*
X11415Y7057D03*
X11415Y7052D03*
X11415Y7047D03*
X11415Y7042D03*
X11420Y7032D03*
X11420Y7027D03*
X11420Y7022D03*
X11420Y7017D03*
X11420Y7012D03*
X11425Y7002D03*
X11425Y6997D03*
X11425Y6992D03*
X11425Y6987D03*
X11430Y6977D03*
X11430Y6972D03*
X11430Y6967D03*
X11430Y6962D03*
X11430Y6957D03*
X11435Y6947D03*
X11435Y6942D03*
X11435Y6937D03*
X11435Y6932D03*
X11435Y6927D03*
X11440Y6917D03*
X11440Y6912D03*
X11440Y6907D03*
X11440Y6902D03*
X11440Y6897D03*
X11445Y6887D03*
X11445Y6882D03*
X11445Y6877D03*
X11445Y6872D03*
X11450Y6862D03*
X11450Y6857D03*
X11450Y6852D03*
X11450Y6847D03*
X11450Y6842D03*
X11455Y6832D03*
X11455Y6827D03*
X11455Y6822D03*
X11455Y6817D03*
X11455Y6812D03*
X11460Y6802D03*
X11460Y6797D03*
X11460Y6792D03*
X11460Y6787D03*
X11460Y6782D03*
X11465Y6772D03*
X11465Y6767D03*
X11465Y6762D03*
X11465Y6757D03*
X11465Y6752D03*
X11470Y6742D03*
X11470Y6737D03*
X11470Y6732D03*
X11470Y6727D03*
X11475Y6717D03*
X11475Y6712D03*
X11475Y6707D03*
X11475Y6702D03*
X11475Y6697D03*
X11480Y6687D03*
X11480Y6682D03*
X11480Y6677D03*
X11480Y6672D03*
X11480Y6667D03*
X11485Y6657D03*
X11485Y6652D03*
X11485Y6647D03*
X11485Y6642D03*
X11485Y6637D03*
X11490Y6627D03*
X11490Y6622D03*
X11490Y6617D03*
X11490Y6612D03*
X11495Y6602D03*
X11495Y6597D03*
X11495Y6592D03*
X11495Y6587D03*
X11495Y6582D03*
X11515Y6467D03*
X11635Y6427D03*
X11645Y6452D03*
X11625Y6402D03*
X11615Y6377D03*
X11685Y6562D03*
X11305Y6422D03*
X11295Y6447D03*
X11285Y6472D03*
X11260Y6537D03*
X11250Y6562D03*
X11240Y6587D03*
X11230Y6612D03*
X11195Y6702D03*
X11185Y6727D03*
X11175Y6752D03*
X11165Y6777D03*
X11140Y6842D03*
X11130Y6867D03*
X11120Y6892D03*
X11110Y6917D03*
X11100Y6942D03*
X11090Y6967D03*
X11085Y6982D03*
X11075Y7007D03*
X11410Y7072D03*
X11410Y7077D03*
X11410Y7082D03*
X11410Y7087D03*
X11410Y7092D03*
X11410Y7097D03*
X11405Y7102D03*
X11405Y7107D03*
X11405Y7112D03*
X11405Y7117D03*
X11405Y7122D03*
X11405Y7127D03*
X11400Y7132D03*
X11400Y7137D03*
X11400Y7142D03*
X11400Y7147D03*
X11400Y7152D03*
X11395Y7162D03*
X11395Y7167D03*
X11395Y7172D03*
X11395Y7177D03*
X11395Y7182D03*
X11390Y7192D03*
X11390Y7197D03*
X11390Y7202D03*
X11390Y7207D03*
X11390Y7212D03*
X11385Y7222D03*
X11385Y7227D03*
X11385Y7232D03*
X11385Y7237D03*
X11385Y7242D03*
X11380Y7252D03*
X11380Y7257D03*
X11380Y7262D03*
X11380Y7267D03*
X11375Y7282D03*
X11375Y7287D03*
X11375Y7292D03*
X11375Y7297D03*
X11370Y7312D03*
X11370Y7317D03*
X11370Y7322D03*
X11370Y7327D03*
X11345Y7467D03*
X11345Y7472D03*
X12255Y6482D03*
X12255Y6477D03*
X12090Y6127D03*
X12090Y6122D03*
X12190Y5917D03*
X12190Y5912D03*
X12190Y5907D03*
X12190Y5902D03*
X12190Y5897D03*
X12190Y5892D03*
X12190Y5887D03*
X12190Y5882D03*
X12190Y5877D03*
X12190Y5872D03*
X12185Y5867D03*
X12185Y5862D03*
X12185Y5857D03*
X12185Y5852D03*
X12185Y5847D03*
X12185Y5842D03*
X12185Y5837D03*
X12185Y5832D03*
X12185Y5827D03*
X12185Y5822D03*
X12180Y5817D03*
X12175Y5732D03*
X11465Y6007D03*
X11465Y6012D03*
X11425Y6117D03*
X11415Y6142D03*
X11405Y6167D03*
X11395Y6192D03*
X11370Y6257D03*
X11360Y6282D03*
X11350Y6307D03*
X11340Y6332D03*
X11315Y6397D03*
D72*
X11250Y5737D03*
X12970Y5767D03*
X11985Y7297D03*
X12330Y7427D03*
D73*
X12717Y7252D03*
X12722Y7247D03*
X12727Y7242D03*
X13192Y6832D03*
X13197Y6827D03*
X13117Y5852D03*
X13112Y5847D03*
X13107Y5842D03*
X11587Y5737D03*
X11582Y5742D03*
X11577Y5747D03*
X10857Y5917D03*
X10852Y5922D03*
X10597Y6442D03*
X10602Y6942D03*
D74*
X11022Y7142D03*
X11022Y7147D03*
X11017Y7157D03*
X11012Y7172D03*
X11007Y7182D03*
X11002Y7197D03*
X10997Y7207D03*
X10992Y7222D03*
X10982Y7247D03*
X10972Y7272D03*
X10967Y7287D03*
X10962Y7297D03*
X10957Y7312D03*
X10952Y7322D03*
X10947Y7337D03*
X10942Y7347D03*
X10937Y7362D03*
X10932Y7372D03*
X10927Y7387D03*
X10922Y7397D03*
X10917Y7412D03*
X10912Y7422D03*
X10912Y7427D03*
X10907Y7437D03*
X10902Y7447D03*
X10902Y7452D03*
X10902Y7457D03*
X10897Y7462D03*
X10897Y7467D03*
X10892Y7472D03*
X11067Y7022D03*
X11072Y7017D03*
X11072Y7012D03*
X11077Y7002D03*
X11077Y6997D03*
X11082Y6992D03*
X11082Y6987D03*
X11087Y6977D03*
X11087Y6972D03*
X11092Y6962D03*
X11092Y6957D03*
X11097Y6952D03*
X11097Y6947D03*
X11102Y6937D03*
X11102Y6932D03*
X11107Y6927D03*
X11107Y6922D03*
X11112Y6912D03*
X11112Y6907D03*
X11117Y6902D03*
X11117Y6897D03*
X11122Y6887D03*
X11122Y6882D03*
X11127Y6877D03*
X11127Y6872D03*
X11132Y6862D03*
X11132Y6857D03*
X11137Y6852D03*
X11137Y6847D03*
X11142Y6837D03*
X11142Y6832D03*
X11147Y6827D03*
X11147Y6822D03*
X11147Y6817D03*
X11152Y6812D03*
X11152Y6807D03*
X11157Y6802D03*
X11157Y6797D03*
X11157Y6792D03*
X11162Y6787D03*
X11162Y6782D03*
X11167Y6772D03*
X11167Y6767D03*
X11172Y6762D03*
X11172Y6757D03*
X11177Y6747D03*
X11177Y6742D03*
X11182Y6737D03*
X11182Y6732D03*
X11187Y6722D03*
X11187Y6717D03*
X11192Y6712D03*
X11192Y6707D03*
X11197Y6697D03*
X11197Y6692D03*
X11202Y6687D03*
X11202Y6682D03*
X11202Y6677D03*
X11207Y6672D03*
X11207Y6667D03*
X11212Y6662D03*
X11212Y6657D03*
X11212Y6652D03*
X11217Y6647D03*
X11217Y6642D03*
X11222Y6637D03*
X11222Y6632D03*
X11222Y6627D03*
X11227Y6622D03*
X11227Y6617D03*
X11232Y6607D03*
X11232Y6602D03*
X11237Y6597D03*
X11237Y6592D03*
X11242Y6582D03*
X11242Y6577D03*
X11247Y6572D03*
X11247Y6567D03*
X11252Y6557D03*
X11252Y6552D03*
X11257Y6547D03*
X11257Y6542D03*
X11262Y6532D03*
X11262Y6527D03*
X11267Y6522D03*
X11267Y6517D03*
X11267Y6512D03*
X11272Y6507D03*
X11272Y6502D03*
X11277Y6497D03*
X11277Y6492D03*
X11277Y6487D03*
X11282Y6482D03*
X11282Y6477D03*
X11287Y6467D03*
X11287Y6462D03*
X11292Y6457D03*
X11292Y6452D03*
X11297Y6442D03*
X11297Y6437D03*
X11302Y6432D03*
X11302Y6427D03*
X11307Y6417D03*
X11307Y6412D03*
X11312Y6407D03*
X11312Y6402D03*
X11317Y6392D03*
X11317Y6387D03*
X11322Y6382D03*
X11322Y6377D03*
X11322Y6372D03*
X11327Y6367D03*
X11327Y6362D03*
X11332Y6357D03*
X11332Y6352D03*
X11332Y6347D03*
X11337Y6342D03*
X11337Y6337D03*
X11342Y6327D03*
X11342Y6322D03*
X11347Y6317D03*
X11347Y6312D03*
X11352Y6302D03*
X11352Y6297D03*
X11357Y6292D03*
X11357Y6287D03*
X11362Y6277D03*
X11362Y6272D03*
X11367Y6267D03*
X11367Y6262D03*
X11372Y6252D03*
X11372Y6247D03*
X11377Y6242D03*
X11377Y6237D03*
X11377Y6232D03*
X11382Y6227D03*
X11382Y6222D03*
X11387Y6217D03*
X11387Y6212D03*
X11387Y6207D03*
X11392Y6202D03*
X11392Y6197D03*
X11397Y6187D03*
X11397Y6182D03*
X11402Y6177D03*
X11402Y6172D03*
X11407Y6162D03*
X11407Y6157D03*
X11412Y6152D03*
X11412Y6147D03*
X11417Y6137D03*
X11417Y6132D03*
X11422Y6127D03*
X11422Y6122D03*
X11427Y6112D03*
X11427Y6107D03*
X11432Y6102D03*
X11512Y6122D03*
X11522Y6147D03*
X11527Y6157D03*
X11532Y6172D03*
X11537Y6182D03*
X11542Y6192D03*
X11542Y6197D03*
X11547Y6207D03*
X11552Y6217D03*
X11552Y6222D03*
X11557Y6232D03*
X11562Y6242D03*
X11562Y6247D03*
X11567Y6257D03*
X11572Y6267D03*
X11577Y6277D03*
X11577Y6282D03*
X11582Y6292D03*
X11587Y6302D03*
X11587Y6307D03*
X11592Y6317D03*
X11597Y6327D03*
X11597Y6332D03*
X11597Y6337D03*
X11602Y6342D03*
X11602Y6347D03*
X11607Y6352D03*
X11607Y6357D03*
X11607Y6362D03*
X11612Y6367D03*
X11612Y6372D03*
X11617Y6382D03*
X11617Y6387D03*
X11622Y6392D03*
X11622Y6397D03*
X11627Y6407D03*
X11627Y6412D03*
X11632Y6417D03*
X11632Y6422D03*
X11637Y6432D03*
X11637Y6437D03*
X11642Y6442D03*
X11642Y6447D03*
X11647Y6457D03*
X11647Y6462D03*
X11652Y6467D03*
X11652Y6472D03*
X11652Y6477D03*
X11687Y6557D03*
X11517Y6472D03*
X11497Y6577D03*
X11492Y6607D03*
X11487Y6632D03*
X11482Y6662D03*
X11477Y6692D03*
X11472Y6722D03*
X11467Y6747D03*
X11462Y6777D03*
X11457Y6807D03*
X11452Y6837D03*
X11447Y6867D03*
X11442Y6892D03*
X11437Y6922D03*
X11432Y6952D03*
X11427Y6982D03*
X11422Y7007D03*
X11417Y7037D03*
X11727Y6882D03*
X11722Y6872D03*
X11717Y6862D03*
X11712Y6852D03*
X11707Y6842D03*
X11702Y6837D03*
X11702Y6832D03*
X11697Y6827D03*
X11697Y6822D03*
X11692Y6817D03*
X11692Y6812D03*
X11687Y6807D03*
X11687Y6802D03*
X11682Y6797D03*
X11677Y6787D03*
X11672Y6777D03*
X11667Y6767D03*
X11662Y6757D03*
X11657Y6747D03*
X11652Y6737D03*
X11647Y6727D03*
X11642Y6717D03*
X11637Y6707D03*
X11732Y6892D03*
X11737Y6902D03*
X11742Y6912D03*
X11747Y6922D03*
X11752Y6932D03*
X11757Y6942D03*
X11762Y6952D03*
X11767Y6962D03*
X11772Y6972D03*
X11777Y6982D03*
X11782Y6992D03*
X11787Y7002D03*
X11792Y7012D03*
X11797Y7022D03*
X11802Y7032D03*
X11807Y7042D03*
X11877Y7042D03*
X11877Y7037D03*
X11877Y7032D03*
X11882Y7022D03*
X11882Y7017D03*
X11882Y7012D03*
X11887Y7002D03*
X11887Y6997D03*
X11887Y6992D03*
X11892Y6977D03*
X11892Y6972D03*
X11892Y6967D03*
X11897Y6957D03*
X11897Y6952D03*
X11897Y6947D03*
X11902Y6937D03*
X11902Y6932D03*
X11902Y6927D03*
X11907Y6917D03*
X11907Y6912D03*
X11907Y6907D03*
X11907Y6902D03*
X11912Y6892D03*
X11912Y6887D03*
X11912Y6882D03*
X11917Y6872D03*
X11917Y6867D03*
X11917Y6862D03*
X11922Y6852D03*
X11922Y6847D03*
X11922Y6842D03*
X11922Y6837D03*
X11927Y6827D03*
X11927Y6822D03*
X11927Y6817D03*
X11932Y6807D03*
X11932Y6802D03*
X11932Y6797D03*
X11937Y6787D03*
X11937Y6782D03*
X11937Y6777D03*
X11937Y6772D03*
X11942Y6762D03*
X11942Y6757D03*
X11942Y6752D03*
X11947Y6742D03*
X11947Y6737D03*
X11947Y6732D03*
X11952Y6722D03*
X11952Y6717D03*
X11952Y6712D03*
X11952Y6707D03*
X11957Y6697D03*
X11957Y6692D03*
X11957Y6687D03*
X11962Y6677D03*
X11962Y6672D03*
X11962Y6667D03*
X11967Y6657D03*
X11967Y6652D03*
X11967Y6647D03*
X11967Y6642D03*
X11972Y6632D03*
X11972Y6627D03*
X11972Y6622D03*
X11977Y6612D03*
X11977Y6607D03*
X11977Y6602D03*
X11982Y6592D03*
X11982Y6587D03*
X11982Y6582D03*
X11982Y6577D03*
X11987Y6567D03*
X11987Y6562D03*
X11987Y6557D03*
X11992Y6547D03*
X11992Y6542D03*
X11992Y6537D03*
X11997Y6527D03*
X11997Y6522D03*
X11997Y6517D03*
X11997Y6512D03*
X12002Y6502D03*
X12002Y6497D03*
X12002Y6492D03*
X12007Y6482D03*
X12007Y6477D03*
X12007Y6472D03*
X12012Y6462D03*
X12012Y6457D03*
X12012Y6452D03*
X12012Y6447D03*
X12017Y6437D03*
X12017Y6432D03*
X12017Y6427D03*
X12022Y6417D03*
X12022Y6412D03*
X12022Y6407D03*
X12027Y6397D03*
X12027Y6392D03*
X12027Y6387D03*
X12027Y6382D03*
X12032Y6372D03*
X12032Y6367D03*
X12032Y6362D03*
X12037Y6352D03*
X12037Y6347D03*
X12037Y6342D03*
X12042Y6332D03*
X12042Y6327D03*
X12042Y6322D03*
X12042Y6317D03*
X12047Y6307D03*
X12047Y6302D03*
X12052Y6287D03*
X12057Y6267D03*
X12057Y6262D03*
X12062Y6242D03*
X12132Y6232D03*
X12137Y6242D03*
X12142Y6252D03*
X12147Y6262D03*
X12152Y6272D03*
X12157Y6282D03*
X12162Y6292D03*
X12167Y6302D03*
X12232Y6272D03*
X12227Y6227D03*
X12222Y6197D03*
X12222Y6192D03*
X12222Y6187D03*
X12222Y6182D03*
X12217Y6167D03*
X12217Y6162D03*
X12217Y6157D03*
X12217Y6152D03*
X12217Y6147D03*
X12217Y6142D03*
X12217Y6137D03*
X12212Y6117D03*
X12212Y6112D03*
X12212Y6107D03*
X12212Y6102D03*
X12212Y6097D03*
X12212Y6092D03*
X12207Y6067D03*
X12087Y6132D03*
X12252Y6467D03*
X12252Y6472D03*
X11852Y7127D03*
X11852Y7132D03*
X11967Y7227D03*
X11502Y5877D03*
X12172Y5737D03*
D75*
X11252Y5742D03*
D76*
X11465Y6017D03*
X11465Y6022D03*
X11505Y6102D03*
X11505Y6107D03*
X11510Y6112D03*
X11510Y6117D03*
X11515Y6127D03*
X11515Y6132D03*
X11520Y6137D03*
X11520Y6142D03*
X11525Y6152D03*
X11530Y6162D03*
X11530Y6167D03*
X11535Y6177D03*
X11540Y6187D03*
X11545Y6202D03*
X11550Y6212D03*
X11555Y6227D03*
X11560Y6237D03*
X11565Y6252D03*
X11570Y6262D03*
X11575Y6272D03*
X11580Y6287D03*
X11585Y6297D03*
X11590Y6312D03*
X11595Y6322D03*
X11765Y6412D03*
X11750Y6437D03*
X11780Y6387D03*
X11785Y6377D03*
X11795Y6362D03*
X11800Y6352D03*
X11805Y6342D03*
X11810Y6337D03*
X11815Y6327D03*
X11820Y6317D03*
X11825Y6312D03*
X11830Y6302D03*
X11835Y6292D03*
X11840Y6282D03*
X11845Y6277D03*
X11845Y6272D03*
X11850Y6267D03*
X11850Y6262D03*
X11855Y6257D03*
X11860Y6252D03*
X11860Y6247D03*
X11865Y6242D03*
X11865Y6237D03*
X11870Y6232D03*
X11875Y6227D03*
X11875Y6222D03*
X11880Y6217D03*
X11880Y6212D03*
X11885Y6207D03*
X11890Y6202D03*
X11890Y6197D03*
X11895Y6192D03*
X11895Y6187D03*
X11900Y6182D03*
X11905Y6177D03*
X11905Y6172D03*
X11910Y6167D03*
X11910Y6162D03*
X11915Y6157D03*
X11920Y6152D03*
X11920Y6147D03*
X11925Y6142D03*
X11925Y6137D03*
X11930Y6132D03*
X11935Y6127D03*
X11935Y6122D03*
X11940Y6117D03*
X11940Y6112D03*
X11945Y6107D03*
X11950Y6102D03*
X11950Y6097D03*
X11955Y6092D03*
X11955Y6087D03*
X11960Y6082D03*
X11965Y6077D03*
X11965Y6072D03*
X11970Y6067D03*
X11970Y6062D03*
X11975Y6057D03*
X11980Y6052D03*
X11980Y6047D03*
X11985Y6042D03*
X12090Y6137D03*
X12090Y6142D03*
X12135Y6237D03*
X12140Y6247D03*
X12145Y6257D03*
X12150Y6267D03*
X12155Y6277D03*
X12160Y6287D03*
X12165Y6297D03*
X12250Y6462D03*
X11685Y6552D03*
X11585Y6602D03*
X11585Y6607D03*
X11590Y6612D03*
X11590Y6617D03*
X11595Y6622D03*
X11595Y6627D03*
X11600Y6632D03*
X11600Y6637D03*
X11605Y6642D03*
X11605Y6647D03*
X11610Y6652D03*
X11610Y6657D03*
X11615Y6662D03*
X11615Y6667D03*
X11620Y6672D03*
X11620Y6677D03*
X11625Y6682D03*
X11625Y6687D03*
X11630Y6692D03*
X11630Y6697D03*
X11635Y6702D03*
X11640Y6712D03*
X11645Y6722D03*
X11650Y6732D03*
X11655Y6742D03*
X11660Y6752D03*
X11665Y6762D03*
X11670Y6772D03*
X11675Y6782D03*
X11680Y6792D03*
X11710Y6847D03*
X11715Y6857D03*
X11720Y6867D03*
X11725Y6877D03*
X11730Y6887D03*
X11735Y6897D03*
X11740Y6907D03*
X11745Y6917D03*
X11750Y6927D03*
X11755Y6937D03*
X11760Y6947D03*
X11765Y6957D03*
X11770Y6967D03*
X11775Y6977D03*
X11780Y6987D03*
X11785Y6997D03*
X11790Y7007D03*
X11795Y7017D03*
X11800Y7027D03*
X11805Y7037D03*
X11580Y6597D03*
X11575Y6587D03*
X11570Y6577D03*
X11520Y6482D03*
X11520Y6477D03*
X11020Y7152D03*
X11015Y7162D03*
X11015Y7167D03*
X11010Y7177D03*
X11005Y7187D03*
X11005Y7192D03*
X11000Y7202D03*
X10995Y7212D03*
X10995Y7217D03*
X10990Y7227D03*
X10990Y7232D03*
X10985Y7237D03*
X10985Y7242D03*
X10980Y7252D03*
X10980Y7257D03*
X10975Y7262D03*
X10975Y7267D03*
X10970Y7277D03*
X10970Y7282D03*
X10965Y7292D03*
X10960Y7302D03*
X10960Y7307D03*
X10955Y7317D03*
X10950Y7327D03*
X10950Y7332D03*
X10945Y7342D03*
X10940Y7352D03*
X10940Y7357D03*
X10935Y7367D03*
X10930Y7377D03*
X10930Y7382D03*
X10925Y7392D03*
X10920Y7402D03*
X10920Y7407D03*
X10915Y7417D03*
X10910Y7432D03*
X10905Y7442D03*
X12170Y5742D03*
D77*
X11252Y5747D03*
X10887Y7077D03*
D78*
X11520Y6492D03*
X11520Y6487D03*
X11465Y6032D03*
X11980Y6037D03*
X12165Y5747D03*
X12240Y6432D03*
X12240Y6437D03*
X11850Y7112D03*
X11850Y7117D03*
D79*
X12332Y7412D03*
X10877Y7062D03*
X11252Y5752D03*
D80*
X11572Y5752D03*
X10837Y5937D03*
X10832Y5942D03*
X10582Y6457D03*
X10577Y6462D03*
X10572Y6467D03*
X10572Y6917D03*
X10577Y6922D03*
X10582Y6927D03*
X11972Y7267D03*
X13222Y6807D03*
X13227Y6802D03*
X13232Y6357D03*
X13227Y6352D03*
X13222Y6347D03*
X13217Y6342D03*
X13192Y6317D03*
X13182Y6302D03*
X13132Y5867D03*
X13127Y5862D03*
X13122Y5857D03*
D81*
X12237Y6422D03*
X12237Y6427D03*
X12092Y6167D03*
X12092Y6162D03*
X12092Y6157D03*
X12162Y5752D03*
X11687Y6537D03*
X11522Y6502D03*
X11522Y6497D03*
X11847Y7107D03*
X11967Y7232D03*
D82*
X11342Y5757D03*
D83*
X12700Y5757D03*
D84*
X12157Y5762D03*
X12092Y6177D03*
X12227Y6392D03*
X12227Y6397D03*
X12232Y6407D03*
X11687Y6527D03*
X11527Y6512D03*
X11467Y6042D03*
X11847Y7092D03*
X11847Y7097D03*
X11382Y7347D03*
D85*
X12947Y6957D03*
X12467Y5762D03*
D86*
X11317Y5767D03*
D87*
X11467Y6057D03*
X11952Y5912D03*
X11967Y5902D03*
X11987Y5887D03*
X12002Y5877D03*
X12007Y5872D03*
X12017Y5867D03*
X12072Y5827D03*
X12087Y5817D03*
X12152Y5767D03*
X12097Y6192D03*
X12222Y6372D03*
X12222Y6377D03*
X11527Y6522D03*
X11527Y6527D03*
X11847Y7082D03*
X11847Y7087D03*
X11567Y7472D03*
X11007Y7137D03*
D88*
X10925Y7107D03*
X10985Y5847D03*
X12455Y5767D03*
D89*
X11310Y5772D03*
X12330Y7367D03*
D90*
X11532Y6542D03*
X12097Y6212D03*
X12097Y6207D03*
X12097Y6202D03*
X11967Y6032D03*
X11882Y5962D03*
X12027Y5862D03*
X12032Y5857D03*
X12047Y5847D03*
X12152Y5772D03*
X12412Y5812D03*
X12212Y6342D03*
X12212Y6347D03*
X11467Y6067D03*
D91*
X12982Y5772D03*
X13077Y6897D03*
X12597Y7317D03*
X11982Y7292D03*
D92*
X11970Y7242D03*
X11845Y7067D03*
X11845Y7062D03*
X11395Y7352D03*
X11530Y6547D03*
X11690Y6502D03*
X12100Y6217D03*
X12210Y6332D03*
X12210Y6337D03*
X11875Y5972D03*
X12150Y5777D03*
X11470Y6072D03*
X11470Y6077D03*
D93*
X11905Y6002D03*
X12995Y5777D03*
X12615Y7312D03*
D94*
X11292Y5782D03*
D95*
X11495Y5862D03*
X11470Y6087D03*
X12100Y6227D03*
X12200Y6307D03*
X12205Y6317D03*
X12145Y5782D03*
X12415Y5807D03*
X11535Y6562D03*
X11535Y6567D03*
X11840Y7047D03*
X11970Y7247D03*
D96*
X12330Y7362D03*
X11285Y5787D03*
D97*
X11467Y6092D03*
X11692Y6482D03*
X11692Y6487D03*
X11537Y6572D03*
X12142Y5787D03*
D98*
X13020Y5787D03*
X12900Y6992D03*
X12635Y7302D03*
X12330Y7432D03*
X10940Y7117D03*
X10685Y6997D03*
X10690Y6382D03*
X10700Y6377D03*
X10705Y6372D03*
X10710Y6367D03*
D99*
X11470Y6097D03*
X12140Y5792D03*
D100*
X12425Y5792D03*
X11940Y6022D03*
X11485Y5852D03*
X10825Y5947D03*
X10820Y5952D03*
X10815Y5957D03*
X10570Y6912D03*
X12330Y7437D03*
X12750Y7222D03*
X12755Y7217D03*
X12760Y7212D03*
X12765Y7207D03*
X13230Y6797D03*
X13235Y6792D03*
X13240Y6787D03*
X13235Y6362D03*
X13180Y6297D03*
X13140Y5872D03*
D101*
X11267Y5797D03*
X11262Y5802D03*
D102*
X11490Y5857D03*
X12135Y5797D03*
X13215Y5992D03*
X13220Y6002D03*
X13220Y6007D03*
X13220Y6012D03*
X13225Y6022D03*
X13225Y6027D03*
X13225Y6032D03*
X13230Y6042D03*
X13230Y6047D03*
X13230Y6052D03*
X13230Y6057D03*
X13230Y6062D03*
X13235Y6102D03*
X13235Y6107D03*
X13235Y6112D03*
X13230Y6132D03*
X13230Y6137D03*
X13230Y6142D03*
X13230Y6147D03*
X13230Y6152D03*
X13225Y6157D03*
X13225Y6162D03*
X13225Y6167D03*
X13225Y6172D03*
X13220Y6177D03*
X13220Y6182D03*
X13215Y6197D03*
X13305Y6467D03*
X13310Y6482D03*
X13315Y6492D03*
X13315Y6497D03*
X13315Y6502D03*
X13320Y6512D03*
X13320Y6517D03*
X13320Y6522D03*
X13320Y6527D03*
X13325Y6542D03*
X13325Y6547D03*
X13325Y6552D03*
X13325Y6557D03*
X13325Y6562D03*
X13325Y6567D03*
X13325Y6572D03*
X13325Y6577D03*
X13325Y6582D03*
X13325Y6587D03*
X13325Y6592D03*
X13325Y6597D03*
X13325Y6602D03*
X13325Y6607D03*
X13320Y6627D03*
X13320Y6632D03*
X13320Y6637D03*
X13320Y6642D03*
X13315Y6647D03*
X13315Y6652D03*
X13315Y6657D03*
X13310Y6667D03*
X13310Y6672D03*
X12850Y7017D03*
X12850Y7022D03*
X12850Y7027D03*
X12845Y7042D03*
X12845Y7047D03*
X12845Y7052D03*
X12845Y7057D03*
X12840Y7067D03*
X12840Y7072D03*
X12840Y7077D03*
X12835Y7087D03*
X12830Y7102D03*
X10745Y6267D03*
X10740Y6257D03*
X10740Y6252D03*
X10740Y6247D03*
X10735Y6237D03*
X10735Y6232D03*
X10735Y6227D03*
X10735Y6222D03*
X10730Y6212D03*
X10730Y6207D03*
X10730Y6202D03*
X10730Y6197D03*
X10730Y6192D03*
X10730Y6187D03*
X10730Y6182D03*
X10730Y6177D03*
X10730Y6172D03*
X10730Y6167D03*
X10730Y6162D03*
X10730Y6157D03*
X10730Y6152D03*
X10730Y6147D03*
X10730Y6142D03*
X10730Y6137D03*
X10730Y6132D03*
X10735Y6117D03*
X10735Y6112D03*
X10735Y6107D03*
X10735Y6102D03*
X10740Y6097D03*
X10740Y6092D03*
X10740Y6087D03*
X10745Y6077D03*
X10490Y6597D03*
X10485Y6612D03*
X10485Y6617D03*
X10485Y6622D03*
X10480Y6627D03*
X10480Y6632D03*
X10480Y6637D03*
X10480Y6642D03*
X10475Y6652D03*
X10475Y6657D03*
X10475Y6662D03*
X10475Y6667D03*
X10475Y6672D03*
X10475Y6677D03*
X10475Y6682D03*
X10475Y6687D03*
X10475Y6692D03*
X10475Y6697D03*
X10475Y6702D03*
X10475Y6707D03*
X10475Y6712D03*
X10475Y6717D03*
X10475Y6722D03*
X10475Y6727D03*
X10480Y6742D03*
X10480Y6747D03*
X10480Y6752D03*
X10480Y6757D03*
X10485Y6762D03*
X10485Y6767D03*
X10485Y6772D03*
X10490Y6782D03*
X10490Y6787D03*
D103*
X10500Y6812D03*
X10505Y6822D03*
X10510Y6832D03*
X10515Y6842D03*
X10520Y6852D03*
X10500Y6572D03*
X10505Y6562D03*
X10510Y6552D03*
X10515Y6542D03*
X10520Y6532D03*
X10760Y6302D03*
X10755Y6292D03*
X10760Y6037D03*
X10765Y6027D03*
X10770Y6022D03*
X10775Y6012D03*
X12420Y5797D03*
X13185Y5932D03*
X13190Y5937D03*
X13190Y5942D03*
X13195Y5947D03*
X13200Y5957D03*
X13205Y5967D03*
X13205Y6222D03*
X13200Y6232D03*
X13195Y6242D03*
X13190Y6247D03*
X13185Y6257D03*
X13175Y6277D03*
X13280Y6417D03*
X13285Y6427D03*
X13290Y6432D03*
X13290Y6437D03*
X13295Y6707D03*
X13290Y6717D03*
X13285Y6722D03*
X13285Y6727D03*
X13280Y6732D03*
X13275Y6742D03*
X12815Y7132D03*
X12815Y7137D03*
X12810Y7142D03*
X12810Y7147D03*
X12805Y7152D03*
X11970Y7257D03*
D104*
X12817Y7127D03*
X12822Y7122D03*
X12822Y7117D03*
X12827Y7112D03*
X12827Y7107D03*
X12832Y7097D03*
X12832Y7092D03*
X12837Y7082D03*
X13292Y6712D03*
X13297Y6702D03*
X13297Y6697D03*
X13302Y6692D03*
X13302Y6687D03*
X13307Y6682D03*
X13307Y6677D03*
X13312Y6662D03*
X13317Y6507D03*
X13312Y6487D03*
X13307Y6477D03*
X13307Y6472D03*
X13302Y6462D03*
X13302Y6457D03*
X13297Y6452D03*
X13297Y6447D03*
X13292Y6442D03*
X13197Y6237D03*
X13202Y6227D03*
X13207Y6217D03*
X13207Y6212D03*
X13212Y6207D03*
X13212Y6202D03*
X13217Y6192D03*
X13217Y6187D03*
X13222Y6017D03*
X13217Y5997D03*
X13212Y5987D03*
X13212Y5982D03*
X13207Y5977D03*
X13207Y5972D03*
X13202Y5962D03*
X13197Y5952D03*
X12132Y5802D03*
X11882Y5977D03*
X10762Y6032D03*
X10757Y6042D03*
X10757Y6047D03*
X10752Y6052D03*
X10752Y6057D03*
X10747Y6062D03*
X10747Y6067D03*
X10747Y6072D03*
X10742Y6082D03*
X10737Y6242D03*
X10742Y6262D03*
X10747Y6272D03*
X10747Y6277D03*
X10752Y6282D03*
X10752Y6287D03*
X10757Y6297D03*
X10762Y6307D03*
X10512Y6547D03*
X10507Y6557D03*
X10502Y6567D03*
X10497Y6577D03*
X10497Y6582D03*
X10492Y6587D03*
X10492Y6592D03*
X10487Y6602D03*
X10487Y6607D03*
X10487Y6777D03*
X10492Y6792D03*
X10492Y6797D03*
X10497Y6802D03*
X10497Y6807D03*
X10502Y6817D03*
X10507Y6827D03*
X10512Y6837D03*
D105*
X10477Y6737D03*
X10477Y6732D03*
X10477Y6647D03*
X10732Y6217D03*
X10732Y6127D03*
X10732Y6122D03*
X11952Y6027D03*
X12417Y5802D03*
X13227Y6037D03*
X13232Y6067D03*
X13232Y6072D03*
X13232Y6077D03*
X13232Y6082D03*
X13232Y6087D03*
X13232Y6092D03*
X13232Y6097D03*
X13232Y6117D03*
X13232Y6122D03*
X13232Y6127D03*
X13322Y6532D03*
X13322Y6537D03*
X13322Y6612D03*
X13322Y6617D03*
X13322Y6622D03*
X12847Y7032D03*
X12847Y7037D03*
X12842Y7062D03*
X11972Y7252D03*
X11407Y7357D03*
D106*
X12330Y7357D03*
X11255Y5807D03*
D107*
X11467Y5842D03*
X11902Y5987D03*
X10907Y5882D03*
X10737Y6342D03*
X10647Y6407D03*
X10647Y6977D03*
X10952Y7122D03*
X11977Y7277D03*
X13057Y5807D03*
D108*
X13160Y5897D03*
X13165Y5902D03*
X13170Y5907D03*
X13250Y6377D03*
X13255Y6382D03*
X13260Y6387D03*
X13260Y6392D03*
X13265Y6397D03*
X13270Y6402D03*
X13265Y6757D03*
X13260Y6762D03*
X13255Y6767D03*
X13255Y6772D03*
X12785Y7182D03*
X12780Y7187D03*
X10975Y7132D03*
X10550Y6892D03*
X10545Y6887D03*
X10540Y6882D03*
X10535Y6872D03*
X10535Y6512D03*
X10540Y6502D03*
X10545Y6497D03*
X10550Y6492D03*
X10790Y5987D03*
X10795Y5982D03*
X10800Y5977D03*
X12125Y5812D03*
D109*
X12410Y5817D03*
X12095Y6182D03*
X12095Y6187D03*
X12225Y6382D03*
X12225Y6387D03*
X11690Y6517D03*
X11690Y6522D03*
X11525Y6517D03*
X11470Y6052D03*
X11470Y6047D03*
X11970Y7237D03*
D110*
X11852Y7122D03*
X11372Y7342D03*
X11062Y7027D03*
X11577Y6592D03*
X11572Y6582D03*
X11687Y6547D03*
X11687Y6542D03*
X11727Y6477D03*
X11727Y6472D03*
X11732Y6467D03*
X11737Y6462D03*
X11737Y6457D03*
X11742Y6452D03*
X11742Y6447D03*
X11747Y6442D03*
X11752Y6432D03*
X11757Y6427D03*
X11757Y6422D03*
X11762Y6417D03*
X11767Y6407D03*
X11772Y6402D03*
X11772Y6397D03*
X11777Y6392D03*
X11782Y6382D03*
X11787Y6372D03*
X11792Y6367D03*
X11797Y6357D03*
X11802Y6347D03*
X11812Y6332D03*
X11817Y6322D03*
X11827Y6307D03*
X11832Y6297D03*
X11837Y6287D03*
X12092Y6152D03*
X12092Y6147D03*
X12242Y6442D03*
X12242Y6447D03*
X12247Y6452D03*
X12247Y6457D03*
X11467Y6027D03*
X12412Y5822D03*
D111*
X11230Y5827D03*
D112*
X11222Y5832D03*
D113*
X11025Y5837D03*
X10905Y7092D03*
D114*
X12582Y7322D03*
X12927Y6972D03*
X10997Y5842D03*
D115*
X10812Y5962D03*
X10807Y5967D03*
X10802Y5972D03*
X10757Y6317D03*
X10567Y6472D03*
X10562Y6477D03*
X10557Y6482D03*
X10552Y6487D03*
X10552Y6897D03*
X10557Y6902D03*
X10562Y6907D03*
X11972Y7262D03*
X12767Y7202D03*
X12772Y7197D03*
X12777Y7192D03*
X13242Y6782D03*
X13247Y6777D03*
X13247Y6372D03*
X13242Y6367D03*
X13177Y6292D03*
X13157Y5892D03*
X13152Y5887D03*
X13147Y5882D03*
X13142Y5877D03*
D116*
X12082Y6042D03*
X11462Y5942D03*
X11502Y6387D03*
X11502Y6392D03*
X12297Y6617D03*
X12297Y6622D03*
X11967Y7222D03*
D117*
X11865Y7212D03*
X11865Y7207D03*
X11680Y6617D03*
X11680Y6612D03*
X11505Y6397D03*
X12080Y6052D03*
X12080Y6047D03*
X11465Y5947D03*
X12295Y6607D03*
X12295Y6612D03*
D118*
X12292Y6602D03*
X12292Y6597D03*
X11682Y6607D03*
X11502Y6402D03*
X12082Y6062D03*
X12082Y6057D03*
X11462Y5952D03*
X11862Y7197D03*
X11862Y7202D03*
X12327Y7442D03*
D119*
X12290Y6592D03*
X12290Y6587D03*
X12285Y6582D03*
X12285Y6577D03*
X11680Y6602D03*
X11505Y6412D03*
X11505Y6407D03*
X11465Y5962D03*
X11465Y5957D03*
D120*
X11465Y5972D03*
X11465Y5977D03*
X11510Y6427D03*
X12085Y6087D03*
X12085Y6082D03*
X12085Y6077D03*
X12280Y6557D03*
X12280Y6562D03*
X11860Y7177D03*
X11860Y7182D03*
D121*
X11842Y7057D03*
X11842Y7052D03*
X11692Y6497D03*
X11692Y6492D03*
X11532Y6552D03*
X11532Y6557D03*
X12097Y6222D03*
X12202Y6312D03*
X12207Y6322D03*
X12207Y6327D03*
X11467Y6082D03*
D122*
X11512Y6447D03*
X11512Y6452D03*
X11682Y6577D03*
X12267Y6522D03*
X12267Y6517D03*
X12087Y6107D03*
X12087Y6102D03*
X11857Y7157D03*
X11857Y7162D03*
D123*
X12980Y6932D03*
X12995Y6922D03*
X13005Y6917D03*
D124*
X12987Y6927D03*
X10892Y7082D03*
D125*
X11990Y7307D03*
X12330Y7422D03*
X12955Y6952D03*
D126*
X12940Y6962D03*
X12565Y7327D03*
X10910Y7097D03*
D127*
X10852Y7032D03*
X11562Y7437D03*
D128*
X10855Y7037D03*
D129*
X10865Y7047D03*
X12330Y7407D03*
D130*
X10867Y7052D03*
D131*
X10915Y7102D03*
D132*
X11995Y7312D03*
D133*
X11997Y7317D03*
D134*
X12005Y7322D03*
X11545Y7447D03*
D135*
X12015Y7327D03*
X12330Y7402D03*
D136*
X12237Y7332D03*
D137*
X12227Y7337D03*
D138*
X12215Y7342D03*
D139*
X12200Y7347D03*
D140*
X12182Y7352D03*
D141*
X11642Y7367D03*
X11637Y7372D03*
D142*
X12330Y7372D03*
D143*
X11632Y7377D03*
D144*
X12330Y7377D03*
D145*
X12330Y7382D03*
X11625Y7387D03*
D146*
X11615Y7397D03*
X12330Y7387D03*
D147*
X12330Y7392D03*
D148*
X12332Y7397D03*
D149*
X11607Y7402D03*
D150*
X11592Y7417D03*
D151*
X12332Y7417D03*
D152*
X11585Y7422D03*
D153*
X11570Y7432D03*
D154*
X11535Y7452D03*
D155*
X12928Y8530D02*
X13208Y8530D01*
X14320Y7504D02*
X15107Y7504D01*
X15934Y6874D02*
X15934Y5693D01*
X15107Y5063D02*
X14320Y5063D01*
X13493Y5693D02*
X13493Y6874D01*
X14025Y6283D02*
X14027Y6335D01*
X14033Y6387D01*
X14043Y6438D01*
X14056Y6488D01*
X14074Y6538D01*
X14095Y6585D01*
X14119Y6631D01*
X14148Y6675D01*
X14179Y6717D01*
X14213Y6756D01*
X14250Y6793D01*
X14290Y6826D01*
X14333Y6857D01*
X14377Y6884D01*
X14423Y6908D01*
X14472Y6928D01*
X14521Y6944D01*
X14572Y6957D01*
X14623Y6966D01*
X14675Y6971D01*
X14727Y6972D01*
X14779Y6969D01*
X14831Y6962D01*
X14882Y6951D01*
X14932Y6937D01*
X14981Y6918D01*
X15028Y6896D01*
X15073Y6871D01*
X15117Y6842D01*
X15158Y6810D01*
X15197Y6775D01*
X15232Y6737D01*
X15265Y6696D01*
X15295Y6654D01*
X15321Y6609D01*
X15344Y6562D01*
X15363Y6513D01*
X15379Y6463D01*
X15391Y6413D01*
X15399Y6361D01*
X15403Y6309D01*
X15403Y6257D01*
X15399Y6205D01*
X15391Y6153D01*
X15379Y6103D01*
X15363Y6053D01*
X15344Y6004D01*
X15321Y5957D01*
X15295Y5912D01*
X15265Y5870D01*
X15232Y5829D01*
X15197Y5791D01*
X15158Y5756D01*
X15117Y5724D01*
X15073Y5695D01*
X15028Y5670D01*
X14981Y5648D01*
X14932Y5629D01*
X14882Y5615D01*
X14831Y5604D01*
X14779Y5597D01*
X14727Y5594D01*
X14675Y5595D01*
X14623Y5600D01*
X14572Y5609D01*
X14521Y5622D01*
X14472Y5638D01*
X14423Y5658D01*
X14377Y5682D01*
X14333Y5709D01*
X14290Y5740D01*
X14250Y5773D01*
X14213Y5810D01*
X14179Y5849D01*
X14148Y5891D01*
X14119Y5935D01*
X14095Y5981D01*
X14074Y6028D01*
X14056Y6078D01*
X14043Y6128D01*
X14033Y6179D01*
X14027Y6231D01*
X14025Y6283D01*
X15641Y3897D02*
X15921Y3897D01*
X15795Y3259D02*
X15295Y3259D01*
X15045Y3009D01*
X14795Y3259D01*
X14295Y3259D01*
X14045Y3009D01*
X13795Y3259D01*
X13295Y3259D01*
X13045Y3009D01*
X12795Y3259D01*
X12295Y3259D01*
X12045Y3009D01*
X11795Y3259D01*
X11295Y3259D01*
X11045Y3009D01*
X11045Y2509D01*
X11295Y2259D01*
X11795Y2259D01*
X12045Y2509D01*
X12295Y2259D01*
X12795Y2259D01*
X13045Y2509D01*
X13295Y2259D01*
X13795Y2259D01*
X14045Y2509D01*
X14295Y2259D01*
X14795Y2259D01*
X15045Y2509D01*
X15295Y2259D01*
X15795Y2259D01*
X16045Y2509D01*
X16295Y2259D01*
X16795Y2259D01*
X17045Y2509D01*
X17045Y3009D01*
X16795Y3259D01*
X16295Y3259D01*
X16045Y3009D01*
X15795Y3259D01*
X15781Y8825D02*
X15781Y9105D01*
X15641Y8965D02*
X15921Y8965D01*
X6558Y9812D02*
X6558Y10312D01*
X6308Y10562D01*
X5808Y10562D01*
X5558Y10312D01*
X5308Y10562D01*
X4808Y10562D01*
X4558Y10312D01*
X4308Y10562D01*
X3808Y10562D01*
X3558Y10312D01*
X3308Y10562D01*
X2808Y10562D01*
X2558Y10312D01*
X2558Y9812D01*
X2808Y9562D01*
X3308Y9562D01*
X3558Y9812D01*
X3808Y9562D01*
X4308Y9562D01*
X4558Y9812D01*
X4808Y9562D01*
X5308Y9562D01*
X5558Y9812D01*
X5808Y9562D01*
X6308Y9562D01*
X6558Y9812D01*
X4484Y8764D02*
X4090Y8764D01*
X4484Y8764D02*
X4484Y4040D01*
X4090Y4040D01*
X4708Y4205D02*
X4988Y4205D01*
X4848Y4065D02*
X4848Y4345D01*
X3034Y5123D02*
X3034Y5623D01*
X2784Y5873D01*
X3034Y6123D01*
X3034Y6623D01*
X2784Y6873D01*
X3034Y7123D01*
X3034Y7623D01*
X2784Y7873D01*
X2284Y7873D01*
X2034Y7623D01*
X2034Y7123D01*
X2284Y6873D01*
X2034Y6623D01*
X2034Y6123D01*
X2284Y5873D01*
X2034Y5623D01*
X2034Y5123D01*
X2284Y4873D01*
X2784Y4873D01*
X3034Y5123D01*
X2909Y4040D02*
X153Y4040D01*
X153Y8764D01*
X2909Y8764D01*
D156*
X3165Y3001D03*
X4051Y3001D03*
D157*
X12872Y9892D02*
X12892Y9912D01*
X13042Y9912D01*
X12992Y10312D02*
X12892Y10312D01*
X12872Y10332D01*
D158*
X13107Y10312D03*
X13107Y9912D03*
D159*
X1874Y17897D02*
X1874Y18597D01*
X1974Y18497D01*
X1984Y18487D02*
X1764Y18487D01*
X1774Y18497D02*
X1874Y18597D01*
X2034Y18097D02*
X2174Y18147D01*
X2124Y18047D01*
X2034Y18097D01*
X2124Y18047D02*
X2122Y18077D01*
X2117Y18107D01*
X2108Y18136D01*
X2095Y18163D01*
X2080Y18189D01*
X2061Y18213D01*
X2040Y18234D01*
X2016Y18253D01*
X1990Y18268D01*
X1963Y18281D01*
X1934Y18290D01*
X1904Y18295D01*
X1874Y18297D01*
X1844Y18295D01*
X1814Y18290D01*
X1785Y18281D01*
X1758Y18268D01*
X1732Y18253D01*
X1708Y18234D01*
X1687Y18213D01*
X1668Y18189D01*
X1653Y18163D01*
X1640Y18136D01*
X1631Y18107D01*
X1626Y18077D01*
X1624Y18047D01*
X2474Y18297D02*
X2574Y18397D01*
X2574Y18197D01*
X2474Y18297D01*
X3224Y18297D01*
X3394Y18197D02*
X3474Y18097D01*
X3574Y18177D01*
X3394Y18197D01*
X3024Y18097D02*
X2996Y18099D01*
X2968Y18104D01*
X2941Y18113D01*
X2916Y18125D01*
X2892Y18140D01*
X2870Y18158D01*
X2851Y18179D01*
X2834Y18201D01*
X2820Y18226D01*
X2810Y18252D01*
X2803Y18280D01*
X2799Y18308D01*
X2799Y18336D01*
X2803Y18364D01*
X2810Y18392D01*
X2820Y18418D01*
X2834Y18443D01*
X2851Y18465D01*
X2870Y18486D01*
X2892Y18504D01*
X2916Y18519D01*
X2941Y18531D01*
X2968Y18540D01*
X2996Y18545D01*
X3024Y18547D01*
X2974Y18447D01*
X2924Y18597D01*
X3024Y18547D01*
X3474Y18097D02*
X3472Y18135D01*
X3474Y18172D01*
X3480Y18210D01*
X3490Y18247D01*
X3503Y18282D01*
X3520Y18316D01*
X3540Y18349D01*
X3564Y18379D01*
X3590Y18406D01*
X3619Y18431D01*
X3650Y18452D01*
X3684Y18471D01*
X3719Y18486D01*
X3755Y18497D01*
X3792Y18505D01*
X3830Y18509D01*
X3868Y18509D01*
X3906Y18505D01*
X3943Y18497D01*
X3979Y18486D01*
X4014Y18471D01*
X4048Y18452D01*
X4079Y18431D01*
X4108Y18406D01*
X4134Y18379D01*
X4158Y18349D01*
X4178Y18316D01*
X4195Y18282D01*
X4208Y18247D01*
X4218Y18210D01*
X4224Y18172D01*
X4226Y18135D01*
X4224Y18097D01*
D160*
X984Y18070D02*
X984Y17860D01*
X564Y17860D01*
X564Y18070D01*
X634Y18140D01*
X914Y18140D01*
X984Y18070D01*
X914Y17680D02*
X634Y17680D01*
X914Y17399D01*
X984Y17469D01*
X984Y17610D01*
X914Y17680D01*
X634Y17680D02*
X564Y17610D01*
X564Y17469D01*
X634Y17399D01*
X914Y17399D01*
X914Y17219D02*
X984Y17149D01*
X984Y17009D01*
X914Y16939D01*
X634Y17219D01*
X914Y17219D01*
X914Y16939D02*
X634Y16939D01*
X564Y17009D01*
X564Y17149D01*
X634Y17219D01*
X634Y16759D02*
X564Y16689D01*
X564Y16549D01*
X634Y16479D01*
X774Y16298D02*
X774Y16018D01*
X564Y16228D01*
X984Y16228D01*
X984Y16479D02*
X704Y16759D01*
X634Y16759D01*
X984Y16759D02*
X984Y16479D01*
X914Y15838D02*
X774Y15838D01*
X774Y15698D01*
X634Y15838D02*
X564Y15768D01*
X564Y15628D01*
X634Y15558D01*
X914Y15558D01*
X984Y15628D01*
X984Y15768D01*
X914Y15838D01*
X914Y15378D02*
X844Y15378D01*
X774Y15308D01*
X774Y15238D01*
X774Y15308D02*
X704Y15378D01*
X634Y15378D01*
X564Y15308D01*
X564Y15167D01*
X634Y15097D01*
X914Y15097D02*
X984Y15167D01*
X984Y15308D01*
X914Y15378D01*
X984Y14917D02*
X984Y14637D01*
X564Y14637D01*
X2724Y13147D02*
X2724Y12647D01*
X2974Y12397D01*
X3474Y12397D01*
X3724Y12647D01*
X3974Y12397D01*
X4474Y12397D01*
X4724Y12647D01*
X4974Y12397D01*
X5474Y12397D01*
X5724Y12647D01*
X5974Y12397D01*
X6474Y12397D01*
X6724Y12647D01*
X6724Y13147D01*
X6474Y13397D01*
X5974Y13397D01*
X5724Y13147D01*
X5474Y13397D01*
X4974Y13397D01*
X4724Y13147D01*
X4474Y13397D01*
X3974Y13397D01*
X3724Y13147D01*
X3474Y13397D01*
X2974Y13397D01*
X2724Y13147D01*
X7624Y14547D02*
X7874Y14297D01*
X8374Y14297D01*
X8624Y14547D01*
X8624Y15047D01*
X8374Y15297D01*
X8624Y15547D01*
X8624Y16047D01*
X8374Y16297D01*
X8624Y16547D01*
X8624Y17047D01*
X8374Y17297D01*
X8624Y17547D01*
X8624Y18047D01*
X8374Y18297D01*
X7874Y18297D01*
X7624Y18047D01*
X7624Y17547D01*
X7874Y17297D01*
X7624Y17047D01*
X7624Y16547D01*
X7874Y16297D01*
X7624Y16047D01*
X7624Y15547D01*
X7874Y15297D01*
X7624Y15047D01*
X7624Y14547D01*
D161*
X6949Y15527D02*
X6722Y15527D01*
X6949Y15754D01*
X6949Y15811D01*
X6892Y15867D01*
X6779Y15867D01*
X6722Y15811D01*
X6581Y15811D02*
X6581Y15697D01*
X6524Y15640D01*
X6354Y15640D01*
X6354Y15527D02*
X6354Y15867D01*
X6524Y15867D01*
X6581Y15811D01*
X6467Y15640D02*
X6581Y15527D01*
X6419Y14540D02*
X6192Y14540D01*
X6079Y14427D01*
X6192Y14314D01*
X6419Y14314D01*
X6362Y14172D02*
X6135Y14172D01*
X6079Y14115D01*
X6079Y13945D01*
X6419Y13945D01*
X6419Y14115D01*
X6362Y14172D01*
X6249Y14314D02*
X6249Y14540D01*
X6306Y13804D02*
X6249Y13747D01*
X6249Y13634D01*
X6192Y13577D01*
X6135Y13577D01*
X6079Y13634D01*
X6079Y13747D01*
X6135Y13804D01*
X6306Y13804D02*
X6362Y13804D01*
X6419Y13747D01*
X6419Y13634D01*
X6362Y13577D01*
X5419Y13634D02*
X5362Y13577D01*
X5419Y13634D02*
X5419Y13747D01*
X5362Y13804D01*
X5306Y13804D01*
X5249Y13747D01*
X5249Y13634D01*
X5192Y13577D01*
X5135Y13577D01*
X5079Y13634D01*
X5079Y13747D01*
X5135Y13804D01*
X5135Y13945D02*
X5362Y13945D01*
X5419Y14002D01*
X5419Y14115D01*
X5362Y14172D01*
X5419Y14314D02*
X5419Y14540D01*
X5419Y14314D02*
X5079Y14314D01*
X5135Y14172D02*
X5079Y14115D01*
X5079Y14002D01*
X5135Y13945D01*
X4419Y14002D02*
X4419Y14115D01*
X4362Y14172D01*
X4362Y14314D02*
X4419Y14370D01*
X4419Y14484D01*
X4362Y14540D01*
X4362Y14314D02*
X4135Y14314D01*
X4079Y14370D01*
X4079Y14484D01*
X4135Y14540D01*
X4135Y14172D02*
X4079Y14115D01*
X4079Y14002D01*
X4135Y13945D01*
X4362Y13945D01*
X4419Y14002D01*
X4306Y13804D02*
X4079Y13804D01*
X4306Y13804D02*
X4419Y13690D01*
X4306Y13577D01*
X4079Y13577D01*
X3419Y13634D02*
X3419Y13747D01*
X3362Y13804D01*
X3249Y13804D01*
X3249Y13690D01*
X3362Y13577D02*
X3135Y13577D01*
X3079Y13634D01*
X3079Y13747D01*
X3135Y13804D01*
X3079Y13945D02*
X3419Y14172D01*
X3079Y14172D01*
X3079Y14314D02*
X3079Y14484D01*
X3135Y14540D01*
X3362Y14540D01*
X3419Y14484D01*
X3419Y14314D01*
X3079Y14314D01*
X3079Y13945D02*
X3419Y13945D01*
X3419Y13634D02*
X3362Y13577D01*
X2713Y13734D02*
X2656Y13677D01*
X2542Y13677D01*
X2486Y13734D01*
X2599Y13847D02*
X2656Y13847D01*
X2713Y13790D01*
X2713Y13734D01*
X2656Y13847D02*
X2713Y13904D01*
X2713Y13961D01*
X2656Y14017D01*
X2542Y14017D01*
X2486Y13961D01*
X2344Y13961D02*
X2344Y13847D01*
X2288Y13790D01*
X2117Y13790D01*
X2117Y13677D02*
X2117Y14017D01*
X2288Y14017D01*
X2344Y13961D01*
X2231Y13790D02*
X2344Y13677D01*
X3024Y15077D02*
X2967Y15134D01*
X2967Y15361D01*
X3024Y15417D01*
X3138Y15417D01*
X3194Y15361D01*
X3336Y15304D02*
X3449Y15417D01*
X3449Y15077D01*
X3336Y15077D02*
X3563Y15077D01*
X3194Y15134D02*
X3138Y15077D01*
X3024Y15077D01*
X1694Y16084D02*
X1694Y16197D01*
X1637Y16254D01*
X1694Y16395D02*
X1467Y16622D01*
X1410Y16622D01*
X1354Y16565D01*
X1354Y16452D01*
X1410Y16395D01*
X1410Y16254D02*
X1354Y16197D01*
X1354Y16084D01*
X1410Y16027D01*
X1637Y16027D01*
X1694Y16084D01*
X1694Y16395D02*
X1694Y16622D01*
X1704Y17527D02*
X2044Y17754D01*
X2044Y17527D02*
X1704Y17754D01*
X2654Y17754D02*
X2710Y17754D01*
X2824Y17640D01*
X2994Y17640D01*
X2824Y17640D02*
X2710Y17527D01*
X2654Y17527D01*
X3704Y17527D02*
X3704Y17754D01*
X3760Y17754D01*
X3987Y17527D01*
X4044Y17527D01*
X4044Y17754D01*
X4461Y19027D02*
X4574Y19027D01*
X4631Y19084D01*
X4772Y19197D02*
X4999Y19197D01*
X4942Y19027D02*
X4942Y19367D01*
X4772Y19197D01*
X4631Y19311D02*
X4574Y19367D01*
X4461Y19367D01*
X4404Y19311D01*
X4404Y19084D01*
X4461Y19027D01*
X6554Y19077D02*
X6554Y19417D01*
X6724Y19417D01*
X6781Y19361D01*
X6781Y19247D01*
X6724Y19190D01*
X6554Y19190D01*
X6667Y19190D02*
X6781Y19077D01*
X6922Y19077D02*
X7149Y19077D01*
X7036Y19077D02*
X7036Y19417D01*
X6922Y19304D01*
X6929Y17217D02*
X6872Y17161D01*
X6929Y17217D02*
X7042Y17217D01*
X7099Y17161D01*
X7099Y17104D01*
X7042Y17047D01*
X7099Y16990D01*
X7099Y16934D01*
X7042Y16877D01*
X6929Y16877D01*
X6872Y16934D01*
X6731Y16934D02*
X6674Y16877D01*
X6561Y16877D01*
X6504Y16934D01*
X6504Y17161D01*
X6561Y17217D01*
X6674Y17217D01*
X6731Y17161D01*
X6986Y17047D02*
X7042Y17047D01*
X4899Y15227D02*
X4899Y14887D01*
X4786Y14887D02*
X5013Y14887D01*
X4786Y15114D02*
X4899Y15227D01*
X4644Y15227D02*
X4644Y14944D01*
X4588Y14887D01*
X4474Y14887D01*
X4417Y14944D01*
X4417Y15227D01*
D162*
X8799Y15187D02*
X8799Y15097D01*
X8844Y15052D01*
X9024Y15052D01*
X9069Y15097D01*
X9069Y15187D01*
X9024Y15233D01*
X8844Y15233D01*
X8799Y15187D01*
X8844Y14938D02*
X8799Y14893D01*
X8799Y14758D01*
X9069Y14758D01*
X9069Y14893D01*
X9024Y14938D01*
X8844Y14938D01*
X8844Y14643D02*
X8799Y14598D01*
X8799Y14508D01*
X8844Y14463D01*
X8889Y14463D01*
X8934Y14508D01*
X8934Y14598D01*
X8979Y14643D01*
X9024Y14643D01*
X9069Y14598D01*
X9069Y14508D01*
X9024Y14463D01*
X9024Y15558D02*
X8844Y15558D01*
X8799Y15603D01*
X8799Y15693D01*
X8844Y15738D01*
X8844Y15852D02*
X8889Y15852D01*
X8934Y15897D01*
X8934Y15987D01*
X8979Y16033D01*
X9024Y16033D01*
X9069Y15987D01*
X9069Y15897D01*
X9024Y15852D01*
X9024Y15738D02*
X9069Y15693D01*
X9069Y15603D01*
X9024Y15558D01*
X8844Y15852D02*
X8799Y15897D01*
X8799Y15987D01*
X8844Y16033D01*
X8799Y16317D02*
X8799Y16407D01*
X8799Y16362D02*
X9069Y16362D01*
X9069Y16317D02*
X9069Y16407D01*
X9069Y16513D02*
X8799Y16513D01*
X9069Y16693D01*
X8799Y16693D01*
X8799Y16808D02*
X8799Y16988D01*
X8799Y16898D02*
X9069Y16898D01*
X9069Y17102D02*
X8889Y17283D01*
X8844Y17283D01*
X8799Y17237D01*
X8799Y17147D01*
X8844Y17102D01*
X9069Y17102D02*
X9069Y17283D01*
X9069Y17561D02*
X9069Y17651D01*
X9069Y17606D02*
X8799Y17606D01*
X8799Y17561D02*
X8799Y17651D01*
X8799Y17758D02*
X9069Y17938D01*
X8799Y17938D01*
X8799Y17758D02*
X9069Y17758D01*
X9069Y18142D02*
X8799Y18142D01*
X8799Y18052D02*
X8799Y18233D01*
D163*
X1349Y11673D02*
X1283Y11671D01*
X1217Y11673D01*
X1151Y11679D01*
X1085Y11688D01*
X1020Y11701D01*
X955Y11718D01*
X892Y11738D01*
X830Y11762D01*
X770Y11789D01*
X711Y11820D01*
X653Y11854D01*
X598Y11891D01*
X545Y11931D01*
X495Y11974D01*
X446Y12019D01*
X401Y12068D01*
X358Y12118D01*
X318Y12171D01*
X281Y12226D01*
X247Y12284D01*
X216Y12343D01*
X189Y12403D01*
X165Y12465D01*
X145Y12528D01*
X128Y12593D01*
X115Y12658D01*
X106Y12724D01*
X100Y12790D01*
X98Y12856D01*
X100Y12922D01*
X99Y12922D02*
X99Y19672D01*
X724Y19672D02*
X726Y19722D01*
X732Y19771D01*
X742Y19820D01*
X755Y19867D01*
X773Y19914D01*
X794Y19959D01*
X818Y20002D01*
X846Y20043D01*
X877Y20082D01*
X911Y20118D01*
X948Y20152D01*
X988Y20182D01*
X1029Y20209D01*
X1073Y20233D01*
X1118Y20253D01*
X1165Y20269D01*
X1213Y20282D01*
X1262Y20291D01*
X1312Y20296D01*
X1361Y20297D01*
X1411Y20294D01*
X1460Y20287D01*
X1509Y20276D01*
X1556Y20262D01*
X1602Y20243D01*
X1647Y20221D01*
X1690Y20196D01*
X1730Y20167D01*
X1768Y20135D01*
X1804Y20101D01*
X1837Y20063D01*
X1866Y20023D01*
X1892Y19981D01*
X1915Y19937D01*
X1934Y19891D01*
X1950Y19844D01*
X1962Y19795D01*
X1970Y19746D01*
X1974Y19697D01*
X1974Y19647D01*
X1970Y19598D01*
X1962Y19549D01*
X1950Y19500D01*
X1934Y19453D01*
X1915Y19407D01*
X1892Y19363D01*
X1866Y19321D01*
X1837Y19281D01*
X1804Y19243D01*
X1768Y19209D01*
X1730Y19177D01*
X1690Y19148D01*
X1647Y19123D01*
X1602Y19101D01*
X1556Y19082D01*
X1509Y19068D01*
X1460Y19057D01*
X1411Y19050D01*
X1361Y19047D01*
X1312Y19048D01*
X1262Y19053D01*
X1213Y19062D01*
X1165Y19075D01*
X1118Y19091D01*
X1073Y19111D01*
X1029Y19135D01*
X988Y19162D01*
X948Y19192D01*
X911Y19226D01*
X877Y19262D01*
X846Y19301D01*
X818Y19342D01*
X794Y19385D01*
X773Y19430D01*
X755Y19477D01*
X742Y19524D01*
X732Y19573D01*
X726Y19622D01*
X724Y19672D01*
X99Y19672D02*
X101Y19740D01*
X106Y19807D01*
X115Y19874D01*
X128Y19941D01*
X145Y20006D01*
X164Y20071D01*
X188Y20135D01*
X215Y20197D01*
X245Y20258D01*
X278Y20316D01*
X314Y20373D01*
X354Y20428D01*
X396Y20481D01*
X442Y20532D01*
X489Y20579D01*
X540Y20625D01*
X593Y20667D01*
X648Y20707D01*
X705Y20743D01*
X763Y20776D01*
X824Y20806D01*
X886Y20833D01*
X950Y20857D01*
X1015Y20876D01*
X1080Y20893D01*
X1147Y20906D01*
X1214Y20915D01*
X1281Y20920D01*
X1349Y20922D01*
X8099Y20922D01*
X8167Y20920D01*
X8234Y20915D01*
X8301Y20906D01*
X8368Y20893D01*
X8433Y20876D01*
X8498Y20857D01*
X8562Y20833D01*
X8624Y20806D01*
X8685Y20776D01*
X8743Y20743D01*
X8800Y20707D01*
X8855Y20667D01*
X8908Y20625D01*
X8959Y20579D01*
X9006Y20532D01*
X9052Y20481D01*
X9094Y20428D01*
X9134Y20373D01*
X9170Y20316D01*
X9203Y20258D01*
X9233Y20197D01*
X9260Y20135D01*
X9284Y20071D01*
X9303Y20006D01*
X9320Y19941D01*
X9333Y19874D01*
X9342Y19807D01*
X9347Y19740D01*
X9349Y19672D01*
X9349Y12922D01*
X9347Y12854D01*
X9342Y12787D01*
X9333Y12720D01*
X9320Y12653D01*
X9303Y12588D01*
X9284Y12523D01*
X9260Y12459D01*
X9233Y12397D01*
X9203Y12336D01*
X9170Y12278D01*
X9134Y12221D01*
X9094Y12166D01*
X9052Y12113D01*
X9006Y12062D01*
X8959Y12015D01*
X8908Y11969D01*
X8855Y11927D01*
X8800Y11887D01*
X8743Y11851D01*
X8685Y11818D01*
X8624Y11788D01*
X8562Y11761D01*
X8498Y11737D01*
X8433Y11718D01*
X8368Y11701D01*
X8301Y11688D01*
X8234Y11679D01*
X8167Y11674D01*
X8099Y11672D01*
X1349Y11672D01*
X724Y12922D02*
X726Y12972D01*
X732Y13021D01*
X742Y13070D01*
X755Y13117D01*
X773Y13164D01*
X794Y13209D01*
X818Y13252D01*
X846Y13293D01*
X877Y13332D01*
X911Y13368D01*
X948Y13402D01*
X988Y13432D01*
X1029Y13459D01*
X1073Y13483D01*
X1118Y13503D01*
X1165Y13519D01*
X1213Y13532D01*
X1262Y13541D01*
X1312Y13546D01*
X1361Y13547D01*
X1411Y13544D01*
X1460Y13537D01*
X1509Y13526D01*
X1556Y13512D01*
X1602Y13493D01*
X1647Y13471D01*
X1690Y13446D01*
X1730Y13417D01*
X1768Y13385D01*
X1804Y13351D01*
X1837Y13313D01*
X1866Y13273D01*
X1892Y13231D01*
X1915Y13187D01*
X1934Y13141D01*
X1950Y13094D01*
X1962Y13045D01*
X1970Y12996D01*
X1974Y12947D01*
X1974Y12897D01*
X1970Y12848D01*
X1962Y12799D01*
X1950Y12750D01*
X1934Y12703D01*
X1915Y12657D01*
X1892Y12613D01*
X1866Y12571D01*
X1837Y12531D01*
X1804Y12493D01*
X1768Y12459D01*
X1730Y12427D01*
X1690Y12398D01*
X1647Y12373D01*
X1602Y12351D01*
X1556Y12332D01*
X1509Y12318D01*
X1460Y12307D01*
X1411Y12300D01*
X1361Y12297D01*
X1312Y12298D01*
X1262Y12303D01*
X1213Y12312D01*
X1165Y12325D01*
X1118Y12341D01*
X1073Y12361D01*
X1029Y12385D01*
X988Y12412D01*
X948Y12442D01*
X911Y12476D01*
X877Y12512D01*
X846Y12551D01*
X818Y12592D01*
X794Y12635D01*
X773Y12680D01*
X755Y12727D01*
X742Y12774D01*
X732Y12823D01*
X726Y12872D01*
X724Y12922D01*
X7474Y12922D02*
X7476Y12972D01*
X7482Y13021D01*
X7492Y13070D01*
X7505Y13117D01*
X7523Y13164D01*
X7544Y13209D01*
X7568Y13252D01*
X7596Y13293D01*
X7627Y13332D01*
X7661Y13368D01*
X7698Y13402D01*
X7738Y13432D01*
X7779Y13459D01*
X7823Y13483D01*
X7868Y13503D01*
X7915Y13519D01*
X7963Y13532D01*
X8012Y13541D01*
X8062Y13546D01*
X8111Y13547D01*
X8161Y13544D01*
X8210Y13537D01*
X8259Y13526D01*
X8306Y13512D01*
X8352Y13493D01*
X8397Y13471D01*
X8440Y13446D01*
X8480Y13417D01*
X8518Y13385D01*
X8554Y13351D01*
X8587Y13313D01*
X8616Y13273D01*
X8642Y13231D01*
X8665Y13187D01*
X8684Y13141D01*
X8700Y13094D01*
X8712Y13045D01*
X8720Y12996D01*
X8724Y12947D01*
X8724Y12897D01*
X8720Y12848D01*
X8712Y12799D01*
X8700Y12750D01*
X8684Y12703D01*
X8665Y12657D01*
X8642Y12613D01*
X8616Y12571D01*
X8587Y12531D01*
X8554Y12493D01*
X8518Y12459D01*
X8480Y12427D01*
X8440Y12398D01*
X8397Y12373D01*
X8352Y12351D01*
X8306Y12332D01*
X8259Y12318D01*
X8210Y12307D01*
X8161Y12300D01*
X8111Y12297D01*
X8062Y12298D01*
X8012Y12303D01*
X7963Y12312D01*
X7915Y12325D01*
X7868Y12341D01*
X7823Y12361D01*
X7779Y12385D01*
X7738Y12412D01*
X7698Y12442D01*
X7661Y12476D01*
X7627Y12512D01*
X7596Y12551D01*
X7568Y12592D01*
X7544Y12635D01*
X7523Y12680D01*
X7505Y12727D01*
X7492Y12774D01*
X7482Y12823D01*
X7476Y12872D01*
X7474Y12922D01*
X7474Y19672D02*
X7476Y19722D01*
X7482Y19771D01*
X7492Y19820D01*
X7505Y19867D01*
X7523Y19914D01*
X7544Y19959D01*
X7568Y20002D01*
X7596Y20043D01*
X7627Y20082D01*
X7661Y20118D01*
X7698Y20152D01*
X7738Y20182D01*
X7779Y20209D01*
X7823Y20233D01*
X7868Y20253D01*
X7915Y20269D01*
X7963Y20282D01*
X8012Y20291D01*
X8062Y20296D01*
X8111Y20297D01*
X8161Y20294D01*
X8210Y20287D01*
X8259Y20276D01*
X8306Y20262D01*
X8352Y20243D01*
X8397Y20221D01*
X8440Y20196D01*
X8480Y20167D01*
X8518Y20135D01*
X8554Y20101D01*
X8587Y20063D01*
X8616Y20023D01*
X8642Y19981D01*
X8665Y19937D01*
X8684Y19891D01*
X8700Y19844D01*
X8712Y19795D01*
X8720Y19746D01*
X8724Y19697D01*
X8724Y19647D01*
X8720Y19598D01*
X8712Y19549D01*
X8700Y19500D01*
X8684Y19453D01*
X8665Y19407D01*
X8642Y19363D01*
X8616Y19321D01*
X8587Y19281D01*
X8554Y19243D01*
X8518Y19209D01*
X8480Y19177D01*
X8440Y19148D01*
X8397Y19123D01*
X8352Y19101D01*
X8306Y19082D01*
X8259Y19068D01*
X8210Y19057D01*
X8161Y19050D01*
X8111Y19047D01*
X8062Y19048D01*
X8012Y19053D01*
X7963Y19062D01*
X7915Y19075D01*
X7868Y19091D01*
X7823Y19111D01*
X7779Y19135D01*
X7738Y19162D01*
X7698Y19192D01*
X7661Y19226D01*
X7627Y19262D01*
X7596Y19301D01*
X7568Y19342D01*
X7544Y19385D01*
X7523Y19430D01*
X7505Y19477D01*
X7492Y19524D01*
X7482Y19573D01*
X7476Y19622D01*
X7474Y19672D01*
D164*
X8099Y20547D02*
X8041Y20545D01*
X7982Y20539D01*
X7925Y20529D01*
X7868Y20516D01*
X7812Y20499D01*
X7757Y20478D01*
X7704Y20453D01*
X7653Y20425D01*
X7604Y20393D01*
X7557Y20359D01*
X7512Y20321D01*
X7470Y20280D01*
X7431Y20237D01*
X7395Y20191D01*
X7361Y20143D01*
X7332Y20093D01*
X7305Y20040D01*
X7282Y19986D01*
X7263Y19931D01*
X7248Y19875D01*
X7236Y19818D01*
X7228Y19760D01*
X7224Y19701D01*
X7224Y19643D01*
X7228Y19584D01*
X7236Y19526D01*
X7248Y19469D01*
X7263Y19413D01*
X7282Y19358D01*
X7305Y19304D01*
X7332Y19251D01*
X7361Y19201D01*
X7395Y19153D01*
X7431Y19107D01*
X7470Y19064D01*
X7512Y19023D01*
X7557Y18985D01*
X7604Y18951D01*
X7653Y18919D01*
X7704Y18891D01*
X7757Y18866D01*
X7812Y18845D01*
X7868Y18828D01*
X7925Y18815D01*
X7982Y18805D01*
X8041Y18799D01*
X8099Y18797D01*
X8157Y18799D01*
X8216Y18805D01*
X8273Y18815D01*
X8330Y18828D01*
X8386Y18845D01*
X8441Y18866D01*
X8494Y18891D01*
X8545Y18919D01*
X8594Y18951D01*
X8641Y18985D01*
X8686Y19023D01*
X8728Y19064D01*
X8767Y19107D01*
X8803Y19153D01*
X8837Y19201D01*
X8866Y19251D01*
X8893Y19304D01*
X8916Y19358D01*
X8935Y19413D01*
X8950Y19469D01*
X8962Y19526D01*
X8970Y19584D01*
X8974Y19643D01*
X8974Y19701D01*
X8970Y19760D01*
X8962Y19818D01*
X8950Y19875D01*
X8935Y19931D01*
X8916Y19986D01*
X8893Y20040D01*
X8866Y20093D01*
X8837Y20143D01*
X8803Y20191D01*
X8767Y20237D01*
X8728Y20280D01*
X8686Y20321D01*
X8641Y20359D01*
X8594Y20393D01*
X8545Y20425D01*
X8494Y20453D01*
X8441Y20478D01*
X8386Y20499D01*
X8330Y20516D01*
X8273Y20529D01*
X8216Y20539D01*
X8157Y20545D01*
X8099Y20547D01*
X1349Y20547D02*
X1291Y20545D01*
X1232Y20539D01*
X1175Y20529D01*
X1118Y20516D01*
X1062Y20499D01*
X1007Y20478D01*
X954Y20453D01*
X903Y20425D01*
X854Y20393D01*
X807Y20359D01*
X762Y20321D01*
X720Y20280D01*
X681Y20237D01*
X645Y20191D01*
X611Y20143D01*
X582Y20093D01*
X555Y20040D01*
X532Y19986D01*
X513Y19931D01*
X498Y19875D01*
X486Y19818D01*
X478Y19760D01*
X474Y19701D01*
X474Y19643D01*
X478Y19584D01*
X486Y19526D01*
X498Y19469D01*
X513Y19413D01*
X532Y19358D01*
X555Y19304D01*
X582Y19251D01*
X611Y19201D01*
X645Y19153D01*
X681Y19107D01*
X720Y19064D01*
X762Y19023D01*
X807Y18985D01*
X854Y18951D01*
X903Y18919D01*
X954Y18891D01*
X1007Y18866D01*
X1062Y18845D01*
X1118Y18828D01*
X1175Y18815D01*
X1232Y18805D01*
X1291Y18799D01*
X1349Y18797D01*
X1407Y18799D01*
X1466Y18805D01*
X1523Y18815D01*
X1580Y18828D01*
X1636Y18845D01*
X1691Y18866D01*
X1744Y18891D01*
X1795Y18919D01*
X1844Y18951D01*
X1891Y18985D01*
X1936Y19023D01*
X1978Y19064D01*
X2017Y19107D01*
X2053Y19153D01*
X2087Y19201D01*
X2116Y19251D01*
X2143Y19304D01*
X2166Y19358D01*
X2185Y19413D01*
X2200Y19469D01*
X2212Y19526D01*
X2220Y19584D01*
X2224Y19643D01*
X2224Y19701D01*
X2220Y19760D01*
X2212Y19818D01*
X2200Y19875D01*
X2185Y19931D01*
X2166Y19986D01*
X2143Y20040D01*
X2116Y20093D01*
X2087Y20143D01*
X2053Y20191D01*
X2017Y20237D01*
X1978Y20280D01*
X1936Y20321D01*
X1891Y20359D01*
X1844Y20393D01*
X1795Y20425D01*
X1744Y20453D01*
X1691Y20478D01*
X1636Y20499D01*
X1580Y20516D01*
X1523Y20529D01*
X1466Y20539D01*
X1407Y20545D01*
X1349Y20547D01*
X1349Y13797D02*
X1291Y13795D01*
X1232Y13789D01*
X1175Y13779D01*
X1118Y13766D01*
X1062Y13749D01*
X1007Y13728D01*
X954Y13703D01*
X903Y13675D01*
X854Y13643D01*
X807Y13609D01*
X762Y13571D01*
X720Y13530D01*
X681Y13487D01*
X645Y13441D01*
X611Y13393D01*
X582Y13343D01*
X555Y13290D01*
X532Y13236D01*
X513Y13181D01*
X498Y13125D01*
X486Y13068D01*
X478Y13010D01*
X474Y12951D01*
X474Y12893D01*
X478Y12834D01*
X486Y12776D01*
X498Y12719D01*
X513Y12663D01*
X532Y12608D01*
X555Y12554D01*
X582Y12501D01*
X611Y12451D01*
X645Y12403D01*
X681Y12357D01*
X720Y12314D01*
X762Y12273D01*
X807Y12235D01*
X854Y12201D01*
X903Y12169D01*
X954Y12141D01*
X1007Y12116D01*
X1062Y12095D01*
X1118Y12078D01*
X1175Y12065D01*
X1232Y12055D01*
X1291Y12049D01*
X1349Y12047D01*
X1407Y12049D01*
X1466Y12055D01*
X1523Y12065D01*
X1580Y12078D01*
X1636Y12095D01*
X1691Y12116D01*
X1744Y12141D01*
X1795Y12169D01*
X1844Y12201D01*
X1891Y12235D01*
X1936Y12273D01*
X1978Y12314D01*
X2017Y12357D01*
X2053Y12403D01*
X2087Y12451D01*
X2116Y12501D01*
X2143Y12554D01*
X2166Y12608D01*
X2185Y12663D01*
X2200Y12719D01*
X2212Y12776D01*
X2220Y12834D01*
X2224Y12893D01*
X2224Y12951D01*
X2220Y13010D01*
X2212Y13068D01*
X2200Y13125D01*
X2185Y13181D01*
X2166Y13236D01*
X2143Y13290D01*
X2116Y13343D01*
X2087Y13393D01*
X2053Y13441D01*
X2017Y13487D01*
X1978Y13530D01*
X1936Y13571D01*
X1891Y13609D01*
X1844Y13643D01*
X1795Y13675D01*
X1744Y13703D01*
X1691Y13728D01*
X1636Y13749D01*
X1580Y13766D01*
X1523Y13779D01*
X1466Y13789D01*
X1407Y13795D01*
X1349Y13797D01*
X8099Y13797D02*
X8041Y13795D01*
X7982Y13789D01*
X7925Y13779D01*
X7868Y13766D01*
X7812Y13749D01*
X7757Y13728D01*
X7704Y13703D01*
X7653Y13675D01*
X7604Y13643D01*
X7557Y13609D01*
X7512Y13571D01*
X7470Y13530D01*
X7431Y13487D01*
X7395Y13441D01*
X7361Y13393D01*
X7332Y13343D01*
X7305Y13290D01*
X7282Y13236D01*
X7263Y13181D01*
X7248Y13125D01*
X7236Y13068D01*
X7228Y13010D01*
X7224Y12951D01*
X7224Y12893D01*
X7228Y12834D01*
X7236Y12776D01*
X7248Y12719D01*
X7263Y12663D01*
X7282Y12608D01*
X7305Y12554D01*
X7332Y12501D01*
X7361Y12451D01*
X7395Y12403D01*
X7431Y12357D01*
X7470Y12314D01*
X7512Y12273D01*
X7557Y12235D01*
X7604Y12201D01*
X7653Y12169D01*
X7704Y12141D01*
X7757Y12116D01*
X7812Y12095D01*
X7868Y12078D01*
X7925Y12065D01*
X7982Y12055D01*
X8041Y12049D01*
X8099Y12047D01*
X8157Y12049D01*
X8216Y12055D01*
X8273Y12065D01*
X8330Y12078D01*
X8386Y12095D01*
X8441Y12116D01*
X8494Y12141D01*
X8545Y12169D01*
X8594Y12201D01*
X8641Y12235D01*
X8686Y12273D01*
X8728Y12314D01*
X8767Y12357D01*
X8803Y12403D01*
X8837Y12451D01*
X8866Y12501D01*
X8893Y12554D01*
X8916Y12608D01*
X8935Y12663D01*
X8950Y12719D01*
X8962Y12776D01*
X8970Y12834D01*
X8974Y12893D01*
X8974Y12951D01*
X8970Y13010D01*
X8962Y13068D01*
X8950Y13125D01*
X8935Y13181D01*
X8916Y13236D01*
X8893Y13290D01*
X8866Y13343D01*
X8837Y13393D01*
X8803Y13441D01*
X8767Y13487D01*
X8728Y13530D01*
X8686Y13571D01*
X8641Y13609D01*
X8594Y13643D01*
X8545Y13675D01*
X8494Y13703D01*
X8441Y13728D01*
X8386Y13749D01*
X8330Y13766D01*
X8273Y13779D01*
X8216Y13789D01*
X8157Y13795D01*
X8099Y13797D01*
D165*
X5511Y15510D02*
X5511Y15746D01*
X5511Y15510D02*
X5275Y15510D01*
X4173Y15510D02*
X3937Y15746D01*
X3937Y16848D02*
X3937Y17084D01*
X4173Y17084D01*
X5275Y17084D02*
X5511Y17084D01*
X5511Y16848D01*
D166*
X10101Y12922D02*
X10099Y12856D01*
X10101Y12790D01*
X10107Y12724D01*
X10116Y12658D01*
X10129Y12593D01*
X10146Y12528D01*
X10166Y12465D01*
X10190Y12403D01*
X10217Y12343D01*
X10248Y12284D01*
X10282Y12226D01*
X10319Y12171D01*
X10359Y12118D01*
X10402Y12068D01*
X10447Y12019D01*
X10496Y11974D01*
X10546Y11931D01*
X10599Y11891D01*
X10654Y11854D01*
X10712Y11820D01*
X10771Y11789D01*
X10831Y11762D01*
X10893Y11738D01*
X10956Y11718D01*
X11021Y11701D01*
X11086Y11688D01*
X11152Y11679D01*
X11218Y11673D01*
X11284Y11671D01*
X11350Y11673D01*
X11350Y11672D02*
X18100Y11672D01*
X18168Y11674D01*
X18235Y11679D01*
X18302Y11688D01*
X18369Y11701D01*
X18434Y11718D01*
X18499Y11737D01*
X18563Y11761D01*
X18625Y11788D01*
X18686Y11818D01*
X18744Y11851D01*
X18801Y11887D01*
X18856Y11927D01*
X18909Y11969D01*
X18960Y12015D01*
X19007Y12062D01*
X19053Y12113D01*
X19095Y12166D01*
X19135Y12221D01*
X19171Y12278D01*
X19204Y12336D01*
X19234Y12397D01*
X19261Y12459D01*
X19285Y12523D01*
X19304Y12588D01*
X19321Y12653D01*
X19334Y12720D01*
X19343Y12787D01*
X19348Y12854D01*
X19350Y12922D01*
X19350Y19672D01*
X19348Y19740D01*
X19343Y19807D01*
X19334Y19874D01*
X19321Y19941D01*
X19304Y20006D01*
X19285Y20071D01*
X19261Y20135D01*
X19234Y20197D01*
X19204Y20258D01*
X19171Y20316D01*
X19135Y20373D01*
X19095Y20428D01*
X19053Y20481D01*
X19007Y20532D01*
X18960Y20579D01*
X18909Y20625D01*
X18856Y20667D01*
X18801Y20707D01*
X18744Y20743D01*
X18686Y20776D01*
X18625Y20806D01*
X18563Y20833D01*
X18499Y20857D01*
X18434Y20876D01*
X18369Y20893D01*
X18302Y20906D01*
X18235Y20915D01*
X18168Y20920D01*
X18100Y20922D01*
X11350Y20922D01*
X10725Y19672D02*
X10727Y19722D01*
X10733Y19771D01*
X10743Y19820D01*
X10756Y19867D01*
X10774Y19914D01*
X10795Y19959D01*
X10819Y20002D01*
X10847Y20043D01*
X10878Y20082D01*
X10912Y20118D01*
X10949Y20152D01*
X10989Y20182D01*
X11030Y20209D01*
X11074Y20233D01*
X11119Y20253D01*
X11166Y20269D01*
X11214Y20282D01*
X11263Y20291D01*
X11313Y20296D01*
X11362Y20297D01*
X11412Y20294D01*
X11461Y20287D01*
X11510Y20276D01*
X11557Y20262D01*
X11603Y20243D01*
X11648Y20221D01*
X11691Y20196D01*
X11731Y20167D01*
X11769Y20135D01*
X11805Y20101D01*
X11838Y20063D01*
X11867Y20023D01*
X11893Y19981D01*
X11916Y19937D01*
X11935Y19891D01*
X11951Y19844D01*
X11963Y19795D01*
X11971Y19746D01*
X11975Y19697D01*
X11975Y19647D01*
X11971Y19598D01*
X11963Y19549D01*
X11951Y19500D01*
X11935Y19453D01*
X11916Y19407D01*
X11893Y19363D01*
X11867Y19321D01*
X11838Y19281D01*
X11805Y19243D01*
X11769Y19209D01*
X11731Y19177D01*
X11691Y19148D01*
X11648Y19123D01*
X11603Y19101D01*
X11557Y19082D01*
X11510Y19068D01*
X11461Y19057D01*
X11412Y19050D01*
X11362Y19047D01*
X11313Y19048D01*
X11263Y19053D01*
X11214Y19062D01*
X11166Y19075D01*
X11119Y19091D01*
X11074Y19111D01*
X11030Y19135D01*
X10989Y19162D01*
X10949Y19192D01*
X10912Y19226D01*
X10878Y19262D01*
X10847Y19301D01*
X10819Y19342D01*
X10795Y19385D01*
X10774Y19430D01*
X10756Y19477D01*
X10743Y19524D01*
X10733Y19573D01*
X10727Y19622D01*
X10725Y19672D01*
X10100Y19672D02*
X10100Y12922D01*
X10725Y12922D02*
X10727Y12972D01*
X10733Y13021D01*
X10743Y13070D01*
X10756Y13117D01*
X10774Y13164D01*
X10795Y13209D01*
X10819Y13252D01*
X10847Y13293D01*
X10878Y13332D01*
X10912Y13368D01*
X10949Y13402D01*
X10989Y13432D01*
X11030Y13459D01*
X11074Y13483D01*
X11119Y13503D01*
X11166Y13519D01*
X11214Y13532D01*
X11263Y13541D01*
X11313Y13546D01*
X11362Y13547D01*
X11412Y13544D01*
X11461Y13537D01*
X11510Y13526D01*
X11557Y13512D01*
X11603Y13493D01*
X11648Y13471D01*
X11691Y13446D01*
X11731Y13417D01*
X11769Y13385D01*
X11805Y13351D01*
X11838Y13313D01*
X11867Y13273D01*
X11893Y13231D01*
X11916Y13187D01*
X11935Y13141D01*
X11951Y13094D01*
X11963Y13045D01*
X11971Y12996D01*
X11975Y12947D01*
X11975Y12897D01*
X11971Y12848D01*
X11963Y12799D01*
X11951Y12750D01*
X11935Y12703D01*
X11916Y12657D01*
X11893Y12613D01*
X11867Y12571D01*
X11838Y12531D01*
X11805Y12493D01*
X11769Y12459D01*
X11731Y12427D01*
X11691Y12398D01*
X11648Y12373D01*
X11603Y12351D01*
X11557Y12332D01*
X11510Y12318D01*
X11461Y12307D01*
X11412Y12300D01*
X11362Y12297D01*
X11313Y12298D01*
X11263Y12303D01*
X11214Y12312D01*
X11166Y12325D01*
X11119Y12341D01*
X11074Y12361D01*
X11030Y12385D01*
X10989Y12412D01*
X10949Y12442D01*
X10912Y12476D01*
X10878Y12512D01*
X10847Y12551D01*
X10819Y12592D01*
X10795Y12635D01*
X10774Y12680D01*
X10756Y12727D01*
X10743Y12774D01*
X10733Y12823D01*
X10727Y12872D01*
X10725Y12922D01*
X10100Y19672D02*
X10102Y19740D01*
X10107Y19807D01*
X10116Y19874D01*
X10129Y19941D01*
X10146Y20006D01*
X10165Y20071D01*
X10189Y20135D01*
X10216Y20197D01*
X10246Y20258D01*
X10279Y20316D01*
X10315Y20373D01*
X10355Y20428D01*
X10397Y20481D01*
X10443Y20532D01*
X10490Y20579D01*
X10541Y20625D01*
X10594Y20667D01*
X10649Y20707D01*
X10706Y20743D01*
X10764Y20776D01*
X10825Y20806D01*
X10887Y20833D01*
X10951Y20857D01*
X11016Y20876D01*
X11081Y20893D01*
X11148Y20906D01*
X11215Y20915D01*
X11282Y20920D01*
X11350Y20922D01*
X17475Y19672D02*
X17477Y19722D01*
X17483Y19771D01*
X17493Y19820D01*
X17506Y19867D01*
X17524Y19914D01*
X17545Y19959D01*
X17569Y20002D01*
X17597Y20043D01*
X17628Y20082D01*
X17662Y20118D01*
X17699Y20152D01*
X17739Y20182D01*
X17780Y20209D01*
X17824Y20233D01*
X17869Y20253D01*
X17916Y20269D01*
X17964Y20282D01*
X18013Y20291D01*
X18063Y20296D01*
X18112Y20297D01*
X18162Y20294D01*
X18211Y20287D01*
X18260Y20276D01*
X18307Y20262D01*
X18353Y20243D01*
X18398Y20221D01*
X18441Y20196D01*
X18481Y20167D01*
X18519Y20135D01*
X18555Y20101D01*
X18588Y20063D01*
X18617Y20023D01*
X18643Y19981D01*
X18666Y19937D01*
X18685Y19891D01*
X18701Y19844D01*
X18713Y19795D01*
X18721Y19746D01*
X18725Y19697D01*
X18725Y19647D01*
X18721Y19598D01*
X18713Y19549D01*
X18701Y19500D01*
X18685Y19453D01*
X18666Y19407D01*
X18643Y19363D01*
X18617Y19321D01*
X18588Y19281D01*
X18555Y19243D01*
X18519Y19209D01*
X18481Y19177D01*
X18441Y19148D01*
X18398Y19123D01*
X18353Y19101D01*
X18307Y19082D01*
X18260Y19068D01*
X18211Y19057D01*
X18162Y19050D01*
X18112Y19047D01*
X18063Y19048D01*
X18013Y19053D01*
X17964Y19062D01*
X17916Y19075D01*
X17869Y19091D01*
X17824Y19111D01*
X17780Y19135D01*
X17739Y19162D01*
X17699Y19192D01*
X17662Y19226D01*
X17628Y19262D01*
X17597Y19301D01*
X17569Y19342D01*
X17545Y19385D01*
X17524Y19430D01*
X17506Y19477D01*
X17493Y19524D01*
X17483Y19573D01*
X17477Y19622D01*
X17475Y19672D01*
X17475Y12922D02*
X17477Y12972D01*
X17483Y13021D01*
X17493Y13070D01*
X17506Y13117D01*
X17524Y13164D01*
X17545Y13209D01*
X17569Y13252D01*
X17597Y13293D01*
X17628Y13332D01*
X17662Y13368D01*
X17699Y13402D01*
X17739Y13432D01*
X17780Y13459D01*
X17824Y13483D01*
X17869Y13503D01*
X17916Y13519D01*
X17964Y13532D01*
X18013Y13541D01*
X18063Y13546D01*
X18112Y13547D01*
X18162Y13544D01*
X18211Y13537D01*
X18260Y13526D01*
X18307Y13512D01*
X18353Y13493D01*
X18398Y13471D01*
X18441Y13446D01*
X18481Y13417D01*
X18519Y13385D01*
X18555Y13351D01*
X18588Y13313D01*
X18617Y13273D01*
X18643Y13231D01*
X18666Y13187D01*
X18685Y13141D01*
X18701Y13094D01*
X18713Y13045D01*
X18721Y12996D01*
X18725Y12947D01*
X18725Y12897D01*
X18721Y12848D01*
X18713Y12799D01*
X18701Y12750D01*
X18685Y12703D01*
X18666Y12657D01*
X18643Y12613D01*
X18617Y12571D01*
X18588Y12531D01*
X18555Y12493D01*
X18519Y12459D01*
X18481Y12427D01*
X18441Y12398D01*
X18398Y12373D01*
X18353Y12351D01*
X18307Y12332D01*
X18260Y12318D01*
X18211Y12307D01*
X18162Y12300D01*
X18112Y12297D01*
X18063Y12298D01*
X18013Y12303D01*
X17964Y12312D01*
X17916Y12325D01*
X17869Y12341D01*
X17824Y12361D01*
X17780Y12385D01*
X17739Y12412D01*
X17699Y12442D01*
X17662Y12476D01*
X17628Y12512D01*
X17597Y12551D01*
X17569Y12592D01*
X17545Y12635D01*
X17524Y12680D01*
X17506Y12727D01*
X17493Y12774D01*
X17483Y12823D01*
X17477Y12872D01*
X17475Y12922D01*
D167*
X16740Y12554D02*
X16683Y12554D01*
X16570Y12440D01*
X16570Y12327D02*
X16570Y12554D01*
X16428Y12497D02*
X16428Y12440D01*
X16202Y12440D01*
X16202Y12384D02*
X16202Y12497D01*
X16258Y12554D01*
X16372Y12554D01*
X16428Y12497D01*
X16372Y12327D02*
X16258Y12327D01*
X16202Y12384D01*
X16060Y12327D02*
X15890Y12327D01*
X15833Y12384D01*
X15833Y12497D01*
X15890Y12554D01*
X16060Y12554D01*
X16060Y12667D02*
X16060Y12327D01*
X15692Y12327D02*
X15692Y12497D01*
X15635Y12554D01*
X15465Y12554D01*
X15465Y12327D01*
X15323Y12327D02*
X15323Y12497D01*
X15267Y12554D01*
X15153Y12554D01*
X15153Y12440D02*
X15097Y12384D01*
X15153Y12327D01*
X15323Y12327D01*
X15323Y12440D02*
X15153Y12440D01*
X14955Y12384D02*
X14898Y12327D01*
X14728Y12327D01*
X14728Y12214D02*
X14728Y12554D01*
X14898Y12554D01*
X14955Y12497D01*
X14955Y12384D01*
X14587Y12327D02*
X14360Y12554D01*
X14218Y12667D02*
X13992Y12667D01*
X13992Y12327D01*
X14218Y12327D01*
X14360Y12327D02*
X14587Y12554D01*
X14105Y12497D02*
X13992Y12497D01*
X13482Y12384D02*
X13425Y12327D01*
X13312Y12327D01*
X13255Y12384D01*
X13255Y12611D01*
X13312Y12667D01*
X13425Y12667D01*
X13482Y12611D01*
X12868Y12667D02*
X12755Y12667D01*
X12812Y12667D02*
X12812Y12327D01*
X12868Y12327D02*
X12755Y12327D01*
X12742Y14577D02*
X12912Y14577D01*
X12968Y14634D01*
X12968Y14861D01*
X12912Y14917D01*
X12742Y14917D01*
X12742Y14577D01*
X12600Y14577D02*
X12600Y14917D01*
X12373Y14917D02*
X12600Y14577D01*
X12373Y14577D02*
X12373Y14917D01*
X12232Y14861D02*
X12175Y14917D01*
X12062Y14917D01*
X12005Y14861D01*
X12005Y14634D01*
X12062Y14577D01*
X12175Y14577D01*
X12232Y14634D01*
X12232Y14747D01*
X12118Y14747D01*
X12118Y15577D02*
X12232Y15690D01*
X12232Y15917D01*
X12373Y15861D02*
X12373Y15634D01*
X12430Y15577D01*
X12543Y15577D01*
X12600Y15634D01*
X12742Y15634D02*
X12742Y15861D01*
X12798Y15917D01*
X12912Y15917D01*
X12968Y15861D01*
X12968Y15634D02*
X12912Y15577D01*
X12798Y15577D01*
X12742Y15634D01*
X12600Y15861D02*
X12543Y15917D01*
X12430Y15917D01*
X12373Y15861D01*
X12118Y15577D02*
X12005Y15690D01*
X12005Y15917D01*
X12062Y16577D02*
X12005Y16634D01*
X12062Y16577D02*
X12175Y16577D01*
X12232Y16634D01*
X12232Y16690D01*
X12175Y16747D01*
X12062Y16747D01*
X12005Y16804D01*
X12005Y16861D01*
X12062Y16917D01*
X12175Y16917D01*
X12232Y16861D01*
X12373Y16861D02*
X12373Y16634D01*
X12430Y16577D01*
X12543Y16577D01*
X12600Y16634D01*
X12742Y16577D02*
X12968Y16577D01*
X12742Y16577D02*
X12742Y16917D01*
X12600Y16861D02*
X12543Y16917D01*
X12430Y16917D01*
X12373Y16861D01*
X12373Y17577D02*
X12543Y17577D01*
X12600Y17634D01*
X12600Y17861D01*
X12543Y17917D01*
X12373Y17917D01*
X12373Y17577D01*
X12232Y17634D02*
X12175Y17577D01*
X12062Y17577D01*
X12005Y17634D01*
X12062Y17747D02*
X12005Y17804D01*
X12005Y17861D01*
X12062Y17917D01*
X12175Y17917D01*
X12232Y17861D01*
X12175Y17747D02*
X12232Y17690D01*
X12232Y17634D01*
X12175Y17747D02*
X12062Y17747D01*
X12742Y17747D02*
X12968Y17747D01*
X12968Y17804D02*
X12968Y17577D01*
X12742Y17577D02*
X12742Y17804D01*
X12855Y17917D01*
X12968Y17804D01*
X15850Y17547D02*
X15820Y17545D01*
X15790Y17540D01*
X15761Y17531D01*
X15734Y17518D01*
X15708Y17503D01*
X15684Y17484D01*
X15663Y17463D01*
X15644Y17439D01*
X15629Y17413D01*
X15616Y17386D01*
X15607Y17357D01*
X15602Y17327D01*
X15600Y17297D01*
X15602Y17267D01*
X15607Y17237D01*
X15616Y17208D01*
X15629Y17181D01*
X15644Y17155D01*
X15663Y17131D01*
X15684Y17110D01*
X15708Y17091D01*
X15734Y17076D01*
X15761Y17063D01*
X15790Y17054D01*
X15820Y17049D01*
X15850Y17047D01*
X16130Y17031D02*
X16130Y16917D01*
X16186Y16860D01*
X16186Y16719D02*
X16243Y16719D01*
X16300Y16662D01*
X16300Y16549D01*
X16243Y16492D01*
X16186Y16492D01*
X16130Y16549D01*
X16130Y16662D01*
X16186Y16719D01*
X16300Y16662D02*
X16357Y16719D01*
X16413Y16719D01*
X16470Y16662D01*
X16470Y16549D01*
X16413Y16492D01*
X16357Y16492D01*
X16300Y16549D01*
X16300Y16351D02*
X16186Y16351D01*
X16130Y16294D01*
X16130Y16124D01*
X16470Y16124D01*
X16357Y16124D02*
X16357Y16294D01*
X16300Y16351D01*
X16470Y16860D02*
X16243Y17087D01*
X16186Y17087D01*
X16130Y17031D01*
X16130Y17229D02*
X16130Y17399D01*
X16186Y17456D01*
X16243Y17456D01*
X16300Y17399D01*
X16300Y17229D01*
X16300Y17399D02*
X16357Y17456D01*
X16413Y17456D01*
X16470Y17399D01*
X16470Y17229D01*
X16130Y17229D01*
X16130Y17597D02*
X16130Y17824D01*
X16186Y17824D01*
X16413Y17597D01*
X16470Y17597D01*
X16470Y17965D02*
X16470Y18192D01*
X16470Y18079D02*
X16130Y18079D01*
X16243Y17965D01*
X16300Y18334D02*
X16130Y18334D01*
X16130Y18561D01*
X16243Y18504D02*
X16300Y18561D01*
X16413Y18561D01*
X16470Y18504D01*
X16470Y18390D01*
X16413Y18334D01*
X16300Y18334D02*
X16243Y18447D01*
X16243Y18504D01*
X16470Y17087D02*
X16470Y16860D01*
D168*
X18100Y18797D02*
X18042Y18799D01*
X17983Y18805D01*
X17926Y18815D01*
X17869Y18828D01*
X17813Y18845D01*
X17758Y18866D01*
X17705Y18891D01*
X17654Y18919D01*
X17605Y18951D01*
X17558Y18985D01*
X17513Y19023D01*
X17471Y19064D01*
X17432Y19107D01*
X17396Y19153D01*
X17362Y19201D01*
X17333Y19251D01*
X17306Y19304D01*
X17283Y19358D01*
X17264Y19413D01*
X17249Y19469D01*
X17237Y19526D01*
X17229Y19584D01*
X17225Y19643D01*
X17225Y19701D01*
X17229Y19760D01*
X17237Y19818D01*
X17249Y19875D01*
X17264Y19931D01*
X17283Y19986D01*
X17306Y20040D01*
X17333Y20093D01*
X17362Y20143D01*
X17396Y20191D01*
X17432Y20237D01*
X17471Y20280D01*
X17513Y20321D01*
X17558Y20359D01*
X17605Y20393D01*
X17654Y20425D01*
X17705Y20453D01*
X17758Y20478D01*
X17813Y20499D01*
X17869Y20516D01*
X17926Y20529D01*
X17983Y20539D01*
X18042Y20545D01*
X18100Y20547D01*
X18158Y20545D01*
X18217Y20539D01*
X18274Y20529D01*
X18331Y20516D01*
X18387Y20499D01*
X18442Y20478D01*
X18495Y20453D01*
X18546Y20425D01*
X18595Y20393D01*
X18642Y20359D01*
X18687Y20321D01*
X18729Y20280D01*
X18768Y20237D01*
X18804Y20191D01*
X18838Y20143D01*
X18867Y20093D01*
X18894Y20040D01*
X18917Y19986D01*
X18936Y19931D01*
X18951Y19875D01*
X18963Y19818D01*
X18971Y19760D01*
X18975Y19701D01*
X18975Y19643D01*
X18971Y19584D01*
X18963Y19526D01*
X18951Y19469D01*
X18936Y19413D01*
X18917Y19358D01*
X18894Y19304D01*
X18867Y19251D01*
X18838Y19201D01*
X18804Y19153D01*
X18768Y19107D01*
X18729Y19064D01*
X18687Y19023D01*
X18642Y18985D01*
X18595Y18951D01*
X18546Y18919D01*
X18495Y18891D01*
X18442Y18866D01*
X18387Y18845D01*
X18331Y18828D01*
X18274Y18815D01*
X18217Y18805D01*
X18158Y18799D01*
X18100Y18797D01*
X18100Y13797D02*
X18042Y13795D01*
X17983Y13789D01*
X17926Y13779D01*
X17869Y13766D01*
X17813Y13749D01*
X17758Y13728D01*
X17705Y13703D01*
X17654Y13675D01*
X17605Y13643D01*
X17558Y13609D01*
X17513Y13571D01*
X17471Y13530D01*
X17432Y13487D01*
X17396Y13441D01*
X17362Y13393D01*
X17333Y13343D01*
X17306Y13290D01*
X17283Y13236D01*
X17264Y13181D01*
X17249Y13125D01*
X17237Y13068D01*
X17229Y13010D01*
X17225Y12951D01*
X17225Y12893D01*
X17229Y12834D01*
X17237Y12776D01*
X17249Y12719D01*
X17264Y12663D01*
X17283Y12608D01*
X17306Y12554D01*
X17333Y12501D01*
X17362Y12451D01*
X17396Y12403D01*
X17432Y12357D01*
X17471Y12314D01*
X17513Y12273D01*
X17558Y12235D01*
X17605Y12201D01*
X17654Y12169D01*
X17705Y12141D01*
X17758Y12116D01*
X17813Y12095D01*
X17869Y12078D01*
X17926Y12065D01*
X17983Y12055D01*
X18042Y12049D01*
X18100Y12047D01*
X18158Y12049D01*
X18217Y12055D01*
X18274Y12065D01*
X18331Y12078D01*
X18387Y12095D01*
X18442Y12116D01*
X18495Y12141D01*
X18546Y12169D01*
X18595Y12201D01*
X18642Y12235D01*
X18687Y12273D01*
X18729Y12314D01*
X18768Y12357D01*
X18804Y12403D01*
X18838Y12451D01*
X18867Y12501D01*
X18894Y12554D01*
X18917Y12608D01*
X18936Y12663D01*
X18951Y12719D01*
X18963Y12776D01*
X18971Y12834D01*
X18975Y12893D01*
X18975Y12951D01*
X18971Y13010D01*
X18963Y13068D01*
X18951Y13125D01*
X18936Y13181D01*
X18917Y13236D01*
X18894Y13290D01*
X18867Y13343D01*
X18838Y13393D01*
X18804Y13441D01*
X18768Y13487D01*
X18729Y13530D01*
X18687Y13571D01*
X18642Y13609D01*
X18595Y13643D01*
X18546Y13675D01*
X18495Y13703D01*
X18442Y13728D01*
X18387Y13749D01*
X18331Y13766D01*
X18274Y13779D01*
X18217Y13789D01*
X18158Y13795D01*
X18100Y13797D01*
X11350Y13797D02*
X11292Y13795D01*
X11233Y13789D01*
X11176Y13779D01*
X11119Y13766D01*
X11063Y13749D01*
X11008Y13728D01*
X10955Y13703D01*
X10904Y13675D01*
X10855Y13643D01*
X10808Y13609D01*
X10763Y13571D01*
X10721Y13530D01*
X10682Y13487D01*
X10646Y13441D01*
X10612Y13393D01*
X10583Y13343D01*
X10556Y13290D01*
X10533Y13236D01*
X10514Y13181D01*
X10499Y13125D01*
X10487Y13068D01*
X10479Y13010D01*
X10475Y12951D01*
X10475Y12893D01*
X10479Y12834D01*
X10487Y12776D01*
X10499Y12719D01*
X10514Y12663D01*
X10533Y12608D01*
X10556Y12554D01*
X10583Y12501D01*
X10612Y12451D01*
X10646Y12403D01*
X10682Y12357D01*
X10721Y12314D01*
X10763Y12273D01*
X10808Y12235D01*
X10855Y12201D01*
X10904Y12169D01*
X10955Y12141D01*
X11008Y12116D01*
X11063Y12095D01*
X11119Y12078D01*
X11176Y12065D01*
X11233Y12055D01*
X11292Y12049D01*
X11350Y12047D01*
X11408Y12049D01*
X11467Y12055D01*
X11524Y12065D01*
X11581Y12078D01*
X11637Y12095D01*
X11692Y12116D01*
X11745Y12141D01*
X11796Y12169D01*
X11845Y12201D01*
X11892Y12235D01*
X11937Y12273D01*
X11979Y12314D01*
X12018Y12357D01*
X12054Y12403D01*
X12088Y12451D01*
X12117Y12501D01*
X12144Y12554D01*
X12167Y12608D01*
X12186Y12663D01*
X12201Y12719D01*
X12213Y12776D01*
X12221Y12834D01*
X12225Y12893D01*
X12225Y12951D01*
X12221Y13010D01*
X12213Y13068D01*
X12201Y13125D01*
X12186Y13181D01*
X12167Y13236D01*
X12144Y13290D01*
X12117Y13343D01*
X12088Y13393D01*
X12054Y13441D01*
X12018Y13487D01*
X11979Y13530D01*
X11937Y13571D01*
X11892Y13609D01*
X11845Y13643D01*
X11796Y13675D01*
X11745Y13703D01*
X11692Y13728D01*
X11637Y13749D01*
X11581Y13766D01*
X11524Y13779D01*
X11467Y13789D01*
X11408Y13795D01*
X11350Y13797D01*
X11350Y18797D02*
X11292Y18799D01*
X11233Y18805D01*
X11176Y18815D01*
X11119Y18828D01*
X11063Y18845D01*
X11008Y18866D01*
X10955Y18891D01*
X10904Y18919D01*
X10855Y18951D01*
X10808Y18985D01*
X10763Y19023D01*
X10721Y19064D01*
X10682Y19107D01*
X10646Y19153D01*
X10612Y19201D01*
X10583Y19251D01*
X10556Y19304D01*
X10533Y19358D01*
X10514Y19413D01*
X10499Y19469D01*
X10487Y19526D01*
X10479Y19584D01*
X10475Y19643D01*
X10475Y19701D01*
X10479Y19760D01*
X10487Y19818D01*
X10499Y19875D01*
X10514Y19931D01*
X10533Y19986D01*
X10556Y20040D01*
X10583Y20093D01*
X10612Y20143D01*
X10646Y20191D01*
X10682Y20237D01*
X10721Y20280D01*
X10763Y20321D01*
X10808Y20359D01*
X10855Y20393D01*
X10904Y20425D01*
X10955Y20453D01*
X11008Y20478D01*
X11063Y20499D01*
X11119Y20516D01*
X11176Y20529D01*
X11233Y20539D01*
X11292Y20545D01*
X11350Y20547D01*
X11408Y20545D01*
X11467Y20539D01*
X11524Y20529D01*
X11581Y20516D01*
X11637Y20499D01*
X11692Y20478D01*
X11745Y20453D01*
X11796Y20425D01*
X11845Y20393D01*
X11892Y20359D01*
X11937Y20321D01*
X11979Y20280D01*
X12018Y20237D01*
X12054Y20191D01*
X12088Y20143D01*
X12117Y20093D01*
X12144Y20040D01*
X12167Y19986D01*
X12186Y19931D01*
X12201Y19875D01*
X12213Y19818D01*
X12221Y19760D01*
X12225Y19701D01*
X12225Y19643D01*
X12221Y19584D01*
X12213Y19526D01*
X12201Y19469D01*
X12186Y19413D01*
X12167Y19358D01*
X12144Y19304D01*
X12117Y19251D01*
X12088Y19201D01*
X12054Y19153D01*
X12018Y19107D01*
X11979Y19064D01*
X11937Y19023D01*
X11892Y18985D01*
X11845Y18951D01*
X11796Y18919D01*
X11745Y18891D01*
X11692Y18866D01*
X11637Y18845D01*
X11581Y18828D01*
X11524Y18815D01*
X11467Y18805D01*
X11408Y18799D01*
X11350Y18797D01*
D169*
X11100Y18297D02*
X11600Y18297D01*
X11850Y18047D01*
X11850Y17547D01*
X11600Y17297D01*
X11850Y17047D01*
X11850Y16547D01*
X11600Y16297D01*
X11850Y16047D01*
X11850Y15547D01*
X11600Y15297D01*
X11850Y15047D01*
X11850Y14547D01*
X11600Y14297D01*
X11100Y14297D01*
X10850Y14547D01*
X10850Y15047D01*
X11100Y15297D01*
X10850Y15547D01*
X10850Y16047D01*
X11100Y16297D01*
X10850Y16547D01*
X10850Y17047D01*
X11100Y17297D01*
X10850Y17547D01*
X10850Y18047D01*
X11100Y18297D01*
X14022Y15157D02*
X13952Y15087D01*
X13952Y14947D01*
X14022Y14877D01*
X14022Y14696D02*
X14162Y14696D01*
X14232Y14626D01*
X14232Y14416D01*
X14232Y14556D02*
X14373Y14696D01*
X14373Y14877D02*
X14092Y15157D01*
X14022Y15157D01*
X14373Y15157D02*
X14373Y14877D01*
X14022Y14696D02*
X13952Y14626D01*
X13952Y14416D01*
X14373Y14416D01*
X14068Y13577D02*
X14068Y13507D01*
X14068Y13367D02*
X13998Y13367D01*
X14068Y13367D02*
X14068Y13087D01*
X13998Y13087D02*
X14138Y13087D01*
X14305Y13157D02*
X14375Y13087D01*
X14585Y13087D01*
X14585Y13367D02*
X14375Y13367D01*
X14305Y13297D01*
X14305Y13157D01*
X13818Y13087D02*
X13607Y13087D01*
X13537Y13157D01*
X13537Y13297D01*
X13607Y13367D01*
X13818Y13367D01*
X13818Y13017D01*
X13747Y12947D01*
X13677Y12947D01*
X13357Y13087D02*
X13147Y13087D01*
X13077Y13157D01*
X13147Y13227D01*
X13357Y13227D01*
X13357Y13297D02*
X13287Y13367D01*
X13147Y13367D01*
X13357Y13297D02*
X13357Y13087D01*
X12897Y13087D02*
X12897Y13507D01*
X12757Y13367D01*
X12616Y13507D01*
X12616Y13087D01*
X14915Y13157D02*
X14985Y13087D01*
X15125Y13087D01*
X15195Y13157D01*
X15195Y13227D01*
X15125Y13297D01*
X14985Y13297D01*
X14915Y13367D01*
X14915Y13437D01*
X14985Y13507D01*
X15125Y13507D01*
X15195Y13437D01*
X15375Y13367D02*
X15445Y13367D01*
X15515Y13297D01*
X15585Y13367D01*
X15655Y13297D01*
X15655Y13087D01*
X15515Y13087D02*
X15515Y13297D01*
X15375Y13367D02*
X15375Y13087D01*
X15836Y13157D02*
X15906Y13087D01*
X16046Y13087D01*
X16116Y13157D01*
X16116Y13297D01*
X16046Y13367D01*
X15906Y13367D01*
X15836Y13297D01*
X15836Y13157D01*
X16296Y13087D02*
X16296Y13507D01*
X16506Y13367D02*
X16296Y13227D01*
X16506Y13087D01*
X16680Y13157D02*
X16680Y13297D01*
X16750Y13367D01*
X16890Y13367D01*
X16960Y13297D01*
X16960Y13227D01*
X16680Y13227D01*
X16680Y13157D02*
X16750Y13087D01*
X16890Y13087D01*
X17022Y14416D02*
X17302Y14416D01*
X17373Y14486D01*
X17373Y14626D01*
X17302Y14696D01*
X17373Y14877D02*
X17373Y15157D01*
X17373Y15017D02*
X16952Y15017D01*
X17092Y14877D01*
X17022Y14696D02*
X16952Y14626D01*
X16952Y14486D01*
X17022Y14416D01*
X15873Y14416D02*
X15452Y14416D01*
X15452Y14626D01*
X15522Y14696D01*
X15662Y14696D01*
X15732Y14626D01*
X15732Y14416D01*
X15732Y14556D02*
X15873Y14696D01*
X15662Y14877D02*
X15662Y15157D01*
X15452Y15087D02*
X15662Y14877D01*
X15452Y15087D02*
X15873Y15087D01*
X15060Y16859D02*
X15060Y16999D01*
X15060Y16929D02*
X14640Y16929D01*
X14640Y16859D02*
X14640Y16999D01*
X14710Y17166D02*
X14990Y17166D01*
X15060Y17236D01*
X15060Y17376D01*
X14990Y17446D01*
X15060Y17627D02*
X15060Y17907D01*
X15060Y17767D02*
X14640Y17767D01*
X14780Y17627D01*
X14710Y17446D02*
X14640Y17376D01*
X14640Y17236D01*
X14710Y17166D01*
X15952Y19416D02*
X15952Y19626D01*
X16022Y19696D01*
X16162Y19696D01*
X16232Y19626D01*
X16232Y19416D01*
X16232Y19556D02*
X16373Y19696D01*
X16302Y19877D02*
X16373Y19947D01*
X16373Y20087D01*
X16302Y20157D01*
X16232Y20157D01*
X16162Y20087D01*
X16162Y20017D01*
X16162Y20087D02*
X16092Y20157D01*
X16022Y20157D01*
X15952Y20087D01*
X15952Y19947D01*
X16022Y19877D01*
X15952Y19416D02*
X16373Y19416D01*
X14873Y19479D02*
X14452Y19479D01*
X14452Y19689D01*
X14522Y19759D01*
X14662Y19759D01*
X14732Y19689D01*
X14732Y19479D01*
X14732Y19619D02*
X14873Y19759D01*
X14873Y19939D02*
X14873Y20219D01*
X14873Y20079D02*
X14452Y20079D01*
X14592Y19939D01*
D170*
X13095Y12767D02*
X13028Y12767D01*
X12995Y12734D01*
X13095Y12767D02*
X13128Y12734D01*
X13128Y12700D01*
X12995Y12567D01*
X13128Y12567D01*
D171*
X10350Y16672D02*
X10600Y16922D01*
X10350Y17172D01*
X10350Y16672D01*
X10350Y17547D02*
X10600Y17797D01*
X10350Y18047D01*
X10350Y17547D01*
X18850Y17547D02*
X18850Y18047D01*
X19100Y17797D01*
X18850Y17547D01*
X18850Y17047D02*
X18850Y16547D01*
X19100Y16797D01*
X18850Y17047D01*
D172*
X15850Y16547D02*
X15850Y18047D01*
X13850Y18047D01*
X13850Y16547D01*
X15850Y16547D01*
M02*
