%
M48
M72
T01C0.0236
T02C0.0320
T03C0.0394
T04C0.0400
T05C0.0472
T06C0.0512
T07C0.0591
T08C0.1300
%
T01
X10223Y7233
X10223Y8233
X11073Y8983
X12523Y7233
X15223Y7983
X14473Y9633
X13873Y9633
X12873Y10533
X12473Y11033
X11973Y11733
X12073Y12433
X12873Y12433
X14373Y12533
X14973Y11733
X15967Y11929
X17773Y11283
X17573Y10333
X19623Y9633
X18373Y8833
X18623Y8033
X18073Y7933
X19123Y7933
X19723Y10733
X19791Y11349
X18173Y12633
X21123Y13131
X15473Y14528
X10973Y14033
X10873Y14833
X9273Y13433
X8173Y13433
X7281Y13439
X6073Y13433
X5073Y12033
X7473Y10833
X8239Y9298
X9473Y11033
X10073Y11033
X9473Y12033
X5073Y9633
X5861Y8845
T02
X15952Y14061
X15952Y15061
T03
X17188Y12012
X18959Y12012
X18959Y9453
X17188Y9453
T04
X20304Y8296
X20299Y7209
X19299Y7209
X18299Y7209
X17299Y7209
X16299Y7209
X15299Y7209
X20981Y9349
X21981Y9349
X21981Y10349
X20981Y10349
X20981Y11349
X21981Y11349
X21981Y12349
X20981Y12349
X20304Y13415
X9615Y14512
X8615Y14512
X7615Y14512
X6615Y14512
X5893Y11823
X5893Y10823
X5893Y9823
T05
X4891Y8883
X3906Y8883
X6859Y10852
X4891Y12820
X3906Y12820
T06
X8309Y10929
X16183Y10929
T07
X6859Y11836
X6859Y12820
X4891Y10852
X6859Y9867
X6859Y8883
T08
X4848Y7407
X4848Y14304
X21780Y14300
X21784Y7407
M30
