G75*
G70*
%OFA0B0*%
%FSLAX24Y24*%
%IPPOS*%
%LPD*%
%AMOC8*
5,1,8,0,0,1.08239X$1,22.5*
%
%ADD10C,0.0000*%
%ADD11C,0.0051*%
%ADD12C,0.0110*%
%ADD13C,0.0886*%
%ADD14OC8,0.0740*%
%ADD15C,0.0768*%
%ADD16C,0.0480*%
%ADD17R,0.0740X0.0740*%
%ADD18C,0.0740*%
%ADD19C,0.0591*%
%ADD20OC8,0.1000*%
%ADD21C,0.0120*%
%ADD22R,0.0356X0.0356*%
%ADD23C,0.0160*%
%ADD24C,0.0100*%
D10*
X004848Y006033D02*
X004851Y006033D01*
X021780Y006033D01*
X021784Y006033D01*
X021134Y007407D02*
X021136Y007457D01*
X021142Y007507D01*
X021152Y007557D01*
X021165Y007605D01*
X021182Y007653D01*
X021203Y007699D01*
X021227Y007743D01*
X021255Y007785D01*
X021286Y007825D01*
X021320Y007862D01*
X021357Y007897D01*
X021396Y007928D01*
X021437Y007957D01*
X021481Y007982D01*
X021527Y008004D01*
X021574Y008022D01*
X021622Y008036D01*
X021671Y008047D01*
X021721Y008054D01*
X021771Y008057D01*
X021822Y008056D01*
X021872Y008051D01*
X021922Y008042D01*
X021970Y008030D01*
X022018Y008013D01*
X022064Y007993D01*
X022109Y007970D01*
X022152Y007943D01*
X022192Y007913D01*
X022230Y007880D01*
X022265Y007844D01*
X022298Y007805D01*
X022327Y007764D01*
X022353Y007721D01*
X022376Y007676D01*
X022395Y007629D01*
X022410Y007581D01*
X022422Y007532D01*
X022430Y007482D01*
X022434Y007432D01*
X022434Y007382D01*
X022430Y007332D01*
X022422Y007282D01*
X022410Y007233D01*
X022395Y007185D01*
X022376Y007138D01*
X022353Y007093D01*
X022327Y007050D01*
X022298Y007009D01*
X022265Y006970D01*
X022230Y006934D01*
X022192Y006901D01*
X022152Y006871D01*
X022109Y006844D01*
X022064Y006821D01*
X022018Y006801D01*
X021970Y006784D01*
X021922Y006772D01*
X021872Y006763D01*
X021822Y006758D01*
X021771Y006757D01*
X021721Y006760D01*
X021671Y006767D01*
X021622Y006778D01*
X021574Y006792D01*
X021527Y006810D01*
X021481Y006832D01*
X021437Y006857D01*
X021396Y006886D01*
X021357Y006917D01*
X021320Y006952D01*
X021286Y006989D01*
X021255Y007029D01*
X021227Y007071D01*
X021203Y007115D01*
X021182Y007161D01*
X021165Y007209D01*
X021152Y007257D01*
X021142Y007307D01*
X021136Y007357D01*
X021134Y007407D01*
X021780Y006033D02*
X021852Y006035D01*
X021924Y006041D01*
X021996Y006050D01*
X022067Y006063D01*
X022137Y006080D01*
X022206Y006100D01*
X022274Y006125D01*
X022340Y006152D01*
X022406Y006183D01*
X022469Y006218D01*
X022531Y006255D01*
X022590Y006296D01*
X022647Y006340D01*
X022702Y006387D01*
X022754Y006437D01*
X022804Y006489D01*
X022851Y006544D01*
X022895Y006601D01*
X022936Y006660D01*
X022973Y006722D01*
X023008Y006785D01*
X023039Y006851D01*
X023066Y006917D01*
X023091Y006985D01*
X023111Y007054D01*
X023128Y007124D01*
X023141Y007195D01*
X023150Y007267D01*
X023156Y007339D01*
X023158Y007411D01*
X023158Y014300D01*
X023158Y014307D01*
X021130Y014300D02*
X021132Y014350D01*
X021138Y014400D01*
X021148Y014450D01*
X021161Y014498D01*
X021178Y014546D01*
X021199Y014592D01*
X021223Y014636D01*
X021251Y014678D01*
X021282Y014718D01*
X021316Y014755D01*
X021353Y014790D01*
X021392Y014821D01*
X021433Y014850D01*
X021477Y014875D01*
X021523Y014897D01*
X021570Y014915D01*
X021618Y014929D01*
X021667Y014940D01*
X021717Y014947D01*
X021767Y014950D01*
X021818Y014949D01*
X021868Y014944D01*
X021918Y014935D01*
X021966Y014923D01*
X022014Y014906D01*
X022060Y014886D01*
X022105Y014863D01*
X022148Y014836D01*
X022188Y014806D01*
X022226Y014773D01*
X022261Y014737D01*
X022294Y014698D01*
X022323Y014657D01*
X022349Y014614D01*
X022372Y014569D01*
X022391Y014522D01*
X022406Y014474D01*
X022418Y014425D01*
X022426Y014375D01*
X022430Y014325D01*
X022430Y014275D01*
X022426Y014225D01*
X022418Y014175D01*
X022406Y014126D01*
X022391Y014078D01*
X022372Y014031D01*
X022349Y013986D01*
X022323Y013943D01*
X022294Y013902D01*
X022261Y013863D01*
X022226Y013827D01*
X022188Y013794D01*
X022148Y013764D01*
X022105Y013737D01*
X022060Y013714D01*
X022014Y013694D01*
X021966Y013677D01*
X021918Y013665D01*
X021868Y013656D01*
X021818Y013651D01*
X021767Y013650D01*
X021717Y013653D01*
X021667Y013660D01*
X021618Y013671D01*
X021570Y013685D01*
X021523Y013703D01*
X021477Y013725D01*
X021433Y013750D01*
X021392Y013779D01*
X021353Y013810D01*
X021316Y013845D01*
X021282Y013882D01*
X021251Y013922D01*
X021223Y013964D01*
X021199Y014008D01*
X021178Y014054D01*
X021161Y014102D01*
X021148Y014150D01*
X021138Y014200D01*
X021132Y014250D01*
X021130Y014300D01*
X021780Y015678D02*
X021852Y015676D01*
X021924Y015670D01*
X021996Y015661D01*
X022067Y015648D01*
X022137Y015631D01*
X022206Y015611D01*
X022274Y015586D01*
X022340Y015559D01*
X022406Y015528D01*
X022469Y015493D01*
X022531Y015456D01*
X022590Y015415D01*
X022647Y015371D01*
X022702Y015324D01*
X022754Y015274D01*
X022804Y015222D01*
X022851Y015167D01*
X022895Y015110D01*
X022936Y015051D01*
X022973Y014989D01*
X023008Y014926D01*
X023039Y014860D01*
X023066Y014794D01*
X023091Y014726D01*
X023111Y014657D01*
X023128Y014587D01*
X023141Y014516D01*
X023150Y014444D01*
X023156Y014372D01*
X023158Y014300D01*
X021784Y015678D02*
X021780Y015678D01*
X004851Y015678D01*
X004198Y014304D02*
X004200Y014354D01*
X004206Y014404D01*
X004216Y014454D01*
X004229Y014502D01*
X004246Y014550D01*
X004267Y014596D01*
X004291Y014640D01*
X004319Y014682D01*
X004350Y014722D01*
X004384Y014759D01*
X004421Y014794D01*
X004460Y014825D01*
X004501Y014854D01*
X004545Y014879D01*
X004591Y014901D01*
X004638Y014919D01*
X004686Y014933D01*
X004735Y014944D01*
X004785Y014951D01*
X004835Y014954D01*
X004886Y014953D01*
X004936Y014948D01*
X004986Y014939D01*
X005034Y014927D01*
X005082Y014910D01*
X005128Y014890D01*
X005173Y014867D01*
X005216Y014840D01*
X005256Y014810D01*
X005294Y014777D01*
X005329Y014741D01*
X005362Y014702D01*
X005391Y014661D01*
X005417Y014618D01*
X005440Y014573D01*
X005459Y014526D01*
X005474Y014478D01*
X005486Y014429D01*
X005494Y014379D01*
X005498Y014329D01*
X005498Y014279D01*
X005494Y014229D01*
X005486Y014179D01*
X005474Y014130D01*
X005459Y014082D01*
X005440Y014035D01*
X005417Y013990D01*
X005391Y013947D01*
X005362Y013906D01*
X005329Y013867D01*
X005294Y013831D01*
X005256Y013798D01*
X005216Y013768D01*
X005173Y013741D01*
X005128Y013718D01*
X005082Y013698D01*
X005034Y013681D01*
X004986Y013669D01*
X004936Y013660D01*
X004886Y013655D01*
X004835Y013654D01*
X004785Y013657D01*
X004735Y013664D01*
X004686Y013675D01*
X004638Y013689D01*
X004591Y013707D01*
X004545Y013729D01*
X004501Y013754D01*
X004460Y013783D01*
X004421Y013814D01*
X004384Y013849D01*
X004350Y013886D01*
X004319Y013926D01*
X004291Y013968D01*
X004267Y014012D01*
X004246Y014058D01*
X004229Y014106D01*
X004216Y014154D01*
X004206Y014204D01*
X004200Y014254D01*
X004198Y014304D01*
X003473Y014300D02*
X003475Y014372D01*
X003481Y014444D01*
X003490Y014516D01*
X003503Y014587D01*
X003520Y014657D01*
X003540Y014726D01*
X003565Y014794D01*
X003592Y014860D01*
X003623Y014926D01*
X003658Y014989D01*
X003695Y015051D01*
X003736Y015110D01*
X003780Y015167D01*
X003827Y015222D01*
X003877Y015274D01*
X003929Y015324D01*
X003984Y015371D01*
X004041Y015415D01*
X004100Y015456D01*
X004162Y015493D01*
X004225Y015528D01*
X004291Y015559D01*
X004357Y015586D01*
X004425Y015611D01*
X004494Y015631D01*
X004564Y015648D01*
X004635Y015661D01*
X004707Y015670D01*
X004779Y015676D01*
X004851Y015678D01*
X003473Y014304D02*
X003473Y014300D01*
X003473Y007450D01*
X003473Y007407D01*
X004198Y007407D02*
X004200Y007457D01*
X004206Y007507D01*
X004216Y007557D01*
X004229Y007605D01*
X004246Y007653D01*
X004267Y007699D01*
X004291Y007743D01*
X004319Y007785D01*
X004350Y007825D01*
X004384Y007862D01*
X004421Y007897D01*
X004460Y007928D01*
X004501Y007957D01*
X004545Y007982D01*
X004591Y008004D01*
X004638Y008022D01*
X004686Y008036D01*
X004735Y008047D01*
X004785Y008054D01*
X004835Y008057D01*
X004886Y008056D01*
X004936Y008051D01*
X004986Y008042D01*
X005034Y008030D01*
X005082Y008013D01*
X005128Y007993D01*
X005173Y007970D01*
X005216Y007943D01*
X005256Y007913D01*
X005294Y007880D01*
X005329Y007844D01*
X005362Y007805D01*
X005391Y007764D01*
X005417Y007721D01*
X005440Y007676D01*
X005459Y007629D01*
X005474Y007581D01*
X005486Y007532D01*
X005494Y007482D01*
X005498Y007432D01*
X005498Y007382D01*
X005494Y007332D01*
X005486Y007282D01*
X005474Y007233D01*
X005459Y007185D01*
X005440Y007138D01*
X005417Y007093D01*
X005391Y007050D01*
X005362Y007009D01*
X005329Y006970D01*
X005294Y006934D01*
X005256Y006901D01*
X005216Y006871D01*
X005173Y006844D01*
X005128Y006821D01*
X005082Y006801D01*
X005034Y006784D01*
X004986Y006772D01*
X004936Y006763D01*
X004886Y006758D01*
X004835Y006757D01*
X004785Y006760D01*
X004735Y006767D01*
X004686Y006778D01*
X004638Y006792D01*
X004591Y006810D01*
X004545Y006832D01*
X004501Y006857D01*
X004460Y006886D01*
X004421Y006917D01*
X004384Y006952D01*
X004350Y006989D01*
X004319Y007029D01*
X004291Y007071D01*
X004267Y007115D01*
X004246Y007161D01*
X004229Y007209D01*
X004216Y007257D01*
X004206Y007307D01*
X004200Y007357D01*
X004198Y007407D01*
X003473Y007450D02*
X003474Y007377D01*
X003479Y007303D01*
X003487Y007231D01*
X003500Y007159D01*
X003516Y007087D01*
X003535Y007017D01*
X003559Y006947D01*
X003586Y006879D01*
X003617Y006813D01*
X003651Y006748D01*
X003688Y006685D01*
X003729Y006624D01*
X003772Y006566D01*
X003819Y006509D01*
X003869Y006455D01*
X003921Y006404D01*
X003976Y006356D01*
X004033Y006311D01*
X004093Y006268D01*
X004155Y006229D01*
X004219Y006193D01*
X004284Y006161D01*
X004352Y006132D01*
X004420Y006107D01*
X004490Y006085D01*
X004561Y006067D01*
X004633Y006052D01*
X004705Y006042D01*
X004778Y006035D01*
X004851Y006032D01*
X004655Y008883D02*
X004657Y008913D01*
X004663Y008943D01*
X004672Y008972D01*
X004685Y008999D01*
X004702Y009024D01*
X004721Y009047D01*
X004744Y009068D01*
X004769Y009085D01*
X004795Y009099D01*
X004824Y009109D01*
X004853Y009116D01*
X004883Y009119D01*
X004914Y009118D01*
X004944Y009113D01*
X004973Y009104D01*
X005000Y009092D01*
X005026Y009077D01*
X005050Y009058D01*
X005071Y009036D01*
X005089Y009012D01*
X005104Y008985D01*
X005115Y008957D01*
X005123Y008928D01*
X005127Y008898D01*
X005127Y008868D01*
X005123Y008838D01*
X005115Y008809D01*
X005104Y008781D01*
X005089Y008754D01*
X005071Y008730D01*
X005050Y008708D01*
X005026Y008689D01*
X005000Y008674D01*
X004973Y008662D01*
X004944Y008653D01*
X004914Y008648D01*
X004883Y008647D01*
X004853Y008650D01*
X004824Y008657D01*
X004795Y008667D01*
X004769Y008681D01*
X004744Y008698D01*
X004721Y008719D01*
X004702Y008742D01*
X004685Y008767D01*
X004672Y008794D01*
X004663Y008823D01*
X004657Y008853D01*
X004655Y008883D01*
X003670Y008883D02*
X003672Y008913D01*
X003678Y008943D01*
X003687Y008972D01*
X003700Y008999D01*
X003717Y009024D01*
X003736Y009047D01*
X003759Y009068D01*
X003784Y009085D01*
X003810Y009099D01*
X003839Y009109D01*
X003868Y009116D01*
X003898Y009119D01*
X003929Y009118D01*
X003959Y009113D01*
X003988Y009104D01*
X004015Y009092D01*
X004041Y009077D01*
X004065Y009058D01*
X004086Y009036D01*
X004104Y009012D01*
X004119Y008985D01*
X004130Y008957D01*
X004138Y008928D01*
X004142Y008898D01*
X004142Y008868D01*
X004138Y008838D01*
X004130Y008809D01*
X004119Y008781D01*
X004104Y008754D01*
X004086Y008730D01*
X004065Y008708D01*
X004041Y008689D01*
X004015Y008674D01*
X003988Y008662D01*
X003959Y008653D01*
X003929Y008648D01*
X003898Y008647D01*
X003868Y008650D01*
X003839Y008657D01*
X003810Y008667D01*
X003784Y008681D01*
X003759Y008698D01*
X003736Y008719D01*
X003717Y008742D01*
X003700Y008767D01*
X003687Y008794D01*
X003678Y008823D01*
X003672Y008853D01*
X003670Y008883D01*
X006623Y010852D02*
X006625Y010882D01*
X006631Y010912D01*
X006640Y010941D01*
X006653Y010968D01*
X006670Y010993D01*
X006689Y011016D01*
X006712Y011037D01*
X006737Y011054D01*
X006763Y011068D01*
X006792Y011078D01*
X006821Y011085D01*
X006851Y011088D01*
X006882Y011087D01*
X006912Y011082D01*
X006941Y011073D01*
X006968Y011061D01*
X006994Y011046D01*
X007018Y011027D01*
X007039Y011005D01*
X007057Y010981D01*
X007072Y010954D01*
X007083Y010926D01*
X007091Y010897D01*
X007095Y010867D01*
X007095Y010837D01*
X007091Y010807D01*
X007083Y010778D01*
X007072Y010750D01*
X007057Y010723D01*
X007039Y010699D01*
X007018Y010677D01*
X006994Y010658D01*
X006968Y010643D01*
X006941Y010631D01*
X006912Y010622D01*
X006882Y010617D01*
X006851Y010616D01*
X006821Y010619D01*
X006792Y010626D01*
X006763Y010636D01*
X006737Y010650D01*
X006712Y010667D01*
X006689Y010688D01*
X006670Y010711D01*
X006653Y010736D01*
X006640Y010763D01*
X006631Y010792D01*
X006625Y010822D01*
X006623Y010852D01*
X004655Y012820D02*
X004657Y012850D01*
X004663Y012880D01*
X004672Y012909D01*
X004685Y012936D01*
X004702Y012961D01*
X004721Y012984D01*
X004744Y013005D01*
X004769Y013022D01*
X004795Y013036D01*
X004824Y013046D01*
X004853Y013053D01*
X004883Y013056D01*
X004914Y013055D01*
X004944Y013050D01*
X004973Y013041D01*
X005000Y013029D01*
X005026Y013014D01*
X005050Y012995D01*
X005071Y012973D01*
X005089Y012949D01*
X005104Y012922D01*
X005115Y012894D01*
X005123Y012865D01*
X005127Y012835D01*
X005127Y012805D01*
X005123Y012775D01*
X005115Y012746D01*
X005104Y012718D01*
X005089Y012691D01*
X005071Y012667D01*
X005050Y012645D01*
X005026Y012626D01*
X005000Y012611D01*
X004973Y012599D01*
X004944Y012590D01*
X004914Y012585D01*
X004883Y012584D01*
X004853Y012587D01*
X004824Y012594D01*
X004795Y012604D01*
X004769Y012618D01*
X004744Y012635D01*
X004721Y012656D01*
X004702Y012679D01*
X004685Y012704D01*
X004672Y012731D01*
X004663Y012760D01*
X004657Y012790D01*
X004655Y012820D01*
X003670Y012820D02*
X003672Y012850D01*
X003678Y012880D01*
X003687Y012909D01*
X003700Y012936D01*
X003717Y012961D01*
X003736Y012984D01*
X003759Y013005D01*
X003784Y013022D01*
X003810Y013036D01*
X003839Y013046D01*
X003868Y013053D01*
X003898Y013056D01*
X003929Y013055D01*
X003959Y013050D01*
X003988Y013041D01*
X004015Y013029D01*
X004041Y013014D01*
X004065Y012995D01*
X004086Y012973D01*
X004104Y012949D01*
X004119Y012922D01*
X004130Y012894D01*
X004138Y012865D01*
X004142Y012835D01*
X004142Y012805D01*
X004138Y012775D01*
X004130Y012746D01*
X004119Y012718D01*
X004104Y012691D01*
X004086Y012667D01*
X004065Y012645D01*
X004041Y012626D01*
X004015Y012611D01*
X003988Y012599D01*
X003959Y012590D01*
X003929Y012585D01*
X003898Y012584D01*
X003868Y012587D01*
X003839Y012594D01*
X003810Y012604D01*
X003784Y012618D01*
X003759Y012635D01*
X003736Y012656D01*
X003717Y012679D01*
X003700Y012704D01*
X003687Y012731D01*
X003678Y012760D01*
X003672Y012790D01*
X003670Y012820D01*
D11*
X000916Y006024D02*
X000927Y001163D01*
X000867Y005000D02*
X000916Y006024D01*
X000816Y005000D01*
X000793Y005000D02*
X000916Y006024D01*
X001021Y005000D01*
X001044Y005000D02*
X000793Y005000D01*
X000970Y005000D02*
X000916Y006024D01*
X001044Y005000D01*
X000129Y006022D02*
X004851Y006033D01*
X004848Y007407D02*
X000126Y007397D01*
X000913Y007398D02*
X000808Y008422D01*
X000785Y008422D02*
X000913Y007398D01*
X001013Y008422D01*
X001036Y008422D02*
X000785Y008422D01*
X000859Y008422D02*
X000913Y007398D01*
X000962Y008422D01*
X001036Y008422D02*
X000913Y007398D01*
X000908Y009446D01*
X003473Y014300D02*
X003473Y019418D01*
X003473Y018631D02*
X004497Y018733D01*
X004497Y018757D02*
X004497Y018505D01*
X003473Y018631D01*
X004497Y018529D01*
X004497Y018580D02*
X003473Y018631D01*
X004497Y018682D01*
X004497Y018757D02*
X003473Y018631D01*
X023158Y018631D01*
X022135Y018529D01*
X022135Y018505D02*
X023158Y018631D01*
X022135Y018733D01*
X022135Y018757D02*
X022135Y018505D01*
X022135Y018580D02*
X023158Y018631D01*
X022135Y018682D01*
X022135Y018757D02*
X023158Y018631D01*
X023158Y019418D02*
X023158Y014300D01*
X023158Y013415D02*
X027489Y013415D01*
X026702Y013415D02*
X026804Y012391D01*
X026827Y012391D02*
X026702Y013415D01*
X026599Y012391D01*
X026576Y012391D02*
X026827Y012391D01*
X026753Y012391D02*
X026702Y013415D01*
X026651Y012391D01*
X026576Y012391D02*
X026702Y013415D01*
X026702Y008296D01*
X026804Y009320D01*
X026827Y009320D02*
X026702Y008296D01*
X026599Y009320D01*
X026576Y009320D02*
X026827Y009320D01*
X026753Y009320D02*
X026702Y008296D01*
X026651Y009320D01*
X026576Y009320D02*
X026702Y008296D01*
X027489Y008296D02*
X023158Y008296D01*
X021780Y006033D02*
X031032Y006033D01*
X030245Y006033D02*
X030347Y007056D01*
X030371Y007056D02*
X030245Y006033D01*
X030143Y007056D01*
X030119Y007056D02*
X030371Y007056D01*
X030296Y007056D02*
X030245Y006033D01*
X030194Y007056D01*
X030119Y007056D02*
X030245Y006033D01*
X030245Y015678D01*
X030347Y014655D01*
X030371Y014655D02*
X030245Y015678D01*
X030143Y014655D01*
X030119Y014655D02*
X030371Y014655D01*
X030296Y014655D02*
X030245Y015678D01*
X030194Y014655D01*
X030119Y014655D02*
X030245Y015678D01*
X031032Y015678D02*
X021780Y015678D01*
D12*
X025195Y011929D02*
X025407Y011929D01*
X025618Y011717D01*
X025830Y011929D01*
X026042Y011929D01*
X026253Y011717D01*
X026253Y011294D01*
X026042Y011083D01*
X026253Y010660D02*
X026253Y009814D01*
X026253Y010237D02*
X024984Y010237D01*
X025407Y009814D01*
X025195Y011083D02*
X024984Y011294D01*
X024984Y011717D01*
X025195Y011929D01*
X025618Y011717D02*
X025618Y011506D01*
X028527Y010895D02*
X029162Y010261D01*
X029162Y011107D01*
X029796Y010895D02*
X028527Y010895D01*
X029585Y011529D02*
X029585Y011741D01*
X029796Y011741D01*
X029796Y011529D01*
X029585Y011529D01*
X029585Y012164D02*
X029796Y012375D01*
X029796Y012798D01*
X029585Y013010D01*
X029162Y013010D01*
X028950Y012798D01*
X028950Y012587D01*
X029162Y012164D01*
X028527Y012164D01*
X028527Y013010D01*
X028739Y009838D02*
X028527Y009626D01*
X028527Y009203D01*
X028739Y008992D01*
X028950Y009838D02*
X029796Y008992D01*
X029796Y009838D01*
X028950Y009838D02*
X028739Y009838D01*
X014389Y019291D02*
X014178Y019080D01*
X013755Y019080D01*
X013543Y019291D01*
X014389Y020137D01*
X014389Y019291D01*
X013543Y019291D02*
X013543Y020137D01*
X013755Y020349D01*
X014178Y020349D01*
X014389Y020137D01*
X013121Y020349D02*
X012274Y020349D01*
X012274Y019714D01*
X012697Y019926D01*
X012909Y019926D01*
X013121Y019714D01*
X013121Y019291D01*
X012909Y019080D01*
X012486Y019080D01*
X012274Y019291D01*
X002425Y004948D02*
X002637Y004737D01*
X002637Y004314D01*
X002426Y004102D01*
X002215Y004101D01*
X002003Y004313D01*
X001792Y004101D01*
X001580Y004100D01*
X001368Y004311D01*
X001368Y004735D01*
X001579Y004946D01*
X002003Y004524D02*
X002003Y004313D01*
X001581Y003678D02*
X001369Y003677D01*
X001370Y003466D01*
X001581Y003466D01*
X001581Y003678D01*
X002005Y003044D02*
X002007Y002198D01*
X002219Y001775D02*
X002008Y001564D01*
X002009Y000929D01*
X001586Y000928D02*
X002432Y000930D01*
X002643Y001142D01*
X002642Y001565D01*
X002430Y001776D01*
X002219Y001775D01*
X001584Y001774D02*
X001373Y001563D01*
X001374Y001139D01*
X001586Y000928D01*
X001372Y002408D02*
X002641Y002411D01*
X002005Y003044D01*
D13*
X006859Y008883D03*
X006859Y009867D03*
X004891Y010852D03*
X006859Y011836D03*
X006859Y012820D03*
D14*
X020981Y012349D03*
X021981Y012349D03*
X021981Y011349D03*
X020981Y011349D03*
X020981Y010349D03*
X021981Y010349D03*
X021981Y009349D03*
X020981Y009349D03*
D15*
X016183Y010929D03*
X008309Y010929D03*
D16*
X015952Y014061D03*
X015952Y015061D03*
D17*
X006615Y014512D03*
D18*
X007615Y014512D03*
X008615Y014512D03*
X009615Y014512D03*
X005893Y011823D03*
X005893Y010823D03*
X005893Y009823D03*
X015299Y007209D03*
X016299Y007209D03*
X017299Y007209D03*
X018299Y007209D03*
X019299Y007209D03*
X020299Y007209D03*
D19*
X018959Y009158D02*
X018959Y009748D01*
X017188Y009748D02*
X017188Y009158D01*
X017188Y011717D02*
X017188Y012307D01*
X018959Y012307D02*
X018959Y011717D01*
D20*
X020304Y013415D03*
X020304Y008296D03*
D21*
X018973Y009439D02*
X018959Y009453D01*
X017188Y009453D02*
X017188Y012012D01*
X009473Y012033D02*
X009473Y011033D01*
X008973Y011433D02*
X008615Y011791D01*
X008615Y014512D01*
X008973Y011433D02*
X008973Y010033D01*
X008239Y009298D01*
D22*
X008239Y009298D03*
X010223Y008233D03*
X011073Y008983D03*
X010223Y007233D03*
X012523Y007233D03*
X015223Y007983D03*
X014473Y009633D03*
X013873Y009633D03*
X012873Y010533D03*
X012473Y011033D03*
X011973Y011733D03*
X012073Y012433D03*
X012873Y012433D03*
X014373Y012533D03*
X014973Y011733D03*
X015967Y011929D03*
X017773Y011283D03*
X017573Y010333D03*
X019623Y009633D03*
X018373Y008833D03*
X018623Y008033D03*
X018073Y007933D03*
X019123Y007933D03*
X019723Y010733D03*
X019791Y011349D03*
X018173Y012633D03*
X021123Y013131D03*
X015473Y014528D03*
X010973Y014033D03*
X010873Y014833D03*
X009273Y013433D03*
X008173Y013433D03*
X007281Y013439D03*
X006073Y013433D03*
X005073Y012033D03*
X007473Y010833D03*
X009473Y011033D03*
X010073Y011033D03*
X009473Y012033D03*
X005073Y009633D03*
X005861Y008845D03*
D23*
X005893Y009823D02*
X005920Y009823D01*
X006859Y008883D01*
X008309Y010333D01*
X008309Y010929D01*
X008309Y011370D01*
X006859Y012820D01*
X006615Y013064D01*
X006615Y014512D01*
X006656Y014512D01*
X007273Y015133D01*
X009973Y015133D01*
X010973Y014033D01*
X014573Y014033D01*
X015216Y013390D01*
X020230Y013390D01*
X020304Y013415D01*
X020304Y009467D01*
X020440Y009331D01*
X020964Y009331D01*
X020981Y009349D01*
X018959Y009453D02*
X018959Y012012D01*
X006859Y012820D02*
X006812Y012867D01*
D24*
X006279Y013125D02*
X005217Y013125D01*
X005269Y013073D02*
X005143Y013198D01*
X004979Y013266D01*
X004802Y013266D01*
X004638Y013198D01*
X004512Y013073D01*
X004444Y012909D01*
X004444Y012731D01*
X004512Y012567D01*
X004638Y012442D01*
X004802Y012374D01*
X004979Y012374D01*
X005143Y012442D01*
X005269Y012567D01*
X005337Y012731D01*
X005337Y012909D01*
X005269Y013073D01*
X005288Y013026D02*
X006238Y013026D01*
X006206Y012950D02*
X006306Y013190D01*
X006325Y013209D01*
X006325Y013932D01*
X006158Y013932D01*
X006035Y014055D01*
X006035Y014969D01*
X006158Y015092D01*
X006824Y015092D01*
X007027Y015297D01*
X007028Y015297D01*
X007068Y015338D01*
X007108Y015378D01*
X007109Y015378D01*
X007109Y015378D01*
X007162Y015400D01*
X007215Y015422D01*
X007215Y015422D01*
X007216Y015423D01*
X007273Y015423D01*
X007330Y015423D01*
X007331Y015423D01*
X009923Y015423D01*
X009930Y015425D01*
X009980Y015423D01*
X010031Y015423D01*
X010038Y015420D01*
X010045Y015420D01*
X010091Y015398D01*
X010138Y015378D01*
X010143Y015373D01*
X010149Y015370D01*
X010183Y015333D01*
X010219Y015297D01*
X010222Y015290D01*
X011012Y014421D01*
X011238Y014421D01*
X011337Y014323D01*
X014631Y014323D01*
X014738Y014278D01*
X015336Y013680D01*
X015697Y013680D01*
X015570Y013806D01*
X015502Y013972D01*
X015502Y014151D01*
X015570Y014316D01*
X015697Y014443D01*
X015862Y014511D01*
X016041Y014511D01*
X016117Y014480D01*
X016117Y014643D01*
X016041Y014611D01*
X015862Y014611D01*
X015697Y014680D01*
X015570Y014806D01*
X015502Y014972D01*
X015502Y015151D01*
X015570Y015316D01*
X015697Y015443D01*
X015758Y015468D01*
X004851Y015468D01*
X004699Y015458D01*
X004404Y015379D01*
X004140Y015227D01*
X003925Y015011D01*
X003772Y014747D01*
X003709Y014511D01*
X003709Y014203D01*
X003683Y014177D01*
X003683Y013211D01*
X003818Y013266D01*
X003995Y013266D01*
X004159Y013198D01*
X004285Y013073D01*
X004353Y012909D01*
X004353Y012731D01*
X004285Y012567D01*
X004159Y012442D01*
X003995Y012374D01*
X003818Y012374D01*
X003683Y012429D01*
X003683Y009274D01*
X003818Y009329D01*
X003995Y009329D01*
X004159Y009261D01*
X004285Y009136D01*
X004353Y008972D01*
X004353Y008794D01*
X004285Y008630D01*
X004159Y008505D01*
X003995Y008437D01*
X003818Y008437D01*
X003683Y008492D01*
X003683Y007640D01*
X003894Y007641D01*
X003913Y007748D01*
X003913Y007748D01*
X004086Y008047D01*
X004086Y008047D01*
X004086Y008047D01*
X004351Y008269D01*
X004351Y008269D01*
X004675Y008387D01*
X005021Y008387D01*
X005346Y008269D01*
X005346Y008269D01*
X005610Y008047D01*
X005610Y008047D01*
X005783Y007748D01*
X005843Y007407D01*
X005783Y007067D01*
X005610Y006768D01*
X005610Y006768D01*
X005346Y006546D01*
X005346Y006546D01*
X005021Y006427D01*
X004675Y006427D01*
X004351Y006546D01*
X004351Y006546D01*
X004086Y006768D01*
X004086Y006768D01*
X003913Y007067D01*
X003913Y007067D01*
X003895Y007170D01*
X003722Y007169D01*
X003767Y006991D01*
X003919Y006721D01*
X004135Y006498D01*
X004401Y006339D01*
X004654Y006268D01*
X004948Y006268D01*
X004974Y006243D01*
X021657Y006243D01*
X021683Y006268D01*
X021991Y006268D01*
X022227Y006332D01*
X022491Y006484D01*
X022707Y006700D01*
X022860Y006964D01*
X022938Y007258D01*
X022948Y007411D01*
X022948Y008173D01*
X022923Y008199D01*
X022923Y008394D01*
X022948Y008420D01*
X022948Y013291D01*
X022923Y013317D01*
X022923Y013512D01*
X022948Y013538D01*
X022948Y014177D01*
X022923Y014203D01*
X022923Y014511D01*
X022860Y014747D01*
X022707Y015011D01*
X022491Y015227D01*
X022227Y015379D01*
X021991Y015443D01*
X021683Y015443D01*
X021657Y015468D01*
X020185Y015468D01*
X020287Y015366D01*
X020287Y014125D01*
X020598Y014125D01*
X020958Y013764D01*
X020845Y013960D01*
X020845Y013960D01*
X020785Y014300D01*
X020785Y014300D01*
X020845Y014641D01*
X020845Y014641D01*
X021018Y014940D01*
X021018Y014940D01*
X021018Y014940D01*
X021283Y015162D01*
X021283Y015162D01*
X021608Y015280D01*
X021953Y015280D01*
X022278Y015162D01*
X022278Y015162D01*
X022543Y014940D01*
X022543Y014940D01*
X022716Y014641D01*
X022716Y014641D01*
X022776Y014300D01*
X022776Y014300D01*
X022716Y013960D01*
X022716Y013960D01*
X022543Y013661D01*
X022543Y013661D01*
X022543Y013661D01*
X022278Y013439D01*
X022278Y013439D01*
X021953Y013320D01*
X021608Y013320D01*
X021283Y013439D01*
X021283Y013439D01*
X021018Y013661D01*
X021018Y013661D01*
X021014Y013668D01*
X021014Y013120D01*
X020822Y012929D01*
X021221Y012929D01*
X021481Y012669D01*
X021741Y012929D01*
X022221Y012929D01*
X022561Y012589D01*
X022561Y012109D01*
X022301Y011849D01*
X022561Y011589D01*
X022561Y011109D01*
X022301Y010849D01*
X022561Y010589D01*
X022561Y010109D01*
X022259Y009806D01*
X022501Y009564D01*
X022501Y009399D01*
X022031Y009399D01*
X022031Y009299D01*
X022031Y008829D01*
X022197Y008829D01*
X022501Y009133D01*
X022501Y009299D01*
X022031Y009299D01*
X021931Y009299D01*
X021931Y008829D01*
X021766Y008829D01*
X021524Y009071D01*
X021221Y008769D01*
X020751Y008769D01*
X020954Y008566D01*
X020954Y008346D01*
X020354Y008346D01*
X020354Y008246D01*
X020354Y007726D01*
X020349Y007727D01*
X020349Y007259D01*
X020815Y007259D01*
X020849Y007067D01*
X021021Y006768D01*
X021286Y006546D01*
X021611Y006427D01*
X021956Y006427D01*
X022281Y006546D01*
X022546Y006768D01*
X022719Y007067D01*
X022779Y007407D01*
X022779Y007407D01*
X022719Y007748D01*
X022546Y008047D01*
X022546Y008047D01*
X022281Y008269D01*
X021956Y008387D01*
X021611Y008387D01*
X021286Y008269D01*
X021021Y008047D01*
X020849Y007748D01*
X020788Y007407D01*
X020798Y007356D01*
X020781Y007408D01*
X020743Y007481D01*
X020695Y007547D01*
X020637Y007605D01*
X020576Y007650D01*
X020954Y008027D01*
X020954Y008246D01*
X020354Y008246D01*
X020254Y008246D01*
X020254Y007646D01*
X020249Y007646D01*
X020249Y007259D01*
X020349Y007259D01*
X020349Y007159D01*
X020817Y007159D01*
X020806Y007087D01*
X020781Y007009D01*
X020743Y006936D01*
X020695Y006870D01*
X020637Y006812D01*
X020571Y006764D01*
X020498Y006727D01*
X020420Y006702D01*
X020349Y006690D01*
X020349Y007159D01*
X020249Y007159D01*
X020249Y006690D01*
X020177Y006702D01*
X020099Y006727D01*
X020026Y006764D01*
X019960Y006812D01*
X019902Y006870D01*
X019854Y006936D01*
X019832Y006980D01*
X019790Y006880D01*
X019627Y006717D01*
X019414Y006629D01*
X019183Y006629D01*
X018970Y006717D01*
X018807Y006880D01*
X018799Y006900D01*
X018790Y006880D01*
X018627Y006717D01*
X018414Y006629D01*
X018183Y006629D01*
X017970Y006717D01*
X017807Y006880D01*
X017799Y006900D01*
X017790Y006880D01*
X017627Y006717D01*
X017414Y006629D01*
X017183Y006629D01*
X016970Y006717D01*
X016807Y006880D01*
X016799Y006900D01*
X016790Y006880D01*
X016627Y006717D01*
X016414Y006629D01*
X016183Y006629D01*
X015970Y006717D01*
X015807Y006880D01*
X015799Y006900D01*
X015790Y006880D01*
X015627Y006717D01*
X015414Y006629D01*
X015183Y006629D01*
X014970Y006717D01*
X014807Y006880D01*
X014719Y007093D01*
X014719Y007324D01*
X014807Y007537D01*
X014970Y007700D01*
X015183Y007789D01*
X015414Y007789D01*
X015440Y007778D01*
X015440Y008998D01*
X014861Y009577D01*
X014861Y009368D01*
X014738Y009245D01*
X014453Y009245D01*
X012821Y007612D01*
X012804Y007605D01*
X012911Y007498D01*
X012911Y006968D01*
X012788Y006845D01*
X012453Y006845D01*
X012094Y006485D01*
X012021Y006412D01*
X011925Y006373D01*
X009058Y006373D01*
X008962Y006412D01*
X007099Y008276D01*
X006989Y008230D01*
X006729Y008230D01*
X006489Y008330D01*
X006306Y008513D01*
X006206Y008753D01*
X006206Y009013D01*
X006239Y009093D01*
X006066Y009266D01*
X006009Y009243D01*
X005778Y009243D01*
X005565Y009331D01*
X005402Y009494D01*
X005313Y009707D01*
X005313Y009938D01*
X005402Y010151D01*
X005565Y010314D01*
X005585Y010323D01*
X005565Y010331D01*
X005402Y010494D01*
X005388Y010527D01*
X005343Y010465D01*
X005431Y010465D01*
X005343Y010465D02*
X005277Y010399D01*
X005201Y010344D01*
X005118Y010302D01*
X005030Y010273D01*
X004941Y010259D01*
X004941Y010802D01*
X004841Y010802D01*
X004298Y010802D01*
X004312Y010713D01*
X004341Y010624D01*
X004384Y010541D01*
X004438Y010465D01*
X004504Y010399D01*
X004580Y010344D01*
X004663Y010302D01*
X004752Y010273D01*
X004841Y010259D01*
X004841Y010802D01*
X004841Y010902D01*
X004841Y011444D01*
X004752Y011430D01*
X004663Y011401D01*
X004580Y011359D01*
X004504Y011304D01*
X004438Y011238D01*
X004384Y011162D01*
X004341Y011079D01*
X004312Y010990D01*
X004298Y010902D01*
X004841Y010902D01*
X004941Y010902D01*
X004941Y011444D01*
X005030Y011430D01*
X005118Y011401D01*
X005201Y011359D01*
X005277Y011304D01*
X005343Y011238D01*
X005398Y011162D01*
X005403Y011152D01*
X005565Y011314D01*
X005665Y011356D01*
X005621Y011378D01*
X005555Y011426D01*
X005497Y011484D01*
X005449Y011550D01*
X005411Y011623D01*
X005386Y011701D01*
X005375Y011773D01*
X005843Y011773D01*
X005843Y011873D01*
X005375Y011873D01*
X005386Y011944D01*
X005411Y012022D01*
X005449Y012095D01*
X005497Y012161D01*
X005555Y012219D01*
X005621Y012267D01*
X005694Y012305D01*
X005772Y012330D01*
X005843Y012341D01*
X005843Y011873D01*
X005943Y011873D01*
X005943Y012341D01*
X006015Y012330D01*
X006093Y012305D01*
X006166Y012267D01*
X006232Y012219D01*
X006288Y012163D01*
X006306Y012206D01*
X006428Y012328D01*
X006306Y012450D01*
X006206Y012690D01*
X006206Y012950D01*
X006206Y012928D02*
X005329Y012928D01*
X005337Y012829D02*
X006206Y012829D01*
X006206Y012731D02*
X005337Y012731D01*
X005296Y012632D02*
X006230Y012632D01*
X006271Y012534D02*
X005235Y012534D01*
X005128Y012435D02*
X006321Y012435D01*
X006419Y012337D02*
X005972Y012337D01*
X005943Y012337D02*
X005843Y012337D01*
X005815Y012337D02*
X003683Y012337D01*
X003683Y012238D02*
X005581Y012238D01*
X005481Y012140D02*
X003683Y012140D01*
X003683Y012041D02*
X005421Y012041D01*
X005386Y011943D02*
X003683Y011943D01*
X003683Y011844D02*
X005843Y011844D01*
X005843Y011943D02*
X005943Y011943D01*
X005943Y012041D02*
X005843Y012041D01*
X005843Y012140D02*
X005943Y012140D01*
X005943Y012238D02*
X005843Y012238D01*
X006206Y012238D02*
X006338Y012238D01*
X005379Y011746D02*
X003683Y011746D01*
X003683Y011647D02*
X005404Y011647D01*
X005450Y011549D02*
X003683Y011549D01*
X003683Y011450D02*
X005530Y011450D01*
X005655Y011352D02*
X005211Y011352D01*
X005328Y011253D02*
X005504Y011253D01*
X005405Y011155D02*
X005402Y011155D01*
X004941Y011155D02*
X004841Y011155D01*
X004841Y011253D02*
X004941Y011253D01*
X004941Y011352D02*
X004841Y011352D01*
X004570Y011352D02*
X003683Y011352D01*
X003683Y011253D02*
X004454Y011253D01*
X004380Y011155D02*
X003683Y011155D01*
X003683Y011056D02*
X004334Y011056D01*
X004307Y010958D02*
X003683Y010958D01*
X003683Y010859D02*
X004841Y010859D01*
X004841Y010761D02*
X004941Y010761D01*
X004941Y010662D02*
X004841Y010662D01*
X004841Y010564D02*
X004941Y010564D01*
X004941Y010465D02*
X004841Y010465D01*
X004841Y010367D02*
X004941Y010367D01*
X004941Y010268D02*
X004841Y010268D01*
X004784Y010268D02*
X003683Y010268D01*
X003683Y010170D02*
X005420Y010170D01*
X005369Y010071D02*
X003683Y010071D01*
X003683Y009973D02*
X005328Y009973D01*
X005313Y009874D02*
X003683Y009874D01*
X003683Y009776D02*
X005313Y009776D01*
X005326Y009677D02*
X003683Y009677D01*
X003683Y009579D02*
X005367Y009579D01*
X005416Y009480D02*
X003683Y009480D01*
X003683Y009382D02*
X005514Y009382D01*
X005680Y009283D02*
X005091Y009283D01*
X005143Y009261D02*
X004979Y009329D01*
X004802Y009329D01*
X004638Y009261D01*
X004512Y009136D01*
X004444Y008972D01*
X004444Y008794D01*
X004512Y008630D01*
X004638Y008505D01*
X004802Y008437D01*
X004979Y008437D01*
X005143Y008505D01*
X005269Y008630D01*
X005337Y008794D01*
X005337Y008972D01*
X005269Y009136D01*
X005143Y009261D01*
X005220Y009185D02*
X006147Y009185D01*
X006237Y009086D02*
X005290Y009086D01*
X005330Y008988D02*
X006206Y008988D01*
X006206Y008889D02*
X005337Y008889D01*
X005335Y008791D02*
X006206Y008791D01*
X006232Y008692D02*
X005295Y008692D01*
X005232Y008594D02*
X006272Y008594D01*
X006324Y008495D02*
X005120Y008495D01*
X005266Y008298D02*
X006565Y008298D01*
X006422Y008397D02*
X003683Y008397D01*
X003683Y008298D02*
X004430Y008298D01*
X004268Y008200D02*
X003683Y008200D01*
X003683Y008101D02*
X004150Y008101D01*
X004060Y008003D02*
X003683Y008003D01*
X003683Y007904D02*
X004003Y007904D01*
X003946Y007806D02*
X003683Y007806D01*
X003683Y007707D02*
X003906Y007707D01*
X003904Y007116D02*
X003736Y007116D01*
X003761Y007018D02*
X003942Y007018D01*
X003998Y006919D02*
X003808Y006919D01*
X003863Y006821D02*
X004055Y006821D01*
X004140Y006722D02*
X003918Y006722D01*
X004013Y006624D02*
X004258Y006624D01*
X004109Y006525D02*
X004407Y006525D01*
X004255Y006427D02*
X008948Y006427D01*
X008849Y006525D02*
X005289Y006525D01*
X005439Y006624D02*
X008751Y006624D01*
X008652Y006722D02*
X005556Y006722D01*
X005610Y006768D02*
X005610Y006768D01*
X005641Y006821D02*
X008554Y006821D01*
X008455Y006919D02*
X005698Y006919D01*
X005755Y007018D02*
X008357Y007018D01*
X008258Y007116D02*
X005792Y007116D01*
X005809Y007215D02*
X008160Y007215D01*
X008061Y007313D02*
X005827Y007313D01*
X005843Y007412D02*
X007963Y007412D01*
X007864Y007510D02*
X005825Y007510D01*
X005808Y007609D02*
X007766Y007609D01*
X007667Y007707D02*
X005790Y007707D01*
X005750Y007806D02*
X007569Y007806D01*
X007470Y007904D02*
X005693Y007904D01*
X005636Y008003D02*
X007372Y008003D01*
X007273Y008101D02*
X005546Y008101D01*
X005429Y008200D02*
X007175Y008200D01*
X007516Y008594D02*
X009931Y008594D01*
X009958Y008621D02*
X009835Y008498D01*
X009835Y007968D01*
X009958Y007845D01*
X010488Y007845D01*
X010611Y007968D01*
X010611Y007973D01*
X012246Y007973D01*
X011766Y007493D01*
X010611Y007493D01*
X010611Y007498D01*
X010488Y007621D01*
X009958Y007621D01*
X009835Y007498D01*
X009835Y006968D01*
X009910Y006893D01*
X009217Y006893D01*
X007467Y008643D01*
X007512Y008753D01*
X007512Y009013D01*
X007479Y009093D01*
X007851Y009464D01*
X007851Y009033D01*
X007974Y008910D01*
X008504Y008910D01*
X008627Y009033D01*
X008627Y009304D01*
X009202Y009880D01*
X009243Y009979D01*
X009243Y010645D01*
X009738Y010645D01*
X009861Y010768D01*
X009861Y011298D01*
X009743Y011416D01*
X009743Y011649D01*
X009861Y011768D01*
X009861Y012298D01*
X009738Y012421D01*
X009208Y012421D01*
X009085Y012298D01*
X009085Y011768D01*
X009203Y011649D01*
X009203Y011583D01*
X009202Y011586D01*
X008885Y011903D01*
X008885Y013996D01*
X008943Y014020D01*
X009107Y014183D01*
X009148Y014283D01*
X009170Y014239D01*
X009218Y014173D01*
X009276Y014115D01*
X009342Y014067D01*
X009415Y014030D01*
X009493Y014005D01*
X009565Y013993D01*
X009565Y014462D01*
X009665Y014462D01*
X009665Y014562D01*
X010100Y014562D01*
X010585Y014028D01*
X010585Y013768D01*
X010708Y013645D01*
X011238Y013645D01*
X011337Y013743D01*
X014453Y013743D01*
X015052Y013144D01*
X015158Y013100D01*
X015973Y013100D01*
X014994Y012121D01*
X014708Y012121D01*
X014585Y011998D01*
X014585Y011468D01*
X014708Y011345D01*
X015238Y011345D01*
X015361Y011468D01*
X015361Y011753D01*
X016381Y012773D01*
X016990Y012773D01*
X016901Y012736D01*
X016759Y012594D01*
X016682Y012408D01*
X016682Y011616D01*
X016759Y011431D01*
X016901Y011289D01*
X016918Y011282D01*
X016918Y010183D01*
X016901Y010177D01*
X016759Y010035D01*
X016682Y009849D01*
X016682Y009598D01*
X015295Y011076D01*
X015294Y011080D01*
X015260Y011114D01*
X015228Y011148D01*
X015224Y011150D01*
X015221Y011153D01*
X015177Y011171D01*
X015133Y011191D01*
X015129Y011191D01*
X015125Y011193D01*
X015077Y011193D01*
X015030Y011194D01*
X015026Y011193D01*
X013781Y011193D01*
X012461Y012512D01*
X012461Y012698D01*
X012338Y012821D01*
X011808Y012821D01*
X011685Y012698D01*
X011685Y012168D01*
X011732Y012121D01*
X011708Y012121D01*
X011585Y011998D01*
X011585Y011468D01*
X011708Y011345D01*
X012132Y011345D01*
X012085Y011298D01*
X012085Y010768D01*
X012208Y010645D01*
X012213Y010645D01*
X012213Y010181D01*
X012253Y010085D01*
X012453Y009885D01*
X012526Y009812D01*
X012622Y009773D01*
X013485Y009773D01*
X013485Y009612D01*
X012366Y008493D01*
X010611Y008493D01*
X010611Y008498D01*
X010488Y008621D01*
X009958Y008621D01*
X009835Y008495D02*
X007615Y008495D01*
X007713Y008397D02*
X009835Y008397D01*
X009835Y008298D02*
X007812Y008298D01*
X007910Y008200D02*
X009835Y008200D01*
X009835Y008101D02*
X008009Y008101D01*
X008107Y008003D02*
X009835Y008003D01*
X009899Y007904D02*
X008206Y007904D01*
X008304Y007806D02*
X012079Y007806D01*
X012177Y007904D02*
X010548Y007904D01*
X010501Y007609D02*
X011882Y007609D01*
X011980Y007707D02*
X008403Y007707D01*
X008501Y007609D02*
X009946Y007609D01*
X009848Y007510D02*
X008600Y007510D01*
X008698Y007412D02*
X009835Y007412D01*
X009835Y007313D02*
X008797Y007313D01*
X008895Y007215D02*
X009835Y007215D01*
X009835Y007116D02*
X008994Y007116D01*
X009092Y007018D02*
X009835Y007018D01*
X009884Y006919D02*
X009191Y006919D01*
X009110Y006633D02*
X006859Y008883D01*
X007512Y008889D02*
X012762Y008889D01*
X012664Y008791D02*
X007512Y008791D01*
X007487Y008692D02*
X012565Y008692D01*
X012467Y008594D02*
X010516Y008594D01*
X010611Y008495D02*
X012368Y008495D01*
X012473Y008233D02*
X013873Y009633D01*
X013485Y009677D02*
X009000Y009677D01*
X009098Y009776D02*
X012614Y009776D01*
X012464Y009874D02*
X009197Y009874D01*
X009241Y009973D02*
X012366Y009973D01*
X012267Y010071D02*
X009243Y010071D01*
X009243Y010170D02*
X012218Y010170D01*
X012213Y010268D02*
X009243Y010268D01*
X009243Y010367D02*
X012213Y010367D01*
X012213Y010465D02*
X009243Y010465D01*
X009243Y010564D02*
X012213Y010564D01*
X012191Y010662D02*
X009756Y010662D01*
X009855Y010761D02*
X012092Y010761D01*
X012085Y010859D02*
X009861Y010859D01*
X009861Y010958D02*
X012085Y010958D01*
X012085Y011056D02*
X009861Y011056D01*
X009861Y011155D02*
X012085Y011155D01*
X012085Y011253D02*
X009861Y011253D01*
X009808Y011352D02*
X011701Y011352D01*
X011603Y011450D02*
X009743Y011450D01*
X009743Y011549D02*
X011585Y011549D01*
X011585Y011647D02*
X009743Y011647D01*
X009840Y011746D02*
X011585Y011746D01*
X011585Y011844D02*
X009861Y011844D01*
X009861Y011943D02*
X011585Y011943D01*
X011629Y012041D02*
X009861Y012041D01*
X009861Y012140D02*
X011713Y012140D01*
X011685Y012238D02*
X009861Y012238D01*
X009823Y012337D02*
X011685Y012337D01*
X011685Y012435D02*
X008885Y012435D01*
X008885Y012337D02*
X009124Y012337D01*
X009085Y012238D02*
X008885Y012238D01*
X008885Y012140D02*
X009085Y012140D01*
X009085Y012041D02*
X008885Y012041D01*
X008885Y011943D02*
X009085Y011943D01*
X009085Y011844D02*
X008944Y011844D01*
X009042Y011746D02*
X009107Y011746D01*
X009141Y011647D02*
X009203Y011647D01*
X008345Y011744D02*
X007479Y012610D01*
X007512Y012690D01*
X007512Y012950D01*
X007413Y013190D01*
X007229Y013374D01*
X006989Y013473D01*
X006905Y013473D01*
X006905Y013932D01*
X007072Y013932D01*
X007195Y014055D01*
X007195Y014112D01*
X007286Y014020D01*
X007500Y013932D01*
X007730Y013932D01*
X007943Y014020D01*
X008107Y014183D01*
X008115Y014203D01*
X008123Y014183D01*
X008286Y014020D01*
X008345Y013996D01*
X008345Y011744D01*
X008344Y011746D02*
X008345Y011746D01*
X008345Y011844D02*
X008245Y011844D01*
X008147Y011943D02*
X008345Y011943D01*
X008345Y012041D02*
X008048Y012041D01*
X007950Y012140D02*
X008345Y012140D01*
X008345Y012238D02*
X007851Y012238D01*
X007753Y012337D02*
X008345Y012337D01*
X008345Y012435D02*
X007654Y012435D01*
X007556Y012534D02*
X008345Y012534D01*
X008345Y012632D02*
X007488Y012632D01*
X007512Y012731D02*
X008345Y012731D01*
X008345Y012829D02*
X007512Y012829D01*
X007512Y012928D02*
X008345Y012928D01*
X008345Y013026D02*
X007481Y013026D01*
X007440Y013125D02*
X008345Y013125D01*
X008345Y013223D02*
X007379Y013223D01*
X007281Y013322D02*
X008345Y013322D01*
X008345Y013420D02*
X007117Y013420D01*
X006905Y013519D02*
X008345Y013519D01*
X008345Y013617D02*
X006905Y013617D01*
X006905Y013716D02*
X008345Y013716D01*
X008345Y013814D02*
X006905Y013814D01*
X006905Y013913D02*
X008345Y013913D01*
X008308Y014011D02*
X007922Y014011D01*
X008033Y014110D02*
X008197Y014110D01*
X008885Y013913D02*
X010585Y013913D01*
X010585Y014011D02*
X009757Y014011D01*
X009737Y014005D02*
X009815Y014030D01*
X009887Y014067D01*
X009954Y014115D01*
X010012Y014173D01*
X010060Y014239D01*
X010097Y014312D01*
X010122Y014390D01*
X010134Y014462D01*
X009665Y014462D01*
X009665Y013993D01*
X009737Y014005D01*
X009665Y014011D02*
X009565Y014011D01*
X009473Y014011D02*
X008922Y014011D01*
X009033Y014110D02*
X009284Y014110D01*
X009193Y014208D02*
X009117Y014208D01*
X009565Y014208D02*
X009665Y014208D01*
X009665Y014110D02*
X009565Y014110D01*
X009565Y014307D02*
X009665Y014307D01*
X009665Y014405D02*
X009565Y014405D01*
X009665Y014504D02*
X010153Y014504D01*
X010125Y014405D02*
X010243Y014405D01*
X010332Y014307D02*
X010094Y014307D01*
X010037Y014208D02*
X010422Y014208D01*
X010511Y014110D02*
X009946Y014110D01*
X010585Y013814D02*
X008885Y013814D01*
X008885Y013716D02*
X010637Y013716D01*
X011310Y013716D02*
X014480Y013716D01*
X014579Y013617D02*
X008885Y013617D01*
X008885Y013519D02*
X014677Y013519D01*
X014776Y013420D02*
X008885Y013420D01*
X008885Y013322D02*
X014874Y013322D01*
X014973Y013223D02*
X008885Y013223D01*
X008885Y013125D02*
X015099Y013125D01*
X015505Y012632D02*
X012461Y012632D01*
X012461Y012534D02*
X015407Y012534D01*
X015308Y012435D02*
X012539Y012435D01*
X012637Y012337D02*
X015210Y012337D01*
X015111Y012238D02*
X012736Y012238D01*
X012834Y012140D02*
X015013Y012140D01*
X015361Y011746D02*
X016682Y011746D01*
X016682Y011844D02*
X015453Y011844D01*
X015551Y011943D02*
X016682Y011943D01*
X016682Y012041D02*
X015650Y012041D01*
X015748Y012140D02*
X016682Y012140D01*
X016682Y012238D02*
X015847Y012238D01*
X015945Y012337D02*
X016682Y012337D01*
X016694Y012435D02*
X016044Y012435D01*
X016142Y012534D02*
X016734Y012534D01*
X016798Y012632D02*
X016241Y012632D01*
X016339Y012731D02*
X016896Y012731D01*
X017385Y012773D02*
X017785Y012773D01*
X017785Y012368D01*
X017908Y012245D01*
X017913Y012245D01*
X017913Y010140D01*
X017753Y009980D01*
X017713Y009884D01*
X017713Y008226D01*
X017685Y008198D01*
X017685Y008114D01*
X017131Y008653D01*
X017288Y008653D01*
X017474Y008729D01*
X017616Y008872D01*
X017693Y009057D01*
X017693Y009849D01*
X017616Y010035D01*
X017474Y010177D01*
X017458Y010183D01*
X017458Y011282D01*
X017474Y011289D01*
X017616Y011431D01*
X017693Y011616D01*
X017693Y012408D01*
X017616Y012594D01*
X017474Y012736D01*
X017385Y012773D01*
X017479Y012731D02*
X017785Y012731D01*
X017785Y012632D02*
X017577Y012632D01*
X017641Y012534D02*
X017785Y012534D01*
X017785Y012435D02*
X017682Y012435D01*
X017693Y012337D02*
X017816Y012337D01*
X017913Y012238D02*
X017693Y012238D01*
X017693Y012140D02*
X017913Y012140D01*
X017913Y012041D02*
X017693Y012041D01*
X017693Y011943D02*
X017913Y011943D01*
X017913Y011844D02*
X017693Y011844D01*
X017693Y011746D02*
X017913Y011746D01*
X017913Y011647D02*
X017693Y011647D01*
X017665Y011549D02*
X017913Y011549D01*
X017913Y011450D02*
X017624Y011450D01*
X017537Y011352D02*
X017913Y011352D01*
X017913Y011253D02*
X017458Y011253D01*
X017458Y011155D02*
X017913Y011155D01*
X017913Y011056D02*
X017458Y011056D01*
X017458Y010958D02*
X017913Y010958D01*
X017913Y010859D02*
X017458Y010859D01*
X017458Y010761D02*
X017913Y010761D01*
X017913Y010662D02*
X017458Y010662D01*
X017458Y010564D02*
X017913Y010564D01*
X017913Y010465D02*
X017458Y010465D01*
X017458Y010367D02*
X017913Y010367D01*
X017913Y010268D02*
X017458Y010268D01*
X017481Y010170D02*
X017913Y010170D01*
X017844Y010071D02*
X017579Y010071D01*
X017642Y009973D02*
X017750Y009973D01*
X017713Y009874D02*
X017682Y009874D01*
X017693Y009776D02*
X017713Y009776D01*
X017713Y009677D02*
X017693Y009677D01*
X017693Y009579D02*
X017713Y009579D01*
X017713Y009480D02*
X017693Y009480D01*
X017693Y009382D02*
X017713Y009382D01*
X017713Y009283D02*
X017693Y009283D01*
X017693Y009185D02*
X017713Y009185D01*
X017713Y009086D02*
X017693Y009086D01*
X017713Y008988D02*
X017664Y008988D01*
X017623Y008889D02*
X017713Y008889D01*
X017713Y008791D02*
X017535Y008791D01*
X017384Y008692D02*
X017713Y008692D01*
X017713Y008594D02*
X017192Y008594D01*
X017293Y008495D02*
X017713Y008495D01*
X017713Y008397D02*
X017394Y008397D01*
X017496Y008298D02*
X017713Y008298D01*
X017687Y008200D02*
X017597Y008200D01*
X017973Y008033D02*
X017973Y009833D01*
X018173Y010033D01*
X018173Y012633D01*
X018514Y012320D02*
X018514Y012061D01*
X018911Y012061D01*
X018911Y011964D01*
X019008Y011964D01*
X019008Y011274D01*
X019063Y011283D01*
X019130Y011304D01*
X019193Y011336D01*
X019249Y011377D01*
X019299Y011427D01*
X019331Y011472D01*
X019353Y011419D01*
X019403Y011369D01*
X019403Y011084D01*
X019526Y010961D01*
X020014Y010961D01*
X020014Y009544D01*
X019296Y008826D01*
X019257Y008731D01*
X019257Y007789D01*
X019183Y007789D01*
X018970Y007700D01*
X018807Y007537D01*
X018799Y007517D01*
X018790Y007537D01*
X018683Y007645D01*
X018888Y007645D01*
X019011Y007768D01*
X019011Y008298D01*
X019257Y008298D01*
X019257Y008200D02*
X019011Y008200D01*
X019011Y008298D02*
X018888Y008421D01*
X018883Y008421D01*
X018883Y008634D01*
X018845Y008727D01*
X018855Y008724D01*
X018911Y008715D01*
X018911Y009405D01*
X018514Y009405D01*
X018514Y009221D01*
X018233Y009221D01*
X018233Y009725D01*
X018321Y009812D01*
X018394Y009885D01*
X018433Y009981D01*
X018433Y012245D01*
X018438Y012245D01*
X018514Y012320D01*
X018514Y012238D02*
X018433Y012238D01*
X018433Y012140D02*
X018514Y012140D01*
X018433Y012041D02*
X018911Y012041D01*
X018911Y011964D02*
X018514Y011964D01*
X018514Y011682D01*
X018525Y011613D01*
X018547Y011546D01*
X018578Y011484D01*
X018620Y011427D01*
X018669Y011377D01*
X018726Y011336D01*
X018788Y011304D01*
X018855Y011283D01*
X018911Y011274D01*
X018911Y011964D01*
X018911Y011943D02*
X019008Y011943D01*
X019008Y011844D02*
X018911Y011844D01*
X018911Y011746D02*
X019008Y011746D01*
X019008Y011647D02*
X018911Y011647D01*
X018911Y011549D02*
X019008Y011549D01*
X019008Y011450D02*
X018911Y011450D01*
X018911Y011352D02*
X019008Y011352D01*
X019214Y011352D02*
X019403Y011352D01*
X019403Y011253D02*
X018433Y011253D01*
X018433Y011155D02*
X019403Y011155D01*
X019431Y011056D02*
X018433Y011056D01*
X018433Y010958D02*
X020014Y010958D01*
X020014Y010859D02*
X018433Y010859D01*
X018433Y010761D02*
X020014Y010761D01*
X020014Y010662D02*
X018433Y010662D01*
X018433Y010564D02*
X020014Y010564D01*
X020014Y010465D02*
X018433Y010465D01*
X018433Y010367D02*
X020014Y010367D01*
X020014Y010268D02*
X018433Y010268D01*
X018433Y010170D02*
X018815Y010170D01*
X018788Y010161D02*
X018726Y010129D01*
X018669Y010088D01*
X018620Y010038D01*
X018578Y009982D01*
X018547Y009919D01*
X018525Y009853D01*
X018514Y009783D01*
X018514Y009502D01*
X018911Y009502D01*
X018911Y010192D01*
X018855Y010183D01*
X018788Y010161D01*
X018911Y010170D02*
X019008Y010170D01*
X019008Y010192D02*
X019008Y009502D01*
X018911Y009502D01*
X018911Y009405D01*
X019008Y009405D01*
X019008Y009502D01*
X019404Y009502D01*
X019404Y009783D01*
X019394Y009853D01*
X019372Y009919D01*
X019340Y009982D01*
X019299Y010038D01*
X019249Y010088D01*
X019193Y010129D01*
X019130Y010161D01*
X019063Y010183D01*
X019008Y010192D01*
X019104Y010170D02*
X020014Y010170D01*
X020014Y010071D02*
X019266Y010071D01*
X019345Y009973D02*
X020014Y009973D01*
X020014Y009874D02*
X019387Y009874D01*
X019404Y009776D02*
X020014Y009776D01*
X020014Y009677D02*
X019404Y009677D01*
X019404Y009579D02*
X020014Y009579D01*
X019950Y009480D02*
X019008Y009480D01*
X019008Y009405D02*
X019404Y009405D01*
X019404Y009123D01*
X019394Y009054D01*
X019372Y008987D01*
X019340Y008924D01*
X019299Y008868D01*
X019249Y008818D01*
X019193Y008777D01*
X019130Y008745D01*
X019063Y008724D01*
X019008Y008715D01*
X019008Y009405D01*
X019008Y009382D02*
X018911Y009382D01*
X018911Y009480D02*
X018233Y009480D01*
X018233Y009382D02*
X018514Y009382D01*
X018514Y009283D02*
X018233Y009283D01*
X018233Y009579D02*
X018514Y009579D01*
X018514Y009677D02*
X018233Y009677D01*
X018284Y009776D02*
X018514Y009776D01*
X018532Y009874D02*
X018383Y009874D01*
X018430Y009973D02*
X018574Y009973D01*
X018652Y010071D02*
X018433Y010071D01*
X018911Y010071D02*
X019008Y010071D01*
X019008Y009973D02*
X018911Y009973D01*
X018911Y009874D02*
X019008Y009874D01*
X019008Y009776D02*
X018911Y009776D01*
X018911Y009677D02*
X019008Y009677D01*
X019008Y009579D02*
X018911Y009579D01*
X018911Y009283D02*
X019008Y009283D01*
X019008Y009185D02*
X018911Y009185D01*
X018911Y009086D02*
X019008Y009086D01*
X019008Y008988D02*
X018911Y008988D01*
X018911Y008889D02*
X019008Y008889D01*
X019008Y008791D02*
X018911Y008791D01*
X018859Y008692D02*
X019257Y008692D01*
X019257Y008594D02*
X018883Y008594D01*
X018883Y008495D02*
X019257Y008495D01*
X019257Y008397D02*
X018913Y008397D01*
X018623Y008583D02*
X018623Y008033D01*
X018073Y007933D02*
X017973Y008033D01*
X017299Y007609D02*
X017299Y007209D01*
X017299Y007609D02*
X016273Y008634D01*
X016273Y009333D01*
X014973Y010633D01*
X013473Y010633D01*
X012373Y011733D01*
X011973Y011733D01*
X012473Y011033D02*
X012473Y010233D01*
X012673Y010033D01*
X014773Y010033D01*
X015700Y009106D01*
X015700Y007630D01*
X015299Y007228D01*
X015299Y007209D01*
X014878Y007609D02*
X012812Y007609D01*
X012899Y007510D02*
X014796Y007510D01*
X014755Y007412D02*
X012911Y007412D01*
X012911Y007313D02*
X014719Y007313D01*
X014719Y007215D02*
X012911Y007215D01*
X012911Y007116D02*
X014719Y007116D01*
X014750Y007018D02*
X012911Y007018D01*
X012863Y006919D02*
X014791Y006919D01*
X014866Y006821D02*
X012429Y006821D01*
X012331Y006722D02*
X014965Y006722D01*
X015632Y006722D02*
X015965Y006722D01*
X015866Y006821D02*
X015731Y006821D01*
X016299Y007209D02*
X016299Y008109D01*
X015973Y008434D01*
X015973Y009233D01*
X014873Y010333D01*
X013073Y010333D01*
X012873Y010533D01*
X013673Y010933D02*
X015073Y010933D01*
X016573Y009334D01*
X016573Y008833D01*
X018237Y007214D01*
X018237Y007209D01*
X018299Y007209D01*
X018719Y007609D02*
X018878Y007609D01*
X018951Y007707D02*
X018986Y007707D01*
X019011Y007806D02*
X019257Y007806D01*
X019257Y007904D02*
X019011Y007904D01*
X019011Y008003D02*
X019257Y008003D01*
X019257Y008101D02*
X019011Y008101D01*
X018623Y008583D02*
X018373Y008833D01*
X019211Y008791D02*
X019281Y008791D01*
X019314Y008889D02*
X019359Y008889D01*
X019372Y008988D02*
X019458Y008988D01*
X019399Y009086D02*
X019556Y009086D01*
X019655Y009185D02*
X019404Y009185D01*
X019404Y009283D02*
X019753Y009283D01*
X019852Y009382D02*
X019404Y009382D01*
X020152Y008946D02*
X020286Y009081D01*
X020382Y009041D01*
X020469Y009041D01*
X020563Y008946D01*
X020354Y008946D01*
X020354Y008346D01*
X020254Y008346D01*
X020254Y008946D01*
X020152Y008946D01*
X020193Y008988D02*
X020522Y008988D01*
X020354Y008889D02*
X020254Y008889D01*
X020254Y008791D02*
X020354Y008791D01*
X020354Y008692D02*
X020254Y008692D01*
X020254Y008594D02*
X020354Y008594D01*
X020354Y008495D02*
X020254Y008495D01*
X020254Y008397D02*
X020354Y008397D01*
X020354Y008298D02*
X021365Y008298D01*
X021286Y008269D02*
X021286Y008269D01*
X021203Y008200D02*
X020954Y008200D01*
X020954Y008101D02*
X021086Y008101D01*
X021021Y008047D02*
X021021Y008047D01*
X021021Y008047D01*
X020996Y008003D02*
X020930Y008003D01*
X020939Y007904D02*
X020831Y007904D01*
X020882Y007806D02*
X020733Y007806D01*
X020849Y007748D02*
X020849Y007748D01*
X020841Y007707D02*
X020634Y007707D01*
X020633Y007609D02*
X020824Y007609D01*
X020807Y007510D02*
X020722Y007510D01*
X020779Y007412D02*
X020789Y007412D01*
X020788Y007407D02*
X020788Y007407D01*
X020822Y007215D02*
X020349Y007215D01*
X020349Y007313D02*
X020249Y007313D01*
X020249Y007412D02*
X020349Y007412D01*
X020349Y007510D02*
X020249Y007510D01*
X020249Y007609D02*
X020349Y007609D01*
X020349Y007707D02*
X020254Y007707D01*
X020254Y007806D02*
X020354Y007806D01*
X020354Y007904D02*
X020254Y007904D01*
X020254Y008003D02*
X020354Y008003D01*
X020354Y008101D02*
X020254Y008101D01*
X020254Y008200D02*
X020354Y008200D01*
X020954Y008397D02*
X022925Y008397D01*
X022923Y008298D02*
X022202Y008298D01*
X022281Y008269D02*
X022281Y008269D01*
X022364Y008200D02*
X022923Y008200D01*
X022948Y008101D02*
X022481Y008101D01*
X022572Y008003D02*
X022948Y008003D01*
X022948Y007904D02*
X022628Y007904D01*
X022685Y007806D02*
X022948Y007806D01*
X022948Y007707D02*
X022726Y007707D01*
X022719Y007748D02*
X022719Y007748D01*
X022743Y007609D02*
X022948Y007609D01*
X022948Y007510D02*
X022761Y007510D01*
X022778Y007412D02*
X022948Y007412D01*
X022942Y007313D02*
X022762Y007313D01*
X022745Y007215D02*
X022927Y007215D01*
X022900Y007116D02*
X022727Y007116D01*
X022719Y007067D02*
X022719Y007067D01*
X022690Y007018D02*
X022874Y007018D01*
X022834Y006919D02*
X022633Y006919D01*
X022576Y006821D02*
X022777Y006821D01*
X022720Y006722D02*
X022492Y006722D01*
X022546Y006768D02*
X022546Y006768D01*
X022546Y006768D01*
X022631Y006624D02*
X022374Y006624D01*
X022281Y006546D02*
X022281Y006546D01*
X022225Y006525D02*
X022533Y006525D01*
X022392Y006427D02*
X012035Y006427D01*
X012134Y006525D02*
X021342Y006525D01*
X021286Y006546D02*
X021286Y006546D01*
X021193Y006624D02*
X012232Y006624D01*
X011873Y006633D02*
X009110Y006633D01*
X010223Y007233D02*
X011873Y007233D01*
X012473Y007833D01*
X012673Y007833D01*
X014473Y009633D01*
X014861Y009480D02*
X014958Y009480D01*
X014861Y009382D02*
X015057Y009382D01*
X015155Y009283D02*
X014777Y009283D01*
X014393Y009185D02*
X015254Y009185D01*
X015352Y009086D02*
X014295Y009086D01*
X014196Y008988D02*
X015440Y008988D01*
X015440Y008889D02*
X014098Y008889D01*
X013999Y008791D02*
X015440Y008791D01*
X015440Y008692D02*
X013901Y008692D01*
X013802Y008594D02*
X015440Y008594D01*
X015440Y008495D02*
X013704Y008495D01*
X013605Y008397D02*
X015440Y008397D01*
X015440Y008298D02*
X013507Y008298D01*
X013408Y008200D02*
X015440Y008200D01*
X015440Y008101D02*
X013310Y008101D01*
X013211Y008003D02*
X015440Y008003D01*
X015440Y007904D02*
X013113Y007904D01*
X013014Y007806D02*
X015440Y007806D01*
X014986Y007707D02*
X012916Y007707D01*
X012523Y007233D02*
X012473Y007233D01*
X011873Y006633D01*
X011783Y007510D02*
X010599Y007510D01*
X010223Y008233D02*
X012473Y008233D01*
X012861Y008988D02*
X008582Y008988D01*
X008627Y009086D02*
X012959Y009086D01*
X013058Y009185D02*
X008627Y009185D01*
X008627Y009283D02*
X013156Y009283D01*
X013255Y009382D02*
X008704Y009382D01*
X008803Y009480D02*
X013353Y009480D01*
X013452Y009579D02*
X008901Y009579D01*
X007851Y009382D02*
X007768Y009382D01*
X007851Y009283D02*
X007669Y009283D01*
X007571Y009185D02*
X007851Y009185D01*
X007851Y009086D02*
X007482Y009086D01*
X007512Y008988D02*
X007896Y008988D01*
X007512Y009946D02*
X007512Y009997D01*
X007413Y010237D01*
X007229Y010421D01*
X007107Y010471D01*
X007112Y010473D01*
X007237Y010599D01*
X007305Y010763D01*
X007305Y010940D01*
X007237Y011104D01*
X007112Y011230D01*
X007107Y011232D01*
X007229Y011282D01*
X007413Y011466D01*
X007512Y011706D01*
X007512Y011757D01*
X007904Y011365D01*
X007805Y011266D01*
X007715Y011048D01*
X007715Y010811D01*
X007805Y010593D01*
X007972Y010426D01*
X007986Y010420D01*
X007512Y009946D01*
X007512Y009973D02*
X007539Y009973D01*
X007481Y010071D02*
X007637Y010071D01*
X007736Y010170D02*
X007441Y010170D01*
X007382Y010268D02*
X007834Y010268D01*
X007933Y010367D02*
X007283Y010367D01*
X007122Y010465D02*
X007933Y010465D01*
X007835Y010564D02*
X007202Y010564D01*
X007264Y010662D02*
X007777Y010662D01*
X007736Y010761D02*
X007305Y010761D01*
X007305Y010859D02*
X007715Y010859D01*
X007715Y010958D02*
X007298Y010958D01*
X007257Y011056D02*
X007718Y011056D01*
X007759Y011155D02*
X007187Y011155D01*
X007159Y011253D02*
X007800Y011253D01*
X007891Y011352D02*
X007298Y011352D01*
X007397Y011450D02*
X007819Y011450D01*
X007720Y011549D02*
X007447Y011549D01*
X007488Y011647D02*
X007622Y011647D01*
X007523Y011746D02*
X007512Y011746D01*
X008885Y012534D02*
X011685Y012534D01*
X011685Y012632D02*
X008885Y012632D01*
X008885Y012731D02*
X011718Y012731D01*
X012073Y012433D02*
X012173Y012433D01*
X013673Y010933D01*
X013721Y011253D02*
X015758Y011253D01*
X015776Y011277D02*
X015726Y011209D01*
X015688Y011134D01*
X015662Y011055D01*
X015650Y010979D01*
X016133Y010979D01*
X016133Y010879D01*
X016233Y010879D01*
X016233Y010397D01*
X016308Y010409D01*
X016388Y010435D01*
X016463Y010473D01*
X016531Y010522D01*
X016590Y010582D01*
X016639Y010650D01*
X016678Y010725D01*
X016704Y010804D01*
X016715Y010879D01*
X016233Y010879D01*
X016233Y010979D01*
X016715Y010979D01*
X016704Y011055D01*
X016678Y011134D01*
X016639Y011209D01*
X016590Y011277D01*
X016531Y011337D01*
X016463Y011386D01*
X016388Y011424D01*
X016308Y011450D01*
X016751Y011450D01*
X016710Y011549D02*
X015361Y011549D01*
X015361Y011647D02*
X016682Y011647D01*
X016838Y011352D02*
X016510Y011352D01*
X016608Y011253D02*
X016918Y011253D01*
X016918Y011155D02*
X016667Y011155D01*
X016703Y011056D02*
X016918Y011056D01*
X016918Y010958D02*
X016233Y010958D01*
X016233Y010980D02*
X016133Y010980D01*
X016133Y011462D01*
X016058Y011450D01*
X015978Y011424D01*
X015903Y011386D01*
X015835Y011337D01*
X015776Y011277D01*
X015856Y011352D02*
X015246Y011352D01*
X015344Y011450D02*
X016058Y011450D01*
X016133Y011450D02*
X016233Y011450D01*
X016233Y011462D02*
X016233Y010980D01*
X016233Y011056D02*
X016133Y011056D01*
X016133Y010958D02*
X015406Y010958D01*
X015314Y011056D02*
X015663Y011056D01*
X015698Y011155D02*
X015217Y011155D01*
X014701Y011352D02*
X013622Y011352D01*
X013524Y011450D02*
X014603Y011450D01*
X014585Y011549D02*
X013425Y011549D01*
X013327Y011647D02*
X014585Y011647D01*
X014585Y011746D02*
X013228Y011746D01*
X013130Y011844D02*
X014585Y011844D01*
X014585Y011943D02*
X013031Y011943D01*
X012933Y012041D02*
X014629Y012041D01*
X014973Y011733D02*
X016273Y013033D01*
X018973Y013033D01*
X019573Y012433D01*
X019573Y011567D01*
X019791Y011349D01*
X019340Y011450D02*
X019316Y011450D01*
X018704Y011352D02*
X018433Y011352D01*
X018433Y011450D02*
X018603Y011450D01*
X018546Y011549D02*
X018433Y011549D01*
X018433Y011647D02*
X018519Y011647D01*
X018514Y011746D02*
X018433Y011746D01*
X018433Y011844D02*
X018514Y011844D01*
X018514Y011943D02*
X018433Y011943D01*
X016918Y010859D02*
X016712Y010859D01*
X016689Y010761D02*
X016918Y010761D01*
X016918Y010662D02*
X016646Y010662D01*
X016572Y010564D02*
X016918Y010564D01*
X016918Y010465D02*
X016447Y010465D01*
X016233Y010465D02*
X016133Y010465D01*
X016133Y010397D02*
X016133Y010879D01*
X015650Y010879D01*
X015662Y010804D01*
X015688Y010725D01*
X015726Y010650D01*
X015776Y010582D01*
X015835Y010522D01*
X015903Y010473D01*
X015978Y010435D01*
X016058Y010409D01*
X016133Y010397D01*
X016053Y010268D02*
X016918Y010268D01*
X016918Y010367D02*
X015961Y010367D01*
X015918Y010465D02*
X015869Y010465D01*
X015794Y010564D02*
X015776Y010564D01*
X015720Y010662D02*
X015684Y010662D01*
X015676Y010761D02*
X015591Y010761D01*
X015653Y010859D02*
X015499Y010859D01*
X016133Y010859D02*
X016233Y010859D01*
X016233Y010761D02*
X016133Y010761D01*
X016133Y010662D02*
X016233Y010662D01*
X016233Y010564D02*
X016133Y010564D01*
X016146Y010170D02*
X016894Y010170D01*
X016796Y010071D02*
X016238Y010071D01*
X016331Y009973D02*
X016734Y009973D01*
X016693Y009874D02*
X016423Y009874D01*
X016516Y009776D02*
X016682Y009776D01*
X016682Y009677D02*
X016608Y009677D01*
X016233Y011155D02*
X016133Y011155D01*
X016133Y011253D02*
X016233Y011253D01*
X016233Y011352D02*
X016133Y011352D01*
X016233Y011462D02*
X016308Y011450D01*
X015604Y012731D02*
X012429Y012731D01*
X011254Y014405D02*
X015659Y014405D01*
X015566Y014307D02*
X014670Y014307D01*
X014808Y014208D02*
X015525Y014208D01*
X015502Y014110D02*
X014906Y014110D01*
X015005Y014011D02*
X015502Y014011D01*
X015526Y013913D02*
X015103Y013913D01*
X015202Y013814D02*
X015567Y013814D01*
X015661Y013716D02*
X015300Y013716D01*
X015899Y013026D02*
X008885Y013026D01*
X008885Y012928D02*
X015801Y012928D01*
X015702Y012829D02*
X008885Y012829D01*
X007308Y014011D02*
X007151Y014011D01*
X007195Y014110D02*
X007197Y014110D01*
X006325Y013913D02*
X005754Y013913D01*
X005783Y013963D02*
X005783Y013963D01*
X005843Y014304D01*
X005783Y014644D01*
X005610Y014943D01*
X005610Y014943D01*
X005346Y015165D01*
X005346Y015165D01*
X005021Y015284D01*
X004675Y015284D01*
X004351Y015165D01*
X004351Y015165D01*
X004086Y014943D01*
X003913Y014644D01*
X003853Y014304D01*
X003913Y013963D01*
X004086Y013664D01*
X004086Y013664D01*
X004351Y013442D01*
X004675Y013324D01*
X004798Y013324D01*
X005021Y013324D01*
X005346Y013442D01*
X005610Y013664D01*
X005610Y013664D01*
X005783Y013963D01*
X005792Y014011D02*
X006079Y014011D01*
X006035Y014110D02*
X005809Y014110D01*
X005826Y014208D02*
X006035Y014208D01*
X006035Y014307D02*
X005843Y014307D01*
X005843Y014304D02*
X005843Y014304D01*
X005825Y014405D02*
X006035Y014405D01*
X006035Y014504D02*
X005808Y014504D01*
X005791Y014602D02*
X006035Y014602D01*
X006035Y014701D02*
X005750Y014701D01*
X005783Y014644D02*
X005783Y014644D01*
X005694Y014799D02*
X006035Y014799D01*
X006035Y014898D02*
X005637Y014898D01*
X005547Y014996D02*
X006062Y014996D01*
X005430Y015095D02*
X006827Y015095D01*
X006925Y015193D02*
X005269Y015193D01*
X004427Y015193D02*
X004107Y015193D01*
X004008Y015095D02*
X004266Y015095D01*
X004149Y014996D02*
X003916Y014996D01*
X003859Y014898D02*
X004060Y014898D01*
X004086Y014943D02*
X004086Y014943D01*
X004003Y014799D02*
X003802Y014799D01*
X003760Y014701D02*
X003946Y014701D01*
X003913Y014644D02*
X003913Y014644D01*
X003906Y014602D02*
X003733Y014602D01*
X003709Y014504D02*
X003888Y014504D01*
X003871Y014405D02*
X003709Y014405D01*
X003709Y014307D02*
X003854Y014307D01*
X003870Y014208D02*
X003709Y014208D01*
X003683Y014110D02*
X003887Y014110D01*
X003905Y014011D02*
X003683Y014011D01*
X003683Y013913D02*
X003942Y013913D01*
X003913Y013963D02*
X003913Y013963D01*
X003999Y013814D02*
X003683Y013814D01*
X003683Y013716D02*
X004056Y013716D01*
X004142Y013617D02*
X003683Y013617D01*
X003683Y013519D02*
X004259Y013519D01*
X004351Y013442D02*
X004351Y013442D01*
X004410Y013420D02*
X003683Y013420D01*
X003683Y013322D02*
X006325Y013322D01*
X006325Y013420D02*
X005287Y013420D01*
X005346Y013442D02*
X005346Y013442D01*
X005437Y013519D02*
X006325Y013519D01*
X006325Y013617D02*
X005555Y013617D01*
X005610Y013664D02*
X005610Y013664D01*
X005640Y013716D02*
X006325Y013716D01*
X006325Y013814D02*
X005697Y013814D01*
X005084Y013223D02*
X006325Y013223D01*
X004698Y013223D02*
X004099Y013223D01*
X004233Y013125D02*
X004564Y013125D01*
X004493Y013026D02*
X004304Y013026D01*
X004345Y012928D02*
X004452Y012928D01*
X004444Y012829D02*
X004353Y012829D01*
X004352Y012731D02*
X004445Y012731D01*
X004486Y012632D02*
X004312Y012632D01*
X004251Y012534D02*
X004546Y012534D01*
X004654Y012435D02*
X004143Y012435D01*
X003714Y013223D02*
X003683Y013223D01*
X004252Y015292D02*
X007023Y015292D01*
X007137Y015390D02*
X004445Y015390D01*
X010109Y015390D02*
X015644Y015390D01*
X015560Y015292D02*
X010221Y015292D01*
X010310Y015193D02*
X015519Y015193D01*
X015502Y015095D02*
X010400Y015095D01*
X010489Y014996D02*
X015502Y014996D01*
X015532Y014898D02*
X010579Y014898D01*
X010668Y014799D02*
X015578Y014799D01*
X015676Y014701D02*
X010758Y014701D01*
X010848Y014602D02*
X016117Y014602D01*
X016117Y014504D02*
X016060Y014504D01*
X015844Y014504D02*
X010937Y014504D01*
X005529Y010367D02*
X005232Y010367D01*
X004998Y010268D02*
X005519Y010268D01*
X004549Y010367D02*
X003683Y010367D01*
X003683Y010465D02*
X004439Y010465D01*
X004372Y010564D02*
X003683Y010564D01*
X003683Y010662D02*
X004329Y010662D01*
X004305Y010761D02*
X003683Y010761D01*
X004841Y010958D02*
X004941Y010958D01*
X004941Y011056D02*
X004841Y011056D01*
X004691Y009283D02*
X004107Y009283D01*
X004236Y009185D02*
X004561Y009185D01*
X004492Y009086D02*
X004305Y009086D01*
X004346Y008988D02*
X004451Y008988D01*
X004444Y008889D02*
X004353Y008889D01*
X004351Y008791D02*
X004446Y008791D01*
X004487Y008692D02*
X004310Y008692D01*
X004248Y008594D02*
X004549Y008594D01*
X004661Y008495D02*
X004136Y008495D01*
X003706Y009283D02*
X003683Y009283D01*
X004441Y006328D02*
X022215Y006328D01*
X021076Y006722D02*
X020484Y006722D01*
X020349Y006722D02*
X020249Y006722D01*
X020249Y006821D02*
X020349Y006821D01*
X020349Y006919D02*
X020249Y006919D01*
X020249Y007018D02*
X020349Y007018D01*
X020349Y007116D02*
X020249Y007116D01*
X020113Y006722D02*
X019632Y006722D01*
X019731Y006821D02*
X019951Y006821D01*
X019866Y006919D02*
X019806Y006919D01*
X019315Y007209D02*
X019517Y007411D01*
X019517Y008679D01*
X020304Y009467D01*
X021342Y008889D02*
X021705Y008889D01*
X021607Y008988D02*
X021440Y008988D01*
X021243Y008791D02*
X022948Y008791D01*
X022948Y008889D02*
X022257Y008889D01*
X022355Y008988D02*
X022948Y008988D01*
X022948Y009086D02*
X022454Y009086D01*
X022501Y009185D02*
X022948Y009185D01*
X022948Y009283D02*
X022501Y009283D01*
X022501Y009480D02*
X022948Y009480D01*
X022948Y009382D02*
X022031Y009382D01*
X022031Y009283D02*
X021931Y009283D01*
X021931Y009185D02*
X022031Y009185D01*
X022031Y009086D02*
X021931Y009086D01*
X021931Y008988D02*
X022031Y008988D01*
X022031Y008889D02*
X021931Y008889D01*
X022487Y009579D02*
X022948Y009579D01*
X022948Y009677D02*
X022388Y009677D01*
X022290Y009776D02*
X022948Y009776D01*
X022948Y009874D02*
X022327Y009874D01*
X022425Y009973D02*
X022948Y009973D01*
X022948Y010071D02*
X022524Y010071D01*
X022561Y010170D02*
X022948Y010170D01*
X022948Y010268D02*
X022561Y010268D01*
X022561Y010367D02*
X022948Y010367D01*
X022948Y010465D02*
X022561Y010465D01*
X022561Y010564D02*
X022948Y010564D01*
X022948Y010662D02*
X022488Y010662D01*
X022390Y010761D02*
X022948Y010761D01*
X022948Y010859D02*
X022312Y010859D01*
X022410Y010958D02*
X022948Y010958D01*
X022948Y011056D02*
X022509Y011056D01*
X022561Y011155D02*
X022948Y011155D01*
X022948Y011253D02*
X022561Y011253D01*
X022561Y011352D02*
X022948Y011352D01*
X022948Y011450D02*
X022561Y011450D01*
X022561Y011549D02*
X022948Y011549D01*
X022948Y011647D02*
X022503Y011647D01*
X022405Y011746D02*
X022948Y011746D01*
X022948Y011844D02*
X022306Y011844D01*
X022395Y011943D02*
X022948Y011943D01*
X022948Y012041D02*
X022494Y012041D01*
X022561Y012140D02*
X022948Y012140D01*
X022948Y012238D02*
X022561Y012238D01*
X022561Y012337D02*
X022948Y012337D01*
X022948Y012435D02*
X022561Y012435D01*
X022561Y012534D02*
X022948Y012534D01*
X022948Y012632D02*
X022518Y012632D01*
X022420Y012731D02*
X022948Y012731D01*
X022948Y012829D02*
X022321Y012829D01*
X022223Y012928D02*
X022948Y012928D01*
X022948Y013026D02*
X020920Y013026D01*
X021014Y013125D02*
X022948Y013125D01*
X022948Y013223D02*
X021014Y013223D01*
X021014Y013322D02*
X021604Y013322D01*
X021333Y013420D02*
X021014Y013420D01*
X021014Y013519D02*
X021187Y013519D01*
X021070Y013617D02*
X021014Y013617D01*
X020930Y013814D02*
X020909Y013814D01*
X020873Y013913D02*
X020810Y013913D01*
X020836Y014011D02*
X020712Y014011D01*
X020613Y014110D02*
X020819Y014110D01*
X020802Y014208D02*
X020287Y014208D01*
X020287Y014307D02*
X020786Y014307D01*
X020804Y014405D02*
X020287Y014405D01*
X020287Y014504D02*
X020821Y014504D01*
X020839Y014602D02*
X020287Y014602D01*
X020287Y014701D02*
X020880Y014701D01*
X020937Y014799D02*
X020287Y014799D01*
X020287Y014898D02*
X020994Y014898D01*
X021085Y014996D02*
X020287Y014996D01*
X020287Y015095D02*
X021202Y015095D01*
X021368Y015193D02*
X020287Y015193D01*
X020287Y015292D02*
X022379Y015292D01*
X022525Y015193D02*
X022193Y015193D01*
X022358Y015095D02*
X022624Y015095D01*
X022716Y014996D02*
X022476Y014996D01*
X022567Y014898D02*
X022773Y014898D01*
X022830Y014799D02*
X022624Y014799D01*
X022681Y014701D02*
X022872Y014701D01*
X022898Y014602D02*
X022722Y014602D01*
X022740Y014504D02*
X022923Y014504D01*
X022923Y014405D02*
X022757Y014405D01*
X022774Y014307D02*
X022923Y014307D01*
X022923Y014208D02*
X022759Y014208D01*
X022742Y014110D02*
X022948Y014110D01*
X022948Y014011D02*
X022725Y014011D01*
X022688Y013913D02*
X022948Y013913D01*
X022948Y013814D02*
X022631Y013814D01*
X022574Y013716D02*
X022948Y013716D01*
X022948Y013617D02*
X022491Y013617D01*
X022373Y013519D02*
X022929Y013519D01*
X022923Y013420D02*
X022227Y013420D01*
X021957Y013322D02*
X022923Y013322D01*
X021740Y012928D02*
X021223Y012928D01*
X021321Y012829D02*
X021641Y012829D01*
X021543Y012731D02*
X021420Y012731D01*
X022187Y015390D02*
X020263Y015390D01*
X020828Y008692D02*
X022948Y008692D01*
X022948Y008594D02*
X020926Y008594D01*
X020954Y008495D02*
X022948Y008495D01*
X020840Y007116D02*
X020810Y007116D01*
X020849Y007067D02*
X020849Y007067D01*
X020877Y007018D02*
X020783Y007018D01*
X020731Y006919D02*
X020934Y006919D01*
X020991Y006821D02*
X020646Y006821D01*
X021021Y006768D02*
X021021Y006768D01*
X019315Y007209D02*
X019299Y007209D01*
X018866Y006821D02*
X018731Y006821D01*
X018632Y006722D02*
X018965Y006722D01*
X017965Y006722D02*
X017632Y006722D01*
X017731Y006821D02*
X017866Y006821D01*
X016965Y006722D02*
X016632Y006722D01*
X016731Y006821D02*
X016866Y006821D01*
M02*
