G75*
G70*
%OFA0B0*%
%FSLAX24Y24*%
%IPPOS*%
%LPD*%
%AMOC8*
5,1,8,0,0,1.08239X$1,22.5*
%
%ADD10C,0.0000*%
%ADD11C,0.0050*%
%ADD12C,0.0060*%
%ADD13C,0.0051*%
%ADD14C,0.0110*%
%ADD15C,0.0080*%
%ADD16R,0.0079X0.0079*%
%ADD17C,0.0160*%
%ADD18R,0.0230X0.0160*%
D10*
X004848Y006033D02*
X004851Y006033D01*
X021780Y006033D01*
X021784Y006033D01*
X021134Y007407D02*
X021136Y007457D01*
X021142Y007507D01*
X021152Y007557D01*
X021165Y007605D01*
X021182Y007653D01*
X021203Y007699D01*
X021227Y007743D01*
X021255Y007785D01*
X021286Y007825D01*
X021320Y007862D01*
X021357Y007897D01*
X021396Y007928D01*
X021437Y007957D01*
X021481Y007982D01*
X021527Y008004D01*
X021574Y008022D01*
X021622Y008036D01*
X021671Y008047D01*
X021721Y008054D01*
X021771Y008057D01*
X021822Y008056D01*
X021872Y008051D01*
X021922Y008042D01*
X021970Y008030D01*
X022018Y008013D01*
X022064Y007993D01*
X022109Y007970D01*
X022152Y007943D01*
X022192Y007913D01*
X022230Y007880D01*
X022265Y007844D01*
X022298Y007805D01*
X022327Y007764D01*
X022353Y007721D01*
X022376Y007676D01*
X022395Y007629D01*
X022410Y007581D01*
X022422Y007532D01*
X022430Y007482D01*
X022434Y007432D01*
X022434Y007382D01*
X022430Y007332D01*
X022422Y007282D01*
X022410Y007233D01*
X022395Y007185D01*
X022376Y007138D01*
X022353Y007093D01*
X022327Y007050D01*
X022298Y007009D01*
X022265Y006970D01*
X022230Y006934D01*
X022192Y006901D01*
X022152Y006871D01*
X022109Y006844D01*
X022064Y006821D01*
X022018Y006801D01*
X021970Y006784D01*
X021922Y006772D01*
X021872Y006763D01*
X021822Y006758D01*
X021771Y006757D01*
X021721Y006760D01*
X021671Y006767D01*
X021622Y006778D01*
X021574Y006792D01*
X021527Y006810D01*
X021481Y006832D01*
X021437Y006857D01*
X021396Y006886D01*
X021357Y006917D01*
X021320Y006952D01*
X021286Y006989D01*
X021255Y007029D01*
X021227Y007071D01*
X021203Y007115D01*
X021182Y007161D01*
X021165Y007209D01*
X021152Y007257D01*
X021142Y007307D01*
X021136Y007357D01*
X021134Y007407D01*
X021780Y006033D02*
X021852Y006035D01*
X021924Y006041D01*
X021996Y006050D01*
X022067Y006063D01*
X022137Y006080D01*
X022206Y006100D01*
X022274Y006125D01*
X022340Y006152D01*
X022406Y006183D01*
X022469Y006218D01*
X022531Y006255D01*
X022590Y006296D01*
X022647Y006340D01*
X022702Y006387D01*
X022754Y006437D01*
X022804Y006489D01*
X022851Y006544D01*
X022895Y006601D01*
X022936Y006660D01*
X022973Y006722D01*
X023008Y006785D01*
X023039Y006851D01*
X023066Y006917D01*
X023091Y006985D01*
X023111Y007054D01*
X023128Y007124D01*
X023141Y007195D01*
X023150Y007267D01*
X023156Y007339D01*
X023158Y007411D01*
X023158Y014300D01*
X023158Y014307D01*
X021130Y014300D02*
X021132Y014350D01*
X021138Y014400D01*
X021148Y014450D01*
X021161Y014498D01*
X021178Y014546D01*
X021199Y014592D01*
X021223Y014636D01*
X021251Y014678D01*
X021282Y014718D01*
X021316Y014755D01*
X021353Y014790D01*
X021392Y014821D01*
X021433Y014850D01*
X021477Y014875D01*
X021523Y014897D01*
X021570Y014915D01*
X021618Y014929D01*
X021667Y014940D01*
X021717Y014947D01*
X021767Y014950D01*
X021818Y014949D01*
X021868Y014944D01*
X021918Y014935D01*
X021966Y014923D01*
X022014Y014906D01*
X022060Y014886D01*
X022105Y014863D01*
X022148Y014836D01*
X022188Y014806D01*
X022226Y014773D01*
X022261Y014737D01*
X022294Y014698D01*
X022323Y014657D01*
X022349Y014614D01*
X022372Y014569D01*
X022391Y014522D01*
X022406Y014474D01*
X022418Y014425D01*
X022426Y014375D01*
X022430Y014325D01*
X022430Y014275D01*
X022426Y014225D01*
X022418Y014175D01*
X022406Y014126D01*
X022391Y014078D01*
X022372Y014031D01*
X022349Y013986D01*
X022323Y013943D01*
X022294Y013902D01*
X022261Y013863D01*
X022226Y013827D01*
X022188Y013794D01*
X022148Y013764D01*
X022105Y013737D01*
X022060Y013714D01*
X022014Y013694D01*
X021966Y013677D01*
X021918Y013665D01*
X021868Y013656D01*
X021818Y013651D01*
X021767Y013650D01*
X021717Y013653D01*
X021667Y013660D01*
X021618Y013671D01*
X021570Y013685D01*
X021523Y013703D01*
X021477Y013725D01*
X021433Y013750D01*
X021392Y013779D01*
X021353Y013810D01*
X021316Y013845D01*
X021282Y013882D01*
X021251Y013922D01*
X021223Y013964D01*
X021199Y014008D01*
X021178Y014054D01*
X021161Y014102D01*
X021148Y014150D01*
X021138Y014200D01*
X021132Y014250D01*
X021130Y014300D01*
X021780Y015678D02*
X021852Y015676D01*
X021924Y015670D01*
X021996Y015661D01*
X022067Y015648D01*
X022137Y015631D01*
X022206Y015611D01*
X022274Y015586D01*
X022340Y015559D01*
X022406Y015528D01*
X022469Y015493D01*
X022531Y015456D01*
X022590Y015415D01*
X022647Y015371D01*
X022702Y015324D01*
X022754Y015274D01*
X022804Y015222D01*
X022851Y015167D01*
X022895Y015110D01*
X022936Y015051D01*
X022973Y014989D01*
X023008Y014926D01*
X023039Y014860D01*
X023066Y014794D01*
X023091Y014726D01*
X023111Y014657D01*
X023128Y014587D01*
X023141Y014516D01*
X023150Y014444D01*
X023156Y014372D01*
X023158Y014300D01*
X021784Y015678D02*
X021780Y015678D01*
X004851Y015678D01*
X004198Y014304D02*
X004200Y014354D01*
X004206Y014404D01*
X004216Y014454D01*
X004229Y014502D01*
X004246Y014550D01*
X004267Y014596D01*
X004291Y014640D01*
X004319Y014682D01*
X004350Y014722D01*
X004384Y014759D01*
X004421Y014794D01*
X004460Y014825D01*
X004501Y014854D01*
X004545Y014879D01*
X004591Y014901D01*
X004638Y014919D01*
X004686Y014933D01*
X004735Y014944D01*
X004785Y014951D01*
X004835Y014954D01*
X004886Y014953D01*
X004936Y014948D01*
X004986Y014939D01*
X005034Y014927D01*
X005082Y014910D01*
X005128Y014890D01*
X005173Y014867D01*
X005216Y014840D01*
X005256Y014810D01*
X005294Y014777D01*
X005329Y014741D01*
X005362Y014702D01*
X005391Y014661D01*
X005417Y014618D01*
X005440Y014573D01*
X005459Y014526D01*
X005474Y014478D01*
X005486Y014429D01*
X005494Y014379D01*
X005498Y014329D01*
X005498Y014279D01*
X005494Y014229D01*
X005486Y014179D01*
X005474Y014130D01*
X005459Y014082D01*
X005440Y014035D01*
X005417Y013990D01*
X005391Y013947D01*
X005362Y013906D01*
X005329Y013867D01*
X005294Y013831D01*
X005256Y013798D01*
X005216Y013768D01*
X005173Y013741D01*
X005128Y013718D01*
X005082Y013698D01*
X005034Y013681D01*
X004986Y013669D01*
X004936Y013660D01*
X004886Y013655D01*
X004835Y013654D01*
X004785Y013657D01*
X004735Y013664D01*
X004686Y013675D01*
X004638Y013689D01*
X004591Y013707D01*
X004545Y013729D01*
X004501Y013754D01*
X004460Y013783D01*
X004421Y013814D01*
X004384Y013849D01*
X004350Y013886D01*
X004319Y013926D01*
X004291Y013968D01*
X004267Y014012D01*
X004246Y014058D01*
X004229Y014106D01*
X004216Y014154D01*
X004206Y014204D01*
X004200Y014254D01*
X004198Y014304D01*
X003473Y014300D02*
X003475Y014372D01*
X003481Y014444D01*
X003490Y014516D01*
X003503Y014587D01*
X003520Y014657D01*
X003540Y014726D01*
X003565Y014794D01*
X003592Y014860D01*
X003623Y014926D01*
X003658Y014989D01*
X003695Y015051D01*
X003736Y015110D01*
X003780Y015167D01*
X003827Y015222D01*
X003877Y015274D01*
X003929Y015324D01*
X003984Y015371D01*
X004041Y015415D01*
X004100Y015456D01*
X004162Y015493D01*
X004225Y015528D01*
X004291Y015559D01*
X004357Y015586D01*
X004425Y015611D01*
X004494Y015631D01*
X004564Y015648D01*
X004635Y015661D01*
X004707Y015670D01*
X004779Y015676D01*
X004851Y015678D01*
X003473Y014304D02*
X003473Y014300D01*
X003473Y007450D01*
X003473Y007407D01*
X004198Y007407D02*
X004200Y007457D01*
X004206Y007507D01*
X004216Y007557D01*
X004229Y007605D01*
X004246Y007653D01*
X004267Y007699D01*
X004291Y007743D01*
X004319Y007785D01*
X004350Y007825D01*
X004384Y007862D01*
X004421Y007897D01*
X004460Y007928D01*
X004501Y007957D01*
X004545Y007982D01*
X004591Y008004D01*
X004638Y008022D01*
X004686Y008036D01*
X004735Y008047D01*
X004785Y008054D01*
X004835Y008057D01*
X004886Y008056D01*
X004936Y008051D01*
X004986Y008042D01*
X005034Y008030D01*
X005082Y008013D01*
X005128Y007993D01*
X005173Y007970D01*
X005216Y007943D01*
X005256Y007913D01*
X005294Y007880D01*
X005329Y007844D01*
X005362Y007805D01*
X005391Y007764D01*
X005417Y007721D01*
X005440Y007676D01*
X005459Y007629D01*
X005474Y007581D01*
X005486Y007532D01*
X005494Y007482D01*
X005498Y007432D01*
X005498Y007382D01*
X005494Y007332D01*
X005486Y007282D01*
X005474Y007233D01*
X005459Y007185D01*
X005440Y007138D01*
X005417Y007093D01*
X005391Y007050D01*
X005362Y007009D01*
X005329Y006970D01*
X005294Y006934D01*
X005256Y006901D01*
X005216Y006871D01*
X005173Y006844D01*
X005128Y006821D01*
X005082Y006801D01*
X005034Y006784D01*
X004986Y006772D01*
X004936Y006763D01*
X004886Y006758D01*
X004835Y006757D01*
X004785Y006760D01*
X004735Y006767D01*
X004686Y006778D01*
X004638Y006792D01*
X004591Y006810D01*
X004545Y006832D01*
X004501Y006857D01*
X004460Y006886D01*
X004421Y006917D01*
X004384Y006952D01*
X004350Y006989D01*
X004319Y007029D01*
X004291Y007071D01*
X004267Y007115D01*
X004246Y007161D01*
X004229Y007209D01*
X004216Y007257D01*
X004206Y007307D01*
X004200Y007357D01*
X004198Y007407D01*
X003473Y007450D02*
X003474Y007377D01*
X003479Y007303D01*
X003487Y007231D01*
X003500Y007159D01*
X003516Y007087D01*
X003535Y007017D01*
X003559Y006947D01*
X003586Y006879D01*
X003617Y006813D01*
X003651Y006748D01*
X003688Y006685D01*
X003729Y006624D01*
X003772Y006566D01*
X003819Y006509D01*
X003869Y006455D01*
X003921Y006404D01*
X003976Y006356D01*
X004033Y006311D01*
X004093Y006268D01*
X004155Y006229D01*
X004219Y006193D01*
X004284Y006161D01*
X004352Y006132D01*
X004420Y006107D01*
X004490Y006085D01*
X004561Y006067D01*
X004633Y006052D01*
X004705Y006042D01*
X004778Y006035D01*
X004851Y006032D01*
X004655Y008883D02*
X004657Y008913D01*
X004663Y008943D01*
X004672Y008972D01*
X004685Y008999D01*
X004702Y009024D01*
X004721Y009047D01*
X004744Y009068D01*
X004769Y009085D01*
X004795Y009099D01*
X004824Y009109D01*
X004853Y009116D01*
X004883Y009119D01*
X004914Y009118D01*
X004944Y009113D01*
X004973Y009104D01*
X005000Y009092D01*
X005026Y009077D01*
X005050Y009058D01*
X005071Y009036D01*
X005089Y009012D01*
X005104Y008985D01*
X005115Y008957D01*
X005123Y008928D01*
X005127Y008898D01*
X005127Y008868D01*
X005123Y008838D01*
X005115Y008809D01*
X005104Y008781D01*
X005089Y008754D01*
X005071Y008730D01*
X005050Y008708D01*
X005026Y008689D01*
X005000Y008674D01*
X004973Y008662D01*
X004944Y008653D01*
X004914Y008648D01*
X004883Y008647D01*
X004853Y008650D01*
X004824Y008657D01*
X004795Y008667D01*
X004769Y008681D01*
X004744Y008698D01*
X004721Y008719D01*
X004702Y008742D01*
X004685Y008767D01*
X004672Y008794D01*
X004663Y008823D01*
X004657Y008853D01*
X004655Y008883D01*
X003670Y008883D02*
X003672Y008913D01*
X003678Y008943D01*
X003687Y008972D01*
X003700Y008999D01*
X003717Y009024D01*
X003736Y009047D01*
X003759Y009068D01*
X003784Y009085D01*
X003810Y009099D01*
X003839Y009109D01*
X003868Y009116D01*
X003898Y009119D01*
X003929Y009118D01*
X003959Y009113D01*
X003988Y009104D01*
X004015Y009092D01*
X004041Y009077D01*
X004065Y009058D01*
X004086Y009036D01*
X004104Y009012D01*
X004119Y008985D01*
X004130Y008957D01*
X004138Y008928D01*
X004142Y008898D01*
X004142Y008868D01*
X004138Y008838D01*
X004130Y008809D01*
X004119Y008781D01*
X004104Y008754D01*
X004086Y008730D01*
X004065Y008708D01*
X004041Y008689D01*
X004015Y008674D01*
X003988Y008662D01*
X003959Y008653D01*
X003929Y008648D01*
X003898Y008647D01*
X003868Y008650D01*
X003839Y008657D01*
X003810Y008667D01*
X003784Y008681D01*
X003759Y008698D01*
X003736Y008719D01*
X003717Y008742D01*
X003700Y008767D01*
X003687Y008794D01*
X003678Y008823D01*
X003672Y008853D01*
X003670Y008883D01*
X006623Y010852D02*
X006625Y010882D01*
X006631Y010912D01*
X006640Y010941D01*
X006653Y010968D01*
X006670Y010993D01*
X006689Y011016D01*
X006712Y011037D01*
X006737Y011054D01*
X006763Y011068D01*
X006792Y011078D01*
X006821Y011085D01*
X006851Y011088D01*
X006882Y011087D01*
X006912Y011082D01*
X006941Y011073D01*
X006968Y011061D01*
X006994Y011046D01*
X007018Y011027D01*
X007039Y011005D01*
X007057Y010981D01*
X007072Y010954D01*
X007083Y010926D01*
X007091Y010897D01*
X007095Y010867D01*
X007095Y010837D01*
X007091Y010807D01*
X007083Y010778D01*
X007072Y010750D01*
X007057Y010723D01*
X007039Y010699D01*
X007018Y010677D01*
X006994Y010658D01*
X006968Y010643D01*
X006941Y010631D01*
X006912Y010622D01*
X006882Y010617D01*
X006851Y010616D01*
X006821Y010619D01*
X006792Y010626D01*
X006763Y010636D01*
X006737Y010650D01*
X006712Y010667D01*
X006689Y010688D01*
X006670Y010711D01*
X006653Y010736D01*
X006640Y010763D01*
X006631Y010792D01*
X006625Y010822D01*
X006623Y010852D01*
X004655Y012820D02*
X004657Y012850D01*
X004663Y012880D01*
X004672Y012909D01*
X004685Y012936D01*
X004702Y012961D01*
X004721Y012984D01*
X004744Y013005D01*
X004769Y013022D01*
X004795Y013036D01*
X004824Y013046D01*
X004853Y013053D01*
X004883Y013056D01*
X004914Y013055D01*
X004944Y013050D01*
X004973Y013041D01*
X005000Y013029D01*
X005026Y013014D01*
X005050Y012995D01*
X005071Y012973D01*
X005089Y012949D01*
X005104Y012922D01*
X005115Y012894D01*
X005123Y012865D01*
X005127Y012835D01*
X005127Y012805D01*
X005123Y012775D01*
X005115Y012746D01*
X005104Y012718D01*
X005089Y012691D01*
X005071Y012667D01*
X005050Y012645D01*
X005026Y012626D01*
X005000Y012611D01*
X004973Y012599D01*
X004944Y012590D01*
X004914Y012585D01*
X004883Y012584D01*
X004853Y012587D01*
X004824Y012594D01*
X004795Y012604D01*
X004769Y012618D01*
X004744Y012635D01*
X004721Y012656D01*
X004702Y012679D01*
X004685Y012704D01*
X004672Y012731D01*
X004663Y012760D01*
X004657Y012790D01*
X004655Y012820D01*
X003670Y012820D02*
X003672Y012850D01*
X003678Y012880D01*
X003687Y012909D01*
X003700Y012936D01*
X003717Y012961D01*
X003736Y012984D01*
X003759Y013005D01*
X003784Y013022D01*
X003810Y013036D01*
X003839Y013046D01*
X003868Y013053D01*
X003898Y013056D01*
X003929Y013055D01*
X003959Y013050D01*
X003988Y013041D01*
X004015Y013029D01*
X004041Y013014D01*
X004065Y012995D01*
X004086Y012973D01*
X004104Y012949D01*
X004119Y012922D01*
X004130Y012894D01*
X004138Y012865D01*
X004142Y012835D01*
X004142Y012805D01*
X004138Y012775D01*
X004130Y012746D01*
X004119Y012718D01*
X004104Y012691D01*
X004086Y012667D01*
X004065Y012645D01*
X004041Y012626D01*
X004015Y012611D01*
X003988Y012599D01*
X003959Y012590D01*
X003929Y012585D01*
X003898Y012584D01*
X003868Y012587D01*
X003839Y012594D01*
X003810Y012604D01*
X003784Y012618D01*
X003759Y012635D01*
X003736Y012656D01*
X003717Y012679D01*
X003700Y012704D01*
X003687Y012731D01*
X003678Y012760D01*
X003672Y012790D01*
X003670Y012820D01*
D11*
X003909Y012008D02*
X003864Y011963D01*
X003864Y011783D01*
X003909Y011738D01*
X004000Y011738D01*
X004045Y011783D01*
X004045Y011873D01*
X003954Y011873D01*
X004045Y011963D02*
X004000Y012008D01*
X003909Y012008D01*
X004159Y012008D02*
X004339Y011738D01*
X004339Y012008D01*
X004454Y012008D02*
X004589Y012008D01*
X004634Y011963D01*
X004634Y011783D01*
X004589Y011738D01*
X004454Y011738D01*
X004454Y012008D01*
X004159Y012008D02*
X004159Y011738D01*
X004199Y011058D02*
X004289Y011058D01*
X004334Y011013D01*
X004334Y010833D01*
X004289Y010788D01*
X004199Y010788D01*
X004154Y010833D01*
X004154Y011013D01*
X004199Y011058D01*
X004039Y011013D02*
X004039Y010833D01*
X003994Y010788D01*
X003859Y010788D01*
X003859Y011058D01*
X003994Y011058D01*
X004039Y011013D01*
X004244Y010878D02*
X004334Y010788D01*
X004294Y010058D02*
X004204Y010058D01*
X004159Y010013D01*
X004159Y009833D01*
X004204Y009788D01*
X004294Y009788D01*
X004339Y009833D01*
X004454Y009833D02*
X004454Y010013D01*
X004499Y010058D01*
X004589Y010058D01*
X004634Y010013D01*
X004634Y009833D02*
X004589Y009788D01*
X004499Y009788D01*
X004454Y009833D01*
X004339Y010013D02*
X004294Y010058D01*
X004045Y010058D02*
X004045Y009878D01*
X003954Y009788D01*
X003864Y009878D01*
X003864Y010058D01*
X006308Y013638D02*
X006218Y013728D01*
X006218Y013908D01*
X006398Y013908D02*
X006398Y013728D01*
X006308Y013638D01*
X006512Y013683D02*
X006557Y013638D01*
X006647Y013638D01*
X006692Y013683D01*
X006807Y013683D02*
X006852Y013638D01*
X006942Y013638D01*
X006987Y013683D01*
X006987Y013863D02*
X006942Y013908D01*
X006852Y013908D01*
X006807Y013863D01*
X006807Y013683D01*
X006692Y013863D02*
X006647Y013908D01*
X006557Y013908D01*
X006512Y013863D01*
X006512Y013683D01*
X007218Y013728D02*
X007353Y013728D01*
X007398Y013773D01*
X007398Y013863D01*
X007353Y013908D01*
X007218Y013908D01*
X007218Y013638D01*
X007512Y013638D02*
X007692Y013638D01*
X007602Y013638D02*
X007602Y013908D01*
X007512Y013818D01*
X007807Y013863D02*
X007852Y013908D01*
X007942Y013908D01*
X007987Y013863D01*
X007987Y013818D01*
X007942Y013773D01*
X007987Y013728D01*
X007987Y013683D01*
X007942Y013638D01*
X007852Y013638D01*
X007807Y013683D01*
X007897Y013773D02*
X007942Y013773D01*
X008318Y013728D02*
X008453Y013728D01*
X008498Y013773D01*
X008498Y013863D01*
X008453Y013908D01*
X008318Y013908D01*
X008318Y013638D01*
X008612Y013638D02*
X008792Y013638D01*
X008702Y013638D02*
X008702Y013908D01*
X008612Y013818D01*
X008907Y013773D02*
X009087Y013773D01*
X009042Y013638D02*
X009042Y013908D01*
X008907Y013773D01*
X009318Y013863D02*
X009318Y013683D01*
X009363Y013638D01*
X009453Y013638D01*
X009498Y013683D01*
X009498Y013773D01*
X009408Y013773D01*
X009498Y013863D02*
X009453Y013908D01*
X009363Y013908D01*
X009318Y013863D01*
X009612Y013908D02*
X009612Y013638D01*
X009792Y013638D02*
X009612Y013908D01*
X009792Y013908D02*
X009792Y013638D01*
X009907Y013638D02*
X010042Y013638D01*
X010087Y013683D01*
X010087Y013863D01*
X010042Y013908D01*
X009907Y013908D01*
X009907Y013638D01*
X011507Y012740D02*
X011507Y009925D01*
X013240Y009925D01*
X013240Y012740D01*
X011507Y012740D01*
X011625Y012583D02*
X011627Y012591D01*
X011632Y012598D01*
X011639Y012602D01*
X011647Y012603D01*
X011655Y012600D01*
X011661Y012595D01*
X011665Y012587D01*
X011665Y012579D01*
X011661Y012571D01*
X011655Y012566D01*
X011647Y012563D01*
X011639Y012564D01*
X011632Y012568D01*
X011627Y012575D01*
X011625Y012583D01*
X013898Y013874D02*
X013898Y014009D01*
X013943Y014054D01*
X013988Y014054D01*
X014033Y014009D01*
X014033Y013874D01*
X014033Y014009D02*
X014078Y014054D01*
X014123Y014054D01*
X014168Y014009D01*
X014168Y013874D01*
X013898Y013874D01*
X013898Y014168D02*
X013898Y014348D01*
X013898Y014258D02*
X014168Y014258D01*
X014168Y014463D02*
X013898Y014463D01*
X014168Y014643D01*
X013898Y014643D01*
X022598Y009598D02*
X022598Y009463D01*
X022868Y009463D01*
X022868Y009598D01*
X022823Y009643D01*
X022643Y009643D01*
X022598Y009598D01*
X022598Y009348D02*
X022868Y009348D01*
X022598Y009168D01*
X022868Y009168D01*
X022823Y009054D02*
X022733Y009054D01*
X022733Y008964D01*
X022643Y009054D02*
X022598Y009009D01*
X022598Y008919D01*
X022643Y008874D01*
X022823Y008874D01*
X022868Y008919D01*
X022868Y009009D01*
X022823Y009054D01*
X020539Y006608D02*
X020404Y006608D01*
X020404Y006338D01*
X020539Y006338D01*
X020584Y006383D01*
X020584Y006563D01*
X020539Y006608D01*
X020289Y006608D02*
X020289Y006338D01*
X020109Y006608D01*
X020109Y006338D01*
X019995Y006383D02*
X019995Y006473D01*
X019904Y006473D01*
X019814Y006563D02*
X019814Y006383D01*
X019859Y006338D01*
X019950Y006338D01*
X019995Y006383D01*
X019995Y006563D02*
X019950Y006608D01*
X019859Y006608D01*
X019814Y006563D01*
X019584Y006563D02*
X019539Y006608D01*
X019449Y006608D01*
X019404Y006563D01*
X019404Y006383D01*
X019449Y006338D01*
X019539Y006338D01*
X019584Y006383D01*
X019289Y006383D02*
X019244Y006338D01*
X019154Y006338D01*
X019109Y006383D01*
X019109Y006563D01*
X019154Y006608D01*
X019244Y006608D01*
X019289Y006563D01*
X018995Y006608D02*
X018995Y006428D01*
X018904Y006338D01*
X018814Y006428D01*
X018814Y006608D01*
X018584Y006563D02*
X018584Y006383D01*
X018539Y006338D01*
X018404Y006338D01*
X018404Y006608D01*
X018539Y006608D01*
X018584Y006563D01*
X018289Y006608D02*
X018109Y006338D01*
X018289Y006338D02*
X018109Y006608D01*
X017995Y006608D02*
X017814Y006608D01*
X017904Y006608D02*
X017904Y006338D01*
X017634Y006383D02*
X017634Y006563D01*
X017589Y006608D01*
X017454Y006608D01*
X017454Y006338D01*
X017589Y006338D01*
X017634Y006383D01*
X017339Y006338D02*
X017159Y006608D01*
X017045Y006563D02*
X017045Y006473D01*
X017000Y006428D01*
X016864Y006428D01*
X016864Y006338D02*
X016864Y006608D01*
X017000Y006608D01*
X017045Y006563D01*
X016954Y006428D02*
X017045Y006338D01*
X017159Y006338D02*
X017339Y006608D01*
X016634Y006608D02*
X016454Y006608D01*
X016544Y006608D02*
X016544Y006338D01*
X016339Y006383D02*
X016294Y006338D01*
X016204Y006338D01*
X016159Y006383D01*
X016204Y006473D02*
X016159Y006518D01*
X016159Y006563D01*
X016204Y006608D01*
X016294Y006608D01*
X016339Y006563D01*
X016294Y006473D02*
X016339Y006428D01*
X016339Y006383D01*
X016294Y006473D02*
X016204Y006473D01*
X016045Y006473D02*
X016045Y006563D01*
X016000Y006608D01*
X015864Y006608D01*
X015864Y006338D01*
X015864Y006428D02*
X016000Y006428D01*
X016045Y006473D01*
X015954Y006428D02*
X016045Y006338D01*
X015584Y006608D02*
X015404Y006608D01*
X015494Y006608D02*
X015494Y006338D01*
X015289Y006383D02*
X015244Y006338D01*
X015154Y006338D01*
X015109Y006383D01*
X015154Y006473D02*
X015244Y006473D01*
X015289Y006428D01*
X015289Y006383D01*
X015154Y006473D02*
X015109Y006518D01*
X015109Y006563D01*
X015154Y006608D01*
X015244Y006608D01*
X015289Y006563D01*
X014995Y006608D02*
X014814Y006608D01*
X014904Y006608D02*
X014904Y006338D01*
D12*
X013912Y006533D02*
X013685Y006533D01*
X013855Y006703D01*
X013855Y006363D01*
X013544Y006363D02*
X013430Y006476D01*
X013487Y006476D02*
X013317Y006476D01*
X013317Y006363D02*
X013317Y006703D01*
X013487Y006703D01*
X013544Y006646D01*
X013544Y006533D01*
X013487Y006476D01*
X011712Y006476D02*
X011712Y006419D01*
X011655Y006363D01*
X011542Y006363D01*
X011485Y006419D01*
X011344Y006419D02*
X011287Y006363D01*
X011173Y006363D01*
X011117Y006419D01*
X011117Y006646D01*
X011173Y006703D01*
X011287Y006703D01*
X011344Y006646D01*
X011485Y006646D02*
X011542Y006703D01*
X011655Y006703D01*
X011712Y006646D01*
X011712Y006590D01*
X011655Y006533D01*
X011712Y006476D01*
X011655Y006533D02*
X011598Y006533D01*
X009355Y006362D02*
X009128Y006362D01*
X009242Y006362D02*
X009242Y006703D01*
X009128Y006589D01*
X008987Y006532D02*
X008930Y006476D01*
X008760Y006476D01*
X008873Y006476D02*
X008987Y006362D01*
X008987Y006532D02*
X008987Y006646D01*
X008930Y006703D01*
X008760Y006703D01*
X008760Y006362D01*
X007956Y006272D02*
X007730Y006612D01*
X007588Y006556D02*
X007588Y006442D01*
X007531Y006386D01*
X007361Y006386D01*
X007475Y006386D02*
X007588Y006272D01*
X007730Y006272D02*
X007956Y006612D01*
X007588Y006556D02*
X007531Y006612D01*
X007361Y006612D01*
X007361Y006272D01*
X007038Y006272D02*
X006811Y006612D01*
X006670Y006612D02*
X006443Y006612D01*
X006557Y006612D02*
X006557Y006272D01*
X006811Y006272D02*
X007038Y006612D01*
X007601Y008310D02*
X007601Y008650D01*
X007771Y008650D01*
X007828Y008593D01*
X007828Y008480D01*
X007771Y008423D01*
X007601Y008423D01*
X007714Y008423D02*
X007828Y008310D01*
X007969Y008310D02*
X008196Y008537D01*
X008196Y008593D01*
X008139Y008650D01*
X008026Y008650D01*
X007969Y008593D01*
X007969Y008310D02*
X008196Y008310D01*
X008187Y009563D02*
X008073Y009563D01*
X008017Y009619D01*
X008017Y009846D01*
X008073Y009903D01*
X008187Y009903D01*
X008244Y009846D01*
X008385Y009733D02*
X008555Y009733D01*
X008612Y009676D01*
X008612Y009619D01*
X008555Y009563D01*
X008442Y009563D01*
X008385Y009619D01*
X008385Y009733D01*
X008498Y009846D01*
X008612Y009903D01*
X008244Y009619D02*
X008187Y009563D01*
X010803Y009563D02*
X010803Y009903D01*
X010974Y009903D01*
X011030Y009846D01*
X011030Y009733D01*
X010974Y009676D01*
X010803Y009676D01*
X010917Y009676D02*
X011030Y009563D01*
X011172Y009563D02*
X011172Y009619D01*
X011399Y009846D01*
X011399Y009903D01*
X011172Y009903D01*
X011503Y009103D02*
X011674Y009103D01*
X011730Y009046D01*
X011730Y008933D01*
X011674Y008876D01*
X011503Y008876D01*
X011503Y008763D02*
X011503Y009103D01*
X011617Y008876D02*
X011730Y008763D01*
X011872Y008819D02*
X011928Y008763D01*
X012042Y008763D01*
X012099Y008819D01*
X012099Y008876D01*
X012042Y008933D01*
X011985Y008933D01*
X012042Y008933D02*
X012099Y008990D01*
X012099Y009046D01*
X012042Y009103D01*
X011928Y009103D01*
X011872Y009046D01*
X014003Y010369D02*
X014060Y010313D01*
X014174Y010313D01*
X014230Y010369D01*
X014230Y010426D01*
X014174Y010483D01*
X014060Y010483D01*
X014003Y010540D01*
X014003Y010596D01*
X014060Y010653D01*
X014174Y010653D01*
X014230Y010596D01*
X014372Y010540D02*
X014372Y010313D01*
X014485Y010313D02*
X014485Y010483D01*
X014542Y010540D01*
X014599Y010483D01*
X014599Y010313D01*
X014740Y010369D02*
X014740Y010483D01*
X014797Y010540D01*
X014910Y010540D01*
X014967Y010483D01*
X014967Y010369D01*
X014910Y010313D01*
X014797Y010313D01*
X014740Y010369D01*
X014485Y010483D02*
X014428Y010540D01*
X014372Y010540D01*
X014853Y010799D02*
X014910Y010799D01*
X014967Y010856D01*
X014967Y011140D01*
X014797Y011140D01*
X014740Y011083D01*
X014740Y010969D01*
X014797Y010913D01*
X014967Y010913D01*
X015108Y010913D02*
X015222Y010913D01*
X015165Y010913D02*
X015165Y011140D01*
X015108Y011140D01*
X015165Y011253D02*
X015165Y011310D01*
X015354Y011083D02*
X015354Y010969D01*
X015411Y010913D01*
X015581Y010913D01*
X015581Y011140D02*
X015411Y011140D01*
X015354Y011083D01*
X015108Y010653D02*
X015108Y010313D01*
X015108Y010426D02*
X015278Y010540D01*
X015415Y010483D02*
X015472Y010540D01*
X015585Y010540D01*
X015642Y010483D01*
X015642Y010426D01*
X015415Y010426D01*
X015415Y010369D02*
X015415Y010483D01*
X015415Y010369D02*
X015472Y010313D01*
X015585Y010313D01*
X015278Y010313D02*
X015108Y010426D01*
X014599Y010913D02*
X014428Y010913D01*
X014372Y010969D01*
X014428Y011026D01*
X014599Y011026D01*
X014599Y011083D02*
X014599Y010913D01*
X014599Y011083D02*
X014542Y011140D01*
X014428Y011140D01*
X014230Y011253D02*
X014230Y010913D01*
X014003Y010913D02*
X014003Y011253D01*
X014117Y011140D01*
X014230Y011253D01*
X012754Y011214D02*
X012528Y011214D01*
X012641Y011214D02*
X012641Y011554D01*
X012528Y011441D01*
X012386Y011498D02*
X012386Y011271D01*
X012329Y011214D01*
X012216Y011214D01*
X012159Y011271D01*
X012159Y011498D01*
X012216Y011554D01*
X012329Y011554D01*
X012386Y011498D01*
X012273Y011328D02*
X012386Y011214D01*
X011292Y012763D02*
X011178Y012763D01*
X011122Y012819D01*
X011122Y012933D02*
X011235Y012990D01*
X011292Y012990D01*
X011349Y012933D01*
X011349Y012819D01*
X011292Y012763D01*
X011122Y012933D02*
X011122Y013103D01*
X011349Y013103D01*
X011362Y013313D02*
X011135Y013313D01*
X011248Y013313D02*
X011248Y013653D01*
X011135Y013540D01*
X010994Y013596D02*
X010937Y013653D01*
X010823Y013653D01*
X010767Y013596D01*
X010767Y013369D01*
X010823Y013313D01*
X010937Y013313D01*
X010994Y013369D01*
X010924Y013103D02*
X010753Y013103D01*
X010753Y012763D01*
X010753Y012876D02*
X010924Y012876D01*
X010980Y012933D01*
X010980Y013046D01*
X010924Y013103D01*
X010867Y012876D02*
X010980Y012763D01*
X009799Y012769D02*
X009799Y012826D01*
X009742Y012883D01*
X009572Y012883D01*
X009572Y012769D01*
X009628Y012713D01*
X009742Y012713D01*
X009799Y012769D01*
X009685Y012996D02*
X009572Y012883D01*
X009430Y012883D02*
X009374Y012826D01*
X009203Y012826D01*
X009203Y012713D02*
X009203Y013053D01*
X009374Y013053D01*
X009430Y012996D01*
X009430Y012883D01*
X009317Y012826D02*
X009430Y012713D01*
X009685Y012996D02*
X009799Y013053D01*
X012003Y015019D02*
X012060Y014963D01*
X012174Y014963D01*
X012230Y015019D01*
X012372Y014963D02*
X012599Y015190D01*
X012599Y015246D01*
X012542Y015303D01*
X012428Y015303D01*
X012372Y015246D01*
X012230Y015246D02*
X012174Y015303D01*
X012060Y015303D01*
X012003Y015246D01*
X012003Y015019D01*
X012372Y014963D02*
X012599Y014963D01*
X014253Y015019D02*
X014310Y014963D01*
X014424Y014963D01*
X014480Y015019D01*
X014622Y015133D02*
X014849Y015133D01*
X014792Y014963D02*
X014792Y015303D01*
X014622Y015133D01*
X014480Y015246D02*
X014424Y015303D01*
X014310Y015303D01*
X014253Y015246D01*
X014253Y015019D01*
X013662Y013603D02*
X013435Y013603D01*
X013435Y013433D01*
X013548Y013490D01*
X013605Y013490D01*
X013662Y013433D01*
X013662Y013319D01*
X013605Y013263D01*
X013492Y013263D01*
X013435Y013319D01*
X013294Y013319D02*
X013237Y013263D01*
X013123Y013263D01*
X013067Y013319D01*
X013067Y013546D01*
X013123Y013603D01*
X013237Y013603D01*
X013294Y013546D01*
X016602Y014011D02*
X016752Y014011D01*
X016752Y015111D01*
X016752Y015161D01*
X019752Y015161D01*
X019769Y015159D01*
X019786Y015155D01*
X019802Y015148D01*
X019816Y015138D01*
X019829Y015125D01*
X019839Y015111D01*
X019846Y015095D01*
X019850Y015078D01*
X019852Y015061D01*
X019852Y014061D01*
X019850Y014044D01*
X019846Y014027D01*
X019839Y014011D01*
X019829Y013997D01*
X019816Y013984D01*
X019802Y013974D01*
X019786Y013967D01*
X019769Y013963D01*
X019752Y013961D01*
X016752Y013961D01*
X016752Y014011D01*
X016602Y014011D02*
X016602Y015111D01*
X016752Y015111D01*
X017652Y014561D02*
X017852Y014561D01*
X017852Y014261D01*
X018002Y014261D02*
X018152Y014261D01*
X018152Y014861D01*
X018002Y014861D01*
X018002Y014261D01*
X018302Y014261D02*
X018302Y014561D01*
X018502Y014561D01*
X018302Y014561D02*
X018302Y014861D01*
X017852Y014861D02*
X017852Y014561D01*
X018832Y014448D02*
X018888Y014391D01*
X019002Y014391D01*
X019059Y014448D01*
X019059Y014675D01*
X019002Y014732D01*
X018888Y014732D01*
X018832Y014675D01*
X018832Y014448D01*
X018945Y014505D02*
X019059Y014391D01*
X019200Y014562D02*
X019427Y014562D01*
X019370Y014732D02*
X019370Y014391D01*
X019200Y014562D02*
X019370Y014732D01*
X019804Y013915D02*
X019804Y013715D01*
X019804Y013915D02*
X020004Y013915D01*
X020604Y013915D02*
X020804Y013915D01*
X020804Y013715D01*
X020804Y013115D02*
X020804Y012915D01*
X020604Y012915D01*
X020731Y012849D02*
X022231Y012849D01*
X022481Y012599D01*
X022481Y012099D01*
X022231Y011849D01*
X022481Y011599D01*
X022481Y011099D01*
X022231Y010849D01*
X022481Y010599D01*
X022481Y010099D01*
X022231Y009849D01*
X022481Y009599D01*
X022481Y009099D01*
X022231Y008849D01*
X020731Y008849D01*
X020481Y009099D01*
X020481Y009599D01*
X020731Y009849D01*
X020481Y010099D01*
X020481Y010599D01*
X020731Y010849D01*
X020481Y011099D01*
X020481Y011599D01*
X020731Y011849D01*
X020481Y012099D01*
X020481Y012599D01*
X020731Y012849D01*
X020004Y012915D02*
X019804Y012915D01*
X019804Y013115D01*
X020233Y012331D02*
X020233Y012104D01*
X020120Y012218D02*
X020347Y012218D01*
X020403Y011963D02*
X020403Y011736D01*
X020403Y011849D02*
X020063Y011849D01*
X020177Y011736D01*
X020120Y011595D02*
X020347Y011368D01*
X020403Y011424D01*
X020403Y011538D01*
X020347Y011595D01*
X020120Y011595D01*
X020063Y011538D01*
X020063Y011424D01*
X020120Y011368D01*
X020347Y011368D01*
X020403Y011226D02*
X020403Y010999D01*
X020063Y010999D01*
X020063Y010801D02*
X020233Y010631D01*
X020233Y010858D01*
X020403Y010801D02*
X020063Y010801D01*
X020120Y010490D02*
X020063Y010433D01*
X020063Y010319D01*
X020120Y010263D01*
X020063Y010121D02*
X020063Y009894D01*
X020403Y009894D01*
X020403Y009753D02*
X020290Y009640D01*
X020290Y009696D02*
X020290Y009526D01*
X020403Y009526D02*
X020063Y009526D01*
X020063Y009696D01*
X020120Y009753D01*
X020233Y009753D01*
X020290Y009696D01*
X020233Y009894D02*
X020233Y010008D01*
X020403Y010263D02*
X020177Y010490D01*
X020120Y010490D01*
X020403Y010490D02*
X020403Y010263D01*
X020403Y009385D02*
X020063Y009385D01*
X020063Y009158D02*
X020403Y009385D01*
X020403Y009158D02*
X020063Y009158D01*
X020004Y008796D02*
X019804Y008796D01*
X019804Y008596D01*
X019804Y007996D02*
X019804Y007796D01*
X020004Y007796D01*
X020604Y007796D02*
X020804Y007796D01*
X020804Y007996D01*
X020804Y008596D02*
X020804Y008796D01*
X020604Y008796D01*
X016736Y009026D02*
X016509Y009026D01*
X016509Y008969D02*
X016509Y009083D01*
X016566Y009140D01*
X016679Y009140D01*
X016736Y009083D01*
X016736Y009026D01*
X016679Y008913D02*
X016566Y008913D01*
X016509Y008969D01*
X016367Y008913D02*
X016197Y008913D01*
X016140Y008969D01*
X016140Y009083D01*
X016197Y009140D01*
X016367Y009140D01*
X016367Y009253D02*
X016367Y008913D01*
X015999Y008969D02*
X015999Y009083D01*
X015942Y009140D01*
X015829Y009140D01*
X015772Y009083D01*
X015772Y008969D01*
X015829Y008913D01*
X015942Y008913D01*
X015999Y008969D01*
X015631Y008913D02*
X015631Y009083D01*
X015574Y009140D01*
X015404Y009140D01*
X015404Y008913D01*
X015262Y009026D02*
X015036Y009026D01*
X015036Y008969D02*
X015036Y009083D01*
X015092Y009140D01*
X015206Y009140D01*
X015262Y009083D01*
X015262Y009026D01*
X015206Y008913D02*
X015092Y008913D01*
X015036Y008969D01*
X014894Y008969D02*
X014837Y009026D01*
X014724Y009026D01*
X014667Y009083D01*
X014724Y009140D01*
X014894Y009140D01*
X014894Y008969D02*
X014837Y008913D01*
X014667Y008913D01*
X014535Y008913D02*
X014422Y008913D01*
X014478Y008913D02*
X014478Y009140D01*
X014422Y009140D01*
X014478Y009253D02*
X014478Y009310D01*
X014280Y009253D02*
X014280Y008913D01*
X014167Y009026D01*
X014053Y008913D01*
X014053Y009253D01*
X014053Y008653D02*
X014053Y008313D01*
X014167Y008426D01*
X014280Y008313D01*
X014280Y008653D01*
X014422Y008653D02*
X014649Y008313D01*
X014649Y008653D01*
X014790Y008596D02*
X014847Y008653D01*
X014960Y008653D01*
X015017Y008596D01*
X014790Y008369D01*
X014847Y008313D01*
X014960Y008313D01*
X015017Y008369D01*
X015017Y008596D01*
X015158Y008540D02*
X015272Y008653D01*
X015272Y008313D01*
X015385Y008313D02*
X015158Y008313D01*
X014790Y008369D02*
X014790Y008596D01*
X014422Y008653D02*
X014422Y008313D01*
D13*
X000916Y006024D02*
X000927Y001163D01*
X000867Y005000D02*
X000916Y006024D01*
X000816Y005000D01*
X000793Y005000D02*
X000916Y006024D01*
X001021Y005000D01*
X001044Y005000D02*
X000793Y005000D01*
X000970Y005000D02*
X000916Y006024D01*
X001044Y005000D01*
X000129Y006022D02*
X004851Y006033D01*
X004848Y007407D02*
X000126Y007397D01*
X000913Y007398D02*
X000808Y008422D01*
X000785Y008422D02*
X000913Y007398D01*
X001013Y008422D01*
X001036Y008422D02*
X000785Y008422D01*
X000859Y008422D02*
X000913Y007398D01*
X000962Y008422D01*
X001036Y008422D02*
X000913Y007398D01*
X000908Y009446D01*
X003473Y014300D02*
X003473Y019418D01*
X003473Y018631D02*
X004497Y018733D01*
X004497Y018757D02*
X004497Y018505D01*
X003473Y018631D01*
X004497Y018529D01*
X004497Y018580D02*
X003473Y018631D01*
X004497Y018682D01*
X004497Y018757D02*
X003473Y018631D01*
X023158Y018631D01*
X022135Y018529D01*
X022135Y018505D02*
X023158Y018631D01*
X022135Y018733D01*
X022135Y018757D02*
X022135Y018505D01*
X022135Y018580D02*
X023158Y018631D01*
X022135Y018682D01*
X022135Y018757D02*
X023158Y018631D01*
X023158Y019418D02*
X023158Y014300D01*
X023158Y013415D02*
X027489Y013415D01*
X026702Y013415D02*
X026804Y012391D01*
X026827Y012391D02*
X026702Y013415D01*
X026599Y012391D01*
X026576Y012391D02*
X026827Y012391D01*
X026753Y012391D02*
X026702Y013415D01*
X026651Y012391D01*
X026576Y012391D02*
X026702Y013415D01*
X026702Y008296D01*
X026804Y009320D01*
X026827Y009320D02*
X026702Y008296D01*
X026599Y009320D01*
X026576Y009320D02*
X026827Y009320D01*
X026753Y009320D02*
X026702Y008296D01*
X026651Y009320D01*
X026576Y009320D02*
X026702Y008296D01*
X027489Y008296D02*
X023158Y008296D01*
X021780Y006033D02*
X031032Y006033D01*
X030245Y006033D02*
X030347Y007056D01*
X030371Y007056D02*
X030245Y006033D01*
X030143Y007056D01*
X030119Y007056D02*
X030371Y007056D01*
X030296Y007056D02*
X030245Y006033D01*
X030194Y007056D01*
X030119Y007056D02*
X030245Y006033D01*
X030245Y015678D01*
X030347Y014655D01*
X030371Y014655D02*
X030245Y015678D01*
X030143Y014655D01*
X030119Y014655D02*
X030371Y014655D01*
X030296Y014655D02*
X030245Y015678D01*
X030194Y014655D01*
X030119Y014655D02*
X030245Y015678D01*
X031032Y015678D02*
X021780Y015678D01*
D14*
X025195Y011929D02*
X025407Y011929D01*
X025618Y011717D01*
X025830Y011929D01*
X026042Y011929D01*
X026253Y011717D01*
X026253Y011294D01*
X026042Y011083D01*
X026253Y010660D02*
X026253Y009814D01*
X026253Y010237D02*
X024984Y010237D01*
X025407Y009814D01*
X025195Y011083D02*
X024984Y011294D01*
X024984Y011717D01*
X025195Y011929D01*
X025618Y011717D02*
X025618Y011506D01*
X028527Y010895D02*
X029162Y010261D01*
X029162Y011107D01*
X029796Y010895D02*
X028527Y010895D01*
X029585Y011529D02*
X029585Y011741D01*
X029796Y011741D01*
X029796Y011529D01*
X029585Y011529D01*
X029585Y012164D02*
X029796Y012375D01*
X029796Y012798D01*
X029585Y013010D01*
X029162Y013010D01*
X028950Y012798D01*
X028950Y012587D01*
X029162Y012164D01*
X028527Y012164D01*
X028527Y013010D01*
X028739Y009838D02*
X028527Y009626D01*
X028527Y009203D01*
X028739Y008992D01*
X028950Y009838D02*
X029796Y008992D01*
X029796Y009838D01*
X028950Y009838D02*
X028739Y009838D01*
X014389Y019291D02*
X014178Y019080D01*
X013755Y019080D01*
X013543Y019291D01*
X014389Y020137D01*
X014389Y019291D01*
X013543Y019291D02*
X013543Y020137D01*
X013755Y020349D01*
X014178Y020349D01*
X014389Y020137D01*
X013121Y020349D02*
X012274Y020349D01*
X012274Y019714D01*
X012697Y019926D01*
X012909Y019926D01*
X013121Y019714D01*
X013121Y019291D01*
X012909Y019080D01*
X012486Y019080D01*
X012274Y019291D01*
X002425Y004948D02*
X002637Y004737D01*
X002637Y004314D01*
X002426Y004102D01*
X002215Y004101D01*
X002003Y004313D01*
X001792Y004101D01*
X001580Y004100D01*
X001368Y004311D01*
X001368Y004735D01*
X001579Y004946D01*
X002003Y004524D02*
X002003Y004313D01*
X001581Y003678D02*
X001369Y003677D01*
X001370Y003466D01*
X001581Y003466D01*
X001581Y003678D01*
X002005Y003044D02*
X002007Y002198D01*
X002219Y001775D02*
X002008Y001564D01*
X002009Y000929D01*
X001586Y000928D02*
X002432Y000930D01*
X002643Y001142D01*
X002642Y001565D01*
X002430Y001776D01*
X002219Y001775D01*
X001584Y001774D02*
X001373Y001563D01*
X001374Y001139D01*
X001586Y000928D01*
X001372Y002408D02*
X002641Y002411D01*
X002005Y003044D01*
D15*
X003513Y008489D02*
X006269Y008489D01*
X007450Y008489D02*
X007843Y008489D01*
X007843Y013214D01*
X007450Y013214D01*
X007365Y014012D02*
X007115Y014262D01*
X006865Y014012D01*
X006365Y014012D01*
X006115Y014262D01*
X006115Y014762D01*
X006365Y015012D01*
X006865Y015012D01*
X007115Y014762D01*
X007365Y015012D01*
X007865Y015012D01*
X008115Y014762D01*
X008365Y015012D01*
X008865Y015012D01*
X009115Y014762D01*
X009365Y015012D01*
X009865Y015012D01*
X010115Y014762D01*
X010115Y014262D01*
X009865Y014012D01*
X009365Y014012D01*
X009115Y014262D01*
X008865Y014012D01*
X008365Y014012D01*
X008115Y014262D01*
X007865Y014012D01*
X007365Y014012D01*
X006269Y013214D02*
X003513Y013214D01*
X003513Y008489D01*
X005393Y009573D02*
X005643Y009323D01*
X006143Y009323D01*
X006393Y009573D01*
X006393Y010073D01*
X006143Y010323D01*
X006393Y010573D01*
X006393Y011073D01*
X006143Y011323D01*
X006393Y011573D01*
X006393Y012073D01*
X006143Y012323D01*
X005643Y012323D01*
X005393Y012073D01*
X005393Y011573D01*
X005643Y011323D01*
X005393Y011073D01*
X005393Y010573D01*
X005643Y010323D01*
X005393Y010073D01*
X005393Y009573D01*
X014799Y007459D02*
X014799Y006959D01*
X015049Y006709D01*
X015549Y006709D01*
X015799Y006959D01*
X016049Y006709D01*
X016549Y006709D01*
X016799Y006959D01*
X017049Y006709D01*
X017549Y006709D01*
X017799Y006959D01*
X018049Y006709D01*
X018549Y006709D01*
X018799Y006959D01*
X019049Y006709D01*
X019549Y006709D01*
X019799Y006959D01*
X020049Y006709D01*
X020549Y006709D01*
X020799Y006959D01*
X020799Y007459D01*
X020549Y007709D01*
X020049Y007709D01*
X019799Y007459D01*
X019549Y007709D01*
X019049Y007709D01*
X018799Y007459D01*
X018549Y007709D01*
X018049Y007709D01*
X017799Y007459D01*
X017549Y007709D01*
X017049Y007709D01*
X016799Y007459D01*
X016549Y007709D01*
X016049Y007709D01*
X015799Y007459D01*
X015549Y007709D01*
X015049Y007709D01*
X014799Y007459D01*
X017680Y009512D02*
X018467Y009512D01*
X019294Y010142D02*
X019294Y011323D01*
X018467Y011953D02*
X017680Y011953D01*
X016853Y011323D02*
X016853Y010142D01*
X017384Y010733D02*
X017386Y010785D01*
X017392Y010837D01*
X017402Y010888D01*
X017415Y010938D01*
X017433Y010988D01*
X017454Y011035D01*
X017478Y011081D01*
X017507Y011125D01*
X017538Y011167D01*
X017572Y011206D01*
X017609Y011243D01*
X017649Y011276D01*
X017692Y011307D01*
X017736Y011334D01*
X017782Y011358D01*
X017831Y011378D01*
X017880Y011394D01*
X017931Y011407D01*
X017982Y011416D01*
X018034Y011421D01*
X018086Y011422D01*
X018138Y011419D01*
X018190Y011412D01*
X018241Y011401D01*
X018291Y011387D01*
X018340Y011368D01*
X018387Y011346D01*
X018432Y011321D01*
X018476Y011292D01*
X018517Y011260D01*
X018556Y011225D01*
X018591Y011187D01*
X018624Y011146D01*
X018654Y011104D01*
X018680Y011059D01*
X018703Y011012D01*
X018722Y010963D01*
X018738Y010913D01*
X018750Y010863D01*
X018758Y010811D01*
X018762Y010759D01*
X018762Y010707D01*
X018758Y010655D01*
X018750Y010603D01*
X018738Y010553D01*
X018722Y010503D01*
X018703Y010454D01*
X018680Y010407D01*
X018654Y010362D01*
X018624Y010320D01*
X018591Y010279D01*
X018556Y010241D01*
X018517Y010206D01*
X018476Y010174D01*
X018432Y010145D01*
X018387Y010120D01*
X018340Y010098D01*
X018291Y010079D01*
X018241Y010065D01*
X018190Y010054D01*
X018138Y010047D01*
X018086Y010044D01*
X018034Y010045D01*
X017982Y010050D01*
X017931Y010059D01*
X017880Y010072D01*
X017831Y010088D01*
X017782Y010108D01*
X017736Y010132D01*
X017692Y010159D01*
X017649Y010190D01*
X017609Y010223D01*
X017572Y010260D01*
X017538Y010299D01*
X017507Y010341D01*
X017478Y010385D01*
X017454Y010431D01*
X017433Y010478D01*
X017415Y010528D01*
X017402Y010578D01*
X017392Y010629D01*
X017386Y010681D01*
X017384Y010733D01*
X019394Y008347D02*
X019674Y008347D01*
X019534Y013275D02*
X019534Y013555D01*
X019394Y013415D02*
X019674Y013415D01*
D16*
X007630Y007550D03*
X006745Y007550D03*
D17*
X016232Y014341D02*
X016252Y014361D01*
X016402Y014361D01*
X016352Y014761D02*
X016252Y014761D01*
X016232Y014781D01*
D18*
X016467Y014761D03*
X016467Y014361D03*
M02*
