G75*
G70*
%OFA0B0*%
%FSLAX24Y24*%
%IPPOS*%
%LPD*%
%AMOC8*
5,1,8,0,0,1.08239X$1,22.5*
%
%ADD10C,0.0000*%
%ADD11C,0.0051*%
%ADD12C,0.0110*%
D10*
X004848Y006033D02*
X004851Y006033D01*
X021780Y006033D01*
X021784Y006033D01*
X021134Y007407D02*
X021136Y007457D01*
X021142Y007507D01*
X021152Y007557D01*
X021165Y007605D01*
X021182Y007653D01*
X021203Y007699D01*
X021227Y007743D01*
X021255Y007785D01*
X021286Y007825D01*
X021320Y007862D01*
X021357Y007897D01*
X021396Y007928D01*
X021437Y007957D01*
X021481Y007982D01*
X021527Y008004D01*
X021574Y008022D01*
X021622Y008036D01*
X021671Y008047D01*
X021721Y008054D01*
X021771Y008057D01*
X021822Y008056D01*
X021872Y008051D01*
X021922Y008042D01*
X021970Y008030D01*
X022018Y008013D01*
X022064Y007993D01*
X022109Y007970D01*
X022152Y007943D01*
X022192Y007913D01*
X022230Y007880D01*
X022265Y007844D01*
X022298Y007805D01*
X022327Y007764D01*
X022353Y007721D01*
X022376Y007676D01*
X022395Y007629D01*
X022410Y007581D01*
X022422Y007532D01*
X022430Y007482D01*
X022434Y007432D01*
X022434Y007382D01*
X022430Y007332D01*
X022422Y007282D01*
X022410Y007233D01*
X022395Y007185D01*
X022376Y007138D01*
X022353Y007093D01*
X022327Y007050D01*
X022298Y007009D01*
X022265Y006970D01*
X022230Y006934D01*
X022192Y006901D01*
X022152Y006871D01*
X022109Y006844D01*
X022064Y006821D01*
X022018Y006801D01*
X021970Y006784D01*
X021922Y006772D01*
X021872Y006763D01*
X021822Y006758D01*
X021771Y006757D01*
X021721Y006760D01*
X021671Y006767D01*
X021622Y006778D01*
X021574Y006792D01*
X021527Y006810D01*
X021481Y006832D01*
X021437Y006857D01*
X021396Y006886D01*
X021357Y006917D01*
X021320Y006952D01*
X021286Y006989D01*
X021255Y007029D01*
X021227Y007071D01*
X021203Y007115D01*
X021182Y007161D01*
X021165Y007209D01*
X021152Y007257D01*
X021142Y007307D01*
X021136Y007357D01*
X021134Y007407D01*
X021780Y006033D02*
X021852Y006035D01*
X021924Y006041D01*
X021996Y006050D01*
X022067Y006063D01*
X022137Y006080D01*
X022206Y006100D01*
X022274Y006125D01*
X022340Y006152D01*
X022406Y006183D01*
X022469Y006218D01*
X022531Y006255D01*
X022590Y006296D01*
X022647Y006340D01*
X022702Y006387D01*
X022754Y006437D01*
X022804Y006489D01*
X022851Y006544D01*
X022895Y006601D01*
X022936Y006660D01*
X022973Y006722D01*
X023008Y006785D01*
X023039Y006851D01*
X023066Y006917D01*
X023091Y006985D01*
X023111Y007054D01*
X023128Y007124D01*
X023141Y007195D01*
X023150Y007267D01*
X023156Y007339D01*
X023158Y007411D01*
X023158Y014300D01*
X023158Y014307D01*
X021130Y014300D02*
X021132Y014350D01*
X021138Y014400D01*
X021148Y014450D01*
X021161Y014498D01*
X021178Y014546D01*
X021199Y014592D01*
X021223Y014636D01*
X021251Y014678D01*
X021282Y014718D01*
X021316Y014755D01*
X021353Y014790D01*
X021392Y014821D01*
X021433Y014850D01*
X021477Y014875D01*
X021523Y014897D01*
X021570Y014915D01*
X021618Y014929D01*
X021667Y014940D01*
X021717Y014947D01*
X021767Y014950D01*
X021818Y014949D01*
X021868Y014944D01*
X021918Y014935D01*
X021966Y014923D01*
X022014Y014906D01*
X022060Y014886D01*
X022105Y014863D01*
X022148Y014836D01*
X022188Y014806D01*
X022226Y014773D01*
X022261Y014737D01*
X022294Y014698D01*
X022323Y014657D01*
X022349Y014614D01*
X022372Y014569D01*
X022391Y014522D01*
X022406Y014474D01*
X022418Y014425D01*
X022426Y014375D01*
X022430Y014325D01*
X022430Y014275D01*
X022426Y014225D01*
X022418Y014175D01*
X022406Y014126D01*
X022391Y014078D01*
X022372Y014031D01*
X022349Y013986D01*
X022323Y013943D01*
X022294Y013902D01*
X022261Y013863D01*
X022226Y013827D01*
X022188Y013794D01*
X022148Y013764D01*
X022105Y013737D01*
X022060Y013714D01*
X022014Y013694D01*
X021966Y013677D01*
X021918Y013665D01*
X021868Y013656D01*
X021818Y013651D01*
X021767Y013650D01*
X021717Y013653D01*
X021667Y013660D01*
X021618Y013671D01*
X021570Y013685D01*
X021523Y013703D01*
X021477Y013725D01*
X021433Y013750D01*
X021392Y013779D01*
X021353Y013810D01*
X021316Y013845D01*
X021282Y013882D01*
X021251Y013922D01*
X021223Y013964D01*
X021199Y014008D01*
X021178Y014054D01*
X021161Y014102D01*
X021148Y014150D01*
X021138Y014200D01*
X021132Y014250D01*
X021130Y014300D01*
X021780Y015678D02*
X021852Y015676D01*
X021924Y015670D01*
X021996Y015661D01*
X022067Y015648D01*
X022137Y015631D01*
X022206Y015611D01*
X022274Y015586D01*
X022340Y015559D01*
X022406Y015528D01*
X022469Y015493D01*
X022531Y015456D01*
X022590Y015415D01*
X022647Y015371D01*
X022702Y015324D01*
X022754Y015274D01*
X022804Y015222D01*
X022851Y015167D01*
X022895Y015110D01*
X022936Y015051D01*
X022973Y014989D01*
X023008Y014926D01*
X023039Y014860D01*
X023066Y014794D01*
X023091Y014726D01*
X023111Y014657D01*
X023128Y014587D01*
X023141Y014516D01*
X023150Y014444D01*
X023156Y014372D01*
X023158Y014300D01*
X021784Y015678D02*
X021780Y015678D01*
X004851Y015678D01*
X004198Y014304D02*
X004200Y014354D01*
X004206Y014404D01*
X004216Y014454D01*
X004229Y014502D01*
X004246Y014550D01*
X004267Y014596D01*
X004291Y014640D01*
X004319Y014682D01*
X004350Y014722D01*
X004384Y014759D01*
X004421Y014794D01*
X004460Y014825D01*
X004501Y014854D01*
X004545Y014879D01*
X004591Y014901D01*
X004638Y014919D01*
X004686Y014933D01*
X004735Y014944D01*
X004785Y014951D01*
X004835Y014954D01*
X004886Y014953D01*
X004936Y014948D01*
X004986Y014939D01*
X005034Y014927D01*
X005082Y014910D01*
X005128Y014890D01*
X005173Y014867D01*
X005216Y014840D01*
X005256Y014810D01*
X005294Y014777D01*
X005329Y014741D01*
X005362Y014702D01*
X005391Y014661D01*
X005417Y014618D01*
X005440Y014573D01*
X005459Y014526D01*
X005474Y014478D01*
X005486Y014429D01*
X005494Y014379D01*
X005498Y014329D01*
X005498Y014279D01*
X005494Y014229D01*
X005486Y014179D01*
X005474Y014130D01*
X005459Y014082D01*
X005440Y014035D01*
X005417Y013990D01*
X005391Y013947D01*
X005362Y013906D01*
X005329Y013867D01*
X005294Y013831D01*
X005256Y013798D01*
X005216Y013768D01*
X005173Y013741D01*
X005128Y013718D01*
X005082Y013698D01*
X005034Y013681D01*
X004986Y013669D01*
X004936Y013660D01*
X004886Y013655D01*
X004835Y013654D01*
X004785Y013657D01*
X004735Y013664D01*
X004686Y013675D01*
X004638Y013689D01*
X004591Y013707D01*
X004545Y013729D01*
X004501Y013754D01*
X004460Y013783D01*
X004421Y013814D01*
X004384Y013849D01*
X004350Y013886D01*
X004319Y013926D01*
X004291Y013968D01*
X004267Y014012D01*
X004246Y014058D01*
X004229Y014106D01*
X004216Y014154D01*
X004206Y014204D01*
X004200Y014254D01*
X004198Y014304D01*
X003473Y014300D02*
X003475Y014372D01*
X003481Y014444D01*
X003490Y014516D01*
X003503Y014587D01*
X003520Y014657D01*
X003540Y014726D01*
X003565Y014794D01*
X003592Y014860D01*
X003623Y014926D01*
X003658Y014989D01*
X003695Y015051D01*
X003736Y015110D01*
X003780Y015167D01*
X003827Y015222D01*
X003877Y015274D01*
X003929Y015324D01*
X003984Y015371D01*
X004041Y015415D01*
X004100Y015456D01*
X004162Y015493D01*
X004225Y015528D01*
X004291Y015559D01*
X004357Y015586D01*
X004425Y015611D01*
X004494Y015631D01*
X004564Y015648D01*
X004635Y015661D01*
X004707Y015670D01*
X004779Y015676D01*
X004851Y015678D01*
X003473Y014304D02*
X003473Y014300D01*
X003473Y007450D01*
X003473Y007407D01*
X004198Y007407D02*
X004200Y007457D01*
X004206Y007507D01*
X004216Y007557D01*
X004229Y007605D01*
X004246Y007653D01*
X004267Y007699D01*
X004291Y007743D01*
X004319Y007785D01*
X004350Y007825D01*
X004384Y007862D01*
X004421Y007897D01*
X004460Y007928D01*
X004501Y007957D01*
X004545Y007982D01*
X004591Y008004D01*
X004638Y008022D01*
X004686Y008036D01*
X004735Y008047D01*
X004785Y008054D01*
X004835Y008057D01*
X004886Y008056D01*
X004936Y008051D01*
X004986Y008042D01*
X005034Y008030D01*
X005082Y008013D01*
X005128Y007993D01*
X005173Y007970D01*
X005216Y007943D01*
X005256Y007913D01*
X005294Y007880D01*
X005329Y007844D01*
X005362Y007805D01*
X005391Y007764D01*
X005417Y007721D01*
X005440Y007676D01*
X005459Y007629D01*
X005474Y007581D01*
X005486Y007532D01*
X005494Y007482D01*
X005498Y007432D01*
X005498Y007382D01*
X005494Y007332D01*
X005486Y007282D01*
X005474Y007233D01*
X005459Y007185D01*
X005440Y007138D01*
X005417Y007093D01*
X005391Y007050D01*
X005362Y007009D01*
X005329Y006970D01*
X005294Y006934D01*
X005256Y006901D01*
X005216Y006871D01*
X005173Y006844D01*
X005128Y006821D01*
X005082Y006801D01*
X005034Y006784D01*
X004986Y006772D01*
X004936Y006763D01*
X004886Y006758D01*
X004835Y006757D01*
X004785Y006760D01*
X004735Y006767D01*
X004686Y006778D01*
X004638Y006792D01*
X004591Y006810D01*
X004545Y006832D01*
X004501Y006857D01*
X004460Y006886D01*
X004421Y006917D01*
X004384Y006952D01*
X004350Y006989D01*
X004319Y007029D01*
X004291Y007071D01*
X004267Y007115D01*
X004246Y007161D01*
X004229Y007209D01*
X004216Y007257D01*
X004206Y007307D01*
X004200Y007357D01*
X004198Y007407D01*
X003473Y007450D02*
X003474Y007377D01*
X003479Y007303D01*
X003487Y007231D01*
X003500Y007159D01*
X003516Y007087D01*
X003535Y007017D01*
X003559Y006947D01*
X003586Y006879D01*
X003617Y006813D01*
X003651Y006748D01*
X003688Y006685D01*
X003729Y006624D01*
X003772Y006566D01*
X003819Y006509D01*
X003869Y006455D01*
X003921Y006404D01*
X003976Y006356D01*
X004033Y006311D01*
X004093Y006268D01*
X004155Y006229D01*
X004219Y006193D01*
X004284Y006161D01*
X004352Y006132D01*
X004420Y006107D01*
X004490Y006085D01*
X004561Y006067D01*
X004633Y006052D01*
X004705Y006042D01*
X004778Y006035D01*
X004851Y006032D01*
X004655Y008883D02*
X004657Y008913D01*
X004663Y008943D01*
X004672Y008972D01*
X004685Y008999D01*
X004702Y009024D01*
X004721Y009047D01*
X004744Y009068D01*
X004769Y009085D01*
X004795Y009099D01*
X004824Y009109D01*
X004853Y009116D01*
X004883Y009119D01*
X004914Y009118D01*
X004944Y009113D01*
X004973Y009104D01*
X005000Y009092D01*
X005026Y009077D01*
X005050Y009058D01*
X005071Y009036D01*
X005089Y009012D01*
X005104Y008985D01*
X005115Y008957D01*
X005123Y008928D01*
X005127Y008898D01*
X005127Y008868D01*
X005123Y008838D01*
X005115Y008809D01*
X005104Y008781D01*
X005089Y008754D01*
X005071Y008730D01*
X005050Y008708D01*
X005026Y008689D01*
X005000Y008674D01*
X004973Y008662D01*
X004944Y008653D01*
X004914Y008648D01*
X004883Y008647D01*
X004853Y008650D01*
X004824Y008657D01*
X004795Y008667D01*
X004769Y008681D01*
X004744Y008698D01*
X004721Y008719D01*
X004702Y008742D01*
X004685Y008767D01*
X004672Y008794D01*
X004663Y008823D01*
X004657Y008853D01*
X004655Y008883D01*
X003670Y008883D02*
X003672Y008913D01*
X003678Y008943D01*
X003687Y008972D01*
X003700Y008999D01*
X003717Y009024D01*
X003736Y009047D01*
X003759Y009068D01*
X003784Y009085D01*
X003810Y009099D01*
X003839Y009109D01*
X003868Y009116D01*
X003898Y009119D01*
X003929Y009118D01*
X003959Y009113D01*
X003988Y009104D01*
X004015Y009092D01*
X004041Y009077D01*
X004065Y009058D01*
X004086Y009036D01*
X004104Y009012D01*
X004119Y008985D01*
X004130Y008957D01*
X004138Y008928D01*
X004142Y008898D01*
X004142Y008868D01*
X004138Y008838D01*
X004130Y008809D01*
X004119Y008781D01*
X004104Y008754D01*
X004086Y008730D01*
X004065Y008708D01*
X004041Y008689D01*
X004015Y008674D01*
X003988Y008662D01*
X003959Y008653D01*
X003929Y008648D01*
X003898Y008647D01*
X003868Y008650D01*
X003839Y008657D01*
X003810Y008667D01*
X003784Y008681D01*
X003759Y008698D01*
X003736Y008719D01*
X003717Y008742D01*
X003700Y008767D01*
X003687Y008794D01*
X003678Y008823D01*
X003672Y008853D01*
X003670Y008883D01*
X006623Y010852D02*
X006625Y010882D01*
X006631Y010912D01*
X006640Y010941D01*
X006653Y010968D01*
X006670Y010993D01*
X006689Y011016D01*
X006712Y011037D01*
X006737Y011054D01*
X006763Y011068D01*
X006792Y011078D01*
X006821Y011085D01*
X006851Y011088D01*
X006882Y011087D01*
X006912Y011082D01*
X006941Y011073D01*
X006968Y011061D01*
X006994Y011046D01*
X007018Y011027D01*
X007039Y011005D01*
X007057Y010981D01*
X007072Y010954D01*
X007083Y010926D01*
X007091Y010897D01*
X007095Y010867D01*
X007095Y010837D01*
X007091Y010807D01*
X007083Y010778D01*
X007072Y010750D01*
X007057Y010723D01*
X007039Y010699D01*
X007018Y010677D01*
X006994Y010658D01*
X006968Y010643D01*
X006941Y010631D01*
X006912Y010622D01*
X006882Y010617D01*
X006851Y010616D01*
X006821Y010619D01*
X006792Y010626D01*
X006763Y010636D01*
X006737Y010650D01*
X006712Y010667D01*
X006689Y010688D01*
X006670Y010711D01*
X006653Y010736D01*
X006640Y010763D01*
X006631Y010792D01*
X006625Y010822D01*
X006623Y010852D01*
X004655Y012820D02*
X004657Y012850D01*
X004663Y012880D01*
X004672Y012909D01*
X004685Y012936D01*
X004702Y012961D01*
X004721Y012984D01*
X004744Y013005D01*
X004769Y013022D01*
X004795Y013036D01*
X004824Y013046D01*
X004853Y013053D01*
X004883Y013056D01*
X004914Y013055D01*
X004944Y013050D01*
X004973Y013041D01*
X005000Y013029D01*
X005026Y013014D01*
X005050Y012995D01*
X005071Y012973D01*
X005089Y012949D01*
X005104Y012922D01*
X005115Y012894D01*
X005123Y012865D01*
X005127Y012835D01*
X005127Y012805D01*
X005123Y012775D01*
X005115Y012746D01*
X005104Y012718D01*
X005089Y012691D01*
X005071Y012667D01*
X005050Y012645D01*
X005026Y012626D01*
X005000Y012611D01*
X004973Y012599D01*
X004944Y012590D01*
X004914Y012585D01*
X004883Y012584D01*
X004853Y012587D01*
X004824Y012594D01*
X004795Y012604D01*
X004769Y012618D01*
X004744Y012635D01*
X004721Y012656D01*
X004702Y012679D01*
X004685Y012704D01*
X004672Y012731D01*
X004663Y012760D01*
X004657Y012790D01*
X004655Y012820D01*
X003670Y012820D02*
X003672Y012850D01*
X003678Y012880D01*
X003687Y012909D01*
X003700Y012936D01*
X003717Y012961D01*
X003736Y012984D01*
X003759Y013005D01*
X003784Y013022D01*
X003810Y013036D01*
X003839Y013046D01*
X003868Y013053D01*
X003898Y013056D01*
X003929Y013055D01*
X003959Y013050D01*
X003988Y013041D01*
X004015Y013029D01*
X004041Y013014D01*
X004065Y012995D01*
X004086Y012973D01*
X004104Y012949D01*
X004119Y012922D01*
X004130Y012894D01*
X004138Y012865D01*
X004142Y012835D01*
X004142Y012805D01*
X004138Y012775D01*
X004130Y012746D01*
X004119Y012718D01*
X004104Y012691D01*
X004086Y012667D01*
X004065Y012645D01*
X004041Y012626D01*
X004015Y012611D01*
X003988Y012599D01*
X003959Y012590D01*
X003929Y012585D01*
X003898Y012584D01*
X003868Y012587D01*
X003839Y012594D01*
X003810Y012604D01*
X003784Y012618D01*
X003759Y012635D01*
X003736Y012656D01*
X003717Y012679D01*
X003700Y012704D01*
X003687Y012731D01*
X003678Y012760D01*
X003672Y012790D01*
X003670Y012820D01*
D11*
X000916Y006024D02*
X000927Y001163D01*
X000867Y005000D02*
X000916Y006024D01*
X000816Y005000D01*
X000793Y005000D02*
X000916Y006024D01*
X001021Y005000D01*
X001044Y005000D02*
X000793Y005000D01*
X000970Y005000D02*
X000916Y006024D01*
X001044Y005000D01*
X000129Y006022D02*
X004851Y006033D01*
X004848Y007407D02*
X000126Y007397D01*
X000913Y007398D02*
X000808Y008422D01*
X000785Y008422D02*
X000913Y007398D01*
X001013Y008422D01*
X001036Y008422D02*
X000785Y008422D01*
X000859Y008422D02*
X000913Y007398D01*
X000962Y008422D01*
X001036Y008422D02*
X000913Y007398D01*
X000908Y009446D01*
X003473Y014300D02*
X003473Y019418D01*
X003473Y018631D02*
X004497Y018733D01*
X004497Y018757D02*
X004497Y018505D01*
X003473Y018631D01*
X004497Y018529D01*
X004497Y018580D02*
X003473Y018631D01*
X004497Y018682D01*
X004497Y018757D02*
X003473Y018631D01*
X023158Y018631D01*
X022135Y018529D01*
X022135Y018505D02*
X023158Y018631D01*
X022135Y018733D01*
X022135Y018757D02*
X022135Y018505D01*
X022135Y018580D02*
X023158Y018631D01*
X022135Y018682D01*
X022135Y018757D02*
X023158Y018631D01*
X023158Y019418D02*
X023158Y014300D01*
X023158Y013415D02*
X027489Y013415D01*
X026702Y013415D02*
X026804Y012391D01*
X026827Y012391D02*
X026702Y013415D01*
X026599Y012391D01*
X026576Y012391D02*
X026827Y012391D01*
X026753Y012391D02*
X026702Y013415D01*
X026651Y012391D01*
X026576Y012391D02*
X026702Y013415D01*
X026702Y008296D01*
X026804Y009320D01*
X026827Y009320D02*
X026702Y008296D01*
X026599Y009320D01*
X026576Y009320D02*
X026827Y009320D01*
X026753Y009320D02*
X026702Y008296D01*
X026651Y009320D01*
X026576Y009320D02*
X026702Y008296D01*
X027489Y008296D02*
X023158Y008296D01*
X021780Y006033D02*
X031032Y006033D01*
X030245Y006033D02*
X030347Y007056D01*
X030371Y007056D02*
X030245Y006033D01*
X030143Y007056D01*
X030119Y007056D02*
X030371Y007056D01*
X030296Y007056D02*
X030245Y006033D01*
X030194Y007056D01*
X030119Y007056D02*
X030245Y006033D01*
X030245Y015678D01*
X030347Y014655D01*
X030371Y014655D02*
X030245Y015678D01*
X030143Y014655D01*
X030119Y014655D02*
X030371Y014655D01*
X030296Y014655D02*
X030245Y015678D01*
X030194Y014655D01*
X030119Y014655D02*
X030245Y015678D01*
X031032Y015678D02*
X021780Y015678D01*
D12*
X025195Y011929D02*
X025407Y011929D01*
X025618Y011717D01*
X025830Y011929D01*
X026042Y011929D01*
X026253Y011717D01*
X026253Y011294D01*
X026042Y011083D01*
X026253Y010660D02*
X026253Y009814D01*
X026253Y010237D02*
X024984Y010237D01*
X025407Y009814D01*
X025195Y011083D02*
X024984Y011294D01*
X024984Y011717D01*
X025195Y011929D01*
X025618Y011717D02*
X025618Y011506D01*
X028527Y010895D02*
X029162Y010261D01*
X029162Y011107D01*
X029796Y010895D02*
X028527Y010895D01*
X029585Y011529D02*
X029585Y011741D01*
X029796Y011741D01*
X029796Y011529D01*
X029585Y011529D01*
X029585Y012164D02*
X029796Y012375D01*
X029796Y012798D01*
X029585Y013010D01*
X029162Y013010D01*
X028950Y012798D01*
X028950Y012587D01*
X029162Y012164D01*
X028527Y012164D01*
X028527Y013010D01*
X028739Y009838D02*
X028527Y009626D01*
X028527Y009203D01*
X028739Y008992D01*
X028950Y009838D02*
X029796Y008992D01*
X029796Y009838D01*
X028950Y009838D02*
X028739Y009838D01*
X014389Y019291D02*
X014178Y019080D01*
X013755Y019080D01*
X013543Y019291D01*
X014389Y020137D01*
X014389Y019291D01*
X013543Y019291D02*
X013543Y020137D01*
X013755Y020349D01*
X014178Y020349D01*
X014389Y020137D01*
X013121Y020349D02*
X012274Y020349D01*
X012274Y019714D01*
X012697Y019926D01*
X012909Y019926D01*
X013121Y019714D01*
X013121Y019291D01*
X012909Y019080D01*
X012486Y019080D01*
X012274Y019291D01*
X002425Y004948D02*
X002637Y004737D01*
X002637Y004314D01*
X002426Y004102D01*
X002215Y004101D01*
X002003Y004313D01*
X001792Y004101D01*
X001580Y004100D01*
X001368Y004311D01*
X001368Y004735D01*
X001579Y004946D01*
X002003Y004524D02*
X002003Y004313D01*
X001581Y003678D02*
X001369Y003677D01*
X001370Y003466D01*
X001581Y003466D01*
X001581Y003678D01*
X002005Y003044D02*
X002007Y002198D01*
X002219Y001775D02*
X002008Y001564D01*
X002009Y000929D01*
X001586Y000928D02*
X002432Y000930D01*
X002643Y001142D01*
X002642Y001565D01*
X002430Y001776D01*
X002219Y001775D01*
X001584Y001774D02*
X001373Y001563D01*
X001374Y001139D01*
X001586Y000928D01*
X001372Y002408D02*
X002641Y002411D01*
X002005Y003044D01*
M02*
