G75*
G70*
%OFA0B0*%
%FSLAX24Y24*%
%IPPOS*%
%LPD*%
%AMOC8*
5,1,8,0,0,1.08239X$1,22.5*
%
%ADD10C,0.0000*%
%ADD11C,0.0886*%
%ADD12OC8,0.0740*%
%ADD13C,0.0768*%
%ADD14C,0.0480*%
%ADD15R,0.0740X0.0740*%
%ADD16C,0.0740*%
%ADD17C,0.0591*%
%ADD18OC8,0.1000*%
%ADD19C,0.0120*%
%ADD20R,0.0356X0.0356*%
%ADD21C,0.0100*%
%ADD22C,0.0160*%
D10*
X002657Y001292D02*
X002660Y001292D01*
X019195Y001292D01*
X019198Y001292D01*
X018548Y002667D02*
X018550Y002717D01*
X018556Y002767D01*
X018566Y002817D01*
X018579Y002865D01*
X018596Y002913D01*
X018617Y002959D01*
X018641Y003003D01*
X018669Y003045D01*
X018700Y003085D01*
X018734Y003122D01*
X018771Y003157D01*
X018810Y003188D01*
X018851Y003217D01*
X018895Y003242D01*
X018941Y003264D01*
X018988Y003282D01*
X019036Y003296D01*
X019085Y003307D01*
X019135Y003314D01*
X019185Y003317D01*
X019236Y003316D01*
X019286Y003311D01*
X019336Y003302D01*
X019384Y003290D01*
X019432Y003273D01*
X019478Y003253D01*
X019523Y003230D01*
X019566Y003203D01*
X019606Y003173D01*
X019644Y003140D01*
X019679Y003104D01*
X019712Y003065D01*
X019741Y003024D01*
X019767Y002981D01*
X019790Y002936D01*
X019809Y002889D01*
X019824Y002841D01*
X019836Y002792D01*
X019844Y002742D01*
X019848Y002692D01*
X019848Y002642D01*
X019844Y002592D01*
X019836Y002542D01*
X019824Y002493D01*
X019809Y002445D01*
X019790Y002398D01*
X019767Y002353D01*
X019741Y002310D01*
X019712Y002269D01*
X019679Y002230D01*
X019644Y002194D01*
X019606Y002161D01*
X019566Y002131D01*
X019523Y002104D01*
X019478Y002081D01*
X019432Y002061D01*
X019384Y002044D01*
X019336Y002032D01*
X019286Y002023D01*
X019236Y002018D01*
X019185Y002017D01*
X019135Y002020D01*
X019085Y002027D01*
X019036Y002038D01*
X018988Y002052D01*
X018941Y002070D01*
X018895Y002092D01*
X018851Y002117D01*
X018810Y002146D01*
X018771Y002177D01*
X018734Y002212D01*
X018700Y002249D01*
X018669Y002289D01*
X018641Y002331D01*
X018617Y002375D01*
X018596Y002421D01*
X018579Y002469D01*
X018566Y002517D01*
X018556Y002567D01*
X018550Y002617D01*
X018548Y002667D01*
X019195Y001292D02*
X019267Y001294D01*
X019339Y001300D01*
X019411Y001309D01*
X019482Y001322D01*
X019552Y001339D01*
X019621Y001359D01*
X019689Y001384D01*
X019755Y001411D01*
X019821Y001442D01*
X019884Y001477D01*
X019946Y001514D01*
X020005Y001555D01*
X020062Y001599D01*
X020117Y001646D01*
X020169Y001696D01*
X020219Y001748D01*
X020266Y001803D01*
X020310Y001860D01*
X020351Y001919D01*
X020388Y001981D01*
X020423Y002044D01*
X020454Y002110D01*
X020481Y002176D01*
X020506Y002244D01*
X020526Y002313D01*
X020543Y002383D01*
X020556Y002454D01*
X020565Y002526D01*
X020571Y002598D01*
X020573Y002670D01*
X020573Y009560D01*
X018545Y009560D02*
X018547Y009610D01*
X018553Y009660D01*
X018563Y009710D01*
X018576Y009758D01*
X018593Y009806D01*
X018614Y009852D01*
X018638Y009896D01*
X018666Y009938D01*
X018697Y009978D01*
X018731Y010015D01*
X018768Y010050D01*
X018807Y010081D01*
X018848Y010110D01*
X018892Y010135D01*
X018938Y010157D01*
X018985Y010175D01*
X019033Y010189D01*
X019082Y010200D01*
X019132Y010207D01*
X019182Y010210D01*
X019233Y010209D01*
X019283Y010204D01*
X019333Y010195D01*
X019381Y010183D01*
X019429Y010166D01*
X019475Y010146D01*
X019520Y010123D01*
X019563Y010096D01*
X019603Y010066D01*
X019641Y010033D01*
X019676Y009997D01*
X019709Y009958D01*
X019738Y009917D01*
X019764Y009874D01*
X019787Y009829D01*
X019806Y009782D01*
X019821Y009734D01*
X019833Y009685D01*
X019841Y009635D01*
X019845Y009585D01*
X019845Y009535D01*
X019841Y009485D01*
X019833Y009435D01*
X019821Y009386D01*
X019806Y009338D01*
X019787Y009291D01*
X019764Y009246D01*
X019738Y009203D01*
X019709Y009162D01*
X019676Y009123D01*
X019641Y009087D01*
X019603Y009054D01*
X019563Y009024D01*
X019520Y008997D01*
X019475Y008974D01*
X019429Y008954D01*
X019381Y008937D01*
X019333Y008925D01*
X019283Y008916D01*
X019233Y008911D01*
X019182Y008910D01*
X019132Y008913D01*
X019082Y008920D01*
X019033Y008931D01*
X018985Y008945D01*
X018938Y008963D01*
X018892Y008985D01*
X018848Y009010D01*
X018807Y009039D01*
X018768Y009070D01*
X018731Y009105D01*
X018697Y009142D01*
X018666Y009182D01*
X018638Y009224D01*
X018614Y009268D01*
X018593Y009314D01*
X018576Y009362D01*
X018563Y009410D01*
X018553Y009460D01*
X018547Y009510D01*
X018545Y009560D01*
X019195Y010938D02*
X019267Y010936D01*
X019339Y010930D01*
X019411Y010921D01*
X019482Y010908D01*
X019552Y010891D01*
X019621Y010871D01*
X019689Y010846D01*
X019755Y010819D01*
X019821Y010788D01*
X019884Y010753D01*
X019946Y010716D01*
X020005Y010675D01*
X020062Y010631D01*
X020117Y010584D01*
X020169Y010534D01*
X020219Y010482D01*
X020266Y010427D01*
X020310Y010370D01*
X020351Y010311D01*
X020388Y010249D01*
X020423Y010186D01*
X020454Y010120D01*
X020481Y010054D01*
X020506Y009986D01*
X020526Y009917D01*
X020543Y009847D01*
X020556Y009776D01*
X020565Y009704D01*
X020571Y009632D01*
X020573Y009560D01*
X019195Y010938D02*
X002660Y010938D01*
X002007Y009563D02*
X002009Y009613D01*
X002015Y009663D01*
X002025Y009713D01*
X002038Y009761D01*
X002055Y009809D01*
X002076Y009855D01*
X002100Y009899D01*
X002128Y009941D01*
X002159Y009981D01*
X002193Y010018D01*
X002230Y010053D01*
X002269Y010084D01*
X002310Y010113D01*
X002354Y010138D01*
X002400Y010160D01*
X002447Y010178D01*
X002495Y010192D01*
X002544Y010203D01*
X002594Y010210D01*
X002644Y010213D01*
X002695Y010212D01*
X002745Y010207D01*
X002795Y010198D01*
X002843Y010186D01*
X002891Y010169D01*
X002937Y010149D01*
X002982Y010126D01*
X003025Y010099D01*
X003065Y010069D01*
X003103Y010036D01*
X003138Y010000D01*
X003171Y009961D01*
X003200Y009920D01*
X003226Y009877D01*
X003249Y009832D01*
X003268Y009785D01*
X003283Y009737D01*
X003295Y009688D01*
X003303Y009638D01*
X003307Y009588D01*
X003307Y009538D01*
X003303Y009488D01*
X003295Y009438D01*
X003283Y009389D01*
X003268Y009341D01*
X003249Y009294D01*
X003226Y009249D01*
X003200Y009206D01*
X003171Y009165D01*
X003138Y009126D01*
X003103Y009090D01*
X003065Y009057D01*
X003025Y009027D01*
X002982Y009000D01*
X002937Y008977D01*
X002891Y008957D01*
X002843Y008940D01*
X002795Y008928D01*
X002745Y008919D01*
X002695Y008914D01*
X002644Y008913D01*
X002594Y008916D01*
X002544Y008923D01*
X002495Y008934D01*
X002447Y008948D01*
X002400Y008966D01*
X002354Y008988D01*
X002310Y009013D01*
X002269Y009042D01*
X002230Y009073D01*
X002193Y009108D01*
X002159Y009145D01*
X002128Y009185D01*
X002100Y009227D01*
X002076Y009271D01*
X002055Y009317D01*
X002038Y009365D01*
X002025Y009413D01*
X002015Y009463D01*
X002009Y009513D01*
X002007Y009563D01*
X001282Y009560D02*
X001284Y009632D01*
X001290Y009704D01*
X001299Y009776D01*
X001312Y009847D01*
X001329Y009917D01*
X001349Y009986D01*
X001374Y010054D01*
X001401Y010120D01*
X001432Y010186D01*
X001467Y010249D01*
X001504Y010311D01*
X001545Y010370D01*
X001589Y010427D01*
X001636Y010482D01*
X001686Y010534D01*
X001738Y010584D01*
X001793Y010631D01*
X001850Y010675D01*
X001909Y010716D01*
X001971Y010753D01*
X002034Y010788D01*
X002100Y010819D01*
X002166Y010846D01*
X002234Y010871D01*
X002303Y010891D01*
X002373Y010908D01*
X002444Y010921D01*
X002516Y010930D01*
X002588Y010936D01*
X002660Y010938D01*
X001282Y009563D02*
X001282Y009560D01*
X001282Y002710D01*
X001282Y002667D01*
X002007Y002667D02*
X002009Y002717D01*
X002015Y002767D01*
X002025Y002817D01*
X002038Y002865D01*
X002055Y002913D01*
X002076Y002959D01*
X002100Y003003D01*
X002128Y003045D01*
X002159Y003085D01*
X002193Y003122D01*
X002230Y003157D01*
X002269Y003188D01*
X002310Y003217D01*
X002354Y003242D01*
X002400Y003264D01*
X002447Y003282D01*
X002495Y003296D01*
X002544Y003307D01*
X002594Y003314D01*
X002644Y003317D01*
X002695Y003316D01*
X002745Y003311D01*
X002795Y003302D01*
X002843Y003290D01*
X002891Y003273D01*
X002937Y003253D01*
X002982Y003230D01*
X003025Y003203D01*
X003065Y003173D01*
X003103Y003140D01*
X003138Y003104D01*
X003171Y003065D01*
X003200Y003024D01*
X003226Y002981D01*
X003249Y002936D01*
X003268Y002889D01*
X003283Y002841D01*
X003295Y002792D01*
X003303Y002742D01*
X003307Y002692D01*
X003307Y002642D01*
X003303Y002592D01*
X003295Y002542D01*
X003283Y002493D01*
X003268Y002445D01*
X003249Y002398D01*
X003226Y002353D01*
X003200Y002310D01*
X003171Y002269D01*
X003138Y002230D01*
X003103Y002194D01*
X003065Y002161D01*
X003025Y002131D01*
X002982Y002104D01*
X002937Y002081D01*
X002891Y002061D01*
X002843Y002044D01*
X002795Y002032D01*
X002745Y002023D01*
X002695Y002018D01*
X002644Y002017D01*
X002594Y002020D01*
X002544Y002027D01*
X002495Y002038D01*
X002447Y002052D01*
X002400Y002070D01*
X002354Y002092D01*
X002310Y002117D01*
X002269Y002146D01*
X002230Y002177D01*
X002193Y002212D01*
X002159Y002249D01*
X002128Y002289D01*
X002100Y002331D01*
X002076Y002375D01*
X002055Y002421D01*
X002038Y002469D01*
X002025Y002517D01*
X002015Y002567D01*
X002009Y002617D01*
X002007Y002667D01*
X001281Y002710D02*
X001282Y002637D01*
X001287Y002563D01*
X001295Y002491D01*
X001308Y002419D01*
X001324Y002347D01*
X001343Y002277D01*
X001367Y002207D01*
X001394Y002139D01*
X001425Y002073D01*
X001459Y002008D01*
X001496Y001945D01*
X001537Y001884D01*
X001580Y001826D01*
X001627Y001769D01*
X001677Y001715D01*
X001729Y001664D01*
X001784Y001616D01*
X001841Y001571D01*
X001901Y001528D01*
X001963Y001489D01*
X002027Y001453D01*
X002092Y001421D01*
X002160Y001392D01*
X002228Y001367D01*
X002298Y001345D01*
X002369Y001327D01*
X002441Y001312D01*
X002513Y001302D01*
X002586Y001295D01*
X002659Y001292D01*
X002463Y004143D02*
X002465Y004173D01*
X002471Y004203D01*
X002480Y004232D01*
X002493Y004259D01*
X002510Y004284D01*
X002529Y004307D01*
X002552Y004328D01*
X002577Y004345D01*
X002603Y004359D01*
X002632Y004369D01*
X002661Y004376D01*
X002691Y004379D01*
X002722Y004378D01*
X002752Y004373D01*
X002781Y004364D01*
X002808Y004352D01*
X002834Y004337D01*
X002858Y004318D01*
X002879Y004296D01*
X002897Y004272D01*
X002912Y004245D01*
X002923Y004217D01*
X002931Y004188D01*
X002935Y004158D01*
X002935Y004128D01*
X002931Y004098D01*
X002923Y004069D01*
X002912Y004041D01*
X002897Y004014D01*
X002879Y003990D01*
X002858Y003968D01*
X002834Y003949D01*
X002808Y003934D01*
X002781Y003922D01*
X002752Y003913D01*
X002722Y003908D01*
X002691Y003907D01*
X002661Y003910D01*
X002632Y003917D01*
X002603Y003927D01*
X002577Y003941D01*
X002552Y003958D01*
X002529Y003979D01*
X002510Y004002D01*
X002493Y004027D01*
X002480Y004054D01*
X002471Y004083D01*
X002465Y004113D01*
X002463Y004143D01*
X001479Y004143D02*
X001481Y004173D01*
X001487Y004203D01*
X001496Y004232D01*
X001509Y004259D01*
X001526Y004284D01*
X001545Y004307D01*
X001568Y004328D01*
X001593Y004345D01*
X001619Y004359D01*
X001648Y004369D01*
X001677Y004376D01*
X001707Y004379D01*
X001738Y004378D01*
X001768Y004373D01*
X001797Y004364D01*
X001824Y004352D01*
X001850Y004337D01*
X001874Y004318D01*
X001895Y004296D01*
X001913Y004272D01*
X001928Y004245D01*
X001939Y004217D01*
X001947Y004188D01*
X001951Y004158D01*
X001951Y004128D01*
X001947Y004098D01*
X001939Y004069D01*
X001928Y004041D01*
X001913Y004014D01*
X001895Y003990D01*
X001874Y003968D01*
X001850Y003949D01*
X001824Y003934D01*
X001797Y003922D01*
X001768Y003913D01*
X001738Y003908D01*
X001707Y003907D01*
X001677Y003910D01*
X001648Y003917D01*
X001619Y003927D01*
X001593Y003941D01*
X001568Y003958D01*
X001545Y003979D01*
X001526Y004002D01*
X001509Y004027D01*
X001496Y004054D01*
X001487Y004083D01*
X001481Y004113D01*
X001479Y004143D01*
X004432Y006111D02*
X004434Y006141D01*
X004440Y006171D01*
X004449Y006200D01*
X004462Y006227D01*
X004479Y006252D01*
X004498Y006275D01*
X004521Y006296D01*
X004546Y006313D01*
X004572Y006327D01*
X004601Y006337D01*
X004630Y006344D01*
X004660Y006347D01*
X004691Y006346D01*
X004721Y006341D01*
X004750Y006332D01*
X004777Y006320D01*
X004803Y006305D01*
X004827Y006286D01*
X004848Y006264D01*
X004866Y006240D01*
X004881Y006213D01*
X004892Y006185D01*
X004900Y006156D01*
X004904Y006126D01*
X004904Y006096D01*
X004900Y006066D01*
X004892Y006037D01*
X004881Y006009D01*
X004866Y005982D01*
X004848Y005958D01*
X004827Y005936D01*
X004803Y005917D01*
X004777Y005902D01*
X004750Y005890D01*
X004721Y005881D01*
X004691Y005876D01*
X004660Y005875D01*
X004630Y005878D01*
X004601Y005885D01*
X004572Y005895D01*
X004546Y005909D01*
X004521Y005926D01*
X004498Y005947D01*
X004479Y005970D01*
X004462Y005995D01*
X004449Y006022D01*
X004440Y006051D01*
X004434Y006081D01*
X004432Y006111D01*
X002463Y008080D02*
X002465Y008110D01*
X002471Y008140D01*
X002480Y008169D01*
X002493Y008196D01*
X002510Y008221D01*
X002529Y008244D01*
X002552Y008265D01*
X002577Y008282D01*
X002603Y008296D01*
X002632Y008306D01*
X002661Y008313D01*
X002691Y008316D01*
X002722Y008315D01*
X002752Y008310D01*
X002781Y008301D01*
X002808Y008289D01*
X002834Y008274D01*
X002858Y008255D01*
X002879Y008233D01*
X002897Y008209D01*
X002912Y008182D01*
X002923Y008154D01*
X002931Y008125D01*
X002935Y008095D01*
X002935Y008065D01*
X002931Y008035D01*
X002923Y008006D01*
X002912Y007978D01*
X002897Y007951D01*
X002879Y007927D01*
X002858Y007905D01*
X002834Y007886D01*
X002808Y007871D01*
X002781Y007859D01*
X002752Y007850D01*
X002722Y007845D01*
X002691Y007844D01*
X002661Y007847D01*
X002632Y007854D01*
X002603Y007864D01*
X002577Y007878D01*
X002552Y007895D01*
X002529Y007916D01*
X002510Y007939D01*
X002493Y007964D01*
X002480Y007991D01*
X002471Y008020D01*
X002465Y008050D01*
X002463Y008080D01*
X001479Y008080D02*
X001481Y008110D01*
X001487Y008140D01*
X001496Y008169D01*
X001509Y008196D01*
X001526Y008221D01*
X001545Y008244D01*
X001568Y008265D01*
X001593Y008282D01*
X001619Y008296D01*
X001648Y008306D01*
X001677Y008313D01*
X001707Y008316D01*
X001738Y008315D01*
X001768Y008310D01*
X001797Y008301D01*
X001824Y008289D01*
X001850Y008274D01*
X001874Y008255D01*
X001895Y008233D01*
X001913Y008209D01*
X001928Y008182D01*
X001939Y008154D01*
X001947Y008125D01*
X001951Y008095D01*
X001951Y008065D01*
X001947Y008035D01*
X001939Y008006D01*
X001928Y007978D01*
X001913Y007951D01*
X001895Y007927D01*
X001874Y007905D01*
X001850Y007886D01*
X001824Y007871D01*
X001797Y007859D01*
X001768Y007850D01*
X001738Y007845D01*
X001707Y007844D01*
X001677Y007847D01*
X001648Y007854D01*
X001619Y007864D01*
X001593Y007878D01*
X001568Y007895D01*
X001545Y007916D01*
X001526Y007939D01*
X001509Y007964D01*
X001496Y007991D01*
X001487Y008020D01*
X001481Y008050D01*
X001479Y008080D01*
D11*
X004668Y008080D03*
X004668Y007095D03*
X002699Y006111D03*
X004668Y005127D03*
X004668Y004143D03*
D12*
X018396Y004608D03*
X019396Y004608D03*
X019396Y005608D03*
X018396Y005608D03*
X018396Y006608D03*
X019396Y006608D03*
X019396Y007608D03*
X018396Y007608D03*
D13*
X013401Y008158D03*
X006582Y004221D03*
D14*
X013760Y009321D03*
X013760Y010321D03*
D15*
X004226Y009771D03*
D16*
X005226Y009771D03*
X006226Y009771D03*
X007226Y009771D03*
X003702Y007082D03*
X003702Y006082D03*
X003702Y005082D03*
X012713Y002468D03*
X013713Y002468D03*
X014713Y002468D03*
X015713Y002468D03*
X016713Y002468D03*
X017713Y002468D03*
D17*
X016768Y004417D02*
X016768Y005008D01*
X014996Y005008D02*
X014996Y004417D01*
X014996Y006976D02*
X014996Y007567D01*
X016768Y007567D02*
X016768Y006976D01*
D18*
X017719Y008674D03*
X017719Y003556D03*
D19*
X016782Y004698D02*
X016768Y004713D01*
X014996Y004713D02*
X014996Y007272D01*
X005982Y006492D02*
X004482Y006492D01*
X004072Y006082D01*
X003702Y006082D01*
D20*
X005982Y006492D03*
X006882Y006892D03*
X007732Y006492D03*
X008182Y007292D03*
X009782Y006992D03*
X010282Y006292D03*
X010682Y005792D03*
X011682Y004892D03*
X012282Y004892D03*
X013819Y005998D03*
X013477Y006795D03*
X013175Y007386D03*
X012132Y007642D03*
X010682Y007692D03*
X009882Y007692D03*
X008685Y009489D03*
X010682Y010342D03*
X013282Y009787D03*
X015982Y007892D03*
X015582Y006542D03*
X016766Y006127D03*
X017304Y006116D03*
X015382Y005592D03*
X017652Y004650D03*
X018538Y003863D03*
X016668Y003174D03*
X016136Y003194D03*
X015488Y003192D03*
X016144Y004048D03*
X012305Y003162D03*
X009636Y002821D03*
X008270Y002080D03*
X008270Y003654D03*
X009109Y004048D03*
X009107Y004589D03*
X007782Y004442D03*
X003469Y004105D03*
X002182Y004592D03*
X002182Y007592D03*
X018538Y008391D03*
D21*
X002209Y001599D02*
X001943Y001758D01*
X001727Y001980D01*
X001576Y002251D01*
X001500Y002551D01*
X001492Y002706D01*
X001492Y002708D01*
X001493Y002794D01*
X001492Y002795D01*
X001492Y003752D01*
X001626Y003696D01*
X001804Y003696D01*
X001968Y003764D01*
X002093Y003890D01*
X002161Y004054D01*
X002161Y004231D01*
X002093Y004395D01*
X001968Y004521D01*
X001804Y004589D01*
X001626Y004589D01*
X001492Y004533D01*
X001492Y007689D01*
X001626Y007633D01*
X001804Y007633D01*
X001968Y007701D01*
X002093Y007827D01*
X002161Y007991D01*
X002161Y008168D01*
X002093Y008332D01*
X001968Y008458D01*
X001804Y008526D01*
X001626Y008526D01*
X001492Y008470D01*
X001492Y009560D01*
X001502Y009712D01*
X001581Y010007D01*
X001733Y010271D01*
X001949Y010487D01*
X002213Y010639D01*
X002507Y010718D01*
X002660Y010728D01*
X013567Y010728D01*
X013505Y010702D01*
X013379Y010576D01*
X013310Y010410D01*
X013310Y010231D01*
X013379Y010066D01*
X013505Y009939D01*
X013671Y009871D01*
X013850Y009871D01*
X013925Y009902D01*
X013925Y009740D01*
X013850Y009771D01*
X013671Y009771D01*
X013505Y009702D01*
X013379Y009576D01*
X013310Y009410D01*
X013310Y009231D01*
X013322Y009202D01*
X011878Y009758D01*
X011828Y009779D01*
X011824Y009779D01*
X011820Y009780D01*
X011766Y009779D01*
X009048Y009779D01*
X008950Y009877D01*
X008607Y009877D01*
X007930Y010554D01*
X007929Y010556D01*
X007848Y010638D01*
X007741Y010682D01*
X004942Y010682D01*
X004942Y010682D01*
X004885Y010682D01*
X004827Y010682D01*
X004826Y010682D01*
X004774Y010660D01*
X004721Y010638D01*
X004720Y010638D01*
X004680Y010597D01*
X004639Y010556D01*
X004435Y010351D01*
X003769Y010351D01*
X003646Y010228D01*
X003646Y009593D01*
X003592Y009903D01*
X003592Y009903D01*
X003419Y010203D01*
X003154Y010425D01*
X002829Y010543D01*
X002484Y010543D01*
X002159Y010425D01*
X002159Y010425D01*
X001894Y010203D01*
X001721Y009903D01*
X001661Y009563D01*
X001721Y009223D01*
X001721Y009223D01*
X001894Y008923D01*
X002159Y008701D01*
X002484Y008583D01*
X002829Y008583D01*
X003154Y008701D01*
X003154Y008701D01*
X003419Y008923D01*
X003419Y008923D01*
X003419Y008923D01*
X003592Y009223D01*
X003646Y009534D01*
X003646Y009314D01*
X003769Y009191D01*
X004683Y009191D01*
X004806Y009314D01*
X004806Y009371D01*
X004898Y009280D01*
X005111Y009191D01*
X005342Y009191D01*
X005393Y009213D01*
X006022Y008584D01*
X006022Y007440D01*
X006061Y007345D01*
X006494Y006913D01*
X006494Y006752D01*
X006370Y006752D01*
X006370Y006757D01*
X006247Y006880D01*
X005717Y006880D01*
X005599Y006762D01*
X005236Y006762D01*
X005320Y006965D01*
X005320Y007225D01*
X005221Y007465D01*
X005099Y007587D01*
X005221Y007710D01*
X005320Y007950D01*
X005320Y008209D01*
X005221Y008449D01*
X005037Y008633D01*
X004797Y008733D01*
X004538Y008733D01*
X004298Y008633D01*
X004114Y008449D01*
X004015Y008209D01*
X004015Y007950D01*
X004114Y007710D01*
X004236Y007587D01*
X004114Y007465D01*
X004096Y007423D01*
X004040Y007479D01*
X003974Y007527D01*
X003901Y007564D01*
X003823Y007589D01*
X003752Y007601D01*
X003752Y007132D01*
X003652Y007132D01*
X003652Y007601D01*
X003580Y007589D01*
X003502Y007564D01*
X003429Y007527D01*
X003363Y007479D01*
X003305Y007421D01*
X003257Y007355D01*
X003220Y007282D01*
X003195Y007204D01*
X003183Y007132D01*
X003652Y007132D01*
X003652Y007032D01*
X003183Y007032D01*
X003195Y006960D01*
X003220Y006883D01*
X003257Y006810D01*
X003305Y006743D01*
X003363Y006686D01*
X003429Y006637D01*
X003473Y006615D01*
X003373Y006574D01*
X003211Y006412D01*
X003206Y006422D01*
X003151Y006497D01*
X003085Y006563D01*
X003010Y006618D01*
X002927Y006661D01*
X002838Y006689D01*
X002749Y006703D01*
X002749Y006161D01*
X002649Y006161D01*
X002649Y006061D01*
X002749Y006061D01*
X002749Y005519D01*
X002838Y005533D01*
X002927Y005562D01*
X003010Y005604D01*
X003085Y005659D01*
X003151Y005725D01*
X003239Y005725D01*
X003210Y005754D02*
X003373Y005590D01*
X003393Y005582D01*
X003373Y005574D01*
X003210Y005411D01*
X003122Y005198D01*
X003122Y004967D01*
X003210Y004754D01*
X003373Y004590D01*
X003586Y004502D01*
X003817Y004502D01*
X004030Y004590D01*
X004155Y004716D01*
X004236Y004635D01*
X004114Y004512D01*
X004015Y004272D01*
X004015Y004013D01*
X004114Y003773D01*
X004298Y003589D01*
X004538Y003490D01*
X004797Y003490D01*
X005037Y003589D01*
X005221Y003773D01*
X005320Y004013D01*
X005320Y004272D01*
X005221Y004512D01*
X005099Y004635D01*
X005221Y004757D01*
X005320Y004997D01*
X005320Y005257D01*
X005221Y005497D01*
X005037Y005680D01*
X004916Y005731D01*
X004920Y005733D01*
X005046Y005858D01*
X005114Y006022D01*
X005114Y006200D01*
X005105Y006222D01*
X005599Y006222D01*
X005717Y006104D01*
X006247Y006104D01*
X006370Y006227D01*
X006370Y006232D01*
X007133Y006232D01*
X007229Y006272D01*
X007302Y006345D01*
X007589Y006632D01*
X007833Y006632D01*
X007929Y006672D01*
X008002Y006745D01*
X008161Y006904D01*
X008395Y006904D01*
X008395Y006444D01*
X006746Y004795D01*
X006700Y004814D01*
X006463Y004814D01*
X006245Y004724D01*
X006078Y004557D01*
X005988Y004339D01*
X005988Y004102D01*
X006078Y003884D01*
X006245Y003717D01*
X006463Y003627D01*
X006700Y003627D01*
X006918Y003717D01*
X007085Y003884D01*
X007175Y004102D01*
X007175Y004339D01*
X007156Y004385D01*
X008931Y006160D01*
X008975Y006266D01*
X008975Y009126D01*
X009048Y009199D01*
X011716Y009199D01*
X013184Y008634D01*
X013419Y008226D01*
X013748Y008416D01*
X013777Y008405D01*
X013827Y008384D01*
X013831Y008384D01*
X013834Y008383D01*
X013888Y008384D01*
X014170Y008384D01*
X013725Y007646D01*
X013564Y007646D01*
X013564Y007649D01*
X013606Y007663D01*
X013623Y007672D01*
X013382Y008089D01*
X012965Y007848D01*
X012993Y007810D01*
X013029Y007774D01*
X012910Y007774D01*
X012787Y007651D01*
X012787Y007121D01*
X012910Y006998D01*
X013441Y006998D01*
X013564Y007121D01*
X013564Y007126D01*
X013852Y007126D01*
X013884Y007121D01*
X013903Y007126D01*
X013923Y007126D01*
X013953Y007138D01*
X013984Y007146D01*
X014000Y007158D01*
X014019Y007165D01*
X014042Y007188D01*
X014067Y007207D01*
X014078Y007224D01*
X014092Y007239D01*
X014104Y007268D01*
X014617Y008119D01*
X015594Y008119D01*
X015594Y007627D01*
X015717Y007504D01*
X015722Y007504D01*
X015722Y005400D01*
X015561Y005239D01*
X015522Y005144D01*
X015522Y003596D01*
X015506Y003580D01*
X015223Y003580D01*
X015100Y003457D01*
X015100Y003294D01*
X014140Y004254D01*
X014140Y005281D01*
X014101Y005376D01*
X014027Y005450D01*
X013064Y006413D01*
X012969Y006452D01*
X011589Y006452D01*
X010270Y007772D01*
X010270Y007957D01*
X010147Y008080D01*
X009617Y008080D01*
X009494Y007957D01*
X009494Y007427D01*
X009540Y007380D01*
X009517Y007380D01*
X009394Y007257D01*
X009394Y006727D01*
X009517Y006604D01*
X009940Y006604D01*
X009894Y006557D01*
X009894Y006027D01*
X010017Y005904D01*
X010022Y005904D01*
X010022Y005440D01*
X010061Y005345D01*
X010110Y005296D01*
X009216Y004436D01*
X008844Y004436D01*
X008721Y004313D01*
X008721Y003914D01*
X008658Y003914D01*
X008658Y003919D01*
X008535Y004043D01*
X008005Y004043D01*
X007882Y003919D01*
X007882Y003389D01*
X008005Y003266D01*
X008535Y003266D01*
X008658Y003389D01*
X008658Y003394D01*
X009217Y003394D01*
X008290Y002468D01*
X008005Y002468D01*
X007882Y002345D01*
X007882Y001814D01*
X008005Y001691D01*
X008535Y001691D01*
X008658Y001814D01*
X008658Y002100D01*
X010740Y004182D01*
X011963Y004182D01*
X012059Y004221D01*
X012132Y004295D01*
X012342Y004504D01*
X012461Y004504D01*
X012461Y002992D01*
X012385Y002960D01*
X012222Y002797D01*
X012133Y002584D01*
X012133Y002353D01*
X012222Y002140D01*
X012385Y001977D01*
X012598Y001888D01*
X012829Y001888D01*
X013042Y001977D01*
X013205Y002140D01*
X013213Y002160D01*
X013222Y002140D01*
X013385Y001977D01*
X013598Y001888D01*
X013829Y001888D01*
X014042Y001977D01*
X014205Y002140D01*
X014213Y002160D01*
X014222Y002140D01*
X014385Y001977D01*
X014598Y001888D01*
X014829Y001888D01*
X015042Y001977D01*
X015205Y002140D01*
X015213Y002160D01*
X015222Y002140D01*
X015385Y001977D01*
X015598Y001888D01*
X015829Y001888D01*
X016042Y001977D01*
X016205Y002140D01*
X016213Y002160D01*
X016222Y002140D01*
X016385Y001977D01*
X016598Y001888D01*
X016829Y001888D01*
X017042Y001977D01*
X017205Y002140D01*
X017246Y002239D01*
X017269Y002196D01*
X017317Y002129D01*
X017375Y002072D01*
X017441Y002024D01*
X017514Y001986D01*
X017592Y001961D01*
X017663Y001950D01*
X017663Y002418D01*
X017763Y002418D01*
X017763Y001950D01*
X017835Y001961D01*
X017913Y001986D01*
X017986Y002024D01*
X018052Y002072D01*
X018110Y002129D01*
X018158Y002196D01*
X018195Y002269D01*
X018221Y002346D01*
X018232Y002418D01*
X017763Y002418D01*
X017763Y002518D01*
X017663Y002518D01*
X017663Y002906D01*
X017669Y002906D01*
X017669Y003506D01*
X017769Y003506D01*
X017769Y003606D01*
X018369Y003606D01*
X018369Y003825D01*
X018166Y004028D01*
X018636Y004028D01*
X018938Y004331D01*
X019181Y004088D01*
X019346Y004088D01*
X019346Y004558D01*
X019446Y004558D01*
X019446Y004088D01*
X019611Y004088D01*
X019916Y004393D01*
X019916Y004558D01*
X019446Y004558D01*
X019446Y004658D01*
X019916Y004658D01*
X019916Y004824D01*
X019674Y005066D01*
X019976Y005368D01*
X019976Y005849D01*
X019716Y006108D01*
X019976Y006368D01*
X019976Y006849D01*
X019716Y007108D01*
X019976Y007368D01*
X019976Y007849D01*
X019636Y008188D01*
X019156Y008188D01*
X018896Y007929D01*
X018636Y008188D01*
X018237Y008188D01*
X018429Y008380D01*
X018429Y008927D01*
X018433Y008920D01*
X018698Y008698D01*
X019022Y008580D01*
X019368Y008580D01*
X019693Y008698D01*
X019957Y008920D01*
X019957Y008920D01*
X019957Y008920D01*
X020130Y009220D01*
X020190Y009560D01*
X020130Y009900D01*
X019957Y010200D01*
X019693Y010422D01*
X019693Y010422D01*
X019368Y010540D01*
X019022Y010540D01*
X018698Y010422D01*
X018698Y010422D01*
X018433Y010200D01*
X018433Y010200D01*
X018433Y010200D01*
X018260Y009900D01*
X018200Y009560D01*
X018200Y009560D01*
X018260Y009220D01*
X018260Y009220D01*
X018373Y009024D01*
X018095Y009302D01*
X018095Y010626D01*
X017993Y010728D01*
X019195Y010728D01*
X019348Y010718D01*
X019642Y010639D01*
X019906Y010487D01*
X020122Y010271D01*
X020274Y010007D01*
X020353Y009712D01*
X020363Y009560D01*
X020363Y002670D01*
X020353Y002518D01*
X020274Y002223D01*
X020122Y001959D01*
X019906Y001744D01*
X019642Y001591D01*
X019348Y001512D01*
X019195Y001502D01*
X002662Y001502D01*
X002508Y001515D01*
X002209Y001599D01*
X002249Y001588D02*
X019629Y001588D01*
X019807Y001686D02*
X002063Y001686D01*
X002159Y001805D02*
X002159Y001805D01*
X002484Y001687D01*
X002607Y001687D01*
X002829Y001687D01*
X003154Y001805D01*
X003154Y001805D01*
X003419Y002027D01*
X003419Y002027D01*
X003592Y002327D01*
X003652Y002667D01*
X003592Y003007D01*
X003592Y003007D01*
X003419Y003307D01*
X003154Y003529D01*
X002829Y003647D01*
X002484Y003647D01*
X002159Y003529D01*
X002159Y003529D01*
X001894Y003307D01*
X001894Y003307D01*
X001894Y003307D01*
X001721Y003007D01*
X001661Y002667D01*
X001721Y002327D01*
X001721Y002327D01*
X001894Y002027D01*
X002159Y001805D01*
X002215Y001785D02*
X001917Y001785D01*
X001821Y001883D02*
X002066Y001883D01*
X001949Y001982D02*
X001726Y001982D01*
X001671Y002080D02*
X001864Y002080D01*
X001894Y002027D02*
X001894Y002027D01*
X001807Y002179D02*
X001616Y002179D01*
X001569Y002277D02*
X001750Y002277D01*
X001713Y002376D02*
X001544Y002376D01*
X001519Y002474D02*
X001695Y002474D01*
X001678Y002573D02*
X001499Y002573D01*
X001494Y002671D02*
X001662Y002671D01*
X001661Y002667D02*
X001661Y002667D01*
X001680Y002770D02*
X001493Y002770D01*
X001492Y002868D02*
X001697Y002868D01*
X001714Y002967D02*
X001492Y002967D01*
X001492Y003065D02*
X001755Y003065D01*
X001721Y003007D02*
X001721Y003007D01*
X001812Y003164D02*
X001492Y003164D01*
X001492Y003262D02*
X001869Y003262D01*
X001959Y003361D02*
X001492Y003361D01*
X001492Y003459D02*
X002076Y003459D01*
X002238Y003558D02*
X001492Y003558D01*
X001492Y003656D02*
X004231Y003656D01*
X004132Y003755D02*
X002929Y003755D01*
X002952Y003764D02*
X003077Y003890D01*
X003145Y004054D01*
X003145Y004231D01*
X003077Y004395D01*
X002952Y004521D01*
X002788Y004589D01*
X002610Y004589D01*
X002446Y004521D01*
X002321Y004395D01*
X002253Y004231D01*
X002253Y004054D01*
X002321Y003890D01*
X002446Y003764D01*
X002610Y003696D01*
X002788Y003696D01*
X002952Y003764D01*
X003041Y003853D02*
X004081Y003853D01*
X004040Y003952D02*
X003103Y003952D01*
X003144Y004050D02*
X004015Y004050D01*
X004015Y004149D02*
X003145Y004149D01*
X003139Y004247D02*
X004015Y004247D01*
X004045Y004346D02*
X003098Y004346D01*
X003028Y004444D02*
X004086Y004444D01*
X004144Y004543D02*
X003915Y004543D01*
X004081Y004641D02*
X004230Y004641D01*
X003489Y004543D02*
X002899Y004543D01*
X003224Y004740D02*
X001492Y004740D01*
X001492Y004838D02*
X003175Y004838D01*
X003134Y004937D02*
X001492Y004937D01*
X001492Y005035D02*
X003122Y005035D01*
X003122Y005134D02*
X001492Y005134D01*
X001492Y005232D02*
X003136Y005232D01*
X003177Y005331D02*
X001492Y005331D01*
X001492Y005429D02*
X003228Y005429D01*
X003327Y005528D02*
X002806Y005528D01*
X002749Y005528D02*
X002649Y005528D01*
X002649Y005519D02*
X002649Y006061D01*
X002107Y006061D01*
X002121Y005972D01*
X002150Y005883D01*
X002192Y005800D01*
X002247Y005725D01*
X002313Y005659D01*
X002388Y005604D01*
X002471Y005562D01*
X002560Y005533D01*
X002649Y005519D01*
X002592Y005528D02*
X001492Y005528D01*
X001492Y005626D02*
X002358Y005626D01*
X002247Y005725D02*
X001492Y005725D01*
X001492Y005823D02*
X002180Y005823D01*
X002137Y005922D02*
X001492Y005922D01*
X001492Y006020D02*
X002113Y006020D01*
X002107Y006161D02*
X002649Y006161D01*
X002649Y006703D01*
X002560Y006689D01*
X002471Y006661D01*
X002388Y006618D01*
X002313Y006563D01*
X002247Y006497D01*
X002192Y006422D01*
X002150Y006339D01*
X002121Y006250D01*
X002107Y006161D01*
X002116Y006217D02*
X001492Y006217D01*
X001492Y006119D02*
X002649Y006119D01*
X002649Y006217D02*
X002749Y006217D01*
X002749Y006316D02*
X002649Y006316D01*
X002649Y006414D02*
X002749Y006414D01*
X002749Y006513D02*
X002649Y006513D01*
X002649Y006611D02*
X002749Y006611D01*
X002379Y006611D02*
X001492Y006611D01*
X001492Y006513D02*
X002262Y006513D01*
X002188Y006414D02*
X001492Y006414D01*
X001492Y006316D02*
X002142Y006316D01*
X002649Y006020D02*
X002749Y006020D01*
X002749Y005922D02*
X002649Y005922D01*
X002649Y005823D02*
X002749Y005823D01*
X002749Y005725D02*
X002649Y005725D01*
X002649Y005626D02*
X002749Y005626D01*
X003040Y005626D02*
X003337Y005626D01*
X003210Y005754D02*
X003196Y005787D01*
X003151Y005725D01*
X003210Y006414D02*
X003214Y006414D01*
X003136Y006513D02*
X003312Y006513D01*
X003463Y006611D02*
X003019Y006611D01*
X003339Y006710D02*
X001492Y006710D01*
X001492Y006808D02*
X003258Y006808D01*
X003212Y006907D02*
X001492Y006907D01*
X001492Y007005D02*
X003187Y007005D01*
X003194Y007202D02*
X001492Y007202D01*
X001492Y007104D02*
X003652Y007104D01*
X003652Y007202D02*
X003752Y007202D01*
X003752Y007301D02*
X003652Y007301D01*
X003652Y007399D02*
X003752Y007399D01*
X003752Y007498D02*
X003652Y007498D01*
X003652Y007596D02*
X003752Y007596D01*
X003780Y007596D02*
X004228Y007596D01*
X004147Y007498D02*
X004014Y007498D01*
X004129Y007695D02*
X002936Y007695D01*
X002952Y007701D02*
X003077Y007827D01*
X003145Y007991D01*
X003145Y008168D01*
X003077Y008332D01*
X002952Y008458D01*
X002788Y008526D01*
X002610Y008526D01*
X002446Y008458D01*
X002321Y008332D01*
X002253Y008168D01*
X002253Y007991D01*
X002321Y007827D01*
X002446Y007701D01*
X002610Y007633D01*
X002788Y007633D01*
X002952Y007701D01*
X003044Y007793D02*
X004079Y007793D01*
X004039Y007892D02*
X003104Y007892D01*
X003145Y007990D02*
X004015Y007990D01*
X004015Y008089D02*
X003145Y008089D01*
X003137Y008187D02*
X004015Y008187D01*
X004046Y008286D02*
X003097Y008286D01*
X003025Y008384D02*
X004087Y008384D01*
X004147Y008483D02*
X002892Y008483D01*
X003095Y008680D02*
X004410Y008680D01*
X004246Y008581D02*
X001492Y008581D01*
X001492Y008483D02*
X001522Y008483D01*
X001908Y008483D02*
X002506Y008483D01*
X002373Y008384D02*
X002041Y008384D01*
X002112Y008286D02*
X002301Y008286D01*
X002261Y008187D02*
X002153Y008187D01*
X002161Y008089D02*
X002253Y008089D01*
X002253Y007990D02*
X002161Y007990D01*
X002120Y007892D02*
X002294Y007892D01*
X002354Y007793D02*
X002059Y007793D01*
X001952Y007695D02*
X002462Y007695D01*
X003229Y007301D02*
X001492Y007301D01*
X001492Y007399D02*
X003289Y007399D01*
X003389Y007498D02*
X001492Y007498D01*
X001492Y007596D02*
X003623Y007596D01*
X005108Y007596D02*
X006022Y007596D01*
X006022Y007498D02*
X005189Y007498D01*
X005248Y007399D02*
X006039Y007399D01*
X006106Y007301D02*
X005289Y007301D01*
X005320Y007202D02*
X006204Y007202D01*
X006303Y007104D02*
X005320Y007104D01*
X005320Y007005D02*
X006401Y007005D01*
X006494Y006907D02*
X005296Y006907D01*
X005255Y006808D02*
X005645Y006808D01*
X005982Y006492D02*
X007082Y006492D01*
X007482Y006892D01*
X007782Y006892D01*
X008182Y007292D01*
X007794Y007301D02*
X006841Y007301D01*
X006861Y007280D02*
X006542Y007600D01*
X006542Y008744D01*
X006502Y008839D01*
X006429Y008913D01*
X006150Y009191D01*
X006342Y009191D01*
X006555Y009280D01*
X006718Y009443D01*
X006759Y009542D01*
X006782Y009499D01*
X006830Y009433D01*
X006888Y009375D01*
X006954Y009327D01*
X007027Y009289D01*
X007105Y009264D01*
X007176Y009253D01*
X007176Y009721D01*
X007276Y009721D01*
X007276Y009253D01*
X007348Y009264D01*
X007426Y009289D01*
X007499Y009327D01*
X007565Y009375D01*
X007623Y009433D01*
X007671Y009499D01*
X007708Y009572D01*
X007734Y009650D01*
X007745Y009721D01*
X007276Y009721D01*
X007276Y009821D01*
X007745Y009821D01*
X007734Y009893D01*
X007716Y009948D01*
X008297Y009367D01*
X008297Y009224D01*
X008395Y009126D01*
X008395Y007680D01*
X007917Y007680D01*
X007794Y007557D01*
X007794Y007272D01*
X007674Y007152D01*
X007430Y007152D01*
X007334Y007113D01*
X007270Y007048D01*
X007270Y007157D01*
X007147Y007280D01*
X006861Y007280D01*
X006742Y007399D02*
X007794Y007399D01*
X007794Y007498D02*
X006644Y007498D01*
X006545Y007596D02*
X007833Y007596D01*
X008395Y007695D02*
X006542Y007695D01*
X006542Y007793D02*
X008395Y007793D01*
X008395Y007892D02*
X006542Y007892D01*
X006542Y007990D02*
X008395Y007990D01*
X008395Y008089D02*
X006542Y008089D01*
X006542Y008187D02*
X008395Y008187D01*
X008395Y008286D02*
X006542Y008286D01*
X006542Y008384D02*
X008395Y008384D01*
X008395Y008483D02*
X006542Y008483D01*
X006542Y008581D02*
X008395Y008581D01*
X008395Y008680D02*
X006542Y008680D01*
X006528Y008778D02*
X008395Y008778D01*
X008395Y008877D02*
X006465Y008877D01*
X006366Y008975D02*
X008395Y008975D01*
X008395Y009074D02*
X006268Y009074D01*
X006169Y009172D02*
X008349Y009172D01*
X008297Y009271D02*
X007368Y009271D01*
X007276Y009271D02*
X007176Y009271D01*
X007084Y009271D02*
X006533Y009271D01*
X006645Y009369D02*
X006895Y009369D01*
X006804Y009468D02*
X006728Y009468D01*
X007176Y009468D02*
X007276Y009468D01*
X007276Y009566D02*
X007176Y009566D01*
X007176Y009665D02*
X007276Y009665D01*
X007276Y009763D02*
X007901Y009763D01*
X007999Y009665D02*
X007736Y009665D01*
X007706Y009566D02*
X008098Y009566D01*
X008196Y009468D02*
X007649Y009468D01*
X007558Y009369D02*
X008295Y009369D01*
X008975Y009074D02*
X012041Y009074D01*
X011786Y009172D02*
X009021Y009172D01*
X008975Y008975D02*
X012297Y008975D01*
X012552Y008877D02*
X008975Y008877D01*
X008975Y008778D02*
X012808Y008778D01*
X013064Y008680D02*
X008975Y008680D01*
X008975Y008581D02*
X013076Y008581D01*
X013092Y008593D02*
X013053Y008565D01*
X012993Y008505D01*
X012944Y008437D01*
X012906Y008362D01*
X012880Y008283D01*
X012867Y008200D01*
X012867Y008116D01*
X012880Y008033D01*
X012906Y007953D01*
X012915Y007935D01*
X013332Y008176D01*
X013092Y008593D01*
X013098Y008581D02*
X013214Y008581D01*
X013271Y008483D02*
X013155Y008483D01*
X013212Y008384D02*
X013327Y008384D01*
X013269Y008286D02*
X013384Y008286D01*
X013419Y008226D02*
X013332Y008176D01*
X013382Y008089D01*
X013469Y008139D01*
X013710Y007722D01*
X013748Y007750D01*
X013808Y007810D01*
X013857Y007878D01*
X013895Y007953D01*
X013921Y008033D01*
X013934Y008116D01*
X013934Y008200D01*
X013921Y008283D01*
X013895Y008362D01*
X013886Y008380D01*
X013469Y008139D01*
X013419Y008226D01*
X013441Y008187D02*
X013552Y008187D01*
X013523Y008286D02*
X013723Y008286D01*
X013693Y008384D02*
X013827Y008384D01*
X013920Y008286D02*
X014111Y008286D01*
X014051Y008187D02*
X013934Y008187D01*
X013930Y008089D02*
X013992Y008089D01*
X013933Y007990D02*
X013908Y007990D01*
X013873Y007892D02*
X013864Y007892D01*
X013814Y007793D02*
X013791Y007793D01*
X013754Y007695D02*
X013610Y007695D01*
X013553Y007793D02*
X013669Y007793D01*
X013612Y007892D02*
X013496Y007892D01*
X013440Y007990D02*
X013555Y007990D01*
X013498Y008089D02*
X013383Y008089D01*
X013381Y008089D02*
X013181Y008089D01*
X013211Y007990D02*
X013011Y007990D01*
X013040Y007892D02*
X010270Y007892D01*
X010270Y007793D02*
X013010Y007793D01*
X012831Y007695D02*
X010347Y007695D01*
X010445Y007596D02*
X012787Y007596D01*
X012787Y007498D02*
X010544Y007498D01*
X010642Y007399D02*
X012787Y007399D01*
X012787Y007301D02*
X010741Y007301D01*
X010839Y007202D02*
X012787Y007202D01*
X012804Y007104D02*
X010938Y007104D01*
X011036Y007005D02*
X012903Y007005D01*
X013175Y007386D02*
X013871Y007386D01*
X014471Y008379D01*
X016833Y008379D01*
X017382Y007830D01*
X017382Y006194D01*
X017304Y006116D01*
X016916Y006119D02*
X016242Y006119D01*
X016242Y006217D02*
X016916Y006217D01*
X016916Y006316D02*
X016242Y006316D01*
X016242Y006414D02*
X016949Y006414D01*
X016916Y006381D02*
X016916Y005851D01*
X017039Y005728D01*
X017429Y005728D01*
X017429Y005259D01*
X017473Y005152D01*
X017816Y004809D01*
X017816Y004505D01*
X017372Y004505D01*
X017276Y004465D01*
X017213Y004402D01*
X017213Y004664D01*
X016816Y004664D01*
X016816Y004005D01*
X016809Y003999D01*
X016770Y003903D01*
X016770Y003048D01*
X016598Y003048D01*
X016525Y003018D01*
X016525Y003459D01*
X016404Y003579D01*
X016404Y003660D01*
X016409Y003660D01*
X016532Y003783D01*
X016532Y004038D01*
X016534Y004037D01*
X016597Y004005D01*
X016663Y003983D01*
X016719Y003974D01*
X016719Y004664D01*
X016816Y004664D01*
X016816Y004761D01*
X017213Y004761D01*
X017213Y005043D01*
X017202Y005112D01*
X017180Y005179D01*
X017148Y005241D01*
X017107Y005298D01*
X017058Y005348D01*
X017001Y005389D01*
X016938Y005421D01*
X016872Y005442D01*
X016816Y005451D01*
X016816Y004761D01*
X016719Y004761D01*
X016719Y004664D01*
X016322Y004664D01*
X016322Y004436D01*
X016042Y004436D01*
X016042Y004984D01*
X016129Y005072D01*
X016202Y005145D01*
X016242Y005240D01*
X016242Y007504D01*
X016247Y007504D01*
X016322Y007580D01*
X016322Y007320D01*
X016719Y007320D01*
X016719Y007223D01*
X016816Y007223D01*
X016816Y006533D01*
X016872Y006542D01*
X016938Y006564D01*
X017001Y006596D01*
X017058Y006637D01*
X017107Y006686D01*
X017122Y006706D01*
X017122Y006504D01*
X017039Y006504D01*
X016916Y006381D01*
X017122Y006513D02*
X016242Y006513D01*
X016242Y006611D02*
X016513Y006611D01*
X016534Y006596D02*
X016597Y006564D01*
X016663Y006542D01*
X016719Y006533D01*
X016719Y007223D01*
X016322Y007223D01*
X016322Y006941D01*
X016333Y006872D01*
X016355Y006806D01*
X016387Y006743D01*
X016428Y006686D01*
X016477Y006637D01*
X016534Y006596D01*
X016411Y006710D02*
X016242Y006710D01*
X016242Y006808D02*
X016354Y006808D01*
X016328Y006907D02*
X016242Y006907D01*
X016242Y007005D02*
X016322Y007005D01*
X016322Y007104D02*
X016242Y007104D01*
X016242Y007202D02*
X016322Y007202D01*
X016242Y007301D02*
X016719Y007301D01*
X016719Y007320D02*
X016719Y008010D01*
X016663Y008001D01*
X016597Y007980D01*
X016534Y007948D01*
X016477Y007907D01*
X016428Y007857D01*
X016387Y007800D01*
X016370Y007767D01*
X016370Y008119D01*
X016725Y008119D01*
X016837Y008007D01*
X016816Y008010D01*
X016816Y007320D01*
X016719Y007320D01*
X016719Y007399D02*
X016816Y007399D01*
X016816Y007498D02*
X016719Y007498D01*
X016719Y007596D02*
X016816Y007596D01*
X016816Y007695D02*
X016719Y007695D01*
X016719Y007793D02*
X016816Y007793D01*
X016816Y007892D02*
X016719Y007892D01*
X016719Y007990D02*
X016816Y007990D01*
X016755Y008089D02*
X016370Y008089D01*
X016370Y007990D02*
X016629Y007990D01*
X016463Y007892D02*
X016370Y007892D01*
X016370Y007793D02*
X016383Y007793D01*
X015982Y007892D02*
X015982Y005292D01*
X015782Y005092D01*
X015782Y003489D01*
X015488Y003192D01*
X015100Y003361D02*
X015034Y003361D01*
X015102Y003459D02*
X014935Y003459D01*
X014837Y003558D02*
X015200Y003558D01*
X015522Y003656D02*
X014738Y003656D01*
X014640Y003755D02*
X015522Y003755D01*
X015522Y003853D02*
X014541Y003853D01*
X014443Y003952D02*
X014800Y003952D01*
X014710Y003989D02*
X014895Y003912D01*
X015096Y003912D01*
X015282Y003989D01*
X015424Y004131D01*
X015501Y004317D01*
X015501Y005108D01*
X015424Y005294D01*
X015282Y005436D01*
X015266Y005443D01*
X015266Y006541D01*
X015282Y006548D01*
X015424Y006690D01*
X015501Y006876D01*
X015501Y007668D01*
X015424Y007853D01*
X015282Y007995D01*
X015096Y008072D01*
X014895Y008072D01*
X014710Y007995D01*
X014568Y007853D01*
X014491Y007668D01*
X014491Y006876D01*
X014568Y006690D01*
X014710Y006548D01*
X014726Y006541D01*
X014726Y005443D01*
X014710Y005436D01*
X014568Y005294D01*
X014491Y005108D01*
X014491Y004317D01*
X014568Y004131D01*
X014710Y003989D01*
X014649Y004050D02*
X014344Y004050D01*
X014246Y004149D02*
X014560Y004149D01*
X014519Y004247D02*
X014147Y004247D01*
X014140Y004346D02*
X014491Y004346D01*
X014491Y004444D02*
X014140Y004444D01*
X014140Y004543D02*
X014491Y004543D01*
X014491Y004641D02*
X014140Y004641D01*
X014140Y004740D02*
X014491Y004740D01*
X014491Y004838D02*
X014140Y004838D01*
X014140Y004937D02*
X014491Y004937D01*
X014491Y005035D02*
X014140Y005035D01*
X014140Y005134D02*
X014501Y005134D01*
X014542Y005232D02*
X014140Y005232D01*
X014120Y005331D02*
X014604Y005331D01*
X014703Y005429D02*
X014048Y005429D01*
X013949Y005528D02*
X014726Y005528D01*
X014726Y005626D02*
X013851Y005626D01*
X013752Y005725D02*
X014726Y005725D01*
X014726Y005823D02*
X013654Y005823D01*
X013555Y005922D02*
X014726Y005922D01*
X014726Y006020D02*
X013457Y006020D01*
X013358Y006119D02*
X014726Y006119D01*
X014726Y006217D02*
X013260Y006217D01*
X013161Y006316D02*
X014726Y006316D01*
X014726Y006414D02*
X013061Y006414D01*
X012917Y006192D02*
X013880Y005229D01*
X013880Y004147D01*
X015558Y002468D01*
X015713Y002468D01*
X015281Y002080D02*
X015145Y002080D01*
X015047Y001982D02*
X015380Y001982D01*
X016047Y001982D02*
X016380Y001982D01*
X016281Y002080D02*
X016145Y002080D01*
X016713Y002468D02*
X017030Y002785D01*
X017030Y003851D01*
X017423Y004245D01*
X018014Y004245D01*
X018360Y004591D01*
X018378Y004591D01*
X017816Y004543D02*
X017213Y004543D01*
X017213Y004641D02*
X017816Y004641D01*
X017816Y004740D02*
X016816Y004740D01*
X016719Y004740D02*
X016042Y004740D01*
X016042Y004838D02*
X016322Y004838D01*
X016322Y004761D02*
X016719Y004761D01*
X016719Y005451D01*
X016663Y005442D01*
X016597Y005421D01*
X016534Y005389D01*
X016477Y005348D01*
X016428Y005298D01*
X016387Y005241D01*
X016355Y005179D01*
X016333Y005112D01*
X016322Y005043D01*
X016322Y004761D01*
X016322Y004641D02*
X016042Y004641D01*
X016042Y004543D02*
X016322Y004543D01*
X016322Y004444D02*
X016042Y004444D01*
X015522Y004444D02*
X015501Y004444D01*
X015501Y004346D02*
X015522Y004346D01*
X015522Y004247D02*
X015472Y004247D01*
X015432Y004149D02*
X015522Y004149D01*
X015522Y004050D02*
X015343Y004050D01*
X015192Y003952D02*
X015522Y003952D01*
X016144Y004048D02*
X016144Y003201D01*
X016136Y003194D01*
X016525Y003164D02*
X016770Y003164D01*
X016770Y003262D02*
X016525Y003262D01*
X016525Y003361D02*
X016770Y003361D01*
X016770Y003459D02*
X016524Y003459D01*
X016426Y003558D02*
X016770Y003558D01*
X016770Y003656D02*
X016404Y003656D01*
X016504Y003755D02*
X016770Y003755D01*
X016770Y003853D02*
X016532Y003853D01*
X016532Y003952D02*
X016790Y003952D01*
X016816Y004050D02*
X016719Y004050D01*
X016719Y004149D02*
X016816Y004149D01*
X016816Y004247D02*
X016719Y004247D01*
X016719Y004346D02*
X016816Y004346D01*
X016816Y004444D02*
X016719Y004444D01*
X016719Y004543D02*
X016816Y004543D01*
X016816Y004641D02*
X016719Y004641D01*
X016719Y004838D02*
X016816Y004838D01*
X016816Y004937D02*
X016719Y004937D01*
X016719Y005035D02*
X016816Y005035D01*
X016816Y005134D02*
X016719Y005134D01*
X016719Y005232D02*
X016816Y005232D01*
X016816Y005331D02*
X016719Y005331D01*
X016719Y005429D02*
X016816Y005429D01*
X016912Y005429D02*
X017429Y005429D01*
X017429Y005331D02*
X017075Y005331D01*
X017153Y005232D02*
X017440Y005232D01*
X017492Y005134D02*
X017195Y005134D01*
X017213Y005035D02*
X017590Y005035D01*
X017689Y004937D02*
X017213Y004937D01*
X017213Y004838D02*
X017787Y004838D01*
X017255Y004444D02*
X017213Y004444D01*
X016322Y004937D02*
X016042Y004937D01*
X016092Y005035D02*
X016322Y005035D01*
X016340Y005134D02*
X016191Y005134D01*
X016238Y005232D02*
X016382Y005232D01*
X016461Y005331D02*
X016242Y005331D01*
X016242Y005429D02*
X016623Y005429D01*
X016242Y005528D02*
X017429Y005528D01*
X017429Y005626D02*
X016242Y005626D01*
X016242Y005725D02*
X017429Y005725D01*
X016944Y005823D02*
X016242Y005823D01*
X016242Y005922D02*
X016916Y005922D01*
X016916Y006020D02*
X016242Y006020D01*
X015722Y006020D02*
X015266Y006020D01*
X015266Y005922D02*
X015722Y005922D01*
X015722Y005823D02*
X015266Y005823D01*
X015266Y005725D02*
X015722Y005725D01*
X015722Y005626D02*
X015266Y005626D01*
X015266Y005528D02*
X015722Y005528D01*
X015722Y005429D02*
X015289Y005429D01*
X015388Y005331D02*
X015653Y005331D01*
X015558Y005232D02*
X015450Y005232D01*
X015491Y005134D02*
X015522Y005134D01*
X015522Y005035D02*
X015501Y005035D01*
X015501Y004937D02*
X015522Y004937D01*
X015522Y004838D02*
X015501Y004838D01*
X015501Y004740D02*
X015522Y004740D01*
X015522Y004641D02*
X015501Y004641D01*
X015501Y004543D02*
X015522Y004543D01*
X013486Y005229D02*
X013486Y003695D01*
X014713Y002468D01*
X014281Y002080D02*
X014145Y002080D01*
X014047Y001982D02*
X014380Y001982D01*
X013713Y002468D02*
X013093Y003089D01*
X013093Y005229D01*
X012730Y005592D01*
X010882Y005592D01*
X010682Y005792D01*
X010282Y005492D02*
X010482Y005292D01*
X009188Y004048D01*
X009109Y004048D01*
X008721Y004050D02*
X007154Y004050D01*
X007175Y004149D02*
X008721Y004149D01*
X008721Y004247D02*
X007175Y004247D01*
X007172Y004346D02*
X008753Y004346D01*
X009225Y004444D02*
X007215Y004444D01*
X007314Y004543D02*
X009327Y004543D01*
X009429Y004641D02*
X007412Y004641D01*
X007511Y004740D02*
X009532Y004740D01*
X009634Y004838D02*
X007609Y004838D01*
X007708Y004937D02*
X009737Y004937D01*
X009839Y005035D02*
X007806Y005035D01*
X007905Y005134D02*
X009942Y005134D01*
X010044Y005232D02*
X008003Y005232D01*
X008102Y005331D02*
X010076Y005331D01*
X010026Y005429D02*
X008200Y005429D01*
X008299Y005528D02*
X010022Y005528D01*
X010022Y005626D02*
X008397Y005626D01*
X008496Y005725D02*
X010022Y005725D01*
X010022Y005823D02*
X008594Y005823D01*
X008693Y005922D02*
X009999Y005922D01*
X009901Y006020D02*
X008791Y006020D01*
X008890Y006119D02*
X009894Y006119D01*
X009894Y006217D02*
X008955Y006217D01*
X008975Y006316D02*
X009894Y006316D01*
X009894Y006414D02*
X008975Y006414D01*
X008975Y006513D02*
X009894Y006513D01*
X009510Y006611D02*
X008975Y006611D01*
X008975Y006710D02*
X009411Y006710D01*
X009394Y006808D02*
X008975Y006808D01*
X008975Y006907D02*
X009394Y006907D01*
X009394Y007005D02*
X008975Y007005D01*
X008975Y007104D02*
X009394Y007104D01*
X009394Y007202D02*
X008975Y007202D01*
X008975Y007301D02*
X009437Y007301D01*
X009522Y007399D02*
X008975Y007399D01*
X008975Y007498D02*
X009494Y007498D01*
X009494Y007596D02*
X008975Y007596D01*
X008975Y007695D02*
X009494Y007695D01*
X009494Y007793D02*
X008975Y007793D01*
X008975Y007892D02*
X009494Y007892D01*
X009527Y007990D02*
X008975Y007990D01*
X008975Y008089D02*
X012871Y008089D01*
X012867Y008187D02*
X008975Y008187D01*
X008975Y008286D02*
X012881Y008286D01*
X012917Y008384D02*
X008975Y008384D01*
X008975Y008483D02*
X012977Y008483D01*
X013326Y008187D02*
X013352Y008187D01*
X012894Y007990D02*
X010237Y007990D01*
X009982Y007692D02*
X009882Y007692D01*
X009982Y007692D02*
X011482Y006192D01*
X012917Y006192D01*
X012823Y005892D02*
X013486Y005229D01*
X012721Y005153D02*
X012721Y002476D01*
X012713Y002468D01*
X012133Y002474D02*
X009032Y002474D01*
X008934Y002376D02*
X012133Y002376D01*
X012165Y002277D02*
X008835Y002277D01*
X008737Y002179D02*
X012205Y002179D01*
X012281Y002080D02*
X008658Y002080D01*
X008658Y001982D02*
X012380Y001982D01*
X013047Y001982D02*
X013380Y001982D01*
X013281Y002080D02*
X013145Y002080D01*
X012133Y002573D02*
X009131Y002573D01*
X009229Y002671D02*
X012170Y002671D01*
X012210Y002770D02*
X009328Y002770D01*
X009426Y002868D02*
X012293Y002868D01*
X012401Y002967D02*
X009525Y002967D01*
X009623Y003065D02*
X012461Y003065D01*
X012461Y003164D02*
X009722Y003164D01*
X009820Y003262D02*
X012461Y003262D01*
X012461Y003361D02*
X009919Y003361D01*
X010017Y003459D02*
X012461Y003459D01*
X012461Y003558D02*
X010116Y003558D01*
X010214Y003656D02*
X012461Y003656D01*
X012461Y003755D02*
X010313Y003755D01*
X010411Y003853D02*
X012461Y003853D01*
X012461Y003952D02*
X010510Y003952D01*
X010608Y004050D02*
X012461Y004050D01*
X012461Y004149D02*
X010707Y004149D01*
X010632Y004442D02*
X008270Y002080D01*
X007882Y002080D02*
X003449Y002080D01*
X003506Y002179D02*
X007882Y002179D01*
X007882Y002277D02*
X003563Y002277D01*
X003592Y002327D02*
X003592Y002327D01*
X003600Y002376D02*
X007913Y002376D01*
X008297Y002474D02*
X003618Y002474D01*
X003635Y002573D02*
X008395Y002573D01*
X008494Y002671D02*
X003651Y002671D01*
X003634Y002770D02*
X008592Y002770D01*
X008691Y002868D02*
X003616Y002868D01*
X003599Y002967D02*
X008789Y002967D01*
X008888Y003065D02*
X003558Y003065D01*
X003501Y003164D02*
X008986Y003164D01*
X009085Y003262D02*
X003445Y003262D01*
X003419Y003307D02*
X003419Y003307D01*
X003354Y003361D02*
X007910Y003361D01*
X007882Y003459D02*
X003237Y003459D01*
X003154Y003529D02*
X003154Y003529D01*
X003075Y003558D02*
X004373Y003558D01*
X004962Y003558D02*
X007882Y003558D01*
X007882Y003656D02*
X006771Y003656D01*
X006956Y003755D02*
X007882Y003755D01*
X007882Y003853D02*
X007054Y003853D01*
X007113Y003952D02*
X007914Y003952D01*
X008270Y003654D02*
X009353Y003654D01*
X010534Y004835D01*
X011625Y004835D01*
X011682Y004892D01*
X011912Y004442D02*
X010632Y004442D01*
X010482Y005292D02*
X012582Y005292D01*
X012721Y005153D01*
X012282Y004892D02*
X012282Y004812D01*
X011912Y004442D01*
X012183Y004346D02*
X012461Y004346D01*
X012461Y004444D02*
X012282Y004444D01*
X012461Y004247D02*
X012085Y004247D01*
X010282Y005492D02*
X010282Y006292D01*
X010182Y006992D02*
X009782Y006992D01*
X010182Y006992D02*
X011282Y005892D01*
X012823Y005892D01*
X011529Y006513D02*
X014726Y006513D01*
X014647Y006611D02*
X011430Y006611D01*
X011332Y006710D02*
X014559Y006710D01*
X014519Y006808D02*
X011233Y006808D01*
X011135Y006907D02*
X014491Y006907D01*
X014491Y007005D02*
X013448Y007005D01*
X013546Y007104D02*
X014491Y007104D01*
X014491Y007202D02*
X014061Y007202D01*
X014124Y007301D02*
X014491Y007301D01*
X014491Y007399D02*
X014183Y007399D01*
X014243Y007498D02*
X014491Y007498D01*
X014491Y007596D02*
X014302Y007596D01*
X014362Y007695D02*
X014502Y007695D01*
X014543Y007793D02*
X014421Y007793D01*
X014480Y007892D02*
X014606Y007892D01*
X014540Y007990D02*
X014705Y007990D01*
X014599Y008089D02*
X015594Y008089D01*
X015594Y007990D02*
X015287Y007990D01*
X015386Y007892D02*
X015594Y007892D01*
X015594Y007793D02*
X015449Y007793D01*
X015490Y007695D02*
X015594Y007695D01*
X015625Y007596D02*
X015501Y007596D01*
X015501Y007498D02*
X015722Y007498D01*
X015722Y007399D02*
X015501Y007399D01*
X015501Y007301D02*
X015722Y007301D01*
X015722Y007202D02*
X015501Y007202D01*
X015501Y007104D02*
X015722Y007104D01*
X015722Y007005D02*
X015501Y007005D01*
X015501Y006907D02*
X015722Y006907D01*
X015722Y006808D02*
X015473Y006808D01*
X015432Y006710D02*
X015722Y006710D01*
X015722Y006611D02*
X015345Y006611D01*
X015266Y006513D02*
X015722Y006513D01*
X015722Y006414D02*
X015266Y006414D01*
X015266Y006316D02*
X015722Y006316D01*
X015722Y006217D02*
X015266Y006217D01*
X015266Y006119D02*
X015722Y006119D01*
X016719Y006611D02*
X016816Y006611D01*
X016816Y006710D02*
X016719Y006710D01*
X016719Y006808D02*
X016816Y006808D01*
X016816Y006907D02*
X016719Y006907D01*
X016719Y007005D02*
X016816Y007005D01*
X016816Y007104D02*
X016719Y007104D01*
X016719Y007202D02*
X016816Y007202D01*
X016322Y007399D02*
X016242Y007399D01*
X016242Y007498D02*
X016322Y007498D01*
X017022Y006611D02*
X017122Y006611D01*
X018834Y007990D02*
X018958Y007990D01*
X019056Y008089D02*
X018736Y008089D01*
X018637Y008187D02*
X019155Y008187D01*
X019019Y008581D02*
X018429Y008581D01*
X018429Y008483D02*
X020363Y008483D01*
X020363Y008581D02*
X019371Y008581D01*
X019642Y008680D02*
X020363Y008680D01*
X020363Y008778D02*
X019788Y008778D01*
X019693Y008698D02*
X019693Y008698D01*
X019906Y008877D02*
X020363Y008877D01*
X020363Y008975D02*
X019989Y008975D01*
X020046Y009074D02*
X020363Y009074D01*
X020363Y009172D02*
X020103Y009172D01*
X020130Y009220D02*
X020130Y009220D01*
X020139Y009271D02*
X020363Y009271D01*
X020363Y009369D02*
X020157Y009369D01*
X020174Y009468D02*
X020363Y009468D01*
X020363Y009566D02*
X020189Y009566D01*
X020190Y009560D02*
X020190Y009560D01*
X020172Y009665D02*
X020356Y009665D01*
X020339Y009763D02*
X020154Y009763D01*
X020137Y009862D02*
X020313Y009862D01*
X020287Y009960D02*
X020096Y009960D01*
X020130Y009900D02*
X020130Y009900D01*
X020039Y010059D02*
X020244Y010059D01*
X020187Y010157D02*
X019982Y010157D01*
X019957Y010200D02*
X019957Y010200D01*
X019890Y010256D02*
X020130Y010256D01*
X020038Y010354D02*
X019773Y010354D01*
X019607Y010453D02*
X019940Y010453D01*
X019794Y010551D02*
X018095Y010551D01*
X018095Y010453D02*
X018783Y010453D01*
X018617Y010354D02*
X018095Y010354D01*
X018095Y010256D02*
X018500Y010256D01*
X018408Y010157D02*
X018095Y010157D01*
X018095Y010059D02*
X018351Y010059D01*
X018295Y009960D02*
X018095Y009960D01*
X018095Y009862D02*
X018253Y009862D01*
X018260Y009900D02*
X018260Y009900D01*
X018236Y009763D02*
X018095Y009763D01*
X018095Y009665D02*
X018218Y009665D01*
X018201Y009566D02*
X018095Y009566D01*
X018095Y009468D02*
X018216Y009468D01*
X018234Y009369D02*
X018095Y009369D01*
X018126Y009271D02*
X018251Y009271D01*
X018225Y009172D02*
X018287Y009172D01*
X018323Y009074D02*
X018344Y009074D01*
X018433Y008920D02*
X018433Y008920D01*
X018429Y008877D02*
X018485Y008877D01*
X018429Y008778D02*
X018602Y008778D01*
X018698Y008698D02*
X018698Y008698D01*
X018748Y008680D02*
X018429Y008680D01*
X018429Y008384D02*
X020363Y008384D01*
X020363Y008286D02*
X018334Y008286D01*
X019637Y008187D02*
X020363Y008187D01*
X020363Y008089D02*
X019736Y008089D01*
X019834Y007990D02*
X020363Y007990D01*
X020363Y007892D02*
X019933Y007892D01*
X019976Y007793D02*
X020363Y007793D01*
X020363Y007695D02*
X019976Y007695D01*
X019976Y007596D02*
X020363Y007596D01*
X020363Y007498D02*
X019976Y007498D01*
X019976Y007399D02*
X020363Y007399D01*
X020363Y007301D02*
X019909Y007301D01*
X019810Y007202D02*
X020363Y007202D01*
X020363Y007104D02*
X019721Y007104D01*
X019819Y007005D02*
X020363Y007005D01*
X020363Y006907D02*
X019918Y006907D01*
X019976Y006808D02*
X020363Y006808D01*
X020363Y006710D02*
X019976Y006710D01*
X019976Y006611D02*
X020363Y006611D01*
X020363Y006513D02*
X019976Y006513D01*
X019976Y006414D02*
X020363Y006414D01*
X020363Y006316D02*
X019924Y006316D01*
X019825Y006217D02*
X020363Y006217D01*
X020363Y006119D02*
X019727Y006119D01*
X019804Y006020D02*
X020363Y006020D01*
X020363Y005922D02*
X019903Y005922D01*
X019976Y005823D02*
X020363Y005823D01*
X020363Y005725D02*
X019976Y005725D01*
X019976Y005626D02*
X020363Y005626D01*
X020363Y005528D02*
X019976Y005528D01*
X019976Y005429D02*
X020363Y005429D01*
X020363Y005331D02*
X019939Y005331D01*
X019840Y005232D02*
X020363Y005232D01*
X020363Y005134D02*
X019742Y005134D01*
X019704Y005035D02*
X020363Y005035D01*
X020363Y004937D02*
X019803Y004937D01*
X019901Y004838D02*
X020363Y004838D01*
X020363Y004740D02*
X019916Y004740D01*
X019916Y004543D02*
X020363Y004543D01*
X020363Y004641D02*
X019446Y004641D01*
X019446Y004543D02*
X019346Y004543D01*
X019346Y004444D02*
X019446Y004444D01*
X019446Y004346D02*
X019346Y004346D01*
X019346Y004247D02*
X019446Y004247D01*
X019446Y004149D02*
X019346Y004149D01*
X019120Y004149D02*
X018757Y004149D01*
X018855Y004247D02*
X019022Y004247D01*
X018658Y004050D02*
X020363Y004050D01*
X020363Y003952D02*
X018242Y003952D01*
X018341Y003853D02*
X020363Y003853D01*
X020363Y003755D02*
X018369Y003755D01*
X018369Y003656D02*
X020363Y003656D01*
X020363Y003558D02*
X019616Y003558D01*
X019696Y003529D02*
X019371Y003647D01*
X019025Y003647D01*
X018701Y003529D01*
X018701Y003529D01*
X018436Y003307D01*
X018436Y003307D01*
X018436Y003307D01*
X018263Y003007D01*
X018203Y002667D01*
X018212Y002615D01*
X018195Y002668D01*
X018158Y002741D01*
X018110Y002807D01*
X018052Y002865D01*
X017991Y002909D01*
X018369Y003287D01*
X018369Y003506D01*
X017769Y003506D01*
X017769Y002986D01*
X017763Y002987D01*
X017763Y002518D01*
X018229Y002518D01*
X018263Y002327D01*
X018263Y002327D01*
X018436Y002027D01*
X018701Y001805D01*
X019025Y001687D01*
X019371Y001687D01*
X019696Y001805D01*
X019961Y002027D01*
X019961Y002027D01*
X019961Y002027D01*
X020133Y002327D01*
X020193Y002667D01*
X020133Y003007D01*
X020133Y003007D01*
X019961Y003307D01*
X019696Y003529D01*
X019696Y003529D01*
X019779Y003459D02*
X020363Y003459D01*
X020363Y003361D02*
X019896Y003361D01*
X019961Y003307D02*
X019961Y003307D01*
X019986Y003262D02*
X020363Y003262D01*
X020363Y003164D02*
X020043Y003164D01*
X020100Y003065D02*
X020363Y003065D01*
X020363Y002967D02*
X020141Y002967D01*
X020158Y002868D02*
X020363Y002868D01*
X020363Y002770D02*
X020175Y002770D01*
X020193Y002671D02*
X020363Y002671D01*
X020357Y002573D02*
X020177Y002573D01*
X020193Y002667D02*
X020193Y002667D01*
X020159Y002474D02*
X020341Y002474D01*
X020315Y002376D02*
X020142Y002376D01*
X020133Y002327D02*
X020133Y002327D01*
X020105Y002277D02*
X020289Y002277D01*
X020248Y002179D02*
X020048Y002179D01*
X019991Y002080D02*
X020192Y002080D01*
X020135Y001982D02*
X019906Y001982D01*
X019789Y001883D02*
X020046Y001883D01*
X019947Y001785D02*
X019639Y001785D01*
X019696Y001805D02*
X019696Y001805D01*
X018757Y001785D02*
X008628Y001785D01*
X008658Y001883D02*
X018608Y001883D01*
X018701Y001805D02*
X018701Y001805D01*
X018490Y001982D02*
X017899Y001982D01*
X017763Y001982D02*
X017663Y001982D01*
X017663Y002080D02*
X017763Y002080D01*
X017763Y002179D02*
X017663Y002179D01*
X017663Y002277D02*
X017763Y002277D01*
X017763Y002376D02*
X017663Y002376D01*
X017763Y002474D02*
X018237Y002474D01*
X018225Y002376D02*
X018255Y002376D01*
X018292Y002277D02*
X018198Y002277D01*
X018146Y002179D02*
X018349Y002179D01*
X018405Y002080D02*
X018061Y002080D01*
X018436Y002027D02*
X018436Y002027D01*
X017763Y002573D02*
X017663Y002573D01*
X017663Y002671D02*
X017763Y002671D01*
X017763Y002770D02*
X017663Y002770D01*
X017663Y002868D02*
X017763Y002868D01*
X017763Y002967D02*
X017669Y002967D01*
X017669Y003065D02*
X017769Y003065D01*
X017769Y003164D02*
X017669Y003164D01*
X017669Y003262D02*
X017769Y003262D01*
X017769Y003361D02*
X017669Y003361D01*
X017669Y003459D02*
X017769Y003459D01*
X017769Y003558D02*
X018780Y003558D01*
X018618Y003459D02*
X018369Y003459D01*
X018369Y003361D02*
X018500Y003361D01*
X018410Y003262D02*
X018344Y003262D01*
X018353Y003164D02*
X018246Y003164D01*
X018297Y003065D02*
X018147Y003065D01*
X018263Y003007D02*
X018263Y003007D01*
X018256Y002967D02*
X018049Y002967D01*
X018048Y002868D02*
X018239Y002868D01*
X018221Y002770D02*
X018137Y002770D01*
X018194Y002671D02*
X018204Y002671D01*
X018203Y002667D02*
X018203Y002667D01*
X017281Y002179D02*
X017221Y002179D01*
X017145Y002080D02*
X017366Y002080D01*
X017528Y001982D02*
X017047Y001982D01*
X016770Y003065D02*
X016525Y003065D01*
X019672Y004149D02*
X020363Y004149D01*
X020363Y004247D02*
X019770Y004247D01*
X019869Y004346D02*
X020363Y004346D01*
X020363Y004444D02*
X019916Y004444D01*
X013310Y009271D02*
X013143Y009271D01*
X013310Y009369D02*
X012887Y009369D01*
X012632Y009468D02*
X013334Y009468D01*
X013375Y009566D02*
X012376Y009566D01*
X012121Y009665D02*
X013467Y009665D01*
X013652Y009763D02*
X011866Y009763D01*
X013310Y010256D02*
X008228Y010256D01*
X008130Y010354D02*
X013310Y010354D01*
X013328Y010453D02*
X008031Y010453D01*
X007933Y010551D02*
X013368Y010551D01*
X013452Y010650D02*
X007819Y010650D01*
X008327Y010157D02*
X013341Y010157D01*
X013386Y010059D02*
X008425Y010059D01*
X008524Y009960D02*
X013484Y009960D01*
X013868Y009763D02*
X013925Y009763D01*
X013925Y009862D02*
X008965Y009862D01*
X007802Y009862D02*
X007739Y009862D01*
X007276Y009369D02*
X007176Y009369D01*
X006282Y008692D02*
X006282Y007492D01*
X006882Y006892D01*
X006494Y006808D02*
X006319Y006808D01*
X007225Y007202D02*
X007724Y007202D01*
X007326Y007104D02*
X007270Y007104D01*
X007568Y006611D02*
X008395Y006611D01*
X008395Y006513D02*
X007470Y006513D01*
X007371Y006414D02*
X008365Y006414D01*
X008267Y006316D02*
X007273Y006316D01*
X007873Y005922D02*
X005072Y005922D01*
X005113Y006020D02*
X007971Y006020D01*
X008070Y006119D02*
X006261Y006119D01*
X006360Y006217D02*
X008168Y006217D01*
X007774Y005823D02*
X005011Y005823D01*
X004930Y005725D02*
X007676Y005725D01*
X007577Y005626D02*
X005092Y005626D01*
X005190Y005528D02*
X007479Y005528D01*
X007380Y005429D02*
X005249Y005429D01*
X005290Y005331D02*
X007282Y005331D01*
X007183Y005232D02*
X005320Y005232D01*
X005320Y005134D02*
X007085Y005134D01*
X006986Y005035D02*
X005320Y005035D01*
X005296Y004937D02*
X006888Y004937D01*
X006789Y004838D02*
X005255Y004838D01*
X005204Y004740D02*
X006283Y004740D01*
X006162Y004641D02*
X005105Y004641D01*
X005191Y004543D02*
X006072Y004543D01*
X006031Y004444D02*
X005249Y004444D01*
X005290Y004346D02*
X005991Y004346D01*
X005988Y004247D02*
X005320Y004247D01*
X005320Y004149D02*
X005988Y004149D01*
X006009Y004050D02*
X005320Y004050D01*
X005295Y003952D02*
X006050Y003952D01*
X006109Y003853D02*
X005254Y003853D01*
X005203Y003755D02*
X006208Y003755D01*
X006392Y003656D02*
X005105Y003656D01*
X003322Y004641D02*
X001492Y004641D01*
X001492Y004543D02*
X001515Y004543D01*
X001915Y004543D02*
X002499Y004543D01*
X002370Y004444D02*
X002044Y004444D01*
X002114Y004346D02*
X002300Y004346D01*
X002259Y004247D02*
X002154Y004247D01*
X002161Y004149D02*
X002253Y004149D01*
X002254Y004050D02*
X002160Y004050D01*
X002119Y003952D02*
X002295Y003952D01*
X002357Y003853D02*
X002056Y003853D01*
X001944Y003755D02*
X002469Y003755D01*
X003364Y001982D02*
X007882Y001982D01*
X007882Y001883D02*
X003247Y001883D01*
X003098Y001785D02*
X007912Y001785D01*
X008629Y003361D02*
X009183Y003361D01*
X008721Y003952D02*
X008626Y003952D01*
X005702Y006119D02*
X005114Y006119D01*
X005107Y006217D02*
X005604Y006217D01*
X007967Y006710D02*
X008395Y006710D01*
X008395Y006808D02*
X008065Y006808D01*
X006022Y007695D02*
X005206Y007695D01*
X005256Y007793D02*
X006022Y007793D01*
X006022Y007892D02*
X005296Y007892D01*
X005320Y007990D02*
X006022Y007990D01*
X006022Y008089D02*
X005320Y008089D01*
X005320Y008187D02*
X006022Y008187D01*
X006022Y008286D02*
X005289Y008286D01*
X005248Y008384D02*
X006022Y008384D01*
X006022Y008483D02*
X005188Y008483D01*
X005089Y008581D02*
X006022Y008581D01*
X005927Y008680D02*
X004925Y008680D01*
X005533Y009074D02*
X003506Y009074D01*
X003562Y009172D02*
X005434Y009172D01*
X005631Y008975D02*
X003449Y008975D01*
X003363Y008877D02*
X005730Y008877D01*
X005828Y008778D02*
X003246Y008778D01*
X003592Y009223D02*
X003592Y009223D01*
X003600Y009271D02*
X003690Y009271D01*
X003646Y009369D02*
X003617Y009369D01*
X003635Y009468D02*
X003646Y009468D01*
X003634Y009665D02*
X003646Y009665D01*
X003646Y009763D02*
X003616Y009763D01*
X003599Y009862D02*
X003646Y009862D01*
X003646Y009960D02*
X003559Y009960D01*
X003502Y010059D02*
X003646Y010059D01*
X003646Y010157D02*
X003445Y010157D01*
X003419Y010203D02*
X003419Y010203D01*
X003356Y010256D02*
X003674Y010256D01*
X003238Y010354D02*
X004438Y010354D01*
X004536Y010453D02*
X003078Y010453D01*
X003154Y010425D02*
X003154Y010425D01*
X002236Y010453D02*
X001915Y010453D01*
X001816Y010354D02*
X002075Y010354D01*
X001957Y010256D02*
X001724Y010256D01*
X001667Y010157D02*
X001868Y010157D01*
X001894Y010203D02*
X001894Y010203D01*
X001811Y010059D02*
X001611Y010059D01*
X001568Y009960D02*
X001754Y009960D01*
X001714Y009862D02*
X001542Y009862D01*
X001515Y009763D02*
X001697Y009763D01*
X001679Y009665D02*
X001499Y009665D01*
X001492Y009566D02*
X001662Y009566D01*
X001661Y009563D02*
X001661Y009563D01*
X001678Y009468D02*
X001492Y009468D01*
X001492Y009369D02*
X001696Y009369D01*
X001713Y009271D02*
X001492Y009271D01*
X001492Y009172D02*
X001751Y009172D01*
X001807Y009074D02*
X001492Y009074D01*
X001492Y008975D02*
X001864Y008975D01*
X001894Y008923D02*
X001894Y008923D01*
X001950Y008877D02*
X001492Y008877D01*
X001492Y008778D02*
X002067Y008778D01*
X002159Y008701D02*
X002159Y008701D01*
X002218Y008680D02*
X001492Y008680D01*
X002061Y010551D02*
X004634Y010551D01*
X004639Y010556D02*
X004639Y010556D01*
X004720Y010638D02*
X004720Y010638D01*
X004749Y010650D02*
X002253Y010650D01*
X004827Y010682D02*
X004827Y010682D01*
X005226Y009771D02*
X005226Y009747D01*
X006282Y008692D01*
X004919Y009271D02*
X004763Y009271D01*
X004806Y009369D02*
X004808Y009369D01*
X018071Y010650D02*
X019602Y010650D01*
D22*
X017719Y008674D02*
X013885Y008674D01*
X011770Y009489D01*
X008685Y009489D01*
X008685Y006324D01*
X006582Y004221D01*
X008585Y009489D02*
X007683Y010391D01*
X007683Y010392D01*
X004885Y010392D01*
X004267Y009771D01*
X004226Y009771D01*
X008585Y009489D02*
X008685Y009489D01*
X016768Y007272D02*
X016768Y004713D01*
X017719Y005317D02*
X018378Y004657D01*
X018378Y004591D01*
X018396Y004608D01*
X017719Y005317D02*
X017719Y008674D01*
M02*
