G75*
G70*
%OFA0B0*%
%FSLAX24Y24*%
%IPPOS*%
%LPD*%
%AMOC8*
5,1,8,0,0,1.08239X$1,22.5*
%
%ADD10C,0.0000*%
%ADD11C,0.0050*%
%ADD12C,0.0060*%
%ADD13C,0.0051*%
%ADD14C,0.0110*%
%ADD15R,0.0110X0.0005*%
%ADD16R,0.0210X0.0005*%
%ADD17R,0.0280X0.0005*%
%ADD18R,0.0325X0.0005*%
%ADD19R,0.0365X0.0005*%
%ADD20R,0.0410X0.0005*%
%ADD21R,0.0440X0.0005*%
%ADD22R,0.0470X0.0005*%
%ADD23R,0.0505X0.0005*%
%ADD24R,0.0530X0.0005*%
%ADD25R,0.0555X0.0005*%
%ADD26R,0.0580X0.0005*%
%ADD27R,0.0600X0.0005*%
%ADD28R,0.0625X0.0005*%
%ADD29R,0.0645X0.0005*%
%ADD30R,0.0665X0.0005*%
%ADD31R,0.0685X0.0005*%
%ADD32R,0.0705X0.0005*%
%ADD33R,0.0715X0.0005*%
%ADD34R,0.0735X0.0005*%
%ADD35R,0.0755X0.0005*%
%ADD36R,0.0090X0.0005*%
%ADD37R,0.0770X0.0005*%
%ADD38R,0.0190X0.0005*%
%ADD39R,0.0355X0.0005*%
%ADD40R,0.0360X0.0005*%
%ADD41R,0.0260X0.0005*%
%ADD42R,0.0315X0.0005*%
%ADD43R,0.0320X0.0005*%
%ADD44R,0.0295X0.0005*%
%ADD45R,0.0275X0.0005*%
%ADD46R,0.0400X0.0005*%
%ADD47R,0.0265X0.0005*%
%ADD48R,0.0435X0.0005*%
%ADD49R,0.0255X0.0005*%
%ADD50R,0.0465X0.0005*%
%ADD51R,0.0245X0.0005*%
%ADD52R,0.0495X0.0005*%
%ADD53R,0.0235X0.0005*%
%ADD54R,0.0525X0.0005*%
%ADD55R,0.0230X0.0005*%
%ADD56R,0.0240X0.0005*%
%ADD57R,0.0545X0.0005*%
%ADD58R,0.0820X0.0005*%
%ADD59R,0.0220X0.0005*%
%ADD60R,0.0025X0.0005*%
%ADD61R,0.0795X0.0005*%
%ADD62R,0.0215X0.0005*%
%ADD63R,0.0035X0.0005*%
%ADD64R,0.0040X0.0005*%
%ADD65R,0.0800X0.0005*%
%ADD66R,0.0205X0.0005*%
%ADD67R,0.0050X0.0005*%
%ADD68R,0.0805X0.0005*%
%ADD69R,0.0165X0.0005*%
%ADD70R,0.0055X0.0005*%
%ADD71R,0.0200X0.0005*%
%ADD72R,0.0060X0.0005*%
%ADD73R,0.0300X0.0005*%
%ADD74R,0.0195X0.0005*%
%ADD75R,0.0065X0.0005*%
%ADD76R,0.0345X0.0005*%
%ADD77R,0.0070X0.0005*%
%ADD78R,0.0385X0.0005*%
%ADD79R,0.0080X0.0005*%
%ADD80R,0.0425X0.0005*%
%ADD81R,0.0185X0.0005*%
%ADD82R,0.0085X0.0005*%
%ADD83R,0.0635X0.0005*%
%ADD84R,0.0810X0.0005*%
%ADD85R,0.0095X0.0005*%
%ADD86R,0.0335X0.0005*%
%ADD87R,0.0655X0.0005*%
%ADD88R,0.0105X0.0005*%
%ADD89R,0.0290X0.0005*%
%ADD90R,0.0660X0.0005*%
%ADD91R,0.0115X0.0005*%
%ADD92R,0.0285X0.0005*%
%ADD93R,0.0120X0.0005*%
%ADD94R,0.0270X0.0005*%
%ADD95R,0.0675X0.0005*%
%ADD96R,0.0130X0.0005*%
%ADD97R,0.0680X0.0005*%
%ADD98R,0.0135X0.0005*%
%ADD99R,0.0250X0.0005*%
%ADD100R,0.0140X0.0005*%
%ADD101R,0.0180X0.0005*%
%ADD102R,0.0695X0.0005*%
%ADD103R,0.0150X0.0005*%
%ADD104R,0.0160X0.0005*%
%ADD105R,0.0155X0.0005*%
%ADD106R,0.0145X0.0005*%
%ADD107R,0.0700X0.0005*%
%ADD108R,0.0225X0.0005*%
%ADD109R,0.0170X0.0005*%
%ADD110R,0.0100X0.0005*%
%ADD111R,0.0075X0.0005*%
%ADD112R,0.0720X0.0005*%
%ADD113R,0.0725X0.0005*%
%ADD114R,0.0340X0.0005*%
%ADD115R,0.0305X0.0005*%
%ADD116R,0.0175X0.0005*%
%ADD117R,0.0005X0.0005*%
%ADD118R,0.0010X0.0005*%
%ADD119R,0.0015X0.0005*%
%ADD120R,0.0020X0.0005*%
%ADD121R,0.0030X0.0005*%
%ADD122R,0.0125X0.0005*%
%ADD123R,0.0045X0.0005*%
%ADD124R,0.0370X0.0005*%
%ADD125R,0.0375X0.0005*%
%ADD126R,0.0350X0.0005*%
%ADD127R,0.0330X0.0005*%
%ADD128R,0.0485X0.0005*%
%ADD129R,0.0480X0.0005*%
%ADD130R,0.0460X0.0005*%
%ADD131R,0.0445X0.0005*%
%ADD132R,0.0310X0.0005*%
%ADD133R,0.0380X0.0005*%
%ADD134R,0.0415X0.0005*%
%ADD135R,0.0450X0.0005*%
%ADD136R,0.0490X0.0005*%
%ADD137R,0.0965X0.0005*%
%ADD138R,0.0975X0.0005*%
%ADD139R,0.0980X0.0005*%
%ADD140R,0.0990X0.0005*%
%ADD141R,0.1005X0.0005*%
%ADD142R,0.0615X0.0005*%
%ADD143R,0.0640X0.0005*%
%ADD144R,0.0605X0.0005*%
%ADD145R,0.0620X0.0005*%
%ADD146R,0.0590X0.0005*%
%ADD147R,0.0570X0.0005*%
%ADD148R,0.0540X0.0005*%
%ADD149R,0.0515X0.0005*%
%ADD150R,0.0565X0.0005*%
%ADD151R,0.0535X0.0005*%
%ADD152R,0.0395X0.0005*%
%ADD153R,0.0520X0.0005*%
%ADD154R,0.0500X0.0005*%
%ADD155R,0.0430X0.0005*%
%ADD156C,0.0080*%
%ADD157R,0.0079X0.0079*%
%ADD158C,0.0160*%
%ADD159R,0.0230X0.0160*%
D10*
X004848Y006033D02*
X004851Y006033D01*
X021387Y006033D01*
X021390Y006033D01*
X020740Y007407D02*
X020742Y007457D01*
X020748Y007507D01*
X020758Y007557D01*
X020771Y007605D01*
X020788Y007653D01*
X020809Y007699D01*
X020833Y007743D01*
X020861Y007785D01*
X020892Y007825D01*
X020926Y007862D01*
X020963Y007897D01*
X021002Y007928D01*
X021043Y007957D01*
X021087Y007982D01*
X021133Y008004D01*
X021180Y008022D01*
X021228Y008036D01*
X021277Y008047D01*
X021327Y008054D01*
X021377Y008057D01*
X021428Y008056D01*
X021478Y008051D01*
X021528Y008042D01*
X021576Y008030D01*
X021624Y008013D01*
X021670Y007993D01*
X021715Y007970D01*
X021758Y007943D01*
X021798Y007913D01*
X021836Y007880D01*
X021871Y007844D01*
X021904Y007805D01*
X021933Y007764D01*
X021959Y007721D01*
X021982Y007676D01*
X022001Y007629D01*
X022016Y007581D01*
X022028Y007532D01*
X022036Y007482D01*
X022040Y007432D01*
X022040Y007382D01*
X022036Y007332D01*
X022028Y007282D01*
X022016Y007233D01*
X022001Y007185D01*
X021982Y007138D01*
X021959Y007093D01*
X021933Y007050D01*
X021904Y007009D01*
X021871Y006970D01*
X021836Y006934D01*
X021798Y006901D01*
X021758Y006871D01*
X021715Y006844D01*
X021670Y006821D01*
X021624Y006801D01*
X021576Y006784D01*
X021528Y006772D01*
X021478Y006763D01*
X021428Y006758D01*
X021377Y006757D01*
X021327Y006760D01*
X021277Y006767D01*
X021228Y006778D01*
X021180Y006792D01*
X021133Y006810D01*
X021087Y006832D01*
X021043Y006857D01*
X021002Y006886D01*
X020963Y006917D01*
X020926Y006952D01*
X020892Y006989D01*
X020861Y007029D01*
X020833Y007071D01*
X020809Y007115D01*
X020788Y007161D01*
X020771Y007209D01*
X020758Y007257D01*
X020748Y007307D01*
X020742Y007357D01*
X020740Y007407D01*
X021387Y006033D02*
X021459Y006035D01*
X021531Y006041D01*
X021603Y006050D01*
X021674Y006063D01*
X021744Y006080D01*
X021813Y006100D01*
X021881Y006125D01*
X021947Y006152D01*
X022013Y006183D01*
X022076Y006218D01*
X022138Y006255D01*
X022197Y006296D01*
X022254Y006340D01*
X022309Y006387D01*
X022361Y006437D01*
X022411Y006489D01*
X022458Y006544D01*
X022502Y006601D01*
X022543Y006660D01*
X022580Y006722D01*
X022615Y006785D01*
X022646Y006851D01*
X022673Y006917D01*
X022698Y006985D01*
X022718Y007054D01*
X022735Y007124D01*
X022748Y007195D01*
X022757Y007267D01*
X022763Y007339D01*
X022765Y007411D01*
X022765Y014300D01*
X020737Y014300D02*
X020739Y014350D01*
X020745Y014400D01*
X020755Y014450D01*
X020768Y014498D01*
X020785Y014546D01*
X020806Y014592D01*
X020830Y014636D01*
X020858Y014678D01*
X020889Y014718D01*
X020923Y014755D01*
X020960Y014790D01*
X020999Y014821D01*
X021040Y014850D01*
X021084Y014875D01*
X021130Y014897D01*
X021177Y014915D01*
X021225Y014929D01*
X021274Y014940D01*
X021324Y014947D01*
X021374Y014950D01*
X021425Y014949D01*
X021475Y014944D01*
X021525Y014935D01*
X021573Y014923D01*
X021621Y014906D01*
X021667Y014886D01*
X021712Y014863D01*
X021755Y014836D01*
X021795Y014806D01*
X021833Y014773D01*
X021868Y014737D01*
X021901Y014698D01*
X021930Y014657D01*
X021956Y014614D01*
X021979Y014569D01*
X021998Y014522D01*
X022013Y014474D01*
X022025Y014425D01*
X022033Y014375D01*
X022037Y014325D01*
X022037Y014275D01*
X022033Y014225D01*
X022025Y014175D01*
X022013Y014126D01*
X021998Y014078D01*
X021979Y014031D01*
X021956Y013986D01*
X021930Y013943D01*
X021901Y013902D01*
X021868Y013863D01*
X021833Y013827D01*
X021795Y013794D01*
X021755Y013764D01*
X021712Y013737D01*
X021667Y013714D01*
X021621Y013694D01*
X021573Y013677D01*
X021525Y013665D01*
X021475Y013656D01*
X021425Y013651D01*
X021374Y013650D01*
X021324Y013653D01*
X021274Y013660D01*
X021225Y013671D01*
X021177Y013685D01*
X021130Y013703D01*
X021084Y013725D01*
X021040Y013750D01*
X020999Y013779D01*
X020960Y013810D01*
X020923Y013845D01*
X020889Y013882D01*
X020858Y013922D01*
X020830Y013964D01*
X020806Y014008D01*
X020785Y014054D01*
X020768Y014102D01*
X020755Y014150D01*
X020745Y014200D01*
X020739Y014250D01*
X020737Y014300D01*
X021387Y015678D02*
X021459Y015676D01*
X021531Y015670D01*
X021603Y015661D01*
X021674Y015648D01*
X021744Y015631D01*
X021813Y015611D01*
X021881Y015586D01*
X021947Y015559D01*
X022013Y015528D01*
X022076Y015493D01*
X022138Y015456D01*
X022197Y015415D01*
X022254Y015371D01*
X022309Y015324D01*
X022361Y015274D01*
X022411Y015222D01*
X022458Y015167D01*
X022502Y015110D01*
X022543Y015051D01*
X022580Y014989D01*
X022615Y014926D01*
X022646Y014860D01*
X022673Y014794D01*
X022698Y014726D01*
X022718Y014657D01*
X022735Y014587D01*
X022748Y014516D01*
X022757Y014444D01*
X022763Y014372D01*
X022765Y014300D01*
X021387Y015678D02*
X004851Y015678D01*
X004198Y014304D02*
X004200Y014354D01*
X004206Y014404D01*
X004216Y014454D01*
X004229Y014502D01*
X004246Y014550D01*
X004267Y014596D01*
X004291Y014640D01*
X004319Y014682D01*
X004350Y014722D01*
X004384Y014759D01*
X004421Y014794D01*
X004460Y014825D01*
X004501Y014854D01*
X004545Y014879D01*
X004591Y014901D01*
X004638Y014919D01*
X004686Y014933D01*
X004735Y014944D01*
X004785Y014951D01*
X004835Y014954D01*
X004886Y014953D01*
X004936Y014948D01*
X004986Y014939D01*
X005034Y014927D01*
X005082Y014910D01*
X005128Y014890D01*
X005173Y014867D01*
X005216Y014840D01*
X005256Y014810D01*
X005294Y014777D01*
X005329Y014741D01*
X005362Y014702D01*
X005391Y014661D01*
X005417Y014618D01*
X005440Y014573D01*
X005459Y014526D01*
X005474Y014478D01*
X005486Y014429D01*
X005494Y014379D01*
X005498Y014329D01*
X005498Y014279D01*
X005494Y014229D01*
X005486Y014179D01*
X005474Y014130D01*
X005459Y014082D01*
X005440Y014035D01*
X005417Y013990D01*
X005391Y013947D01*
X005362Y013906D01*
X005329Y013867D01*
X005294Y013831D01*
X005256Y013798D01*
X005216Y013768D01*
X005173Y013741D01*
X005128Y013718D01*
X005082Y013698D01*
X005034Y013681D01*
X004986Y013669D01*
X004936Y013660D01*
X004886Y013655D01*
X004835Y013654D01*
X004785Y013657D01*
X004735Y013664D01*
X004686Y013675D01*
X004638Y013689D01*
X004591Y013707D01*
X004545Y013729D01*
X004501Y013754D01*
X004460Y013783D01*
X004421Y013814D01*
X004384Y013849D01*
X004350Y013886D01*
X004319Y013926D01*
X004291Y013968D01*
X004267Y014012D01*
X004246Y014058D01*
X004229Y014106D01*
X004216Y014154D01*
X004206Y014204D01*
X004200Y014254D01*
X004198Y014304D01*
X003473Y014300D02*
X003475Y014372D01*
X003481Y014444D01*
X003490Y014516D01*
X003503Y014587D01*
X003520Y014657D01*
X003540Y014726D01*
X003565Y014794D01*
X003592Y014860D01*
X003623Y014926D01*
X003658Y014989D01*
X003695Y015051D01*
X003736Y015110D01*
X003780Y015167D01*
X003827Y015222D01*
X003877Y015274D01*
X003929Y015324D01*
X003984Y015371D01*
X004041Y015415D01*
X004100Y015456D01*
X004162Y015493D01*
X004225Y015528D01*
X004291Y015559D01*
X004357Y015586D01*
X004425Y015611D01*
X004494Y015631D01*
X004564Y015648D01*
X004635Y015661D01*
X004707Y015670D01*
X004779Y015676D01*
X004851Y015678D01*
X003473Y014304D02*
X003473Y014300D01*
X003473Y007450D01*
X003473Y007407D01*
X004198Y007407D02*
X004200Y007457D01*
X004206Y007507D01*
X004216Y007557D01*
X004229Y007605D01*
X004246Y007653D01*
X004267Y007699D01*
X004291Y007743D01*
X004319Y007785D01*
X004350Y007825D01*
X004384Y007862D01*
X004421Y007897D01*
X004460Y007928D01*
X004501Y007957D01*
X004545Y007982D01*
X004591Y008004D01*
X004638Y008022D01*
X004686Y008036D01*
X004735Y008047D01*
X004785Y008054D01*
X004835Y008057D01*
X004886Y008056D01*
X004936Y008051D01*
X004986Y008042D01*
X005034Y008030D01*
X005082Y008013D01*
X005128Y007993D01*
X005173Y007970D01*
X005216Y007943D01*
X005256Y007913D01*
X005294Y007880D01*
X005329Y007844D01*
X005362Y007805D01*
X005391Y007764D01*
X005417Y007721D01*
X005440Y007676D01*
X005459Y007629D01*
X005474Y007581D01*
X005486Y007532D01*
X005494Y007482D01*
X005498Y007432D01*
X005498Y007382D01*
X005494Y007332D01*
X005486Y007282D01*
X005474Y007233D01*
X005459Y007185D01*
X005440Y007138D01*
X005417Y007093D01*
X005391Y007050D01*
X005362Y007009D01*
X005329Y006970D01*
X005294Y006934D01*
X005256Y006901D01*
X005216Y006871D01*
X005173Y006844D01*
X005128Y006821D01*
X005082Y006801D01*
X005034Y006784D01*
X004986Y006772D01*
X004936Y006763D01*
X004886Y006758D01*
X004835Y006757D01*
X004785Y006760D01*
X004735Y006767D01*
X004686Y006778D01*
X004638Y006792D01*
X004591Y006810D01*
X004545Y006832D01*
X004501Y006857D01*
X004460Y006886D01*
X004421Y006917D01*
X004384Y006952D01*
X004350Y006989D01*
X004319Y007029D01*
X004291Y007071D01*
X004267Y007115D01*
X004246Y007161D01*
X004229Y007209D01*
X004216Y007257D01*
X004206Y007307D01*
X004200Y007357D01*
X004198Y007407D01*
X003473Y007450D02*
X003474Y007377D01*
X003479Y007303D01*
X003487Y007231D01*
X003500Y007159D01*
X003516Y007087D01*
X003535Y007017D01*
X003559Y006947D01*
X003586Y006879D01*
X003617Y006813D01*
X003651Y006748D01*
X003688Y006685D01*
X003729Y006624D01*
X003772Y006566D01*
X003819Y006509D01*
X003869Y006455D01*
X003921Y006404D01*
X003976Y006356D01*
X004033Y006311D01*
X004093Y006268D01*
X004155Y006229D01*
X004219Y006193D01*
X004284Y006161D01*
X004352Y006132D01*
X004420Y006107D01*
X004490Y006085D01*
X004561Y006067D01*
X004633Y006052D01*
X004705Y006042D01*
X004778Y006035D01*
X004851Y006032D01*
X004655Y008883D02*
X004657Y008913D01*
X004663Y008943D01*
X004672Y008972D01*
X004685Y008999D01*
X004702Y009024D01*
X004721Y009047D01*
X004744Y009068D01*
X004769Y009085D01*
X004795Y009099D01*
X004824Y009109D01*
X004853Y009116D01*
X004883Y009119D01*
X004914Y009118D01*
X004944Y009113D01*
X004973Y009104D01*
X005000Y009092D01*
X005026Y009077D01*
X005050Y009058D01*
X005071Y009036D01*
X005089Y009012D01*
X005104Y008985D01*
X005115Y008957D01*
X005123Y008928D01*
X005127Y008898D01*
X005127Y008868D01*
X005123Y008838D01*
X005115Y008809D01*
X005104Y008781D01*
X005089Y008754D01*
X005071Y008730D01*
X005050Y008708D01*
X005026Y008689D01*
X005000Y008674D01*
X004973Y008662D01*
X004944Y008653D01*
X004914Y008648D01*
X004883Y008647D01*
X004853Y008650D01*
X004824Y008657D01*
X004795Y008667D01*
X004769Y008681D01*
X004744Y008698D01*
X004721Y008719D01*
X004702Y008742D01*
X004685Y008767D01*
X004672Y008794D01*
X004663Y008823D01*
X004657Y008853D01*
X004655Y008883D01*
X003670Y008883D02*
X003672Y008913D01*
X003678Y008943D01*
X003687Y008972D01*
X003700Y008999D01*
X003717Y009024D01*
X003736Y009047D01*
X003759Y009068D01*
X003784Y009085D01*
X003810Y009099D01*
X003839Y009109D01*
X003868Y009116D01*
X003898Y009119D01*
X003929Y009118D01*
X003959Y009113D01*
X003988Y009104D01*
X004015Y009092D01*
X004041Y009077D01*
X004065Y009058D01*
X004086Y009036D01*
X004104Y009012D01*
X004119Y008985D01*
X004130Y008957D01*
X004138Y008928D01*
X004142Y008898D01*
X004142Y008868D01*
X004138Y008838D01*
X004130Y008809D01*
X004119Y008781D01*
X004104Y008754D01*
X004086Y008730D01*
X004065Y008708D01*
X004041Y008689D01*
X004015Y008674D01*
X003988Y008662D01*
X003959Y008653D01*
X003929Y008648D01*
X003898Y008647D01*
X003868Y008650D01*
X003839Y008657D01*
X003810Y008667D01*
X003784Y008681D01*
X003759Y008698D01*
X003736Y008719D01*
X003717Y008742D01*
X003700Y008767D01*
X003687Y008794D01*
X003678Y008823D01*
X003672Y008853D01*
X003670Y008883D01*
X006623Y010852D02*
X006625Y010882D01*
X006631Y010912D01*
X006640Y010941D01*
X006653Y010968D01*
X006670Y010993D01*
X006689Y011016D01*
X006712Y011037D01*
X006737Y011054D01*
X006763Y011068D01*
X006792Y011078D01*
X006821Y011085D01*
X006851Y011088D01*
X006882Y011087D01*
X006912Y011082D01*
X006941Y011073D01*
X006968Y011061D01*
X006994Y011046D01*
X007018Y011027D01*
X007039Y011005D01*
X007057Y010981D01*
X007072Y010954D01*
X007083Y010926D01*
X007091Y010897D01*
X007095Y010867D01*
X007095Y010837D01*
X007091Y010807D01*
X007083Y010778D01*
X007072Y010750D01*
X007057Y010723D01*
X007039Y010699D01*
X007018Y010677D01*
X006994Y010658D01*
X006968Y010643D01*
X006941Y010631D01*
X006912Y010622D01*
X006882Y010617D01*
X006851Y010616D01*
X006821Y010619D01*
X006792Y010626D01*
X006763Y010636D01*
X006737Y010650D01*
X006712Y010667D01*
X006689Y010688D01*
X006670Y010711D01*
X006653Y010736D01*
X006640Y010763D01*
X006631Y010792D01*
X006625Y010822D01*
X006623Y010852D01*
X004655Y012820D02*
X004657Y012850D01*
X004663Y012880D01*
X004672Y012909D01*
X004685Y012936D01*
X004702Y012961D01*
X004721Y012984D01*
X004744Y013005D01*
X004769Y013022D01*
X004795Y013036D01*
X004824Y013046D01*
X004853Y013053D01*
X004883Y013056D01*
X004914Y013055D01*
X004944Y013050D01*
X004973Y013041D01*
X005000Y013029D01*
X005026Y013014D01*
X005050Y012995D01*
X005071Y012973D01*
X005089Y012949D01*
X005104Y012922D01*
X005115Y012894D01*
X005123Y012865D01*
X005127Y012835D01*
X005127Y012805D01*
X005123Y012775D01*
X005115Y012746D01*
X005104Y012718D01*
X005089Y012691D01*
X005071Y012667D01*
X005050Y012645D01*
X005026Y012626D01*
X005000Y012611D01*
X004973Y012599D01*
X004944Y012590D01*
X004914Y012585D01*
X004883Y012584D01*
X004853Y012587D01*
X004824Y012594D01*
X004795Y012604D01*
X004769Y012618D01*
X004744Y012635D01*
X004721Y012656D01*
X004702Y012679D01*
X004685Y012704D01*
X004672Y012731D01*
X004663Y012760D01*
X004657Y012790D01*
X004655Y012820D01*
X003670Y012820D02*
X003672Y012850D01*
X003678Y012880D01*
X003687Y012909D01*
X003700Y012936D01*
X003717Y012961D01*
X003736Y012984D01*
X003759Y013005D01*
X003784Y013022D01*
X003810Y013036D01*
X003839Y013046D01*
X003868Y013053D01*
X003898Y013056D01*
X003929Y013055D01*
X003959Y013050D01*
X003988Y013041D01*
X004015Y013029D01*
X004041Y013014D01*
X004065Y012995D01*
X004086Y012973D01*
X004104Y012949D01*
X004119Y012922D01*
X004130Y012894D01*
X004138Y012865D01*
X004142Y012835D01*
X004142Y012805D01*
X004138Y012775D01*
X004130Y012746D01*
X004119Y012718D01*
X004104Y012691D01*
X004086Y012667D01*
X004065Y012645D01*
X004041Y012626D01*
X004015Y012611D01*
X003988Y012599D01*
X003959Y012590D01*
X003929Y012585D01*
X003898Y012584D01*
X003868Y012587D01*
X003839Y012594D01*
X003810Y012604D01*
X003784Y012618D01*
X003759Y012635D01*
X003736Y012656D01*
X003717Y012679D01*
X003700Y012704D01*
X003687Y012731D01*
X003678Y012760D01*
X003672Y012790D01*
X003670Y012820D01*
D11*
X003909Y012008D02*
X003864Y011963D01*
X003864Y011783D01*
X003909Y011738D01*
X004000Y011738D01*
X004045Y011783D01*
X004045Y011873D01*
X003954Y011873D01*
X004045Y011963D02*
X004000Y012008D01*
X003909Y012008D01*
X004159Y012008D02*
X004339Y011738D01*
X004339Y012008D01*
X004454Y012008D02*
X004589Y012008D01*
X004634Y011963D01*
X004634Y011783D01*
X004589Y011738D01*
X004454Y011738D01*
X004454Y012008D01*
X004159Y012008D02*
X004159Y011738D01*
X004199Y011058D02*
X004289Y011058D01*
X004334Y011013D01*
X004334Y010833D01*
X004289Y010788D01*
X004199Y010788D01*
X004154Y010833D01*
X004154Y011013D01*
X004199Y011058D01*
X004039Y011013D02*
X004039Y010833D01*
X003994Y010788D01*
X003859Y010788D01*
X003859Y011058D01*
X003994Y011058D01*
X004039Y011013D01*
X004244Y010878D02*
X004334Y010788D01*
X004294Y010058D02*
X004204Y010058D01*
X004159Y010013D01*
X004159Y009833D01*
X004204Y009788D01*
X004294Y009788D01*
X004339Y009833D01*
X004454Y009833D02*
X004454Y010013D01*
X004499Y010058D01*
X004589Y010058D01*
X004634Y010013D01*
X004634Y009833D02*
X004589Y009788D01*
X004499Y009788D01*
X004454Y009833D01*
X004339Y010013D02*
X004294Y010058D01*
X004045Y010058D02*
X004045Y009878D01*
X003954Y009788D01*
X003864Y009878D01*
X003864Y010058D01*
X011507Y009925D02*
X011507Y012740D01*
X013240Y012740D01*
X013240Y009925D01*
X011507Y009925D01*
X011625Y012583D02*
X011627Y012591D01*
X011632Y012598D01*
X011639Y012602D01*
X011647Y012603D01*
X011655Y012600D01*
X011661Y012595D01*
X011665Y012587D01*
X011665Y012579D01*
X011661Y012571D01*
X011655Y012566D01*
X011647Y012563D01*
X011639Y012564D01*
X011632Y012568D01*
X011627Y012575D01*
X011625Y012583D01*
X009747Y015114D02*
X009612Y015114D01*
X009612Y015384D01*
X009747Y015384D01*
X009792Y015339D01*
X009792Y015159D01*
X009747Y015114D01*
X009497Y015114D02*
X009497Y015384D01*
X009317Y015384D02*
X009317Y015114D01*
X009202Y015159D02*
X009202Y015249D01*
X009112Y015249D01*
X009022Y015159D02*
X009067Y015114D01*
X009157Y015114D01*
X009202Y015159D01*
X009022Y015159D02*
X009022Y015339D01*
X009067Y015384D01*
X009157Y015384D01*
X009202Y015339D01*
X009317Y015384D02*
X009497Y015114D01*
X008792Y015249D02*
X008612Y015249D01*
X008747Y015384D01*
X008747Y015114D01*
X008497Y015114D02*
X008317Y015114D01*
X008407Y015114D02*
X008407Y015384D01*
X008317Y015294D01*
X008202Y015249D02*
X008157Y015204D01*
X008022Y015204D01*
X008022Y015114D02*
X008022Y015384D01*
X008157Y015384D01*
X008202Y015339D01*
X008202Y015249D01*
X007790Y015204D02*
X007790Y015159D01*
X007745Y015114D01*
X007655Y015114D01*
X007610Y015159D01*
X007496Y015114D02*
X007315Y015114D01*
X007405Y015114D02*
X007405Y015384D01*
X007315Y015294D01*
X007201Y015249D02*
X007156Y015204D01*
X007021Y015204D01*
X007021Y015114D02*
X007021Y015384D01*
X007156Y015384D01*
X007201Y015339D01*
X007201Y015249D01*
X007610Y015339D02*
X007655Y015384D01*
X007745Y015384D01*
X007790Y015339D01*
X007790Y015294D01*
X007745Y015249D01*
X007790Y015204D01*
X007745Y015249D02*
X007700Y015249D01*
X006790Y015159D02*
X006745Y015114D01*
X006655Y015114D01*
X006610Y015159D01*
X006610Y015339D01*
X006655Y015384D01*
X006745Y015384D01*
X006790Y015339D01*
X006496Y015339D02*
X006450Y015384D01*
X006360Y015384D01*
X006315Y015339D01*
X006315Y015159D01*
X006360Y015114D01*
X006450Y015114D01*
X006496Y015159D01*
X006201Y015204D02*
X006201Y015384D01*
X006201Y015204D02*
X006111Y015114D01*
X006021Y015204D01*
X006021Y015384D01*
X017698Y010928D02*
X017698Y010658D01*
X017833Y010658D01*
X017879Y010703D01*
X017879Y010748D01*
X017833Y010793D01*
X017698Y010793D01*
X017698Y010928D02*
X017833Y010928D01*
X017879Y010883D01*
X017879Y010838D01*
X017833Y010793D01*
X017993Y010928D02*
X018173Y010928D01*
X018083Y010928D02*
X018083Y010658D01*
X018288Y010658D02*
X018288Y010928D01*
X018468Y010658D01*
X018468Y010928D01*
X021220Y008703D02*
X021220Y008523D01*
X021265Y008478D01*
X021356Y008478D01*
X021401Y008523D01*
X021401Y008613D01*
X021310Y008613D01*
X021220Y008703D02*
X021265Y008748D01*
X021356Y008748D01*
X021401Y008703D01*
X021515Y008748D02*
X021695Y008478D01*
X021695Y008748D01*
X021810Y008748D02*
X021945Y008748D01*
X021990Y008703D01*
X021990Y008523D01*
X021945Y008478D01*
X021810Y008478D01*
X021810Y008748D01*
X021515Y008748D02*
X021515Y008478D01*
X020539Y006608D02*
X020404Y006608D01*
X020404Y006338D01*
X020539Y006338D01*
X020584Y006383D01*
X020584Y006563D01*
X020539Y006608D01*
X020289Y006608D02*
X020289Y006338D01*
X020109Y006608D01*
X020109Y006338D01*
X019995Y006383D02*
X019995Y006473D01*
X019904Y006473D01*
X019814Y006563D02*
X019814Y006383D01*
X019859Y006338D01*
X019950Y006338D01*
X019995Y006383D01*
X019995Y006563D02*
X019950Y006608D01*
X019859Y006608D01*
X019814Y006563D01*
X019584Y006563D02*
X019539Y006608D01*
X019449Y006608D01*
X019404Y006563D01*
X019404Y006383D01*
X019449Y006338D01*
X019539Y006338D01*
X019584Y006383D01*
X019289Y006383D02*
X019244Y006338D01*
X019154Y006338D01*
X019109Y006383D01*
X019109Y006563D01*
X019154Y006608D01*
X019244Y006608D01*
X019289Y006563D01*
X018995Y006608D02*
X018995Y006428D01*
X018904Y006338D01*
X018814Y006428D01*
X018814Y006608D01*
X018584Y006563D02*
X018584Y006383D01*
X018539Y006338D01*
X018404Y006338D01*
X018404Y006608D01*
X018539Y006608D01*
X018584Y006563D01*
X018289Y006608D02*
X018109Y006338D01*
X018289Y006338D02*
X018109Y006608D01*
X017995Y006608D02*
X017814Y006608D01*
X017904Y006608D02*
X017904Y006338D01*
X017634Y006383D02*
X017634Y006563D01*
X017589Y006608D01*
X017454Y006608D01*
X017454Y006338D01*
X017589Y006338D01*
X017634Y006383D01*
X017339Y006338D02*
X017159Y006608D01*
X017045Y006563D02*
X017045Y006473D01*
X017000Y006428D01*
X016864Y006428D01*
X016864Y006338D02*
X016864Y006608D01*
X017000Y006608D01*
X017045Y006563D01*
X016954Y006428D02*
X017045Y006338D01*
X017159Y006338D02*
X017339Y006608D01*
X016634Y006608D02*
X016454Y006608D01*
X016544Y006608D02*
X016544Y006338D01*
X016339Y006383D02*
X016294Y006338D01*
X016204Y006338D01*
X016159Y006383D01*
X016204Y006473D02*
X016159Y006518D01*
X016159Y006563D01*
X016204Y006608D01*
X016294Y006608D01*
X016339Y006563D01*
X016294Y006473D02*
X016339Y006428D01*
X016339Y006383D01*
X016294Y006473D02*
X016204Y006473D01*
X016045Y006473D02*
X016045Y006563D01*
X016000Y006608D01*
X015864Y006608D01*
X015864Y006338D01*
X015864Y006428D02*
X016000Y006428D01*
X016045Y006473D01*
X015954Y006428D02*
X016045Y006338D01*
X015584Y006608D02*
X015404Y006608D01*
X015494Y006608D02*
X015494Y006338D01*
X015289Y006383D02*
X015244Y006338D01*
X015154Y006338D01*
X015109Y006383D01*
X015154Y006473D02*
X015244Y006473D01*
X015289Y006428D01*
X015289Y006383D01*
X015154Y006473D02*
X015109Y006518D01*
X015109Y006563D01*
X015154Y006608D01*
X015244Y006608D01*
X015289Y006563D01*
X014995Y006608D02*
X014814Y006608D01*
X014904Y006608D02*
X014904Y006338D01*
D12*
X014138Y006430D02*
X013911Y006430D01*
X014081Y006600D01*
X014081Y006259D01*
X013770Y006259D02*
X013656Y006373D01*
X013713Y006373D02*
X013543Y006373D01*
X013543Y006259D02*
X013543Y006600D01*
X013713Y006600D01*
X013770Y006543D01*
X013770Y006430D01*
X013713Y006373D01*
X012760Y006373D02*
X012760Y006316D01*
X012703Y006259D01*
X012590Y006259D01*
X012533Y006316D01*
X012392Y006316D02*
X012335Y006259D01*
X012222Y006259D01*
X012165Y006316D01*
X012165Y006543D01*
X012222Y006600D01*
X012335Y006600D01*
X012392Y006543D01*
X012533Y006543D02*
X012590Y006600D01*
X012703Y006600D01*
X012760Y006543D01*
X012760Y006486D01*
X012703Y006430D01*
X012760Y006373D01*
X012703Y006430D02*
X012647Y006430D01*
X011480Y006486D02*
X011424Y006430D01*
X011480Y006373D01*
X011480Y006316D01*
X011424Y006259D01*
X011310Y006259D01*
X011254Y006316D01*
X011112Y006259D02*
X010999Y006373D01*
X011055Y006373D02*
X010885Y006373D01*
X010885Y006259D02*
X010885Y006600D01*
X011055Y006600D01*
X011112Y006543D01*
X011112Y006430D01*
X011055Y006373D01*
X011254Y006543D02*
X011310Y006600D01*
X011424Y006600D01*
X011480Y006543D01*
X011480Y006486D01*
X011424Y006430D02*
X011367Y006430D01*
X010102Y006486D02*
X010102Y006543D01*
X010046Y006600D01*
X009932Y006600D01*
X009876Y006543D01*
X009734Y006543D02*
X009734Y006430D01*
X009677Y006373D01*
X009507Y006373D01*
X009507Y006259D02*
X009507Y006600D01*
X009677Y006600D01*
X009734Y006543D01*
X009621Y006373D02*
X009734Y006259D01*
X009876Y006259D02*
X010102Y006486D01*
X010102Y006259D02*
X009876Y006259D01*
X008808Y006262D02*
X008581Y006262D01*
X008695Y006262D02*
X008695Y006602D01*
X008581Y006489D01*
X008440Y006545D02*
X008440Y006432D01*
X008383Y006375D01*
X008213Y006375D01*
X008213Y006262D02*
X008213Y006602D01*
X008383Y006602D01*
X008440Y006545D01*
X008326Y006375D02*
X008440Y006262D01*
X007740Y006259D02*
X007513Y006600D01*
X007372Y006543D02*
X007372Y006430D01*
X007315Y006373D01*
X007145Y006373D01*
X007145Y006259D02*
X007145Y006600D01*
X007315Y006600D01*
X007372Y006543D01*
X007259Y006373D02*
X007372Y006259D01*
X007513Y006259D02*
X007740Y006600D01*
X006854Y006600D02*
X006628Y006259D01*
X006854Y006259D02*
X006628Y006600D01*
X006486Y006600D02*
X006259Y006600D01*
X006373Y006600D02*
X006373Y006259D01*
X007567Y009013D02*
X007567Y009353D01*
X007737Y009353D01*
X007794Y009296D01*
X007794Y009183D01*
X007737Y009126D01*
X007567Y009126D01*
X007680Y009126D02*
X007794Y009013D01*
X007935Y009069D02*
X007992Y009013D01*
X008105Y009013D01*
X008162Y009069D01*
X008162Y009126D01*
X008105Y009183D01*
X007992Y009183D01*
X007935Y009240D01*
X007935Y009296D01*
X007992Y009353D01*
X008105Y009353D01*
X008162Y009296D01*
X008162Y009240D01*
X008105Y009183D01*
X007992Y009183D02*
X007935Y009126D01*
X007935Y009069D01*
X009173Y009060D02*
X009230Y009003D01*
X009343Y009003D01*
X009400Y009060D01*
X009541Y009060D02*
X009598Y009003D01*
X009711Y009003D01*
X009768Y009060D01*
X009768Y009117D01*
X009711Y009173D01*
X009541Y009173D01*
X009541Y009060D01*
X009541Y009173D02*
X009655Y009287D01*
X009768Y009343D01*
X009400Y009287D02*
X009343Y009343D01*
X009230Y009343D01*
X009173Y009287D01*
X009173Y009060D01*
X010213Y009015D02*
X010213Y009356D01*
X010383Y009356D01*
X010440Y009299D01*
X010440Y009186D01*
X010383Y009129D01*
X010213Y009129D01*
X010326Y009129D02*
X010440Y009015D01*
X010581Y009015D02*
X010581Y009072D01*
X010808Y009299D01*
X010808Y009356D01*
X010581Y009356D01*
X011780Y009246D02*
X011780Y009586D01*
X011894Y009472D01*
X012007Y009586D01*
X012007Y009246D01*
X012149Y009302D02*
X012206Y009359D01*
X012376Y009359D01*
X012376Y009416D02*
X012376Y009246D01*
X012206Y009246D01*
X012149Y009302D01*
X012206Y009472D02*
X012319Y009472D01*
X012376Y009416D01*
X012517Y009416D02*
X012574Y009472D01*
X012744Y009472D01*
X012744Y009189D01*
X012687Y009132D01*
X012631Y009132D01*
X012574Y009246D02*
X012744Y009246D01*
X012885Y009246D02*
X012999Y009246D01*
X012942Y009246D02*
X012942Y009472D01*
X012885Y009472D01*
X012942Y009586D02*
X012942Y009643D01*
X013131Y009416D02*
X013188Y009472D01*
X013358Y009472D01*
X013358Y009246D02*
X013188Y009246D01*
X013131Y009302D01*
X013131Y009416D01*
X012933Y008872D02*
X012990Y008816D01*
X012990Y008759D01*
X012763Y008759D01*
X012763Y008702D02*
X012763Y008816D01*
X012819Y008872D01*
X012933Y008872D01*
X012933Y008646D02*
X012819Y008646D01*
X012763Y008702D01*
X012631Y008646D02*
X012574Y008702D01*
X012574Y008929D01*
X012517Y008872D02*
X012631Y008872D01*
X012376Y008816D02*
X012376Y008702D01*
X012319Y008646D01*
X012206Y008646D01*
X012149Y008702D01*
X012149Y008816D01*
X012206Y008872D01*
X012319Y008872D01*
X012376Y008816D01*
X012007Y008986D02*
X012007Y008646D01*
X011780Y008646D02*
X011780Y008986D01*
X011894Y008872D01*
X012007Y008986D01*
X012517Y009302D02*
X012574Y009246D01*
X012517Y009302D02*
X012517Y009416D01*
X012528Y010230D02*
X012754Y010230D01*
X012641Y010230D02*
X012641Y010570D01*
X012528Y010457D01*
X012386Y010514D02*
X012386Y010287D01*
X012329Y010230D01*
X012216Y010230D01*
X012159Y010287D01*
X012159Y010514D01*
X012216Y010570D01*
X012329Y010570D01*
X012386Y010514D01*
X012273Y010343D02*
X012386Y010230D01*
X009883Y011887D02*
X009883Y011944D01*
X009826Y012001D01*
X009656Y012001D01*
X009656Y011887D01*
X009713Y011831D01*
X009826Y011831D01*
X009883Y011887D01*
X009770Y012114D02*
X009656Y012001D01*
X009515Y012001D02*
X009458Y011944D01*
X009288Y011944D01*
X009288Y011831D02*
X009288Y012171D01*
X009458Y012171D01*
X009515Y012114D01*
X009515Y012001D01*
X009401Y011944D02*
X009515Y011831D01*
X009770Y012114D02*
X009883Y012171D01*
X008662Y012096D02*
X008662Y011869D01*
X008605Y011813D01*
X008492Y011813D01*
X008435Y011869D01*
X008492Y011983D02*
X008662Y011983D01*
X008662Y012096D02*
X008605Y012153D01*
X008492Y012153D01*
X008435Y012096D01*
X008435Y012040D01*
X008492Y011983D01*
X008294Y011983D02*
X008237Y011926D01*
X008067Y011926D01*
X008180Y011926D02*
X008294Y011813D01*
X008294Y011983D02*
X008294Y012096D01*
X008237Y012153D01*
X008067Y012153D01*
X008067Y011813D01*
X009999Y013881D02*
X009999Y014221D01*
X010170Y014221D01*
X010226Y014164D01*
X010226Y014051D01*
X010170Y013994D01*
X009999Y013994D01*
X010113Y013994D02*
X010226Y013881D01*
X010368Y013937D02*
X010424Y013881D01*
X010538Y013881D01*
X010595Y013937D01*
X010595Y014051D01*
X010538Y014108D01*
X010481Y014108D01*
X010368Y014051D01*
X010368Y014221D01*
X010595Y014221D01*
X011023Y013503D02*
X010967Y013446D01*
X010967Y013219D01*
X011023Y013163D01*
X011137Y013163D01*
X011194Y013219D01*
X011335Y013163D02*
X011562Y013163D01*
X011448Y013163D02*
X011448Y013503D01*
X011335Y013390D01*
X011194Y013446D02*
X011137Y013503D01*
X011023Y013503D01*
X012060Y014913D02*
X012174Y014913D01*
X012230Y014969D01*
X012372Y014913D02*
X012599Y015140D01*
X012599Y015196D01*
X012542Y015253D01*
X012428Y015253D01*
X012372Y015196D01*
X012230Y015196D02*
X012174Y015253D01*
X012060Y015253D01*
X012003Y015196D01*
X012003Y014969D01*
X012060Y014913D01*
X012372Y014913D02*
X012599Y014913D01*
X014253Y014969D02*
X014310Y014913D01*
X014424Y014913D01*
X014480Y014969D01*
X014622Y015083D02*
X014849Y015083D01*
X014792Y014913D02*
X014792Y015253D01*
X014622Y015083D01*
X014480Y015196D02*
X014424Y015253D01*
X014310Y015253D01*
X014253Y015196D01*
X014253Y014969D01*
X016602Y015111D02*
X016602Y014011D01*
X016752Y014011D01*
X016752Y015111D01*
X016752Y015161D01*
X019752Y015161D01*
X019769Y015159D01*
X019786Y015155D01*
X019802Y015148D01*
X019816Y015138D01*
X019829Y015125D01*
X019839Y015111D01*
X019846Y015095D01*
X019850Y015078D01*
X019852Y015061D01*
X019852Y014061D01*
X019850Y014044D01*
X019846Y014027D01*
X019839Y014011D01*
X019829Y013997D01*
X019816Y013984D01*
X019802Y013974D01*
X019786Y013967D01*
X019769Y013963D01*
X019752Y013961D01*
X016752Y013961D01*
X016752Y014011D01*
X017652Y014561D02*
X017852Y014561D01*
X017852Y014261D01*
X018002Y014261D02*
X018152Y014261D01*
X018152Y014861D01*
X018002Y014861D01*
X018002Y014261D01*
X018302Y014261D02*
X018302Y014561D01*
X018502Y014561D01*
X018302Y014561D02*
X018302Y014861D01*
X017852Y014861D02*
X017852Y014561D01*
X018832Y014448D02*
X018888Y014391D01*
X019002Y014391D01*
X019059Y014448D01*
X019059Y014675D01*
X019002Y014732D01*
X018888Y014732D01*
X018832Y014675D01*
X018832Y014448D01*
X018945Y014505D02*
X019059Y014391D01*
X019200Y014562D02*
X019427Y014562D01*
X019370Y014732D02*
X019370Y014391D01*
X019200Y014562D02*
X019370Y014732D01*
X019410Y013915D02*
X019410Y013715D01*
X019410Y013915D02*
X019610Y013915D01*
X020210Y013915D02*
X020410Y013915D01*
X020410Y013715D01*
X020410Y013115D02*
X020410Y012915D01*
X020210Y012915D01*
X020338Y012849D02*
X020088Y012599D01*
X020088Y012099D01*
X020338Y011849D01*
X020088Y011599D01*
X020088Y011099D01*
X020338Y010849D01*
X020088Y010599D01*
X020088Y010099D01*
X020338Y009849D01*
X020088Y009599D01*
X020088Y009099D01*
X020338Y008849D01*
X021838Y008849D01*
X022088Y009099D01*
X022088Y009599D01*
X021838Y009849D01*
X022088Y010099D01*
X022088Y010599D01*
X021838Y010849D01*
X022088Y011099D01*
X022088Y011599D01*
X021838Y011849D01*
X022088Y012099D01*
X022088Y012599D01*
X021838Y012849D01*
X020338Y012849D01*
X019610Y012915D02*
X019410Y012915D01*
X019410Y013115D01*
X022285Y012218D02*
X022512Y012218D01*
X022399Y012331D02*
X022399Y012104D01*
X022569Y011963D02*
X022569Y011736D01*
X022569Y011849D02*
X022228Y011849D01*
X022342Y011736D01*
X022285Y011595D02*
X022512Y011368D01*
X022569Y011424D01*
X022569Y011538D01*
X022512Y011595D01*
X022285Y011595D01*
X022228Y011538D01*
X022228Y011424D01*
X022285Y011368D01*
X022512Y011368D01*
X022569Y011226D02*
X022569Y010999D01*
X022228Y010999D01*
X022228Y010801D02*
X022399Y010631D01*
X022399Y010858D01*
X022569Y010801D02*
X022228Y010801D01*
X022285Y010490D02*
X022228Y010433D01*
X022228Y010319D01*
X022285Y010263D01*
X022228Y010121D02*
X022228Y009894D01*
X022569Y009894D01*
X022569Y009753D02*
X022455Y009640D01*
X022455Y009696D02*
X022455Y009526D01*
X022569Y009526D02*
X022228Y009526D01*
X022228Y009696D01*
X022285Y009753D01*
X022399Y009753D01*
X022455Y009696D01*
X022399Y009894D02*
X022399Y010008D01*
X022569Y010263D02*
X022342Y010490D01*
X022285Y010490D01*
X022569Y010490D02*
X022569Y010263D01*
X022569Y009385D02*
X022228Y009385D01*
X022228Y009158D02*
X022569Y009385D01*
X022569Y009158D02*
X022228Y009158D01*
X020410Y008796D02*
X020210Y008796D01*
X020410Y008796D02*
X020410Y008596D01*
X020410Y007996D02*
X020410Y007796D01*
X020210Y007796D01*
X019610Y007796D02*
X019410Y007796D01*
X019410Y007996D01*
X019410Y008596D02*
X019410Y008796D01*
X019610Y008796D01*
X014812Y012669D02*
X014755Y012613D01*
X014642Y012613D01*
X014585Y012669D01*
X014585Y012783D02*
X014698Y012840D01*
X014755Y012840D01*
X014812Y012783D01*
X014812Y012669D01*
X014585Y012783D02*
X014585Y012953D01*
X014812Y012953D01*
X014444Y012896D02*
X014387Y012953D01*
X014273Y012953D01*
X014217Y012896D01*
X014217Y012669D01*
X014273Y012613D01*
X014387Y012613D01*
X014444Y012669D01*
X016602Y015111D02*
X016752Y015111D01*
D13*
X000916Y006024D02*
X000927Y001163D01*
X000867Y005000D02*
X000916Y006024D01*
X000816Y005000D01*
X000793Y005000D02*
X000916Y006024D01*
X001021Y005000D01*
X001044Y005000D02*
X000793Y005000D01*
X000970Y005000D02*
X000916Y006024D01*
X001044Y005000D01*
X000129Y006022D02*
X004851Y006033D01*
X004848Y007407D02*
X000126Y007397D01*
X000913Y007398D02*
X000808Y008422D01*
X000785Y008422D02*
X000913Y007398D01*
X001013Y008422D01*
X001036Y008422D02*
X000785Y008422D01*
X000859Y008422D02*
X000913Y007398D01*
X000962Y008422D01*
X001036Y008422D02*
X000913Y007398D01*
X000908Y009446D01*
X003473Y014300D02*
X003473Y019418D01*
X003473Y018631D02*
X004497Y018733D01*
X004497Y018757D02*
X004497Y018505D01*
X003473Y018631D01*
X004497Y018529D01*
X004497Y018580D02*
X003473Y018631D01*
X004497Y018682D01*
X004497Y018757D02*
X003473Y018631D01*
X022765Y018631D01*
X021741Y018529D01*
X021741Y018505D02*
X022765Y018631D01*
X021741Y018733D01*
X021741Y018757D02*
X021741Y018505D01*
X021741Y018580D02*
X022765Y018631D01*
X021741Y018682D01*
X021741Y018757D02*
X022765Y018631D01*
X022765Y019418D02*
X022765Y014300D01*
X022765Y013415D02*
X027095Y013415D01*
X026308Y013415D02*
X026410Y012391D01*
X026434Y012391D02*
X026308Y013415D01*
X026206Y012391D01*
X026182Y012391D02*
X026434Y012391D01*
X026359Y012391D02*
X026308Y013415D01*
X026257Y012391D01*
X026182Y012391D02*
X026308Y013415D01*
X026308Y008296D01*
X026410Y009320D01*
X026434Y009320D02*
X026308Y008296D01*
X026206Y009320D01*
X026182Y009320D02*
X026434Y009320D01*
X026359Y009320D02*
X026308Y008296D01*
X026257Y009320D01*
X026182Y009320D02*
X026308Y008296D01*
X027095Y008296D02*
X022765Y008296D01*
X021780Y006033D02*
X031032Y006033D01*
X030245Y006033D02*
X030347Y007056D01*
X030371Y007056D02*
X030245Y006033D01*
X030143Y007056D01*
X030119Y007056D02*
X030371Y007056D01*
X030296Y007056D02*
X030245Y006033D01*
X030194Y007056D01*
X030119Y007056D02*
X030245Y006033D01*
X030245Y015678D01*
X030347Y014655D01*
X030371Y014655D02*
X030245Y015678D01*
X030143Y014655D01*
X030119Y014655D02*
X030371Y014655D01*
X030296Y014655D02*
X030245Y015678D01*
X030194Y014655D01*
X030119Y014655D02*
X030245Y015678D01*
X031032Y015678D02*
X021780Y015678D01*
D14*
X024802Y011929D02*
X025013Y011929D01*
X025225Y011717D01*
X025436Y011929D01*
X025648Y011929D01*
X025859Y011717D01*
X025859Y011294D01*
X025648Y011083D01*
X025859Y010660D02*
X025859Y009814D01*
X025859Y010237D02*
X024590Y010237D01*
X025013Y009814D01*
X024802Y011083D02*
X024590Y011294D01*
X024590Y011717D01*
X024802Y011929D01*
X025225Y011717D02*
X025225Y011506D01*
X028527Y010895D02*
X029162Y010261D01*
X029162Y011107D01*
X029796Y010895D02*
X028527Y010895D01*
X029585Y011529D02*
X029585Y011741D01*
X029796Y011741D01*
X029796Y011529D01*
X029585Y011529D01*
X029585Y012164D02*
X029796Y012375D01*
X029796Y012798D01*
X029585Y013010D01*
X029162Y013010D01*
X028950Y012798D01*
X028950Y012587D01*
X029162Y012164D01*
X028527Y012164D01*
X028527Y013010D01*
X028739Y009838D02*
X028527Y009626D01*
X028527Y009203D01*
X028739Y008992D01*
X028950Y009838D02*
X029796Y008992D01*
X029796Y009838D01*
X028950Y009838D02*
X028739Y009838D01*
X014192Y019291D02*
X014192Y020137D01*
X013981Y020349D01*
X013558Y020349D01*
X013346Y020137D01*
X013346Y019926D01*
X013558Y019714D01*
X014192Y019714D01*
X014192Y019291D02*
X013981Y019080D01*
X013558Y019080D01*
X013346Y019291D01*
X012924Y019714D02*
X012078Y019714D01*
X012712Y020349D01*
X012712Y019080D01*
X002425Y004948D02*
X002637Y004737D01*
X002637Y004314D01*
X002426Y004102D01*
X002215Y004101D01*
X002003Y004313D01*
X001792Y004101D01*
X001580Y004100D01*
X001368Y004311D01*
X001368Y004735D01*
X001579Y004946D01*
X002003Y004524D02*
X002003Y004313D01*
X001581Y003678D02*
X001369Y003677D01*
X001370Y003466D01*
X001581Y003466D01*
X001581Y003678D01*
X002005Y003044D02*
X002007Y002198D01*
X002219Y001775D02*
X002008Y001564D01*
X002009Y000929D01*
X001586Y000928D02*
X002432Y000930D01*
X002643Y001142D01*
X002642Y001565D01*
X002430Y001776D01*
X002219Y001775D01*
X001584Y001774D02*
X001373Y001563D01*
X001374Y001139D01*
X001586Y000928D01*
X001372Y002408D02*
X002641Y002411D01*
X002005Y003044D01*
D15*
X014860Y010316D03*
X014830Y010511D03*
X015235Y010416D03*
X015250Y010406D03*
X015255Y010401D03*
X015265Y010396D03*
X015270Y010391D03*
X015280Y010386D03*
X015285Y010381D03*
X015290Y010376D03*
X015300Y010371D03*
X015305Y010366D03*
X015320Y010356D03*
X015335Y010346D03*
X015340Y010341D03*
X015355Y010331D03*
X015400Y010301D03*
X015415Y010291D03*
X015420Y010286D03*
X015425Y010281D03*
X015440Y010271D03*
X015335Y009996D03*
X015455Y010646D03*
X015575Y010801D03*
X015575Y010806D03*
X015580Y010811D03*
X015580Y010816D03*
X015050Y010956D03*
X015050Y010961D03*
X014890Y010981D03*
X014890Y010986D03*
X015205Y011521D03*
X015205Y011526D03*
D16*
X015335Y011721D03*
X014925Y011916D03*
X013985Y011411D03*
X013985Y010871D03*
X013990Y010866D03*
X014245Y010346D03*
X014975Y010166D03*
X015335Y010001D03*
X016440Y010271D03*
X016525Y011301D03*
X016240Y011451D03*
D17*
X016275Y011431D03*
X014925Y011911D03*
X014080Y011461D03*
X015610Y010121D03*
X015335Y010006D03*
D18*
X015337Y010011D03*
X016307Y010211D03*
X015347Y011751D03*
X014927Y011906D03*
D19*
X016332Y011386D03*
X015337Y010016D03*
D20*
X015335Y010021D03*
X014240Y011516D03*
D21*
X014230Y011506D03*
X015335Y010026D03*
D22*
X015335Y010031D03*
X014220Y011491D03*
D23*
X014937Y011876D03*
X015337Y010036D03*
D24*
X015335Y010041D03*
D25*
X015337Y010046D03*
X014962Y011856D03*
D26*
X014980Y011841D03*
X015335Y010051D03*
D27*
X015335Y010056D03*
X014990Y011831D03*
D28*
X015337Y010061D03*
D29*
X015337Y010066D03*
X014692Y010211D03*
D30*
X014662Y010226D03*
X015337Y010071D03*
D31*
X015337Y010076D03*
X014637Y010241D03*
D32*
X014607Y010261D03*
X015337Y010081D03*
D33*
X015337Y010086D03*
X014602Y010266D03*
X014597Y010271D03*
D34*
X015337Y010091D03*
D35*
X015337Y010096D03*
D36*
X015520Y010206D03*
X015455Y010621D03*
X015590Y010851D03*
X015595Y010861D03*
X015595Y010866D03*
X015050Y010981D03*
X014885Y010956D03*
X014830Y010486D03*
X014865Y010321D03*
X016070Y010096D03*
X015210Y011551D03*
D37*
X015335Y010101D03*
D38*
X015255Y010431D03*
X016070Y010101D03*
X016545Y010756D03*
X016550Y010761D03*
X016555Y010771D03*
X016560Y010776D03*
X016565Y010781D03*
X016570Y010786D03*
X016575Y011261D03*
X016570Y011266D03*
X016565Y011271D03*
X016230Y011456D03*
X016105Y011676D03*
X016100Y011681D03*
X016095Y011686D03*
X014115Y010771D03*
X013955Y010896D03*
X013950Y010901D03*
X013950Y011381D03*
X013955Y011386D03*
X014200Y010381D03*
X014205Y010376D03*
D39*
X015122Y010106D03*
X016072Y010116D03*
X016317Y011396D03*
D40*
X016325Y011391D03*
X016375Y011361D03*
X015140Y011811D03*
X014260Y011536D03*
X014140Y011476D03*
X015550Y010106D03*
D41*
X016070Y010106D03*
X016370Y010231D03*
X016265Y011436D03*
X015985Y011756D03*
X015340Y011736D03*
X014315Y010306D03*
D42*
X015092Y010111D03*
X015582Y010111D03*
X015172Y011806D03*
D43*
X014115Y011471D03*
X016070Y010111D03*
X016405Y011356D03*
X016295Y011416D03*
D44*
X016282Y011426D03*
X016422Y011351D03*
X015597Y010116D03*
X015077Y010116D03*
X014097Y011466D03*
D45*
X014292Y011561D03*
X014332Y010301D03*
X014807Y010286D03*
X015062Y010121D03*
X015262Y010456D03*
D46*
X016070Y010121D03*
X014245Y011521D03*
D47*
X014067Y011456D03*
X015272Y010446D03*
X015047Y010126D03*
X015627Y010126D03*
X015807Y010221D03*
X016452Y011341D03*
D48*
X016072Y010126D03*
D49*
X015637Y010131D03*
X015272Y010441D03*
X015037Y010131D03*
X014307Y010311D03*
X014057Y011451D03*
X016462Y011336D03*
D50*
X014912Y011891D03*
X016072Y010131D03*
D51*
X015647Y010136D03*
X015027Y010136D03*
X014297Y010316D03*
X014082Y010806D03*
X014077Y010811D03*
X014042Y010836D03*
X016007Y011746D03*
X016472Y011331D03*
D52*
X016072Y010136D03*
D53*
X015657Y010141D03*
X015017Y010141D03*
X014612Y010181D03*
X014277Y010326D03*
X014092Y010796D03*
X014087Y010801D03*
X014027Y011436D03*
X016017Y011741D03*
X016492Y011321D03*
D54*
X016072Y010141D03*
D55*
X016400Y010246D03*
X016410Y010251D03*
X015010Y010146D03*
X015000Y010151D03*
X014025Y010846D03*
X014015Y010851D03*
X014015Y011431D03*
X016025Y011736D03*
X016250Y011446D03*
X016500Y011316D03*
D56*
X016485Y011326D03*
X015340Y011731D03*
X014035Y011441D03*
X014035Y010841D03*
X014285Y010321D03*
X015275Y010461D03*
X015665Y010146D03*
X015800Y010226D03*
X016390Y010241D03*
D57*
X016072Y010146D03*
X014957Y011861D03*
D58*
X015950Y010151D03*
D59*
X016425Y010261D03*
X014990Y010156D03*
X014260Y010336D03*
X014000Y011421D03*
X016035Y011731D03*
X016040Y011726D03*
X016510Y011311D03*
D60*
X015642Y011021D03*
X015642Y011016D03*
X015442Y010521D03*
X015442Y010516D03*
X015547Y010156D03*
X014822Y010416D03*
X014867Y010866D03*
X014867Y010871D03*
X015042Y011046D03*
X015222Y011636D03*
X015222Y011641D03*
D61*
X015972Y010156D03*
X015982Y010161D03*
D62*
X015792Y010231D03*
X015287Y010466D03*
X014982Y010161D03*
X014252Y010341D03*
X014102Y010786D03*
X013997Y010861D03*
X013992Y011416D03*
X016047Y011721D03*
X016517Y011306D03*
X016432Y010266D03*
D63*
X015542Y010161D03*
X014867Y010331D03*
X014867Y010881D03*
X015042Y011036D03*
X015042Y011041D03*
X015632Y010986D03*
X015637Y010996D03*
X015637Y011001D03*
X015217Y011621D03*
D64*
X015220Y011616D03*
X015045Y011031D03*
X014870Y010891D03*
X014870Y010886D03*
X014825Y010436D03*
X014825Y010431D03*
X015445Y010541D03*
X015445Y010546D03*
X015770Y010276D03*
X015540Y010166D03*
X015630Y010976D03*
X015630Y010981D03*
X015635Y010991D03*
D65*
X016020Y010181D03*
X016010Y010176D03*
X015990Y010166D03*
D66*
X016447Y010276D03*
X016452Y010281D03*
X016532Y011296D03*
X016062Y011711D03*
X016057Y011716D03*
X014107Y010781D03*
X013977Y010876D03*
X014237Y010351D03*
X014962Y010176D03*
X014967Y010171D03*
X013977Y011406D03*
D67*
X014875Y010906D03*
X015045Y011021D03*
X015625Y010961D03*
X015625Y010956D03*
X015215Y011601D03*
X014825Y010451D03*
X014825Y010446D03*
X014825Y010441D03*
X015540Y010171D03*
D68*
X016002Y010171D03*
X016027Y010186D03*
X016037Y010191D03*
X016042Y010196D03*
X016052Y010201D03*
D69*
X016532Y010361D03*
X016537Y010366D03*
X016537Y010371D03*
X016542Y010376D03*
X016547Y010701D03*
X016542Y010711D03*
X016537Y010716D03*
X016537Y010721D03*
X016532Y010731D03*
X016532Y010736D03*
X016632Y010856D03*
X016637Y010861D03*
X016642Y010871D03*
X016637Y011186D03*
X016632Y011196D03*
X016627Y011201D03*
X016217Y011461D03*
X016162Y011606D03*
X016157Y011611D03*
X016157Y011616D03*
X016152Y011621D03*
X016147Y011626D03*
X014122Y010761D03*
X013897Y010956D03*
X013892Y010966D03*
X013887Y010971D03*
X013882Y010976D03*
X013877Y010986D03*
X013877Y011296D03*
X013882Y011306D03*
X013887Y011311D03*
X013892Y011316D03*
X013897Y011326D03*
X014132Y010466D03*
X014137Y010456D03*
X014142Y010451D03*
X014142Y010446D03*
X014147Y010441D03*
X014612Y010176D03*
X015487Y010256D03*
D70*
X015537Y010176D03*
X015447Y010561D03*
X015447Y010566D03*
X015617Y010936D03*
X015617Y010941D03*
X015622Y010946D03*
X015622Y010951D03*
X015047Y011016D03*
X014872Y010911D03*
X014757Y011606D03*
X014752Y011636D03*
X014747Y011666D03*
X014742Y011696D03*
X014737Y011721D03*
X014737Y011726D03*
X014732Y011751D03*
X014732Y011756D03*
X014727Y011781D03*
X014727Y011786D03*
X014707Y011906D03*
X014707Y011911D03*
X015217Y011596D03*
D71*
X014795Y011811D03*
X014325Y011576D03*
X013970Y011401D03*
X013965Y011396D03*
X013965Y010886D03*
X013970Y010881D03*
X014110Y010776D03*
X014225Y010361D03*
X014230Y010356D03*
X014835Y010296D03*
X014955Y010181D03*
X015790Y010236D03*
X016460Y010286D03*
X016545Y011286D03*
X016540Y011291D03*
X016070Y011706D03*
D72*
X015270Y011346D03*
X015275Y011326D03*
X015280Y011306D03*
X015285Y011281D03*
X015290Y011261D03*
X015295Y011241D03*
X015300Y011216D03*
X015305Y011196D03*
X015310Y011176D03*
X015315Y011151D03*
X015320Y011131D03*
X015325Y011111D03*
X015330Y011086D03*
X015335Y011066D03*
X015340Y011046D03*
X015345Y011021D03*
X015350Y011001D03*
X015355Y010981D03*
X015360Y010956D03*
X015365Y010936D03*
X015370Y010916D03*
X015375Y010891D03*
X015380Y010871D03*
X015385Y010851D03*
X015390Y010826D03*
X015395Y010806D03*
X015400Y010786D03*
X015405Y010761D03*
X015410Y010746D03*
X015410Y010741D03*
X015415Y010731D03*
X015415Y010726D03*
X015415Y010721D03*
X015420Y010706D03*
X015420Y010701D03*
X015420Y010696D03*
X015425Y010686D03*
X015425Y010681D03*
X015450Y010576D03*
X015450Y010571D03*
X015570Y010536D03*
X015570Y010531D03*
X015570Y010526D03*
X015570Y010521D03*
X015565Y010511D03*
X015565Y010506D03*
X015565Y010501D03*
X015565Y010496D03*
X015565Y010491D03*
X015565Y010486D03*
X015565Y010481D03*
X015565Y010476D03*
X015565Y010471D03*
X015560Y010466D03*
X015560Y010461D03*
X015560Y010456D03*
X015560Y010451D03*
X015560Y010446D03*
X015560Y010441D03*
X015560Y010436D03*
X015560Y010431D03*
X015560Y010426D03*
X015560Y010421D03*
X015555Y010416D03*
X015555Y010411D03*
X015555Y010406D03*
X015555Y010401D03*
X015555Y010396D03*
X015555Y010391D03*
X015555Y010386D03*
X015555Y010381D03*
X015555Y010376D03*
X015555Y010371D03*
X015550Y010366D03*
X015550Y010361D03*
X015550Y010356D03*
X015550Y010351D03*
X015550Y010346D03*
X015550Y010341D03*
X015550Y010336D03*
X015550Y010331D03*
X015550Y010326D03*
X015550Y010321D03*
X015545Y010316D03*
X015545Y010311D03*
X015545Y010306D03*
X015545Y010301D03*
X015545Y010296D03*
X015545Y010291D03*
X015545Y010286D03*
X015545Y010281D03*
X015545Y010276D03*
X015545Y010271D03*
X015540Y010266D03*
X015535Y010181D03*
X015575Y010571D03*
X015575Y010576D03*
X015575Y010581D03*
X015580Y010621D03*
X015580Y010626D03*
X015585Y010651D03*
X015585Y010656D03*
X015585Y010661D03*
X015585Y010666D03*
X015585Y010671D03*
X015590Y010681D03*
X015590Y010686D03*
X015590Y010691D03*
X015590Y010696D03*
X015590Y010701D03*
X015590Y010706D03*
X015590Y010711D03*
X015590Y010716D03*
X015595Y010726D03*
X015595Y010731D03*
X015595Y010736D03*
X015595Y010741D03*
X015595Y010746D03*
X015595Y010751D03*
X015615Y010926D03*
X015615Y010931D03*
X015265Y011371D03*
X015260Y011391D03*
X015255Y011411D03*
X015250Y011431D03*
X015250Y011436D03*
X015245Y011456D03*
X015240Y011476D03*
X015215Y011586D03*
X015215Y011591D03*
X014775Y011516D03*
X014775Y011511D03*
X014775Y011506D03*
X014775Y011501D03*
X014775Y011496D03*
X014775Y011491D03*
X014780Y011481D03*
X014780Y011476D03*
X014780Y011471D03*
X014780Y011466D03*
X014780Y011461D03*
X014785Y011451D03*
X014785Y011446D03*
X014785Y011441D03*
X014785Y011436D03*
X014790Y011426D03*
X014790Y011421D03*
X014790Y011416D03*
X014790Y011411D03*
X014790Y011406D03*
X014795Y011396D03*
X014795Y011391D03*
X014795Y011386D03*
X014795Y011381D03*
X014795Y011376D03*
X014800Y011366D03*
X014800Y011361D03*
X014800Y011356D03*
X014800Y011351D03*
X014800Y011346D03*
X014805Y011336D03*
X014805Y011331D03*
X014805Y011326D03*
X014805Y011321D03*
X014810Y011311D03*
X014810Y011306D03*
X014810Y011301D03*
X014810Y011296D03*
X014810Y011291D03*
X014815Y011281D03*
X014815Y011276D03*
X014815Y011271D03*
X014815Y011266D03*
X014815Y011261D03*
X014820Y011251D03*
X014820Y011246D03*
X014820Y011241D03*
X014820Y011236D03*
X014820Y011231D03*
X014825Y011221D03*
X014825Y011216D03*
X014825Y011211D03*
X014825Y011206D03*
X014825Y011201D03*
X014830Y011191D03*
X014830Y011186D03*
X014830Y011181D03*
X014830Y011176D03*
X014835Y011166D03*
X014835Y011161D03*
X014835Y011156D03*
X014835Y011151D03*
X014835Y011146D03*
X014840Y011136D03*
X014840Y011131D03*
X014840Y011126D03*
X014840Y011121D03*
X014840Y011116D03*
X014845Y011106D03*
X014845Y011101D03*
X014845Y011096D03*
X014845Y011091D03*
X014845Y011086D03*
X014850Y011076D03*
X014850Y011071D03*
X014850Y011066D03*
X014850Y011061D03*
X014855Y011051D03*
X014855Y011046D03*
X014855Y011041D03*
X014855Y011036D03*
X014855Y011031D03*
X014875Y010916D03*
X014995Y010876D03*
X014985Y010851D03*
X014975Y010826D03*
X015005Y010901D03*
X015045Y011011D03*
X014665Y010871D03*
X014675Y010846D03*
X014655Y010896D03*
X014645Y010921D03*
X014620Y010986D03*
X014610Y011011D03*
X014600Y011036D03*
X014590Y011061D03*
X014555Y011151D03*
X014545Y011176D03*
X014535Y011201D03*
X014525Y011226D03*
X014500Y011291D03*
X014490Y011316D03*
X014480Y011341D03*
X014470Y011366D03*
X014460Y011391D03*
X014450Y011416D03*
X014445Y011431D03*
X014435Y011456D03*
X014770Y011521D03*
X014770Y011526D03*
X014770Y011531D03*
X014770Y011536D03*
X014770Y011541D03*
X014770Y011546D03*
X014765Y011551D03*
X014765Y011556D03*
X014765Y011561D03*
X014765Y011566D03*
X014765Y011571D03*
X014765Y011576D03*
X014760Y011581D03*
X014760Y011586D03*
X014760Y011591D03*
X014760Y011596D03*
X014760Y011601D03*
X014755Y011611D03*
X014755Y011616D03*
X014755Y011621D03*
X014755Y011626D03*
X014755Y011631D03*
X014750Y011641D03*
X014750Y011646D03*
X014750Y011651D03*
X014750Y011656D03*
X014750Y011661D03*
X014745Y011671D03*
X014745Y011676D03*
X014745Y011681D03*
X014745Y011686D03*
X014745Y011691D03*
X014740Y011701D03*
X014740Y011706D03*
X014740Y011711D03*
X014740Y011716D03*
X014735Y011731D03*
X014735Y011736D03*
X014735Y011741D03*
X014735Y011746D03*
X014730Y011761D03*
X014730Y011766D03*
X014730Y011771D03*
X014730Y011776D03*
X014705Y011916D03*
X014705Y011921D03*
X014700Y010781D03*
X014710Y010756D03*
X014720Y010731D03*
X014730Y010706D03*
X014755Y010641D03*
X014765Y010616D03*
X014775Y010591D03*
X014785Y010566D03*
X014825Y010461D03*
X014825Y010456D03*
D73*
X014610Y010186D03*
X016330Y010216D03*
X015690Y011876D03*
X015345Y011746D03*
D74*
X016077Y011701D03*
X016082Y011696D03*
X016087Y011691D03*
X016552Y011281D03*
X016557Y011276D03*
X016477Y010301D03*
X016472Y010296D03*
X016467Y010291D03*
X014947Y010186D03*
X014942Y010191D03*
X014937Y010196D03*
X014217Y010366D03*
X014212Y010371D03*
X013957Y010891D03*
X013962Y011391D03*
D75*
X014332Y011721D03*
X014327Y011736D03*
X014322Y011746D03*
X014317Y011761D03*
X014312Y011771D03*
X014307Y011786D03*
X014302Y011796D03*
X014297Y011811D03*
X014292Y011821D03*
X014287Y011836D03*
X014282Y011846D03*
X014277Y011861D03*
X014272Y011871D03*
X014272Y011876D03*
X014267Y011886D03*
X014262Y011896D03*
X014262Y011901D03*
X014262Y011906D03*
X014257Y011911D03*
X014257Y011916D03*
X014252Y011921D03*
X014342Y011696D03*
X014352Y011671D03*
X014357Y011656D03*
X014362Y011646D03*
X014367Y011631D03*
X014372Y011621D03*
X014377Y011606D03*
X014382Y011596D03*
X014382Y011591D03*
X014427Y011471D03*
X014432Y011466D03*
X014432Y011461D03*
X014437Y011451D03*
X014437Y011446D03*
X014442Y011441D03*
X014442Y011436D03*
X014447Y011426D03*
X014447Y011421D03*
X014452Y011411D03*
X014452Y011406D03*
X014457Y011401D03*
X014457Y011396D03*
X014462Y011386D03*
X014462Y011381D03*
X014467Y011376D03*
X014467Y011371D03*
X014472Y011361D03*
X014472Y011356D03*
X014477Y011351D03*
X014477Y011346D03*
X014482Y011336D03*
X014482Y011331D03*
X014487Y011326D03*
X014487Y011321D03*
X014492Y011311D03*
X014492Y011306D03*
X014497Y011301D03*
X014497Y011296D03*
X014502Y011286D03*
X014502Y011281D03*
X014507Y011276D03*
X014507Y011271D03*
X014507Y011266D03*
X014512Y011261D03*
X014512Y011256D03*
X014517Y011251D03*
X014517Y011246D03*
X014517Y011241D03*
X014522Y011236D03*
X014522Y011231D03*
X014527Y011221D03*
X014527Y011216D03*
X014532Y011211D03*
X014532Y011206D03*
X014537Y011196D03*
X014537Y011191D03*
X014542Y011186D03*
X014542Y011181D03*
X014547Y011171D03*
X014547Y011166D03*
X014552Y011161D03*
X014552Y011156D03*
X014557Y011146D03*
X014557Y011141D03*
X014562Y011136D03*
X014562Y011131D03*
X014562Y011126D03*
X014567Y011121D03*
X014567Y011116D03*
X014572Y011111D03*
X014572Y011106D03*
X014572Y011101D03*
X014577Y011096D03*
X014577Y011091D03*
X014582Y011086D03*
X014582Y011081D03*
X014582Y011076D03*
X014587Y011071D03*
X014587Y011066D03*
X014592Y011056D03*
X014592Y011051D03*
X014597Y011046D03*
X014597Y011041D03*
X014602Y011031D03*
X014602Y011026D03*
X014607Y011021D03*
X014607Y011016D03*
X014612Y011006D03*
X014612Y011001D03*
X014617Y010996D03*
X014617Y010991D03*
X014622Y010981D03*
X014622Y010976D03*
X014627Y010971D03*
X014627Y010966D03*
X014627Y010961D03*
X014632Y010956D03*
X014632Y010951D03*
X014637Y010946D03*
X014637Y010941D03*
X014637Y010936D03*
X014642Y010931D03*
X014642Y010926D03*
X014647Y010916D03*
X014647Y010911D03*
X014652Y010906D03*
X014652Y010901D03*
X014657Y010891D03*
X014657Y010886D03*
X014662Y010881D03*
X014662Y010876D03*
X014667Y010866D03*
X014667Y010861D03*
X014672Y010856D03*
X014672Y010851D03*
X014677Y010841D03*
X014677Y010836D03*
X014682Y010831D03*
X014682Y010826D03*
X014682Y010821D03*
X014687Y010816D03*
X014687Y010811D03*
X014692Y010806D03*
X014692Y010801D03*
X014692Y010796D03*
X014697Y010791D03*
X014697Y010786D03*
X014702Y010776D03*
X014702Y010771D03*
X014707Y010766D03*
X014707Y010761D03*
X014712Y010751D03*
X014712Y010746D03*
X014717Y010741D03*
X014717Y010736D03*
X014722Y010726D03*
X014722Y010721D03*
X014727Y010716D03*
X014727Y010711D03*
X014732Y010701D03*
X014732Y010696D03*
X014737Y010691D03*
X014737Y010686D03*
X014737Y010681D03*
X014742Y010676D03*
X014742Y010671D03*
X014747Y010666D03*
X014747Y010661D03*
X014747Y010656D03*
X014752Y010651D03*
X014752Y010646D03*
X014757Y010636D03*
X014757Y010631D03*
X014762Y010626D03*
X014762Y010621D03*
X014767Y010611D03*
X014767Y010606D03*
X014772Y010601D03*
X014772Y010596D03*
X014777Y010586D03*
X014777Y010581D03*
X014782Y010576D03*
X014782Y010571D03*
X014787Y010561D03*
X014787Y010556D03*
X014792Y010551D03*
X014872Y010571D03*
X014882Y010596D03*
X014887Y010606D03*
X014892Y010621D03*
X014897Y010631D03*
X014902Y010641D03*
X014902Y010646D03*
X014907Y010656D03*
X014912Y010666D03*
X014912Y010671D03*
X014917Y010681D03*
X014922Y010691D03*
X014922Y010696D03*
X014927Y010706D03*
X014932Y010716D03*
X014937Y010726D03*
X014937Y010731D03*
X014942Y010741D03*
X014947Y010751D03*
X014947Y010756D03*
X014952Y010766D03*
X014957Y010776D03*
X014957Y010781D03*
X014957Y010786D03*
X014962Y010791D03*
X014962Y010796D03*
X014967Y010801D03*
X014967Y010806D03*
X014967Y010811D03*
X014972Y010816D03*
X014972Y010821D03*
X014977Y010831D03*
X014977Y010836D03*
X014982Y010841D03*
X014982Y010846D03*
X014987Y010856D03*
X014987Y010861D03*
X014992Y010866D03*
X014992Y010871D03*
X014997Y010881D03*
X014997Y010886D03*
X015002Y010891D03*
X015002Y010896D03*
X015007Y010906D03*
X015007Y010911D03*
X015012Y010916D03*
X015012Y010921D03*
X015012Y010926D03*
X015047Y011006D03*
X014997Y011156D03*
X015002Y011166D03*
X015007Y011176D03*
X015012Y011186D03*
X015017Y011196D03*
X015022Y011206D03*
X015027Y011216D03*
X015032Y011226D03*
X015037Y011236D03*
X015042Y011246D03*
X015047Y011251D03*
X015047Y011256D03*
X015052Y011261D03*
X015052Y011266D03*
X015057Y011271D03*
X015057Y011276D03*
X015062Y011281D03*
X015062Y011286D03*
X015067Y011291D03*
X015072Y011301D03*
X015077Y011311D03*
X015082Y011321D03*
X015087Y011331D03*
X015092Y011341D03*
X015097Y011351D03*
X015102Y011361D03*
X015107Y011371D03*
X015112Y011381D03*
X015117Y011391D03*
X015122Y011401D03*
X015127Y011411D03*
X015132Y011421D03*
X015137Y011431D03*
X015142Y011441D03*
X015147Y011451D03*
X015152Y011461D03*
X015157Y011471D03*
X015162Y011481D03*
X015167Y011491D03*
X015237Y011491D03*
X015237Y011486D03*
X015237Y011481D03*
X015242Y011471D03*
X015242Y011466D03*
X015242Y011461D03*
X015247Y011451D03*
X015247Y011446D03*
X015247Y011441D03*
X015252Y011426D03*
X015252Y011421D03*
X015252Y011416D03*
X015257Y011406D03*
X015257Y011401D03*
X015257Y011396D03*
X015262Y011386D03*
X015262Y011381D03*
X015262Y011376D03*
X015267Y011366D03*
X015267Y011361D03*
X015267Y011356D03*
X015267Y011351D03*
X015272Y011341D03*
X015272Y011336D03*
X015272Y011331D03*
X015277Y011321D03*
X015277Y011316D03*
X015277Y011311D03*
X015282Y011301D03*
X015282Y011296D03*
X015282Y011291D03*
X015282Y011286D03*
X015287Y011276D03*
X015287Y011271D03*
X015287Y011266D03*
X015292Y011256D03*
X015292Y011251D03*
X015292Y011246D03*
X015297Y011236D03*
X015297Y011231D03*
X015297Y011226D03*
X015297Y011221D03*
X015302Y011211D03*
X015302Y011206D03*
X015302Y011201D03*
X015307Y011191D03*
X015307Y011186D03*
X015307Y011181D03*
X015312Y011171D03*
X015312Y011166D03*
X015312Y011161D03*
X015312Y011156D03*
X015317Y011146D03*
X015317Y011141D03*
X015317Y011136D03*
X015322Y011126D03*
X015322Y011121D03*
X015322Y011116D03*
X015327Y011106D03*
X015327Y011101D03*
X015327Y011096D03*
X015327Y011091D03*
X015332Y011081D03*
X015332Y011076D03*
X015332Y011071D03*
X015337Y011061D03*
X015337Y011056D03*
X015337Y011051D03*
X015342Y011041D03*
X015342Y011036D03*
X015342Y011031D03*
X015342Y011026D03*
X015347Y011016D03*
X015347Y011011D03*
X015347Y011006D03*
X015352Y010996D03*
X015352Y010991D03*
X015352Y010986D03*
X015357Y010976D03*
X015357Y010971D03*
X015357Y010966D03*
X015357Y010961D03*
X015362Y010951D03*
X015362Y010946D03*
X015362Y010941D03*
X015367Y010931D03*
X015367Y010926D03*
X015367Y010921D03*
X015372Y010911D03*
X015372Y010906D03*
X015372Y010901D03*
X015372Y010896D03*
X015377Y010886D03*
X015377Y010881D03*
X015377Y010876D03*
X015382Y010866D03*
X015382Y010861D03*
X015382Y010856D03*
X015387Y010846D03*
X015387Y010841D03*
X015387Y010836D03*
X015387Y010831D03*
X015392Y010821D03*
X015392Y010816D03*
X015392Y010811D03*
X015397Y010801D03*
X015397Y010796D03*
X015397Y010791D03*
X015402Y010781D03*
X015402Y010776D03*
X015402Y010771D03*
X015402Y010766D03*
X015407Y010756D03*
X015407Y010751D03*
X015412Y010736D03*
X015417Y010716D03*
X015417Y010711D03*
X015422Y010691D03*
X015492Y010681D03*
X015497Y010691D03*
X015502Y010701D03*
X015507Y010711D03*
X015512Y010721D03*
X015517Y010731D03*
X015522Y010741D03*
X015527Y010751D03*
X015592Y010721D03*
X015587Y010676D03*
X015582Y010646D03*
X015582Y010641D03*
X015582Y010636D03*
X015582Y010631D03*
X015577Y010616D03*
X015577Y010611D03*
X015577Y010606D03*
X015577Y010601D03*
X015577Y010596D03*
X015577Y010591D03*
X015577Y010586D03*
X015572Y010566D03*
X015572Y010561D03*
X015572Y010556D03*
X015572Y010551D03*
X015572Y010546D03*
X015572Y010541D03*
X015567Y010516D03*
X015447Y010581D03*
X015612Y010916D03*
X015612Y010921D03*
X014877Y010921D03*
X014857Y011026D03*
X014852Y011056D03*
X014847Y011081D03*
X014842Y011111D03*
X014837Y011141D03*
X014832Y011171D03*
X014827Y011196D03*
X014822Y011226D03*
X014817Y011256D03*
X014812Y011286D03*
X014807Y011316D03*
X014802Y011341D03*
X014797Y011371D03*
X014792Y011401D03*
X014787Y011431D03*
X014782Y011456D03*
X014777Y011486D03*
X015212Y011576D03*
X015212Y011581D03*
X015327Y011676D03*
X014862Y010326D03*
X015532Y010186D03*
D76*
X014612Y010191D03*
D77*
X014825Y010466D03*
X014825Y010471D03*
X014865Y010551D03*
X014865Y010556D03*
X014870Y010561D03*
X014870Y010566D03*
X014875Y010576D03*
X014875Y010581D03*
X014880Y010586D03*
X014880Y010591D03*
X014885Y010601D03*
X014890Y010611D03*
X014890Y010616D03*
X014895Y010626D03*
X014900Y010636D03*
X014905Y010651D03*
X014910Y010661D03*
X014915Y010676D03*
X014920Y010686D03*
X014925Y010701D03*
X014930Y010711D03*
X014935Y010721D03*
X014940Y010736D03*
X014945Y010746D03*
X014950Y010761D03*
X014955Y010771D03*
X014880Y010926D03*
X014880Y010931D03*
X014930Y011026D03*
X014935Y011036D03*
X014940Y011046D03*
X014945Y011051D03*
X014945Y011056D03*
X014950Y011061D03*
X014950Y011066D03*
X014955Y011071D03*
X014955Y011076D03*
X014960Y011081D03*
X014960Y011086D03*
X014965Y011091D03*
X014965Y011096D03*
X014970Y011101D03*
X014970Y011106D03*
X014975Y011111D03*
X014975Y011116D03*
X014980Y011121D03*
X014980Y011126D03*
X014985Y011131D03*
X014985Y011136D03*
X014990Y011141D03*
X014990Y011146D03*
X014995Y011151D03*
X015000Y011161D03*
X015005Y011171D03*
X015010Y011181D03*
X015015Y011191D03*
X015020Y011201D03*
X015025Y011211D03*
X015030Y011221D03*
X015035Y011231D03*
X015040Y011241D03*
X015070Y011296D03*
X015075Y011306D03*
X015080Y011316D03*
X015085Y011326D03*
X015090Y011336D03*
X015095Y011346D03*
X015100Y011356D03*
X015105Y011366D03*
X015110Y011376D03*
X015115Y011386D03*
X015120Y011396D03*
X015125Y011406D03*
X015130Y011416D03*
X015135Y011426D03*
X015140Y011436D03*
X015145Y011446D03*
X015150Y011456D03*
X015155Y011466D03*
X015160Y011476D03*
X015165Y011486D03*
X015045Y011001D03*
X015110Y010886D03*
X015125Y010861D03*
X015140Y010836D03*
X015145Y010826D03*
X015155Y010811D03*
X015160Y010801D03*
X015165Y010791D03*
X015170Y010786D03*
X015175Y010776D03*
X015180Y010766D03*
X015185Y010761D03*
X015190Y010751D03*
X015195Y010741D03*
X015200Y010731D03*
X015205Y010726D03*
X015205Y010721D03*
X015210Y010716D03*
X015210Y010711D03*
X015215Y010706D03*
X015220Y010701D03*
X015220Y010696D03*
X015225Y010691D03*
X015225Y010686D03*
X015230Y010681D03*
X015235Y010676D03*
X015235Y010671D03*
X015240Y010666D03*
X015240Y010661D03*
X015245Y010656D03*
X015250Y010651D03*
X015250Y010646D03*
X015255Y010641D03*
X015255Y010636D03*
X015260Y010631D03*
X015265Y010626D03*
X015265Y010621D03*
X015270Y010616D03*
X015270Y010611D03*
X015275Y010606D03*
X015280Y010601D03*
X015280Y010596D03*
X015285Y010591D03*
X015285Y010586D03*
X015290Y010581D03*
X015295Y010576D03*
X015295Y010571D03*
X015300Y010566D03*
X015300Y010561D03*
X015305Y010556D03*
X015310Y010551D03*
X015310Y010546D03*
X015315Y010541D03*
X015315Y010536D03*
X015320Y010531D03*
X015325Y010526D03*
X015325Y010521D03*
X015330Y010516D03*
X015330Y010511D03*
X015335Y010506D03*
X015340Y010501D03*
X015340Y010496D03*
X015345Y010491D03*
X015450Y010586D03*
X015450Y010591D03*
X015495Y010686D03*
X015500Y010696D03*
X015505Y010706D03*
X015510Y010716D03*
X015515Y010726D03*
X015520Y010736D03*
X015525Y010746D03*
X015610Y010911D03*
X015530Y010191D03*
X014380Y011601D03*
X014375Y011611D03*
X014375Y011616D03*
X014370Y011626D03*
X014365Y011636D03*
X014365Y011641D03*
X014360Y011651D03*
X014355Y011661D03*
X014355Y011666D03*
X014350Y011676D03*
X014350Y011681D03*
X014345Y011686D03*
X014345Y011691D03*
X014340Y011701D03*
X014340Y011706D03*
X014335Y011711D03*
X014335Y011716D03*
X014330Y011726D03*
X014330Y011731D03*
X014325Y011741D03*
X014320Y011751D03*
X014320Y011756D03*
X014315Y011766D03*
X014310Y011776D03*
X014310Y011781D03*
X014305Y011791D03*
X014300Y011801D03*
X014300Y011806D03*
X014295Y011816D03*
X014290Y011826D03*
X014290Y011831D03*
X014285Y011841D03*
X014280Y011851D03*
X014280Y011856D03*
X014275Y011866D03*
X014270Y011881D03*
X014265Y011891D03*
D78*
X014247Y011526D03*
X014612Y010196D03*
D79*
X014825Y010481D03*
X014880Y010936D03*
X014880Y010941D03*
X015340Y010486D03*
X015600Y010881D03*
X015600Y010886D03*
X015525Y010196D03*
X015210Y011561D03*
X015210Y011566D03*
D80*
X015692Y011861D03*
X014237Y011511D03*
X014612Y010201D03*
D81*
X014932Y010201D03*
X014197Y010386D03*
X014192Y010391D03*
X013942Y010906D03*
X013937Y010911D03*
X013932Y010916D03*
X013932Y011366D03*
X013937Y011371D03*
X013942Y011376D03*
X015332Y011716D03*
X016582Y011256D03*
X016587Y011251D03*
X016592Y010806D03*
X016587Y010801D03*
X016582Y010796D03*
X016577Y010791D03*
X016552Y010766D03*
X016542Y010751D03*
X016492Y010316D03*
X016487Y010311D03*
X016482Y010306D03*
D82*
X015597Y010871D03*
X015597Y010876D03*
X015452Y010616D03*
X015452Y010611D03*
X015452Y010606D03*
X015522Y010201D03*
X015047Y010986D03*
X014882Y010951D03*
X014882Y010946D03*
X015207Y011556D03*
X015327Y011681D03*
D83*
X014702Y010206D03*
D84*
X016060Y010206D03*
D85*
X015517Y010211D03*
X015452Y010626D03*
X015587Y010841D03*
X015587Y010846D03*
X015592Y010856D03*
X015047Y010976D03*
X014887Y010961D03*
X014827Y010491D03*
X015207Y011541D03*
X015207Y011546D03*
X014742Y011796D03*
D86*
X016307Y011406D03*
X015827Y010211D03*
D87*
X014677Y010216D03*
D88*
X014827Y010506D03*
X014887Y010971D03*
X014887Y010976D03*
X015457Y010641D03*
X015582Y010821D03*
X015582Y010826D03*
X015312Y010361D03*
X015327Y010351D03*
X015347Y010336D03*
X015362Y010326D03*
X015367Y010321D03*
X015377Y010316D03*
X015432Y010276D03*
X015447Y010266D03*
X015512Y010216D03*
X015207Y011531D03*
X015207Y011536D03*
X014927Y011921D03*
X014367Y011586D03*
D89*
X014285Y011556D03*
X014345Y010296D03*
X015815Y010216D03*
D90*
X014670Y010221D03*
X015690Y011816D03*
D91*
X014892Y010991D03*
X014827Y010516D03*
X015242Y010411D03*
X015327Y010481D03*
X015387Y010311D03*
X015392Y010306D03*
X015407Y010296D03*
X015512Y010221D03*
X015772Y010261D03*
X015457Y010651D03*
X015457Y010656D03*
X015457Y010661D03*
X015572Y010791D03*
X015572Y010796D03*
D92*
X016342Y010221D03*
X016437Y011346D03*
X015957Y011766D03*
X015342Y011741D03*
D93*
X015330Y011691D03*
X015205Y011516D03*
X015205Y011511D03*
X014755Y011801D03*
X014890Y010996D03*
X015050Y010951D03*
X015570Y010786D03*
X015570Y010781D03*
X015460Y010666D03*
X015235Y010421D03*
X015510Y010226D03*
X014830Y010521D03*
X014830Y010526D03*
D94*
X015265Y010451D03*
X016355Y010226D03*
X015975Y011761D03*
D95*
X014652Y010231D03*
D96*
X014855Y010311D03*
X014830Y010536D03*
X014895Y011011D03*
X014895Y011016D03*
X015200Y011496D03*
X015330Y011696D03*
X015565Y010766D03*
X015560Y010756D03*
X015460Y010676D03*
X015505Y010231D03*
X015775Y010256D03*
D97*
X014645Y010236D03*
X015690Y011811D03*
D98*
X015052Y010936D03*
X015052Y010931D03*
X014897Y011021D03*
X014827Y010541D03*
X015502Y010236D03*
D99*
X016380Y010236D03*
X016260Y011441D03*
X015995Y011751D03*
X015690Y011881D03*
X014300Y011566D03*
X014045Y011446D03*
X014050Y010831D03*
X014060Y010826D03*
X014065Y010821D03*
X014070Y010816D03*
D100*
X014830Y010546D03*
X015500Y010241D03*
D101*
X015785Y010241D03*
X015300Y010471D03*
X014845Y010301D03*
X014185Y010396D03*
X014180Y010401D03*
X014175Y010406D03*
X013930Y011361D03*
X015690Y011886D03*
X016110Y011671D03*
X016115Y011666D03*
X016120Y011661D03*
X016125Y011656D03*
X016590Y011246D03*
X016595Y011241D03*
X016600Y011236D03*
X016595Y010811D03*
X016540Y010746D03*
X016500Y010321D03*
D102*
X014627Y010246D03*
X014622Y010251D03*
D103*
X014850Y010306D03*
X015495Y010246D03*
X016575Y010441D03*
X016580Y010451D03*
X016580Y010456D03*
X016580Y010461D03*
X016585Y010471D03*
X016585Y010476D03*
X016585Y010481D03*
X016590Y010491D03*
X016590Y010496D03*
X016590Y010501D03*
X016590Y010506D03*
X016590Y010511D03*
X016595Y010551D03*
X016595Y010556D03*
X016595Y010561D03*
X016590Y010581D03*
X016590Y010586D03*
X016590Y010591D03*
X016590Y010596D03*
X016590Y010601D03*
X016585Y010606D03*
X016585Y010611D03*
X016585Y010616D03*
X016585Y010621D03*
X016580Y010626D03*
X016580Y010631D03*
X016575Y010646D03*
X016665Y010916D03*
X016670Y010931D03*
X016675Y010941D03*
X016675Y010946D03*
X016675Y010951D03*
X016680Y010961D03*
X016680Y010966D03*
X016680Y010971D03*
X016680Y010976D03*
X016685Y010991D03*
X016685Y010996D03*
X016685Y011001D03*
X016685Y011006D03*
X016685Y011011D03*
X016685Y011016D03*
X016685Y011021D03*
X016685Y011026D03*
X016685Y011031D03*
X016685Y011036D03*
X016685Y011041D03*
X016685Y011046D03*
X016685Y011051D03*
X016685Y011056D03*
X016680Y011076D03*
X016680Y011081D03*
X016680Y011086D03*
X016680Y011091D03*
X016675Y011096D03*
X016675Y011101D03*
X016675Y011106D03*
X016670Y011116D03*
X016670Y011121D03*
X016210Y011466D03*
X016210Y011471D03*
X016210Y011476D03*
X016205Y011491D03*
X016205Y011496D03*
X016205Y011501D03*
X016205Y011506D03*
X016200Y011516D03*
X016200Y011521D03*
X016200Y011526D03*
X016195Y011536D03*
X016190Y011551D03*
X014105Y010716D03*
X014100Y010706D03*
X014100Y010701D03*
X014100Y010696D03*
X014095Y010686D03*
X014095Y010681D03*
X014095Y010676D03*
X014095Y010671D03*
X014090Y010661D03*
X014090Y010656D03*
X014090Y010651D03*
X014090Y010646D03*
X014090Y010641D03*
X014090Y010636D03*
X014090Y010631D03*
X014090Y010626D03*
X014090Y010621D03*
X014090Y010616D03*
X014090Y010611D03*
X014090Y010606D03*
X014090Y010601D03*
X014090Y010596D03*
X014090Y010591D03*
X014090Y010586D03*
X014090Y010581D03*
X014095Y010566D03*
X014095Y010561D03*
X014095Y010556D03*
X014095Y010551D03*
X014100Y010546D03*
X014100Y010541D03*
X014100Y010536D03*
X014105Y010526D03*
X013850Y011046D03*
X013845Y011061D03*
X013845Y011066D03*
X013845Y011071D03*
X013840Y011076D03*
X013840Y011081D03*
X013840Y011086D03*
X013840Y011091D03*
X013835Y011101D03*
X013835Y011106D03*
X013835Y011111D03*
X013835Y011116D03*
X013835Y011121D03*
X013835Y011126D03*
X013835Y011131D03*
X013835Y011136D03*
X013835Y011141D03*
X013835Y011146D03*
X013835Y011151D03*
X013835Y011156D03*
X013835Y011161D03*
X013835Y011166D03*
X013835Y011171D03*
X013835Y011176D03*
X013840Y011191D03*
X013840Y011196D03*
X013840Y011201D03*
X013840Y011206D03*
X013845Y011211D03*
X013845Y011216D03*
X013845Y011221D03*
X013850Y011231D03*
X013850Y011236D03*
D104*
X013860Y011261D03*
X013865Y011271D03*
X013870Y011281D03*
X013875Y011291D03*
X013880Y011301D03*
X013860Y011021D03*
X013865Y011011D03*
X013870Y011001D03*
X013875Y010991D03*
X013880Y010981D03*
X014120Y010751D03*
X014115Y010741D03*
X014120Y010486D03*
X014125Y010476D03*
X014130Y010471D03*
X014135Y010461D03*
X015780Y010246D03*
X016545Y010381D03*
X016550Y010386D03*
X016550Y010391D03*
X016555Y010396D03*
X016560Y010406D03*
X016565Y010416D03*
X016565Y010671D03*
X016560Y010681D03*
X016555Y010691D03*
X016550Y010696D03*
X016545Y010706D03*
X016535Y010726D03*
X016640Y010866D03*
X016645Y010876D03*
X016650Y010881D03*
X016650Y010886D03*
X016655Y011156D03*
X016650Y011166D03*
X016645Y011171D03*
X016645Y011176D03*
X016640Y011181D03*
X016635Y011191D03*
X016175Y011581D03*
X016175Y011586D03*
X016170Y011591D03*
X016170Y011596D03*
X016165Y011601D03*
X015330Y011706D03*
D105*
X016177Y011576D03*
X016182Y011571D03*
X016182Y011566D03*
X016187Y011561D03*
X016187Y011556D03*
X016192Y011546D03*
X016192Y011541D03*
X016197Y011531D03*
X016652Y011161D03*
X016657Y011151D03*
X016657Y011146D03*
X016662Y011141D03*
X016662Y011136D03*
X016667Y011131D03*
X016667Y011126D03*
X016672Y011111D03*
X016677Y010956D03*
X016672Y010936D03*
X016667Y010926D03*
X016667Y010921D03*
X016662Y010911D03*
X016662Y010906D03*
X016657Y010901D03*
X016657Y010896D03*
X016652Y010891D03*
X016557Y010686D03*
X016562Y010676D03*
X016567Y010666D03*
X016567Y010661D03*
X016572Y010656D03*
X016572Y010651D03*
X016577Y010641D03*
X016577Y010636D03*
X016582Y010466D03*
X016577Y010446D03*
X016572Y010436D03*
X016572Y010431D03*
X016567Y010426D03*
X016567Y010421D03*
X016562Y010411D03*
X016557Y010401D03*
X015492Y010251D03*
X015242Y010426D03*
X014122Y010481D03*
X014117Y010491D03*
X014117Y010496D03*
X014112Y010501D03*
X014112Y010506D03*
X014107Y010511D03*
X014107Y010516D03*
X014107Y010521D03*
X014102Y010531D03*
X014097Y010691D03*
X014102Y010711D03*
X014107Y010721D03*
X014107Y010726D03*
X014112Y010731D03*
X014112Y010736D03*
X014117Y010746D03*
X014122Y010756D03*
X013872Y010996D03*
X013867Y011006D03*
X013862Y011016D03*
X013857Y011026D03*
X013857Y011031D03*
X013852Y011036D03*
X013852Y011041D03*
X013847Y011051D03*
X013847Y011056D03*
X013847Y011226D03*
X013852Y011241D03*
X013852Y011246D03*
X013857Y011251D03*
X013857Y011256D03*
X013862Y011266D03*
X013867Y011276D03*
X013872Y011286D03*
D106*
X013837Y011186D03*
X013837Y011181D03*
X013837Y011096D03*
X014092Y010666D03*
X014092Y010576D03*
X014092Y010571D03*
X015312Y010476D03*
X015777Y010251D03*
X016587Y010486D03*
X016592Y010516D03*
X016592Y010521D03*
X016592Y010526D03*
X016592Y010531D03*
X016592Y010536D03*
X016592Y010541D03*
X016592Y010546D03*
X016592Y010566D03*
X016592Y010571D03*
X016592Y010576D03*
X016682Y010981D03*
X016682Y010986D03*
X016682Y011061D03*
X016682Y011066D03*
X016682Y011071D03*
X016207Y011481D03*
X016207Y011486D03*
X016202Y011511D03*
X015332Y011701D03*
X014767Y011806D03*
D107*
X015690Y011806D03*
X014615Y010256D03*
D108*
X014827Y010291D03*
X015262Y010436D03*
X014267Y010331D03*
X014097Y010791D03*
X014007Y010856D03*
X014007Y011426D03*
X014312Y011571D03*
X015337Y011726D03*
X016417Y010256D03*
D109*
X016520Y010346D03*
X016525Y010351D03*
X016530Y010356D03*
X016610Y010826D03*
X016615Y010831D03*
X016620Y010836D03*
X016620Y010841D03*
X016625Y010846D03*
X016630Y010851D03*
X016625Y011206D03*
X016620Y011211D03*
X016615Y011216D03*
X016615Y011221D03*
X016145Y011631D03*
X016140Y011636D03*
X014335Y011581D03*
X013910Y011341D03*
X013905Y011336D03*
X013900Y011331D03*
X013895Y011321D03*
X013895Y010961D03*
X013900Y010951D03*
X013905Y010946D03*
X013910Y010941D03*
X014150Y010436D03*
X014155Y010431D03*
X014160Y010426D03*
X015485Y010261D03*
D110*
X015770Y010266D03*
X015455Y010631D03*
X015455Y010636D03*
X015585Y010831D03*
X015585Y010836D03*
X015050Y010966D03*
X015050Y010971D03*
X014885Y010966D03*
X014830Y010501D03*
X014830Y010496D03*
X015330Y011686D03*
D111*
X015212Y011571D03*
X014732Y011791D03*
X014422Y011476D03*
X014937Y011041D03*
X014932Y011031D03*
X015047Y010996D03*
X015047Y010991D03*
X015087Y010926D03*
X015087Y010921D03*
X015092Y010916D03*
X015097Y010911D03*
X015097Y010906D03*
X015102Y010901D03*
X015102Y010896D03*
X015107Y010891D03*
X015112Y010881D03*
X015117Y010876D03*
X015117Y010871D03*
X015122Y010866D03*
X015127Y010856D03*
X015132Y010851D03*
X015132Y010846D03*
X015137Y010841D03*
X015142Y010831D03*
X015147Y010821D03*
X015152Y010816D03*
X015157Y010806D03*
X015162Y010796D03*
X015172Y010781D03*
X015177Y010771D03*
X015187Y010756D03*
X015192Y010746D03*
X015197Y010736D03*
X015452Y010601D03*
X015452Y010596D03*
X015602Y010891D03*
X015602Y010896D03*
X015607Y010901D03*
X015607Y010906D03*
X014827Y010476D03*
X015772Y010271D03*
D112*
X014590Y010276D03*
D113*
X014582Y010281D03*
D114*
X014385Y010286D03*
X014265Y011541D03*
D115*
X014357Y010291D03*
X016287Y011421D03*
X015942Y011771D03*
D116*
X016127Y011651D03*
X016132Y011646D03*
X016137Y011641D03*
X016602Y011231D03*
X016607Y011226D03*
X016607Y010821D03*
X016602Y010816D03*
X016537Y010741D03*
X016517Y010341D03*
X016512Y010336D03*
X016507Y010331D03*
X016502Y010326D03*
X015332Y011711D03*
X014117Y010766D03*
X013927Y010921D03*
X013922Y010926D03*
X013917Y010931D03*
X013912Y010936D03*
X013912Y011346D03*
X013917Y011351D03*
X013922Y011356D03*
X014162Y010421D03*
X014167Y010416D03*
X014172Y010411D03*
D117*
X014822Y010391D03*
X014862Y010836D03*
X014862Y010841D03*
X015442Y010491D03*
X015657Y011066D03*
X015657Y011071D03*
X015327Y011671D03*
D118*
X015225Y011661D03*
X015225Y011656D03*
X015040Y011066D03*
X015040Y011061D03*
X014865Y010846D03*
X014825Y010396D03*
X015440Y010496D03*
X015440Y010501D03*
X015655Y011056D03*
X015655Y011061D03*
D119*
X015652Y011051D03*
X015652Y011046D03*
X015442Y010511D03*
X015442Y010506D03*
X014822Y010401D03*
X014862Y010851D03*
X015042Y011056D03*
X015222Y011646D03*
X015222Y011651D03*
X015687Y011891D03*
D120*
X015650Y011041D03*
X015650Y011036D03*
X015645Y011031D03*
X015645Y011026D03*
X015040Y011051D03*
X014865Y010861D03*
X014865Y010856D03*
X014825Y010411D03*
X014825Y010406D03*
D121*
X014825Y010421D03*
X014825Y010426D03*
X014870Y010876D03*
X015445Y010536D03*
X015445Y010531D03*
X015445Y010526D03*
X015640Y011006D03*
X015640Y011011D03*
X015220Y011626D03*
X015220Y011631D03*
D122*
X015202Y011506D03*
X015202Y011501D03*
X015052Y010946D03*
X015052Y010941D03*
X014892Y011001D03*
X014892Y011006D03*
X014827Y010531D03*
X015457Y010671D03*
X015562Y010761D03*
X015567Y010771D03*
X015567Y010776D03*
D123*
X015627Y010966D03*
X015627Y010971D03*
X015447Y010556D03*
X015447Y010551D03*
X015042Y011026D03*
X014872Y010901D03*
X014872Y010896D03*
X015217Y011606D03*
X015217Y011611D03*
D124*
X016340Y011381D03*
X016355Y011371D03*
X016365Y011366D03*
D125*
X016347Y011376D03*
X014252Y011531D03*
D126*
X015350Y011756D03*
X015690Y011871D03*
X016315Y011401D03*
D127*
X016300Y011411D03*
X015925Y011776D03*
X014270Y011546D03*
D128*
X014212Y011481D03*
X014922Y011886D03*
D129*
X014215Y011486D03*
D130*
X014225Y011496D03*
X015690Y011856D03*
D131*
X014227Y011501D03*
D132*
X014275Y011551D03*
D133*
X015355Y011761D03*
D134*
X015357Y011766D03*
D135*
X015365Y011771D03*
X014905Y011896D03*
D136*
X015375Y011776D03*
X015690Y011851D03*
D137*
X015597Y011781D03*
D138*
X015587Y011786D03*
D139*
X015575Y011791D03*
D140*
X015560Y011796D03*
D141*
X015542Y011801D03*
D142*
X015002Y011816D03*
X014997Y011821D03*
D143*
X015690Y011821D03*
D144*
X014992Y011826D03*
D145*
X015690Y011826D03*
D146*
X015690Y011831D03*
X014985Y011836D03*
D147*
X014975Y011846D03*
X015690Y011836D03*
D148*
X015690Y011841D03*
D149*
X015692Y011846D03*
D150*
X014967Y011851D03*
D151*
X014952Y011866D03*
D152*
X015692Y011866D03*
D153*
X014945Y011871D03*
D154*
X014930Y011881D03*
D155*
X014895Y011901D03*
D156*
X016287Y012979D02*
X016568Y012979D01*
X017680Y011953D02*
X018467Y011953D01*
X019294Y011323D02*
X019294Y010142D01*
X018467Y009512D02*
X017680Y009512D01*
X016853Y010142D02*
X016853Y011323D01*
X017384Y010733D02*
X017386Y010785D01*
X017392Y010837D01*
X017402Y010888D01*
X017415Y010938D01*
X017433Y010988D01*
X017454Y011035D01*
X017478Y011081D01*
X017507Y011125D01*
X017538Y011167D01*
X017572Y011206D01*
X017609Y011243D01*
X017649Y011276D01*
X017692Y011307D01*
X017736Y011334D01*
X017782Y011358D01*
X017831Y011378D01*
X017880Y011394D01*
X017931Y011407D01*
X017982Y011416D01*
X018034Y011421D01*
X018086Y011422D01*
X018138Y011419D01*
X018190Y011412D01*
X018241Y011401D01*
X018291Y011387D01*
X018340Y011368D01*
X018387Y011346D01*
X018432Y011321D01*
X018476Y011292D01*
X018517Y011260D01*
X018556Y011225D01*
X018591Y011187D01*
X018624Y011146D01*
X018654Y011104D01*
X018680Y011059D01*
X018703Y011012D01*
X018722Y010963D01*
X018738Y010913D01*
X018750Y010863D01*
X018758Y010811D01*
X018762Y010759D01*
X018762Y010707D01*
X018758Y010655D01*
X018750Y010603D01*
X018738Y010553D01*
X018722Y010503D01*
X018703Y010454D01*
X018680Y010407D01*
X018654Y010362D01*
X018624Y010320D01*
X018591Y010279D01*
X018556Y010241D01*
X018517Y010206D01*
X018476Y010174D01*
X018432Y010145D01*
X018387Y010120D01*
X018340Y010098D01*
X018291Y010079D01*
X018241Y010065D01*
X018190Y010054D01*
X018138Y010047D01*
X018086Y010044D01*
X018034Y010045D01*
X017982Y010050D01*
X017931Y010059D01*
X017880Y010072D01*
X017831Y010088D01*
X017782Y010108D01*
X017736Y010132D01*
X017692Y010159D01*
X017649Y010190D01*
X017609Y010223D01*
X017572Y010260D01*
X017538Y010299D01*
X017507Y010341D01*
X017478Y010385D01*
X017454Y010431D01*
X017433Y010478D01*
X017415Y010528D01*
X017402Y010578D01*
X017392Y010629D01*
X017386Y010681D01*
X017384Y010733D01*
X019000Y008347D02*
X019281Y008347D01*
X019155Y007709D02*
X018655Y007709D01*
X018405Y007459D01*
X018155Y007709D01*
X017655Y007709D01*
X017405Y007459D01*
X017155Y007709D01*
X016655Y007709D01*
X016405Y007459D01*
X016155Y007709D01*
X015655Y007709D01*
X015405Y007459D01*
X015155Y007709D01*
X014655Y007709D01*
X014405Y007459D01*
X014405Y006959D01*
X014655Y006709D01*
X015155Y006709D01*
X015405Y006959D01*
X015655Y006709D01*
X016155Y006709D01*
X016405Y006959D01*
X016655Y006709D01*
X017155Y006709D01*
X017405Y006959D01*
X017655Y006709D01*
X018155Y006709D01*
X018405Y006959D01*
X018655Y006709D01*
X019155Y006709D01*
X019405Y006959D01*
X019655Y006709D01*
X020155Y006709D01*
X020405Y006959D01*
X020405Y007459D01*
X020155Y007709D01*
X019655Y007709D01*
X019405Y007459D01*
X019155Y007709D01*
X019140Y013275D02*
X019140Y013555D01*
X019000Y013415D02*
X019281Y013415D01*
X009918Y014262D02*
X009668Y014012D01*
X009168Y014012D01*
X008918Y014262D01*
X008668Y014012D01*
X008168Y014012D01*
X007918Y014262D01*
X007668Y014012D01*
X007168Y014012D01*
X006918Y014262D01*
X006668Y014012D01*
X006168Y014012D01*
X005918Y014262D01*
X005918Y014762D01*
X006168Y015012D01*
X006668Y015012D01*
X006918Y014762D01*
X007168Y015012D01*
X007668Y015012D01*
X007918Y014762D01*
X008168Y015012D01*
X008668Y015012D01*
X008918Y014762D01*
X009168Y015012D01*
X009668Y015012D01*
X009918Y014762D01*
X009918Y014262D01*
X007843Y013214D02*
X007450Y013214D01*
X007843Y013214D02*
X007843Y008489D01*
X007450Y008489D01*
X008067Y008654D02*
X008348Y008654D01*
X008207Y008514D02*
X008207Y008794D01*
X006269Y008489D02*
X003513Y008489D01*
X003513Y013214D01*
X006269Y013214D01*
X006143Y012323D02*
X005643Y012323D01*
X005393Y012073D01*
X005393Y011573D01*
X005643Y011323D01*
X005393Y011073D01*
X005393Y010573D01*
X005643Y010323D01*
X005393Y010073D01*
X005393Y009573D01*
X005643Y009323D01*
X006143Y009323D01*
X006393Y009573D01*
X006393Y010073D01*
X006143Y010323D01*
X006393Y010573D01*
X006393Y011073D01*
X006143Y011323D01*
X006393Y011573D01*
X006393Y012073D01*
X006143Y012323D01*
D157*
X006525Y007450D03*
X007410Y007450D03*
D158*
X016232Y014341D02*
X016252Y014361D01*
X016402Y014361D01*
X016352Y014761D02*
X016252Y014761D01*
X016232Y014781D01*
D159*
X016467Y014761D03*
X016467Y014361D03*
M02*
