G75*
G70*
%OFA0B0*%
%FSLAX24Y24*%
%IPPOS*%
%LPD*%
%AMOC8*
5,1,8,0,0,1.08239X$1,22.5*
%
%ADD10C,0.0000*%
%ADD11C,0.0051*%
%ADD12C,0.0110*%
%ADD13C,0.0886*%
%ADD14OC8,0.0740*%
%ADD15R,0.0472X0.0472*%
%ADD16R,0.0630X0.0512*%
%ADD17R,0.0512X0.0591*%
%ADD18R,0.0630X0.0709*%
%ADD19C,0.0768*%
%ADD20R,0.0472X0.0118*%
%ADD21C,0.0480*%
%ADD22R,0.0740X0.0740*%
%ADD23C,0.0740*%
%ADD24R,0.0591X0.0512*%
%ADD25C,0.0591*%
%ADD26OC8,0.1000*%
%ADD27C,0.0100*%
%ADD28R,0.0356X0.0356*%
%ADD29C,0.0120*%
%ADD30C,0.0160*%
D10*
X004848Y006033D02*
X004851Y006033D01*
X021387Y006033D01*
X021390Y006033D01*
X020740Y007407D02*
X020742Y007457D01*
X020748Y007507D01*
X020758Y007557D01*
X020771Y007605D01*
X020788Y007653D01*
X020809Y007699D01*
X020833Y007743D01*
X020861Y007785D01*
X020892Y007825D01*
X020926Y007862D01*
X020963Y007897D01*
X021002Y007928D01*
X021043Y007957D01*
X021087Y007982D01*
X021133Y008004D01*
X021180Y008022D01*
X021228Y008036D01*
X021277Y008047D01*
X021327Y008054D01*
X021377Y008057D01*
X021428Y008056D01*
X021478Y008051D01*
X021528Y008042D01*
X021576Y008030D01*
X021624Y008013D01*
X021670Y007993D01*
X021715Y007970D01*
X021758Y007943D01*
X021798Y007913D01*
X021836Y007880D01*
X021871Y007844D01*
X021904Y007805D01*
X021933Y007764D01*
X021959Y007721D01*
X021982Y007676D01*
X022001Y007629D01*
X022016Y007581D01*
X022028Y007532D01*
X022036Y007482D01*
X022040Y007432D01*
X022040Y007382D01*
X022036Y007332D01*
X022028Y007282D01*
X022016Y007233D01*
X022001Y007185D01*
X021982Y007138D01*
X021959Y007093D01*
X021933Y007050D01*
X021904Y007009D01*
X021871Y006970D01*
X021836Y006934D01*
X021798Y006901D01*
X021758Y006871D01*
X021715Y006844D01*
X021670Y006821D01*
X021624Y006801D01*
X021576Y006784D01*
X021528Y006772D01*
X021478Y006763D01*
X021428Y006758D01*
X021377Y006757D01*
X021327Y006760D01*
X021277Y006767D01*
X021228Y006778D01*
X021180Y006792D01*
X021133Y006810D01*
X021087Y006832D01*
X021043Y006857D01*
X021002Y006886D01*
X020963Y006917D01*
X020926Y006952D01*
X020892Y006989D01*
X020861Y007029D01*
X020833Y007071D01*
X020809Y007115D01*
X020788Y007161D01*
X020771Y007209D01*
X020758Y007257D01*
X020748Y007307D01*
X020742Y007357D01*
X020740Y007407D01*
X021387Y006033D02*
X021459Y006035D01*
X021531Y006041D01*
X021603Y006050D01*
X021674Y006063D01*
X021744Y006080D01*
X021813Y006100D01*
X021881Y006125D01*
X021947Y006152D01*
X022013Y006183D01*
X022076Y006218D01*
X022138Y006255D01*
X022197Y006296D01*
X022254Y006340D01*
X022309Y006387D01*
X022361Y006437D01*
X022411Y006489D01*
X022458Y006544D01*
X022502Y006601D01*
X022543Y006660D01*
X022580Y006722D01*
X022615Y006785D01*
X022646Y006851D01*
X022673Y006917D01*
X022698Y006985D01*
X022718Y007054D01*
X022735Y007124D01*
X022748Y007195D01*
X022757Y007267D01*
X022763Y007339D01*
X022765Y007411D01*
X022765Y014300D01*
X020737Y014300D02*
X020739Y014350D01*
X020745Y014400D01*
X020755Y014450D01*
X020768Y014498D01*
X020785Y014546D01*
X020806Y014592D01*
X020830Y014636D01*
X020858Y014678D01*
X020889Y014718D01*
X020923Y014755D01*
X020960Y014790D01*
X020999Y014821D01*
X021040Y014850D01*
X021084Y014875D01*
X021130Y014897D01*
X021177Y014915D01*
X021225Y014929D01*
X021274Y014940D01*
X021324Y014947D01*
X021374Y014950D01*
X021425Y014949D01*
X021475Y014944D01*
X021525Y014935D01*
X021573Y014923D01*
X021621Y014906D01*
X021667Y014886D01*
X021712Y014863D01*
X021755Y014836D01*
X021795Y014806D01*
X021833Y014773D01*
X021868Y014737D01*
X021901Y014698D01*
X021930Y014657D01*
X021956Y014614D01*
X021979Y014569D01*
X021998Y014522D01*
X022013Y014474D01*
X022025Y014425D01*
X022033Y014375D01*
X022037Y014325D01*
X022037Y014275D01*
X022033Y014225D01*
X022025Y014175D01*
X022013Y014126D01*
X021998Y014078D01*
X021979Y014031D01*
X021956Y013986D01*
X021930Y013943D01*
X021901Y013902D01*
X021868Y013863D01*
X021833Y013827D01*
X021795Y013794D01*
X021755Y013764D01*
X021712Y013737D01*
X021667Y013714D01*
X021621Y013694D01*
X021573Y013677D01*
X021525Y013665D01*
X021475Y013656D01*
X021425Y013651D01*
X021374Y013650D01*
X021324Y013653D01*
X021274Y013660D01*
X021225Y013671D01*
X021177Y013685D01*
X021130Y013703D01*
X021084Y013725D01*
X021040Y013750D01*
X020999Y013779D01*
X020960Y013810D01*
X020923Y013845D01*
X020889Y013882D01*
X020858Y013922D01*
X020830Y013964D01*
X020806Y014008D01*
X020785Y014054D01*
X020768Y014102D01*
X020755Y014150D01*
X020745Y014200D01*
X020739Y014250D01*
X020737Y014300D01*
X021387Y015678D02*
X021459Y015676D01*
X021531Y015670D01*
X021603Y015661D01*
X021674Y015648D01*
X021744Y015631D01*
X021813Y015611D01*
X021881Y015586D01*
X021947Y015559D01*
X022013Y015528D01*
X022076Y015493D01*
X022138Y015456D01*
X022197Y015415D01*
X022254Y015371D01*
X022309Y015324D01*
X022361Y015274D01*
X022411Y015222D01*
X022458Y015167D01*
X022502Y015110D01*
X022543Y015051D01*
X022580Y014989D01*
X022615Y014926D01*
X022646Y014860D01*
X022673Y014794D01*
X022698Y014726D01*
X022718Y014657D01*
X022735Y014587D01*
X022748Y014516D01*
X022757Y014444D01*
X022763Y014372D01*
X022765Y014300D01*
X021387Y015678D02*
X004851Y015678D01*
X004198Y014304D02*
X004200Y014354D01*
X004206Y014404D01*
X004216Y014454D01*
X004229Y014502D01*
X004246Y014550D01*
X004267Y014596D01*
X004291Y014640D01*
X004319Y014682D01*
X004350Y014722D01*
X004384Y014759D01*
X004421Y014794D01*
X004460Y014825D01*
X004501Y014854D01*
X004545Y014879D01*
X004591Y014901D01*
X004638Y014919D01*
X004686Y014933D01*
X004735Y014944D01*
X004785Y014951D01*
X004835Y014954D01*
X004886Y014953D01*
X004936Y014948D01*
X004986Y014939D01*
X005034Y014927D01*
X005082Y014910D01*
X005128Y014890D01*
X005173Y014867D01*
X005216Y014840D01*
X005256Y014810D01*
X005294Y014777D01*
X005329Y014741D01*
X005362Y014702D01*
X005391Y014661D01*
X005417Y014618D01*
X005440Y014573D01*
X005459Y014526D01*
X005474Y014478D01*
X005486Y014429D01*
X005494Y014379D01*
X005498Y014329D01*
X005498Y014279D01*
X005494Y014229D01*
X005486Y014179D01*
X005474Y014130D01*
X005459Y014082D01*
X005440Y014035D01*
X005417Y013990D01*
X005391Y013947D01*
X005362Y013906D01*
X005329Y013867D01*
X005294Y013831D01*
X005256Y013798D01*
X005216Y013768D01*
X005173Y013741D01*
X005128Y013718D01*
X005082Y013698D01*
X005034Y013681D01*
X004986Y013669D01*
X004936Y013660D01*
X004886Y013655D01*
X004835Y013654D01*
X004785Y013657D01*
X004735Y013664D01*
X004686Y013675D01*
X004638Y013689D01*
X004591Y013707D01*
X004545Y013729D01*
X004501Y013754D01*
X004460Y013783D01*
X004421Y013814D01*
X004384Y013849D01*
X004350Y013886D01*
X004319Y013926D01*
X004291Y013968D01*
X004267Y014012D01*
X004246Y014058D01*
X004229Y014106D01*
X004216Y014154D01*
X004206Y014204D01*
X004200Y014254D01*
X004198Y014304D01*
X003473Y014300D02*
X003475Y014372D01*
X003481Y014444D01*
X003490Y014516D01*
X003503Y014587D01*
X003520Y014657D01*
X003540Y014726D01*
X003565Y014794D01*
X003592Y014860D01*
X003623Y014926D01*
X003658Y014989D01*
X003695Y015051D01*
X003736Y015110D01*
X003780Y015167D01*
X003827Y015222D01*
X003877Y015274D01*
X003929Y015324D01*
X003984Y015371D01*
X004041Y015415D01*
X004100Y015456D01*
X004162Y015493D01*
X004225Y015528D01*
X004291Y015559D01*
X004357Y015586D01*
X004425Y015611D01*
X004494Y015631D01*
X004564Y015648D01*
X004635Y015661D01*
X004707Y015670D01*
X004779Y015676D01*
X004851Y015678D01*
X003473Y014304D02*
X003473Y014300D01*
X003473Y007450D01*
X003473Y007407D01*
X004198Y007407D02*
X004200Y007457D01*
X004206Y007507D01*
X004216Y007557D01*
X004229Y007605D01*
X004246Y007653D01*
X004267Y007699D01*
X004291Y007743D01*
X004319Y007785D01*
X004350Y007825D01*
X004384Y007862D01*
X004421Y007897D01*
X004460Y007928D01*
X004501Y007957D01*
X004545Y007982D01*
X004591Y008004D01*
X004638Y008022D01*
X004686Y008036D01*
X004735Y008047D01*
X004785Y008054D01*
X004835Y008057D01*
X004886Y008056D01*
X004936Y008051D01*
X004986Y008042D01*
X005034Y008030D01*
X005082Y008013D01*
X005128Y007993D01*
X005173Y007970D01*
X005216Y007943D01*
X005256Y007913D01*
X005294Y007880D01*
X005329Y007844D01*
X005362Y007805D01*
X005391Y007764D01*
X005417Y007721D01*
X005440Y007676D01*
X005459Y007629D01*
X005474Y007581D01*
X005486Y007532D01*
X005494Y007482D01*
X005498Y007432D01*
X005498Y007382D01*
X005494Y007332D01*
X005486Y007282D01*
X005474Y007233D01*
X005459Y007185D01*
X005440Y007138D01*
X005417Y007093D01*
X005391Y007050D01*
X005362Y007009D01*
X005329Y006970D01*
X005294Y006934D01*
X005256Y006901D01*
X005216Y006871D01*
X005173Y006844D01*
X005128Y006821D01*
X005082Y006801D01*
X005034Y006784D01*
X004986Y006772D01*
X004936Y006763D01*
X004886Y006758D01*
X004835Y006757D01*
X004785Y006760D01*
X004735Y006767D01*
X004686Y006778D01*
X004638Y006792D01*
X004591Y006810D01*
X004545Y006832D01*
X004501Y006857D01*
X004460Y006886D01*
X004421Y006917D01*
X004384Y006952D01*
X004350Y006989D01*
X004319Y007029D01*
X004291Y007071D01*
X004267Y007115D01*
X004246Y007161D01*
X004229Y007209D01*
X004216Y007257D01*
X004206Y007307D01*
X004200Y007357D01*
X004198Y007407D01*
X003473Y007450D02*
X003474Y007377D01*
X003479Y007303D01*
X003487Y007231D01*
X003500Y007159D01*
X003516Y007087D01*
X003535Y007017D01*
X003559Y006947D01*
X003586Y006879D01*
X003617Y006813D01*
X003651Y006748D01*
X003688Y006685D01*
X003729Y006624D01*
X003772Y006566D01*
X003819Y006509D01*
X003869Y006455D01*
X003921Y006404D01*
X003976Y006356D01*
X004033Y006311D01*
X004093Y006268D01*
X004155Y006229D01*
X004219Y006193D01*
X004284Y006161D01*
X004352Y006132D01*
X004420Y006107D01*
X004490Y006085D01*
X004561Y006067D01*
X004633Y006052D01*
X004705Y006042D01*
X004778Y006035D01*
X004851Y006032D01*
X004655Y008883D02*
X004657Y008913D01*
X004663Y008943D01*
X004672Y008972D01*
X004685Y008999D01*
X004702Y009024D01*
X004721Y009047D01*
X004744Y009068D01*
X004769Y009085D01*
X004795Y009099D01*
X004824Y009109D01*
X004853Y009116D01*
X004883Y009119D01*
X004914Y009118D01*
X004944Y009113D01*
X004973Y009104D01*
X005000Y009092D01*
X005026Y009077D01*
X005050Y009058D01*
X005071Y009036D01*
X005089Y009012D01*
X005104Y008985D01*
X005115Y008957D01*
X005123Y008928D01*
X005127Y008898D01*
X005127Y008868D01*
X005123Y008838D01*
X005115Y008809D01*
X005104Y008781D01*
X005089Y008754D01*
X005071Y008730D01*
X005050Y008708D01*
X005026Y008689D01*
X005000Y008674D01*
X004973Y008662D01*
X004944Y008653D01*
X004914Y008648D01*
X004883Y008647D01*
X004853Y008650D01*
X004824Y008657D01*
X004795Y008667D01*
X004769Y008681D01*
X004744Y008698D01*
X004721Y008719D01*
X004702Y008742D01*
X004685Y008767D01*
X004672Y008794D01*
X004663Y008823D01*
X004657Y008853D01*
X004655Y008883D01*
X003670Y008883D02*
X003672Y008913D01*
X003678Y008943D01*
X003687Y008972D01*
X003700Y008999D01*
X003717Y009024D01*
X003736Y009047D01*
X003759Y009068D01*
X003784Y009085D01*
X003810Y009099D01*
X003839Y009109D01*
X003868Y009116D01*
X003898Y009119D01*
X003929Y009118D01*
X003959Y009113D01*
X003988Y009104D01*
X004015Y009092D01*
X004041Y009077D01*
X004065Y009058D01*
X004086Y009036D01*
X004104Y009012D01*
X004119Y008985D01*
X004130Y008957D01*
X004138Y008928D01*
X004142Y008898D01*
X004142Y008868D01*
X004138Y008838D01*
X004130Y008809D01*
X004119Y008781D01*
X004104Y008754D01*
X004086Y008730D01*
X004065Y008708D01*
X004041Y008689D01*
X004015Y008674D01*
X003988Y008662D01*
X003959Y008653D01*
X003929Y008648D01*
X003898Y008647D01*
X003868Y008650D01*
X003839Y008657D01*
X003810Y008667D01*
X003784Y008681D01*
X003759Y008698D01*
X003736Y008719D01*
X003717Y008742D01*
X003700Y008767D01*
X003687Y008794D01*
X003678Y008823D01*
X003672Y008853D01*
X003670Y008883D01*
X006623Y010852D02*
X006625Y010882D01*
X006631Y010912D01*
X006640Y010941D01*
X006653Y010968D01*
X006670Y010993D01*
X006689Y011016D01*
X006712Y011037D01*
X006737Y011054D01*
X006763Y011068D01*
X006792Y011078D01*
X006821Y011085D01*
X006851Y011088D01*
X006882Y011087D01*
X006912Y011082D01*
X006941Y011073D01*
X006968Y011061D01*
X006994Y011046D01*
X007018Y011027D01*
X007039Y011005D01*
X007057Y010981D01*
X007072Y010954D01*
X007083Y010926D01*
X007091Y010897D01*
X007095Y010867D01*
X007095Y010837D01*
X007091Y010807D01*
X007083Y010778D01*
X007072Y010750D01*
X007057Y010723D01*
X007039Y010699D01*
X007018Y010677D01*
X006994Y010658D01*
X006968Y010643D01*
X006941Y010631D01*
X006912Y010622D01*
X006882Y010617D01*
X006851Y010616D01*
X006821Y010619D01*
X006792Y010626D01*
X006763Y010636D01*
X006737Y010650D01*
X006712Y010667D01*
X006689Y010688D01*
X006670Y010711D01*
X006653Y010736D01*
X006640Y010763D01*
X006631Y010792D01*
X006625Y010822D01*
X006623Y010852D01*
X004655Y012820D02*
X004657Y012850D01*
X004663Y012880D01*
X004672Y012909D01*
X004685Y012936D01*
X004702Y012961D01*
X004721Y012984D01*
X004744Y013005D01*
X004769Y013022D01*
X004795Y013036D01*
X004824Y013046D01*
X004853Y013053D01*
X004883Y013056D01*
X004914Y013055D01*
X004944Y013050D01*
X004973Y013041D01*
X005000Y013029D01*
X005026Y013014D01*
X005050Y012995D01*
X005071Y012973D01*
X005089Y012949D01*
X005104Y012922D01*
X005115Y012894D01*
X005123Y012865D01*
X005127Y012835D01*
X005127Y012805D01*
X005123Y012775D01*
X005115Y012746D01*
X005104Y012718D01*
X005089Y012691D01*
X005071Y012667D01*
X005050Y012645D01*
X005026Y012626D01*
X005000Y012611D01*
X004973Y012599D01*
X004944Y012590D01*
X004914Y012585D01*
X004883Y012584D01*
X004853Y012587D01*
X004824Y012594D01*
X004795Y012604D01*
X004769Y012618D01*
X004744Y012635D01*
X004721Y012656D01*
X004702Y012679D01*
X004685Y012704D01*
X004672Y012731D01*
X004663Y012760D01*
X004657Y012790D01*
X004655Y012820D01*
X003670Y012820D02*
X003672Y012850D01*
X003678Y012880D01*
X003687Y012909D01*
X003700Y012936D01*
X003717Y012961D01*
X003736Y012984D01*
X003759Y013005D01*
X003784Y013022D01*
X003810Y013036D01*
X003839Y013046D01*
X003868Y013053D01*
X003898Y013056D01*
X003929Y013055D01*
X003959Y013050D01*
X003988Y013041D01*
X004015Y013029D01*
X004041Y013014D01*
X004065Y012995D01*
X004086Y012973D01*
X004104Y012949D01*
X004119Y012922D01*
X004130Y012894D01*
X004138Y012865D01*
X004142Y012835D01*
X004142Y012805D01*
X004138Y012775D01*
X004130Y012746D01*
X004119Y012718D01*
X004104Y012691D01*
X004086Y012667D01*
X004065Y012645D01*
X004041Y012626D01*
X004015Y012611D01*
X003988Y012599D01*
X003959Y012590D01*
X003929Y012585D01*
X003898Y012584D01*
X003868Y012587D01*
X003839Y012594D01*
X003810Y012604D01*
X003784Y012618D01*
X003759Y012635D01*
X003736Y012656D01*
X003717Y012679D01*
X003700Y012704D01*
X003687Y012731D01*
X003678Y012760D01*
X003672Y012790D01*
X003670Y012820D01*
D11*
X000916Y006024D02*
X000927Y001163D01*
X000867Y005000D02*
X000916Y006024D01*
X000816Y005000D01*
X000793Y005000D02*
X000916Y006024D01*
X001021Y005000D01*
X001044Y005000D02*
X000793Y005000D01*
X000970Y005000D02*
X000916Y006024D01*
X001044Y005000D01*
X000129Y006022D02*
X004851Y006033D01*
X004848Y007407D02*
X000126Y007397D01*
X000913Y007398D02*
X000808Y008422D01*
X000785Y008422D02*
X000913Y007398D01*
X001013Y008422D01*
X001036Y008422D02*
X000785Y008422D01*
X000859Y008422D02*
X000913Y007398D01*
X000962Y008422D01*
X001036Y008422D02*
X000913Y007398D01*
X000908Y009446D01*
X003473Y014300D02*
X003473Y019418D01*
X003473Y018631D02*
X004497Y018733D01*
X004497Y018757D02*
X004497Y018505D01*
X003473Y018631D01*
X004497Y018529D01*
X004497Y018580D02*
X003473Y018631D01*
X004497Y018682D01*
X004497Y018757D02*
X003473Y018631D01*
X022765Y018631D01*
X021741Y018529D01*
X021741Y018505D02*
X022765Y018631D01*
X021741Y018733D01*
X021741Y018757D02*
X021741Y018505D01*
X021741Y018580D02*
X022765Y018631D01*
X021741Y018682D01*
X021741Y018757D02*
X022765Y018631D01*
X022765Y019418D02*
X022765Y014300D01*
X022765Y013415D02*
X027095Y013415D01*
X026308Y013415D02*
X026410Y012391D01*
X026434Y012391D02*
X026308Y013415D01*
X026206Y012391D01*
X026182Y012391D02*
X026434Y012391D01*
X026359Y012391D02*
X026308Y013415D01*
X026257Y012391D01*
X026182Y012391D02*
X026308Y013415D01*
X026308Y008296D01*
X026410Y009320D01*
X026434Y009320D02*
X026308Y008296D01*
X026206Y009320D01*
X026182Y009320D02*
X026434Y009320D01*
X026359Y009320D02*
X026308Y008296D01*
X026257Y009320D01*
X026182Y009320D02*
X026308Y008296D01*
X027095Y008296D02*
X022765Y008296D01*
X021780Y006033D02*
X031032Y006033D01*
X030245Y006033D02*
X030347Y007056D01*
X030371Y007056D02*
X030245Y006033D01*
X030143Y007056D01*
X030119Y007056D02*
X030371Y007056D01*
X030296Y007056D02*
X030245Y006033D01*
X030194Y007056D01*
X030119Y007056D02*
X030245Y006033D01*
X030245Y015678D01*
X030347Y014655D01*
X030371Y014655D02*
X030245Y015678D01*
X030143Y014655D01*
X030119Y014655D02*
X030371Y014655D01*
X030296Y014655D02*
X030245Y015678D01*
X030194Y014655D01*
X030119Y014655D02*
X030245Y015678D01*
X031032Y015678D02*
X021780Y015678D01*
D12*
X024802Y011929D02*
X025013Y011929D01*
X025225Y011717D01*
X025436Y011929D01*
X025648Y011929D01*
X025859Y011717D01*
X025859Y011294D01*
X025648Y011083D01*
X025859Y010660D02*
X025859Y009814D01*
X025859Y010237D02*
X024590Y010237D01*
X025013Y009814D01*
X024802Y011083D02*
X024590Y011294D01*
X024590Y011717D01*
X024802Y011929D01*
X025225Y011717D02*
X025225Y011506D01*
X028527Y010895D02*
X029162Y010261D01*
X029162Y011107D01*
X029796Y010895D02*
X028527Y010895D01*
X029585Y011529D02*
X029585Y011741D01*
X029796Y011741D01*
X029796Y011529D01*
X029585Y011529D01*
X029585Y012164D02*
X029796Y012375D01*
X029796Y012798D01*
X029585Y013010D01*
X029162Y013010D01*
X028950Y012798D01*
X028950Y012587D01*
X029162Y012164D01*
X028527Y012164D01*
X028527Y013010D01*
X028739Y009838D02*
X028527Y009626D01*
X028527Y009203D01*
X028739Y008992D01*
X028950Y009838D02*
X029796Y008992D01*
X029796Y009838D01*
X028950Y009838D02*
X028739Y009838D01*
X014192Y019291D02*
X014192Y020137D01*
X013981Y020349D01*
X013558Y020349D01*
X013346Y020137D01*
X013346Y019926D01*
X013558Y019714D01*
X014192Y019714D01*
X014192Y019291D02*
X013981Y019080D01*
X013558Y019080D01*
X013346Y019291D01*
X012924Y019714D02*
X012078Y019714D01*
X012712Y020349D01*
X012712Y019080D01*
X002425Y004948D02*
X002637Y004737D01*
X002637Y004314D01*
X002426Y004102D01*
X002215Y004101D01*
X002003Y004313D01*
X001792Y004101D01*
X001580Y004100D01*
X001368Y004311D01*
X001368Y004735D01*
X001579Y004946D01*
X002003Y004524D02*
X002003Y004313D01*
X001581Y003678D02*
X001369Y003677D01*
X001370Y003466D01*
X001581Y003466D01*
X001581Y003678D01*
X002005Y003044D02*
X002007Y002198D01*
X002219Y001775D02*
X002008Y001564D01*
X002009Y000929D01*
X001586Y000928D02*
X002432Y000930D01*
X002643Y001142D01*
X002642Y001565D01*
X002430Y001776D01*
X002219Y001775D01*
X001584Y001774D02*
X001373Y001563D01*
X001374Y001139D01*
X001586Y000928D01*
X001372Y002408D02*
X002641Y002411D01*
X002005Y003044D01*
D13*
X006859Y008883D03*
X006859Y009867D03*
X004891Y010852D03*
X006859Y011836D03*
X006859Y012820D03*
D14*
X020588Y012349D03*
X021588Y012349D03*
X021588Y011349D03*
X020588Y011349D03*
X020588Y010349D03*
X021588Y010349D03*
X021588Y009349D03*
X020588Y009349D03*
D15*
X007410Y007824D03*
X006525Y007824D03*
X006525Y006997D03*
X007410Y006997D03*
D16*
X008476Y007065D03*
X008476Y007813D03*
X009762Y007819D03*
X009762Y007071D03*
X011151Y007067D03*
X011151Y007815D03*
X010373Y009849D03*
X010373Y010597D03*
X008373Y010607D03*
X008373Y009859D03*
X008373Y012659D03*
X008373Y013407D03*
X009373Y013407D03*
X009373Y012659D03*
X010373Y012659D03*
X010373Y013407D03*
X013772Y007814D03*
X013772Y007065D03*
D17*
X014139Y013433D03*
X014808Y013433D03*
X014808Y014433D03*
X014139Y014433D03*
X012708Y013433D03*
X012039Y013433D03*
D18*
X011772Y014441D03*
X012875Y014441D03*
D19*
X015592Y012898D03*
X008773Y008961D03*
D20*
X011232Y010181D03*
X011232Y010437D03*
X011232Y010693D03*
X011232Y010949D03*
X011232Y011205D03*
X011232Y011461D03*
X011232Y011717D03*
X011232Y011972D03*
X011232Y012228D03*
X011232Y012484D03*
X013515Y012484D03*
X013515Y012228D03*
X013515Y011972D03*
X013515Y011717D03*
X013515Y011461D03*
X013515Y011205D03*
X013515Y010949D03*
X013515Y010693D03*
X013515Y010437D03*
X013515Y010181D03*
D21*
X015952Y014061D03*
X015952Y015061D03*
D22*
X006418Y014512D03*
D23*
X007418Y014512D03*
X008418Y014512D03*
X009418Y014512D03*
X005893Y011823D03*
X005893Y010823D03*
X005893Y009823D03*
X014905Y007209D03*
X015905Y007209D03*
X016905Y007209D03*
X017905Y007209D03*
X018905Y007209D03*
X019905Y007209D03*
D24*
X012456Y007115D03*
X012456Y007784D03*
X009380Y009889D03*
X009380Y010558D03*
D25*
X017188Y009748D02*
X017188Y009158D01*
X018959Y009158D02*
X018959Y009748D01*
X018959Y011717D02*
X018959Y012307D01*
X017188Y012307D02*
X017188Y011717D01*
D26*
X019910Y013415D03*
X019910Y008296D03*
D27*
X019860Y008298D02*
X019210Y008298D01*
X019260Y008346D02*
X019860Y008346D01*
X019860Y008246D01*
X019960Y008246D01*
X019960Y007726D01*
X019955Y007727D01*
X019955Y007259D01*
X019855Y007259D01*
X019855Y007646D01*
X019860Y007646D01*
X019860Y008246D01*
X019260Y008246D01*
X019260Y008027D01*
X019634Y007654D01*
X019632Y007653D01*
X019566Y007605D01*
X019508Y007547D01*
X019460Y007481D01*
X019438Y007438D01*
X019397Y007537D01*
X019233Y007700D01*
X019020Y007789D01*
X018790Y007789D01*
X018716Y007758D01*
X018716Y008173D01*
X018925Y008173D01*
X019028Y008173D01*
X019124Y008212D01*
X019260Y008349D01*
X019260Y008346D01*
X019260Y008200D02*
X019093Y008200D01*
X019260Y008101D02*
X018716Y008101D01*
X018716Y008003D02*
X019285Y008003D01*
X019383Y007904D02*
X018716Y007904D01*
X018716Y007806D02*
X019482Y007806D01*
X019580Y007707D02*
X019217Y007707D01*
X019325Y007609D02*
X019571Y007609D01*
X019481Y007510D02*
X019408Y007510D01*
X019855Y007510D02*
X019955Y007510D01*
X019955Y007412D02*
X019855Y007412D01*
X019855Y007313D02*
X019955Y007313D01*
X019955Y007259D02*
X020421Y007259D01*
X020455Y007067D01*
X020628Y006768D01*
X020628Y006768D01*
X020892Y006546D01*
X021217Y006427D01*
X021563Y006427D01*
X021887Y006546D01*
X021887Y006546D01*
X022152Y006768D01*
X022325Y007067D01*
X022325Y007067D01*
X022385Y007407D01*
X022385Y007407D01*
X022325Y007748D01*
X022152Y008047D01*
X022152Y008047D01*
X021887Y008269D01*
X021563Y008387D01*
X021217Y008387D01*
X020892Y008269D01*
X020628Y008047D01*
X020455Y007748D01*
X020395Y007407D01*
X020404Y007356D01*
X020387Y007408D01*
X020350Y007481D01*
X020302Y007547D01*
X020244Y007605D01*
X020183Y007650D01*
X020560Y008027D01*
X020560Y008246D01*
X019960Y008246D01*
X019960Y008346D01*
X020560Y008346D01*
X020560Y008566D01*
X020357Y008769D01*
X020828Y008769D01*
X021130Y009071D01*
X021372Y008829D01*
X021538Y008829D01*
X021538Y009299D01*
X021638Y009299D01*
X021638Y009399D01*
X022108Y009399D01*
X022108Y009564D01*
X021865Y009806D01*
X022168Y010109D01*
X022168Y010589D01*
X021908Y010849D01*
X022168Y011109D01*
X022168Y011589D01*
X021908Y011849D01*
X022168Y012109D01*
X022168Y012589D01*
X021828Y012929D01*
X021347Y012929D01*
X021088Y012669D01*
X020828Y012929D01*
X020429Y012929D01*
X020620Y013120D01*
X020620Y013668D01*
X020624Y013661D01*
X020889Y013439D01*
X020889Y013439D01*
X021214Y013320D01*
X021560Y013320D01*
X021884Y013439D01*
X022149Y013661D01*
X022322Y013960D01*
X022382Y014300D01*
X022382Y014300D01*
X022322Y014641D01*
X022149Y014940D01*
X021884Y015162D01*
X021560Y015280D01*
X021214Y015280D01*
X020889Y015162D01*
X020624Y014940D01*
X020452Y014641D01*
X020392Y014300D01*
X020452Y013960D01*
X020565Y013764D01*
X020287Y014042D01*
X020287Y015366D01*
X020185Y015468D01*
X021387Y015468D01*
X021539Y015458D01*
X021834Y015379D01*
X022098Y015227D01*
X022313Y015011D01*
X022466Y014747D01*
X022529Y014511D01*
X022529Y014203D01*
X022555Y014177D01*
X022555Y013538D01*
X022529Y013512D01*
X022529Y013317D01*
X022555Y013291D01*
X022555Y008420D01*
X022529Y008394D01*
X022529Y008199D01*
X022555Y008173D01*
X022555Y007411D01*
X022545Y007258D01*
X022466Y006964D01*
X022313Y006700D01*
X022098Y006484D01*
X021834Y006332D01*
X021539Y006253D01*
X021387Y006243D01*
X004974Y006243D01*
X004948Y006268D01*
X004654Y006268D01*
X004401Y006339D01*
X004135Y006498D01*
X003919Y006721D01*
X003767Y006991D01*
X003722Y007169D01*
X003895Y007170D01*
X003913Y007067D01*
X004086Y006768D01*
X004086Y006768D01*
X004351Y006546D01*
X004675Y006427D01*
X005021Y006427D01*
X005346Y006546D01*
X005610Y006768D01*
X005610Y006768D01*
X005783Y007067D01*
X005843Y007407D01*
X005843Y007407D01*
X005783Y007748D01*
X005610Y008047D01*
X005346Y008269D01*
X005021Y008387D01*
X004675Y008387D01*
X004351Y008269D01*
X004351Y008269D01*
X004086Y008047D01*
X003913Y007748D01*
X003913Y007748D01*
X003894Y007641D01*
X003683Y007640D01*
X003683Y008492D01*
X003818Y008437D01*
X003995Y008437D01*
X004159Y008505D01*
X004285Y008630D01*
X004353Y008794D01*
X004353Y008972D01*
X004285Y009136D01*
X004159Y009261D01*
X003995Y009329D01*
X003818Y009329D01*
X003683Y009274D01*
X003683Y012429D01*
X003818Y012374D01*
X003995Y012374D01*
X004159Y012442D01*
X004285Y012567D01*
X004353Y012731D01*
X004353Y012909D01*
X004285Y013073D01*
X004159Y013198D01*
X003995Y013266D01*
X003818Y013266D01*
X003683Y013211D01*
X003683Y014177D01*
X003709Y014203D01*
X003709Y014511D01*
X003772Y014747D01*
X003925Y015011D01*
X004140Y015227D01*
X004404Y015379D01*
X004699Y015458D01*
X004851Y015468D01*
X015758Y015468D01*
X015697Y015443D01*
X015585Y015331D01*
X015365Y015331D01*
X015316Y015333D01*
X015312Y015331D01*
X015307Y015331D01*
X015262Y015312D01*
X015215Y015295D01*
X015212Y015292D01*
X015208Y015290D01*
X015173Y015255D01*
X014922Y015018D01*
X014860Y015080D01*
X014787Y015153D01*
X014691Y015193D01*
X013522Y015193D01*
X013426Y015153D01*
X013353Y015080D01*
X013253Y014980D01*
X013236Y014938D01*
X013209Y014945D01*
X012925Y014945D01*
X012925Y014491D01*
X012825Y014491D01*
X012825Y014945D01*
X012540Y014945D01*
X012502Y014935D01*
X012467Y014915D01*
X012440Y014887D01*
X012420Y014853D01*
X012410Y014815D01*
X012410Y014491D01*
X012825Y014491D01*
X012825Y014391D01*
X012925Y014391D01*
X012925Y013936D01*
X013209Y013936D01*
X013213Y013937D01*
X013213Y013081D01*
X013253Y012985D01*
X013326Y012912D01*
X013545Y012693D01*
X013515Y012693D01*
X013259Y012693D01*
X013221Y012683D01*
X013187Y012663D01*
X013159Y012635D01*
X013139Y012601D01*
X013129Y012563D01*
X013129Y012484D01*
X013129Y012434D01*
X013069Y012374D01*
X013069Y011977D01*
X012606Y011977D01*
X012510Y011937D01*
X012361Y011788D01*
X012361Y011998D01*
X012315Y012045D01*
X012338Y012045D01*
X012461Y012168D01*
X012461Y012698D01*
X012338Y012821D01*
X011995Y012821D01*
X012062Y012927D01*
X012382Y012927D01*
X012442Y012987D01*
X012658Y012987D01*
X012658Y013383D01*
X012758Y013383D01*
X012758Y013483D01*
X012658Y013483D01*
X012658Y013878D01*
X012442Y013878D01*
X012382Y013938D01*
X012236Y013938D01*
X012297Y013999D01*
X012297Y014882D01*
X012174Y015005D01*
X011370Y015005D01*
X011247Y014882D01*
X011247Y014545D01*
X011216Y014543D01*
X011142Y014618D01*
X010611Y014618D01*
X010488Y014495D01*
X010488Y014209D01*
X010153Y013874D01*
X010153Y013873D01*
X009971Y013873D01*
X009873Y013775D01*
X009775Y013873D01*
X009133Y013873D01*
X009133Y014076D01*
X009146Y014067D01*
X009218Y014030D01*
X009296Y014005D01*
X009368Y013993D01*
X009368Y014462D01*
X009468Y014462D01*
X009468Y014562D01*
X009368Y014562D01*
X009368Y015030D01*
X009296Y015019D01*
X009218Y014994D01*
X009146Y014957D01*
X009079Y014908D01*
X009021Y014851D01*
X008973Y014784D01*
X008951Y014741D01*
X008910Y014840D01*
X008747Y015003D01*
X008533Y015092D01*
X008303Y015092D01*
X008090Y015003D01*
X007926Y014840D01*
X007918Y014820D01*
X007910Y014840D01*
X007747Y015003D01*
X007533Y015092D01*
X007303Y015092D01*
X007090Y015003D01*
X006998Y014912D01*
X006998Y014969D01*
X006875Y015092D01*
X005961Y015092D01*
X005838Y014969D01*
X005838Y014333D01*
X005783Y014644D01*
X005610Y014943D01*
X005610Y014943D01*
X005346Y015165D01*
X005346Y015165D01*
X005021Y015284D01*
X004675Y015284D01*
X004351Y015165D01*
X004351Y015165D01*
X004086Y014943D01*
X003913Y014644D01*
X003913Y014644D01*
X003853Y014304D01*
X003853Y014304D01*
X003913Y013963D01*
X004086Y013664D01*
X004086Y013664D01*
X004351Y013442D01*
X004675Y013324D01*
X005021Y013324D01*
X005346Y013442D01*
X005610Y013664D01*
X005610Y013664D01*
X005783Y013963D01*
X005838Y014274D01*
X005838Y014055D01*
X005961Y013932D01*
X006091Y013932D01*
X005544Y013386D01*
X005503Y013286D01*
X005503Y012944D01*
X005337Y012778D01*
X005337Y012909D01*
X005269Y013073D01*
X005143Y013198D01*
X004979Y013266D01*
X004802Y013266D01*
X004638Y013198D01*
X004512Y013073D01*
X004444Y012909D01*
X004444Y012731D01*
X004512Y012567D01*
X004638Y012442D01*
X004802Y012374D01*
X004933Y012374D01*
X003944Y011386D01*
X003903Y011286D01*
X003903Y010379D01*
X003944Y010280D01*
X004020Y010204D01*
X004320Y009904D01*
X004420Y009863D01*
X005313Y009863D01*
X005313Y009707D01*
X005402Y009494D01*
X005565Y009331D01*
X005778Y009243D01*
X005861Y009243D01*
X005861Y007062D01*
X005902Y006962D01*
X006078Y006786D01*
X006078Y006674D01*
X006201Y006551D01*
X006848Y006551D01*
X006967Y006671D01*
X007087Y006551D01*
X007734Y006551D01*
X007857Y006674D01*
X007857Y007320D01*
X007766Y007411D01*
X007857Y007501D01*
X007857Y007663D01*
X007951Y007663D01*
X007951Y007470D01*
X007982Y007439D01*
X007951Y007408D01*
X007951Y006722D01*
X008074Y006599D01*
X008555Y006599D01*
X008777Y006373D01*
X008778Y006372D01*
X008815Y006335D01*
X008851Y006297D01*
X008853Y006297D01*
X008853Y006296D01*
X008902Y006276D01*
X008950Y006255D01*
X008952Y006255D01*
X008953Y006255D01*
X009005Y006255D01*
X009058Y006254D01*
X009059Y006255D01*
X010220Y006255D01*
X010319Y006296D01*
X010455Y006432D01*
X010727Y006432D01*
X010850Y006555D01*
X010850Y006661D01*
X011101Y006661D01*
X011101Y007017D01*
X011201Y007017D01*
X011201Y007117D01*
X011615Y007117D01*
X011615Y007342D01*
X011605Y007380D01*
X011598Y007394D01*
X011675Y007472D01*
X011675Y008158D01*
X011571Y008262D01*
X011571Y008405D01*
X011689Y008523D01*
X011689Y009054D01*
X011566Y009177D01*
X011165Y009177D01*
X011165Y009513D01*
X011338Y009513D01*
X012661Y008190D01*
X012506Y008190D01*
X012506Y007834D01*
X012901Y007834D01*
X012901Y007950D01*
X013197Y007654D01*
X013199Y007650D01*
X013234Y007617D01*
X013247Y007604D01*
X013247Y007471D01*
X013278Y007439D01*
X013247Y007408D01*
X013247Y007315D01*
X012961Y007315D01*
X012961Y007458D01*
X012901Y007518D01*
X012901Y007734D01*
X012506Y007734D01*
X012506Y007834D01*
X012406Y007834D01*
X012406Y007734D01*
X012011Y007734D01*
X012011Y007518D01*
X011951Y007458D01*
X011951Y006772D01*
X012074Y006649D01*
X012838Y006649D01*
X012961Y006772D01*
X012961Y006795D01*
X013247Y006795D01*
X013247Y006723D01*
X013370Y006600D01*
X013850Y006600D01*
X013975Y006472D01*
X013975Y006470D01*
X014012Y006433D01*
X014049Y006396D01*
X014050Y006395D01*
X014051Y006394D01*
X014099Y006374D01*
X014147Y006354D01*
X014149Y006354D01*
X014150Y006353D01*
X014202Y006353D01*
X014255Y006353D01*
X014256Y006353D01*
X015338Y006353D01*
X015437Y006394D01*
X015513Y006470D01*
X015706Y006663D01*
X015790Y006629D01*
X016020Y006629D01*
X016233Y006717D01*
X016397Y006880D01*
X016405Y006900D01*
X016413Y006880D01*
X016576Y006717D01*
X016790Y006629D01*
X017020Y006629D01*
X017233Y006717D01*
X017397Y006880D01*
X017405Y006900D01*
X017413Y006880D01*
X017576Y006717D01*
X017790Y006629D01*
X018020Y006629D01*
X018233Y006717D01*
X018397Y006880D01*
X018405Y006900D01*
X018413Y006880D01*
X018576Y006717D01*
X018790Y006629D01*
X019020Y006629D01*
X019233Y006717D01*
X019397Y006880D01*
X019438Y006980D01*
X019460Y006936D01*
X019508Y006870D01*
X019566Y006812D01*
X019632Y006764D01*
X019705Y006727D01*
X019783Y006702D01*
X019855Y006690D01*
X019855Y007159D01*
X019955Y007159D01*
X019955Y007259D01*
X019955Y007215D02*
X020429Y007215D01*
X020424Y007159D02*
X019955Y007159D01*
X019955Y006690D01*
X020027Y006702D01*
X020105Y006727D01*
X020177Y006764D01*
X020244Y006812D01*
X020302Y006870D01*
X020350Y006936D01*
X020387Y007009D01*
X020412Y007087D01*
X020424Y007159D01*
X020417Y007116D02*
X020446Y007116D01*
X020455Y007067D02*
X020455Y007067D01*
X020483Y007018D02*
X020390Y007018D01*
X020337Y006919D02*
X020540Y006919D01*
X020597Y006821D02*
X020252Y006821D01*
X020090Y006722D02*
X020682Y006722D01*
X020799Y006624D02*
X015667Y006624D01*
X015568Y006525D02*
X020949Y006525D01*
X020892Y006546D02*
X020892Y006546D01*
X021831Y006525D02*
X022139Y006525D01*
X022237Y006624D02*
X021980Y006624D01*
X022098Y006722D02*
X022326Y006722D01*
X022383Y006821D02*
X022183Y006821D01*
X022152Y006768D02*
X022152Y006768D01*
X022152Y006768D01*
X022240Y006919D02*
X022440Y006919D01*
X022480Y007018D02*
X022296Y007018D01*
X022334Y007116D02*
X022507Y007116D01*
X022533Y007215D02*
X022351Y007215D01*
X022368Y007313D02*
X022548Y007313D01*
X022555Y007412D02*
X022384Y007412D01*
X022367Y007510D02*
X022555Y007510D01*
X022555Y007609D02*
X022350Y007609D01*
X022332Y007707D02*
X022555Y007707D01*
X022555Y007806D02*
X022292Y007806D01*
X022325Y007748D02*
X022325Y007748D01*
X022235Y007904D02*
X022555Y007904D01*
X022555Y008003D02*
X022178Y008003D01*
X022088Y008101D02*
X022555Y008101D01*
X022529Y008200D02*
X021970Y008200D01*
X021887Y008269D02*
X021887Y008269D01*
X021808Y008298D02*
X022529Y008298D01*
X022532Y008397D02*
X020560Y008397D01*
X020560Y008495D02*
X022555Y008495D01*
X022555Y008594D02*
X020532Y008594D01*
X020434Y008692D02*
X022555Y008692D01*
X022555Y008791D02*
X020850Y008791D01*
X020948Y008889D02*
X021312Y008889D01*
X021213Y008988D02*
X021047Y008988D01*
X021538Y008988D02*
X021638Y008988D01*
X021638Y009086D02*
X021538Y009086D01*
X021538Y009185D02*
X021638Y009185D01*
X021638Y009283D02*
X021538Y009283D01*
X021638Y009299D02*
X021638Y008829D01*
X021803Y008829D01*
X022108Y009133D01*
X022108Y009299D01*
X021638Y009299D01*
X021638Y009382D02*
X022555Y009382D01*
X022555Y009480D02*
X022108Y009480D01*
X022093Y009579D02*
X022555Y009579D01*
X022555Y009677D02*
X021995Y009677D01*
X021896Y009776D02*
X022555Y009776D01*
X022555Y009874D02*
X021933Y009874D01*
X022032Y009973D02*
X022555Y009973D01*
X022555Y010071D02*
X022130Y010071D01*
X022168Y010170D02*
X022555Y010170D01*
X022555Y010268D02*
X022168Y010268D01*
X022168Y010367D02*
X022555Y010367D01*
X022555Y010465D02*
X022168Y010465D01*
X022168Y010564D02*
X022555Y010564D01*
X022555Y010662D02*
X022094Y010662D01*
X021996Y010761D02*
X022555Y010761D01*
X022555Y010859D02*
X021918Y010859D01*
X022017Y010958D02*
X022555Y010958D01*
X022555Y011056D02*
X022115Y011056D01*
X022168Y011155D02*
X022555Y011155D01*
X022555Y011253D02*
X022168Y011253D01*
X022168Y011352D02*
X022555Y011352D01*
X022555Y011450D02*
X022168Y011450D01*
X022168Y011549D02*
X022555Y011549D01*
X022555Y011647D02*
X022109Y011647D01*
X022011Y011746D02*
X022555Y011746D01*
X022555Y011844D02*
X021912Y011844D01*
X022002Y011943D02*
X022555Y011943D01*
X022555Y012041D02*
X022100Y012041D01*
X022168Y012140D02*
X022555Y012140D01*
X022555Y012238D02*
X022168Y012238D01*
X022168Y012337D02*
X022555Y012337D01*
X022555Y012435D02*
X022168Y012435D01*
X022168Y012534D02*
X022555Y012534D01*
X022555Y012632D02*
X022124Y012632D01*
X022026Y012731D02*
X022555Y012731D01*
X022555Y012829D02*
X021927Y012829D01*
X021829Y012928D02*
X022555Y012928D01*
X022555Y013026D02*
X020526Y013026D01*
X020620Y013125D02*
X022555Y013125D01*
X022555Y013223D02*
X020620Y013223D01*
X020620Y013322D02*
X021210Y013322D01*
X020940Y013420D02*
X020620Y013420D01*
X020620Y013519D02*
X020794Y013519D01*
X020676Y013617D02*
X020620Y013617D01*
X020624Y013661D02*
X020624Y013661D01*
X020536Y013814D02*
X020515Y013814D01*
X020479Y013913D02*
X020416Y013913D01*
X020452Y013960D02*
X020452Y013960D01*
X020443Y014011D02*
X020318Y014011D01*
X020287Y014110D02*
X020425Y014110D01*
X020408Y014208D02*
X020287Y014208D01*
X020287Y014307D02*
X020393Y014307D01*
X020392Y014300D02*
X020392Y014300D01*
X020410Y014405D02*
X020287Y014405D01*
X020287Y014504D02*
X020427Y014504D01*
X020445Y014602D02*
X020287Y014602D01*
X020287Y014701D02*
X020486Y014701D01*
X020452Y014641D02*
X020452Y014641D01*
X020543Y014799D02*
X020287Y014799D01*
X020287Y014898D02*
X020600Y014898D01*
X020624Y014940D02*
X020624Y014940D01*
X020624Y014940D01*
X020691Y014996D02*
X020287Y014996D01*
X020287Y015095D02*
X020809Y015095D01*
X020889Y015162D02*
X020889Y015162D01*
X020974Y015193D02*
X020287Y015193D01*
X020287Y015292D02*
X021986Y015292D01*
X021884Y015162D02*
X021884Y015162D01*
X021799Y015193D02*
X022132Y015193D01*
X022230Y015095D02*
X021965Y015095D01*
X022082Y014996D02*
X022322Y014996D01*
X022379Y014898D02*
X022174Y014898D01*
X022149Y014940D02*
X022149Y014940D01*
X022230Y014799D02*
X022436Y014799D01*
X022478Y014701D02*
X022287Y014701D01*
X022322Y014641D02*
X022322Y014641D01*
X022329Y014602D02*
X022505Y014602D01*
X022529Y014504D02*
X022346Y014504D01*
X022363Y014405D02*
X022529Y014405D01*
X022529Y014307D02*
X022381Y014307D01*
X022366Y014208D02*
X022529Y014208D01*
X022555Y014110D02*
X022348Y014110D01*
X022331Y014011D02*
X022555Y014011D01*
X022555Y013913D02*
X022295Y013913D01*
X022322Y013960D02*
X022322Y013960D01*
X022238Y013814D02*
X022555Y013814D01*
X022555Y013716D02*
X022181Y013716D01*
X022149Y013661D02*
X022149Y013661D01*
X022149Y013661D01*
X022097Y013617D02*
X022555Y013617D01*
X022536Y013519D02*
X021980Y013519D01*
X021884Y013439D02*
X021884Y013439D01*
X021834Y013420D02*
X022529Y013420D01*
X022529Y013322D02*
X021563Y013322D01*
X021346Y012928D02*
X020829Y012928D01*
X020927Y012829D02*
X021248Y012829D01*
X021149Y012731D02*
X021026Y012731D01*
X020588Y012349D02*
X020405Y012433D01*
X019873Y012433D01*
X019473Y012833D01*
X018373Y012833D01*
X018173Y012633D01*
X017785Y012632D02*
X017577Y012632D01*
X017616Y012594D02*
X017474Y012736D01*
X017288Y012813D01*
X017087Y012813D01*
X016901Y012736D01*
X016759Y012594D01*
X016682Y012408D01*
X016682Y011616D01*
X016759Y011431D01*
X016791Y011399D01*
X015528Y011399D01*
X015432Y011359D01*
X015359Y011286D01*
X015282Y011209D01*
X014529Y011209D01*
X015080Y011760D01*
X015102Y011738D01*
X015632Y011738D01*
X015755Y011861D01*
X015755Y012390D01*
X015797Y012403D01*
X015815Y012412D01*
X015574Y012830D01*
X015157Y012589D01*
X015185Y012550D01*
X015221Y012514D01*
X015102Y012514D01*
X015033Y012446D01*
X015033Y012927D01*
X015058Y012927D01*
X015058Y012856D01*
X015072Y012773D01*
X015098Y012693D01*
X015107Y012675D01*
X015524Y012916D01*
X015574Y012830D01*
X015661Y012880D01*
X015611Y012966D01*
X016028Y013207D01*
X015999Y013246D01*
X015940Y013305D01*
X015872Y013355D01*
X015797Y013393D01*
X015717Y013419D01*
X015678Y013425D01*
X015711Y013439D01*
X015884Y013611D01*
X016041Y013611D01*
X016187Y013672D01*
X016240Y013619D01*
X019200Y013619D01*
X019200Y013120D01*
X019228Y013093D01*
X018322Y013093D01*
X018226Y013053D01*
X018194Y013021D01*
X017908Y013021D01*
X017785Y012898D01*
X017785Y012368D01*
X017908Y012245D01*
X018438Y012245D01*
X018514Y012320D01*
X018514Y012061D01*
X018911Y012061D01*
X018911Y011964D01*
X018514Y011964D01*
X018514Y011682D01*
X018525Y011613D01*
X018547Y011546D01*
X018575Y011491D01*
X018320Y011491D01*
X018225Y011451D01*
X018151Y011378D01*
X017766Y010993D01*
X017303Y010993D01*
X017138Y011212D01*
X017288Y011212D01*
X017474Y011289D01*
X017616Y011431D01*
X017693Y011616D01*
X017693Y012408D01*
X017616Y012594D01*
X017641Y012534D02*
X017785Y012534D01*
X017785Y012435D02*
X017682Y012435D01*
X017693Y012337D02*
X017816Y012337D01*
X017693Y012238D02*
X018514Y012238D01*
X018514Y012140D02*
X017693Y012140D01*
X017693Y012041D02*
X018911Y012041D01*
X019008Y012041D02*
X019713Y012041D01*
X019723Y012051D02*
X019404Y011733D01*
X019404Y011964D01*
X019008Y011964D01*
X019008Y012061D01*
X019404Y012061D01*
X019404Y012342D01*
X019394Y012412D01*
X019372Y012478D01*
X019340Y012541D01*
X019317Y012573D01*
X019366Y012573D01*
X019653Y012285D01*
X019726Y012212D01*
X019822Y012173D01*
X020008Y012173D01*
X020008Y012109D01*
X020025Y012091D01*
X019819Y012091D01*
X019723Y012051D01*
X019614Y011943D02*
X019404Y011943D01*
X019404Y011844D02*
X019516Y011844D01*
X019417Y011746D02*
X019404Y011746D01*
X019404Y012140D02*
X020008Y012140D01*
X019700Y012238D02*
X019404Y012238D01*
X019404Y012337D02*
X019602Y012337D01*
X019503Y012435D02*
X019386Y012435D01*
X019405Y012534D02*
X019344Y012534D01*
X019200Y013125D02*
X015885Y013125D01*
X015914Y013026D02*
X015714Y013026D01*
X015744Y012928D02*
X015633Y012928D01*
X015661Y012880D02*
X016078Y013121D01*
X016087Y013103D01*
X016113Y013023D01*
X016126Y012940D01*
X016126Y012856D01*
X016113Y012773D01*
X016087Y012693D01*
X016049Y012618D01*
X015999Y012550D01*
X015940Y012491D01*
X015901Y012463D01*
X015661Y012880D01*
X015690Y012829D02*
X015574Y012829D01*
X015573Y012829D02*
X015373Y012829D01*
X015402Y012731D02*
X015202Y012731D01*
X015232Y012632D02*
X015033Y012632D01*
X015033Y012534D02*
X015202Y012534D01*
X015085Y012731D02*
X015033Y012731D01*
X015033Y012829D02*
X015063Y012829D01*
X014513Y012829D02*
X014145Y012829D01*
X014194Y012780D02*
X013986Y012987D01*
X014089Y012987D01*
X014089Y013383D01*
X014189Y013383D01*
X014189Y012987D01*
X014405Y012987D01*
X014465Y012927D01*
X014513Y012927D01*
X014513Y012340D01*
X014405Y012232D01*
X014213Y012232D01*
X014233Y012281D01*
X014233Y012684D01*
X014194Y012780D01*
X014214Y012731D02*
X014513Y012731D01*
X014513Y012632D02*
X014233Y012632D01*
X014233Y012534D02*
X014513Y012534D01*
X014513Y012435D02*
X014233Y012435D01*
X014233Y012337D02*
X014510Y012337D01*
X014411Y012238D02*
X014216Y012238D01*
X013973Y012333D02*
X013869Y012228D01*
X013515Y012228D01*
X013515Y011972D02*
X014513Y011972D01*
X014773Y012233D01*
X014773Y013398D01*
X014465Y012928D02*
X014046Y012928D01*
X014089Y013026D02*
X014189Y013026D01*
X014189Y013125D02*
X014089Y013125D01*
X014089Y013223D02*
X014189Y013223D01*
X014189Y013322D02*
X014089Y013322D01*
X014089Y013483D02*
X014089Y013878D01*
X013863Y013878D01*
X013825Y013868D01*
X013791Y013848D01*
X013763Y013820D01*
X013743Y013786D01*
X013733Y013750D01*
X013733Y014116D01*
X013743Y014079D01*
X013763Y014045D01*
X013791Y014017D01*
X013825Y013998D01*
X013863Y013987D01*
X014089Y013987D01*
X014089Y014383D01*
X014189Y014383D01*
X014189Y013987D01*
X014405Y013987D01*
X014460Y013933D01*
X014405Y013878D01*
X014189Y013878D01*
X014189Y013483D01*
X014089Y013483D01*
X014089Y013519D02*
X014189Y013519D01*
X014189Y013617D02*
X014089Y013617D01*
X014089Y013716D02*
X014189Y013716D01*
X014189Y013814D02*
X014089Y013814D01*
X014089Y014011D02*
X014189Y014011D01*
X014189Y014110D02*
X014089Y014110D01*
X014089Y014208D02*
X014189Y014208D01*
X014189Y014307D02*
X014089Y014307D01*
X013735Y014110D02*
X013733Y014110D01*
X013733Y014011D02*
X013801Y014011D01*
X013733Y013913D02*
X014440Y013913D01*
X013759Y013814D02*
X013733Y013814D01*
X013213Y013814D02*
X013087Y013814D01*
X013084Y013820D02*
X013104Y013786D01*
X013114Y013748D01*
X013114Y013483D01*
X012758Y013483D01*
X012758Y013878D01*
X012984Y013878D01*
X013022Y013868D01*
X013056Y013848D01*
X013084Y013820D01*
X013114Y013716D02*
X013213Y013716D01*
X013213Y013617D02*
X013114Y013617D01*
X013114Y013519D02*
X013213Y013519D01*
X013213Y013420D02*
X012758Y013420D01*
X012758Y013383D02*
X013114Y013383D01*
X013114Y013118D01*
X013104Y013079D01*
X013084Y013045D01*
X013056Y013017D01*
X013022Y012998D01*
X012984Y012987D01*
X012758Y012987D01*
X012758Y013383D01*
X012758Y013322D02*
X012658Y013322D01*
X012658Y013223D02*
X012758Y013223D01*
X012758Y013125D02*
X012658Y013125D01*
X012658Y013026D02*
X012758Y013026D01*
X013065Y013026D02*
X013236Y013026D01*
X013213Y013125D02*
X013114Y013125D01*
X013114Y013223D02*
X013213Y013223D01*
X013213Y013322D02*
X013114Y013322D01*
X013473Y013133D02*
X013473Y014833D01*
X013573Y014933D01*
X014640Y014933D01*
X014929Y014643D01*
X015274Y014608D02*
X015274Y014050D01*
X015161Y013938D01*
X015446Y013938D01*
X015502Y013993D01*
X015502Y014151D01*
X015570Y014316D01*
X015697Y014443D01*
X015862Y014511D01*
X016041Y014511D01*
X016117Y014480D01*
X016117Y014643D01*
X016041Y014611D01*
X015862Y014611D01*
X015697Y014680D01*
X015585Y014791D01*
X015468Y014791D01*
X015274Y014608D01*
X015274Y014602D02*
X016117Y014602D01*
X016117Y014504D02*
X016060Y014504D01*
X015844Y014504D02*
X015274Y014504D01*
X015274Y014405D02*
X015659Y014405D01*
X015566Y014307D02*
X015274Y014307D01*
X015274Y014208D02*
X015525Y014208D01*
X015502Y014110D02*
X015274Y014110D01*
X015235Y014011D02*
X015502Y014011D01*
X015791Y013519D02*
X019200Y013519D01*
X019200Y013617D02*
X016055Y013617D01*
X015917Y013322D02*
X019200Y013322D01*
X019200Y013420D02*
X015708Y013420D01*
X016016Y013223D02*
X019200Y013223D01*
X018199Y013026D02*
X016112Y013026D01*
X016126Y012928D02*
X017815Y012928D01*
X017785Y012829D02*
X016122Y012829D01*
X016099Y012731D02*
X016896Y012731D01*
X016798Y012632D02*
X016056Y012632D01*
X015983Y012534D02*
X016734Y012534D01*
X016694Y012435D02*
X015802Y012435D01*
X015755Y012337D02*
X016682Y012337D01*
X016682Y012238D02*
X015755Y012238D01*
X015755Y012140D02*
X016682Y012140D01*
X016682Y012041D02*
X015755Y012041D01*
X015755Y011943D02*
X016682Y011943D01*
X016682Y011844D02*
X015738Y011844D01*
X015640Y011746D02*
X016682Y011746D01*
X016682Y011647D02*
X014967Y011647D01*
X014869Y011549D02*
X016710Y011549D01*
X016751Y011450D02*
X014770Y011450D01*
X014672Y011352D02*
X015425Y011352D01*
X015326Y011253D02*
X014573Y011253D01*
X014157Y011205D02*
X015088Y012135D01*
X015096Y012126D01*
X015367Y012126D01*
X015095Y011746D02*
X015066Y011746D01*
X015580Y011139D02*
X016867Y011139D01*
X017173Y010733D01*
X017873Y010733D01*
X018372Y011231D01*
X019270Y011231D01*
X019870Y011831D01*
X021178Y011831D01*
X021588Y012241D01*
X021588Y012349D01*
X021588Y011349D02*
X021588Y011241D01*
X021178Y010831D01*
X020178Y010831D01*
X019680Y010333D01*
X019473Y010333D01*
X019372Y010434D01*
X018375Y010434D01*
X017773Y009833D01*
X017773Y008933D01*
X017473Y008633D01*
X016873Y008633D01*
X016273Y009233D01*
X013573Y009233D01*
X011857Y010949D01*
X011232Y010949D01*
X011232Y011205D02*
X010945Y011205D01*
X010273Y010533D01*
X010373Y010597D01*
X010436Y011063D02*
X009971Y011063D01*
X009848Y010940D01*
X009848Y010268D01*
X009848Y010268D01*
X009825Y010291D01*
X009825Y010508D01*
X009430Y010508D01*
X009430Y010608D01*
X009825Y010608D01*
X009825Y010833D01*
X009815Y010872D01*
X009795Y010906D01*
X009767Y010934D01*
X009733Y010954D01*
X009695Y010964D01*
X009430Y010964D01*
X009430Y010608D01*
X009330Y010608D01*
X009330Y010964D01*
X009133Y010964D01*
X009133Y011545D01*
X009338Y011545D01*
X009416Y011622D01*
X009798Y011240D01*
X009894Y011201D01*
X010574Y011201D01*
X010436Y011063D01*
X010528Y011155D02*
X009133Y011155D01*
X009133Y011253D02*
X009785Y011253D01*
X009687Y011352D02*
X009133Y011352D01*
X009133Y011450D02*
X009588Y011450D01*
X009490Y011549D02*
X009343Y011549D01*
X009380Y011326D02*
X009380Y010558D01*
X009430Y010564D02*
X009848Y010564D01*
X009848Y010662D02*
X009825Y010662D01*
X009825Y010761D02*
X009848Y010761D01*
X009848Y010859D02*
X009818Y010859D01*
X009866Y010958D02*
X009717Y010958D01*
X009964Y011056D02*
X009133Y011056D01*
X009330Y010958D02*
X009430Y010958D01*
X009430Y010859D02*
X009330Y010859D01*
X009330Y010761D02*
X009430Y010761D01*
X009430Y010662D02*
X009330Y010662D01*
X009825Y010465D02*
X009848Y010465D01*
X009848Y010367D02*
X009825Y010367D01*
X009380Y009889D02*
X009324Y009833D01*
X009173Y009833D01*
X008873Y010133D01*
X008873Y011533D01*
X008673Y011733D01*
X008673Y012083D01*
X008873Y012283D01*
X008873Y014033D01*
X008418Y014488D01*
X008418Y014512D01*
X008927Y014799D02*
X008984Y014799D01*
X009069Y014898D02*
X008852Y014898D01*
X008754Y014996D02*
X009226Y014996D01*
X009368Y014996D02*
X009468Y014996D01*
X009468Y015030D02*
X009468Y014562D01*
X009937Y014562D01*
X009925Y014634D01*
X009900Y014711D01*
X009863Y014784D01*
X009815Y014851D01*
X009757Y014908D01*
X009691Y014957D01*
X009618Y014994D01*
X009540Y015019D01*
X009468Y015030D01*
X009468Y014898D02*
X009368Y014898D01*
X009368Y014799D02*
X009468Y014799D01*
X009468Y014701D02*
X009368Y014701D01*
X009368Y014602D02*
X009468Y014602D01*
X009468Y014504D02*
X010497Y014504D01*
X010488Y014405D02*
X009928Y014405D01*
X009925Y014390D02*
X009937Y014462D01*
X009468Y014462D01*
X009468Y013993D01*
X009540Y014005D01*
X009618Y014030D01*
X009691Y014067D01*
X009757Y014115D01*
X009815Y014173D01*
X009863Y014239D01*
X009900Y014312D01*
X009925Y014390D01*
X009897Y014307D02*
X010488Y014307D01*
X010487Y014208D02*
X009840Y014208D01*
X009749Y014110D02*
X010389Y014110D01*
X010290Y014011D02*
X009560Y014011D01*
X009468Y014011D02*
X009368Y014011D01*
X009276Y014011D02*
X009133Y014011D01*
X009133Y013913D02*
X010192Y013913D01*
X010373Y013726D02*
X010877Y014229D01*
X011157Y014602D02*
X011247Y014602D01*
X011247Y014701D02*
X009903Y014701D01*
X009930Y014602D02*
X010596Y014602D01*
X011247Y014799D02*
X009852Y014799D01*
X009768Y014898D02*
X011263Y014898D01*
X011362Y014996D02*
X009610Y014996D01*
X009468Y014405D02*
X009368Y014405D01*
X009368Y014307D02*
X009468Y014307D01*
X009468Y014208D02*
X009368Y014208D01*
X009368Y014110D02*
X009468Y014110D01*
X009834Y013814D02*
X009913Y013814D01*
X010373Y013726D02*
X010373Y013407D01*
X009373Y013407D01*
X009373Y012659D02*
X009373Y012233D01*
X009073Y011933D01*
X009473Y011933D01*
X009945Y011461D01*
X011232Y011461D01*
X011232Y011717D02*
X012057Y011717D01*
X011973Y011733D01*
X012361Y011844D02*
X012417Y011844D01*
X012361Y011943D02*
X012524Y011943D01*
X012434Y012140D02*
X013069Y012140D01*
X013069Y012238D02*
X012461Y012238D01*
X012461Y012337D02*
X013069Y012337D01*
X013129Y012435D02*
X012461Y012435D01*
X012461Y012534D02*
X013129Y012534D01*
X013129Y012484D02*
X013179Y012484D01*
X013179Y012484D01*
X013129Y012484D01*
X013157Y012632D02*
X012461Y012632D01*
X012429Y012731D02*
X013508Y012731D01*
X013515Y012693D02*
X013515Y012497D01*
X013515Y012497D01*
X013515Y012693D01*
X013515Y012632D02*
X013515Y012632D01*
X013515Y012534D02*
X013515Y012534D01*
X013973Y012633D02*
X013973Y012333D01*
X013973Y012633D02*
X013473Y013133D01*
X013311Y012928D02*
X012382Y012928D01*
X012000Y012829D02*
X013409Y012829D01*
X012758Y013519D02*
X012658Y013519D01*
X012658Y013617D02*
X012758Y013617D01*
X012758Y013716D02*
X012658Y013716D01*
X012658Y013814D02*
X012758Y013814D01*
X012825Y013936D02*
X012540Y013936D01*
X012502Y013946D01*
X012467Y013966D01*
X012440Y013994D01*
X012420Y014028D01*
X012410Y014066D01*
X012410Y014391D01*
X012825Y014391D01*
X012825Y013936D01*
X012825Y014011D02*
X012925Y014011D01*
X012925Y014110D02*
X012825Y014110D01*
X012825Y014208D02*
X012925Y014208D01*
X012925Y014307D02*
X012825Y014307D01*
X012825Y014405D02*
X012297Y014405D01*
X012297Y014307D02*
X012410Y014307D01*
X012410Y014208D02*
X012297Y014208D01*
X012297Y014110D02*
X012410Y014110D01*
X012430Y014011D02*
X012297Y014011D01*
X012407Y013913D02*
X013213Y013913D01*
X012925Y014504D02*
X012825Y014504D01*
X012825Y014602D02*
X012925Y014602D01*
X012925Y014701D02*
X012825Y014701D01*
X012825Y014799D02*
X012925Y014799D01*
X012925Y014898D02*
X012825Y014898D01*
X013269Y014996D02*
X012183Y014996D01*
X012281Y014898D02*
X012450Y014898D01*
X012410Y014799D02*
X012297Y014799D01*
X012297Y014701D02*
X012410Y014701D01*
X012410Y014602D02*
X012297Y014602D01*
X012297Y014504D02*
X012410Y014504D01*
X013368Y015095D02*
X005430Y015095D01*
X005547Y014996D02*
X005865Y014996D01*
X005838Y014898D02*
X005637Y014898D01*
X005694Y014799D02*
X005838Y014799D01*
X005838Y014701D02*
X005750Y014701D01*
X005783Y014644D02*
X005783Y014644D01*
X005791Y014602D02*
X005838Y014602D01*
X005838Y014504D02*
X005808Y014504D01*
X005825Y014405D02*
X005838Y014405D01*
X005826Y014208D02*
X005838Y014208D01*
X005838Y014110D02*
X005809Y014110D01*
X005792Y014011D02*
X005882Y014011D01*
X005783Y013963D02*
X005783Y013963D01*
X005754Y013913D02*
X006072Y013913D01*
X005973Y013814D02*
X005697Y013814D01*
X005640Y013716D02*
X005875Y013716D01*
X005776Y013617D02*
X005555Y013617D01*
X005610Y013664D02*
X005610Y013664D01*
X005678Y013519D02*
X005437Y013519D01*
X005346Y013442D02*
X005346Y013442D01*
X005287Y013420D02*
X005579Y013420D01*
X005518Y013322D02*
X003683Y013322D01*
X003683Y013420D02*
X004410Y013420D01*
X004351Y013442D02*
X004351Y013442D01*
X004259Y013519D02*
X003683Y013519D01*
X003683Y013617D02*
X004142Y013617D01*
X004056Y013716D02*
X003683Y013716D01*
X003683Y013814D02*
X003999Y013814D01*
X003942Y013913D02*
X003683Y013913D01*
X003683Y014011D02*
X003905Y014011D01*
X003913Y013963D02*
X003913Y013963D01*
X003887Y014110D02*
X003683Y014110D01*
X003709Y014208D02*
X003870Y014208D01*
X003854Y014307D02*
X003709Y014307D01*
X003709Y014405D02*
X003871Y014405D01*
X003888Y014504D02*
X003709Y014504D01*
X003733Y014602D02*
X003906Y014602D01*
X003946Y014701D02*
X003760Y014701D01*
X003802Y014799D02*
X004003Y014799D01*
X004060Y014898D02*
X003859Y014898D01*
X003916Y014996D02*
X004149Y014996D01*
X004086Y014943D02*
X004086Y014943D01*
X004086Y014943D01*
X004008Y015095D02*
X004266Y015095D01*
X004107Y015193D02*
X004427Y015193D01*
X004445Y015390D02*
X015644Y015390D01*
X015212Y015292D02*
X004252Y015292D01*
X005269Y015193D02*
X015107Y015193D01*
X015003Y015095D02*
X014845Y015095D01*
X014860Y015080D02*
X014860Y015080D01*
X015372Y014701D02*
X015676Y014701D01*
X015631Y012731D02*
X015747Y012731D01*
X015803Y012632D02*
X015688Y012632D01*
X015745Y012534D02*
X015860Y012534D01*
X017188Y012012D02*
X017188Y011533D01*
X017537Y011352D02*
X018125Y011352D01*
X018223Y011450D02*
X017624Y011450D01*
X017665Y011549D02*
X018546Y011549D01*
X018519Y011647D02*
X017693Y011647D01*
X017693Y011746D02*
X018514Y011746D01*
X018514Y011844D02*
X017693Y011844D01*
X017693Y011943D02*
X018514Y011943D01*
X018026Y011253D02*
X017388Y011253D01*
X017181Y011155D02*
X017928Y011155D01*
X017829Y011056D02*
X017255Y011056D01*
X016827Y010761D02*
X015613Y010761D01*
X015591Y010783D02*
X015687Y010879D01*
X016737Y010879D01*
X016946Y010603D01*
X016953Y010585D01*
X016977Y010562D01*
X016997Y010535D01*
X017013Y010525D01*
X017026Y010512D01*
X017057Y010499D01*
X017086Y010482D01*
X017104Y010480D01*
X017122Y010473D01*
X017155Y010473D01*
X017188Y010468D01*
X017206Y010473D01*
X017925Y010473D01*
X018021Y010512D01*
X018479Y010971D01*
X019108Y010971D01*
X019108Y010694D01*
X018323Y010694D01*
X018228Y010655D01*
X017612Y010039D01*
X017474Y010177D01*
X017288Y010254D01*
X017087Y010254D01*
X017050Y010238D01*
X016935Y010353D01*
X016839Y010393D01*
X015981Y010393D01*
X015591Y010783D01*
X015668Y010859D02*
X016752Y010859D01*
X016901Y010662D02*
X015712Y010662D01*
X015810Y010564D02*
X016975Y010564D01*
X016902Y010367D02*
X017940Y010367D01*
X018038Y010465D02*
X015909Y010465D01*
X015873Y010133D02*
X016788Y010133D01*
X017188Y009733D01*
X017188Y009453D01*
X017579Y010071D02*
X017644Y010071D01*
X017743Y010170D02*
X017481Y010170D01*
X017841Y010268D02*
X017020Y010268D01*
X018072Y010564D02*
X018137Y010564D01*
X018171Y010662D02*
X018246Y010662D01*
X018269Y010761D02*
X019108Y010761D01*
X019108Y010859D02*
X018368Y010859D01*
X018466Y010958D02*
X019108Y010958D01*
X019496Y010857D02*
X019988Y011349D01*
X020588Y011349D01*
X020588Y010349D02*
X020570Y010233D01*
X020080Y010233D01*
X019880Y010033D01*
X019373Y010033D01*
X019156Y010250D01*
X018691Y010250D01*
X018336Y009895D01*
X018336Y008789D01*
X018080Y008233D02*
X016273Y008233D01*
X015873Y008633D01*
X013373Y008633D01*
X011569Y010437D01*
X011232Y010437D01*
X011232Y010181D02*
X011425Y010181D01*
X013273Y008333D01*
X015673Y008333D01*
X016073Y007933D01*
X017680Y007933D01*
X018080Y008233D02*
X018328Y007934D01*
X018977Y008433D02*
X019517Y008973D01*
X019517Y009674D01*
X019673Y009831D01*
X021178Y009831D01*
X021588Y010241D01*
X021588Y010349D01*
X022108Y009283D02*
X022555Y009283D01*
X022555Y009185D02*
X022108Y009185D01*
X022060Y009086D02*
X022555Y009086D01*
X022555Y008988D02*
X021962Y008988D01*
X021863Y008889D02*
X022555Y008889D01*
X021638Y008889D02*
X021538Y008889D01*
X020972Y008298D02*
X019960Y008298D01*
X019960Y008346D02*
X019860Y008346D01*
X019860Y008946D01*
X019777Y008946D01*
X019777Y009567D01*
X019781Y009571D01*
X020008Y009571D01*
X020008Y009109D01*
X020170Y008946D01*
X019960Y008946D01*
X019960Y008346D01*
X019960Y008397D02*
X019860Y008397D01*
X019860Y008495D02*
X019960Y008495D01*
X019960Y008594D02*
X019860Y008594D01*
X019860Y008692D02*
X019960Y008692D01*
X019960Y008791D02*
X019860Y008791D01*
X019860Y008889D02*
X019960Y008889D01*
X020128Y008988D02*
X019777Y008988D01*
X019777Y009086D02*
X020030Y009086D01*
X020008Y009185D02*
X019777Y009185D01*
X019777Y009283D02*
X020008Y009283D01*
X020008Y009382D02*
X019777Y009382D01*
X019777Y009480D02*
X020008Y009480D01*
X018977Y008445D02*
X018977Y008433D01*
X016573Y008433D01*
X016073Y008933D01*
X013473Y008933D01*
X011713Y010693D01*
X011232Y010693D01*
X012473Y011033D02*
X012473Y011533D01*
X012657Y011717D01*
X013515Y011717D01*
X013515Y011461D02*
X013001Y011461D01*
X012873Y011333D01*
X012873Y010533D01*
X013515Y010437D02*
X014069Y010437D01*
X014473Y010033D01*
X014473Y009633D01*
X013873Y009633D02*
X013873Y010033D01*
X013725Y010181D01*
X013515Y010181D01*
X013515Y010693D02*
X015313Y010693D01*
X015873Y010133D01*
X015390Y010949D02*
X015580Y011139D01*
X015390Y010949D02*
X013515Y010949D01*
X013515Y011205D02*
X014157Y011205D01*
X013069Y012041D02*
X012318Y012041D01*
X012073Y012433D02*
X011613Y011972D01*
X011232Y011972D01*
X011232Y012228D02*
X010804Y012228D01*
X010373Y012659D01*
X010373Y012033D01*
X008373Y012659D02*
X008373Y011233D01*
X009380Y009889D02*
X009419Y009849D01*
X010373Y009849D01*
X010905Y009624D02*
X011054Y009773D01*
X011446Y009773D01*
X013415Y007804D01*
X013772Y007814D01*
X014297Y007806D02*
X015833Y007806D01*
X015850Y007789D02*
X015790Y007789D01*
X015576Y007700D01*
X015413Y007537D01*
X015405Y007517D01*
X015397Y007537D01*
X015233Y007700D01*
X015020Y007789D01*
X014790Y007789D01*
X014576Y007700D01*
X014413Y007537D01*
X014325Y007324D01*
X014325Y007093D01*
X014408Y006893D01*
X014318Y006893D01*
X014297Y006915D01*
X014297Y007408D01*
X014266Y007439D01*
X014297Y007471D01*
X014297Y008073D01*
X015566Y008073D01*
X015850Y007789D01*
X015734Y007904D02*
X014297Y007904D01*
X014297Y008003D02*
X015636Y008003D01*
X015593Y007707D02*
X015217Y007707D01*
X015325Y007609D02*
X015485Y007609D01*
X014593Y007707D02*
X014297Y007707D01*
X014297Y007609D02*
X014485Y007609D01*
X014402Y007510D02*
X014297Y007510D01*
X014293Y007412D02*
X014361Y007412D01*
X014325Y007313D02*
X014297Y007313D01*
X014297Y007215D02*
X014325Y007215D01*
X014325Y007116D02*
X014297Y007116D01*
X014297Y007018D02*
X014356Y007018D01*
X014397Y006919D02*
X014297Y006919D01*
X013772Y007065D02*
X013762Y007055D01*
X012495Y007055D01*
X012912Y006722D02*
X013247Y006722D01*
X013346Y006624D02*
X010850Y006624D01*
X010820Y006525D02*
X013922Y006525D01*
X014019Y006427D02*
X010450Y006427D01*
X010351Y006328D02*
X021821Y006328D01*
X021998Y006427D02*
X015470Y006427D01*
X016239Y006722D02*
X016571Y006722D01*
X016473Y006821D02*
X016337Y006821D01*
X017239Y006722D02*
X017571Y006722D01*
X017473Y006821D02*
X017337Y006821D01*
X018239Y006722D02*
X018571Y006722D01*
X018473Y006821D02*
X018337Y006821D01*
X019239Y006722D02*
X019720Y006722D01*
X019855Y006722D02*
X019955Y006722D01*
X019955Y006821D02*
X019855Y006821D01*
X019855Y006919D02*
X019955Y006919D01*
X019955Y007018D02*
X019855Y007018D01*
X019855Y007116D02*
X019955Y007116D01*
X019558Y006821D02*
X019337Y006821D01*
X019413Y006919D02*
X019473Y006919D01*
X019855Y007609D02*
X019955Y007609D01*
X019955Y007707D02*
X019860Y007707D01*
X019860Y007806D02*
X019960Y007806D01*
X019960Y007904D02*
X019860Y007904D01*
X019860Y008003D02*
X019960Y008003D01*
X019960Y008101D02*
X019860Y008101D01*
X019860Y008200D02*
X019960Y008200D01*
X020560Y008200D02*
X020809Y008200D01*
X020892Y008269D02*
X020892Y008269D01*
X020692Y008101D02*
X020560Y008101D01*
X020628Y008047D02*
X020628Y008047D01*
X020628Y008047D01*
X020602Y008003D02*
X020536Y008003D01*
X020545Y007904D02*
X020437Y007904D01*
X020488Y007806D02*
X020339Y007806D01*
X020455Y007748D02*
X020455Y007748D01*
X020448Y007707D02*
X020240Y007707D01*
X020239Y007609D02*
X020430Y007609D01*
X020413Y007510D02*
X020329Y007510D01*
X020385Y007412D02*
X020396Y007412D01*
X020395Y007407D02*
X020395Y007407D01*
X013250Y007412D02*
X012961Y007412D01*
X012909Y007510D02*
X013247Y007510D01*
X013242Y007609D02*
X012901Y007609D01*
X012901Y007707D02*
X013144Y007707D01*
X013045Y007806D02*
X012506Y007806D01*
X012506Y007904D02*
X012406Y007904D01*
X012406Y007834D02*
X012406Y008190D01*
X012141Y008190D01*
X012103Y008180D01*
X012069Y008160D01*
X012041Y008132D01*
X012021Y008098D01*
X012011Y008060D01*
X012011Y007834D01*
X012406Y007834D01*
X012406Y007806D02*
X011675Y007806D01*
X011675Y007904D02*
X012011Y007904D01*
X012011Y008003D02*
X011675Y008003D01*
X011675Y008101D02*
X012023Y008101D01*
X012406Y008101D02*
X012506Y008101D01*
X012506Y008003D02*
X012406Y008003D01*
X012651Y008200D02*
X011633Y008200D01*
X011571Y008298D02*
X012553Y008298D01*
X012454Y008397D02*
X011571Y008397D01*
X011660Y008495D02*
X012356Y008495D01*
X012257Y008594D02*
X011689Y008594D01*
X011689Y008692D02*
X012159Y008692D01*
X012060Y008791D02*
X011689Y008791D01*
X011689Y008889D02*
X011962Y008889D01*
X011863Y008988D02*
X011689Y008988D01*
X011656Y009086D02*
X011765Y009086D01*
X011666Y009185D02*
X011165Y009185D01*
X011165Y009283D02*
X011568Y009283D01*
X011469Y009382D02*
X011165Y009382D01*
X011165Y009480D02*
X011371Y009480D01*
X010905Y009624D02*
X010905Y008981D01*
X010707Y008782D01*
X008994Y008782D01*
X008773Y008961D01*
X009323Y009185D02*
X010645Y009185D01*
X010645Y009088D02*
X010599Y009042D01*
X009367Y009042D01*
X009367Y009079D01*
X009277Y009297D01*
X009151Y009423D01*
X009762Y009423D01*
X009848Y009509D01*
X009848Y009506D01*
X009971Y009383D01*
X010645Y009383D01*
X010645Y009088D01*
X010643Y009086D02*
X009364Y009086D01*
X009283Y009283D02*
X010645Y009283D01*
X010645Y009382D02*
X009192Y009382D01*
X009819Y009480D02*
X009875Y009480D01*
X011675Y007707D02*
X012011Y007707D01*
X012011Y007609D02*
X011675Y007609D01*
X011675Y007510D02*
X012003Y007510D01*
X011951Y007412D02*
X011615Y007412D01*
X011615Y007313D02*
X011951Y007313D01*
X011951Y007215D02*
X011615Y007215D01*
X011615Y007017D02*
X011201Y007017D01*
X011201Y006661D01*
X011485Y006661D01*
X011523Y006671D01*
X011558Y006691D01*
X011586Y006719D01*
X011605Y006753D01*
X011615Y006791D01*
X011615Y007017D01*
X011615Y006919D02*
X011951Y006919D01*
X011951Y006821D02*
X011615Y006821D01*
X011588Y006722D02*
X012001Y006722D01*
X011951Y007018D02*
X011201Y007018D01*
X011201Y007116D02*
X011951Y007116D01*
X011201Y006919D02*
X011101Y006919D01*
X011101Y006821D02*
X011201Y006821D01*
X011201Y006722D02*
X011101Y006722D01*
X012901Y007904D02*
X012947Y007904D01*
X008821Y006328D02*
X004441Y006328D01*
X004407Y006525D02*
X004109Y006525D01*
X004013Y006624D02*
X004258Y006624D01*
X004351Y006546D02*
X004351Y006546D01*
X004255Y006427D02*
X008724Y006427D01*
X008628Y006525D02*
X005289Y006525D01*
X005346Y006546D02*
X005346Y006546D01*
X005439Y006624D02*
X006129Y006624D01*
X006078Y006722D02*
X005556Y006722D01*
X005610Y006768D02*
X005610Y006768D01*
X005641Y006821D02*
X006044Y006821D01*
X005945Y006919D02*
X005698Y006919D01*
X005755Y007018D02*
X005879Y007018D01*
X005861Y007116D02*
X005792Y007116D01*
X005783Y007067D02*
X005783Y007067D01*
X005809Y007215D02*
X005861Y007215D01*
X005861Y007313D02*
X005827Y007313D01*
X005843Y007412D02*
X005861Y007412D01*
X005861Y007510D02*
X005825Y007510D01*
X005808Y007609D02*
X005861Y007609D01*
X005861Y007707D02*
X005790Y007707D01*
X005783Y007748D02*
X005783Y007748D01*
X005750Y007806D02*
X005861Y007806D01*
X005861Y007904D02*
X005693Y007904D01*
X005636Y008003D02*
X005861Y008003D01*
X005861Y008101D02*
X005546Y008101D01*
X005610Y008047D02*
X005610Y008047D01*
X005429Y008200D02*
X005861Y008200D01*
X005861Y008298D02*
X005266Y008298D01*
X005346Y008269D02*
X005346Y008269D01*
X005143Y008505D02*
X005269Y008630D01*
X005337Y008794D01*
X005337Y008972D01*
X005269Y009136D01*
X005143Y009261D01*
X004979Y009329D01*
X004802Y009329D01*
X004638Y009261D01*
X004512Y009136D01*
X004444Y008972D01*
X004444Y008794D01*
X004512Y008630D01*
X004638Y008505D01*
X004802Y008437D01*
X004979Y008437D01*
X005143Y008505D01*
X005120Y008495D02*
X005861Y008495D01*
X005861Y008397D02*
X003683Y008397D01*
X003683Y008298D02*
X004430Y008298D01*
X004268Y008200D02*
X003683Y008200D01*
X003683Y008101D02*
X004150Y008101D01*
X004086Y008047D02*
X004086Y008047D01*
X004086Y008047D01*
X004060Y008003D02*
X003683Y008003D01*
X003683Y007904D02*
X004003Y007904D01*
X003946Y007806D02*
X003683Y007806D01*
X003683Y007707D02*
X003906Y007707D01*
X003904Y007116D02*
X003736Y007116D01*
X003761Y007018D02*
X003942Y007018D01*
X003913Y007067D02*
X003913Y007067D01*
X003998Y006919D02*
X003808Y006919D01*
X003863Y006821D02*
X004055Y006821D01*
X004140Y006722D02*
X003918Y006722D01*
X004136Y008495D02*
X004661Y008495D01*
X004549Y008594D02*
X004248Y008594D01*
X004310Y008692D02*
X004487Y008692D01*
X004446Y008791D02*
X004351Y008791D01*
X004353Y008889D02*
X004444Y008889D01*
X004451Y008988D02*
X004346Y008988D01*
X004305Y009086D02*
X004492Y009086D01*
X004561Y009185D02*
X004236Y009185D01*
X004107Y009283D02*
X004691Y009283D01*
X005091Y009283D02*
X005680Y009283D01*
X005514Y009382D02*
X003683Y009382D01*
X003683Y009480D02*
X005416Y009480D01*
X005367Y009579D02*
X003683Y009579D01*
X003683Y009677D02*
X005326Y009677D01*
X005313Y009776D02*
X003683Y009776D01*
X003683Y009874D02*
X004392Y009874D01*
X004252Y009973D02*
X003683Y009973D01*
X003683Y010071D02*
X004153Y010071D01*
X004055Y010170D02*
X003683Y010170D01*
X003683Y010268D02*
X003956Y010268D01*
X003908Y010367D02*
X003683Y010367D01*
X003683Y010465D02*
X003903Y010465D01*
X003903Y010564D02*
X003683Y010564D01*
X003683Y010662D02*
X003903Y010662D01*
X003903Y010761D02*
X003683Y010761D01*
X003683Y010859D02*
X003903Y010859D01*
X003903Y010958D02*
X003683Y010958D01*
X003683Y011056D02*
X003903Y011056D01*
X003903Y011155D02*
X003683Y011155D01*
X003683Y011253D02*
X003903Y011253D01*
X003930Y011352D02*
X003683Y011352D01*
X003683Y011450D02*
X004009Y011450D01*
X004108Y011549D02*
X003683Y011549D01*
X003683Y011647D02*
X004206Y011647D01*
X004305Y011746D02*
X003683Y011746D01*
X003683Y011844D02*
X004403Y011844D01*
X004502Y011943D02*
X003683Y011943D01*
X003683Y012041D02*
X004600Y012041D01*
X004699Y012140D02*
X003683Y012140D01*
X003683Y012238D02*
X004797Y012238D01*
X004896Y012337D02*
X003683Y012337D01*
X004143Y012435D02*
X004654Y012435D01*
X004546Y012534D02*
X004251Y012534D01*
X004312Y012632D02*
X004486Y012632D01*
X004445Y012731D02*
X004352Y012731D01*
X004353Y012829D02*
X004444Y012829D01*
X004452Y012928D02*
X004345Y012928D01*
X004304Y013026D02*
X004493Y013026D01*
X004564Y013125D02*
X004233Y013125D01*
X004099Y013223D02*
X004698Y013223D01*
X005084Y013223D02*
X005503Y013223D01*
X005503Y013125D02*
X005217Y013125D01*
X005288Y013026D02*
X005503Y013026D01*
X005487Y012928D02*
X005329Y012928D01*
X005337Y012829D02*
X005388Y012829D01*
X005903Y012581D02*
X005903Y012479D01*
X005944Y012380D01*
X005990Y012334D01*
X005943Y012341D01*
X005943Y011873D01*
X005843Y011873D01*
X005843Y011773D01*
X005375Y011773D01*
X005386Y011701D01*
X005411Y011623D01*
X005449Y011550D01*
X005497Y011484D01*
X005555Y011426D01*
X005621Y011378D01*
X005665Y011356D01*
X005565Y011314D01*
X005403Y011152D01*
X005398Y011162D01*
X005343Y011238D01*
X005277Y011304D01*
X005201Y011359D01*
X005118Y011401D01*
X005030Y011430D01*
X004941Y011444D01*
X004941Y010902D01*
X004841Y010902D01*
X004841Y011444D01*
X004753Y011430D01*
X005903Y012581D01*
X005903Y012534D02*
X005856Y012534D01*
X005922Y012435D02*
X005758Y012435D01*
X005772Y012330D02*
X005694Y012305D01*
X005621Y012267D01*
X005555Y012219D01*
X005497Y012161D01*
X005449Y012095D01*
X005411Y012022D01*
X005386Y011944D01*
X005375Y011873D01*
X005843Y011873D01*
X005843Y012341D01*
X005772Y012330D01*
X005815Y012337D02*
X005659Y012337D01*
X005581Y012238D02*
X005561Y012238D01*
X005481Y012140D02*
X005462Y012140D01*
X005421Y012041D02*
X005364Y012041D01*
X005386Y011943D02*
X005265Y011943D01*
X005167Y011844D02*
X005843Y011844D01*
X005843Y011943D02*
X005943Y011943D01*
X005943Y012041D02*
X005843Y012041D01*
X005843Y012140D02*
X005943Y012140D01*
X005943Y012238D02*
X005843Y012238D01*
X005843Y012337D02*
X005943Y012337D01*
X005972Y012337D02*
X005988Y012337D01*
X005379Y011746D02*
X005068Y011746D01*
X004970Y011647D02*
X005404Y011647D01*
X005450Y011549D02*
X004871Y011549D01*
X004773Y011450D02*
X005530Y011450D01*
X005655Y011352D02*
X005211Y011352D01*
X005328Y011253D02*
X005504Y011253D01*
X005405Y011155D02*
X005402Y011155D01*
X004941Y011155D02*
X004841Y011155D01*
X004841Y011253D02*
X004941Y011253D01*
X004941Y011352D02*
X004841Y011352D01*
X004841Y011056D02*
X004941Y011056D01*
X004941Y010958D02*
X004841Y010958D01*
X003706Y009283D02*
X003683Y009283D01*
X005220Y009185D02*
X005861Y009185D01*
X005861Y009086D02*
X005290Y009086D01*
X005330Y008988D02*
X005861Y008988D01*
X005861Y008889D02*
X005337Y008889D01*
X005335Y008791D02*
X005861Y008791D01*
X005861Y008692D02*
X005295Y008692D01*
X005232Y008594D02*
X005861Y008594D01*
X007767Y007412D02*
X007955Y007412D01*
X007951Y007510D02*
X007857Y007510D01*
X007857Y007609D02*
X007951Y007609D01*
X007951Y007313D02*
X007857Y007313D01*
X007857Y007215D02*
X007951Y007215D01*
X007951Y007116D02*
X007857Y007116D01*
X007857Y007018D02*
X007951Y007018D01*
X007951Y006919D02*
X007857Y006919D01*
X007857Y006821D02*
X007951Y006821D01*
X007951Y006722D02*
X007857Y006722D01*
X007806Y006624D02*
X008050Y006624D01*
X008476Y007065D02*
X008657Y007036D01*
X007015Y006624D02*
X006920Y006624D01*
X003714Y013223D02*
X003683Y013223D01*
X006971Y014996D02*
X007082Y014996D01*
X007754Y014996D02*
X008082Y014996D01*
X007984Y014898D02*
X007852Y014898D01*
X017479Y012731D02*
X017785Y012731D01*
X020263Y015390D02*
X021794Y015390D01*
D28*
X020730Y013131D03*
X018173Y012633D03*
X017773Y011283D03*
X018958Y010867D03*
X019496Y010857D03*
X017573Y010333D03*
X016011Y010739D03*
X015669Y011536D03*
X015367Y012126D03*
X014323Y012383D03*
X012873Y012433D03*
X012073Y012433D03*
X011973Y011733D03*
X012473Y011033D03*
X012873Y010533D03*
X013873Y009633D03*
X014473Y009633D03*
X014497Y007903D03*
X011827Y007562D03*
X010462Y006820D03*
X010462Y008395D03*
X011301Y008789D03*
X011299Y009329D03*
X009973Y009183D03*
X009373Y011233D03*
X009073Y011933D03*
X008373Y011233D03*
X010373Y012033D03*
X010877Y014229D03*
X010873Y014833D03*
X015473Y014528D03*
X019844Y009391D03*
X020730Y008604D03*
X018860Y007915D03*
X018328Y007934D03*
X017680Y007933D03*
X018336Y008789D03*
X005661Y008845D03*
X004373Y009333D03*
X004373Y012333D03*
D29*
X004173Y011233D02*
X005773Y012833D01*
X005773Y013233D01*
X006373Y013833D01*
X006373Y014467D01*
X006418Y014512D01*
X006573Y013533D02*
X008247Y013533D01*
X008373Y013407D01*
X007573Y012233D02*
X006986Y012820D01*
X006859Y012820D01*
X006173Y012533D02*
X006173Y013133D01*
X006573Y013533D01*
X006173Y012533D02*
X006859Y011847D01*
X006859Y011836D01*
X007273Y011422D01*
X007273Y010233D01*
X006908Y009867D01*
X006859Y009867D01*
X007573Y009533D02*
X007573Y010633D01*
X008347Y010633D01*
X008373Y010607D01*
X007573Y010633D02*
X007573Y012233D01*
X009380Y011326D02*
X009373Y011233D01*
X008373Y009859D02*
X008373Y009361D01*
X008773Y008961D01*
X009285Y008296D02*
X009762Y007819D01*
X009285Y008296D02*
X007214Y008296D01*
X006525Y007903D01*
X006525Y007824D01*
X007410Y007824D02*
X007638Y007933D01*
X008543Y007933D01*
X008476Y007813D01*
X008476Y007065D02*
X009006Y006525D01*
X010166Y006525D01*
X010462Y006820D01*
X009925Y007071D02*
X010462Y007607D01*
X010462Y008395D01*
X011151Y007815D02*
X011301Y008015D01*
X011301Y008789D01*
X011273Y007933D02*
X011155Y007815D01*
X011151Y007815D01*
X009925Y007071D02*
X009762Y007071D01*
X009728Y007071D01*
X007410Y006997D02*
X006525Y006997D01*
X006509Y007097D01*
X006346Y006900D01*
X006131Y007115D01*
X006131Y009585D01*
X005893Y009823D01*
X005883Y009823D01*
X005573Y010133D01*
X004473Y010133D01*
X004173Y010433D01*
X004173Y011233D01*
X006859Y008883D02*
X006924Y008883D01*
X007573Y009533D01*
X012456Y007115D02*
X012495Y007055D01*
X013772Y007065D02*
X014204Y006623D01*
X015284Y006623D01*
X015870Y007209D01*
X015905Y007209D01*
X014773Y013398D02*
X014808Y013433D01*
X014943Y013668D01*
X015558Y013668D01*
X015952Y014061D01*
X015952Y015061D02*
X015361Y015061D01*
X014943Y014668D01*
X014929Y014643D01*
X014808Y014433D01*
D30*
X012039Y013433D02*
X011799Y014441D01*
X011797Y014439D01*
X011997Y013556D01*
X011773Y014433D01*
X011772Y014441D02*
X011799Y014441D01*
X011772Y014441D02*
X011623Y014279D01*
X010877Y014229D01*
X011577Y014229D02*
X011623Y014279D01*
X012039Y013433D02*
X011438Y012484D01*
X011232Y012484D01*
M02*
