G75*
G70*
%OFA0B0*%
%FSLAX24Y24*%
%IPPOS*%
%LPD*%
%AMOC8*
5,1,8,0,0,1.08239X$1,22.5*
%
%ADD10C,0.0000*%
%ADD11C,0.0926*%
%ADD12C,0.0512*%
%ADD13OC8,0.0780*%
%ADD14C,0.0808*%
%ADD15C,0.0520*%
%ADD16R,0.0780X0.0780*%
%ADD17C,0.0780*%
%ADD18C,0.0631*%
%ADD19C,0.1340*%
%ADD20OC8,0.1040*%
%ADD21R,0.0396X0.0396*%
D10*
X002657Y001292D02*
X002660Y001292D01*
X019195Y001292D01*
X019198Y001292D01*
X018548Y002667D02*
X018550Y002717D01*
X018556Y002767D01*
X018566Y002817D01*
X018579Y002865D01*
X018596Y002913D01*
X018617Y002959D01*
X018641Y003003D01*
X018669Y003045D01*
X018700Y003085D01*
X018734Y003122D01*
X018771Y003157D01*
X018810Y003188D01*
X018851Y003217D01*
X018895Y003242D01*
X018941Y003264D01*
X018988Y003282D01*
X019036Y003296D01*
X019085Y003307D01*
X019135Y003314D01*
X019185Y003317D01*
X019236Y003316D01*
X019286Y003311D01*
X019336Y003302D01*
X019384Y003290D01*
X019432Y003273D01*
X019478Y003253D01*
X019523Y003230D01*
X019566Y003203D01*
X019606Y003173D01*
X019644Y003140D01*
X019679Y003104D01*
X019712Y003065D01*
X019741Y003024D01*
X019767Y002981D01*
X019790Y002936D01*
X019809Y002889D01*
X019824Y002841D01*
X019836Y002792D01*
X019844Y002742D01*
X019848Y002692D01*
X019848Y002642D01*
X019844Y002592D01*
X019836Y002542D01*
X019824Y002493D01*
X019809Y002445D01*
X019790Y002398D01*
X019767Y002353D01*
X019741Y002310D01*
X019712Y002269D01*
X019679Y002230D01*
X019644Y002194D01*
X019606Y002161D01*
X019566Y002131D01*
X019523Y002104D01*
X019478Y002081D01*
X019432Y002061D01*
X019384Y002044D01*
X019336Y002032D01*
X019286Y002023D01*
X019236Y002018D01*
X019185Y002017D01*
X019135Y002020D01*
X019085Y002027D01*
X019036Y002038D01*
X018988Y002052D01*
X018941Y002070D01*
X018895Y002092D01*
X018851Y002117D01*
X018810Y002146D01*
X018771Y002177D01*
X018734Y002212D01*
X018700Y002249D01*
X018669Y002289D01*
X018641Y002331D01*
X018617Y002375D01*
X018596Y002421D01*
X018579Y002469D01*
X018566Y002517D01*
X018556Y002567D01*
X018550Y002617D01*
X018548Y002667D01*
X019195Y001292D02*
X019267Y001294D01*
X019339Y001300D01*
X019411Y001309D01*
X019482Y001322D01*
X019552Y001339D01*
X019621Y001359D01*
X019689Y001384D01*
X019755Y001411D01*
X019821Y001442D01*
X019884Y001477D01*
X019946Y001514D01*
X020005Y001555D01*
X020062Y001599D01*
X020117Y001646D01*
X020169Y001696D01*
X020219Y001748D01*
X020266Y001803D01*
X020310Y001860D01*
X020351Y001919D01*
X020388Y001981D01*
X020423Y002044D01*
X020454Y002110D01*
X020481Y002176D01*
X020506Y002244D01*
X020526Y002313D01*
X020543Y002383D01*
X020556Y002454D01*
X020565Y002526D01*
X020571Y002598D01*
X020573Y002670D01*
X020573Y009560D01*
X018545Y009560D02*
X018547Y009610D01*
X018553Y009660D01*
X018563Y009710D01*
X018576Y009758D01*
X018593Y009806D01*
X018614Y009852D01*
X018638Y009896D01*
X018666Y009938D01*
X018697Y009978D01*
X018731Y010015D01*
X018768Y010050D01*
X018807Y010081D01*
X018848Y010110D01*
X018892Y010135D01*
X018938Y010157D01*
X018985Y010175D01*
X019033Y010189D01*
X019082Y010200D01*
X019132Y010207D01*
X019182Y010210D01*
X019233Y010209D01*
X019283Y010204D01*
X019333Y010195D01*
X019381Y010183D01*
X019429Y010166D01*
X019475Y010146D01*
X019520Y010123D01*
X019563Y010096D01*
X019603Y010066D01*
X019641Y010033D01*
X019676Y009997D01*
X019709Y009958D01*
X019738Y009917D01*
X019764Y009874D01*
X019787Y009829D01*
X019806Y009782D01*
X019821Y009734D01*
X019833Y009685D01*
X019841Y009635D01*
X019845Y009585D01*
X019845Y009535D01*
X019841Y009485D01*
X019833Y009435D01*
X019821Y009386D01*
X019806Y009338D01*
X019787Y009291D01*
X019764Y009246D01*
X019738Y009203D01*
X019709Y009162D01*
X019676Y009123D01*
X019641Y009087D01*
X019603Y009054D01*
X019563Y009024D01*
X019520Y008997D01*
X019475Y008974D01*
X019429Y008954D01*
X019381Y008937D01*
X019333Y008925D01*
X019283Y008916D01*
X019233Y008911D01*
X019182Y008910D01*
X019132Y008913D01*
X019082Y008920D01*
X019033Y008931D01*
X018985Y008945D01*
X018938Y008963D01*
X018892Y008985D01*
X018848Y009010D01*
X018807Y009039D01*
X018768Y009070D01*
X018731Y009105D01*
X018697Y009142D01*
X018666Y009182D01*
X018638Y009224D01*
X018614Y009268D01*
X018593Y009314D01*
X018576Y009362D01*
X018563Y009410D01*
X018553Y009460D01*
X018547Y009510D01*
X018545Y009560D01*
X019195Y010938D02*
X019267Y010936D01*
X019339Y010930D01*
X019411Y010921D01*
X019482Y010908D01*
X019552Y010891D01*
X019621Y010871D01*
X019689Y010846D01*
X019755Y010819D01*
X019821Y010788D01*
X019884Y010753D01*
X019946Y010716D01*
X020005Y010675D01*
X020062Y010631D01*
X020117Y010584D01*
X020169Y010534D01*
X020219Y010482D01*
X020266Y010427D01*
X020310Y010370D01*
X020351Y010311D01*
X020388Y010249D01*
X020423Y010186D01*
X020454Y010120D01*
X020481Y010054D01*
X020506Y009986D01*
X020526Y009917D01*
X020543Y009847D01*
X020556Y009776D01*
X020565Y009704D01*
X020571Y009632D01*
X020573Y009560D01*
X019195Y010938D02*
X002660Y010938D01*
X002007Y009563D02*
X002009Y009613D01*
X002015Y009663D01*
X002025Y009713D01*
X002038Y009761D01*
X002055Y009809D01*
X002076Y009855D01*
X002100Y009899D01*
X002128Y009941D01*
X002159Y009981D01*
X002193Y010018D01*
X002230Y010053D01*
X002269Y010084D01*
X002310Y010113D01*
X002354Y010138D01*
X002400Y010160D01*
X002447Y010178D01*
X002495Y010192D01*
X002544Y010203D01*
X002594Y010210D01*
X002644Y010213D01*
X002695Y010212D01*
X002745Y010207D01*
X002795Y010198D01*
X002843Y010186D01*
X002891Y010169D01*
X002937Y010149D01*
X002982Y010126D01*
X003025Y010099D01*
X003065Y010069D01*
X003103Y010036D01*
X003138Y010000D01*
X003171Y009961D01*
X003200Y009920D01*
X003226Y009877D01*
X003249Y009832D01*
X003268Y009785D01*
X003283Y009737D01*
X003295Y009688D01*
X003303Y009638D01*
X003307Y009588D01*
X003307Y009538D01*
X003303Y009488D01*
X003295Y009438D01*
X003283Y009389D01*
X003268Y009341D01*
X003249Y009294D01*
X003226Y009249D01*
X003200Y009206D01*
X003171Y009165D01*
X003138Y009126D01*
X003103Y009090D01*
X003065Y009057D01*
X003025Y009027D01*
X002982Y009000D01*
X002937Y008977D01*
X002891Y008957D01*
X002843Y008940D01*
X002795Y008928D01*
X002745Y008919D01*
X002695Y008914D01*
X002644Y008913D01*
X002594Y008916D01*
X002544Y008923D01*
X002495Y008934D01*
X002447Y008948D01*
X002400Y008966D01*
X002354Y008988D01*
X002310Y009013D01*
X002269Y009042D01*
X002230Y009073D01*
X002193Y009108D01*
X002159Y009145D01*
X002128Y009185D01*
X002100Y009227D01*
X002076Y009271D01*
X002055Y009317D01*
X002038Y009365D01*
X002025Y009413D01*
X002015Y009463D01*
X002009Y009513D01*
X002007Y009563D01*
X001282Y009560D02*
X001284Y009632D01*
X001290Y009704D01*
X001299Y009776D01*
X001312Y009847D01*
X001329Y009917D01*
X001349Y009986D01*
X001374Y010054D01*
X001401Y010120D01*
X001432Y010186D01*
X001467Y010249D01*
X001504Y010311D01*
X001545Y010370D01*
X001589Y010427D01*
X001636Y010482D01*
X001686Y010534D01*
X001738Y010584D01*
X001793Y010631D01*
X001850Y010675D01*
X001909Y010716D01*
X001971Y010753D01*
X002034Y010788D01*
X002100Y010819D01*
X002166Y010846D01*
X002234Y010871D01*
X002303Y010891D01*
X002373Y010908D01*
X002444Y010921D01*
X002516Y010930D01*
X002588Y010936D01*
X002660Y010938D01*
X001282Y009563D02*
X001282Y009560D01*
X001282Y002710D01*
X001282Y002667D01*
X002007Y002667D02*
X002009Y002717D01*
X002015Y002767D01*
X002025Y002817D01*
X002038Y002865D01*
X002055Y002913D01*
X002076Y002959D01*
X002100Y003003D01*
X002128Y003045D01*
X002159Y003085D01*
X002193Y003122D01*
X002230Y003157D01*
X002269Y003188D01*
X002310Y003217D01*
X002354Y003242D01*
X002400Y003264D01*
X002447Y003282D01*
X002495Y003296D01*
X002544Y003307D01*
X002594Y003314D01*
X002644Y003317D01*
X002695Y003316D01*
X002745Y003311D01*
X002795Y003302D01*
X002843Y003290D01*
X002891Y003273D01*
X002937Y003253D01*
X002982Y003230D01*
X003025Y003203D01*
X003065Y003173D01*
X003103Y003140D01*
X003138Y003104D01*
X003171Y003065D01*
X003200Y003024D01*
X003226Y002981D01*
X003249Y002936D01*
X003268Y002889D01*
X003283Y002841D01*
X003295Y002792D01*
X003303Y002742D01*
X003307Y002692D01*
X003307Y002642D01*
X003303Y002592D01*
X003295Y002542D01*
X003283Y002493D01*
X003268Y002445D01*
X003249Y002398D01*
X003226Y002353D01*
X003200Y002310D01*
X003171Y002269D01*
X003138Y002230D01*
X003103Y002194D01*
X003065Y002161D01*
X003025Y002131D01*
X002982Y002104D01*
X002937Y002081D01*
X002891Y002061D01*
X002843Y002044D01*
X002795Y002032D01*
X002745Y002023D01*
X002695Y002018D01*
X002644Y002017D01*
X002594Y002020D01*
X002544Y002027D01*
X002495Y002038D01*
X002447Y002052D01*
X002400Y002070D01*
X002354Y002092D01*
X002310Y002117D01*
X002269Y002146D01*
X002230Y002177D01*
X002193Y002212D01*
X002159Y002249D01*
X002128Y002289D01*
X002100Y002331D01*
X002076Y002375D01*
X002055Y002421D01*
X002038Y002469D01*
X002025Y002517D01*
X002015Y002567D01*
X002009Y002617D01*
X002007Y002667D01*
X001281Y002710D02*
X001282Y002637D01*
X001287Y002563D01*
X001295Y002491D01*
X001308Y002419D01*
X001324Y002347D01*
X001343Y002277D01*
X001367Y002207D01*
X001394Y002139D01*
X001425Y002073D01*
X001459Y002008D01*
X001496Y001945D01*
X001537Y001884D01*
X001580Y001826D01*
X001627Y001769D01*
X001677Y001715D01*
X001729Y001664D01*
X001784Y001616D01*
X001841Y001571D01*
X001901Y001528D01*
X001963Y001489D01*
X002027Y001453D01*
X002092Y001421D01*
X002160Y001392D01*
X002228Y001367D01*
X002298Y001345D01*
X002369Y001327D01*
X002441Y001312D01*
X002513Y001302D01*
X002586Y001295D01*
X002659Y001292D01*
X002463Y004143D02*
X002465Y004173D01*
X002471Y004203D01*
X002480Y004232D01*
X002493Y004259D01*
X002510Y004284D01*
X002529Y004307D01*
X002552Y004328D01*
X002577Y004345D01*
X002603Y004359D01*
X002632Y004369D01*
X002661Y004376D01*
X002691Y004379D01*
X002722Y004378D01*
X002752Y004373D01*
X002781Y004364D01*
X002808Y004352D01*
X002834Y004337D01*
X002858Y004318D01*
X002879Y004296D01*
X002897Y004272D01*
X002912Y004245D01*
X002923Y004217D01*
X002931Y004188D01*
X002935Y004158D01*
X002935Y004128D01*
X002931Y004098D01*
X002923Y004069D01*
X002912Y004041D01*
X002897Y004014D01*
X002879Y003990D01*
X002858Y003968D01*
X002834Y003949D01*
X002808Y003934D01*
X002781Y003922D01*
X002752Y003913D01*
X002722Y003908D01*
X002691Y003907D01*
X002661Y003910D01*
X002632Y003917D01*
X002603Y003927D01*
X002577Y003941D01*
X002552Y003958D01*
X002529Y003979D01*
X002510Y004002D01*
X002493Y004027D01*
X002480Y004054D01*
X002471Y004083D01*
X002465Y004113D01*
X002463Y004143D01*
X001479Y004143D02*
X001481Y004173D01*
X001487Y004203D01*
X001496Y004232D01*
X001509Y004259D01*
X001526Y004284D01*
X001545Y004307D01*
X001568Y004328D01*
X001593Y004345D01*
X001619Y004359D01*
X001648Y004369D01*
X001677Y004376D01*
X001707Y004379D01*
X001738Y004378D01*
X001768Y004373D01*
X001797Y004364D01*
X001824Y004352D01*
X001850Y004337D01*
X001874Y004318D01*
X001895Y004296D01*
X001913Y004272D01*
X001928Y004245D01*
X001939Y004217D01*
X001947Y004188D01*
X001951Y004158D01*
X001951Y004128D01*
X001947Y004098D01*
X001939Y004069D01*
X001928Y004041D01*
X001913Y004014D01*
X001895Y003990D01*
X001874Y003968D01*
X001850Y003949D01*
X001824Y003934D01*
X001797Y003922D01*
X001768Y003913D01*
X001738Y003908D01*
X001707Y003907D01*
X001677Y003910D01*
X001648Y003917D01*
X001619Y003927D01*
X001593Y003941D01*
X001568Y003958D01*
X001545Y003979D01*
X001526Y004002D01*
X001509Y004027D01*
X001496Y004054D01*
X001487Y004083D01*
X001481Y004113D01*
X001479Y004143D01*
X004432Y006111D02*
X004434Y006141D01*
X004440Y006171D01*
X004449Y006200D01*
X004462Y006227D01*
X004479Y006252D01*
X004498Y006275D01*
X004521Y006296D01*
X004546Y006313D01*
X004572Y006327D01*
X004601Y006337D01*
X004630Y006344D01*
X004660Y006347D01*
X004691Y006346D01*
X004721Y006341D01*
X004750Y006332D01*
X004777Y006320D01*
X004803Y006305D01*
X004827Y006286D01*
X004848Y006264D01*
X004866Y006240D01*
X004881Y006213D01*
X004892Y006185D01*
X004900Y006156D01*
X004904Y006126D01*
X004904Y006096D01*
X004900Y006066D01*
X004892Y006037D01*
X004881Y006009D01*
X004866Y005982D01*
X004848Y005958D01*
X004827Y005936D01*
X004803Y005917D01*
X004777Y005902D01*
X004750Y005890D01*
X004721Y005881D01*
X004691Y005876D01*
X004660Y005875D01*
X004630Y005878D01*
X004601Y005885D01*
X004572Y005895D01*
X004546Y005909D01*
X004521Y005926D01*
X004498Y005947D01*
X004479Y005970D01*
X004462Y005995D01*
X004449Y006022D01*
X004440Y006051D01*
X004434Y006081D01*
X004432Y006111D01*
X002463Y008080D02*
X002465Y008110D01*
X002471Y008140D01*
X002480Y008169D01*
X002493Y008196D01*
X002510Y008221D01*
X002529Y008244D01*
X002552Y008265D01*
X002577Y008282D01*
X002603Y008296D01*
X002632Y008306D01*
X002661Y008313D01*
X002691Y008316D01*
X002722Y008315D01*
X002752Y008310D01*
X002781Y008301D01*
X002808Y008289D01*
X002834Y008274D01*
X002858Y008255D01*
X002879Y008233D01*
X002897Y008209D01*
X002912Y008182D01*
X002923Y008154D01*
X002931Y008125D01*
X002935Y008095D01*
X002935Y008065D01*
X002931Y008035D01*
X002923Y008006D01*
X002912Y007978D01*
X002897Y007951D01*
X002879Y007927D01*
X002858Y007905D01*
X002834Y007886D01*
X002808Y007871D01*
X002781Y007859D01*
X002752Y007850D01*
X002722Y007845D01*
X002691Y007844D01*
X002661Y007847D01*
X002632Y007854D01*
X002603Y007864D01*
X002577Y007878D01*
X002552Y007895D01*
X002529Y007916D01*
X002510Y007939D01*
X002493Y007964D01*
X002480Y007991D01*
X002471Y008020D01*
X002465Y008050D01*
X002463Y008080D01*
X001479Y008080D02*
X001481Y008110D01*
X001487Y008140D01*
X001496Y008169D01*
X001509Y008196D01*
X001526Y008221D01*
X001545Y008244D01*
X001568Y008265D01*
X001593Y008282D01*
X001619Y008296D01*
X001648Y008306D01*
X001677Y008313D01*
X001707Y008316D01*
X001738Y008315D01*
X001768Y008310D01*
X001797Y008301D01*
X001824Y008289D01*
X001850Y008274D01*
X001874Y008255D01*
X001895Y008233D01*
X001913Y008209D01*
X001928Y008182D01*
X001939Y008154D01*
X001947Y008125D01*
X001951Y008095D01*
X001951Y008065D01*
X001947Y008035D01*
X001939Y008006D01*
X001928Y007978D01*
X001913Y007951D01*
X001895Y007927D01*
X001874Y007905D01*
X001850Y007886D01*
X001824Y007871D01*
X001797Y007859D01*
X001768Y007850D01*
X001738Y007845D01*
X001707Y007844D01*
X001677Y007847D01*
X001648Y007854D01*
X001619Y007864D01*
X001593Y007878D01*
X001568Y007895D01*
X001545Y007916D01*
X001526Y007939D01*
X001509Y007964D01*
X001496Y007991D01*
X001487Y008020D01*
X001481Y008050D01*
X001479Y008080D01*
D11*
X004668Y008080D03*
X004668Y007095D03*
X002699Y006111D03*
X004668Y005127D03*
X004668Y004143D03*
D12*
X002699Y004143D03*
X001715Y004143D03*
X004668Y006111D03*
X002699Y008080D03*
X001715Y008080D03*
D13*
X018396Y007608D03*
X019396Y007608D03*
X019396Y006608D03*
X018396Y006608D03*
X018396Y005608D03*
X019396Y005608D03*
X019396Y004608D03*
X018396Y004608D03*
D14*
X013401Y008158D03*
X006582Y004221D03*
D15*
X013760Y009321D03*
X013760Y010321D03*
D16*
X004226Y009771D03*
D17*
X005226Y009771D03*
X006226Y009771D03*
X007226Y009771D03*
X003702Y007082D03*
X003702Y006082D03*
X003702Y005082D03*
X012713Y002468D03*
X013713Y002468D03*
X014713Y002468D03*
X015713Y002468D03*
X016713Y002468D03*
X017713Y002468D03*
D18*
X016768Y004417D02*
X016768Y005008D01*
X014996Y005008D02*
X014996Y004417D01*
X014996Y006976D02*
X014996Y007567D01*
X016768Y007567D02*
X016768Y006976D01*
D19*
X019195Y009560D03*
X019198Y002667D03*
X002657Y002667D03*
X002657Y009563D03*
D20*
X017719Y008674D03*
X017719Y003556D03*
D21*
X018538Y003863D03*
X017652Y004650D03*
X016144Y004048D03*
X016136Y003194D03*
X016668Y003174D03*
X015488Y003192D03*
X012305Y003162D03*
X009636Y002821D03*
X008270Y002080D03*
X008270Y003654D03*
X009109Y004048D03*
X009107Y004589D03*
X007782Y004442D03*
X010682Y005792D03*
X010282Y006292D03*
X009782Y006992D03*
X009882Y007692D03*
X010682Y007692D03*
X012132Y007642D03*
X013175Y007386D03*
X013477Y006795D03*
X013819Y005998D03*
X015382Y005592D03*
X016766Y006127D03*
X017304Y006116D03*
X015582Y006542D03*
X015982Y007892D03*
X018538Y008391D03*
X013282Y009787D03*
X010682Y010342D03*
X008685Y009489D03*
X008182Y007292D03*
X006882Y006892D03*
X007732Y006492D03*
X005982Y006492D03*
X002182Y007592D03*
X002182Y004592D03*
X003469Y004105D03*
X011682Y004892D03*
X012282Y004892D03*
M02*
