%
M48
M72
T01C0.0236
T02C0.0320
T03C0.0394
T04C0.0400
T05C0.0472
T06C0.0512
T07C0.0591
T08C0.1300
%
T01
X3469Y4105
X2182Y4592
X5982Y6492
X6882Y6892
X7732Y6492
X8182Y7292
X9782Y6992
X10282Y6292
X10682Y5792
X11682Y4892
X12282Y4892
X13819Y5998
X13477Y6795
X13175Y7386
X12132Y7642
X10682Y7692
X9882Y7692
X8685Y9489
X10682Y10342
X13282Y9787
X15982Y7892
X15582Y6542
X16766Y6127
X17304Y6116
X15382Y5592
X17652Y4650
X18538Y3863
X16668Y3174
X16136Y3194
X15488Y3192
X16144Y4048
X12305Y3162
X9636Y2821
X8270Y2080
X8270Y3654
X9109Y4048
X9107Y4589
X7782Y4442
X2182Y7592
X18538Y8391
T02
X13760Y9321
X13760Y10321
T03
X14996Y7272
X16768Y7272
X16768Y4713
X14996Y4713
T04
X17719Y3556
X17713Y2468
X16713Y2468
X15713Y2468
X14713Y2468
X13713Y2468
X12713Y2468
X18396Y4608
X19396Y4608
X19396Y5608
X18396Y5608
X18396Y6608
X19396Y6608
X19396Y7608
X18396Y7608
X17719Y8674
X7226Y9771
X6226Y9771
X5226Y9771
X4226Y9771
X3702Y7082
X3702Y6082
X3702Y5082
T05
X2699Y4143
X1715Y4143
X4668Y6111
X2699Y8080
X1715Y8080
T06
X6582Y4221
X13401Y8158
T07
X4668Y8080
X4668Y7095
X2699Y6111
X4668Y5127
X4668Y4143
T08
X2657Y2667
X2657Y9563
X19195Y9560
X19198Y2667
M30
