%
M48
M72
T01C0.0236
T02C0.0320
T03C0.0394
T04C0.0400
T05C0.0472
T06C0.0512
T07C0.0591
T08C0.1300
%
T01
X10462Y6820
X11827Y7562
X10462Y8395
X11301Y8789
X11299Y9329
X9973Y9183
X12473Y11033
X12873Y10533
X13873Y9633
X14473Y9633
X16011Y10739
X15669Y11536
X15367Y12126
X14323Y12383
X12873Y12433
X12073Y12433
X11973Y11733
X10373Y12033
X9373Y11233
X9073Y11933
X8373Y11233
X5661Y8845
X4373Y9333
X4373Y12333
X10877Y14229
X10873Y14833
X15473Y14528
X18173Y12633
X17773Y11283
X18958Y10867
X19496Y10857
X17573Y10333
X19844Y9391
X20730Y8604
X18860Y7915
X18328Y7934
X17680Y7933
X18336Y8789
X14497Y7903
X20730Y13131
T02
X15952Y14061
X15952Y15061
T03
X17188Y12012
X18959Y12012
X18959Y9453
X17188Y9453
T04
X19910Y8296
X19905Y7209
X18905Y7209
X17905Y7209
X16905Y7209
X15905Y7209
X14905Y7209
X20588Y9349
X21588Y9349
X21588Y10349
X20588Y10349
X20588Y11349
X21588Y11349
X21588Y12349
X20588Y12349
X19910Y13415
X9418Y14512
X8418Y14512
X7418Y14512
X6418Y14512
X5893Y11823
X5893Y10823
X5893Y9823
T05
X4891Y8883
X3906Y8883
X6859Y10852
X4891Y12820
X3906Y12820
T06
X8773Y8961
X15592Y12898
T07
X6859Y12820
X6859Y11836
X4891Y10852
X6859Y9867
X6859Y8883
T08
X4848Y7407
X4848Y14304
X21387Y14300
X21390Y7407
M30
