G75*
G70*
%OFA0B0*%
%FSLAX24Y24*%
%IPPOS*%
%LPD*%
%AMOC8*
5,1,8,0,0,1.08239X$1,22.5*
%
%ADD10C,0.0050*%
%ADD11C,0.0000*%
%ADD12C,0.0060*%
%ADD13C,0.0080*%
%ADD14C,0.0051*%
%ADD15C,0.0110*%
%ADD16R,0.0110X0.0005*%
%ADD17R,0.0210X0.0005*%
%ADD18R,0.0280X0.0005*%
%ADD19R,0.0325X0.0005*%
%ADD20R,0.0365X0.0005*%
%ADD21R,0.0410X0.0005*%
%ADD22R,0.0440X0.0005*%
%ADD23R,0.0470X0.0005*%
%ADD24R,0.0505X0.0005*%
%ADD25R,0.0530X0.0005*%
%ADD26R,0.0555X0.0005*%
%ADD27R,0.0580X0.0005*%
%ADD28R,0.0600X0.0005*%
%ADD29R,0.0625X0.0005*%
%ADD30R,0.0645X0.0005*%
%ADD31R,0.0665X0.0005*%
%ADD32R,0.0685X0.0005*%
%ADD33R,0.0705X0.0005*%
%ADD34R,0.0715X0.0005*%
%ADD35R,0.0735X0.0005*%
%ADD36R,0.0755X0.0005*%
%ADD37R,0.0090X0.0005*%
%ADD38R,0.0770X0.0005*%
%ADD39R,0.0190X0.0005*%
%ADD40R,0.0355X0.0005*%
%ADD41R,0.0360X0.0005*%
%ADD42R,0.0260X0.0005*%
%ADD43R,0.0315X0.0005*%
%ADD44R,0.0320X0.0005*%
%ADD45R,0.0295X0.0005*%
%ADD46R,0.0275X0.0005*%
%ADD47R,0.0400X0.0005*%
%ADD48R,0.0265X0.0005*%
%ADD49R,0.0435X0.0005*%
%ADD50R,0.0255X0.0005*%
%ADD51R,0.0465X0.0005*%
%ADD52R,0.0245X0.0005*%
%ADD53R,0.0495X0.0005*%
%ADD54R,0.0235X0.0005*%
%ADD55R,0.0525X0.0005*%
%ADD56R,0.0230X0.0005*%
%ADD57R,0.0240X0.0005*%
%ADD58R,0.0545X0.0005*%
%ADD59R,0.0820X0.0005*%
%ADD60R,0.0220X0.0005*%
%ADD61R,0.0025X0.0005*%
%ADD62R,0.0795X0.0005*%
%ADD63R,0.0215X0.0005*%
%ADD64R,0.0035X0.0005*%
%ADD65R,0.0040X0.0005*%
%ADD66R,0.0800X0.0005*%
%ADD67R,0.0205X0.0005*%
%ADD68R,0.0050X0.0005*%
%ADD69R,0.0805X0.0005*%
%ADD70R,0.0165X0.0005*%
%ADD71R,0.0055X0.0005*%
%ADD72R,0.0200X0.0005*%
%ADD73R,0.0060X0.0005*%
%ADD74R,0.0300X0.0005*%
%ADD75R,0.0195X0.0005*%
%ADD76R,0.0065X0.0005*%
%ADD77R,0.0345X0.0005*%
%ADD78R,0.0070X0.0005*%
%ADD79R,0.0385X0.0005*%
%ADD80R,0.0080X0.0005*%
%ADD81R,0.0425X0.0005*%
%ADD82R,0.0185X0.0005*%
%ADD83R,0.0085X0.0005*%
%ADD84R,0.0635X0.0005*%
%ADD85R,0.0810X0.0005*%
%ADD86R,0.0095X0.0005*%
%ADD87R,0.0335X0.0005*%
%ADD88R,0.0655X0.0005*%
%ADD89R,0.0105X0.0005*%
%ADD90R,0.0290X0.0005*%
%ADD91R,0.0660X0.0005*%
%ADD92R,0.0115X0.0005*%
%ADD93R,0.0285X0.0005*%
%ADD94R,0.0120X0.0005*%
%ADD95R,0.0270X0.0005*%
%ADD96R,0.0675X0.0005*%
%ADD97R,0.0130X0.0005*%
%ADD98R,0.0680X0.0005*%
%ADD99R,0.0135X0.0005*%
%ADD100R,0.0250X0.0005*%
%ADD101R,0.0140X0.0005*%
%ADD102R,0.0180X0.0005*%
%ADD103R,0.0695X0.0005*%
%ADD104R,0.0150X0.0005*%
%ADD105R,0.0160X0.0005*%
%ADD106R,0.0155X0.0005*%
%ADD107R,0.0145X0.0005*%
%ADD108R,0.0700X0.0005*%
%ADD109R,0.0225X0.0005*%
%ADD110R,0.0170X0.0005*%
%ADD111R,0.0100X0.0005*%
%ADD112R,0.0075X0.0005*%
%ADD113R,0.0720X0.0005*%
%ADD114R,0.0725X0.0005*%
%ADD115R,0.0340X0.0005*%
%ADD116R,0.0305X0.0005*%
%ADD117R,0.0175X0.0005*%
%ADD118R,0.0005X0.0005*%
%ADD119R,0.0010X0.0005*%
%ADD120R,0.0015X0.0005*%
%ADD121R,0.0020X0.0005*%
%ADD122R,0.0030X0.0005*%
%ADD123R,0.0125X0.0005*%
%ADD124R,0.0045X0.0005*%
%ADD125R,0.0370X0.0005*%
%ADD126R,0.0375X0.0005*%
%ADD127R,0.0350X0.0005*%
%ADD128R,0.0330X0.0005*%
%ADD129R,0.0485X0.0005*%
%ADD130R,0.0480X0.0005*%
%ADD131R,0.0460X0.0005*%
%ADD132R,0.0445X0.0005*%
%ADD133R,0.0310X0.0005*%
%ADD134R,0.0380X0.0005*%
%ADD135R,0.0415X0.0005*%
%ADD136R,0.0450X0.0005*%
%ADD137R,0.0490X0.0005*%
%ADD138R,0.0965X0.0005*%
%ADD139R,0.0975X0.0005*%
%ADD140R,0.0980X0.0005*%
%ADD141R,0.0990X0.0005*%
%ADD142R,0.1005X0.0005*%
%ADD143R,0.0615X0.0005*%
%ADD144R,0.0640X0.0005*%
%ADD145R,0.0605X0.0005*%
%ADD146R,0.0620X0.0005*%
%ADD147R,0.0590X0.0005*%
%ADD148R,0.0570X0.0005*%
%ADD149R,0.0540X0.0005*%
%ADD150R,0.0515X0.0005*%
%ADD151R,0.0565X0.0005*%
%ADD152R,0.0535X0.0005*%
%ADD153R,0.0395X0.0005*%
%ADD154R,0.0520X0.0005*%
%ADD155R,0.0500X0.0005*%
%ADD156R,0.0430X0.0005*%
%ADD157C,0.0059*%
D10*
X005976Y006749D02*
X006067Y006749D01*
X006112Y006794D01*
X005931Y006974D01*
X005931Y006794D01*
X005976Y006749D01*
X006112Y006794D02*
X006112Y006974D01*
X006067Y007019D01*
X005976Y007019D01*
X005931Y006974D01*
X006214Y006794D02*
X006214Y006749D01*
X006259Y006749D01*
X006259Y006794D01*
X006214Y006794D01*
X006373Y006794D02*
X006418Y006749D01*
X006509Y006749D01*
X006554Y006794D01*
X006464Y006884D02*
X006418Y006884D01*
X006373Y006839D01*
X006373Y006794D01*
X006418Y006884D02*
X006373Y006929D01*
X006373Y006974D01*
X006418Y007019D01*
X006509Y007019D01*
X006554Y006974D01*
X006963Y006929D02*
X006963Y006749D01*
X006963Y006884D02*
X007143Y006884D01*
X007143Y006929D02*
X007143Y006749D01*
X007257Y006794D02*
X007302Y006749D01*
X007393Y006749D01*
X007438Y006794D01*
X007393Y006884D02*
X007302Y006884D01*
X007257Y006839D01*
X007257Y006794D01*
X007393Y006884D02*
X007438Y006929D01*
X007438Y006974D01*
X007393Y007019D01*
X007302Y007019D01*
X007257Y006974D01*
X007143Y006929D02*
X007053Y007019D01*
X006963Y006929D01*
X007552Y006884D02*
X007732Y006884D01*
X007847Y006974D02*
X007847Y007019D01*
X007847Y006974D02*
X007937Y006884D01*
X007937Y006749D01*
X007937Y006884D02*
X008027Y006974D01*
X008027Y007019D01*
X008141Y006974D02*
X008141Y006929D01*
X008186Y006884D01*
X008322Y006884D01*
X008322Y006749D02*
X008186Y006749D01*
X008141Y006794D01*
X008141Y006839D01*
X008186Y006884D01*
X008141Y006974D02*
X008186Y007019D01*
X008322Y007019D01*
X008322Y006749D01*
X008731Y006794D02*
X008776Y006749D01*
X008866Y006749D01*
X008911Y006794D01*
X008911Y006974D01*
X008866Y007019D01*
X008776Y007019D01*
X008731Y006974D01*
X009025Y006974D02*
X009070Y007019D01*
X009160Y007019D01*
X009205Y006974D01*
X009205Y006794D01*
X009160Y006749D01*
X009070Y006749D01*
X009025Y006794D01*
X004632Y009878D02*
X004542Y009788D01*
X004452Y009878D01*
X004452Y010058D01*
X004338Y010013D02*
X004338Y009833D01*
X004293Y009788D01*
X004203Y009788D01*
X004158Y009833D01*
X004043Y009833D02*
X004043Y010013D01*
X003998Y010058D01*
X003908Y010058D01*
X003863Y010013D01*
X003863Y009833D02*
X003908Y009788D01*
X003998Y009788D01*
X004043Y009833D01*
X004158Y010013D02*
X004203Y010058D01*
X004293Y010058D01*
X004338Y010013D01*
X004632Y010058D02*
X004632Y009878D01*
X004338Y010788D02*
X004203Y010788D01*
X004158Y010833D01*
X004158Y011013D01*
X004203Y011058D01*
X004338Y011058D01*
X004338Y010788D01*
X004043Y010833D02*
X004043Y011013D01*
X003998Y011058D01*
X003908Y011058D01*
X003863Y011013D01*
X003863Y010833D01*
X003908Y010788D01*
X003998Y010788D01*
X004043Y010833D01*
X003953Y010878D02*
X003863Y010788D01*
X003908Y011738D02*
X003863Y011783D01*
X003863Y011963D01*
X003908Y012008D01*
X004043Y012008D01*
X004043Y011738D01*
X003908Y011738D01*
X004158Y011738D02*
X004158Y012008D01*
X004338Y012008D02*
X004158Y011738D01*
X004338Y011738D02*
X004338Y012008D01*
X004452Y011963D02*
X004497Y012008D01*
X004587Y012008D01*
X004632Y011963D01*
X004632Y011783D01*
X004587Y011738D01*
X004497Y011738D01*
X004452Y011783D01*
X004452Y011873D01*
X004542Y011873D01*
X006113Y015114D02*
X006068Y015159D01*
X006113Y015114D02*
X006203Y015114D01*
X006248Y015159D01*
X006248Y015339D01*
X006203Y015384D01*
X006113Y015384D01*
X006068Y015339D01*
X006362Y015339D02*
X006407Y015384D01*
X006497Y015384D01*
X006542Y015339D01*
X006542Y015159D01*
X006497Y015114D01*
X006407Y015114D01*
X006362Y015159D01*
X006657Y015204D02*
X006657Y015384D01*
X006657Y015204D02*
X006747Y015114D01*
X006837Y015204D01*
X006837Y015384D01*
X006969Y015329D02*
X006969Y015284D01*
X007014Y015239D01*
X006969Y015194D01*
X006969Y015149D01*
X007014Y015104D01*
X007104Y015104D01*
X007149Y015149D01*
X007264Y015104D02*
X007444Y015104D01*
X007354Y015104D02*
X007354Y015374D01*
X007444Y015284D01*
X007558Y015329D02*
X007558Y015239D01*
X007604Y015194D01*
X007739Y015194D01*
X007739Y015104D02*
X007739Y015374D01*
X007604Y015374D01*
X007558Y015329D01*
X007971Y015239D02*
X008151Y015239D01*
X008016Y015374D01*
X008016Y015104D01*
X008265Y015104D02*
X008446Y015104D01*
X008355Y015104D02*
X008355Y015374D01*
X008446Y015284D01*
X008560Y015239D02*
X008605Y015194D01*
X008740Y015194D01*
X008740Y015104D02*
X008740Y015374D01*
X008605Y015374D01*
X008560Y015329D01*
X008560Y015239D01*
X009069Y015159D02*
X009069Y015339D01*
X009114Y015384D01*
X009249Y015384D01*
X009249Y015114D01*
X009114Y015114D01*
X009069Y015159D01*
X009364Y015114D02*
X009364Y015384D01*
X009544Y015384D02*
X009364Y015114D01*
X009544Y015114D02*
X009544Y015384D01*
X009658Y015339D02*
X009704Y015384D01*
X009794Y015384D01*
X009839Y015339D01*
X009839Y015159D01*
X009794Y015114D01*
X009704Y015114D01*
X009658Y015159D01*
X009658Y015249D01*
X009749Y015249D01*
X007149Y015329D02*
X007104Y015374D01*
X007014Y015374D01*
X006969Y015329D01*
X007014Y015239D02*
X007059Y015239D01*
X014813Y006608D02*
X014993Y006608D01*
X014903Y006608D02*
X014903Y006338D01*
X015108Y006383D02*
X015153Y006338D01*
X015243Y006338D01*
X015288Y006383D01*
X015243Y006473D02*
X015288Y006518D01*
X015288Y006563D01*
X015243Y006608D01*
X015153Y006608D01*
X015108Y006563D01*
X015153Y006473D02*
X015108Y006428D01*
X015108Y006383D01*
X015153Y006473D02*
X015243Y006473D01*
X015402Y006608D02*
X015582Y006608D01*
X015492Y006608D02*
X015492Y006338D01*
X015863Y006608D02*
X016043Y006608D01*
X015953Y006608D02*
X015953Y006338D01*
X016158Y006383D02*
X016203Y006338D01*
X016293Y006338D01*
X016338Y006383D01*
X016293Y006473D02*
X016203Y006473D01*
X016158Y006428D01*
X016158Y006383D01*
X016293Y006473D02*
X016338Y006518D01*
X016338Y006563D01*
X016293Y006608D01*
X016203Y006608D01*
X016158Y006563D01*
X016452Y006563D02*
X016452Y006473D01*
X016497Y006428D01*
X016632Y006428D01*
X016542Y006428D02*
X016452Y006338D01*
X016632Y006338D02*
X016632Y006608D01*
X016497Y006608D01*
X016452Y006563D01*
X016863Y006563D02*
X016863Y006383D01*
X016908Y006338D01*
X017043Y006338D01*
X017043Y006608D01*
X016908Y006608D01*
X016863Y006563D01*
X017158Y006608D02*
X017338Y006338D01*
X017452Y006338D02*
X017542Y006428D01*
X017497Y006428D02*
X017632Y006428D01*
X017632Y006338D02*
X017632Y006608D01*
X017497Y006608D01*
X017452Y006563D01*
X017452Y006473D01*
X017497Y006428D01*
X017338Y006608D02*
X017158Y006338D01*
X017813Y006383D02*
X017813Y006563D01*
X017858Y006608D01*
X017993Y006608D01*
X017993Y006338D01*
X017858Y006338D01*
X017813Y006383D01*
X018108Y006338D02*
X018288Y006608D01*
X018402Y006608D02*
X018582Y006608D01*
X018492Y006608D02*
X018492Y006338D01*
X018288Y006338D02*
X018108Y006608D01*
X018813Y006563D02*
X018858Y006608D01*
X018948Y006608D01*
X018993Y006563D01*
X018993Y006383D01*
X018948Y006338D01*
X018858Y006338D01*
X018813Y006383D01*
X019108Y006383D02*
X019153Y006338D01*
X019243Y006338D01*
X019288Y006383D01*
X019288Y006563D01*
X019243Y006608D01*
X019153Y006608D01*
X019108Y006563D01*
X019402Y006608D02*
X019402Y006428D01*
X019492Y006338D01*
X019582Y006428D01*
X019582Y006608D01*
X019813Y006563D02*
X019813Y006383D01*
X019858Y006338D01*
X019993Y006338D01*
X019993Y006608D01*
X019858Y006608D01*
X019813Y006563D01*
X020108Y006608D02*
X020108Y006338D01*
X020288Y006608D01*
X020288Y006338D01*
X020402Y006383D02*
X020402Y006473D01*
X020492Y006473D01*
X020402Y006563D02*
X020447Y006608D01*
X020537Y006608D01*
X020582Y006563D01*
X020582Y006383D01*
X020537Y006338D01*
X020447Y006338D01*
X020402Y006383D01*
X021233Y008464D02*
X021188Y008509D01*
X021188Y008689D01*
X021233Y008734D01*
X021369Y008734D01*
X021369Y008464D01*
X021233Y008464D01*
X021483Y008464D02*
X021483Y008734D01*
X021663Y008734D02*
X021483Y008464D01*
X021663Y008464D02*
X021663Y008734D01*
X021778Y008689D02*
X021823Y008734D01*
X021913Y008734D01*
X021958Y008689D01*
X021958Y008509D01*
X021913Y008464D01*
X021823Y008464D01*
X021778Y008509D01*
X021778Y008599D01*
X021868Y008599D01*
D11*
X022765Y007411D02*
X022763Y007339D01*
X022757Y007267D01*
X022748Y007195D01*
X022735Y007124D01*
X022718Y007054D01*
X022698Y006985D01*
X022673Y006917D01*
X022646Y006851D01*
X022615Y006785D01*
X022580Y006722D01*
X022543Y006660D01*
X022502Y006601D01*
X022458Y006544D01*
X022411Y006489D01*
X022361Y006437D01*
X022309Y006387D01*
X022254Y006340D01*
X022197Y006296D01*
X022138Y006255D01*
X022076Y006218D01*
X022013Y006183D01*
X021947Y006152D01*
X021881Y006125D01*
X021813Y006100D01*
X021744Y006080D01*
X021674Y006063D01*
X021603Y006050D01*
X021531Y006041D01*
X021459Y006035D01*
X021387Y006033D01*
X021390Y006033D01*
X021387Y006033D02*
X004851Y006033D01*
X004848Y006033D01*
X004198Y007407D02*
X004200Y007457D01*
X004206Y007507D01*
X004216Y007557D01*
X004229Y007605D01*
X004246Y007653D01*
X004267Y007699D01*
X004291Y007743D01*
X004319Y007785D01*
X004350Y007825D01*
X004384Y007862D01*
X004421Y007897D01*
X004460Y007928D01*
X004501Y007957D01*
X004545Y007982D01*
X004591Y008004D01*
X004638Y008022D01*
X004686Y008036D01*
X004735Y008047D01*
X004785Y008054D01*
X004835Y008057D01*
X004886Y008056D01*
X004936Y008051D01*
X004986Y008042D01*
X005034Y008030D01*
X005082Y008013D01*
X005128Y007993D01*
X005173Y007970D01*
X005216Y007943D01*
X005256Y007913D01*
X005294Y007880D01*
X005329Y007844D01*
X005362Y007805D01*
X005391Y007764D01*
X005417Y007721D01*
X005440Y007676D01*
X005459Y007629D01*
X005474Y007581D01*
X005486Y007532D01*
X005494Y007482D01*
X005498Y007432D01*
X005498Y007382D01*
X005494Y007332D01*
X005486Y007282D01*
X005474Y007233D01*
X005459Y007185D01*
X005440Y007138D01*
X005417Y007093D01*
X005391Y007050D01*
X005362Y007009D01*
X005329Y006970D01*
X005294Y006934D01*
X005256Y006901D01*
X005216Y006871D01*
X005173Y006844D01*
X005128Y006821D01*
X005082Y006801D01*
X005034Y006784D01*
X004986Y006772D01*
X004936Y006763D01*
X004886Y006758D01*
X004835Y006757D01*
X004785Y006760D01*
X004735Y006767D01*
X004686Y006778D01*
X004638Y006792D01*
X004591Y006810D01*
X004545Y006832D01*
X004501Y006857D01*
X004460Y006886D01*
X004421Y006917D01*
X004384Y006952D01*
X004350Y006989D01*
X004319Y007029D01*
X004291Y007071D01*
X004267Y007115D01*
X004246Y007161D01*
X004229Y007209D01*
X004216Y007257D01*
X004206Y007307D01*
X004200Y007357D01*
X004198Y007407D01*
X003473Y007450D02*
X003474Y007377D01*
X003479Y007303D01*
X003487Y007231D01*
X003500Y007159D01*
X003516Y007087D01*
X003535Y007017D01*
X003559Y006947D01*
X003586Y006879D01*
X003617Y006813D01*
X003651Y006748D01*
X003688Y006685D01*
X003729Y006624D01*
X003772Y006566D01*
X003819Y006509D01*
X003869Y006455D01*
X003921Y006404D01*
X003976Y006356D01*
X004033Y006311D01*
X004093Y006268D01*
X004155Y006229D01*
X004219Y006193D01*
X004284Y006161D01*
X004352Y006132D01*
X004420Y006107D01*
X004490Y006085D01*
X004561Y006067D01*
X004633Y006052D01*
X004705Y006042D01*
X004778Y006035D01*
X004851Y006032D01*
X003473Y007407D02*
X003473Y007450D01*
X003473Y014300D01*
X003473Y014304D01*
X004198Y014304D02*
X004200Y014354D01*
X004206Y014404D01*
X004216Y014454D01*
X004229Y014502D01*
X004246Y014550D01*
X004267Y014596D01*
X004291Y014640D01*
X004319Y014682D01*
X004350Y014722D01*
X004384Y014759D01*
X004421Y014794D01*
X004460Y014825D01*
X004501Y014854D01*
X004545Y014879D01*
X004591Y014901D01*
X004638Y014919D01*
X004686Y014933D01*
X004735Y014944D01*
X004785Y014951D01*
X004835Y014954D01*
X004886Y014953D01*
X004936Y014948D01*
X004986Y014939D01*
X005034Y014927D01*
X005082Y014910D01*
X005128Y014890D01*
X005173Y014867D01*
X005216Y014840D01*
X005256Y014810D01*
X005294Y014777D01*
X005329Y014741D01*
X005362Y014702D01*
X005391Y014661D01*
X005417Y014618D01*
X005440Y014573D01*
X005459Y014526D01*
X005474Y014478D01*
X005486Y014429D01*
X005494Y014379D01*
X005498Y014329D01*
X005498Y014279D01*
X005494Y014229D01*
X005486Y014179D01*
X005474Y014130D01*
X005459Y014082D01*
X005440Y014035D01*
X005417Y013990D01*
X005391Y013947D01*
X005362Y013906D01*
X005329Y013867D01*
X005294Y013831D01*
X005256Y013798D01*
X005216Y013768D01*
X005173Y013741D01*
X005128Y013718D01*
X005082Y013698D01*
X005034Y013681D01*
X004986Y013669D01*
X004936Y013660D01*
X004886Y013655D01*
X004835Y013654D01*
X004785Y013657D01*
X004735Y013664D01*
X004686Y013675D01*
X004638Y013689D01*
X004591Y013707D01*
X004545Y013729D01*
X004501Y013754D01*
X004460Y013783D01*
X004421Y013814D01*
X004384Y013849D01*
X004350Y013886D01*
X004319Y013926D01*
X004291Y013968D01*
X004267Y014012D01*
X004246Y014058D01*
X004229Y014106D01*
X004216Y014154D01*
X004206Y014204D01*
X004200Y014254D01*
X004198Y014304D01*
X003473Y014300D02*
X003475Y014372D01*
X003481Y014444D01*
X003490Y014516D01*
X003503Y014587D01*
X003520Y014657D01*
X003540Y014726D01*
X003565Y014794D01*
X003592Y014860D01*
X003623Y014926D01*
X003658Y014989D01*
X003695Y015051D01*
X003736Y015110D01*
X003780Y015167D01*
X003827Y015222D01*
X003877Y015274D01*
X003929Y015324D01*
X003984Y015371D01*
X004041Y015415D01*
X004100Y015456D01*
X004162Y015493D01*
X004225Y015528D01*
X004291Y015559D01*
X004357Y015586D01*
X004425Y015611D01*
X004494Y015631D01*
X004564Y015648D01*
X004635Y015661D01*
X004707Y015670D01*
X004779Y015676D01*
X004851Y015678D01*
X021387Y015678D01*
X020737Y014300D02*
X020739Y014350D01*
X020745Y014400D01*
X020755Y014450D01*
X020768Y014498D01*
X020785Y014546D01*
X020806Y014592D01*
X020830Y014636D01*
X020858Y014678D01*
X020889Y014718D01*
X020923Y014755D01*
X020960Y014790D01*
X020999Y014821D01*
X021040Y014850D01*
X021084Y014875D01*
X021130Y014897D01*
X021177Y014915D01*
X021225Y014929D01*
X021274Y014940D01*
X021324Y014947D01*
X021374Y014950D01*
X021425Y014949D01*
X021475Y014944D01*
X021525Y014935D01*
X021573Y014923D01*
X021621Y014906D01*
X021667Y014886D01*
X021712Y014863D01*
X021755Y014836D01*
X021795Y014806D01*
X021833Y014773D01*
X021868Y014737D01*
X021901Y014698D01*
X021930Y014657D01*
X021956Y014614D01*
X021979Y014569D01*
X021998Y014522D01*
X022013Y014474D01*
X022025Y014425D01*
X022033Y014375D01*
X022037Y014325D01*
X022037Y014275D01*
X022033Y014225D01*
X022025Y014175D01*
X022013Y014126D01*
X021998Y014078D01*
X021979Y014031D01*
X021956Y013986D01*
X021930Y013943D01*
X021901Y013902D01*
X021868Y013863D01*
X021833Y013827D01*
X021795Y013794D01*
X021755Y013764D01*
X021712Y013737D01*
X021667Y013714D01*
X021621Y013694D01*
X021573Y013677D01*
X021525Y013665D01*
X021475Y013656D01*
X021425Y013651D01*
X021374Y013650D01*
X021324Y013653D01*
X021274Y013660D01*
X021225Y013671D01*
X021177Y013685D01*
X021130Y013703D01*
X021084Y013725D01*
X021040Y013750D01*
X020999Y013779D01*
X020960Y013810D01*
X020923Y013845D01*
X020889Y013882D01*
X020858Y013922D01*
X020830Y013964D01*
X020806Y014008D01*
X020785Y014054D01*
X020768Y014102D01*
X020755Y014150D01*
X020745Y014200D01*
X020739Y014250D01*
X020737Y014300D01*
X021387Y015678D02*
X021459Y015676D01*
X021531Y015670D01*
X021603Y015661D01*
X021674Y015648D01*
X021744Y015631D01*
X021813Y015611D01*
X021881Y015586D01*
X021947Y015559D01*
X022013Y015528D01*
X022076Y015493D01*
X022138Y015456D01*
X022197Y015415D01*
X022254Y015371D01*
X022309Y015324D01*
X022361Y015274D01*
X022411Y015222D01*
X022458Y015167D01*
X022502Y015110D01*
X022543Y015051D01*
X022580Y014989D01*
X022615Y014926D01*
X022646Y014860D01*
X022673Y014794D01*
X022698Y014726D01*
X022718Y014657D01*
X022735Y014587D01*
X022748Y014516D01*
X022757Y014444D01*
X022763Y014372D01*
X022765Y014300D01*
X022765Y007411D01*
X020740Y007407D02*
X020742Y007457D01*
X020748Y007507D01*
X020758Y007557D01*
X020771Y007605D01*
X020788Y007653D01*
X020809Y007699D01*
X020833Y007743D01*
X020861Y007785D01*
X020892Y007825D01*
X020926Y007862D01*
X020963Y007897D01*
X021002Y007928D01*
X021043Y007957D01*
X021087Y007982D01*
X021133Y008004D01*
X021180Y008022D01*
X021228Y008036D01*
X021277Y008047D01*
X021327Y008054D01*
X021377Y008057D01*
X021428Y008056D01*
X021478Y008051D01*
X021528Y008042D01*
X021576Y008030D01*
X021624Y008013D01*
X021670Y007993D01*
X021715Y007970D01*
X021758Y007943D01*
X021798Y007913D01*
X021836Y007880D01*
X021871Y007844D01*
X021904Y007805D01*
X021933Y007764D01*
X021959Y007721D01*
X021982Y007676D01*
X022001Y007629D01*
X022016Y007581D01*
X022028Y007532D01*
X022036Y007482D01*
X022040Y007432D01*
X022040Y007382D01*
X022036Y007332D01*
X022028Y007282D01*
X022016Y007233D01*
X022001Y007185D01*
X021982Y007138D01*
X021959Y007093D01*
X021933Y007050D01*
X021904Y007009D01*
X021871Y006970D01*
X021836Y006934D01*
X021798Y006901D01*
X021758Y006871D01*
X021715Y006844D01*
X021670Y006821D01*
X021624Y006801D01*
X021576Y006784D01*
X021528Y006772D01*
X021478Y006763D01*
X021428Y006758D01*
X021377Y006757D01*
X021327Y006760D01*
X021277Y006767D01*
X021228Y006778D01*
X021180Y006792D01*
X021133Y006810D01*
X021087Y006832D01*
X021043Y006857D01*
X021002Y006886D01*
X020963Y006917D01*
X020926Y006952D01*
X020892Y006989D01*
X020861Y007029D01*
X020833Y007071D01*
X020809Y007115D01*
X020788Y007161D01*
X020771Y007209D01*
X020758Y007257D01*
X020748Y007307D01*
X020742Y007357D01*
X020740Y007407D01*
X006623Y010852D02*
X006625Y010882D01*
X006631Y010912D01*
X006640Y010941D01*
X006653Y010968D01*
X006670Y010993D01*
X006689Y011016D01*
X006712Y011037D01*
X006737Y011054D01*
X006763Y011068D01*
X006792Y011078D01*
X006821Y011085D01*
X006851Y011088D01*
X006882Y011087D01*
X006912Y011082D01*
X006941Y011073D01*
X006968Y011061D01*
X006994Y011046D01*
X007018Y011027D01*
X007039Y011005D01*
X007057Y010981D01*
X007072Y010954D01*
X007083Y010926D01*
X007091Y010897D01*
X007095Y010867D01*
X007095Y010837D01*
X007091Y010807D01*
X007083Y010778D01*
X007072Y010750D01*
X007057Y010723D01*
X007039Y010699D01*
X007018Y010677D01*
X006994Y010658D01*
X006968Y010643D01*
X006941Y010631D01*
X006912Y010622D01*
X006882Y010617D01*
X006851Y010616D01*
X006821Y010619D01*
X006792Y010626D01*
X006763Y010636D01*
X006737Y010650D01*
X006712Y010667D01*
X006689Y010688D01*
X006670Y010711D01*
X006653Y010736D01*
X006640Y010763D01*
X006631Y010792D01*
X006625Y010822D01*
X006623Y010852D01*
X004655Y008883D02*
X004657Y008913D01*
X004663Y008943D01*
X004672Y008972D01*
X004685Y008999D01*
X004702Y009024D01*
X004721Y009047D01*
X004744Y009068D01*
X004769Y009085D01*
X004795Y009099D01*
X004824Y009109D01*
X004853Y009116D01*
X004883Y009119D01*
X004914Y009118D01*
X004944Y009113D01*
X004973Y009104D01*
X005000Y009092D01*
X005026Y009077D01*
X005050Y009058D01*
X005071Y009036D01*
X005089Y009012D01*
X005104Y008985D01*
X005115Y008957D01*
X005123Y008928D01*
X005127Y008898D01*
X005127Y008868D01*
X005123Y008838D01*
X005115Y008809D01*
X005104Y008781D01*
X005089Y008754D01*
X005071Y008730D01*
X005050Y008708D01*
X005026Y008689D01*
X005000Y008674D01*
X004973Y008662D01*
X004944Y008653D01*
X004914Y008648D01*
X004883Y008647D01*
X004853Y008650D01*
X004824Y008657D01*
X004795Y008667D01*
X004769Y008681D01*
X004744Y008698D01*
X004721Y008719D01*
X004702Y008742D01*
X004685Y008767D01*
X004672Y008794D01*
X004663Y008823D01*
X004657Y008853D01*
X004655Y008883D01*
X003670Y008883D02*
X003672Y008913D01*
X003678Y008943D01*
X003687Y008972D01*
X003700Y008999D01*
X003717Y009024D01*
X003736Y009047D01*
X003759Y009068D01*
X003784Y009085D01*
X003810Y009099D01*
X003839Y009109D01*
X003868Y009116D01*
X003898Y009119D01*
X003929Y009118D01*
X003959Y009113D01*
X003988Y009104D01*
X004015Y009092D01*
X004041Y009077D01*
X004065Y009058D01*
X004086Y009036D01*
X004104Y009012D01*
X004119Y008985D01*
X004130Y008957D01*
X004138Y008928D01*
X004142Y008898D01*
X004142Y008868D01*
X004138Y008838D01*
X004130Y008809D01*
X004119Y008781D01*
X004104Y008754D01*
X004086Y008730D01*
X004065Y008708D01*
X004041Y008689D01*
X004015Y008674D01*
X003988Y008662D01*
X003959Y008653D01*
X003929Y008648D01*
X003898Y008647D01*
X003868Y008650D01*
X003839Y008657D01*
X003810Y008667D01*
X003784Y008681D01*
X003759Y008698D01*
X003736Y008719D01*
X003717Y008742D01*
X003700Y008767D01*
X003687Y008794D01*
X003678Y008823D01*
X003672Y008853D01*
X003670Y008883D01*
X003670Y012820D02*
X003672Y012850D01*
X003678Y012880D01*
X003687Y012909D01*
X003700Y012936D01*
X003717Y012961D01*
X003736Y012984D01*
X003759Y013005D01*
X003784Y013022D01*
X003810Y013036D01*
X003839Y013046D01*
X003868Y013053D01*
X003898Y013056D01*
X003929Y013055D01*
X003959Y013050D01*
X003988Y013041D01*
X004015Y013029D01*
X004041Y013014D01*
X004065Y012995D01*
X004086Y012973D01*
X004104Y012949D01*
X004119Y012922D01*
X004130Y012894D01*
X004138Y012865D01*
X004142Y012835D01*
X004142Y012805D01*
X004138Y012775D01*
X004130Y012746D01*
X004119Y012718D01*
X004104Y012691D01*
X004086Y012667D01*
X004065Y012645D01*
X004041Y012626D01*
X004015Y012611D01*
X003988Y012599D01*
X003959Y012590D01*
X003929Y012585D01*
X003898Y012584D01*
X003868Y012587D01*
X003839Y012594D01*
X003810Y012604D01*
X003784Y012618D01*
X003759Y012635D01*
X003736Y012656D01*
X003717Y012679D01*
X003700Y012704D01*
X003687Y012731D01*
X003678Y012760D01*
X003672Y012790D01*
X003670Y012820D01*
X004655Y012820D02*
X004657Y012850D01*
X004663Y012880D01*
X004672Y012909D01*
X004685Y012936D01*
X004702Y012961D01*
X004721Y012984D01*
X004744Y013005D01*
X004769Y013022D01*
X004795Y013036D01*
X004824Y013046D01*
X004853Y013053D01*
X004883Y013056D01*
X004914Y013055D01*
X004944Y013050D01*
X004973Y013041D01*
X005000Y013029D01*
X005026Y013014D01*
X005050Y012995D01*
X005071Y012973D01*
X005089Y012949D01*
X005104Y012922D01*
X005115Y012894D01*
X005123Y012865D01*
X005127Y012835D01*
X005127Y012805D01*
X005123Y012775D01*
X005115Y012746D01*
X005104Y012718D01*
X005089Y012691D01*
X005071Y012667D01*
X005050Y012645D01*
X005026Y012626D01*
X005000Y012611D01*
X004973Y012599D01*
X004944Y012590D01*
X004914Y012585D01*
X004883Y012584D01*
X004853Y012587D01*
X004824Y012594D01*
X004795Y012604D01*
X004769Y012618D01*
X004744Y012635D01*
X004721Y012656D01*
X004702Y012679D01*
X004685Y012704D01*
X004672Y012731D01*
X004663Y012760D01*
X004657Y012790D01*
X004655Y012820D01*
D12*
X011805Y008833D02*
X011805Y008776D01*
X012031Y008776D01*
X012031Y008719D02*
X012031Y008833D01*
X011975Y008890D01*
X011861Y008890D01*
X011805Y008833D01*
X011861Y008663D02*
X011975Y008663D01*
X012031Y008719D01*
X012168Y008663D02*
X012338Y008776D01*
X012168Y008890D01*
X012338Y009003D02*
X012338Y008663D01*
X012480Y008719D02*
X012480Y008833D01*
X012537Y008890D01*
X012650Y008890D01*
X012707Y008833D01*
X012707Y008719D01*
X012650Y008663D01*
X012537Y008663D01*
X012480Y008719D01*
X012848Y008663D02*
X012848Y008833D01*
X012905Y008890D01*
X012962Y008833D01*
X012962Y008663D01*
X013075Y008663D02*
X013075Y008890D01*
X013018Y008890D01*
X012962Y008833D01*
X013217Y008776D02*
X013217Y008719D01*
X013273Y008663D01*
X013387Y008663D01*
X013443Y008719D01*
X013387Y008833D02*
X013273Y008833D01*
X013217Y008776D01*
X013217Y008946D02*
X013273Y009003D01*
X013387Y009003D01*
X013443Y008946D01*
X013443Y008890D01*
X013387Y008833D01*
X013443Y009263D02*
X013443Y009603D01*
X013330Y009490D01*
X013217Y009603D01*
X013217Y009263D01*
X013075Y009319D02*
X013018Y009376D01*
X012848Y009376D01*
X012848Y009433D02*
X012848Y009263D01*
X013018Y009263D01*
X013075Y009319D01*
X013018Y009490D02*
X012905Y009490D01*
X012848Y009433D01*
X012707Y009433D02*
X012707Y009319D01*
X012650Y009263D01*
X012480Y009263D01*
X012480Y009206D02*
X012480Y009490D01*
X012650Y009490D01*
X012707Y009433D01*
X012338Y009490D02*
X012282Y009490D01*
X012282Y009263D01*
X012338Y009263D02*
X012225Y009263D01*
X012093Y009319D02*
X012036Y009263D01*
X011866Y009263D01*
X011866Y009490D02*
X012036Y009490D01*
X012093Y009433D01*
X012093Y009319D01*
X012282Y009603D02*
X012282Y009660D01*
X012480Y009206D02*
X012537Y009149D01*
X012593Y009149D01*
X012537Y008303D02*
X012480Y008246D01*
X012707Y008019D01*
X012650Y007963D01*
X012537Y007963D01*
X012480Y008019D01*
X012480Y008246D01*
X012537Y008303D02*
X012650Y008303D01*
X012707Y008246D01*
X012707Y008019D01*
X012848Y008019D02*
X012905Y007963D01*
X013018Y007963D01*
X013075Y008019D01*
X013075Y008246D01*
X013018Y008303D01*
X012905Y008303D01*
X012848Y008246D01*
X012848Y008019D01*
X013217Y007963D02*
X013217Y008303D01*
X013330Y008190D01*
X013443Y008303D01*
X013443Y007963D01*
X012338Y007963D02*
X012112Y007963D01*
X012225Y007963D02*
X012225Y008303D01*
X012338Y008190D01*
X022229Y009158D02*
X022569Y009158D01*
X022229Y009385D01*
X022569Y009385D01*
X022569Y009526D02*
X022229Y009526D01*
X022342Y009526D02*
X022342Y009696D01*
X022399Y009753D01*
X022512Y009753D01*
X022569Y009696D01*
X022569Y009526D01*
X022342Y009640D02*
X022229Y009753D01*
X022229Y009894D02*
X022569Y009894D01*
X022569Y010121D01*
X022512Y010263D02*
X022569Y010319D01*
X022569Y010433D01*
X022512Y010490D01*
X022456Y010490D01*
X022229Y010263D01*
X022229Y010490D01*
X022399Y010631D02*
X022399Y010858D01*
X022229Y010801D02*
X022569Y010801D01*
X022399Y010631D01*
X022569Y010999D02*
X022229Y010999D01*
X022229Y011226D01*
X022285Y011368D02*
X022512Y011595D01*
X022285Y011595D01*
X022229Y011538D01*
X022229Y011424D01*
X022285Y011368D01*
X022512Y011368D01*
X022569Y011424D01*
X022569Y011538D01*
X022512Y011595D01*
X022456Y011736D02*
X022569Y011849D01*
X022229Y011849D01*
X022229Y011736D02*
X022229Y011963D01*
X022399Y012104D02*
X022399Y012331D01*
X022512Y012218D02*
X022285Y012218D01*
X022399Y010008D02*
X022399Y009894D01*
D13*
X019302Y008342D02*
X019021Y008342D01*
X009902Y007794D02*
X010068Y007670D01*
X010240Y007554D01*
X010417Y007447D01*
X010599Y007348D01*
X010786Y007259D01*
X010977Y007178D01*
X011172Y007107D01*
X011370Y007046D01*
X011570Y006995D01*
X011773Y006953D01*
X011978Y006921D01*
X012184Y006900D01*
X012391Y006888D01*
X012598Y006887D01*
X012805Y006895D01*
X013011Y006914D01*
X013217Y006943D01*
X013420Y006982D01*
X013621Y007030D01*
X013820Y007089D01*
X014016Y007157D01*
X014208Y007235D01*
X014396Y007322D01*
X014580Y007418D01*
X014758Y007522D01*
X014932Y007636D01*
X015099Y007758D01*
X015261Y007888D01*
X015416Y008025D01*
X015564Y008170D01*
X015705Y008322D01*
X015838Y008481D01*
X015963Y008646D01*
X016080Y008817D01*
X016189Y008993D01*
X016288Y009175D01*
X016379Y009361D01*
X016461Y009551D01*
X016533Y009746D01*
X016596Y009943D01*
X016649Y010143D01*
X016692Y010346D01*
X016725Y010551D01*
X016748Y010756D01*
X016761Y010963D01*
X016764Y011170D01*
X016757Y011377D01*
X016739Y011584D01*
X016712Y011789D01*
X016674Y011993D01*
X016627Y012195D01*
X016570Y012394D01*
X016503Y012590D01*
X016427Y012783D01*
X016341Y012971D01*
X016247Y013156D01*
X016143Y013335D01*
X016031Y013509D01*
X015910Y013678D01*
X015782Y013840D01*
X015645Y013996D01*
X015501Y014145D01*
X015350Y014287D01*
X015192Y014421D01*
X015028Y014548D01*
X014858Y014666D01*
X014682Y014776D01*
X014501Y014877D01*
X014316Y014969D01*
X014126Y015052D01*
X013932Y015125D01*
X013735Y015189D01*
X013535Y015244D01*
X013333Y015288D01*
X013129Y015323D01*
X012923Y015347D01*
X012716Y015362D01*
X012509Y015366D01*
X012302Y015360D01*
X012096Y015344D01*
X011890Y015318D01*
X011686Y015282D01*
X011484Y015236D01*
X011284Y015181D01*
X011088Y015115D01*
X010895Y015040D01*
X010705Y014956D01*
X010520Y014863D01*
X010340Y014760D01*
X010165Y014649D01*
X009996Y014530D01*
X009833Y014402D01*
X009676Y014267D01*
X009526Y014124D01*
X009383Y013974D01*
X009248Y013817D01*
X009120Y013654D01*
X009001Y013485D01*
X008890Y013310D01*
X008787Y013130D01*
X008694Y012945D01*
X008610Y012755D01*
X008535Y012562D01*
X008469Y012366D01*
X008414Y012166D01*
X008368Y011964D01*
X008332Y011760D01*
X008306Y011555D01*
X008290Y011348D01*
X008284Y011141D01*
X008288Y010934D01*
X008303Y010727D01*
X008327Y010521D01*
X008327Y010522D02*
X007304Y009931D01*
X008879Y007203D01*
X009902Y007794D01*
X019021Y013419D02*
X019302Y013419D01*
X019162Y013559D02*
X019162Y013279D01*
D14*
X000916Y006024D02*
X000927Y001163D01*
X000867Y005000D02*
X000916Y006024D01*
X000816Y005000D01*
X000793Y005000D02*
X000916Y006024D01*
X001021Y005000D01*
X001044Y005000D02*
X000793Y005000D01*
X000970Y005000D02*
X000916Y006024D01*
X001044Y005000D01*
X000129Y006022D02*
X004851Y006033D01*
X004848Y007407D02*
X000126Y007397D01*
X000913Y007398D02*
X000808Y008422D01*
X000785Y008422D02*
X000913Y007398D01*
X001013Y008422D01*
X001036Y008422D02*
X000785Y008422D01*
X000859Y008422D02*
X000913Y007398D01*
X000962Y008422D01*
X001036Y008422D02*
X000913Y007398D01*
X000908Y009446D01*
X003473Y014300D02*
X003473Y019418D01*
X003473Y018631D02*
X004497Y018733D01*
X004497Y018757D02*
X004497Y018505D01*
X003473Y018631D01*
X004497Y018529D01*
X004497Y018580D02*
X003473Y018631D01*
X004497Y018682D01*
X004497Y018757D02*
X003473Y018631D01*
X022765Y018631D01*
X021741Y018529D01*
X021741Y018505D02*
X022765Y018631D01*
X021741Y018733D01*
X021741Y018757D02*
X021741Y018505D01*
X021741Y018580D02*
X022765Y018631D01*
X021741Y018682D01*
X021741Y018757D02*
X022765Y018631D01*
X022765Y019418D02*
X022765Y014300D01*
X022765Y013415D02*
X027095Y013415D01*
X026308Y013415D02*
X026410Y012391D01*
X026434Y012391D02*
X026308Y013415D01*
X026206Y012391D01*
X026182Y012391D02*
X026434Y012391D01*
X026359Y012391D02*
X026308Y013415D01*
X026257Y012391D01*
X026182Y012391D02*
X026308Y013415D01*
X026308Y008296D01*
X026410Y009320D01*
X026434Y009320D02*
X026308Y008296D01*
X026206Y009320D01*
X026182Y009320D02*
X026434Y009320D01*
X026359Y009320D02*
X026308Y008296D01*
X026257Y009320D01*
X026182Y009320D02*
X026308Y008296D01*
X027095Y008296D02*
X022765Y008296D01*
X021780Y006033D02*
X031032Y006033D01*
X030245Y006033D02*
X030347Y007056D01*
X030371Y007056D02*
X030245Y006033D01*
X030143Y007056D01*
X030119Y007056D02*
X030371Y007056D01*
X030296Y007056D02*
X030245Y006033D01*
X030194Y007056D01*
X030119Y007056D02*
X030245Y006033D01*
X030245Y015678D01*
X030347Y014655D01*
X030371Y014655D02*
X030245Y015678D01*
X030143Y014655D01*
X030119Y014655D02*
X030371Y014655D01*
X030296Y014655D02*
X030245Y015678D01*
X030194Y014655D01*
X030119Y014655D02*
X030245Y015678D01*
X031032Y015678D02*
X021780Y015678D01*
D15*
X024802Y011929D02*
X025013Y011929D01*
X025225Y011717D01*
X025436Y011929D01*
X025648Y011929D01*
X025859Y011717D01*
X025859Y011294D01*
X025648Y011083D01*
X025859Y010660D02*
X025859Y009814D01*
X025859Y010237D02*
X024590Y010237D01*
X025013Y009814D01*
X024802Y011083D02*
X024590Y011294D01*
X024590Y011717D01*
X024802Y011929D01*
X025225Y011717D02*
X025225Y011506D01*
X028527Y010895D02*
X029162Y010261D01*
X029162Y011107D01*
X029796Y010895D02*
X028527Y010895D01*
X029585Y011529D02*
X029585Y011741D01*
X029796Y011741D01*
X029796Y011529D01*
X029585Y011529D01*
X029585Y012164D02*
X029796Y012375D01*
X029796Y012798D01*
X029585Y013010D01*
X029162Y013010D01*
X028950Y012798D01*
X028950Y012587D01*
X029162Y012164D01*
X028527Y012164D01*
X028527Y013010D01*
X028739Y009838D02*
X028527Y009626D01*
X028527Y009203D01*
X028739Y008992D01*
X028950Y009838D02*
X029796Y008992D01*
X029796Y009838D01*
X028950Y009838D02*
X028739Y009838D01*
X014192Y019291D02*
X014192Y020137D01*
X013981Y020349D01*
X013558Y020349D01*
X013346Y020137D01*
X013346Y019926D01*
X013558Y019714D01*
X014192Y019714D01*
X014192Y019291D02*
X013981Y019080D01*
X013558Y019080D01*
X013346Y019291D01*
X012924Y019714D02*
X012078Y019714D01*
X012712Y020349D01*
X012712Y019080D01*
X002425Y004948D02*
X002637Y004737D01*
X002637Y004314D01*
X002426Y004102D01*
X002215Y004101D01*
X002003Y004313D01*
X001792Y004101D01*
X001580Y004100D01*
X001368Y004311D01*
X001368Y004735D01*
X001579Y004946D01*
X002003Y004524D02*
X002003Y004313D01*
X001581Y003678D02*
X001369Y003677D01*
X001370Y003466D01*
X001581Y003466D01*
X001581Y003678D01*
X002005Y003044D02*
X002007Y002198D01*
X002219Y001775D02*
X002008Y001564D01*
X002009Y000929D01*
X001586Y000928D02*
X002432Y000930D01*
X002643Y001142D01*
X002642Y001565D01*
X002430Y001776D01*
X002219Y001775D01*
X001584Y001774D02*
X001373Y001563D01*
X001374Y001139D01*
X001586Y000928D01*
X001372Y002408D02*
X002641Y002411D01*
X002005Y003044D01*
D16*
X012459Y012628D03*
X012354Y012903D03*
X012369Y012913D03*
X012374Y012918D03*
X012379Y012923D03*
X012394Y012933D03*
X012439Y012963D03*
X012454Y012973D03*
X012459Y012978D03*
X012474Y012988D03*
X012489Y012998D03*
X012494Y013003D03*
X012504Y013008D03*
X012509Y013013D03*
X012514Y013018D03*
X012524Y013023D03*
X012529Y013028D03*
X012539Y013033D03*
X012544Y013038D03*
X012559Y013048D03*
X012339Y013278D03*
X012219Y013433D03*
X012219Y013438D03*
X012214Y013443D03*
X012214Y013448D03*
X012744Y013588D03*
X012744Y013593D03*
X012904Y013613D03*
X012904Y013618D03*
X012964Y013143D03*
X012934Y012948D03*
X012589Y014153D03*
X012589Y014158D03*
D17*
X012459Y014353D03*
X012869Y014548D03*
X013809Y014043D03*
X013809Y013503D03*
X013804Y013498D03*
X013549Y012978D03*
X012819Y012798D03*
X012459Y012633D03*
X011354Y012903D03*
X011269Y013933D03*
X011554Y014083D03*
D18*
X011519Y014063D03*
X012869Y014543D03*
X013714Y014093D03*
X012459Y012638D03*
X012184Y012753D03*
D19*
X012457Y012643D03*
X011487Y012843D03*
X012447Y014383D03*
X012867Y014538D03*
D20*
X011462Y014018D03*
X012457Y012648D03*
D21*
X012459Y012653D03*
X013554Y014148D03*
D22*
X013564Y014138D03*
X012459Y012658D03*
D23*
X012459Y012663D03*
X013574Y014123D03*
D24*
X012857Y014508D03*
X012457Y012668D03*
D25*
X012459Y012673D03*
D26*
X012457Y012678D03*
X012832Y014488D03*
D27*
X012814Y014473D03*
X012459Y012683D03*
D28*
X012459Y012688D03*
X012804Y014463D03*
D29*
X012457Y012693D03*
D30*
X012457Y012698D03*
X013102Y012843D03*
D31*
X013132Y012858D03*
X012457Y012703D03*
D32*
X012457Y012708D03*
X013157Y012873D03*
D33*
X013187Y012893D03*
X012457Y012713D03*
D34*
X012457Y012718D03*
X013192Y012898D03*
X013197Y012903D03*
D35*
X012457Y012723D03*
D36*
X012457Y012728D03*
D37*
X012274Y012838D03*
X012339Y013253D03*
X012204Y013483D03*
X012199Y013493D03*
X012199Y013498D03*
X012744Y013613D03*
X012909Y013588D03*
X012964Y013118D03*
X012929Y012953D03*
X011724Y012728D03*
X012584Y014183D03*
D38*
X012459Y012733D03*
D39*
X012539Y013063D03*
X011724Y012733D03*
X011249Y013388D03*
X011244Y013393D03*
X011239Y013403D03*
X011234Y013408D03*
X011229Y013413D03*
X011224Y013418D03*
X011219Y013893D03*
X011224Y013898D03*
X011229Y013903D03*
X011564Y014088D03*
X011689Y014308D03*
X011694Y014313D03*
X011699Y014318D03*
X013679Y013403D03*
X013839Y013528D03*
X013844Y013533D03*
X013844Y014013D03*
X013839Y014018D03*
X013594Y013013D03*
X013589Y013008D03*
D40*
X012672Y012738D03*
X011722Y012748D03*
X011477Y014028D03*
D41*
X011469Y014023D03*
X011419Y013993D03*
X012654Y014443D03*
X013534Y014168D03*
X013654Y014108D03*
X012244Y012738D03*
D42*
X011724Y012738D03*
X011424Y012863D03*
X011529Y014068D03*
X011809Y014388D03*
X012454Y014368D03*
X013479Y012938D03*
D43*
X012702Y012743D03*
X012212Y012743D03*
X012622Y014438D03*
D44*
X013679Y014103D03*
X011499Y014048D03*
X011389Y013988D03*
X011724Y012743D03*
D45*
X012197Y012748D03*
X012717Y012748D03*
X011372Y013983D03*
X011512Y014058D03*
X013697Y014098D03*
D46*
X013502Y014193D03*
X012532Y013088D03*
X012987Y012918D03*
X012732Y012753D03*
X013462Y012933D03*
D47*
X013549Y014153D03*
X011724Y012753D03*
D48*
X011987Y012853D03*
X012167Y012758D03*
X012747Y012758D03*
X012522Y013078D03*
X011342Y013973D03*
X013727Y014088D03*
D49*
X011722Y012758D03*
D50*
X012157Y012763D03*
X012757Y012763D03*
X012522Y013073D03*
X013487Y012943D03*
X013737Y014083D03*
X011332Y013968D03*
D51*
X012882Y014523D03*
X011722Y012763D03*
D52*
X012147Y012768D03*
X012767Y012768D03*
X013497Y012948D03*
X013712Y013438D03*
X013717Y013443D03*
X013752Y013468D03*
X011787Y014378D03*
X011322Y013963D03*
D53*
X011722Y012768D03*
D54*
X012137Y012773D03*
X012777Y012773D03*
X013182Y012813D03*
X013517Y012958D03*
X013702Y013428D03*
X013707Y013433D03*
X013767Y014068D03*
X011777Y014373D03*
X011302Y013953D03*
D55*
X011722Y012773D03*
D56*
X011394Y012878D03*
X011384Y012883D03*
X011294Y013948D03*
X011544Y014078D03*
X011769Y014368D03*
X013779Y014063D03*
X013779Y013483D03*
X013769Y013478D03*
X012794Y012783D03*
X012784Y012778D03*
D57*
X012519Y013093D03*
X012129Y012778D03*
X011994Y012858D03*
X011404Y012873D03*
X011309Y013958D03*
X012454Y014363D03*
X013759Y014073D03*
X013759Y013473D03*
X013509Y012953D03*
D58*
X011722Y012778D03*
X012837Y014493D03*
D59*
X011844Y012783D03*
D60*
X011369Y012893D03*
X011284Y013943D03*
X011754Y014358D03*
X011759Y014363D03*
X012804Y012788D03*
X013534Y012968D03*
X013794Y014053D03*
D61*
X012927Y013503D03*
X012927Y013498D03*
X012752Y013678D03*
X012152Y013653D03*
X012152Y013648D03*
X012352Y013153D03*
X012352Y013148D03*
X012247Y012788D03*
X012972Y013048D03*
X012572Y014268D03*
X012572Y014273D03*
D62*
X011822Y012788D03*
X011812Y012793D03*
D63*
X012002Y012863D03*
X012507Y013098D03*
X012812Y012793D03*
X013542Y012973D03*
X013692Y013418D03*
X013797Y013493D03*
X013802Y014048D03*
X011747Y014353D03*
X011277Y013938D03*
X011362Y012898D03*
D64*
X012252Y012793D03*
X012927Y012963D03*
X012927Y013513D03*
X012752Y013668D03*
X012752Y013673D03*
X012162Y013618D03*
X012157Y013628D03*
X012157Y013633D03*
X012577Y014253D03*
D65*
X012574Y014248D03*
X012749Y013663D03*
X012924Y013523D03*
X012924Y013518D03*
X012969Y013068D03*
X012969Y013063D03*
X012349Y013173D03*
X012349Y013178D03*
X012254Y012798D03*
X012024Y012908D03*
X012164Y013608D03*
X012164Y013613D03*
X012159Y013623D03*
D66*
X011774Y012813D03*
X011784Y012808D03*
X011804Y012798D03*
D67*
X011347Y012908D03*
X011342Y012913D03*
X011262Y013928D03*
X011732Y014343D03*
X011737Y014348D03*
X013687Y013413D03*
X013817Y013508D03*
X013817Y014038D03*
X013557Y012983D03*
X012832Y012808D03*
X012827Y012803D03*
D68*
X012969Y013073D03*
X012969Y013078D03*
X012969Y013083D03*
X012919Y013538D03*
X012749Y013653D03*
X012169Y013593D03*
X012169Y013588D03*
X012579Y014233D03*
X012254Y012803D03*
D69*
X011792Y012803D03*
X011767Y012818D03*
X011757Y012823D03*
X011752Y012828D03*
X011742Y012833D03*
D70*
X011262Y012993D03*
X011257Y012998D03*
X011257Y013003D03*
X011252Y013008D03*
X011247Y013333D03*
X011252Y013343D03*
X011257Y013348D03*
X011257Y013353D03*
X011262Y013363D03*
X011262Y013368D03*
X011162Y013488D03*
X011157Y013493D03*
X011152Y013503D03*
X011157Y013818D03*
X011162Y013828D03*
X011167Y013833D03*
X011577Y014093D03*
X011632Y014238D03*
X011637Y014243D03*
X011637Y014248D03*
X011642Y014253D03*
X011647Y014258D03*
X013672Y013393D03*
X013662Y013098D03*
X013657Y013088D03*
X013652Y013083D03*
X013652Y013078D03*
X013647Y013073D03*
X013182Y012808D03*
X012307Y012888D03*
X013897Y013588D03*
X013902Y013598D03*
X013907Y013603D03*
X013912Y013608D03*
X013917Y013618D03*
X013917Y013928D03*
X013912Y013938D03*
X013907Y013943D03*
X013902Y013948D03*
X013897Y013958D03*
D71*
X013037Y014238D03*
X013042Y014268D03*
X013047Y014298D03*
X013052Y014328D03*
X013057Y014353D03*
X013057Y014358D03*
X013062Y014383D03*
X013062Y014388D03*
X013067Y014413D03*
X013067Y014418D03*
X013087Y014538D03*
X013087Y014543D03*
X012577Y014228D03*
X012747Y013648D03*
X012922Y013543D03*
X012347Y013198D03*
X012347Y013193D03*
X012257Y012808D03*
X012177Y013568D03*
X012177Y013573D03*
X012172Y013578D03*
X012172Y013583D03*
D72*
X012004Y012868D03*
X011334Y012918D03*
X011249Y013918D03*
X011254Y013923D03*
X011724Y014338D03*
X012999Y014443D03*
X013469Y014208D03*
X013824Y014033D03*
X013829Y014028D03*
X013829Y013518D03*
X013824Y013513D03*
X013684Y013408D03*
X013569Y012993D03*
X013564Y012988D03*
X012959Y012928D03*
X012839Y012813D03*
D73*
X012969Y013088D03*
X012969Y013093D03*
X013009Y013198D03*
X013019Y013223D03*
X013029Y013248D03*
X013039Y013273D03*
X013064Y013338D03*
X013074Y013363D03*
X013084Y013388D03*
X013094Y013413D03*
X013119Y013478D03*
X013129Y013503D03*
X013139Y013528D03*
X013149Y013553D03*
X013174Y013618D03*
X013184Y013643D03*
X013194Y013668D03*
X013204Y013693D03*
X013239Y013783D03*
X013249Y013808D03*
X013259Y013833D03*
X013269Y013858D03*
X013294Y013923D03*
X013304Y013948D03*
X013314Y013973D03*
X013324Y013998D03*
X013334Y014023D03*
X013344Y014048D03*
X013349Y014063D03*
X013359Y014088D03*
X013024Y014153D03*
X013024Y014158D03*
X013024Y014163D03*
X013024Y014168D03*
X013024Y014173D03*
X013024Y014178D03*
X013029Y014183D03*
X013029Y014188D03*
X013029Y014193D03*
X013029Y014198D03*
X013029Y014203D03*
X013029Y014208D03*
X013034Y014213D03*
X013034Y014218D03*
X013034Y014223D03*
X013034Y014228D03*
X013034Y014233D03*
X013039Y014243D03*
X013039Y014248D03*
X013039Y014253D03*
X013039Y014258D03*
X013039Y014263D03*
X013044Y014273D03*
X013044Y014278D03*
X013044Y014283D03*
X013044Y014288D03*
X013044Y014293D03*
X013049Y014303D03*
X013049Y014308D03*
X013049Y014313D03*
X013049Y014318D03*
X013049Y014323D03*
X013054Y014333D03*
X013054Y014338D03*
X013054Y014343D03*
X013054Y014348D03*
X013059Y014363D03*
X013059Y014368D03*
X013059Y014373D03*
X013059Y014378D03*
X013064Y014393D03*
X013064Y014398D03*
X013064Y014403D03*
X013064Y014408D03*
X013089Y014548D03*
X013089Y014553D03*
X013019Y014148D03*
X013019Y014143D03*
X013019Y014138D03*
X013019Y014133D03*
X013019Y014128D03*
X013019Y014123D03*
X013014Y014113D03*
X013014Y014108D03*
X013014Y014103D03*
X013014Y014098D03*
X013014Y014093D03*
X013009Y014083D03*
X013009Y014078D03*
X013009Y014073D03*
X013009Y014068D03*
X013004Y014058D03*
X013004Y014053D03*
X013004Y014048D03*
X013004Y014043D03*
X013004Y014038D03*
X012999Y014028D03*
X012999Y014023D03*
X012999Y014018D03*
X012999Y014013D03*
X012999Y014008D03*
X012994Y013998D03*
X012994Y013993D03*
X012994Y013988D03*
X012994Y013983D03*
X012994Y013978D03*
X012989Y013968D03*
X012989Y013963D03*
X012989Y013958D03*
X012989Y013953D03*
X012984Y013943D03*
X012984Y013938D03*
X012984Y013933D03*
X012984Y013928D03*
X012984Y013923D03*
X012979Y013913D03*
X012979Y013908D03*
X012979Y013903D03*
X012979Y013898D03*
X012979Y013893D03*
X012974Y013883D03*
X012974Y013878D03*
X012974Y013873D03*
X012974Y013868D03*
X012974Y013863D03*
X012969Y013853D03*
X012969Y013848D03*
X012969Y013843D03*
X012969Y013838D03*
X012969Y013833D03*
X012964Y013823D03*
X012964Y013818D03*
X012964Y013813D03*
X012964Y013808D03*
X012959Y013798D03*
X012959Y013793D03*
X012959Y013788D03*
X012959Y013783D03*
X012959Y013778D03*
X012954Y013768D03*
X012954Y013763D03*
X012954Y013758D03*
X012954Y013753D03*
X012954Y013748D03*
X012949Y013738D03*
X012949Y013733D03*
X012949Y013728D03*
X012949Y013723D03*
X012949Y013718D03*
X012944Y013708D03*
X012944Y013703D03*
X012944Y013698D03*
X012944Y013693D03*
X012939Y013683D03*
X012939Y013678D03*
X012939Y013673D03*
X012939Y013668D03*
X012939Y013663D03*
X012919Y013548D03*
X012799Y013508D03*
X012789Y013533D03*
X012809Y013483D03*
X012819Y013458D03*
X012749Y013643D03*
X012464Y013718D03*
X012459Y013698D03*
X012454Y013678D03*
X012449Y013653D03*
X012444Y013633D03*
X012439Y013613D03*
X012434Y013588D03*
X012429Y013568D03*
X012424Y013548D03*
X012419Y013523D03*
X012414Y013503D03*
X012409Y013483D03*
X012404Y013458D03*
X012399Y013438D03*
X012394Y013418D03*
X012389Y013393D03*
X012384Y013378D03*
X012384Y013373D03*
X012379Y013363D03*
X012379Y013358D03*
X012379Y013353D03*
X012374Y013338D03*
X012374Y013333D03*
X012374Y013328D03*
X012369Y013318D03*
X012369Y013313D03*
X012344Y013208D03*
X012344Y013203D03*
X012219Y013203D03*
X012219Y013208D03*
X012219Y013213D03*
X012214Y013253D03*
X012214Y013258D03*
X012209Y013283D03*
X012209Y013288D03*
X012209Y013293D03*
X012209Y013298D03*
X012209Y013303D03*
X012204Y013313D03*
X012204Y013318D03*
X012204Y013323D03*
X012204Y013328D03*
X012204Y013333D03*
X012204Y013338D03*
X012204Y013343D03*
X012204Y013348D03*
X012199Y013358D03*
X012199Y013363D03*
X012199Y013368D03*
X012199Y013373D03*
X012199Y013378D03*
X012199Y013383D03*
X012179Y013558D03*
X012179Y013563D03*
X012469Y013743D03*
X012474Y013763D03*
X012479Y013783D03*
X012484Y013808D03*
X012489Y013828D03*
X012494Y013848D03*
X012499Y013873D03*
X012504Y013893D03*
X012509Y013913D03*
X012514Y013938D03*
X012519Y013958D03*
X012524Y013978D03*
X012529Y014003D03*
X012534Y014023D03*
X012539Y014043D03*
X012544Y014063D03*
X012544Y014068D03*
X012549Y014088D03*
X012554Y014108D03*
X012579Y014218D03*
X012579Y014223D03*
X012224Y013168D03*
X012224Y013163D03*
X012224Y013158D03*
X012224Y013153D03*
X012229Y013143D03*
X012229Y013138D03*
X012229Y013133D03*
X012229Y013128D03*
X012229Y013123D03*
X012229Y013118D03*
X012229Y013113D03*
X012229Y013108D03*
X012229Y013103D03*
X012234Y013098D03*
X012234Y013093D03*
X012234Y013088D03*
X012234Y013083D03*
X012234Y013078D03*
X012234Y013073D03*
X012234Y013068D03*
X012234Y013063D03*
X012234Y013058D03*
X012234Y013053D03*
X012239Y013048D03*
X012239Y013043D03*
X012239Y013038D03*
X012239Y013033D03*
X012239Y013028D03*
X012239Y013023D03*
X012239Y013018D03*
X012239Y013013D03*
X012239Y013008D03*
X012239Y013003D03*
X012244Y012998D03*
X012244Y012993D03*
X012244Y012988D03*
X012244Y012983D03*
X012244Y012978D03*
X012244Y012973D03*
X012244Y012968D03*
X012244Y012963D03*
X012244Y012958D03*
X012244Y012953D03*
X012249Y012948D03*
X012249Y012943D03*
X012249Y012938D03*
X012249Y012933D03*
X012249Y012928D03*
X012249Y012923D03*
X012249Y012918D03*
X012249Y012913D03*
X012249Y012908D03*
X012249Y012903D03*
X012254Y012898D03*
X012259Y012813D03*
D74*
X011464Y012848D03*
X013184Y012818D03*
X012449Y014378D03*
X012104Y014508D03*
D75*
X011717Y014333D03*
X011712Y014328D03*
X011707Y014323D03*
X011242Y013913D03*
X011237Y013908D03*
X011317Y012933D03*
X011322Y012928D03*
X011327Y012923D03*
X012847Y012818D03*
X012852Y012823D03*
X012857Y012828D03*
X013577Y012998D03*
X013582Y013003D03*
X013837Y013523D03*
X013832Y014023D03*
D76*
X013412Y014223D03*
X013412Y014228D03*
X013417Y014238D03*
X013422Y014253D03*
X013427Y014263D03*
X013432Y014278D03*
X013437Y014288D03*
X013442Y014303D03*
X013452Y014328D03*
X013462Y014353D03*
X013467Y014368D03*
X013472Y014378D03*
X013477Y014393D03*
X013482Y014403D03*
X013487Y014418D03*
X013492Y014428D03*
X013497Y014443D03*
X013502Y014453D03*
X013507Y014468D03*
X013512Y014478D03*
X013517Y014493D03*
X013522Y014503D03*
X013522Y014508D03*
X013527Y014518D03*
X013532Y014528D03*
X013532Y014533D03*
X013532Y014538D03*
X013537Y014543D03*
X013537Y014548D03*
X013542Y014553D03*
X013367Y014103D03*
X013362Y014098D03*
X013362Y014093D03*
X013357Y014083D03*
X013357Y014078D03*
X013352Y014073D03*
X013352Y014068D03*
X013347Y014058D03*
X013347Y014053D03*
X013342Y014043D03*
X013342Y014038D03*
X013337Y014033D03*
X013337Y014028D03*
X013332Y014018D03*
X013332Y014013D03*
X013327Y014008D03*
X013327Y014003D03*
X013322Y013993D03*
X013322Y013988D03*
X013317Y013983D03*
X013317Y013978D03*
X013312Y013968D03*
X013312Y013963D03*
X013307Y013958D03*
X013307Y013953D03*
X013302Y013943D03*
X013302Y013938D03*
X013297Y013933D03*
X013297Y013928D03*
X013292Y013918D03*
X013292Y013913D03*
X013287Y013908D03*
X013287Y013903D03*
X013287Y013898D03*
X013282Y013893D03*
X013282Y013888D03*
X013277Y013883D03*
X013277Y013878D03*
X013277Y013873D03*
X013272Y013868D03*
X013272Y013863D03*
X013267Y013853D03*
X013267Y013848D03*
X013262Y013843D03*
X013262Y013838D03*
X013257Y013828D03*
X013257Y013823D03*
X013252Y013818D03*
X013252Y013813D03*
X013247Y013803D03*
X013247Y013798D03*
X013242Y013793D03*
X013242Y013788D03*
X013237Y013778D03*
X013237Y013773D03*
X013232Y013768D03*
X013232Y013763D03*
X013232Y013758D03*
X013227Y013753D03*
X013227Y013748D03*
X013222Y013743D03*
X013222Y013738D03*
X013222Y013733D03*
X013217Y013728D03*
X013217Y013723D03*
X013212Y013718D03*
X013212Y013713D03*
X013212Y013708D03*
X013207Y013703D03*
X013207Y013698D03*
X013202Y013688D03*
X013202Y013683D03*
X013197Y013678D03*
X013197Y013673D03*
X013192Y013663D03*
X013192Y013658D03*
X013187Y013653D03*
X013187Y013648D03*
X013182Y013638D03*
X013182Y013633D03*
X013177Y013628D03*
X013177Y013623D03*
X013172Y013613D03*
X013172Y013608D03*
X013167Y013603D03*
X013167Y013598D03*
X013167Y013593D03*
X013162Y013588D03*
X013162Y013583D03*
X013157Y013578D03*
X013157Y013573D03*
X013157Y013568D03*
X013152Y013563D03*
X013152Y013558D03*
X013147Y013548D03*
X013147Y013543D03*
X013142Y013538D03*
X013142Y013533D03*
X013137Y013523D03*
X013137Y013518D03*
X013132Y013513D03*
X013132Y013508D03*
X013127Y013498D03*
X013127Y013493D03*
X013122Y013488D03*
X013122Y013483D03*
X013117Y013473D03*
X013117Y013468D03*
X013112Y013463D03*
X013112Y013458D03*
X013112Y013453D03*
X013107Y013448D03*
X013107Y013443D03*
X013102Y013438D03*
X013102Y013433D03*
X013102Y013428D03*
X013097Y013423D03*
X013097Y013418D03*
X013092Y013408D03*
X013092Y013403D03*
X013087Y013398D03*
X013087Y013393D03*
X013082Y013383D03*
X013082Y013378D03*
X013077Y013373D03*
X013077Y013368D03*
X013072Y013358D03*
X013072Y013353D03*
X013067Y013348D03*
X013067Y013343D03*
X013062Y013333D03*
X013062Y013328D03*
X013057Y013323D03*
X013057Y013318D03*
X013057Y013313D03*
X013052Y013308D03*
X013052Y013303D03*
X013047Y013298D03*
X013047Y013293D03*
X013047Y013288D03*
X013042Y013283D03*
X013042Y013278D03*
X013037Y013268D03*
X013037Y013263D03*
X013032Y013258D03*
X013032Y013253D03*
X013027Y013243D03*
X013027Y013238D03*
X013022Y013233D03*
X013022Y013228D03*
X013017Y013218D03*
X013017Y013213D03*
X013012Y013208D03*
X013012Y013203D03*
X013007Y013193D03*
X013007Y013188D03*
X013002Y013183D03*
X012922Y013203D03*
X012912Y013228D03*
X012907Y013238D03*
X012902Y013253D03*
X012897Y013263D03*
X012892Y013273D03*
X012892Y013278D03*
X012887Y013288D03*
X012882Y013298D03*
X012882Y013303D03*
X012877Y013313D03*
X012872Y013323D03*
X012872Y013328D03*
X012867Y013338D03*
X012862Y013348D03*
X012857Y013358D03*
X012857Y013363D03*
X012852Y013373D03*
X012847Y013383D03*
X012847Y013388D03*
X012842Y013398D03*
X012837Y013408D03*
X012837Y013413D03*
X012837Y013418D03*
X012832Y013423D03*
X012832Y013428D03*
X012827Y013433D03*
X012827Y013438D03*
X012827Y013443D03*
X012822Y013448D03*
X012822Y013453D03*
X012817Y013463D03*
X012817Y013468D03*
X012812Y013473D03*
X012812Y013478D03*
X012807Y013488D03*
X012807Y013493D03*
X012802Y013498D03*
X012802Y013503D03*
X012797Y013513D03*
X012797Y013518D03*
X012792Y013523D03*
X012792Y013528D03*
X012787Y013538D03*
X012787Y013543D03*
X012782Y013548D03*
X012782Y013553D03*
X012782Y013558D03*
X012747Y013638D03*
X012797Y013788D03*
X012792Y013798D03*
X012787Y013808D03*
X012782Y013818D03*
X012777Y013828D03*
X012772Y013838D03*
X012767Y013848D03*
X012762Y013858D03*
X012757Y013868D03*
X012752Y013878D03*
X012747Y013883D03*
X012747Y013888D03*
X012742Y013893D03*
X012742Y013898D03*
X012737Y013903D03*
X012737Y013908D03*
X012732Y013913D03*
X012732Y013918D03*
X012727Y013923D03*
X012722Y013933D03*
X012717Y013943D03*
X012712Y013953D03*
X012707Y013963D03*
X012702Y013973D03*
X012697Y013983D03*
X012692Y013993D03*
X012687Y014003D03*
X012682Y014013D03*
X012677Y014023D03*
X012672Y014033D03*
X012667Y014043D03*
X012662Y014053D03*
X012657Y014063D03*
X012652Y014073D03*
X012647Y014083D03*
X012642Y014093D03*
X012637Y014103D03*
X012632Y014113D03*
X012627Y014123D03*
X012557Y014123D03*
X012557Y014118D03*
X012557Y014113D03*
X012552Y014103D03*
X012552Y014098D03*
X012552Y014093D03*
X012547Y014083D03*
X012547Y014078D03*
X012547Y014073D03*
X012542Y014058D03*
X012542Y014053D03*
X012542Y014048D03*
X012537Y014038D03*
X012537Y014033D03*
X012537Y014028D03*
X012532Y014018D03*
X012532Y014013D03*
X012532Y014008D03*
X012527Y013998D03*
X012527Y013993D03*
X012527Y013988D03*
X012527Y013983D03*
X012522Y013973D03*
X012522Y013968D03*
X012522Y013963D03*
X012517Y013953D03*
X012517Y013948D03*
X012517Y013943D03*
X012512Y013933D03*
X012512Y013928D03*
X012512Y013923D03*
X012512Y013918D03*
X012507Y013908D03*
X012507Y013903D03*
X012507Y013898D03*
X012502Y013888D03*
X012502Y013883D03*
X012502Y013878D03*
X012497Y013868D03*
X012497Y013863D03*
X012497Y013858D03*
X012497Y013853D03*
X012492Y013843D03*
X012492Y013838D03*
X012492Y013833D03*
X012487Y013823D03*
X012487Y013818D03*
X012487Y013813D03*
X012482Y013803D03*
X012482Y013798D03*
X012482Y013793D03*
X012482Y013788D03*
X012477Y013778D03*
X012477Y013773D03*
X012477Y013768D03*
X012472Y013758D03*
X012472Y013753D03*
X012472Y013748D03*
X012467Y013738D03*
X012467Y013733D03*
X012467Y013728D03*
X012467Y013723D03*
X012462Y013713D03*
X012462Y013708D03*
X012462Y013703D03*
X012457Y013693D03*
X012457Y013688D03*
X012457Y013683D03*
X012452Y013673D03*
X012452Y013668D03*
X012452Y013663D03*
X012452Y013658D03*
X012447Y013648D03*
X012447Y013643D03*
X012447Y013638D03*
X012442Y013628D03*
X012442Y013623D03*
X012442Y013618D03*
X012437Y013608D03*
X012437Y013603D03*
X012437Y013598D03*
X012437Y013593D03*
X012432Y013583D03*
X012432Y013578D03*
X012432Y013573D03*
X012427Y013563D03*
X012427Y013558D03*
X012427Y013553D03*
X012422Y013543D03*
X012422Y013538D03*
X012422Y013533D03*
X012422Y013528D03*
X012417Y013518D03*
X012417Y013513D03*
X012417Y013508D03*
X012412Y013498D03*
X012412Y013493D03*
X012412Y013488D03*
X012407Y013478D03*
X012407Y013473D03*
X012407Y013468D03*
X012407Y013463D03*
X012402Y013453D03*
X012402Y013448D03*
X012402Y013443D03*
X012397Y013433D03*
X012397Y013428D03*
X012397Y013423D03*
X012392Y013413D03*
X012392Y013408D03*
X012392Y013403D03*
X012392Y013398D03*
X012387Y013388D03*
X012387Y013383D03*
X012382Y013368D03*
X012377Y013348D03*
X012377Y013343D03*
X012372Y013323D03*
X012302Y013313D03*
X012297Y013323D03*
X012292Y013333D03*
X012287Y013343D03*
X012282Y013353D03*
X012277Y013363D03*
X012272Y013373D03*
X012267Y013383D03*
X012202Y013353D03*
X012207Y013308D03*
X012212Y013278D03*
X012212Y013273D03*
X012212Y013268D03*
X012212Y013263D03*
X012217Y013248D03*
X012217Y013243D03*
X012217Y013238D03*
X012217Y013233D03*
X012217Y013228D03*
X012217Y013223D03*
X012217Y013218D03*
X012222Y013198D03*
X012222Y013193D03*
X012222Y013188D03*
X012222Y013183D03*
X012222Y013178D03*
X012222Y013173D03*
X012227Y013148D03*
X012347Y013213D03*
X012182Y013548D03*
X012182Y013553D03*
X012917Y013553D03*
X012937Y013658D03*
X012942Y013688D03*
X012947Y013713D03*
X012952Y013743D03*
X012957Y013773D03*
X012962Y013803D03*
X012967Y013828D03*
X012972Y013858D03*
X012977Y013888D03*
X012982Y013918D03*
X012987Y013948D03*
X012992Y013973D03*
X012997Y014003D03*
X013002Y014033D03*
X013007Y014063D03*
X013012Y014088D03*
X013017Y014118D03*
X012582Y014208D03*
X012582Y014213D03*
X012467Y014308D03*
X012932Y012958D03*
X012262Y012818D03*
D77*
X013182Y012823D03*
D78*
X012969Y013098D03*
X012969Y013103D03*
X012929Y013183D03*
X012929Y013188D03*
X012924Y013193D03*
X012924Y013198D03*
X012919Y013208D03*
X012919Y013213D03*
X012914Y013218D03*
X012914Y013223D03*
X012909Y013233D03*
X012904Y013243D03*
X012904Y013248D03*
X012899Y013258D03*
X012894Y013268D03*
X012889Y013283D03*
X012884Y013293D03*
X012879Y013308D03*
X012874Y013318D03*
X012869Y013333D03*
X012864Y013343D03*
X012859Y013353D03*
X012854Y013368D03*
X012849Y013378D03*
X012844Y013393D03*
X012839Y013403D03*
X012914Y013558D03*
X012914Y013563D03*
X012864Y013658D03*
X012859Y013668D03*
X012854Y013678D03*
X012849Y013683D03*
X012849Y013688D03*
X012844Y013693D03*
X012844Y013698D03*
X012839Y013703D03*
X012839Y013708D03*
X012834Y013713D03*
X012834Y013718D03*
X012829Y013723D03*
X012829Y013728D03*
X012824Y013733D03*
X012824Y013738D03*
X012819Y013743D03*
X012819Y013748D03*
X012814Y013753D03*
X012814Y013758D03*
X012809Y013763D03*
X012809Y013768D03*
X012804Y013773D03*
X012804Y013778D03*
X012799Y013783D03*
X012794Y013793D03*
X012789Y013803D03*
X012784Y013813D03*
X012779Y013823D03*
X012774Y013833D03*
X012769Y013843D03*
X012764Y013853D03*
X012759Y013863D03*
X012754Y013873D03*
X012724Y013928D03*
X012719Y013938D03*
X012714Y013948D03*
X012709Y013958D03*
X012704Y013968D03*
X012699Y013978D03*
X012694Y013988D03*
X012689Y013998D03*
X012684Y014008D03*
X012679Y014018D03*
X012674Y014028D03*
X012669Y014038D03*
X012664Y014048D03*
X012659Y014058D03*
X012654Y014068D03*
X012649Y014078D03*
X012644Y014088D03*
X012639Y014098D03*
X012634Y014108D03*
X012629Y014118D03*
X012749Y013633D03*
X012684Y013518D03*
X012669Y013493D03*
X012654Y013468D03*
X012649Y013458D03*
X012639Y013443D03*
X012634Y013433D03*
X012629Y013423D03*
X012624Y013418D03*
X012619Y013408D03*
X012614Y013398D03*
X012609Y013393D03*
X012604Y013383D03*
X012599Y013373D03*
X012594Y013363D03*
X012589Y013358D03*
X012589Y013353D03*
X012584Y013348D03*
X012584Y013343D03*
X012579Y013338D03*
X012574Y013333D03*
X012574Y013328D03*
X012569Y013323D03*
X012569Y013318D03*
X012564Y013313D03*
X012559Y013308D03*
X012559Y013303D03*
X012554Y013298D03*
X012554Y013293D03*
X012549Y013288D03*
X012544Y013283D03*
X012544Y013278D03*
X012539Y013273D03*
X012539Y013268D03*
X012534Y013263D03*
X012529Y013258D03*
X012529Y013253D03*
X012524Y013248D03*
X012524Y013243D03*
X012519Y013238D03*
X012514Y013233D03*
X012514Y013228D03*
X012509Y013223D03*
X012509Y013218D03*
X012504Y013213D03*
X012499Y013208D03*
X012499Y013203D03*
X012494Y013198D03*
X012494Y013193D03*
X012489Y013188D03*
X012484Y013183D03*
X012484Y013178D03*
X012479Y013173D03*
X012479Y013168D03*
X012474Y013163D03*
X012469Y013158D03*
X012469Y013153D03*
X012464Y013148D03*
X012464Y013143D03*
X012459Y013138D03*
X012454Y013133D03*
X012454Y013128D03*
X012449Y013123D03*
X012344Y013218D03*
X012344Y013223D03*
X012299Y013318D03*
X012294Y013328D03*
X012289Y013338D03*
X012284Y013348D03*
X012279Y013358D03*
X012274Y013368D03*
X012269Y013378D03*
X012184Y013543D03*
X012264Y012823D03*
X013414Y014233D03*
X013419Y014243D03*
X013419Y014248D03*
X013424Y014258D03*
X013429Y014268D03*
X013429Y014273D03*
X013434Y014283D03*
X013439Y014293D03*
X013439Y014298D03*
X013444Y014308D03*
X013444Y014313D03*
X013449Y014318D03*
X013449Y014323D03*
X013454Y014333D03*
X013454Y014338D03*
X013459Y014343D03*
X013459Y014348D03*
X013464Y014358D03*
X013464Y014363D03*
X013469Y014373D03*
X013474Y014383D03*
X013474Y014388D03*
X013479Y014398D03*
X013484Y014408D03*
X013484Y014413D03*
X013489Y014423D03*
X013494Y014433D03*
X013494Y014438D03*
X013499Y014448D03*
X013504Y014458D03*
X013504Y014463D03*
X013509Y014473D03*
X013514Y014483D03*
X013514Y014488D03*
X013519Y014498D03*
X013524Y014513D03*
X013529Y014523D03*
D79*
X013547Y014158D03*
X013182Y012828D03*
D80*
X012969Y013113D03*
X012914Y013568D03*
X012914Y013573D03*
X012454Y013118D03*
X012269Y012828D03*
X012194Y013513D03*
X012194Y013518D03*
X012584Y014193D03*
X012584Y014198D03*
D81*
X012102Y014493D03*
X013557Y014143D03*
X013182Y012833D03*
D82*
X012862Y012833D03*
X013597Y013018D03*
X013602Y013023D03*
X013852Y013538D03*
X013857Y013543D03*
X013862Y013548D03*
X013862Y013998D03*
X013857Y014003D03*
X013852Y014008D03*
X012462Y014348D03*
X011212Y013888D03*
X011207Y013883D03*
X011202Y013438D03*
X011207Y013433D03*
X011212Y013428D03*
X011217Y013423D03*
X011242Y013398D03*
X011252Y013383D03*
X011302Y012948D03*
X011307Y012943D03*
X011312Y012938D03*
D83*
X012272Y012833D03*
X012342Y013238D03*
X012342Y013243D03*
X012342Y013248D03*
X012197Y013503D03*
X012197Y013508D03*
X012747Y013618D03*
X012912Y013583D03*
X012912Y013578D03*
X012587Y014188D03*
X012467Y014313D03*
D84*
X013092Y012838D03*
D85*
X011734Y012838D03*
D86*
X012277Y012843D03*
X012342Y013258D03*
X012207Y013473D03*
X012207Y013478D03*
X012202Y013488D03*
X012747Y013608D03*
X012907Y013593D03*
X012967Y013123D03*
X012587Y014173D03*
X012587Y014178D03*
X013052Y014428D03*
D87*
X011487Y014038D03*
X011967Y012843D03*
D88*
X013117Y012848D03*
D89*
X012967Y013138D03*
X012482Y012993D03*
X012467Y012983D03*
X012447Y012968D03*
X012432Y012958D03*
X012427Y012953D03*
X012417Y012948D03*
X012362Y012908D03*
X012347Y012898D03*
X012282Y012848D03*
X012337Y013273D03*
X012212Y013453D03*
X012212Y013458D03*
X012907Y013603D03*
X012907Y013608D03*
X012587Y014163D03*
X012587Y014168D03*
X012867Y014553D03*
X013427Y014218D03*
D90*
X013509Y014188D03*
X013449Y012928D03*
X011979Y012848D03*
D91*
X013124Y012853D03*
X012104Y014448D03*
D92*
X012222Y013428D03*
X012222Y013423D03*
X012337Y013293D03*
X012337Y013288D03*
X012337Y013283D03*
X012467Y013113D03*
X012552Y013043D03*
X012407Y012943D03*
X012402Y012938D03*
X012387Y012928D03*
X012282Y012853D03*
X012022Y012893D03*
X012967Y013148D03*
X012902Y013623D03*
D93*
X012452Y014373D03*
X011837Y014398D03*
X011357Y013978D03*
X011452Y012853D03*
D94*
X012284Y012858D03*
X012559Y013053D03*
X012334Y013298D03*
X012224Y013413D03*
X012224Y013418D03*
X012744Y013583D03*
X012904Y013628D03*
X012589Y014143D03*
X012589Y014148D03*
X012464Y014323D03*
X013039Y014433D03*
X012964Y013158D03*
X012964Y013153D03*
D95*
X012529Y013083D03*
X011439Y012858D03*
X011819Y014393D03*
D96*
X013142Y012863D03*
D97*
X012939Y012943D03*
X012964Y013168D03*
X012334Y013308D03*
X012234Y013388D03*
X012229Y013398D03*
X012289Y012863D03*
X012019Y012888D03*
X012899Y013643D03*
X012899Y013648D03*
X012594Y014128D03*
X012464Y014328D03*
D98*
X012104Y014443D03*
X013149Y012868D03*
D99*
X012967Y013173D03*
X012742Y013563D03*
X012742Y013568D03*
X012897Y013653D03*
X012292Y012868D03*
D100*
X011414Y012868D03*
X011534Y014073D03*
X011799Y014383D03*
X012104Y014513D03*
X013494Y014198D03*
X013749Y014078D03*
X013744Y013463D03*
X013734Y013458D03*
X013729Y013453D03*
X013724Y013448D03*
D101*
X012964Y013178D03*
X012294Y012873D03*
D102*
X012009Y012873D03*
X012494Y013103D03*
X012949Y012933D03*
X013609Y013028D03*
X013614Y013033D03*
X013619Y013038D03*
X013864Y013993D03*
X012104Y014518D03*
X011684Y014303D03*
X011679Y014298D03*
X011674Y014293D03*
X011669Y014288D03*
X011204Y013878D03*
X011199Y013873D03*
X011194Y013868D03*
X011199Y013443D03*
X011254Y013378D03*
X011294Y012953D03*
D103*
X013167Y012878D03*
X013172Y012883D03*
D104*
X012944Y012938D03*
X012299Y012878D03*
X011219Y013073D03*
X011214Y013083D03*
X011214Y013088D03*
X011214Y013093D03*
X011209Y013103D03*
X011209Y013108D03*
X011209Y013113D03*
X011204Y013123D03*
X011204Y013128D03*
X011204Y013133D03*
X011204Y013138D03*
X011204Y013143D03*
X011199Y013183D03*
X011199Y013188D03*
X011199Y013193D03*
X011204Y013213D03*
X011204Y013218D03*
X011204Y013223D03*
X011204Y013228D03*
X011204Y013233D03*
X011209Y013238D03*
X011209Y013243D03*
X011209Y013248D03*
X011209Y013253D03*
X011214Y013258D03*
X011214Y013263D03*
X011219Y013278D03*
X011129Y013548D03*
X011124Y013563D03*
X011119Y013573D03*
X011119Y013578D03*
X011119Y013583D03*
X011114Y013593D03*
X011114Y013598D03*
X011114Y013603D03*
X011114Y013608D03*
X011109Y013623D03*
X011109Y013628D03*
X011109Y013633D03*
X011109Y013638D03*
X011109Y013643D03*
X011109Y013648D03*
X011109Y013653D03*
X011109Y013658D03*
X011109Y013663D03*
X011109Y013668D03*
X011109Y013673D03*
X011109Y013678D03*
X011109Y013683D03*
X011109Y013688D03*
X011114Y013708D03*
X011114Y013713D03*
X011114Y013718D03*
X011114Y013723D03*
X011119Y013728D03*
X011119Y013733D03*
X011119Y013738D03*
X011124Y013748D03*
X011124Y013753D03*
X011584Y014098D03*
X011584Y014103D03*
X011584Y014108D03*
X011589Y014123D03*
X011589Y014128D03*
X011589Y014133D03*
X011589Y014138D03*
X011594Y014148D03*
X011594Y014153D03*
X011594Y014158D03*
X011599Y014168D03*
X011604Y014183D03*
X013689Y013348D03*
X013694Y013338D03*
X013694Y013333D03*
X013694Y013328D03*
X013699Y013318D03*
X013699Y013313D03*
X013699Y013308D03*
X013699Y013303D03*
X013704Y013293D03*
X013704Y013288D03*
X013704Y013283D03*
X013704Y013278D03*
X013704Y013273D03*
X013704Y013268D03*
X013704Y013263D03*
X013704Y013258D03*
X013704Y013253D03*
X013704Y013248D03*
X013704Y013243D03*
X013704Y013238D03*
X013704Y013233D03*
X013704Y013228D03*
X013704Y013223D03*
X013704Y013218D03*
X013704Y013213D03*
X013699Y013198D03*
X013699Y013193D03*
X013699Y013188D03*
X013699Y013183D03*
X013694Y013178D03*
X013694Y013173D03*
X013694Y013168D03*
X013689Y013158D03*
X013944Y013678D03*
X013949Y013693D03*
X013949Y013698D03*
X013949Y013703D03*
X013954Y013708D03*
X013954Y013713D03*
X013954Y013718D03*
X013954Y013723D03*
X013959Y013733D03*
X013959Y013738D03*
X013959Y013743D03*
X013959Y013748D03*
X013959Y013753D03*
X013959Y013758D03*
X013959Y013763D03*
X013959Y013768D03*
X013959Y013773D03*
X013959Y013778D03*
X013959Y013783D03*
X013959Y013788D03*
X013959Y013793D03*
X013959Y013798D03*
X013959Y013803D03*
X013959Y013808D03*
X013954Y013823D03*
X013954Y013828D03*
X013954Y013833D03*
X013954Y013838D03*
X013949Y013843D03*
X013949Y013848D03*
X013949Y013853D03*
X013944Y013863D03*
X013944Y013868D03*
D105*
X013934Y013893D03*
X013929Y013903D03*
X013924Y013913D03*
X013919Y013923D03*
X013914Y013933D03*
X013934Y013653D03*
X013929Y013643D03*
X013924Y013633D03*
X013919Y013623D03*
X013914Y013613D03*
X013674Y013383D03*
X013679Y013373D03*
X013674Y013118D03*
X013669Y013108D03*
X013664Y013103D03*
X013659Y013093D03*
X012014Y012878D03*
X011249Y013013D03*
X011244Y013018D03*
X011244Y013023D03*
X011239Y013028D03*
X011234Y013038D03*
X011229Y013048D03*
X011229Y013303D03*
X011234Y013313D03*
X011239Y013323D03*
X011244Y013328D03*
X011249Y013338D03*
X011259Y013358D03*
X011154Y013498D03*
X011149Y013508D03*
X011144Y013513D03*
X011144Y013518D03*
X011139Y013788D03*
X011144Y013798D03*
X011149Y013803D03*
X011149Y013808D03*
X011154Y013813D03*
X011159Y013823D03*
X011619Y014213D03*
X011619Y014218D03*
X011624Y014223D03*
X011624Y014228D03*
X011629Y014233D03*
X012464Y014338D03*
D106*
X011617Y014208D03*
X011612Y014203D03*
X011612Y014198D03*
X011607Y014193D03*
X011607Y014188D03*
X011602Y014178D03*
X011602Y014173D03*
X011597Y014163D03*
X011142Y013793D03*
X011137Y013783D03*
X011137Y013778D03*
X011132Y013773D03*
X011132Y013768D03*
X011127Y013763D03*
X011127Y013758D03*
X011122Y013743D03*
X011117Y013588D03*
X011122Y013568D03*
X011127Y013558D03*
X011127Y013553D03*
X011132Y013543D03*
X011132Y013538D03*
X011137Y013533D03*
X011137Y013528D03*
X011142Y013523D03*
X011237Y013318D03*
X011232Y013308D03*
X011227Y013298D03*
X011227Y013293D03*
X011222Y013288D03*
X011222Y013283D03*
X011217Y013273D03*
X011217Y013268D03*
X011212Y013098D03*
X011217Y013078D03*
X011222Y013068D03*
X011222Y013063D03*
X011227Y013058D03*
X011227Y013053D03*
X011232Y013043D03*
X011237Y013033D03*
X012302Y012883D03*
X012552Y013058D03*
X013672Y013113D03*
X013677Y013123D03*
X013677Y013128D03*
X013682Y013133D03*
X013682Y013138D03*
X013687Y013143D03*
X013687Y013148D03*
X013687Y013153D03*
X013692Y013163D03*
X013697Y013323D03*
X013692Y013343D03*
X013687Y013353D03*
X013687Y013358D03*
X013682Y013363D03*
X013682Y013368D03*
X013677Y013378D03*
X013672Y013388D03*
X013922Y013628D03*
X013927Y013638D03*
X013932Y013648D03*
X013937Y013658D03*
X013937Y013663D03*
X013942Y013668D03*
X013942Y013673D03*
X013947Y013683D03*
X013947Y013688D03*
X013947Y013858D03*
X013942Y013873D03*
X013942Y013878D03*
X013937Y013883D03*
X013937Y013888D03*
X013932Y013898D03*
X013927Y013908D03*
X013922Y013918D03*
D107*
X013957Y013818D03*
X013957Y013813D03*
X013957Y013728D03*
X013702Y013298D03*
X013702Y013208D03*
X013702Y013203D03*
X012482Y013108D03*
X012017Y012883D03*
X011207Y013118D03*
X011202Y013148D03*
X011202Y013153D03*
X011202Y013158D03*
X011202Y013163D03*
X011202Y013168D03*
X011202Y013173D03*
X011202Y013178D03*
X011202Y013198D03*
X011202Y013203D03*
X011202Y013208D03*
X011112Y013613D03*
X011112Y013618D03*
X011112Y013693D03*
X011112Y013698D03*
X011112Y013703D03*
X011587Y014113D03*
X011587Y014118D03*
X011592Y014143D03*
X012462Y014333D03*
X013027Y014438D03*
D108*
X012104Y014438D03*
X013179Y012888D03*
D109*
X012967Y012923D03*
X012532Y013068D03*
X013527Y012963D03*
X013697Y013423D03*
X013787Y013488D03*
X013787Y014058D03*
X013482Y014203D03*
X012457Y014358D03*
X011377Y012888D03*
D110*
X011274Y012978D03*
X011269Y012983D03*
X011264Y012988D03*
X011184Y013458D03*
X011179Y013463D03*
X011174Y013468D03*
X011174Y013473D03*
X011169Y013478D03*
X011164Y013483D03*
X011169Y013838D03*
X011174Y013843D03*
X011179Y013848D03*
X011179Y013853D03*
X011649Y014263D03*
X011654Y014268D03*
X013459Y014213D03*
X013884Y013973D03*
X013889Y013968D03*
X013894Y013963D03*
X013899Y013953D03*
X013899Y013593D03*
X013894Y013583D03*
X013889Y013578D03*
X013884Y013573D03*
X013644Y013068D03*
X013639Y013063D03*
X013634Y013058D03*
X012309Y012893D03*
D111*
X012024Y012898D03*
X012339Y013263D03*
X012339Y013268D03*
X012209Y013463D03*
X012209Y013468D03*
X012744Y013598D03*
X012744Y013603D03*
X012909Y013598D03*
X012964Y013133D03*
X012964Y013128D03*
X012464Y014318D03*
D112*
X012582Y014203D03*
X013062Y014423D03*
X013372Y014108D03*
X012857Y013673D03*
X012862Y013663D03*
X012747Y013628D03*
X012747Y013623D03*
X012707Y013558D03*
X012707Y013553D03*
X012702Y013548D03*
X012697Y013543D03*
X012697Y013538D03*
X012692Y013533D03*
X012692Y013528D03*
X012687Y013523D03*
X012682Y013513D03*
X012677Y013508D03*
X012677Y013503D03*
X012672Y013498D03*
X012667Y013488D03*
X012662Y013483D03*
X012662Y013478D03*
X012657Y013473D03*
X012652Y013463D03*
X012647Y013453D03*
X012642Y013448D03*
X012637Y013438D03*
X012632Y013428D03*
X012622Y013413D03*
X012617Y013403D03*
X012607Y013388D03*
X012602Y013378D03*
X012597Y013368D03*
X012342Y013233D03*
X012342Y013228D03*
X012192Y013523D03*
X012192Y013528D03*
X012187Y013533D03*
X012187Y013538D03*
X012967Y013108D03*
X012022Y012903D03*
D113*
X013204Y012908D03*
D114*
X013212Y012913D03*
D115*
X013409Y012918D03*
X013529Y014173D03*
D116*
X011852Y014403D03*
X011507Y014053D03*
X013437Y012923D03*
D117*
X013622Y013043D03*
X013627Y013048D03*
X013632Y013053D03*
X013677Y013398D03*
X013867Y013553D03*
X013872Y013558D03*
X013877Y013563D03*
X013882Y013568D03*
X013882Y013978D03*
X013877Y013983D03*
X013872Y013988D03*
X012462Y014343D03*
X011667Y014283D03*
X011662Y014278D03*
X011657Y014273D03*
X011192Y013863D03*
X011187Y013858D03*
X011187Y013453D03*
X011192Y013448D03*
X011257Y013373D03*
X011277Y012973D03*
X011282Y012968D03*
X011287Y012963D03*
X011292Y012958D03*
D118*
X012352Y013123D03*
X012972Y013023D03*
X012932Y013468D03*
X012932Y013473D03*
X012137Y013698D03*
X012137Y013703D03*
X012467Y014303D03*
D119*
X012569Y014293D03*
X012569Y014288D03*
X012754Y013698D03*
X012754Y013693D03*
X012929Y013478D03*
X012969Y013028D03*
X012354Y013128D03*
X012354Y013133D03*
X012139Y013688D03*
X012139Y013693D03*
D120*
X012142Y013683D03*
X012142Y013678D03*
X012752Y013688D03*
X012932Y013483D03*
X012972Y013033D03*
X012352Y013138D03*
X012352Y013143D03*
X012572Y014278D03*
X012572Y014283D03*
X012107Y014523D03*
D121*
X012144Y013673D03*
X012144Y013668D03*
X012149Y013663D03*
X012149Y013658D03*
X012754Y013683D03*
X012929Y013493D03*
X012929Y013488D03*
X012969Y013043D03*
X012969Y013038D03*
D122*
X012969Y013053D03*
X012969Y013058D03*
X012924Y013508D03*
X012349Y013168D03*
X012349Y013163D03*
X012349Y013158D03*
X012154Y013638D03*
X012154Y013643D03*
X012574Y014258D03*
X012574Y014263D03*
D123*
X012592Y014138D03*
X012592Y014133D03*
X012902Y013638D03*
X012902Y013633D03*
X012742Y013578D03*
X012742Y013573D03*
X012337Y013303D03*
X012232Y013393D03*
X012227Y013403D03*
X012227Y013408D03*
X012967Y013163D03*
D124*
X012922Y013528D03*
X012922Y013533D03*
X012752Y013658D03*
X012167Y013603D03*
X012167Y013598D03*
X012347Y013188D03*
X012347Y013183D03*
X012577Y014238D03*
X012577Y014243D03*
D125*
X011454Y014013D03*
X011439Y014003D03*
X011429Y013998D03*
D126*
X011447Y014008D03*
X013542Y014163D03*
D127*
X012444Y014388D03*
X012104Y014503D03*
X011479Y014033D03*
D128*
X011494Y014043D03*
X011869Y014408D03*
X013524Y014178D03*
D129*
X013582Y014113D03*
X012872Y014518D03*
D130*
X013579Y014118D03*
D131*
X013569Y014128D03*
X012104Y014488D03*
D132*
X013567Y014133D03*
D133*
X013519Y014183D03*
D134*
X012439Y014393D03*
D135*
X012437Y014398D03*
D136*
X012429Y014403D03*
X012889Y014528D03*
D137*
X012419Y014408D03*
X012104Y014483D03*
D138*
X012197Y014413D03*
D139*
X012207Y014418D03*
D140*
X012219Y014423D03*
D141*
X012234Y014428D03*
D142*
X012252Y014433D03*
D143*
X012792Y014448D03*
X012797Y014453D03*
D144*
X012104Y014453D03*
D145*
X012802Y014458D03*
D146*
X012104Y014458D03*
D147*
X012104Y014463D03*
X012809Y014468D03*
D148*
X012819Y014478D03*
X012104Y014468D03*
D149*
X012104Y014473D03*
D150*
X012102Y014478D03*
D151*
X012827Y014483D03*
D152*
X012842Y014498D03*
D153*
X012102Y014498D03*
D154*
X012849Y014503D03*
D155*
X012864Y014513D03*
D156*
X012899Y014533D03*
D157*
X007695Y008291D02*
X007714Y008101D01*
X007778Y008080D01*
X007838Y008049D01*
X007986Y008170D01*
X008088Y008069D01*
X007967Y007920D01*
X007998Y007860D01*
X008018Y007796D01*
X008209Y007777D01*
X008209Y007633D01*
X008018Y007614D01*
X007998Y007550D01*
X007967Y007490D01*
X008088Y007341D01*
X007986Y007240D01*
X007838Y007361D01*
X007778Y007330D01*
X007693Y007534D01*
X007731Y007556D01*
X007763Y007585D01*
X007787Y007621D01*
X007802Y007662D01*
X007807Y007705D01*
X007802Y007749D01*
X007786Y007790D01*
X007761Y007827D01*
X007728Y007856D01*
X007689Y007877D01*
X007647Y007888D01*
X007603Y007888D01*
X007559Y007878D01*
X007520Y007858D01*
X007487Y007830D01*
X007461Y007794D01*
X007444Y007753D01*
X007438Y007709D01*
X007442Y007665D01*
X007457Y007623D01*
X007481Y007586D01*
X007513Y007556D01*
X007552Y007534D01*
X007467Y007330D01*
X007407Y007361D01*
X007259Y007240D01*
X007157Y007341D01*
X007278Y007490D01*
X007247Y007550D01*
X007227Y007614D01*
X007036Y007633D01*
X007036Y007777D01*
X007227Y007796D01*
X007247Y007860D01*
X007278Y007920D01*
X007157Y008069D01*
X007259Y008170D01*
X007407Y008049D01*
X007467Y008080D01*
X007531Y008101D01*
X007551Y008291D01*
X007695Y008291D01*
X007696Y008277D02*
X007549Y008277D01*
X007543Y008220D02*
X007702Y008220D01*
X007708Y008162D02*
X007538Y008162D01*
X007532Y008105D02*
X007714Y008105D01*
X007906Y008105D02*
X008052Y008105D01*
X008070Y008047D02*
X007175Y008047D01*
X007193Y008105D02*
X007340Y008105D01*
X007269Y008162D02*
X007251Y008162D01*
X007222Y007990D02*
X008023Y007990D01*
X007977Y007932D02*
X007269Y007932D01*
X007255Y007874D02*
X007552Y007874D01*
X007477Y007817D02*
X007234Y007817D01*
X007036Y007759D02*
X007447Y007759D01*
X007439Y007702D02*
X007036Y007702D01*
X007036Y007644D02*
X007450Y007644D01*
X007481Y007587D02*
X007236Y007587D01*
X007258Y007529D02*
X007550Y007529D01*
X007526Y007472D02*
X007263Y007472D01*
X007216Y007414D02*
X007502Y007414D01*
X007478Y007356D02*
X007416Y007356D01*
X007402Y007356D02*
X007169Y007356D01*
X007200Y007299D02*
X007332Y007299D01*
X007261Y007241D02*
X007257Y007241D01*
X007743Y007414D02*
X008029Y007414D01*
X008076Y007356D02*
X007843Y007356D01*
X007829Y007356D02*
X007767Y007356D01*
X007719Y007472D02*
X007982Y007472D01*
X007987Y007529D02*
X007695Y007529D01*
X007764Y007587D02*
X008010Y007587D01*
X008209Y007644D02*
X007796Y007644D01*
X007807Y007702D02*
X008209Y007702D01*
X008209Y007759D02*
X007798Y007759D01*
X007768Y007817D02*
X008012Y007817D01*
X007990Y007874D02*
X007694Y007874D01*
X007976Y008162D02*
X007994Y008162D01*
X008045Y007299D02*
X007914Y007299D01*
X007984Y007241D02*
X007988Y007241D01*
M02*
