G75*
G70*
%OFA0B0*%
%FSLAX24Y24*%
%IPPOS*%
%LPD*%
%AMOC8*
5,1,8,0,0,1.08239X$1,22.5*
%
%ADD10C,0.0000*%
%ADD11C,0.0886*%
%ADD12OC8,0.0740*%
%ADD13R,0.0472X0.0472*%
%ADD14R,0.0630X0.0512*%
%ADD15R,0.0512X0.0591*%
%ADD16R,0.0630X0.0709*%
%ADD17C,0.0768*%
%ADD18R,0.0472X0.0118*%
%ADD19C,0.0480*%
%ADD20R,0.0740X0.0740*%
%ADD21C,0.0740*%
%ADD22R,0.0591X0.0512*%
%ADD23C,0.0591*%
%ADD24OC8,0.1000*%
%ADD25C,0.0100*%
%ADD26R,0.0356X0.0356*%
%ADD27C,0.0120*%
%ADD28C,0.0160*%
D10*
X002657Y001292D02*
X002660Y001292D01*
X019195Y001292D01*
X019198Y001292D01*
X018548Y002667D02*
X018550Y002717D01*
X018556Y002767D01*
X018566Y002817D01*
X018579Y002865D01*
X018596Y002913D01*
X018617Y002959D01*
X018641Y003003D01*
X018669Y003045D01*
X018700Y003085D01*
X018734Y003122D01*
X018771Y003157D01*
X018810Y003188D01*
X018851Y003217D01*
X018895Y003242D01*
X018941Y003264D01*
X018988Y003282D01*
X019036Y003296D01*
X019085Y003307D01*
X019135Y003314D01*
X019185Y003317D01*
X019236Y003316D01*
X019286Y003311D01*
X019336Y003302D01*
X019384Y003290D01*
X019432Y003273D01*
X019478Y003253D01*
X019523Y003230D01*
X019566Y003203D01*
X019606Y003173D01*
X019644Y003140D01*
X019679Y003104D01*
X019712Y003065D01*
X019741Y003024D01*
X019767Y002981D01*
X019790Y002936D01*
X019809Y002889D01*
X019824Y002841D01*
X019836Y002792D01*
X019844Y002742D01*
X019848Y002692D01*
X019848Y002642D01*
X019844Y002592D01*
X019836Y002542D01*
X019824Y002493D01*
X019809Y002445D01*
X019790Y002398D01*
X019767Y002353D01*
X019741Y002310D01*
X019712Y002269D01*
X019679Y002230D01*
X019644Y002194D01*
X019606Y002161D01*
X019566Y002131D01*
X019523Y002104D01*
X019478Y002081D01*
X019432Y002061D01*
X019384Y002044D01*
X019336Y002032D01*
X019286Y002023D01*
X019236Y002018D01*
X019185Y002017D01*
X019135Y002020D01*
X019085Y002027D01*
X019036Y002038D01*
X018988Y002052D01*
X018941Y002070D01*
X018895Y002092D01*
X018851Y002117D01*
X018810Y002146D01*
X018771Y002177D01*
X018734Y002212D01*
X018700Y002249D01*
X018669Y002289D01*
X018641Y002331D01*
X018617Y002375D01*
X018596Y002421D01*
X018579Y002469D01*
X018566Y002517D01*
X018556Y002567D01*
X018550Y002617D01*
X018548Y002667D01*
X019195Y001292D02*
X019267Y001294D01*
X019339Y001300D01*
X019411Y001309D01*
X019482Y001322D01*
X019552Y001339D01*
X019621Y001359D01*
X019689Y001384D01*
X019755Y001411D01*
X019821Y001442D01*
X019884Y001477D01*
X019946Y001514D01*
X020005Y001555D01*
X020062Y001599D01*
X020117Y001646D01*
X020169Y001696D01*
X020219Y001748D01*
X020266Y001803D01*
X020310Y001860D01*
X020351Y001919D01*
X020388Y001981D01*
X020423Y002044D01*
X020454Y002110D01*
X020481Y002176D01*
X020506Y002244D01*
X020526Y002313D01*
X020543Y002383D01*
X020556Y002454D01*
X020565Y002526D01*
X020571Y002598D01*
X020573Y002670D01*
X020573Y009560D01*
X018545Y009560D02*
X018547Y009610D01*
X018553Y009660D01*
X018563Y009710D01*
X018576Y009758D01*
X018593Y009806D01*
X018614Y009852D01*
X018638Y009896D01*
X018666Y009938D01*
X018697Y009978D01*
X018731Y010015D01*
X018768Y010050D01*
X018807Y010081D01*
X018848Y010110D01*
X018892Y010135D01*
X018938Y010157D01*
X018985Y010175D01*
X019033Y010189D01*
X019082Y010200D01*
X019132Y010207D01*
X019182Y010210D01*
X019233Y010209D01*
X019283Y010204D01*
X019333Y010195D01*
X019381Y010183D01*
X019429Y010166D01*
X019475Y010146D01*
X019520Y010123D01*
X019563Y010096D01*
X019603Y010066D01*
X019641Y010033D01*
X019676Y009997D01*
X019709Y009958D01*
X019738Y009917D01*
X019764Y009874D01*
X019787Y009829D01*
X019806Y009782D01*
X019821Y009734D01*
X019833Y009685D01*
X019841Y009635D01*
X019845Y009585D01*
X019845Y009535D01*
X019841Y009485D01*
X019833Y009435D01*
X019821Y009386D01*
X019806Y009338D01*
X019787Y009291D01*
X019764Y009246D01*
X019738Y009203D01*
X019709Y009162D01*
X019676Y009123D01*
X019641Y009087D01*
X019603Y009054D01*
X019563Y009024D01*
X019520Y008997D01*
X019475Y008974D01*
X019429Y008954D01*
X019381Y008937D01*
X019333Y008925D01*
X019283Y008916D01*
X019233Y008911D01*
X019182Y008910D01*
X019132Y008913D01*
X019082Y008920D01*
X019033Y008931D01*
X018985Y008945D01*
X018938Y008963D01*
X018892Y008985D01*
X018848Y009010D01*
X018807Y009039D01*
X018768Y009070D01*
X018731Y009105D01*
X018697Y009142D01*
X018666Y009182D01*
X018638Y009224D01*
X018614Y009268D01*
X018593Y009314D01*
X018576Y009362D01*
X018563Y009410D01*
X018553Y009460D01*
X018547Y009510D01*
X018545Y009560D01*
X019195Y010938D02*
X019267Y010936D01*
X019339Y010930D01*
X019411Y010921D01*
X019482Y010908D01*
X019552Y010891D01*
X019621Y010871D01*
X019689Y010846D01*
X019755Y010819D01*
X019821Y010788D01*
X019884Y010753D01*
X019946Y010716D01*
X020005Y010675D01*
X020062Y010631D01*
X020117Y010584D01*
X020169Y010534D01*
X020219Y010482D01*
X020266Y010427D01*
X020310Y010370D01*
X020351Y010311D01*
X020388Y010249D01*
X020423Y010186D01*
X020454Y010120D01*
X020481Y010054D01*
X020506Y009986D01*
X020526Y009917D01*
X020543Y009847D01*
X020556Y009776D01*
X020565Y009704D01*
X020571Y009632D01*
X020573Y009560D01*
X019195Y010938D02*
X002660Y010938D01*
X002007Y009563D02*
X002009Y009613D01*
X002015Y009663D01*
X002025Y009713D01*
X002038Y009761D01*
X002055Y009809D01*
X002076Y009855D01*
X002100Y009899D01*
X002128Y009941D01*
X002159Y009981D01*
X002193Y010018D01*
X002230Y010053D01*
X002269Y010084D01*
X002310Y010113D01*
X002354Y010138D01*
X002400Y010160D01*
X002447Y010178D01*
X002495Y010192D01*
X002544Y010203D01*
X002594Y010210D01*
X002644Y010213D01*
X002695Y010212D01*
X002745Y010207D01*
X002795Y010198D01*
X002843Y010186D01*
X002891Y010169D01*
X002937Y010149D01*
X002982Y010126D01*
X003025Y010099D01*
X003065Y010069D01*
X003103Y010036D01*
X003138Y010000D01*
X003171Y009961D01*
X003200Y009920D01*
X003226Y009877D01*
X003249Y009832D01*
X003268Y009785D01*
X003283Y009737D01*
X003295Y009688D01*
X003303Y009638D01*
X003307Y009588D01*
X003307Y009538D01*
X003303Y009488D01*
X003295Y009438D01*
X003283Y009389D01*
X003268Y009341D01*
X003249Y009294D01*
X003226Y009249D01*
X003200Y009206D01*
X003171Y009165D01*
X003138Y009126D01*
X003103Y009090D01*
X003065Y009057D01*
X003025Y009027D01*
X002982Y009000D01*
X002937Y008977D01*
X002891Y008957D01*
X002843Y008940D01*
X002795Y008928D01*
X002745Y008919D01*
X002695Y008914D01*
X002644Y008913D01*
X002594Y008916D01*
X002544Y008923D01*
X002495Y008934D01*
X002447Y008948D01*
X002400Y008966D01*
X002354Y008988D01*
X002310Y009013D01*
X002269Y009042D01*
X002230Y009073D01*
X002193Y009108D01*
X002159Y009145D01*
X002128Y009185D01*
X002100Y009227D01*
X002076Y009271D01*
X002055Y009317D01*
X002038Y009365D01*
X002025Y009413D01*
X002015Y009463D01*
X002009Y009513D01*
X002007Y009563D01*
X001282Y009560D02*
X001284Y009632D01*
X001290Y009704D01*
X001299Y009776D01*
X001312Y009847D01*
X001329Y009917D01*
X001349Y009986D01*
X001374Y010054D01*
X001401Y010120D01*
X001432Y010186D01*
X001467Y010249D01*
X001504Y010311D01*
X001545Y010370D01*
X001589Y010427D01*
X001636Y010482D01*
X001686Y010534D01*
X001738Y010584D01*
X001793Y010631D01*
X001850Y010675D01*
X001909Y010716D01*
X001971Y010753D01*
X002034Y010788D01*
X002100Y010819D01*
X002166Y010846D01*
X002234Y010871D01*
X002303Y010891D01*
X002373Y010908D01*
X002444Y010921D01*
X002516Y010930D01*
X002588Y010936D01*
X002660Y010938D01*
X001282Y009563D02*
X001282Y009560D01*
X001282Y002710D01*
X001282Y002667D01*
X002007Y002667D02*
X002009Y002717D01*
X002015Y002767D01*
X002025Y002817D01*
X002038Y002865D01*
X002055Y002913D01*
X002076Y002959D01*
X002100Y003003D01*
X002128Y003045D01*
X002159Y003085D01*
X002193Y003122D01*
X002230Y003157D01*
X002269Y003188D01*
X002310Y003217D01*
X002354Y003242D01*
X002400Y003264D01*
X002447Y003282D01*
X002495Y003296D01*
X002544Y003307D01*
X002594Y003314D01*
X002644Y003317D01*
X002695Y003316D01*
X002745Y003311D01*
X002795Y003302D01*
X002843Y003290D01*
X002891Y003273D01*
X002937Y003253D01*
X002982Y003230D01*
X003025Y003203D01*
X003065Y003173D01*
X003103Y003140D01*
X003138Y003104D01*
X003171Y003065D01*
X003200Y003024D01*
X003226Y002981D01*
X003249Y002936D01*
X003268Y002889D01*
X003283Y002841D01*
X003295Y002792D01*
X003303Y002742D01*
X003307Y002692D01*
X003307Y002642D01*
X003303Y002592D01*
X003295Y002542D01*
X003283Y002493D01*
X003268Y002445D01*
X003249Y002398D01*
X003226Y002353D01*
X003200Y002310D01*
X003171Y002269D01*
X003138Y002230D01*
X003103Y002194D01*
X003065Y002161D01*
X003025Y002131D01*
X002982Y002104D01*
X002937Y002081D01*
X002891Y002061D01*
X002843Y002044D01*
X002795Y002032D01*
X002745Y002023D01*
X002695Y002018D01*
X002644Y002017D01*
X002594Y002020D01*
X002544Y002027D01*
X002495Y002038D01*
X002447Y002052D01*
X002400Y002070D01*
X002354Y002092D01*
X002310Y002117D01*
X002269Y002146D01*
X002230Y002177D01*
X002193Y002212D01*
X002159Y002249D01*
X002128Y002289D01*
X002100Y002331D01*
X002076Y002375D01*
X002055Y002421D01*
X002038Y002469D01*
X002025Y002517D01*
X002015Y002567D01*
X002009Y002617D01*
X002007Y002667D01*
X001281Y002710D02*
X001282Y002637D01*
X001287Y002563D01*
X001295Y002491D01*
X001308Y002419D01*
X001324Y002347D01*
X001343Y002277D01*
X001367Y002207D01*
X001394Y002139D01*
X001425Y002073D01*
X001459Y002008D01*
X001496Y001945D01*
X001537Y001884D01*
X001580Y001826D01*
X001627Y001769D01*
X001677Y001715D01*
X001729Y001664D01*
X001784Y001616D01*
X001841Y001571D01*
X001901Y001528D01*
X001963Y001489D01*
X002027Y001453D01*
X002092Y001421D01*
X002160Y001392D01*
X002228Y001367D01*
X002298Y001345D01*
X002369Y001327D01*
X002441Y001312D01*
X002513Y001302D01*
X002586Y001295D01*
X002659Y001292D01*
X002463Y004143D02*
X002465Y004173D01*
X002471Y004203D01*
X002480Y004232D01*
X002493Y004259D01*
X002510Y004284D01*
X002529Y004307D01*
X002552Y004328D01*
X002577Y004345D01*
X002603Y004359D01*
X002632Y004369D01*
X002661Y004376D01*
X002691Y004379D01*
X002722Y004378D01*
X002752Y004373D01*
X002781Y004364D01*
X002808Y004352D01*
X002834Y004337D01*
X002858Y004318D01*
X002879Y004296D01*
X002897Y004272D01*
X002912Y004245D01*
X002923Y004217D01*
X002931Y004188D01*
X002935Y004158D01*
X002935Y004128D01*
X002931Y004098D01*
X002923Y004069D01*
X002912Y004041D01*
X002897Y004014D01*
X002879Y003990D01*
X002858Y003968D01*
X002834Y003949D01*
X002808Y003934D01*
X002781Y003922D01*
X002752Y003913D01*
X002722Y003908D01*
X002691Y003907D01*
X002661Y003910D01*
X002632Y003917D01*
X002603Y003927D01*
X002577Y003941D01*
X002552Y003958D01*
X002529Y003979D01*
X002510Y004002D01*
X002493Y004027D01*
X002480Y004054D01*
X002471Y004083D01*
X002465Y004113D01*
X002463Y004143D01*
X001479Y004143D02*
X001481Y004173D01*
X001487Y004203D01*
X001496Y004232D01*
X001509Y004259D01*
X001526Y004284D01*
X001545Y004307D01*
X001568Y004328D01*
X001593Y004345D01*
X001619Y004359D01*
X001648Y004369D01*
X001677Y004376D01*
X001707Y004379D01*
X001738Y004378D01*
X001768Y004373D01*
X001797Y004364D01*
X001824Y004352D01*
X001850Y004337D01*
X001874Y004318D01*
X001895Y004296D01*
X001913Y004272D01*
X001928Y004245D01*
X001939Y004217D01*
X001947Y004188D01*
X001951Y004158D01*
X001951Y004128D01*
X001947Y004098D01*
X001939Y004069D01*
X001928Y004041D01*
X001913Y004014D01*
X001895Y003990D01*
X001874Y003968D01*
X001850Y003949D01*
X001824Y003934D01*
X001797Y003922D01*
X001768Y003913D01*
X001738Y003908D01*
X001707Y003907D01*
X001677Y003910D01*
X001648Y003917D01*
X001619Y003927D01*
X001593Y003941D01*
X001568Y003958D01*
X001545Y003979D01*
X001526Y004002D01*
X001509Y004027D01*
X001496Y004054D01*
X001487Y004083D01*
X001481Y004113D01*
X001479Y004143D01*
X004432Y006111D02*
X004434Y006141D01*
X004440Y006171D01*
X004449Y006200D01*
X004462Y006227D01*
X004479Y006252D01*
X004498Y006275D01*
X004521Y006296D01*
X004546Y006313D01*
X004572Y006327D01*
X004601Y006337D01*
X004630Y006344D01*
X004660Y006347D01*
X004691Y006346D01*
X004721Y006341D01*
X004750Y006332D01*
X004777Y006320D01*
X004803Y006305D01*
X004827Y006286D01*
X004848Y006264D01*
X004866Y006240D01*
X004881Y006213D01*
X004892Y006185D01*
X004900Y006156D01*
X004904Y006126D01*
X004904Y006096D01*
X004900Y006066D01*
X004892Y006037D01*
X004881Y006009D01*
X004866Y005982D01*
X004848Y005958D01*
X004827Y005936D01*
X004803Y005917D01*
X004777Y005902D01*
X004750Y005890D01*
X004721Y005881D01*
X004691Y005876D01*
X004660Y005875D01*
X004630Y005878D01*
X004601Y005885D01*
X004572Y005895D01*
X004546Y005909D01*
X004521Y005926D01*
X004498Y005947D01*
X004479Y005970D01*
X004462Y005995D01*
X004449Y006022D01*
X004440Y006051D01*
X004434Y006081D01*
X004432Y006111D01*
X002463Y008080D02*
X002465Y008110D01*
X002471Y008140D01*
X002480Y008169D01*
X002493Y008196D01*
X002510Y008221D01*
X002529Y008244D01*
X002552Y008265D01*
X002577Y008282D01*
X002603Y008296D01*
X002632Y008306D01*
X002661Y008313D01*
X002691Y008316D01*
X002722Y008315D01*
X002752Y008310D01*
X002781Y008301D01*
X002808Y008289D01*
X002834Y008274D01*
X002858Y008255D01*
X002879Y008233D01*
X002897Y008209D01*
X002912Y008182D01*
X002923Y008154D01*
X002931Y008125D01*
X002935Y008095D01*
X002935Y008065D01*
X002931Y008035D01*
X002923Y008006D01*
X002912Y007978D01*
X002897Y007951D01*
X002879Y007927D01*
X002858Y007905D01*
X002834Y007886D01*
X002808Y007871D01*
X002781Y007859D01*
X002752Y007850D01*
X002722Y007845D01*
X002691Y007844D01*
X002661Y007847D01*
X002632Y007854D01*
X002603Y007864D01*
X002577Y007878D01*
X002552Y007895D01*
X002529Y007916D01*
X002510Y007939D01*
X002493Y007964D01*
X002480Y007991D01*
X002471Y008020D01*
X002465Y008050D01*
X002463Y008080D01*
X001479Y008080D02*
X001481Y008110D01*
X001487Y008140D01*
X001496Y008169D01*
X001509Y008196D01*
X001526Y008221D01*
X001545Y008244D01*
X001568Y008265D01*
X001593Y008282D01*
X001619Y008296D01*
X001648Y008306D01*
X001677Y008313D01*
X001707Y008316D01*
X001738Y008315D01*
X001768Y008310D01*
X001797Y008301D01*
X001824Y008289D01*
X001850Y008274D01*
X001874Y008255D01*
X001895Y008233D01*
X001913Y008209D01*
X001928Y008182D01*
X001939Y008154D01*
X001947Y008125D01*
X001951Y008095D01*
X001951Y008065D01*
X001947Y008035D01*
X001939Y008006D01*
X001928Y007978D01*
X001913Y007951D01*
X001895Y007927D01*
X001874Y007905D01*
X001850Y007886D01*
X001824Y007871D01*
X001797Y007859D01*
X001768Y007850D01*
X001738Y007845D01*
X001707Y007844D01*
X001677Y007847D01*
X001648Y007854D01*
X001619Y007864D01*
X001593Y007878D01*
X001568Y007895D01*
X001545Y007916D01*
X001526Y007939D01*
X001509Y007964D01*
X001496Y007991D01*
X001487Y008020D01*
X001481Y008050D01*
X001479Y008080D01*
D11*
X004668Y008080D03*
X004668Y007095D03*
X002699Y006111D03*
X004668Y005127D03*
X004668Y004143D03*
D12*
X018396Y004608D03*
X019396Y004608D03*
X019396Y005608D03*
X018396Y005608D03*
X018396Y006608D03*
X019396Y006608D03*
X019396Y007608D03*
X018396Y007608D03*
D13*
X005219Y003084D03*
X004333Y003084D03*
X004333Y002257D03*
X005219Y002257D03*
D14*
X006284Y002325D03*
X006284Y003073D03*
X007571Y003079D03*
X007571Y002331D03*
X008959Y002326D03*
X008959Y003074D03*
X011580Y003073D03*
X011580Y002325D03*
X008182Y005109D03*
X008182Y005857D03*
X006182Y005866D03*
X006182Y005118D03*
X006182Y007918D03*
X007182Y007918D03*
X008182Y007918D03*
X008182Y008666D03*
X007182Y008666D03*
X006182Y008666D03*
D15*
X009847Y008692D03*
X010516Y008692D03*
X011947Y008692D03*
X012616Y008692D03*
X012616Y009692D03*
X011947Y009692D03*
D16*
X010683Y009700D03*
X009581Y009700D03*
D17*
X013401Y008158D03*
X006582Y004221D03*
D18*
X009040Y005441D03*
X009040Y005697D03*
X009040Y005952D03*
X009040Y006208D03*
X009040Y006464D03*
X009040Y006720D03*
X009040Y006976D03*
X009040Y007232D03*
X009040Y007488D03*
X009040Y007744D03*
X011323Y007744D03*
X011323Y007488D03*
X011323Y007232D03*
X011323Y006976D03*
X011323Y006720D03*
X011323Y006464D03*
X011323Y006208D03*
X011323Y005952D03*
X011323Y005697D03*
X011323Y005441D03*
D19*
X013760Y009321D03*
X013760Y010321D03*
D20*
X004226Y009771D03*
D21*
X005226Y009771D03*
X006226Y009771D03*
X007226Y009771D03*
X003702Y007082D03*
X003702Y006082D03*
X003702Y005082D03*
X012713Y002468D03*
X013713Y002468D03*
X014713Y002468D03*
X015713Y002468D03*
X016713Y002468D03*
X017713Y002468D03*
D22*
X010264Y002374D03*
X010264Y003044D03*
X007188Y005148D03*
X007188Y005817D03*
D23*
X014996Y005008D02*
X014996Y004417D01*
X016768Y004417D02*
X016768Y005008D01*
X016768Y006976D02*
X016768Y007567D01*
X014996Y007567D02*
X014996Y006976D01*
D24*
X017719Y008674D03*
X017719Y003556D03*
D25*
X002209Y001599D02*
X001943Y001758D01*
X001727Y001980D01*
X001576Y002251D01*
X001500Y002551D01*
X001492Y002706D01*
X001492Y002708D01*
X001493Y002794D01*
X001492Y002795D01*
X001492Y003752D01*
X001626Y003696D01*
X001804Y003696D01*
X001968Y003764D01*
X002093Y003890D01*
X002161Y004054D01*
X002161Y004231D01*
X002093Y004395D01*
X001968Y004521D01*
X001804Y004589D01*
X001626Y004589D01*
X001492Y004533D01*
X001492Y007689D01*
X001626Y007633D01*
X001804Y007633D01*
X001968Y007701D01*
X002093Y007827D01*
X002161Y007991D01*
X002161Y008168D01*
X002093Y008332D01*
X001968Y008458D01*
X001804Y008526D01*
X001626Y008526D01*
X001492Y008470D01*
X001492Y009560D01*
X001502Y009712D01*
X001581Y010007D01*
X001733Y010271D01*
X001949Y010487D01*
X002213Y010639D01*
X002507Y010718D01*
X002660Y010728D01*
X013567Y010728D01*
X013505Y010702D01*
X013394Y010591D01*
X013174Y010591D01*
X013124Y010592D01*
X013120Y010591D01*
X013116Y010591D01*
X013070Y010572D01*
X013024Y010554D01*
X013020Y010551D01*
X002061Y010551D01*
X002159Y010425D02*
X001894Y010203D01*
X001894Y010203D01*
X001894Y010203D01*
X001721Y009903D01*
X001661Y009563D01*
X001721Y009223D01*
X001721Y009223D01*
X001894Y008923D01*
X002159Y008701D01*
X002484Y008583D01*
X002829Y008583D01*
X003154Y008701D01*
X003154Y008701D01*
X003419Y008923D01*
X003419Y008923D01*
X003419Y008923D01*
X003592Y009223D01*
X003646Y009534D01*
X003646Y009314D01*
X003769Y009191D01*
X003899Y009191D01*
X003353Y008645D01*
X003312Y008546D01*
X003312Y008204D01*
X003145Y008038D01*
X003145Y008168D01*
X003077Y008332D01*
X002952Y008458D01*
X002788Y008526D01*
X002610Y008526D01*
X002446Y008458D01*
X002321Y008332D01*
X002253Y008168D01*
X002253Y007991D01*
X002321Y007827D01*
X002446Y007701D01*
X002610Y007633D01*
X002741Y007633D01*
X001753Y006645D01*
X001712Y006546D01*
X001712Y005638D01*
X001753Y005539D01*
X001829Y005463D01*
X002129Y005163D01*
X002228Y005122D01*
X003122Y005122D01*
X003122Y004967D01*
X003210Y004754D01*
X003373Y004590D01*
X003586Y004502D01*
X003669Y004502D01*
X003669Y002321D01*
X003710Y002222D01*
X003786Y002146D01*
X003786Y002146D01*
X003887Y002046D01*
X003887Y001934D01*
X004010Y001811D01*
X004656Y001811D01*
X004776Y001930D01*
X004896Y001811D01*
X005542Y001811D01*
X005665Y001934D01*
X005665Y002580D01*
X005575Y002670D01*
X005665Y002760D01*
X005665Y002922D01*
X005760Y002922D01*
X005760Y002730D01*
X005791Y002699D01*
X005760Y002668D01*
X005760Y001982D01*
X005665Y001982D01*
X005760Y001982D02*
X005883Y001859D01*
X006363Y001859D01*
X006585Y001633D01*
X006586Y001631D01*
X006623Y001594D01*
X006660Y001557D01*
X006661Y001556D01*
X006662Y001555D01*
X006710Y001535D01*
X006759Y001515D01*
X006760Y001515D01*
X006761Y001514D01*
X006814Y001514D01*
X006866Y001514D01*
X006867Y001514D01*
X008028Y001514D01*
X008128Y001555D01*
X008264Y001691D01*
X008535Y001691D01*
X008658Y001814D01*
X008658Y001920D01*
X008909Y001920D01*
X008909Y002276D01*
X009009Y002276D01*
X009009Y001920D01*
X009294Y001920D01*
X009332Y001930D01*
X009366Y001950D01*
X009394Y001978D01*
X009414Y002012D01*
X009424Y002050D01*
X009424Y002276D01*
X009009Y002276D01*
X009009Y002376D01*
X009424Y002376D01*
X009424Y002602D01*
X009414Y002640D01*
X009406Y002653D01*
X009484Y002731D01*
X009484Y003417D01*
X009379Y003522D01*
X009379Y003665D01*
X009497Y003783D01*
X009497Y004313D01*
X009374Y004436D01*
X008974Y004436D01*
X008974Y004772D01*
X009146Y004772D01*
X010469Y003450D01*
X010314Y003450D01*
X010314Y003094D01*
X010214Y003094D01*
X010214Y002994D01*
X009819Y002994D01*
X009819Y002777D01*
X009759Y002717D01*
X009759Y002032D01*
X009882Y001908D01*
X010647Y001908D01*
X010770Y002032D01*
X010770Y002055D01*
X011055Y002055D01*
X011055Y001982D01*
X011178Y001859D01*
X011658Y001859D01*
X011783Y001731D01*
X011784Y001730D01*
X011820Y001693D01*
X011857Y001656D01*
X011858Y001655D01*
X011859Y001654D01*
X011908Y001634D01*
X011956Y001613D01*
X011957Y001613D01*
X011959Y001613D01*
X012011Y001613D01*
X012063Y001612D01*
X012065Y001613D01*
X013146Y001613D01*
X013246Y001654D01*
X013322Y001730D01*
X013515Y001923D01*
X013598Y001888D01*
X013829Y001888D01*
X014042Y001977D01*
X014205Y002140D01*
X014213Y002160D01*
X014222Y002140D01*
X014385Y001977D01*
X014598Y001888D01*
X014829Y001888D01*
X015042Y001977D01*
X015205Y002140D01*
X015213Y002160D01*
X015222Y002140D01*
X015385Y001977D01*
X015598Y001888D01*
X015829Y001888D01*
X016042Y001977D01*
X016205Y002140D01*
X016213Y002160D01*
X016222Y002140D01*
X016385Y001977D01*
X016598Y001888D01*
X016829Y001888D01*
X017042Y001977D01*
X017205Y002140D01*
X017246Y002239D01*
X017269Y002196D01*
X017317Y002129D01*
X017375Y002072D01*
X017441Y002024D01*
X017514Y001986D01*
X017592Y001961D01*
X017663Y001950D01*
X017663Y002418D01*
X017763Y002418D01*
X017763Y001950D01*
X017835Y001961D01*
X017913Y001986D01*
X017986Y002024D01*
X018052Y002072D01*
X018110Y002129D01*
X018158Y002196D01*
X018195Y002269D01*
X018221Y002346D01*
X018232Y002418D01*
X017763Y002418D01*
X017763Y002518D01*
X017663Y002518D01*
X017663Y002906D01*
X017669Y002906D01*
X017669Y003506D01*
X017769Y003506D01*
X017769Y003606D01*
X018369Y003606D01*
X018369Y003825D01*
X018166Y004028D01*
X018636Y004028D01*
X018938Y004331D01*
X019181Y004088D01*
X019346Y004088D01*
X019346Y004558D01*
X019446Y004558D01*
X019446Y004088D01*
X019611Y004088D01*
X019916Y004393D01*
X019916Y004558D01*
X019446Y004558D01*
X019446Y004658D01*
X019916Y004658D01*
X019916Y004824D01*
X019674Y005066D01*
X019976Y005368D01*
X019976Y005849D01*
X019716Y006108D01*
X019976Y006368D01*
X019976Y006849D01*
X019716Y007108D01*
X019976Y007368D01*
X019976Y007849D01*
X019636Y008188D01*
X019156Y008188D01*
X018896Y007929D01*
X018636Y008188D01*
X018237Y008188D01*
X018429Y008380D01*
X018429Y008927D01*
X018433Y008920D01*
X018698Y008698D01*
X019022Y008580D01*
X019368Y008580D01*
X019693Y008698D01*
X019957Y008920D01*
X019957Y008920D01*
X019957Y008920D01*
X020130Y009220D01*
X020190Y009560D01*
X020130Y009900D01*
X019957Y010200D01*
X019693Y010422D01*
X019693Y010422D01*
X019368Y010540D01*
X019022Y010540D01*
X018698Y010422D01*
X018698Y010422D01*
X018433Y010200D01*
X018433Y010200D01*
X018433Y010200D01*
X018260Y009900D01*
X018200Y009560D01*
X018200Y009560D01*
X018260Y009220D01*
X018260Y009220D01*
X018373Y009024D01*
X018095Y009302D01*
X018095Y010626D01*
X017993Y010728D01*
X019195Y010728D01*
X019348Y010718D01*
X019642Y010639D01*
X019906Y010487D01*
X020122Y010271D01*
X020274Y010007D01*
X020353Y009712D01*
X020363Y009560D01*
X020363Y002670D01*
X020353Y002518D01*
X020274Y002223D01*
X020122Y001959D01*
X019906Y001744D01*
X019642Y001591D01*
X019348Y001512D01*
X019195Y001502D01*
X002662Y001502D01*
X002508Y001515D01*
X002209Y001599D01*
X002249Y001588D02*
X006629Y001588D01*
X006533Y001686D02*
X002063Y001686D01*
X002159Y001805D02*
X002159Y001805D01*
X002484Y001687D01*
X002607Y001687D01*
X002829Y001687D01*
X003154Y001805D01*
X003154Y001805D01*
X003419Y002027D01*
X003419Y002027D01*
X003419Y002027D01*
X003592Y002327D01*
X003652Y002667D01*
X003592Y003007D01*
X003592Y003007D01*
X003419Y003307D01*
X003154Y003529D01*
X002829Y003647D01*
X002484Y003647D01*
X002159Y003529D01*
X002159Y003529D01*
X001894Y003307D01*
X001894Y003307D01*
X001894Y003307D01*
X001721Y003007D01*
X001661Y002667D01*
X001721Y002327D01*
X001721Y002327D01*
X001894Y002027D01*
X002159Y001805D01*
X002215Y001785D02*
X001917Y001785D01*
X001821Y001883D02*
X002066Y001883D01*
X001949Y001982D02*
X001726Y001982D01*
X001671Y002080D02*
X001864Y002080D01*
X001894Y002027D02*
X001894Y002027D01*
X001807Y002179D02*
X001616Y002179D01*
X001569Y002277D02*
X001750Y002277D01*
X001713Y002376D02*
X001544Y002376D01*
X001519Y002474D02*
X001695Y002474D01*
X001678Y002573D02*
X001499Y002573D01*
X001494Y002671D02*
X001662Y002671D01*
X001661Y002667D02*
X001661Y002667D01*
X001680Y002770D02*
X001493Y002770D01*
X001492Y002868D02*
X001697Y002868D01*
X001714Y002967D02*
X001492Y002967D01*
X001492Y003065D02*
X001755Y003065D01*
X001721Y003007D02*
X001721Y003007D01*
X001812Y003164D02*
X001492Y003164D01*
X001492Y003262D02*
X001869Y003262D01*
X001959Y003361D02*
X001492Y003361D01*
X001492Y003459D02*
X002076Y003459D01*
X002238Y003558D02*
X001492Y003558D01*
X001492Y003656D02*
X003669Y003656D01*
X003669Y003558D02*
X003075Y003558D01*
X003154Y003529D02*
X003154Y003529D01*
X003237Y003459D02*
X003669Y003459D01*
X003669Y003361D02*
X003354Y003361D01*
X003419Y003307D02*
X003419Y003307D01*
X003445Y003262D02*
X003669Y003262D01*
X003669Y003164D02*
X003501Y003164D01*
X003558Y003065D02*
X003669Y003065D01*
X003669Y002967D02*
X003599Y002967D01*
X003616Y002868D02*
X003669Y002868D01*
X003669Y002770D02*
X003634Y002770D01*
X003651Y002671D02*
X003669Y002671D01*
X003652Y002667D02*
X003652Y002667D01*
X003635Y002573D02*
X003669Y002573D01*
X003669Y002474D02*
X003618Y002474D01*
X003600Y002376D02*
X003669Y002376D01*
X003592Y002327D02*
X003592Y002327D01*
X003563Y002277D02*
X003687Y002277D01*
X003754Y002179D02*
X003506Y002179D01*
X003449Y002080D02*
X003852Y002080D01*
X003887Y001982D02*
X003364Y001982D01*
X003247Y001883D02*
X003937Y001883D01*
X004729Y001883D02*
X004823Y001883D01*
X005615Y001883D02*
X005858Y001883D01*
X005760Y002080D02*
X005665Y002080D01*
X005665Y002179D02*
X005760Y002179D01*
X005760Y002277D02*
X005665Y002277D01*
X005665Y002376D02*
X005760Y002376D01*
X005760Y002474D02*
X005665Y002474D01*
X005665Y002573D02*
X005760Y002573D01*
X005763Y002671D02*
X005576Y002671D01*
X005665Y002770D02*
X005760Y002770D01*
X005760Y002868D02*
X005665Y002868D01*
X006284Y002325D02*
X006465Y002295D01*
X006436Y001785D02*
X003098Y001785D01*
X002788Y003696D02*
X002952Y003764D01*
X003077Y003890D01*
X003145Y004054D01*
X003145Y004231D01*
X003077Y004395D01*
X002952Y004521D01*
X002788Y004589D01*
X002610Y004589D01*
X002446Y004521D01*
X002321Y004395D01*
X002253Y004231D01*
X002253Y004054D01*
X002321Y003890D01*
X002446Y003764D01*
X002610Y003696D01*
X002788Y003696D01*
X002929Y003755D02*
X003669Y003755D01*
X003669Y003853D02*
X003041Y003853D01*
X003103Y003952D02*
X003669Y003952D01*
X003669Y004050D02*
X003144Y004050D01*
X003145Y004149D02*
X003669Y004149D01*
X003669Y004247D02*
X003139Y004247D01*
X003098Y004346D02*
X003669Y004346D01*
X003669Y004444D02*
X003028Y004444D01*
X002899Y004543D02*
X003489Y004543D01*
X003322Y004641D02*
X001492Y004641D01*
X001492Y004543D02*
X001515Y004543D01*
X001915Y004543D02*
X002499Y004543D01*
X002370Y004444D02*
X002044Y004444D01*
X002114Y004346D02*
X002300Y004346D01*
X002259Y004247D02*
X002154Y004247D01*
X002161Y004149D02*
X002253Y004149D01*
X002254Y004050D02*
X002160Y004050D01*
X002119Y003952D02*
X002295Y003952D01*
X002357Y003853D02*
X002056Y003853D01*
X001944Y003755D02*
X002469Y003755D01*
X003224Y004740D02*
X001492Y004740D01*
X001492Y004838D02*
X003175Y004838D01*
X003134Y004937D02*
X001492Y004937D01*
X001492Y005035D02*
X003122Y005035D01*
X002200Y005134D02*
X001492Y005134D01*
X001492Y005232D02*
X002060Y005232D01*
X001961Y005331D02*
X001492Y005331D01*
X001492Y005429D02*
X001863Y005429D01*
X001764Y005528D02*
X001492Y005528D01*
X001492Y005626D02*
X001717Y005626D01*
X001712Y005725D02*
X001492Y005725D01*
X001492Y005823D02*
X001712Y005823D01*
X001712Y005922D02*
X001492Y005922D01*
X001492Y006020D02*
X001712Y006020D01*
X001712Y006119D02*
X001492Y006119D01*
X001492Y006217D02*
X001712Y006217D01*
X001712Y006316D02*
X001492Y006316D01*
X001492Y006414D02*
X001712Y006414D01*
X001712Y006513D02*
X001492Y006513D01*
X001492Y006611D02*
X001739Y006611D01*
X001817Y006710D02*
X001492Y006710D01*
X001492Y006808D02*
X001916Y006808D01*
X002014Y006907D02*
X001492Y006907D01*
X001492Y007005D02*
X002113Y007005D01*
X002211Y007104D02*
X001492Y007104D01*
X001492Y007202D02*
X002310Y007202D01*
X002408Y007301D02*
X001492Y007301D01*
X001492Y007399D02*
X002507Y007399D01*
X002605Y007498D02*
X001492Y007498D01*
X001492Y007596D02*
X002704Y007596D01*
X002462Y007695D02*
X001952Y007695D01*
X002059Y007793D02*
X002354Y007793D01*
X002294Y007892D02*
X002120Y007892D01*
X002161Y007990D02*
X002253Y007990D01*
X002253Y008089D02*
X002161Y008089D01*
X002153Y008187D02*
X002261Y008187D01*
X002301Y008286D02*
X002112Y008286D01*
X002041Y008384D02*
X002373Y008384D01*
X002506Y008483D02*
X001908Y008483D01*
X001522Y008483D02*
X001492Y008483D01*
X001492Y008581D02*
X003326Y008581D01*
X003312Y008483D02*
X002892Y008483D01*
X003025Y008384D02*
X003312Y008384D01*
X003312Y008286D02*
X003097Y008286D01*
X003137Y008187D02*
X003295Y008187D01*
X003196Y008089D02*
X003145Y008089D01*
X003566Y007695D02*
X003730Y007695D01*
X003712Y007738D02*
X003753Y007639D01*
X003799Y007593D01*
X003752Y007601D01*
X003752Y007132D01*
X003652Y007132D01*
X003652Y007601D01*
X003580Y007589D01*
X003502Y007564D01*
X003429Y007527D01*
X003363Y007479D01*
X003305Y007421D01*
X003257Y007355D01*
X003220Y007282D01*
X003195Y007204D01*
X003183Y007132D01*
X003652Y007132D01*
X003652Y007032D01*
X003183Y007032D01*
X003195Y006960D01*
X003220Y006883D01*
X003257Y006810D01*
X003305Y006743D01*
X003363Y006686D01*
X003429Y006637D01*
X003473Y006615D01*
X003373Y006574D01*
X003211Y006412D01*
X003206Y006422D01*
X003151Y006497D01*
X003085Y006563D01*
X003010Y006618D01*
X002927Y006661D01*
X002838Y006689D01*
X002749Y006703D01*
X002749Y006161D01*
X002649Y006161D01*
X002649Y006703D01*
X002561Y006690D01*
X003712Y007840D01*
X003712Y007738D01*
X003712Y007793D02*
X003665Y007793D01*
X003652Y007596D02*
X003752Y007596D01*
X003780Y007596D02*
X003796Y007596D01*
X003752Y007498D02*
X003652Y007498D01*
X003652Y007399D02*
X003752Y007399D01*
X003752Y007301D02*
X003652Y007301D01*
X003652Y007202D02*
X003752Y007202D01*
X003652Y007104D02*
X002975Y007104D01*
X003074Y007202D02*
X003194Y007202D01*
X003172Y007301D02*
X003229Y007301D01*
X003271Y007399D02*
X003289Y007399D01*
X003369Y007498D02*
X003389Y007498D01*
X003468Y007596D02*
X003623Y007596D01*
X003187Y007005D02*
X002877Y007005D01*
X002778Y006907D02*
X003212Y006907D01*
X003258Y006808D02*
X002680Y006808D01*
X002581Y006710D02*
X003339Y006710D01*
X003463Y006611D02*
X003019Y006611D01*
X003136Y006513D02*
X003312Y006513D01*
X003214Y006414D02*
X003210Y006414D01*
X002749Y006414D02*
X002649Y006414D01*
X002649Y006316D02*
X002749Y006316D01*
X002749Y006217D02*
X002649Y006217D01*
X002649Y006513D02*
X002749Y006513D01*
X002749Y006611D02*
X002649Y006611D01*
X005982Y006492D02*
X005982Y007692D01*
X006282Y007992D01*
X006282Y007918D01*
X006182Y007918D01*
X006682Y007542D02*
X006482Y007342D01*
X006482Y006492D01*
X006682Y006292D01*
X006682Y005392D01*
X006982Y005092D01*
X007132Y005092D01*
X007188Y005148D01*
X007227Y005109D01*
X008182Y005109D01*
X008714Y004884D02*
X008862Y005032D01*
X009254Y005032D01*
X011223Y003063D01*
X011580Y003073D01*
X011055Y002864D02*
X011055Y002730D01*
X011086Y002699D01*
X011055Y002668D01*
X011055Y002575D01*
X010770Y002575D01*
X010770Y002717D01*
X010710Y002777D01*
X010710Y002994D01*
X010314Y002994D01*
X010314Y003094D01*
X010710Y003094D01*
X010710Y003209D01*
X011006Y002913D01*
X011007Y002910D01*
X011042Y002877D01*
X011055Y002864D01*
X011051Y002868D02*
X010710Y002868D01*
X010717Y002770D02*
X011055Y002770D01*
X011058Y002671D02*
X010770Y002671D01*
X010710Y002967D02*
X010952Y002967D01*
X010854Y003065D02*
X010314Y003065D01*
X010314Y003164D02*
X010214Y003164D01*
X010214Y003094D02*
X010214Y003450D01*
X009949Y003450D01*
X009911Y003439D01*
X009877Y003420D01*
X009849Y003392D01*
X009829Y003357D01*
X009819Y003319D01*
X009819Y003094D01*
X010214Y003094D01*
X010214Y003065D02*
X009484Y003065D01*
X009484Y002967D02*
X009819Y002967D01*
X009819Y002868D02*
X009484Y002868D01*
X009484Y002770D02*
X009812Y002770D01*
X009759Y002671D02*
X009424Y002671D01*
X009424Y002573D02*
X009759Y002573D01*
X009759Y002474D02*
X009424Y002474D01*
X009759Y002376D02*
X009009Y002376D01*
X009009Y002277D02*
X009759Y002277D01*
X009759Y002179D02*
X009424Y002179D01*
X009424Y002080D02*
X009759Y002080D01*
X009809Y001982D02*
X009396Y001982D01*
X009009Y001982D02*
X008909Y001982D01*
X008909Y002080D02*
X009009Y002080D01*
X009009Y002179D02*
X008909Y002179D01*
X008658Y001883D02*
X011154Y001883D01*
X011056Y001982D02*
X010720Y001982D01*
X010304Y002315D02*
X011570Y002315D01*
X011580Y002325D01*
X012105Y002277D02*
X012165Y002277D01*
X012133Y002353D02*
X012216Y002153D01*
X012126Y002153D01*
X012105Y002174D01*
X012105Y002668D01*
X012074Y002699D01*
X012105Y002730D01*
X012105Y003332D01*
X013374Y003332D01*
X013658Y003048D01*
X013598Y003048D01*
X013385Y002960D01*
X013222Y002797D01*
X013213Y002777D01*
X013205Y002797D01*
X013042Y002960D01*
X012829Y003048D01*
X012598Y003048D01*
X012385Y002960D01*
X012222Y002797D01*
X012133Y002584D01*
X012133Y002353D01*
X012133Y002376D02*
X012105Y002376D01*
X012105Y002474D02*
X012133Y002474D01*
X012133Y002573D02*
X012105Y002573D01*
X012102Y002671D02*
X012170Y002671D01*
X012210Y002770D02*
X012105Y002770D01*
X012105Y002868D02*
X012293Y002868D01*
X012401Y002967D02*
X012105Y002967D01*
X012105Y003065D02*
X013641Y003065D01*
X013543Y003164D02*
X012105Y003164D01*
X012105Y003262D02*
X013444Y003262D01*
X013401Y002967D02*
X013026Y002967D01*
X013134Y002868D02*
X013293Y002868D01*
X013882Y003192D02*
X013482Y003592D01*
X011082Y003592D01*
X009233Y005441D01*
X009040Y005441D01*
X009040Y005697D02*
X009377Y005697D01*
X011182Y003892D01*
X013682Y003892D01*
X014082Y003492D01*
X015888Y003492D01*
X016136Y003194D01*
X016525Y003164D02*
X017192Y003164D01*
X017093Y003262D02*
X016525Y003262D01*
X016525Y003361D02*
X017069Y003361D01*
X017069Y003287D02*
X017442Y002914D01*
X017441Y002913D01*
X017375Y002865D01*
X017317Y002807D01*
X017269Y002741D01*
X017246Y002697D01*
X017205Y002797D01*
X017042Y002960D01*
X016829Y003048D01*
X016598Y003048D01*
X016525Y003018D01*
X016525Y003432D01*
X016837Y003432D01*
X016932Y003472D01*
X017069Y003608D01*
X017069Y003606D01*
X017669Y003606D01*
X017669Y004206D01*
X017585Y004206D01*
X017585Y004826D01*
X017589Y004831D01*
X017816Y004831D01*
X017816Y004368D01*
X017978Y004206D01*
X017769Y004206D01*
X017769Y003606D01*
X017669Y003606D01*
X017669Y003506D01*
X017069Y003506D01*
X017069Y003287D01*
X017069Y003459D02*
X016902Y003459D01*
X017018Y003558D02*
X017669Y003558D01*
X017669Y003656D02*
X017769Y003656D01*
X017769Y003558D02*
X018780Y003558D01*
X018701Y003529D02*
X019025Y003647D01*
X019371Y003647D01*
X019696Y003529D01*
X019696Y003529D01*
X019961Y003307D01*
X019961Y003307D01*
X020133Y003007D01*
X020133Y003007D01*
X020193Y002667D01*
X020193Y002667D01*
X020133Y002327D01*
X020133Y002327D01*
X019961Y002027D01*
X019961Y002027D01*
X019961Y002027D01*
X019696Y001805D01*
X019696Y001805D01*
X019371Y001687D01*
X019025Y001687D01*
X018701Y001805D01*
X018701Y001805D01*
X018436Y002027D01*
X018436Y002027D01*
X018263Y002327D01*
X018263Y002327D01*
X018229Y002518D01*
X017763Y002518D01*
X017763Y002987D01*
X017769Y002986D01*
X017769Y003506D01*
X018369Y003506D01*
X018369Y003287D01*
X017991Y002909D01*
X018052Y002865D01*
X018110Y002807D01*
X018158Y002741D01*
X018195Y002668D01*
X018212Y002615D01*
X018203Y002667D01*
X018203Y002667D01*
X018263Y003007D01*
X018263Y003007D01*
X018436Y003307D01*
X018436Y003307D01*
X018436Y003307D01*
X018701Y003529D01*
X018701Y003529D01*
X018618Y003459D02*
X018369Y003459D01*
X018369Y003361D02*
X018500Y003361D01*
X018410Y003262D02*
X018344Y003262D01*
X018353Y003164D02*
X018246Y003164D01*
X018297Y003065D02*
X018147Y003065D01*
X018049Y002967D02*
X018256Y002967D01*
X018239Y002868D02*
X018048Y002868D01*
X018137Y002770D02*
X018221Y002770D01*
X018204Y002671D02*
X018194Y002671D01*
X018237Y002474D02*
X017763Y002474D01*
X017763Y002376D02*
X017663Y002376D01*
X017663Y002277D02*
X017763Y002277D01*
X017763Y002179D02*
X017663Y002179D01*
X017663Y002080D02*
X017763Y002080D01*
X017763Y001982D02*
X017663Y001982D01*
X017528Y001982D02*
X017047Y001982D01*
X017145Y002080D02*
X017366Y002080D01*
X017281Y002179D02*
X017221Y002179D01*
X017663Y002573D02*
X017763Y002573D01*
X017763Y002671D02*
X017663Y002671D01*
X017663Y002770D02*
X017763Y002770D01*
X017763Y002868D02*
X017663Y002868D01*
X017669Y002967D02*
X017763Y002967D01*
X017769Y003065D02*
X017669Y003065D01*
X017669Y003164D02*
X017769Y003164D01*
X017769Y003262D02*
X017669Y003262D01*
X017669Y003361D02*
X017769Y003361D01*
X017769Y003459D02*
X017669Y003459D01*
X017669Y003755D02*
X017769Y003755D01*
X017769Y003853D02*
X017669Y003853D01*
X017669Y003952D02*
X017769Y003952D01*
X017769Y004050D02*
X017669Y004050D01*
X017669Y004149D02*
X017769Y004149D01*
X017937Y004247D02*
X017585Y004247D01*
X017585Y004346D02*
X017838Y004346D01*
X017816Y004444D02*
X017585Y004444D01*
X017585Y004543D02*
X017816Y004543D01*
X017816Y004641D02*
X017585Y004641D01*
X017585Y004740D02*
X017816Y004740D01*
X017482Y005091D02*
X017325Y004934D01*
X017325Y004232D01*
X016785Y003692D01*
X016785Y003705D01*
X016785Y003692D02*
X014382Y003692D01*
X013882Y004192D01*
X011282Y004192D01*
X009521Y005952D01*
X009040Y005952D01*
X009040Y006208D02*
X009666Y006208D01*
X011382Y004492D01*
X014082Y004492D01*
X014682Y003892D01*
X015282Y003892D01*
X015582Y004192D01*
X015582Y005092D01*
X016183Y005694D01*
X017180Y005694D01*
X017282Y005592D01*
X017488Y005592D01*
X017986Y006091D01*
X018986Y006091D01*
X019396Y006500D01*
X019396Y006608D01*
X019976Y006611D02*
X020363Y006611D01*
X020363Y006513D02*
X019976Y006513D01*
X019976Y006414D02*
X020363Y006414D01*
X020363Y006316D02*
X019924Y006316D01*
X019825Y006217D02*
X020363Y006217D01*
X020363Y006119D02*
X019727Y006119D01*
X019804Y006020D02*
X020363Y006020D01*
X020363Y005922D02*
X019903Y005922D01*
X019976Y005823D02*
X020363Y005823D01*
X020363Y005725D02*
X019976Y005725D01*
X019976Y005626D02*
X020363Y005626D01*
X020363Y005528D02*
X019976Y005528D01*
X019976Y005429D02*
X020363Y005429D01*
X020363Y005331D02*
X019939Y005331D01*
X019840Y005232D02*
X020363Y005232D01*
X020363Y005134D02*
X019742Y005134D01*
X019704Y005035D02*
X020363Y005035D01*
X020363Y004937D02*
X019803Y004937D01*
X019901Y004838D02*
X020363Y004838D01*
X020363Y004740D02*
X019916Y004740D01*
X019916Y004543D02*
X020363Y004543D01*
X020363Y004641D02*
X019446Y004641D01*
X019446Y004543D02*
X019346Y004543D01*
X019346Y004444D02*
X019446Y004444D01*
X019446Y004346D02*
X019346Y004346D01*
X019346Y004247D02*
X019446Y004247D01*
X019446Y004149D02*
X019346Y004149D01*
X019120Y004149D02*
X018757Y004149D01*
X018855Y004247D02*
X019022Y004247D01*
X018658Y004050D02*
X020363Y004050D01*
X020363Y003952D02*
X018242Y003952D01*
X018341Y003853D02*
X020363Y003853D01*
X020363Y003755D02*
X018369Y003755D01*
X018369Y003656D02*
X020363Y003656D01*
X020363Y003558D02*
X019616Y003558D01*
X019779Y003459D02*
X020363Y003459D01*
X020363Y003361D02*
X019896Y003361D01*
X019986Y003262D02*
X020363Y003262D01*
X020363Y003164D02*
X020043Y003164D01*
X020100Y003065D02*
X020363Y003065D01*
X020363Y002967D02*
X020141Y002967D01*
X020158Y002868D02*
X020363Y002868D01*
X020363Y002770D02*
X020175Y002770D01*
X020193Y002671D02*
X020363Y002671D01*
X020357Y002573D02*
X020177Y002573D01*
X020159Y002474D02*
X020341Y002474D01*
X020315Y002376D02*
X020142Y002376D01*
X020105Y002277D02*
X020289Y002277D01*
X020248Y002179D02*
X020048Y002179D01*
X019991Y002080D02*
X020192Y002080D01*
X020135Y001982D02*
X019906Y001982D01*
X019789Y001883D02*
X020046Y001883D01*
X019947Y001785D02*
X019639Y001785D01*
X019807Y001686D02*
X013278Y001686D01*
X013377Y001785D02*
X018757Y001785D01*
X018608Y001883D02*
X013475Y001883D01*
X014047Y001982D02*
X014380Y001982D01*
X014281Y002080D02*
X014145Y002080D01*
X015047Y001982D02*
X015380Y001982D01*
X015281Y002080D02*
X015145Y002080D01*
X016047Y001982D02*
X016380Y001982D01*
X016281Y002080D02*
X016145Y002080D01*
X017216Y002770D02*
X017290Y002770D01*
X017379Y002868D02*
X017134Y002868D01*
X017026Y002967D02*
X017389Y002967D01*
X017290Y003065D02*
X016525Y003065D01*
X015488Y003192D02*
X013882Y003192D01*
X012205Y002179D02*
X012105Y002179D01*
X011731Y001785D02*
X008628Y001785D01*
X008258Y001686D02*
X011827Y001686D01*
X010755Y003164D02*
X010710Y003164D01*
X010314Y003262D02*
X010214Y003262D01*
X010214Y003361D02*
X010314Y003361D01*
X010460Y003459D02*
X009442Y003459D01*
X009484Y003361D02*
X009831Y003361D01*
X009819Y003262D02*
X009484Y003262D01*
X009484Y003164D02*
X009819Y003164D01*
X009379Y003558D02*
X010361Y003558D01*
X010263Y003656D02*
X009379Y003656D01*
X009469Y003755D02*
X010164Y003755D01*
X010066Y003853D02*
X009497Y003853D01*
X009497Y003952D02*
X009967Y003952D01*
X009869Y004050D02*
X009497Y004050D01*
X009497Y004149D02*
X009770Y004149D01*
X009672Y004247D02*
X009497Y004247D01*
X009464Y004346D02*
X009573Y004346D01*
X009475Y004444D02*
X008974Y004444D01*
X008974Y004543D02*
X009376Y004543D01*
X009278Y004641D02*
X008974Y004641D01*
X008974Y004740D02*
X009179Y004740D01*
X008714Y004884D02*
X008714Y004240D01*
X008515Y004042D01*
X006803Y004042D01*
X006582Y004221D01*
X006960Y004682D02*
X007085Y004557D01*
X007175Y004339D01*
X007175Y004302D01*
X008408Y004302D01*
X008454Y004348D01*
X008454Y004643D01*
X007780Y004643D01*
X007657Y004766D01*
X007657Y004769D01*
X007570Y004682D01*
X006960Y004682D01*
X007001Y004641D02*
X008454Y004641D01*
X008454Y004543D02*
X007091Y004543D01*
X007132Y004444D02*
X008454Y004444D01*
X008451Y004346D02*
X007172Y004346D01*
X007628Y004740D02*
X007683Y004740D01*
X007657Y005528D02*
X007633Y005551D01*
X007633Y005767D01*
X007238Y005767D01*
X007238Y005867D01*
X007633Y005867D01*
X007633Y006093D01*
X007623Y006131D01*
X007603Y006165D01*
X007575Y006193D01*
X007541Y006213D01*
X007503Y006223D01*
X007238Y006223D01*
X007238Y005867D01*
X007138Y005867D01*
X007138Y006223D01*
X006942Y006223D01*
X006942Y006344D01*
X006902Y006439D01*
X006838Y006504D01*
X007147Y006504D01*
X007270Y006627D01*
X007270Y006632D01*
X007874Y006632D01*
X008007Y006500D01*
X008102Y006460D01*
X008382Y006460D01*
X008245Y006323D01*
X007780Y006323D01*
X007657Y006200D01*
X007657Y005528D01*
X007657Y005528D01*
X007657Y005626D02*
X007633Y005626D01*
X007633Y005725D02*
X007657Y005725D01*
X007657Y005823D02*
X007238Y005823D01*
X007188Y005817D02*
X007188Y005986D01*
X007138Y006020D02*
X007238Y006020D01*
X007238Y005922D02*
X007138Y005922D01*
X007138Y006119D02*
X007238Y006119D01*
X007238Y006217D02*
X007138Y006217D01*
X006942Y006316D02*
X007773Y006316D01*
X007674Y006217D02*
X007526Y006217D01*
X007626Y006119D02*
X007657Y006119D01*
X007657Y006020D02*
X007633Y006020D01*
X007633Y005922D02*
X007657Y005922D01*
X008082Y005792D02*
X008182Y005857D01*
X008082Y005792D02*
X008754Y006464D01*
X009040Y006464D01*
X009040Y006720D02*
X008154Y006720D01*
X007982Y006892D01*
X006882Y006892D01*
X007182Y007192D01*
X007182Y007918D01*
X006682Y007542D02*
X006682Y009292D01*
X006226Y009747D01*
X006226Y009771D01*
X005726Y010080D02*
X005718Y010100D01*
X005555Y010263D01*
X005342Y010351D01*
X005111Y010351D01*
X004898Y010263D01*
X004806Y010172D01*
X004806Y010228D01*
X004683Y010351D01*
X003769Y010351D01*
X003646Y010228D01*
X003646Y009593D01*
X003592Y009903D01*
X003592Y009903D01*
X003419Y010203D01*
X003154Y010425D01*
X002829Y010543D01*
X002484Y010543D01*
X002159Y010425D01*
X002159Y010425D01*
X002236Y010453D02*
X001915Y010453D01*
X001816Y010354D02*
X002075Y010354D01*
X001957Y010256D02*
X001724Y010256D01*
X001667Y010157D02*
X001868Y010157D01*
X001811Y010059D02*
X001611Y010059D01*
X001568Y009960D02*
X001754Y009960D01*
X001721Y009903D02*
X001721Y009903D01*
X001714Y009862D02*
X001542Y009862D01*
X001515Y009763D02*
X001697Y009763D01*
X001679Y009665D02*
X001499Y009665D01*
X001492Y009566D02*
X001662Y009566D01*
X001661Y009563D02*
X001661Y009563D01*
X001678Y009468D02*
X001492Y009468D01*
X001492Y009369D02*
X001696Y009369D01*
X001713Y009271D02*
X001492Y009271D01*
X001492Y009172D02*
X001751Y009172D01*
X001807Y009074D02*
X001492Y009074D01*
X001492Y008975D02*
X001864Y008975D01*
X001894Y008923D02*
X001894Y008923D01*
X001950Y008877D02*
X001492Y008877D01*
X001492Y008778D02*
X002067Y008778D01*
X002159Y008701D02*
X002159Y008701D01*
X002218Y008680D02*
X001492Y008680D01*
X003095Y008680D02*
X003387Y008680D01*
X003486Y008778D02*
X003246Y008778D01*
X003363Y008877D02*
X003584Y008877D01*
X003683Y008975D02*
X003449Y008975D01*
X003506Y009074D02*
X003781Y009074D01*
X003880Y009172D02*
X003562Y009172D01*
X003592Y009223D02*
X003592Y009223D01*
X003600Y009271D02*
X003690Y009271D01*
X003646Y009369D02*
X003617Y009369D01*
X003635Y009468D02*
X003646Y009468D01*
X003634Y009665D02*
X003646Y009665D01*
X003646Y009763D02*
X003616Y009763D01*
X003599Y009862D02*
X003646Y009862D01*
X003646Y009960D02*
X003559Y009960D01*
X003502Y010059D02*
X003646Y010059D01*
X003646Y010157D02*
X003445Y010157D01*
X003419Y010203D02*
X003419Y010203D01*
X003356Y010256D02*
X003674Y010256D01*
X003238Y010354D02*
X011176Y010354D01*
X011161Y010339D02*
X011061Y010239D01*
X011044Y010197D01*
X011018Y010204D01*
X010733Y010204D01*
X010733Y009750D01*
X010633Y009750D01*
X010633Y010204D01*
X010348Y010204D01*
X010310Y010194D01*
X010276Y010174D01*
X010248Y010146D01*
X010228Y010112D01*
X010218Y010074D01*
X010218Y009750D01*
X010633Y009750D01*
X010633Y009650D01*
X010733Y009650D01*
X010733Y009196D01*
X011018Y009196D01*
X011022Y009197D01*
X011022Y008340D01*
X011061Y008245D01*
X011134Y008172D01*
X011134Y008172D01*
X011353Y007953D01*
X011323Y007953D01*
X011068Y007953D01*
X011029Y007943D01*
X010995Y007923D01*
X010967Y007895D01*
X010948Y007861D01*
X010937Y007823D01*
X010937Y007744D01*
X010987Y007744D01*
X010987Y007744D01*
X010937Y007744D01*
X010937Y007694D01*
X010877Y007634D01*
X010877Y007236D01*
X010414Y007236D01*
X010318Y007196D01*
X010170Y007048D01*
X010170Y007257D01*
X010123Y007304D01*
X010147Y007304D01*
X010270Y007427D01*
X010270Y007957D01*
X010147Y008080D01*
X009803Y008080D01*
X009870Y008187D01*
X010190Y008187D01*
X010250Y008247D01*
X010466Y008247D01*
X010466Y008642D01*
X010566Y008642D01*
X010566Y008247D01*
X010792Y008247D01*
X010830Y008257D01*
X010864Y008277D01*
X010892Y008305D01*
X010912Y008339D01*
X010922Y008377D01*
X010922Y008642D01*
X010566Y008642D01*
X010566Y008742D01*
X010466Y008742D01*
X010466Y009137D01*
X010250Y009137D01*
X010190Y009197D01*
X010044Y009197D01*
X010106Y009259D01*
X010106Y010141D01*
X009982Y010264D01*
X009179Y010264D01*
X009056Y010141D01*
X009056Y009804D01*
X009025Y009802D01*
X008950Y009877D01*
X008420Y009877D01*
X008297Y009754D01*
X008297Y009469D01*
X007961Y009133D01*
X007961Y009132D01*
X007780Y009132D01*
X007682Y009034D01*
X007584Y009132D01*
X006942Y009132D01*
X006942Y009335D01*
X006954Y009327D01*
X007027Y009289D01*
X007105Y009264D01*
X007176Y009253D01*
X007176Y009721D01*
X007276Y009721D01*
X007276Y009253D01*
X007348Y009264D01*
X007426Y009289D01*
X007499Y009327D01*
X007565Y009375D01*
X007623Y009433D01*
X007671Y009499D01*
X007708Y009572D01*
X007734Y009650D01*
X007745Y009721D01*
X007276Y009721D01*
X007276Y009821D01*
X007176Y009821D01*
X007176Y010290D01*
X007105Y010279D01*
X007027Y010253D01*
X006954Y010216D01*
X006888Y010168D01*
X006830Y010110D01*
X006782Y010044D01*
X006759Y010000D01*
X006718Y010100D01*
X006555Y010263D01*
X006342Y010351D01*
X006111Y010351D01*
X005898Y010263D01*
X005735Y010100D01*
X005726Y010080D01*
X005661Y010157D02*
X005792Y010157D01*
X005891Y010256D02*
X005562Y010256D01*
X004891Y010256D02*
X004779Y010256D01*
X003154Y010425D02*
X003154Y010425D01*
X003078Y010453D02*
X012916Y010453D01*
X012981Y010515D02*
X012730Y010278D01*
X012595Y010413D01*
X012500Y010452D01*
X011330Y010452D01*
X011234Y010413D01*
X011161Y010339D01*
X011078Y010256D02*
X009991Y010256D01*
X010090Y010157D02*
X010259Y010157D01*
X010218Y010059D02*
X010106Y010059D01*
X010106Y009960D02*
X010218Y009960D01*
X010218Y009862D02*
X010106Y009862D01*
X010106Y009763D02*
X010218Y009763D01*
X010218Y009650D02*
X010218Y009326D01*
X010228Y009288D01*
X010248Y009254D01*
X010276Y009226D01*
X010310Y009206D01*
X010348Y009196D01*
X010633Y009196D01*
X010633Y009650D01*
X010218Y009650D01*
X010218Y009566D02*
X010106Y009566D01*
X010106Y009468D02*
X010218Y009468D01*
X010218Y009369D02*
X010106Y009369D01*
X010106Y009271D02*
X010238Y009271D01*
X010215Y009172D02*
X011022Y009172D01*
X011022Y009074D02*
X010896Y009074D01*
X010892Y009080D02*
X010864Y009107D01*
X010830Y009127D01*
X010792Y009137D01*
X010566Y009137D01*
X010566Y008742D01*
X010922Y008742D01*
X010922Y009007D01*
X010912Y009045D01*
X010892Y009080D01*
X010922Y008975D02*
X011022Y008975D01*
X011022Y008877D02*
X010922Y008877D01*
X010922Y008778D02*
X011022Y008778D01*
X011022Y008680D02*
X010566Y008680D01*
X010566Y008778D02*
X010466Y008778D01*
X010466Y008877D02*
X010566Y008877D01*
X010566Y008975D02*
X010466Y008975D01*
X010466Y009074D02*
X010566Y009074D01*
X010633Y009271D02*
X010733Y009271D01*
X010733Y009369D02*
X010633Y009369D01*
X010633Y009468D02*
X010733Y009468D01*
X010733Y009566D02*
X010633Y009566D01*
X010633Y009665D02*
X010106Y009665D01*
X010633Y009763D02*
X010733Y009763D01*
X010733Y009862D02*
X010633Y009862D01*
X010633Y009960D02*
X010733Y009960D01*
X010733Y010059D02*
X010633Y010059D01*
X010633Y010157D02*
X010733Y010157D01*
X011282Y010092D02*
X011382Y010192D01*
X012448Y010192D01*
X012737Y009903D01*
X013082Y009868D02*
X013277Y010051D01*
X013394Y010051D01*
X013505Y009939D01*
X013671Y009871D01*
X013850Y009871D01*
X013925Y009902D01*
X013925Y009740D01*
X013850Y009771D01*
X013671Y009771D01*
X013505Y009702D01*
X013379Y009576D01*
X013310Y009410D01*
X013310Y009253D01*
X013255Y009197D01*
X012970Y009197D01*
X013082Y009310D01*
X013082Y009868D01*
X013082Y009862D02*
X013925Y009862D01*
X013925Y009763D02*
X013868Y009763D01*
X013652Y009763D02*
X013082Y009763D01*
X013082Y009665D02*
X013467Y009665D01*
X013375Y009566D02*
X013082Y009566D01*
X013082Y009468D02*
X013334Y009468D01*
X013310Y009369D02*
X013082Y009369D01*
X013043Y009271D02*
X013310Y009271D01*
X013850Y008871D02*
X013996Y008931D01*
X014048Y008879D01*
X017009Y008879D01*
X017009Y008380D01*
X017037Y008352D01*
X016130Y008352D01*
X016034Y008313D01*
X016002Y008280D01*
X015717Y008280D01*
X015594Y008157D01*
X015594Y007627D01*
X015717Y007504D01*
X016247Y007504D01*
X016322Y007580D01*
X016322Y007320D01*
X016719Y007320D01*
X016719Y007223D01*
X016322Y007223D01*
X016322Y006941D01*
X016333Y006872D01*
X016355Y006806D01*
X016383Y006751D01*
X016128Y006751D01*
X016033Y006711D01*
X015960Y006638D01*
X015574Y006252D01*
X015111Y006252D01*
X014946Y006471D01*
X015096Y006471D01*
X015282Y006548D01*
X015424Y006690D01*
X015501Y006876D01*
X015501Y007668D01*
X015424Y007853D01*
X015282Y007995D01*
X015096Y008072D01*
X014895Y008072D01*
X014710Y007995D01*
X014568Y007853D01*
X014491Y007668D01*
X014491Y006876D01*
X014568Y006690D01*
X014599Y006658D01*
X013336Y006658D01*
X013241Y006619D01*
X013168Y006546D01*
X013090Y006468D01*
X012337Y006468D01*
X012889Y007020D01*
X012910Y006998D01*
X013441Y006998D01*
X013564Y007121D01*
X013564Y007649D01*
X013606Y007663D01*
X013623Y007672D01*
X013382Y008089D01*
X012965Y007848D01*
X012993Y007810D01*
X013029Y007774D01*
X012910Y007774D01*
X012842Y007705D01*
X012842Y008187D01*
X012867Y008187D01*
X012867Y008116D01*
X012880Y008033D01*
X012906Y007953D01*
X012915Y007935D01*
X013332Y008176D01*
X013382Y008089D01*
X013469Y008139D01*
X013710Y007722D01*
X013748Y007750D01*
X013808Y007810D01*
X013857Y007878D01*
X013895Y007953D01*
X013921Y008033D01*
X013934Y008116D01*
X013934Y008200D01*
X013921Y008283D01*
X013895Y008362D01*
X013886Y008380D01*
X013469Y008139D01*
X013419Y008226D01*
X013836Y008467D01*
X013808Y008505D01*
X013748Y008565D01*
X013680Y008614D01*
X013606Y008652D01*
X013526Y008678D01*
X013486Y008685D01*
X013519Y008698D01*
X013692Y008871D01*
X013850Y008871D01*
X013864Y008877D02*
X017009Y008877D01*
X017009Y008778D02*
X013599Y008778D01*
X013516Y008680D02*
X017009Y008680D01*
X017009Y008581D02*
X013726Y008581D01*
X013824Y008483D02*
X017009Y008483D01*
X017009Y008384D02*
X013693Y008384D01*
X013723Y008286D02*
X013523Y008286D01*
X013552Y008187D02*
X013441Y008187D01*
X013383Y008089D02*
X013498Y008089D01*
X013440Y007990D02*
X013555Y007990D01*
X013612Y007892D02*
X013496Y007892D01*
X013553Y007793D02*
X013669Y007793D01*
X013610Y007695D02*
X014502Y007695D01*
X014491Y007596D02*
X013564Y007596D01*
X013564Y007498D02*
X014491Y007498D01*
X014491Y007399D02*
X013564Y007399D01*
X013564Y007301D02*
X014491Y007301D01*
X014491Y007202D02*
X013564Y007202D01*
X013546Y007104D02*
X014491Y007104D01*
X014491Y007005D02*
X013448Y007005D01*
X013233Y006611D02*
X012480Y006611D01*
X012382Y006513D02*
X013135Y006513D01*
X013388Y006398D02*
X014675Y006398D01*
X014982Y005992D01*
X015682Y005992D01*
X016180Y006491D01*
X017079Y006491D01*
X017679Y007091D01*
X018986Y007091D01*
X019396Y007500D01*
X019396Y007608D01*
X019976Y007596D02*
X020363Y007596D01*
X020363Y007498D02*
X019976Y007498D01*
X019976Y007399D02*
X020363Y007399D01*
X020363Y007301D02*
X019909Y007301D01*
X019810Y007202D02*
X020363Y007202D01*
X020363Y007104D02*
X019721Y007104D01*
X019819Y007005D02*
X020363Y007005D01*
X020363Y006907D02*
X019918Y006907D01*
X019976Y006808D02*
X020363Y006808D01*
X020363Y006710D02*
X019976Y006710D01*
X018396Y006608D02*
X017796Y006608D01*
X017304Y006116D01*
X016916Y006119D02*
X016176Y006119D01*
X016274Y006217D02*
X016916Y006217D01*
X016916Y006231D02*
X016916Y005954D01*
X016132Y005954D01*
X016036Y005914D01*
X015963Y005841D01*
X015434Y005313D01*
X015420Y005298D01*
X015282Y005436D01*
X015096Y005513D01*
X014895Y005513D01*
X014858Y005498D01*
X014743Y005613D01*
X014648Y005652D01*
X013789Y005652D01*
X013399Y006042D01*
X013496Y006138D01*
X014546Y006138D01*
X014754Y005862D01*
X014761Y005845D01*
X014785Y005821D01*
X014805Y005794D01*
X014821Y005785D01*
X014834Y005772D01*
X014865Y005759D01*
X014894Y005742D01*
X014913Y005739D01*
X014930Y005732D01*
X014964Y005732D01*
X014997Y005728D01*
X015015Y005732D01*
X015733Y005732D01*
X015829Y005772D01*
X016288Y006231D01*
X016916Y006231D01*
X016916Y006020D02*
X016077Y006020D01*
X016054Y005922D02*
X015979Y005922D01*
X015963Y005841D02*
X015963Y005841D01*
X015945Y005823D02*
X015880Y005823D01*
X015847Y005725D02*
X013717Y005725D01*
X013618Y005823D02*
X014783Y005823D01*
X014709Y005922D02*
X013520Y005922D01*
X013421Y006020D02*
X014635Y006020D01*
X014561Y006119D02*
X013476Y006119D01*
X013198Y006208D02*
X013388Y006398D01*
X013198Y006208D02*
X011323Y006208D01*
X011323Y005952D02*
X013121Y005952D01*
X013682Y005392D01*
X014596Y005392D01*
X014996Y004992D01*
X014996Y004713D01*
X015388Y005331D02*
X015453Y005331D01*
X015434Y005313D02*
X015434Y005313D01*
X015551Y005429D02*
X015289Y005429D01*
X015650Y005528D02*
X014828Y005528D01*
X014710Y005626D02*
X015748Y005626D01*
X016144Y005154D02*
X016499Y005510D01*
X016964Y005510D01*
X017182Y005292D01*
X017688Y005292D01*
X017888Y005492D01*
X018378Y005492D01*
X018396Y005608D01*
X018986Y005091D02*
X017482Y005091D01*
X016144Y005154D02*
X016144Y004048D01*
X018225Y002376D02*
X018255Y002376D01*
X018292Y002277D02*
X018198Y002277D01*
X018146Y002179D02*
X018349Y002179D01*
X018405Y002080D02*
X018061Y002080D01*
X017899Y001982D02*
X018490Y001982D01*
X019629Y001588D02*
X008160Y001588D01*
X011682Y004892D02*
X011682Y005292D01*
X011533Y005441D01*
X011323Y005441D01*
X011323Y005697D02*
X011877Y005697D01*
X012282Y005292D01*
X012282Y004892D01*
X010682Y005792D02*
X010682Y006592D01*
X010810Y006720D01*
X011323Y006720D01*
X011323Y006464D02*
X011966Y006464D01*
X012896Y007395D01*
X012905Y007386D01*
X013175Y007386D01*
X012903Y007005D02*
X012874Y007005D01*
X012776Y006907D02*
X014491Y006907D01*
X014519Y006808D02*
X012677Y006808D01*
X012579Y006710D02*
X014559Y006710D01*
X014996Y006792D02*
X014996Y007272D01*
X015501Y007301D02*
X016719Y007301D01*
X016816Y007301D02*
X017521Y007301D01*
X017531Y007311D02*
X017213Y006993D01*
X017213Y007223D01*
X016816Y007223D01*
X016816Y007320D01*
X017213Y007320D01*
X017213Y007602D01*
X017202Y007671D01*
X017180Y007738D01*
X017148Y007800D01*
X017125Y007832D01*
X017174Y007832D01*
X017461Y007545D01*
X017534Y007472D01*
X017630Y007432D01*
X017816Y007432D01*
X017816Y007368D01*
X017833Y007351D01*
X017627Y007351D01*
X017531Y007311D01*
X017422Y007202D02*
X017213Y007202D01*
X017213Y007104D02*
X017324Y007104D01*
X017225Y007005D02*
X017213Y007005D01*
X017213Y007399D02*
X017816Y007399D01*
X017509Y007498D02*
X017213Y007498D01*
X017213Y007596D02*
X017410Y007596D01*
X017312Y007695D02*
X017194Y007695D01*
X017213Y007793D02*
X017152Y007793D01*
X017282Y008092D02*
X017682Y007692D01*
X018214Y007692D01*
X018396Y007608D01*
X018834Y007990D02*
X018958Y007990D01*
X019056Y008089D02*
X018736Y008089D01*
X018637Y008187D02*
X019155Y008187D01*
X019019Y008581D02*
X018429Y008581D01*
X018429Y008483D02*
X020363Y008483D01*
X020363Y008581D02*
X019371Y008581D01*
X019642Y008680D02*
X020363Y008680D01*
X020363Y008778D02*
X019788Y008778D01*
X019693Y008698D02*
X019693Y008698D01*
X019906Y008877D02*
X020363Y008877D01*
X020363Y008975D02*
X019989Y008975D01*
X020046Y009074D02*
X020363Y009074D01*
X020363Y009172D02*
X020103Y009172D01*
X020130Y009220D02*
X020130Y009220D01*
X020139Y009271D02*
X020363Y009271D01*
X020363Y009369D02*
X020157Y009369D01*
X020174Y009468D02*
X020363Y009468D01*
X020363Y009566D02*
X020189Y009566D01*
X020190Y009560D02*
X020190Y009560D01*
X020172Y009665D02*
X020356Y009665D01*
X020339Y009763D02*
X020154Y009763D01*
X020137Y009862D02*
X020313Y009862D01*
X020287Y009960D02*
X020096Y009960D01*
X020130Y009900D02*
X020130Y009900D01*
X020039Y010059D02*
X020244Y010059D01*
X020187Y010157D02*
X019982Y010157D01*
X019957Y010200D02*
X019957Y010200D01*
X019890Y010256D02*
X020130Y010256D01*
X020038Y010354D02*
X019773Y010354D01*
X019607Y010453D02*
X019940Y010453D01*
X019794Y010551D02*
X018095Y010551D01*
X018095Y010453D02*
X018783Y010453D01*
X018617Y010354D02*
X018095Y010354D01*
X018095Y010256D02*
X018500Y010256D01*
X018408Y010157D02*
X018095Y010157D01*
X018095Y010059D02*
X018351Y010059D01*
X018295Y009960D02*
X018095Y009960D01*
X018095Y009862D02*
X018253Y009862D01*
X018260Y009900D02*
X018260Y009900D01*
X018236Y009763D02*
X018095Y009763D01*
X018095Y009665D02*
X018218Y009665D01*
X018201Y009566D02*
X018095Y009566D01*
X018095Y009468D02*
X018216Y009468D01*
X018234Y009369D02*
X018095Y009369D01*
X018126Y009271D02*
X018251Y009271D01*
X018225Y009172D02*
X018287Y009172D01*
X018323Y009074D02*
X018344Y009074D01*
X018433Y008920D02*
X018433Y008920D01*
X018429Y008877D02*
X018485Y008877D01*
X018429Y008778D02*
X018602Y008778D01*
X018698Y008698D02*
X018698Y008698D01*
X018748Y008680D02*
X018429Y008680D01*
X018429Y008384D02*
X020363Y008384D01*
X020363Y008286D02*
X018334Y008286D01*
X017282Y008092D02*
X016182Y008092D01*
X015982Y007892D01*
X015594Y007892D02*
X015386Y007892D01*
X015449Y007793D02*
X015594Y007793D01*
X015594Y007695D02*
X015490Y007695D01*
X015501Y007596D02*
X015625Y007596D01*
X015501Y007498D02*
X016322Y007498D01*
X016322Y007399D02*
X015501Y007399D01*
X015501Y007202D02*
X016322Y007202D01*
X016322Y007104D02*
X015501Y007104D01*
X015501Y007005D02*
X016322Y007005D01*
X016328Y006907D02*
X015501Y006907D01*
X015473Y006808D02*
X016354Y006808D01*
X016032Y006710D02*
X015432Y006710D01*
X015345Y006611D02*
X015933Y006611D01*
X015835Y006513D02*
X015197Y006513D01*
X014989Y006414D02*
X015736Y006414D01*
X015638Y006316D02*
X015063Y006316D01*
X012582Y007492D02*
X012321Y007232D01*
X011323Y007232D01*
X011323Y007488D02*
X011677Y007488D01*
X011782Y007592D01*
X011782Y007892D01*
X011282Y008392D01*
X011282Y010092D01*
X011897Y009642D02*
X011997Y009642D01*
X011997Y009247D01*
X012213Y009247D01*
X012268Y009192D01*
X012213Y009137D01*
X011997Y009137D01*
X011997Y008742D01*
X011897Y008742D01*
X011897Y009137D01*
X011671Y009137D01*
X011633Y009127D01*
X011599Y009107D01*
X011571Y009080D01*
X011551Y009045D01*
X011542Y009009D01*
X011542Y009375D01*
X011551Y009339D01*
X011571Y009305D01*
X011599Y009277D01*
X011633Y009257D01*
X011671Y009247D01*
X011897Y009247D01*
X011897Y009642D01*
X011897Y009566D02*
X011997Y009566D01*
X011997Y009468D02*
X011897Y009468D01*
X011897Y009369D02*
X011997Y009369D01*
X011997Y009271D02*
X011897Y009271D01*
X012248Y009172D02*
X011542Y009172D01*
X011542Y009074D02*
X011568Y009074D01*
X011542Y009271D02*
X011610Y009271D01*
X011543Y009369D02*
X011542Y009369D01*
X011897Y009074D02*
X011997Y009074D01*
X011997Y008975D02*
X011897Y008975D01*
X011897Y008877D02*
X011997Y008877D01*
X011997Y008778D02*
X011897Y008778D01*
X011897Y008642D02*
X011997Y008642D01*
X011997Y008247D01*
X012213Y008247D01*
X012273Y008187D01*
X011854Y008187D01*
X011897Y008247D02*
X011795Y008247D01*
X012002Y008039D01*
X012042Y007944D01*
X012042Y007540D01*
X012022Y007492D01*
X012214Y007492D01*
X012322Y007600D01*
X012322Y008187D01*
X012273Y008187D01*
X012322Y008089D02*
X011953Y008089D01*
X012023Y007990D02*
X012322Y007990D01*
X012322Y007892D02*
X012042Y007892D01*
X012042Y007793D02*
X012322Y007793D01*
X012322Y007695D02*
X012042Y007695D01*
X012042Y007596D02*
X012318Y007596D01*
X012220Y007498D02*
X012024Y007498D01*
X012582Y007492D02*
X012582Y008658D01*
X011997Y008581D02*
X011897Y008581D01*
X011897Y008642D02*
X011897Y008247D01*
X011897Y008286D02*
X011997Y008286D01*
X011997Y008384D02*
X011897Y008384D01*
X011897Y008483D02*
X011997Y008483D01*
X011218Y008089D02*
X009808Y008089D01*
X010190Y008187D02*
X011119Y008187D01*
X011044Y008286D02*
X010873Y008286D01*
X010922Y008384D02*
X011022Y008384D01*
X011022Y008483D02*
X010922Y008483D01*
X010922Y008581D02*
X011022Y008581D01*
X010566Y008581D02*
X010466Y008581D01*
X010466Y008483D02*
X010566Y008483D01*
X010566Y008384D02*
X010466Y008384D01*
X010466Y008286D02*
X010566Y008286D01*
X010237Y007990D02*
X011316Y007990D01*
X011323Y007953D02*
X011323Y007757D01*
X011323Y007757D01*
X011323Y007953D01*
X011323Y007892D02*
X011323Y007892D01*
X011323Y007793D02*
X011323Y007793D01*
X010965Y007892D02*
X010270Y007892D01*
X010270Y007793D02*
X010937Y007793D01*
X010937Y007695D02*
X010270Y007695D01*
X010270Y007596D02*
X010877Y007596D01*
X010877Y007498D02*
X010270Y007498D01*
X010242Y007399D02*
X010877Y007399D01*
X010877Y007301D02*
X010126Y007301D01*
X010170Y007202D02*
X010332Y007202D01*
X010226Y007104D02*
X010170Y007104D01*
X010466Y006976D02*
X010282Y006792D01*
X010282Y006292D01*
X010466Y006976D02*
X011323Y006976D01*
X009866Y006976D02*
X009782Y006992D01*
X009866Y006976D02*
X009040Y006976D01*
X009040Y007232D02*
X009421Y007232D01*
X009882Y007692D01*
X009040Y007488D02*
X008612Y007488D01*
X008182Y007918D01*
X008182Y007292D01*
X007895Y006611D02*
X007254Y006611D01*
X007155Y006513D02*
X007994Y006513D01*
X008336Y006414D02*
X006913Y006414D01*
X007182Y008666D02*
X008182Y008666D01*
X008182Y008986D01*
X008685Y009489D01*
X008296Y009468D02*
X007649Y009468D01*
X007706Y009566D02*
X008297Y009566D01*
X008297Y009665D02*
X007736Y009665D01*
X007745Y009821D02*
X007734Y009893D01*
X007708Y009971D01*
X007671Y010044D01*
X007623Y010110D01*
X007565Y010168D01*
X007499Y010216D01*
X007426Y010253D01*
X007348Y010279D01*
X007276Y010290D01*
X007276Y009821D01*
X007745Y009821D01*
X007739Y009862D02*
X008404Y009862D01*
X008306Y009763D02*
X007276Y009763D01*
X007276Y009665D02*
X007176Y009665D01*
X007176Y009566D02*
X007276Y009566D01*
X007276Y009468D02*
X007176Y009468D01*
X007176Y009369D02*
X007276Y009369D01*
X007276Y009271D02*
X007176Y009271D01*
X007084Y009271D02*
X006942Y009271D01*
X006942Y009172D02*
X008000Y009172D01*
X008099Y009271D02*
X007368Y009271D01*
X007558Y009369D02*
X008197Y009369D01*
X007721Y009074D02*
X007642Y009074D01*
X007276Y009862D02*
X007176Y009862D01*
X007176Y009960D02*
X007276Y009960D01*
X007276Y010059D02*
X007176Y010059D01*
X007176Y010157D02*
X007276Y010157D01*
X007276Y010256D02*
X007176Y010256D01*
X007034Y010256D02*
X006562Y010256D01*
X006661Y010157D02*
X006877Y010157D01*
X006793Y010059D02*
X006735Y010059D01*
X007418Y010256D02*
X009170Y010256D01*
X009071Y010157D02*
X007576Y010157D01*
X007660Y010059D02*
X009056Y010059D01*
X009056Y009960D02*
X007712Y009960D01*
X008965Y009862D02*
X009056Y009862D01*
X012654Y010354D02*
X012811Y010354D01*
X012981Y010515D02*
X013017Y010550D01*
X013020Y010551D01*
X013452Y010650D02*
X002253Y010650D01*
X012842Y008089D02*
X012871Y008089D01*
X012894Y007990D02*
X012842Y007990D01*
X012842Y007892D02*
X013040Y007892D01*
X013011Y007990D02*
X013211Y007990D01*
X013181Y008089D02*
X013381Y008089D01*
X013010Y007793D02*
X012842Y007793D01*
X013791Y007793D02*
X014543Y007793D01*
X014606Y007892D02*
X013864Y007892D01*
X013908Y007990D02*
X014705Y007990D01*
X015287Y007990D02*
X015594Y007990D01*
X015594Y008089D02*
X013930Y008089D01*
X013934Y008187D02*
X015624Y008187D01*
X016008Y008286D02*
X013920Y008286D01*
X013484Y009960D02*
X013180Y009960D01*
X018071Y010650D02*
X019602Y010650D01*
X019637Y008187D02*
X020363Y008187D01*
X020363Y008089D02*
X019736Y008089D01*
X019834Y007990D02*
X020363Y007990D01*
X020363Y007892D02*
X019933Y007892D01*
X019976Y007793D02*
X020363Y007793D01*
X020363Y007695D02*
X019976Y007695D01*
X019396Y005608D02*
X019396Y005500D01*
X018986Y005091D01*
X019916Y004444D02*
X020363Y004444D01*
X020363Y004346D02*
X019869Y004346D01*
X019770Y004247D02*
X020363Y004247D01*
X020363Y004149D02*
X019672Y004149D01*
D26*
X018538Y003863D03*
X017652Y004650D03*
X016144Y004048D03*
X016136Y003194D03*
X016668Y003174D03*
X015488Y003192D03*
X012305Y003162D03*
X009636Y002821D03*
X008270Y002080D03*
X008270Y003654D03*
X009109Y004048D03*
X009107Y004589D03*
X007782Y004442D03*
X010682Y005792D03*
X010282Y006292D03*
X009782Y006992D03*
X009882Y007692D03*
X010682Y007692D03*
X012132Y007642D03*
X013175Y007386D03*
X013477Y006795D03*
X013819Y005998D03*
X015382Y005592D03*
X016766Y006127D03*
X017304Y006116D03*
X015582Y006542D03*
X015982Y007892D03*
X018538Y008391D03*
X013282Y009787D03*
X010682Y010342D03*
X008685Y009489D03*
X008182Y007292D03*
X006882Y006892D03*
X007732Y006492D03*
X005982Y006492D03*
X002182Y007592D03*
X002182Y004592D03*
X003469Y004105D03*
X011682Y004892D03*
X012282Y004892D03*
D27*
X009109Y004048D02*
X009109Y003274D01*
X008959Y003074D01*
X008964Y003074D01*
X009082Y003192D01*
X008270Y002867D02*
X008270Y003654D01*
X007571Y003079D02*
X007094Y003556D01*
X005022Y003556D01*
X004333Y003162D01*
X004333Y003084D01*
X005219Y003084D02*
X005447Y003192D01*
X006352Y003192D01*
X006284Y003073D01*
X006284Y002325D02*
X006815Y001784D01*
X007975Y001784D01*
X008270Y002080D01*
X007734Y002331D02*
X008270Y002867D01*
X007734Y002331D02*
X007571Y002331D01*
X007537Y002331D01*
X005219Y002257D02*
X004333Y002257D01*
X004317Y002357D01*
X004154Y002160D01*
X003939Y002375D01*
X003939Y004845D01*
X003702Y005082D01*
X003692Y005082D01*
X003382Y005392D01*
X002282Y005392D01*
X001982Y005692D01*
X001982Y006492D01*
X003582Y008092D01*
X003582Y008492D01*
X004182Y009092D01*
X004182Y009727D01*
X004226Y009771D01*
X004382Y008792D02*
X006056Y008792D01*
X006182Y008666D01*
X005382Y007492D02*
X004794Y008080D01*
X004668Y008080D01*
X003982Y007792D02*
X003982Y008392D01*
X004382Y008792D01*
X003982Y007792D02*
X004668Y007106D01*
X004668Y007095D01*
X005082Y006681D01*
X005082Y005492D01*
X004716Y005127D01*
X004668Y005127D01*
X005382Y004792D02*
X005382Y005892D01*
X006156Y005892D01*
X006182Y005866D01*
X005382Y005892D02*
X005382Y007492D01*
X007188Y005986D02*
X007732Y006492D01*
X006182Y005118D02*
X006182Y004620D01*
X006582Y004221D01*
X005382Y004792D02*
X004732Y004143D01*
X004668Y004143D01*
X010264Y002374D02*
X010304Y002315D01*
X011580Y002325D02*
X012012Y001883D01*
X013093Y001883D01*
X013678Y002468D01*
X013713Y002468D01*
X012582Y008658D02*
X012616Y008692D01*
X012751Y008927D01*
X013366Y008927D01*
X013760Y009321D01*
X013170Y010321D02*
X012751Y009927D01*
X012737Y009903D01*
X012616Y009692D01*
X013170Y010321D02*
X013760Y010321D01*
D28*
X009607Y009700D02*
X009847Y008692D01*
X009247Y007744D01*
X009040Y007744D01*
X009805Y008815D02*
X009605Y009698D01*
X009607Y009700D01*
X009581Y009700D01*
X009431Y009539D01*
X008685Y009489D01*
X009385Y009489D02*
X009431Y009539D01*
X009582Y009692D02*
X009805Y008815D01*
M02*
