G75*
G70*
%OFA0B0*%
%FSLAX24Y24*%
%IPPOS*%
%LPD*%
%AMOC8*
5,1,8,0,0,1.08239X$1,22.5*
%
%ADD10C,0.0000*%
%ADD11C,0.0000*%
%ADD12C,0.0886*%
%ADD13OC8,0.0740*%
%ADD14C,0.0768*%
%ADD15C,0.0480*%
%ADD16R,0.0740X0.0740*%
%ADD17C,0.0740*%
%ADD18C,0.0591*%
%ADD19OC8,0.1000*%
%ADD20C,0.0120*%
%ADD21R,0.0356X0.0356*%
%ADD22C,0.0100*%
%ADD23C,0.0160*%
%ADD24C,0.0000*%
%ADD25C,0.0768*%
%ADD26R,0.1266X0.1266*%
%ADD27R,0.0472X0.0472*%
%ADD28C,0.0472*%
%ADD29R,0.0600X0.0600*%
%ADD30C,0.0160*%
%ADD31C,0.0000*%
%ADD32R,0.0740X0.0740*%
%ADD33C,0.0740*%
%ADD34R,0.0236X0.0610*%
%ADD35R,0.0551X0.0394*%
%ADD36R,0.0315X0.0315*%
%ADD37C,0.0120*%
%ADD38R,0.0356X0.0356*%
%ADD39C,0.0160*%
D10*
X001489Y001583D02*
X001492Y001583D01*
X018027Y001583D01*
X018030Y001583D01*
X018027Y001583D02*
X018099Y001585D01*
X018171Y001591D01*
X018243Y001600D01*
X018314Y001613D01*
X018384Y001630D01*
X018453Y001650D01*
X018521Y001675D01*
X018587Y001702D01*
X018653Y001733D01*
X018716Y001768D01*
X018778Y001805D01*
X018837Y001846D01*
X018894Y001890D01*
X018949Y001937D01*
X019001Y001987D01*
X019051Y002039D01*
X019098Y002094D01*
X019142Y002151D01*
X019183Y002210D01*
X019220Y002272D01*
X019255Y002335D01*
X019286Y002401D01*
X019313Y002467D01*
X019338Y002535D01*
X019358Y002604D01*
X019375Y002674D01*
X019388Y002745D01*
X019397Y002817D01*
X019403Y002889D01*
X019405Y002961D01*
X019405Y009851D01*
X019403Y009923D01*
X019397Y009995D01*
X019388Y010067D01*
X019375Y010138D01*
X019358Y010208D01*
X019338Y010277D01*
X019313Y010345D01*
X019286Y010411D01*
X019255Y010477D01*
X019220Y010540D01*
X019183Y010602D01*
X019142Y010661D01*
X019098Y010718D01*
X019051Y010773D01*
X019001Y010825D01*
X018949Y010875D01*
X018894Y010922D01*
X018837Y010966D01*
X018778Y011007D01*
X018716Y011044D01*
X018653Y011079D01*
X018587Y011110D01*
X018521Y011137D01*
X018453Y011162D01*
X018384Y011182D01*
X018314Y011199D01*
X018243Y011212D01*
X018171Y011221D01*
X018099Y011227D01*
X018027Y011229D01*
X007988Y011229D01*
X007988Y011672D01*
X008100Y011672D01*
X007397Y011672D02*
X007397Y011229D01*
X001492Y011229D01*
X001489Y011229D01*
X001350Y011672D02*
X007397Y011672D01*
X008100Y011672D02*
X008166Y011670D01*
X008232Y011672D01*
X008298Y011678D01*
X008364Y011687D01*
X008429Y011700D01*
X008494Y011717D01*
X008557Y011737D01*
X008619Y011761D01*
X008679Y011788D01*
X008738Y011819D01*
X008796Y011853D01*
X008851Y011890D01*
X008904Y011930D01*
X008954Y011973D01*
X009003Y012018D01*
X009048Y012067D01*
X009091Y012117D01*
X009131Y012170D01*
X009168Y012225D01*
X009202Y012283D01*
X009233Y012342D01*
X009260Y012402D01*
X009284Y012464D01*
X009304Y012527D01*
X009321Y012592D01*
X009334Y012657D01*
X009343Y012723D01*
X009349Y012789D01*
X009351Y012855D01*
X009349Y012921D01*
X009350Y012922D02*
X010100Y012922D01*
X010100Y013672D02*
X010100Y019672D01*
X009350Y019672D02*
X009350Y013672D01*
X010100Y013672D01*
X010100Y012922D02*
X010102Y012854D01*
X010107Y012787D01*
X010116Y012720D01*
X010129Y012653D01*
X010146Y012588D01*
X010165Y012523D01*
X010189Y012459D01*
X010216Y012397D01*
X010246Y012336D01*
X010279Y012278D01*
X010315Y012221D01*
X010355Y012166D01*
X010397Y012113D01*
X010443Y012062D01*
X010490Y012015D01*
X010541Y011969D01*
X010594Y011927D01*
X010649Y011887D01*
X010706Y011851D01*
X010764Y011818D01*
X010825Y011788D01*
X010887Y011761D01*
X010951Y011737D01*
X011016Y011718D01*
X011081Y011701D01*
X011148Y011688D01*
X011215Y011679D01*
X011282Y011674D01*
X011350Y011672D01*
X018100Y011672D01*
X018421Y011229D02*
X018424Y011229D01*
X018100Y011672D02*
X018166Y011670D01*
X018232Y011672D01*
X018298Y011678D01*
X018364Y011687D01*
X018429Y011700D01*
X018494Y011717D01*
X018557Y011737D01*
X018619Y011761D01*
X018679Y011788D01*
X018738Y011819D01*
X018796Y011853D01*
X018851Y011890D01*
X018904Y011930D01*
X018954Y011973D01*
X019003Y012018D01*
X019048Y012067D01*
X019091Y012117D01*
X019131Y012170D01*
X019168Y012225D01*
X019202Y012283D01*
X019233Y012342D01*
X019260Y012402D01*
X019284Y012464D01*
X019304Y012527D01*
X019321Y012592D01*
X019334Y012657D01*
X019343Y012723D01*
X019349Y012789D01*
X019351Y012855D01*
X019349Y012921D01*
X019350Y012922D02*
X019350Y019672D01*
X019348Y019740D01*
X019343Y019807D01*
X019334Y019874D01*
X019321Y019941D01*
X019304Y020006D01*
X019285Y020071D01*
X019261Y020135D01*
X019234Y020197D01*
X019204Y020258D01*
X019171Y020316D01*
X019135Y020373D01*
X019095Y020428D01*
X019053Y020481D01*
X019007Y020532D01*
X018960Y020579D01*
X018909Y020625D01*
X018856Y020667D01*
X018801Y020707D01*
X018744Y020743D01*
X018686Y020776D01*
X018625Y020806D01*
X018563Y020833D01*
X018499Y020857D01*
X018434Y020876D01*
X018369Y020893D01*
X018302Y020906D01*
X018235Y020915D01*
X018168Y020920D01*
X018100Y020922D01*
X018137Y020922D02*
X011350Y020922D01*
X011282Y020920D01*
X011215Y020915D01*
X011148Y020906D01*
X011081Y020893D01*
X011016Y020876D01*
X010951Y020857D01*
X010887Y020833D01*
X010825Y020806D01*
X010764Y020776D01*
X010706Y020743D01*
X010649Y020707D01*
X010594Y020667D01*
X010541Y020625D01*
X010490Y020579D01*
X010443Y020532D01*
X010397Y020481D01*
X010355Y020428D01*
X010315Y020373D01*
X010279Y020316D01*
X010246Y020258D01*
X010216Y020197D01*
X010189Y020135D01*
X010165Y020071D01*
X010146Y020006D01*
X010129Y019941D01*
X010116Y019874D01*
X010107Y019807D01*
X010102Y019740D01*
X010100Y019672D01*
X009350Y019672D02*
X009348Y019740D01*
X009343Y019807D01*
X009334Y019874D01*
X009321Y019941D01*
X009304Y020006D01*
X009285Y020071D01*
X009261Y020135D01*
X009234Y020197D01*
X009204Y020258D01*
X009171Y020316D01*
X009135Y020373D01*
X009095Y020428D01*
X009053Y020481D01*
X009007Y020532D01*
X008960Y020579D01*
X008909Y020625D01*
X008856Y020667D01*
X008801Y020707D01*
X008744Y020743D01*
X008686Y020776D01*
X008625Y020806D01*
X008563Y020833D01*
X008499Y020857D01*
X008434Y020876D01*
X008369Y020893D01*
X008302Y020906D01*
X008235Y020915D01*
X008168Y020920D01*
X008100Y020922D01*
X001350Y020922D01*
X001282Y020920D01*
X001215Y020915D01*
X001148Y020906D01*
X001081Y020893D01*
X001016Y020876D01*
X000951Y020857D01*
X000887Y020833D01*
X000825Y020806D01*
X000764Y020776D01*
X000706Y020743D01*
X000649Y020707D01*
X000594Y020667D01*
X000541Y020625D01*
X000490Y020579D01*
X000443Y020532D01*
X000397Y020481D01*
X000355Y020428D01*
X000315Y020373D01*
X000279Y020316D01*
X000246Y020258D01*
X000216Y020197D01*
X000189Y020135D01*
X000165Y020071D01*
X000146Y020006D01*
X000129Y019941D01*
X000116Y019874D01*
X000107Y019807D01*
X000102Y019740D01*
X000100Y019672D01*
X000100Y012922D01*
X000102Y012854D01*
X000107Y012787D01*
X000116Y012720D01*
X000129Y012653D01*
X000146Y012588D01*
X000165Y012523D01*
X000189Y012459D01*
X000216Y012397D01*
X000246Y012336D01*
X000279Y012278D01*
X000315Y012221D01*
X000355Y012166D01*
X000397Y012113D01*
X000443Y012062D01*
X000490Y012015D01*
X000541Y011969D01*
X000594Y011927D01*
X000649Y011887D01*
X000706Y011851D01*
X000764Y011818D01*
X000825Y011788D01*
X000887Y011761D01*
X000951Y011737D01*
X001016Y011718D01*
X001081Y011701D01*
X001148Y011688D01*
X001215Y011679D01*
X001282Y011674D01*
X001350Y011672D01*
X001492Y011229D02*
X001420Y011227D01*
X001348Y011221D01*
X001276Y011212D01*
X001205Y011199D01*
X001135Y011182D01*
X001066Y011162D01*
X000998Y011137D01*
X000932Y011110D01*
X000866Y011079D01*
X000803Y011044D01*
X000741Y011007D01*
X000682Y010966D01*
X000625Y010922D01*
X000570Y010875D01*
X000518Y010825D01*
X000468Y010773D01*
X000421Y010718D01*
X000377Y010661D01*
X000336Y010602D01*
X000299Y010540D01*
X000264Y010477D01*
X000233Y010411D01*
X000206Y010345D01*
X000181Y010277D01*
X000161Y010208D01*
X000144Y010138D01*
X000131Y010067D01*
X000122Y009995D01*
X000116Y009923D01*
X000114Y009851D01*
X000114Y009854D01*
X000114Y009851D02*
X000114Y003001D01*
X000114Y002958D01*
X000113Y003001D02*
X000114Y002928D01*
X000119Y002854D01*
X000127Y002782D01*
X000140Y002710D01*
X000156Y002638D01*
X000175Y002568D01*
X000199Y002498D01*
X000226Y002430D01*
X000257Y002364D01*
X000291Y002299D01*
X000328Y002236D01*
X000369Y002175D01*
X000412Y002117D01*
X000459Y002060D01*
X000509Y002006D01*
X000561Y001955D01*
X000616Y001907D01*
X000673Y001862D01*
X000733Y001819D01*
X000795Y001780D01*
X000859Y001744D01*
X000924Y001712D01*
X000992Y001683D01*
X001060Y001658D01*
X001130Y001636D01*
X001201Y001618D01*
X001273Y001603D01*
X001345Y001593D01*
X001418Y001586D01*
X001491Y001583D01*
X018027Y021072D02*
X018030Y021072D01*
D11*
X1489Y1583D02*
X1492Y1583D01*
X18027Y1583D01*
X18030Y1583D01*
X17380Y2958D02*
X17382Y3008D01*
X17388Y3058D01*
X17398Y3108D01*
X17411Y3156D01*
X17428Y3204D01*
X17449Y3250D01*
X17473Y3294D01*
X17501Y3336D01*
X17532Y3376D01*
X17566Y3413D01*
X17603Y3448D01*
X17642Y3479D01*
X17683Y3508D01*
X17727Y3533D01*
X17773Y3555D01*
X17820Y3573D01*
X17868Y3587D01*
X17917Y3598D01*
X17967Y3605D01*
X18017Y3608D01*
X18068Y3607D01*
X18118Y3602D01*
X18168Y3593D01*
X18216Y3581D01*
X18264Y3564D01*
X18310Y3544D01*
X18355Y3521D01*
X18398Y3494D01*
X18438Y3464D01*
X18476Y3431D01*
X18511Y3395D01*
X18544Y3356D01*
X18573Y3315D01*
X18599Y3272D01*
X18622Y3227D01*
X18641Y3180D01*
X18656Y3132D01*
X18668Y3083D01*
X18676Y3033D01*
X18680Y2983D01*
X18680Y2933D01*
X18676Y2883D01*
X18668Y2833D01*
X18656Y2784D01*
X18641Y2736D01*
X18622Y2689D01*
X18599Y2644D01*
X18573Y2601D01*
X18544Y2560D01*
X18511Y2521D01*
X18476Y2485D01*
X18438Y2452D01*
X18398Y2422D01*
X18355Y2395D01*
X18310Y2372D01*
X18264Y2352D01*
X18216Y2335D01*
X18168Y2323D01*
X18118Y2314D01*
X18068Y2309D01*
X18017Y2308D01*
X17967Y2311D01*
X17917Y2318D01*
X17868Y2329D01*
X17820Y2343D01*
X17773Y2361D01*
X17727Y2383D01*
X17683Y2408D01*
X17642Y2437D01*
X17603Y2468D01*
X17566Y2503D01*
X17532Y2540D01*
X17501Y2580D01*
X17473Y2622D01*
X17449Y2666D01*
X17428Y2712D01*
X17411Y2760D01*
X17398Y2808D01*
X17388Y2858D01*
X17382Y2908D01*
X17380Y2958D01*
X18027Y1583D02*
X18099Y1585D01*
X18171Y1591D01*
X18243Y1600D01*
X18314Y1613D01*
X18384Y1630D01*
X18453Y1650D01*
X18521Y1675D01*
X18587Y1702D01*
X18653Y1733D01*
X18716Y1768D01*
X18778Y1805D01*
X18837Y1846D01*
X18894Y1890D01*
X18949Y1937D01*
X19001Y1987D01*
X19051Y2039D01*
X19098Y2094D01*
X19142Y2151D01*
X19183Y2210D01*
X19220Y2272D01*
X19255Y2335D01*
X19286Y2401D01*
X19313Y2467D01*
X19338Y2535D01*
X19358Y2604D01*
X19375Y2674D01*
X19388Y2745D01*
X19397Y2817D01*
X19403Y2889D01*
X19405Y2961D01*
X19405Y9851D01*
X17377Y9851D02*
X17379Y9901D01*
X17385Y9951D01*
X17395Y10001D01*
X17408Y10049D01*
X17425Y10097D01*
X17446Y10143D01*
X17470Y10187D01*
X17498Y10229D01*
X17529Y10269D01*
X17563Y10306D01*
X17600Y10341D01*
X17639Y10372D01*
X17680Y10401D01*
X17724Y10426D01*
X17770Y10448D01*
X17817Y10466D01*
X17865Y10480D01*
X17914Y10491D01*
X17964Y10498D01*
X18014Y10501D01*
X18065Y10500D01*
X18115Y10495D01*
X18165Y10486D01*
X18213Y10474D01*
X18261Y10457D01*
X18307Y10437D01*
X18352Y10414D01*
X18395Y10387D01*
X18435Y10357D01*
X18473Y10324D01*
X18508Y10288D01*
X18541Y10249D01*
X18570Y10208D01*
X18596Y10165D01*
X18619Y10120D01*
X18638Y10073D01*
X18653Y10025D01*
X18665Y9976D01*
X18673Y9926D01*
X18677Y9876D01*
X18677Y9826D01*
X18673Y9776D01*
X18665Y9726D01*
X18653Y9677D01*
X18638Y9629D01*
X18619Y9582D01*
X18596Y9537D01*
X18570Y9494D01*
X18541Y9453D01*
X18508Y9414D01*
X18473Y9378D01*
X18435Y9345D01*
X18395Y9315D01*
X18352Y9288D01*
X18307Y9265D01*
X18261Y9245D01*
X18213Y9228D01*
X18165Y9216D01*
X18115Y9207D01*
X18065Y9202D01*
X18014Y9201D01*
X17964Y9204D01*
X17914Y9211D01*
X17865Y9222D01*
X17817Y9236D01*
X17770Y9254D01*
X17724Y9276D01*
X17680Y9301D01*
X17639Y9330D01*
X17600Y9361D01*
X17563Y9396D01*
X17529Y9433D01*
X17498Y9473D01*
X17470Y9515D01*
X17446Y9559D01*
X17425Y9605D01*
X17408Y9653D01*
X17395Y9701D01*
X17385Y9751D01*
X17379Y9801D01*
X17377Y9851D01*
X18027Y11229D02*
X18099Y11227D01*
X18171Y11221D01*
X18243Y11212D01*
X18314Y11199D01*
X18384Y11182D01*
X18453Y11162D01*
X18521Y11137D01*
X18587Y11110D01*
X18653Y11079D01*
X18716Y11044D01*
X18778Y11007D01*
X18837Y10966D01*
X18894Y10922D01*
X18949Y10875D01*
X19001Y10825D01*
X19051Y10773D01*
X19098Y10718D01*
X19142Y10661D01*
X19183Y10602D01*
X19220Y10540D01*
X19255Y10477D01*
X19286Y10411D01*
X19313Y10345D01*
X19338Y10277D01*
X19358Y10208D01*
X19375Y10138D01*
X19388Y10067D01*
X19397Y9995D01*
X19403Y9923D01*
X19405Y9851D01*
X18027Y11229D02*
X1492Y11229D01*
X839Y9854D02*
X841Y9904D01*
X847Y9954D01*
X857Y10004D01*
X870Y10052D01*
X887Y10100D01*
X908Y10146D01*
X932Y10190D01*
X960Y10232D01*
X991Y10272D01*
X1025Y10309D01*
X1062Y10344D01*
X1101Y10375D01*
X1142Y10404D01*
X1186Y10429D01*
X1232Y10451D01*
X1279Y10469D01*
X1327Y10483D01*
X1376Y10494D01*
X1426Y10501D01*
X1476Y10504D01*
X1527Y10503D01*
X1577Y10498D01*
X1627Y10489D01*
X1675Y10477D01*
X1723Y10460D01*
X1769Y10440D01*
X1814Y10417D01*
X1857Y10390D01*
X1897Y10360D01*
X1935Y10327D01*
X1970Y10291D01*
X2003Y10252D01*
X2032Y10211D01*
X2058Y10168D01*
X2081Y10123D01*
X2100Y10076D01*
X2115Y10028D01*
X2127Y9979D01*
X2135Y9929D01*
X2139Y9879D01*
X2139Y9829D01*
X2135Y9779D01*
X2127Y9729D01*
X2115Y9680D01*
X2100Y9632D01*
X2081Y9585D01*
X2058Y9540D01*
X2032Y9497D01*
X2003Y9456D01*
X1970Y9417D01*
X1935Y9381D01*
X1897Y9348D01*
X1857Y9318D01*
X1814Y9291D01*
X1769Y9268D01*
X1723Y9248D01*
X1675Y9231D01*
X1627Y9219D01*
X1577Y9210D01*
X1527Y9205D01*
X1476Y9204D01*
X1426Y9207D01*
X1376Y9214D01*
X1327Y9225D01*
X1279Y9239D01*
X1232Y9257D01*
X1186Y9279D01*
X1142Y9304D01*
X1101Y9333D01*
X1062Y9364D01*
X1025Y9399D01*
X991Y9436D01*
X960Y9476D01*
X932Y9518D01*
X908Y9562D01*
X887Y9608D01*
X870Y9656D01*
X857Y9704D01*
X847Y9754D01*
X841Y9804D01*
X839Y9854D01*
X114Y9851D02*
X116Y9923D01*
X122Y9995D01*
X131Y10067D01*
X144Y10138D01*
X161Y10208D01*
X181Y10277D01*
X206Y10345D01*
X233Y10411D01*
X264Y10477D01*
X299Y10540D01*
X336Y10602D01*
X377Y10661D01*
X421Y10718D01*
X468Y10773D01*
X518Y10825D01*
X570Y10875D01*
X625Y10922D01*
X682Y10966D01*
X741Y11007D01*
X803Y11044D01*
X866Y11079D01*
X932Y11110D01*
X998Y11137D01*
X1066Y11162D01*
X1135Y11182D01*
X1205Y11199D01*
X1276Y11212D01*
X1348Y11221D01*
X1420Y11227D01*
X1492Y11229D01*
X114Y9854D02*
X114Y9851D01*
X114Y3001D01*
X114Y2958D01*
X839Y2958D02*
X841Y3008D01*
X847Y3058D01*
X857Y3108D01*
X870Y3156D01*
X887Y3204D01*
X908Y3250D01*
X932Y3294D01*
X960Y3336D01*
X991Y3376D01*
X1025Y3413D01*
X1062Y3448D01*
X1101Y3479D01*
X1142Y3508D01*
X1186Y3533D01*
X1232Y3555D01*
X1279Y3573D01*
X1327Y3587D01*
X1376Y3598D01*
X1426Y3605D01*
X1476Y3608D01*
X1527Y3607D01*
X1577Y3602D01*
X1627Y3593D01*
X1675Y3581D01*
X1723Y3564D01*
X1769Y3544D01*
X1814Y3521D01*
X1857Y3494D01*
X1897Y3464D01*
X1935Y3431D01*
X1970Y3395D01*
X2003Y3356D01*
X2032Y3315D01*
X2058Y3272D01*
X2081Y3227D01*
X2100Y3180D01*
X2115Y3132D01*
X2127Y3083D01*
X2135Y3033D01*
X2139Y2983D01*
X2139Y2933D01*
X2135Y2883D01*
X2127Y2833D01*
X2115Y2784D01*
X2100Y2736D01*
X2081Y2689D01*
X2058Y2644D01*
X2032Y2601D01*
X2003Y2560D01*
X1970Y2521D01*
X1935Y2485D01*
X1897Y2452D01*
X1857Y2422D01*
X1814Y2395D01*
X1769Y2372D01*
X1723Y2352D01*
X1675Y2335D01*
X1627Y2323D01*
X1577Y2314D01*
X1527Y2309D01*
X1476Y2308D01*
X1426Y2311D01*
X1376Y2318D01*
X1327Y2329D01*
X1279Y2343D01*
X1232Y2361D01*
X1186Y2383D01*
X1142Y2408D01*
X1101Y2437D01*
X1062Y2468D01*
X1025Y2503D01*
X991Y2540D01*
X960Y2580D01*
X932Y2622D01*
X908Y2666D01*
X887Y2712D01*
X870Y2760D01*
X857Y2808D01*
X847Y2858D01*
X841Y2908D01*
X839Y2958D01*
X113Y3001D02*
X114Y2928D01*
X119Y2854D01*
X127Y2782D01*
X140Y2710D01*
X156Y2638D01*
X175Y2568D01*
X199Y2498D01*
X226Y2430D01*
X257Y2364D01*
X291Y2299D01*
X328Y2236D01*
X369Y2175D01*
X412Y2117D01*
X459Y2060D01*
X509Y2006D01*
X561Y1955D01*
X616Y1907D01*
X673Y1862D01*
X733Y1819D01*
X795Y1780D01*
X859Y1744D01*
X924Y1712D01*
X992Y1683D01*
X1060Y1658D01*
X1130Y1636D01*
X1201Y1618D01*
X1273Y1603D01*
X1345Y1593D01*
X1418Y1586D01*
X1491Y1583D01*
X1295Y4434D02*
X1297Y4464D01*
X1303Y4494D01*
X1312Y4523D01*
X1325Y4550D01*
X1342Y4575D01*
X1361Y4598D01*
X1384Y4619D01*
X1409Y4636D01*
X1435Y4650D01*
X1464Y4660D01*
X1493Y4667D01*
X1523Y4670D01*
X1554Y4669D01*
X1584Y4664D01*
X1613Y4655D01*
X1640Y4643D01*
X1666Y4628D01*
X1690Y4609D01*
X1711Y4587D01*
X1729Y4563D01*
X1744Y4536D01*
X1755Y4508D01*
X1763Y4479D01*
X1767Y4449D01*
X1767Y4419D01*
X1763Y4389D01*
X1755Y4360D01*
X1744Y4332D01*
X1729Y4305D01*
X1711Y4281D01*
X1690Y4259D01*
X1666Y4240D01*
X1640Y4225D01*
X1613Y4213D01*
X1584Y4204D01*
X1554Y4199D01*
X1523Y4198D01*
X1493Y4201D01*
X1464Y4208D01*
X1435Y4218D01*
X1409Y4232D01*
X1384Y4249D01*
X1361Y4270D01*
X1342Y4293D01*
X1325Y4318D01*
X1312Y4345D01*
X1303Y4374D01*
X1297Y4404D01*
X1295Y4434D01*
X311Y4434D02*
X313Y4464D01*
X319Y4494D01*
X328Y4523D01*
X341Y4550D01*
X358Y4575D01*
X377Y4598D01*
X400Y4619D01*
X425Y4636D01*
X451Y4650D01*
X480Y4660D01*
X509Y4667D01*
X539Y4670D01*
X570Y4669D01*
X600Y4664D01*
X629Y4655D01*
X656Y4643D01*
X682Y4628D01*
X706Y4609D01*
X727Y4587D01*
X745Y4563D01*
X760Y4536D01*
X771Y4508D01*
X779Y4479D01*
X783Y4449D01*
X783Y4419D01*
X779Y4389D01*
X771Y4360D01*
X760Y4332D01*
X745Y4305D01*
X727Y4281D01*
X706Y4259D01*
X682Y4240D01*
X656Y4225D01*
X629Y4213D01*
X600Y4204D01*
X570Y4199D01*
X539Y4198D01*
X509Y4201D01*
X480Y4208D01*
X451Y4218D01*
X425Y4232D01*
X400Y4249D01*
X377Y4270D01*
X358Y4293D01*
X341Y4318D01*
X328Y4345D01*
X319Y4374D01*
X313Y4404D01*
X311Y4434D01*
X3264Y6402D02*
X3266Y6432D01*
X3272Y6462D01*
X3281Y6491D01*
X3294Y6518D01*
X3311Y6543D01*
X3330Y6566D01*
X3353Y6587D01*
X3378Y6604D01*
X3404Y6618D01*
X3433Y6628D01*
X3462Y6635D01*
X3492Y6638D01*
X3523Y6637D01*
X3553Y6632D01*
X3582Y6623D01*
X3609Y6611D01*
X3635Y6596D01*
X3659Y6577D01*
X3680Y6555D01*
X3698Y6531D01*
X3713Y6504D01*
X3724Y6476D01*
X3732Y6447D01*
X3736Y6417D01*
X3736Y6387D01*
X3732Y6357D01*
X3724Y6328D01*
X3713Y6300D01*
X3698Y6273D01*
X3680Y6249D01*
X3659Y6227D01*
X3635Y6208D01*
X3609Y6193D01*
X3582Y6181D01*
X3553Y6172D01*
X3523Y6167D01*
X3492Y6166D01*
X3462Y6169D01*
X3433Y6176D01*
X3404Y6186D01*
X3378Y6200D01*
X3353Y6217D01*
X3330Y6238D01*
X3311Y6261D01*
X3294Y6286D01*
X3281Y6313D01*
X3272Y6342D01*
X3266Y6372D01*
X3264Y6402D01*
X1295Y8371D02*
X1297Y8401D01*
X1303Y8431D01*
X1312Y8460D01*
X1325Y8487D01*
X1342Y8512D01*
X1361Y8535D01*
X1384Y8556D01*
X1409Y8573D01*
X1435Y8587D01*
X1464Y8597D01*
X1493Y8604D01*
X1523Y8607D01*
X1554Y8606D01*
X1584Y8601D01*
X1613Y8592D01*
X1640Y8580D01*
X1666Y8565D01*
X1690Y8546D01*
X1711Y8524D01*
X1729Y8500D01*
X1744Y8473D01*
X1755Y8445D01*
X1763Y8416D01*
X1767Y8386D01*
X1767Y8356D01*
X1763Y8326D01*
X1755Y8297D01*
X1744Y8269D01*
X1729Y8242D01*
X1711Y8218D01*
X1690Y8196D01*
X1666Y8177D01*
X1640Y8162D01*
X1613Y8150D01*
X1584Y8141D01*
X1554Y8136D01*
X1523Y8135D01*
X1493Y8138D01*
X1464Y8145D01*
X1435Y8155D01*
X1409Y8169D01*
X1384Y8186D01*
X1361Y8207D01*
X1342Y8230D01*
X1325Y8255D01*
X1312Y8282D01*
X1303Y8311D01*
X1297Y8341D01*
X1295Y8371D01*
X311Y8371D02*
X313Y8401D01*
X319Y8431D01*
X328Y8460D01*
X341Y8487D01*
X358Y8512D01*
X377Y8535D01*
X400Y8556D01*
X425Y8573D01*
X451Y8587D01*
X480Y8597D01*
X509Y8604D01*
X539Y8607D01*
X570Y8606D01*
X600Y8601D01*
X629Y8592D01*
X656Y8580D01*
X682Y8565D01*
X706Y8546D01*
X727Y8524D01*
X745Y8500D01*
X760Y8473D01*
X771Y8445D01*
X779Y8416D01*
X783Y8386D01*
X783Y8356D01*
X779Y8326D01*
X771Y8297D01*
X760Y8269D01*
X745Y8242D01*
X727Y8218D01*
X706Y8196D01*
X682Y8177D01*
X656Y8162D01*
X629Y8150D01*
X600Y8141D01*
X570Y8136D01*
X539Y8135D01*
X509Y8138D01*
X480Y8145D01*
X451Y8155D01*
X425Y8169D01*
X400Y8186D01*
X377Y8207D01*
X358Y8230D01*
X341Y8255D01*
X328Y8282D01*
X319Y8311D01*
X313Y8341D01*
X311Y8371D01*
D12*
X3500Y8371D03*
X3500Y7386D03*
X1531Y6402D03*
X3500Y5418D03*
X3500Y4434D03*
D13*
X17228Y4899D03*
X18228Y4899D03*
X18228Y5899D03*
X17228Y5899D03*
X17228Y6899D03*
X18228Y6899D03*
X18228Y7899D03*
X17228Y7899D03*
D14*
X12233Y8449D03*
X5414Y4512D03*
D15*
X12592Y9612D03*
X12592Y10612D03*
D16*
X3058Y10062D03*
D17*
X4058Y10062D03*
X5058Y10062D03*
X6058Y10062D03*
X2534Y7373D03*
X2534Y6373D03*
X2534Y5373D03*
X11545Y2759D03*
X12545Y2759D03*
X13545Y2759D03*
X14545Y2759D03*
X15545Y2759D03*
X16545Y2759D03*
D18*
X15600Y4708D02*
X15600Y5299D01*
X13828Y5299D02*
X13828Y4708D01*
X13828Y7267D02*
X13828Y7858D01*
X15600Y7858D02*
X15600Y7267D01*
D19*
X16551Y8965D03*
X16551Y3847D03*
D20*
X15614Y4989D02*
X15600Y5004D01*
X13828Y5004D02*
X13828Y7563D01*
X4814Y6783D02*
X3314Y6783D01*
X2904Y6373D01*
X2534Y6373D01*
D21*
X4814Y6783D03*
X5714Y7183D03*
X6564Y6783D03*
X7014Y7583D03*
X8614Y7283D03*
X9114Y6583D03*
X9514Y6083D03*
X10514Y5183D03*
X11114Y5183D03*
X12651Y6289D03*
X12309Y7086D03*
X12007Y7677D03*
X10964Y7933D03*
X9514Y7983D03*
X8714Y7983D03*
X7517Y9780D03*
X9514Y10633D03*
X12114Y10078D03*
X14814Y8183D03*
X14414Y6833D03*
X15598Y6418D03*
X16136Y6407D03*
X14214Y5883D03*
X16484Y4941D03*
X17370Y4154D03*
X15500Y3465D03*
X14968Y3485D03*
X14320Y3483D03*
X14976Y4339D03*
X11137Y3453D03*
X8468Y3112D03*
X7102Y2371D03*
X7102Y3945D03*
X7941Y4339D03*
X7939Y4880D03*
X6614Y4733D03*
X2301Y4396D03*
X1014Y4883D03*
X1014Y7883D03*
X17370Y8682D03*
D22*
X1041Y1890D02*
X775Y2049D01*
X559Y2271D01*
X408Y2542D01*
X332Y2842D01*
X324Y2997D01*
X324Y2999D01*
X325Y3085D01*
X324Y3086D01*
X324Y4043D01*
X458Y3987D01*
X636Y3987D01*
X800Y4055D01*
X925Y4181D01*
X993Y4345D01*
X993Y4522D01*
X925Y4686D01*
X800Y4812D01*
X636Y4880D01*
X458Y4880D01*
X324Y4824D01*
X324Y7980D01*
X458Y7924D01*
X636Y7924D01*
X800Y7992D01*
X925Y8118D01*
X993Y8282D01*
X993Y8459D01*
X925Y8623D01*
X800Y8749D01*
X636Y8817D01*
X458Y8817D01*
X324Y8761D01*
X324Y9851D01*
X334Y10003D01*
X413Y10298D01*
X565Y10562D01*
X781Y10778D01*
X1045Y10930D01*
X1339Y11009D01*
X1492Y11019D01*
X12399Y11019D01*
X12337Y10993D01*
X12211Y10867D01*
X12142Y10701D01*
X12142Y10522D01*
X12211Y10357D01*
X12337Y10230D01*
X12503Y10162D01*
X12682Y10162D01*
X12757Y10193D01*
X12757Y10031D01*
X12682Y10062D01*
X12503Y10062D01*
X12337Y9993D01*
X12211Y9867D01*
X12142Y9701D01*
X12142Y9522D01*
X12154Y9493D01*
X10710Y10049D01*
X10660Y10070D01*
X10656Y10070D01*
X10652Y10071D01*
X10598Y10070D01*
X7880Y10070D01*
X7782Y10168D01*
X7439Y10168D01*
X6762Y10845D01*
X6761Y10847D01*
X6680Y10929D01*
X6573Y10973D01*
X3774Y10973D01*
X3774Y10973D01*
X3717Y10973D01*
X3659Y10973D01*
X3658Y10973D01*
X3606Y10951D01*
X3553Y10929D01*
X3552Y10929D01*
X3512Y10888D01*
X3471Y10847D01*
X3267Y10642D01*
X2601Y10642D01*
X2478Y10519D01*
X2478Y9884D01*
X2424Y10194D01*
X2424Y10194D01*
X2251Y10494D01*
X1986Y10716D01*
X1661Y10834D01*
X1316Y10834D01*
X991Y10716D01*
X991Y10716D01*
X726Y10494D01*
X553Y10194D01*
X493Y9854D01*
X553Y9514D01*
X553Y9514D01*
X726Y9214D01*
X991Y8992D01*
X1316Y8874D01*
X1661Y8874D01*
X1986Y8992D01*
X1986Y8992D01*
X2251Y9214D01*
X2251Y9214D01*
X2251Y9214D01*
X2424Y9514D01*
X2478Y9825D01*
X2478Y9605D01*
X2601Y9482D01*
X3515Y9482D01*
X3638Y9605D01*
X3638Y9662D01*
X3730Y9571D01*
X3943Y9482D01*
X4174Y9482D01*
X4225Y9504D01*
X4854Y8875D01*
X4854Y7731D01*
X4893Y7636D01*
X5326Y7204D01*
X5326Y7043D01*
X5202Y7043D01*
X5202Y7048D01*
X5079Y7171D01*
X4549Y7171D01*
X4431Y7053D01*
X4068Y7053D01*
X4152Y7256D01*
X4152Y7516D01*
X4053Y7756D01*
X3931Y7878D01*
X4053Y8001D01*
X4152Y8241D01*
X4152Y8500D01*
X4053Y8740D01*
X3869Y8924D01*
X3629Y9024D01*
X3370Y9024D01*
X3130Y8924D01*
X2946Y8740D01*
X2847Y8500D01*
X2847Y8241D01*
X2946Y8001D01*
X3068Y7878D01*
X2946Y7756D01*
X2928Y7714D01*
X2872Y7770D01*
X2806Y7818D01*
X2733Y7855D01*
X2655Y7880D01*
X2584Y7892D01*
X2584Y7423D01*
X2484Y7423D01*
X2484Y7892D01*
X2412Y7880D01*
X2334Y7855D01*
X2261Y7818D01*
X2195Y7770D01*
X2137Y7712D01*
X2089Y7646D01*
X2052Y7573D01*
X2027Y7495D01*
X2015Y7423D01*
X2484Y7423D01*
X2484Y7323D01*
X2015Y7323D01*
X2027Y7251D01*
X2052Y7174D01*
X2089Y7101D01*
X2137Y7034D01*
X2195Y6977D01*
X2261Y6928D01*
X2305Y6906D01*
X2205Y6865D01*
X2043Y6703D01*
X2038Y6713D01*
X1983Y6788D01*
X1917Y6854D01*
X1842Y6909D01*
X1759Y6952D01*
X1670Y6980D01*
X1581Y6994D01*
X1581Y6452D01*
X1481Y6452D01*
X1481Y6352D01*
X1581Y6352D01*
X1581Y5810D01*
X1670Y5824D01*
X1759Y5853D01*
X1842Y5895D01*
X1917Y5950D01*
X1983Y6016D01*
X2071Y6016D01*
X2042Y6045D02*
X2205Y5881D01*
X2225Y5873D01*
X2205Y5865D01*
X2042Y5702D01*
X1954Y5489D01*
X1954Y5258D01*
X2042Y5045D01*
X2205Y4881D01*
X2418Y4793D01*
X2649Y4793D01*
X2862Y4881D01*
X2987Y5007D01*
X3068Y4926D01*
X2946Y4803D01*
X2847Y4563D01*
X2847Y4304D01*
X2946Y4064D01*
X3130Y3880D01*
X3370Y3781D01*
X3629Y3781D01*
X3869Y3880D01*
X4053Y4064D01*
X4152Y4304D01*
X4152Y4563D01*
X4053Y4803D01*
X3931Y4926D01*
X4053Y5048D01*
X4152Y5288D01*
X4152Y5548D01*
X4053Y5788D01*
X3869Y5971D01*
X3748Y6022D01*
X3752Y6024D01*
X3878Y6149D01*
X3946Y6313D01*
X3946Y6491D01*
X3937Y6513D01*
X4431Y6513D01*
X4549Y6395D01*
X5079Y6395D01*
X5202Y6518D01*
X5202Y6523D01*
X5965Y6523D01*
X6061Y6563D01*
X6134Y6636D01*
X6421Y6923D01*
X6665Y6923D01*
X6761Y6963D01*
X6834Y7036D01*
X6993Y7195D01*
X7227Y7195D01*
X7227Y6735D01*
X5578Y5086D01*
X5532Y5105D01*
X5295Y5105D01*
X5077Y5015D01*
X4910Y4848D01*
X4820Y4630D01*
X4820Y4393D01*
X4910Y4175D01*
X5077Y4008D01*
X5295Y3918D01*
X5532Y3918D01*
X5750Y4008D01*
X5917Y4175D01*
X6007Y4393D01*
X6007Y4630D01*
X5988Y4676D01*
X7763Y6451D01*
X7807Y6557D01*
X7807Y9417D01*
X7880Y9490D01*
X10548Y9490D01*
X12016Y8925D01*
X12251Y8517D01*
X12580Y8707D01*
X12609Y8696D01*
X12659Y8675D01*
X12663Y8675D01*
X12666Y8674D01*
X12720Y8675D01*
X13002Y8675D01*
X12557Y7937D01*
X12396Y7937D01*
X12396Y7940D01*
X12438Y7954D01*
X12455Y7963D01*
X12214Y8380D01*
X11797Y8139D01*
X11825Y8101D01*
X11861Y8065D01*
X11742Y8065D01*
X11619Y7942D01*
X11619Y7412D01*
X11742Y7289D01*
X12273Y7289D01*
X12396Y7412D01*
X12396Y7417D01*
X12684Y7417D01*
X12716Y7412D01*
X12735Y7417D01*
X12755Y7417D01*
X12785Y7429D01*
X12816Y7437D01*
X12832Y7449D01*
X12851Y7456D01*
X12874Y7479D01*
X12899Y7498D01*
X12910Y7515D01*
X12924Y7530D01*
X12936Y7559D01*
X13449Y8410D01*
X14426Y8410D01*
X14426Y7918D01*
X14549Y7795D01*
X14554Y7795D01*
X14554Y5691D01*
X14393Y5530D01*
X14354Y5435D01*
X14354Y3887D01*
X14338Y3871D01*
X14055Y3871D01*
X13932Y3748D01*
X13932Y3585D01*
X12972Y4545D01*
X12972Y5572D01*
X12933Y5667D01*
X12859Y5741D01*
X11896Y6704D01*
X11801Y6743D01*
X10421Y6743D01*
X9102Y8063D01*
X9102Y8248D01*
X8979Y8371D01*
X8449Y8371D01*
X8326Y8248D01*
X8326Y7718D01*
X8372Y7671D01*
X8349Y7671D01*
X8226Y7548D01*
X8226Y7018D01*
X8349Y6895D01*
X8772Y6895D01*
X8726Y6848D01*
X8726Y6318D01*
X8849Y6195D01*
X8854Y6195D01*
X8854Y5731D01*
X8893Y5636D01*
X8942Y5587D01*
X8048Y4727D01*
X7676Y4727D01*
X7553Y4604D01*
X7553Y4205D01*
X7490Y4205D01*
X7490Y4210D01*
X7367Y4334D01*
X6837Y4334D01*
X6714Y4210D01*
X6714Y3680D01*
X6837Y3557D01*
X7367Y3557D01*
X7490Y3680D01*
X7490Y3685D01*
X8049Y3685D01*
X7122Y2759D01*
X6837Y2759D01*
X6714Y2636D01*
X6714Y2105D01*
X6837Y1982D01*
X7367Y1982D01*
X7490Y2105D01*
X7490Y2391D01*
X9572Y4473D01*
X10795Y4473D01*
X10891Y4512D01*
X10964Y4586D01*
X11174Y4795D01*
X11293Y4795D01*
X11293Y3283D01*
X11217Y3251D01*
X11054Y3088D01*
X10965Y2875D01*
X10965Y2644D01*
X11054Y2431D01*
X11217Y2268D01*
X11430Y2179D01*
X11661Y2179D01*
X11874Y2268D01*
X12037Y2431D01*
X12045Y2451D01*
X12054Y2431D01*
X12217Y2268D01*
X12430Y2179D01*
X12661Y2179D01*
X12874Y2268D01*
X13037Y2431D01*
X13045Y2451D01*
X13054Y2431D01*
X13217Y2268D01*
X13430Y2179D01*
X13661Y2179D01*
X13874Y2268D01*
X14037Y2431D01*
X14045Y2451D01*
X14054Y2431D01*
X14217Y2268D01*
X14430Y2179D01*
X14661Y2179D01*
X14874Y2268D01*
X15037Y2431D01*
X15045Y2451D01*
X15054Y2431D01*
X15217Y2268D01*
X15430Y2179D01*
X15661Y2179D01*
X15874Y2268D01*
X16037Y2431D01*
X16078Y2530D01*
X16101Y2487D01*
X16149Y2420D01*
X16207Y2363D01*
X16273Y2315D01*
X16346Y2277D01*
X16424Y2252D01*
X16495Y2241D01*
X16495Y2709D01*
X16595Y2709D01*
X16595Y2241D01*
X16667Y2252D01*
X16745Y2277D01*
X16818Y2315D01*
X16884Y2363D01*
X16942Y2420D01*
X16990Y2487D01*
X17027Y2560D01*
X17053Y2637D01*
X17064Y2709D01*
X16595Y2709D01*
X16595Y2809D01*
X16495Y2809D01*
X16495Y3197D01*
X16501Y3197D01*
X16501Y3797D01*
X16601Y3797D01*
X16601Y3897D01*
X17201Y3897D01*
X17201Y4116D01*
X16998Y4319D01*
X17468Y4319D01*
X17770Y4622D01*
X18013Y4379D01*
X18178Y4379D01*
X18178Y4849D01*
X18278Y4849D01*
X18278Y4379D01*
X18443Y4379D01*
X18748Y4684D01*
X18748Y4849D01*
X18278Y4849D01*
X18278Y4949D01*
X18748Y4949D01*
X18748Y5115D01*
X18506Y5357D01*
X18808Y5659D01*
X18808Y6140D01*
X18548Y6399D01*
X18808Y6659D01*
X18808Y7140D01*
X18548Y7399D01*
X18808Y7659D01*
X18808Y8140D01*
X18468Y8479D01*
X17988Y8479D01*
X17728Y8220D01*
X17468Y8479D01*
X17069Y8479D01*
X17261Y8671D01*
X17261Y9218D01*
X17265Y9211D01*
X17530Y8989D01*
X17854Y8871D01*
X18200Y8871D01*
X18525Y8989D01*
X18789Y9211D01*
X18789Y9211D01*
X18789Y9211D01*
X18962Y9511D01*
X19022Y9851D01*
X18962Y10191D01*
X18789Y10491D01*
X18525Y10713D01*
X18525Y10713D01*
X18200Y10831D01*
X17854Y10831D01*
X17530Y10713D01*
X17530Y10713D01*
X17265Y10491D01*
X17265Y10491D01*
X17265Y10491D01*
X17092Y10191D01*
X17032Y9851D01*
X17032Y9851D01*
X17092Y9511D01*
X17092Y9511D01*
X17205Y9315D01*
X16927Y9593D01*
X16927Y10917D01*
X16825Y11019D01*
X18027Y11019D01*
X18180Y11009D01*
X18474Y10930D01*
X18738Y10778D01*
X18954Y10562D01*
X19106Y10298D01*
X19185Y10003D01*
X19195Y9851D01*
X19195Y2961D01*
X19185Y2809D01*
X19106Y2514D01*
X18954Y2250D01*
X18738Y2035D01*
X18474Y1882D01*
X18180Y1803D01*
X18027Y1793D01*
X1494Y1793D01*
X1340Y1806D01*
X1041Y1890D01*
X1081Y1879D02*
X18461Y1879D01*
X18639Y1977D02*
X895Y1977D01*
X991Y2096D02*
X991Y2096D01*
X1316Y1978D01*
X1439Y1978D01*
X1661Y1978D01*
X1986Y2096D01*
X1986Y2096D01*
X2251Y2318D01*
X2251Y2318D01*
X2424Y2618D01*
X2484Y2958D01*
X2424Y3298D01*
X2424Y3298D01*
X2251Y3598D01*
X1986Y3820D01*
X1661Y3938D01*
X1316Y3938D01*
X991Y3820D01*
X991Y3820D01*
X726Y3598D01*
X726Y3598D01*
X726Y3598D01*
X553Y3298D01*
X493Y2958D01*
X553Y2618D01*
X553Y2618D01*
X726Y2318D01*
X991Y2096D01*
X1047Y2076D02*
X749Y2076D01*
X653Y2174D02*
X898Y2174D01*
X781Y2273D02*
X558Y2273D01*
X503Y2371D02*
X696Y2371D01*
X726Y2318D02*
X726Y2318D01*
X639Y2470D02*
X448Y2470D01*
X401Y2568D02*
X582Y2568D01*
X545Y2667D02*
X376Y2667D01*
X351Y2765D02*
X527Y2765D01*
X510Y2864D02*
X331Y2864D01*
X326Y2962D02*
X494Y2962D01*
X493Y2958D02*
X493Y2958D01*
X512Y3061D02*
X325Y3061D01*
X324Y3159D02*
X529Y3159D01*
X546Y3258D02*
X324Y3258D01*
X324Y3356D02*
X587Y3356D01*
X553Y3298D02*
X553Y3298D01*
X644Y3455D02*
X324Y3455D01*
X324Y3553D02*
X701Y3553D01*
X791Y3652D02*
X324Y3652D01*
X324Y3750D02*
X908Y3750D01*
X1070Y3849D02*
X324Y3849D01*
X324Y3947D02*
X3063Y3947D01*
X2964Y4046D02*
X1761Y4046D01*
X1784Y4055D02*
X1909Y4181D01*
X1977Y4345D01*
X1977Y4522D01*
X1909Y4686D01*
X1784Y4812D01*
X1620Y4880D01*
X1442Y4880D01*
X1278Y4812D01*
X1153Y4686D01*
X1085Y4522D01*
X1085Y4345D01*
X1153Y4181D01*
X1278Y4055D01*
X1442Y3987D01*
X1620Y3987D01*
X1784Y4055D01*
X1873Y4144D02*
X2913Y4144D01*
X2872Y4243D02*
X1935Y4243D01*
X1976Y4341D02*
X2847Y4341D01*
X2847Y4440D02*
X1977Y4440D01*
X1971Y4538D02*
X2847Y4538D01*
X2877Y4637D02*
X1930Y4637D01*
X1860Y4735D02*
X2918Y4735D01*
X2976Y4834D02*
X2747Y4834D01*
X2913Y4932D02*
X3062Y4932D01*
X2321Y4834D02*
X1731Y4834D01*
X2056Y5031D02*
X324Y5031D01*
X324Y5129D02*
X2007Y5129D01*
X1966Y5228D02*
X324Y5228D01*
X324Y5326D02*
X1954Y5326D01*
X1954Y5425D02*
X324Y5425D01*
X324Y5523D02*
X1968Y5523D01*
X2009Y5622D02*
X324Y5622D01*
X324Y5720D02*
X2060Y5720D01*
X2159Y5819D02*
X1638Y5819D01*
X1581Y5819D02*
X1481Y5819D01*
X1481Y5810D02*
X1481Y6352D01*
X939Y6352D01*
X953Y6263D01*
X982Y6174D01*
X1024Y6091D01*
X1079Y6016D01*
X1145Y5950D01*
X1220Y5895D01*
X1303Y5853D01*
X1392Y5824D01*
X1481Y5810D01*
X1424Y5819D02*
X324Y5819D01*
X324Y5917D02*
X1190Y5917D01*
X1079Y6016D02*
X324Y6016D01*
X324Y6114D02*
X1012Y6114D01*
X969Y6213D02*
X324Y6213D01*
X324Y6311D02*
X945Y6311D01*
X939Y6452D02*
X1481Y6452D01*
X1481Y6994D01*
X1392Y6980D01*
X1303Y6952D01*
X1220Y6909D01*
X1145Y6854D01*
X1079Y6788D01*
X1024Y6713D01*
X982Y6630D01*
X953Y6541D01*
X939Y6452D01*
X948Y6508D02*
X324Y6508D01*
X324Y6410D02*
X1481Y6410D01*
X1481Y6508D02*
X1581Y6508D01*
X1581Y6607D02*
X1481Y6607D01*
X1481Y6705D02*
X1581Y6705D01*
X1581Y6804D02*
X1481Y6804D01*
X1481Y6902D02*
X1581Y6902D01*
X1211Y6902D02*
X324Y6902D01*
X324Y6804D02*
X1094Y6804D01*
X1020Y6705D02*
X324Y6705D01*
X324Y6607D02*
X974Y6607D01*
X1481Y6311D02*
X1581Y6311D01*
X1581Y6213D02*
X1481Y6213D01*
X1481Y6114D02*
X1581Y6114D01*
X1581Y6016D02*
X1481Y6016D01*
X1481Y5917D02*
X1581Y5917D01*
X1872Y5917D02*
X2169Y5917D01*
X2042Y6045D02*
X2028Y6078D01*
X1983Y6016D01*
X2042Y6705D02*
X2046Y6705D01*
X1968Y6804D02*
X2144Y6804D01*
X2295Y6902D02*
X1851Y6902D01*
X2171Y7001D02*
X324Y7001D01*
X324Y7099D02*
X2090Y7099D01*
X2044Y7198D02*
X324Y7198D01*
X324Y7296D02*
X2019Y7296D01*
X2026Y7493D02*
X324Y7493D01*
X324Y7395D02*
X2484Y7395D01*
X2484Y7493D02*
X2584Y7493D01*
X2584Y7592D02*
X2484Y7592D01*
X2484Y7690D02*
X2584Y7690D01*
X2584Y7789D02*
X2484Y7789D01*
X2484Y7887D02*
X2584Y7887D01*
X2612Y7887D02*
X3060Y7887D01*
X2979Y7789D02*
X2846Y7789D01*
X2961Y7986D02*
X1768Y7986D01*
X1784Y7992D02*
X1909Y8118D01*
X1977Y8282D01*
X1977Y8459D01*
X1909Y8623D01*
X1784Y8749D01*
X1620Y8817D01*
X1442Y8817D01*
X1278Y8749D01*
X1153Y8623D01*
X1085Y8459D01*
X1085Y8282D01*
X1153Y8118D01*
X1278Y7992D01*
X1442Y7924D01*
X1620Y7924D01*
X1784Y7992D01*
X1876Y8084D02*
X2911Y8084D01*
X2871Y8183D02*
X1936Y8183D01*
X1977Y8281D02*
X2847Y8281D01*
X2847Y8380D02*
X1977Y8380D01*
X1969Y8478D02*
X2847Y8478D01*
X2878Y8577D02*
X1929Y8577D01*
X1857Y8675D02*
X2919Y8675D01*
X2979Y8774D02*
X1724Y8774D01*
X1927Y8971D02*
X3242Y8971D01*
X3078Y8872D02*
X324Y8872D01*
X324Y8774D02*
X354Y8774D01*
X740Y8774D02*
X1338Y8774D01*
X1205Y8675D02*
X873Y8675D01*
X944Y8577D02*
X1133Y8577D01*
X1093Y8478D02*
X985Y8478D01*
X993Y8380D02*
X1085Y8380D01*
X1085Y8281D02*
X993Y8281D01*
X952Y8183D02*
X1126Y8183D01*
X1186Y8084D02*
X891Y8084D01*
X784Y7986D02*
X1294Y7986D01*
X2061Y7592D02*
X324Y7592D01*
X324Y7690D02*
X2121Y7690D01*
X2221Y7789D02*
X324Y7789D01*
X324Y7887D02*
X2455Y7887D01*
X3940Y7887D02*
X4854Y7887D01*
X4854Y7789D02*
X4021Y7789D01*
X4080Y7690D02*
X4871Y7690D01*
X4938Y7592D02*
X4121Y7592D01*
X4152Y7493D02*
X5036Y7493D01*
X5135Y7395D02*
X4152Y7395D01*
X4152Y7296D02*
X5233Y7296D01*
X5326Y7198D02*
X4128Y7198D01*
X4087Y7099D02*
X4477Y7099D01*
X4814Y6783D02*
X5914Y6783D01*
X6314Y7183D01*
X6614Y7183D01*
X7014Y7583D01*
X6626Y7592D02*
X5673Y7592D01*
X5693Y7571D02*
X5374Y7891D01*
X5374Y9035D01*
X5334Y9130D01*
X5261Y9204D01*
X4982Y9482D01*
X5174Y9482D01*
X5387Y9571D01*
X5550Y9734D01*
X5591Y9833D01*
X5614Y9790D01*
X5662Y9724D01*
X5720Y9666D01*
X5786Y9618D01*
X5859Y9580D01*
X5937Y9555D01*
X6008Y9544D01*
X6008Y10012D01*
X6108Y10012D01*
X6108Y9544D01*
X6180Y9555D01*
X6258Y9580D01*
X6331Y9618D01*
X6397Y9666D01*
X6455Y9724D01*
X6503Y9790D01*
X6540Y9863D01*
X6566Y9941D01*
X6577Y10012D01*
X6108Y10012D01*
X6108Y10112D01*
X6577Y10112D01*
X6566Y10184D01*
X6548Y10239D01*
X7129Y9658D01*
X7129Y9515D01*
X7227Y9417D01*
X7227Y7971D01*
X6749Y7971D01*
X6626Y7848D01*
X6626Y7563D01*
X6506Y7443D01*
X6262Y7443D01*
X6166Y7404D01*
X6102Y7339D01*
X6102Y7448D01*
X5979Y7571D01*
X5693Y7571D01*
X5574Y7690D02*
X6626Y7690D01*
X6626Y7789D02*
X5476Y7789D01*
X5377Y7887D02*
X6665Y7887D01*
X7227Y7986D02*
X5374Y7986D01*
X5374Y8084D02*
X7227Y8084D01*
X7227Y8183D02*
X5374Y8183D01*
X5374Y8281D02*
X7227Y8281D01*
X7227Y8380D02*
X5374Y8380D01*
X5374Y8478D02*
X7227Y8478D01*
X7227Y8577D02*
X5374Y8577D01*
X5374Y8675D02*
X7227Y8675D01*
X7227Y8774D02*
X5374Y8774D01*
X5374Y8872D02*
X7227Y8872D01*
X7227Y8971D02*
X5374Y8971D01*
X5360Y9069D02*
X7227Y9069D01*
X7227Y9168D02*
X5297Y9168D01*
X5198Y9266D02*
X7227Y9266D01*
X7227Y9365D02*
X5100Y9365D01*
X5001Y9463D02*
X7181Y9463D01*
X7129Y9562D02*
X6200Y9562D01*
X6108Y9562D02*
X6008Y9562D01*
X5916Y9562D02*
X5365Y9562D01*
X5477Y9660D02*
X5727Y9660D01*
X5636Y9759D02*
X5560Y9759D01*
X6008Y9759D02*
X6108Y9759D01*
X6108Y9857D02*
X6008Y9857D01*
X6008Y9956D02*
X6108Y9956D01*
X6108Y10054D02*
X6733Y10054D01*
X6831Y9956D02*
X6568Y9956D01*
X6538Y9857D02*
X6930Y9857D01*
X7028Y9759D02*
X6481Y9759D01*
X6390Y9660D02*
X7127Y9660D01*
X7807Y9365D02*
X10873Y9365D01*
X10618Y9463D02*
X7853Y9463D01*
X7807Y9266D02*
X11129Y9266D01*
X11384Y9168D02*
X7807Y9168D01*
X7807Y9069D02*
X11640Y9069D01*
X11896Y8971D02*
X7807Y8971D01*
X7807Y8872D02*
X11908Y8872D01*
X11924Y8884D02*
X11885Y8856D01*
X11825Y8796D01*
X11776Y8728D01*
X11738Y8653D01*
X11712Y8574D01*
X11699Y8491D01*
X11699Y8407D01*
X11712Y8324D01*
X11738Y8244D01*
X11747Y8226D01*
X12164Y8467D01*
X11924Y8884D01*
X11930Y8872D02*
X12046Y8872D01*
X12103Y8774D02*
X11987Y8774D01*
X12044Y8675D02*
X12159Y8675D01*
X12101Y8577D02*
X12216Y8577D01*
X12251Y8517D02*
X12164Y8467D01*
X12214Y8380D01*
X12301Y8430D01*
X12542Y8013D01*
X12580Y8041D01*
X12640Y8101D01*
X12689Y8169D01*
X12727Y8244D01*
X12753Y8324D01*
X12766Y8407D01*
X12766Y8491D01*
X12753Y8574D01*
X12727Y8653D01*
X12718Y8671D01*
X12301Y8430D01*
X12251Y8517D01*
X12273Y8478D02*
X12384Y8478D01*
X12355Y8577D02*
X12555Y8577D01*
X12525Y8675D02*
X12659Y8675D01*
X12752Y8577D02*
X12943Y8577D01*
X12883Y8478D02*
X12766Y8478D01*
X12762Y8380D02*
X12824Y8380D01*
X12765Y8281D02*
X12740Y8281D01*
X12705Y8183D02*
X12696Y8183D01*
X12646Y8084D02*
X12623Y8084D01*
X12586Y7986D02*
X12442Y7986D01*
X12385Y8084D02*
X12501Y8084D01*
X12444Y8183D02*
X12328Y8183D01*
X12272Y8281D02*
X12387Y8281D01*
X12330Y8380D02*
X12215Y8380D01*
X12213Y8380D02*
X12013Y8380D01*
X12043Y8281D02*
X11843Y8281D01*
X11872Y8183D02*
X9102Y8183D01*
X9102Y8084D02*
X11842Y8084D01*
X11663Y7986D02*
X9179Y7986D01*
X9277Y7887D02*
X11619Y7887D01*
X11619Y7789D02*
X9376Y7789D01*
X9474Y7690D02*
X11619Y7690D01*
X11619Y7592D02*
X9573Y7592D01*
X9671Y7493D02*
X11619Y7493D01*
X11636Y7395D02*
X9770Y7395D01*
X9868Y7296D02*
X11735Y7296D01*
X12007Y7677D02*
X12703Y7677D01*
X13303Y8670D01*
X15665Y8670D01*
X16214Y8121D01*
X16214Y6485D01*
X16136Y6407D01*
X15748Y6410D02*
X15074Y6410D01*
X15074Y6508D02*
X15748Y6508D01*
X15748Y6607D02*
X15074Y6607D01*
X15074Y6705D02*
X15781Y6705D01*
X15748Y6672D02*
X15748Y6142D01*
X15871Y6019D01*
X16261Y6019D01*
X16261Y5550D01*
X16305Y5443D01*
X16648Y5100D01*
X16648Y4796D01*
X16204Y4796D01*
X16108Y4756D01*
X16045Y4693D01*
X16045Y4955D01*
X15648Y4955D01*
X15648Y4296D01*
X15641Y4290D01*
X15602Y4194D01*
X15602Y3339D01*
X15430Y3339D01*
X15357Y3309D01*
X15357Y3750D01*
X15236Y3870D01*
X15236Y3951D01*
X15241Y3951D01*
X15364Y4074D01*
X15364Y4329D01*
X15366Y4328D01*
X15429Y4296D01*
X15495Y4274D01*
X15551Y4265D01*
X15551Y4955D01*
X15648Y4955D01*
X15648Y5052D01*
X16045Y5052D01*
X16045Y5334D01*
X16034Y5403D01*
X16012Y5470D01*
X15980Y5532D01*
X15939Y5589D01*
X15890Y5639D01*
X15833Y5680D01*
X15770Y5712D01*
X15704Y5733D01*
X15648Y5742D01*
X15648Y5052D01*
X15551Y5052D01*
X15551Y4955D01*
X15154Y4955D01*
X15154Y4727D01*
X14874Y4727D01*
X14874Y5275D01*
X14961Y5363D01*
X15034Y5436D01*
X15074Y5531D01*
X15074Y7795D01*
X15079Y7795D01*
X15154Y7871D01*
X15154Y7611D01*
X15551Y7611D01*
X15551Y7514D01*
X15648Y7514D01*
X15648Y6824D01*
X15704Y6833D01*
X15770Y6855D01*
X15833Y6887D01*
X15890Y6928D01*
X15939Y6977D01*
X15954Y6997D01*
X15954Y6795D01*
X15871Y6795D01*
X15748Y6672D01*
X15954Y6804D02*
X15074Y6804D01*
X15074Y6902D02*
X15345Y6902D01*
X15366Y6887D02*
X15429Y6855D01*
X15495Y6833D01*
X15551Y6824D01*
X15551Y7514D01*
X15154Y7514D01*
X15154Y7232D01*
X15165Y7163D01*
X15187Y7097D01*
X15219Y7034D01*
X15260Y6977D01*
X15309Y6928D01*
X15366Y6887D01*
X15243Y7001D02*
X15074Y7001D01*
X15074Y7099D02*
X15186Y7099D01*
X15160Y7198D02*
X15074Y7198D01*
X15074Y7296D02*
X15154Y7296D01*
X15154Y7395D02*
X15074Y7395D01*
X15074Y7493D02*
X15154Y7493D01*
X15074Y7592D02*
X15551Y7592D01*
X15551Y7611D02*
X15551Y8301D01*
X15495Y8292D01*
X15429Y8271D01*
X15366Y8239D01*
X15309Y8198D01*
X15260Y8148D01*
X15219Y8091D01*
X15202Y8058D01*
X15202Y8410D01*
X15557Y8410D01*
X15669Y8298D01*
X15648Y8301D01*
X15648Y7611D01*
X15551Y7611D01*
X15551Y7690D02*
X15648Y7690D01*
X15648Y7789D02*
X15551Y7789D01*
X15551Y7887D02*
X15648Y7887D01*
X15648Y7986D02*
X15551Y7986D01*
X15551Y8084D02*
X15648Y8084D01*
X15648Y8183D02*
X15551Y8183D01*
X15551Y8281D02*
X15648Y8281D01*
X15587Y8380D02*
X15202Y8380D01*
X15202Y8281D02*
X15461Y8281D01*
X15295Y8183D02*
X15202Y8183D01*
X15202Y8084D02*
X15215Y8084D01*
X14814Y8183D02*
X14814Y5583D01*
X14614Y5383D01*
X14614Y3780D01*
X14320Y3483D01*
X13932Y3652D02*
X13866Y3652D01*
X13934Y3750D02*
X13767Y3750D01*
X13669Y3849D02*
X14032Y3849D01*
X14354Y3947D02*
X13570Y3947D01*
X13472Y4046D02*
X14354Y4046D01*
X14354Y4144D02*
X13373Y4144D01*
X13275Y4243D02*
X13632Y4243D01*
X13542Y4280D02*
X13727Y4203D01*
X13928Y4203D01*
X14114Y4280D01*
X14256Y4422D01*
X14333Y4608D01*
X14333Y5399D01*
X14256Y5585D01*
X14114Y5727D01*
X14098Y5734D01*
X14098Y6832D01*
X14114Y6839D01*
X14256Y6981D01*
X14333Y7167D01*
X14333Y7959D01*
X14256Y8144D01*
X14114Y8286D01*
X13928Y8363D01*
X13727Y8363D01*
X13542Y8286D01*
X13400Y8144D01*
X13323Y7959D01*
X13323Y7167D01*
X13400Y6981D01*
X13542Y6839D01*
X13558Y6832D01*
X13558Y5734D01*
X13542Y5727D01*
X13400Y5585D01*
X13323Y5399D01*
X13323Y4608D01*
X13400Y4422D01*
X13542Y4280D01*
X13481Y4341D02*
X13176Y4341D01*
X13078Y4440D02*
X13392Y4440D01*
X13351Y4538D02*
X12979Y4538D01*
X12972Y4637D02*
X13323Y4637D01*
X13323Y4735D02*
X12972Y4735D01*
X12972Y4834D02*
X13323Y4834D01*
X13323Y4932D02*
X12972Y4932D01*
X12972Y5031D02*
X13323Y5031D01*
X13323Y5129D02*
X12972Y5129D01*
X12972Y5228D02*
X13323Y5228D01*
X13323Y5326D02*
X12972Y5326D01*
X12972Y5425D02*
X13333Y5425D01*
X13374Y5523D02*
X12972Y5523D01*
X12952Y5622D02*
X13436Y5622D01*
X13535Y5720D02*
X12880Y5720D01*
X12781Y5819D02*
X13558Y5819D01*
X13558Y5917D02*
X12683Y5917D01*
X12584Y6016D02*
X13558Y6016D01*
X13558Y6114D02*
X12486Y6114D01*
X12387Y6213D02*
X13558Y6213D01*
X13558Y6311D02*
X12289Y6311D01*
X12190Y6410D02*
X13558Y6410D01*
X13558Y6508D02*
X12092Y6508D01*
X11993Y6607D02*
X13558Y6607D01*
X13558Y6705D02*
X11893Y6705D01*
X11749Y6483D02*
X12712Y5520D01*
X12712Y4438D01*
X14390Y2759D01*
X14545Y2759D01*
X14113Y2371D02*
X13977Y2371D01*
X13879Y2273D02*
X14212Y2273D01*
X14879Y2273D02*
X15212Y2273D01*
X15113Y2371D02*
X14977Y2371D01*
X15545Y2759D02*
X15862Y3076D01*
X15862Y4142D01*
X16255Y4536D01*
X16846Y4536D01*
X17192Y4882D01*
X17210Y4882D01*
X16648Y4834D02*
X16045Y4834D01*
X16045Y4932D02*
X16648Y4932D01*
X16648Y5031D02*
X15648Y5031D01*
X15551Y5031D02*
X14874Y5031D01*
X14874Y5129D02*
X15154Y5129D01*
X15154Y5052D02*
X15551Y5052D01*
X15551Y5742D01*
X15495Y5733D01*
X15429Y5712D01*
X15366Y5680D01*
X15309Y5639D01*
X15260Y5589D01*
X15219Y5532D01*
X15187Y5470D01*
X15165Y5403D01*
X15154Y5334D01*
X15154Y5052D01*
X15154Y4932D02*
X14874Y4932D01*
X14874Y4834D02*
X15154Y4834D01*
X15154Y4735D02*
X14874Y4735D01*
X14354Y4735D02*
X14333Y4735D01*
X14333Y4637D02*
X14354Y4637D01*
X14354Y4538D02*
X14304Y4538D01*
X14264Y4440D02*
X14354Y4440D01*
X14354Y4341D02*
X14175Y4341D01*
X14024Y4243D02*
X14354Y4243D01*
X14976Y4339D02*
X14976Y3492D01*
X14968Y3485D01*
X15357Y3455D02*
X15602Y3455D01*
X15602Y3553D02*
X15357Y3553D01*
X15357Y3652D02*
X15602Y3652D01*
X15602Y3750D02*
X15356Y3750D01*
X15258Y3849D02*
X15602Y3849D01*
X15602Y3947D02*
X15236Y3947D01*
X15336Y4046D02*
X15602Y4046D01*
X15602Y4144D02*
X15364Y4144D01*
X15364Y4243D02*
X15622Y4243D01*
X15648Y4341D02*
X15551Y4341D01*
X15551Y4440D02*
X15648Y4440D01*
X15648Y4538D02*
X15551Y4538D01*
X15551Y4637D02*
X15648Y4637D01*
X15648Y4735D02*
X15551Y4735D01*
X15551Y4834D02*
X15648Y4834D01*
X15648Y4932D02*
X15551Y4932D01*
X15551Y5129D02*
X15648Y5129D01*
X15648Y5228D02*
X15551Y5228D01*
X15551Y5326D02*
X15648Y5326D01*
X15648Y5425D02*
X15551Y5425D01*
X15551Y5523D02*
X15648Y5523D01*
X15648Y5622D02*
X15551Y5622D01*
X15551Y5720D02*
X15648Y5720D01*
X15744Y5720D02*
X16261Y5720D01*
X16261Y5622D02*
X15907Y5622D01*
X15985Y5523D02*
X16272Y5523D01*
X16324Y5425D02*
X16027Y5425D01*
X16045Y5326D02*
X16422Y5326D01*
X16521Y5228D02*
X16045Y5228D01*
X16045Y5129D02*
X16619Y5129D01*
X16087Y4735D02*
X16045Y4735D01*
X15154Y5228D02*
X14874Y5228D01*
X14924Y5326D02*
X15154Y5326D01*
X15172Y5425D02*
X15023Y5425D01*
X15070Y5523D02*
X15214Y5523D01*
X15293Y5622D02*
X15074Y5622D01*
X15074Y5720D02*
X15455Y5720D01*
X15074Y5819D02*
X16261Y5819D01*
X16261Y5917D02*
X15074Y5917D01*
X15074Y6016D02*
X16261Y6016D01*
X15776Y6114D02*
X15074Y6114D01*
X15074Y6213D02*
X15748Y6213D01*
X15748Y6311D02*
X15074Y6311D01*
X14554Y6311D02*
X14098Y6311D01*
X14098Y6213D02*
X14554Y6213D01*
X14554Y6114D02*
X14098Y6114D01*
X14098Y6016D02*
X14554Y6016D01*
X14554Y5917D02*
X14098Y5917D01*
X14098Y5819D02*
X14554Y5819D01*
X14554Y5720D02*
X14121Y5720D01*
X14220Y5622D02*
X14485Y5622D01*
X14390Y5523D02*
X14282Y5523D01*
X14323Y5425D02*
X14354Y5425D01*
X14354Y5326D02*
X14333Y5326D01*
X14333Y5228D02*
X14354Y5228D01*
X14354Y5129D02*
X14333Y5129D01*
X14333Y5031D02*
X14354Y5031D01*
X14354Y4932D02*
X14333Y4932D01*
X14333Y4834D02*
X14354Y4834D01*
X12318Y5520D02*
X12318Y3986D01*
X13545Y2759D01*
X13113Y2371D02*
X12977Y2371D01*
X12879Y2273D02*
X13212Y2273D01*
X12545Y2759D02*
X11925Y3380D01*
X11925Y5520D01*
X11562Y5883D01*
X9714Y5883D01*
X9514Y6083D01*
X9114Y5783D02*
X9314Y5583D01*
X8020Y4339D01*
X7941Y4339D01*
X7553Y4341D02*
X5986Y4341D01*
X6007Y4440D02*
X7553Y4440D01*
X7553Y4538D02*
X6007Y4538D01*
X6004Y4637D02*
X7585Y4637D01*
X8057Y4735D02*
X6047Y4735D01*
X6146Y4834D02*
X8159Y4834D01*
X8261Y4932D02*
X6244Y4932D01*
X6343Y5031D02*
X8364Y5031D01*
X8466Y5129D02*
X6441Y5129D01*
X6540Y5228D02*
X8569Y5228D01*
X8671Y5326D02*
X6638Y5326D01*
X6737Y5425D02*
X8774Y5425D01*
X8876Y5523D02*
X6835Y5523D01*
X6934Y5622D02*
X8908Y5622D01*
X8858Y5720D02*
X7032Y5720D01*
X7131Y5819D02*
X8854Y5819D01*
X8854Y5917D02*
X7229Y5917D01*
X7328Y6016D02*
X8854Y6016D01*
X8854Y6114D02*
X7426Y6114D01*
X7525Y6213D02*
X8831Y6213D01*
X8733Y6311D02*
X7623Y6311D01*
X7722Y6410D02*
X8726Y6410D01*
X8726Y6508D02*
X7787Y6508D01*
X7807Y6607D02*
X8726Y6607D01*
X8726Y6705D02*
X7807Y6705D01*
X7807Y6804D02*
X8726Y6804D01*
X8342Y6902D02*
X7807Y6902D01*
X7807Y7001D02*
X8243Y7001D01*
X8226Y7099D02*
X7807Y7099D01*
X7807Y7198D02*
X8226Y7198D01*
X8226Y7296D02*
X7807Y7296D01*
X7807Y7395D02*
X8226Y7395D01*
X8226Y7493D02*
X7807Y7493D01*
X7807Y7592D02*
X8269Y7592D01*
X8354Y7690D02*
X7807Y7690D01*
X7807Y7789D02*
X8326Y7789D01*
X8326Y7887D02*
X7807Y7887D01*
X7807Y7986D02*
X8326Y7986D01*
X8326Y8084D02*
X7807Y8084D01*
X7807Y8183D02*
X8326Y8183D01*
X8359Y8281D02*
X7807Y8281D01*
X7807Y8380D02*
X11703Y8380D01*
X11699Y8478D02*
X7807Y8478D01*
X7807Y8577D02*
X11713Y8577D01*
X11749Y8675D02*
X7807Y8675D01*
X7807Y8774D02*
X11809Y8774D01*
X12158Y8478D02*
X12184Y8478D01*
X11726Y8281D02*
X9069Y8281D01*
X8814Y7983D02*
X8714Y7983D01*
X8814Y7983D02*
X10314Y6483D01*
X11749Y6483D01*
X11655Y6183D02*
X12318Y5520D01*
X11553Y5444D02*
X11553Y2767D01*
X11545Y2759D01*
X10965Y2765D02*
X7864Y2765D01*
X7766Y2667D02*
X10965Y2667D01*
X10997Y2568D02*
X7667Y2568D01*
X7569Y2470D02*
X11037Y2470D01*
X11113Y2371D02*
X7490Y2371D01*
X7490Y2273D02*
X11212Y2273D01*
X11879Y2273D02*
X12212Y2273D01*
X12113Y2371D02*
X11977Y2371D01*
X10965Y2864D02*
X7963Y2864D01*
X8061Y2962D02*
X11002Y2962D01*
X11042Y3061D02*
X8160Y3061D01*
X8258Y3159D02*
X11125Y3159D01*
X11233Y3258D02*
X8357Y3258D01*
X8455Y3356D02*
X11293Y3356D01*
X11293Y3455D02*
X8554Y3455D01*
X8652Y3553D02*
X11293Y3553D01*
X11293Y3652D02*
X8751Y3652D01*
X8849Y3750D02*
X11293Y3750D01*
X11293Y3849D02*
X8948Y3849D01*
X9046Y3947D02*
X11293Y3947D01*
X11293Y4046D02*
X9145Y4046D01*
X9243Y4144D02*
X11293Y4144D01*
X11293Y4243D02*
X9342Y4243D01*
X9440Y4341D02*
X11293Y4341D01*
X11293Y4440D02*
X9539Y4440D01*
X9464Y4733D02*
X7102Y2371D01*
X6714Y2371D02*
X2281Y2371D01*
X2338Y2470D02*
X6714Y2470D01*
X6714Y2568D02*
X2395Y2568D01*
X2424Y2618D02*
X2424Y2618D01*
X2432Y2667D02*
X6745Y2667D01*
X7129Y2765D02*
X2450Y2765D01*
X2467Y2864D02*
X7227Y2864D01*
X7326Y2962D02*
X2483Y2962D01*
X2466Y3061D02*
X7424Y3061D01*
X7523Y3159D02*
X2448Y3159D01*
X2431Y3258D02*
X7621Y3258D01*
X7720Y3356D02*
X2390Y3356D01*
X2333Y3455D02*
X7818Y3455D01*
X7917Y3553D02*
X2277Y3553D01*
X2251Y3598D02*
X2251Y3598D01*
X2186Y3652D02*
X6742Y3652D01*
X6714Y3750D02*
X2069Y3750D01*
X1986Y3820D02*
X1986Y3820D01*
X1907Y3849D02*
X3205Y3849D01*
X3794Y3849D02*
X6714Y3849D01*
X6714Y3947D02*
X5603Y3947D01*
X5788Y4046D02*
X6714Y4046D01*
X6714Y4144D02*
X5886Y4144D01*
X5945Y4243D02*
X6746Y4243D01*
X7102Y3945D02*
X8185Y3945D01*
X9366Y5126D01*
X10457Y5126D01*
X10514Y5183D01*
X10744Y4733D02*
X9464Y4733D01*
X9314Y5583D02*
X11414Y5583D01*
X11553Y5444D01*
X11114Y5183D02*
X11114Y5103D01*
X10744Y4733D01*
X11015Y4637D02*
X11293Y4637D01*
X11293Y4735D02*
X11114Y4735D01*
X11293Y4538D02*
X10917Y4538D01*
X9114Y5783D02*
X9114Y6583D01*
X9014Y7283D02*
X8614Y7283D01*
X9014Y7283D02*
X10114Y6183D01*
X11655Y6183D01*
X10361Y6804D02*
X13558Y6804D01*
X13479Y6902D02*
X10262Y6902D01*
X10164Y7001D02*
X13391Y7001D01*
X13351Y7099D02*
X10065Y7099D01*
X9967Y7198D02*
X13323Y7198D01*
X13323Y7296D02*
X12280Y7296D01*
X12378Y7395D02*
X13323Y7395D01*
X13323Y7493D02*
X12893Y7493D01*
X12956Y7592D02*
X13323Y7592D01*
X13323Y7690D02*
X13015Y7690D01*
X13075Y7789D02*
X13323Y7789D01*
X13323Y7887D02*
X13134Y7887D01*
X13194Y7986D02*
X13334Y7986D01*
X13375Y8084D02*
X13253Y8084D01*
X13312Y8183D02*
X13438Y8183D01*
X13372Y8281D02*
X13537Y8281D01*
X13431Y8380D02*
X14426Y8380D01*
X14426Y8281D02*
X14119Y8281D01*
X14218Y8183D02*
X14426Y8183D01*
X14426Y8084D02*
X14281Y8084D01*
X14322Y7986D02*
X14426Y7986D01*
X14457Y7887D02*
X14333Y7887D01*
X14333Y7789D02*
X14554Y7789D01*
X14554Y7690D02*
X14333Y7690D01*
X14333Y7592D02*
X14554Y7592D01*
X14554Y7493D02*
X14333Y7493D01*
X14333Y7395D02*
X14554Y7395D01*
X14554Y7296D02*
X14333Y7296D01*
X14333Y7198D02*
X14554Y7198D01*
X14554Y7099D02*
X14305Y7099D01*
X14264Y7001D02*
X14554Y7001D01*
X14554Y6902D02*
X14177Y6902D01*
X14098Y6804D02*
X14554Y6804D01*
X14554Y6705D02*
X14098Y6705D01*
X14098Y6607D02*
X14554Y6607D01*
X14554Y6508D02*
X14098Y6508D01*
X14098Y6410D02*
X14554Y6410D01*
X15551Y6902D02*
X15648Y6902D01*
X15648Y7001D02*
X15551Y7001D01*
X15551Y7099D02*
X15648Y7099D01*
X15648Y7198D02*
X15551Y7198D01*
X15551Y7296D02*
X15648Y7296D01*
X15648Y7395D02*
X15551Y7395D01*
X15551Y7493D02*
X15648Y7493D01*
X15154Y7690D02*
X15074Y7690D01*
X15074Y7789D02*
X15154Y7789D01*
X15854Y6902D02*
X15954Y6902D01*
X17666Y8281D02*
X17790Y8281D01*
X17888Y8380D02*
X17568Y8380D01*
X17469Y8478D02*
X17987Y8478D01*
X17851Y8872D02*
X17261Y8872D01*
X17261Y8774D02*
X19195Y8774D01*
X19195Y8872D02*
X18203Y8872D01*
X18474Y8971D02*
X19195Y8971D01*
X19195Y9069D02*
X18620Y9069D01*
X18525Y8989D02*
X18525Y8989D01*
X18738Y9168D02*
X19195Y9168D01*
X19195Y9266D02*
X18821Y9266D01*
X18878Y9365D02*
X19195Y9365D01*
X19195Y9463D02*
X18935Y9463D01*
X18962Y9511D02*
X18962Y9511D01*
X18971Y9562D02*
X19195Y9562D01*
X19195Y9660D02*
X18989Y9660D01*
X19006Y9759D02*
X19195Y9759D01*
X19195Y9857D02*
X19021Y9857D01*
X19022Y9851D02*
X19022Y9851D01*
X19004Y9956D02*
X19188Y9956D01*
X19171Y10054D02*
X18986Y10054D01*
X18969Y10153D02*
X19145Y10153D01*
X19119Y10251D02*
X18928Y10251D01*
X18962Y10191D02*
X18962Y10191D01*
X18871Y10350D02*
X19076Y10350D01*
X19019Y10448D02*
X18814Y10448D01*
X18789Y10491D02*
X18789Y10491D01*
X18722Y10547D02*
X18962Y10547D01*
X18870Y10645D02*
X18605Y10645D01*
X18439Y10744D02*
X18772Y10744D01*
X18626Y10842D02*
X16927Y10842D01*
X16927Y10744D02*
X17615Y10744D01*
X17449Y10645D02*
X16927Y10645D01*
X16927Y10547D02*
X17332Y10547D01*
X17240Y10448D02*
X16927Y10448D01*
X16927Y10350D02*
X17183Y10350D01*
X17127Y10251D02*
X16927Y10251D01*
X16927Y10153D02*
X17085Y10153D01*
X17092Y10191D02*
X17092Y10191D01*
X17068Y10054D02*
X16927Y10054D01*
X16927Y9956D02*
X17050Y9956D01*
X17033Y9857D02*
X16927Y9857D01*
X16927Y9759D02*
X17048Y9759D01*
X17066Y9660D02*
X16927Y9660D01*
X16958Y9562D02*
X17083Y9562D01*
X17057Y9463D02*
X17119Y9463D01*
X17155Y9365D02*
X17176Y9365D01*
X17265Y9211D02*
X17265Y9211D01*
X17261Y9168D02*
X17317Y9168D01*
X17261Y9069D02*
X17434Y9069D01*
X17530Y8989D02*
X17530Y8989D01*
X17580Y8971D02*
X17261Y8971D01*
X17261Y8675D02*
X19195Y8675D01*
X19195Y8577D02*
X17166Y8577D01*
X18469Y8478D02*
X19195Y8478D01*
X19195Y8380D02*
X18568Y8380D01*
X18666Y8281D02*
X19195Y8281D01*
X19195Y8183D02*
X18765Y8183D01*
X18808Y8084D02*
X19195Y8084D01*
X19195Y7986D02*
X18808Y7986D01*
X18808Y7887D02*
X19195Y7887D01*
X19195Y7789D02*
X18808Y7789D01*
X18808Y7690D02*
X19195Y7690D01*
X19195Y7592D02*
X18741Y7592D01*
X18642Y7493D02*
X19195Y7493D01*
X19195Y7395D02*
X18553Y7395D01*
X18651Y7296D02*
X19195Y7296D01*
X19195Y7198D02*
X18750Y7198D01*
X18808Y7099D02*
X19195Y7099D01*
X19195Y7001D02*
X18808Y7001D01*
X18808Y6902D02*
X19195Y6902D01*
X19195Y6804D02*
X18808Y6804D01*
X18808Y6705D02*
X19195Y6705D01*
X19195Y6607D02*
X18756Y6607D01*
X18657Y6508D02*
X19195Y6508D01*
X19195Y6410D02*
X18559Y6410D01*
X18636Y6311D02*
X19195Y6311D01*
X19195Y6213D02*
X18735Y6213D01*
X18808Y6114D02*
X19195Y6114D01*
X19195Y6016D02*
X18808Y6016D01*
X18808Y5917D02*
X19195Y5917D01*
X19195Y5819D02*
X18808Y5819D01*
X18808Y5720D02*
X19195Y5720D01*
X19195Y5622D02*
X18771Y5622D01*
X18672Y5523D02*
X19195Y5523D01*
X19195Y5425D02*
X18574Y5425D01*
X18536Y5326D02*
X19195Y5326D01*
X19195Y5228D02*
X18635Y5228D01*
X18733Y5129D02*
X19195Y5129D01*
X19195Y5031D02*
X18748Y5031D01*
X18748Y4834D02*
X19195Y4834D01*
X19195Y4932D02*
X18278Y4932D01*
X18278Y4834D02*
X18178Y4834D01*
X18178Y4735D02*
X18278Y4735D01*
X18278Y4637D02*
X18178Y4637D01*
X18178Y4538D02*
X18278Y4538D01*
X18278Y4440D02*
X18178Y4440D01*
X17952Y4440D02*
X17589Y4440D01*
X17687Y4538D02*
X17854Y4538D01*
X17490Y4341D02*
X19195Y4341D01*
X19195Y4243D02*
X17074Y4243D01*
X17173Y4144D02*
X19195Y4144D01*
X19195Y4046D02*
X17201Y4046D01*
X17201Y3947D02*
X19195Y3947D01*
X19195Y3849D02*
X18448Y3849D01*
X18528Y3820D02*
X18203Y3938D01*
X17857Y3938D01*
X17533Y3820D01*
X17533Y3820D01*
X17268Y3598D01*
X17268Y3598D01*
X17268Y3598D01*
X17095Y3298D01*
X17035Y2958D01*
X17044Y2906D01*
X17027Y2959D01*
X16990Y3032D01*
X16942Y3098D01*
X16884Y3156D01*
X16823Y3200D01*
X17201Y3578D01*
X17201Y3797D01*
X16601Y3797D01*
X16601Y3277D01*
X16595Y3278D01*
X16595Y2809D01*
X17061Y2809D01*
X17095Y2618D01*
X17095Y2618D01*
X17268Y2318D01*
X17533Y2096D01*
X17857Y1978D01*
X18203Y1978D01*
X18528Y2096D01*
X18793Y2318D01*
X18793Y2318D01*
X18793Y2318D01*
X18965Y2618D01*
X19025Y2958D01*
X18965Y3298D01*
X18965Y3298D01*
X18793Y3598D01*
X18528Y3820D01*
X18528Y3820D01*
X18611Y3750D02*
X19195Y3750D01*
X19195Y3652D02*
X18728Y3652D01*
X18793Y3598D02*
X18793Y3598D01*
X18818Y3553D02*
X19195Y3553D01*
X19195Y3455D02*
X18875Y3455D01*
X18932Y3356D02*
X19195Y3356D01*
X19195Y3258D02*
X18973Y3258D01*
X18990Y3159D02*
X19195Y3159D01*
X19195Y3061D02*
X19007Y3061D01*
X19025Y2962D02*
X19195Y2962D01*
X19189Y2864D02*
X19009Y2864D01*
X19025Y2958D02*
X19025Y2958D01*
X18991Y2765D02*
X19173Y2765D01*
X19147Y2667D02*
X18974Y2667D01*
X18965Y2618D02*
X18965Y2618D01*
X18937Y2568D02*
X19121Y2568D01*
X19080Y2470D02*
X18880Y2470D01*
X18823Y2371D02*
X19024Y2371D01*
X18967Y2273D02*
X18738Y2273D01*
X18621Y2174D02*
X18878Y2174D01*
X18779Y2076D02*
X18471Y2076D01*
X18528Y2096D02*
X18528Y2096D01*
X17589Y2076D02*
X7460Y2076D01*
X7490Y2174D02*
X17440Y2174D01*
X17533Y2096D02*
X17533Y2096D01*
X17322Y2273D02*
X16731Y2273D01*
X16595Y2273D02*
X16495Y2273D01*
X16495Y2371D02*
X16595Y2371D01*
X16595Y2470D02*
X16495Y2470D01*
X16495Y2568D02*
X16595Y2568D01*
X16595Y2667D02*
X16495Y2667D01*
X16595Y2765D02*
X17069Y2765D01*
X17057Y2667D02*
X17087Y2667D01*
X17124Y2568D02*
X17030Y2568D01*
X16978Y2470D02*
X17181Y2470D01*
X17237Y2371D02*
X16893Y2371D01*
X17268Y2318D02*
X17268Y2318D01*
X16595Y2864D02*
X16495Y2864D01*
X16495Y2962D02*
X16595Y2962D01*
X16595Y3061D02*
X16495Y3061D01*
X16495Y3159D02*
X16595Y3159D01*
X16595Y3258D02*
X16501Y3258D01*
X16501Y3356D02*
X16601Y3356D01*
X16601Y3455D02*
X16501Y3455D01*
X16501Y3553D02*
X16601Y3553D01*
X16601Y3652D02*
X16501Y3652D01*
X16501Y3750D02*
X16601Y3750D01*
X16601Y3849D02*
X17612Y3849D01*
X17450Y3750D02*
X17201Y3750D01*
X17201Y3652D02*
X17332Y3652D01*
X17242Y3553D02*
X17176Y3553D01*
X17185Y3455D02*
X17078Y3455D01*
X17129Y3356D02*
X16979Y3356D01*
X17095Y3298D02*
X17095Y3298D01*
X17088Y3258D02*
X16881Y3258D01*
X16880Y3159D02*
X17071Y3159D01*
X17053Y3061D02*
X16969Y3061D01*
X17026Y2962D02*
X17036Y2962D01*
X17035Y2958D02*
X17035Y2958D01*
X16113Y2470D02*
X16053Y2470D01*
X15977Y2371D02*
X16198Y2371D01*
X16360Y2273D02*
X15879Y2273D01*
X15602Y3356D02*
X15357Y3356D01*
X18504Y4440D02*
X19195Y4440D01*
X19195Y4538D02*
X18602Y4538D01*
X18701Y4637D02*
X19195Y4637D01*
X19195Y4735D02*
X18748Y4735D01*
X12142Y9562D02*
X11975Y9562D01*
X12142Y9660D02*
X11719Y9660D01*
X11464Y9759D02*
X12166Y9759D01*
X12207Y9857D02*
X11208Y9857D01*
X10953Y9956D02*
X12299Y9956D01*
X12484Y10054D02*
X10698Y10054D01*
X12142Y10547D02*
X7060Y10547D01*
X6962Y10645D02*
X12142Y10645D01*
X12160Y10744D02*
X6863Y10744D01*
X6765Y10842D02*
X12200Y10842D01*
X12284Y10941D02*
X6651Y10941D01*
X7159Y10448D02*
X12173Y10448D01*
X12218Y10350D02*
X7257Y10350D01*
X7356Y10251D02*
X12316Y10251D01*
X12700Y10054D02*
X12757Y10054D01*
X12757Y10153D02*
X7797Y10153D01*
X6634Y10153D02*
X6571Y10153D01*
X6108Y9660D02*
X6008Y9660D01*
X5114Y8983D02*
X5114Y7783D01*
X5714Y7183D01*
X5326Y7099D02*
X5151Y7099D01*
X6057Y7493D02*
X6556Y7493D01*
X6158Y7395D02*
X6102Y7395D01*
X6400Y6902D02*
X7227Y6902D01*
X7227Y6804D02*
X6302Y6804D01*
X6203Y6705D02*
X7197Y6705D01*
X7099Y6607D02*
X6105Y6607D01*
X6705Y6213D02*
X3904Y6213D01*
X3945Y6311D02*
X6803Y6311D01*
X6902Y6410D02*
X5093Y6410D01*
X5192Y6508D02*
X7000Y6508D01*
X6606Y6114D02*
X3843Y6114D01*
X3762Y6016D02*
X6508Y6016D01*
X6409Y5917D02*
X3924Y5917D01*
X4022Y5819D02*
X6311Y5819D01*
X6212Y5720D02*
X4081Y5720D01*
X4122Y5622D02*
X6114Y5622D01*
X6015Y5523D02*
X4152Y5523D01*
X4152Y5425D02*
X5917Y5425D01*
X5818Y5326D02*
X4152Y5326D01*
X4128Y5228D02*
X5720Y5228D01*
X5621Y5129D02*
X4087Y5129D01*
X4036Y5031D02*
X5115Y5031D01*
X4994Y4932D02*
X3937Y4932D01*
X4023Y4834D02*
X4904Y4834D01*
X4863Y4735D02*
X4081Y4735D01*
X4122Y4637D02*
X4823Y4637D01*
X4820Y4538D02*
X4152Y4538D01*
X4152Y4440D02*
X4820Y4440D01*
X4841Y4341D02*
X4152Y4341D01*
X4127Y4243D02*
X4882Y4243D01*
X4941Y4144D02*
X4086Y4144D01*
X4035Y4046D02*
X5040Y4046D01*
X5224Y3947D02*
X3937Y3947D01*
X2154Y4932D02*
X324Y4932D01*
X324Y4834D02*
X347Y4834D01*
X747Y4834D02*
X1331Y4834D01*
X1202Y4735D02*
X876Y4735D01*
X946Y4637D02*
X1132Y4637D01*
X1091Y4538D02*
X986Y4538D01*
X993Y4440D02*
X1085Y4440D01*
X1086Y4341D02*
X992Y4341D01*
X951Y4243D02*
X1127Y4243D01*
X1189Y4144D02*
X888Y4144D01*
X776Y4046D02*
X1301Y4046D01*
X2196Y2273D02*
X6714Y2273D01*
X6714Y2174D02*
X2079Y2174D01*
X1930Y2076D02*
X6744Y2076D01*
X7461Y3652D02*
X8015Y3652D01*
X7553Y4243D02*
X7458Y4243D01*
X4534Y6410D02*
X3946Y6410D01*
X3939Y6508D02*
X4436Y6508D01*
X6799Y7001D02*
X7227Y7001D01*
X7227Y7099D02*
X6897Y7099D01*
X4854Y7986D02*
X4038Y7986D01*
X4088Y8084D02*
X4854Y8084D01*
X4854Y8183D02*
X4128Y8183D01*
X4152Y8281D02*
X4854Y8281D01*
X4854Y8380D02*
X4152Y8380D01*
X4152Y8478D02*
X4854Y8478D01*
X4854Y8577D02*
X4121Y8577D01*
X4080Y8675D02*
X4854Y8675D01*
X4854Y8774D02*
X4020Y8774D01*
X3921Y8872D02*
X4854Y8872D01*
X4759Y8971D02*
X3757Y8971D01*
X4365Y9365D02*
X2338Y9365D01*
X2394Y9463D02*
X4266Y9463D01*
X4463Y9266D02*
X2281Y9266D01*
X2195Y9168D02*
X4562Y9168D01*
X4660Y9069D02*
X2078Y9069D01*
X2424Y9514D02*
X2424Y9514D01*
X2432Y9562D02*
X2522Y9562D01*
X2478Y9660D02*
X2449Y9660D01*
X2467Y9759D02*
X2478Y9759D01*
X2466Y9956D02*
X2478Y9956D01*
X2478Y10054D02*
X2448Y10054D01*
X2431Y10153D02*
X2478Y10153D01*
X2478Y10251D02*
X2391Y10251D01*
X2334Y10350D02*
X2478Y10350D01*
X2478Y10448D02*
X2277Y10448D01*
X2251Y10494D02*
X2251Y10494D01*
X2188Y10547D02*
X2506Y10547D01*
X2070Y10645D02*
X3270Y10645D01*
X3368Y10744D02*
X1910Y10744D01*
X1986Y10716D02*
X1986Y10716D01*
X1068Y10744D02*
X747Y10744D01*
X648Y10645D02*
X907Y10645D01*
X789Y10547D02*
X556Y10547D01*
X499Y10448D02*
X700Y10448D01*
X726Y10494D02*
X726Y10494D01*
X643Y10350D02*
X443Y10350D01*
X400Y10251D02*
X586Y10251D01*
X546Y10153D02*
X374Y10153D01*
X347Y10054D02*
X529Y10054D01*
X511Y9956D02*
X331Y9956D01*
X324Y9857D02*
X494Y9857D01*
X493Y9854D02*
X493Y9854D01*
X510Y9759D02*
X324Y9759D01*
X324Y9660D02*
X528Y9660D01*
X545Y9562D02*
X324Y9562D01*
X324Y9463D02*
X583Y9463D01*
X639Y9365D02*
X324Y9365D01*
X324Y9266D02*
X696Y9266D01*
X726Y9214D02*
X726Y9214D01*
X782Y9168D02*
X324Y9168D01*
X324Y9069D02*
X899Y9069D01*
X991Y8992D02*
X991Y8992D01*
X1050Y8971D02*
X324Y8971D01*
X893Y10842D02*
X3466Y10842D01*
X3471Y10847D02*
X3471Y10847D01*
X3552Y10929D02*
X3552Y10929D01*
X3581Y10941D02*
X1085Y10941D01*
X3659Y10973D02*
X3659Y10973D01*
X4058Y10062D02*
X4058Y10038D01*
X5114Y8983D01*
X3751Y9562D02*
X3595Y9562D01*
X3638Y9660D02*
X3640Y9660D01*
X16903Y10941D02*
X18434Y10941D01*
D23*
X16551Y8965D02*
X12717Y8965D01*
X10602Y9780D01*
X7517Y9780D01*
X7517Y6615D01*
X5414Y4512D01*
X7417Y9780D02*
X6515Y10682D01*
X6515Y10683D01*
X3717Y10683D01*
X3099Y10062D01*
X3058Y10062D01*
X7417Y9780D02*
X7517Y9780D01*
X15600Y7563D02*
X15600Y5004D01*
X16551Y5608D02*
X17210Y4948D01*
X17210Y4882D01*
X17228Y4899D01*
X16551Y5608D02*
X16551Y8965D01*
D24*
X1350Y11672D02*
X8100Y11672D01*
X8168Y11674D01*
X8235Y11679D01*
X8302Y11688D01*
X8369Y11701D01*
X8434Y11718D01*
X8499Y11737D01*
X8563Y11761D01*
X8625Y11788D01*
X8686Y11818D01*
X8744Y11851D01*
X8801Y11887D01*
X8856Y11927D01*
X8909Y11969D01*
X8960Y12015D01*
X9007Y12062D01*
X9053Y12113D01*
X9095Y12166D01*
X9135Y12221D01*
X9171Y12278D01*
X9204Y12336D01*
X9234Y12397D01*
X9261Y12459D01*
X9285Y12523D01*
X9304Y12588D01*
X9321Y12653D01*
X9334Y12720D01*
X9343Y12787D01*
X9348Y12854D01*
X9350Y12922D01*
X9350Y19672D01*
X9348Y19740D01*
X9343Y19807D01*
X9334Y19874D01*
X9321Y19941D01*
X9304Y20006D01*
X9285Y20071D01*
X9261Y20135D01*
X9234Y20197D01*
X9204Y20258D01*
X9171Y20316D01*
X9135Y20373D01*
X9095Y20428D01*
X9053Y20481D01*
X9007Y20532D01*
X8960Y20579D01*
X8909Y20625D01*
X8856Y20667D01*
X8801Y20707D01*
X8744Y20743D01*
X8686Y20776D01*
X8625Y20806D01*
X8563Y20833D01*
X8499Y20857D01*
X8434Y20876D01*
X8369Y20893D01*
X8302Y20906D01*
X8235Y20915D01*
X8168Y20920D01*
X8100Y20922D01*
X1350Y20922D01*
X1282Y20920D01*
X1215Y20915D01*
X1148Y20906D01*
X1081Y20893D01*
X1016Y20876D01*
X951Y20857D01*
X887Y20833D01*
X825Y20806D01*
X764Y20776D01*
X706Y20743D01*
X649Y20707D01*
X594Y20667D01*
X541Y20625D01*
X490Y20579D01*
X443Y20532D01*
X397Y20481D01*
X355Y20428D01*
X315Y20373D01*
X279Y20316D01*
X246Y20258D01*
X216Y20197D01*
X189Y20135D01*
X165Y20071D01*
X146Y20006D01*
X129Y19941D01*
X116Y19874D01*
X107Y19807D01*
X102Y19740D01*
X100Y19672D01*
X100Y12922D01*
X101Y12922D02*
X99Y12856D01*
X101Y12790D01*
X107Y12724D01*
X116Y12658D01*
X129Y12593D01*
X146Y12528D01*
X166Y12465D01*
X190Y12403D01*
X217Y12343D01*
X248Y12284D01*
X282Y12226D01*
X319Y12171D01*
X359Y12118D01*
X402Y12068D01*
X447Y12019D01*
X496Y11974D01*
X546Y11931D01*
X599Y11891D01*
X654Y11854D01*
X712Y11820D01*
X771Y11789D01*
X831Y11762D01*
X893Y11738D01*
X956Y11718D01*
X1021Y11701D01*
X1086Y11688D01*
X1152Y11679D01*
X1218Y11673D01*
X1284Y11671D01*
X1350Y11673D01*
X725Y14172D02*
X727Y14222D01*
X733Y14271D01*
X743Y14320D01*
X756Y14367D01*
X774Y14414D01*
X795Y14459D01*
X819Y14502D01*
X847Y14543D01*
X878Y14582D01*
X912Y14618D01*
X949Y14652D01*
X989Y14682D01*
X1030Y14709D01*
X1074Y14733D01*
X1119Y14753D01*
X1166Y14769D01*
X1214Y14782D01*
X1263Y14791D01*
X1313Y14796D01*
X1362Y14797D01*
X1412Y14794D01*
X1461Y14787D01*
X1510Y14776D01*
X1557Y14762D01*
X1603Y14743D01*
X1648Y14721D01*
X1691Y14696D01*
X1731Y14667D01*
X1769Y14635D01*
X1805Y14601D01*
X1838Y14563D01*
X1867Y14523D01*
X1893Y14481D01*
X1916Y14437D01*
X1935Y14391D01*
X1951Y14344D01*
X1963Y14295D01*
X1971Y14246D01*
X1975Y14197D01*
X1975Y14147D01*
X1971Y14098D01*
X1963Y14049D01*
X1951Y14000D01*
X1935Y13953D01*
X1916Y13907D01*
X1893Y13863D01*
X1867Y13821D01*
X1838Y13781D01*
X1805Y13743D01*
X1769Y13709D01*
X1731Y13677D01*
X1691Y13648D01*
X1648Y13623D01*
X1603Y13601D01*
X1557Y13582D01*
X1510Y13568D01*
X1461Y13557D01*
X1412Y13550D01*
X1362Y13547D01*
X1313Y13548D01*
X1263Y13553D01*
X1214Y13562D01*
X1166Y13575D01*
X1119Y13591D01*
X1074Y13611D01*
X1030Y13635D01*
X989Y13662D01*
X949Y13692D01*
X912Y13726D01*
X878Y13762D01*
X847Y13801D01*
X819Y13842D01*
X795Y13885D01*
X774Y13930D01*
X756Y13977D01*
X743Y14024D01*
X733Y14073D01*
X727Y14122D01*
X725Y14172D01*
X7475Y14172D02*
X7477Y14222D01*
X7483Y14271D01*
X7493Y14320D01*
X7506Y14367D01*
X7524Y14414D01*
X7545Y14459D01*
X7569Y14502D01*
X7597Y14543D01*
X7628Y14582D01*
X7662Y14618D01*
X7699Y14652D01*
X7739Y14682D01*
X7780Y14709D01*
X7824Y14733D01*
X7869Y14753D01*
X7916Y14769D01*
X7964Y14782D01*
X8013Y14791D01*
X8063Y14796D01*
X8112Y14797D01*
X8162Y14794D01*
X8211Y14787D01*
X8260Y14776D01*
X8307Y14762D01*
X8353Y14743D01*
X8398Y14721D01*
X8441Y14696D01*
X8481Y14667D01*
X8519Y14635D01*
X8555Y14601D01*
X8588Y14563D01*
X8617Y14523D01*
X8643Y14481D01*
X8666Y14437D01*
X8685Y14391D01*
X8701Y14344D01*
X8713Y14295D01*
X8721Y14246D01*
X8725Y14197D01*
X8725Y14147D01*
X8721Y14098D01*
X8713Y14049D01*
X8701Y14000D01*
X8685Y13953D01*
X8666Y13907D01*
X8643Y13863D01*
X8617Y13821D01*
X8588Y13781D01*
X8555Y13743D01*
X8519Y13709D01*
X8481Y13677D01*
X8441Y13648D01*
X8398Y13623D01*
X8353Y13601D01*
X8307Y13582D01*
X8260Y13568D01*
X8211Y13557D01*
X8162Y13550D01*
X8112Y13547D01*
X8063Y13548D01*
X8013Y13553D01*
X7964Y13562D01*
X7916Y13575D01*
X7869Y13591D01*
X7824Y13611D01*
X7780Y13635D01*
X7739Y13662D01*
X7699Y13692D01*
X7662Y13726D01*
X7628Y13762D01*
X7597Y13801D01*
X7569Y13842D01*
X7545Y13885D01*
X7524Y13930D01*
X7506Y13977D01*
X7493Y14024D01*
X7483Y14073D01*
X7477Y14122D01*
X7475Y14172D01*
D25*
X5709Y14094D03*
X4725Y14094D03*
X3741Y14094D03*
X3741Y19803D03*
X5709Y19803D03*
D26*
X7173Y17047D03*
X2277Y17047D03*
D27*
X6725Y12922D03*
D28*
X5725Y12922D03*
X4725Y12922D03*
X3725Y12922D03*
X2725Y12922D03*
D29*
X875Y16897D03*
X8625Y16897D03*
D30*
X8801Y12123D02*
X611Y12123D01*
X680Y12054D02*
X482Y12252D01*
X345Y12498D01*
X282Y12772D01*
X280Y12898D01*
X280Y12917D01*
X284Y12987D01*
X280Y12991D01*
X280Y13962D01*
X336Y13752D01*
X480Y13504D01*
X682Y13302D01*
X930Y13158D01*
X1207Y13084D01*
X1493Y13084D01*
X1770Y13158D01*
X2018Y13302D01*
X2220Y13504D01*
X2364Y13752D01*
X2438Y14029D01*
X2438Y14315D01*
X2364Y14592D01*
X2220Y14840D01*
X2018Y15042D01*
X1770Y15186D01*
X1493Y15260D01*
X1207Y15260D01*
X930Y15186D01*
X682Y15042D01*
X480Y14840D01*
X336Y14592D01*
X280Y14382D01*
X280Y19597D01*
X280Y19672D01*
X289Y19812D01*
X361Y20081D01*
X501Y20323D01*
X699Y20521D01*
X941Y20661D01*
X1210Y20733D01*
X1350Y20742D01*
X8100Y20742D01*
X8240Y20733D01*
X8509Y20661D01*
X8751Y20521D01*
X8949Y20323D01*
X9089Y20081D01*
X9161Y19812D01*
X9170Y19672D01*
X9170Y14382D01*
X9114Y14592D01*
X8970Y14840D01*
X8768Y15042D01*
X8520Y15186D01*
X8243Y15260D01*
X7957Y15260D01*
X7680Y15186D01*
X7432Y15042D01*
X7230Y14840D01*
X7195Y14780D01*
X7195Y15138D01*
X5945Y16388D01*
X5945Y19334D01*
X6006Y19359D01*
X6153Y19506D01*
X6233Y19699D01*
X6233Y19907D01*
X6153Y20100D01*
X6006Y20247D01*
X5813Y20327D01*
X5605Y20327D01*
X5413Y20247D01*
X5265Y20100D01*
X5185Y19907D01*
X5185Y19699D01*
X5265Y19506D01*
X5413Y19359D01*
X5505Y19320D01*
X5505Y16206D01*
X5634Y16077D01*
X6755Y14956D01*
X6755Y13388D01*
X6665Y13298D01*
X6431Y13298D01*
X6349Y13216D01*
X6349Y12628D01*
X6431Y12546D01*
X7019Y12546D01*
X7101Y12628D01*
X7101Y13112D01*
X7195Y13206D01*
X7195Y13564D01*
X7230Y13504D01*
X7432Y13302D01*
X7680Y13158D01*
X7957Y13084D01*
X8243Y13084D01*
X8520Y13158D01*
X8768Y13302D01*
X8970Y13504D01*
X9114Y13752D01*
X9170Y13962D01*
X9170Y12922D01*
X9161Y12782D01*
X9089Y12513D01*
X8949Y12271D01*
X8751Y12073D01*
X8509Y11933D01*
X8240Y11861D01*
X8100Y11852D01*
X1419Y11852D01*
X1415Y11856D01*
X1345Y11852D01*
X1326Y11852D01*
X1200Y11854D01*
X926Y11917D01*
X680Y12054D01*
X842Y11964D02*
X8562Y11964D01*
X8955Y12281D02*
X466Y12281D01*
X378Y12440D02*
X9046Y12440D01*
X9111Y12598D02*
X7071Y12598D01*
X7101Y12757D02*
X9154Y12757D01*
X9170Y12915D02*
X7101Y12915D01*
X7101Y13074D02*
X9170Y13074D01*
X9170Y13232D02*
X8647Y13232D01*
X8857Y13391D02*
X9170Y13391D01*
X9170Y13549D02*
X8996Y13549D01*
X9088Y13708D02*
X9170Y13708D01*
X9170Y13866D02*
X9144Y13866D01*
X9138Y14500D02*
X9170Y14500D01*
X9170Y14659D02*
X9075Y14659D01*
X8984Y14817D02*
X9170Y14817D01*
X9170Y14976D02*
X8835Y14976D01*
X8609Y15134D02*
X9170Y15134D01*
X9170Y15293D02*
X7041Y15293D01*
X7195Y15134D02*
X7591Y15134D01*
X7365Y14976D02*
X7195Y14976D01*
X7195Y14817D02*
X7216Y14817D01*
X6975Y15047D02*
X5725Y16297D01*
X5725Y19537D01*
X5709Y19803D01*
X5358Y19414D02*
X4092Y19414D01*
X4037Y19359D02*
X4185Y19506D01*
X4265Y19699D01*
X4265Y19907D01*
X4185Y20100D01*
X4037Y20247D01*
X3845Y20327D01*
X3637Y20327D01*
X3444Y20247D01*
X3297Y20100D01*
X3217Y19907D01*
X3217Y19699D01*
X3297Y19506D01*
X3444Y19359D01*
X3505Y19334D01*
X3505Y17206D01*
X3634Y17077D01*
X6255Y14456D01*
X6255Y13888D01*
X5665Y13298D01*
X5650Y13298D01*
X5512Y13241D01*
X5406Y13135D01*
X5349Y12997D01*
X5349Y12847D01*
X5406Y12709D01*
X5512Y12603D01*
X5650Y12546D01*
X5800Y12546D01*
X5938Y12603D01*
X6044Y12709D01*
X6101Y12847D01*
X6101Y12997D01*
X6067Y13078D01*
X6566Y13577D01*
X6695Y13706D01*
X6695Y14638D01*
X6566Y14767D01*
X3945Y17388D01*
X3945Y19320D01*
X4037Y19359D01*
X3945Y19255D02*
X5505Y19255D01*
X5505Y19097D02*
X3945Y19097D01*
X3945Y18938D02*
X5505Y18938D01*
X5505Y18780D02*
X3945Y18780D01*
X3945Y18621D02*
X5505Y18621D01*
X5505Y18463D02*
X3945Y18463D01*
X3945Y18304D02*
X5505Y18304D01*
X5505Y18146D02*
X3945Y18146D01*
X3945Y17987D02*
X5505Y17987D01*
X5505Y17829D02*
X3945Y17829D01*
X3945Y17670D02*
X5505Y17670D01*
X5505Y17512D02*
X3945Y17512D01*
X3980Y17353D02*
X5505Y17353D01*
X5505Y17195D02*
X4139Y17195D01*
X4297Y17036D02*
X5505Y17036D01*
X5505Y16878D02*
X4456Y16878D01*
X4614Y16719D02*
X5505Y16719D01*
X5505Y16561D02*
X4773Y16561D01*
X4931Y16402D02*
X5505Y16402D01*
X5505Y16244D02*
X5090Y16244D01*
X5248Y16085D02*
X5626Y16085D01*
X5784Y15927D02*
X5407Y15927D01*
X5565Y15768D02*
X5943Y15768D01*
X6101Y15610D02*
X5724Y15610D01*
X5882Y15451D02*
X6260Y15451D01*
X6418Y15293D02*
X6041Y15293D01*
X6199Y15134D02*
X6577Y15134D01*
X6735Y14976D02*
X6358Y14976D01*
X6516Y14817D02*
X6755Y14817D01*
X6755Y14659D02*
X6675Y14659D01*
X6566Y14767D02*
X6566Y14767D01*
X6475Y14547D02*
X3725Y17297D01*
X3725Y19537D01*
X3741Y19803D01*
X4212Y19572D02*
X5238Y19572D01*
X5185Y19731D02*
X4265Y19731D01*
X4265Y19889D02*
X5185Y19889D01*
X5244Y20048D02*
X4206Y20048D01*
X4078Y20206D02*
X5372Y20206D01*
X6047Y20206D02*
X9017Y20206D01*
X8908Y20365D02*
X542Y20365D01*
X433Y20206D02*
X3403Y20206D01*
X3275Y20048D02*
X352Y20048D01*
X310Y19889D02*
X3217Y19889D01*
X3217Y19731D02*
X284Y19731D01*
X280Y19572D02*
X3269Y19572D01*
X3389Y19414D02*
X280Y19414D01*
X280Y19255D02*
X3505Y19255D01*
X3505Y19097D02*
X280Y19097D01*
X280Y18938D02*
X3505Y18938D01*
X3505Y18780D02*
X280Y18780D01*
X280Y18621D02*
X3505Y18621D01*
X3505Y18463D02*
X280Y18463D01*
X280Y18304D02*
X3505Y18304D01*
X3505Y18146D02*
X280Y18146D01*
X280Y17987D02*
X3505Y17987D01*
X3505Y17829D02*
X280Y17829D01*
X280Y17670D02*
X1504Y17670D01*
X1504Y17738D02*
X1504Y16356D01*
X1586Y16274D01*
X2968Y16274D01*
X3050Y16356D01*
X3050Y17738D01*
X2968Y17820D01*
X1586Y17820D01*
X1504Y17738D01*
X1504Y17512D02*
X280Y17512D01*
X280Y17353D02*
X485Y17353D01*
X506Y17365D02*
X464Y17341D01*
X431Y17308D01*
X407Y17266D01*
X395Y17221D01*
X395Y16917D01*
X855Y16917D01*
X855Y17377D01*
X551Y17377D01*
X506Y17365D01*
X395Y17195D02*
X280Y17195D01*
X280Y17036D02*
X395Y17036D01*
X395Y16877D02*
X395Y16573D01*
X407Y16528D01*
X431Y16486D01*
X464Y16453D01*
X506Y16429D01*
X551Y16417D01*
X855Y16417D01*
X855Y16877D01*
X895Y16877D01*
X895Y16917D01*
X1355Y16917D01*
X1355Y17221D01*
X1343Y17266D01*
X1319Y17308D01*
X1286Y17341D01*
X1244Y17365D01*
X1199Y17377D01*
X895Y17377D01*
X895Y16917D01*
X855Y16917D01*
X855Y16877D01*
X395Y16877D01*
X280Y16878D02*
X855Y16878D01*
X895Y16878D02*
X1504Y16878D01*
X1355Y16877D02*
X895Y16877D01*
X895Y16417D01*
X1199Y16417D01*
X1244Y16429D01*
X1286Y16453D01*
X1319Y16486D01*
X1343Y16528D01*
X1355Y16573D01*
X1355Y16877D01*
X1375Y17022D02*
X3125Y17022D01*
X3050Y17036D02*
X3675Y17036D01*
X3634Y17077D02*
X3634Y17077D01*
X3516Y17195D02*
X3050Y17195D01*
X3050Y17353D02*
X3505Y17353D01*
X3505Y17512D02*
X3050Y17512D01*
X3050Y17670D02*
X3505Y17670D01*
X3833Y16878D02*
X3050Y16878D01*
X3050Y16719D02*
X3992Y16719D01*
X4150Y16561D02*
X3050Y16561D01*
X3050Y16402D02*
X4309Y16402D01*
X4467Y16244D02*
X280Y16244D01*
X280Y16402D02*
X1504Y16402D01*
X1504Y16561D02*
X1352Y16561D01*
X1355Y16719D02*
X1504Y16719D01*
X1504Y17036D02*
X1355Y17036D01*
X1355Y17195D02*
X1504Y17195D01*
X1504Y17353D02*
X1265Y17353D01*
X895Y17353D02*
X855Y17353D01*
X855Y17195D02*
X895Y17195D01*
X895Y17036D02*
X855Y17036D01*
X855Y16719D02*
X895Y16719D01*
X895Y16561D02*
X855Y16561D01*
X398Y16561D02*
X280Y16561D01*
X280Y16719D02*
X395Y16719D01*
X280Y16085D02*
X4626Y16085D01*
X4784Y15927D02*
X280Y15927D01*
X280Y15768D02*
X4943Y15768D01*
X5101Y15610D02*
X280Y15610D01*
X280Y15451D02*
X5260Y15451D01*
X5418Y15293D02*
X280Y15293D01*
X280Y15134D02*
X841Y15134D01*
X615Y14976D02*
X280Y14976D01*
X280Y14817D02*
X466Y14817D01*
X375Y14659D02*
X280Y14659D01*
X280Y14500D02*
X312Y14500D01*
X280Y13866D02*
X306Y13866D01*
X280Y13708D02*
X362Y13708D01*
X280Y13549D02*
X454Y13549D01*
X593Y13391D02*
X280Y13391D01*
X280Y13232D02*
X803Y13232D01*
X280Y13074D02*
X2381Y13074D01*
X2406Y13135D02*
X2349Y12997D01*
X2349Y12847D01*
X2406Y12709D01*
X2512Y12603D01*
X2650Y12546D01*
X2800Y12546D01*
X2938Y12603D01*
X3044Y12709D01*
X3101Y12847D01*
X3101Y12997D01*
X3058Y13101D01*
X3560Y13602D01*
X3637Y13570D01*
X3845Y13570D01*
X3922Y13602D01*
X3634Y13314D01*
X3595Y13275D01*
X3512Y13241D01*
X3406Y13135D01*
X3349Y12997D01*
X3349Y12847D01*
X3406Y12709D01*
X3512Y12603D01*
X3650Y12546D01*
X3800Y12546D01*
X3938Y12603D01*
X4044Y12709D01*
X4101Y12847D01*
X4101Y12997D01*
X4054Y13112D01*
X4544Y13602D01*
X4621Y13570D01*
X4829Y13570D01*
X4906Y13602D01*
X4634Y13330D01*
X4568Y13264D01*
X4512Y13241D01*
X4406Y13135D01*
X4349Y12997D01*
X4349Y12847D01*
X4406Y12709D01*
X4512Y12603D01*
X4650Y12546D01*
X4800Y12546D01*
X4938Y12603D01*
X5044Y12709D01*
X5101Y12847D01*
X5101Y12997D01*
X5049Y13123D01*
X5528Y13602D01*
X5605Y13570D01*
X5813Y13570D01*
X6006Y13650D01*
X6153Y13798D01*
X6233Y13990D01*
X6233Y14198D01*
X6153Y14391D01*
X6006Y14538D01*
X5813Y14618D01*
X5605Y14618D01*
X5413Y14538D01*
X5265Y14391D01*
X5217Y14275D01*
X5169Y14391D01*
X5022Y14538D01*
X4829Y14618D01*
X4621Y14618D01*
X4428Y14538D01*
X4281Y14391D01*
X4233Y14275D01*
X4185Y14391D01*
X4037Y14538D01*
X3845Y14618D01*
X3637Y14618D01*
X3444Y14538D01*
X3297Y14391D01*
X3217Y14198D01*
X3217Y13990D01*
X3249Y13913D01*
X2634Y13298D01*
X2622Y13287D01*
X2512Y13241D01*
X2406Y13135D01*
X2503Y13232D02*
X1897Y13232D01*
X2107Y13391D02*
X2726Y13391D01*
X2884Y13549D02*
X2246Y13549D01*
X2338Y13708D02*
X3043Y13708D01*
X3201Y13866D02*
X2394Y13866D01*
X2437Y14025D02*
X3217Y14025D01*
X3217Y14183D02*
X2438Y14183D01*
X2431Y14342D02*
X3276Y14342D01*
X3406Y14500D02*
X2388Y14500D01*
X2325Y14659D02*
X6052Y14659D01*
X6044Y14500D02*
X6211Y14500D01*
X6174Y14342D02*
X6255Y14342D01*
X6255Y14183D02*
X6233Y14183D01*
X6233Y14025D02*
X6255Y14025D01*
X6233Y13866D02*
X6182Y13866D01*
X6074Y13708D02*
X6063Y13708D01*
X5916Y13549D02*
X5475Y13549D01*
X5317Y13391D02*
X5757Y13391D01*
X5503Y13232D02*
X5158Y13232D01*
X5069Y13074D02*
X5381Y13074D01*
X5349Y12915D02*
X5101Y12915D01*
X5064Y12757D02*
X5386Y12757D01*
X5524Y12598D02*
X4926Y12598D01*
X4725Y12922D02*
X4725Y13110D01*
X5709Y14094D01*
X5374Y14500D02*
X5060Y14500D01*
X5190Y14342D02*
X5245Y14342D01*
X4725Y14094D02*
X3725Y13094D01*
X3725Y12922D01*
X4101Y12915D02*
X4349Y12915D01*
X4381Y13074D02*
X4069Y13074D01*
X4174Y13232D02*
X4503Y13232D01*
X4332Y13391D02*
X4694Y13391D01*
X4853Y13549D02*
X4491Y13549D01*
X3869Y13549D02*
X3507Y13549D01*
X3348Y13391D02*
X3710Y13391D01*
X3503Y13232D02*
X3190Y13232D01*
X3069Y13074D02*
X3381Y13074D01*
X3349Y12915D02*
X3101Y12915D01*
X3064Y12757D02*
X3386Y12757D01*
X3524Y12598D02*
X2926Y12598D01*
X2725Y12922D02*
X2725Y13078D01*
X3741Y14094D01*
X4076Y14500D02*
X4390Y14500D01*
X4260Y14342D02*
X4205Y14342D01*
X5577Y15134D02*
X1859Y15134D01*
X2085Y14976D02*
X5735Y14976D01*
X5894Y14817D02*
X2234Y14817D01*
X2250Y16272D02*
X2250Y17772D01*
X702Y20523D02*
X8748Y20523D01*
X8431Y20682D02*
X1019Y20682D01*
X5945Y19255D02*
X9170Y19255D01*
X9170Y19097D02*
X5945Y19097D01*
X5945Y18938D02*
X9170Y18938D01*
X9170Y18780D02*
X5945Y18780D01*
X5945Y18621D02*
X9170Y18621D01*
X9170Y18463D02*
X5945Y18463D01*
X5945Y18304D02*
X9170Y18304D01*
X9170Y18146D02*
X5945Y18146D01*
X5945Y17987D02*
X9170Y17987D01*
X9170Y17829D02*
X5945Y17829D01*
X5945Y17670D02*
X6400Y17670D01*
X6400Y17738D02*
X6400Y16356D01*
X6482Y16274D01*
X7864Y16274D01*
X7946Y16356D01*
X7946Y17738D01*
X7864Y17820D01*
X6482Y17820D01*
X6400Y17738D01*
X6400Y17512D02*
X5945Y17512D01*
X5945Y17353D02*
X6400Y17353D01*
X6400Y17195D02*
X5945Y17195D01*
X5945Y17036D02*
X6400Y17036D01*
X6375Y17022D02*
X8125Y17022D01*
X8145Y17036D02*
X7946Y17036D01*
X7946Y16878D02*
X8605Y16878D01*
X8605Y16877D02*
X8145Y16877D01*
X8145Y16573D01*
X8157Y16528D01*
X8181Y16486D01*
X8214Y16453D01*
X8256Y16429D01*
X8301Y16417D01*
X8605Y16417D01*
X8605Y16877D01*
X8645Y16877D01*
X8645Y16917D01*
X9105Y16917D01*
X9105Y17221D01*
X9093Y17266D01*
X9069Y17308D01*
X9036Y17341D01*
X8994Y17365D01*
X8949Y17377D01*
X8645Y17377D01*
X8645Y16917D01*
X8605Y16917D01*
X8605Y17377D01*
X8301Y17377D01*
X8256Y17365D01*
X8214Y17341D01*
X8181Y17308D01*
X8157Y17266D01*
X8145Y17221D01*
X8145Y16917D01*
X8605Y16917D01*
X8605Y16877D01*
X8645Y16877D02*
X8645Y16417D01*
X8949Y16417D01*
X8994Y16429D01*
X9036Y16453D01*
X9069Y16486D01*
X9093Y16528D01*
X9105Y16573D01*
X9105Y16877D01*
X8645Y16877D01*
X8645Y16878D02*
X9170Y16878D01*
X9170Y17036D02*
X9105Y17036D01*
X9105Y17195D02*
X9170Y17195D01*
X9170Y17353D02*
X9015Y17353D01*
X9170Y17512D02*
X7946Y17512D01*
X7946Y17353D02*
X8235Y17353D01*
X8145Y17195D02*
X7946Y17195D01*
X7946Y16719D02*
X8145Y16719D01*
X8148Y16561D02*
X7946Y16561D01*
X7946Y16402D02*
X9170Y16402D01*
X9170Y16244D02*
X6090Y16244D01*
X5945Y16402D02*
X6400Y16402D01*
X6400Y16561D02*
X5945Y16561D01*
X5945Y16719D02*
X6400Y16719D01*
X6400Y16878D02*
X5945Y16878D01*
X6248Y16085D02*
X9170Y16085D01*
X9170Y15927D02*
X6407Y15927D01*
X6565Y15768D02*
X9170Y15768D01*
X9170Y15610D02*
X6724Y15610D01*
X6882Y15451D02*
X9170Y15451D01*
X9170Y16561D02*
X9102Y16561D01*
X9105Y16719D02*
X9170Y16719D01*
X8645Y16719D02*
X8605Y16719D01*
X8605Y16561D02*
X8645Y16561D01*
X8645Y17036D02*
X8605Y17036D01*
X8605Y17195D02*
X8645Y17195D01*
X8645Y17353D02*
X8605Y17353D01*
X9170Y17670D02*
X7946Y17670D01*
X7125Y17772D02*
X7125Y16272D01*
X6975Y15047D02*
X6975Y13297D01*
X6725Y13047D01*
X6725Y12922D01*
X6349Y12915D02*
X6101Y12915D01*
X6069Y13074D02*
X6349Y13074D01*
X6365Y13232D02*
X6221Y13232D01*
X6380Y13391D02*
X6755Y13391D01*
X6755Y13549D02*
X6538Y13549D01*
X6695Y13708D02*
X6755Y13708D01*
X6755Y13866D02*
X6695Y13866D01*
X6695Y14025D02*
X6755Y14025D01*
X6755Y14183D02*
X6695Y14183D01*
X6695Y14342D02*
X6755Y14342D01*
X6755Y14500D02*
X6695Y14500D01*
X6475Y14547D02*
X6475Y13797D01*
X5725Y13047D01*
X5725Y12922D01*
X6064Y12757D02*
X6349Y12757D01*
X6379Y12598D02*
X5926Y12598D01*
X7195Y13232D02*
X7553Y13232D01*
X7343Y13391D02*
X7195Y13391D01*
X7195Y13549D02*
X7204Y13549D01*
X4524Y12598D02*
X3926Y12598D01*
X4064Y12757D02*
X4386Y12757D01*
X2524Y12598D02*
X322Y12598D01*
X286Y12757D02*
X2386Y12757D01*
X2349Y12915D02*
X280Y12915D01*
X6061Y19414D02*
X9170Y19414D01*
X9170Y19572D02*
X6181Y19572D01*
X6233Y19731D02*
X9166Y19731D01*
X9140Y19889D02*
X6233Y19889D01*
X6175Y20048D02*
X9098Y20048D01*
D31*
X10101Y12922D02*
X10099Y12856D01*
X10101Y12790D01*
X10107Y12724D01*
X10116Y12658D01*
X10129Y12593D01*
X10146Y12528D01*
X10166Y12465D01*
X10190Y12403D01*
X10217Y12343D01*
X10248Y12284D01*
X10282Y12226D01*
X10319Y12171D01*
X10359Y12118D01*
X10402Y12068D01*
X10447Y12019D01*
X10496Y11974D01*
X10546Y11931D01*
X10599Y11891D01*
X10654Y11854D01*
X10712Y11820D01*
X10771Y11789D01*
X10831Y11762D01*
X10893Y11738D01*
X10956Y11718D01*
X11021Y11701D01*
X11086Y11688D01*
X11152Y11679D01*
X11218Y11673D01*
X11284Y11671D01*
X11350Y11673D01*
X11350Y11672D02*
X18100Y11672D01*
X18168Y11674D01*
X18235Y11679D01*
X18302Y11688D01*
X18369Y11701D01*
X18434Y11718D01*
X18499Y11737D01*
X18563Y11761D01*
X18625Y11788D01*
X18686Y11818D01*
X18744Y11851D01*
X18801Y11887D01*
X18856Y11927D01*
X18909Y11969D01*
X18960Y12015D01*
X19007Y12062D01*
X19053Y12113D01*
X19095Y12166D01*
X19135Y12221D01*
X19171Y12278D01*
X19204Y12336D01*
X19234Y12397D01*
X19261Y12459D01*
X19285Y12523D01*
X19304Y12588D01*
X19321Y12653D01*
X19334Y12720D01*
X19343Y12787D01*
X19348Y12854D01*
X19350Y12922D01*
X19350Y19672D01*
X19348Y19740D01*
X19343Y19807D01*
X19334Y19874D01*
X19321Y19941D01*
X19304Y20006D01*
X19285Y20071D01*
X19261Y20135D01*
X19234Y20197D01*
X19204Y20258D01*
X19171Y20316D01*
X19135Y20373D01*
X19095Y20428D01*
X19053Y20481D01*
X19007Y20532D01*
X18960Y20579D01*
X18909Y20625D01*
X18856Y20667D01*
X18801Y20707D01*
X18744Y20743D01*
X18686Y20776D01*
X18625Y20806D01*
X18563Y20833D01*
X18499Y20857D01*
X18434Y20876D01*
X18369Y20893D01*
X18302Y20906D01*
X18235Y20915D01*
X18168Y20920D01*
X18100Y20922D01*
X11350Y20922D01*
X10725Y19672D02*
X10727Y19722D01*
X10733Y19771D01*
X10743Y19820D01*
X10756Y19867D01*
X10774Y19914D01*
X10795Y19959D01*
X10819Y20002D01*
X10847Y20043D01*
X10878Y20082D01*
X10912Y20118D01*
X10949Y20152D01*
X10989Y20182D01*
X11030Y20209D01*
X11074Y20233D01*
X11119Y20253D01*
X11166Y20269D01*
X11214Y20282D01*
X11263Y20291D01*
X11313Y20296D01*
X11362Y20297D01*
X11412Y20294D01*
X11461Y20287D01*
X11510Y20276D01*
X11557Y20262D01*
X11603Y20243D01*
X11648Y20221D01*
X11691Y20196D01*
X11731Y20167D01*
X11769Y20135D01*
X11805Y20101D01*
X11838Y20063D01*
X11867Y20023D01*
X11893Y19981D01*
X11916Y19937D01*
X11935Y19891D01*
X11951Y19844D01*
X11963Y19795D01*
X11971Y19746D01*
X11975Y19697D01*
X11975Y19647D01*
X11971Y19598D01*
X11963Y19549D01*
X11951Y19500D01*
X11935Y19453D01*
X11916Y19407D01*
X11893Y19363D01*
X11867Y19321D01*
X11838Y19281D01*
X11805Y19243D01*
X11769Y19209D01*
X11731Y19177D01*
X11691Y19148D01*
X11648Y19123D01*
X11603Y19101D01*
X11557Y19082D01*
X11510Y19068D01*
X11461Y19057D01*
X11412Y19050D01*
X11362Y19047D01*
X11313Y19048D01*
X11263Y19053D01*
X11214Y19062D01*
X11166Y19075D01*
X11119Y19091D01*
X11074Y19111D01*
X11030Y19135D01*
X10989Y19162D01*
X10949Y19192D01*
X10912Y19226D01*
X10878Y19262D01*
X10847Y19301D01*
X10819Y19342D01*
X10795Y19385D01*
X10774Y19430D01*
X10756Y19477D01*
X10743Y19524D01*
X10733Y19573D01*
X10727Y19622D01*
X10725Y19672D01*
X10100Y19672D02*
X10100Y12922D01*
X10725Y12922D02*
X10727Y12972D01*
X10733Y13021D01*
X10743Y13070D01*
X10756Y13117D01*
X10774Y13164D01*
X10795Y13209D01*
X10819Y13252D01*
X10847Y13293D01*
X10878Y13332D01*
X10912Y13368D01*
X10949Y13402D01*
X10989Y13432D01*
X11030Y13459D01*
X11074Y13483D01*
X11119Y13503D01*
X11166Y13519D01*
X11214Y13532D01*
X11263Y13541D01*
X11313Y13546D01*
X11362Y13547D01*
X11412Y13544D01*
X11461Y13537D01*
X11510Y13526D01*
X11557Y13512D01*
X11603Y13493D01*
X11648Y13471D01*
X11691Y13446D01*
X11731Y13417D01*
X11769Y13385D01*
X11805Y13351D01*
X11838Y13313D01*
X11867Y13273D01*
X11893Y13231D01*
X11916Y13187D01*
X11935Y13141D01*
X11951Y13094D01*
X11963Y13045D01*
X11971Y12996D01*
X11975Y12947D01*
X11975Y12897D01*
X11971Y12848D01*
X11963Y12799D01*
X11951Y12750D01*
X11935Y12703D01*
X11916Y12657D01*
X11893Y12613D01*
X11867Y12571D01*
X11838Y12531D01*
X11805Y12493D01*
X11769Y12459D01*
X11731Y12427D01*
X11691Y12398D01*
X11648Y12373D01*
X11603Y12351D01*
X11557Y12332D01*
X11510Y12318D01*
X11461Y12307D01*
X11412Y12300D01*
X11362Y12297D01*
X11313Y12298D01*
X11263Y12303D01*
X11214Y12312D01*
X11166Y12325D01*
X11119Y12341D01*
X11074Y12361D01*
X11030Y12385D01*
X10989Y12412D01*
X10949Y12442D01*
X10912Y12476D01*
X10878Y12512D01*
X10847Y12551D01*
X10819Y12592D01*
X10795Y12635D01*
X10774Y12680D01*
X10756Y12727D01*
X10743Y12774D01*
X10733Y12823D01*
X10727Y12872D01*
X10725Y12922D01*
X10100Y19672D02*
X10102Y19740D01*
X10107Y19807D01*
X10116Y19874D01*
X10129Y19941D01*
X10146Y20006D01*
X10165Y20071D01*
X10189Y20135D01*
X10216Y20197D01*
X10246Y20258D01*
X10279Y20316D01*
X10315Y20373D01*
X10355Y20428D01*
X10397Y20481D01*
X10443Y20532D01*
X10490Y20579D01*
X10541Y20625D01*
X10594Y20667D01*
X10649Y20707D01*
X10706Y20743D01*
X10764Y20776D01*
X10825Y20806D01*
X10887Y20833D01*
X10951Y20857D01*
X11016Y20876D01*
X11081Y20893D01*
X11148Y20906D01*
X11215Y20915D01*
X11282Y20920D01*
X11350Y20922D01*
X17475Y19672D02*
X17477Y19722D01*
X17483Y19771D01*
X17493Y19820D01*
X17506Y19867D01*
X17524Y19914D01*
X17545Y19959D01*
X17569Y20002D01*
X17597Y20043D01*
X17628Y20082D01*
X17662Y20118D01*
X17699Y20152D01*
X17739Y20182D01*
X17780Y20209D01*
X17824Y20233D01*
X17869Y20253D01*
X17916Y20269D01*
X17964Y20282D01*
X18013Y20291D01*
X18063Y20296D01*
X18112Y20297D01*
X18162Y20294D01*
X18211Y20287D01*
X18260Y20276D01*
X18307Y20262D01*
X18353Y20243D01*
X18398Y20221D01*
X18441Y20196D01*
X18481Y20167D01*
X18519Y20135D01*
X18555Y20101D01*
X18588Y20063D01*
X18617Y20023D01*
X18643Y19981D01*
X18666Y19937D01*
X18685Y19891D01*
X18701Y19844D01*
X18713Y19795D01*
X18721Y19746D01*
X18725Y19697D01*
X18725Y19647D01*
X18721Y19598D01*
X18713Y19549D01*
X18701Y19500D01*
X18685Y19453D01*
X18666Y19407D01*
X18643Y19363D01*
X18617Y19321D01*
X18588Y19281D01*
X18555Y19243D01*
X18519Y19209D01*
X18481Y19177D01*
X18441Y19148D01*
X18398Y19123D01*
X18353Y19101D01*
X18307Y19082D01*
X18260Y19068D01*
X18211Y19057D01*
X18162Y19050D01*
X18112Y19047D01*
X18063Y19048D01*
X18013Y19053D01*
X17964Y19062D01*
X17916Y19075D01*
X17869Y19091D01*
X17824Y19111D01*
X17780Y19135D01*
X17739Y19162D01*
X17699Y19192D01*
X17662Y19226D01*
X17628Y19262D01*
X17597Y19301D01*
X17569Y19342D01*
X17545Y19385D01*
X17524Y19430D01*
X17506Y19477D01*
X17493Y19524D01*
X17483Y19573D01*
X17477Y19622D01*
X17475Y19672D01*
X17475Y12922D02*
X17477Y12972D01*
X17483Y13021D01*
X17493Y13070D01*
X17506Y13117D01*
X17524Y13164D01*
X17545Y13209D01*
X17569Y13252D01*
X17597Y13293D01*
X17628Y13332D01*
X17662Y13368D01*
X17699Y13402D01*
X17739Y13432D01*
X17780Y13459D01*
X17824Y13483D01*
X17869Y13503D01*
X17916Y13519D01*
X17964Y13532D01*
X18013Y13541D01*
X18063Y13546D01*
X18112Y13547D01*
X18162Y13544D01*
X18211Y13537D01*
X18260Y13526D01*
X18307Y13512D01*
X18353Y13493D01*
X18398Y13471D01*
X18441Y13446D01*
X18481Y13417D01*
X18519Y13385D01*
X18555Y13351D01*
X18588Y13313D01*
X18617Y13273D01*
X18643Y13231D01*
X18666Y13187D01*
X18685Y13141D01*
X18701Y13094D01*
X18713Y13045D01*
X18721Y12996D01*
X18725Y12947D01*
X18725Y12897D01*
X18721Y12848D01*
X18713Y12799D01*
X18701Y12750D01*
X18685Y12703D01*
X18666Y12657D01*
X18643Y12613D01*
X18617Y12571D01*
X18588Y12531D01*
X18555Y12493D01*
X18519Y12459D01*
X18481Y12427D01*
X18441Y12398D01*
X18398Y12373D01*
X18353Y12351D01*
X18307Y12332D01*
X18260Y12318D01*
X18211Y12307D01*
X18162Y12300D01*
X18112Y12297D01*
X18063Y12298D01*
X18013Y12303D01*
X17964Y12312D01*
X17916Y12325D01*
X17869Y12341D01*
X17824Y12361D01*
X17780Y12385D01*
X17739Y12412D01*
X17699Y12442D01*
X17662Y12476D01*
X17628Y12512D01*
X17597Y12551D01*
X17569Y12592D01*
X17545Y12635D01*
X17524Y12680D01*
X17506Y12727D01*
X17493Y12774D01*
X17483Y12823D01*
X17477Y12872D01*
X17475Y12922D01*
D32*
X18100Y14797D03*
X11350Y14797D03*
D33*
X11350Y15797D03*
X11350Y16797D03*
X11350Y17797D03*
X18100Y17797D03*
X18100Y16797D03*
X18100Y15797D03*
D34*
X15350Y16230D03*
X14850Y16230D03*
X14350Y16230D03*
X13850Y16230D03*
X13850Y18356D03*
X14350Y18356D03*
X14850Y18356D03*
X15350Y18356D03*
D35*
X15417Y19423D03*
X15417Y20171D03*
X16283Y19797D03*
X14033Y19797D03*
X13167Y19423D03*
X13167Y20171D03*
X14033Y15171D03*
X14033Y14423D03*
X13167Y14797D03*
X15292Y14797D03*
X16158Y14423D03*
X16158Y15171D03*
D36*
X12850Y13740D03*
X12850Y12854D03*
D37*
X10616Y12146D02*
X10560Y12146D01*
X10466Y12240D02*
X10327Y12491D01*
X10262Y12770D01*
X10260Y12901D01*
X10260Y12918D01*
X10263Y12980D01*
X10260Y12983D01*
X10260Y19672D01*
X10273Y19843D01*
X10379Y20167D01*
X10495Y20327D01*
X10355Y20084D01*
X10282Y19813D01*
X10282Y19531D01*
X10355Y19260D01*
X10496Y19016D01*
X10694Y18818D01*
X10925Y18684D01*
X10830Y18684D01*
X10517Y18372D01*
X10400Y18255D01*
X10400Y16464D01*
X10892Y15972D01*
X10860Y15894D01*
X10860Y15700D01*
X10935Y15519D01*
X11072Y15382D01*
X11204Y15327D01*
X10959Y15327D01*
X10918Y15316D01*
X10882Y15295D01*
X10852Y15265D01*
X10831Y15229D01*
X10820Y15188D01*
X10820Y14837D01*
X11310Y14837D01*
X11310Y14757D01*
X11390Y14757D01*
X11390Y14837D01*
X11880Y14837D01*
X11880Y15188D01*
X11869Y15229D01*
X11848Y15265D01*
X11818Y15295D01*
X11782Y15316D01*
X11741Y15327D01*
X11496Y15327D01*
X11628Y15382D01*
X11765Y15519D01*
X11840Y15700D01*
X11840Y15894D01*
X11808Y15972D01*
X11866Y16030D01*
X13612Y16030D01*
X13612Y15875D01*
X13615Y15872D01*
X13392Y15872D01*
X13275Y15755D01*
X13275Y15755D01*
X12967Y15447D01*
X12967Y15114D01*
X12842Y15114D01*
X12771Y15044D01*
X12771Y14550D01*
X12842Y14480D01*
X13492Y14480D01*
X13563Y14550D01*
X13563Y15044D01*
X13492Y15114D01*
X13367Y15114D01*
X13367Y15281D01*
X13558Y15472D01*
X13635Y15472D01*
X13629Y15466D01*
X13608Y15430D01*
X13597Y15389D01*
X13597Y15209D01*
X13995Y15209D01*
X13995Y15133D01*
X14071Y15133D01*
X14071Y14814D01*
X14330Y14814D01*
X14370Y14825D01*
X14407Y14846D01*
X14437Y14876D01*
X14458Y14912D01*
X14469Y14953D01*
X14469Y15133D01*
X14072Y15133D01*
X14072Y15209D01*
X14469Y15209D01*
X14469Y15389D01*
X14458Y15430D01*
X14437Y15466D01*
X14407Y15496D01*
X14370Y15517D01*
X14357Y15521D01*
X14433Y15597D01*
X14550Y15714D01*
X14550Y15837D01*
X14588Y15875D01*
X14588Y16585D01*
X14550Y16623D01*
X14550Y16755D01*
X14425Y16880D01*
X14308Y16997D01*
X11798Y16997D01*
X11765Y17075D01*
X11628Y17212D01*
X11447Y17287D01*
X11253Y17287D01*
X11072Y17212D01*
X10935Y17075D01*
X10860Y16894D01*
X10860Y16700D01*
X10935Y16519D01*
X11072Y16382D01*
X11253Y16307D01*
X11447Y16307D01*
X11628Y16382D01*
X11765Y16519D01*
X11798Y16597D01*
X13624Y16597D01*
X13612Y16585D01*
X13612Y16430D01*
X11700Y16430D01*
X11525Y16255D01*
X11447Y16287D01*
X11253Y16287D01*
X11175Y16255D01*
X10800Y16630D01*
X10800Y18089D01*
X10995Y18285D01*
X11247Y18285D01*
X11072Y18212D01*
X10935Y18075D01*
X10860Y17894D01*
X10860Y17700D01*
X10935Y17519D01*
X11072Y17382D01*
X11253Y17307D01*
X11447Y17307D01*
X11628Y17382D01*
X11765Y17519D01*
X11798Y17597D01*
X14308Y17597D01*
X14892Y17597D01*
X14900Y17589D02*
X15017Y17472D01*
X17732Y17472D01*
X17822Y17382D01*
X18003Y17307D01*
X18197Y17307D01*
X18378Y17382D01*
X18515Y17519D01*
X18590Y17700D01*
X18590Y17894D01*
X18515Y18075D01*
X18378Y18212D01*
X18197Y18287D01*
X18003Y18287D01*
X17822Y18212D01*
X17685Y18075D01*
X17610Y17894D01*
X17610Y17872D01*
X15183Y17872D01*
X15071Y17984D01*
X15081Y17994D01*
X15083Y17989D01*
X15104Y17953D01*
X15134Y17923D01*
X15170Y17902D01*
X15211Y17891D01*
X15350Y17891D01*
X15489Y17891D01*
X15530Y17902D01*
X15566Y17923D01*
X15596Y17953D01*
X15617Y17989D01*
X15628Y18030D01*
X15628Y18356D01*
X15350Y18356D01*
X15350Y17891D01*
X15350Y18356D01*
X15350Y18356D01*
X15350Y18356D01*
X15628Y18356D01*
X15628Y18682D01*
X15617Y18722D01*
X15933Y18722D01*
X16050Y18839D01*
X16483Y19272D01*
X16483Y19480D01*
X16608Y19480D01*
X16679Y19550D01*
X16679Y20044D01*
X16608Y20114D01*
X15958Y20114D01*
X15887Y20044D01*
X15887Y19550D01*
X15958Y19480D01*
X16083Y19480D01*
X16083Y19438D01*
X15853Y19207D01*
X15853Y19385D01*
X15455Y19385D01*
X15455Y19461D01*
X15379Y19461D01*
X15378Y19461D02*
X15378Y19385D01*
X14981Y19385D01*
X14981Y19205D01*
X14992Y19164D01*
X15013Y19128D01*
X15019Y19122D01*
X14892Y19122D01*
X14767Y18997D01*
X14650Y18880D01*
X14650Y18749D01*
X14612Y18711D01*
X14612Y18001D01*
X14650Y17963D01*
X14650Y17839D01*
X14900Y17589D01*
X15011Y17479D02*
X11724Y17479D01*
X11575Y17360D02*
X17875Y17360D01*
X17893Y17242D02*
X11557Y17242D01*
X11717Y17123D02*
X17733Y17123D01*
X17732Y17122D02*
X15017Y17122D01*
X14900Y17005D01*
X14650Y16755D01*
X14650Y16623D01*
X14612Y16585D01*
X14612Y15875D01*
X14650Y15837D01*
X14650Y14964D01*
X14767Y14847D01*
X14896Y14718D01*
X14896Y14550D01*
X14967Y14480D01*
X15617Y14480D01*
X15688Y14550D01*
X15688Y15044D01*
X15617Y15114D01*
X15066Y15114D01*
X15050Y15130D01*
X15050Y15837D01*
X15088Y15875D01*
X15088Y16585D01*
X15067Y16606D01*
X15183Y16722D01*
X17610Y16722D01*
X17610Y16700D01*
X17685Y16519D01*
X17822Y16382D01*
X18003Y16307D01*
X18197Y16307D01*
X18378Y16382D01*
X18515Y16519D01*
X18590Y16700D01*
X18590Y16894D01*
X18515Y17075D01*
X18378Y17212D01*
X18197Y17287D01*
X18003Y17287D01*
X17822Y17212D01*
X17732Y17122D01*
X17631Y16649D02*
X15524Y16649D01*
X15518Y16655D02*
X15182Y16655D01*
X15112Y16585D01*
X15112Y15875D01*
X15182Y15805D01*
X15518Y15805D01*
X15588Y15875D01*
X15588Y16585D01*
X15518Y16655D01*
X15588Y16531D02*
X17680Y16531D01*
X17792Y16412D02*
X15588Y16412D01*
X15588Y16294D02*
X19190Y16294D01*
X19190Y16175D02*
X18415Y16175D01*
X18378Y16212D02*
X18197Y16287D01*
X18003Y16287D01*
X17822Y16212D01*
X17685Y16075D01*
X17610Y15894D01*
X17610Y15700D01*
X17642Y15622D01*
X16643Y14623D01*
X16554Y14623D01*
X16554Y14670D01*
X16483Y14740D01*
X15833Y14740D01*
X15762Y14670D01*
X15762Y14367D01*
X15642Y14247D01*
X14433Y14247D01*
X14429Y14251D01*
X14429Y14670D01*
X14358Y14740D01*
X13708Y14740D01*
X13637Y14670D01*
X13637Y14368D01*
X13209Y13940D01*
X13127Y13940D01*
X13127Y13947D01*
X13057Y14017D01*
X12643Y14017D01*
X12573Y13947D01*
X12573Y13533D01*
X12643Y13462D01*
X13057Y13462D01*
X13127Y13533D01*
X13127Y13540D01*
X13375Y13540D01*
X13941Y14106D01*
X14008Y14106D01*
X14150Y13964D01*
X14267Y13847D01*
X15808Y13847D01*
X16058Y14097D01*
X16115Y14097D01*
X16124Y14106D01*
X16483Y14106D01*
X16554Y14176D01*
X16554Y14223D01*
X16809Y14223D01*
X17570Y14984D01*
X17570Y14837D01*
X18060Y14837D01*
X18060Y14757D01*
X18140Y14757D01*
X18140Y14837D01*
X18630Y14837D01*
X18630Y15188D01*
X18619Y15229D01*
X18598Y15265D01*
X18568Y15295D01*
X18532Y15316D01*
X18491Y15327D01*
X18246Y15327D01*
X18378Y15382D01*
X18515Y15519D01*
X18590Y15700D01*
X18590Y15894D01*
X18515Y16075D01*
X18378Y16212D01*
X18408Y16412D02*
X19190Y16412D01*
X19190Y16531D02*
X18520Y16531D01*
X18569Y16649D02*
X19190Y16649D01*
X19190Y16768D02*
X18590Y16768D01*
X18590Y16886D02*
X19190Y16886D01*
X19190Y17005D02*
X18544Y17005D01*
X18467Y17123D02*
X19190Y17123D01*
X19190Y17242D02*
X18307Y17242D01*
X18325Y17360D02*
X19190Y17360D01*
X19190Y17479D02*
X18474Y17479D01*
X18548Y17597D02*
X19190Y17597D01*
X19190Y17716D02*
X18590Y17716D01*
X18590Y17834D02*
X19190Y17834D01*
X19190Y17953D02*
X18566Y17953D01*
X18517Y18071D02*
X19190Y18071D01*
X19190Y18190D02*
X18400Y18190D01*
X18241Y18604D02*
X17959Y18604D01*
X17688Y18677D01*
X17444Y18818D01*
X17246Y19016D01*
X17105Y19260D01*
X17032Y19531D01*
X17032Y19813D01*
X17105Y20084D01*
X17246Y20328D01*
X17444Y20526D01*
X17688Y20667D01*
X17959Y20740D01*
X18241Y20740D01*
X18512Y20667D01*
X18755Y20527D01*
X18595Y20643D01*
X18271Y20749D01*
X18100Y20762D01*
X11350Y20762D01*
X11179Y20749D01*
X10855Y20643D01*
X10695Y20527D01*
X10938Y20667D01*
X11209Y20740D01*
X11491Y20740D01*
X11762Y20667D01*
X12006Y20526D01*
X12204Y20328D01*
X12345Y20084D01*
X12400Y19879D01*
X12400Y20130D01*
X12517Y20247D01*
X12642Y20372D01*
X12767Y20372D01*
X12768Y20372D01*
X12771Y20372D01*
X12771Y20418D01*
X12842Y20488D01*
X13258Y20488D01*
X13392Y20622D01*
X15157Y20622D01*
X15169Y20631D01*
X15190Y20628D01*
X15209Y20638D01*
X15257Y20622D01*
X15308Y20622D01*
X15319Y20611D01*
X15334Y20609D01*
X15346Y20592D01*
X15367Y20586D01*
X15389Y20541D01*
X15425Y20505D01*
X15425Y20490D01*
X15426Y20488D01*
X15742Y20488D01*
X15813Y20418D01*
X15813Y19924D01*
X15742Y19854D01*
X15092Y19854D01*
X15021Y19924D01*
X15021Y20222D01*
X13563Y20222D01*
X13563Y19924D01*
X13492Y19854D01*
X12842Y19854D01*
X12800Y19896D01*
X12800Y19752D01*
X12830Y19769D01*
X12870Y19780D01*
X13129Y19780D01*
X13129Y19461D01*
X13205Y19461D01*
X13205Y19780D01*
X13464Y19780D01*
X13504Y19769D01*
X13541Y19748D01*
X13571Y19718D01*
X13592Y19682D01*
X13603Y19641D01*
X13603Y19461D01*
X13205Y19461D01*
X13205Y19385D01*
X13603Y19385D01*
X13603Y19205D01*
X13592Y19164D01*
X13571Y19128D01*
X13541Y19098D01*
X13504Y19077D01*
X13464Y19066D01*
X13205Y19066D01*
X13205Y19385D01*
X13129Y19385D01*
X13129Y19066D01*
X12870Y19066D01*
X12830Y19077D01*
X12800Y19094D01*
X12800Y19089D01*
X12112Y18402D01*
X11995Y18285D01*
X11453Y18285D01*
X11628Y18212D01*
X11765Y18075D01*
X11798Y17997D01*
X13616Y17997D01*
X13612Y18001D01*
X13612Y18711D01*
X13682Y18781D01*
X14018Y18781D01*
X14088Y18711D01*
X14088Y18001D01*
X14084Y17997D01*
X14116Y17997D01*
X14112Y18001D01*
X14112Y18711D01*
X14150Y18749D01*
X14150Y19464D01*
X14134Y19480D01*
X13708Y19480D01*
X13637Y19550D01*
X13637Y20044D01*
X13708Y20114D01*
X14358Y20114D01*
X14429Y20044D01*
X14429Y19751D01*
X14433Y19747D01*
X14550Y19630D01*
X14550Y18749D01*
X14588Y18711D01*
X14588Y18001D01*
X14550Y17963D01*
X14550Y17839D01*
X14425Y17714D01*
X14308Y17597D01*
X14426Y17716D02*
X14774Y17716D01*
X14655Y17834D02*
X14545Y17834D01*
X14550Y17953D02*
X14650Y17953D01*
X14612Y18071D02*
X14588Y18071D01*
X14588Y18190D02*
X14612Y18190D01*
X14612Y18308D02*
X14588Y18308D01*
X14588Y18427D02*
X14612Y18427D01*
X14612Y18545D02*
X14588Y18545D01*
X14588Y18664D02*
X14612Y18664D01*
X14650Y18782D02*
X14550Y18782D01*
X14550Y18901D02*
X14671Y18901D01*
X14789Y19019D02*
X14550Y19019D01*
X14550Y19138D02*
X15008Y19138D01*
X14981Y19256D02*
X14550Y19256D01*
X14550Y19375D02*
X14981Y19375D01*
X14981Y19461D02*
X15378Y19461D01*
X15379Y19461D02*
X15379Y19780D01*
X15120Y19780D01*
X15080Y19769D01*
X15043Y19748D01*
X15013Y19718D01*
X14992Y19682D01*
X14981Y19641D01*
X14981Y19461D01*
X14981Y19493D02*
X14550Y19493D01*
X14550Y19612D02*
X14981Y19612D01*
X15025Y19730D02*
X14450Y19730D01*
X14429Y19849D02*
X15887Y19849D01*
X15887Y19967D02*
X15813Y19967D01*
X15813Y20086D02*
X15929Y20086D01*
X15813Y20204D02*
X17174Y20204D01*
X17106Y20086D02*
X16637Y20086D01*
X16679Y19967D02*
X17074Y19967D01*
X17042Y19849D02*
X16679Y19849D01*
X16679Y19730D02*
X17032Y19730D01*
X17032Y19612D02*
X16679Y19612D01*
X16621Y19493D02*
X17043Y19493D01*
X17074Y19375D02*
X16483Y19375D01*
X16467Y19256D02*
X17107Y19256D01*
X17176Y19138D02*
X16348Y19138D01*
X16230Y19019D02*
X17244Y19019D01*
X17361Y18901D02*
X16111Y18901D01*
X15993Y18782D02*
X17506Y18782D01*
X17738Y18664D02*
X15628Y18664D01*
X15628Y18545D02*
X19190Y18545D01*
X19190Y18427D02*
X15628Y18427D01*
X15628Y18308D02*
X19190Y18308D01*
X19190Y18664D02*
X18462Y18664D01*
X18512Y18677D02*
X18756Y18818D01*
X18954Y19016D01*
X19095Y19260D01*
X19168Y19531D01*
X19168Y19813D01*
X19095Y20084D01*
X18955Y20327D01*
X19071Y20167D01*
X19177Y19843D01*
X19190Y19672D01*
X19190Y12922D01*
X19177Y12751D01*
X19071Y12427D01*
X18955Y12267D01*
X19095Y12510D01*
X19168Y12781D01*
X19168Y13063D01*
X19095Y13334D01*
X18954Y13578D01*
X18756Y13776D01*
X18512Y13917D01*
X18241Y13990D01*
X17959Y13990D01*
X17688Y13917D01*
X17444Y13776D01*
X17246Y13578D01*
X17105Y13334D01*
X17032Y13063D01*
X17032Y12781D01*
X17105Y12510D01*
X17246Y12266D01*
X17444Y12068D01*
X17688Y11927D01*
X17959Y11854D01*
X18241Y11854D01*
X18512Y11927D01*
X18755Y12067D01*
X18595Y11951D01*
X18271Y11845D01*
X18100Y11832D01*
X11411Y11832D01*
X11408Y11835D01*
X11346Y11832D01*
X11329Y11832D01*
X11198Y11834D01*
X10919Y11899D01*
X10668Y12038D01*
X10466Y12240D01*
X10452Y12265D02*
X10497Y12265D01*
X10496Y12266D02*
X10694Y12068D01*
X10938Y11927D01*
X11209Y11854D01*
X11491Y11854D01*
X11762Y11927D01*
X12006Y12068D01*
X12204Y12266D01*
X12345Y12510D01*
X12418Y12781D01*
X12418Y13063D01*
X12345Y13334D01*
X12204Y13578D01*
X12006Y13776D01*
X11762Y13917D01*
X11491Y13990D01*
X11209Y13990D01*
X10938Y13917D01*
X10694Y13776D01*
X10496Y13578D01*
X10355Y13334D01*
X10282Y13063D01*
X10282Y12781D01*
X10355Y12510D01*
X10496Y12266D01*
X10428Y12383D02*
X10386Y12383D01*
X10360Y12502D02*
X10324Y12502D01*
X10325Y12620D02*
X10297Y12620D01*
X10294Y12739D02*
X10270Y12739D01*
X10261Y12857D02*
X10282Y12857D01*
X10282Y12976D02*
X10263Y12976D01*
X10260Y13094D02*
X10291Y13094D01*
X10260Y13213D02*
X10322Y13213D01*
X10354Y13331D02*
X10260Y13331D01*
X10260Y13450D02*
X10422Y13450D01*
X10490Y13568D02*
X10260Y13568D01*
X10260Y13687D02*
X10604Y13687D01*
X10744Y13805D02*
X10260Y13805D01*
X10260Y13924D02*
X10962Y13924D01*
X10959Y14267D02*
X11310Y14267D01*
X11310Y14757D01*
X10820Y14757D01*
X10820Y14406D01*
X10831Y14365D01*
X10852Y14329D01*
X10882Y14299D01*
X10918Y14278D01*
X10959Y14267D01*
X10916Y14279D02*
X10260Y14279D01*
X10260Y14161D02*
X13430Y14161D01*
X13548Y14279D02*
X11784Y14279D01*
X11782Y14278D02*
X11818Y14299D01*
X11848Y14329D01*
X11869Y14365D01*
X11880Y14406D01*
X11880Y14757D01*
X11390Y14757D01*
X11390Y14267D01*
X11741Y14267D01*
X11782Y14278D01*
X11878Y14398D02*
X13637Y14398D01*
X13637Y14516D02*
X13528Y14516D01*
X13563Y14635D02*
X13637Y14635D01*
X13563Y14753D02*
X14861Y14753D01*
X14896Y14635D02*
X14429Y14635D01*
X14429Y14516D02*
X14931Y14516D01*
X14743Y14872D02*
X14432Y14872D01*
X14469Y14990D02*
X14650Y14990D01*
X14650Y15109D02*
X14469Y15109D01*
X14469Y15227D02*
X14650Y15227D01*
X14650Y15346D02*
X14469Y15346D01*
X14438Y15464D02*
X14650Y15464D01*
X14650Y15583D02*
X14418Y15583D01*
X14537Y15701D02*
X14650Y15701D01*
X14650Y15820D02*
X14550Y15820D01*
X14588Y15938D02*
X14612Y15938D01*
X14612Y16057D02*
X14588Y16057D01*
X14588Y16175D02*
X14612Y16175D01*
X14612Y16294D02*
X14588Y16294D01*
X14588Y16412D02*
X14612Y16412D01*
X14612Y16531D02*
X14588Y16531D01*
X14550Y16649D02*
X14650Y16649D01*
X14663Y16768D02*
X14537Y16768D01*
X14419Y16886D02*
X14781Y16886D01*
X14900Y17005D02*
X11794Y17005D01*
X11770Y16531D02*
X13612Y16531D01*
X13612Y15938D02*
X11822Y15938D01*
X11840Y15820D02*
X13340Y15820D01*
X13221Y15701D02*
X11840Y15701D01*
X11792Y15583D02*
X13103Y15583D01*
X12984Y15464D02*
X11710Y15464D01*
X11540Y15346D02*
X12967Y15346D01*
X12967Y15227D02*
X11870Y15227D01*
X11880Y15109D02*
X12836Y15109D01*
X12771Y14990D02*
X11880Y14990D01*
X11880Y14872D02*
X12771Y14872D01*
X12771Y14753D02*
X11880Y14753D01*
X11880Y14635D02*
X12771Y14635D01*
X12806Y14516D02*
X11880Y14516D01*
X11390Y14516D02*
X11310Y14516D01*
X11310Y14398D02*
X11390Y14398D01*
X11390Y14279D02*
X11310Y14279D01*
X11310Y14635D02*
X11390Y14635D01*
X11390Y14753D02*
X11310Y14753D01*
X10820Y14753D02*
X10260Y14753D01*
X10260Y14635D02*
X10820Y14635D01*
X10820Y14516D02*
X10260Y14516D01*
X10260Y14398D02*
X10822Y14398D01*
X10820Y14872D02*
X10260Y14872D01*
X10260Y14990D02*
X10820Y14990D01*
X10820Y15109D02*
X10260Y15109D01*
X10260Y15227D02*
X10830Y15227D01*
X10990Y15464D02*
X10260Y15464D01*
X10260Y15346D02*
X11160Y15346D01*
X10908Y15583D02*
X10260Y15583D01*
X10260Y15701D02*
X10860Y15701D01*
X10860Y15820D02*
X10260Y15820D01*
X10260Y15938D02*
X10878Y15938D01*
X10808Y16057D02*
X10260Y16057D01*
X10260Y16175D02*
X10689Y16175D01*
X10571Y16294D02*
X10260Y16294D01*
X10260Y16412D02*
X10452Y16412D01*
X10400Y16531D02*
X10260Y16531D01*
X10260Y16649D02*
X10400Y16649D01*
X10400Y16768D02*
X10260Y16768D01*
X10260Y16886D02*
X10400Y16886D01*
X10400Y17005D02*
X10260Y17005D01*
X10260Y17123D02*
X10400Y17123D01*
X10400Y17242D02*
X10260Y17242D01*
X10260Y17360D02*
X10400Y17360D01*
X10400Y17479D02*
X10260Y17479D01*
X10260Y17597D02*
X10400Y17597D01*
X10400Y17716D02*
X10260Y17716D01*
X10260Y17834D02*
X10400Y17834D01*
X10400Y17953D02*
X10260Y17953D01*
X10260Y18071D02*
X10400Y18071D01*
X10400Y18190D02*
X10260Y18190D01*
X10260Y18308D02*
X10453Y18308D01*
X10572Y18427D02*
X10260Y18427D01*
X10260Y18545D02*
X10690Y18545D01*
X10809Y18664D02*
X10260Y18664D01*
X10260Y18782D02*
X10756Y18782D01*
X10611Y18901D02*
X10260Y18901D01*
X10260Y19019D02*
X10494Y19019D01*
X10426Y19138D02*
X10260Y19138D01*
X10260Y19256D02*
X10357Y19256D01*
X10324Y19375D02*
X10260Y19375D01*
X10260Y19493D02*
X10293Y19493D01*
X10282Y19612D02*
X10260Y19612D01*
X10265Y19730D02*
X10282Y19730D01*
X10275Y19849D02*
X10292Y19849D01*
X10314Y19967D02*
X10324Y19967D01*
X10352Y20086D02*
X10356Y20086D01*
X10406Y20204D02*
X10424Y20204D01*
X10492Y20323D02*
X10493Y20323D01*
X10740Y20560D02*
X10752Y20560D01*
X10962Y20678D02*
X10979Y20678D01*
X11721Y20678D02*
X17729Y20678D01*
X17502Y20560D02*
X15380Y20560D01*
X15789Y20441D02*
X17359Y20441D01*
X17243Y20323D02*
X15813Y20323D01*
X15714Y19780D02*
X15455Y19780D01*
X15455Y19461D01*
X15853Y19461D01*
X15853Y19641D01*
X15842Y19682D01*
X15821Y19718D01*
X15791Y19748D01*
X15754Y19769D01*
X15714Y19780D01*
X15809Y19730D02*
X15887Y19730D01*
X15887Y19612D02*
X15853Y19612D01*
X15853Y19493D02*
X15945Y19493D01*
X16020Y19375D02*
X15853Y19375D01*
X15853Y19256D02*
X15901Y19256D01*
X15455Y19493D02*
X15379Y19493D01*
X15379Y19612D02*
X15455Y19612D01*
X15455Y19730D02*
X15379Y19730D01*
X15021Y19967D02*
X14429Y19967D01*
X14387Y20086D02*
X15021Y20086D01*
X15021Y20204D02*
X13563Y20204D01*
X13563Y20086D02*
X13679Y20086D01*
X13637Y19967D02*
X13563Y19967D01*
X13637Y19849D02*
X12800Y19849D01*
X12474Y20204D02*
X12276Y20204D01*
X12344Y20086D02*
X12400Y20086D01*
X12400Y19967D02*
X12376Y19967D01*
X12207Y20323D02*
X12593Y20323D01*
X12795Y20441D02*
X12091Y20441D01*
X11948Y20560D02*
X13330Y20560D01*
X13205Y19730D02*
X13129Y19730D01*
X13129Y19612D02*
X13205Y19612D01*
X13205Y19493D02*
X13129Y19493D01*
X13129Y19375D02*
X13205Y19375D01*
X13205Y19256D02*
X13129Y19256D01*
X13129Y19138D02*
X13205Y19138D01*
X13576Y19138D02*
X14150Y19138D01*
X14150Y19256D02*
X13603Y19256D01*
X13603Y19375D02*
X14150Y19375D01*
X14150Y19019D02*
X12730Y19019D01*
X12611Y18901D02*
X14150Y18901D01*
X14150Y18782D02*
X12493Y18782D01*
X12374Y18664D02*
X13612Y18664D01*
X13612Y18545D02*
X12256Y18545D01*
X12137Y18427D02*
X13612Y18427D01*
X13612Y18308D02*
X12019Y18308D01*
X11767Y18071D02*
X13612Y18071D01*
X13612Y18190D02*
X11650Y18190D01*
X11050Y18190D02*
X10900Y18190D01*
X10933Y18071D02*
X10800Y18071D01*
X10800Y17953D02*
X10884Y17953D01*
X10860Y17834D02*
X10800Y17834D01*
X10800Y17716D02*
X10860Y17716D01*
X10902Y17597D02*
X10800Y17597D01*
X10800Y17479D02*
X10976Y17479D01*
X11125Y17360D02*
X10800Y17360D01*
X10800Y17242D02*
X11143Y17242D01*
X10983Y17123D02*
X10800Y17123D01*
X10800Y17005D02*
X10906Y17005D01*
X10860Y16886D02*
X10800Y16886D01*
X10800Y16768D02*
X10860Y16768D01*
X10881Y16649D02*
X10800Y16649D01*
X10899Y16531D02*
X10930Y16531D01*
X11018Y16412D02*
X11042Y16412D01*
X11136Y16294D02*
X11564Y16294D01*
X11658Y16412D02*
X11682Y16412D01*
X13367Y15227D02*
X13597Y15227D01*
X13597Y15133D02*
X13597Y14953D01*
X13608Y14912D01*
X13629Y14876D01*
X13659Y14846D01*
X13696Y14825D01*
X13736Y14814D01*
X13995Y14814D01*
X13995Y15133D01*
X13597Y15133D01*
X13597Y15109D02*
X13498Y15109D01*
X13563Y14990D02*
X13597Y14990D01*
X13563Y14872D02*
X13634Y14872D01*
X13995Y14872D02*
X14071Y14872D01*
X14071Y14990D02*
X13995Y14990D01*
X13995Y15109D02*
X14071Y15109D01*
X13628Y15464D02*
X13550Y15464D01*
X13597Y15346D02*
X13431Y15346D01*
X14429Y14398D02*
X15762Y14398D01*
X15762Y14516D02*
X15653Y14516D01*
X15688Y14635D02*
X15762Y14635D01*
X15688Y14753D02*
X16773Y14753D01*
X16655Y14635D02*
X16554Y14635D01*
X16495Y14825D02*
X16532Y14846D01*
X16562Y14876D01*
X16583Y14912D01*
X16594Y14953D01*
X16594Y15133D01*
X16197Y15133D01*
X16197Y15209D01*
X16594Y15209D01*
X16594Y15389D01*
X16583Y15430D01*
X16562Y15466D01*
X16532Y15496D01*
X16495Y15517D01*
X16455Y15528D01*
X16196Y15528D01*
X16196Y15209D01*
X16120Y15209D01*
X16120Y15133D01*
X16196Y15133D01*
X16196Y14814D01*
X16455Y14814D01*
X16495Y14825D01*
X16557Y14872D02*
X16892Y14872D01*
X17010Y14990D02*
X16594Y14990D01*
X16594Y15109D02*
X17129Y15109D01*
X17247Y15227D02*
X16594Y15227D01*
X16594Y15346D02*
X17366Y15346D01*
X17484Y15464D02*
X16563Y15464D01*
X16196Y15464D02*
X16120Y15464D01*
X16120Y15528D02*
X15861Y15528D01*
X15821Y15517D01*
X15784Y15496D01*
X15754Y15466D01*
X15733Y15430D01*
X15722Y15389D01*
X15722Y15209D01*
X16120Y15209D01*
X16120Y15528D01*
X16120Y15346D02*
X16196Y15346D01*
X16196Y15227D02*
X16120Y15227D01*
X16120Y15133D02*
X15722Y15133D01*
X15722Y14953D01*
X15733Y14912D01*
X15754Y14876D01*
X15784Y14846D01*
X15821Y14825D01*
X15861Y14814D01*
X16120Y14814D01*
X16120Y15133D01*
X16120Y15109D02*
X16196Y15109D01*
X16196Y14990D02*
X16120Y14990D01*
X16120Y14872D02*
X16196Y14872D01*
X15759Y14872D02*
X15688Y14872D01*
X15688Y14990D02*
X15722Y14990D01*
X15722Y15109D02*
X15623Y15109D01*
X15722Y15227D02*
X15050Y15227D01*
X15050Y15346D02*
X15722Y15346D01*
X15753Y15464D02*
X15050Y15464D01*
X15050Y15583D02*
X17603Y15583D01*
X17610Y15701D02*
X15050Y15701D01*
X15050Y15820D02*
X15168Y15820D01*
X15112Y15938D02*
X15088Y15938D01*
X15088Y16057D02*
X15112Y16057D01*
X15112Y16175D02*
X15088Y16175D01*
X15088Y16294D02*
X15112Y16294D01*
X15112Y16412D02*
X15088Y16412D01*
X15088Y16531D02*
X15112Y16531D01*
X15110Y16649D02*
X15176Y16649D01*
X15588Y16175D02*
X17785Y16175D01*
X17677Y16057D02*
X15588Y16057D01*
X15588Y15938D02*
X17628Y15938D01*
X17610Y15820D02*
X15532Y15820D01*
X16983Y14398D02*
X17572Y14398D01*
X17570Y14406D02*
X17581Y14365D01*
X17602Y14329D01*
X17632Y14299D01*
X17668Y14278D01*
X17709Y14267D01*
X18060Y14267D01*
X18060Y14757D01*
X17570Y14757D01*
X17570Y14406D01*
X17570Y14516D02*
X17102Y14516D01*
X17220Y14635D02*
X17570Y14635D01*
X17570Y14753D02*
X17339Y14753D01*
X17457Y14872D02*
X17570Y14872D01*
X18060Y14753D02*
X18140Y14753D01*
X18140Y14757D02*
X18140Y14267D01*
X18491Y14267D01*
X18532Y14278D01*
X18568Y14299D01*
X18598Y14329D01*
X18619Y14365D01*
X18630Y14406D01*
X18630Y14757D01*
X18140Y14757D01*
X18140Y14635D02*
X18060Y14635D01*
X18060Y14516D02*
X18140Y14516D01*
X18140Y14398D02*
X18060Y14398D01*
X18060Y14279D02*
X18140Y14279D01*
X18534Y14279D02*
X19190Y14279D01*
X19190Y14161D02*
X16538Y14161D01*
X16865Y14279D02*
X17666Y14279D01*
X17712Y13924D02*
X15884Y13924D01*
X16003Y14042D02*
X19190Y14042D01*
X19190Y13924D02*
X18488Y13924D01*
X18706Y13805D02*
X19190Y13805D01*
X19190Y13687D02*
X18846Y13687D01*
X18960Y13568D02*
X19190Y13568D01*
X19190Y13450D02*
X19028Y13450D01*
X19096Y13331D02*
X19190Y13331D01*
X19190Y13213D02*
X19128Y13213D01*
X19159Y13094D02*
X19190Y13094D01*
X19190Y12976D02*
X19168Y12976D01*
X19168Y12857D02*
X19185Y12857D01*
X19172Y12739D02*
X19156Y12739D01*
X19134Y12620D02*
X19125Y12620D01*
X19095Y12502D02*
X19090Y12502D01*
X19039Y12383D02*
X19022Y12383D01*
X18700Y12028D02*
X18686Y12028D01*
X18466Y11909D02*
X18445Y11909D01*
X17755Y11909D02*
X11695Y11909D01*
X11936Y12028D02*
X17514Y12028D01*
X17366Y12146D02*
X12084Y12146D01*
X12203Y12265D02*
X17247Y12265D01*
X17178Y12383D02*
X12272Y12383D01*
X12340Y12502D02*
X17110Y12502D01*
X17075Y12620D02*
X13148Y12620D01*
X13157Y12635D02*
X13167Y12676D01*
X13167Y12835D01*
X12869Y12835D01*
X12869Y12537D01*
X13029Y12537D01*
X13069Y12548D01*
X13106Y12569D01*
X13136Y12598D01*
X13157Y12635D01*
X13167Y12739D02*
X17044Y12739D01*
X17032Y12857D02*
X12869Y12857D01*
X12869Y12873D02*
X13167Y12873D01*
X13167Y13033D01*
X13157Y13073D01*
X13136Y13110D01*
X13106Y13140D01*
X13069Y13161D01*
X13029Y13172D01*
X12869Y13172D01*
X12869Y12873D01*
X12869Y12835D01*
X12831Y12835D01*
X12831Y12537D01*
X12671Y12537D01*
X12631Y12548D01*
X12594Y12569D01*
X12564Y12598D01*
X12543Y12635D01*
X12533Y12676D01*
X12533Y12835D01*
X12831Y12835D01*
X12831Y12873D01*
X12533Y12873D01*
X12533Y13033D01*
X12543Y13073D01*
X12564Y13110D01*
X12594Y13140D01*
X12631Y13161D01*
X12671Y13172D01*
X12831Y13172D01*
X12831Y12873D01*
X12869Y12873D01*
X12831Y12857D02*
X12418Y12857D01*
X12406Y12739D02*
X12533Y12739D01*
X12552Y12620D02*
X12375Y12620D01*
X12418Y12976D02*
X12533Y12976D01*
X12555Y13094D02*
X12409Y13094D01*
X12378Y13213D02*
X17072Y13213D01*
X17104Y13331D02*
X12346Y13331D01*
X12278Y13450D02*
X17172Y13450D01*
X17240Y13568D02*
X13403Y13568D01*
X13521Y13687D02*
X17354Y13687D01*
X17494Y13805D02*
X13640Y13805D01*
X13758Y13924D02*
X14191Y13924D01*
X14072Y14042D02*
X13877Y14042D01*
X13311Y14042D02*
X10260Y14042D01*
X11738Y13924D02*
X12573Y13924D01*
X12573Y13805D02*
X11956Y13805D01*
X12096Y13687D02*
X12573Y13687D01*
X12573Y13568D02*
X12210Y13568D01*
X12831Y13094D02*
X12869Y13094D01*
X12869Y12976D02*
X12831Y12976D01*
X12831Y12739D02*
X12869Y12739D01*
X12869Y12620D02*
X12831Y12620D01*
X13167Y12976D02*
X17032Y12976D01*
X17041Y13094D02*
X13145Y13094D01*
X14429Y14279D02*
X15674Y14279D01*
X18290Y15346D02*
X19190Y15346D01*
X19190Y15464D02*
X18460Y15464D01*
X18542Y15583D02*
X19190Y15583D01*
X19190Y15701D02*
X18590Y15701D01*
X18590Y15820D02*
X19190Y15820D01*
X19190Y15938D02*
X18572Y15938D01*
X18523Y16057D02*
X19190Y16057D01*
X19190Y15227D02*
X18620Y15227D01*
X18630Y15109D02*
X19190Y15109D01*
X19190Y14990D02*
X18630Y14990D01*
X18630Y14872D02*
X19190Y14872D01*
X19190Y14753D02*
X18630Y14753D01*
X18630Y14635D02*
X19190Y14635D01*
X19190Y14516D02*
X18630Y14516D01*
X18628Y14398D02*
X19190Y14398D01*
X17634Y17953D02*
X15596Y17953D01*
X15628Y18071D02*
X17683Y18071D01*
X17800Y18190D02*
X15628Y18190D01*
X15350Y18190D02*
X15350Y18190D01*
X15350Y18308D02*
X15350Y18308D01*
X15350Y18071D02*
X15350Y18071D01*
X15350Y17953D02*
X15350Y17953D01*
X15104Y17953D02*
X15102Y17953D01*
X14112Y18071D02*
X14088Y18071D01*
X14088Y18190D02*
X14112Y18190D01*
X14112Y18308D02*
X14088Y18308D01*
X14088Y18427D02*
X14112Y18427D01*
X14112Y18545D02*
X14088Y18545D01*
X14088Y18664D02*
X14112Y18664D01*
X13695Y19493D02*
X13603Y19493D01*
X13603Y19612D02*
X13637Y19612D01*
X13637Y19730D02*
X13559Y19730D01*
X18241Y18604D02*
X18512Y18677D01*
X18694Y18782D02*
X19190Y18782D01*
X19190Y18901D02*
X18839Y18901D01*
X18956Y19019D02*
X19190Y19019D01*
X19190Y19138D02*
X19024Y19138D01*
X19093Y19256D02*
X19190Y19256D01*
X19190Y19375D02*
X19126Y19375D01*
X19157Y19493D02*
X19190Y19493D01*
X19190Y19612D02*
X19168Y19612D01*
X19168Y19730D02*
X19185Y19730D01*
X19175Y19849D02*
X19158Y19849D01*
X19136Y19967D02*
X19126Y19967D01*
X19098Y20086D02*
X19094Y20086D01*
X19044Y20204D02*
X19026Y20204D01*
X18957Y20323D02*
X18958Y20323D01*
X18710Y20560D02*
X18698Y20560D01*
X18488Y20678D02*
X18471Y20678D01*
X10764Y12028D02*
X10686Y12028D01*
X10668Y12038D02*
X10668Y12038D01*
X10900Y11909D02*
X11005Y11909D01*
D38*
X17225Y15797D03*
X16975Y18547D03*
X12600Y18547D03*
D39*
X12600Y19172D02*
X11913Y18485D01*
X10913Y18485D01*
X10600Y18172D01*
X10600Y16547D01*
X11350Y15797D01*
X11783Y16230D01*
X13850Y16230D01*
X14350Y16230D02*
X14350Y15797D01*
X14225Y15672D01*
X13475Y15672D01*
X13167Y15364D01*
X13167Y14797D01*
X13975Y14423D02*
X14033Y14423D01*
X14033Y14364D01*
X14350Y14047D01*
X15725Y14047D01*
X15975Y14297D01*
X16032Y14297D01*
X16158Y14423D01*
X16726Y14423D01*
X18100Y15797D01*
X18100Y16797D02*
X17975Y16922D01*
X15100Y16922D01*
X14850Y16672D01*
X14850Y16230D01*
X14850Y15047D01*
X15100Y14797D01*
X15292Y14797D01*
X13975Y14423D02*
X13292Y13740D01*
X12850Y13740D01*
X14350Y16230D02*
X14350Y16672D01*
X14225Y16797D01*
X11350Y16797D01*
X11350Y17797D02*
X14225Y17797D01*
X14350Y17922D01*
X14350Y18356D01*
X14350Y19547D01*
X14100Y19797D01*
X14033Y19797D01*
X13475Y20422D02*
X13224Y20171D01*
X12850Y20172D01*
X12725Y20172D01*
X12600Y20047D01*
X12600Y19172D01*
X13167Y20171D02*
X13224Y20171D01*
X13475Y20422D02*
X15225Y20422D01*
X15351Y20171D01*
X15417Y20171D01*
X15416Y20172D01*
X15225Y20422D01*
X16283Y19797D02*
X16283Y19355D01*
X15850Y18922D01*
X14975Y18922D01*
X14850Y18797D01*
X14850Y18356D01*
X14850Y17922D01*
X15100Y17672D01*
X17975Y17672D01*
X18100Y17797D01*
X16975Y18547D02*
X16784Y18356D01*
X15350Y18356D01*
M02*
