G75*
G70*
%OFA0B0*%
%FSLAX24Y24*%
%IPPOS*%
%LPD*%
%AMOC8*
5,1,8,0,0,1.08239X$1,22.5*
%
%ADD10C,0.0000*%
%ADD11R,0.0750X0.0750*%
%ADD12R,0.0591X0.0443*%
%ADD13C,0.0000*%
%ADD14C,0.0926*%
%ADD15C,0.0512*%
%ADD16OC8,0.0780*%
%ADD17C,0.0808*%
%ADD18C,0.0520*%
%ADD19R,0.0780X0.0780*%
%ADD20C,0.0780*%
%ADD21C,0.0631*%
%ADD22C,0.1340*%
%ADD23OC8,0.1040*%
%ADD24R,0.0396X0.0396*%
%ADD25C,0.0000*%
%ADD26C,0.1290*%
%ADD27C,0.0808*%
%ADD28R,0.1306X0.1306*%
%ADD29R,0.0512X0.0512*%
%ADD30C,0.0512*%
%ADD31R,0.0640X0.0640*%
%ADD32C,0.0000*%
%ADD33C,0.1290*%
%ADD34R,0.0780X0.0780*%
%ADD35C,0.0780*%
%ADD36R,0.0276X0.0650*%
%ADD37R,0.0591X0.0434*%
%ADD38R,0.0355X0.0355*%
%ADD39R,0.0396X0.0396*%
D10*
X001489Y001583D02*
X001492Y001583D01*
X018027Y001583D01*
X018030Y001583D01*
X018027Y001583D02*
X018099Y001585D01*
X018171Y001591D01*
X018243Y001600D01*
X018314Y001613D01*
X018384Y001630D01*
X018453Y001650D01*
X018521Y001675D01*
X018587Y001702D01*
X018653Y001733D01*
X018716Y001768D01*
X018778Y001805D01*
X018837Y001846D01*
X018894Y001890D01*
X018949Y001937D01*
X019001Y001987D01*
X019051Y002039D01*
X019098Y002094D01*
X019142Y002151D01*
X019183Y002210D01*
X019220Y002272D01*
X019255Y002335D01*
X019286Y002401D01*
X019313Y002467D01*
X019338Y002535D01*
X019358Y002604D01*
X019375Y002674D01*
X019388Y002745D01*
X019397Y002817D01*
X019403Y002889D01*
X019405Y002961D01*
X019405Y009851D01*
X019403Y009923D01*
X019397Y009995D01*
X019388Y010067D01*
X019375Y010138D01*
X019358Y010208D01*
X019338Y010277D01*
X019313Y010345D01*
X019286Y010411D01*
X019255Y010477D01*
X019220Y010540D01*
X019183Y010602D01*
X019142Y010661D01*
X019098Y010718D01*
X019051Y010773D01*
X019001Y010825D01*
X018949Y010875D01*
X018894Y010922D01*
X018837Y010966D01*
X018778Y011007D01*
X018716Y011044D01*
X018653Y011079D01*
X018587Y011110D01*
X018521Y011137D01*
X018453Y011162D01*
X018384Y011182D01*
X018314Y011199D01*
X018243Y011212D01*
X018171Y011221D01*
X018099Y011227D01*
X018027Y011229D01*
X007988Y011229D01*
X007988Y011672D01*
X008100Y011672D01*
X007397Y011672D02*
X007397Y011229D01*
X001492Y011229D01*
X001489Y011229D01*
X001350Y011672D02*
X007397Y011672D01*
X008100Y011672D02*
X008166Y011670D01*
X008232Y011672D01*
X008298Y011678D01*
X008364Y011687D01*
X008429Y011700D01*
X008494Y011717D01*
X008557Y011737D01*
X008619Y011761D01*
X008679Y011788D01*
X008738Y011819D01*
X008796Y011853D01*
X008851Y011890D01*
X008904Y011930D01*
X008954Y011973D01*
X009003Y012018D01*
X009048Y012067D01*
X009091Y012117D01*
X009131Y012170D01*
X009168Y012225D01*
X009202Y012283D01*
X009233Y012342D01*
X009260Y012402D01*
X009284Y012464D01*
X009304Y012527D01*
X009321Y012592D01*
X009334Y012657D01*
X009343Y012723D01*
X009349Y012789D01*
X009351Y012855D01*
X009349Y012921D01*
X009350Y012922D02*
X010100Y012922D01*
X010100Y013672D02*
X010100Y019672D01*
X009350Y019672D02*
X009350Y013672D01*
X010100Y013672D01*
X010100Y012922D02*
X010102Y012854D01*
X010107Y012787D01*
X010116Y012720D01*
X010129Y012653D01*
X010146Y012588D01*
X010165Y012523D01*
X010189Y012459D01*
X010216Y012397D01*
X010246Y012336D01*
X010279Y012278D01*
X010315Y012221D01*
X010355Y012166D01*
X010397Y012113D01*
X010443Y012062D01*
X010490Y012015D01*
X010541Y011969D01*
X010594Y011927D01*
X010649Y011887D01*
X010706Y011851D01*
X010764Y011818D01*
X010825Y011788D01*
X010887Y011761D01*
X010951Y011737D01*
X011016Y011718D01*
X011081Y011701D01*
X011148Y011688D01*
X011215Y011679D01*
X011282Y011674D01*
X011350Y011672D01*
X018100Y011672D01*
X018421Y011229D02*
X018424Y011229D01*
X018100Y011672D02*
X018166Y011670D01*
X018232Y011672D01*
X018298Y011678D01*
X018364Y011687D01*
X018429Y011700D01*
X018494Y011717D01*
X018557Y011737D01*
X018619Y011761D01*
X018679Y011788D01*
X018738Y011819D01*
X018796Y011853D01*
X018851Y011890D01*
X018904Y011930D01*
X018954Y011973D01*
X019003Y012018D01*
X019048Y012067D01*
X019091Y012117D01*
X019131Y012170D01*
X019168Y012225D01*
X019202Y012283D01*
X019233Y012342D01*
X019260Y012402D01*
X019284Y012464D01*
X019304Y012527D01*
X019321Y012592D01*
X019334Y012657D01*
X019343Y012723D01*
X019349Y012789D01*
X019351Y012855D01*
X019349Y012921D01*
X019350Y012922D02*
X019350Y019672D01*
X019348Y019740D01*
X019343Y019807D01*
X019334Y019874D01*
X019321Y019941D01*
X019304Y020006D01*
X019285Y020071D01*
X019261Y020135D01*
X019234Y020197D01*
X019204Y020258D01*
X019171Y020316D01*
X019135Y020373D01*
X019095Y020428D01*
X019053Y020481D01*
X019007Y020532D01*
X018960Y020579D01*
X018909Y020625D01*
X018856Y020667D01*
X018801Y020707D01*
X018744Y020743D01*
X018686Y020776D01*
X018625Y020806D01*
X018563Y020833D01*
X018499Y020857D01*
X018434Y020876D01*
X018369Y020893D01*
X018302Y020906D01*
X018235Y020915D01*
X018168Y020920D01*
X018100Y020922D01*
X018137Y020922D02*
X011350Y020922D01*
X011282Y020920D01*
X011215Y020915D01*
X011148Y020906D01*
X011081Y020893D01*
X011016Y020876D01*
X010951Y020857D01*
X010887Y020833D01*
X010825Y020806D01*
X010764Y020776D01*
X010706Y020743D01*
X010649Y020707D01*
X010594Y020667D01*
X010541Y020625D01*
X010490Y020579D01*
X010443Y020532D01*
X010397Y020481D01*
X010355Y020428D01*
X010315Y020373D01*
X010279Y020316D01*
X010246Y020258D01*
X010216Y020197D01*
X010189Y020135D01*
X010165Y020071D01*
X010146Y020006D01*
X010129Y019941D01*
X010116Y019874D01*
X010107Y019807D01*
X010102Y019740D01*
X010100Y019672D01*
X009350Y019672D02*
X009348Y019740D01*
X009343Y019807D01*
X009334Y019874D01*
X009321Y019941D01*
X009304Y020006D01*
X009285Y020071D01*
X009261Y020135D01*
X009234Y020197D01*
X009204Y020258D01*
X009171Y020316D01*
X009135Y020373D01*
X009095Y020428D01*
X009053Y020481D01*
X009007Y020532D01*
X008960Y020579D01*
X008909Y020625D01*
X008856Y020667D01*
X008801Y020707D01*
X008744Y020743D01*
X008686Y020776D01*
X008625Y020806D01*
X008563Y020833D01*
X008499Y020857D01*
X008434Y020876D01*
X008369Y020893D01*
X008302Y020906D01*
X008235Y020915D01*
X008168Y020920D01*
X008100Y020922D01*
X001350Y020922D01*
X001282Y020920D01*
X001215Y020915D01*
X001148Y020906D01*
X001081Y020893D01*
X001016Y020876D01*
X000951Y020857D01*
X000887Y020833D01*
X000825Y020806D01*
X000764Y020776D01*
X000706Y020743D01*
X000649Y020707D01*
X000594Y020667D01*
X000541Y020625D01*
X000490Y020579D01*
X000443Y020532D01*
X000397Y020481D01*
X000355Y020428D01*
X000315Y020373D01*
X000279Y020316D01*
X000246Y020258D01*
X000216Y020197D01*
X000189Y020135D01*
X000165Y020071D01*
X000146Y020006D01*
X000129Y019941D01*
X000116Y019874D01*
X000107Y019807D01*
X000102Y019740D01*
X000100Y019672D01*
X000100Y012922D01*
X000102Y012854D01*
X000107Y012787D01*
X000116Y012720D01*
X000129Y012653D01*
X000146Y012588D01*
X000165Y012523D01*
X000189Y012459D01*
X000216Y012397D01*
X000246Y012336D01*
X000279Y012278D01*
X000315Y012221D01*
X000355Y012166D01*
X000397Y012113D01*
X000443Y012062D01*
X000490Y012015D01*
X000541Y011969D01*
X000594Y011927D01*
X000649Y011887D01*
X000706Y011851D01*
X000764Y011818D01*
X000825Y011788D01*
X000887Y011761D01*
X000951Y011737D01*
X001016Y011718D01*
X001081Y011701D01*
X001148Y011688D01*
X001215Y011679D01*
X001282Y011674D01*
X001350Y011672D01*
X001492Y011229D02*
X001420Y011227D01*
X001348Y011221D01*
X001276Y011212D01*
X001205Y011199D01*
X001135Y011182D01*
X001066Y011162D01*
X000998Y011137D01*
X000932Y011110D01*
X000866Y011079D01*
X000803Y011044D01*
X000741Y011007D01*
X000682Y010966D01*
X000625Y010922D01*
X000570Y010875D01*
X000518Y010825D01*
X000468Y010773D01*
X000421Y010718D01*
X000377Y010661D01*
X000336Y010602D01*
X000299Y010540D01*
X000264Y010477D01*
X000233Y010411D01*
X000206Y010345D01*
X000181Y010277D01*
X000161Y010208D01*
X000144Y010138D01*
X000131Y010067D01*
X000122Y009995D01*
X000116Y009923D01*
X000114Y009851D01*
X000114Y009854D01*
X000114Y009851D02*
X000114Y003001D01*
X000114Y002958D01*
X000113Y003001D02*
X000114Y002928D01*
X000119Y002854D01*
X000127Y002782D01*
X000140Y002710D01*
X000156Y002638D01*
X000175Y002568D01*
X000199Y002498D01*
X000226Y002430D01*
X000257Y002364D01*
X000291Y002299D01*
X000328Y002236D01*
X000369Y002175D01*
X000412Y002117D01*
X000459Y002060D01*
X000509Y002006D01*
X000561Y001955D01*
X000616Y001907D01*
X000673Y001862D01*
X000733Y001819D01*
X000795Y001780D01*
X000859Y001744D01*
X000924Y001712D01*
X000992Y001683D01*
X001060Y001658D01*
X001130Y001636D01*
X001201Y001618D01*
X001273Y001603D01*
X001345Y001593D01*
X001418Y001586D01*
X001491Y001583D01*
X018027Y021072D02*
X018030Y021072D01*
D11*
X009725Y013297D03*
D12*
X007693Y011450D03*
D13*
X1489Y1583D02*
X1492Y1583D01*
X18027Y1583D01*
X18030Y1583D01*
X17380Y2958D02*
X17382Y3008D01*
X17388Y3058D01*
X17398Y3108D01*
X17411Y3156D01*
X17428Y3204D01*
X17449Y3250D01*
X17473Y3294D01*
X17501Y3336D01*
X17532Y3376D01*
X17566Y3413D01*
X17603Y3448D01*
X17642Y3479D01*
X17683Y3508D01*
X17727Y3533D01*
X17773Y3555D01*
X17820Y3573D01*
X17868Y3587D01*
X17917Y3598D01*
X17967Y3605D01*
X18017Y3608D01*
X18068Y3607D01*
X18118Y3602D01*
X18168Y3593D01*
X18216Y3581D01*
X18264Y3564D01*
X18310Y3544D01*
X18355Y3521D01*
X18398Y3494D01*
X18438Y3464D01*
X18476Y3431D01*
X18511Y3395D01*
X18544Y3356D01*
X18573Y3315D01*
X18599Y3272D01*
X18622Y3227D01*
X18641Y3180D01*
X18656Y3132D01*
X18668Y3083D01*
X18676Y3033D01*
X18680Y2983D01*
X18680Y2933D01*
X18676Y2883D01*
X18668Y2833D01*
X18656Y2784D01*
X18641Y2736D01*
X18622Y2689D01*
X18599Y2644D01*
X18573Y2601D01*
X18544Y2560D01*
X18511Y2521D01*
X18476Y2485D01*
X18438Y2452D01*
X18398Y2422D01*
X18355Y2395D01*
X18310Y2372D01*
X18264Y2352D01*
X18216Y2335D01*
X18168Y2323D01*
X18118Y2314D01*
X18068Y2309D01*
X18017Y2308D01*
X17967Y2311D01*
X17917Y2318D01*
X17868Y2329D01*
X17820Y2343D01*
X17773Y2361D01*
X17727Y2383D01*
X17683Y2408D01*
X17642Y2437D01*
X17603Y2468D01*
X17566Y2503D01*
X17532Y2540D01*
X17501Y2580D01*
X17473Y2622D01*
X17449Y2666D01*
X17428Y2712D01*
X17411Y2760D01*
X17398Y2808D01*
X17388Y2858D01*
X17382Y2908D01*
X17380Y2958D01*
X18027Y1583D02*
X18099Y1585D01*
X18171Y1591D01*
X18243Y1600D01*
X18314Y1613D01*
X18384Y1630D01*
X18453Y1650D01*
X18521Y1675D01*
X18587Y1702D01*
X18653Y1733D01*
X18716Y1768D01*
X18778Y1805D01*
X18837Y1846D01*
X18894Y1890D01*
X18949Y1937D01*
X19001Y1987D01*
X19051Y2039D01*
X19098Y2094D01*
X19142Y2151D01*
X19183Y2210D01*
X19220Y2272D01*
X19255Y2335D01*
X19286Y2401D01*
X19313Y2467D01*
X19338Y2535D01*
X19358Y2604D01*
X19375Y2674D01*
X19388Y2745D01*
X19397Y2817D01*
X19403Y2889D01*
X19405Y2961D01*
X19405Y9851D01*
X17377Y9851D02*
X17379Y9901D01*
X17385Y9951D01*
X17395Y10001D01*
X17408Y10049D01*
X17425Y10097D01*
X17446Y10143D01*
X17470Y10187D01*
X17498Y10229D01*
X17529Y10269D01*
X17563Y10306D01*
X17600Y10341D01*
X17639Y10372D01*
X17680Y10401D01*
X17724Y10426D01*
X17770Y10448D01*
X17817Y10466D01*
X17865Y10480D01*
X17914Y10491D01*
X17964Y10498D01*
X18014Y10501D01*
X18065Y10500D01*
X18115Y10495D01*
X18165Y10486D01*
X18213Y10474D01*
X18261Y10457D01*
X18307Y10437D01*
X18352Y10414D01*
X18395Y10387D01*
X18435Y10357D01*
X18473Y10324D01*
X18508Y10288D01*
X18541Y10249D01*
X18570Y10208D01*
X18596Y10165D01*
X18619Y10120D01*
X18638Y10073D01*
X18653Y10025D01*
X18665Y9976D01*
X18673Y9926D01*
X18677Y9876D01*
X18677Y9826D01*
X18673Y9776D01*
X18665Y9726D01*
X18653Y9677D01*
X18638Y9629D01*
X18619Y9582D01*
X18596Y9537D01*
X18570Y9494D01*
X18541Y9453D01*
X18508Y9414D01*
X18473Y9378D01*
X18435Y9345D01*
X18395Y9315D01*
X18352Y9288D01*
X18307Y9265D01*
X18261Y9245D01*
X18213Y9228D01*
X18165Y9216D01*
X18115Y9207D01*
X18065Y9202D01*
X18014Y9201D01*
X17964Y9204D01*
X17914Y9211D01*
X17865Y9222D01*
X17817Y9236D01*
X17770Y9254D01*
X17724Y9276D01*
X17680Y9301D01*
X17639Y9330D01*
X17600Y9361D01*
X17563Y9396D01*
X17529Y9433D01*
X17498Y9473D01*
X17470Y9515D01*
X17446Y9559D01*
X17425Y9605D01*
X17408Y9653D01*
X17395Y9701D01*
X17385Y9751D01*
X17379Y9801D01*
X17377Y9851D01*
X18027Y11229D02*
X18099Y11227D01*
X18171Y11221D01*
X18243Y11212D01*
X18314Y11199D01*
X18384Y11182D01*
X18453Y11162D01*
X18521Y11137D01*
X18587Y11110D01*
X18653Y11079D01*
X18716Y11044D01*
X18778Y11007D01*
X18837Y10966D01*
X18894Y10922D01*
X18949Y10875D01*
X19001Y10825D01*
X19051Y10773D01*
X19098Y10718D01*
X19142Y10661D01*
X19183Y10602D01*
X19220Y10540D01*
X19255Y10477D01*
X19286Y10411D01*
X19313Y10345D01*
X19338Y10277D01*
X19358Y10208D01*
X19375Y10138D01*
X19388Y10067D01*
X19397Y9995D01*
X19403Y9923D01*
X19405Y9851D01*
X18027Y11229D02*
X1492Y11229D01*
X839Y9854D02*
X841Y9904D01*
X847Y9954D01*
X857Y10004D01*
X870Y10052D01*
X887Y10100D01*
X908Y10146D01*
X932Y10190D01*
X960Y10232D01*
X991Y10272D01*
X1025Y10309D01*
X1062Y10344D01*
X1101Y10375D01*
X1142Y10404D01*
X1186Y10429D01*
X1232Y10451D01*
X1279Y10469D01*
X1327Y10483D01*
X1376Y10494D01*
X1426Y10501D01*
X1476Y10504D01*
X1527Y10503D01*
X1577Y10498D01*
X1627Y10489D01*
X1675Y10477D01*
X1723Y10460D01*
X1769Y10440D01*
X1814Y10417D01*
X1857Y10390D01*
X1897Y10360D01*
X1935Y10327D01*
X1970Y10291D01*
X2003Y10252D01*
X2032Y10211D01*
X2058Y10168D01*
X2081Y10123D01*
X2100Y10076D01*
X2115Y10028D01*
X2127Y9979D01*
X2135Y9929D01*
X2139Y9879D01*
X2139Y9829D01*
X2135Y9779D01*
X2127Y9729D01*
X2115Y9680D01*
X2100Y9632D01*
X2081Y9585D01*
X2058Y9540D01*
X2032Y9497D01*
X2003Y9456D01*
X1970Y9417D01*
X1935Y9381D01*
X1897Y9348D01*
X1857Y9318D01*
X1814Y9291D01*
X1769Y9268D01*
X1723Y9248D01*
X1675Y9231D01*
X1627Y9219D01*
X1577Y9210D01*
X1527Y9205D01*
X1476Y9204D01*
X1426Y9207D01*
X1376Y9214D01*
X1327Y9225D01*
X1279Y9239D01*
X1232Y9257D01*
X1186Y9279D01*
X1142Y9304D01*
X1101Y9333D01*
X1062Y9364D01*
X1025Y9399D01*
X991Y9436D01*
X960Y9476D01*
X932Y9518D01*
X908Y9562D01*
X887Y9608D01*
X870Y9656D01*
X857Y9704D01*
X847Y9754D01*
X841Y9804D01*
X839Y9854D01*
X114Y9851D02*
X116Y9923D01*
X122Y9995D01*
X131Y10067D01*
X144Y10138D01*
X161Y10208D01*
X181Y10277D01*
X206Y10345D01*
X233Y10411D01*
X264Y10477D01*
X299Y10540D01*
X336Y10602D01*
X377Y10661D01*
X421Y10718D01*
X468Y10773D01*
X518Y10825D01*
X570Y10875D01*
X625Y10922D01*
X682Y10966D01*
X741Y11007D01*
X803Y11044D01*
X866Y11079D01*
X932Y11110D01*
X998Y11137D01*
X1066Y11162D01*
X1135Y11182D01*
X1205Y11199D01*
X1276Y11212D01*
X1348Y11221D01*
X1420Y11227D01*
X1492Y11229D01*
X114Y9854D02*
X114Y9851D01*
X114Y3001D01*
X114Y2958D01*
X839Y2958D02*
X841Y3008D01*
X847Y3058D01*
X857Y3108D01*
X870Y3156D01*
X887Y3204D01*
X908Y3250D01*
X932Y3294D01*
X960Y3336D01*
X991Y3376D01*
X1025Y3413D01*
X1062Y3448D01*
X1101Y3479D01*
X1142Y3508D01*
X1186Y3533D01*
X1232Y3555D01*
X1279Y3573D01*
X1327Y3587D01*
X1376Y3598D01*
X1426Y3605D01*
X1476Y3608D01*
X1527Y3607D01*
X1577Y3602D01*
X1627Y3593D01*
X1675Y3581D01*
X1723Y3564D01*
X1769Y3544D01*
X1814Y3521D01*
X1857Y3494D01*
X1897Y3464D01*
X1935Y3431D01*
X1970Y3395D01*
X2003Y3356D01*
X2032Y3315D01*
X2058Y3272D01*
X2081Y3227D01*
X2100Y3180D01*
X2115Y3132D01*
X2127Y3083D01*
X2135Y3033D01*
X2139Y2983D01*
X2139Y2933D01*
X2135Y2883D01*
X2127Y2833D01*
X2115Y2784D01*
X2100Y2736D01*
X2081Y2689D01*
X2058Y2644D01*
X2032Y2601D01*
X2003Y2560D01*
X1970Y2521D01*
X1935Y2485D01*
X1897Y2452D01*
X1857Y2422D01*
X1814Y2395D01*
X1769Y2372D01*
X1723Y2352D01*
X1675Y2335D01*
X1627Y2323D01*
X1577Y2314D01*
X1527Y2309D01*
X1476Y2308D01*
X1426Y2311D01*
X1376Y2318D01*
X1327Y2329D01*
X1279Y2343D01*
X1232Y2361D01*
X1186Y2383D01*
X1142Y2408D01*
X1101Y2437D01*
X1062Y2468D01*
X1025Y2503D01*
X991Y2540D01*
X960Y2580D01*
X932Y2622D01*
X908Y2666D01*
X887Y2712D01*
X870Y2760D01*
X857Y2808D01*
X847Y2858D01*
X841Y2908D01*
X839Y2958D01*
X113Y3001D02*
X114Y2928D01*
X119Y2854D01*
X127Y2782D01*
X140Y2710D01*
X156Y2638D01*
X175Y2568D01*
X199Y2498D01*
X226Y2430D01*
X257Y2364D01*
X291Y2299D01*
X328Y2236D01*
X369Y2175D01*
X412Y2117D01*
X459Y2060D01*
X509Y2006D01*
X561Y1955D01*
X616Y1907D01*
X673Y1862D01*
X733Y1819D01*
X795Y1780D01*
X859Y1744D01*
X924Y1712D01*
X992Y1683D01*
X1060Y1658D01*
X1130Y1636D01*
X1201Y1618D01*
X1273Y1603D01*
X1345Y1593D01*
X1418Y1586D01*
X1491Y1583D01*
X1295Y4434D02*
X1297Y4464D01*
X1303Y4494D01*
X1312Y4523D01*
X1325Y4550D01*
X1342Y4575D01*
X1361Y4598D01*
X1384Y4619D01*
X1409Y4636D01*
X1435Y4650D01*
X1464Y4660D01*
X1493Y4667D01*
X1523Y4670D01*
X1554Y4669D01*
X1584Y4664D01*
X1613Y4655D01*
X1640Y4643D01*
X1666Y4628D01*
X1690Y4609D01*
X1711Y4587D01*
X1729Y4563D01*
X1744Y4536D01*
X1755Y4508D01*
X1763Y4479D01*
X1767Y4449D01*
X1767Y4419D01*
X1763Y4389D01*
X1755Y4360D01*
X1744Y4332D01*
X1729Y4305D01*
X1711Y4281D01*
X1690Y4259D01*
X1666Y4240D01*
X1640Y4225D01*
X1613Y4213D01*
X1584Y4204D01*
X1554Y4199D01*
X1523Y4198D01*
X1493Y4201D01*
X1464Y4208D01*
X1435Y4218D01*
X1409Y4232D01*
X1384Y4249D01*
X1361Y4270D01*
X1342Y4293D01*
X1325Y4318D01*
X1312Y4345D01*
X1303Y4374D01*
X1297Y4404D01*
X1295Y4434D01*
X311Y4434D02*
X313Y4464D01*
X319Y4494D01*
X328Y4523D01*
X341Y4550D01*
X358Y4575D01*
X377Y4598D01*
X400Y4619D01*
X425Y4636D01*
X451Y4650D01*
X480Y4660D01*
X509Y4667D01*
X539Y4670D01*
X570Y4669D01*
X600Y4664D01*
X629Y4655D01*
X656Y4643D01*
X682Y4628D01*
X706Y4609D01*
X727Y4587D01*
X745Y4563D01*
X760Y4536D01*
X771Y4508D01*
X779Y4479D01*
X783Y4449D01*
X783Y4419D01*
X779Y4389D01*
X771Y4360D01*
X760Y4332D01*
X745Y4305D01*
X727Y4281D01*
X706Y4259D01*
X682Y4240D01*
X656Y4225D01*
X629Y4213D01*
X600Y4204D01*
X570Y4199D01*
X539Y4198D01*
X509Y4201D01*
X480Y4208D01*
X451Y4218D01*
X425Y4232D01*
X400Y4249D01*
X377Y4270D01*
X358Y4293D01*
X341Y4318D01*
X328Y4345D01*
X319Y4374D01*
X313Y4404D01*
X311Y4434D01*
X3264Y6402D02*
X3266Y6432D01*
X3272Y6462D01*
X3281Y6491D01*
X3294Y6518D01*
X3311Y6543D01*
X3330Y6566D01*
X3353Y6587D01*
X3378Y6604D01*
X3404Y6618D01*
X3433Y6628D01*
X3462Y6635D01*
X3492Y6638D01*
X3523Y6637D01*
X3553Y6632D01*
X3582Y6623D01*
X3609Y6611D01*
X3635Y6596D01*
X3659Y6577D01*
X3680Y6555D01*
X3698Y6531D01*
X3713Y6504D01*
X3724Y6476D01*
X3732Y6447D01*
X3736Y6417D01*
X3736Y6387D01*
X3732Y6357D01*
X3724Y6328D01*
X3713Y6300D01*
X3698Y6273D01*
X3680Y6249D01*
X3659Y6227D01*
X3635Y6208D01*
X3609Y6193D01*
X3582Y6181D01*
X3553Y6172D01*
X3523Y6167D01*
X3492Y6166D01*
X3462Y6169D01*
X3433Y6176D01*
X3404Y6186D01*
X3378Y6200D01*
X3353Y6217D01*
X3330Y6238D01*
X3311Y6261D01*
X3294Y6286D01*
X3281Y6313D01*
X3272Y6342D01*
X3266Y6372D01*
X3264Y6402D01*
X1295Y8371D02*
X1297Y8401D01*
X1303Y8431D01*
X1312Y8460D01*
X1325Y8487D01*
X1342Y8512D01*
X1361Y8535D01*
X1384Y8556D01*
X1409Y8573D01*
X1435Y8587D01*
X1464Y8597D01*
X1493Y8604D01*
X1523Y8607D01*
X1554Y8606D01*
X1584Y8601D01*
X1613Y8592D01*
X1640Y8580D01*
X1666Y8565D01*
X1690Y8546D01*
X1711Y8524D01*
X1729Y8500D01*
X1744Y8473D01*
X1755Y8445D01*
X1763Y8416D01*
X1767Y8386D01*
X1767Y8356D01*
X1763Y8326D01*
X1755Y8297D01*
X1744Y8269D01*
X1729Y8242D01*
X1711Y8218D01*
X1690Y8196D01*
X1666Y8177D01*
X1640Y8162D01*
X1613Y8150D01*
X1584Y8141D01*
X1554Y8136D01*
X1523Y8135D01*
X1493Y8138D01*
X1464Y8145D01*
X1435Y8155D01*
X1409Y8169D01*
X1384Y8186D01*
X1361Y8207D01*
X1342Y8230D01*
X1325Y8255D01*
X1312Y8282D01*
X1303Y8311D01*
X1297Y8341D01*
X1295Y8371D01*
X311Y8371D02*
X313Y8401D01*
X319Y8431D01*
X328Y8460D01*
X341Y8487D01*
X358Y8512D01*
X377Y8535D01*
X400Y8556D01*
X425Y8573D01*
X451Y8587D01*
X480Y8597D01*
X509Y8604D01*
X539Y8607D01*
X570Y8606D01*
X600Y8601D01*
X629Y8592D01*
X656Y8580D01*
X682Y8565D01*
X706Y8546D01*
X727Y8524D01*
X745Y8500D01*
X760Y8473D01*
X771Y8445D01*
X779Y8416D01*
X783Y8386D01*
X783Y8356D01*
X779Y8326D01*
X771Y8297D01*
X760Y8269D01*
X745Y8242D01*
X727Y8218D01*
X706Y8196D01*
X682Y8177D01*
X656Y8162D01*
X629Y8150D01*
X600Y8141D01*
X570Y8136D01*
X539Y8135D01*
X509Y8138D01*
X480Y8145D01*
X451Y8155D01*
X425Y8169D01*
X400Y8186D01*
X377Y8207D01*
X358Y8230D01*
X341Y8255D01*
X328Y8282D01*
X319Y8311D01*
X313Y8341D01*
X311Y8371D01*
D14*
X3500Y8371D03*
X3500Y7386D03*
X1531Y6402D03*
X3500Y5418D03*
X3500Y4434D03*
D15*
X1531Y4434D03*
X547Y4434D03*
X3500Y6402D03*
X1531Y8371D03*
X547Y8371D03*
D16*
X17228Y7899D03*
X18228Y7899D03*
X18228Y6899D03*
X17228Y6899D03*
X17228Y5899D03*
X18228Y5899D03*
X18228Y4899D03*
X17228Y4899D03*
D17*
X12233Y8449D03*
X5414Y4512D03*
D18*
X12592Y9612D03*
X12592Y10612D03*
D19*
X3058Y10062D03*
D20*
X4058Y10062D03*
X5058Y10062D03*
X6058Y10062D03*
X2534Y7373D03*
X2534Y6373D03*
X2534Y5373D03*
X11545Y2759D03*
X12545Y2759D03*
X13545Y2759D03*
X14545Y2759D03*
X15545Y2759D03*
X16545Y2759D03*
D21*
X15600Y4708D02*
X15600Y5299D01*
X13828Y5299D02*
X13828Y4708D01*
X13828Y7267D02*
X13828Y7858D01*
X15600Y7858D02*
X15600Y7267D01*
D22*
X18027Y9851D03*
X18030Y2958D03*
X1489Y2958D03*
X1489Y9854D03*
D23*
X16551Y8965D03*
X16551Y3847D03*
D24*
X17370Y4154D03*
X16484Y4941D03*
X14976Y4339D03*
X14968Y3485D03*
X15500Y3465D03*
X14320Y3483D03*
X11137Y3453D03*
X8468Y3112D03*
X7102Y2371D03*
X7102Y3945D03*
X7941Y4339D03*
X7939Y4880D03*
X6614Y4733D03*
X9514Y6083D03*
X9114Y6583D03*
X8614Y7283D03*
X8714Y7983D03*
X9514Y7983D03*
X10964Y7933D03*
X12007Y7677D03*
X12309Y7086D03*
X12651Y6289D03*
X14214Y5883D03*
X15598Y6418D03*
X16136Y6407D03*
X14414Y6833D03*
X14814Y8183D03*
X17370Y8682D03*
X12114Y10078D03*
X9514Y10633D03*
X7517Y9780D03*
X7014Y7583D03*
X5714Y7183D03*
X6564Y6783D03*
X4814Y6783D03*
X1014Y7883D03*
X1014Y4883D03*
X2301Y4396D03*
X10514Y5183D03*
X11114Y5183D03*
D25*
X1350Y11672D02*
X8100Y11672D01*
X8168Y11674D01*
X8235Y11679D01*
X8302Y11688D01*
X8369Y11701D01*
X8434Y11718D01*
X8499Y11737D01*
X8563Y11761D01*
X8625Y11788D01*
X8686Y11818D01*
X8744Y11851D01*
X8801Y11887D01*
X8856Y11927D01*
X8909Y11969D01*
X8960Y12015D01*
X9007Y12062D01*
X9053Y12113D01*
X9095Y12166D01*
X9135Y12221D01*
X9171Y12278D01*
X9204Y12336D01*
X9234Y12397D01*
X9261Y12459D01*
X9285Y12523D01*
X9304Y12588D01*
X9321Y12653D01*
X9334Y12720D01*
X9343Y12787D01*
X9348Y12854D01*
X9350Y12922D01*
X9350Y19672D01*
X9348Y19740D01*
X9343Y19807D01*
X9334Y19874D01*
X9321Y19941D01*
X9304Y20006D01*
X9285Y20071D01*
X9261Y20135D01*
X9234Y20197D01*
X9204Y20258D01*
X9171Y20316D01*
X9135Y20373D01*
X9095Y20428D01*
X9053Y20481D01*
X9007Y20532D01*
X8960Y20579D01*
X8909Y20625D01*
X8856Y20667D01*
X8801Y20707D01*
X8744Y20743D01*
X8686Y20776D01*
X8625Y20806D01*
X8563Y20833D01*
X8499Y20857D01*
X8434Y20876D01*
X8369Y20893D01*
X8302Y20906D01*
X8235Y20915D01*
X8168Y20920D01*
X8100Y20922D01*
X1350Y20922D01*
X1282Y20920D01*
X1215Y20915D01*
X1148Y20906D01*
X1081Y20893D01*
X1016Y20876D01*
X951Y20857D01*
X887Y20833D01*
X825Y20806D01*
X764Y20776D01*
X706Y20743D01*
X649Y20707D01*
X594Y20667D01*
X541Y20625D01*
X490Y20579D01*
X443Y20532D01*
X397Y20481D01*
X355Y20428D01*
X315Y20373D01*
X279Y20316D01*
X246Y20258D01*
X216Y20197D01*
X189Y20135D01*
X165Y20071D01*
X146Y20006D01*
X129Y19941D01*
X116Y19874D01*
X107Y19807D01*
X102Y19740D01*
X100Y19672D01*
X100Y12922D01*
X101Y12922D02*
X99Y12856D01*
X101Y12790D01*
X107Y12724D01*
X116Y12658D01*
X129Y12593D01*
X146Y12528D01*
X166Y12465D01*
X190Y12403D01*
X217Y12343D01*
X248Y12284D01*
X282Y12226D01*
X319Y12171D01*
X359Y12118D01*
X402Y12068D01*
X447Y12019D01*
X496Y11974D01*
X546Y11931D01*
X599Y11891D01*
X654Y11854D01*
X712Y11820D01*
X771Y11789D01*
X831Y11762D01*
X893Y11738D01*
X956Y11718D01*
X1021Y11701D01*
X1086Y11688D01*
X1152Y11679D01*
X1218Y11673D01*
X1284Y11671D01*
X1350Y11673D01*
X725Y14172D02*
X727Y14222D01*
X733Y14271D01*
X743Y14320D01*
X756Y14367D01*
X774Y14414D01*
X795Y14459D01*
X819Y14502D01*
X847Y14543D01*
X878Y14582D01*
X912Y14618D01*
X949Y14652D01*
X989Y14682D01*
X1030Y14709D01*
X1074Y14733D01*
X1119Y14753D01*
X1166Y14769D01*
X1214Y14782D01*
X1263Y14791D01*
X1313Y14796D01*
X1362Y14797D01*
X1412Y14794D01*
X1461Y14787D01*
X1510Y14776D01*
X1557Y14762D01*
X1603Y14743D01*
X1648Y14721D01*
X1691Y14696D01*
X1731Y14667D01*
X1769Y14635D01*
X1805Y14601D01*
X1838Y14563D01*
X1867Y14523D01*
X1893Y14481D01*
X1916Y14437D01*
X1935Y14391D01*
X1951Y14344D01*
X1963Y14295D01*
X1971Y14246D01*
X1975Y14197D01*
X1975Y14147D01*
X1971Y14098D01*
X1963Y14049D01*
X1951Y14000D01*
X1935Y13953D01*
X1916Y13907D01*
X1893Y13863D01*
X1867Y13821D01*
X1838Y13781D01*
X1805Y13743D01*
X1769Y13709D01*
X1731Y13677D01*
X1691Y13648D01*
X1648Y13623D01*
X1603Y13601D01*
X1557Y13582D01*
X1510Y13568D01*
X1461Y13557D01*
X1412Y13550D01*
X1362Y13547D01*
X1313Y13548D01*
X1263Y13553D01*
X1214Y13562D01*
X1166Y13575D01*
X1119Y13591D01*
X1074Y13611D01*
X1030Y13635D01*
X989Y13662D01*
X949Y13692D01*
X912Y13726D01*
X878Y13762D01*
X847Y13801D01*
X819Y13842D01*
X795Y13885D01*
X774Y13930D01*
X756Y13977D01*
X743Y14024D01*
X733Y14073D01*
X727Y14122D01*
X725Y14172D01*
X7475Y14172D02*
X7477Y14222D01*
X7483Y14271D01*
X7493Y14320D01*
X7506Y14367D01*
X7524Y14414D01*
X7545Y14459D01*
X7569Y14502D01*
X7597Y14543D01*
X7628Y14582D01*
X7662Y14618D01*
X7699Y14652D01*
X7739Y14682D01*
X7780Y14709D01*
X7824Y14733D01*
X7869Y14753D01*
X7916Y14769D01*
X7964Y14782D01*
X8013Y14791D01*
X8063Y14796D01*
X8112Y14797D01*
X8162Y14794D01*
X8211Y14787D01*
X8260Y14776D01*
X8307Y14762D01*
X8353Y14743D01*
X8398Y14721D01*
X8441Y14696D01*
X8481Y14667D01*
X8519Y14635D01*
X8555Y14601D01*
X8588Y14563D01*
X8617Y14523D01*
X8643Y14481D01*
X8666Y14437D01*
X8685Y14391D01*
X8701Y14344D01*
X8713Y14295D01*
X8721Y14246D01*
X8725Y14197D01*
X8725Y14147D01*
X8721Y14098D01*
X8713Y14049D01*
X8701Y14000D01*
X8685Y13953D01*
X8666Y13907D01*
X8643Y13863D01*
X8617Y13821D01*
X8588Y13781D01*
X8555Y13743D01*
X8519Y13709D01*
X8481Y13677D01*
X8441Y13648D01*
X8398Y13623D01*
X8353Y13601D01*
X8307Y13582D01*
X8260Y13568D01*
X8211Y13557D01*
X8162Y13550D01*
X8112Y13547D01*
X8063Y13548D01*
X8013Y13553D01*
X7964Y13562D01*
X7916Y13575D01*
X7869Y13591D01*
X7824Y13611D01*
X7780Y13635D01*
X7739Y13662D01*
X7699Y13692D01*
X7662Y13726D01*
X7628Y13762D01*
X7597Y13801D01*
X7569Y13842D01*
X7545Y13885D01*
X7524Y13930D01*
X7506Y13977D01*
X7493Y14024D01*
X7483Y14073D01*
X7477Y14122D01*
X7475Y14172D01*
D26*
X8100Y14172D03*
X1350Y14172D03*
D27*
X3741Y14094D03*
X4725Y14094D03*
X5709Y14094D03*
X5709Y19803D03*
X3741Y19803D03*
D28*
X2277Y17047D03*
X7173Y17047D03*
D29*
X6725Y12922D03*
D30*
X5725Y12922D03*
X4725Y12922D03*
X3725Y12922D03*
X2725Y12922D03*
D31*
X875Y16897D03*
X8625Y16897D03*
D32*
X10101Y12922D02*
X10099Y12856D01*
X10101Y12790D01*
X10107Y12724D01*
X10116Y12658D01*
X10129Y12593D01*
X10146Y12528D01*
X10166Y12465D01*
X10190Y12403D01*
X10217Y12343D01*
X10248Y12284D01*
X10282Y12226D01*
X10319Y12171D01*
X10359Y12118D01*
X10402Y12068D01*
X10447Y12019D01*
X10496Y11974D01*
X10546Y11931D01*
X10599Y11891D01*
X10654Y11854D01*
X10712Y11820D01*
X10771Y11789D01*
X10831Y11762D01*
X10893Y11738D01*
X10956Y11718D01*
X11021Y11701D01*
X11086Y11688D01*
X11152Y11679D01*
X11218Y11673D01*
X11284Y11671D01*
X11350Y11673D01*
X11350Y11672D02*
X18100Y11672D01*
X18168Y11674D01*
X18235Y11679D01*
X18302Y11688D01*
X18369Y11701D01*
X18434Y11718D01*
X18499Y11737D01*
X18563Y11761D01*
X18625Y11788D01*
X18686Y11818D01*
X18744Y11851D01*
X18801Y11887D01*
X18856Y11927D01*
X18909Y11969D01*
X18960Y12015D01*
X19007Y12062D01*
X19053Y12113D01*
X19095Y12166D01*
X19135Y12221D01*
X19171Y12278D01*
X19204Y12336D01*
X19234Y12397D01*
X19261Y12459D01*
X19285Y12523D01*
X19304Y12588D01*
X19321Y12653D01*
X19334Y12720D01*
X19343Y12787D01*
X19348Y12854D01*
X19350Y12922D01*
X19350Y19672D01*
X19348Y19740D01*
X19343Y19807D01*
X19334Y19874D01*
X19321Y19941D01*
X19304Y20006D01*
X19285Y20071D01*
X19261Y20135D01*
X19234Y20197D01*
X19204Y20258D01*
X19171Y20316D01*
X19135Y20373D01*
X19095Y20428D01*
X19053Y20481D01*
X19007Y20532D01*
X18960Y20579D01*
X18909Y20625D01*
X18856Y20667D01*
X18801Y20707D01*
X18744Y20743D01*
X18686Y20776D01*
X18625Y20806D01*
X18563Y20833D01*
X18499Y20857D01*
X18434Y20876D01*
X18369Y20893D01*
X18302Y20906D01*
X18235Y20915D01*
X18168Y20920D01*
X18100Y20922D01*
X11350Y20922D01*
X10725Y19672D02*
X10727Y19722D01*
X10733Y19771D01*
X10743Y19820D01*
X10756Y19867D01*
X10774Y19914D01*
X10795Y19959D01*
X10819Y20002D01*
X10847Y20043D01*
X10878Y20082D01*
X10912Y20118D01*
X10949Y20152D01*
X10989Y20182D01*
X11030Y20209D01*
X11074Y20233D01*
X11119Y20253D01*
X11166Y20269D01*
X11214Y20282D01*
X11263Y20291D01*
X11313Y20296D01*
X11362Y20297D01*
X11412Y20294D01*
X11461Y20287D01*
X11510Y20276D01*
X11557Y20262D01*
X11603Y20243D01*
X11648Y20221D01*
X11691Y20196D01*
X11731Y20167D01*
X11769Y20135D01*
X11805Y20101D01*
X11838Y20063D01*
X11867Y20023D01*
X11893Y19981D01*
X11916Y19937D01*
X11935Y19891D01*
X11951Y19844D01*
X11963Y19795D01*
X11971Y19746D01*
X11975Y19697D01*
X11975Y19647D01*
X11971Y19598D01*
X11963Y19549D01*
X11951Y19500D01*
X11935Y19453D01*
X11916Y19407D01*
X11893Y19363D01*
X11867Y19321D01*
X11838Y19281D01*
X11805Y19243D01*
X11769Y19209D01*
X11731Y19177D01*
X11691Y19148D01*
X11648Y19123D01*
X11603Y19101D01*
X11557Y19082D01*
X11510Y19068D01*
X11461Y19057D01*
X11412Y19050D01*
X11362Y19047D01*
X11313Y19048D01*
X11263Y19053D01*
X11214Y19062D01*
X11166Y19075D01*
X11119Y19091D01*
X11074Y19111D01*
X11030Y19135D01*
X10989Y19162D01*
X10949Y19192D01*
X10912Y19226D01*
X10878Y19262D01*
X10847Y19301D01*
X10819Y19342D01*
X10795Y19385D01*
X10774Y19430D01*
X10756Y19477D01*
X10743Y19524D01*
X10733Y19573D01*
X10727Y19622D01*
X10725Y19672D01*
X10100Y19672D02*
X10100Y12922D01*
X10725Y12922D02*
X10727Y12972D01*
X10733Y13021D01*
X10743Y13070D01*
X10756Y13117D01*
X10774Y13164D01*
X10795Y13209D01*
X10819Y13252D01*
X10847Y13293D01*
X10878Y13332D01*
X10912Y13368D01*
X10949Y13402D01*
X10989Y13432D01*
X11030Y13459D01*
X11074Y13483D01*
X11119Y13503D01*
X11166Y13519D01*
X11214Y13532D01*
X11263Y13541D01*
X11313Y13546D01*
X11362Y13547D01*
X11412Y13544D01*
X11461Y13537D01*
X11510Y13526D01*
X11557Y13512D01*
X11603Y13493D01*
X11648Y13471D01*
X11691Y13446D01*
X11731Y13417D01*
X11769Y13385D01*
X11805Y13351D01*
X11838Y13313D01*
X11867Y13273D01*
X11893Y13231D01*
X11916Y13187D01*
X11935Y13141D01*
X11951Y13094D01*
X11963Y13045D01*
X11971Y12996D01*
X11975Y12947D01*
X11975Y12897D01*
X11971Y12848D01*
X11963Y12799D01*
X11951Y12750D01*
X11935Y12703D01*
X11916Y12657D01*
X11893Y12613D01*
X11867Y12571D01*
X11838Y12531D01*
X11805Y12493D01*
X11769Y12459D01*
X11731Y12427D01*
X11691Y12398D01*
X11648Y12373D01*
X11603Y12351D01*
X11557Y12332D01*
X11510Y12318D01*
X11461Y12307D01*
X11412Y12300D01*
X11362Y12297D01*
X11313Y12298D01*
X11263Y12303D01*
X11214Y12312D01*
X11166Y12325D01*
X11119Y12341D01*
X11074Y12361D01*
X11030Y12385D01*
X10989Y12412D01*
X10949Y12442D01*
X10912Y12476D01*
X10878Y12512D01*
X10847Y12551D01*
X10819Y12592D01*
X10795Y12635D01*
X10774Y12680D01*
X10756Y12727D01*
X10743Y12774D01*
X10733Y12823D01*
X10727Y12872D01*
X10725Y12922D01*
X10100Y19672D02*
X10102Y19740D01*
X10107Y19807D01*
X10116Y19874D01*
X10129Y19941D01*
X10146Y20006D01*
X10165Y20071D01*
X10189Y20135D01*
X10216Y20197D01*
X10246Y20258D01*
X10279Y20316D01*
X10315Y20373D01*
X10355Y20428D01*
X10397Y20481D01*
X10443Y20532D01*
X10490Y20579D01*
X10541Y20625D01*
X10594Y20667D01*
X10649Y20707D01*
X10706Y20743D01*
X10764Y20776D01*
X10825Y20806D01*
X10887Y20833D01*
X10951Y20857D01*
X11016Y20876D01*
X11081Y20893D01*
X11148Y20906D01*
X11215Y20915D01*
X11282Y20920D01*
X11350Y20922D01*
X17475Y19672D02*
X17477Y19722D01*
X17483Y19771D01*
X17493Y19820D01*
X17506Y19867D01*
X17524Y19914D01*
X17545Y19959D01*
X17569Y20002D01*
X17597Y20043D01*
X17628Y20082D01*
X17662Y20118D01*
X17699Y20152D01*
X17739Y20182D01*
X17780Y20209D01*
X17824Y20233D01*
X17869Y20253D01*
X17916Y20269D01*
X17964Y20282D01*
X18013Y20291D01*
X18063Y20296D01*
X18112Y20297D01*
X18162Y20294D01*
X18211Y20287D01*
X18260Y20276D01*
X18307Y20262D01*
X18353Y20243D01*
X18398Y20221D01*
X18441Y20196D01*
X18481Y20167D01*
X18519Y20135D01*
X18555Y20101D01*
X18588Y20063D01*
X18617Y20023D01*
X18643Y19981D01*
X18666Y19937D01*
X18685Y19891D01*
X18701Y19844D01*
X18713Y19795D01*
X18721Y19746D01*
X18725Y19697D01*
X18725Y19647D01*
X18721Y19598D01*
X18713Y19549D01*
X18701Y19500D01*
X18685Y19453D01*
X18666Y19407D01*
X18643Y19363D01*
X18617Y19321D01*
X18588Y19281D01*
X18555Y19243D01*
X18519Y19209D01*
X18481Y19177D01*
X18441Y19148D01*
X18398Y19123D01*
X18353Y19101D01*
X18307Y19082D01*
X18260Y19068D01*
X18211Y19057D01*
X18162Y19050D01*
X18112Y19047D01*
X18063Y19048D01*
X18013Y19053D01*
X17964Y19062D01*
X17916Y19075D01*
X17869Y19091D01*
X17824Y19111D01*
X17780Y19135D01*
X17739Y19162D01*
X17699Y19192D01*
X17662Y19226D01*
X17628Y19262D01*
X17597Y19301D01*
X17569Y19342D01*
X17545Y19385D01*
X17524Y19430D01*
X17506Y19477D01*
X17493Y19524D01*
X17483Y19573D01*
X17477Y19622D01*
X17475Y19672D01*
X17475Y12922D02*
X17477Y12972D01*
X17483Y13021D01*
X17493Y13070D01*
X17506Y13117D01*
X17524Y13164D01*
X17545Y13209D01*
X17569Y13252D01*
X17597Y13293D01*
X17628Y13332D01*
X17662Y13368D01*
X17699Y13402D01*
X17739Y13432D01*
X17780Y13459D01*
X17824Y13483D01*
X17869Y13503D01*
X17916Y13519D01*
X17964Y13532D01*
X18013Y13541D01*
X18063Y13546D01*
X18112Y13547D01*
X18162Y13544D01*
X18211Y13537D01*
X18260Y13526D01*
X18307Y13512D01*
X18353Y13493D01*
X18398Y13471D01*
X18441Y13446D01*
X18481Y13417D01*
X18519Y13385D01*
X18555Y13351D01*
X18588Y13313D01*
X18617Y13273D01*
X18643Y13231D01*
X18666Y13187D01*
X18685Y13141D01*
X18701Y13094D01*
X18713Y13045D01*
X18721Y12996D01*
X18725Y12947D01*
X18725Y12897D01*
X18721Y12848D01*
X18713Y12799D01*
X18701Y12750D01*
X18685Y12703D01*
X18666Y12657D01*
X18643Y12613D01*
X18617Y12571D01*
X18588Y12531D01*
X18555Y12493D01*
X18519Y12459D01*
X18481Y12427D01*
X18441Y12398D01*
X18398Y12373D01*
X18353Y12351D01*
X18307Y12332D01*
X18260Y12318D01*
X18211Y12307D01*
X18162Y12300D01*
X18112Y12297D01*
X18063Y12298D01*
X18013Y12303D01*
X17964Y12312D01*
X17916Y12325D01*
X17869Y12341D01*
X17824Y12361D01*
X17780Y12385D01*
X17739Y12412D01*
X17699Y12442D01*
X17662Y12476D01*
X17628Y12512D01*
X17597Y12551D01*
X17569Y12592D01*
X17545Y12635D01*
X17524Y12680D01*
X17506Y12727D01*
X17493Y12774D01*
X17483Y12823D01*
X17477Y12872D01*
X17475Y12922D01*
D33*
X18100Y12922D03*
X18100Y19672D03*
X11350Y19672D03*
X11350Y12922D03*
D34*
X11350Y14797D03*
X18100Y14797D03*
D35*
X18100Y15797D03*
X18100Y16797D03*
X18100Y17797D03*
X11350Y17797D03*
X11350Y16797D03*
X11350Y15797D03*
D36*
X13850Y16230D03*
X14350Y16230D03*
X14850Y16230D03*
X15350Y16230D03*
X15350Y18356D03*
X14850Y18356D03*
X14350Y18356D03*
X13850Y18356D03*
D37*
X13167Y19423D03*
X13167Y20171D03*
X14033Y19797D03*
X15417Y19423D03*
X15417Y20171D03*
X16283Y19797D03*
X16158Y15171D03*
X16158Y14423D03*
X15292Y14797D03*
X14033Y14423D03*
X14033Y15171D03*
X13167Y14797D03*
D38*
X12850Y13740D03*
X12850Y12854D03*
D39*
X12600Y18547D03*
X16975Y18547D03*
M02*
