G75*
G70*
%OFA0B0*%
%FSLAX24Y24*%
%IPPOS*%
%LPD*%
%AMOC8*
5,1,8,0,0,1.08239X$1,22.5*
%
%ADD10C,0.0000*%
%ADD11C,0.0000*%
%ADD12C,0.0886*%
%ADD13OC8,0.0740*%
%ADD14R,0.0472X0.0472*%
%ADD15R,0.0630X0.0512*%
%ADD16R,0.0512X0.0591*%
%ADD17R,0.0630X0.0709*%
%ADD18C,0.0768*%
%ADD19R,0.0472X0.0118*%
%ADD20C,0.0480*%
%ADD21R,0.0740X0.0740*%
%ADD22C,0.0740*%
%ADD23R,0.0591X0.0512*%
%ADD24C,0.0591*%
%ADD25OC8,0.1000*%
%ADD26C,0.0100*%
%ADD27R,0.0356X0.0356*%
%ADD28C,0.0120*%
%ADD29C,0.0160*%
%ADD30C,0.0000*%
%ADD31C,0.0768*%
%ADD32R,0.1266X0.1266*%
%ADD33R,0.0472X0.0472*%
%ADD34C,0.0472*%
%ADD35R,0.0600X0.0600*%
%ADD36C,0.0160*%
%ADD37C,0.0000*%
%ADD38R,0.0740X0.0740*%
%ADD39C,0.0740*%
%ADD40R,0.0236X0.0610*%
%ADD41R,0.0591X0.0512*%
%ADD42C,0.0120*%
%ADD43R,0.0356X0.0356*%
%ADD44C,0.0160*%
D10*
X001489Y001583D02*
X001492Y001583D01*
X018027Y001583D01*
X018030Y001583D01*
X018027Y001583D02*
X018099Y001585D01*
X018171Y001591D01*
X018243Y001600D01*
X018314Y001613D01*
X018384Y001630D01*
X018453Y001650D01*
X018521Y001675D01*
X018587Y001702D01*
X018653Y001733D01*
X018716Y001768D01*
X018778Y001805D01*
X018837Y001846D01*
X018894Y001890D01*
X018949Y001937D01*
X019001Y001987D01*
X019051Y002039D01*
X019098Y002094D01*
X019142Y002151D01*
X019183Y002210D01*
X019220Y002272D01*
X019255Y002335D01*
X019286Y002401D01*
X019313Y002467D01*
X019338Y002535D01*
X019358Y002604D01*
X019375Y002674D01*
X019388Y002745D01*
X019397Y002817D01*
X019403Y002889D01*
X019405Y002961D01*
X019405Y009851D01*
X019403Y009923D01*
X019397Y009995D01*
X019388Y010067D01*
X019375Y010138D01*
X019358Y010208D01*
X019338Y010277D01*
X019313Y010345D01*
X019286Y010411D01*
X019255Y010477D01*
X019220Y010540D01*
X019183Y010602D01*
X019142Y010661D01*
X019098Y010718D01*
X019051Y010773D01*
X019001Y010825D01*
X018949Y010875D01*
X018894Y010922D01*
X018837Y010966D01*
X018778Y011007D01*
X018716Y011044D01*
X018653Y011079D01*
X018587Y011110D01*
X018521Y011137D01*
X018453Y011162D01*
X018384Y011182D01*
X018314Y011199D01*
X018243Y011212D01*
X018171Y011221D01*
X018099Y011227D01*
X018027Y011229D01*
X007988Y011229D01*
X007988Y011672D01*
X008100Y011672D01*
X007397Y011672D02*
X007397Y011229D01*
X001492Y011229D01*
X001489Y011229D01*
X001350Y011672D02*
X007397Y011672D01*
X008100Y011672D02*
X008166Y011670D01*
X008232Y011672D01*
X008298Y011678D01*
X008364Y011687D01*
X008429Y011700D01*
X008494Y011717D01*
X008557Y011737D01*
X008619Y011761D01*
X008679Y011788D01*
X008738Y011819D01*
X008796Y011853D01*
X008851Y011890D01*
X008904Y011930D01*
X008954Y011973D01*
X009003Y012018D01*
X009048Y012067D01*
X009091Y012117D01*
X009131Y012170D01*
X009168Y012225D01*
X009202Y012283D01*
X009233Y012342D01*
X009260Y012402D01*
X009284Y012464D01*
X009304Y012527D01*
X009321Y012592D01*
X009334Y012657D01*
X009343Y012723D01*
X009349Y012789D01*
X009351Y012855D01*
X009349Y012921D01*
X009350Y012922D02*
X010100Y012922D01*
X010100Y013672D02*
X010100Y019672D01*
X009350Y019672D02*
X009350Y013672D01*
X010100Y013672D01*
X010100Y012922D02*
X010102Y012854D01*
X010107Y012787D01*
X010116Y012720D01*
X010129Y012653D01*
X010146Y012588D01*
X010165Y012523D01*
X010189Y012459D01*
X010216Y012397D01*
X010246Y012336D01*
X010279Y012278D01*
X010315Y012221D01*
X010355Y012166D01*
X010397Y012113D01*
X010443Y012062D01*
X010490Y012015D01*
X010541Y011969D01*
X010594Y011927D01*
X010649Y011887D01*
X010706Y011851D01*
X010764Y011818D01*
X010825Y011788D01*
X010887Y011761D01*
X010951Y011737D01*
X011016Y011718D01*
X011081Y011701D01*
X011148Y011688D01*
X011215Y011679D01*
X011282Y011674D01*
X011350Y011672D01*
X018100Y011672D01*
X018421Y011229D02*
X018424Y011229D01*
X018100Y011672D02*
X018166Y011670D01*
X018232Y011672D01*
X018298Y011678D01*
X018364Y011687D01*
X018429Y011700D01*
X018494Y011717D01*
X018557Y011737D01*
X018619Y011761D01*
X018679Y011788D01*
X018738Y011819D01*
X018796Y011853D01*
X018851Y011890D01*
X018904Y011930D01*
X018954Y011973D01*
X019003Y012018D01*
X019048Y012067D01*
X019091Y012117D01*
X019131Y012170D01*
X019168Y012225D01*
X019202Y012283D01*
X019233Y012342D01*
X019260Y012402D01*
X019284Y012464D01*
X019304Y012527D01*
X019321Y012592D01*
X019334Y012657D01*
X019343Y012723D01*
X019349Y012789D01*
X019351Y012855D01*
X019349Y012921D01*
X019350Y012922D02*
X019350Y019672D01*
X019348Y019740D01*
X019343Y019807D01*
X019334Y019874D01*
X019321Y019941D01*
X019304Y020006D01*
X019285Y020071D01*
X019261Y020135D01*
X019234Y020197D01*
X019204Y020258D01*
X019171Y020316D01*
X019135Y020373D01*
X019095Y020428D01*
X019053Y020481D01*
X019007Y020532D01*
X018960Y020579D01*
X018909Y020625D01*
X018856Y020667D01*
X018801Y020707D01*
X018744Y020743D01*
X018686Y020776D01*
X018625Y020806D01*
X018563Y020833D01*
X018499Y020857D01*
X018434Y020876D01*
X018369Y020893D01*
X018302Y020906D01*
X018235Y020915D01*
X018168Y020920D01*
X018100Y020922D01*
X018137Y020922D02*
X011350Y020922D01*
X011282Y020920D01*
X011215Y020915D01*
X011148Y020906D01*
X011081Y020893D01*
X011016Y020876D01*
X010951Y020857D01*
X010887Y020833D01*
X010825Y020806D01*
X010764Y020776D01*
X010706Y020743D01*
X010649Y020707D01*
X010594Y020667D01*
X010541Y020625D01*
X010490Y020579D01*
X010443Y020532D01*
X010397Y020481D01*
X010355Y020428D01*
X010315Y020373D01*
X010279Y020316D01*
X010246Y020258D01*
X010216Y020197D01*
X010189Y020135D01*
X010165Y020071D01*
X010146Y020006D01*
X010129Y019941D01*
X010116Y019874D01*
X010107Y019807D01*
X010102Y019740D01*
X010100Y019672D01*
X009350Y019672D02*
X009348Y019740D01*
X009343Y019807D01*
X009334Y019874D01*
X009321Y019941D01*
X009304Y020006D01*
X009285Y020071D01*
X009261Y020135D01*
X009234Y020197D01*
X009204Y020258D01*
X009171Y020316D01*
X009135Y020373D01*
X009095Y020428D01*
X009053Y020481D01*
X009007Y020532D01*
X008960Y020579D01*
X008909Y020625D01*
X008856Y020667D01*
X008801Y020707D01*
X008744Y020743D01*
X008686Y020776D01*
X008625Y020806D01*
X008563Y020833D01*
X008499Y020857D01*
X008434Y020876D01*
X008369Y020893D01*
X008302Y020906D01*
X008235Y020915D01*
X008168Y020920D01*
X008100Y020922D01*
X001350Y020922D01*
X001282Y020920D01*
X001215Y020915D01*
X001148Y020906D01*
X001081Y020893D01*
X001016Y020876D01*
X000951Y020857D01*
X000887Y020833D01*
X000825Y020806D01*
X000764Y020776D01*
X000706Y020743D01*
X000649Y020707D01*
X000594Y020667D01*
X000541Y020625D01*
X000490Y020579D01*
X000443Y020532D01*
X000397Y020481D01*
X000355Y020428D01*
X000315Y020373D01*
X000279Y020316D01*
X000246Y020258D01*
X000216Y020197D01*
X000189Y020135D01*
X000165Y020071D01*
X000146Y020006D01*
X000129Y019941D01*
X000116Y019874D01*
X000107Y019807D01*
X000102Y019740D01*
X000100Y019672D01*
X000100Y012922D01*
X000102Y012854D01*
X000107Y012787D01*
X000116Y012720D01*
X000129Y012653D01*
X000146Y012588D01*
X000165Y012523D01*
X000189Y012459D01*
X000216Y012397D01*
X000246Y012336D01*
X000279Y012278D01*
X000315Y012221D01*
X000355Y012166D01*
X000397Y012113D01*
X000443Y012062D01*
X000490Y012015D01*
X000541Y011969D01*
X000594Y011927D01*
X000649Y011887D01*
X000706Y011851D01*
X000764Y011818D01*
X000825Y011788D01*
X000887Y011761D01*
X000951Y011737D01*
X001016Y011718D01*
X001081Y011701D01*
X001148Y011688D01*
X001215Y011679D01*
X001282Y011674D01*
X001350Y011672D01*
X001492Y011229D02*
X001420Y011227D01*
X001348Y011221D01*
X001276Y011212D01*
X001205Y011199D01*
X001135Y011182D01*
X001066Y011162D01*
X000998Y011137D01*
X000932Y011110D01*
X000866Y011079D01*
X000803Y011044D01*
X000741Y011007D01*
X000682Y010966D01*
X000625Y010922D01*
X000570Y010875D01*
X000518Y010825D01*
X000468Y010773D01*
X000421Y010718D01*
X000377Y010661D01*
X000336Y010602D01*
X000299Y010540D01*
X000264Y010477D01*
X000233Y010411D01*
X000206Y010345D01*
X000181Y010277D01*
X000161Y010208D01*
X000144Y010138D01*
X000131Y010067D01*
X000122Y009995D01*
X000116Y009923D01*
X000114Y009851D01*
X000114Y009854D01*
X000114Y009851D02*
X000114Y003001D01*
X000114Y002958D01*
X000113Y003001D02*
X000114Y002928D01*
X000119Y002854D01*
X000127Y002782D01*
X000140Y002710D01*
X000156Y002638D01*
X000175Y002568D01*
X000199Y002498D01*
X000226Y002430D01*
X000257Y002364D01*
X000291Y002299D01*
X000328Y002236D01*
X000369Y002175D01*
X000412Y002117D01*
X000459Y002060D01*
X000509Y002006D01*
X000561Y001955D01*
X000616Y001907D01*
X000673Y001862D01*
X000733Y001819D01*
X000795Y001780D01*
X000859Y001744D01*
X000924Y001712D01*
X000992Y001683D01*
X001060Y001658D01*
X001130Y001636D01*
X001201Y001618D01*
X001273Y001603D01*
X001345Y001593D01*
X001418Y001586D01*
X001491Y001583D01*
X018027Y021072D02*
X018030Y021072D01*
D11*
X1489Y1583D02*
X1492Y1583D01*
X18027Y1583D01*
X18030Y1583D01*
X17380Y2958D02*
X17382Y3008D01*
X17388Y3058D01*
X17398Y3108D01*
X17411Y3156D01*
X17428Y3204D01*
X17449Y3250D01*
X17473Y3294D01*
X17501Y3336D01*
X17532Y3376D01*
X17566Y3413D01*
X17603Y3448D01*
X17642Y3479D01*
X17683Y3508D01*
X17727Y3533D01*
X17773Y3555D01*
X17820Y3573D01*
X17868Y3587D01*
X17917Y3598D01*
X17967Y3605D01*
X18017Y3608D01*
X18068Y3607D01*
X18118Y3602D01*
X18168Y3593D01*
X18216Y3581D01*
X18264Y3564D01*
X18310Y3544D01*
X18355Y3521D01*
X18398Y3494D01*
X18438Y3464D01*
X18476Y3431D01*
X18511Y3395D01*
X18544Y3356D01*
X18573Y3315D01*
X18599Y3272D01*
X18622Y3227D01*
X18641Y3180D01*
X18656Y3132D01*
X18668Y3083D01*
X18676Y3033D01*
X18680Y2983D01*
X18680Y2933D01*
X18676Y2883D01*
X18668Y2833D01*
X18656Y2784D01*
X18641Y2736D01*
X18622Y2689D01*
X18599Y2644D01*
X18573Y2601D01*
X18544Y2560D01*
X18511Y2521D01*
X18476Y2485D01*
X18438Y2452D01*
X18398Y2422D01*
X18355Y2395D01*
X18310Y2372D01*
X18264Y2352D01*
X18216Y2335D01*
X18168Y2323D01*
X18118Y2314D01*
X18068Y2309D01*
X18017Y2308D01*
X17967Y2311D01*
X17917Y2318D01*
X17868Y2329D01*
X17820Y2343D01*
X17773Y2361D01*
X17727Y2383D01*
X17683Y2408D01*
X17642Y2437D01*
X17603Y2468D01*
X17566Y2503D01*
X17532Y2540D01*
X17501Y2580D01*
X17473Y2622D01*
X17449Y2666D01*
X17428Y2712D01*
X17411Y2760D01*
X17398Y2808D01*
X17388Y2858D01*
X17382Y2908D01*
X17380Y2958D01*
X18027Y1583D02*
X18099Y1585D01*
X18171Y1591D01*
X18243Y1600D01*
X18314Y1613D01*
X18384Y1630D01*
X18453Y1650D01*
X18521Y1675D01*
X18587Y1702D01*
X18653Y1733D01*
X18716Y1768D01*
X18778Y1805D01*
X18837Y1846D01*
X18894Y1890D01*
X18949Y1937D01*
X19001Y1987D01*
X19051Y2039D01*
X19098Y2094D01*
X19142Y2151D01*
X19183Y2210D01*
X19220Y2272D01*
X19255Y2335D01*
X19286Y2401D01*
X19313Y2467D01*
X19338Y2535D01*
X19358Y2604D01*
X19375Y2674D01*
X19388Y2745D01*
X19397Y2817D01*
X19403Y2889D01*
X19405Y2961D01*
X19405Y9851D01*
X17377Y9851D02*
X17379Y9901D01*
X17385Y9951D01*
X17395Y10001D01*
X17408Y10049D01*
X17425Y10097D01*
X17446Y10143D01*
X17470Y10187D01*
X17498Y10229D01*
X17529Y10269D01*
X17563Y10306D01*
X17600Y10341D01*
X17639Y10372D01*
X17680Y10401D01*
X17724Y10426D01*
X17770Y10448D01*
X17817Y10466D01*
X17865Y10480D01*
X17914Y10491D01*
X17964Y10498D01*
X18014Y10501D01*
X18065Y10500D01*
X18115Y10495D01*
X18165Y10486D01*
X18213Y10474D01*
X18261Y10457D01*
X18307Y10437D01*
X18352Y10414D01*
X18395Y10387D01*
X18435Y10357D01*
X18473Y10324D01*
X18508Y10288D01*
X18541Y10249D01*
X18570Y10208D01*
X18596Y10165D01*
X18619Y10120D01*
X18638Y10073D01*
X18653Y10025D01*
X18665Y9976D01*
X18673Y9926D01*
X18677Y9876D01*
X18677Y9826D01*
X18673Y9776D01*
X18665Y9726D01*
X18653Y9677D01*
X18638Y9629D01*
X18619Y9582D01*
X18596Y9537D01*
X18570Y9494D01*
X18541Y9453D01*
X18508Y9414D01*
X18473Y9378D01*
X18435Y9345D01*
X18395Y9315D01*
X18352Y9288D01*
X18307Y9265D01*
X18261Y9245D01*
X18213Y9228D01*
X18165Y9216D01*
X18115Y9207D01*
X18065Y9202D01*
X18014Y9201D01*
X17964Y9204D01*
X17914Y9211D01*
X17865Y9222D01*
X17817Y9236D01*
X17770Y9254D01*
X17724Y9276D01*
X17680Y9301D01*
X17639Y9330D01*
X17600Y9361D01*
X17563Y9396D01*
X17529Y9433D01*
X17498Y9473D01*
X17470Y9515D01*
X17446Y9559D01*
X17425Y9605D01*
X17408Y9653D01*
X17395Y9701D01*
X17385Y9751D01*
X17379Y9801D01*
X17377Y9851D01*
X18027Y11229D02*
X18099Y11227D01*
X18171Y11221D01*
X18243Y11212D01*
X18314Y11199D01*
X18384Y11182D01*
X18453Y11162D01*
X18521Y11137D01*
X18587Y11110D01*
X18653Y11079D01*
X18716Y11044D01*
X18778Y11007D01*
X18837Y10966D01*
X18894Y10922D01*
X18949Y10875D01*
X19001Y10825D01*
X19051Y10773D01*
X19098Y10718D01*
X19142Y10661D01*
X19183Y10602D01*
X19220Y10540D01*
X19255Y10477D01*
X19286Y10411D01*
X19313Y10345D01*
X19338Y10277D01*
X19358Y10208D01*
X19375Y10138D01*
X19388Y10067D01*
X19397Y9995D01*
X19403Y9923D01*
X19405Y9851D01*
X18027Y11229D02*
X1492Y11229D01*
X839Y9854D02*
X841Y9904D01*
X847Y9954D01*
X857Y10004D01*
X870Y10052D01*
X887Y10100D01*
X908Y10146D01*
X932Y10190D01*
X960Y10232D01*
X991Y10272D01*
X1025Y10309D01*
X1062Y10344D01*
X1101Y10375D01*
X1142Y10404D01*
X1186Y10429D01*
X1232Y10451D01*
X1279Y10469D01*
X1327Y10483D01*
X1376Y10494D01*
X1426Y10501D01*
X1476Y10504D01*
X1527Y10503D01*
X1577Y10498D01*
X1627Y10489D01*
X1675Y10477D01*
X1723Y10460D01*
X1769Y10440D01*
X1814Y10417D01*
X1857Y10390D01*
X1897Y10360D01*
X1935Y10327D01*
X1970Y10291D01*
X2003Y10252D01*
X2032Y10211D01*
X2058Y10168D01*
X2081Y10123D01*
X2100Y10076D01*
X2115Y10028D01*
X2127Y9979D01*
X2135Y9929D01*
X2139Y9879D01*
X2139Y9829D01*
X2135Y9779D01*
X2127Y9729D01*
X2115Y9680D01*
X2100Y9632D01*
X2081Y9585D01*
X2058Y9540D01*
X2032Y9497D01*
X2003Y9456D01*
X1970Y9417D01*
X1935Y9381D01*
X1897Y9348D01*
X1857Y9318D01*
X1814Y9291D01*
X1769Y9268D01*
X1723Y9248D01*
X1675Y9231D01*
X1627Y9219D01*
X1577Y9210D01*
X1527Y9205D01*
X1476Y9204D01*
X1426Y9207D01*
X1376Y9214D01*
X1327Y9225D01*
X1279Y9239D01*
X1232Y9257D01*
X1186Y9279D01*
X1142Y9304D01*
X1101Y9333D01*
X1062Y9364D01*
X1025Y9399D01*
X991Y9436D01*
X960Y9476D01*
X932Y9518D01*
X908Y9562D01*
X887Y9608D01*
X870Y9656D01*
X857Y9704D01*
X847Y9754D01*
X841Y9804D01*
X839Y9854D01*
X114Y9851D02*
X116Y9923D01*
X122Y9995D01*
X131Y10067D01*
X144Y10138D01*
X161Y10208D01*
X181Y10277D01*
X206Y10345D01*
X233Y10411D01*
X264Y10477D01*
X299Y10540D01*
X336Y10602D01*
X377Y10661D01*
X421Y10718D01*
X468Y10773D01*
X518Y10825D01*
X570Y10875D01*
X625Y10922D01*
X682Y10966D01*
X741Y11007D01*
X803Y11044D01*
X866Y11079D01*
X932Y11110D01*
X998Y11137D01*
X1066Y11162D01*
X1135Y11182D01*
X1205Y11199D01*
X1276Y11212D01*
X1348Y11221D01*
X1420Y11227D01*
X1492Y11229D01*
X114Y9854D02*
X114Y9851D01*
X114Y3001D01*
X114Y2958D01*
X839Y2958D02*
X841Y3008D01*
X847Y3058D01*
X857Y3108D01*
X870Y3156D01*
X887Y3204D01*
X908Y3250D01*
X932Y3294D01*
X960Y3336D01*
X991Y3376D01*
X1025Y3413D01*
X1062Y3448D01*
X1101Y3479D01*
X1142Y3508D01*
X1186Y3533D01*
X1232Y3555D01*
X1279Y3573D01*
X1327Y3587D01*
X1376Y3598D01*
X1426Y3605D01*
X1476Y3608D01*
X1527Y3607D01*
X1577Y3602D01*
X1627Y3593D01*
X1675Y3581D01*
X1723Y3564D01*
X1769Y3544D01*
X1814Y3521D01*
X1857Y3494D01*
X1897Y3464D01*
X1935Y3431D01*
X1970Y3395D01*
X2003Y3356D01*
X2032Y3315D01*
X2058Y3272D01*
X2081Y3227D01*
X2100Y3180D01*
X2115Y3132D01*
X2127Y3083D01*
X2135Y3033D01*
X2139Y2983D01*
X2139Y2933D01*
X2135Y2883D01*
X2127Y2833D01*
X2115Y2784D01*
X2100Y2736D01*
X2081Y2689D01*
X2058Y2644D01*
X2032Y2601D01*
X2003Y2560D01*
X1970Y2521D01*
X1935Y2485D01*
X1897Y2452D01*
X1857Y2422D01*
X1814Y2395D01*
X1769Y2372D01*
X1723Y2352D01*
X1675Y2335D01*
X1627Y2323D01*
X1577Y2314D01*
X1527Y2309D01*
X1476Y2308D01*
X1426Y2311D01*
X1376Y2318D01*
X1327Y2329D01*
X1279Y2343D01*
X1232Y2361D01*
X1186Y2383D01*
X1142Y2408D01*
X1101Y2437D01*
X1062Y2468D01*
X1025Y2503D01*
X991Y2540D01*
X960Y2580D01*
X932Y2622D01*
X908Y2666D01*
X887Y2712D01*
X870Y2760D01*
X857Y2808D01*
X847Y2858D01*
X841Y2908D01*
X839Y2958D01*
X113Y3001D02*
X114Y2928D01*
X119Y2854D01*
X127Y2782D01*
X140Y2710D01*
X156Y2638D01*
X175Y2568D01*
X199Y2498D01*
X226Y2430D01*
X257Y2364D01*
X291Y2299D01*
X328Y2236D01*
X369Y2175D01*
X412Y2117D01*
X459Y2060D01*
X509Y2006D01*
X561Y1955D01*
X616Y1907D01*
X673Y1862D01*
X733Y1819D01*
X795Y1780D01*
X859Y1744D01*
X924Y1712D01*
X992Y1683D01*
X1060Y1658D01*
X1130Y1636D01*
X1201Y1618D01*
X1273Y1603D01*
X1345Y1593D01*
X1418Y1586D01*
X1491Y1583D01*
X1295Y4434D02*
X1297Y4464D01*
X1303Y4494D01*
X1312Y4523D01*
X1325Y4550D01*
X1342Y4575D01*
X1361Y4598D01*
X1384Y4619D01*
X1409Y4636D01*
X1435Y4650D01*
X1464Y4660D01*
X1493Y4667D01*
X1523Y4670D01*
X1554Y4669D01*
X1584Y4664D01*
X1613Y4655D01*
X1640Y4643D01*
X1666Y4628D01*
X1690Y4609D01*
X1711Y4587D01*
X1729Y4563D01*
X1744Y4536D01*
X1755Y4508D01*
X1763Y4479D01*
X1767Y4449D01*
X1767Y4419D01*
X1763Y4389D01*
X1755Y4360D01*
X1744Y4332D01*
X1729Y4305D01*
X1711Y4281D01*
X1690Y4259D01*
X1666Y4240D01*
X1640Y4225D01*
X1613Y4213D01*
X1584Y4204D01*
X1554Y4199D01*
X1523Y4198D01*
X1493Y4201D01*
X1464Y4208D01*
X1435Y4218D01*
X1409Y4232D01*
X1384Y4249D01*
X1361Y4270D01*
X1342Y4293D01*
X1325Y4318D01*
X1312Y4345D01*
X1303Y4374D01*
X1297Y4404D01*
X1295Y4434D01*
X311Y4434D02*
X313Y4464D01*
X319Y4494D01*
X328Y4523D01*
X341Y4550D01*
X358Y4575D01*
X377Y4598D01*
X400Y4619D01*
X425Y4636D01*
X451Y4650D01*
X480Y4660D01*
X509Y4667D01*
X539Y4670D01*
X570Y4669D01*
X600Y4664D01*
X629Y4655D01*
X656Y4643D01*
X682Y4628D01*
X706Y4609D01*
X727Y4587D01*
X745Y4563D01*
X760Y4536D01*
X771Y4508D01*
X779Y4479D01*
X783Y4449D01*
X783Y4419D01*
X779Y4389D01*
X771Y4360D01*
X760Y4332D01*
X745Y4305D01*
X727Y4281D01*
X706Y4259D01*
X682Y4240D01*
X656Y4225D01*
X629Y4213D01*
X600Y4204D01*
X570Y4199D01*
X539Y4198D01*
X509Y4201D01*
X480Y4208D01*
X451Y4218D01*
X425Y4232D01*
X400Y4249D01*
X377Y4270D01*
X358Y4293D01*
X341Y4318D01*
X328Y4345D01*
X319Y4374D01*
X313Y4404D01*
X311Y4434D01*
X3264Y6402D02*
X3266Y6432D01*
X3272Y6462D01*
X3281Y6491D01*
X3294Y6518D01*
X3311Y6543D01*
X3330Y6566D01*
X3353Y6587D01*
X3378Y6604D01*
X3404Y6618D01*
X3433Y6628D01*
X3462Y6635D01*
X3492Y6638D01*
X3523Y6637D01*
X3553Y6632D01*
X3582Y6623D01*
X3609Y6611D01*
X3635Y6596D01*
X3659Y6577D01*
X3680Y6555D01*
X3698Y6531D01*
X3713Y6504D01*
X3724Y6476D01*
X3732Y6447D01*
X3736Y6417D01*
X3736Y6387D01*
X3732Y6357D01*
X3724Y6328D01*
X3713Y6300D01*
X3698Y6273D01*
X3680Y6249D01*
X3659Y6227D01*
X3635Y6208D01*
X3609Y6193D01*
X3582Y6181D01*
X3553Y6172D01*
X3523Y6167D01*
X3492Y6166D01*
X3462Y6169D01*
X3433Y6176D01*
X3404Y6186D01*
X3378Y6200D01*
X3353Y6217D01*
X3330Y6238D01*
X3311Y6261D01*
X3294Y6286D01*
X3281Y6313D01*
X3272Y6342D01*
X3266Y6372D01*
X3264Y6402D01*
X1295Y8371D02*
X1297Y8401D01*
X1303Y8431D01*
X1312Y8460D01*
X1325Y8487D01*
X1342Y8512D01*
X1361Y8535D01*
X1384Y8556D01*
X1409Y8573D01*
X1435Y8587D01*
X1464Y8597D01*
X1493Y8604D01*
X1523Y8607D01*
X1554Y8606D01*
X1584Y8601D01*
X1613Y8592D01*
X1640Y8580D01*
X1666Y8565D01*
X1690Y8546D01*
X1711Y8524D01*
X1729Y8500D01*
X1744Y8473D01*
X1755Y8445D01*
X1763Y8416D01*
X1767Y8386D01*
X1767Y8356D01*
X1763Y8326D01*
X1755Y8297D01*
X1744Y8269D01*
X1729Y8242D01*
X1711Y8218D01*
X1690Y8196D01*
X1666Y8177D01*
X1640Y8162D01*
X1613Y8150D01*
X1584Y8141D01*
X1554Y8136D01*
X1523Y8135D01*
X1493Y8138D01*
X1464Y8145D01*
X1435Y8155D01*
X1409Y8169D01*
X1384Y8186D01*
X1361Y8207D01*
X1342Y8230D01*
X1325Y8255D01*
X1312Y8282D01*
X1303Y8311D01*
X1297Y8341D01*
X1295Y8371D01*
X311Y8371D02*
X313Y8401D01*
X319Y8431D01*
X328Y8460D01*
X341Y8487D01*
X358Y8512D01*
X377Y8535D01*
X400Y8556D01*
X425Y8573D01*
X451Y8587D01*
X480Y8597D01*
X509Y8604D01*
X539Y8607D01*
X570Y8606D01*
X600Y8601D01*
X629Y8592D01*
X656Y8580D01*
X682Y8565D01*
X706Y8546D01*
X727Y8524D01*
X745Y8500D01*
X760Y8473D01*
X771Y8445D01*
X779Y8416D01*
X783Y8386D01*
X783Y8356D01*
X779Y8326D01*
X771Y8297D01*
X760Y8269D01*
X745Y8242D01*
X727Y8218D01*
X706Y8196D01*
X682Y8177D01*
X656Y8162D01*
X629Y8150D01*
X600Y8141D01*
X570Y8136D01*
X539Y8135D01*
X509Y8138D01*
X480Y8145D01*
X451Y8155D01*
X425Y8169D01*
X400Y8186D01*
X377Y8207D01*
X358Y8230D01*
X341Y8255D01*
X328Y8282D01*
X319Y8311D01*
X313Y8341D01*
X311Y8371D01*
D12*
X3500Y8371D03*
X3500Y7386D03*
X1531Y6402D03*
X3500Y5418D03*
X3500Y4434D03*
D13*
X17228Y4899D03*
X18228Y4899D03*
X18228Y5899D03*
X17228Y5899D03*
X17228Y6899D03*
X18228Y6899D03*
X18228Y7899D03*
X17228Y7899D03*
D14*
X4051Y3375D03*
X3165Y3375D03*
X3165Y2548D03*
X4051Y2548D03*
D15*
X5116Y2616D03*
X5116Y3364D03*
X6403Y3370D03*
X6403Y2622D03*
X7791Y2617D03*
X7791Y3365D03*
X10412Y3364D03*
X10412Y2616D03*
X7014Y5400D03*
X7014Y6148D03*
X5014Y6157D03*
X5014Y5409D03*
X5014Y8209D03*
X6014Y8209D03*
X7014Y8209D03*
X7014Y8957D03*
X6014Y8957D03*
X5014Y8957D03*
D16*
X8679Y8983D03*
X9348Y8983D03*
X10779Y8983D03*
X11448Y8983D03*
X11448Y9983D03*
X10779Y9983D03*
D17*
X9515Y9991D03*
X8413Y9991D03*
D18*
X12233Y8449D03*
X5414Y4512D03*
D19*
X7872Y5732D03*
X7872Y5988D03*
X7872Y6243D03*
X7872Y6499D03*
X7872Y6755D03*
X7872Y7011D03*
X7872Y7267D03*
X7872Y7523D03*
X7872Y7779D03*
X7872Y8035D03*
X10155Y8035D03*
X10155Y7779D03*
X10155Y7523D03*
X10155Y7267D03*
X10155Y7011D03*
X10155Y6755D03*
X10155Y6499D03*
X10155Y6243D03*
X10155Y5988D03*
X10155Y5732D03*
D20*
X12592Y9612D03*
X12592Y10612D03*
D21*
X3058Y10062D03*
D22*
X4058Y10062D03*
X5058Y10062D03*
X6058Y10062D03*
X2534Y7373D03*
X2534Y6373D03*
X2534Y5373D03*
X11545Y2759D03*
X12545Y2759D03*
X13545Y2759D03*
X14545Y2759D03*
X15545Y2759D03*
X16545Y2759D03*
D23*
X9096Y2665D03*
X9096Y3335D03*
X6020Y5439D03*
X6020Y6108D03*
D24*
X13828Y5299D02*
X13828Y4708D01*
X15600Y4708D02*
X15600Y5299D01*
X15600Y7267D02*
X15600Y7858D01*
X13828Y7858D02*
X13828Y7267D01*
D25*
X16551Y8965D03*
X16551Y3847D03*
D26*
X1041Y1890D02*
X775Y2049D01*
X559Y2271D01*
X408Y2542D01*
X332Y2842D01*
X324Y2997D01*
X324Y2999D01*
X325Y3085D01*
X324Y3086D01*
X324Y4043D01*
X458Y3987D01*
X636Y3987D01*
X800Y4055D01*
X925Y4181D01*
X993Y4345D01*
X993Y4522D01*
X925Y4686D01*
X800Y4812D01*
X636Y4880D01*
X458Y4880D01*
X324Y4824D01*
X324Y7980D01*
X458Y7924D01*
X636Y7924D01*
X800Y7992D01*
X925Y8118D01*
X993Y8282D01*
X993Y8459D01*
X925Y8623D01*
X800Y8749D01*
X636Y8817D01*
X458Y8817D01*
X324Y8761D01*
X324Y9851D01*
X334Y10003D01*
X413Y10298D01*
X565Y10562D01*
X781Y10778D01*
X1045Y10930D01*
X1339Y11009D01*
X1492Y11019D01*
X12399Y11019D01*
X12337Y10993D01*
X12226Y10882D01*
X12006Y10882D01*
X11956Y10883D01*
X11952Y10882D01*
X11948Y10882D01*
X11902Y10863D01*
X11856Y10845D01*
X11852Y10842D01*
X893Y10842D01*
X991Y10716D02*
X726Y10494D01*
X726Y10494D01*
X726Y10494D01*
X553Y10194D01*
X493Y9854D01*
X553Y9514D01*
X553Y9514D01*
X726Y9214D01*
X991Y8992D01*
X1316Y8874D01*
X1661Y8874D01*
X1986Y8992D01*
X1986Y8992D01*
X2251Y9214D01*
X2251Y9214D01*
X2251Y9214D01*
X2424Y9514D01*
X2478Y9825D01*
X2478Y9605D01*
X2601Y9482D01*
X2731Y9482D01*
X2185Y8936D01*
X2144Y8837D01*
X2144Y8495D01*
X1977Y8329D01*
X1977Y8459D01*
X1909Y8623D01*
X1784Y8749D01*
X1620Y8817D01*
X1442Y8817D01*
X1278Y8749D01*
X1153Y8623D01*
X1085Y8459D01*
X1085Y8282D01*
X1153Y8118D01*
X1278Y7992D01*
X1442Y7924D01*
X1573Y7924D01*
X585Y6936D01*
X544Y6837D01*
X544Y5929D01*
X585Y5830D01*
X661Y5754D01*
X961Y5454D01*
X1060Y5413D01*
X1954Y5413D01*
X1954Y5258D01*
X2042Y5045D01*
X2205Y4881D01*
X2418Y4793D01*
X2501Y4793D01*
X2501Y2612D01*
X2542Y2513D01*
X2618Y2437D01*
X2618Y2437D01*
X2719Y2337D01*
X2719Y2225D01*
X2842Y2102D01*
X3488Y2102D01*
X3608Y2221D01*
X3728Y2102D01*
X4374Y2102D01*
X4497Y2225D01*
X4497Y2871D01*
X4407Y2961D01*
X4497Y3051D01*
X4497Y3213D01*
X4592Y3213D01*
X4592Y3021D01*
X4623Y2990D01*
X4592Y2959D01*
X4592Y2273D01*
X4497Y2273D01*
X4592Y2273D02*
X4715Y2150D01*
X5195Y2150D01*
X5417Y1924D01*
X5418Y1922D01*
X5455Y1885D01*
X5492Y1848D01*
X5493Y1847D01*
X5494Y1846D01*
X5542Y1826D01*
X5591Y1806D01*
X5592Y1806D01*
X5593Y1805D01*
X5646Y1805D01*
X5698Y1805D01*
X5699Y1805D01*
X6860Y1805D01*
X6960Y1846D01*
X7096Y1982D01*
X7367Y1982D01*
X7490Y2105D01*
X7490Y2211D01*
X7741Y2211D01*
X7741Y2567D01*
X7841Y2567D01*
X7841Y2211D01*
X8126Y2211D01*
X8164Y2221D01*
X8198Y2241D01*
X8226Y2269D01*
X8246Y2303D01*
X8256Y2341D01*
X8256Y2567D01*
X7841Y2567D01*
X7841Y2667D01*
X8256Y2667D01*
X8256Y2893D01*
X8246Y2931D01*
X8238Y2944D01*
X8316Y3022D01*
X8316Y3708D01*
X8211Y3813D01*
X8211Y3956D01*
X8329Y4074D01*
X8329Y4604D01*
X8206Y4727D01*
X7806Y4727D01*
X7806Y5063D01*
X7978Y5063D01*
X9301Y3741D01*
X9146Y3741D01*
X9146Y3385D01*
X9046Y3385D01*
X9046Y3285D01*
X8651Y3285D01*
X8651Y3068D01*
X8591Y3008D01*
X8591Y2323D01*
X8714Y2199D01*
X9479Y2199D01*
X9602Y2323D01*
X9602Y2346D01*
X9887Y2346D01*
X9887Y2273D01*
X10010Y2150D01*
X10490Y2150D01*
X10615Y2022D01*
X10616Y2021D01*
X10652Y1984D01*
X10689Y1947D01*
X10690Y1946D01*
X10691Y1945D01*
X10740Y1925D01*
X10788Y1904D01*
X10789Y1904D01*
X10791Y1904D01*
X10843Y1904D01*
X10895Y1903D01*
X10897Y1904D01*
X11978Y1904D01*
X12078Y1945D01*
X12154Y2021D01*
X12347Y2214D01*
X12430Y2179D01*
X12661Y2179D01*
X12874Y2268D01*
X13037Y2431D01*
X13045Y2451D01*
X13054Y2431D01*
X13217Y2268D01*
X13430Y2179D01*
X13661Y2179D01*
X13874Y2268D01*
X14037Y2431D01*
X14045Y2451D01*
X14054Y2431D01*
X14217Y2268D01*
X14430Y2179D01*
X14661Y2179D01*
X14874Y2268D01*
X15037Y2431D01*
X15045Y2451D01*
X15054Y2431D01*
X15217Y2268D01*
X15430Y2179D01*
X15661Y2179D01*
X15874Y2268D01*
X16037Y2431D01*
X16078Y2530D01*
X16101Y2487D01*
X16149Y2420D01*
X16207Y2363D01*
X16273Y2315D01*
X16346Y2277D01*
X16424Y2252D01*
X16495Y2241D01*
X16495Y2709D01*
X16595Y2709D01*
X16595Y2241D01*
X16667Y2252D01*
X16745Y2277D01*
X16818Y2315D01*
X16884Y2363D01*
X16942Y2420D01*
X16990Y2487D01*
X17027Y2560D01*
X17053Y2637D01*
X17064Y2709D01*
X16595Y2709D01*
X16595Y2809D01*
X16495Y2809D01*
X16495Y3197D01*
X16501Y3197D01*
X16501Y3797D01*
X16601Y3797D01*
X16601Y3897D01*
X17201Y3897D01*
X17201Y4116D01*
X16998Y4319D01*
X17468Y4319D01*
X17770Y4622D01*
X18013Y4379D01*
X18178Y4379D01*
X18178Y4849D01*
X18278Y4849D01*
X18278Y4379D01*
X18443Y4379D01*
X18748Y4684D01*
X18748Y4849D01*
X18278Y4849D01*
X18278Y4949D01*
X18748Y4949D01*
X18748Y5115D01*
X18506Y5357D01*
X18808Y5659D01*
X18808Y6140D01*
X18548Y6399D01*
X18808Y6659D01*
X18808Y7140D01*
X18548Y7399D01*
X18808Y7659D01*
X18808Y8140D01*
X18468Y8479D01*
X17988Y8479D01*
X17728Y8220D01*
X17468Y8479D01*
X17069Y8479D01*
X17261Y8671D01*
X17261Y9218D01*
X17265Y9211D01*
X17530Y8989D01*
X17854Y8871D01*
X18200Y8871D01*
X18525Y8989D01*
X18789Y9211D01*
X18789Y9211D01*
X18789Y9211D01*
X18962Y9511D01*
X19022Y9851D01*
X18962Y10191D01*
X18789Y10491D01*
X18525Y10713D01*
X18525Y10713D01*
X18200Y10831D01*
X17854Y10831D01*
X17530Y10713D01*
X17530Y10713D01*
X17265Y10491D01*
X17265Y10491D01*
X17265Y10491D01*
X17092Y10191D01*
X17032Y9851D01*
X17032Y9851D01*
X17092Y9511D01*
X17092Y9511D01*
X17205Y9315D01*
X16927Y9593D01*
X16927Y10917D01*
X16825Y11019D01*
X18027Y11019D01*
X18180Y11009D01*
X18474Y10930D01*
X18738Y10778D01*
X18954Y10562D01*
X19106Y10298D01*
X19185Y10003D01*
X19195Y9851D01*
X19195Y2961D01*
X19185Y2809D01*
X19106Y2514D01*
X18954Y2250D01*
X18738Y2035D01*
X18474Y1882D01*
X18180Y1803D01*
X18027Y1793D01*
X1494Y1793D01*
X1340Y1806D01*
X1041Y1890D01*
X1081Y1879D02*
X5461Y1879D01*
X5365Y1977D02*
X895Y1977D01*
X991Y2096D02*
X991Y2096D01*
X1316Y1978D01*
X1439Y1978D01*
X1661Y1978D01*
X1986Y2096D01*
X1986Y2096D01*
X2251Y2318D01*
X2251Y2318D01*
X2251Y2318D01*
X2424Y2618D01*
X2484Y2958D01*
X2424Y3298D01*
X2424Y3298D01*
X2251Y3598D01*
X1986Y3820D01*
X1661Y3938D01*
X1316Y3938D01*
X991Y3820D01*
X991Y3820D01*
X726Y3598D01*
X726Y3598D01*
X726Y3598D01*
X553Y3298D01*
X493Y2958D01*
X553Y2618D01*
X553Y2618D01*
X726Y2318D01*
X991Y2096D01*
X1047Y2076D02*
X749Y2076D01*
X653Y2174D02*
X898Y2174D01*
X781Y2273D02*
X558Y2273D01*
X503Y2371D02*
X696Y2371D01*
X726Y2318D02*
X726Y2318D01*
X639Y2470D02*
X448Y2470D01*
X401Y2568D02*
X582Y2568D01*
X545Y2667D02*
X376Y2667D01*
X351Y2765D02*
X527Y2765D01*
X510Y2864D02*
X331Y2864D01*
X326Y2962D02*
X494Y2962D01*
X493Y2958D02*
X493Y2958D01*
X512Y3061D02*
X325Y3061D01*
X324Y3159D02*
X529Y3159D01*
X546Y3258D02*
X324Y3258D01*
X324Y3356D02*
X587Y3356D01*
X553Y3298D02*
X553Y3298D01*
X644Y3455D02*
X324Y3455D01*
X324Y3553D02*
X701Y3553D01*
X791Y3652D02*
X324Y3652D01*
X324Y3750D02*
X908Y3750D01*
X1070Y3849D02*
X324Y3849D01*
X324Y3947D02*
X2501Y3947D01*
X2501Y3849D02*
X1907Y3849D01*
X1986Y3820D02*
X1986Y3820D01*
X2069Y3750D02*
X2501Y3750D01*
X2501Y3652D02*
X2186Y3652D01*
X2251Y3598D02*
X2251Y3598D01*
X2277Y3553D02*
X2501Y3553D01*
X2501Y3455D02*
X2333Y3455D01*
X2390Y3356D02*
X2501Y3356D01*
X2501Y3258D02*
X2431Y3258D01*
X2448Y3159D02*
X2501Y3159D01*
X2501Y3061D02*
X2466Y3061D01*
X2483Y2962D02*
X2501Y2962D01*
X2484Y2958D02*
X2484Y2958D01*
X2467Y2864D02*
X2501Y2864D01*
X2501Y2765D02*
X2450Y2765D01*
X2432Y2667D02*
X2501Y2667D01*
X2424Y2618D02*
X2424Y2618D01*
X2395Y2568D02*
X2519Y2568D01*
X2586Y2470D02*
X2338Y2470D01*
X2281Y2371D02*
X2684Y2371D01*
X2719Y2273D02*
X2196Y2273D01*
X2079Y2174D02*
X2769Y2174D01*
X3561Y2174D02*
X3655Y2174D01*
X4447Y2174D02*
X4690Y2174D01*
X4592Y2371D02*
X4497Y2371D01*
X4497Y2470D02*
X4592Y2470D01*
X4592Y2568D02*
X4497Y2568D01*
X4497Y2667D02*
X4592Y2667D01*
X4592Y2765D02*
X4497Y2765D01*
X4497Y2864D02*
X4592Y2864D01*
X4595Y2962D02*
X4408Y2962D01*
X4497Y3061D02*
X4592Y3061D01*
X4592Y3159D02*
X4497Y3159D01*
X5116Y2616D02*
X5297Y2586D01*
X5268Y2076D02*
X1930Y2076D01*
X1620Y3987D02*
X1784Y4055D01*
X1909Y4181D01*
X1977Y4345D01*
X1977Y4522D01*
X1909Y4686D01*
X1784Y4812D01*
X1620Y4880D01*
X1442Y4880D01*
X1278Y4812D01*
X1153Y4686D01*
X1085Y4522D01*
X1085Y4345D01*
X1153Y4181D01*
X1278Y4055D01*
X1442Y3987D01*
X1620Y3987D01*
X1761Y4046D02*
X2501Y4046D01*
X2501Y4144D02*
X1873Y4144D01*
X1935Y4243D02*
X2501Y4243D01*
X2501Y4341D02*
X1976Y4341D01*
X1977Y4440D02*
X2501Y4440D01*
X2501Y4538D02*
X1971Y4538D01*
X1930Y4637D02*
X2501Y4637D01*
X2501Y4735D02*
X1860Y4735D01*
X1731Y4834D02*
X2321Y4834D01*
X2154Y4932D02*
X324Y4932D01*
X324Y4834D02*
X347Y4834D01*
X747Y4834D02*
X1331Y4834D01*
X1202Y4735D02*
X876Y4735D01*
X946Y4637D02*
X1132Y4637D01*
X1091Y4538D02*
X986Y4538D01*
X993Y4440D02*
X1085Y4440D01*
X1086Y4341D02*
X992Y4341D01*
X951Y4243D02*
X1127Y4243D01*
X1189Y4144D02*
X888Y4144D01*
X776Y4046D02*
X1301Y4046D01*
X2056Y5031D02*
X324Y5031D01*
X324Y5129D02*
X2007Y5129D01*
X1966Y5228D02*
X324Y5228D01*
X324Y5326D02*
X1954Y5326D01*
X1032Y5425D02*
X324Y5425D01*
X324Y5523D02*
X892Y5523D01*
X793Y5622D02*
X324Y5622D01*
X324Y5720D02*
X695Y5720D01*
X596Y5819D02*
X324Y5819D01*
X324Y5917D02*
X549Y5917D01*
X544Y6016D02*
X324Y6016D01*
X324Y6114D02*
X544Y6114D01*
X544Y6213D02*
X324Y6213D01*
X324Y6311D02*
X544Y6311D01*
X544Y6410D02*
X324Y6410D01*
X324Y6508D02*
X544Y6508D01*
X544Y6607D02*
X324Y6607D01*
X324Y6705D02*
X544Y6705D01*
X544Y6804D02*
X324Y6804D01*
X324Y6902D02*
X571Y6902D01*
X649Y7001D02*
X324Y7001D01*
X324Y7099D02*
X748Y7099D01*
X846Y7198D02*
X324Y7198D01*
X324Y7296D02*
X945Y7296D01*
X1043Y7395D02*
X324Y7395D01*
X324Y7493D02*
X1142Y7493D01*
X1240Y7592D02*
X324Y7592D01*
X324Y7690D02*
X1339Y7690D01*
X1437Y7789D02*
X324Y7789D01*
X324Y7887D02*
X1536Y7887D01*
X1294Y7986D02*
X784Y7986D01*
X891Y8084D02*
X1186Y8084D01*
X1126Y8183D02*
X952Y8183D01*
X993Y8281D02*
X1085Y8281D01*
X1085Y8380D02*
X993Y8380D01*
X985Y8478D02*
X1093Y8478D01*
X1133Y8577D02*
X944Y8577D01*
X873Y8675D02*
X1205Y8675D01*
X1338Y8774D02*
X740Y8774D01*
X354Y8774D02*
X324Y8774D01*
X324Y8872D02*
X2158Y8872D01*
X2144Y8774D02*
X1724Y8774D01*
X1857Y8675D02*
X2144Y8675D01*
X2144Y8577D02*
X1929Y8577D01*
X1969Y8478D02*
X2127Y8478D01*
X2028Y8380D02*
X1977Y8380D01*
X2398Y7986D02*
X2562Y7986D01*
X2544Y8029D02*
X2585Y7930D01*
X2631Y7884D01*
X2584Y7892D01*
X2584Y7423D01*
X2484Y7423D01*
X2484Y7892D01*
X2412Y7880D01*
X2334Y7855D01*
X2261Y7818D01*
X2195Y7770D01*
X2137Y7712D01*
X2089Y7646D01*
X2052Y7573D01*
X2027Y7495D01*
X2015Y7423D01*
X2484Y7423D01*
X2484Y7323D01*
X2015Y7323D01*
X2027Y7251D01*
X2052Y7174D01*
X2089Y7101D01*
X2137Y7034D01*
X2195Y6977D01*
X2261Y6928D01*
X2305Y6906D01*
X2205Y6865D01*
X2043Y6703D01*
X2038Y6713D01*
X1983Y6788D01*
X1917Y6854D01*
X1842Y6909D01*
X1759Y6952D01*
X1670Y6980D01*
X1581Y6994D01*
X1581Y6452D01*
X1481Y6452D01*
X1481Y6994D01*
X1393Y6981D01*
X2544Y8131D01*
X2544Y8029D01*
X2544Y8084D02*
X2497Y8084D01*
X2484Y7887D02*
X2584Y7887D01*
X2612Y7887D02*
X2628Y7887D01*
X2584Y7789D02*
X2484Y7789D01*
X2484Y7690D02*
X2584Y7690D01*
X2584Y7592D02*
X2484Y7592D01*
X2484Y7493D02*
X2584Y7493D01*
X2484Y7395D02*
X1807Y7395D01*
X1906Y7493D02*
X2026Y7493D01*
X2004Y7592D02*
X2061Y7592D01*
X2103Y7690D02*
X2121Y7690D01*
X2201Y7789D02*
X2221Y7789D01*
X2300Y7887D02*
X2455Y7887D01*
X2019Y7296D02*
X1709Y7296D01*
X1610Y7198D02*
X2044Y7198D01*
X2090Y7099D02*
X1512Y7099D01*
X1413Y7001D02*
X2171Y7001D01*
X2295Y6902D02*
X1851Y6902D01*
X1968Y6804D02*
X2144Y6804D01*
X2046Y6705D02*
X2042Y6705D01*
X1581Y6705D02*
X1481Y6705D01*
X1481Y6607D02*
X1581Y6607D01*
X1581Y6508D02*
X1481Y6508D01*
X1481Y6804D02*
X1581Y6804D01*
X1581Y6902D02*
X1481Y6902D01*
X4814Y6783D02*
X4814Y7983D01*
X5114Y8283D01*
X5114Y8209D01*
X5014Y8209D01*
X5514Y7833D02*
X5314Y7633D01*
X5314Y6783D01*
X5514Y6583D01*
X5514Y5683D01*
X5814Y5383D01*
X5964Y5383D01*
X6020Y5439D01*
X6059Y5400D01*
X7014Y5400D01*
X7546Y5175D02*
X7694Y5323D01*
X8086Y5323D01*
X10055Y3354D01*
X10412Y3364D01*
X9887Y3155D02*
X9887Y3021D01*
X9918Y2990D01*
X9887Y2959D01*
X9887Y2866D01*
X9602Y2866D01*
X9602Y3008D01*
X9542Y3068D01*
X9542Y3285D01*
X9146Y3285D01*
X9146Y3385D01*
X9542Y3385D01*
X9542Y3500D01*
X9838Y3204D01*
X9839Y3201D01*
X9874Y3168D01*
X9887Y3155D01*
X9883Y3159D02*
X9542Y3159D01*
X9549Y3061D02*
X9887Y3061D01*
X9890Y2962D02*
X9602Y2962D01*
X9542Y3258D02*
X9784Y3258D01*
X9686Y3356D02*
X9146Y3356D01*
X9146Y3455D02*
X9046Y3455D01*
X9046Y3385D02*
X9046Y3741D01*
X8781Y3741D01*
X8743Y3730D01*
X8709Y3711D01*
X8681Y3683D01*
X8661Y3648D01*
X8651Y3610D01*
X8651Y3385D01*
X9046Y3385D01*
X9046Y3356D02*
X8316Y3356D01*
X8316Y3258D02*
X8651Y3258D01*
X8651Y3159D02*
X8316Y3159D01*
X8316Y3061D02*
X8644Y3061D01*
X8591Y2962D02*
X8256Y2962D01*
X8256Y2864D02*
X8591Y2864D01*
X8591Y2765D02*
X8256Y2765D01*
X8591Y2667D02*
X7841Y2667D01*
X7841Y2568D02*
X8591Y2568D01*
X8591Y2470D02*
X8256Y2470D01*
X8256Y2371D02*
X8591Y2371D01*
X8641Y2273D02*
X8228Y2273D01*
X7841Y2273D02*
X7741Y2273D01*
X7741Y2371D02*
X7841Y2371D01*
X7841Y2470D02*
X7741Y2470D01*
X7490Y2174D02*
X9986Y2174D01*
X9888Y2273D02*
X9552Y2273D01*
X9136Y2606D02*
X10402Y2606D01*
X10412Y2616D01*
X10937Y2568D02*
X10997Y2568D01*
X10965Y2644D02*
X11048Y2444D01*
X10958Y2444D01*
X10937Y2465D01*
X10937Y2959D01*
X10906Y2990D01*
X10937Y3021D01*
X10937Y3623D01*
X12206Y3623D01*
X12490Y3339D01*
X12430Y3339D01*
X12217Y3251D01*
X12054Y3088D01*
X12045Y3068D01*
X12037Y3088D01*
X11874Y3251D01*
X11661Y3339D01*
X11430Y3339D01*
X11217Y3251D01*
X11054Y3088D01*
X10965Y2875D01*
X10965Y2644D01*
X10965Y2667D02*
X10937Y2667D01*
X10937Y2765D02*
X10965Y2765D01*
X10965Y2864D02*
X10937Y2864D01*
X10934Y2962D02*
X11002Y2962D01*
X11042Y3061D02*
X10937Y3061D01*
X10937Y3159D02*
X11125Y3159D01*
X11233Y3258D02*
X10937Y3258D01*
X10937Y3356D02*
X12473Y3356D01*
X12375Y3455D02*
X10937Y3455D01*
X10937Y3553D02*
X12276Y3553D01*
X12233Y3258D02*
X11858Y3258D01*
X11966Y3159D02*
X12125Y3159D01*
X12714Y3483D02*
X12314Y3883D01*
X9914Y3883D01*
X8065Y5732D01*
X7872Y5732D01*
X7872Y5988D02*
X8209Y5988D01*
X10014Y4183D01*
X12514Y4183D01*
X12914Y3783D01*
X14720Y3783D01*
X14968Y3485D01*
X15357Y3455D02*
X16024Y3455D01*
X15925Y3553D02*
X15357Y3553D01*
X15357Y3652D02*
X15901Y3652D01*
X15901Y3578D02*
X16274Y3205D01*
X16273Y3204D01*
X16207Y3156D01*
X16149Y3098D01*
X16101Y3032D01*
X16078Y2988D01*
X16037Y3088D01*
X15874Y3251D01*
X15661Y3339D01*
X15430Y3339D01*
X15357Y3309D01*
X15357Y3723D01*
X15669Y3723D01*
X15764Y3763D01*
X15901Y3899D01*
X15901Y3897D01*
X16501Y3897D01*
X16501Y4497D01*
X16417Y4497D01*
X16417Y5117D01*
X16421Y5122D01*
X16648Y5122D01*
X16648Y4659D01*
X16810Y4497D01*
X16601Y4497D01*
X16601Y3897D01*
X16501Y3897D01*
X16501Y3797D01*
X15901Y3797D01*
X15901Y3578D01*
X15901Y3750D02*
X15734Y3750D01*
X15850Y3849D02*
X16501Y3849D01*
X16501Y3947D02*
X16601Y3947D01*
X16601Y3849D02*
X17612Y3849D01*
X17533Y3820D02*
X17857Y3938D01*
X18203Y3938D01*
X18528Y3820D01*
X18528Y3820D01*
X18793Y3598D01*
X18793Y3598D01*
X18965Y3298D01*
X18965Y3298D01*
X19025Y2958D01*
X19025Y2958D01*
X18965Y2618D01*
X18965Y2618D01*
X18793Y2318D01*
X18793Y2318D01*
X18793Y2318D01*
X18528Y2096D01*
X18528Y2096D01*
X18203Y1978D01*
X17857Y1978D01*
X17533Y2096D01*
X17533Y2096D01*
X17268Y2318D01*
X17268Y2318D01*
X17095Y2618D01*
X17095Y2618D01*
X17061Y2809D01*
X16595Y2809D01*
X16595Y3278D01*
X16601Y3277D01*
X16601Y3797D01*
X17201Y3797D01*
X17201Y3578D01*
X16823Y3200D01*
X16884Y3156D01*
X16942Y3098D01*
X16990Y3032D01*
X17027Y2959D01*
X17044Y2906D01*
X17035Y2958D01*
X17035Y2958D01*
X17095Y3298D01*
X17095Y3298D01*
X17268Y3598D01*
X17268Y3598D01*
X17268Y3598D01*
X17533Y3820D01*
X17533Y3820D01*
X17450Y3750D02*
X17201Y3750D01*
X17201Y3652D02*
X17332Y3652D01*
X17242Y3553D02*
X17176Y3553D01*
X17185Y3455D02*
X17078Y3455D01*
X17129Y3356D02*
X16979Y3356D01*
X16881Y3258D02*
X17088Y3258D01*
X17071Y3159D02*
X16880Y3159D01*
X16969Y3061D02*
X17053Y3061D01*
X17036Y2962D02*
X17026Y2962D01*
X17069Y2765D02*
X16595Y2765D01*
X16595Y2667D02*
X16495Y2667D01*
X16495Y2568D02*
X16595Y2568D01*
X16595Y2470D02*
X16495Y2470D01*
X16495Y2371D02*
X16595Y2371D01*
X16595Y2273D02*
X16495Y2273D01*
X16360Y2273D02*
X15879Y2273D01*
X15977Y2371D02*
X16198Y2371D01*
X16113Y2470D02*
X16053Y2470D01*
X16495Y2864D02*
X16595Y2864D01*
X16595Y2962D02*
X16495Y2962D01*
X16495Y3061D02*
X16595Y3061D01*
X16595Y3159D02*
X16495Y3159D01*
X16501Y3258D02*
X16595Y3258D01*
X16601Y3356D02*
X16501Y3356D01*
X16501Y3455D02*
X16601Y3455D01*
X16601Y3553D02*
X16501Y3553D01*
X16501Y3652D02*
X16601Y3652D01*
X16601Y3750D02*
X16501Y3750D01*
X16501Y4046D02*
X16601Y4046D01*
X16601Y4144D02*
X16501Y4144D01*
X16501Y4243D02*
X16601Y4243D01*
X16601Y4341D02*
X16501Y4341D01*
X16501Y4440D02*
X16601Y4440D01*
X16769Y4538D02*
X16417Y4538D01*
X16417Y4637D02*
X16670Y4637D01*
X16648Y4735D02*
X16417Y4735D01*
X16417Y4834D02*
X16648Y4834D01*
X16648Y4932D02*
X16417Y4932D01*
X16417Y5031D02*
X16648Y5031D01*
X16314Y5382D02*
X16157Y5225D01*
X16157Y4523D01*
X15617Y3983D01*
X15617Y3996D01*
X15617Y3983D02*
X13214Y3983D01*
X12714Y4483D01*
X10114Y4483D01*
X8353Y6243D01*
X7872Y6243D01*
X7872Y6499D02*
X8498Y6499D01*
X10214Y4783D01*
X12914Y4783D01*
X13514Y4183D01*
X14114Y4183D01*
X14414Y4483D01*
X14414Y5383D01*
X15015Y5985D01*
X16012Y5985D01*
X16114Y5883D01*
X16320Y5883D01*
X16818Y6382D01*
X17818Y6382D01*
X18228Y6791D01*
X18228Y6899D01*
X18808Y6902D02*
X19195Y6902D01*
X19195Y6804D02*
X18808Y6804D01*
X18808Y6705D02*
X19195Y6705D01*
X19195Y6607D02*
X18756Y6607D01*
X18657Y6508D02*
X19195Y6508D01*
X19195Y6410D02*
X18559Y6410D01*
X18636Y6311D02*
X19195Y6311D01*
X19195Y6213D02*
X18735Y6213D01*
X18808Y6114D02*
X19195Y6114D01*
X19195Y6016D02*
X18808Y6016D01*
X18808Y5917D02*
X19195Y5917D01*
X19195Y5819D02*
X18808Y5819D01*
X18808Y5720D02*
X19195Y5720D01*
X19195Y5622D02*
X18771Y5622D01*
X18672Y5523D02*
X19195Y5523D01*
X19195Y5425D02*
X18574Y5425D01*
X18536Y5326D02*
X19195Y5326D01*
X19195Y5228D02*
X18635Y5228D01*
X18733Y5129D02*
X19195Y5129D01*
X19195Y5031D02*
X18748Y5031D01*
X18748Y4834D02*
X19195Y4834D01*
X19195Y4932D02*
X18278Y4932D01*
X18278Y4834D02*
X18178Y4834D01*
X18178Y4735D02*
X18278Y4735D01*
X18278Y4637D02*
X18178Y4637D01*
X18178Y4538D02*
X18278Y4538D01*
X18278Y4440D02*
X18178Y4440D01*
X17952Y4440D02*
X17589Y4440D01*
X17687Y4538D02*
X17854Y4538D01*
X17490Y4341D02*
X19195Y4341D01*
X19195Y4243D02*
X17074Y4243D01*
X17173Y4144D02*
X19195Y4144D01*
X19195Y4046D02*
X17201Y4046D01*
X17201Y3947D02*
X19195Y3947D01*
X19195Y3849D02*
X18448Y3849D01*
X18611Y3750D02*
X19195Y3750D01*
X19195Y3652D02*
X18728Y3652D01*
X18818Y3553D02*
X19195Y3553D01*
X19195Y3455D02*
X18875Y3455D01*
X18932Y3356D02*
X19195Y3356D01*
X19195Y3258D02*
X18973Y3258D01*
X18990Y3159D02*
X19195Y3159D01*
X19195Y3061D02*
X19007Y3061D01*
X19025Y2962D02*
X19195Y2962D01*
X19189Y2864D02*
X19009Y2864D01*
X18991Y2765D02*
X19173Y2765D01*
X19147Y2667D02*
X18974Y2667D01*
X18937Y2568D02*
X19121Y2568D01*
X19080Y2470D02*
X18880Y2470D01*
X18823Y2371D02*
X19024Y2371D01*
X18967Y2273D02*
X18738Y2273D01*
X18621Y2174D02*
X18878Y2174D01*
X18779Y2076D02*
X18471Y2076D01*
X18639Y1977D02*
X12110Y1977D01*
X12209Y2076D02*
X17589Y2076D01*
X17440Y2174D02*
X12307Y2174D01*
X12879Y2273D02*
X13212Y2273D01*
X13113Y2371D02*
X12977Y2371D01*
X13879Y2273D02*
X14212Y2273D01*
X14113Y2371D02*
X13977Y2371D01*
X14879Y2273D02*
X15212Y2273D01*
X15113Y2371D02*
X14977Y2371D01*
X16048Y3061D02*
X16122Y3061D01*
X16211Y3159D02*
X15966Y3159D01*
X15858Y3258D02*
X16221Y3258D01*
X16122Y3356D02*
X15357Y3356D01*
X14320Y3483D02*
X12714Y3483D01*
X11037Y2470D02*
X10937Y2470D01*
X10563Y2076D02*
X7460Y2076D01*
X7090Y1977D02*
X10659Y1977D01*
X9587Y3455D02*
X9542Y3455D01*
X9146Y3553D02*
X9046Y3553D01*
X9046Y3652D02*
X9146Y3652D01*
X9292Y3750D02*
X8274Y3750D01*
X8316Y3652D02*
X8663Y3652D01*
X8651Y3553D02*
X8316Y3553D01*
X8316Y3455D02*
X8651Y3455D01*
X8211Y3849D02*
X9193Y3849D01*
X9095Y3947D02*
X8211Y3947D01*
X8301Y4046D02*
X8996Y4046D01*
X8898Y4144D02*
X8329Y4144D01*
X8329Y4243D02*
X8799Y4243D01*
X8701Y4341D02*
X8329Y4341D01*
X8329Y4440D02*
X8602Y4440D01*
X8504Y4538D02*
X8329Y4538D01*
X8296Y4637D02*
X8405Y4637D01*
X8307Y4735D02*
X7806Y4735D01*
X7806Y4834D02*
X8208Y4834D01*
X8110Y4932D02*
X7806Y4932D01*
X7806Y5031D02*
X8011Y5031D01*
X7546Y5175D02*
X7546Y4531D01*
X7347Y4333D01*
X5635Y4333D01*
X5414Y4512D01*
X5792Y4973D02*
X5917Y4848D01*
X6007Y4630D01*
X6007Y4593D01*
X7240Y4593D01*
X7286Y4639D01*
X7286Y4934D01*
X6612Y4934D01*
X6489Y5057D01*
X6489Y5060D01*
X6402Y4973D01*
X5792Y4973D01*
X5833Y4932D02*
X7286Y4932D01*
X7286Y4834D02*
X5923Y4834D01*
X5964Y4735D02*
X7286Y4735D01*
X7283Y4637D02*
X6004Y4637D01*
X6460Y5031D02*
X6515Y5031D01*
X6489Y5819D02*
X6465Y5842D01*
X6465Y6058D01*
X6070Y6058D01*
X6070Y6158D01*
X6465Y6158D01*
X6465Y6384D01*
X6455Y6422D01*
X6435Y6456D01*
X6407Y6484D01*
X6373Y6504D01*
X6335Y6514D01*
X6070Y6514D01*
X6070Y6158D01*
X5970Y6158D01*
X5970Y6514D01*
X5774Y6514D01*
X5774Y6635D01*
X5734Y6730D01*
X5670Y6795D01*
X5979Y6795D01*
X6102Y6918D01*
X6102Y6923D01*
X6706Y6923D01*
X6839Y6791D01*
X6934Y6751D01*
X7214Y6751D01*
X7077Y6614D01*
X6612Y6614D01*
X6489Y6491D01*
X6489Y5819D01*
X6489Y5819D01*
X6489Y5917D02*
X6465Y5917D01*
X6465Y6016D02*
X6489Y6016D01*
X6489Y6114D02*
X6070Y6114D01*
X6020Y6108D02*
X6020Y6277D01*
X5970Y6311D02*
X6070Y6311D01*
X6070Y6213D02*
X5970Y6213D01*
X5970Y6410D02*
X6070Y6410D01*
X6070Y6508D02*
X5970Y6508D01*
X5774Y6607D02*
X6605Y6607D01*
X6506Y6508D02*
X6358Y6508D01*
X6458Y6410D02*
X6489Y6410D01*
X6489Y6311D02*
X6465Y6311D01*
X6465Y6213D02*
X6489Y6213D01*
X6914Y6083D02*
X7014Y6148D01*
X6914Y6083D02*
X7586Y6755D01*
X7872Y6755D01*
X7872Y7011D02*
X6986Y7011D01*
X6814Y7183D01*
X5714Y7183D01*
X6014Y7483D01*
X6014Y8209D01*
X5514Y7833D02*
X5514Y9583D01*
X5058Y10038D01*
X5058Y10062D01*
X4558Y10371D02*
X4550Y10391D01*
X4387Y10554D01*
X4174Y10642D01*
X3943Y10642D01*
X3730Y10554D01*
X3638Y10463D01*
X3638Y10519D01*
X3515Y10642D01*
X2601Y10642D01*
X2478Y10519D01*
X2478Y9884D01*
X2424Y10194D01*
X2424Y10194D01*
X2251Y10494D01*
X1986Y10716D01*
X1661Y10834D01*
X1316Y10834D01*
X991Y10716D01*
X991Y10716D01*
X1068Y10744D02*
X747Y10744D01*
X648Y10645D02*
X907Y10645D01*
X789Y10547D02*
X556Y10547D01*
X499Y10448D02*
X700Y10448D01*
X643Y10350D02*
X443Y10350D01*
X400Y10251D02*
X586Y10251D01*
X553Y10194D02*
X553Y10194D01*
X546Y10153D02*
X374Y10153D01*
X347Y10054D02*
X529Y10054D01*
X511Y9956D02*
X331Y9956D01*
X324Y9857D02*
X494Y9857D01*
X493Y9854D02*
X493Y9854D01*
X510Y9759D02*
X324Y9759D01*
X324Y9660D02*
X528Y9660D01*
X545Y9562D02*
X324Y9562D01*
X324Y9463D02*
X583Y9463D01*
X639Y9365D02*
X324Y9365D01*
X324Y9266D02*
X696Y9266D01*
X726Y9214D02*
X726Y9214D01*
X782Y9168D02*
X324Y9168D01*
X324Y9069D02*
X899Y9069D01*
X991Y8992D02*
X991Y8992D01*
X1050Y8971D02*
X324Y8971D01*
X1927Y8971D02*
X2219Y8971D01*
X2318Y9069D02*
X2078Y9069D01*
X2195Y9168D02*
X2416Y9168D01*
X2515Y9266D02*
X2281Y9266D01*
X2338Y9365D02*
X2613Y9365D01*
X2712Y9463D02*
X2394Y9463D01*
X2424Y9514D02*
X2424Y9514D01*
X2432Y9562D02*
X2522Y9562D01*
X2478Y9660D02*
X2449Y9660D01*
X2467Y9759D02*
X2478Y9759D01*
X2466Y9956D02*
X2478Y9956D01*
X2478Y10054D02*
X2448Y10054D01*
X2431Y10153D02*
X2478Y10153D01*
X2478Y10251D02*
X2391Y10251D01*
X2334Y10350D02*
X2478Y10350D01*
X2478Y10448D02*
X2277Y10448D01*
X2251Y10494D02*
X2251Y10494D01*
X2188Y10547D02*
X2506Y10547D01*
X2070Y10645D02*
X10008Y10645D01*
X9993Y10630D02*
X9893Y10530D01*
X9876Y10488D01*
X9850Y10495D01*
X9565Y10495D01*
X9565Y10041D01*
X9465Y10041D01*
X9465Y10495D01*
X9180Y10495D01*
X9142Y10485D01*
X9108Y10465D01*
X9080Y10437D01*
X9060Y10403D01*
X9050Y10365D01*
X9050Y10041D01*
X9465Y10041D01*
X9465Y9941D01*
X9565Y9941D01*
X9565Y9487D01*
X9850Y9487D01*
X9854Y9488D01*
X9854Y8631D01*
X9893Y8536D01*
X9966Y8463D01*
X9966Y8463D01*
X10185Y8244D01*
X10155Y8244D01*
X9900Y8244D01*
X9861Y8234D01*
X9827Y8214D01*
X9799Y8186D01*
X9780Y8152D01*
X9769Y8114D01*
X9769Y8035D01*
X9819Y8035D01*
X9819Y8035D01*
X9769Y8035D01*
X9769Y7985D01*
X9709Y7925D01*
X9709Y7527D01*
X9246Y7527D01*
X9150Y7487D01*
X9002Y7339D01*
X9002Y7548D01*
X8955Y7595D01*
X8979Y7595D01*
X9102Y7718D01*
X9102Y8248D01*
X8979Y8371D01*
X8635Y8371D01*
X8702Y8478D01*
X9022Y8478D01*
X9082Y8538D01*
X9298Y8538D01*
X9298Y8933D01*
X9398Y8933D01*
X9398Y8538D01*
X9624Y8538D01*
X9662Y8548D01*
X9696Y8568D01*
X9724Y8596D01*
X9744Y8630D01*
X9754Y8668D01*
X9754Y8933D01*
X9398Y8933D01*
X9398Y9033D01*
X9298Y9033D01*
X9298Y9428D01*
X9082Y9428D01*
X9022Y9488D01*
X8876Y9488D01*
X8938Y9550D01*
X8938Y10432D01*
X8814Y10555D01*
X8011Y10555D01*
X7888Y10432D01*
X7888Y10095D01*
X7857Y10093D01*
X7782Y10168D01*
X7252Y10168D01*
X7129Y10045D01*
X7129Y9760D01*
X6793Y9424D01*
X6793Y9423D01*
X6612Y9423D01*
X6514Y9325D01*
X6416Y9423D01*
X5774Y9423D01*
X5774Y9626D01*
X5786Y9618D01*
X5859Y9580D01*
X5937Y9555D01*
X6008Y9544D01*
X6008Y10012D01*
X6108Y10012D01*
X6108Y9544D01*
X6180Y9555D01*
X6258Y9580D01*
X6331Y9618D01*
X6397Y9666D01*
X6455Y9724D01*
X6503Y9790D01*
X6540Y9863D01*
X6566Y9941D01*
X6577Y10012D01*
X6108Y10012D01*
X6108Y10112D01*
X6008Y10112D01*
X6008Y10581D01*
X5937Y10570D01*
X5859Y10544D01*
X5786Y10507D01*
X5720Y10459D01*
X5662Y10401D01*
X5614Y10335D01*
X5591Y10291D01*
X5550Y10391D01*
X5387Y10554D01*
X5174Y10642D01*
X4943Y10642D01*
X4730Y10554D01*
X4567Y10391D01*
X4558Y10371D01*
X4493Y10448D02*
X4624Y10448D01*
X4723Y10547D02*
X4394Y10547D01*
X3723Y10547D02*
X3611Y10547D01*
X1986Y10716D02*
X1986Y10716D01*
X1910Y10744D02*
X11748Y10744D01*
X11813Y10806D02*
X11562Y10569D01*
X11427Y10704D01*
X11332Y10743D01*
X10162Y10743D01*
X10066Y10704D01*
X9993Y10630D01*
X9910Y10547D02*
X8823Y10547D01*
X8922Y10448D02*
X9091Y10448D01*
X9050Y10350D02*
X8938Y10350D01*
X8938Y10251D02*
X9050Y10251D01*
X9050Y10153D02*
X8938Y10153D01*
X8938Y10054D02*
X9050Y10054D01*
X9050Y9941D02*
X9050Y9617D01*
X9060Y9579D01*
X9080Y9545D01*
X9108Y9517D01*
X9142Y9497D01*
X9180Y9487D01*
X9465Y9487D01*
X9465Y9941D01*
X9050Y9941D01*
X9050Y9857D02*
X8938Y9857D01*
X8938Y9759D02*
X9050Y9759D01*
X9050Y9660D02*
X8938Y9660D01*
X8938Y9562D02*
X9070Y9562D01*
X9047Y9463D02*
X9854Y9463D01*
X9854Y9365D02*
X9728Y9365D01*
X9724Y9371D02*
X9696Y9398D01*
X9662Y9418D01*
X9624Y9428D01*
X9398Y9428D01*
X9398Y9033D01*
X9754Y9033D01*
X9754Y9298D01*
X9744Y9336D01*
X9724Y9371D01*
X9754Y9266D02*
X9854Y9266D01*
X9854Y9168D02*
X9754Y9168D01*
X9754Y9069D02*
X9854Y9069D01*
X9854Y8971D02*
X9398Y8971D01*
X9398Y9069D02*
X9298Y9069D01*
X9298Y9168D02*
X9398Y9168D01*
X9398Y9266D02*
X9298Y9266D01*
X9298Y9365D02*
X9398Y9365D01*
X9465Y9562D02*
X9565Y9562D01*
X9565Y9660D02*
X9465Y9660D01*
X9465Y9759D02*
X9565Y9759D01*
X9565Y9857D02*
X9465Y9857D01*
X9465Y9956D02*
X8938Y9956D01*
X9465Y10054D02*
X9565Y10054D01*
X9565Y10153D02*
X9465Y10153D01*
X9465Y10251D02*
X9565Y10251D01*
X9565Y10350D02*
X9465Y10350D01*
X9465Y10448D02*
X9565Y10448D01*
X10114Y10383D02*
X10214Y10483D01*
X11280Y10483D01*
X11569Y10194D01*
X11914Y10159D02*
X12109Y10342D01*
X12226Y10342D01*
X12337Y10230D01*
X12503Y10162D01*
X12682Y10162D01*
X12757Y10193D01*
X12757Y10031D01*
X12682Y10062D01*
X12503Y10062D01*
X12337Y9993D01*
X12211Y9867D01*
X12142Y9701D01*
X12142Y9544D01*
X12087Y9488D01*
X11802Y9488D01*
X11914Y9601D01*
X11914Y10159D01*
X11914Y10153D02*
X12757Y10153D01*
X12757Y10054D02*
X12700Y10054D01*
X12484Y10054D02*
X11914Y10054D01*
X11914Y9956D02*
X12299Y9956D01*
X12207Y9857D02*
X11914Y9857D01*
X11914Y9759D02*
X12166Y9759D01*
X12142Y9660D02*
X11914Y9660D01*
X11875Y9562D02*
X12142Y9562D01*
X12682Y9162D02*
X12828Y9222D01*
X12880Y9170D01*
X15841Y9170D01*
X15841Y8671D01*
X15869Y8643D01*
X14962Y8643D01*
X14866Y8604D01*
X14834Y8571D01*
X14549Y8571D01*
X14426Y8448D01*
X14426Y7918D01*
X14549Y7795D01*
X15079Y7795D01*
X15154Y7871D01*
X15154Y7611D01*
X15551Y7611D01*
X15551Y7514D01*
X15154Y7514D01*
X15154Y7232D01*
X15165Y7163D01*
X15187Y7097D01*
X15215Y7042D01*
X14960Y7042D01*
X14865Y7002D01*
X14792Y6929D01*
X14406Y6543D01*
X13943Y6543D01*
X13778Y6762D01*
X13928Y6762D01*
X14114Y6839D01*
X14256Y6981D01*
X14333Y7167D01*
X14333Y7959D01*
X14256Y8144D01*
X14114Y8286D01*
X13928Y8363D01*
X13727Y8363D01*
X13542Y8286D01*
X13400Y8144D01*
X13323Y7959D01*
X13323Y7167D01*
X13400Y6981D01*
X13431Y6949D01*
X12168Y6949D01*
X12073Y6910D01*
X12000Y6837D01*
X11922Y6759D01*
X11169Y6759D01*
X11721Y7311D01*
X11742Y7289D01*
X12273Y7289D01*
X12396Y7412D01*
X12396Y7940D01*
X12438Y7954D01*
X12455Y7963D01*
X12214Y8380D01*
X11797Y8139D01*
X11825Y8101D01*
X11861Y8065D01*
X11742Y8065D01*
X11674Y7996D01*
X11674Y8478D01*
X11699Y8478D01*
X11699Y8407D01*
X11712Y8324D01*
X11738Y8244D01*
X11747Y8226D01*
X12164Y8467D01*
X12214Y8380D01*
X12301Y8430D01*
X12542Y8013D01*
X12580Y8041D01*
X12640Y8101D01*
X12689Y8169D01*
X12727Y8244D01*
X12753Y8324D01*
X12766Y8407D01*
X12766Y8491D01*
X12753Y8574D01*
X12727Y8653D01*
X12718Y8671D01*
X12301Y8430D01*
X12251Y8517D01*
X12668Y8758D01*
X12640Y8796D01*
X12580Y8856D01*
X12512Y8905D01*
X12438Y8943D01*
X12358Y8969D01*
X12318Y8976D01*
X12351Y8989D01*
X12524Y9162D01*
X12682Y9162D01*
X12696Y9168D02*
X15841Y9168D01*
X15841Y9069D02*
X12431Y9069D01*
X12348Y8971D02*
X15841Y8971D01*
X15841Y8872D02*
X12558Y8872D01*
X12656Y8774D02*
X15841Y8774D01*
X15841Y8675D02*
X12525Y8675D01*
X12555Y8577D02*
X12355Y8577D01*
X12384Y8478D02*
X12273Y8478D01*
X12215Y8380D02*
X12330Y8380D01*
X12272Y8281D02*
X12387Y8281D01*
X12444Y8183D02*
X12328Y8183D01*
X12385Y8084D02*
X12501Y8084D01*
X12442Y7986D02*
X13334Y7986D01*
X13323Y7887D02*
X12396Y7887D01*
X12396Y7789D02*
X13323Y7789D01*
X13323Y7690D02*
X12396Y7690D01*
X12396Y7592D02*
X13323Y7592D01*
X13323Y7493D02*
X12396Y7493D01*
X12378Y7395D02*
X13323Y7395D01*
X13323Y7296D02*
X12280Y7296D01*
X12065Y6902D02*
X11312Y6902D01*
X11214Y6804D02*
X11967Y6804D01*
X12220Y6689D02*
X13507Y6689D01*
X13814Y6283D01*
X14514Y6283D01*
X15012Y6782D01*
X15911Y6782D01*
X16511Y7382D01*
X17818Y7382D01*
X18228Y7791D01*
X18228Y7899D01*
X18808Y7887D02*
X19195Y7887D01*
X19195Y7789D02*
X18808Y7789D01*
X18808Y7690D02*
X19195Y7690D01*
X19195Y7592D02*
X18741Y7592D01*
X18642Y7493D02*
X19195Y7493D01*
X19195Y7395D02*
X18553Y7395D01*
X18651Y7296D02*
X19195Y7296D01*
X19195Y7198D02*
X18750Y7198D01*
X18808Y7099D02*
X19195Y7099D01*
X19195Y7001D02*
X18808Y7001D01*
X17228Y6899D02*
X16628Y6899D01*
X16136Y6407D01*
X15748Y6410D02*
X15008Y6410D01*
X15106Y6508D02*
X15748Y6508D01*
X15748Y6522D02*
X15748Y6245D01*
X14964Y6245D01*
X14868Y6205D01*
X14795Y6132D01*
X14266Y5604D01*
X14252Y5589D01*
X14114Y5727D01*
X13928Y5804D01*
X13727Y5804D01*
X13690Y5789D01*
X13575Y5904D01*
X13480Y5943D01*
X12621Y5943D01*
X12231Y6333D01*
X12328Y6429D01*
X13378Y6429D01*
X13586Y6153D01*
X13593Y6136D01*
X13617Y6112D01*
X13637Y6085D01*
X13653Y6076D01*
X13666Y6063D01*
X13697Y6050D01*
X13726Y6033D01*
X13745Y6030D01*
X13762Y6023D01*
X13796Y6023D01*
X13829Y6019D01*
X13847Y6023D01*
X14565Y6023D01*
X14661Y6063D01*
X15120Y6522D01*
X15748Y6522D01*
X15748Y6311D02*
X14909Y6311D01*
X14886Y6213D02*
X14811Y6213D01*
X14795Y6132D02*
X14795Y6132D01*
X14777Y6114D02*
X14712Y6114D01*
X14679Y6016D02*
X12549Y6016D01*
X12450Y6114D02*
X13615Y6114D01*
X13541Y6213D02*
X12352Y6213D01*
X12253Y6311D02*
X13467Y6311D01*
X13393Y6410D02*
X12308Y6410D01*
X12030Y6499D02*
X12220Y6689D01*
X12030Y6499D02*
X10155Y6499D01*
X10155Y6243D02*
X11953Y6243D01*
X12514Y5683D01*
X13428Y5683D01*
X13828Y5283D01*
X13828Y5004D01*
X14220Y5622D02*
X14285Y5622D01*
X14266Y5604D02*
X14266Y5604D01*
X14383Y5720D02*
X14121Y5720D01*
X14482Y5819D02*
X13660Y5819D01*
X13542Y5917D02*
X14580Y5917D01*
X14976Y5445D02*
X15331Y5801D01*
X15796Y5801D01*
X16014Y5583D01*
X16520Y5583D01*
X16720Y5783D01*
X17210Y5783D01*
X17228Y5899D01*
X17818Y5382D02*
X16314Y5382D01*
X14976Y5445D02*
X14976Y4339D01*
X17057Y2667D02*
X17087Y2667D01*
X17124Y2568D02*
X17030Y2568D01*
X16978Y2470D02*
X17181Y2470D01*
X17237Y2371D02*
X16893Y2371D01*
X16731Y2273D02*
X17322Y2273D01*
X18461Y1879D02*
X6992Y1879D01*
X10514Y5183D02*
X10514Y5583D01*
X10365Y5732D01*
X10155Y5732D01*
X10155Y5988D02*
X10709Y5988D01*
X11114Y5583D01*
X11114Y5183D01*
X9514Y6083D02*
X9514Y6883D01*
X9642Y7011D01*
X10155Y7011D01*
X10155Y6755D02*
X10798Y6755D01*
X11728Y7686D01*
X11737Y7677D01*
X12007Y7677D01*
X11735Y7296D02*
X11706Y7296D01*
X11608Y7198D02*
X13323Y7198D01*
X13351Y7099D02*
X11509Y7099D01*
X11411Y7001D02*
X13391Y7001D01*
X13828Y7083D02*
X13828Y7563D01*
X14333Y7592D02*
X15551Y7592D01*
X15648Y7592D02*
X16353Y7592D01*
X16363Y7602D02*
X16045Y7284D01*
X16045Y7514D01*
X15648Y7514D01*
X15648Y7611D01*
X16045Y7611D01*
X16045Y7893D01*
X16034Y7962D01*
X16012Y8029D01*
X15980Y8091D01*
X15957Y8123D01*
X16006Y8123D01*
X16293Y7836D01*
X16366Y7763D01*
X16462Y7723D01*
X16648Y7723D01*
X16648Y7659D01*
X16665Y7642D01*
X16459Y7642D01*
X16363Y7602D01*
X16254Y7493D02*
X16045Y7493D01*
X16045Y7395D02*
X16156Y7395D01*
X16057Y7296D02*
X16045Y7296D01*
X16045Y7690D02*
X16648Y7690D01*
X16341Y7789D02*
X16045Y7789D01*
X16045Y7887D02*
X16242Y7887D01*
X16144Y7986D02*
X16026Y7986D01*
X16045Y8084D02*
X15984Y8084D01*
X16114Y8383D02*
X16514Y7983D01*
X17046Y7983D01*
X17228Y7899D01*
X17666Y8281D02*
X17790Y8281D01*
X17888Y8380D02*
X17568Y8380D01*
X17469Y8478D02*
X17987Y8478D01*
X17851Y8872D02*
X17261Y8872D01*
X17261Y8774D02*
X19195Y8774D01*
X19195Y8872D02*
X18203Y8872D01*
X18474Y8971D02*
X19195Y8971D01*
X19195Y9069D02*
X18620Y9069D01*
X18525Y8989D02*
X18525Y8989D01*
X18738Y9168D02*
X19195Y9168D01*
X19195Y9266D02*
X18821Y9266D01*
X18878Y9365D02*
X19195Y9365D01*
X19195Y9463D02*
X18935Y9463D01*
X18962Y9511D02*
X18962Y9511D01*
X18971Y9562D02*
X19195Y9562D01*
X19195Y9660D02*
X18989Y9660D01*
X19006Y9759D02*
X19195Y9759D01*
X19195Y9857D02*
X19021Y9857D01*
X19022Y9851D02*
X19022Y9851D01*
X19004Y9956D02*
X19188Y9956D01*
X19171Y10054D02*
X18986Y10054D01*
X18969Y10153D02*
X19145Y10153D01*
X19119Y10251D02*
X18928Y10251D01*
X18962Y10191D02*
X18962Y10191D01*
X18871Y10350D02*
X19076Y10350D01*
X19019Y10448D02*
X18814Y10448D01*
X18789Y10491D02*
X18789Y10491D01*
X18722Y10547D02*
X18962Y10547D01*
X18870Y10645D02*
X18605Y10645D01*
X18439Y10744D02*
X18772Y10744D01*
X18626Y10842D02*
X16927Y10842D01*
X16927Y10744D02*
X17615Y10744D01*
X17449Y10645D02*
X16927Y10645D01*
X16927Y10547D02*
X17332Y10547D01*
X17240Y10448D02*
X16927Y10448D01*
X16927Y10350D02*
X17183Y10350D01*
X17127Y10251D02*
X16927Y10251D01*
X16927Y10153D02*
X17085Y10153D01*
X17092Y10191D02*
X17092Y10191D01*
X17068Y10054D02*
X16927Y10054D01*
X16927Y9956D02*
X17050Y9956D01*
X17033Y9857D02*
X16927Y9857D01*
X16927Y9759D02*
X17048Y9759D01*
X17066Y9660D02*
X16927Y9660D01*
X16958Y9562D02*
X17083Y9562D01*
X17057Y9463D02*
X17119Y9463D01*
X17155Y9365D02*
X17176Y9365D01*
X17265Y9211D02*
X17265Y9211D01*
X17261Y9168D02*
X17317Y9168D01*
X17261Y9069D02*
X17434Y9069D01*
X17530Y8989D02*
X17530Y8989D01*
X17580Y8971D02*
X17261Y8971D01*
X17261Y8675D02*
X19195Y8675D01*
X19195Y8577D02*
X17166Y8577D01*
X16114Y8383D02*
X15014Y8383D01*
X14814Y8183D01*
X14426Y8183D02*
X14218Y8183D01*
X14281Y8084D02*
X14426Y8084D01*
X14426Y7986D02*
X14322Y7986D01*
X14333Y7887D02*
X14457Y7887D01*
X14333Y7789D02*
X15154Y7789D01*
X15154Y7690D02*
X14333Y7690D01*
X14333Y7493D02*
X15154Y7493D01*
X15154Y7395D02*
X14333Y7395D01*
X14333Y7296D02*
X15154Y7296D01*
X15160Y7198D02*
X14333Y7198D01*
X14305Y7099D02*
X15186Y7099D01*
X14864Y7001D02*
X14264Y7001D01*
X14177Y6902D02*
X14765Y6902D01*
X14667Y6804D02*
X14029Y6804D01*
X13821Y6705D02*
X14568Y6705D01*
X14470Y6607D02*
X13895Y6607D01*
X11414Y7783D02*
X11153Y7523D01*
X10155Y7523D01*
X10155Y7779D02*
X10509Y7779D01*
X10614Y7883D01*
X10614Y8183D01*
X10114Y8683D01*
X10114Y10383D01*
X10729Y9933D02*
X10829Y9933D01*
X10829Y9538D01*
X11045Y9538D01*
X11100Y9483D01*
X11045Y9428D01*
X10829Y9428D01*
X10829Y9033D01*
X10729Y9033D01*
X10729Y9428D01*
X10503Y9428D01*
X10465Y9418D01*
X10431Y9398D01*
X10403Y9371D01*
X10383Y9336D01*
X10374Y9300D01*
X10374Y9666D01*
X10383Y9630D01*
X10403Y9596D01*
X10431Y9568D01*
X10465Y9548D01*
X10503Y9538D01*
X10729Y9538D01*
X10729Y9933D01*
X10729Y9857D02*
X10829Y9857D01*
X10829Y9759D02*
X10729Y9759D01*
X10729Y9660D02*
X10829Y9660D01*
X10829Y9562D02*
X10729Y9562D01*
X11080Y9463D02*
X10374Y9463D01*
X10374Y9365D02*
X10400Y9365D01*
X10374Y9562D02*
X10442Y9562D01*
X10375Y9660D02*
X10374Y9660D01*
X10729Y9365D02*
X10829Y9365D01*
X10829Y9266D02*
X10729Y9266D01*
X10729Y9168D02*
X10829Y9168D01*
X10829Y9069D02*
X10729Y9069D01*
X10729Y8933D02*
X10829Y8933D01*
X10829Y8538D01*
X11045Y8538D01*
X11105Y8478D01*
X10686Y8478D01*
X10729Y8538D02*
X10627Y8538D01*
X10834Y8330D01*
X10874Y8235D01*
X10874Y7831D01*
X10854Y7783D01*
X11046Y7783D01*
X11154Y7891D01*
X11154Y8478D01*
X11105Y8478D01*
X11154Y8380D02*
X10785Y8380D01*
X10855Y8281D02*
X11154Y8281D01*
X11154Y8183D02*
X10874Y8183D01*
X10874Y8084D02*
X11154Y8084D01*
X11154Y7986D02*
X10874Y7986D01*
X10874Y7887D02*
X11150Y7887D01*
X11052Y7789D02*
X10856Y7789D01*
X11414Y7783D02*
X11414Y8949D01*
X10829Y8872D02*
X10729Y8872D01*
X10729Y8933D02*
X10729Y8538D01*
X10729Y8577D02*
X10829Y8577D01*
X10829Y8675D02*
X10729Y8675D01*
X10729Y8774D02*
X10829Y8774D01*
X10050Y8380D02*
X8640Y8380D01*
X9022Y8478D02*
X9951Y8478D01*
X9876Y8577D02*
X9705Y8577D01*
X9754Y8675D02*
X9854Y8675D01*
X9854Y8774D02*
X9754Y8774D01*
X9754Y8872D02*
X9854Y8872D01*
X9398Y8872D02*
X9298Y8872D01*
X9298Y8774D02*
X9398Y8774D01*
X9398Y8675D02*
X9298Y8675D01*
X9298Y8577D02*
X9398Y8577D01*
X9069Y8281D02*
X10148Y8281D01*
X10155Y8244D02*
X10155Y8048D01*
X10155Y8048D01*
X10155Y8244D01*
X10155Y8183D02*
X10155Y8183D01*
X10155Y8084D02*
X10155Y8084D01*
X9797Y8183D02*
X9102Y8183D01*
X9102Y8084D02*
X9769Y8084D01*
X9769Y7986D02*
X9102Y7986D01*
X9102Y7887D02*
X9709Y7887D01*
X9709Y7789D02*
X9102Y7789D01*
X9074Y7690D02*
X9709Y7690D01*
X9709Y7592D02*
X8958Y7592D01*
X9002Y7493D02*
X9164Y7493D01*
X9058Y7395D02*
X9002Y7395D01*
X9298Y7267D02*
X9114Y7083D01*
X9114Y6583D01*
X9298Y7267D02*
X10155Y7267D01*
X8698Y7267D02*
X8614Y7283D01*
X8698Y7267D02*
X7872Y7267D01*
X7872Y7523D02*
X8253Y7523D01*
X8714Y7983D01*
X7872Y7779D02*
X7444Y7779D01*
X7014Y8209D01*
X7014Y7583D01*
X6727Y6902D02*
X6086Y6902D01*
X5987Y6804D02*
X6826Y6804D01*
X7168Y6705D02*
X5745Y6705D01*
X6014Y8957D02*
X7014Y8957D01*
X7014Y9277D01*
X7517Y9780D01*
X7128Y9759D02*
X6481Y9759D01*
X6538Y9857D02*
X7129Y9857D01*
X7129Y9956D02*
X6568Y9956D01*
X6577Y10112D02*
X6566Y10184D01*
X6540Y10262D01*
X6503Y10335D01*
X6455Y10401D01*
X6397Y10459D01*
X6331Y10507D01*
X6258Y10544D01*
X6180Y10570D01*
X6108Y10581D01*
X6108Y10112D01*
X6577Y10112D01*
X6571Y10153D02*
X7236Y10153D01*
X7138Y10054D02*
X6108Y10054D01*
X6108Y9956D02*
X6008Y9956D01*
X6008Y9857D02*
X6108Y9857D01*
X6108Y9759D02*
X6008Y9759D01*
X6008Y9660D02*
X6108Y9660D01*
X6108Y9562D02*
X6008Y9562D01*
X5916Y9562D02*
X5774Y9562D01*
X5774Y9463D02*
X6832Y9463D01*
X6931Y9562D02*
X6200Y9562D01*
X6390Y9660D02*
X7029Y9660D01*
X6553Y9365D02*
X6474Y9365D01*
X6108Y10153D02*
X6008Y10153D01*
X6008Y10251D02*
X6108Y10251D01*
X6108Y10350D02*
X6008Y10350D01*
X6008Y10448D02*
X6108Y10448D01*
X6108Y10547D02*
X6008Y10547D01*
X5866Y10547D02*
X5394Y10547D01*
X5493Y10448D02*
X5709Y10448D01*
X5625Y10350D02*
X5567Y10350D01*
X6250Y10547D02*
X8002Y10547D01*
X7903Y10448D02*
X6408Y10448D01*
X6492Y10350D02*
X7888Y10350D01*
X7888Y10251D02*
X6544Y10251D01*
X7797Y10153D02*
X7888Y10153D01*
X11486Y10645D02*
X11643Y10645D01*
X11813Y10806D02*
X11849Y10841D01*
X11852Y10842D01*
X12284Y10941D02*
X1085Y10941D01*
X11674Y8380D02*
X11703Y8380D01*
X11726Y8281D02*
X11674Y8281D01*
X11674Y8183D02*
X11872Y8183D01*
X11843Y8281D02*
X12043Y8281D01*
X12013Y8380D02*
X12213Y8380D01*
X11842Y8084D02*
X11674Y8084D01*
X12623Y8084D02*
X13375Y8084D01*
X13438Y8183D02*
X12696Y8183D01*
X12740Y8281D02*
X13537Y8281D01*
X14119Y8281D02*
X14426Y8281D01*
X14426Y8380D02*
X12762Y8380D01*
X12766Y8478D02*
X14456Y8478D01*
X14840Y8577D02*
X12752Y8577D01*
X12316Y10251D02*
X12012Y10251D01*
X16903Y10941D02*
X18434Y10941D01*
X18469Y8478D02*
X19195Y8478D01*
X19195Y8380D02*
X18568Y8380D01*
X18666Y8281D02*
X19195Y8281D01*
X19195Y8183D02*
X18765Y8183D01*
X18808Y8084D02*
X19195Y8084D01*
X19195Y7986D02*
X18808Y7986D01*
X18228Y5899D02*
X18228Y5791D01*
X17818Y5382D01*
X18748Y4735D02*
X19195Y4735D01*
X19195Y4637D02*
X18701Y4637D01*
X18602Y4538D02*
X19195Y4538D01*
X19195Y4440D02*
X18504Y4440D01*
D27*
X17370Y4154D03*
X16484Y4941D03*
X14976Y4339D03*
X14968Y3485D03*
X15500Y3465D03*
X14320Y3483D03*
X11137Y3453D03*
X8468Y3112D03*
X7102Y2371D03*
X7102Y3945D03*
X7941Y4339D03*
X7939Y4880D03*
X6614Y4733D03*
X9514Y6083D03*
X9114Y6583D03*
X8614Y7283D03*
X8714Y7983D03*
X9514Y7983D03*
X10964Y7933D03*
X12007Y7677D03*
X12309Y7086D03*
X12651Y6289D03*
X14214Y5883D03*
X15598Y6418D03*
X16136Y6407D03*
X14414Y6833D03*
X14814Y8183D03*
X17370Y8682D03*
X12114Y10078D03*
X9514Y10633D03*
X7517Y9780D03*
X7014Y7583D03*
X5714Y7183D03*
X6564Y6783D03*
X4814Y6783D03*
X1014Y7883D03*
X1014Y4883D03*
X2301Y4396D03*
X10514Y5183D03*
X11114Y5183D03*
D28*
X7941Y4339D02*
X7941Y3565D01*
X7791Y3365D01*
X7796Y3365D01*
X7914Y3483D01*
X7102Y3158D02*
X7102Y3945D01*
X6403Y3370D02*
X5926Y3847D01*
X3854Y3847D01*
X3165Y3453D01*
X3165Y3375D01*
X4051Y3375D02*
X4279Y3483D01*
X5184Y3483D01*
X5116Y3364D01*
X5116Y2616D02*
X5647Y2075D01*
X6807Y2075D01*
X7102Y2371D01*
X6566Y2622D02*
X7102Y3158D01*
X6566Y2622D02*
X6403Y2622D01*
X6369Y2622D01*
X4051Y2548D02*
X3165Y2548D01*
X3149Y2648D01*
X2986Y2451D01*
X2771Y2666D01*
X2771Y5136D01*
X2534Y5373D01*
X2524Y5373D01*
X2214Y5683D01*
X1114Y5683D01*
X814Y5983D01*
X814Y6783D01*
X2414Y8383D01*
X2414Y8783D01*
X3014Y9383D01*
X3014Y10018D01*
X3058Y10062D01*
X3214Y9083D02*
X4888Y9083D01*
X5014Y8957D01*
X4214Y7783D02*
X3626Y8371D01*
X3500Y8371D01*
X2814Y8083D02*
X2814Y8683D01*
X3214Y9083D01*
X2814Y8083D02*
X3500Y7397D01*
X3500Y7386D01*
X3914Y6972D01*
X3914Y5783D01*
X3548Y5418D01*
X3500Y5418D01*
X4214Y5083D02*
X4214Y6183D01*
X4988Y6183D01*
X5014Y6157D01*
X4214Y6183D02*
X4214Y7783D01*
X6020Y6277D02*
X6564Y6783D01*
X5014Y5409D02*
X5014Y4911D01*
X5414Y4512D01*
X4214Y5083D02*
X3564Y4434D01*
X3500Y4434D01*
X9096Y2665D02*
X9136Y2606D01*
X10412Y2616D02*
X10844Y2174D01*
X11925Y2174D01*
X12510Y2759D01*
X12545Y2759D01*
X11414Y8949D02*
X11448Y8983D01*
X11583Y9218D01*
X12198Y9218D01*
X12592Y9612D01*
X12002Y10612D02*
X11583Y10218D01*
X11569Y10194D01*
X11448Y9983D01*
X12002Y10612D02*
X12592Y10612D01*
D29*
X8439Y9991D02*
X8679Y8983D01*
X8079Y8035D01*
X7872Y8035D01*
X8637Y9106D02*
X8437Y9989D01*
X8439Y9991D01*
X8413Y9991D01*
X8263Y9830D01*
X7517Y9780D01*
X8217Y9780D02*
X8263Y9830D01*
X8414Y9983D02*
X8637Y9106D01*
D30*
X1350Y11672D02*
X8100Y11672D01*
X8168Y11674D01*
X8235Y11679D01*
X8302Y11688D01*
X8369Y11701D01*
X8434Y11718D01*
X8499Y11737D01*
X8563Y11761D01*
X8625Y11788D01*
X8686Y11818D01*
X8744Y11851D01*
X8801Y11887D01*
X8856Y11927D01*
X8909Y11969D01*
X8960Y12015D01*
X9007Y12062D01*
X9053Y12113D01*
X9095Y12166D01*
X9135Y12221D01*
X9171Y12278D01*
X9204Y12336D01*
X9234Y12397D01*
X9261Y12459D01*
X9285Y12523D01*
X9304Y12588D01*
X9321Y12653D01*
X9334Y12720D01*
X9343Y12787D01*
X9348Y12854D01*
X9350Y12922D01*
X9350Y19672D01*
X9348Y19740D01*
X9343Y19807D01*
X9334Y19874D01*
X9321Y19941D01*
X9304Y20006D01*
X9285Y20071D01*
X9261Y20135D01*
X9234Y20197D01*
X9204Y20258D01*
X9171Y20316D01*
X9135Y20373D01*
X9095Y20428D01*
X9053Y20481D01*
X9007Y20532D01*
X8960Y20579D01*
X8909Y20625D01*
X8856Y20667D01*
X8801Y20707D01*
X8744Y20743D01*
X8686Y20776D01*
X8625Y20806D01*
X8563Y20833D01*
X8499Y20857D01*
X8434Y20876D01*
X8369Y20893D01*
X8302Y20906D01*
X8235Y20915D01*
X8168Y20920D01*
X8100Y20922D01*
X1350Y20922D01*
X1282Y20920D01*
X1215Y20915D01*
X1148Y20906D01*
X1081Y20893D01*
X1016Y20876D01*
X951Y20857D01*
X887Y20833D01*
X825Y20806D01*
X764Y20776D01*
X706Y20743D01*
X649Y20707D01*
X594Y20667D01*
X541Y20625D01*
X490Y20579D01*
X443Y20532D01*
X397Y20481D01*
X355Y20428D01*
X315Y20373D01*
X279Y20316D01*
X246Y20258D01*
X216Y20197D01*
X189Y20135D01*
X165Y20071D01*
X146Y20006D01*
X129Y19941D01*
X116Y19874D01*
X107Y19807D01*
X102Y19740D01*
X100Y19672D01*
X100Y12922D01*
X101Y12922D02*
X99Y12856D01*
X101Y12790D01*
X107Y12724D01*
X116Y12658D01*
X129Y12593D01*
X146Y12528D01*
X166Y12465D01*
X190Y12403D01*
X217Y12343D01*
X248Y12284D01*
X282Y12226D01*
X319Y12171D01*
X359Y12118D01*
X402Y12068D01*
X447Y12019D01*
X496Y11974D01*
X546Y11931D01*
X599Y11891D01*
X654Y11854D01*
X712Y11820D01*
X771Y11789D01*
X831Y11762D01*
X893Y11738D01*
X956Y11718D01*
X1021Y11701D01*
X1086Y11688D01*
X1152Y11679D01*
X1218Y11673D01*
X1284Y11671D01*
X1350Y11673D01*
X725Y14172D02*
X727Y14222D01*
X733Y14271D01*
X743Y14320D01*
X756Y14367D01*
X774Y14414D01*
X795Y14459D01*
X819Y14502D01*
X847Y14543D01*
X878Y14582D01*
X912Y14618D01*
X949Y14652D01*
X989Y14682D01*
X1030Y14709D01*
X1074Y14733D01*
X1119Y14753D01*
X1166Y14769D01*
X1214Y14782D01*
X1263Y14791D01*
X1313Y14796D01*
X1362Y14797D01*
X1412Y14794D01*
X1461Y14787D01*
X1510Y14776D01*
X1557Y14762D01*
X1603Y14743D01*
X1648Y14721D01*
X1691Y14696D01*
X1731Y14667D01*
X1769Y14635D01*
X1805Y14601D01*
X1838Y14563D01*
X1867Y14523D01*
X1893Y14481D01*
X1916Y14437D01*
X1935Y14391D01*
X1951Y14344D01*
X1963Y14295D01*
X1971Y14246D01*
X1975Y14197D01*
X1975Y14147D01*
X1971Y14098D01*
X1963Y14049D01*
X1951Y14000D01*
X1935Y13953D01*
X1916Y13907D01*
X1893Y13863D01*
X1867Y13821D01*
X1838Y13781D01*
X1805Y13743D01*
X1769Y13709D01*
X1731Y13677D01*
X1691Y13648D01*
X1648Y13623D01*
X1603Y13601D01*
X1557Y13582D01*
X1510Y13568D01*
X1461Y13557D01*
X1412Y13550D01*
X1362Y13547D01*
X1313Y13548D01*
X1263Y13553D01*
X1214Y13562D01*
X1166Y13575D01*
X1119Y13591D01*
X1074Y13611D01*
X1030Y13635D01*
X989Y13662D01*
X949Y13692D01*
X912Y13726D01*
X878Y13762D01*
X847Y13801D01*
X819Y13842D01*
X795Y13885D01*
X774Y13930D01*
X756Y13977D01*
X743Y14024D01*
X733Y14073D01*
X727Y14122D01*
X725Y14172D01*
X7475Y14172D02*
X7477Y14222D01*
X7483Y14271D01*
X7493Y14320D01*
X7506Y14367D01*
X7524Y14414D01*
X7545Y14459D01*
X7569Y14502D01*
X7597Y14543D01*
X7628Y14582D01*
X7662Y14618D01*
X7699Y14652D01*
X7739Y14682D01*
X7780Y14709D01*
X7824Y14733D01*
X7869Y14753D01*
X7916Y14769D01*
X7964Y14782D01*
X8013Y14791D01*
X8063Y14796D01*
X8112Y14797D01*
X8162Y14794D01*
X8211Y14787D01*
X8260Y14776D01*
X8307Y14762D01*
X8353Y14743D01*
X8398Y14721D01*
X8441Y14696D01*
X8481Y14667D01*
X8519Y14635D01*
X8555Y14601D01*
X8588Y14563D01*
X8617Y14523D01*
X8643Y14481D01*
X8666Y14437D01*
X8685Y14391D01*
X8701Y14344D01*
X8713Y14295D01*
X8721Y14246D01*
X8725Y14197D01*
X8725Y14147D01*
X8721Y14098D01*
X8713Y14049D01*
X8701Y14000D01*
X8685Y13953D01*
X8666Y13907D01*
X8643Y13863D01*
X8617Y13821D01*
X8588Y13781D01*
X8555Y13743D01*
X8519Y13709D01*
X8481Y13677D01*
X8441Y13648D01*
X8398Y13623D01*
X8353Y13601D01*
X8307Y13582D01*
X8260Y13568D01*
X8211Y13557D01*
X8162Y13550D01*
X8112Y13547D01*
X8063Y13548D01*
X8013Y13553D01*
X7964Y13562D01*
X7916Y13575D01*
X7869Y13591D01*
X7824Y13611D01*
X7780Y13635D01*
X7739Y13662D01*
X7699Y13692D01*
X7662Y13726D01*
X7628Y13762D01*
X7597Y13801D01*
X7569Y13842D01*
X7545Y13885D01*
X7524Y13930D01*
X7506Y13977D01*
X7493Y14024D01*
X7483Y14073D01*
X7477Y14122D01*
X7475Y14172D01*
D31*
X5709Y14094D03*
X4725Y14094D03*
X3741Y14094D03*
X3741Y19803D03*
X5709Y19803D03*
D32*
X7173Y17047D03*
X2277Y17047D03*
D33*
X6725Y12922D03*
D34*
X5725Y12922D03*
X4725Y12922D03*
X3725Y12922D03*
X2725Y12922D03*
D35*
X875Y16897D03*
X8625Y16897D03*
D36*
X8801Y12123D02*
X611Y12123D01*
X680Y12054D02*
X482Y12252D01*
X345Y12498D01*
X282Y12772D01*
X280Y12898D01*
X280Y12917D01*
X284Y12987D01*
X280Y12991D01*
X280Y13962D01*
X336Y13752D01*
X480Y13504D01*
X682Y13302D01*
X930Y13158D01*
X1207Y13084D01*
X1493Y13084D01*
X1770Y13158D01*
X2018Y13302D01*
X2220Y13504D01*
X2364Y13752D01*
X2438Y14029D01*
X2438Y14315D01*
X2364Y14592D01*
X2220Y14840D01*
X2018Y15042D01*
X1770Y15186D01*
X1493Y15260D01*
X1207Y15260D01*
X930Y15186D01*
X682Y15042D01*
X480Y14840D01*
X336Y14592D01*
X280Y14382D01*
X280Y19597D01*
X280Y19672D01*
X289Y19812D01*
X361Y20081D01*
X501Y20323D01*
X699Y20521D01*
X941Y20661D01*
X1210Y20733D01*
X1350Y20742D01*
X8100Y20742D01*
X8240Y20733D01*
X8509Y20661D01*
X8751Y20521D01*
X8949Y20323D01*
X9089Y20081D01*
X9161Y19812D01*
X9170Y19672D01*
X9170Y14382D01*
X9114Y14592D01*
X8970Y14840D01*
X8768Y15042D01*
X8520Y15186D01*
X8243Y15260D01*
X7957Y15260D01*
X7680Y15186D01*
X7432Y15042D01*
X7230Y14840D01*
X7086Y14592D01*
X7012Y14315D01*
X7012Y14029D01*
X7086Y13752D01*
X7230Y13504D01*
X7432Y13302D01*
X7680Y13158D01*
X7957Y13084D01*
X8243Y13084D01*
X8520Y13158D01*
X8768Y13302D01*
X8970Y13504D01*
X9114Y13752D01*
X9170Y13962D01*
X9170Y12922D01*
X9161Y12782D01*
X9089Y12513D01*
X8949Y12271D01*
X8751Y12073D01*
X8509Y11933D01*
X8240Y11861D01*
X8100Y11852D01*
X1419Y11852D01*
X1415Y11856D01*
X1345Y11852D01*
X1326Y11852D01*
X1200Y11854D01*
X926Y11917D01*
X680Y12054D01*
X842Y11964D02*
X8562Y11964D01*
X8955Y12281D02*
X466Y12281D01*
X378Y12440D02*
X9046Y12440D01*
X9111Y12598D02*
X7071Y12598D01*
X7101Y12628D02*
X7019Y12546D01*
X6431Y12546D01*
X6349Y12628D01*
X6349Y13216D01*
X6431Y13298D01*
X7019Y13298D01*
X7101Y13216D01*
X7101Y12628D01*
X7101Y12757D02*
X9154Y12757D01*
X9170Y12915D02*
X7101Y12915D01*
X7101Y13074D02*
X9170Y13074D01*
X9170Y13232D02*
X8647Y13232D01*
X8857Y13391D02*
X9170Y13391D01*
X9170Y13549D02*
X8996Y13549D01*
X9088Y13708D02*
X9170Y13708D01*
X9170Y13866D02*
X9144Y13866D01*
X9138Y14500D02*
X9170Y14500D01*
X9170Y14659D02*
X9075Y14659D01*
X8984Y14817D02*
X9170Y14817D01*
X9170Y14976D02*
X8835Y14976D01*
X8609Y15134D02*
X9170Y15134D01*
X9170Y15293D02*
X280Y15293D01*
X280Y15134D02*
X841Y15134D01*
X615Y14976D02*
X280Y14976D01*
X280Y14817D02*
X466Y14817D01*
X375Y14659D02*
X280Y14659D01*
X280Y14500D02*
X312Y14500D01*
X280Y13866D02*
X306Y13866D01*
X280Y13708D02*
X362Y13708D01*
X280Y13549D02*
X454Y13549D01*
X593Y13391D02*
X280Y13391D01*
X280Y13232D02*
X803Y13232D01*
X280Y13074D02*
X2381Y13074D01*
X2406Y13135D02*
X2349Y12997D01*
X2349Y12847D01*
X2406Y12709D01*
X2512Y12603D01*
X2650Y12546D01*
X2800Y12546D01*
X2938Y12603D01*
X3044Y12709D01*
X3101Y12847D01*
X3101Y12997D01*
X3044Y13135D01*
X2938Y13241D01*
X2800Y13298D01*
X2650Y13298D01*
X2512Y13241D01*
X2406Y13135D01*
X2503Y13232D02*
X1897Y13232D01*
X2107Y13391D02*
X7343Y13391D01*
X7204Y13549D02*
X2246Y13549D01*
X2338Y13708D02*
X3387Y13708D01*
X3444Y13650D02*
X3637Y13570D01*
X3845Y13570D01*
X4037Y13650D01*
X4185Y13798D01*
X4233Y13913D01*
X4281Y13798D01*
X4428Y13650D01*
X4621Y13570D01*
X4829Y13570D01*
X5022Y13650D01*
X5169Y13798D01*
X5217Y13913D01*
X5265Y13798D01*
X5413Y13650D01*
X5605Y13570D01*
X5813Y13570D01*
X6006Y13650D01*
X6153Y13798D01*
X6233Y13990D01*
X6233Y14198D01*
X6153Y14391D01*
X6006Y14538D01*
X5813Y14618D01*
X5605Y14618D01*
X5413Y14538D01*
X5265Y14391D01*
X5217Y14275D01*
X5169Y14391D01*
X5022Y14538D01*
X4829Y14618D01*
X4621Y14618D01*
X4428Y14538D01*
X4281Y14391D01*
X4233Y14275D01*
X4185Y14391D01*
X4037Y14538D01*
X3845Y14618D01*
X3637Y14618D01*
X3444Y14538D01*
X3297Y14391D01*
X3217Y14198D01*
X3217Y13990D01*
X3297Y13798D01*
X3444Y13650D01*
X3268Y13866D02*
X2394Y13866D01*
X2437Y14025D02*
X3217Y14025D01*
X3217Y14183D02*
X2438Y14183D01*
X2431Y14342D02*
X3276Y14342D01*
X3406Y14500D02*
X2388Y14500D01*
X2325Y14659D02*
X7125Y14659D01*
X7216Y14817D02*
X2234Y14817D01*
X2085Y14976D02*
X7365Y14976D01*
X7591Y15134D02*
X1859Y15134D01*
X2250Y16147D02*
X2250Y18147D01*
X1586Y17820D02*
X1504Y17738D01*
X1504Y16356D01*
X1586Y16274D01*
X2968Y16274D01*
X3050Y16356D01*
X3050Y17738D01*
X2968Y17820D01*
X1586Y17820D01*
X1504Y17670D02*
X280Y17670D01*
X280Y17829D02*
X9170Y17829D01*
X9170Y17670D02*
X7946Y17670D01*
X7946Y17738D02*
X7864Y17820D01*
X6482Y17820D01*
X6400Y17738D01*
X6400Y16356D01*
X6482Y16274D01*
X7864Y16274D01*
X7946Y16356D01*
X7946Y17738D01*
X7946Y17512D02*
X9170Y17512D01*
X9170Y17353D02*
X9015Y17353D01*
X8994Y17365D02*
X8949Y17377D01*
X8645Y17377D01*
X8645Y16917D01*
X9105Y16917D01*
X9105Y17221D01*
X9093Y17266D01*
X9069Y17308D01*
X9036Y17341D01*
X8994Y17365D01*
X9105Y17195D02*
X9170Y17195D01*
X9170Y17036D02*
X9105Y17036D01*
X9105Y16877D02*
X8645Y16877D01*
X8645Y16917D01*
X8605Y16917D01*
X8605Y17377D01*
X8301Y17377D01*
X8256Y17365D01*
X8214Y17341D01*
X8181Y17308D01*
X8157Y17266D01*
X8145Y17221D01*
X8145Y16917D01*
X8605Y16917D01*
X8605Y16877D01*
X8645Y16877D01*
X8645Y16417D01*
X8949Y16417D01*
X8994Y16429D01*
X9036Y16453D01*
X9069Y16486D01*
X9093Y16528D01*
X9105Y16573D01*
X9105Y16877D01*
X9170Y16878D02*
X8645Y16878D01*
X8605Y16878D02*
X7946Y16878D01*
X8000Y17022D02*
X6250Y17022D01*
X6400Y17036D02*
X3050Y17036D01*
X3050Y16878D02*
X6400Y16878D01*
X6400Y16719D02*
X3050Y16719D01*
X3050Y16561D02*
X6400Y16561D01*
X6400Y16402D02*
X3050Y16402D01*
X3250Y17022D02*
X1500Y17022D01*
X1504Y17036D02*
X1355Y17036D01*
X1355Y16917D02*
X1355Y17221D01*
X1343Y17266D01*
X1319Y17308D01*
X1286Y17341D01*
X1244Y17365D01*
X1199Y17377D01*
X895Y17377D01*
X895Y16917D01*
X1355Y16917D01*
X1355Y16877D02*
X895Y16877D01*
X895Y16917D01*
X855Y16917D01*
X855Y17377D01*
X551Y17377D01*
X506Y17365D01*
X464Y17341D01*
X431Y17308D01*
X407Y17266D01*
X395Y17221D01*
X395Y16917D01*
X855Y16917D01*
X855Y16877D01*
X895Y16877D01*
X895Y16417D01*
X1199Y16417D01*
X1244Y16429D01*
X1286Y16453D01*
X1319Y16486D01*
X1343Y16528D01*
X1355Y16573D01*
X1355Y16877D01*
X1504Y16878D02*
X895Y16878D01*
X855Y16878D02*
X280Y16878D01*
X395Y16877D02*
X395Y16573D01*
X407Y16528D01*
X431Y16486D01*
X464Y16453D01*
X506Y16429D01*
X551Y16417D01*
X855Y16417D01*
X855Y16877D01*
X395Y16877D01*
X395Y17036D02*
X280Y17036D01*
X280Y17195D02*
X395Y17195D01*
X485Y17353D02*
X280Y17353D01*
X280Y17512D02*
X1504Y17512D01*
X1504Y17353D02*
X1265Y17353D01*
X1355Y17195D02*
X1504Y17195D01*
X1504Y16719D02*
X1355Y16719D01*
X1352Y16561D02*
X1504Y16561D01*
X1504Y16402D02*
X280Y16402D01*
X280Y16244D02*
X9170Y16244D01*
X9170Y16402D02*
X7946Y16402D01*
X7946Y16561D02*
X8148Y16561D01*
X8145Y16573D02*
X8157Y16528D01*
X8181Y16486D01*
X8214Y16453D01*
X8256Y16429D01*
X8301Y16417D01*
X8605Y16417D01*
X8605Y16877D01*
X8145Y16877D01*
X8145Y16573D01*
X8145Y16719D02*
X7946Y16719D01*
X7946Y17036D02*
X8145Y17036D01*
X8145Y17195D02*
X7946Y17195D01*
X7946Y17353D02*
X8235Y17353D01*
X8605Y17353D02*
X8645Y17353D01*
X8645Y17195D02*
X8605Y17195D01*
X8605Y17036D02*
X8645Y17036D01*
X8645Y16719D02*
X8605Y16719D01*
X8605Y16561D02*
X8645Y16561D01*
X9102Y16561D02*
X9170Y16561D01*
X9170Y16719D02*
X9105Y16719D01*
X9170Y16085D02*
X280Y16085D01*
X280Y15927D02*
X9170Y15927D01*
X9170Y15768D02*
X280Y15768D01*
X280Y15610D02*
X9170Y15610D01*
X9170Y15451D02*
X280Y15451D01*
X280Y16561D02*
X398Y16561D01*
X395Y16719D02*
X280Y16719D01*
X855Y16719D02*
X895Y16719D01*
X895Y16561D02*
X855Y16561D01*
X855Y17036D02*
X895Y17036D01*
X895Y17195D02*
X855Y17195D01*
X855Y17353D02*
X895Y17353D01*
X280Y17987D02*
X9170Y17987D01*
X9170Y18146D02*
X280Y18146D01*
X280Y18304D02*
X9170Y18304D01*
X9170Y18463D02*
X280Y18463D01*
X280Y18621D02*
X9170Y18621D01*
X9170Y18780D02*
X280Y18780D01*
X280Y18938D02*
X9170Y18938D01*
X9170Y19097D02*
X280Y19097D01*
X280Y19255D02*
X9170Y19255D01*
X9170Y19414D02*
X6061Y19414D01*
X6006Y19359D02*
X6153Y19506D01*
X6233Y19699D01*
X6233Y19907D01*
X6153Y20100D01*
X6006Y20247D01*
X5813Y20327D01*
X5605Y20327D01*
X5413Y20247D01*
X5265Y20100D01*
X5185Y19907D01*
X5185Y19699D01*
X5265Y19506D01*
X5413Y19359D01*
X5605Y19279D01*
X5813Y19279D01*
X6006Y19359D01*
X6181Y19572D02*
X9170Y19572D01*
X9166Y19731D02*
X6233Y19731D01*
X6233Y19889D02*
X9140Y19889D01*
X9098Y20048D02*
X6175Y20048D01*
X6047Y20206D02*
X9017Y20206D01*
X8908Y20365D02*
X542Y20365D01*
X433Y20206D02*
X3403Y20206D01*
X3444Y20247D02*
X3297Y20100D01*
X3217Y19907D01*
X3217Y19699D01*
X3297Y19506D01*
X3444Y19359D01*
X3637Y19279D01*
X3845Y19279D01*
X4037Y19359D01*
X4185Y19506D01*
X4265Y19699D01*
X4265Y19907D01*
X4185Y20100D01*
X4037Y20247D01*
X3845Y20327D01*
X3637Y20327D01*
X3444Y20247D01*
X3275Y20048D02*
X352Y20048D01*
X310Y19889D02*
X3217Y19889D01*
X3217Y19731D02*
X284Y19731D01*
X280Y19572D02*
X3269Y19572D01*
X3389Y19414D02*
X280Y19414D01*
X702Y20523D02*
X8748Y20523D01*
X8431Y20682D02*
X1019Y20682D01*
X3050Y17670D02*
X6400Y17670D01*
X6400Y17512D02*
X3050Y17512D01*
X3050Y17353D02*
X6400Y17353D01*
X6400Y17195D02*
X3050Y17195D01*
X4092Y19414D02*
X5358Y19414D01*
X5238Y19572D02*
X4212Y19572D01*
X4265Y19731D02*
X5185Y19731D01*
X5185Y19889D02*
X4265Y19889D01*
X4206Y20048D02*
X5244Y20048D01*
X5372Y20206D02*
X4078Y20206D01*
X7125Y18147D02*
X7125Y15897D01*
X7062Y14500D02*
X6044Y14500D01*
X6174Y14342D02*
X7019Y14342D01*
X7012Y14183D02*
X6233Y14183D01*
X6233Y14025D02*
X7013Y14025D01*
X7056Y13866D02*
X6182Y13866D01*
X6063Y13708D02*
X7112Y13708D01*
X7085Y13232D02*
X7553Y13232D01*
X6365Y13232D02*
X5947Y13232D01*
X5938Y13241D02*
X5800Y13298D01*
X5650Y13298D01*
X5512Y13241D01*
X5406Y13135D01*
X5349Y12997D01*
X5349Y12847D01*
X5406Y12709D01*
X5512Y12603D01*
X5650Y12546D01*
X5800Y12546D01*
X5938Y12603D01*
X6044Y12709D01*
X6101Y12847D01*
X6101Y12997D01*
X6044Y13135D01*
X5938Y13241D01*
X6069Y13074D02*
X6349Y13074D01*
X6349Y12915D02*
X6101Y12915D01*
X6064Y12757D02*
X6349Y12757D01*
X6379Y12598D02*
X5926Y12598D01*
X5524Y12598D02*
X4926Y12598D01*
X4938Y12603D02*
X5044Y12709D01*
X5101Y12847D01*
X5101Y12997D01*
X5044Y13135D01*
X4938Y13241D01*
X4800Y13298D01*
X4650Y13298D01*
X4512Y13241D01*
X4406Y13135D01*
X4349Y12997D01*
X4349Y12847D01*
X4406Y12709D01*
X4512Y12603D01*
X4650Y12546D01*
X4800Y12546D01*
X4938Y12603D01*
X5064Y12757D02*
X5386Y12757D01*
X5349Y12915D02*
X5101Y12915D01*
X5069Y13074D02*
X5381Y13074D01*
X5503Y13232D02*
X4947Y13232D01*
X4503Y13232D02*
X3947Y13232D01*
X3938Y13241D02*
X3800Y13298D01*
X3650Y13298D01*
X3512Y13241D01*
X3406Y13135D01*
X3349Y12997D01*
X3349Y12847D01*
X3406Y12709D01*
X3512Y12603D01*
X3650Y12546D01*
X3800Y12546D01*
X3938Y12603D01*
X4044Y12709D01*
X4101Y12847D01*
X4101Y12997D01*
X4044Y13135D01*
X3938Y13241D01*
X4069Y13074D02*
X4381Y13074D01*
X4349Y12915D02*
X4101Y12915D01*
X4064Y12757D02*
X4386Y12757D01*
X4524Y12598D02*
X3926Y12598D01*
X3524Y12598D02*
X2926Y12598D01*
X3064Y12757D02*
X3386Y12757D01*
X3349Y12915D02*
X3101Y12915D01*
X3069Y13074D02*
X3381Y13074D01*
X3503Y13232D02*
X2947Y13232D01*
X2349Y12915D02*
X280Y12915D01*
X286Y12757D02*
X2386Y12757D01*
X2524Y12598D02*
X322Y12598D01*
X4095Y13708D02*
X4371Y13708D01*
X4253Y13866D02*
X4213Y13866D01*
X4205Y14342D02*
X4260Y14342D01*
X4390Y14500D02*
X4076Y14500D01*
X5060Y14500D02*
X5374Y14500D01*
X5245Y14342D02*
X5190Y14342D01*
X5197Y13866D02*
X5237Y13866D01*
X5355Y13708D02*
X5079Y13708D01*
D37*
X10101Y12922D02*
X10099Y12856D01*
X10101Y12790D01*
X10107Y12724D01*
X10116Y12658D01*
X10129Y12593D01*
X10146Y12528D01*
X10166Y12465D01*
X10190Y12403D01*
X10217Y12343D01*
X10248Y12284D01*
X10282Y12226D01*
X10319Y12171D01*
X10359Y12118D01*
X10402Y12068D01*
X10447Y12019D01*
X10496Y11974D01*
X10546Y11931D01*
X10599Y11891D01*
X10654Y11854D01*
X10712Y11820D01*
X10771Y11789D01*
X10831Y11762D01*
X10893Y11738D01*
X10956Y11718D01*
X11021Y11701D01*
X11086Y11688D01*
X11152Y11679D01*
X11218Y11673D01*
X11284Y11671D01*
X11350Y11673D01*
X11350Y11672D02*
X18100Y11672D01*
X18168Y11674D01*
X18235Y11679D01*
X18302Y11688D01*
X18369Y11701D01*
X18434Y11718D01*
X18499Y11737D01*
X18563Y11761D01*
X18625Y11788D01*
X18686Y11818D01*
X18744Y11851D01*
X18801Y11887D01*
X18856Y11927D01*
X18909Y11969D01*
X18960Y12015D01*
X19007Y12062D01*
X19053Y12113D01*
X19095Y12166D01*
X19135Y12221D01*
X19171Y12278D01*
X19204Y12336D01*
X19234Y12397D01*
X19261Y12459D01*
X19285Y12523D01*
X19304Y12588D01*
X19321Y12653D01*
X19334Y12720D01*
X19343Y12787D01*
X19348Y12854D01*
X19350Y12922D01*
X19350Y19672D01*
X19348Y19740D01*
X19343Y19807D01*
X19334Y19874D01*
X19321Y19941D01*
X19304Y20006D01*
X19285Y20071D01*
X19261Y20135D01*
X19234Y20197D01*
X19204Y20258D01*
X19171Y20316D01*
X19135Y20373D01*
X19095Y20428D01*
X19053Y20481D01*
X19007Y20532D01*
X18960Y20579D01*
X18909Y20625D01*
X18856Y20667D01*
X18801Y20707D01*
X18744Y20743D01*
X18686Y20776D01*
X18625Y20806D01*
X18563Y20833D01*
X18499Y20857D01*
X18434Y20876D01*
X18369Y20893D01*
X18302Y20906D01*
X18235Y20915D01*
X18168Y20920D01*
X18100Y20922D01*
X11350Y20922D01*
X10725Y19672D02*
X10727Y19722D01*
X10733Y19771D01*
X10743Y19820D01*
X10756Y19867D01*
X10774Y19914D01*
X10795Y19959D01*
X10819Y20002D01*
X10847Y20043D01*
X10878Y20082D01*
X10912Y20118D01*
X10949Y20152D01*
X10989Y20182D01*
X11030Y20209D01*
X11074Y20233D01*
X11119Y20253D01*
X11166Y20269D01*
X11214Y20282D01*
X11263Y20291D01*
X11313Y20296D01*
X11362Y20297D01*
X11412Y20294D01*
X11461Y20287D01*
X11510Y20276D01*
X11557Y20262D01*
X11603Y20243D01*
X11648Y20221D01*
X11691Y20196D01*
X11731Y20167D01*
X11769Y20135D01*
X11805Y20101D01*
X11838Y20063D01*
X11867Y20023D01*
X11893Y19981D01*
X11916Y19937D01*
X11935Y19891D01*
X11951Y19844D01*
X11963Y19795D01*
X11971Y19746D01*
X11975Y19697D01*
X11975Y19647D01*
X11971Y19598D01*
X11963Y19549D01*
X11951Y19500D01*
X11935Y19453D01*
X11916Y19407D01*
X11893Y19363D01*
X11867Y19321D01*
X11838Y19281D01*
X11805Y19243D01*
X11769Y19209D01*
X11731Y19177D01*
X11691Y19148D01*
X11648Y19123D01*
X11603Y19101D01*
X11557Y19082D01*
X11510Y19068D01*
X11461Y19057D01*
X11412Y19050D01*
X11362Y19047D01*
X11313Y19048D01*
X11263Y19053D01*
X11214Y19062D01*
X11166Y19075D01*
X11119Y19091D01*
X11074Y19111D01*
X11030Y19135D01*
X10989Y19162D01*
X10949Y19192D01*
X10912Y19226D01*
X10878Y19262D01*
X10847Y19301D01*
X10819Y19342D01*
X10795Y19385D01*
X10774Y19430D01*
X10756Y19477D01*
X10743Y19524D01*
X10733Y19573D01*
X10727Y19622D01*
X10725Y19672D01*
X10100Y19672D02*
X10100Y12922D01*
X10725Y12922D02*
X10727Y12972D01*
X10733Y13021D01*
X10743Y13070D01*
X10756Y13117D01*
X10774Y13164D01*
X10795Y13209D01*
X10819Y13252D01*
X10847Y13293D01*
X10878Y13332D01*
X10912Y13368D01*
X10949Y13402D01*
X10989Y13432D01*
X11030Y13459D01*
X11074Y13483D01*
X11119Y13503D01*
X11166Y13519D01*
X11214Y13532D01*
X11263Y13541D01*
X11313Y13546D01*
X11362Y13547D01*
X11412Y13544D01*
X11461Y13537D01*
X11510Y13526D01*
X11557Y13512D01*
X11603Y13493D01*
X11648Y13471D01*
X11691Y13446D01*
X11731Y13417D01*
X11769Y13385D01*
X11805Y13351D01*
X11838Y13313D01*
X11867Y13273D01*
X11893Y13231D01*
X11916Y13187D01*
X11935Y13141D01*
X11951Y13094D01*
X11963Y13045D01*
X11971Y12996D01*
X11975Y12947D01*
X11975Y12897D01*
X11971Y12848D01*
X11963Y12799D01*
X11951Y12750D01*
X11935Y12703D01*
X11916Y12657D01*
X11893Y12613D01*
X11867Y12571D01*
X11838Y12531D01*
X11805Y12493D01*
X11769Y12459D01*
X11731Y12427D01*
X11691Y12398D01*
X11648Y12373D01*
X11603Y12351D01*
X11557Y12332D01*
X11510Y12318D01*
X11461Y12307D01*
X11412Y12300D01*
X11362Y12297D01*
X11313Y12298D01*
X11263Y12303D01*
X11214Y12312D01*
X11166Y12325D01*
X11119Y12341D01*
X11074Y12361D01*
X11030Y12385D01*
X10989Y12412D01*
X10949Y12442D01*
X10912Y12476D01*
X10878Y12512D01*
X10847Y12551D01*
X10819Y12592D01*
X10795Y12635D01*
X10774Y12680D01*
X10756Y12727D01*
X10743Y12774D01*
X10733Y12823D01*
X10727Y12872D01*
X10725Y12922D01*
X10100Y19672D02*
X10102Y19740D01*
X10107Y19807D01*
X10116Y19874D01*
X10129Y19941D01*
X10146Y20006D01*
X10165Y20071D01*
X10189Y20135D01*
X10216Y20197D01*
X10246Y20258D01*
X10279Y20316D01*
X10315Y20373D01*
X10355Y20428D01*
X10397Y20481D01*
X10443Y20532D01*
X10490Y20579D01*
X10541Y20625D01*
X10594Y20667D01*
X10649Y20707D01*
X10706Y20743D01*
X10764Y20776D01*
X10825Y20806D01*
X10887Y20833D01*
X10951Y20857D01*
X11016Y20876D01*
X11081Y20893D01*
X11148Y20906D01*
X11215Y20915D01*
X11282Y20920D01*
X11350Y20922D01*
X17475Y19672D02*
X17477Y19722D01*
X17483Y19771D01*
X17493Y19820D01*
X17506Y19867D01*
X17524Y19914D01*
X17545Y19959D01*
X17569Y20002D01*
X17597Y20043D01*
X17628Y20082D01*
X17662Y20118D01*
X17699Y20152D01*
X17739Y20182D01*
X17780Y20209D01*
X17824Y20233D01*
X17869Y20253D01*
X17916Y20269D01*
X17964Y20282D01*
X18013Y20291D01*
X18063Y20296D01*
X18112Y20297D01*
X18162Y20294D01*
X18211Y20287D01*
X18260Y20276D01*
X18307Y20262D01*
X18353Y20243D01*
X18398Y20221D01*
X18441Y20196D01*
X18481Y20167D01*
X18519Y20135D01*
X18555Y20101D01*
X18588Y20063D01*
X18617Y20023D01*
X18643Y19981D01*
X18666Y19937D01*
X18685Y19891D01*
X18701Y19844D01*
X18713Y19795D01*
X18721Y19746D01*
X18725Y19697D01*
X18725Y19647D01*
X18721Y19598D01*
X18713Y19549D01*
X18701Y19500D01*
X18685Y19453D01*
X18666Y19407D01*
X18643Y19363D01*
X18617Y19321D01*
X18588Y19281D01*
X18555Y19243D01*
X18519Y19209D01*
X18481Y19177D01*
X18441Y19148D01*
X18398Y19123D01*
X18353Y19101D01*
X18307Y19082D01*
X18260Y19068D01*
X18211Y19057D01*
X18162Y19050D01*
X18112Y19047D01*
X18063Y19048D01*
X18013Y19053D01*
X17964Y19062D01*
X17916Y19075D01*
X17869Y19091D01*
X17824Y19111D01*
X17780Y19135D01*
X17739Y19162D01*
X17699Y19192D01*
X17662Y19226D01*
X17628Y19262D01*
X17597Y19301D01*
X17569Y19342D01*
X17545Y19385D01*
X17524Y19430D01*
X17506Y19477D01*
X17493Y19524D01*
X17483Y19573D01*
X17477Y19622D01*
X17475Y19672D01*
X17475Y12922D02*
X17477Y12972D01*
X17483Y13021D01*
X17493Y13070D01*
X17506Y13117D01*
X17524Y13164D01*
X17545Y13209D01*
X17569Y13252D01*
X17597Y13293D01*
X17628Y13332D01*
X17662Y13368D01*
X17699Y13402D01*
X17739Y13432D01*
X17780Y13459D01*
X17824Y13483D01*
X17869Y13503D01*
X17916Y13519D01*
X17964Y13532D01*
X18013Y13541D01*
X18063Y13546D01*
X18112Y13547D01*
X18162Y13544D01*
X18211Y13537D01*
X18260Y13526D01*
X18307Y13512D01*
X18353Y13493D01*
X18398Y13471D01*
X18441Y13446D01*
X18481Y13417D01*
X18519Y13385D01*
X18555Y13351D01*
X18588Y13313D01*
X18617Y13273D01*
X18643Y13231D01*
X18666Y13187D01*
X18685Y13141D01*
X18701Y13094D01*
X18713Y13045D01*
X18721Y12996D01*
X18725Y12947D01*
X18725Y12897D01*
X18721Y12848D01*
X18713Y12799D01*
X18701Y12750D01*
X18685Y12703D01*
X18666Y12657D01*
X18643Y12613D01*
X18617Y12571D01*
X18588Y12531D01*
X18555Y12493D01*
X18519Y12459D01*
X18481Y12427D01*
X18441Y12398D01*
X18398Y12373D01*
X18353Y12351D01*
X18307Y12332D01*
X18260Y12318D01*
X18211Y12307D01*
X18162Y12300D01*
X18112Y12297D01*
X18063Y12298D01*
X18013Y12303D01*
X17964Y12312D01*
X17916Y12325D01*
X17869Y12341D01*
X17824Y12361D01*
X17780Y12385D01*
X17739Y12412D01*
X17699Y12442D01*
X17662Y12476D01*
X17628Y12512D01*
X17597Y12551D01*
X17569Y12592D01*
X17545Y12635D01*
X17524Y12680D01*
X17506Y12727D01*
X17493Y12774D01*
X17483Y12823D01*
X17477Y12872D01*
X17475Y12922D01*
D38*
X18100Y14797D03*
X11350Y14797D03*
D39*
X11350Y15797D03*
X11350Y16797D03*
X11350Y17797D03*
X18100Y17797D03*
X18100Y16797D03*
X18100Y15797D03*
D40*
X15600Y16230D03*
X15100Y16230D03*
X14600Y16230D03*
X14100Y16230D03*
X14100Y18356D03*
X14600Y18356D03*
X15100Y18356D03*
X15600Y18356D03*
D41*
X15475Y19423D03*
X15475Y20171D03*
X13975Y20171D03*
X13975Y19423D03*
X13475Y15171D03*
X13475Y14423D03*
X14975Y14423D03*
X14975Y15171D03*
X16475Y15171D03*
X16475Y14423D03*
D42*
X11172Y12146D02*
X10560Y12146D01*
X10466Y12240D02*
X10327Y12491D01*
X10262Y12770D01*
X10260Y12901D01*
X10260Y12918D01*
X10263Y12980D01*
X10260Y12983D01*
X10260Y19672D01*
X10273Y19843D01*
X10379Y20167D01*
X10579Y20443D01*
X10855Y20643D01*
X11179Y20749D01*
X11350Y20762D01*
X18100Y20762D01*
X18271Y20749D01*
X18595Y20643D01*
X18755Y20527D01*
X18512Y20667D01*
X18241Y20740D01*
X17959Y20740D01*
X17688Y20667D01*
X17444Y20526D01*
X17246Y20328D01*
X17105Y20084D01*
X17032Y19813D01*
X17032Y19531D01*
X17105Y19260D01*
X17246Y19016D01*
X17444Y18818D01*
X17688Y18677D01*
X17959Y18604D01*
X18241Y18604D01*
X18512Y18677D01*
X18756Y18818D01*
X18954Y19016D01*
X19095Y19260D01*
X19168Y19531D01*
X19168Y19813D01*
X19095Y20084D01*
X18955Y20327D01*
X19071Y20167D01*
X19177Y19843D01*
X19190Y19672D01*
X19190Y12922D01*
X19177Y12751D01*
X19071Y12427D01*
X18871Y12151D01*
X18595Y11951D01*
X18271Y11845D01*
X18100Y11832D01*
X11411Y11832D01*
X11408Y11835D01*
X11346Y11832D01*
X11329Y11832D01*
X11198Y11834D01*
X10919Y11899D01*
X10668Y12038D01*
X10466Y12240D01*
X10452Y12265D02*
X10897Y12265D01*
X10905Y12257D02*
X11194Y12137D01*
X11506Y12137D01*
X11795Y12257D01*
X12015Y12477D01*
X12135Y12766D01*
X12135Y13078D01*
X12015Y13367D01*
X11795Y13587D01*
X11506Y13707D01*
X11194Y13707D01*
X10905Y13587D01*
X10685Y13367D01*
X10565Y13078D01*
X10565Y12766D01*
X10685Y12477D01*
X10905Y12257D01*
X10779Y12383D02*
X10386Y12383D01*
X10324Y12502D02*
X10674Y12502D01*
X10625Y12620D02*
X10297Y12620D01*
X10270Y12739D02*
X10576Y12739D01*
X10565Y12857D02*
X10261Y12857D01*
X10263Y12976D02*
X10565Y12976D01*
X10572Y13094D02*
X10260Y13094D01*
X10260Y13213D02*
X10621Y13213D01*
X10670Y13331D02*
X10260Y13331D01*
X10260Y13450D02*
X10767Y13450D01*
X10886Y13568D02*
X10260Y13568D01*
X10260Y13687D02*
X11144Y13687D01*
X11556Y13687D02*
X17365Y13687D01*
X17449Y13770D02*
X17252Y13573D01*
X17112Y13331D01*
X12030Y13331D01*
X12079Y13213D02*
X17080Y13213D01*
X17112Y13331D02*
X17040Y13062D01*
X17040Y12782D01*
X17112Y12513D01*
X17252Y12271D01*
X17449Y12074D01*
X17691Y11934D01*
X17960Y11862D01*
X18240Y11862D01*
X18509Y11934D01*
X18751Y12074D01*
X18948Y12271D01*
X19088Y12513D01*
X19160Y12782D01*
X19160Y13062D01*
X19088Y13331D01*
X19190Y13331D01*
X19088Y13331D02*
X18948Y13573D01*
X18751Y13770D01*
X18509Y13910D01*
X18240Y13982D01*
X17960Y13982D01*
X17691Y13910D01*
X17449Y13770D01*
X17509Y13805D02*
X10260Y13805D01*
X10260Y13924D02*
X17742Y13924D01*
X17709Y14267D02*
X18060Y14267D01*
X18060Y14757D01*
X18140Y14757D01*
X18140Y14837D01*
X18630Y14837D01*
X18630Y15188D01*
X18619Y15229D01*
X18598Y15265D01*
X18568Y15295D01*
X18532Y15316D01*
X18491Y15327D01*
X18246Y15327D01*
X18378Y15382D01*
X18515Y15519D01*
X18590Y15700D01*
X18590Y15894D01*
X18515Y16075D01*
X18378Y16212D01*
X18197Y16287D01*
X18003Y16287D01*
X17925Y16255D01*
X17750Y16430D01*
X15838Y16430D01*
X15838Y16585D01*
X15826Y16597D01*
X17652Y16597D01*
X17685Y16519D01*
X17822Y16382D01*
X18003Y16307D01*
X18197Y16307D01*
X18378Y16382D01*
X18515Y16519D01*
X18590Y16700D01*
X18590Y16894D01*
X18515Y17075D01*
X18378Y17212D01*
X18197Y17287D01*
X18003Y17287D01*
X17822Y17212D01*
X17685Y17075D01*
X17652Y16997D01*
X15142Y16997D01*
X15025Y16880D01*
X14900Y16755D01*
X14900Y16623D01*
X14862Y16585D01*
X14862Y15875D01*
X14900Y15837D01*
X14900Y15547D01*
X14630Y15547D01*
X14560Y15477D01*
X14560Y14865D01*
X14628Y14797D01*
X14560Y14729D01*
X14560Y14623D01*
X13890Y14623D01*
X13890Y14729D01*
X13822Y14797D01*
X13890Y14865D01*
X13890Y14972D01*
X13933Y14972D01*
X13933Y14972D01*
X13933Y14972D01*
X13992Y15031D01*
X14683Y15722D01*
X14766Y15805D01*
X14768Y15805D01*
X14838Y15875D01*
X14838Y16585D01*
X14800Y16623D01*
X14800Y16755D01*
X14433Y17122D01*
X11718Y17122D01*
X11628Y17212D01*
X11447Y17287D01*
X11253Y17287D01*
X11072Y17212D01*
X10935Y17075D01*
X10862Y16900D01*
X10862Y17694D01*
X10935Y17519D01*
X11072Y17382D01*
X11253Y17307D01*
X11447Y17307D01*
X11628Y17382D01*
X11718Y17472D01*
X14433Y17472D01*
X14550Y17589D01*
X14800Y17839D01*
X14800Y17963D01*
X14838Y18001D01*
X14838Y18711D01*
X14800Y18749D01*
X14800Y18880D01*
X14683Y18997D01*
X14390Y19290D01*
X14390Y19729D01*
X14322Y19797D01*
X14390Y19865D01*
X14390Y19971D01*
X15060Y19971D01*
X15060Y19865D01*
X15128Y19797D01*
X15060Y19729D01*
X15060Y19117D01*
X15099Y19078D01*
X14900Y18880D01*
X14900Y18749D01*
X14862Y18711D01*
X14862Y18001D01*
X14900Y17963D01*
X14900Y17839D01*
X15025Y17714D01*
X15142Y17597D01*
X14558Y17597D01*
X14439Y17479D02*
X17726Y17479D01*
X17685Y17519D02*
X17822Y17382D01*
X18003Y17307D01*
X18197Y17307D01*
X18378Y17382D01*
X18515Y17519D01*
X18590Y17700D01*
X18590Y17894D01*
X18515Y18075D01*
X18378Y18212D01*
X18197Y18287D01*
X18003Y18287D01*
X17822Y18212D01*
X17685Y18075D01*
X17652Y17997D01*
X15834Y17997D01*
X15838Y18001D01*
X15838Y18711D01*
X15768Y18781D01*
X15432Y18781D01*
X15362Y18711D01*
X15362Y18001D01*
X15366Y17997D01*
X15334Y17997D01*
X15338Y18001D01*
X15338Y18711D01*
X15317Y18732D01*
X15558Y18972D01*
X15633Y19047D01*
X15820Y19047D01*
X15890Y19117D01*
X15890Y19729D01*
X15822Y19797D01*
X15890Y19865D01*
X15890Y20477D01*
X15820Y20547D01*
X15130Y20547D01*
X15060Y20477D01*
X15060Y20371D01*
X14390Y20371D01*
X14390Y20477D01*
X14320Y20547D01*
X13630Y20547D01*
X13560Y20477D01*
X13560Y20352D01*
X11892Y18684D01*
X10830Y18684D01*
X10580Y18434D01*
X10463Y18317D01*
X10463Y16402D01*
X10892Y15972D01*
X10860Y15894D01*
X10860Y15700D01*
X10935Y15519D01*
X11072Y15382D01*
X11204Y15327D01*
X10959Y15327D01*
X10918Y15316D01*
X10882Y15295D01*
X10852Y15265D01*
X10831Y15229D01*
X10820Y15188D01*
X10820Y14837D01*
X11310Y14837D01*
X11310Y14757D01*
X11390Y14757D01*
X11390Y14837D01*
X11880Y14837D01*
X11880Y14984D01*
X12641Y14223D01*
X13060Y14223D01*
X13060Y14117D01*
X13130Y14047D01*
X13820Y14047D01*
X13890Y14117D01*
X13890Y14223D01*
X14560Y14223D01*
X14560Y14117D01*
X14630Y14047D01*
X15320Y14047D01*
X15390Y14117D01*
X15390Y14223D01*
X16060Y14223D01*
X16060Y14117D01*
X16130Y14047D01*
X16820Y14047D01*
X16890Y14117D01*
X16890Y14304D01*
X17570Y14984D01*
X17570Y14837D01*
X18060Y14837D01*
X18060Y14757D01*
X17570Y14757D01*
X17570Y14406D01*
X17581Y14365D01*
X17602Y14329D01*
X17632Y14299D01*
X17668Y14278D01*
X17709Y14267D01*
X17666Y14279D02*
X16890Y14279D01*
X16890Y14161D02*
X19190Y14161D01*
X19190Y14279D02*
X18534Y14279D01*
X18532Y14278D02*
X18568Y14299D01*
X18598Y14329D01*
X18619Y14365D01*
X18630Y14406D01*
X18630Y14757D01*
X18140Y14757D01*
X18140Y14267D01*
X18491Y14267D01*
X18532Y14278D01*
X18628Y14398D02*
X19190Y14398D01*
X19190Y14516D02*
X18630Y14516D01*
X18630Y14635D02*
X19190Y14635D01*
X19190Y14753D02*
X18630Y14753D01*
X18630Y14872D02*
X19190Y14872D01*
X19190Y14990D02*
X18630Y14990D01*
X18630Y15109D02*
X19190Y15109D01*
X19190Y15227D02*
X18620Y15227D01*
X18460Y15464D02*
X19190Y15464D01*
X19190Y15346D02*
X18290Y15346D01*
X18542Y15583D02*
X19190Y15583D01*
X19190Y15701D02*
X18590Y15701D01*
X18590Y15820D02*
X19190Y15820D01*
X19190Y15938D02*
X18572Y15938D01*
X18523Y16057D02*
X19190Y16057D01*
X19190Y16175D02*
X18415Y16175D01*
X18408Y16412D02*
X19190Y16412D01*
X19190Y16531D02*
X18520Y16531D01*
X18569Y16649D02*
X19190Y16649D01*
X19190Y16768D02*
X18590Y16768D01*
X18590Y16886D02*
X19190Y16886D01*
X19190Y17005D02*
X18544Y17005D01*
X18467Y17123D02*
X19190Y17123D01*
X19190Y17242D02*
X18307Y17242D01*
X18325Y17360D02*
X19190Y17360D01*
X19190Y17479D02*
X18474Y17479D01*
X18548Y17597D02*
X19190Y17597D01*
X19190Y17716D02*
X18590Y17716D01*
X18590Y17834D02*
X19190Y17834D01*
X19190Y17953D02*
X18566Y17953D01*
X18517Y18071D02*
X19190Y18071D01*
X19190Y18190D02*
X18400Y18190D01*
X18462Y18664D02*
X19190Y18664D01*
X19190Y18782D02*
X18694Y18782D01*
X18839Y18901D02*
X19190Y18901D01*
X19190Y19019D02*
X18956Y19019D01*
X19024Y19138D02*
X19190Y19138D01*
X19190Y19256D02*
X19093Y19256D01*
X19126Y19375D02*
X19190Y19375D01*
X19190Y19493D02*
X19157Y19493D01*
X19168Y19612D02*
X19190Y19612D01*
X19185Y19730D02*
X19168Y19730D01*
X19158Y19849D02*
X19175Y19849D01*
X19136Y19967D02*
X19126Y19967D01*
X19098Y20086D02*
X19094Y20086D01*
X19044Y20204D02*
X19026Y20204D01*
X18957Y20323D02*
X18958Y20323D01*
X18710Y20560D02*
X18698Y20560D01*
X18488Y20678D02*
X18471Y20678D01*
X17729Y20678D02*
X10962Y20678D01*
X10740Y20560D02*
X17502Y20560D01*
X17359Y20441D02*
X15890Y20441D01*
X15890Y20323D02*
X17243Y20323D01*
X17174Y20204D02*
X15890Y20204D01*
X15890Y20086D02*
X17106Y20086D01*
X17074Y19967D02*
X15890Y19967D01*
X15873Y19849D02*
X17042Y19849D01*
X17032Y19730D02*
X15889Y19730D01*
X15890Y19612D02*
X17032Y19612D01*
X17043Y19493D02*
X15890Y19493D01*
X15890Y19375D02*
X17074Y19375D01*
X17107Y19256D02*
X15890Y19256D01*
X15890Y19138D02*
X17176Y19138D01*
X17244Y19019D02*
X15605Y19019D01*
X15486Y18901D02*
X17361Y18901D01*
X17506Y18782D02*
X15368Y18782D01*
X15362Y18664D02*
X15338Y18664D01*
X15338Y18545D02*
X15362Y18545D01*
X15362Y18427D02*
X15338Y18427D01*
X15338Y18308D02*
X15362Y18308D01*
X15362Y18190D02*
X15338Y18190D01*
X15338Y18071D02*
X15362Y18071D01*
X15024Y17716D02*
X14676Y17716D01*
X14795Y17834D02*
X14905Y17834D01*
X14900Y17953D02*
X14800Y17953D01*
X14838Y18071D02*
X14862Y18071D01*
X14862Y18190D02*
X14838Y18190D01*
X14838Y18308D02*
X14862Y18308D01*
X14862Y18427D02*
X14838Y18427D01*
X14838Y18545D02*
X14862Y18545D01*
X14862Y18664D02*
X14838Y18664D01*
X14800Y18782D02*
X14900Y18782D01*
X14921Y18901D02*
X14779Y18901D01*
X14661Y19019D02*
X15039Y19019D01*
X15060Y19138D02*
X14542Y19138D01*
X14424Y19256D02*
X15060Y19256D01*
X15060Y19375D02*
X14390Y19375D01*
X14390Y19493D02*
X15060Y19493D01*
X15060Y19612D02*
X14390Y19612D01*
X14389Y19730D02*
X15061Y19730D01*
X15077Y19849D02*
X14373Y19849D01*
X14390Y19967D02*
X15060Y19967D01*
X15060Y20441D02*
X14390Y20441D01*
X13628Y19797D02*
X13560Y19729D01*
X13560Y19117D01*
X13630Y19047D01*
X14067Y19047D01*
X14383Y18732D01*
X14369Y18718D01*
X14367Y18723D01*
X14346Y18759D01*
X14316Y18789D01*
X14280Y18810D01*
X14239Y18821D01*
X14100Y18821D01*
X13961Y18821D01*
X13920Y18810D01*
X13884Y18789D01*
X13854Y18759D01*
X13833Y18723D01*
X13822Y18682D01*
X13822Y18356D01*
X13822Y18030D01*
X13833Y17989D01*
X13854Y17953D01*
X13884Y17923D01*
X13920Y17902D01*
X13961Y17891D01*
X14100Y17891D01*
X14239Y17891D01*
X14280Y17902D01*
X14316Y17923D01*
X14346Y17953D01*
X14367Y17989D01*
X14369Y17994D01*
X14379Y17984D01*
X14267Y17872D01*
X11840Y17872D01*
X11840Y17894D01*
X11765Y18075D01*
X11628Y18212D01*
X11453Y18285D01*
X12058Y18285D01*
X13599Y19826D01*
X13628Y19797D01*
X13561Y19730D02*
X13503Y19730D01*
X13560Y19612D02*
X13385Y19612D01*
X13266Y19493D02*
X13560Y19493D01*
X13560Y19375D02*
X13148Y19375D01*
X13029Y19256D02*
X13560Y19256D01*
X13560Y19138D02*
X12911Y19138D01*
X12792Y19019D02*
X14095Y19019D01*
X14214Y18901D02*
X12674Y18901D01*
X12555Y18782D02*
X13876Y18782D01*
X13822Y18664D02*
X12437Y18664D01*
X12318Y18545D02*
X13822Y18545D01*
X13822Y18427D02*
X12200Y18427D01*
X12081Y18308D02*
X13822Y18308D01*
X13822Y18356D02*
X14100Y18356D01*
X14100Y17891D01*
X14100Y18356D01*
X14100Y18356D01*
X14100Y18356D01*
X13822Y18356D01*
X13822Y18190D02*
X11650Y18190D01*
X11767Y18071D02*
X13822Y18071D01*
X13854Y17953D02*
X11816Y17953D01*
X11575Y17360D02*
X17875Y17360D01*
X17893Y17242D02*
X11557Y17242D01*
X11717Y17123D02*
X17733Y17123D01*
X17656Y17005D02*
X14550Y17005D01*
X14669Y16886D02*
X15031Y16886D01*
X14913Y16768D02*
X14787Y16768D01*
X14800Y16649D02*
X14900Y16649D01*
X14862Y16531D02*
X14838Y16531D01*
X14838Y16412D02*
X14862Y16412D01*
X14862Y16294D02*
X14838Y16294D01*
X14838Y16175D02*
X14862Y16175D01*
X14862Y16057D02*
X14838Y16057D01*
X14838Y15938D02*
X14862Y15938D01*
X14900Y15820D02*
X14782Y15820D01*
X14900Y15701D02*
X14662Y15701D01*
X14543Y15583D02*
X14900Y15583D01*
X14560Y15464D02*
X14425Y15464D01*
X14306Y15346D02*
X14560Y15346D01*
X14560Y15227D02*
X14188Y15227D01*
X14069Y15109D02*
X14560Y15109D01*
X14560Y14990D02*
X13951Y14990D01*
X13890Y14872D02*
X14560Y14872D01*
X14584Y14753D02*
X13866Y14753D01*
X13890Y14635D02*
X14560Y14635D01*
X14560Y14161D02*
X13890Y14161D01*
X13060Y14161D02*
X10260Y14161D01*
X10260Y14279D02*
X10916Y14279D01*
X10918Y14278D02*
X10959Y14267D01*
X11310Y14267D01*
X11310Y14757D01*
X10820Y14757D01*
X10820Y14406D01*
X10831Y14365D01*
X10852Y14329D01*
X10882Y14299D01*
X10918Y14278D01*
X10822Y14398D02*
X10260Y14398D01*
X10260Y14516D02*
X10820Y14516D01*
X10820Y14635D02*
X10260Y14635D01*
X10260Y14753D02*
X10820Y14753D01*
X10820Y14872D02*
X10260Y14872D01*
X10260Y14990D02*
X10820Y14990D01*
X10820Y15109D02*
X10260Y15109D01*
X10260Y15227D02*
X10830Y15227D01*
X10990Y15464D02*
X10260Y15464D01*
X10260Y15346D02*
X11160Y15346D01*
X10908Y15583D02*
X10260Y15583D01*
X10260Y15701D02*
X10860Y15701D01*
X10860Y15820D02*
X10260Y15820D01*
X10260Y15938D02*
X10878Y15938D01*
X10808Y16057D02*
X10260Y16057D01*
X10260Y16175D02*
X10689Y16175D01*
X10571Y16294D02*
X10260Y16294D01*
X10260Y16412D02*
X10463Y16412D01*
X10463Y16531D02*
X10260Y16531D01*
X10260Y16649D02*
X10463Y16649D01*
X10463Y16768D02*
X10260Y16768D01*
X10260Y16886D02*
X10463Y16886D01*
X10463Y17005D02*
X10260Y17005D01*
X10260Y17123D02*
X10463Y17123D01*
X10463Y17242D02*
X10260Y17242D01*
X10260Y17360D02*
X10463Y17360D01*
X10463Y17479D02*
X10260Y17479D01*
X10260Y17597D02*
X10463Y17597D01*
X10463Y17716D02*
X10260Y17716D01*
X10260Y17834D02*
X10463Y17834D01*
X10463Y17953D02*
X10260Y17953D01*
X10260Y18071D02*
X10463Y18071D01*
X10463Y18190D02*
X10260Y18190D01*
X10260Y18308D02*
X10463Y18308D01*
X10572Y18427D02*
X10260Y18427D01*
X10260Y18545D02*
X10690Y18545D01*
X10809Y18664D02*
X10260Y18664D01*
X10260Y18782D02*
X11990Y18782D01*
X12108Y18901D02*
X11539Y18901D01*
X11506Y18887D02*
X11795Y19007D01*
X12015Y19227D01*
X12135Y19516D01*
X12135Y19828D01*
X12015Y20117D01*
X11795Y20337D01*
X11506Y20457D01*
X11194Y20457D01*
X10905Y20337D01*
X10685Y20117D01*
X10565Y19828D01*
X10565Y19516D01*
X10685Y19227D01*
X10905Y19007D01*
X11194Y18887D01*
X11506Y18887D01*
X11807Y19019D02*
X12227Y19019D01*
X12345Y19138D02*
X11926Y19138D01*
X12027Y19256D02*
X12464Y19256D01*
X12582Y19375D02*
X12076Y19375D01*
X12126Y19493D02*
X12701Y19493D01*
X12819Y19612D02*
X12135Y19612D01*
X12135Y19730D02*
X12938Y19730D01*
X13056Y19849D02*
X12127Y19849D01*
X12077Y19967D02*
X13175Y19967D01*
X13293Y20086D02*
X12028Y20086D01*
X11928Y20204D02*
X13412Y20204D01*
X13530Y20323D02*
X11810Y20323D01*
X11545Y20441D02*
X13560Y20441D01*
X14100Y18821D02*
X14100Y18356D01*
X14100Y18356D01*
X14100Y18821D01*
X14100Y18782D02*
X14100Y18782D01*
X14100Y18664D02*
X14100Y18664D01*
X14100Y18545D02*
X14100Y18545D01*
X14100Y18427D02*
X14100Y18427D01*
X14100Y18308D02*
X14100Y18308D01*
X14100Y18190D02*
X14100Y18190D01*
X14100Y18071D02*
X14100Y18071D01*
X14100Y17953D02*
X14100Y17953D01*
X14346Y17953D02*
X14348Y17953D01*
X14324Y18782D02*
X14332Y18782D01*
X15142Y17597D02*
X17652Y17597D01*
X17685Y17519D01*
X17683Y18071D02*
X15838Y18071D01*
X15838Y18190D02*
X17800Y18190D01*
X17738Y18664D02*
X15838Y18664D01*
X15838Y18545D02*
X19190Y18545D01*
X19190Y18427D02*
X15838Y18427D01*
X15838Y18308D02*
X19190Y18308D01*
X17680Y16531D02*
X15838Y16531D01*
X15374Y16597D02*
X15362Y16585D01*
X15362Y15875D01*
X15432Y15805D01*
X15768Y15805D01*
X15838Y15875D01*
X15838Y16030D01*
X17584Y16030D01*
X17642Y15972D01*
X17610Y15894D01*
X17610Y15700D01*
X17642Y15622D01*
X16930Y14910D01*
X16930Y15111D01*
X16535Y15111D01*
X16535Y15231D01*
X16930Y15231D01*
X16930Y15448D01*
X16919Y15489D01*
X16898Y15525D01*
X16869Y15555D01*
X16832Y15576D01*
X16791Y15587D01*
X16535Y15587D01*
X16535Y15231D01*
X16415Y15231D01*
X16415Y15111D01*
X16020Y15111D01*
X16020Y14894D01*
X16031Y14853D01*
X16052Y14817D01*
X16081Y14787D01*
X16105Y14774D01*
X16060Y14729D01*
X16060Y14623D01*
X15390Y14623D01*
X15390Y14729D01*
X15322Y14797D01*
X15390Y14865D01*
X15390Y15477D01*
X15320Y15547D01*
X15300Y15547D01*
X15300Y15837D01*
X15338Y15875D01*
X15338Y16585D01*
X15326Y16597D01*
X15374Y16597D01*
X15362Y16531D02*
X15338Y16531D01*
X15338Y16412D02*
X15362Y16412D01*
X15362Y16294D02*
X15338Y16294D01*
X15338Y16175D02*
X15362Y16175D01*
X15362Y16057D02*
X15338Y16057D01*
X15338Y15938D02*
X15362Y15938D01*
X15418Y15820D02*
X15300Y15820D01*
X15300Y15701D02*
X17610Y15701D01*
X17610Y15820D02*
X15782Y15820D01*
X15838Y15938D02*
X17628Y15938D01*
X17886Y16294D02*
X19190Y16294D01*
X17792Y16412D02*
X17768Y16412D01*
X17603Y15583D02*
X16808Y15583D01*
X16926Y15464D02*
X17484Y15464D01*
X17366Y15346D02*
X16930Y15346D01*
X16930Y15109D02*
X17129Y15109D01*
X17010Y14990D02*
X16930Y14990D01*
X17247Y15227D02*
X16535Y15227D01*
X16535Y15346D02*
X16415Y15346D01*
X16415Y15231D02*
X16415Y15587D01*
X16159Y15587D01*
X16118Y15576D01*
X16081Y15555D01*
X16052Y15525D01*
X16031Y15489D01*
X16020Y15448D01*
X16020Y15231D01*
X16415Y15231D01*
X16415Y15227D02*
X15390Y15227D01*
X15390Y15109D02*
X16020Y15109D01*
X16020Y14990D02*
X15390Y14990D01*
X15390Y14872D02*
X16026Y14872D01*
X16084Y14753D02*
X15366Y14753D01*
X15390Y14635D02*
X16060Y14635D01*
X16060Y14161D02*
X15390Y14161D01*
X15390Y15346D02*
X16020Y15346D01*
X16024Y15464D02*
X15390Y15464D01*
X15300Y15583D02*
X16142Y15583D01*
X16415Y15583D02*
X16535Y15583D01*
X16535Y15464D02*
X16415Y15464D01*
X17220Y14635D02*
X17570Y14635D01*
X17570Y14753D02*
X17339Y14753D01*
X17457Y14872D02*
X17570Y14872D01*
X17570Y14516D02*
X17102Y14516D01*
X16983Y14398D02*
X17572Y14398D01*
X18060Y14398D02*
X18140Y14398D01*
X18140Y14516D02*
X18060Y14516D01*
X18060Y14635D02*
X18140Y14635D01*
X18140Y14753D02*
X18060Y14753D01*
X18060Y14279D02*
X18140Y14279D01*
X18458Y13924D02*
X19190Y13924D01*
X19190Y14042D02*
X10260Y14042D01*
X11310Y14279D02*
X11390Y14279D01*
X11390Y14267D02*
X11741Y14267D01*
X11782Y14278D01*
X11818Y14299D01*
X11848Y14329D01*
X11869Y14365D01*
X11880Y14406D01*
X11880Y14757D01*
X11390Y14757D01*
X11390Y14267D01*
X11390Y14398D02*
X11310Y14398D01*
X11310Y14516D02*
X11390Y14516D01*
X11390Y14635D02*
X11310Y14635D01*
X11310Y14753D02*
X11390Y14753D01*
X11880Y14753D02*
X12111Y14753D01*
X12230Y14635D02*
X11880Y14635D01*
X11880Y14516D02*
X12348Y14516D01*
X12467Y14398D02*
X11878Y14398D01*
X11784Y14279D02*
X12585Y14279D01*
X11993Y14872D02*
X11880Y14872D01*
X11814Y13568D02*
X17249Y13568D01*
X17181Y13450D02*
X11933Y13450D01*
X12128Y13094D02*
X17049Y13094D01*
X17040Y12976D02*
X12135Y12976D01*
X12135Y12857D02*
X17040Y12857D01*
X17052Y12739D02*
X12124Y12739D01*
X12075Y12620D02*
X17084Y12620D01*
X17119Y12502D02*
X12026Y12502D01*
X11921Y12383D02*
X17187Y12383D01*
X17258Y12265D02*
X11803Y12265D01*
X11528Y12146D02*
X17377Y12146D01*
X17529Y12028D02*
X10686Y12028D01*
X10668Y12038D02*
X10668Y12038D01*
X10900Y11909D02*
X17785Y11909D01*
X18415Y11909D02*
X18466Y11909D01*
X18671Y12028D02*
X18700Y12028D01*
X18823Y12146D02*
X18864Y12146D01*
X18942Y12265D02*
X18953Y12265D01*
X19013Y12383D02*
X19039Y12383D01*
X19081Y12502D02*
X19095Y12502D01*
X19116Y12620D02*
X19134Y12620D01*
X19148Y12739D02*
X19172Y12739D01*
X19160Y12857D02*
X19185Y12857D01*
X19190Y12976D02*
X19160Y12976D01*
X19151Y13094D02*
X19190Y13094D01*
X19190Y13213D02*
X19120Y13213D01*
X19190Y13450D02*
X19019Y13450D01*
X18951Y13568D02*
X19190Y13568D01*
X19190Y13687D02*
X18835Y13687D01*
X18691Y13805D02*
X19190Y13805D01*
X11143Y17242D02*
X10862Y17242D01*
X10862Y17360D02*
X11125Y17360D01*
X10976Y17479D02*
X10862Y17479D01*
X10862Y17597D02*
X10902Y17597D01*
X10862Y17123D02*
X10983Y17123D01*
X10906Y17005D02*
X10862Y17005D01*
X11161Y18901D02*
X10260Y18901D01*
X10260Y19019D02*
X10893Y19019D01*
X10774Y19138D02*
X10260Y19138D01*
X10260Y19256D02*
X10673Y19256D01*
X10624Y19375D02*
X10260Y19375D01*
X10260Y19493D02*
X10574Y19493D01*
X10565Y19612D02*
X10260Y19612D01*
X10265Y19730D02*
X10565Y19730D01*
X10573Y19849D02*
X10275Y19849D01*
X10314Y19967D02*
X10623Y19967D01*
X10672Y20086D02*
X10352Y20086D01*
X10406Y20204D02*
X10772Y20204D01*
X10890Y20323D02*
X10492Y20323D01*
X10578Y20441D02*
X11155Y20441D01*
D43*
X12600Y18547D03*
X16975Y18547D03*
X17225Y15797D03*
D44*
X17667Y16230D02*
X18100Y15797D01*
X16726Y14423D01*
X16475Y14423D01*
X14975Y14423D01*
X13475Y14423D01*
X12724Y14423D01*
X11350Y15797D01*
X10663Y16485D01*
X10663Y18235D01*
X10913Y18485D01*
X11975Y18485D01*
X13662Y20171D01*
X15475Y20171D01*
X13975Y20171D01*
X13975Y19423D02*
X13975Y19422D01*
X14600Y18797D01*
X14600Y18356D01*
X14600Y17922D01*
X14350Y17672D01*
X11475Y17672D01*
X11350Y17797D01*
X11475Y16922D02*
X11350Y16797D01*
X11475Y16922D02*
X14350Y16922D01*
X14600Y16672D01*
X14600Y16230D01*
X14600Y15922D01*
X13850Y15172D01*
X13475Y15171D01*
X14975Y15171D02*
X15100Y15422D01*
X15100Y16230D01*
X15100Y16672D01*
X15225Y16797D01*
X18100Y16797D01*
X17667Y16230D02*
X15600Y16230D01*
X16475Y15172D02*
X16475Y15171D01*
X15225Y17797D02*
X18100Y17797D01*
X15475Y19172D02*
X15475Y19423D01*
X15475Y19172D02*
X15100Y18797D01*
X15100Y18356D01*
X15100Y17922D01*
X15225Y17797D01*
M02*
