G75*
G70*
%OFA0B0*%
%FSLAX24Y24*%
%IPPOS*%
%LPD*%
%AMOC8*
5,1,8,0,0,1.08239X$1,22.5*
%
%ADD10C,0.0000*%
%ADD11C,0.0030*%
%ADD12C,0.0050*%
%ADD13C,0.0000*%
%ADD14C,0.0060*%
%ADD15C,0.0080*%
%ADD16R,0.0110X0.0005*%
%ADD17R,0.0210X0.0005*%
%ADD18R,0.0280X0.0005*%
%ADD19R,0.0325X0.0005*%
%ADD20R,0.0365X0.0005*%
%ADD21R,0.0410X0.0005*%
%ADD22R,0.0440X0.0005*%
%ADD23R,0.0470X0.0005*%
%ADD24R,0.0505X0.0005*%
%ADD25R,0.0530X0.0005*%
%ADD26R,0.0555X0.0005*%
%ADD27R,0.0580X0.0005*%
%ADD28R,0.0600X0.0005*%
%ADD29R,0.0625X0.0005*%
%ADD30R,0.0645X0.0005*%
%ADD31R,0.0665X0.0005*%
%ADD32R,0.0685X0.0005*%
%ADD33R,0.0705X0.0005*%
%ADD34R,0.0715X0.0005*%
%ADD35R,0.0735X0.0005*%
%ADD36R,0.0755X0.0005*%
%ADD37R,0.0090X0.0005*%
%ADD38R,0.0770X0.0005*%
%ADD39R,0.0190X0.0005*%
%ADD40R,0.0355X0.0005*%
%ADD41R,0.0360X0.0005*%
%ADD42R,0.0260X0.0005*%
%ADD43R,0.0315X0.0005*%
%ADD44R,0.0320X0.0005*%
%ADD45R,0.0295X0.0005*%
%ADD46R,0.0275X0.0005*%
%ADD47R,0.0400X0.0005*%
%ADD48R,0.0265X0.0005*%
%ADD49R,0.0435X0.0005*%
%ADD50R,0.0255X0.0005*%
%ADD51R,0.0465X0.0005*%
%ADD52R,0.0245X0.0005*%
%ADD53R,0.0495X0.0005*%
%ADD54R,0.0235X0.0005*%
%ADD55R,0.0525X0.0005*%
%ADD56R,0.0230X0.0005*%
%ADD57R,0.0240X0.0005*%
%ADD58R,0.0545X0.0005*%
%ADD59R,0.0820X0.0005*%
%ADD60R,0.0220X0.0005*%
%ADD61R,0.0025X0.0005*%
%ADD62R,0.0795X0.0005*%
%ADD63R,0.0215X0.0005*%
%ADD64R,0.0035X0.0005*%
%ADD65R,0.0040X0.0005*%
%ADD66R,0.0800X0.0005*%
%ADD67R,0.0205X0.0005*%
%ADD68R,0.0050X0.0005*%
%ADD69R,0.0805X0.0005*%
%ADD70R,0.0165X0.0005*%
%ADD71R,0.0055X0.0005*%
%ADD72R,0.0200X0.0005*%
%ADD73R,0.0060X0.0005*%
%ADD74R,0.0300X0.0005*%
%ADD75R,0.0195X0.0005*%
%ADD76R,0.0065X0.0005*%
%ADD77R,0.0345X0.0005*%
%ADD78R,0.0070X0.0005*%
%ADD79R,0.0385X0.0005*%
%ADD80R,0.0080X0.0005*%
%ADD81R,0.0425X0.0005*%
%ADD82R,0.0185X0.0005*%
%ADD83R,0.0085X0.0005*%
%ADD84R,0.0635X0.0005*%
%ADD85R,0.0810X0.0005*%
%ADD86R,0.0095X0.0005*%
%ADD87R,0.0335X0.0005*%
%ADD88R,0.0655X0.0005*%
%ADD89R,0.0105X0.0005*%
%ADD90R,0.0290X0.0005*%
%ADD91R,0.0660X0.0005*%
%ADD92R,0.0115X0.0005*%
%ADD93R,0.0285X0.0005*%
%ADD94R,0.0120X0.0005*%
%ADD95R,0.0270X0.0005*%
%ADD96R,0.0675X0.0005*%
%ADD97R,0.0130X0.0005*%
%ADD98R,0.0680X0.0005*%
%ADD99R,0.0135X0.0005*%
%ADD100R,0.0250X0.0005*%
%ADD101R,0.0140X0.0005*%
%ADD102R,0.0180X0.0005*%
%ADD103R,0.0695X0.0005*%
%ADD104R,0.0150X0.0005*%
%ADD105R,0.0160X0.0005*%
%ADD106R,0.0155X0.0005*%
%ADD107R,0.0145X0.0005*%
%ADD108R,0.0700X0.0005*%
%ADD109R,0.0225X0.0005*%
%ADD110R,0.0170X0.0005*%
%ADD111R,0.0100X0.0005*%
%ADD112R,0.0075X0.0005*%
%ADD113R,0.0720X0.0005*%
%ADD114R,0.0725X0.0005*%
%ADD115R,0.0340X0.0005*%
%ADD116R,0.0305X0.0005*%
%ADD117R,0.0175X0.0005*%
%ADD118R,0.0005X0.0005*%
%ADD119R,0.0010X0.0005*%
%ADD120R,0.0015X0.0005*%
%ADD121R,0.0020X0.0005*%
%ADD122R,0.0030X0.0005*%
%ADD123R,0.0125X0.0005*%
%ADD124R,0.0045X0.0005*%
%ADD125R,0.0370X0.0005*%
%ADD126R,0.0375X0.0005*%
%ADD127R,0.0350X0.0005*%
%ADD128R,0.0330X0.0005*%
%ADD129R,0.0485X0.0005*%
%ADD130R,0.0480X0.0005*%
%ADD131R,0.0460X0.0005*%
%ADD132R,0.0445X0.0005*%
%ADD133R,0.0310X0.0005*%
%ADD134R,0.0380X0.0005*%
%ADD135R,0.0415X0.0005*%
%ADD136R,0.0450X0.0005*%
%ADD137R,0.0490X0.0005*%
%ADD138R,0.0965X0.0005*%
%ADD139R,0.0975X0.0005*%
%ADD140R,0.0980X0.0005*%
%ADD141R,0.0990X0.0005*%
%ADD142R,0.1005X0.0005*%
%ADD143R,0.0615X0.0005*%
%ADD144R,0.0640X0.0005*%
%ADD145R,0.0605X0.0005*%
%ADD146R,0.0620X0.0005*%
%ADD147R,0.0590X0.0005*%
%ADD148R,0.0570X0.0005*%
%ADD149R,0.0540X0.0005*%
%ADD150R,0.0515X0.0005*%
%ADD151R,0.0565X0.0005*%
%ADD152R,0.0535X0.0005*%
%ADD153R,0.0395X0.0005*%
%ADD154R,0.0520X0.0005*%
%ADD155R,0.0500X0.0005*%
%ADD156R,0.0430X0.0005*%
%ADD157C,0.0059*%
%ADD158C,0.0000*%
%ADD159C,0.0080*%
%ADD160R,0.0110X0.0005*%
%ADD161R,0.0210X0.0005*%
%ADD162R,0.0280X0.0005*%
%ADD163R,0.0325X0.0005*%
%ADD164R,0.0365X0.0005*%
%ADD165R,0.0410X0.0005*%
%ADD166R,0.0440X0.0005*%
%ADD167R,0.0470X0.0005*%
%ADD168R,0.0505X0.0005*%
%ADD169R,0.0530X0.0005*%
%ADD170R,0.0555X0.0005*%
%ADD171R,0.0580X0.0005*%
%ADD172R,0.0600X0.0005*%
%ADD173R,0.0625X0.0005*%
%ADD174R,0.0645X0.0005*%
%ADD175R,0.0665X0.0005*%
%ADD176R,0.0685X0.0005*%
%ADD177R,0.0705X0.0005*%
%ADD178R,0.0715X0.0005*%
%ADD179R,0.0735X0.0005*%
%ADD180R,0.0755X0.0005*%
%ADD181R,0.0090X0.0005*%
%ADD182R,0.0770X0.0005*%
%ADD183R,0.0190X0.0005*%
%ADD184R,0.0355X0.0005*%
%ADD185R,0.0360X0.0005*%
%ADD186R,0.0260X0.0005*%
%ADD187R,0.0315X0.0005*%
%ADD188R,0.0320X0.0005*%
%ADD189R,0.0295X0.0005*%
%ADD190R,0.0275X0.0005*%
%ADD191R,0.0400X0.0005*%
%ADD192R,0.0265X0.0005*%
%ADD193R,0.0435X0.0005*%
%ADD194R,0.0255X0.0005*%
%ADD195R,0.0465X0.0005*%
%ADD196R,0.0245X0.0005*%
%ADD197R,0.0495X0.0005*%
%ADD198R,0.0235X0.0005*%
%ADD199R,0.0525X0.0005*%
%ADD200R,0.0230X0.0005*%
%ADD201R,0.0240X0.0005*%
%ADD202R,0.0545X0.0005*%
%ADD203R,0.0820X0.0005*%
%ADD204R,0.0220X0.0005*%
%ADD205R,0.0025X0.0005*%
%ADD206R,0.0795X0.0005*%
%ADD207R,0.0215X0.0005*%
%ADD208R,0.0035X0.0005*%
%ADD209R,0.0040X0.0005*%
%ADD210R,0.0800X0.0005*%
%ADD211R,0.0205X0.0005*%
%ADD212R,0.0050X0.0005*%
%ADD213R,0.0805X0.0005*%
%ADD214R,0.0165X0.0005*%
%ADD215R,0.0055X0.0005*%
%ADD216R,0.0200X0.0005*%
%ADD217R,0.0060X0.0005*%
%ADD218R,0.0300X0.0005*%
%ADD219R,0.0195X0.0005*%
%ADD220R,0.0065X0.0005*%
%ADD221R,0.0345X0.0005*%
%ADD222R,0.0070X0.0005*%
%ADD223R,0.0385X0.0005*%
%ADD224R,0.0080X0.0005*%
%ADD225R,0.0425X0.0005*%
%ADD226R,0.0185X0.0005*%
%ADD227R,0.0085X0.0005*%
%ADD228R,0.0635X0.0005*%
%ADD229R,0.0810X0.0005*%
%ADD230R,0.0095X0.0005*%
%ADD231R,0.0335X0.0005*%
%ADD232R,0.0655X0.0005*%
%ADD233R,0.0105X0.0005*%
%ADD234R,0.0290X0.0005*%
%ADD235R,0.0660X0.0005*%
%ADD236R,0.0115X0.0005*%
%ADD237R,0.0285X0.0005*%
%ADD238R,0.0120X0.0005*%
%ADD239R,0.0270X0.0005*%
%ADD240R,0.0675X0.0005*%
%ADD241R,0.0130X0.0005*%
%ADD242R,0.0680X0.0005*%
%ADD243R,0.0135X0.0005*%
%ADD244R,0.0250X0.0005*%
%ADD245R,0.0140X0.0005*%
%ADD246R,0.0180X0.0005*%
%ADD247R,0.0695X0.0005*%
%ADD248R,0.0150X0.0005*%
%ADD249R,0.0160X0.0005*%
%ADD250R,0.0155X0.0005*%
%ADD251R,0.0145X0.0005*%
%ADD252R,0.0700X0.0005*%
%ADD253R,0.0225X0.0005*%
%ADD254R,0.0170X0.0005*%
%ADD255R,0.0100X0.0005*%
%ADD256R,0.0075X0.0005*%
%ADD257R,0.0720X0.0005*%
%ADD258R,0.0725X0.0005*%
%ADD259R,0.0340X0.0005*%
%ADD260R,0.0305X0.0005*%
%ADD261R,0.0175X0.0005*%
%ADD262R,0.0005X0.0005*%
%ADD263R,0.0010X0.0005*%
%ADD264R,0.0015X0.0005*%
%ADD265R,0.0020X0.0005*%
%ADD266R,0.0030X0.0005*%
%ADD267R,0.0125X0.0005*%
%ADD268R,0.0045X0.0005*%
%ADD269R,0.0370X0.0005*%
%ADD270R,0.0375X0.0005*%
%ADD271R,0.0350X0.0005*%
%ADD272R,0.0330X0.0005*%
%ADD273R,0.0485X0.0005*%
%ADD274R,0.0480X0.0005*%
%ADD275R,0.0460X0.0005*%
%ADD276R,0.0445X0.0005*%
%ADD277R,0.0310X0.0005*%
%ADD278R,0.0380X0.0005*%
%ADD279R,0.0415X0.0005*%
%ADD280R,0.0450X0.0005*%
%ADD281R,0.0490X0.0005*%
%ADD282R,0.0965X0.0005*%
%ADD283R,0.0975X0.0005*%
%ADD284R,0.0980X0.0005*%
%ADD285R,0.0990X0.0005*%
%ADD286R,0.1005X0.0005*%
%ADD287R,0.0615X0.0005*%
%ADD288R,0.0640X0.0005*%
%ADD289R,0.0605X0.0005*%
%ADD290R,0.0620X0.0005*%
%ADD291R,0.0590X0.0005*%
%ADD292R,0.0570X0.0005*%
%ADD293R,0.0540X0.0005*%
%ADD294R,0.0515X0.0005*%
%ADD295R,0.0565X0.0005*%
%ADD296R,0.0535X0.0005*%
%ADD297R,0.0395X0.0005*%
%ADD298R,0.0520X0.0005*%
%ADD299R,0.0500X0.0005*%
%ADD300R,0.0430X0.0005*%
%ADD301C,0.0060*%
%ADD302C,0.0059*%
%ADD303C,0.0000*%
%ADD304C,0.0060*%
%ADD305R,0.0110X0.0005*%
%ADD306R,0.0210X0.0005*%
%ADD307R,0.0280X0.0005*%
%ADD308R,0.0325X0.0005*%
%ADD309R,0.0365X0.0005*%
%ADD310R,0.0410X0.0005*%
%ADD311R,0.0440X0.0005*%
%ADD312R,0.0470X0.0005*%
%ADD313R,0.0505X0.0005*%
%ADD314R,0.0530X0.0005*%
%ADD315R,0.0555X0.0005*%
%ADD316R,0.0580X0.0005*%
%ADD317R,0.0600X0.0005*%
%ADD318R,0.0625X0.0005*%
%ADD319R,0.0645X0.0005*%
%ADD320R,0.0665X0.0005*%
%ADD321R,0.0685X0.0005*%
%ADD322R,0.0705X0.0005*%
%ADD323R,0.0715X0.0005*%
%ADD324R,0.0735X0.0005*%
%ADD325R,0.0755X0.0005*%
%ADD326R,0.0090X0.0005*%
%ADD327R,0.0770X0.0005*%
%ADD328R,0.0190X0.0005*%
%ADD329R,0.0355X0.0005*%
%ADD330R,0.0360X0.0005*%
%ADD331R,0.0260X0.0005*%
%ADD332R,0.0315X0.0005*%
%ADD333R,0.0320X0.0005*%
%ADD334R,0.0295X0.0005*%
%ADD335R,0.0275X0.0005*%
%ADD336R,0.0400X0.0005*%
%ADD337R,0.0265X0.0005*%
%ADD338R,0.0435X0.0005*%
%ADD339R,0.0255X0.0005*%
%ADD340R,0.0465X0.0005*%
%ADD341R,0.0245X0.0005*%
%ADD342R,0.0495X0.0005*%
%ADD343R,0.0235X0.0005*%
%ADD344R,0.0525X0.0005*%
%ADD345R,0.0230X0.0005*%
%ADD346R,0.0240X0.0005*%
%ADD347R,0.0545X0.0005*%
%ADD348R,0.0820X0.0005*%
%ADD349R,0.0220X0.0005*%
%ADD350R,0.0025X0.0005*%
%ADD351R,0.0795X0.0005*%
%ADD352R,0.0215X0.0005*%
%ADD353R,0.0035X0.0005*%
%ADD354R,0.0040X0.0005*%
%ADD355R,0.0800X0.0005*%
%ADD356R,0.0205X0.0005*%
%ADD357R,0.0050X0.0005*%
%ADD358R,0.0805X0.0005*%
%ADD359R,0.0165X0.0005*%
%ADD360R,0.0055X0.0005*%
%ADD361R,0.0200X0.0005*%
%ADD362R,0.0060X0.0005*%
%ADD363R,0.0300X0.0005*%
%ADD364R,0.0195X0.0005*%
%ADD365R,0.0065X0.0005*%
%ADD366R,0.0345X0.0005*%
%ADD367R,0.0070X0.0005*%
%ADD368R,0.0385X0.0005*%
%ADD369R,0.0080X0.0005*%
%ADD370R,0.0425X0.0005*%
%ADD371R,0.0185X0.0005*%
%ADD372R,0.0085X0.0005*%
%ADD373R,0.0635X0.0005*%
%ADD374R,0.0810X0.0005*%
%ADD375R,0.0095X0.0005*%
%ADD376R,0.0335X0.0005*%
%ADD377R,0.0655X0.0005*%
%ADD378R,0.0105X0.0005*%
%ADD379R,0.0290X0.0005*%
%ADD380R,0.0660X0.0005*%
%ADD381R,0.0115X0.0005*%
%ADD382R,0.0285X0.0005*%
%ADD383R,0.0120X0.0005*%
%ADD384R,0.0270X0.0005*%
%ADD385R,0.0675X0.0005*%
%ADD386R,0.0130X0.0005*%
%ADD387R,0.0680X0.0005*%
%ADD388R,0.0135X0.0005*%
%ADD389R,0.0250X0.0005*%
%ADD390R,0.0140X0.0005*%
%ADD391R,0.0180X0.0005*%
%ADD392R,0.0695X0.0005*%
%ADD393R,0.0150X0.0005*%
%ADD394R,0.0160X0.0005*%
%ADD395R,0.0155X0.0005*%
%ADD396R,0.0145X0.0005*%
%ADD397R,0.0700X0.0005*%
%ADD398R,0.0225X0.0005*%
%ADD399R,0.0170X0.0005*%
%ADD400R,0.0100X0.0005*%
%ADD401R,0.0075X0.0005*%
%ADD402R,0.0720X0.0005*%
%ADD403R,0.0725X0.0005*%
%ADD404R,0.0340X0.0005*%
%ADD405R,0.0305X0.0005*%
%ADD406R,0.0175X0.0005*%
%ADD407R,0.0005X0.0005*%
%ADD408R,0.0010X0.0005*%
%ADD409R,0.0015X0.0005*%
%ADD410R,0.0020X0.0005*%
%ADD411R,0.0030X0.0005*%
%ADD412R,0.0125X0.0005*%
%ADD413R,0.0045X0.0005*%
%ADD414R,0.0370X0.0005*%
%ADD415R,0.0375X0.0005*%
%ADD416R,0.0350X0.0005*%
%ADD417R,0.0330X0.0005*%
%ADD418R,0.0485X0.0005*%
%ADD419R,0.0480X0.0005*%
%ADD420R,0.0460X0.0005*%
%ADD421R,0.0445X0.0005*%
%ADD422R,0.0310X0.0005*%
%ADD423R,0.0380X0.0005*%
%ADD424R,0.0415X0.0005*%
%ADD425R,0.0450X0.0005*%
%ADD426R,0.0490X0.0005*%
%ADD427R,0.0965X0.0005*%
%ADD428R,0.0975X0.0005*%
%ADD429R,0.0980X0.0005*%
%ADD430R,0.0990X0.0005*%
%ADD431R,0.1005X0.0005*%
%ADD432R,0.0615X0.0005*%
%ADD433R,0.0640X0.0005*%
%ADD434R,0.0605X0.0005*%
%ADD435R,0.0620X0.0005*%
%ADD436R,0.0590X0.0005*%
%ADD437R,0.0570X0.0005*%
%ADD438R,0.0540X0.0005*%
%ADD439R,0.0515X0.0005*%
%ADD440R,0.0565X0.0005*%
%ADD441R,0.0535X0.0005*%
%ADD442R,0.0395X0.0005*%
%ADD443R,0.0520X0.0005*%
%ADD444R,0.0500X0.0005*%
%ADD445R,0.0430X0.0005*%
%ADD446C,0.0100*%
%ADD447C,0.0080*%
%ADD448C,0.0059*%
%ADD449C,0.0050*%
D10*
X001489Y001583D02*
X001492Y001583D01*
X018027Y001583D01*
X018030Y001583D01*
X018027Y001583D02*
X018099Y001585D01*
X018171Y001591D01*
X018243Y001600D01*
X018314Y001613D01*
X018384Y001630D01*
X018453Y001650D01*
X018521Y001675D01*
X018587Y001702D01*
X018653Y001733D01*
X018716Y001768D01*
X018778Y001805D01*
X018837Y001846D01*
X018894Y001890D01*
X018949Y001937D01*
X019001Y001987D01*
X019051Y002039D01*
X019098Y002094D01*
X019142Y002151D01*
X019183Y002210D01*
X019220Y002272D01*
X019255Y002335D01*
X019286Y002401D01*
X019313Y002467D01*
X019338Y002535D01*
X019358Y002604D01*
X019375Y002674D01*
X019388Y002745D01*
X019397Y002817D01*
X019403Y002889D01*
X019405Y002961D01*
X019405Y009851D01*
X019403Y009923D01*
X019397Y009995D01*
X019388Y010067D01*
X019375Y010138D01*
X019358Y010208D01*
X019338Y010277D01*
X019313Y010345D01*
X019286Y010411D01*
X019255Y010477D01*
X019220Y010540D01*
X019183Y010602D01*
X019142Y010661D01*
X019098Y010718D01*
X019051Y010773D01*
X019001Y010825D01*
X018949Y010875D01*
X018894Y010922D01*
X018837Y010966D01*
X018778Y011007D01*
X018716Y011044D01*
X018653Y011079D01*
X018587Y011110D01*
X018521Y011137D01*
X018453Y011162D01*
X018384Y011182D01*
X018314Y011199D01*
X018243Y011212D01*
X018171Y011221D01*
X018099Y011227D01*
X018027Y011229D01*
X007988Y011229D01*
X007988Y011672D01*
X008100Y011672D01*
X007397Y011672D02*
X007397Y011229D01*
X001492Y011229D01*
X001489Y011229D01*
X001350Y011672D02*
X007397Y011672D01*
X008100Y011672D02*
X008166Y011670D01*
X008232Y011672D01*
X008298Y011678D01*
X008364Y011687D01*
X008429Y011700D01*
X008494Y011717D01*
X008557Y011737D01*
X008619Y011761D01*
X008679Y011788D01*
X008738Y011819D01*
X008796Y011853D01*
X008851Y011890D01*
X008904Y011930D01*
X008954Y011973D01*
X009003Y012018D01*
X009048Y012067D01*
X009091Y012117D01*
X009131Y012170D01*
X009168Y012225D01*
X009202Y012283D01*
X009233Y012342D01*
X009260Y012402D01*
X009284Y012464D01*
X009304Y012527D01*
X009321Y012592D01*
X009334Y012657D01*
X009343Y012723D01*
X009349Y012789D01*
X009351Y012855D01*
X009349Y012921D01*
X009350Y012922D02*
X010100Y012922D01*
X010100Y013672D02*
X010100Y019672D01*
X009350Y019672D02*
X009350Y013672D01*
X010100Y013672D01*
X010100Y012922D02*
X010102Y012854D01*
X010107Y012787D01*
X010116Y012720D01*
X010129Y012653D01*
X010146Y012588D01*
X010165Y012523D01*
X010189Y012459D01*
X010216Y012397D01*
X010246Y012336D01*
X010279Y012278D01*
X010315Y012221D01*
X010355Y012166D01*
X010397Y012113D01*
X010443Y012062D01*
X010490Y012015D01*
X010541Y011969D01*
X010594Y011927D01*
X010649Y011887D01*
X010706Y011851D01*
X010764Y011818D01*
X010825Y011788D01*
X010887Y011761D01*
X010951Y011737D01*
X011016Y011718D01*
X011081Y011701D01*
X011148Y011688D01*
X011215Y011679D01*
X011282Y011674D01*
X011350Y011672D01*
X018100Y011672D01*
X018421Y011229D02*
X018424Y011229D01*
X018100Y011672D02*
X018166Y011670D01*
X018232Y011672D01*
X018298Y011678D01*
X018364Y011687D01*
X018429Y011700D01*
X018494Y011717D01*
X018557Y011737D01*
X018619Y011761D01*
X018679Y011788D01*
X018738Y011819D01*
X018796Y011853D01*
X018851Y011890D01*
X018904Y011930D01*
X018954Y011973D01*
X019003Y012018D01*
X019048Y012067D01*
X019091Y012117D01*
X019131Y012170D01*
X019168Y012225D01*
X019202Y012283D01*
X019233Y012342D01*
X019260Y012402D01*
X019284Y012464D01*
X019304Y012527D01*
X019321Y012592D01*
X019334Y012657D01*
X019343Y012723D01*
X019349Y012789D01*
X019351Y012855D01*
X019349Y012921D01*
X019350Y012922D02*
X019350Y019672D01*
X019348Y019740D01*
X019343Y019807D01*
X019334Y019874D01*
X019321Y019941D01*
X019304Y020006D01*
X019285Y020071D01*
X019261Y020135D01*
X019234Y020197D01*
X019204Y020258D01*
X019171Y020316D01*
X019135Y020373D01*
X019095Y020428D01*
X019053Y020481D01*
X019007Y020532D01*
X018960Y020579D01*
X018909Y020625D01*
X018856Y020667D01*
X018801Y020707D01*
X018744Y020743D01*
X018686Y020776D01*
X018625Y020806D01*
X018563Y020833D01*
X018499Y020857D01*
X018434Y020876D01*
X018369Y020893D01*
X018302Y020906D01*
X018235Y020915D01*
X018168Y020920D01*
X018100Y020922D01*
X018137Y020922D02*
X011350Y020922D01*
X011282Y020920D01*
X011215Y020915D01*
X011148Y020906D01*
X011081Y020893D01*
X011016Y020876D01*
X010951Y020857D01*
X010887Y020833D01*
X010825Y020806D01*
X010764Y020776D01*
X010706Y020743D01*
X010649Y020707D01*
X010594Y020667D01*
X010541Y020625D01*
X010490Y020579D01*
X010443Y020532D01*
X010397Y020481D01*
X010355Y020428D01*
X010315Y020373D01*
X010279Y020316D01*
X010246Y020258D01*
X010216Y020197D01*
X010189Y020135D01*
X010165Y020071D01*
X010146Y020006D01*
X010129Y019941D01*
X010116Y019874D01*
X010107Y019807D01*
X010102Y019740D01*
X010100Y019672D01*
X009350Y019672D02*
X009348Y019740D01*
X009343Y019807D01*
X009334Y019874D01*
X009321Y019941D01*
X009304Y020006D01*
X009285Y020071D01*
X009261Y020135D01*
X009234Y020197D01*
X009204Y020258D01*
X009171Y020316D01*
X009135Y020373D01*
X009095Y020428D01*
X009053Y020481D01*
X009007Y020532D01*
X008960Y020579D01*
X008909Y020625D01*
X008856Y020667D01*
X008801Y020707D01*
X008744Y020743D01*
X008686Y020776D01*
X008625Y020806D01*
X008563Y020833D01*
X008499Y020857D01*
X008434Y020876D01*
X008369Y020893D01*
X008302Y020906D01*
X008235Y020915D01*
X008168Y020920D01*
X008100Y020922D01*
X001350Y020922D01*
X001282Y020920D01*
X001215Y020915D01*
X001148Y020906D01*
X001081Y020893D01*
X001016Y020876D01*
X000951Y020857D01*
X000887Y020833D01*
X000825Y020806D01*
X000764Y020776D01*
X000706Y020743D01*
X000649Y020707D01*
X000594Y020667D01*
X000541Y020625D01*
X000490Y020579D01*
X000443Y020532D01*
X000397Y020481D01*
X000355Y020428D01*
X000315Y020373D01*
X000279Y020316D01*
X000246Y020258D01*
X000216Y020197D01*
X000189Y020135D01*
X000165Y020071D01*
X000146Y020006D01*
X000129Y019941D01*
X000116Y019874D01*
X000107Y019807D01*
X000102Y019740D01*
X000100Y019672D01*
X000100Y012922D01*
X000102Y012854D01*
X000107Y012787D01*
X000116Y012720D01*
X000129Y012653D01*
X000146Y012588D01*
X000165Y012523D01*
X000189Y012459D01*
X000216Y012397D01*
X000246Y012336D01*
X000279Y012278D01*
X000315Y012221D01*
X000355Y012166D01*
X000397Y012113D01*
X000443Y012062D01*
X000490Y012015D01*
X000541Y011969D01*
X000594Y011927D01*
X000649Y011887D01*
X000706Y011851D01*
X000764Y011818D01*
X000825Y011788D01*
X000887Y011761D01*
X000951Y011737D01*
X001016Y011718D01*
X001081Y011701D01*
X001148Y011688D01*
X001215Y011679D01*
X001282Y011674D01*
X001350Y011672D01*
X001492Y011229D02*
X001420Y011227D01*
X001348Y011221D01*
X001276Y011212D01*
X001205Y011199D01*
X001135Y011182D01*
X001066Y011162D01*
X000998Y011137D01*
X000932Y011110D01*
X000866Y011079D01*
X000803Y011044D01*
X000741Y011007D01*
X000682Y010966D01*
X000625Y010922D01*
X000570Y010875D01*
X000518Y010825D01*
X000468Y010773D01*
X000421Y010718D01*
X000377Y010661D01*
X000336Y010602D01*
X000299Y010540D01*
X000264Y010477D01*
X000233Y010411D01*
X000206Y010345D01*
X000181Y010277D01*
X000161Y010208D01*
X000144Y010138D01*
X000131Y010067D01*
X000122Y009995D01*
X000116Y009923D01*
X000114Y009851D01*
X000114Y009854D01*
X000114Y009851D02*
X000114Y003001D01*
X000114Y002958D01*
X000113Y003001D02*
X000114Y002928D01*
X000119Y002854D01*
X000127Y002782D01*
X000140Y002710D01*
X000156Y002638D01*
X000175Y002568D01*
X000199Y002498D01*
X000226Y002430D01*
X000257Y002364D01*
X000291Y002299D01*
X000328Y002236D01*
X000369Y002175D01*
X000412Y002117D01*
X000459Y002060D01*
X000509Y002006D01*
X000561Y001955D01*
X000616Y001907D01*
X000673Y001862D01*
X000733Y001819D01*
X000795Y001780D01*
X000859Y001744D01*
X000924Y001712D01*
X000992Y001683D01*
X001060Y001658D01*
X001130Y001636D01*
X001201Y001618D01*
X001273Y001603D01*
X001345Y001593D01*
X001418Y001586D01*
X001491Y001583D01*
X018027Y021072D02*
X018030Y021072D01*
D11*
X003747Y000557D02*
X003747Y000310D01*
X003870Y000433D02*
X003623Y000433D01*
D12*
X2572Y2345D02*
X2617Y2300D01*
X2707Y2300D01*
X2752Y2345D01*
X2572Y2525D01*
X2572Y2345D01*
X2752Y2345D02*
X2752Y2525D01*
X2707Y2570D01*
X2617Y2570D01*
X2572Y2525D01*
X2854Y2345D02*
X2854Y2300D01*
X2899Y2300D01*
X2899Y2345D01*
X2854Y2345D01*
X3014Y2345D02*
X3014Y2390D01*
X3059Y2435D01*
X3104Y2435D01*
X3059Y2435D02*
X3014Y2480D01*
X3014Y2525D01*
X3059Y2570D01*
X3149Y2570D01*
X3194Y2525D01*
X3194Y2345D02*
X3149Y2300D01*
X3059Y2300D01*
X3014Y2345D01*
X3603Y2300D02*
X3603Y2480D01*
X3693Y2570D01*
X3783Y2480D01*
X3783Y2300D01*
X3898Y2345D02*
X3898Y2390D01*
X3943Y2435D01*
X4033Y2435D01*
X4078Y2480D01*
X4078Y2525D01*
X4033Y2570D01*
X3943Y2570D01*
X3898Y2525D01*
X3783Y2435D02*
X3603Y2435D01*
X3898Y2345D02*
X3943Y2300D01*
X4033Y2300D01*
X4078Y2345D01*
X4192Y2435D02*
X4373Y2435D01*
X4487Y2525D02*
X4487Y2570D01*
X4487Y2525D02*
X4577Y2435D01*
X4577Y2300D01*
X4577Y2435D02*
X4667Y2525D01*
X4667Y2570D01*
X4782Y2525D02*
X4782Y2480D01*
X4827Y2435D01*
X4962Y2435D01*
X4962Y2570D02*
X4827Y2570D01*
X4782Y2525D01*
X4827Y2435D02*
X4782Y2390D01*
X4782Y2345D01*
X4827Y2300D01*
X4962Y2300D01*
X4962Y2570D01*
X5371Y2525D02*
X5416Y2570D01*
X5506Y2570D01*
X5551Y2525D01*
X5551Y2345D01*
X5506Y2300D01*
X5416Y2300D01*
X5371Y2345D01*
X5666Y2345D02*
X5711Y2300D01*
X5801Y2300D01*
X5846Y2345D01*
X5846Y2525D01*
X5801Y2570D01*
X5711Y2570D01*
X5666Y2525D01*
X1273Y5428D02*
X1183Y5338D01*
X1093Y5428D01*
X1093Y5608D01*
X978Y5563D02*
X978Y5383D01*
X933Y5338D01*
X843Y5338D01*
X798Y5383D01*
X683Y5383D02*
X638Y5338D01*
X548Y5338D01*
X503Y5383D01*
X503Y5563D02*
X548Y5608D01*
X638Y5608D01*
X683Y5563D01*
X683Y5383D01*
X798Y5563D02*
X843Y5608D01*
X933Y5608D01*
X978Y5563D01*
X1273Y5608D02*
X1273Y5428D01*
X978Y6338D02*
X843Y6338D01*
X798Y6383D01*
X798Y6563D01*
X843Y6608D01*
X978Y6608D01*
X978Y6338D01*
X683Y6383D02*
X683Y6563D01*
X638Y6608D01*
X548Y6608D01*
X503Y6563D01*
X503Y6383D01*
X548Y6338D01*
X638Y6338D01*
X683Y6383D01*
X593Y6428D02*
X503Y6338D01*
X548Y7288D02*
X503Y7333D01*
X503Y7513D01*
X548Y7558D01*
X683Y7558D01*
X683Y7288D01*
X548Y7288D01*
X798Y7288D02*
X798Y7558D01*
X978Y7558D02*
X798Y7288D01*
X978Y7288D02*
X978Y7558D01*
X1093Y7513D02*
X1138Y7558D01*
X1228Y7558D01*
X1273Y7513D01*
X1273Y7333D01*
X1228Y7288D01*
X1138Y7288D01*
X1093Y7333D01*
X1093Y7423D01*
X1183Y7423D01*
X2753Y10665D02*
X2708Y10710D01*
X2753Y10665D02*
X2843Y10665D01*
X2888Y10710D01*
X2888Y10890D01*
X2843Y10935D01*
X2753Y10935D01*
X2708Y10890D01*
X3003Y10890D02*
X3048Y10935D01*
X3138Y10935D01*
X3183Y10890D01*
X3183Y10710D01*
X3138Y10665D01*
X3048Y10665D01*
X3003Y10710D01*
X3297Y10755D02*
X3297Y10935D01*
X3477Y10935D02*
X3477Y10755D01*
X3387Y10665D01*
X3297Y10755D01*
X3610Y10745D02*
X3610Y10700D01*
X3655Y10655D01*
X3745Y10655D01*
X3790Y10700D01*
X3904Y10655D02*
X4084Y10655D01*
X3994Y10655D02*
X3994Y10925D01*
X4084Y10835D01*
X4199Y10880D02*
X4199Y10790D01*
X4244Y10745D01*
X4379Y10745D01*
X4379Y10655D02*
X4379Y10925D01*
X4244Y10925D01*
X4199Y10880D01*
X3790Y10880D02*
X3745Y10925D01*
X3655Y10925D01*
X3610Y10880D01*
X3610Y10835D01*
X3655Y10790D01*
X3610Y10745D01*
X3655Y10790D02*
X3700Y10790D01*
X4611Y10790D02*
X4791Y10790D01*
X4656Y10925D01*
X4656Y10655D01*
X4906Y10655D02*
X5086Y10655D01*
X4996Y10655D02*
X4996Y10925D01*
X5086Y10835D01*
X5200Y10880D02*
X5200Y10790D01*
X5245Y10745D01*
X5381Y10745D01*
X5381Y10655D02*
X5381Y10925D01*
X5245Y10925D01*
X5200Y10880D01*
X5710Y10890D02*
X5710Y10710D01*
X5755Y10665D01*
X5890Y10665D01*
X5890Y10935D01*
X5755Y10935D01*
X5710Y10890D01*
X6004Y10935D02*
X6004Y10665D01*
X6184Y10935D01*
X6184Y10665D01*
X6299Y10710D02*
X6299Y10800D01*
X6389Y10800D01*
X6479Y10890D02*
X6479Y10710D01*
X6434Y10665D01*
X6344Y10665D01*
X6299Y10710D01*
X6299Y10890D02*
X6344Y10935D01*
X6434Y10935D01*
X6479Y10890D01*
X17829Y4240D02*
X17874Y4285D01*
X18009Y4285D01*
X18009Y4014D01*
X17874Y4014D01*
X17829Y4060D01*
X17829Y4240D01*
X18123Y4285D02*
X18123Y4014D01*
X18304Y4285D01*
X18304Y4014D01*
X18418Y4060D02*
X18418Y4150D01*
X18508Y4150D01*
X18418Y4240D02*
X18463Y4285D01*
X18553Y4285D01*
X18598Y4240D01*
X18598Y4060D01*
X18553Y4014D01*
X18463Y4014D01*
X18418Y4060D01*
X16878Y2158D02*
X16923Y2113D01*
X16923Y1933D01*
X16878Y1888D01*
X16788Y1888D01*
X16743Y1933D01*
X16743Y2023D01*
X16833Y2023D01*
X16743Y2113D02*
X16788Y2158D01*
X16878Y2158D01*
X16628Y2158D02*
X16448Y1888D01*
X16448Y2158D01*
X16333Y2158D02*
X16198Y2158D01*
X16153Y2113D01*
X16153Y1933D01*
X16198Y1888D01*
X16333Y1888D01*
X16333Y2158D01*
X16628Y2158D02*
X16628Y1888D01*
X15923Y1978D02*
X15923Y2158D01*
X15743Y2158D02*
X15743Y1978D01*
X15833Y1888D01*
X15923Y1978D01*
X15628Y1933D02*
X15628Y2113D01*
X15583Y2158D01*
X15493Y2158D01*
X15448Y2113D01*
X15333Y2113D02*
X15333Y1933D01*
X15288Y1888D01*
X15198Y1888D01*
X15153Y1933D01*
X15153Y2113D02*
X15198Y2158D01*
X15288Y2158D01*
X15333Y2113D01*
X15448Y1933D02*
X15493Y1888D01*
X15583Y1888D01*
X15628Y1933D01*
X14923Y2158D02*
X14743Y2158D01*
X14833Y2158D02*
X14833Y1888D01*
X14628Y1888D02*
X14448Y2158D01*
X14333Y2158D02*
X14198Y2158D01*
X14153Y2113D01*
X14153Y1933D01*
X14198Y1888D01*
X14333Y1888D01*
X14333Y2158D01*
X13973Y2158D02*
X13838Y2158D01*
X13793Y2113D01*
X13793Y2023D01*
X13838Y1978D01*
X13973Y1978D01*
X13973Y1888D02*
X13973Y2158D01*
X13883Y1978D02*
X13793Y1888D01*
X13678Y1888D02*
X13498Y2158D01*
X13383Y2158D02*
X13248Y2158D01*
X13203Y2113D01*
X13203Y1933D01*
X13248Y1888D01*
X13383Y1888D01*
X13383Y2158D01*
X13498Y1888D02*
X13678Y2158D01*
X12973Y2158D02*
X12973Y1888D01*
X12973Y1978D02*
X12838Y1978D01*
X12793Y2023D01*
X12793Y2113D01*
X12838Y2158D01*
X12973Y2158D01*
X12678Y2113D02*
X12678Y2068D01*
X12633Y2023D01*
X12543Y2023D01*
X12498Y1978D01*
X12498Y1933D01*
X12543Y1888D01*
X12633Y1888D01*
X12678Y1933D01*
X12793Y1888D02*
X12883Y1978D01*
X12678Y2113D02*
X12633Y2158D01*
X12543Y2158D01*
X12498Y2113D01*
X12383Y2158D02*
X12203Y2158D01*
X12293Y2158D02*
X12293Y1888D01*
X11833Y1888D02*
X11833Y2158D01*
X11923Y2158D02*
X11743Y2158D01*
X11628Y2113D02*
X11583Y2158D01*
X11493Y2158D01*
X11448Y2113D01*
X11493Y2023D02*
X11448Y1978D01*
X11448Y1933D01*
X11493Y1888D01*
X11583Y1888D01*
X11628Y1933D01*
X11583Y2023D02*
X11493Y2023D01*
X11583Y2023D02*
X11628Y2068D01*
X11628Y2113D01*
X11333Y2158D02*
X11153Y2158D01*
X11243Y2158D02*
X11243Y1888D01*
X14448Y1888D02*
X14628Y2158D01*
D13*
X1492Y1583D02*
X1489Y1583D01*
X1492Y1583D02*
X18027Y1583D01*
X18030Y1583D01*
X17380Y2958D02*
X17382Y3008D01*
X17388Y3058D01*
X17398Y3108D01*
X17411Y3156D01*
X17428Y3204D01*
X17449Y3250D01*
X17473Y3294D01*
X17501Y3336D01*
X17532Y3376D01*
X17566Y3413D01*
X17603Y3448D01*
X17642Y3479D01*
X17683Y3508D01*
X17727Y3533D01*
X17773Y3555D01*
X17820Y3573D01*
X17868Y3587D01*
X17917Y3598D01*
X17967Y3605D01*
X18017Y3608D01*
X18068Y3607D01*
X18118Y3602D01*
X18168Y3593D01*
X18216Y3581D01*
X18264Y3564D01*
X18310Y3544D01*
X18355Y3521D01*
X18398Y3494D01*
X18438Y3464D01*
X18476Y3431D01*
X18511Y3395D01*
X18544Y3356D01*
X18573Y3315D01*
X18599Y3272D01*
X18622Y3227D01*
X18641Y3180D01*
X18656Y3132D01*
X18668Y3083D01*
X18676Y3033D01*
X18680Y2983D01*
X18680Y2933D01*
X18676Y2883D01*
X18668Y2833D01*
X18656Y2784D01*
X18641Y2736D01*
X18622Y2689D01*
X18599Y2644D01*
X18573Y2601D01*
X18544Y2560D01*
X18511Y2521D01*
X18476Y2485D01*
X18438Y2452D01*
X18398Y2422D01*
X18355Y2395D01*
X18310Y2372D01*
X18264Y2352D01*
X18216Y2335D01*
X18168Y2323D01*
X18118Y2314D01*
X18068Y2309D01*
X18017Y2308D01*
X17967Y2311D01*
X17917Y2318D01*
X17868Y2329D01*
X17820Y2343D01*
X17773Y2361D01*
X17727Y2383D01*
X17683Y2408D01*
X17642Y2437D01*
X17603Y2468D01*
X17566Y2503D01*
X17532Y2540D01*
X17501Y2580D01*
X17473Y2622D01*
X17449Y2666D01*
X17428Y2712D01*
X17411Y2760D01*
X17398Y2808D01*
X17388Y2858D01*
X17382Y2908D01*
X17380Y2958D01*
X18027Y1583D02*
X18099Y1585D01*
X18171Y1591D01*
X18243Y1600D01*
X18314Y1613D01*
X18384Y1630D01*
X18453Y1650D01*
X18521Y1675D01*
X18587Y1702D01*
X18653Y1733D01*
X18716Y1768D01*
X18778Y1805D01*
X18837Y1846D01*
X18894Y1890D01*
X18949Y1937D01*
X19001Y1987D01*
X19051Y2039D01*
X19098Y2094D01*
X19142Y2151D01*
X19183Y2210D01*
X19220Y2272D01*
X19255Y2335D01*
X19286Y2401D01*
X19313Y2467D01*
X19338Y2535D01*
X19358Y2604D01*
X19375Y2674D01*
X19388Y2745D01*
X19397Y2817D01*
X19403Y2889D01*
X19405Y2961D01*
X19405Y9851D01*
X17377Y9851D02*
X17379Y9901D01*
X17385Y9951D01*
X17395Y10001D01*
X17408Y10049D01*
X17425Y10097D01*
X17446Y10143D01*
X17470Y10187D01*
X17498Y10229D01*
X17529Y10269D01*
X17563Y10306D01*
X17600Y10341D01*
X17639Y10372D01*
X17680Y10401D01*
X17724Y10426D01*
X17770Y10448D01*
X17817Y10466D01*
X17865Y10480D01*
X17914Y10491D01*
X17964Y10498D01*
X18014Y10501D01*
X18065Y10500D01*
X18115Y10495D01*
X18165Y10486D01*
X18213Y10474D01*
X18261Y10457D01*
X18307Y10437D01*
X18352Y10414D01*
X18395Y10387D01*
X18435Y10357D01*
X18473Y10324D01*
X18508Y10288D01*
X18541Y10249D01*
X18570Y10208D01*
X18596Y10165D01*
X18619Y10120D01*
X18638Y10073D01*
X18653Y10025D01*
X18665Y9976D01*
X18673Y9926D01*
X18677Y9876D01*
X18677Y9826D01*
X18673Y9776D01*
X18665Y9726D01*
X18653Y9677D01*
X18638Y9629D01*
X18619Y9582D01*
X18596Y9537D01*
X18570Y9494D01*
X18541Y9453D01*
X18508Y9414D01*
X18473Y9378D01*
X18435Y9345D01*
X18395Y9315D01*
X18352Y9288D01*
X18307Y9265D01*
X18261Y9245D01*
X18213Y9228D01*
X18165Y9216D01*
X18115Y9207D01*
X18065Y9202D01*
X18014Y9201D01*
X17964Y9204D01*
X17914Y9211D01*
X17865Y9222D01*
X17817Y9236D01*
X17770Y9254D01*
X17724Y9276D01*
X17680Y9301D01*
X17639Y9330D01*
X17600Y9361D01*
X17563Y9396D01*
X17529Y9433D01*
X17498Y9473D01*
X17470Y9515D01*
X17446Y9559D01*
X17425Y9605D01*
X17408Y9653D01*
X17395Y9701D01*
X17385Y9751D01*
X17379Y9801D01*
X17377Y9851D01*
X18027Y11229D02*
X18099Y11227D01*
X18171Y11221D01*
X18243Y11212D01*
X18314Y11199D01*
X18384Y11182D01*
X18453Y11162D01*
X18521Y11137D01*
X18587Y11110D01*
X18653Y11079D01*
X18716Y11044D01*
X18778Y11007D01*
X18837Y10966D01*
X18894Y10922D01*
X18949Y10875D01*
X19001Y10825D01*
X19051Y10773D01*
X19098Y10718D01*
X19142Y10661D01*
X19183Y10602D01*
X19220Y10540D01*
X19255Y10477D01*
X19286Y10411D01*
X19313Y10345D01*
X19338Y10277D01*
X19358Y10208D01*
X19375Y10138D01*
X19388Y10067D01*
X19397Y9995D01*
X19403Y9923D01*
X19405Y9851D01*
X18027Y11229D02*
X1492Y11229D01*
X839Y9854D02*
X841Y9904D01*
X847Y9954D01*
X857Y10004D01*
X870Y10052D01*
X887Y10100D01*
X908Y10146D01*
X932Y10190D01*
X960Y10232D01*
X991Y10272D01*
X1025Y10309D01*
X1062Y10344D01*
X1101Y10375D01*
X1142Y10404D01*
X1186Y10429D01*
X1232Y10451D01*
X1279Y10469D01*
X1327Y10483D01*
X1376Y10494D01*
X1426Y10501D01*
X1476Y10504D01*
X1527Y10503D01*
X1577Y10498D01*
X1627Y10489D01*
X1675Y10477D01*
X1723Y10460D01*
X1769Y10440D01*
X1814Y10417D01*
X1857Y10390D01*
X1897Y10360D01*
X1935Y10327D01*
X1970Y10291D01*
X2003Y10252D01*
X2032Y10211D01*
X2058Y10168D01*
X2081Y10123D01*
X2100Y10076D01*
X2115Y10028D01*
X2127Y9979D01*
X2135Y9929D01*
X2139Y9879D01*
X2139Y9829D01*
X2135Y9779D01*
X2127Y9729D01*
X2115Y9680D01*
X2100Y9632D01*
X2081Y9585D01*
X2058Y9540D01*
X2032Y9497D01*
X2003Y9456D01*
X1970Y9417D01*
X1935Y9381D01*
X1897Y9348D01*
X1857Y9318D01*
X1814Y9291D01*
X1769Y9268D01*
X1723Y9248D01*
X1675Y9231D01*
X1627Y9219D01*
X1577Y9210D01*
X1527Y9205D01*
X1476Y9204D01*
X1426Y9207D01*
X1376Y9214D01*
X1327Y9225D01*
X1279Y9239D01*
X1232Y9257D01*
X1186Y9279D01*
X1142Y9304D01*
X1101Y9333D01*
X1062Y9364D01*
X1025Y9399D01*
X991Y9436D01*
X960Y9476D01*
X932Y9518D01*
X908Y9562D01*
X887Y9608D01*
X870Y9656D01*
X857Y9704D01*
X847Y9754D01*
X841Y9804D01*
X839Y9854D01*
X114Y9851D02*
X116Y9923D01*
X122Y9995D01*
X131Y10067D01*
X144Y10138D01*
X161Y10208D01*
X181Y10277D01*
X206Y10345D01*
X233Y10411D01*
X264Y10477D01*
X299Y10540D01*
X336Y10602D01*
X377Y10661D01*
X421Y10718D01*
X468Y10773D01*
X518Y10825D01*
X570Y10875D01*
X625Y10922D01*
X682Y10966D01*
X741Y11007D01*
X803Y11044D01*
X866Y11079D01*
X932Y11110D01*
X998Y11137D01*
X1066Y11162D01*
X1135Y11182D01*
X1205Y11199D01*
X1276Y11212D01*
X1348Y11221D01*
X1420Y11227D01*
X1492Y11229D01*
X114Y9854D02*
X114Y9851D01*
X114Y3001D01*
X114Y2958D01*
X839Y2958D02*
X841Y3008D01*
X847Y3058D01*
X857Y3108D01*
X870Y3156D01*
X887Y3204D01*
X908Y3250D01*
X932Y3294D01*
X960Y3336D01*
X991Y3376D01*
X1025Y3413D01*
X1062Y3448D01*
X1101Y3479D01*
X1142Y3508D01*
X1186Y3533D01*
X1232Y3555D01*
X1279Y3573D01*
X1327Y3587D01*
X1376Y3598D01*
X1426Y3605D01*
X1476Y3608D01*
X1527Y3607D01*
X1577Y3602D01*
X1627Y3593D01*
X1675Y3581D01*
X1723Y3564D01*
X1769Y3544D01*
X1814Y3521D01*
X1857Y3494D01*
X1897Y3464D01*
X1935Y3431D01*
X1970Y3395D01*
X2003Y3356D01*
X2032Y3315D01*
X2058Y3272D01*
X2081Y3227D01*
X2100Y3180D01*
X2115Y3132D01*
X2127Y3083D01*
X2135Y3033D01*
X2139Y2983D01*
X2139Y2933D01*
X2135Y2883D01*
X2127Y2833D01*
X2115Y2784D01*
X2100Y2736D01*
X2081Y2689D01*
X2058Y2644D01*
X2032Y2601D01*
X2003Y2560D01*
X1970Y2521D01*
X1935Y2485D01*
X1897Y2452D01*
X1857Y2422D01*
X1814Y2395D01*
X1769Y2372D01*
X1723Y2352D01*
X1675Y2335D01*
X1627Y2323D01*
X1577Y2314D01*
X1527Y2309D01*
X1476Y2308D01*
X1426Y2311D01*
X1376Y2318D01*
X1327Y2329D01*
X1279Y2343D01*
X1232Y2361D01*
X1186Y2383D01*
X1142Y2408D01*
X1101Y2437D01*
X1062Y2468D01*
X1025Y2503D01*
X991Y2540D01*
X960Y2580D01*
X932Y2622D01*
X908Y2666D01*
X887Y2712D01*
X870Y2760D01*
X857Y2808D01*
X847Y2858D01*
X841Y2908D01*
X839Y2958D01*
X113Y3001D02*
X114Y2928D01*
X119Y2854D01*
X127Y2782D01*
X140Y2710D01*
X156Y2638D01*
X175Y2568D01*
X199Y2498D01*
X226Y2430D01*
X257Y2364D01*
X291Y2299D01*
X328Y2236D01*
X369Y2175D01*
X412Y2117D01*
X459Y2060D01*
X509Y2006D01*
X561Y1955D01*
X616Y1907D01*
X673Y1862D01*
X733Y1819D01*
X795Y1780D01*
X859Y1744D01*
X924Y1712D01*
X992Y1683D01*
X1060Y1658D01*
X1130Y1636D01*
X1201Y1618D01*
X1273Y1603D01*
X1345Y1593D01*
X1418Y1586D01*
X1491Y1583D01*
X1295Y4434D02*
X1297Y4464D01*
X1303Y4494D01*
X1312Y4523D01*
X1325Y4550D01*
X1342Y4575D01*
X1361Y4598D01*
X1384Y4619D01*
X1409Y4636D01*
X1435Y4650D01*
X1464Y4660D01*
X1493Y4667D01*
X1523Y4670D01*
X1554Y4669D01*
X1584Y4664D01*
X1613Y4655D01*
X1640Y4643D01*
X1666Y4628D01*
X1690Y4609D01*
X1711Y4587D01*
X1729Y4563D01*
X1744Y4536D01*
X1755Y4508D01*
X1763Y4479D01*
X1767Y4449D01*
X1767Y4419D01*
X1763Y4389D01*
X1755Y4360D01*
X1744Y4332D01*
X1729Y4305D01*
X1711Y4281D01*
X1690Y4259D01*
X1666Y4240D01*
X1640Y4225D01*
X1613Y4213D01*
X1584Y4204D01*
X1554Y4199D01*
X1523Y4198D01*
X1493Y4201D01*
X1464Y4208D01*
X1435Y4218D01*
X1409Y4232D01*
X1384Y4249D01*
X1361Y4270D01*
X1342Y4293D01*
X1325Y4318D01*
X1312Y4345D01*
X1303Y4374D01*
X1297Y4404D01*
X1295Y4434D01*
X311Y4434D02*
X313Y4464D01*
X319Y4494D01*
X328Y4523D01*
X341Y4550D01*
X358Y4575D01*
X377Y4598D01*
X400Y4619D01*
X425Y4636D01*
X451Y4650D01*
X480Y4660D01*
X509Y4667D01*
X539Y4670D01*
X570Y4669D01*
X600Y4664D01*
X629Y4655D01*
X656Y4643D01*
X682Y4628D01*
X706Y4609D01*
X727Y4587D01*
X745Y4563D01*
X760Y4536D01*
X771Y4508D01*
X779Y4479D01*
X783Y4449D01*
X783Y4419D01*
X779Y4389D01*
X771Y4360D01*
X760Y4332D01*
X745Y4305D01*
X727Y4281D01*
X706Y4259D01*
X682Y4240D01*
X656Y4225D01*
X629Y4213D01*
X600Y4204D01*
X570Y4199D01*
X539Y4198D01*
X509Y4201D01*
X480Y4208D01*
X451Y4218D01*
X425Y4232D01*
X400Y4249D01*
X377Y4270D01*
X358Y4293D01*
X341Y4318D01*
X328Y4345D01*
X319Y4374D01*
X313Y4404D01*
X311Y4434D01*
X3264Y6402D02*
X3266Y6432D01*
X3272Y6462D01*
X3281Y6491D01*
X3294Y6518D01*
X3311Y6543D01*
X3330Y6566D01*
X3353Y6587D01*
X3378Y6604D01*
X3404Y6618D01*
X3433Y6628D01*
X3462Y6635D01*
X3492Y6638D01*
X3523Y6637D01*
X3553Y6632D01*
X3582Y6623D01*
X3609Y6611D01*
X3635Y6596D01*
X3659Y6577D01*
X3680Y6555D01*
X3698Y6531D01*
X3713Y6504D01*
X3724Y6476D01*
X3732Y6447D01*
X3736Y6417D01*
X3736Y6387D01*
X3732Y6357D01*
X3724Y6328D01*
X3713Y6300D01*
X3698Y6273D01*
X3680Y6249D01*
X3659Y6227D01*
X3635Y6208D01*
X3609Y6193D01*
X3582Y6181D01*
X3553Y6172D01*
X3523Y6167D01*
X3492Y6166D01*
X3462Y6169D01*
X3433Y6176D01*
X3404Y6186D01*
X3378Y6200D01*
X3353Y6217D01*
X3330Y6238D01*
X3311Y6261D01*
X3294Y6286D01*
X3281Y6313D01*
X3272Y6342D01*
X3266Y6372D01*
X3264Y6402D01*
X1295Y8371D02*
X1297Y8401D01*
X1303Y8431D01*
X1312Y8460D01*
X1325Y8487D01*
X1342Y8512D01*
X1361Y8535D01*
X1384Y8556D01*
X1409Y8573D01*
X1435Y8587D01*
X1464Y8597D01*
X1493Y8604D01*
X1523Y8607D01*
X1554Y8606D01*
X1584Y8601D01*
X1613Y8592D01*
X1640Y8580D01*
X1666Y8565D01*
X1690Y8546D01*
X1711Y8524D01*
X1729Y8500D01*
X1744Y8473D01*
X1755Y8445D01*
X1763Y8416D01*
X1767Y8386D01*
X1767Y8356D01*
X1763Y8326D01*
X1755Y8297D01*
X1744Y8269D01*
X1729Y8242D01*
X1711Y8218D01*
X1690Y8196D01*
X1666Y8177D01*
X1640Y8162D01*
X1613Y8150D01*
X1584Y8141D01*
X1554Y8136D01*
X1523Y8135D01*
X1493Y8138D01*
X1464Y8145D01*
X1435Y8155D01*
X1409Y8169D01*
X1384Y8186D01*
X1361Y8207D01*
X1342Y8230D01*
X1325Y8255D01*
X1312Y8282D01*
X1303Y8311D01*
X1297Y8341D01*
X1295Y8371D01*
X311Y8371D02*
X313Y8401D01*
X319Y8431D01*
X328Y8460D01*
X341Y8487D01*
X358Y8512D01*
X377Y8535D01*
X400Y8556D01*
X425Y8573D01*
X451Y8587D01*
X480Y8597D01*
X509Y8604D01*
X539Y8607D01*
X570Y8606D01*
X600Y8601D01*
X629Y8592D01*
X656Y8580D01*
X682Y8565D01*
X706Y8546D01*
X727Y8524D01*
X745Y8500D01*
X760Y8473D01*
X771Y8445D01*
X779Y8416D01*
X783Y8386D01*
X783Y8356D01*
X779Y8326D01*
X771Y8297D01*
X760Y8269D01*
X745Y8242D01*
X727Y8218D01*
X706Y8196D01*
X682Y8177D01*
X656Y8162D01*
X629Y8150D01*
X600Y8141D01*
X570Y8136D01*
X539Y8135D01*
X509Y8138D01*
X480Y8145D01*
X451Y8155D01*
X425Y8169D01*
X400Y8186D01*
X377Y8207D01*
X358Y8230D01*
X341Y8255D01*
X328Y8282D01*
X319Y8311D01*
X313Y8341D01*
X311Y8371D01*
D14*
X8506Y5040D02*
X8677Y5040D01*
X8733Y4983D01*
X8733Y4870D01*
X8677Y4813D01*
X8506Y4813D01*
X8865Y4813D02*
X8979Y4813D01*
X8922Y4813D02*
X8922Y5040D01*
X8979Y5040D01*
X8922Y5153D02*
X8922Y5210D01*
X9120Y5040D02*
X9290Y5040D01*
X9347Y4983D01*
X9347Y4870D01*
X9290Y4813D01*
X9120Y4813D01*
X9120Y4756D02*
X9120Y5040D01*
X9120Y4756D02*
X9177Y4700D01*
X9234Y4700D01*
X9489Y4813D02*
X9659Y4813D01*
X9715Y4870D01*
X9659Y4927D01*
X9489Y4927D01*
X9489Y4983D02*
X9489Y4813D01*
X9489Y4983D02*
X9545Y5040D01*
X9659Y5040D01*
X9857Y5153D02*
X9857Y4813D01*
X10084Y4813D02*
X10084Y5153D01*
X9970Y5040D01*
X9857Y5153D01*
X9914Y4553D02*
X10027Y4553D01*
X10084Y4497D01*
X10084Y4440D01*
X10027Y4383D01*
X9914Y4383D01*
X9857Y4327D01*
X9857Y4270D01*
X9914Y4213D01*
X10027Y4213D01*
X10084Y4270D01*
X9857Y4497D02*
X9914Y4553D01*
X9715Y4440D02*
X9659Y4440D01*
X9602Y4383D01*
X9545Y4440D01*
X9489Y4383D01*
X9489Y4213D01*
X9602Y4213D02*
X9602Y4383D01*
X9715Y4440D02*
X9715Y4213D01*
X9347Y4270D02*
X9347Y4383D01*
X9290Y4440D01*
X9177Y4440D01*
X9120Y4383D01*
X9120Y4270D01*
X9177Y4213D01*
X9290Y4213D01*
X9347Y4270D01*
X8979Y4327D02*
X8809Y4440D01*
X8672Y4383D02*
X8672Y4270D01*
X8615Y4213D01*
X8502Y4213D01*
X8445Y4327D02*
X8672Y4327D01*
X8672Y4383D02*
X8615Y4440D01*
X8502Y4440D01*
X8445Y4383D01*
X8445Y4327D01*
X8809Y4213D02*
X8979Y4327D01*
X8979Y4213D02*
X8979Y4553D01*
X8865Y3853D02*
X8865Y3513D01*
X8752Y3513D02*
X8979Y3513D01*
X9120Y3570D02*
X9177Y3513D01*
X9290Y3513D01*
X9347Y3570D01*
X9120Y3797D01*
X9120Y3570D01*
X8979Y3740D02*
X8865Y3853D01*
X9120Y3797D02*
X9177Y3853D01*
X9290Y3853D01*
X9347Y3797D01*
X9347Y3570D01*
X9489Y3570D02*
X9489Y3797D01*
X9545Y3853D01*
X9659Y3853D01*
X9715Y3797D01*
X9715Y3570D01*
X9659Y3513D01*
X9545Y3513D01*
X9489Y3570D01*
X9857Y3513D02*
X9857Y3853D01*
X9970Y3740D01*
X10084Y3853D01*
X10084Y3513D01*
X18869Y4708D02*
X19209Y4708D01*
X18869Y4935D01*
X19209Y4935D01*
X19209Y5077D02*
X18869Y5077D01*
X18983Y5077D02*
X18983Y5247D01*
X19039Y5304D01*
X19153Y5304D01*
X19209Y5247D01*
X19209Y5077D01*
X18983Y5190D02*
X18869Y5304D01*
X18869Y5445D02*
X19209Y5445D01*
X19209Y5672D01*
X19153Y5813D02*
X19209Y5870D01*
X19209Y5983D01*
X19153Y6040D01*
X19096Y6040D01*
X18869Y5813D01*
X18869Y6040D01*
X19039Y6182D02*
X19039Y6408D01*
X18869Y6352D02*
X19209Y6352D01*
X19039Y6182D01*
X18869Y6550D02*
X18869Y6777D01*
X18926Y6918D02*
X19153Y7145D01*
X18926Y7145D01*
X18869Y7088D01*
X18869Y6975D01*
X18926Y6918D01*
X19153Y6918D01*
X19209Y6975D01*
X19209Y7088D01*
X19153Y7145D01*
X19096Y7287D02*
X19209Y7400D01*
X18869Y7400D01*
X18869Y7287D02*
X18869Y7513D01*
X19039Y7655D02*
X19039Y7882D01*
X18926Y7768D02*
X19153Y7768D01*
X19209Y6550D02*
X18869Y6550D01*
X19039Y5558D02*
X19039Y5445D01*
D15*
X15942Y3893D02*
X15662Y3893D01*
X6542Y3345D02*
X6708Y3221D01*
X6880Y3105D01*
X7057Y2998D01*
X7239Y2899D01*
X7426Y2810D01*
X7617Y2729D01*
X7812Y2658D01*
X8010Y2597D01*
X8210Y2546D01*
X8413Y2504D01*
X8618Y2472D01*
X8824Y2451D01*
X9031Y2439D01*
X9238Y2438D01*
X9445Y2446D01*
X9651Y2465D01*
X9857Y2494D01*
X10060Y2533D01*
X10261Y2581D01*
X10460Y2640D01*
X10656Y2708D01*
X10848Y2786D01*
X11036Y2873D01*
X11220Y2969D01*
X11398Y3073D01*
X11572Y3187D01*
X11739Y3309D01*
X11901Y3439D01*
X12056Y3576D01*
X12204Y3721D01*
X12345Y3873D01*
X12478Y4032D01*
X12603Y4197D01*
X12720Y4368D01*
X12829Y4544D01*
X12928Y4726D01*
X13019Y4912D01*
X13101Y5102D01*
X13173Y5297D01*
X13236Y5494D01*
X13289Y5694D01*
X13332Y5897D01*
X13365Y6102D01*
X13388Y6307D01*
X13401Y6514D01*
X13404Y6721D01*
X13397Y6928D01*
X13379Y7135D01*
X13352Y7340D01*
X13314Y7544D01*
X13267Y7746D01*
X13210Y7945D01*
X13143Y8141D01*
X13067Y8334D01*
X12981Y8522D01*
X12887Y8707D01*
X12783Y8886D01*
X12671Y9060D01*
X12550Y9229D01*
X12422Y9391D01*
X12285Y9547D01*
X12141Y9696D01*
X11990Y9838D01*
X11832Y9972D01*
X11668Y10099D01*
X11498Y10217D01*
X11322Y10327D01*
X11141Y10428D01*
X10956Y10520D01*
X10766Y10603D01*
X10572Y10676D01*
X10375Y10740D01*
X10175Y10795D01*
X9973Y10839D01*
X9769Y10874D01*
X9563Y10898D01*
X9356Y10913D01*
X9149Y10917D01*
X8942Y10911D01*
X8736Y10895D01*
X8530Y10869D01*
X8326Y10833D01*
X8124Y10787D01*
X7924Y10732D01*
X7728Y10666D01*
X7535Y10591D01*
X7345Y10507D01*
X7160Y10414D01*
X6980Y10311D01*
X6805Y10200D01*
X6636Y10081D01*
X6473Y9953D01*
X6316Y9818D01*
X6166Y9675D01*
X6023Y9525D01*
X5888Y9368D01*
X5760Y9205D01*
X5641Y9036D01*
X5530Y8861D01*
X5427Y8681D01*
X5334Y8496D01*
X5250Y8306D01*
X5175Y8113D01*
X5109Y7917D01*
X5054Y7717D01*
X5008Y7515D01*
X4972Y7311D01*
X4946Y7106D01*
X4930Y6899D01*
X4924Y6692D01*
X4928Y6485D01*
X4943Y6278D01*
X4967Y6072D01*
X3944Y5482D01*
X5519Y2754D01*
X6542Y3345D01*
X6048Y4765D02*
X6048Y5045D01*
X6188Y4905D02*
X5908Y4905D01*
X11568Y8030D02*
X11848Y8030D01*
X15662Y8969D02*
X15942Y8969D01*
X15802Y9109D02*
X15802Y8829D01*
D16*
X9605Y8693D03*
X9575Y8498D03*
X9200Y8598D03*
X9185Y8588D03*
X9180Y8583D03*
X9170Y8578D03*
X9165Y8573D03*
X9155Y8568D03*
X9150Y8563D03*
X9145Y8558D03*
X9135Y8553D03*
X9130Y8548D03*
X9115Y8538D03*
X9100Y8528D03*
X9095Y8523D03*
X9080Y8513D03*
X9035Y8483D03*
X9020Y8473D03*
X9015Y8468D03*
X9010Y8463D03*
X8995Y8453D03*
X9100Y8178D03*
X8980Y8828D03*
X8860Y8983D03*
X8860Y8988D03*
X8855Y8993D03*
X8855Y8998D03*
X9385Y9138D03*
X9385Y9143D03*
X9545Y9163D03*
X9545Y9168D03*
X9230Y9703D03*
X9230Y9708D03*
D17*
X9100Y9903D03*
X9510Y10098D03*
X10450Y9593D03*
X10450Y9053D03*
X10445Y9048D03*
X10190Y8528D03*
X9460Y8348D03*
X9100Y8183D03*
X7995Y8453D03*
X7910Y9483D03*
X8195Y9633D03*
D18*
X8160Y9613D03*
X9110Y10293D03*
X10355Y9643D03*
X9100Y8188D03*
X8825Y8303D03*
D19*
X9097Y8193D03*
X8127Y8393D03*
X9087Y9933D03*
X9507Y10088D03*
D20*
X8102Y9568D03*
X9097Y8198D03*
D21*
X9100Y8203D03*
X10195Y9698D03*
D22*
X10205Y9688D03*
X9100Y8208D03*
D23*
X9100Y8213D03*
X10215Y9673D03*
D24*
X9497Y10058D03*
X9097Y8218D03*
D25*
X9100Y8223D03*
D26*
X9097Y8228D03*
X9472Y10038D03*
D27*
X9455Y10023D03*
X9100Y8233D03*
D28*
X9100Y8238D03*
X9445Y10013D03*
D29*
X9097Y8243D03*
D30*
X9097Y8248D03*
X9742Y8393D03*
D31*
X9772Y8408D03*
X9097Y8253D03*
D32*
X9097Y8258D03*
X9797Y8423D03*
D33*
X9827Y8443D03*
X9097Y8263D03*
D34*
X9097Y8268D03*
X9832Y8448D03*
X9837Y8453D03*
D35*
X9097Y8273D03*
D36*
X9097Y8278D03*
D37*
X8915Y8388D03*
X8365Y8278D03*
X8980Y8803D03*
X8845Y9033D03*
X8840Y9043D03*
X8840Y9048D03*
X9385Y9163D03*
X9550Y9138D03*
X9605Y8668D03*
X9570Y8503D03*
X9225Y9733D03*
D38*
X9100Y8283D03*
D39*
X9180Y8613D03*
X8365Y8283D03*
X7890Y8938D03*
X7885Y8943D03*
X7880Y8953D03*
X7875Y8958D03*
X7870Y8963D03*
X7865Y8968D03*
X7860Y9443D03*
X7865Y9448D03*
X7870Y9453D03*
X8205Y9638D03*
X8330Y9858D03*
X8335Y9863D03*
X8340Y9868D03*
X10320Y8953D03*
X10480Y9078D03*
X10485Y9083D03*
X10485Y9563D03*
X10480Y9568D03*
X10235Y8563D03*
X10230Y8558D03*
D40*
X9312Y8288D03*
X8362Y8298D03*
X8117Y9578D03*
D41*
X8110Y9573D03*
X8060Y9543D03*
X9295Y9993D03*
X10175Y9718D03*
X10295Y9658D03*
X8885Y8288D03*
D42*
X8365Y8288D03*
X8065Y8413D03*
X8170Y9618D03*
X8450Y9938D03*
X9095Y9918D03*
X10120Y8488D03*
D43*
X9342Y8293D03*
X8852Y8293D03*
X9262Y9988D03*
D44*
X10320Y9653D03*
X8140Y9598D03*
X8030Y9538D03*
X8365Y8293D03*
D45*
X8837Y8298D03*
X9357Y8298D03*
X8012Y9533D03*
X8152Y9608D03*
X10337Y9648D03*
D46*
X10142Y9743D03*
X9172Y8638D03*
X9627Y8468D03*
X9372Y8303D03*
X10102Y8483D03*
D47*
X8365Y8303D03*
X10190Y9703D03*
D48*
X10367Y9638D03*
X9162Y8628D03*
X9387Y8308D03*
X8807Y8308D03*
X8627Y8403D03*
X7982Y9523D03*
D49*
X8362Y8308D03*
D50*
X8797Y8313D03*
X9162Y8623D03*
X9397Y8313D03*
X10127Y8493D03*
X10377Y9633D03*
X7972Y9518D03*
D51*
X9522Y10073D03*
X8362Y8313D03*
D52*
X8787Y8318D03*
X9407Y8318D03*
X10137Y8498D03*
X10352Y8988D03*
X10357Y8993D03*
X10392Y9018D03*
X8427Y9928D03*
X7962Y9513D03*
D53*
X8362Y8318D03*
D54*
X8777Y8323D03*
X9417Y8323D03*
X9822Y8363D03*
X10157Y8508D03*
X10342Y8978D03*
X10347Y8983D03*
X10407Y9618D03*
X8417Y9923D03*
X7942Y9503D03*
D55*
X8362Y8323D03*
D56*
X8035Y8428D03*
X8025Y8433D03*
X9425Y8328D03*
X9435Y8333D03*
X10410Y9028D03*
X10420Y9033D03*
X10420Y9613D03*
X8410Y9918D03*
X8185Y9628D03*
X7935Y9498D03*
D57*
X7950Y9508D03*
X9095Y9913D03*
X10400Y9623D03*
X10400Y9023D03*
X10150Y8503D03*
X9160Y8643D03*
X8770Y8328D03*
X8635Y8408D03*
X8045Y8423D03*
D58*
X8362Y8328D03*
X9477Y10043D03*
D59*
X8485Y8333D03*
D60*
X8010Y8443D03*
X9445Y8338D03*
X10175Y8518D03*
X10435Y9603D03*
X8400Y9913D03*
X8395Y9908D03*
X7925Y9493D03*
D61*
X8792Y9203D03*
X8792Y9198D03*
X9392Y9228D03*
X9567Y9053D03*
X9567Y9048D03*
X8992Y8703D03*
X8992Y8698D03*
X8887Y8338D03*
X9612Y8598D03*
X9212Y9818D03*
X9212Y9823D03*
D62*
X8462Y8338D03*
X8452Y8343D03*
D63*
X8642Y8413D03*
X9147Y8648D03*
X9452Y8343D03*
X10182Y8523D03*
X10332Y8968D03*
X10437Y9043D03*
X10442Y9598D03*
X8387Y9903D03*
X7917Y9488D03*
X8002Y8448D03*
D64*
X8892Y8343D03*
X9567Y8513D03*
X9567Y9063D03*
X9392Y9218D03*
X9392Y9223D03*
X8802Y9168D03*
X8797Y9178D03*
X8797Y9183D03*
X9217Y9803D03*
D65*
X9215Y9798D03*
X9390Y9213D03*
X9565Y9073D03*
X9565Y9068D03*
X8990Y8728D03*
X8990Y8723D03*
X8665Y8458D03*
X8895Y8348D03*
X9610Y8613D03*
X9610Y8618D03*
X8805Y9158D03*
X8805Y9163D03*
X8800Y9173D03*
D66*
X8415Y8363D03*
X8425Y8358D03*
X8445Y8348D03*
D67*
X7987Y8458D03*
X7982Y8463D03*
X9467Y8353D03*
X9472Y8358D03*
X10197Y8533D03*
X10327Y8963D03*
X10457Y9058D03*
X10457Y9588D03*
X8377Y9898D03*
X8372Y9893D03*
X7902Y9478D03*
D68*
X8810Y9143D03*
X8810Y9138D03*
X9390Y9203D03*
X9560Y9088D03*
X9610Y8633D03*
X9610Y8628D03*
X9610Y8623D03*
X8895Y8353D03*
X9220Y9783D03*
D69*
X8392Y8378D03*
X8397Y8373D03*
X8407Y8368D03*
X8432Y8353D03*
X8382Y8383D03*
D70*
X7902Y8543D03*
X7897Y8548D03*
X7897Y8553D03*
X7892Y8558D03*
X7887Y8883D03*
X7892Y8893D03*
X7897Y8898D03*
X7897Y8903D03*
X7902Y8913D03*
X7902Y8918D03*
X7802Y9038D03*
X7797Y9043D03*
X7792Y9053D03*
X7797Y9368D03*
X7802Y9378D03*
X7807Y9383D03*
X8217Y9643D03*
X8272Y9788D03*
X8277Y9793D03*
X8277Y9798D03*
X8282Y9803D03*
X8287Y9808D03*
X10312Y8943D03*
X10537Y9138D03*
X10542Y9148D03*
X10547Y9153D03*
X10552Y9158D03*
X10557Y9168D03*
X10557Y9478D03*
X10552Y9488D03*
X10547Y9493D03*
X10542Y9498D03*
X10537Y9508D03*
X10302Y8648D03*
X10297Y8638D03*
X10292Y8633D03*
X10292Y8628D03*
X10287Y8623D03*
X9822Y8358D03*
X8947Y8438D03*
D71*
X8897Y8358D03*
X8987Y8743D03*
X8987Y8748D03*
X8817Y9118D03*
X8817Y9123D03*
X8812Y9128D03*
X8812Y9133D03*
X9387Y9198D03*
X9562Y9093D03*
X9217Y9778D03*
X9677Y9788D03*
X9682Y9818D03*
X9687Y9848D03*
X9692Y9878D03*
X9697Y9903D03*
X9697Y9908D03*
X9702Y9933D03*
X9702Y9938D03*
X9707Y9963D03*
X9707Y9968D03*
X9727Y10088D03*
X9727Y10093D03*
D72*
X9640Y9993D03*
X10110Y9758D03*
X10465Y9583D03*
X10470Y9578D03*
X10470Y9068D03*
X10465Y9063D03*
X10325Y8958D03*
X10210Y8543D03*
X10205Y8538D03*
X9600Y8478D03*
X9480Y8363D03*
X8645Y8418D03*
X7975Y8468D03*
X7890Y9468D03*
X7895Y9473D03*
X8365Y9888D03*
D73*
X9165Y9528D03*
X9160Y9508D03*
X9155Y9488D03*
X9150Y9463D03*
X9145Y9443D03*
X9140Y9423D03*
X9135Y9398D03*
X9130Y9378D03*
X9125Y9358D03*
X9120Y9333D03*
X9115Y9313D03*
X9110Y9293D03*
X9105Y9268D03*
X9100Y9248D03*
X9095Y9228D03*
X9090Y9203D03*
X9085Y9183D03*
X9080Y9163D03*
X9075Y9138D03*
X9070Y9118D03*
X9065Y9098D03*
X9060Y9073D03*
X9055Y9053D03*
X9050Y9033D03*
X9045Y9008D03*
X9040Y8988D03*
X9035Y8968D03*
X9030Y8943D03*
X9025Y8928D03*
X9025Y8923D03*
X9020Y8913D03*
X9020Y8908D03*
X9020Y8903D03*
X9015Y8888D03*
X9015Y8883D03*
X9015Y8878D03*
X9010Y8868D03*
X9010Y8863D03*
X8985Y8758D03*
X8985Y8753D03*
X8865Y8718D03*
X8865Y8713D03*
X8865Y8708D03*
X8865Y8703D03*
X8870Y8693D03*
X8870Y8688D03*
X8870Y8683D03*
X8870Y8678D03*
X8870Y8673D03*
X8870Y8668D03*
X8870Y8663D03*
X8870Y8658D03*
X8870Y8653D03*
X8875Y8648D03*
X8875Y8643D03*
X8875Y8638D03*
X8875Y8633D03*
X8875Y8628D03*
X8875Y8623D03*
X8875Y8618D03*
X8875Y8613D03*
X8875Y8608D03*
X8875Y8603D03*
X8880Y8598D03*
X8880Y8593D03*
X8880Y8588D03*
X8880Y8583D03*
X8880Y8578D03*
X8880Y8573D03*
X8880Y8568D03*
X8880Y8563D03*
X8880Y8558D03*
X8880Y8553D03*
X8885Y8548D03*
X8885Y8543D03*
X8885Y8538D03*
X8885Y8533D03*
X8885Y8528D03*
X8885Y8523D03*
X8885Y8518D03*
X8885Y8513D03*
X8885Y8508D03*
X8885Y8503D03*
X8890Y8498D03*
X8890Y8493D03*
X8890Y8488D03*
X8890Y8483D03*
X8890Y8478D03*
X8890Y8473D03*
X8890Y8468D03*
X8890Y8463D03*
X8890Y8458D03*
X8890Y8453D03*
X8895Y8448D03*
X8900Y8363D03*
X8860Y8753D03*
X8860Y8758D03*
X8860Y8763D03*
X8855Y8803D03*
X8855Y8808D03*
X8850Y8833D03*
X8850Y8838D03*
X8850Y8843D03*
X8850Y8848D03*
X8850Y8853D03*
X8845Y8863D03*
X8845Y8868D03*
X8845Y8873D03*
X8845Y8878D03*
X8845Y8883D03*
X8845Y8888D03*
X8845Y8893D03*
X8845Y8898D03*
X8840Y8908D03*
X8840Y8913D03*
X8840Y8918D03*
X8840Y8923D03*
X8840Y8928D03*
X8840Y8933D03*
X8820Y9108D03*
X8820Y9113D03*
X9390Y9193D03*
X9430Y9083D03*
X9440Y9058D03*
X9450Y9033D03*
X9460Y9008D03*
X9560Y9098D03*
X9580Y9213D03*
X9580Y9218D03*
X9580Y9223D03*
X9580Y9228D03*
X9580Y9233D03*
X9585Y9243D03*
X9585Y9248D03*
X9585Y9253D03*
X9585Y9258D03*
X9590Y9268D03*
X9590Y9273D03*
X9590Y9278D03*
X9590Y9283D03*
X9590Y9288D03*
X9595Y9298D03*
X9595Y9303D03*
X9595Y9308D03*
X9595Y9313D03*
X9595Y9318D03*
X9600Y9328D03*
X9600Y9333D03*
X9600Y9338D03*
X9600Y9343D03*
X9600Y9348D03*
X9605Y9358D03*
X9605Y9363D03*
X9605Y9368D03*
X9605Y9373D03*
X9610Y9383D03*
X9610Y9388D03*
X9610Y9393D03*
X9610Y9398D03*
X9610Y9403D03*
X9615Y9413D03*
X9615Y9418D03*
X9615Y9423D03*
X9615Y9428D03*
X9615Y9433D03*
X9620Y9443D03*
X9620Y9448D03*
X9620Y9453D03*
X9620Y9458D03*
X9620Y9463D03*
X9625Y9473D03*
X9625Y9478D03*
X9625Y9483D03*
X9625Y9488D03*
X9625Y9493D03*
X9630Y9503D03*
X9630Y9508D03*
X9630Y9513D03*
X9630Y9518D03*
X9635Y9528D03*
X9635Y9533D03*
X9635Y9538D03*
X9635Y9543D03*
X9635Y9548D03*
X9640Y9558D03*
X9640Y9563D03*
X9640Y9568D03*
X9640Y9573D03*
X9640Y9578D03*
X9645Y9588D03*
X9645Y9593D03*
X9645Y9598D03*
X9645Y9603D03*
X9645Y9608D03*
X9650Y9618D03*
X9650Y9623D03*
X9650Y9628D03*
X9650Y9633D03*
X9655Y9643D03*
X9655Y9648D03*
X9655Y9653D03*
X9655Y9658D03*
X9655Y9663D03*
X9660Y9673D03*
X9660Y9678D03*
X9660Y9683D03*
X9660Y9688D03*
X9660Y9693D03*
X9660Y9698D03*
X9665Y9703D03*
X9665Y9708D03*
X9665Y9713D03*
X9665Y9718D03*
X9665Y9723D03*
X9665Y9728D03*
X9670Y9733D03*
X9670Y9738D03*
X9670Y9743D03*
X9670Y9748D03*
X9670Y9753D03*
X9670Y9758D03*
X9675Y9763D03*
X9675Y9768D03*
X9675Y9773D03*
X9675Y9778D03*
X9675Y9783D03*
X9680Y9793D03*
X9680Y9798D03*
X9680Y9803D03*
X9680Y9808D03*
X9680Y9813D03*
X9685Y9823D03*
X9685Y9828D03*
X9685Y9833D03*
X9685Y9838D03*
X9685Y9843D03*
X9690Y9853D03*
X9690Y9858D03*
X9690Y9863D03*
X9690Y9868D03*
X9690Y9873D03*
X9695Y9883D03*
X9695Y9888D03*
X9695Y9893D03*
X9695Y9898D03*
X9700Y9913D03*
X9700Y9918D03*
X9700Y9923D03*
X9700Y9928D03*
X9705Y9943D03*
X9705Y9948D03*
X9705Y9953D03*
X9705Y9958D03*
X9730Y10098D03*
X9730Y10103D03*
X9220Y9773D03*
X9220Y9768D03*
X9195Y9658D03*
X9190Y9638D03*
X9185Y9618D03*
X9185Y9613D03*
X9180Y9593D03*
X9175Y9573D03*
X9170Y9553D03*
X9845Y9243D03*
X9835Y9218D03*
X9825Y9193D03*
X9815Y9168D03*
X9790Y9103D03*
X9780Y9078D03*
X9770Y9053D03*
X9760Y9028D03*
X9735Y8963D03*
X9725Y8938D03*
X9715Y8913D03*
X9705Y8888D03*
X9680Y8823D03*
X9670Y8798D03*
X9660Y8773D03*
X9650Y8748D03*
X9610Y8643D03*
X9610Y8638D03*
X9880Y9333D03*
X9890Y9358D03*
X9900Y9383D03*
X9910Y9408D03*
X9935Y9473D03*
X9945Y9498D03*
X9955Y9523D03*
X9965Y9548D03*
X9975Y9573D03*
X9985Y9598D03*
X9990Y9613D03*
X10000Y9638D03*
D74*
X9090Y9928D03*
X8745Y10058D03*
X8105Y8398D03*
X9825Y8368D03*
D75*
X10217Y8548D03*
X10222Y8553D03*
X9497Y8378D03*
X9492Y8373D03*
X9487Y8368D03*
X10477Y9073D03*
X10472Y9573D03*
X8357Y9883D03*
X8352Y9878D03*
X8347Y9873D03*
X7882Y9463D03*
X7877Y9458D03*
X7957Y8483D03*
X7962Y8478D03*
X7967Y8473D03*
D76*
X8867Y8698D03*
X8862Y8723D03*
X8862Y8728D03*
X8862Y8733D03*
X8862Y8738D03*
X8862Y8743D03*
X8862Y8748D03*
X8857Y8768D03*
X8857Y8773D03*
X8857Y8778D03*
X8857Y8783D03*
X8857Y8788D03*
X8857Y8793D03*
X8857Y8798D03*
X8852Y8813D03*
X8852Y8818D03*
X8852Y8823D03*
X8852Y8828D03*
X8847Y8858D03*
X8842Y8903D03*
X8907Y8933D03*
X8912Y8923D03*
X8917Y8913D03*
X8922Y8903D03*
X8927Y8893D03*
X8932Y8883D03*
X8937Y8873D03*
X8942Y8863D03*
X9012Y8873D03*
X9017Y8893D03*
X9017Y8898D03*
X9022Y8918D03*
X9027Y8933D03*
X9027Y8938D03*
X9032Y8948D03*
X9032Y8953D03*
X9032Y8958D03*
X9032Y8963D03*
X9037Y8973D03*
X9037Y8978D03*
X9037Y8983D03*
X9042Y8993D03*
X9042Y8998D03*
X9042Y9003D03*
X9047Y9013D03*
X9047Y9018D03*
X9047Y9023D03*
X9047Y9028D03*
X9052Y9038D03*
X9052Y9043D03*
X9052Y9048D03*
X9057Y9058D03*
X9057Y9063D03*
X9057Y9068D03*
X9062Y9078D03*
X9062Y9083D03*
X9062Y9088D03*
X9062Y9093D03*
X9067Y9103D03*
X9067Y9108D03*
X9067Y9113D03*
X9072Y9123D03*
X9072Y9128D03*
X9072Y9133D03*
X9077Y9143D03*
X9077Y9148D03*
X9077Y9153D03*
X9077Y9158D03*
X9082Y9168D03*
X9082Y9173D03*
X9082Y9178D03*
X9087Y9188D03*
X9087Y9193D03*
X9087Y9198D03*
X9092Y9208D03*
X9092Y9213D03*
X9092Y9218D03*
X9092Y9223D03*
X9097Y9233D03*
X9097Y9238D03*
X9097Y9243D03*
X9102Y9253D03*
X9102Y9258D03*
X9102Y9263D03*
X9107Y9273D03*
X9107Y9278D03*
X9107Y9283D03*
X9107Y9288D03*
X9112Y9298D03*
X9112Y9303D03*
X9112Y9308D03*
X9117Y9318D03*
X9117Y9323D03*
X9117Y9328D03*
X9122Y9338D03*
X9122Y9343D03*
X9122Y9348D03*
X9122Y9353D03*
X9127Y9363D03*
X9127Y9368D03*
X9127Y9373D03*
X9132Y9383D03*
X9132Y9388D03*
X9132Y9393D03*
X9137Y9403D03*
X9137Y9408D03*
X9137Y9413D03*
X9137Y9418D03*
X9142Y9428D03*
X9142Y9433D03*
X9142Y9438D03*
X9147Y9448D03*
X9147Y9453D03*
X9147Y9458D03*
X9152Y9468D03*
X9152Y9473D03*
X9152Y9478D03*
X9152Y9483D03*
X9157Y9493D03*
X9157Y9498D03*
X9157Y9503D03*
X9162Y9513D03*
X9162Y9518D03*
X9162Y9523D03*
X9167Y9533D03*
X9167Y9538D03*
X9167Y9543D03*
X9167Y9548D03*
X9172Y9558D03*
X9172Y9563D03*
X9172Y9568D03*
X9177Y9578D03*
X9177Y9583D03*
X9177Y9588D03*
X9182Y9598D03*
X9182Y9603D03*
X9182Y9608D03*
X9187Y9623D03*
X9187Y9628D03*
X9187Y9633D03*
X9192Y9643D03*
X9192Y9648D03*
X9192Y9653D03*
X9197Y9663D03*
X9197Y9668D03*
X9197Y9673D03*
X9267Y9673D03*
X9272Y9663D03*
X9277Y9653D03*
X9282Y9643D03*
X9287Y9633D03*
X9292Y9623D03*
X9297Y9613D03*
X9302Y9603D03*
X9307Y9593D03*
X9312Y9583D03*
X9317Y9573D03*
X9322Y9563D03*
X9327Y9553D03*
X9332Y9543D03*
X9337Y9533D03*
X9342Y9523D03*
X9347Y9513D03*
X9352Y9503D03*
X9357Y9493D03*
X9362Y9483D03*
X9367Y9473D03*
X9372Y9468D03*
X9372Y9463D03*
X9377Y9458D03*
X9377Y9453D03*
X9382Y9448D03*
X9382Y9443D03*
X9387Y9438D03*
X9387Y9433D03*
X9392Y9428D03*
X9397Y9418D03*
X9402Y9408D03*
X9407Y9398D03*
X9412Y9388D03*
X9417Y9378D03*
X9422Y9368D03*
X9427Y9358D03*
X9432Y9348D03*
X9437Y9338D03*
X9387Y9188D03*
X9422Y9108D03*
X9422Y9103D03*
X9422Y9098D03*
X9427Y9093D03*
X9427Y9088D03*
X9432Y9078D03*
X9432Y9073D03*
X9437Y9068D03*
X9437Y9063D03*
X9442Y9053D03*
X9442Y9048D03*
X9447Y9043D03*
X9447Y9038D03*
X9452Y9028D03*
X9452Y9023D03*
X9457Y9018D03*
X9457Y9013D03*
X9462Y9003D03*
X9462Y8998D03*
X9467Y8993D03*
X9467Y8988D03*
X9467Y8983D03*
X9472Y8978D03*
X9472Y8973D03*
X9477Y8968D03*
X9477Y8963D03*
X9477Y8958D03*
X9482Y8948D03*
X9487Y8938D03*
X9487Y8933D03*
X9492Y8923D03*
X9497Y8913D03*
X9497Y8908D03*
X9502Y8898D03*
X9507Y8888D03*
X9512Y8878D03*
X9512Y8873D03*
X9517Y8863D03*
X9522Y8853D03*
X9522Y8848D03*
X9527Y8838D03*
X9532Y8828D03*
X9532Y8823D03*
X9537Y8813D03*
X9542Y8803D03*
X9547Y8788D03*
X9552Y8778D03*
X9562Y8753D03*
X9642Y8733D03*
X9647Y8738D03*
X9647Y8743D03*
X9652Y8753D03*
X9652Y8758D03*
X9657Y8763D03*
X9657Y8768D03*
X9662Y8778D03*
X9662Y8783D03*
X9667Y8788D03*
X9667Y8793D03*
X9672Y8803D03*
X9672Y8808D03*
X9677Y8813D03*
X9677Y8818D03*
X9682Y8828D03*
X9682Y8833D03*
X9687Y8838D03*
X9687Y8843D03*
X9687Y8848D03*
X9692Y8853D03*
X9692Y8858D03*
X9697Y8863D03*
X9697Y8868D03*
X9697Y8873D03*
X9702Y8878D03*
X9702Y8883D03*
X9707Y8893D03*
X9707Y8898D03*
X9712Y8903D03*
X9712Y8908D03*
X9717Y8918D03*
X9717Y8923D03*
X9722Y8928D03*
X9722Y8933D03*
X9727Y8943D03*
X9727Y8948D03*
X9732Y8953D03*
X9732Y8958D03*
X9737Y8968D03*
X9737Y8973D03*
X9742Y8978D03*
X9742Y8983D03*
X9742Y8988D03*
X9747Y8993D03*
X9747Y8998D03*
X9752Y9003D03*
X9752Y9008D03*
X9752Y9013D03*
X9757Y9018D03*
X9757Y9023D03*
X9762Y9033D03*
X9762Y9038D03*
X9767Y9043D03*
X9767Y9048D03*
X9772Y9058D03*
X9772Y9063D03*
X9777Y9068D03*
X9777Y9073D03*
X9782Y9083D03*
X9782Y9088D03*
X9787Y9093D03*
X9787Y9098D03*
X9792Y9108D03*
X9792Y9113D03*
X9797Y9118D03*
X9797Y9123D03*
X9797Y9128D03*
X9802Y9133D03*
X9802Y9138D03*
X9807Y9143D03*
X9807Y9148D03*
X9807Y9153D03*
X9812Y9158D03*
X9812Y9163D03*
X9817Y9173D03*
X9817Y9178D03*
X9822Y9183D03*
X9822Y9188D03*
X9827Y9198D03*
X9827Y9203D03*
X9832Y9208D03*
X9832Y9213D03*
X9837Y9223D03*
X9837Y9228D03*
X9842Y9233D03*
X9842Y9238D03*
X9847Y9248D03*
X9847Y9253D03*
X9852Y9258D03*
X9852Y9263D03*
X9852Y9268D03*
X9857Y9273D03*
X9857Y9278D03*
X9862Y9283D03*
X9862Y9288D03*
X9862Y9293D03*
X9867Y9298D03*
X9867Y9303D03*
X9872Y9308D03*
X9872Y9313D03*
X9872Y9318D03*
X9877Y9323D03*
X9877Y9328D03*
X9882Y9338D03*
X9882Y9343D03*
X9887Y9348D03*
X9887Y9353D03*
X9892Y9363D03*
X9892Y9368D03*
X9897Y9373D03*
X9897Y9378D03*
X9902Y9388D03*
X9902Y9393D03*
X9907Y9398D03*
X9907Y9403D03*
X9912Y9413D03*
X9912Y9418D03*
X9917Y9423D03*
X9917Y9428D03*
X9917Y9433D03*
X9922Y9438D03*
X9922Y9443D03*
X9927Y9448D03*
X9927Y9453D03*
X9927Y9458D03*
X9932Y9463D03*
X9932Y9468D03*
X9937Y9478D03*
X9937Y9483D03*
X9942Y9488D03*
X9942Y9493D03*
X9947Y9503D03*
X9947Y9508D03*
X9952Y9513D03*
X9952Y9518D03*
X9957Y9528D03*
X9957Y9533D03*
X9962Y9538D03*
X9962Y9543D03*
X9967Y9553D03*
X9967Y9558D03*
X9972Y9563D03*
X9972Y9568D03*
X9977Y9578D03*
X9977Y9583D03*
X9982Y9588D03*
X9982Y9593D03*
X9987Y9603D03*
X9987Y9608D03*
X9992Y9618D03*
X9992Y9623D03*
X9997Y9628D03*
X9997Y9633D03*
X10002Y9643D03*
X10002Y9648D03*
X10007Y9653D03*
X10052Y9773D03*
X10052Y9778D03*
X10057Y9788D03*
X10062Y9803D03*
X10067Y9813D03*
X10072Y9828D03*
X10077Y9838D03*
X10082Y9853D03*
X10092Y9878D03*
X10102Y9903D03*
X10107Y9918D03*
X10112Y9928D03*
X10117Y9943D03*
X10122Y9953D03*
X10127Y9968D03*
X10132Y9978D03*
X10137Y9993D03*
X10142Y10003D03*
X10147Y10018D03*
X10152Y10028D03*
X10157Y10043D03*
X10162Y10053D03*
X10162Y10058D03*
X10167Y10068D03*
X10172Y10078D03*
X10172Y10083D03*
X10172Y10088D03*
X10177Y10093D03*
X10177Y10098D03*
X10182Y10103D03*
X9657Y9668D03*
X9652Y9638D03*
X9647Y9613D03*
X9642Y9583D03*
X9637Y9553D03*
X9632Y9523D03*
X9627Y9498D03*
X9622Y9468D03*
X9617Y9438D03*
X9612Y9408D03*
X9607Y9378D03*
X9602Y9353D03*
X9597Y9323D03*
X9592Y9293D03*
X9587Y9263D03*
X9582Y9238D03*
X9577Y9208D03*
X9557Y9103D03*
X8987Y8763D03*
X9572Y8508D03*
X8902Y8368D03*
X8822Y9098D03*
X8822Y9103D03*
X9222Y9758D03*
X9222Y9763D03*
X9107Y9858D03*
D77*
X9822Y8373D03*
D78*
X9610Y8648D03*
X9610Y8653D03*
X9570Y8733D03*
X9570Y8738D03*
X9565Y8743D03*
X9565Y8748D03*
X9560Y8758D03*
X9560Y8763D03*
X9555Y8768D03*
X9555Y8773D03*
X9550Y8783D03*
X9545Y8793D03*
X9545Y8798D03*
X9540Y8808D03*
X9535Y8818D03*
X9530Y8833D03*
X9525Y8843D03*
X9520Y8858D03*
X9515Y8868D03*
X9510Y8883D03*
X9505Y8893D03*
X9500Y8903D03*
X9495Y8918D03*
X9490Y8928D03*
X9485Y8943D03*
X9480Y8953D03*
X9555Y9108D03*
X9555Y9113D03*
X9505Y9208D03*
X9500Y9218D03*
X9495Y9228D03*
X9490Y9233D03*
X9490Y9238D03*
X9485Y9243D03*
X9485Y9248D03*
X9480Y9253D03*
X9480Y9258D03*
X9475Y9263D03*
X9475Y9268D03*
X9470Y9273D03*
X9470Y9278D03*
X9465Y9283D03*
X9465Y9288D03*
X9460Y9293D03*
X9460Y9298D03*
X9455Y9303D03*
X9455Y9308D03*
X9450Y9313D03*
X9450Y9318D03*
X9445Y9323D03*
X9445Y9328D03*
X9440Y9333D03*
X9435Y9343D03*
X9430Y9353D03*
X9425Y9363D03*
X9420Y9373D03*
X9415Y9383D03*
X9410Y9393D03*
X9405Y9403D03*
X9400Y9413D03*
X9395Y9423D03*
X9365Y9478D03*
X9360Y9488D03*
X9355Y9498D03*
X9350Y9508D03*
X9345Y9518D03*
X9340Y9528D03*
X9335Y9538D03*
X9330Y9548D03*
X9325Y9558D03*
X9320Y9568D03*
X9315Y9578D03*
X9310Y9588D03*
X9305Y9598D03*
X9300Y9608D03*
X9295Y9618D03*
X9290Y9628D03*
X9285Y9638D03*
X9280Y9648D03*
X9275Y9658D03*
X9270Y9668D03*
X9390Y9183D03*
X9325Y9068D03*
X9310Y9043D03*
X9295Y9018D03*
X9290Y9008D03*
X9280Y8993D03*
X9275Y8983D03*
X9270Y8973D03*
X9265Y8968D03*
X9260Y8958D03*
X9255Y8948D03*
X9250Y8943D03*
X9245Y8933D03*
X9240Y8923D03*
X9235Y8913D03*
X9230Y8908D03*
X9230Y8903D03*
X9225Y8898D03*
X9225Y8893D03*
X9220Y8888D03*
X9215Y8883D03*
X9215Y8878D03*
X9210Y8873D03*
X9210Y8868D03*
X9205Y8863D03*
X9200Y8858D03*
X9200Y8853D03*
X9195Y8848D03*
X9195Y8843D03*
X9190Y8838D03*
X9185Y8833D03*
X9185Y8828D03*
X9180Y8823D03*
X9180Y8818D03*
X9175Y8813D03*
X9170Y8808D03*
X9170Y8803D03*
X9165Y8798D03*
X9165Y8793D03*
X9160Y8788D03*
X9155Y8783D03*
X9155Y8778D03*
X9150Y8773D03*
X9150Y8768D03*
X9145Y8763D03*
X9140Y8758D03*
X9140Y8753D03*
X9135Y8748D03*
X9135Y8743D03*
X9130Y8738D03*
X9125Y8733D03*
X9125Y8728D03*
X9120Y8723D03*
X9120Y8718D03*
X9115Y8713D03*
X9110Y8708D03*
X9110Y8703D03*
X9105Y8698D03*
X9105Y8693D03*
X9100Y8688D03*
X9095Y8683D03*
X9095Y8678D03*
X9090Y8673D03*
X8985Y8768D03*
X8985Y8773D03*
X8940Y8868D03*
X8935Y8878D03*
X8930Y8888D03*
X8925Y8898D03*
X8920Y8908D03*
X8915Y8918D03*
X8910Y8928D03*
X8825Y9093D03*
X8905Y8373D03*
X10055Y9783D03*
X10060Y9793D03*
X10060Y9798D03*
X10065Y9808D03*
X10070Y9818D03*
X10070Y9823D03*
X10075Y9833D03*
X10080Y9843D03*
X10080Y9848D03*
X10085Y9858D03*
X10085Y9863D03*
X10090Y9868D03*
X10090Y9873D03*
X10095Y9883D03*
X10095Y9888D03*
X10100Y9893D03*
X10100Y9898D03*
X10105Y9908D03*
X10105Y9913D03*
X10110Y9923D03*
X10115Y9933D03*
X10115Y9938D03*
X10120Y9948D03*
X10125Y9958D03*
X10125Y9963D03*
X10130Y9973D03*
X10135Y9983D03*
X10135Y9988D03*
X10140Y9998D03*
X10145Y10008D03*
X10145Y10013D03*
X10150Y10023D03*
X10155Y10033D03*
X10155Y10038D03*
X10160Y10048D03*
X10165Y10063D03*
X10170Y10073D03*
D79*
X10187Y9708D03*
X9822Y8378D03*
D80*
X9610Y8663D03*
X9095Y8668D03*
X8910Y8378D03*
X8835Y9063D03*
X8835Y9068D03*
X9555Y9118D03*
X9555Y9123D03*
X9225Y9743D03*
X9225Y9748D03*
D81*
X8742Y10043D03*
X10197Y9693D03*
X9822Y8383D03*
D82*
X9502Y8383D03*
X10237Y8568D03*
X10242Y8573D03*
X10492Y9088D03*
X10497Y9093D03*
X10502Y9098D03*
X10502Y9548D03*
X10497Y9553D03*
X10492Y9558D03*
X9102Y9898D03*
X7852Y9438D03*
X7847Y9433D03*
X7842Y8988D03*
X7847Y8983D03*
X7852Y8978D03*
X7857Y8973D03*
X7882Y8948D03*
X7892Y8933D03*
X7942Y8498D03*
X7947Y8493D03*
X7952Y8488D03*
D83*
X8912Y8383D03*
X8982Y8788D03*
X8982Y8793D03*
X8982Y8798D03*
X8837Y9053D03*
X8837Y9058D03*
X9387Y9168D03*
X9552Y9133D03*
X9552Y9128D03*
X9227Y9738D03*
X9107Y9863D03*
D84*
X9732Y8388D03*
D85*
X8375Y8388D03*
D86*
X8917Y8393D03*
X8982Y8808D03*
X8847Y9023D03*
X8847Y9028D03*
X8842Y9038D03*
X9387Y9158D03*
X9547Y9143D03*
X9607Y8673D03*
X9227Y9723D03*
X9227Y9728D03*
X9692Y9978D03*
D87*
X8127Y9588D03*
X8607Y8393D03*
D88*
X9757Y8398D03*
D89*
X9607Y8688D03*
X9547Y9153D03*
X9547Y9158D03*
X8977Y8823D03*
X8852Y9003D03*
X8852Y9008D03*
X9122Y8543D03*
X9107Y8533D03*
X9087Y8518D03*
X9072Y8508D03*
X9067Y8503D03*
X9057Y8498D03*
X9002Y8458D03*
X8987Y8448D03*
X8922Y8398D03*
X9227Y9713D03*
X9227Y9718D03*
X9507Y10103D03*
X10067Y9768D03*
D90*
X10150Y9738D03*
X10090Y8478D03*
X8620Y8398D03*
D91*
X9765Y8403D03*
X8745Y9998D03*
D92*
X9542Y9173D03*
X8977Y8843D03*
X8977Y8838D03*
X8977Y8833D03*
X8862Y8973D03*
X8862Y8978D03*
X9107Y8663D03*
X9192Y8593D03*
X9047Y8493D03*
X9042Y8488D03*
X9027Y8478D03*
X8922Y8403D03*
X8662Y8443D03*
X9607Y8698D03*
D93*
X8092Y8403D03*
X7997Y9528D03*
X8477Y9948D03*
X9092Y9923D03*
D94*
X9105Y9873D03*
X9230Y9698D03*
X9230Y9693D03*
X9680Y9983D03*
X9545Y9178D03*
X9385Y9133D03*
X8975Y8848D03*
X8865Y8963D03*
X8865Y8968D03*
X9200Y8603D03*
X8925Y8408D03*
X9605Y8703D03*
X9605Y8708D03*
D95*
X9170Y8633D03*
X8080Y8408D03*
X8460Y9943D03*
D96*
X9782Y8413D03*
D97*
X9580Y8493D03*
X9605Y8718D03*
X8975Y8858D03*
X8875Y8938D03*
X8870Y8948D03*
X9540Y9193D03*
X9540Y9198D03*
X9235Y9678D03*
X9105Y9878D03*
X8660Y8438D03*
X8930Y8413D03*
D98*
X9790Y8418D03*
X8745Y9993D03*
D99*
X9537Y9203D03*
X9382Y9118D03*
X9382Y9113D03*
X9607Y8723D03*
X8932Y8418D03*
D100*
X8055Y8418D03*
X8175Y9623D03*
X8440Y9933D03*
X8745Y10063D03*
X10135Y9748D03*
X10390Y9628D03*
X10385Y9013D03*
X10375Y9008D03*
X10370Y9003D03*
X10365Y8998D03*
D101*
X9605Y8728D03*
X8935Y8423D03*
D102*
X8650Y8423D03*
X9135Y8653D03*
X9590Y8483D03*
X10250Y8578D03*
X10255Y8583D03*
X10260Y8588D03*
X10505Y9543D03*
X8745Y10068D03*
X8325Y9853D03*
X8320Y9848D03*
X8315Y9843D03*
X8310Y9838D03*
X7845Y9428D03*
X7840Y9423D03*
X7835Y9418D03*
X7840Y8993D03*
X7895Y8928D03*
X7935Y8503D03*
D103*
X9807Y8428D03*
X9812Y8433D03*
D104*
X9585Y8488D03*
X8940Y8428D03*
X7860Y8623D03*
X7855Y8633D03*
X7855Y8638D03*
X7855Y8643D03*
X7850Y8653D03*
X7850Y8658D03*
X7850Y8663D03*
X7845Y8673D03*
X7845Y8678D03*
X7845Y8683D03*
X7845Y8688D03*
X7845Y8693D03*
X7840Y8733D03*
X7840Y8738D03*
X7840Y8743D03*
X7845Y8763D03*
X7845Y8768D03*
X7845Y8773D03*
X7845Y8778D03*
X7845Y8783D03*
X7850Y8788D03*
X7850Y8793D03*
X7850Y8798D03*
X7850Y8803D03*
X7855Y8808D03*
X7855Y8813D03*
X7860Y8828D03*
X7770Y9098D03*
X7765Y9113D03*
X7760Y9123D03*
X7760Y9128D03*
X7760Y9133D03*
X7755Y9143D03*
X7755Y9148D03*
X7755Y9153D03*
X7755Y9158D03*
X7750Y9173D03*
X7750Y9178D03*
X7750Y9183D03*
X7750Y9188D03*
X7750Y9193D03*
X7750Y9198D03*
X7750Y9203D03*
X7750Y9208D03*
X7750Y9213D03*
X7750Y9218D03*
X7750Y9223D03*
X7750Y9228D03*
X7750Y9233D03*
X7750Y9238D03*
X7755Y9258D03*
X7755Y9263D03*
X7755Y9268D03*
X7755Y9273D03*
X7760Y9278D03*
X7760Y9283D03*
X7760Y9288D03*
X7765Y9298D03*
X7765Y9303D03*
X8225Y9648D03*
X8225Y9653D03*
X8225Y9658D03*
X8230Y9673D03*
X8230Y9678D03*
X8230Y9683D03*
X8230Y9688D03*
X8235Y9698D03*
X8235Y9703D03*
X8235Y9708D03*
X8240Y9718D03*
X8245Y9733D03*
X10330Y8898D03*
X10335Y8888D03*
X10335Y8883D03*
X10335Y8878D03*
X10340Y8868D03*
X10340Y8863D03*
X10340Y8858D03*
X10340Y8853D03*
X10345Y8843D03*
X10345Y8838D03*
X10345Y8833D03*
X10345Y8828D03*
X10345Y8823D03*
X10345Y8818D03*
X10345Y8813D03*
X10345Y8808D03*
X10345Y8803D03*
X10345Y8798D03*
X10345Y8793D03*
X10345Y8788D03*
X10345Y8783D03*
X10345Y8778D03*
X10345Y8773D03*
X10345Y8768D03*
X10345Y8763D03*
X10340Y8748D03*
X10340Y8743D03*
X10340Y8738D03*
X10340Y8733D03*
X10335Y8728D03*
X10335Y8723D03*
X10335Y8718D03*
X10330Y8708D03*
X10585Y9228D03*
X10590Y9243D03*
X10590Y9248D03*
X10590Y9253D03*
X10595Y9258D03*
X10595Y9263D03*
X10595Y9268D03*
X10595Y9273D03*
X10600Y9283D03*
X10600Y9288D03*
X10600Y9293D03*
X10600Y9298D03*
X10600Y9303D03*
X10600Y9308D03*
X10600Y9313D03*
X10600Y9318D03*
X10600Y9323D03*
X10600Y9328D03*
X10600Y9333D03*
X10600Y9338D03*
X10600Y9343D03*
X10600Y9348D03*
X10600Y9353D03*
X10600Y9358D03*
X10595Y9373D03*
X10595Y9378D03*
X10595Y9383D03*
X10595Y9388D03*
X10590Y9393D03*
X10590Y9398D03*
X10590Y9403D03*
X10585Y9413D03*
X10585Y9418D03*
D105*
X10575Y9443D03*
X10570Y9453D03*
X10565Y9463D03*
X10560Y9473D03*
X10555Y9483D03*
X10575Y9203D03*
X10570Y9193D03*
X10565Y9183D03*
X10560Y9173D03*
X10555Y9163D03*
X10315Y8933D03*
X10320Y8923D03*
X10315Y8668D03*
X10310Y8658D03*
X10305Y8653D03*
X10300Y8643D03*
X8655Y8428D03*
X7890Y8563D03*
X7885Y8568D03*
X7885Y8573D03*
X7880Y8578D03*
X7875Y8588D03*
X7870Y8598D03*
X7870Y8853D03*
X7875Y8863D03*
X7880Y8873D03*
X7885Y8878D03*
X7890Y8888D03*
X7900Y8908D03*
X7795Y9048D03*
X7790Y9058D03*
X7785Y9063D03*
X7785Y9068D03*
X7780Y9338D03*
X7785Y9348D03*
X7790Y9353D03*
X7790Y9358D03*
X7795Y9363D03*
X7800Y9373D03*
X8260Y9763D03*
X8260Y9768D03*
X8265Y9773D03*
X8265Y9778D03*
X8270Y9783D03*
X9105Y9888D03*
D106*
X8257Y9758D03*
X8252Y9753D03*
X8252Y9748D03*
X8247Y9743D03*
X8247Y9738D03*
X8242Y9728D03*
X8242Y9723D03*
X8237Y9713D03*
X7782Y9343D03*
X7777Y9333D03*
X7777Y9328D03*
X7772Y9323D03*
X7772Y9318D03*
X7767Y9313D03*
X7767Y9308D03*
X7762Y9293D03*
X7757Y9138D03*
X7762Y9118D03*
X7767Y9108D03*
X7767Y9103D03*
X7772Y9093D03*
X7772Y9088D03*
X7777Y9083D03*
X7777Y9078D03*
X7782Y9073D03*
X7877Y8868D03*
X7872Y8858D03*
X7867Y8848D03*
X7867Y8843D03*
X7862Y8838D03*
X7862Y8833D03*
X7857Y8823D03*
X7857Y8818D03*
X7852Y8648D03*
X7857Y8628D03*
X7862Y8618D03*
X7862Y8613D03*
X7867Y8608D03*
X7867Y8603D03*
X7872Y8593D03*
X7877Y8583D03*
X8942Y8433D03*
X9192Y8608D03*
X10312Y8663D03*
X10317Y8673D03*
X10317Y8678D03*
X10322Y8683D03*
X10322Y8688D03*
X10327Y8693D03*
X10327Y8698D03*
X10327Y8703D03*
X10332Y8713D03*
X10337Y8873D03*
X10332Y8893D03*
X10327Y8903D03*
X10327Y8908D03*
X10322Y8913D03*
X10322Y8918D03*
X10317Y8928D03*
X10312Y8938D03*
X10562Y9178D03*
X10567Y9188D03*
X10572Y9198D03*
X10577Y9208D03*
X10577Y9213D03*
X10582Y9218D03*
X10582Y9223D03*
X10587Y9233D03*
X10587Y9238D03*
X10587Y9408D03*
X10582Y9423D03*
X10582Y9428D03*
X10577Y9433D03*
X10577Y9438D03*
X10572Y9448D03*
X10567Y9458D03*
X10562Y9468D03*
D107*
X10597Y9368D03*
X10597Y9363D03*
X10597Y9278D03*
X10342Y8848D03*
X10342Y8758D03*
X10342Y8753D03*
X9122Y8658D03*
X8657Y8433D03*
X7847Y8668D03*
X7842Y8698D03*
X7842Y8703D03*
X7842Y8708D03*
X7842Y8713D03*
X7842Y8718D03*
X7842Y8723D03*
X7842Y8728D03*
X7842Y8748D03*
X7842Y8753D03*
X7842Y8758D03*
X7752Y9163D03*
X7752Y9168D03*
X7752Y9243D03*
X7752Y9248D03*
X7752Y9253D03*
X8227Y9663D03*
X8227Y9668D03*
X8232Y9693D03*
X9102Y9883D03*
X9667Y9988D03*
D108*
X8745Y9988D03*
X9820Y8438D03*
D109*
X9607Y8473D03*
X9172Y8618D03*
X10167Y8513D03*
X10337Y8973D03*
X10427Y9038D03*
X10427Y9608D03*
X10122Y9753D03*
X9097Y9908D03*
X8017Y8438D03*
D110*
X7915Y8528D03*
X7910Y8533D03*
X7905Y8538D03*
X7825Y9008D03*
X7820Y9013D03*
X7815Y9018D03*
X7815Y9023D03*
X7810Y9028D03*
X7805Y9033D03*
X7810Y9388D03*
X7815Y9393D03*
X7820Y9398D03*
X7820Y9403D03*
X8290Y9813D03*
X8295Y9818D03*
X10100Y9763D03*
X10525Y9523D03*
X10530Y9518D03*
X10535Y9513D03*
X10540Y9503D03*
X10540Y9143D03*
X10535Y9133D03*
X10530Y9128D03*
X10525Y9123D03*
X10285Y8618D03*
X10280Y8613D03*
X10275Y8608D03*
X8950Y8443D03*
D111*
X8665Y8448D03*
X8980Y8813D03*
X8980Y8818D03*
X8850Y9013D03*
X8850Y9018D03*
X9385Y9148D03*
X9385Y9153D03*
X9550Y9148D03*
X9605Y8683D03*
X9605Y8678D03*
X9105Y9868D03*
D112*
X9222Y9753D03*
X9702Y9973D03*
X10012Y9658D03*
X9497Y9223D03*
X9502Y9213D03*
X9387Y9178D03*
X9387Y9173D03*
X9347Y9108D03*
X9347Y9103D03*
X9342Y9098D03*
X9337Y9093D03*
X9337Y9088D03*
X9332Y9083D03*
X9332Y9078D03*
X9327Y9073D03*
X9322Y9063D03*
X9317Y9058D03*
X9317Y9053D03*
X9312Y9048D03*
X9307Y9038D03*
X9302Y9033D03*
X9302Y9028D03*
X9297Y9023D03*
X9292Y9013D03*
X9287Y9003D03*
X9282Y8998D03*
X9277Y8988D03*
X9272Y8978D03*
X9262Y8963D03*
X9257Y8953D03*
X9247Y8938D03*
X9242Y8928D03*
X9237Y8918D03*
X8982Y8783D03*
X8982Y8778D03*
X8662Y8453D03*
X8832Y9073D03*
X8832Y9078D03*
X8827Y9083D03*
X8827Y9088D03*
X9607Y8658D03*
D113*
X9845Y8458D03*
D114*
X9852Y8463D03*
D115*
X10050Y8468D03*
X10170Y9723D03*
D116*
X8492Y9953D03*
X8147Y9603D03*
X10077Y8473D03*
D117*
X10262Y8593D03*
X10267Y8598D03*
X10272Y8603D03*
X10317Y8948D03*
X10507Y9103D03*
X10512Y9108D03*
X10517Y9113D03*
X10522Y9118D03*
X10522Y9528D03*
X10517Y9533D03*
X10512Y9538D03*
X9102Y9893D03*
X8307Y9833D03*
X8302Y9828D03*
X8297Y9823D03*
X7832Y9413D03*
X7827Y9408D03*
X7827Y9003D03*
X7832Y8998D03*
X7897Y8923D03*
X7917Y8523D03*
X7922Y8518D03*
X7927Y8513D03*
X7932Y8508D03*
D118*
X8992Y8673D03*
X9612Y8573D03*
X9572Y9018D03*
X9572Y9023D03*
X8777Y9248D03*
X8777Y9253D03*
X9107Y9853D03*
D119*
X9210Y9843D03*
X9210Y9838D03*
X9395Y9248D03*
X9395Y9243D03*
X9570Y9028D03*
X8995Y8683D03*
X8995Y8678D03*
X9610Y8578D03*
X8780Y9238D03*
X8780Y9243D03*
D120*
X8782Y9233D03*
X8782Y9228D03*
X9392Y9238D03*
X9572Y9033D03*
X8992Y8693D03*
X8992Y8688D03*
X9612Y8583D03*
X9212Y9828D03*
X9212Y9833D03*
X8747Y10073D03*
D121*
X8785Y9223D03*
X8785Y9218D03*
X8790Y9213D03*
X8790Y9208D03*
X9395Y9233D03*
X9570Y9043D03*
X9570Y9038D03*
X9610Y8593D03*
X9610Y8588D03*
D122*
X9610Y8603D03*
X9610Y8608D03*
X8990Y8708D03*
X8990Y8713D03*
X8990Y8718D03*
X9565Y9058D03*
X8795Y9188D03*
X8795Y9193D03*
X9215Y9808D03*
X9215Y9813D03*
D123*
X9232Y9688D03*
X9232Y9683D03*
X9542Y9188D03*
X9542Y9183D03*
X9382Y9128D03*
X9382Y9123D03*
X8977Y8853D03*
X8872Y8943D03*
X8867Y8953D03*
X8867Y8958D03*
X9607Y8713D03*
D124*
X9562Y9078D03*
X9562Y9083D03*
X9392Y9208D03*
X8807Y9153D03*
X8807Y9148D03*
X8987Y8738D03*
X8987Y8733D03*
X9217Y9788D03*
X9217Y9793D03*
D125*
X8095Y9563D03*
X8080Y9553D03*
X8070Y9548D03*
D126*
X8087Y9558D03*
X10182Y9713D03*
D127*
X9085Y9938D03*
X8745Y10053D03*
X8120Y9583D03*
D128*
X8135Y9593D03*
X8510Y9958D03*
X10165Y9728D03*
D129*
X10222Y9663D03*
X9512Y10068D03*
D130*
X10220Y9668D03*
D131*
X10210Y9678D03*
X8745Y10038D03*
D132*
X10207Y9683D03*
D133*
X10160Y9733D03*
D134*
X9080Y9943D03*
D135*
X9077Y9948D03*
D136*
X9070Y9953D03*
X9530Y10078D03*
D137*
X9060Y9958D03*
X8745Y10033D03*
D138*
X8837Y9963D03*
D139*
X8847Y9968D03*
D140*
X8860Y9973D03*
D141*
X8875Y9978D03*
D142*
X8892Y9983D03*
D143*
X9432Y9998D03*
X9437Y10003D03*
D144*
X8745Y10003D03*
D145*
X9442Y10008D03*
D146*
X8745Y10008D03*
D147*
X8745Y10013D03*
X9450Y10018D03*
D148*
X9460Y10028D03*
X8745Y10018D03*
D149*
X8745Y10023D03*
D150*
X8742Y10028D03*
D151*
X9467Y10033D03*
D152*
X9482Y10048D03*
D153*
X8742Y10048D03*
D154*
X9490Y10053D03*
D155*
X9505Y10063D03*
D156*
X9540Y10083D03*
D157*
X4335Y3842D02*
X4191Y3842D01*
X4172Y3651D01*
X4108Y3631D01*
X4048Y3600D01*
X3899Y3721D01*
X3798Y3619D01*
X3919Y3471D01*
X3888Y3411D01*
X3867Y3347D01*
X3677Y3328D01*
X3677Y3184D01*
X3867Y3164D01*
X3888Y3100D01*
X3919Y3040D01*
X3798Y2892D01*
X3899Y2790D01*
X4048Y2911D01*
X4108Y2880D01*
X4192Y3085D01*
X4154Y3107D01*
X4122Y3137D01*
X4097Y3174D01*
X4083Y3216D01*
X4078Y3260D01*
X4085Y3303D01*
X4101Y3344D01*
X4127Y3380D01*
X4160Y3409D01*
X4200Y3429D01*
X4243Y3439D01*
X4287Y3438D01*
X4330Y3428D01*
X4369Y3407D01*
X4402Y3377D01*
X4427Y3341D01*
X4442Y3299D01*
X4448Y3256D01*
X4442Y3212D01*
X4427Y3172D01*
X4403Y3136D01*
X4371Y3106D01*
X4334Y3085D01*
X4418Y2880D01*
X4478Y2911D01*
X4627Y2790D01*
X4728Y2892D01*
X4607Y3040D01*
X4638Y3100D01*
X4659Y3164D01*
X4849Y3184D01*
X4849Y3328D01*
X4659Y3347D01*
X4638Y3411D01*
X4607Y3471D01*
X4728Y3619D01*
X4627Y3721D01*
X4478Y3600D01*
X4418Y3631D01*
X4354Y3651D01*
X4335Y3842D01*
X4336Y3828D02*
X4190Y3828D01*
X4184Y3770D02*
X4342Y3770D01*
X4348Y3713D02*
X4178Y3713D01*
X4172Y3655D02*
X4354Y3655D01*
X4546Y3655D02*
X4692Y3655D01*
X4711Y3598D02*
X3815Y3598D01*
X3834Y3655D02*
X3980Y3655D01*
X3909Y3713D02*
X3891Y3713D01*
X3862Y3540D02*
X4664Y3540D01*
X4617Y3483D02*
X3909Y3483D01*
X3895Y3425D02*
X4192Y3425D01*
X4118Y3367D02*
X3874Y3367D01*
X3677Y3310D02*
X4087Y3310D01*
X4079Y3252D02*
X3677Y3252D01*
X3677Y3195D02*
X4090Y3195D01*
X4121Y3137D02*
X3876Y3137D01*
X3898Y3080D02*
X4190Y3080D01*
X4166Y3022D02*
X3904Y3022D01*
X3857Y2965D02*
X4142Y2965D01*
X4119Y2907D02*
X4056Y2907D01*
X4043Y2907D02*
X3810Y2907D01*
X3840Y2849D02*
X3972Y2849D01*
X3901Y2792D02*
X3898Y2792D01*
X4384Y2965D02*
X4669Y2965D01*
X4622Y3022D02*
X4360Y3022D01*
X4336Y3080D02*
X4627Y3080D01*
X4650Y3137D02*
X4404Y3137D01*
X4436Y3195D02*
X4849Y3195D01*
X4849Y3252D02*
X4447Y3252D01*
X4438Y3310D02*
X4849Y3310D01*
X4652Y3367D02*
X4408Y3367D01*
X4335Y3425D02*
X4631Y3425D01*
X4617Y3713D02*
X4635Y3713D01*
X4716Y2907D02*
X4483Y2907D01*
X4470Y2907D02*
X4407Y2907D01*
X4554Y2849D02*
X4686Y2849D01*
X4628Y2792D02*
X4624Y2792D01*
D158*
X1350Y11672D02*
X8100Y11672D01*
X8168Y11674D01*
X8235Y11679D01*
X8302Y11688D01*
X8369Y11701D01*
X8434Y11718D01*
X8499Y11737D01*
X8563Y11761D01*
X8625Y11788D01*
X8686Y11818D01*
X8744Y11851D01*
X8801Y11887D01*
X8856Y11927D01*
X8909Y11969D01*
X8960Y12015D01*
X9007Y12062D01*
X9053Y12113D01*
X9095Y12166D01*
X9135Y12221D01*
X9171Y12278D01*
X9204Y12336D01*
X9234Y12397D01*
X9261Y12459D01*
X9285Y12523D01*
X9304Y12588D01*
X9321Y12653D01*
X9334Y12720D01*
X9343Y12787D01*
X9348Y12854D01*
X9350Y12922D01*
X9350Y19672D01*
X9348Y19740D01*
X9343Y19807D01*
X9334Y19874D01*
X9321Y19941D01*
X9304Y20006D01*
X9285Y20071D01*
X9261Y20135D01*
X9234Y20197D01*
X9204Y20258D01*
X9171Y20316D01*
X9135Y20373D01*
X9095Y20428D01*
X9053Y20481D01*
X9007Y20532D01*
X8960Y20579D01*
X8909Y20625D01*
X8856Y20667D01*
X8801Y20707D01*
X8744Y20743D01*
X8686Y20776D01*
X8625Y20806D01*
X8563Y20833D01*
X8499Y20857D01*
X8434Y20876D01*
X8369Y20893D01*
X8302Y20906D01*
X8235Y20915D01*
X8168Y20920D01*
X8100Y20922D01*
X1350Y20922D01*
X1282Y20920D01*
X1215Y20915D01*
X1148Y20906D01*
X1081Y20893D01*
X1016Y20876D01*
X951Y20857D01*
X887Y20833D01*
X825Y20806D01*
X764Y20776D01*
X706Y20743D01*
X649Y20707D01*
X594Y20667D01*
X541Y20625D01*
X490Y20579D01*
X443Y20532D01*
X397Y20481D01*
X355Y20428D01*
X315Y20373D01*
X279Y20316D01*
X246Y20258D01*
X216Y20197D01*
X189Y20135D01*
X165Y20071D01*
X146Y20006D01*
X129Y19941D01*
X116Y19874D01*
X107Y19807D01*
X102Y19740D01*
X100Y19672D01*
X100Y12922D01*
X101Y12922D02*
X99Y12856D01*
X101Y12790D01*
X107Y12724D01*
X116Y12658D01*
X129Y12593D01*
X146Y12528D01*
X166Y12465D01*
X190Y12403D01*
X217Y12343D01*
X248Y12284D01*
X282Y12226D01*
X319Y12171D01*
X359Y12118D01*
X402Y12068D01*
X447Y12019D01*
X496Y11974D01*
X546Y11931D01*
X599Y11891D01*
X654Y11854D01*
X712Y11820D01*
X771Y11789D01*
X831Y11762D01*
X893Y11738D01*
X956Y11718D01*
X1021Y11701D01*
X1086Y11688D01*
X1152Y11679D01*
X1218Y11673D01*
X1284Y11671D01*
X1350Y11673D01*
X725Y14172D02*
X727Y14222D01*
X733Y14271D01*
X743Y14320D01*
X756Y14367D01*
X774Y14414D01*
X795Y14459D01*
X819Y14502D01*
X847Y14543D01*
X878Y14582D01*
X912Y14618D01*
X949Y14652D01*
X989Y14682D01*
X1030Y14709D01*
X1074Y14733D01*
X1119Y14753D01*
X1166Y14769D01*
X1214Y14782D01*
X1263Y14791D01*
X1313Y14796D01*
X1362Y14797D01*
X1412Y14794D01*
X1461Y14787D01*
X1510Y14776D01*
X1557Y14762D01*
X1603Y14743D01*
X1648Y14721D01*
X1691Y14696D01*
X1731Y14667D01*
X1769Y14635D01*
X1805Y14601D01*
X1838Y14563D01*
X1867Y14523D01*
X1893Y14481D01*
X1916Y14437D01*
X1935Y14391D01*
X1951Y14344D01*
X1963Y14295D01*
X1971Y14246D01*
X1975Y14197D01*
X1975Y14147D01*
X1971Y14098D01*
X1963Y14049D01*
X1951Y14000D01*
X1935Y13953D01*
X1916Y13907D01*
X1893Y13863D01*
X1867Y13821D01*
X1838Y13781D01*
X1805Y13743D01*
X1769Y13709D01*
X1731Y13677D01*
X1691Y13648D01*
X1648Y13623D01*
X1603Y13601D01*
X1557Y13582D01*
X1510Y13568D01*
X1461Y13557D01*
X1412Y13550D01*
X1362Y13547D01*
X1313Y13548D01*
X1263Y13553D01*
X1214Y13562D01*
X1166Y13575D01*
X1119Y13591D01*
X1074Y13611D01*
X1030Y13635D01*
X989Y13662D01*
X949Y13692D01*
X912Y13726D01*
X878Y13762D01*
X847Y13801D01*
X819Y13842D01*
X795Y13885D01*
X774Y13930D01*
X756Y13977D01*
X743Y14024D01*
X733Y14073D01*
X727Y14122D01*
X725Y14172D01*
X7475Y14172D02*
X7477Y14222D01*
X7483Y14271D01*
X7493Y14320D01*
X7506Y14367D01*
X7524Y14414D01*
X7545Y14459D01*
X7569Y14502D01*
X7597Y14543D01*
X7628Y14582D01*
X7662Y14618D01*
X7699Y14652D01*
X7739Y14682D01*
X7780Y14709D01*
X7824Y14733D01*
X7869Y14753D01*
X7916Y14769D01*
X7964Y14782D01*
X8013Y14791D01*
X8063Y14796D01*
X8112Y14797D01*
X8162Y14794D01*
X8211Y14787D01*
X8260Y14776D01*
X8307Y14762D01*
X8353Y14743D01*
X8398Y14721D01*
X8441Y14696D01*
X8481Y14667D01*
X8519Y14635D01*
X8555Y14601D01*
X8588Y14563D01*
X8617Y14523D01*
X8643Y14481D01*
X8666Y14437D01*
X8685Y14391D01*
X8701Y14344D01*
X8713Y14295D01*
X8721Y14246D01*
X8725Y14197D01*
X8725Y14147D01*
X8721Y14098D01*
X8713Y14049D01*
X8701Y14000D01*
X8685Y13953D01*
X8666Y13907D01*
X8643Y13863D01*
X8617Y13821D01*
X8588Y13781D01*
X8555Y13743D01*
X8519Y13709D01*
X8481Y13677D01*
X8441Y13648D01*
X8398Y13623D01*
X8353Y13601D01*
X8307Y13582D01*
X8260Y13568D01*
X8211Y13557D01*
X8162Y13550D01*
X8112Y13547D01*
X8063Y13548D01*
X8013Y13553D01*
X7964Y13562D01*
X7916Y13575D01*
X7869Y13591D01*
X7824Y13611D01*
X7780Y13635D01*
X7739Y13662D01*
X7699Y13692D01*
X7662Y13726D01*
X7628Y13762D01*
X7597Y13801D01*
X7569Y13842D01*
X7545Y13885D01*
X7524Y13930D01*
X7506Y13977D01*
X7493Y14024D01*
X7483Y14073D01*
X7477Y14122D01*
X7475Y14172D01*
D159*
X6310Y14962D02*
X6310Y15382D01*
X6100Y15382D01*
X6030Y15312D01*
X6030Y15242D01*
X6100Y15172D01*
X6310Y15172D01*
X6310Y14962D02*
X6100Y14962D01*
X6030Y15032D01*
X6030Y15102D01*
X6100Y15172D01*
X5850Y15102D02*
X5709Y15242D01*
X5639Y15242D01*
X5466Y15172D02*
X5466Y15032D01*
X5396Y14962D01*
X5256Y14962D01*
X5186Y15102D02*
X5466Y15102D01*
X5466Y15172D02*
X5396Y15242D01*
X5256Y15242D01*
X5186Y15172D01*
X5186Y15102D01*
X5006Y15032D02*
X4935Y15102D01*
X4725Y15102D01*
X4725Y15172D02*
X4725Y14962D01*
X4935Y14962D01*
X5006Y15032D01*
X4935Y15242D02*
X4795Y15242D01*
X4725Y15172D01*
X4545Y15102D02*
X4335Y15242D01*
X4162Y15172D02*
X4162Y15032D01*
X4091Y14962D01*
X3951Y14962D01*
X3881Y15032D01*
X3881Y15172D01*
X3951Y15242D01*
X4091Y15242D01*
X4162Y15172D01*
X4335Y14962D02*
X4545Y15102D01*
X4545Y14962D02*
X4545Y15382D01*
X4421Y15572D02*
X4351Y15572D01*
X4281Y15642D01*
X4281Y15992D01*
X4281Y15712D02*
X4491Y15712D01*
X4561Y15782D01*
X4561Y15992D01*
X4735Y15992D02*
X4805Y15992D01*
X4945Y15852D01*
X4945Y15712D02*
X4945Y15992D01*
X5125Y15922D02*
X5125Y15712D01*
X5335Y15712D01*
X5405Y15782D01*
X5335Y15852D01*
X5125Y15852D01*
X5125Y15922D02*
X5195Y15992D01*
X5335Y15992D01*
X5572Y15992D02*
X5712Y15992D01*
X5642Y16062D02*
X5642Y15782D01*
X5572Y15712D01*
X5892Y15782D02*
X5892Y15922D01*
X5962Y15992D01*
X6103Y15992D01*
X6173Y15922D01*
X6173Y15782D01*
X6103Y15712D01*
X5962Y15712D01*
X5892Y15782D01*
X6353Y15712D02*
X6493Y15852D01*
X6423Y15852D02*
X6353Y15922D01*
X6353Y16062D01*
X6423Y16132D01*
X6633Y16132D01*
X6633Y15712D01*
X6633Y15852D02*
X6423Y15852D01*
X5850Y15242D02*
X5850Y14962D01*
X7274Y15712D02*
X7274Y15922D01*
X7344Y15992D01*
X7414Y15922D01*
X7414Y15712D01*
X7554Y15712D02*
X7554Y15992D01*
X7484Y15992D01*
X7414Y15922D01*
X7734Y15922D02*
X7734Y15712D01*
X7874Y15712D02*
X7874Y15922D01*
X7804Y15992D01*
X7734Y15922D01*
X7874Y15922D02*
X7944Y15992D01*
X8014Y15992D01*
X8014Y15712D01*
X8194Y15712D02*
X8475Y15712D01*
X8194Y15992D01*
X8194Y16062D01*
X8264Y16132D01*
X8405Y16132D01*
X8475Y16062D01*
X8795Y16132D02*
X8795Y15712D01*
X8935Y15712D02*
X8655Y15712D01*
X8935Y15992D02*
X8795Y16132D01*
X6935Y18837D02*
X6935Y19257D01*
X6795Y19117D01*
X6655Y19257D01*
X6655Y18837D01*
X6475Y18907D02*
X6405Y18977D01*
X6194Y18977D01*
X6194Y19047D02*
X6194Y18837D01*
X6405Y18837D01*
X6475Y18907D01*
X6405Y19117D02*
X6264Y19117D01*
X6194Y19047D01*
X6014Y19047D02*
X6014Y18907D01*
X5944Y18837D01*
X5734Y18837D01*
X5734Y18767D02*
X5734Y19117D01*
X5944Y19117D01*
X6014Y19047D01*
X5734Y18767D02*
X5804Y18697D01*
X5874Y18697D01*
X5554Y18837D02*
X5414Y18837D01*
X5484Y18837D02*
X5484Y19117D01*
X5554Y19117D01*
X5484Y19257D02*
X5484Y19327D01*
X5247Y19047D02*
X5177Y19117D01*
X4967Y19117D01*
X5247Y19047D02*
X5247Y18907D01*
X5177Y18837D01*
X4967Y18837D01*
X4560Y18907D02*
X4490Y18837D01*
X4350Y18837D01*
X4280Y18907D01*
X4280Y18977D01*
X4350Y19047D01*
X4490Y19047D01*
X4560Y19117D01*
X4560Y19187D01*
X4490Y19257D01*
X4350Y19257D01*
X4280Y19187D01*
X4100Y19117D02*
X4030Y19117D01*
X3959Y19047D01*
X3889Y19117D01*
X3819Y19047D01*
X3819Y18837D01*
X3959Y18837D02*
X3959Y19047D01*
X4100Y19117D02*
X4100Y18837D01*
X3639Y18907D02*
X3569Y18837D01*
X3429Y18837D01*
X3359Y18907D01*
X3359Y19047D01*
X3429Y19117D01*
X3569Y19117D01*
X3639Y19047D01*
X3639Y18907D01*
X3179Y18837D02*
X3179Y19257D01*
X2969Y19117D02*
X3179Y18977D01*
X2969Y18837D01*
X2795Y18907D02*
X2795Y19047D01*
X2725Y19117D01*
X2585Y19117D01*
X2515Y19047D01*
X2515Y18977D01*
X2795Y18977D01*
X2795Y18907D02*
X2725Y18837D01*
X2585Y18837D01*
X2185Y19587D02*
X2185Y20007D01*
X1975Y20007D01*
X1905Y19937D01*
X1905Y19797D01*
X1975Y19727D01*
X2185Y19727D01*
X2045Y19727D02*
X1905Y19587D01*
X1725Y19587D02*
X1444Y19587D01*
X1264Y19657D02*
X984Y19937D01*
X984Y19657D01*
X1054Y19587D01*
X1194Y19587D01*
X1264Y19657D01*
X1264Y19937D01*
X1194Y20007D01*
X1054Y20007D01*
X984Y19937D01*
X804Y19867D02*
X664Y20007D01*
X664Y19587D01*
X804Y19587D02*
X524Y19587D01*
X1444Y20007D02*
X1725Y20007D01*
X1725Y19587D01*
X1725Y19797D02*
X1584Y19797D01*
X1519Y16132D02*
X1519Y15712D01*
X1729Y15712D01*
X1799Y15782D01*
X1799Y15922D01*
X1729Y15992D01*
X1519Y15992D01*
X1339Y15922D02*
X1339Y15782D01*
X1268Y15712D01*
X1128Y15712D01*
X1058Y15852D02*
X1339Y15852D01*
X1339Y15922D02*
X1268Y15992D01*
X1128Y15992D01*
X1058Y15922D01*
X1058Y15852D01*
X878Y15852D02*
X738Y15992D01*
X668Y15992D01*
X878Y15992D02*
X878Y15712D01*
X1979Y15782D02*
X1979Y15922D01*
X2049Y15992D01*
X2189Y15992D01*
X2259Y15922D01*
X2259Y15782D01*
X2189Y15712D01*
X2049Y15712D01*
X1979Y15782D01*
X2439Y15712D02*
X2650Y15712D01*
X2720Y15782D01*
X2720Y15922D01*
X2650Y15992D01*
X2439Y15992D01*
X2900Y15922D02*
X2900Y15712D01*
X2900Y15922D02*
X2970Y15992D01*
X3180Y15992D01*
X3180Y15712D01*
X3360Y15712D02*
X3640Y15712D01*
X3640Y16132D01*
X3360Y16132D01*
X3500Y15922D02*
X3640Y15922D01*
X3171Y15312D02*
X3171Y15032D01*
X3101Y14962D01*
X3101Y15242D02*
X3241Y15242D01*
X3421Y15242D02*
X3421Y14962D01*
X3631Y14962D01*
X3701Y15032D01*
X3701Y15242D01*
X3685Y12382D02*
X3825Y12382D01*
X3895Y12312D01*
X3895Y12032D01*
X3825Y11962D01*
X3685Y11962D01*
X3615Y12032D01*
X3615Y12312D02*
X3685Y12382D01*
X2895Y12242D02*
X2895Y11962D01*
X2895Y12172D02*
X2615Y12172D01*
X2615Y12242D02*
X2615Y11962D01*
X2615Y12242D02*
X2755Y12382D01*
X2895Y12242D01*
X4615Y12242D02*
X4685Y12172D01*
X4895Y12172D01*
X4685Y12172D02*
X4615Y12102D01*
X4615Y12032D01*
X4685Y11962D01*
X4895Y11962D01*
X4895Y12382D01*
X4685Y12382D01*
X4615Y12312D01*
X4615Y12242D01*
X5365Y11962D02*
X5645Y11962D01*
X5505Y11962D02*
X5505Y12382D01*
X5645Y12242D01*
X5826Y12172D02*
X5896Y12102D01*
X6106Y12102D01*
X6106Y11962D02*
X6106Y12382D01*
X5896Y12382D01*
X5826Y12312D01*
X5826Y12172D01*
X6365Y12242D02*
X6365Y12312D01*
X6435Y12382D01*
X6575Y12382D01*
X6645Y12312D01*
X6826Y12312D02*
X6826Y12172D01*
X6896Y12102D01*
X7106Y12102D01*
X7106Y11962D02*
X7106Y12382D01*
X6896Y12382D01*
X6826Y12312D01*
X6645Y11962D02*
X6365Y11962D01*
X6645Y11962D02*
X6365Y12242D01*
D160*
X4681Y16588D03*
X4576Y16863D03*
X4591Y16873D03*
X4596Y16878D03*
X4601Y16883D03*
X4616Y16893D03*
X4661Y16923D03*
X4676Y16933D03*
X4681Y16938D03*
X4696Y16948D03*
X4711Y16958D03*
X4716Y16963D03*
X4726Y16968D03*
X4731Y16973D03*
X4736Y16978D03*
X4746Y16983D03*
X4751Y16988D03*
X4761Y16993D03*
X4766Y16998D03*
X4781Y17008D03*
X4561Y17238D03*
X4441Y17393D03*
X4441Y17398D03*
X4436Y17403D03*
X4436Y17408D03*
X4966Y17548D03*
X4966Y17553D03*
X5126Y17573D03*
X5126Y17578D03*
X5186Y17103D03*
X5156Y16908D03*
X4811Y18113D03*
X4811Y18118D03*
D161*
X4681Y18313D03*
X5091Y18508D03*
X6031Y18003D03*
X6031Y17463D03*
X6026Y17458D03*
X5771Y16938D03*
X5041Y16758D03*
X4681Y16593D03*
X3576Y16863D03*
X3491Y17893D03*
X3776Y18043D03*
D162*
X3741Y18023D03*
X4406Y16713D03*
X4681Y16598D03*
X5936Y18053D03*
X5091Y18503D03*
D163*
X5089Y18498D03*
X4669Y18343D03*
X3709Y16803D03*
X4679Y16603D03*
D164*
X4679Y16608D03*
X3684Y17978D03*
D165*
X4681Y16613D03*
X5776Y18108D03*
D166*
X5786Y18098D03*
X4681Y16618D03*
D167*
X4681Y16623D03*
X5796Y18083D03*
D168*
X5079Y18468D03*
X4679Y16628D03*
D169*
X4681Y16633D03*
D170*
X4679Y16638D03*
X5054Y18448D03*
D171*
X5036Y18433D03*
X4681Y16643D03*
D172*
X4681Y16648D03*
X5026Y18423D03*
D173*
X4679Y16653D03*
D174*
X4679Y16658D03*
X5324Y16803D03*
D175*
X5354Y16818D03*
X4679Y16663D03*
D176*
X4679Y16668D03*
X5379Y16833D03*
D177*
X5409Y16853D03*
X4679Y16673D03*
D178*
X4679Y16678D03*
X5414Y16858D03*
X5419Y16863D03*
D179*
X4679Y16683D03*
D180*
X4679Y16688D03*
D181*
X4496Y16798D03*
X4561Y17213D03*
X4426Y17443D03*
X4421Y17453D03*
X4421Y17458D03*
X4966Y17573D03*
X5131Y17548D03*
X5186Y17078D03*
X5151Y16913D03*
X3946Y16688D03*
X4806Y18143D03*
D182*
X4681Y16693D03*
D183*
X4761Y17023D03*
X3946Y16693D03*
X3471Y17348D03*
X3466Y17353D03*
X3461Y17363D03*
X3456Y17368D03*
X3451Y17373D03*
X3446Y17378D03*
X3441Y17853D03*
X3446Y17858D03*
X3451Y17863D03*
X3786Y18048D03*
X3911Y18268D03*
X3916Y18273D03*
X3921Y18278D03*
X5901Y17363D03*
X6061Y17488D03*
X6066Y17493D03*
X6066Y17973D03*
X6061Y17978D03*
X5816Y16973D03*
X5811Y16968D03*
D184*
X4894Y16698D03*
X3944Y16708D03*
X3699Y17988D03*
D185*
X3691Y17983D03*
X3641Y17953D03*
X4466Y16698D03*
X5756Y18128D03*
X5876Y18068D03*
X4876Y18403D03*
D186*
X4676Y18328D03*
X4031Y18348D03*
X3751Y18028D03*
X3646Y16823D03*
X3946Y16698D03*
X5701Y16898D03*
D187*
X4924Y16703D03*
X4434Y16703D03*
X4844Y18398D03*
D188*
X5901Y18063D03*
X3946Y16703D03*
X3611Y17948D03*
X3721Y18008D03*
D189*
X3734Y18018D03*
X3594Y17943D03*
X4419Y16708D03*
X4939Y16708D03*
X5919Y18058D03*
D190*
X5724Y18153D03*
X4754Y17048D03*
X4954Y16713D03*
X5209Y16878D03*
X5684Y16893D03*
D191*
X5771Y18113D03*
X3946Y16713D03*
D192*
X4209Y16813D03*
X4389Y16718D03*
X4744Y17038D03*
X4969Y16718D03*
X5949Y18048D03*
X3564Y17933D03*
D193*
X3944Y16718D03*
D194*
X4379Y16723D03*
X4744Y17033D03*
X4979Y16723D03*
X5709Y16903D03*
X5959Y18043D03*
X3554Y17928D03*
D195*
X3944Y16723D03*
X5104Y18483D03*
D196*
X5974Y17428D03*
X5939Y17403D03*
X5934Y17398D03*
X5719Y16908D03*
X4989Y16728D03*
X4369Y16728D03*
X3544Y17923D03*
X4009Y18338D03*
D197*
X3944Y16728D03*
D198*
X4359Y16733D03*
X4999Y16733D03*
X5404Y16773D03*
X5739Y16918D03*
X5924Y17388D03*
X5929Y17393D03*
X5989Y18028D03*
X3999Y18333D03*
X3524Y17913D03*
D199*
X3944Y16733D03*
D200*
X3616Y16838D03*
X3606Y16843D03*
X3516Y17908D03*
X3766Y18038D03*
X3991Y18328D03*
X5006Y16738D03*
X5016Y16743D03*
X5991Y17438D03*
X6001Y17443D03*
X6001Y18023D03*
D201*
X5981Y18033D03*
X5981Y17433D03*
X5731Y16913D03*
X4741Y17053D03*
X4351Y16738D03*
X4216Y16818D03*
X3626Y16833D03*
X3531Y17918D03*
X4676Y18323D03*
D202*
X5059Y18453D03*
X3944Y16738D03*
D203*
X4066Y16743D03*
D204*
X3591Y16853D03*
X3506Y17903D03*
X3976Y18318D03*
X3981Y18323D03*
X5026Y16748D03*
X5756Y16928D03*
X6016Y18013D03*
D205*
X5149Y17463D03*
X5149Y17458D03*
X4974Y17638D03*
X4574Y17113D03*
X4574Y17108D03*
X4469Y16748D03*
X5194Y17008D03*
X4374Y17608D03*
X4374Y17613D03*
X4794Y18228D03*
X4794Y18233D03*
D206*
X4044Y16748D03*
X4034Y16753D03*
D207*
X4224Y16823D03*
X4729Y17058D03*
X5034Y16753D03*
X5764Y16933D03*
X5914Y17378D03*
X6019Y17453D03*
X6024Y18008D03*
X3969Y18313D03*
X3499Y17898D03*
X3584Y16858D03*
D208*
X4384Y17578D03*
X4379Y17588D03*
X4379Y17593D03*
X4974Y17628D03*
X4974Y17633D03*
X5149Y17473D03*
X5149Y16923D03*
X4474Y16753D03*
X4799Y18213D03*
D209*
X4796Y18208D03*
X4971Y17623D03*
X5146Y17483D03*
X5146Y17478D03*
X5191Y17028D03*
X5191Y17023D03*
X4571Y17133D03*
X4571Y17138D03*
X4476Y16758D03*
X4246Y16868D03*
X4386Y17568D03*
X4386Y17573D03*
X4381Y17583D03*
D210*
X3996Y16773D03*
X4006Y16768D03*
X4026Y16758D03*
D211*
X3569Y16868D03*
X3564Y16873D03*
X3484Y17888D03*
X3954Y18303D03*
X3959Y18308D03*
X5054Y16768D03*
X5049Y16763D03*
X5779Y16943D03*
X5909Y17373D03*
X6039Y17468D03*
X6039Y17998D03*
D212*
X5141Y17498D03*
X4971Y17613D03*
X4801Y18193D03*
X4391Y17553D03*
X4391Y17548D03*
X4476Y16763D03*
X5191Y17033D03*
X5191Y17038D03*
X5191Y17043D03*
D213*
X4014Y16763D03*
X3989Y16778D03*
X3979Y16783D03*
X3974Y16788D03*
X3964Y16793D03*
D214*
X3484Y16953D03*
X3479Y16958D03*
X3479Y16963D03*
X3474Y16968D03*
X3469Y17293D03*
X3474Y17303D03*
X3479Y17308D03*
X3479Y17313D03*
X3484Y17323D03*
X3484Y17328D03*
X3384Y17448D03*
X3379Y17453D03*
X3374Y17463D03*
X3379Y17778D03*
X3384Y17788D03*
X3389Y17793D03*
X3799Y18053D03*
X3854Y18198D03*
X3859Y18203D03*
X3859Y18208D03*
X3864Y18213D03*
X3869Y18218D03*
X4529Y16848D03*
X5404Y16768D03*
X5869Y17033D03*
X5874Y17038D03*
X5874Y17043D03*
X5879Y17048D03*
X5884Y17058D03*
X5894Y17353D03*
X6119Y17548D03*
X6124Y17558D03*
X6129Y17563D03*
X6134Y17568D03*
X6139Y17578D03*
X6139Y17888D03*
X6134Y17898D03*
X6129Y17903D03*
X6124Y17908D03*
X6119Y17918D03*
D215*
X5284Y18343D03*
X5284Y18348D03*
X5289Y18373D03*
X5289Y18378D03*
X5279Y18318D03*
X5279Y18313D03*
X5274Y18288D03*
X5269Y18258D03*
X5264Y18228D03*
X5259Y18198D03*
X5309Y18498D03*
X5309Y18503D03*
X4799Y18188D03*
X4969Y17608D03*
X5144Y17503D03*
X4569Y17158D03*
X4569Y17153D03*
X4479Y16768D03*
X4399Y17528D03*
X4399Y17533D03*
X4394Y17538D03*
X4394Y17543D03*
D216*
X3946Y18298D03*
X3476Y17883D03*
X3471Y17878D03*
X3556Y16878D03*
X4226Y16828D03*
X5061Y16773D03*
X5181Y16888D03*
X5786Y16948D03*
X5791Y16953D03*
X5906Y17368D03*
X6046Y17473D03*
X6051Y17478D03*
X6051Y17988D03*
X6046Y17993D03*
X5691Y18168D03*
X5221Y18403D03*
D217*
X5286Y18368D03*
X5286Y18363D03*
X5286Y18358D03*
X5286Y18353D03*
X5281Y18338D03*
X5281Y18333D03*
X5281Y18328D03*
X5281Y18323D03*
X5276Y18308D03*
X5276Y18303D03*
X5276Y18298D03*
X5276Y18293D03*
X5271Y18283D03*
X5271Y18278D03*
X5271Y18273D03*
X5271Y18268D03*
X5271Y18263D03*
X5266Y18253D03*
X5266Y18248D03*
X5266Y18243D03*
X5266Y18238D03*
X5266Y18233D03*
X5261Y18223D03*
X5261Y18218D03*
X5261Y18213D03*
X5261Y18208D03*
X5261Y18203D03*
X5256Y18193D03*
X5256Y18188D03*
X5256Y18183D03*
X5256Y18178D03*
X5256Y18173D03*
X5251Y18168D03*
X5251Y18163D03*
X5251Y18158D03*
X5251Y18153D03*
X5251Y18148D03*
X5251Y18143D03*
X5246Y18138D03*
X5246Y18133D03*
X5246Y18128D03*
X5246Y18123D03*
X5246Y18118D03*
X5246Y18113D03*
X5241Y18108D03*
X5241Y18103D03*
X5241Y18098D03*
X5241Y18093D03*
X5241Y18088D03*
X5241Y18083D03*
X5236Y18073D03*
X5236Y18068D03*
X5236Y18063D03*
X5236Y18058D03*
X5236Y18053D03*
X5231Y18043D03*
X5231Y18038D03*
X5231Y18033D03*
X5231Y18028D03*
X5226Y18018D03*
X5226Y18013D03*
X5226Y18008D03*
X5226Y18003D03*
X5226Y17998D03*
X5221Y17988D03*
X5221Y17983D03*
X5221Y17978D03*
X5221Y17973D03*
X5221Y17968D03*
X5216Y17958D03*
X5216Y17953D03*
X5216Y17948D03*
X5216Y17943D03*
X5216Y17938D03*
X5211Y17928D03*
X5211Y17923D03*
X5211Y17918D03*
X5211Y17913D03*
X5206Y17903D03*
X5206Y17898D03*
X5206Y17893D03*
X5206Y17888D03*
X5206Y17883D03*
X5201Y17873D03*
X5201Y17868D03*
X5201Y17863D03*
X5201Y17858D03*
X5201Y17853D03*
X5196Y17843D03*
X5196Y17838D03*
X5196Y17833D03*
X5196Y17828D03*
X5196Y17823D03*
X5191Y17813D03*
X5191Y17808D03*
X5191Y17803D03*
X5191Y17798D03*
X5191Y17793D03*
X5186Y17783D03*
X5186Y17778D03*
X5186Y17773D03*
X5186Y17768D03*
X5181Y17758D03*
X5181Y17753D03*
X5181Y17748D03*
X5181Y17743D03*
X5181Y17738D03*
X5176Y17728D03*
X5176Y17723D03*
X5176Y17718D03*
X5176Y17713D03*
X5176Y17708D03*
X5171Y17698D03*
X5171Y17693D03*
X5171Y17688D03*
X5171Y17683D03*
X5171Y17678D03*
X5166Y17668D03*
X5166Y17663D03*
X5166Y17658D03*
X5166Y17653D03*
X5161Y17643D03*
X5161Y17638D03*
X5161Y17633D03*
X5161Y17628D03*
X5161Y17623D03*
X5141Y17508D03*
X5021Y17468D03*
X5031Y17443D03*
X5041Y17418D03*
X5011Y17493D03*
X4971Y17603D03*
X4686Y17678D03*
X4681Y17658D03*
X4676Y17638D03*
X4671Y17613D03*
X4666Y17593D03*
X4661Y17573D03*
X4656Y17548D03*
X4651Y17528D03*
X4646Y17508D03*
X4641Y17483D03*
X4636Y17463D03*
X4631Y17443D03*
X4626Y17418D03*
X4621Y17398D03*
X4616Y17378D03*
X4611Y17353D03*
X4606Y17338D03*
X4606Y17333D03*
X4601Y17323D03*
X4601Y17318D03*
X4601Y17313D03*
X4596Y17298D03*
X4596Y17293D03*
X4596Y17288D03*
X4591Y17278D03*
X4591Y17273D03*
X4566Y17168D03*
X4566Y17163D03*
X4446Y17128D03*
X4446Y17123D03*
X4446Y17118D03*
X4446Y17113D03*
X4451Y17103D03*
X4451Y17098D03*
X4451Y17093D03*
X4451Y17088D03*
X4451Y17083D03*
X4451Y17078D03*
X4451Y17073D03*
X4451Y17068D03*
X4451Y17063D03*
X4456Y17058D03*
X4456Y17053D03*
X4456Y17048D03*
X4456Y17043D03*
X4456Y17038D03*
X4456Y17033D03*
X4456Y17028D03*
X4456Y17023D03*
X4456Y17018D03*
X4456Y17013D03*
X4461Y17008D03*
X4461Y17003D03*
X4461Y16998D03*
X4461Y16993D03*
X4461Y16988D03*
X4461Y16983D03*
X4461Y16978D03*
X4461Y16973D03*
X4461Y16968D03*
X4461Y16963D03*
X4466Y16958D03*
X4466Y16953D03*
X4466Y16948D03*
X4466Y16943D03*
X4466Y16938D03*
X4466Y16933D03*
X4466Y16928D03*
X4466Y16923D03*
X4466Y16918D03*
X4466Y16913D03*
X4471Y16908D03*
X4471Y16903D03*
X4471Y16898D03*
X4471Y16893D03*
X4471Y16888D03*
X4471Y16883D03*
X4471Y16878D03*
X4471Y16873D03*
X4471Y16868D03*
X4471Y16863D03*
X4476Y16858D03*
X4481Y16773D03*
X4441Y17163D03*
X4441Y17168D03*
X4441Y17173D03*
X4436Y17213D03*
X4436Y17218D03*
X4431Y17243D03*
X4431Y17248D03*
X4431Y17253D03*
X4431Y17258D03*
X4431Y17263D03*
X4426Y17273D03*
X4426Y17278D03*
X4426Y17283D03*
X4426Y17288D03*
X4426Y17293D03*
X4426Y17298D03*
X4426Y17303D03*
X4426Y17308D03*
X4421Y17318D03*
X4421Y17323D03*
X4421Y17328D03*
X4421Y17333D03*
X4421Y17338D03*
X4421Y17343D03*
X4401Y17518D03*
X4401Y17523D03*
X4691Y17703D03*
X4696Y17723D03*
X4701Y17743D03*
X4706Y17768D03*
X4711Y17788D03*
X4716Y17808D03*
X4721Y17833D03*
X4726Y17853D03*
X4731Y17873D03*
X4736Y17898D03*
X4741Y17918D03*
X4746Y17938D03*
X4751Y17963D03*
X4756Y17983D03*
X4761Y18003D03*
X4766Y18023D03*
X4766Y18028D03*
X4771Y18048D03*
X4776Y18068D03*
X4801Y18178D03*
X4801Y18183D03*
X5311Y18508D03*
X5311Y18513D03*
X5581Y18048D03*
X5571Y18023D03*
X5566Y18008D03*
X5556Y17983D03*
X5546Y17958D03*
X5536Y17933D03*
X5526Y17908D03*
X5516Y17883D03*
X5491Y17818D03*
X5481Y17793D03*
X5471Y17768D03*
X5461Y17743D03*
X5426Y17653D03*
X5416Y17628D03*
X5406Y17603D03*
X5396Y17578D03*
X5371Y17513D03*
X5361Y17488D03*
X5351Y17463D03*
X5341Y17438D03*
X5316Y17373D03*
X5306Y17348D03*
X5296Y17323D03*
X5286Y17298D03*
X5261Y17233D03*
X5251Y17208D03*
X5241Y17183D03*
X5231Y17158D03*
X5191Y17053D03*
X5191Y17048D03*
D218*
X5406Y16778D03*
X4671Y18338D03*
X4326Y18468D03*
X3686Y16808D03*
D219*
X3549Y16883D03*
X3544Y16888D03*
X3539Y16893D03*
X3459Y17868D03*
X3464Y17873D03*
X3929Y18283D03*
X3934Y18288D03*
X3939Y18293D03*
X5079Y16788D03*
X5074Y16783D03*
X5069Y16778D03*
X5799Y16958D03*
X5804Y16963D03*
X6059Y17483D03*
X6054Y17983D03*
D220*
X5709Y18378D03*
X5714Y18388D03*
X5719Y18403D03*
X5724Y18413D03*
X5729Y18428D03*
X5734Y18438D03*
X5739Y18453D03*
X5744Y18463D03*
X5744Y18468D03*
X5749Y18478D03*
X5754Y18488D03*
X5754Y18493D03*
X5754Y18498D03*
X5759Y18503D03*
X5759Y18508D03*
X5764Y18513D03*
X5704Y18363D03*
X5699Y18353D03*
X5694Y18338D03*
X5689Y18328D03*
X5684Y18313D03*
X5674Y18288D03*
X5664Y18263D03*
X5659Y18248D03*
X5654Y18238D03*
X5649Y18223D03*
X5644Y18213D03*
X5639Y18198D03*
X5634Y18188D03*
X5634Y18183D03*
X5589Y18063D03*
X5584Y18058D03*
X5584Y18053D03*
X5579Y18043D03*
X5579Y18038D03*
X5574Y18033D03*
X5574Y18028D03*
X5569Y18018D03*
X5569Y18013D03*
X5564Y18003D03*
X5564Y17998D03*
X5559Y17993D03*
X5559Y17988D03*
X5554Y17978D03*
X5554Y17973D03*
X5549Y17968D03*
X5549Y17963D03*
X5544Y17953D03*
X5544Y17948D03*
X5539Y17943D03*
X5539Y17938D03*
X5534Y17928D03*
X5534Y17923D03*
X5529Y17918D03*
X5529Y17913D03*
X5524Y17903D03*
X5524Y17898D03*
X5519Y17893D03*
X5519Y17888D03*
X5514Y17878D03*
X5514Y17873D03*
X5509Y17868D03*
X5509Y17863D03*
X5509Y17858D03*
X5504Y17853D03*
X5504Y17848D03*
X5499Y17843D03*
X5499Y17838D03*
X5499Y17833D03*
X5494Y17828D03*
X5494Y17823D03*
X5489Y17813D03*
X5489Y17808D03*
X5484Y17803D03*
X5484Y17798D03*
X5479Y17788D03*
X5479Y17783D03*
X5474Y17778D03*
X5474Y17773D03*
X5469Y17763D03*
X5469Y17758D03*
X5464Y17753D03*
X5464Y17748D03*
X5459Y17738D03*
X5459Y17733D03*
X5454Y17728D03*
X5454Y17723D03*
X5454Y17718D03*
X5449Y17713D03*
X5449Y17708D03*
X5444Y17703D03*
X5444Y17698D03*
X5444Y17693D03*
X5439Y17688D03*
X5439Y17683D03*
X5434Y17678D03*
X5434Y17673D03*
X5434Y17668D03*
X5429Y17663D03*
X5429Y17658D03*
X5424Y17648D03*
X5424Y17643D03*
X5419Y17638D03*
X5419Y17633D03*
X5414Y17623D03*
X5414Y17618D03*
X5409Y17613D03*
X5409Y17608D03*
X5404Y17598D03*
X5404Y17593D03*
X5399Y17588D03*
X5399Y17583D03*
X5394Y17573D03*
X5394Y17568D03*
X5389Y17563D03*
X5389Y17558D03*
X5389Y17553D03*
X5384Y17548D03*
X5384Y17543D03*
X5379Y17538D03*
X5379Y17533D03*
X5379Y17528D03*
X5374Y17523D03*
X5374Y17518D03*
X5369Y17508D03*
X5369Y17503D03*
X5364Y17498D03*
X5364Y17493D03*
X5359Y17483D03*
X5359Y17478D03*
X5354Y17473D03*
X5354Y17468D03*
X5349Y17458D03*
X5349Y17453D03*
X5344Y17448D03*
X5344Y17443D03*
X5339Y17433D03*
X5339Y17428D03*
X5334Y17423D03*
X5334Y17418D03*
X5334Y17413D03*
X5329Y17408D03*
X5329Y17403D03*
X5324Y17398D03*
X5324Y17393D03*
X5324Y17388D03*
X5319Y17383D03*
X5319Y17378D03*
X5314Y17368D03*
X5314Y17363D03*
X5309Y17358D03*
X5309Y17353D03*
X5304Y17343D03*
X5304Y17338D03*
X5299Y17333D03*
X5299Y17328D03*
X5294Y17318D03*
X5294Y17313D03*
X5289Y17308D03*
X5289Y17303D03*
X5284Y17293D03*
X5284Y17288D03*
X5279Y17283D03*
X5279Y17278D03*
X5279Y17273D03*
X5274Y17268D03*
X5274Y17263D03*
X5269Y17258D03*
X5269Y17253D03*
X5269Y17248D03*
X5264Y17243D03*
X5264Y17238D03*
X5259Y17228D03*
X5259Y17223D03*
X5254Y17218D03*
X5254Y17213D03*
X5249Y17203D03*
X5249Y17198D03*
X5244Y17193D03*
X5244Y17188D03*
X5239Y17178D03*
X5239Y17173D03*
X5234Y17168D03*
X5234Y17163D03*
X5229Y17153D03*
X5229Y17148D03*
X5224Y17143D03*
X5144Y17163D03*
X5134Y17188D03*
X5129Y17198D03*
X5124Y17213D03*
X5119Y17223D03*
X5114Y17233D03*
X5114Y17238D03*
X5109Y17248D03*
X5104Y17258D03*
X5104Y17263D03*
X5099Y17273D03*
X5094Y17283D03*
X5094Y17288D03*
X5089Y17298D03*
X5084Y17308D03*
X5079Y17318D03*
X5079Y17323D03*
X5074Y17333D03*
X5069Y17343D03*
X5069Y17348D03*
X5064Y17358D03*
X5059Y17368D03*
X5059Y17373D03*
X5059Y17378D03*
X5054Y17383D03*
X5054Y17388D03*
X5049Y17393D03*
X5049Y17398D03*
X5049Y17403D03*
X5044Y17408D03*
X5044Y17413D03*
X5039Y17423D03*
X5039Y17428D03*
X5034Y17433D03*
X5034Y17438D03*
X5029Y17448D03*
X5029Y17453D03*
X5024Y17458D03*
X5024Y17463D03*
X5019Y17473D03*
X5019Y17478D03*
X5014Y17483D03*
X5014Y17488D03*
X5009Y17498D03*
X5009Y17503D03*
X5004Y17508D03*
X5004Y17513D03*
X5004Y17518D03*
X4969Y17598D03*
X5019Y17748D03*
X5014Y17758D03*
X5009Y17768D03*
X5004Y17778D03*
X4999Y17788D03*
X4994Y17798D03*
X4989Y17808D03*
X4984Y17818D03*
X4979Y17828D03*
X4974Y17838D03*
X4969Y17843D03*
X4969Y17848D03*
X4964Y17853D03*
X4964Y17858D03*
X4959Y17863D03*
X4959Y17868D03*
X4954Y17873D03*
X4954Y17878D03*
X4949Y17883D03*
X4944Y17893D03*
X4939Y17903D03*
X4934Y17913D03*
X4929Y17923D03*
X4924Y17933D03*
X4919Y17943D03*
X4914Y17953D03*
X4909Y17963D03*
X4904Y17973D03*
X4899Y17983D03*
X4894Y17993D03*
X4889Y18003D03*
X4884Y18013D03*
X4879Y18023D03*
X4874Y18033D03*
X4869Y18043D03*
X4864Y18053D03*
X4859Y18063D03*
X4854Y18073D03*
X4849Y18083D03*
X4779Y18083D03*
X4779Y18078D03*
X4779Y18073D03*
X4774Y18063D03*
X4774Y18058D03*
X4774Y18053D03*
X4769Y18043D03*
X4769Y18038D03*
X4769Y18033D03*
X4764Y18018D03*
X4764Y18013D03*
X4764Y18008D03*
X4759Y17998D03*
X4759Y17993D03*
X4759Y17988D03*
X4754Y17978D03*
X4754Y17973D03*
X4754Y17968D03*
X4749Y17958D03*
X4749Y17953D03*
X4749Y17948D03*
X4749Y17943D03*
X4744Y17933D03*
X4744Y17928D03*
X4744Y17923D03*
X4739Y17913D03*
X4739Y17908D03*
X4739Y17903D03*
X4734Y17893D03*
X4734Y17888D03*
X4734Y17883D03*
X4734Y17878D03*
X4729Y17868D03*
X4729Y17863D03*
X4729Y17858D03*
X4724Y17848D03*
X4724Y17843D03*
X4724Y17838D03*
X4719Y17828D03*
X4719Y17823D03*
X4719Y17818D03*
X4719Y17813D03*
X4714Y17803D03*
X4714Y17798D03*
X4714Y17793D03*
X4709Y17783D03*
X4709Y17778D03*
X4709Y17773D03*
X4704Y17763D03*
X4704Y17758D03*
X4704Y17753D03*
X4704Y17748D03*
X4699Y17738D03*
X4699Y17733D03*
X4699Y17728D03*
X4694Y17718D03*
X4694Y17713D03*
X4694Y17708D03*
X4689Y17698D03*
X4689Y17693D03*
X4689Y17688D03*
X4689Y17683D03*
X4684Y17673D03*
X4684Y17668D03*
X4684Y17663D03*
X4679Y17653D03*
X4679Y17648D03*
X4679Y17643D03*
X4674Y17633D03*
X4674Y17628D03*
X4674Y17623D03*
X4674Y17618D03*
X4669Y17608D03*
X4669Y17603D03*
X4669Y17598D03*
X4664Y17588D03*
X4664Y17583D03*
X4664Y17578D03*
X4659Y17568D03*
X4659Y17563D03*
X4659Y17558D03*
X4659Y17553D03*
X4654Y17543D03*
X4654Y17538D03*
X4654Y17533D03*
X4649Y17523D03*
X4649Y17518D03*
X4649Y17513D03*
X4644Y17503D03*
X4644Y17498D03*
X4644Y17493D03*
X4644Y17488D03*
X4639Y17478D03*
X4639Y17473D03*
X4639Y17468D03*
X4634Y17458D03*
X4634Y17453D03*
X4634Y17448D03*
X4629Y17438D03*
X4629Y17433D03*
X4629Y17428D03*
X4629Y17423D03*
X4624Y17413D03*
X4624Y17408D03*
X4624Y17403D03*
X4619Y17393D03*
X4619Y17388D03*
X4619Y17383D03*
X4614Y17373D03*
X4614Y17368D03*
X4614Y17363D03*
X4614Y17358D03*
X4609Y17348D03*
X4609Y17343D03*
X4604Y17328D03*
X4599Y17308D03*
X4599Y17303D03*
X4594Y17283D03*
X4524Y17273D03*
X4519Y17283D03*
X4514Y17293D03*
X4509Y17303D03*
X4504Y17313D03*
X4499Y17323D03*
X4494Y17333D03*
X4489Y17343D03*
X4424Y17313D03*
X4429Y17268D03*
X4434Y17238D03*
X4434Y17233D03*
X4434Y17228D03*
X4434Y17223D03*
X4439Y17208D03*
X4439Y17203D03*
X4439Y17198D03*
X4439Y17193D03*
X4439Y17188D03*
X4439Y17183D03*
X4439Y17178D03*
X4444Y17158D03*
X4444Y17153D03*
X4444Y17148D03*
X4444Y17143D03*
X4444Y17138D03*
X4444Y17133D03*
X4449Y17108D03*
X4569Y17173D03*
X4404Y17508D03*
X4404Y17513D03*
X4484Y16778D03*
X5154Y16918D03*
X5139Y17513D03*
X5159Y17618D03*
X5164Y17648D03*
X5169Y17673D03*
X5174Y17703D03*
X5179Y17733D03*
X5184Y17763D03*
X5189Y17788D03*
X5194Y17818D03*
X5199Y17848D03*
X5204Y17878D03*
X5209Y17908D03*
X5214Y17933D03*
X5219Y17963D03*
X5224Y17993D03*
X5229Y18023D03*
X5234Y18048D03*
X5239Y18078D03*
X4804Y18168D03*
X4804Y18173D03*
X4689Y18268D03*
D221*
X5404Y16783D03*
D222*
X5191Y17058D03*
X5191Y17063D03*
X5151Y17143D03*
X5151Y17148D03*
X5146Y17153D03*
X5146Y17158D03*
X5141Y17168D03*
X5141Y17173D03*
X5136Y17178D03*
X5136Y17183D03*
X5131Y17193D03*
X5126Y17203D03*
X5126Y17208D03*
X5121Y17218D03*
X5116Y17228D03*
X5111Y17243D03*
X5106Y17253D03*
X5101Y17268D03*
X5096Y17278D03*
X5091Y17293D03*
X5086Y17303D03*
X5081Y17313D03*
X5076Y17328D03*
X5071Y17338D03*
X5066Y17353D03*
X5061Y17363D03*
X5136Y17518D03*
X5136Y17523D03*
X5086Y17618D03*
X5081Y17628D03*
X5076Y17638D03*
X5071Y17643D03*
X5071Y17648D03*
X5066Y17653D03*
X5066Y17658D03*
X5061Y17663D03*
X5061Y17668D03*
X5056Y17673D03*
X5056Y17678D03*
X5051Y17683D03*
X5051Y17688D03*
X5046Y17693D03*
X5046Y17698D03*
X5041Y17703D03*
X5041Y17708D03*
X5036Y17713D03*
X5036Y17718D03*
X5031Y17723D03*
X5031Y17728D03*
X5026Y17733D03*
X5026Y17738D03*
X5021Y17743D03*
X5016Y17753D03*
X5011Y17763D03*
X5006Y17773D03*
X5001Y17783D03*
X4996Y17793D03*
X4991Y17803D03*
X4986Y17813D03*
X4981Y17823D03*
X4976Y17833D03*
X4946Y17888D03*
X4941Y17898D03*
X4936Y17908D03*
X4931Y17918D03*
X4926Y17928D03*
X4921Y17938D03*
X4916Y17948D03*
X4911Y17958D03*
X4906Y17968D03*
X4901Y17978D03*
X4896Y17988D03*
X4891Y17998D03*
X4886Y18008D03*
X4881Y18018D03*
X4876Y18028D03*
X4871Y18038D03*
X4866Y18048D03*
X4861Y18058D03*
X4856Y18068D03*
X4851Y18078D03*
X4971Y17593D03*
X4906Y17478D03*
X4891Y17453D03*
X4876Y17428D03*
X4871Y17418D03*
X4861Y17403D03*
X4856Y17393D03*
X4851Y17383D03*
X4846Y17378D03*
X4841Y17368D03*
X4836Y17358D03*
X4831Y17353D03*
X4826Y17343D03*
X4821Y17333D03*
X4816Y17323D03*
X4811Y17318D03*
X4811Y17313D03*
X4806Y17308D03*
X4806Y17303D03*
X4801Y17298D03*
X4796Y17293D03*
X4796Y17288D03*
X4791Y17283D03*
X4791Y17278D03*
X4786Y17273D03*
X4781Y17268D03*
X4781Y17263D03*
X4776Y17258D03*
X4776Y17253D03*
X4771Y17248D03*
X4766Y17243D03*
X4766Y17238D03*
X4761Y17233D03*
X4761Y17228D03*
X4756Y17223D03*
X4751Y17218D03*
X4751Y17213D03*
X4746Y17208D03*
X4746Y17203D03*
X4741Y17198D03*
X4736Y17193D03*
X4736Y17188D03*
X4731Y17183D03*
X4731Y17178D03*
X4726Y17173D03*
X4721Y17168D03*
X4721Y17163D03*
X4716Y17158D03*
X4716Y17153D03*
X4711Y17148D03*
X4706Y17143D03*
X4706Y17138D03*
X4701Y17133D03*
X4701Y17128D03*
X4696Y17123D03*
X4691Y17118D03*
X4691Y17113D03*
X4686Y17108D03*
X4686Y17103D03*
X4681Y17098D03*
X4676Y17093D03*
X4676Y17088D03*
X4671Y17083D03*
X4566Y17178D03*
X4566Y17183D03*
X4521Y17278D03*
X4516Y17288D03*
X4511Y17298D03*
X4506Y17308D03*
X4501Y17318D03*
X4496Y17328D03*
X4491Y17338D03*
X4406Y17503D03*
X4486Y16783D03*
X5636Y18193D03*
X5641Y18203D03*
X5641Y18208D03*
X5646Y18218D03*
X5651Y18228D03*
X5651Y18233D03*
X5656Y18243D03*
X5661Y18253D03*
X5661Y18258D03*
X5666Y18268D03*
X5666Y18273D03*
X5671Y18278D03*
X5671Y18283D03*
X5676Y18293D03*
X5676Y18298D03*
X5681Y18303D03*
X5681Y18308D03*
X5686Y18318D03*
X5686Y18323D03*
X5691Y18333D03*
X5696Y18343D03*
X5696Y18348D03*
X5701Y18358D03*
X5706Y18368D03*
X5706Y18373D03*
X5711Y18383D03*
X5716Y18393D03*
X5716Y18398D03*
X5721Y18408D03*
X5726Y18418D03*
X5726Y18423D03*
X5731Y18433D03*
X5736Y18443D03*
X5736Y18448D03*
X5741Y18458D03*
X5746Y18473D03*
X5751Y18483D03*
D223*
X5769Y18118D03*
X5404Y16788D03*
D224*
X5191Y17073D03*
X5136Y17528D03*
X5136Y17533D03*
X4676Y17078D03*
X4491Y16788D03*
X4416Y17473D03*
X4416Y17478D03*
X4806Y18153D03*
X4806Y18158D03*
D225*
X4324Y18453D03*
X5779Y18103D03*
X5404Y16793D03*
D226*
X5084Y16793D03*
X5819Y16978D03*
X5824Y16983D03*
X6074Y17498D03*
X6079Y17503D03*
X6084Y17508D03*
X6084Y17958D03*
X6079Y17963D03*
X6074Y17968D03*
X4684Y18308D03*
X3434Y17848D03*
X3429Y17843D03*
X3424Y17398D03*
X3429Y17393D03*
X3434Y17388D03*
X3439Y17383D03*
X3464Y17358D03*
X3474Y17343D03*
X3524Y16908D03*
X3529Y16903D03*
X3534Y16898D03*
D227*
X4419Y17463D03*
X4419Y17468D03*
X4564Y17208D03*
X4564Y17203D03*
X4564Y17198D03*
X4494Y16793D03*
X4969Y17578D03*
X5134Y17543D03*
X5134Y17538D03*
X4809Y18148D03*
X4689Y18273D03*
D228*
X5314Y16798D03*
D229*
X3956Y16798D03*
D230*
X4499Y16803D03*
X4564Y17218D03*
X4429Y17433D03*
X4429Y17438D03*
X4424Y17448D03*
X4969Y17568D03*
X5129Y17553D03*
X5189Y17083D03*
X4809Y18133D03*
X4809Y18138D03*
X5274Y18388D03*
D231*
X3709Y17998D03*
X4189Y16803D03*
D232*
X5339Y16808D03*
D233*
X5189Y17098D03*
X5129Y17563D03*
X5129Y17568D03*
X4809Y18123D03*
X4809Y18128D03*
X5089Y18513D03*
X5649Y18178D03*
X4559Y17233D03*
X4434Y17413D03*
X4434Y17418D03*
X4704Y16953D03*
X4689Y16943D03*
X4669Y16928D03*
X4654Y16918D03*
X4649Y16913D03*
X4639Y16908D03*
X4584Y16868D03*
X4569Y16858D03*
X4504Y16808D03*
D234*
X4201Y16808D03*
X5671Y16888D03*
X5731Y18148D03*
D235*
X5346Y16813D03*
X4326Y18408D03*
D236*
X5124Y17583D03*
X5189Y17108D03*
X4774Y17003D03*
X4689Y17073D03*
X4629Y16903D03*
X4624Y16898D03*
X4609Y16888D03*
X4504Y16813D03*
X4244Y16853D03*
X4559Y17243D03*
X4559Y17248D03*
X4559Y17253D03*
X4444Y17383D03*
X4444Y17388D03*
D237*
X3674Y16813D03*
X3579Y17938D03*
X4059Y18358D03*
X4674Y18333D03*
D238*
X4686Y18283D03*
X4811Y18108D03*
X4811Y18103D03*
X5261Y18393D03*
X5126Y17588D03*
X4966Y17543D03*
X5186Y17118D03*
X5186Y17113D03*
X4781Y17013D03*
X4556Y17258D03*
X4446Y17373D03*
X4446Y17378D03*
X4506Y16818D03*
D239*
X4751Y17043D03*
X3661Y16818D03*
X4041Y18353D03*
D240*
X5364Y16823D03*
D241*
X5161Y16903D03*
X5186Y17128D03*
X5121Y17603D03*
X5121Y17608D03*
X4816Y18088D03*
X4686Y18288D03*
X4451Y17358D03*
X4456Y17348D03*
X4556Y17268D03*
X4511Y16823D03*
X4241Y16848D03*
D242*
X5371Y16828D03*
X4326Y18403D03*
D243*
X5119Y17613D03*
X4964Y17528D03*
X4964Y17523D03*
X5189Y17133D03*
X4514Y16828D03*
D244*
X3636Y16828D03*
X3756Y18033D03*
X4021Y18343D03*
X4326Y18473D03*
X5716Y18158D03*
X5971Y18038D03*
X5966Y17423D03*
X5956Y17418D03*
X5951Y17413D03*
X5946Y17408D03*
D245*
X5186Y17138D03*
X4516Y16833D03*
D246*
X4231Y16833D03*
X4716Y17063D03*
X5171Y16893D03*
X5831Y16988D03*
X5836Y16993D03*
X5841Y16998D03*
X6086Y17953D03*
X4326Y18478D03*
X3906Y18263D03*
X3901Y18258D03*
X3896Y18253D03*
X3891Y18248D03*
X3426Y17838D03*
X3421Y17833D03*
X3416Y17828D03*
X3421Y17403D03*
X3476Y17338D03*
X3516Y16913D03*
D247*
X5389Y16838D03*
X5394Y16843D03*
D248*
X5166Y16898D03*
X4521Y16838D03*
X3441Y17033D03*
X3436Y17043D03*
X3436Y17048D03*
X3436Y17053D03*
X3431Y17063D03*
X3431Y17068D03*
X3431Y17073D03*
X3426Y17083D03*
X3426Y17088D03*
X3426Y17093D03*
X3426Y17098D03*
X3426Y17103D03*
X3421Y17143D03*
X3421Y17148D03*
X3421Y17153D03*
X3426Y17173D03*
X3426Y17178D03*
X3426Y17183D03*
X3426Y17188D03*
X3426Y17193D03*
X3431Y17198D03*
X3431Y17203D03*
X3431Y17208D03*
X3431Y17213D03*
X3436Y17218D03*
X3436Y17223D03*
X3441Y17238D03*
X3351Y17508D03*
X3346Y17523D03*
X3341Y17533D03*
X3341Y17538D03*
X3341Y17543D03*
X3336Y17553D03*
X3336Y17558D03*
X3336Y17563D03*
X3336Y17568D03*
X3331Y17583D03*
X3331Y17588D03*
X3331Y17593D03*
X3331Y17598D03*
X3331Y17603D03*
X3331Y17608D03*
X3331Y17613D03*
X3331Y17618D03*
X3331Y17623D03*
X3331Y17628D03*
X3331Y17633D03*
X3331Y17638D03*
X3331Y17643D03*
X3331Y17648D03*
X3336Y17668D03*
X3336Y17673D03*
X3336Y17678D03*
X3336Y17683D03*
X3341Y17688D03*
X3341Y17693D03*
X3341Y17698D03*
X3346Y17708D03*
X3346Y17713D03*
X3806Y18058D03*
X3806Y18063D03*
X3806Y18068D03*
X3811Y18083D03*
X3811Y18088D03*
X3811Y18093D03*
X3811Y18098D03*
X3816Y18108D03*
X3816Y18113D03*
X3816Y18118D03*
X3821Y18128D03*
X3826Y18143D03*
X5911Y17308D03*
X5916Y17298D03*
X5916Y17293D03*
X5916Y17288D03*
X5921Y17278D03*
X5921Y17273D03*
X5921Y17268D03*
X5921Y17263D03*
X5926Y17253D03*
X5926Y17248D03*
X5926Y17243D03*
X5926Y17238D03*
X5926Y17233D03*
X5926Y17228D03*
X5926Y17223D03*
X5926Y17218D03*
X5926Y17213D03*
X5926Y17208D03*
X5926Y17203D03*
X5926Y17198D03*
X5926Y17193D03*
X5926Y17188D03*
X5926Y17183D03*
X5926Y17178D03*
X5926Y17173D03*
X5921Y17158D03*
X5921Y17153D03*
X5921Y17148D03*
X5921Y17143D03*
X5916Y17138D03*
X5916Y17133D03*
X5916Y17128D03*
X5911Y17118D03*
X6166Y17638D03*
X6171Y17653D03*
X6171Y17658D03*
X6171Y17663D03*
X6176Y17668D03*
X6176Y17673D03*
X6176Y17678D03*
X6176Y17683D03*
X6181Y17693D03*
X6181Y17698D03*
X6181Y17703D03*
X6181Y17708D03*
X6181Y17713D03*
X6181Y17718D03*
X6181Y17723D03*
X6181Y17728D03*
X6181Y17733D03*
X6181Y17738D03*
X6181Y17743D03*
X6181Y17748D03*
X6181Y17753D03*
X6181Y17758D03*
X6181Y17763D03*
X6181Y17768D03*
X6176Y17783D03*
X6176Y17788D03*
X6176Y17793D03*
X6176Y17798D03*
X6171Y17803D03*
X6171Y17808D03*
X6171Y17813D03*
X6166Y17823D03*
X6166Y17828D03*
D249*
X6156Y17853D03*
X6151Y17863D03*
X6146Y17873D03*
X6141Y17883D03*
X6136Y17893D03*
X6156Y17613D03*
X6151Y17603D03*
X6146Y17593D03*
X6141Y17583D03*
X6136Y17573D03*
X5896Y17343D03*
X5901Y17333D03*
X5896Y17078D03*
X5891Y17068D03*
X5886Y17063D03*
X5881Y17053D03*
X4686Y18298D03*
X3851Y18193D03*
X3846Y18188D03*
X3846Y18183D03*
X3841Y18178D03*
X3841Y18173D03*
X3381Y17783D03*
X3376Y17773D03*
X3371Y17768D03*
X3371Y17763D03*
X3366Y17758D03*
X3361Y17748D03*
X3366Y17478D03*
X3366Y17473D03*
X3371Y17468D03*
X3376Y17458D03*
X3481Y17318D03*
X3471Y17298D03*
X3466Y17288D03*
X3461Y17283D03*
X3456Y17273D03*
X3451Y17263D03*
X3451Y17008D03*
X3456Y16998D03*
X3461Y16988D03*
X3466Y16983D03*
X3466Y16978D03*
X3471Y16973D03*
X4236Y16838D03*
D250*
X4524Y16843D03*
X4774Y17018D03*
X5894Y17073D03*
X5899Y17083D03*
X5899Y17088D03*
X5904Y17093D03*
X5904Y17098D03*
X5909Y17103D03*
X5909Y17108D03*
X5909Y17113D03*
X5914Y17123D03*
X5919Y17283D03*
X5914Y17303D03*
X5909Y17313D03*
X5909Y17318D03*
X5904Y17323D03*
X5904Y17328D03*
X5899Y17338D03*
X5894Y17348D03*
X6144Y17588D03*
X6149Y17598D03*
X6154Y17608D03*
X6159Y17618D03*
X6159Y17623D03*
X6164Y17628D03*
X6164Y17633D03*
X6169Y17643D03*
X6169Y17648D03*
X6169Y17818D03*
X6164Y17833D03*
X6164Y17838D03*
X6159Y17843D03*
X6159Y17848D03*
X6154Y17858D03*
X6149Y17868D03*
X6144Y17878D03*
X3839Y18168D03*
X3834Y18163D03*
X3834Y18158D03*
X3829Y18153D03*
X3829Y18148D03*
X3824Y18138D03*
X3824Y18133D03*
X3819Y18123D03*
X3364Y17753D03*
X3359Y17743D03*
X3359Y17738D03*
X3354Y17733D03*
X3354Y17728D03*
X3349Y17723D03*
X3349Y17718D03*
X3344Y17703D03*
X3339Y17548D03*
X3344Y17528D03*
X3349Y17518D03*
X3349Y17513D03*
X3354Y17503D03*
X3354Y17498D03*
X3359Y17493D03*
X3359Y17488D03*
X3364Y17483D03*
X3459Y17278D03*
X3454Y17268D03*
X3449Y17258D03*
X3449Y17253D03*
X3444Y17248D03*
X3444Y17243D03*
X3439Y17233D03*
X3439Y17228D03*
X3434Y17058D03*
X3439Y17038D03*
X3444Y17028D03*
X3444Y17023D03*
X3449Y17018D03*
X3449Y17013D03*
X3454Y17003D03*
X3459Y16993D03*
D251*
X3429Y17078D03*
X3424Y17108D03*
X3424Y17113D03*
X3424Y17118D03*
X3424Y17123D03*
X3424Y17128D03*
X3424Y17133D03*
X3424Y17138D03*
X3424Y17158D03*
X3424Y17163D03*
X3424Y17168D03*
X3334Y17573D03*
X3334Y17578D03*
X3334Y17653D03*
X3334Y17658D03*
X3334Y17663D03*
X3809Y18073D03*
X3809Y18078D03*
X3814Y18103D03*
X4684Y18293D03*
X5249Y18398D03*
X6179Y17778D03*
X6179Y17773D03*
X6179Y17688D03*
X5924Y17258D03*
X5924Y17168D03*
X5924Y17163D03*
X4704Y17068D03*
X4239Y16843D03*
D252*
X5401Y16848D03*
X4326Y18398D03*
D253*
X4679Y18318D03*
X5704Y18163D03*
X6009Y18018D03*
X6009Y17448D03*
X5919Y17383D03*
X5749Y16923D03*
X5189Y16883D03*
X4754Y17028D03*
X3599Y16848D03*
D254*
X3496Y16938D03*
X3491Y16943D03*
X3486Y16948D03*
X3406Y17418D03*
X3401Y17423D03*
X3396Y17428D03*
X3396Y17433D03*
X3391Y17438D03*
X3386Y17443D03*
X3391Y17798D03*
X3396Y17803D03*
X3401Y17808D03*
X3401Y17813D03*
X3871Y18223D03*
X3876Y18228D03*
X4531Y16853D03*
X5681Y18173D03*
X6106Y17933D03*
X6111Y17928D03*
X6116Y17923D03*
X6121Y17913D03*
X6121Y17553D03*
X6116Y17543D03*
X6111Y17538D03*
X6106Y17533D03*
X5866Y17028D03*
X5861Y17023D03*
X5856Y17018D03*
D255*
X5186Y17088D03*
X5186Y17093D03*
X5131Y17558D03*
X4966Y17558D03*
X4966Y17563D03*
X4561Y17228D03*
X4561Y17223D03*
X4431Y17423D03*
X4431Y17428D03*
X4246Y16858D03*
X4686Y18278D03*
D256*
X4804Y18163D03*
X5284Y18383D03*
X5594Y18068D03*
X5079Y17633D03*
X5084Y17623D03*
X4969Y17588D03*
X4969Y17583D03*
X4929Y17518D03*
X4929Y17513D03*
X4924Y17508D03*
X4919Y17503D03*
X4919Y17498D03*
X4914Y17493D03*
X4914Y17488D03*
X4909Y17483D03*
X4904Y17473D03*
X4899Y17468D03*
X4899Y17463D03*
X4894Y17458D03*
X4889Y17448D03*
X4884Y17443D03*
X4884Y17438D03*
X4879Y17433D03*
X4874Y17423D03*
X4869Y17413D03*
X4864Y17408D03*
X4859Y17398D03*
X4854Y17388D03*
X4844Y17373D03*
X4839Y17363D03*
X4829Y17348D03*
X4824Y17338D03*
X4819Y17328D03*
X4564Y17193D03*
X4564Y17188D03*
X4414Y17483D03*
X4414Y17488D03*
X4409Y17493D03*
X4409Y17498D03*
X4244Y16863D03*
X5189Y17068D03*
D257*
X5426Y16868D03*
D258*
X5434Y16873D03*
D259*
X5631Y16878D03*
X5751Y18133D03*
D260*
X5659Y16883D03*
X4074Y18363D03*
X3729Y18013D03*
D261*
X3879Y18233D03*
X3884Y18238D03*
X3889Y18243D03*
X3414Y17823D03*
X3409Y17818D03*
X3409Y17413D03*
X3414Y17408D03*
X3479Y17333D03*
X3499Y16933D03*
X3504Y16928D03*
X3509Y16923D03*
X3514Y16918D03*
X4684Y18303D03*
X5899Y17358D03*
X6089Y17513D03*
X6094Y17518D03*
X6099Y17523D03*
X6104Y17528D03*
X6104Y17938D03*
X6099Y17943D03*
X6094Y17948D03*
X5854Y17013D03*
X5849Y17008D03*
X5844Y17003D03*
D262*
X5194Y16983D03*
X5154Y17428D03*
X5154Y17433D03*
X4574Y17083D03*
X4359Y17658D03*
X4359Y17663D03*
X4689Y18263D03*
D263*
X4791Y18253D03*
X4791Y18248D03*
X4976Y17658D03*
X4976Y17653D03*
X5151Y17438D03*
X5191Y16988D03*
X4576Y17088D03*
X4576Y17093D03*
X4361Y17648D03*
X4361Y17653D03*
D264*
X4364Y17643D03*
X4364Y17638D03*
X4574Y17103D03*
X4574Y17098D03*
X5154Y17443D03*
X4974Y17648D03*
X4794Y18238D03*
X4794Y18243D03*
X4329Y18483D03*
X5194Y16993D03*
D265*
X5191Y16998D03*
X5191Y17003D03*
X5151Y17448D03*
X5151Y17453D03*
X4976Y17643D03*
X4371Y17623D03*
X4371Y17618D03*
X4366Y17628D03*
X4366Y17633D03*
D266*
X4376Y17603D03*
X4376Y17598D03*
X4571Y17128D03*
X4571Y17123D03*
X4571Y17118D03*
X5146Y17468D03*
X5191Y17018D03*
X5191Y17013D03*
X4796Y18218D03*
X4796Y18223D03*
D267*
X4814Y18098D03*
X4814Y18093D03*
X4964Y17538D03*
X4964Y17533D03*
X5124Y17593D03*
X5124Y17598D03*
X5189Y17123D03*
X4559Y17263D03*
X4454Y17353D03*
X4449Y17363D03*
X4449Y17368D03*
D268*
X4389Y17558D03*
X4389Y17563D03*
X4569Y17148D03*
X4569Y17143D03*
X4974Y17618D03*
X5144Y17493D03*
X5144Y17488D03*
X4799Y18198D03*
X4799Y18203D03*
D269*
X3676Y17973D03*
X3661Y17963D03*
X3651Y17958D03*
D270*
X3669Y17968D03*
X5764Y18123D03*
D271*
X4666Y18348D03*
X4326Y18463D03*
X3701Y17993D03*
D272*
X3716Y18003D03*
X4091Y18368D03*
X5746Y18138D03*
D273*
X5804Y18073D03*
X5094Y18478D03*
D274*
X5801Y18078D03*
D275*
X5791Y18088D03*
X4326Y18448D03*
D276*
X5789Y18093D03*
D277*
X5741Y18143D03*
D278*
X4661Y18353D03*
D279*
X4659Y18358D03*
D280*
X4651Y18363D03*
X5111Y18488D03*
D281*
X4641Y18368D03*
X4326Y18443D03*
D282*
X4419Y18373D03*
D283*
X4429Y18378D03*
D284*
X4441Y18383D03*
D285*
X4456Y18388D03*
D286*
X4474Y18393D03*
D287*
X5014Y18408D03*
X5019Y18413D03*
D288*
X4326Y18413D03*
D289*
X5024Y18418D03*
D290*
X4326Y18418D03*
D291*
X4326Y18423D03*
X5031Y18428D03*
D292*
X5041Y18438D03*
X4326Y18428D03*
D293*
X4326Y18433D03*
D294*
X4324Y18438D03*
D295*
X5049Y18443D03*
D296*
X5064Y18458D03*
D297*
X4324Y18458D03*
D298*
X5071Y18463D03*
D299*
X5086Y18473D03*
D300*
X5121Y18493D03*
D301*
X5108Y20327D02*
X5108Y20497D01*
X4995Y20611D01*
X4995Y20667D01*
X5108Y20497D02*
X5222Y20611D01*
X5222Y20667D01*
X5363Y20611D02*
X5363Y20554D01*
X5420Y20497D01*
X5590Y20497D01*
X5590Y20327D02*
X5420Y20327D01*
X5363Y20384D01*
X5363Y20440D01*
X5420Y20497D01*
X5363Y20611D02*
X5420Y20667D01*
X5590Y20667D01*
X5590Y20327D01*
X6100Y20384D02*
X6157Y20327D01*
X6270Y20327D01*
X6327Y20384D01*
X6327Y20611D01*
X6270Y20667D01*
X6157Y20667D01*
X6100Y20611D01*
X6468Y20611D02*
X6525Y20667D01*
X6638Y20667D01*
X6695Y20611D01*
X6695Y20384D01*
X6638Y20327D01*
X6525Y20327D01*
X6468Y20384D01*
X4853Y20497D02*
X4627Y20497D01*
X4485Y20554D02*
X4428Y20497D01*
X4315Y20497D01*
X4258Y20440D01*
X4258Y20384D01*
X4315Y20327D01*
X4428Y20327D01*
X4485Y20384D01*
X4485Y20554D02*
X4485Y20611D01*
X4428Y20667D01*
X4315Y20667D01*
X4258Y20611D01*
X4117Y20554D02*
X4003Y20667D01*
X3890Y20554D01*
X3890Y20327D01*
X3890Y20497D02*
X4117Y20497D01*
X4117Y20554D02*
X4117Y20327D01*
X3380Y20384D02*
X3323Y20327D01*
X3210Y20327D01*
X3153Y20384D01*
X3153Y20440D01*
X3210Y20497D01*
X3267Y20497D01*
X3210Y20497D02*
X3153Y20554D01*
X3153Y20611D01*
X3210Y20667D01*
X3323Y20667D01*
X3380Y20611D01*
X3012Y20384D02*
X2955Y20384D01*
X2955Y20327D01*
X3012Y20327D01*
X3012Y20384D01*
X2828Y20384D02*
X2828Y20611D01*
X2771Y20667D01*
X2658Y20667D01*
X2601Y20611D01*
X2828Y20384D01*
X2771Y20327D01*
X2658Y20327D01*
X2601Y20384D01*
X2601Y20611D01*
D302*
X7539Y19719D02*
X7539Y19575D01*
X7729Y19556D01*
X7750Y19492D01*
X7781Y19432D01*
X7660Y19283D01*
X7761Y19182D01*
X7910Y19303D01*
X7970Y19272D01*
X8054Y19476D01*
X8016Y19498D01*
X7984Y19528D01*
X7960Y19565D01*
X7945Y19607D01*
X7941Y19651D01*
X7947Y19695D01*
X7963Y19736D01*
X7989Y19772D01*
X8023Y19800D01*
X8062Y19820D01*
X8105Y19830D01*
X8149Y19830D01*
X8192Y19819D01*
X8231Y19798D01*
X8264Y19769D01*
X8289Y19732D01*
X8304Y19691D01*
X8310Y19647D01*
X8304Y19604D01*
X8289Y19563D01*
X8265Y19527D01*
X8233Y19498D01*
X8196Y19476D01*
X8280Y19272D01*
X8340Y19303D01*
X8489Y19182D01*
X8590Y19283D01*
X8469Y19432D01*
X8500Y19492D01*
X8521Y19556D01*
X8711Y19575D01*
X8711Y19719D01*
X8521Y19738D01*
X8500Y19802D01*
X8469Y19862D01*
X8590Y20011D01*
X8489Y20112D01*
X8340Y19991D01*
X8280Y20022D01*
X8216Y20043D01*
X8197Y20233D01*
X8053Y20233D01*
X8034Y20043D01*
X7970Y20022D01*
X7910Y19991D01*
X7761Y20112D01*
X7660Y20011D01*
X7781Y19862D01*
X7750Y19802D01*
X7729Y19738D01*
X7539Y19719D01*
X7539Y19705D02*
X7951Y19705D01*
X7941Y19647D02*
X7539Y19647D01*
X7539Y19590D02*
X7951Y19590D01*
X7981Y19532D02*
X7737Y19532D01*
X7759Y19475D02*
X8054Y19475D01*
X8030Y19417D02*
X7769Y19417D01*
X7722Y19359D02*
X8006Y19359D01*
X7982Y19302D02*
X7911Y19302D01*
X7909Y19302D02*
X7675Y19302D01*
X7699Y19244D02*
X7838Y19244D01*
X7768Y19187D02*
X7756Y19187D01*
X8244Y19359D02*
X8528Y19359D01*
X8575Y19302D02*
X8341Y19302D01*
X8339Y19302D02*
X8268Y19302D01*
X8220Y19417D02*
X8481Y19417D01*
X8491Y19475D02*
X8196Y19475D01*
X8269Y19532D02*
X8513Y19532D01*
X8711Y19590D02*
X8299Y19590D01*
X8310Y19647D02*
X8711Y19647D01*
X8711Y19705D02*
X8299Y19705D01*
X8268Y19762D02*
X8513Y19762D01*
X8491Y19820D02*
X8188Y19820D01*
X8061Y19820D02*
X7759Y19820D01*
X7768Y19877D02*
X8482Y19877D01*
X8529Y19935D02*
X7721Y19935D01*
X7674Y19993D02*
X7908Y19993D01*
X7912Y19993D02*
X8338Y19993D01*
X8342Y19993D02*
X8576Y19993D01*
X8551Y20050D02*
X8412Y20050D01*
X8483Y20108D02*
X8493Y20108D01*
X8210Y20108D02*
X8040Y20108D01*
X8046Y20165D02*
X8204Y20165D01*
X8198Y20223D02*
X8052Y20223D01*
X8034Y20050D02*
X8216Y20050D01*
X7982Y19762D02*
X7737Y19762D01*
X7699Y20050D02*
X7838Y20050D01*
X7767Y20108D02*
X7757Y20108D01*
X8412Y19244D02*
X8551Y19244D01*
X8494Y19187D02*
X8482Y19187D01*
D303*
X10101Y12922D02*
X10099Y12856D01*
X10101Y12790D01*
X10107Y12724D01*
X10116Y12658D01*
X10129Y12593D01*
X10146Y12528D01*
X10166Y12465D01*
X10190Y12403D01*
X10217Y12343D01*
X10248Y12284D01*
X10282Y12226D01*
X10319Y12171D01*
X10359Y12118D01*
X10402Y12068D01*
X10447Y12019D01*
X10496Y11974D01*
X10546Y11931D01*
X10599Y11891D01*
X10654Y11854D01*
X10712Y11820D01*
X10771Y11789D01*
X10831Y11762D01*
X10893Y11738D01*
X10956Y11718D01*
X11021Y11701D01*
X11086Y11688D01*
X11152Y11679D01*
X11218Y11673D01*
X11284Y11671D01*
X11350Y11673D01*
X11350Y11672D02*
X18100Y11672D01*
X18168Y11674D01*
X18235Y11679D01*
X18302Y11688D01*
X18369Y11701D01*
X18434Y11718D01*
X18499Y11737D01*
X18563Y11761D01*
X18625Y11788D01*
X18686Y11818D01*
X18744Y11851D01*
X18801Y11887D01*
X18856Y11927D01*
X18909Y11969D01*
X18960Y12015D01*
X19007Y12062D01*
X19053Y12113D01*
X19095Y12166D01*
X19135Y12221D01*
X19171Y12278D01*
X19204Y12336D01*
X19234Y12397D01*
X19261Y12459D01*
X19285Y12523D01*
X19304Y12588D01*
X19321Y12653D01*
X19334Y12720D01*
X19343Y12787D01*
X19348Y12854D01*
X19350Y12922D01*
X19350Y19672D01*
X19348Y19740D01*
X19343Y19807D01*
X19334Y19874D01*
X19321Y19941D01*
X19304Y20006D01*
X19285Y20071D01*
X19261Y20135D01*
X19234Y20197D01*
X19204Y20258D01*
X19171Y20316D01*
X19135Y20373D01*
X19095Y20428D01*
X19053Y20481D01*
X19007Y20532D01*
X18960Y20579D01*
X18909Y20625D01*
X18856Y20667D01*
X18801Y20707D01*
X18744Y20743D01*
X18686Y20776D01*
X18625Y20806D01*
X18563Y20833D01*
X18499Y20857D01*
X18434Y20876D01*
X18369Y20893D01*
X18302Y20906D01*
X18235Y20915D01*
X18168Y20920D01*
X18100Y20922D01*
X11350Y20922D01*
X10725Y19672D02*
X10727Y19722D01*
X10733Y19771D01*
X10743Y19820D01*
X10756Y19867D01*
X10774Y19914D01*
X10795Y19959D01*
X10819Y20002D01*
X10847Y20043D01*
X10878Y20082D01*
X10912Y20118D01*
X10949Y20152D01*
X10989Y20182D01*
X11030Y20209D01*
X11074Y20233D01*
X11119Y20253D01*
X11166Y20269D01*
X11214Y20282D01*
X11263Y20291D01*
X11313Y20296D01*
X11362Y20297D01*
X11412Y20294D01*
X11461Y20287D01*
X11510Y20276D01*
X11557Y20262D01*
X11603Y20243D01*
X11648Y20221D01*
X11691Y20196D01*
X11731Y20167D01*
X11769Y20135D01*
X11805Y20101D01*
X11838Y20063D01*
X11867Y20023D01*
X11893Y19981D01*
X11916Y19937D01*
X11935Y19891D01*
X11951Y19844D01*
X11963Y19795D01*
X11971Y19746D01*
X11975Y19697D01*
X11975Y19647D01*
X11971Y19598D01*
X11963Y19549D01*
X11951Y19500D01*
X11935Y19453D01*
X11916Y19407D01*
X11893Y19363D01*
X11867Y19321D01*
X11838Y19281D01*
X11805Y19243D01*
X11769Y19209D01*
X11731Y19177D01*
X11691Y19148D01*
X11648Y19123D01*
X11603Y19101D01*
X11557Y19082D01*
X11510Y19068D01*
X11461Y19057D01*
X11412Y19050D01*
X11362Y19047D01*
X11313Y19048D01*
X11263Y19053D01*
X11214Y19062D01*
X11166Y19075D01*
X11119Y19091D01*
X11074Y19111D01*
X11030Y19135D01*
X10989Y19162D01*
X10949Y19192D01*
X10912Y19226D01*
X10878Y19262D01*
X10847Y19301D01*
X10819Y19342D01*
X10795Y19385D01*
X10774Y19430D01*
X10756Y19477D01*
X10743Y19524D01*
X10733Y19573D01*
X10727Y19622D01*
X10725Y19672D01*
X10100Y19672D02*
X10100Y12922D01*
X10725Y12922D02*
X10727Y12972D01*
X10733Y13021D01*
X10743Y13070D01*
X10756Y13117D01*
X10774Y13164D01*
X10795Y13209D01*
X10819Y13252D01*
X10847Y13293D01*
X10878Y13332D01*
X10912Y13368D01*
X10949Y13402D01*
X10989Y13432D01*
X11030Y13459D01*
X11074Y13483D01*
X11119Y13503D01*
X11166Y13519D01*
X11214Y13532D01*
X11263Y13541D01*
X11313Y13546D01*
X11362Y13547D01*
X11412Y13544D01*
X11461Y13537D01*
X11510Y13526D01*
X11557Y13512D01*
X11603Y13493D01*
X11648Y13471D01*
X11691Y13446D01*
X11731Y13417D01*
X11769Y13385D01*
X11805Y13351D01*
X11838Y13313D01*
X11867Y13273D01*
X11893Y13231D01*
X11916Y13187D01*
X11935Y13141D01*
X11951Y13094D01*
X11963Y13045D01*
X11971Y12996D01*
X11975Y12947D01*
X11975Y12897D01*
X11971Y12848D01*
X11963Y12799D01*
X11951Y12750D01*
X11935Y12703D01*
X11916Y12657D01*
X11893Y12613D01*
X11867Y12571D01*
X11838Y12531D01*
X11805Y12493D01*
X11769Y12459D01*
X11731Y12427D01*
X11691Y12398D01*
X11648Y12373D01*
X11603Y12351D01*
X11557Y12332D01*
X11510Y12318D01*
X11461Y12307D01*
X11412Y12300D01*
X11362Y12297D01*
X11313Y12298D01*
X11263Y12303D01*
X11214Y12312D01*
X11166Y12325D01*
X11119Y12341D01*
X11074Y12361D01*
X11030Y12385D01*
X10989Y12412D01*
X10949Y12442D01*
X10912Y12476D01*
X10878Y12512D01*
X10847Y12551D01*
X10819Y12592D01*
X10795Y12635D01*
X10774Y12680D01*
X10756Y12727D01*
X10743Y12774D01*
X10733Y12823D01*
X10727Y12872D01*
X10725Y12922D01*
X10100Y19672D02*
X10102Y19740D01*
X10107Y19807D01*
X10116Y19874D01*
X10129Y19941D01*
X10146Y20006D01*
X10165Y20071D01*
X10189Y20135D01*
X10216Y20197D01*
X10246Y20258D01*
X10279Y20316D01*
X10315Y20373D01*
X10355Y20428D01*
X10397Y20481D01*
X10443Y20532D01*
X10490Y20579D01*
X10541Y20625D01*
X10594Y20667D01*
X10649Y20707D01*
X10706Y20743D01*
X10764Y20776D01*
X10825Y20806D01*
X10887Y20833D01*
X10951Y20857D01*
X11016Y20876D01*
X11081Y20893D01*
X11148Y20906D01*
X11215Y20915D01*
X11282Y20920D01*
X11350Y20922D01*
X17475Y19672D02*
X17477Y19722D01*
X17483Y19771D01*
X17493Y19820D01*
X17506Y19867D01*
X17524Y19914D01*
X17545Y19959D01*
X17569Y20002D01*
X17597Y20043D01*
X17628Y20082D01*
X17662Y20118D01*
X17699Y20152D01*
X17739Y20182D01*
X17780Y20209D01*
X17824Y20233D01*
X17869Y20253D01*
X17916Y20269D01*
X17964Y20282D01*
X18013Y20291D01*
X18063Y20296D01*
X18112Y20297D01*
X18162Y20294D01*
X18211Y20287D01*
X18260Y20276D01*
X18307Y20262D01*
X18353Y20243D01*
X18398Y20221D01*
X18441Y20196D01*
X18481Y20167D01*
X18519Y20135D01*
X18555Y20101D01*
X18588Y20063D01*
X18617Y20023D01*
X18643Y19981D01*
X18666Y19937D01*
X18685Y19891D01*
X18701Y19844D01*
X18713Y19795D01*
X18721Y19746D01*
X18725Y19697D01*
X18725Y19647D01*
X18721Y19598D01*
X18713Y19549D01*
X18701Y19500D01*
X18685Y19453D01*
X18666Y19407D01*
X18643Y19363D01*
X18617Y19321D01*
X18588Y19281D01*
X18555Y19243D01*
X18519Y19209D01*
X18481Y19177D01*
X18441Y19148D01*
X18398Y19123D01*
X18353Y19101D01*
X18307Y19082D01*
X18260Y19068D01*
X18211Y19057D01*
X18162Y19050D01*
X18112Y19047D01*
X18063Y19048D01*
X18013Y19053D01*
X17964Y19062D01*
X17916Y19075D01*
X17869Y19091D01*
X17824Y19111D01*
X17780Y19135D01*
X17739Y19162D01*
X17699Y19192D01*
X17662Y19226D01*
X17628Y19262D01*
X17597Y19301D01*
X17569Y19342D01*
X17545Y19385D01*
X17524Y19430D01*
X17506Y19477D01*
X17493Y19524D01*
X17483Y19573D01*
X17477Y19622D01*
X17475Y19672D01*
X17475Y12922D02*
X17477Y12972D01*
X17483Y13021D01*
X17493Y13070D01*
X17506Y13117D01*
X17524Y13164D01*
X17545Y13209D01*
X17569Y13252D01*
X17597Y13293D01*
X17628Y13332D01*
X17662Y13368D01*
X17699Y13402D01*
X17739Y13432D01*
X17780Y13459D01*
X17824Y13483D01*
X17869Y13503D01*
X17916Y13519D01*
X17964Y13532D01*
X18013Y13541D01*
X18063Y13546D01*
X18112Y13547D01*
X18162Y13544D01*
X18211Y13537D01*
X18260Y13526D01*
X18307Y13512D01*
X18353Y13493D01*
X18398Y13471D01*
X18441Y13446D01*
X18481Y13417D01*
X18519Y13385D01*
X18555Y13351D01*
X18588Y13313D01*
X18617Y13273D01*
X18643Y13231D01*
X18666Y13187D01*
X18685Y13141D01*
X18701Y13094D01*
X18713Y13045D01*
X18721Y12996D01*
X18725Y12947D01*
X18725Y12897D01*
X18721Y12848D01*
X18713Y12799D01*
X18701Y12750D01*
X18685Y12703D01*
X18666Y12657D01*
X18643Y12613D01*
X18617Y12571D01*
X18588Y12531D01*
X18555Y12493D01*
X18519Y12459D01*
X18481Y12427D01*
X18441Y12398D01*
X18398Y12373D01*
X18353Y12351D01*
X18307Y12332D01*
X18260Y12318D01*
X18211Y12307D01*
X18162Y12300D01*
X18112Y12297D01*
X18063Y12298D01*
X18013Y12303D01*
X17964Y12312D01*
X17916Y12325D01*
X17869Y12341D01*
X17824Y12361D01*
X17780Y12385D01*
X17739Y12412D01*
X17699Y12442D01*
X17662Y12476D01*
X17628Y12512D01*
X17597Y12551D01*
X17569Y12592D01*
X17545Y12635D01*
X17524Y12680D01*
X17506Y12727D01*
X17493Y12774D01*
X17483Y12823D01*
X17477Y12872D01*
X17475Y12922D01*
D304*
X15785Y14237D02*
X15465Y14237D01*
X15465Y14457D01*
X15465Y15137D02*
X15465Y15357D01*
X15785Y15357D01*
X16482Y14986D02*
X16482Y14759D01*
X16538Y14702D01*
X16708Y14702D01*
X16708Y15042D01*
X16538Y15042D01*
X16482Y14986D01*
X16850Y15042D02*
X16850Y14702D01*
X17077Y15042D01*
X17077Y14702D01*
X17218Y14759D02*
X17218Y14872D01*
X17332Y14872D01*
X17445Y14759D02*
X17388Y14702D01*
X17275Y14702D01*
X17218Y14759D01*
X17218Y14986D02*
X17275Y15042D01*
X17388Y15042D01*
X17445Y14986D01*
X17445Y14759D01*
X17332Y15702D02*
X17218Y15815D01*
X17218Y16042D01*
X17077Y15986D02*
X17077Y15759D01*
X17020Y15702D01*
X16907Y15702D01*
X16850Y15759D01*
X16708Y15759D02*
X16708Y15986D01*
X16652Y16042D01*
X16538Y16042D01*
X16482Y15986D01*
X16482Y15759D02*
X16538Y15702D01*
X16652Y15702D01*
X16708Y15759D01*
X16850Y15986D02*
X16907Y16042D01*
X17020Y16042D01*
X17077Y15986D01*
X17332Y15702D02*
X17445Y15815D01*
X17445Y16042D01*
X17388Y16702D02*
X17275Y16702D01*
X17218Y16759D01*
X17218Y16815D01*
X17275Y16872D01*
X17388Y16872D01*
X17445Y16929D01*
X17445Y16986D01*
X17388Y17042D01*
X17275Y17042D01*
X17218Y16986D01*
X17077Y16986D02*
X17077Y16759D01*
X17020Y16702D01*
X16907Y16702D01*
X16850Y16759D01*
X16708Y16702D02*
X16482Y16702D01*
X16708Y16702D02*
X16708Y17042D01*
X16850Y16986D02*
X16907Y17042D01*
X17020Y17042D01*
X17077Y16986D01*
X17388Y16702D02*
X17445Y16759D01*
X17388Y17702D02*
X17275Y17702D01*
X17218Y17759D01*
X17218Y17815D01*
X17275Y17872D01*
X17388Y17872D01*
X17445Y17929D01*
X17445Y17986D01*
X17388Y18042D01*
X17275Y18042D01*
X17218Y17986D01*
X17077Y18042D02*
X16907Y18042D01*
X16850Y17986D01*
X16850Y17759D01*
X16907Y17702D01*
X17077Y17702D01*
X17077Y18042D01*
X16708Y17929D02*
X16708Y17702D01*
X16708Y17872D02*
X16482Y17872D01*
X16482Y17929D02*
X16482Y17702D01*
X16482Y17929D02*
X16595Y18042D01*
X16708Y17929D01*
X16195Y17824D02*
X16195Y17597D01*
X16139Y17456D02*
X16082Y17456D01*
X16025Y17399D01*
X16025Y17229D01*
X16025Y17399D02*
X15968Y17456D01*
X15912Y17456D01*
X15855Y17399D01*
X15855Y17229D01*
X16195Y17229D01*
X16195Y17399D01*
X16139Y17456D01*
X15912Y17597D02*
X15855Y17597D01*
X15912Y17597D02*
X16139Y17824D01*
X16195Y17824D01*
X16082Y17965D02*
X16195Y18079D01*
X15855Y18079D01*
X15855Y18192D02*
X15855Y17965D01*
X15912Y18334D02*
X15855Y18390D01*
X15855Y18504D01*
X15912Y18561D01*
X16025Y18561D01*
X16082Y18504D01*
X16082Y18447D01*
X16025Y18334D01*
X16195Y18334D01*
X16195Y18561D01*
X16110Y19237D02*
X15790Y19237D01*
X16110Y19237D02*
X16110Y19457D01*
X16110Y20137D02*
X16110Y20357D01*
X15790Y20357D01*
X13860Y20357D02*
X13860Y20137D01*
X13860Y20357D02*
X13540Y20357D01*
X13860Y19457D02*
X13860Y19237D01*
X13540Y19237D01*
X12195Y18379D02*
X12195Y18265D01*
X12139Y18209D01*
X11912Y18209D01*
X12139Y18436D01*
X11912Y18436D01*
X11855Y18379D01*
X11855Y18265D01*
X11912Y18209D01*
X11912Y18081D02*
X11855Y18081D01*
X11855Y18025D01*
X11912Y18025D01*
X11912Y18081D01*
X11912Y17883D02*
X11855Y17826D01*
X11855Y17713D01*
X11912Y17656D01*
X12025Y17770D02*
X12025Y17826D01*
X11968Y17883D01*
X11912Y17883D01*
X12025Y17826D02*
X12082Y17883D01*
X12139Y17883D01*
X12195Y17826D01*
X12195Y17713D01*
X12139Y17656D01*
X12082Y17146D02*
X11855Y17146D01*
X12025Y17146D02*
X12025Y16920D01*
X12082Y16920D02*
X12195Y17033D01*
X12082Y17146D01*
X12082Y16920D02*
X11855Y16920D01*
X11912Y16778D02*
X11855Y16721D01*
X11855Y16608D01*
X11912Y16551D01*
X12025Y16608D02*
X12025Y16721D01*
X11968Y16778D01*
X11912Y16778D01*
X12025Y16608D02*
X12082Y16551D01*
X12139Y16551D01*
X12195Y16608D01*
X12195Y16721D01*
X12139Y16778D01*
X12025Y16410D02*
X12025Y16183D01*
X12139Y16041D02*
X12195Y16041D01*
X12139Y16041D02*
X12025Y15928D01*
X11855Y15928D01*
X12025Y15928D02*
X12139Y15815D01*
X12195Y15815D01*
X12139Y15673D02*
X12082Y15673D01*
X12025Y15616D01*
X12025Y15446D01*
X11855Y15446D02*
X12195Y15446D01*
X12195Y15616D01*
X12139Y15673D01*
X12025Y15616D02*
X11968Y15673D01*
X11912Y15673D01*
X11855Y15616D01*
X11855Y15446D01*
X11912Y14937D02*
X11855Y14880D01*
X11855Y14766D01*
X11912Y14710D01*
X12139Y14710D01*
X12195Y14766D01*
X12195Y14880D01*
X12139Y14937D01*
X12139Y14568D02*
X12195Y14512D01*
X12195Y14398D01*
X12139Y14341D01*
X11912Y14341D01*
X11855Y14398D01*
X11855Y14512D01*
X11912Y14568D01*
X13340Y14457D02*
X13340Y14237D01*
X13660Y14237D01*
X13340Y15137D02*
X13340Y15357D01*
X13660Y15357D01*
X13600Y17047D02*
X13630Y17049D01*
X13660Y17054D01*
X13689Y17063D01*
X13716Y17076D01*
X13742Y17091D01*
X13766Y17110D01*
X13787Y17131D01*
X13806Y17155D01*
X13821Y17181D01*
X13834Y17208D01*
X13843Y17237D01*
X13848Y17267D01*
X13850Y17297D01*
X13848Y17327D01*
X13843Y17357D01*
X13834Y17386D01*
X13821Y17413D01*
X13806Y17439D01*
X13787Y17463D01*
X13766Y17484D01*
X13742Y17503D01*
X13716Y17518D01*
X13689Y17531D01*
X13660Y17540D01*
X13630Y17545D01*
X13600Y17547D01*
X12195Y18379D02*
X12139Y18436D01*
X15855Y17087D02*
X15855Y16860D01*
X16082Y17087D01*
X16139Y17087D01*
X16195Y17031D01*
X16195Y16917D01*
X16139Y16860D01*
X16139Y16719D02*
X16082Y16719D01*
X16025Y16662D01*
X16025Y16549D01*
X16082Y16492D01*
X16139Y16492D01*
X16195Y16549D01*
X16195Y16662D01*
X16139Y16719D01*
X16025Y16662D02*
X15968Y16719D01*
X15912Y16719D01*
X15855Y16662D01*
X15855Y16549D01*
X15912Y16492D01*
X15968Y16492D01*
X16025Y16549D01*
X16025Y16351D02*
X15968Y16294D01*
X15968Y16124D01*
X15855Y16124D02*
X16195Y16124D01*
X16195Y16294D01*
X16139Y16351D01*
X16025Y16351D01*
X17388Y17702D02*
X17445Y17759D01*
D305*
X14786Y13518D03*
X14786Y13513D03*
X15101Y12978D03*
X15101Y12973D03*
X14941Y12953D03*
X14941Y12948D03*
X15161Y12503D03*
X15131Y12308D03*
X14756Y12408D03*
X14741Y12398D03*
X14736Y12393D03*
X14726Y12388D03*
X14721Y12383D03*
X14711Y12378D03*
X14706Y12373D03*
X14701Y12368D03*
X14691Y12363D03*
X14686Y12358D03*
X14671Y12348D03*
X14656Y12338D03*
X14651Y12333D03*
X14636Y12323D03*
X14591Y12293D03*
X14576Y12283D03*
X14571Y12278D03*
X14566Y12273D03*
X14551Y12263D03*
X14656Y11988D03*
X14536Y12638D03*
X14416Y12793D03*
X14416Y12798D03*
X14411Y12803D03*
X14411Y12808D03*
D306*
X13751Y13443D03*
X13466Y13293D03*
X13551Y12263D03*
X14656Y11993D03*
X15016Y12158D03*
X15746Y12338D03*
X16001Y12858D03*
X16006Y12863D03*
X16006Y13403D03*
X15066Y13908D03*
X14656Y13713D03*
D307*
X15066Y13903D03*
X15911Y13453D03*
X14656Y11998D03*
X14381Y12113D03*
X13716Y13423D03*
D308*
X14644Y13743D03*
X15064Y13898D03*
X13684Y12203D03*
X14654Y12003D03*
D309*
X14654Y12008D03*
X13659Y13378D03*
D310*
X14656Y12013D03*
X15751Y13508D03*
D311*
X15761Y13498D03*
X14656Y12018D03*
D312*
X14656Y12023D03*
X15771Y13483D03*
D313*
X15054Y13868D03*
X14654Y12028D03*
D314*
X14656Y12033D03*
D315*
X14654Y12038D03*
X15029Y13848D03*
D316*
X15011Y13833D03*
X14656Y12043D03*
D317*
X14656Y12048D03*
X15001Y13823D03*
D318*
X14654Y12053D03*
D319*
X14654Y12058D03*
X15299Y12203D03*
D320*
X15329Y12218D03*
X14654Y12063D03*
D321*
X14654Y12068D03*
X15354Y12233D03*
D322*
X15384Y12253D03*
X14654Y12073D03*
D323*
X14654Y12078D03*
X15389Y12258D03*
X15394Y12263D03*
D324*
X14654Y12083D03*
D325*
X14654Y12088D03*
D326*
X14471Y12198D03*
X14536Y12613D03*
X14401Y12843D03*
X14396Y12853D03*
X14396Y12858D03*
X14941Y12973D03*
X15106Y12948D03*
X15161Y12478D03*
X15126Y12313D03*
X13921Y12088D03*
X14781Y13543D03*
D327*
X14656Y12093D03*
D328*
X14736Y12423D03*
X13921Y12093D03*
X13446Y12748D03*
X13441Y12753D03*
X13436Y12763D03*
X13431Y12768D03*
X13426Y12773D03*
X13421Y12778D03*
X13416Y13253D03*
X13421Y13258D03*
X13426Y13263D03*
X13761Y13448D03*
X13886Y13668D03*
X13891Y13673D03*
X13896Y13678D03*
X15786Y12368D03*
X15791Y12373D03*
X15876Y12763D03*
X16036Y12888D03*
X16041Y12893D03*
X16041Y13373D03*
X16036Y13378D03*
D329*
X14869Y12098D03*
X13919Y12108D03*
X13674Y13388D03*
D330*
X13666Y13383D03*
X13616Y13353D03*
X14441Y12098D03*
X15731Y13528D03*
X15851Y13468D03*
X14851Y13803D03*
D331*
X14651Y13728D03*
X14006Y13748D03*
X13726Y13428D03*
X13621Y12223D03*
X13921Y12098D03*
X15676Y12298D03*
D332*
X14899Y12103D03*
X14409Y12103D03*
X14819Y13798D03*
D333*
X15876Y13463D03*
X13921Y12103D03*
X13586Y13348D03*
X13696Y13408D03*
D334*
X13709Y13418D03*
X13569Y13343D03*
X14394Y12108D03*
X14914Y12108D03*
X15894Y13458D03*
D335*
X15699Y13553D03*
X14729Y12448D03*
X14929Y12113D03*
X15184Y12278D03*
X15659Y12293D03*
D336*
X15746Y13513D03*
X13921Y12113D03*
D337*
X14184Y12213D03*
X14364Y12118D03*
X14719Y12438D03*
X14944Y12118D03*
X15924Y13448D03*
X13539Y13333D03*
D338*
X13919Y12118D03*
D339*
X14354Y12123D03*
X14719Y12433D03*
X14954Y12123D03*
X15684Y12303D03*
X15934Y13443D03*
X13529Y13328D03*
D340*
X13919Y12123D03*
X15079Y13883D03*
D341*
X13984Y13738D03*
X13519Y13323D03*
X14344Y12128D03*
X14964Y12128D03*
X15694Y12308D03*
X15909Y12798D03*
X15914Y12803D03*
X15949Y12828D03*
D342*
X13919Y12128D03*
D343*
X14334Y12133D03*
X14974Y12133D03*
X15379Y12173D03*
X15714Y12318D03*
X15899Y12788D03*
X15904Y12793D03*
X15964Y13428D03*
X13974Y13733D03*
X13499Y13313D03*
D344*
X13919Y12133D03*
D345*
X13591Y12238D03*
X13581Y12243D03*
X13491Y13308D03*
X13741Y13438D03*
X13966Y13728D03*
X14981Y12138D03*
X14991Y12143D03*
X15966Y12838D03*
X15976Y12843D03*
X15976Y13423D03*
D346*
X15956Y13433D03*
X15956Y12833D03*
X15706Y12313D03*
X14716Y12453D03*
X14326Y12138D03*
X14191Y12218D03*
X13601Y12233D03*
X13506Y13318D03*
X14651Y13723D03*
D347*
X15034Y13853D03*
X13919Y12138D03*
D348*
X14041Y12143D03*
D349*
X13566Y12253D03*
X13481Y13303D03*
X13951Y13718D03*
X13956Y13723D03*
X15001Y12148D03*
X15731Y12328D03*
X15991Y13413D03*
D350*
X15124Y12863D03*
X15124Y12858D03*
X14949Y13038D03*
X14549Y12513D03*
X14549Y12508D03*
X14444Y12148D03*
X15169Y12408D03*
X14349Y13008D03*
X14349Y13013D03*
X14769Y13628D03*
X14769Y13633D03*
D351*
X14019Y12148D03*
X14009Y12153D03*
D352*
X14199Y12223D03*
X14704Y12458D03*
X15009Y12153D03*
X15739Y12333D03*
X15889Y12778D03*
X15994Y12853D03*
X15999Y13408D03*
X13944Y13713D03*
X13474Y13298D03*
X13559Y12258D03*
D353*
X14359Y12978D03*
X14354Y12988D03*
X14354Y12993D03*
X14949Y13028D03*
X14949Y13033D03*
X15124Y12873D03*
X15124Y12323D03*
X14449Y12153D03*
X14774Y13613D03*
D354*
X14771Y13608D03*
X14946Y13023D03*
X15121Y12883D03*
X15121Y12878D03*
X15166Y12428D03*
X15166Y12423D03*
X14546Y12533D03*
X14546Y12538D03*
X14451Y12158D03*
X14221Y12268D03*
X14361Y12968D03*
X14361Y12973D03*
X14356Y12983D03*
D355*
X13971Y12173D03*
X13981Y12168D03*
X14001Y12158D03*
D356*
X13544Y12268D03*
X13539Y12273D03*
X13459Y13288D03*
X13929Y13703D03*
X13934Y13708D03*
X15029Y12168D03*
X15024Y12163D03*
X15754Y12343D03*
X15884Y12773D03*
X16014Y12868D03*
X16014Y13398D03*
D357*
X15116Y12898D03*
X14946Y13013D03*
X14366Y12953D03*
X14366Y12948D03*
X14776Y13593D03*
X15166Y12443D03*
X15166Y12438D03*
X15166Y12433D03*
X14451Y12163D03*
D358*
X13989Y12163D03*
X13964Y12178D03*
X13954Y12183D03*
X13949Y12188D03*
X13939Y12193D03*
D359*
X13459Y12353D03*
X13454Y12358D03*
X13454Y12363D03*
X13449Y12368D03*
X13444Y12693D03*
X13449Y12703D03*
X13454Y12708D03*
X13454Y12713D03*
X13459Y12723D03*
X13459Y12728D03*
X13359Y12848D03*
X13354Y12853D03*
X13349Y12863D03*
X13354Y13178D03*
X13359Y13188D03*
X13364Y13193D03*
X13774Y13453D03*
X13829Y13598D03*
X13834Y13603D03*
X13834Y13608D03*
X13839Y13613D03*
X13844Y13618D03*
X14504Y12248D03*
X15379Y12168D03*
X15844Y12433D03*
X15849Y12438D03*
X15849Y12443D03*
X15854Y12448D03*
X15859Y12458D03*
X15869Y12753D03*
X16094Y12948D03*
X16099Y12958D03*
X16104Y12963D03*
X16109Y12968D03*
X16114Y12978D03*
X16114Y13288D03*
X16109Y13298D03*
X16104Y13303D03*
X16099Y13308D03*
X16094Y13318D03*
D360*
X15234Y13598D03*
X15239Y13628D03*
X15244Y13658D03*
X15249Y13688D03*
X15254Y13713D03*
X15254Y13718D03*
X15259Y13743D03*
X15259Y13748D03*
X15264Y13773D03*
X15264Y13778D03*
X15284Y13898D03*
X15284Y13903D03*
X14774Y13588D03*
X14944Y13008D03*
X15119Y12903D03*
X14544Y12558D03*
X14544Y12553D03*
X14454Y12168D03*
X14374Y12928D03*
X14374Y12933D03*
X14369Y12938D03*
X14369Y12943D03*
D361*
X14201Y12228D03*
X13531Y12278D03*
X13446Y13278D03*
X13451Y13283D03*
X13921Y13698D03*
X15196Y13803D03*
X15666Y13568D03*
X16021Y13393D03*
X16026Y13388D03*
X16026Y12878D03*
X16021Y12873D03*
X15881Y12768D03*
X15766Y12353D03*
X15761Y12348D03*
X15156Y12288D03*
X15036Y12173D03*
D362*
X15166Y12448D03*
X15166Y12453D03*
X15206Y12558D03*
X15216Y12583D03*
X15226Y12608D03*
X15236Y12633D03*
X15261Y12698D03*
X15271Y12723D03*
X15281Y12748D03*
X15291Y12773D03*
X15316Y12838D03*
X15326Y12863D03*
X15336Y12888D03*
X15346Y12913D03*
X15371Y12978D03*
X15381Y13003D03*
X15391Y13028D03*
X15401Y13053D03*
X15436Y13143D03*
X15446Y13168D03*
X15456Y13193D03*
X15466Y13218D03*
X15491Y13283D03*
X15501Y13308D03*
X15511Y13333D03*
X15521Y13358D03*
X15531Y13383D03*
X15541Y13408D03*
X15546Y13423D03*
X15556Y13448D03*
X15231Y13573D03*
X15231Y13578D03*
X15231Y13583D03*
X15231Y13588D03*
X15231Y13593D03*
X15236Y13603D03*
X15236Y13608D03*
X15236Y13613D03*
X15236Y13618D03*
X15236Y13623D03*
X15241Y13633D03*
X15241Y13638D03*
X15241Y13643D03*
X15241Y13648D03*
X15241Y13653D03*
X15246Y13663D03*
X15246Y13668D03*
X15246Y13673D03*
X15246Y13678D03*
X15246Y13683D03*
X15251Y13693D03*
X15251Y13698D03*
X15251Y13703D03*
X15251Y13708D03*
X15256Y13723D03*
X15256Y13728D03*
X15256Y13733D03*
X15256Y13738D03*
X15261Y13753D03*
X15261Y13758D03*
X15261Y13763D03*
X15261Y13768D03*
X15286Y13908D03*
X15286Y13913D03*
X15226Y13568D03*
X15226Y13563D03*
X15226Y13558D03*
X15226Y13553D03*
X15226Y13548D03*
X15226Y13543D03*
X15221Y13538D03*
X15221Y13533D03*
X15221Y13528D03*
X15221Y13523D03*
X15221Y13518D03*
X15221Y13513D03*
X15216Y13508D03*
X15216Y13503D03*
X15216Y13498D03*
X15216Y13493D03*
X15216Y13488D03*
X15216Y13483D03*
X15211Y13473D03*
X15211Y13468D03*
X15211Y13463D03*
X15211Y13458D03*
X15211Y13453D03*
X15206Y13443D03*
X15206Y13438D03*
X15206Y13433D03*
X15206Y13428D03*
X15201Y13418D03*
X15201Y13413D03*
X15201Y13408D03*
X15201Y13403D03*
X15201Y13398D03*
X15196Y13388D03*
X15196Y13383D03*
X15196Y13378D03*
X15196Y13373D03*
X15196Y13368D03*
X15191Y13358D03*
X15191Y13353D03*
X15191Y13348D03*
X15191Y13343D03*
X15191Y13338D03*
X15186Y13328D03*
X15186Y13323D03*
X15186Y13318D03*
X15186Y13313D03*
X15181Y13303D03*
X15181Y13298D03*
X15181Y13293D03*
X15181Y13288D03*
X15181Y13283D03*
X15176Y13273D03*
X15176Y13268D03*
X15176Y13263D03*
X15176Y13258D03*
X15176Y13253D03*
X15171Y13243D03*
X15171Y13238D03*
X15171Y13233D03*
X15171Y13228D03*
X15171Y13223D03*
X15166Y13213D03*
X15166Y13208D03*
X15166Y13203D03*
X15166Y13198D03*
X15166Y13193D03*
X15161Y13183D03*
X15161Y13178D03*
X15161Y13173D03*
X15161Y13168D03*
X15156Y13158D03*
X15156Y13153D03*
X15156Y13148D03*
X15156Y13143D03*
X15156Y13138D03*
X15151Y13128D03*
X15151Y13123D03*
X15151Y13118D03*
X15151Y13113D03*
X15151Y13108D03*
X15146Y13098D03*
X15146Y13093D03*
X15146Y13088D03*
X15146Y13083D03*
X15146Y13078D03*
X15141Y13068D03*
X15141Y13063D03*
X15141Y13058D03*
X15141Y13053D03*
X15136Y13043D03*
X15136Y13038D03*
X15136Y13033D03*
X15136Y13028D03*
X15136Y13023D03*
X15116Y12908D03*
X14996Y12868D03*
X15006Y12843D03*
X15016Y12818D03*
X14986Y12893D03*
X14946Y13003D03*
X14661Y13078D03*
X14656Y13058D03*
X14651Y13038D03*
X14646Y13013D03*
X14641Y12993D03*
X14636Y12973D03*
X14631Y12948D03*
X14626Y12928D03*
X14621Y12908D03*
X14616Y12883D03*
X14611Y12863D03*
X14606Y12843D03*
X14601Y12818D03*
X14596Y12798D03*
X14591Y12778D03*
X14586Y12753D03*
X14581Y12738D03*
X14581Y12733D03*
X14576Y12723D03*
X14576Y12718D03*
X14576Y12713D03*
X14571Y12698D03*
X14571Y12693D03*
X14571Y12688D03*
X14566Y12678D03*
X14566Y12673D03*
X14541Y12568D03*
X14541Y12563D03*
X14426Y12503D03*
X14426Y12498D03*
X14426Y12493D03*
X14426Y12488D03*
X14426Y12483D03*
X14426Y12478D03*
X14426Y12473D03*
X14426Y12468D03*
X14426Y12463D03*
X14431Y12458D03*
X14431Y12453D03*
X14431Y12448D03*
X14431Y12443D03*
X14431Y12438D03*
X14431Y12433D03*
X14431Y12428D03*
X14431Y12423D03*
X14431Y12418D03*
X14431Y12413D03*
X14436Y12408D03*
X14436Y12403D03*
X14436Y12398D03*
X14436Y12393D03*
X14436Y12388D03*
X14436Y12383D03*
X14436Y12378D03*
X14436Y12373D03*
X14436Y12368D03*
X14436Y12363D03*
X14441Y12358D03*
X14441Y12353D03*
X14441Y12348D03*
X14441Y12343D03*
X14441Y12338D03*
X14441Y12333D03*
X14441Y12328D03*
X14441Y12323D03*
X14441Y12318D03*
X14441Y12313D03*
X14446Y12308D03*
X14446Y12303D03*
X14446Y12298D03*
X14446Y12293D03*
X14446Y12288D03*
X14446Y12283D03*
X14446Y12278D03*
X14446Y12273D03*
X14446Y12268D03*
X14446Y12263D03*
X14451Y12258D03*
X14456Y12173D03*
X14421Y12513D03*
X14421Y12518D03*
X14421Y12523D03*
X14421Y12528D03*
X14416Y12563D03*
X14416Y12568D03*
X14416Y12573D03*
X14411Y12613D03*
X14411Y12618D03*
X14406Y12643D03*
X14406Y12648D03*
X14406Y12653D03*
X14406Y12658D03*
X14406Y12663D03*
X14401Y12673D03*
X14401Y12678D03*
X14401Y12683D03*
X14401Y12688D03*
X14401Y12693D03*
X14401Y12698D03*
X14401Y12703D03*
X14401Y12708D03*
X14396Y12718D03*
X14396Y12723D03*
X14396Y12728D03*
X14396Y12733D03*
X14396Y12738D03*
X14396Y12743D03*
X14376Y12918D03*
X14376Y12923D03*
X14666Y13103D03*
X14671Y13123D03*
X14676Y13143D03*
X14681Y13168D03*
X14686Y13188D03*
X14691Y13208D03*
X14696Y13233D03*
X14701Y13253D03*
X14706Y13273D03*
X14711Y13298D03*
X14716Y13318D03*
X14721Y13338D03*
X14726Y13363D03*
X14731Y13383D03*
X14736Y13403D03*
X14741Y13423D03*
X14741Y13428D03*
X14746Y13448D03*
X14751Y13468D03*
X14776Y13578D03*
X14776Y13583D03*
D363*
X14646Y13738D03*
X14301Y13868D03*
X13661Y12208D03*
X15381Y12178D03*
D364*
X15054Y12188D03*
X15049Y12183D03*
X15044Y12178D03*
X15774Y12358D03*
X15779Y12363D03*
X16034Y12883D03*
X16029Y13383D03*
X13914Y13693D03*
X13909Y13688D03*
X13904Y13683D03*
X13439Y13273D03*
X13434Y13268D03*
X13514Y12293D03*
X13519Y12288D03*
X13524Y12283D03*
D365*
X14419Y12533D03*
X14419Y12538D03*
X14419Y12543D03*
X14419Y12548D03*
X14419Y12553D03*
X14419Y12558D03*
X14414Y12578D03*
X14414Y12583D03*
X14414Y12588D03*
X14414Y12593D03*
X14414Y12598D03*
X14414Y12603D03*
X14414Y12608D03*
X14409Y12623D03*
X14409Y12628D03*
X14409Y12633D03*
X14409Y12638D03*
X14404Y12668D03*
X14399Y12713D03*
X14464Y12743D03*
X14469Y12733D03*
X14474Y12723D03*
X14479Y12713D03*
X14484Y12703D03*
X14489Y12693D03*
X14494Y12683D03*
X14499Y12673D03*
X14569Y12683D03*
X14574Y12703D03*
X14574Y12708D03*
X14579Y12728D03*
X14584Y12743D03*
X14584Y12748D03*
X14589Y12758D03*
X14589Y12763D03*
X14589Y12768D03*
X14589Y12773D03*
X14594Y12783D03*
X14594Y12788D03*
X14594Y12793D03*
X14599Y12803D03*
X14599Y12808D03*
X14599Y12813D03*
X14604Y12823D03*
X14604Y12828D03*
X14604Y12833D03*
X14604Y12838D03*
X14609Y12848D03*
X14609Y12853D03*
X14609Y12858D03*
X14614Y12868D03*
X14614Y12873D03*
X14614Y12878D03*
X14619Y12888D03*
X14619Y12893D03*
X14619Y12898D03*
X14619Y12903D03*
X14624Y12913D03*
X14624Y12918D03*
X14624Y12923D03*
X14629Y12933D03*
X14629Y12938D03*
X14629Y12943D03*
X14634Y12953D03*
X14634Y12958D03*
X14634Y12963D03*
X14634Y12968D03*
X14639Y12978D03*
X14639Y12983D03*
X14639Y12988D03*
X14644Y12998D03*
X14644Y13003D03*
X14644Y13008D03*
X14649Y13018D03*
X14649Y13023D03*
X14649Y13028D03*
X14649Y13033D03*
X14654Y13043D03*
X14654Y13048D03*
X14654Y13053D03*
X14659Y13063D03*
X14659Y13068D03*
X14659Y13073D03*
X14664Y13083D03*
X14664Y13088D03*
X14664Y13093D03*
X14664Y13098D03*
X14669Y13108D03*
X14669Y13113D03*
X14669Y13118D03*
X14674Y13128D03*
X14674Y13133D03*
X14674Y13138D03*
X14679Y13148D03*
X14679Y13153D03*
X14679Y13158D03*
X14679Y13163D03*
X14684Y13173D03*
X14684Y13178D03*
X14684Y13183D03*
X14689Y13193D03*
X14689Y13198D03*
X14689Y13203D03*
X14694Y13213D03*
X14694Y13218D03*
X14694Y13223D03*
X14694Y13228D03*
X14699Y13238D03*
X14699Y13243D03*
X14699Y13248D03*
X14704Y13258D03*
X14704Y13263D03*
X14704Y13268D03*
X14709Y13278D03*
X14709Y13283D03*
X14709Y13288D03*
X14709Y13293D03*
X14714Y13303D03*
X14714Y13308D03*
X14714Y13313D03*
X14719Y13323D03*
X14719Y13328D03*
X14719Y13333D03*
X14724Y13343D03*
X14724Y13348D03*
X14724Y13353D03*
X14724Y13358D03*
X14729Y13368D03*
X14729Y13373D03*
X14729Y13378D03*
X14734Y13388D03*
X14734Y13393D03*
X14734Y13398D03*
X14739Y13408D03*
X14739Y13413D03*
X14739Y13418D03*
X14744Y13433D03*
X14744Y13438D03*
X14744Y13443D03*
X14749Y13453D03*
X14749Y13458D03*
X14749Y13463D03*
X14754Y13473D03*
X14754Y13478D03*
X14754Y13483D03*
X14824Y13483D03*
X14829Y13473D03*
X14834Y13463D03*
X14839Y13453D03*
X14844Y13443D03*
X14849Y13433D03*
X14854Y13423D03*
X14859Y13413D03*
X14864Y13403D03*
X14869Y13393D03*
X14874Y13383D03*
X14879Y13373D03*
X14884Y13363D03*
X14889Y13353D03*
X14894Y13343D03*
X14899Y13333D03*
X14904Y13323D03*
X14909Y13313D03*
X14914Y13303D03*
X14919Y13293D03*
X14924Y13283D03*
X14929Y13278D03*
X14929Y13273D03*
X14934Y13268D03*
X14934Y13263D03*
X14939Y13258D03*
X14939Y13253D03*
X14944Y13248D03*
X14944Y13243D03*
X14949Y13238D03*
X14954Y13228D03*
X14959Y13218D03*
X14964Y13208D03*
X14969Y13198D03*
X14974Y13188D03*
X14979Y13178D03*
X14984Y13168D03*
X14989Y13158D03*
X14994Y13148D03*
X14944Y12998D03*
X14979Y12918D03*
X14979Y12913D03*
X14979Y12908D03*
X14984Y12903D03*
X14984Y12898D03*
X14989Y12888D03*
X14989Y12883D03*
X14994Y12878D03*
X14994Y12873D03*
X14999Y12863D03*
X14999Y12858D03*
X15004Y12853D03*
X15004Y12848D03*
X15009Y12838D03*
X15009Y12833D03*
X15014Y12828D03*
X15014Y12823D03*
X15019Y12813D03*
X15019Y12808D03*
X15024Y12803D03*
X15024Y12798D03*
X15024Y12793D03*
X15029Y12788D03*
X15029Y12783D03*
X15034Y12778D03*
X15034Y12773D03*
X15034Y12768D03*
X15039Y12758D03*
X15044Y12748D03*
X15044Y12743D03*
X15049Y12733D03*
X15054Y12723D03*
X15054Y12718D03*
X15059Y12708D03*
X15064Y12698D03*
X15069Y12688D03*
X15069Y12683D03*
X15074Y12673D03*
X15079Y12663D03*
X15079Y12658D03*
X15084Y12648D03*
X15089Y12638D03*
X15089Y12633D03*
X15094Y12623D03*
X15099Y12613D03*
X15104Y12598D03*
X15109Y12588D03*
X15119Y12563D03*
X15199Y12543D03*
X15204Y12548D03*
X15204Y12553D03*
X15209Y12563D03*
X15209Y12568D03*
X15214Y12573D03*
X15214Y12578D03*
X15219Y12588D03*
X15219Y12593D03*
X15224Y12598D03*
X15224Y12603D03*
X15229Y12613D03*
X15229Y12618D03*
X15234Y12623D03*
X15234Y12628D03*
X15239Y12638D03*
X15239Y12643D03*
X15244Y12648D03*
X15244Y12653D03*
X15244Y12658D03*
X15249Y12663D03*
X15249Y12668D03*
X15254Y12673D03*
X15254Y12678D03*
X15254Y12683D03*
X15259Y12688D03*
X15259Y12693D03*
X15264Y12703D03*
X15264Y12708D03*
X15269Y12713D03*
X15269Y12718D03*
X15274Y12728D03*
X15274Y12733D03*
X15279Y12738D03*
X15279Y12743D03*
X15284Y12753D03*
X15284Y12758D03*
X15289Y12763D03*
X15289Y12768D03*
X15294Y12778D03*
X15294Y12783D03*
X15299Y12788D03*
X15299Y12793D03*
X15299Y12798D03*
X15304Y12803D03*
X15304Y12808D03*
X15309Y12813D03*
X15309Y12818D03*
X15309Y12823D03*
X15314Y12828D03*
X15314Y12833D03*
X15319Y12843D03*
X15319Y12848D03*
X15324Y12853D03*
X15324Y12858D03*
X15329Y12868D03*
X15329Y12873D03*
X15334Y12878D03*
X15334Y12883D03*
X15339Y12893D03*
X15339Y12898D03*
X15344Y12903D03*
X15344Y12908D03*
X15349Y12918D03*
X15349Y12923D03*
X15354Y12928D03*
X15354Y12933D03*
X15354Y12938D03*
X15359Y12943D03*
X15359Y12948D03*
X15364Y12953D03*
X15364Y12958D03*
X15364Y12963D03*
X15369Y12968D03*
X15369Y12973D03*
X15374Y12983D03*
X15374Y12988D03*
X15379Y12993D03*
X15379Y12998D03*
X15384Y13008D03*
X15384Y13013D03*
X15389Y13018D03*
X15389Y13023D03*
X15394Y13033D03*
X15394Y13038D03*
X15399Y13043D03*
X15399Y13048D03*
X15404Y13058D03*
X15404Y13063D03*
X15409Y13068D03*
X15409Y13073D03*
X15409Y13078D03*
X15414Y13083D03*
X15414Y13088D03*
X15419Y13093D03*
X15419Y13098D03*
X15419Y13103D03*
X15424Y13108D03*
X15424Y13113D03*
X15429Y13118D03*
X15429Y13123D03*
X15429Y13128D03*
X15434Y13133D03*
X15434Y13138D03*
X15439Y13148D03*
X15439Y13153D03*
X15444Y13158D03*
X15444Y13163D03*
X15449Y13173D03*
X15449Y13178D03*
X15454Y13183D03*
X15454Y13188D03*
X15459Y13198D03*
X15459Y13203D03*
X15464Y13208D03*
X15464Y13213D03*
X15469Y13223D03*
X15469Y13228D03*
X15474Y13233D03*
X15474Y13238D03*
X15474Y13243D03*
X15479Y13248D03*
X15479Y13253D03*
X15484Y13258D03*
X15484Y13263D03*
X15484Y13268D03*
X15489Y13273D03*
X15489Y13278D03*
X15494Y13288D03*
X15494Y13293D03*
X15499Y13298D03*
X15499Y13303D03*
X15504Y13313D03*
X15504Y13318D03*
X15509Y13323D03*
X15509Y13328D03*
X15514Y13338D03*
X15514Y13343D03*
X15519Y13348D03*
X15519Y13353D03*
X15524Y13363D03*
X15524Y13368D03*
X15529Y13373D03*
X15529Y13378D03*
X15534Y13388D03*
X15534Y13393D03*
X15539Y13398D03*
X15539Y13403D03*
X15544Y13413D03*
X15544Y13418D03*
X15549Y13428D03*
X15549Y13433D03*
X15554Y13438D03*
X15554Y13443D03*
X15559Y13453D03*
X15559Y13458D03*
X15564Y13463D03*
X15609Y13583D03*
X15609Y13588D03*
X15614Y13598D03*
X15619Y13613D03*
X15624Y13623D03*
X15629Y13638D03*
X15634Y13648D03*
X15639Y13663D03*
X15649Y13688D03*
X15659Y13713D03*
X15664Y13728D03*
X15669Y13738D03*
X15674Y13753D03*
X15679Y13763D03*
X15684Y13778D03*
X15689Y13788D03*
X15694Y13803D03*
X15699Y13813D03*
X15704Y13828D03*
X15709Y13838D03*
X15714Y13853D03*
X15719Y13863D03*
X15719Y13868D03*
X15724Y13878D03*
X15729Y13888D03*
X15729Y13893D03*
X15729Y13898D03*
X15734Y13903D03*
X15734Y13908D03*
X15739Y13913D03*
X15214Y13478D03*
X15209Y13448D03*
X15204Y13423D03*
X15199Y13393D03*
X15194Y13363D03*
X15189Y13333D03*
X15184Y13308D03*
X15179Y13278D03*
X15174Y13248D03*
X15169Y13218D03*
X15164Y13188D03*
X15159Y13163D03*
X15154Y13133D03*
X15149Y13103D03*
X15144Y13073D03*
X15139Y13048D03*
X15134Y13018D03*
X15114Y12913D03*
X14544Y12573D03*
X14424Y12508D03*
X14459Y12178D03*
X15129Y12318D03*
X14379Y12908D03*
X14379Y12913D03*
X14779Y13568D03*
X14779Y13573D03*
X14664Y13668D03*
D366*
X15379Y12183D03*
D367*
X15166Y12458D03*
X15166Y12463D03*
X15126Y12543D03*
X15126Y12548D03*
X15121Y12553D03*
X15121Y12558D03*
X15116Y12568D03*
X15116Y12573D03*
X15111Y12578D03*
X15111Y12583D03*
X15106Y12593D03*
X15101Y12603D03*
X15101Y12608D03*
X15096Y12618D03*
X15091Y12628D03*
X15086Y12643D03*
X15081Y12653D03*
X15076Y12668D03*
X15071Y12678D03*
X15066Y12693D03*
X15061Y12703D03*
X15056Y12713D03*
X15051Y12728D03*
X15046Y12738D03*
X15041Y12753D03*
X15036Y12763D03*
X15111Y12918D03*
X15111Y12923D03*
X15061Y13018D03*
X15056Y13028D03*
X15051Y13038D03*
X15046Y13043D03*
X15046Y13048D03*
X15041Y13053D03*
X15041Y13058D03*
X15036Y13063D03*
X15036Y13068D03*
X15031Y13073D03*
X15031Y13078D03*
X15026Y13083D03*
X15026Y13088D03*
X15021Y13093D03*
X15021Y13098D03*
X15016Y13103D03*
X15016Y13108D03*
X15011Y13113D03*
X15011Y13118D03*
X15006Y13123D03*
X15006Y13128D03*
X15001Y13133D03*
X15001Y13138D03*
X14996Y13143D03*
X14991Y13153D03*
X14986Y13163D03*
X14981Y13173D03*
X14976Y13183D03*
X14971Y13193D03*
X14966Y13203D03*
X14961Y13213D03*
X14956Y13223D03*
X14951Y13233D03*
X14921Y13288D03*
X14916Y13298D03*
X14911Y13308D03*
X14906Y13318D03*
X14901Y13328D03*
X14896Y13338D03*
X14891Y13348D03*
X14886Y13358D03*
X14881Y13368D03*
X14876Y13378D03*
X14871Y13388D03*
X14866Y13398D03*
X14861Y13408D03*
X14856Y13418D03*
X14851Y13428D03*
X14846Y13438D03*
X14841Y13448D03*
X14836Y13458D03*
X14831Y13468D03*
X14826Y13478D03*
X14946Y12993D03*
X14881Y12878D03*
X14866Y12853D03*
X14851Y12828D03*
X14846Y12818D03*
X14836Y12803D03*
X14831Y12793D03*
X14826Y12783D03*
X14821Y12778D03*
X14816Y12768D03*
X14811Y12758D03*
X14806Y12753D03*
X14801Y12743D03*
X14796Y12733D03*
X14791Y12723D03*
X14786Y12718D03*
X14786Y12713D03*
X14781Y12708D03*
X14781Y12703D03*
X14776Y12698D03*
X14771Y12693D03*
X14771Y12688D03*
X14766Y12683D03*
X14766Y12678D03*
X14761Y12673D03*
X14756Y12668D03*
X14756Y12663D03*
X14751Y12658D03*
X14751Y12653D03*
X14746Y12648D03*
X14741Y12643D03*
X14741Y12638D03*
X14736Y12633D03*
X14736Y12628D03*
X14731Y12623D03*
X14726Y12618D03*
X14726Y12613D03*
X14721Y12608D03*
X14721Y12603D03*
X14716Y12598D03*
X14711Y12593D03*
X14711Y12588D03*
X14706Y12583D03*
X14706Y12578D03*
X14701Y12573D03*
X14696Y12568D03*
X14696Y12563D03*
X14691Y12558D03*
X14691Y12553D03*
X14686Y12548D03*
X14681Y12543D03*
X14681Y12538D03*
X14676Y12533D03*
X14676Y12528D03*
X14671Y12523D03*
X14666Y12518D03*
X14666Y12513D03*
X14661Y12508D03*
X14661Y12503D03*
X14656Y12498D03*
X14651Y12493D03*
X14651Y12488D03*
X14646Y12483D03*
X14541Y12578D03*
X14541Y12583D03*
X14496Y12678D03*
X14491Y12688D03*
X14486Y12698D03*
X14481Y12708D03*
X14476Y12718D03*
X14471Y12728D03*
X14466Y12738D03*
X14381Y12903D03*
X14461Y12183D03*
X15611Y13593D03*
X15616Y13603D03*
X15616Y13608D03*
X15621Y13618D03*
X15626Y13628D03*
X15626Y13633D03*
X15631Y13643D03*
X15636Y13653D03*
X15636Y13658D03*
X15641Y13668D03*
X15641Y13673D03*
X15646Y13678D03*
X15646Y13683D03*
X15651Y13693D03*
X15651Y13698D03*
X15656Y13703D03*
X15656Y13708D03*
X15661Y13718D03*
X15661Y13723D03*
X15666Y13733D03*
X15671Y13743D03*
X15671Y13748D03*
X15676Y13758D03*
X15681Y13768D03*
X15681Y13773D03*
X15686Y13783D03*
X15691Y13793D03*
X15691Y13798D03*
X15696Y13808D03*
X15701Y13818D03*
X15701Y13823D03*
X15706Y13833D03*
X15711Y13843D03*
X15711Y13848D03*
X15716Y13858D03*
X15721Y13873D03*
X15726Y13883D03*
D368*
X15744Y13518D03*
X15379Y12188D03*
D369*
X15166Y12473D03*
X15111Y12928D03*
X15111Y12933D03*
X14651Y12478D03*
X14466Y12188D03*
X14391Y12873D03*
X14391Y12878D03*
X14781Y13553D03*
X14781Y13558D03*
D370*
X14299Y13853D03*
X15754Y13503D03*
X15379Y12193D03*
D371*
X15059Y12193D03*
X15794Y12378D03*
X15799Y12383D03*
X16049Y12898D03*
X16054Y12903D03*
X16059Y12908D03*
X16059Y13358D03*
X16054Y13363D03*
X16049Y13368D03*
X14659Y13708D03*
X13439Y12758D03*
X13449Y12743D03*
X13414Y12783D03*
X13409Y12788D03*
X13404Y12793D03*
X13399Y12798D03*
X13404Y13243D03*
X13409Y13248D03*
X13499Y12308D03*
X13504Y12303D03*
X13509Y12298D03*
D372*
X14394Y12863D03*
X14394Y12868D03*
X14539Y12608D03*
X14539Y12603D03*
X14539Y12598D03*
X14469Y12193D03*
X15109Y12938D03*
X15109Y12943D03*
X14944Y12978D03*
X14784Y13548D03*
X14664Y13673D03*
D373*
X15289Y12198D03*
D374*
X13931Y12198D03*
D375*
X14474Y12203D03*
X14539Y12618D03*
X14404Y12833D03*
X14404Y12838D03*
X14399Y12848D03*
X14944Y12968D03*
X15104Y12953D03*
X15164Y12483D03*
X14784Y13533D03*
X14784Y13538D03*
X15249Y13788D03*
D376*
X13684Y13398D03*
X14164Y12203D03*
D377*
X15314Y12208D03*
D378*
X15164Y12498D03*
X15104Y12963D03*
X15104Y12968D03*
X14534Y12633D03*
X14409Y12813D03*
X14409Y12818D03*
X14679Y12353D03*
X14664Y12343D03*
X14644Y12328D03*
X14629Y12318D03*
X14624Y12313D03*
X14614Y12308D03*
X14559Y12268D03*
X14544Y12258D03*
X14479Y12208D03*
X14784Y13523D03*
X14784Y13528D03*
X15064Y13913D03*
X15624Y13578D03*
D379*
X15706Y13548D03*
X15646Y12288D03*
X14176Y12208D03*
D380*
X15321Y12213D03*
X14301Y13808D03*
D381*
X15099Y12983D03*
X15164Y12508D03*
X14749Y12403D03*
X14664Y12473D03*
X14534Y12643D03*
X14534Y12648D03*
X14534Y12653D03*
X14419Y12783D03*
X14419Y12788D03*
X14604Y12303D03*
X14599Y12298D03*
X14584Y12288D03*
X14479Y12213D03*
X14219Y12253D03*
D382*
X13649Y12213D03*
X13554Y13338D03*
X14034Y13758D03*
X14649Y13733D03*
D383*
X14661Y13683D03*
X14786Y13508D03*
X14786Y13503D03*
X15236Y13793D03*
X15101Y12988D03*
X14941Y12943D03*
X15161Y12518D03*
X15161Y12513D03*
X14756Y12413D03*
X14531Y12658D03*
X14421Y12773D03*
X14421Y12778D03*
X14481Y12218D03*
D384*
X14726Y12443D03*
X13636Y12218D03*
X14016Y13753D03*
D385*
X15339Y12223D03*
D386*
X15136Y12303D03*
X15161Y12528D03*
X15096Y13003D03*
X15096Y13008D03*
X14791Y13488D03*
X14661Y13688D03*
X14426Y12758D03*
X14431Y12748D03*
X14531Y12668D03*
X14486Y12223D03*
X14216Y12248D03*
D387*
X15346Y12228D03*
X14301Y13803D03*
D388*
X15094Y13013D03*
X14939Y12928D03*
X14939Y12923D03*
X15164Y12533D03*
X14489Y12228D03*
D389*
X13611Y12228D03*
X13731Y13433D03*
X13996Y13743D03*
X14301Y13873D03*
X15691Y13558D03*
X15946Y13438D03*
X15941Y12823D03*
X15931Y12818D03*
X15926Y12813D03*
X15921Y12808D03*
D390*
X15161Y12538D03*
X14491Y12233D03*
D391*
X14691Y12463D03*
X15146Y12293D03*
X15806Y12388D03*
X15811Y12393D03*
X15816Y12398D03*
X16061Y13353D03*
X14301Y13878D03*
X13881Y13663D03*
X13876Y13658D03*
X13871Y13653D03*
X13866Y13648D03*
X13401Y13238D03*
X13396Y13233D03*
X13391Y13228D03*
X13396Y12803D03*
X13451Y12738D03*
X13491Y12313D03*
X14206Y12233D03*
D392*
X15364Y12238D03*
X15369Y12243D03*
D393*
X15141Y12298D03*
X14496Y12238D03*
X13416Y12433D03*
X13411Y12443D03*
X13411Y12448D03*
X13411Y12453D03*
X13406Y12463D03*
X13406Y12468D03*
X13406Y12473D03*
X13401Y12483D03*
X13401Y12488D03*
X13401Y12493D03*
X13401Y12498D03*
X13401Y12503D03*
X13396Y12543D03*
X13396Y12548D03*
X13396Y12553D03*
X13401Y12573D03*
X13401Y12578D03*
X13401Y12583D03*
X13401Y12588D03*
X13401Y12593D03*
X13406Y12598D03*
X13406Y12603D03*
X13406Y12608D03*
X13406Y12613D03*
X13411Y12618D03*
X13411Y12623D03*
X13416Y12638D03*
X13326Y12908D03*
X13321Y12923D03*
X13316Y12933D03*
X13316Y12938D03*
X13316Y12943D03*
X13311Y12953D03*
X13311Y12958D03*
X13311Y12963D03*
X13311Y12968D03*
X13306Y12983D03*
X13306Y12988D03*
X13306Y12993D03*
X13306Y12998D03*
X13306Y13003D03*
X13306Y13008D03*
X13306Y13013D03*
X13306Y13018D03*
X13306Y13023D03*
X13306Y13028D03*
X13306Y13033D03*
X13306Y13038D03*
X13306Y13043D03*
X13306Y13048D03*
X13311Y13068D03*
X13311Y13073D03*
X13311Y13078D03*
X13311Y13083D03*
X13316Y13088D03*
X13316Y13093D03*
X13316Y13098D03*
X13321Y13108D03*
X13321Y13113D03*
X13781Y13458D03*
X13781Y13463D03*
X13781Y13468D03*
X13786Y13483D03*
X13786Y13488D03*
X13786Y13493D03*
X13786Y13498D03*
X13791Y13508D03*
X13791Y13513D03*
X13791Y13518D03*
X13796Y13528D03*
X13801Y13543D03*
X15886Y12708D03*
X15891Y12698D03*
X15891Y12693D03*
X15891Y12688D03*
X15896Y12678D03*
X15896Y12673D03*
X15896Y12668D03*
X15896Y12663D03*
X15901Y12653D03*
X15901Y12648D03*
X15901Y12643D03*
X15901Y12638D03*
X15901Y12633D03*
X15901Y12628D03*
X15901Y12623D03*
X15901Y12618D03*
X15901Y12613D03*
X15901Y12608D03*
X15901Y12603D03*
X15901Y12598D03*
X15901Y12593D03*
X15901Y12588D03*
X15901Y12583D03*
X15901Y12578D03*
X15901Y12573D03*
X15896Y12558D03*
X15896Y12553D03*
X15896Y12548D03*
X15896Y12543D03*
X15891Y12538D03*
X15891Y12533D03*
X15891Y12528D03*
X15886Y12518D03*
X16141Y13038D03*
X16146Y13053D03*
X16146Y13058D03*
X16146Y13063D03*
X16151Y13068D03*
X16151Y13073D03*
X16151Y13078D03*
X16151Y13083D03*
X16156Y13093D03*
X16156Y13098D03*
X16156Y13103D03*
X16156Y13108D03*
X16156Y13113D03*
X16156Y13118D03*
X16156Y13123D03*
X16156Y13128D03*
X16156Y13133D03*
X16156Y13138D03*
X16156Y13143D03*
X16156Y13148D03*
X16156Y13153D03*
X16156Y13158D03*
X16156Y13163D03*
X16156Y13168D03*
X16151Y13183D03*
X16151Y13188D03*
X16151Y13193D03*
X16151Y13198D03*
X16146Y13203D03*
X16146Y13208D03*
X16146Y13213D03*
X16141Y13223D03*
X16141Y13228D03*
D394*
X16131Y13253D03*
X16126Y13263D03*
X16121Y13273D03*
X16116Y13283D03*
X16111Y13293D03*
X16131Y13013D03*
X16126Y13003D03*
X16121Y12993D03*
X16116Y12983D03*
X16111Y12973D03*
X15871Y12743D03*
X15876Y12733D03*
X15871Y12478D03*
X15866Y12468D03*
X15861Y12463D03*
X15856Y12453D03*
X14661Y13698D03*
X13826Y13593D03*
X13821Y13588D03*
X13821Y13583D03*
X13816Y13578D03*
X13816Y13573D03*
X13356Y13183D03*
X13351Y13173D03*
X13346Y13168D03*
X13346Y13163D03*
X13341Y13158D03*
X13336Y13148D03*
X13341Y12878D03*
X13341Y12873D03*
X13346Y12868D03*
X13351Y12858D03*
X13456Y12718D03*
X13446Y12698D03*
X13441Y12688D03*
X13436Y12683D03*
X13431Y12673D03*
X13426Y12663D03*
X13426Y12408D03*
X13431Y12398D03*
X13436Y12388D03*
X13441Y12383D03*
X13441Y12378D03*
X13446Y12373D03*
X14211Y12238D03*
D395*
X14499Y12243D03*
X14749Y12418D03*
X15869Y12473D03*
X15874Y12483D03*
X15874Y12488D03*
X15879Y12493D03*
X15879Y12498D03*
X15884Y12503D03*
X15884Y12508D03*
X15884Y12513D03*
X15889Y12523D03*
X15894Y12683D03*
X15889Y12703D03*
X15884Y12713D03*
X15884Y12718D03*
X15879Y12723D03*
X15879Y12728D03*
X15874Y12738D03*
X15869Y12748D03*
X16119Y12988D03*
X16124Y12998D03*
X16129Y13008D03*
X16134Y13018D03*
X16134Y13023D03*
X16139Y13028D03*
X16139Y13033D03*
X16144Y13043D03*
X16144Y13048D03*
X16144Y13218D03*
X16139Y13233D03*
X16139Y13238D03*
X16134Y13243D03*
X16134Y13248D03*
X16129Y13258D03*
X16124Y13268D03*
X16119Y13278D03*
X13814Y13568D03*
X13809Y13563D03*
X13809Y13558D03*
X13804Y13553D03*
X13804Y13548D03*
X13799Y13538D03*
X13799Y13533D03*
X13794Y13523D03*
X13339Y13153D03*
X13334Y13143D03*
X13334Y13138D03*
X13329Y13133D03*
X13329Y13128D03*
X13324Y13123D03*
X13324Y13118D03*
X13319Y13103D03*
X13314Y12948D03*
X13319Y12928D03*
X13324Y12918D03*
X13324Y12913D03*
X13329Y12903D03*
X13329Y12898D03*
X13334Y12893D03*
X13334Y12888D03*
X13339Y12883D03*
X13434Y12678D03*
X13429Y12668D03*
X13424Y12658D03*
X13424Y12653D03*
X13419Y12648D03*
X13419Y12643D03*
X13414Y12633D03*
X13414Y12628D03*
X13409Y12458D03*
X13414Y12438D03*
X13419Y12428D03*
X13419Y12423D03*
X13424Y12418D03*
X13424Y12413D03*
X13429Y12403D03*
X13434Y12393D03*
D396*
X13404Y12478D03*
X13399Y12508D03*
X13399Y12513D03*
X13399Y12518D03*
X13399Y12523D03*
X13399Y12528D03*
X13399Y12533D03*
X13399Y12538D03*
X13399Y12558D03*
X13399Y12563D03*
X13399Y12568D03*
X13309Y12973D03*
X13309Y12978D03*
X13309Y13053D03*
X13309Y13058D03*
X13309Y13063D03*
X13784Y13473D03*
X13784Y13478D03*
X13789Y13503D03*
X14659Y13693D03*
X15224Y13798D03*
X16154Y13178D03*
X16154Y13173D03*
X16154Y13088D03*
X15899Y12658D03*
X15899Y12568D03*
X15899Y12563D03*
X14679Y12468D03*
X14214Y12243D03*
D397*
X15376Y12248D03*
X14301Y13798D03*
D398*
X14654Y13718D03*
X15679Y13563D03*
X15984Y13418D03*
X15984Y12848D03*
X15894Y12783D03*
X15724Y12323D03*
X15164Y12283D03*
X14729Y12428D03*
X13574Y12248D03*
D399*
X13471Y12338D03*
X13466Y12343D03*
X13461Y12348D03*
X13381Y12818D03*
X13376Y12823D03*
X13371Y12828D03*
X13371Y12833D03*
X13366Y12838D03*
X13361Y12843D03*
X13366Y13198D03*
X13371Y13203D03*
X13376Y13208D03*
X13376Y13213D03*
X13846Y13623D03*
X13851Y13628D03*
X14506Y12253D03*
X15831Y12418D03*
X15836Y12423D03*
X15841Y12428D03*
X16081Y12933D03*
X16086Y12938D03*
X16091Y12943D03*
X16096Y12953D03*
X16096Y13313D03*
X16091Y13323D03*
X16086Y13328D03*
X16081Y13333D03*
X15656Y13573D03*
D400*
X15106Y12958D03*
X14941Y12958D03*
X14941Y12963D03*
X15161Y12493D03*
X15161Y12488D03*
X14536Y12623D03*
X14536Y12628D03*
X14406Y12823D03*
X14406Y12828D03*
X14221Y12258D03*
X14661Y13678D03*
D401*
X14779Y13563D03*
X15259Y13783D03*
X15569Y13468D03*
X15054Y13033D03*
X15059Y13023D03*
X14944Y12988D03*
X14944Y12983D03*
X14904Y12918D03*
X14904Y12913D03*
X14899Y12908D03*
X14894Y12903D03*
X14894Y12898D03*
X14889Y12893D03*
X14889Y12888D03*
X14884Y12883D03*
X14879Y12873D03*
X14874Y12868D03*
X14874Y12863D03*
X14869Y12858D03*
X14864Y12848D03*
X14859Y12843D03*
X14859Y12838D03*
X14854Y12833D03*
X14849Y12823D03*
X14844Y12813D03*
X14839Y12808D03*
X14834Y12798D03*
X14829Y12788D03*
X14819Y12773D03*
X14814Y12763D03*
X14804Y12748D03*
X14799Y12738D03*
X14794Y12728D03*
X14539Y12593D03*
X14539Y12588D03*
X14389Y12883D03*
X14389Y12888D03*
X14384Y12893D03*
X14384Y12898D03*
X14219Y12263D03*
X15164Y12468D03*
D402*
X15401Y12268D03*
D403*
X15409Y12273D03*
D404*
X15606Y12278D03*
X15726Y13533D03*
D405*
X15634Y12283D03*
X14049Y13763D03*
X13704Y13413D03*
D406*
X13854Y13633D03*
X13859Y13638D03*
X13864Y13643D03*
X13389Y13223D03*
X13384Y13218D03*
X13384Y12813D03*
X13389Y12808D03*
X13454Y12733D03*
X13474Y12333D03*
X13479Y12328D03*
X13484Y12323D03*
X13489Y12318D03*
X14659Y13703D03*
X15874Y12758D03*
X16064Y12913D03*
X16069Y12918D03*
X16074Y12923D03*
X16079Y12928D03*
X16079Y13338D03*
X16074Y13343D03*
X16069Y13348D03*
X15829Y12413D03*
X15824Y12408D03*
X15819Y12403D03*
D407*
X15169Y12383D03*
X15129Y12828D03*
X15129Y12833D03*
X14549Y12483D03*
X14334Y13058D03*
X14334Y13063D03*
X14664Y13663D03*
D408*
X14766Y13653D03*
X14766Y13648D03*
X14951Y13058D03*
X14951Y13053D03*
X15126Y12838D03*
X15166Y12388D03*
X14551Y12488D03*
X14551Y12493D03*
X14336Y13048D03*
X14336Y13053D03*
D409*
X14339Y13043D03*
X14339Y13038D03*
X14549Y12503D03*
X14549Y12498D03*
X14949Y13048D03*
X15129Y12843D03*
X15169Y12393D03*
X14769Y13638D03*
X14769Y13643D03*
X14304Y13883D03*
D410*
X14341Y13033D03*
X14341Y13028D03*
X14346Y13023D03*
X14346Y13018D03*
X14951Y13043D03*
X15126Y12853D03*
X15126Y12848D03*
X15166Y12403D03*
X15166Y12398D03*
D411*
X15166Y12413D03*
X15166Y12418D03*
X15121Y12868D03*
X14546Y12528D03*
X14546Y12523D03*
X14546Y12518D03*
X14351Y12998D03*
X14351Y13003D03*
X14771Y13618D03*
X14771Y13623D03*
D412*
X14789Y13498D03*
X14789Y13493D03*
X15099Y12998D03*
X15099Y12993D03*
X14939Y12938D03*
X14939Y12933D03*
X15164Y12523D03*
X14534Y12663D03*
X14429Y12753D03*
X14424Y12763D03*
X14424Y12768D03*
D413*
X14364Y12958D03*
X14364Y12963D03*
X14544Y12548D03*
X14544Y12543D03*
X14949Y13018D03*
X15119Y12893D03*
X15119Y12888D03*
X14774Y13598D03*
X14774Y13603D03*
D414*
X13651Y13373D03*
X13636Y13363D03*
X13626Y13358D03*
D415*
X13644Y13368D03*
X15739Y13523D03*
D416*
X14641Y13748D03*
X14301Y13863D03*
X13676Y13393D03*
D417*
X13691Y13403D03*
X14066Y13768D03*
X15721Y13538D03*
D418*
X15779Y13473D03*
X15069Y13878D03*
D419*
X15776Y13478D03*
D420*
X15766Y13488D03*
X14301Y13848D03*
D421*
X15764Y13493D03*
D422*
X15716Y13543D03*
D423*
X14636Y13753D03*
D424*
X14634Y13758D03*
D425*
X14626Y13763D03*
X15086Y13888D03*
D426*
X14616Y13768D03*
X14301Y13843D03*
D427*
X14394Y13773D03*
D428*
X14404Y13778D03*
D429*
X14416Y13783D03*
D430*
X14431Y13788D03*
D431*
X14449Y13793D03*
D432*
X14989Y13808D03*
X14994Y13813D03*
D433*
X14301Y13813D03*
D434*
X14999Y13818D03*
D435*
X14301Y13818D03*
D436*
X14301Y13823D03*
X15006Y13828D03*
D437*
X15016Y13838D03*
X14301Y13828D03*
D438*
X14301Y13833D03*
D439*
X14299Y13838D03*
D440*
X15024Y13843D03*
D441*
X15039Y13858D03*
D442*
X14299Y13858D03*
D443*
X15046Y13863D03*
D444*
X15061Y13873D03*
D445*
X15096Y13893D03*
D446*
X18850Y16797D02*
X19100Y17047D01*
X19100Y16547D01*
X18850Y16797D01*
X19100Y17547D02*
X18850Y17797D01*
X19100Y18047D01*
X19100Y17547D01*
X10600Y17547D02*
X10600Y18047D01*
X10350Y17797D01*
X10600Y17547D01*
X10600Y17172D02*
X10600Y16672D01*
X10350Y16922D01*
X10600Y17172D01*
D447*
X10390Y16032D02*
X10390Y15752D01*
X10390Y15892D02*
X10810Y15892D01*
X10670Y15752D01*
X10740Y15571D02*
X10460Y15571D01*
X10390Y15501D01*
X10390Y15361D01*
X10460Y15291D01*
X10740Y15571D01*
X10810Y15501D01*
X10810Y15361D01*
X10740Y15291D01*
X10460Y15291D01*
X10390Y15111D02*
X10810Y14831D01*
X10810Y14664D02*
X10810Y14524D01*
X10810Y14594D02*
X10390Y14594D01*
X10390Y14524D02*
X10390Y14664D01*
X10390Y14831D02*
X10810Y15111D01*
X12444Y15150D02*
X12725Y15150D01*
X12444Y15430D01*
X12444Y15500D01*
X12514Y15570D01*
X12655Y15570D01*
X12725Y15500D01*
X12905Y15500D02*
X12975Y15570D01*
X13185Y15570D01*
X13185Y15150D01*
X12975Y15150D01*
X12905Y15220D01*
X12905Y15500D01*
X14390Y16797D02*
X14390Y16937D01*
X14390Y16867D02*
X14810Y16867D01*
X14810Y16797D02*
X14810Y16937D01*
X14740Y17104D02*
X14460Y17104D01*
X14390Y17174D01*
X14390Y17314D01*
X14460Y17384D01*
X14390Y17564D02*
X14670Y17844D01*
X14740Y17844D01*
X14810Y17774D01*
X14810Y17634D01*
X14740Y17564D01*
X14740Y17384D02*
X14810Y17314D01*
X14810Y17174D01*
X14740Y17104D01*
X14390Y17564D02*
X14390Y17844D01*
X14639Y15570D02*
X14850Y15360D01*
X14569Y15360D01*
X14639Y15150D02*
X14639Y15570D01*
X15030Y15500D02*
X15030Y15220D01*
X15100Y15150D01*
X15310Y15150D01*
X15310Y15570D01*
X15100Y15570D01*
X15030Y15500D01*
X17600Y15547D02*
X17850Y15297D01*
X17600Y15047D01*
X17600Y14547D01*
X17850Y14297D01*
X18350Y14297D01*
X18600Y14547D01*
X18600Y15047D01*
X18350Y15297D01*
X18600Y15547D01*
X18600Y16047D01*
X18350Y16297D01*
X18600Y16547D01*
X18600Y17047D01*
X18350Y17297D01*
X18600Y17547D01*
X18600Y18047D01*
X18350Y18297D01*
X17850Y18297D01*
X17600Y18047D01*
X17600Y17547D01*
X17850Y17297D01*
X17600Y17047D01*
X17600Y16547D01*
X17850Y16297D01*
X17600Y16047D01*
X17600Y15547D01*
X13212Y12565D02*
X12932Y12565D01*
X12932Y12495D01*
X13212Y12215D01*
X13212Y12145D01*
X12932Y12145D01*
X12752Y12145D02*
X12471Y12145D01*
X12612Y12145D02*
X12612Y12565D01*
X12752Y12425D01*
X13944Y20150D02*
X14225Y20150D01*
X14405Y20220D02*
X14405Y20500D01*
X14475Y20570D01*
X14685Y20570D01*
X14685Y20150D01*
X14475Y20150D01*
X14405Y20220D01*
X14225Y20430D02*
X14084Y20570D01*
X14084Y20150D01*
X16257Y20220D02*
X16327Y20150D01*
X16467Y20150D01*
X16537Y20220D01*
X16717Y20220D02*
X16717Y20500D01*
X16787Y20570D01*
X16998Y20570D01*
X16998Y20150D01*
X16787Y20150D01*
X16717Y20220D01*
X16537Y20500D02*
X16467Y20570D01*
X16327Y20570D01*
X16257Y20500D01*
X16257Y20430D01*
X16327Y20360D01*
X16257Y20290D01*
X16257Y20220D01*
X16327Y20360D02*
X16397Y20360D01*
D448*
X13315Y17661D02*
X13194Y17512D01*
X13225Y17452D01*
X13246Y17388D01*
X13436Y17369D01*
X13436Y17225D01*
X13246Y17206D01*
X13225Y17142D01*
X13194Y17082D01*
X13315Y16933D01*
X13214Y16832D01*
X13065Y16953D01*
X13005Y16922D01*
X12941Y16901D01*
X12922Y16711D01*
X12778Y16711D01*
X12759Y16901D01*
X12695Y16922D01*
X12635Y16953D01*
X12486Y16832D01*
X12385Y16933D01*
X12506Y17082D01*
X12475Y17142D01*
X12679Y17226D01*
X12701Y17189D01*
X12730Y17157D01*
X12766Y17133D01*
X12807Y17118D01*
X12850Y17112D01*
X12894Y17118D01*
X12935Y17133D01*
X12972Y17158D01*
X13001Y17191D01*
X13022Y17230D01*
X13033Y17273D01*
X13033Y17317D01*
X13023Y17360D01*
X13003Y17399D01*
X12975Y17433D01*
X12939Y17459D01*
X12898Y17475D01*
X12854Y17481D01*
X12810Y17477D01*
X12768Y17462D01*
X12731Y17438D01*
X12701Y17406D01*
X12679Y17368D01*
X12475Y17452D01*
X12506Y17512D01*
X12385Y17661D01*
X12486Y17762D01*
X12635Y17641D01*
X12695Y17672D01*
X12759Y17693D01*
X12778Y17883D01*
X12922Y17883D01*
X12941Y17693D01*
X13005Y17672D01*
X13065Y17641D01*
X13214Y17762D01*
X13315Y17661D01*
X13313Y17658D02*
X13085Y17658D01*
X13033Y17658D02*
X12667Y17658D01*
X12615Y17658D02*
X12387Y17658D01*
X12434Y17600D02*
X13266Y17600D01*
X13219Y17543D02*
X12481Y17543D01*
X12492Y17485D02*
X13208Y17485D01*
X13233Y17428D02*
X12979Y17428D01*
X13018Y17370D02*
X13426Y17370D01*
X13436Y17312D02*
X13033Y17312D01*
X13028Y17255D02*
X13436Y17255D01*
X13243Y17197D02*
X13004Y17197D01*
X12945Y17140D02*
X13224Y17140D01*
X13195Y17082D02*
X12505Y17082D01*
X12476Y17140D02*
X12755Y17140D01*
X12696Y17197D02*
X12609Y17197D01*
X12459Y17025D02*
X13241Y17025D01*
X13288Y16967D02*
X12412Y16967D01*
X12409Y16910D02*
X12582Y16910D01*
X12511Y16852D02*
X12466Y16852D01*
X12733Y16910D02*
X12967Y16910D01*
X12936Y16852D02*
X12764Y16852D01*
X12770Y16794D02*
X12930Y16794D01*
X12925Y16737D02*
X12775Y16737D01*
X13118Y16910D02*
X13291Y16910D01*
X13234Y16852D02*
X13189Y16852D01*
X12681Y17370D02*
X12674Y17370D01*
X12721Y17428D02*
X12535Y17428D01*
X12544Y17715D02*
X12439Y17715D01*
X12761Y17715D02*
X12939Y17715D01*
X12933Y17773D02*
X12767Y17773D01*
X12773Y17830D02*
X12927Y17830D01*
X13156Y17715D02*
X13261Y17715D01*
D449*
X13600Y18047D02*
X13600Y16547D01*
X15600Y16547D01*
X15600Y18047D01*
X13600Y18047D01*
X13106Y13632D02*
X13106Y12962D01*
X13007Y13258D02*
X12850Y13494D01*
X12693Y13258D01*
X13007Y13258D01*
X12594Y12962D02*
X12594Y13632D01*
M02*
