G75*
G70*
%OFA0B0*%
%FSLAX24Y24*%
%IPPOS*%
%LPD*%
%AMOC8*
5,1,8,0,0,1.08239X$1,22.5*
%
%ADD10C,0.0000*%
%ADD11C,0.0030*%
D10*
X001489Y001583D02*
X001492Y001583D01*
X018027Y001583D01*
X018030Y001583D01*
X018027Y001583D02*
X018099Y001585D01*
X018171Y001591D01*
X018243Y001600D01*
X018314Y001613D01*
X018384Y001630D01*
X018453Y001650D01*
X018521Y001675D01*
X018587Y001702D01*
X018653Y001733D01*
X018716Y001768D01*
X018778Y001805D01*
X018837Y001846D01*
X018894Y001890D01*
X018949Y001937D01*
X019001Y001987D01*
X019051Y002039D01*
X019098Y002094D01*
X019142Y002151D01*
X019183Y002210D01*
X019220Y002272D01*
X019255Y002335D01*
X019286Y002401D01*
X019313Y002467D01*
X019338Y002535D01*
X019358Y002604D01*
X019375Y002674D01*
X019388Y002745D01*
X019397Y002817D01*
X019403Y002889D01*
X019405Y002961D01*
X019405Y009851D01*
X019403Y009923D01*
X019397Y009995D01*
X019388Y010067D01*
X019375Y010138D01*
X019358Y010208D01*
X019338Y010277D01*
X019313Y010345D01*
X019286Y010411D01*
X019255Y010477D01*
X019220Y010540D01*
X019183Y010602D01*
X019142Y010661D01*
X019098Y010718D01*
X019051Y010773D01*
X019001Y010825D01*
X018949Y010875D01*
X018894Y010922D01*
X018837Y010966D01*
X018778Y011007D01*
X018716Y011044D01*
X018653Y011079D01*
X018587Y011110D01*
X018521Y011137D01*
X018453Y011162D01*
X018384Y011182D01*
X018314Y011199D01*
X018243Y011212D01*
X018171Y011221D01*
X018099Y011227D01*
X018027Y011229D01*
X007988Y011229D01*
X007988Y011672D01*
X008100Y011672D01*
X007397Y011672D02*
X007397Y011229D01*
X001492Y011229D01*
X001489Y011229D01*
X001350Y011672D02*
X007397Y011672D01*
X008100Y011672D02*
X008166Y011670D01*
X008232Y011672D01*
X008298Y011678D01*
X008364Y011687D01*
X008429Y011700D01*
X008494Y011717D01*
X008557Y011737D01*
X008619Y011761D01*
X008679Y011788D01*
X008738Y011819D01*
X008796Y011853D01*
X008851Y011890D01*
X008904Y011930D01*
X008954Y011973D01*
X009003Y012018D01*
X009048Y012067D01*
X009091Y012117D01*
X009131Y012170D01*
X009168Y012225D01*
X009202Y012283D01*
X009233Y012342D01*
X009260Y012402D01*
X009284Y012464D01*
X009304Y012527D01*
X009321Y012592D01*
X009334Y012657D01*
X009343Y012723D01*
X009349Y012789D01*
X009351Y012855D01*
X009349Y012921D01*
X009350Y012922D02*
X010100Y012922D01*
X010100Y013672D02*
X010100Y019672D01*
X009350Y019672D02*
X009350Y013672D01*
X010100Y013672D01*
X010100Y012922D02*
X010102Y012854D01*
X010107Y012787D01*
X010116Y012720D01*
X010129Y012653D01*
X010146Y012588D01*
X010165Y012523D01*
X010189Y012459D01*
X010216Y012397D01*
X010246Y012336D01*
X010279Y012278D01*
X010315Y012221D01*
X010355Y012166D01*
X010397Y012113D01*
X010443Y012062D01*
X010490Y012015D01*
X010541Y011969D01*
X010594Y011927D01*
X010649Y011887D01*
X010706Y011851D01*
X010764Y011818D01*
X010825Y011788D01*
X010887Y011761D01*
X010951Y011737D01*
X011016Y011718D01*
X011081Y011701D01*
X011148Y011688D01*
X011215Y011679D01*
X011282Y011674D01*
X011350Y011672D01*
X018100Y011672D01*
X018421Y011229D02*
X018424Y011229D01*
X018100Y011672D02*
X018166Y011670D01*
X018232Y011672D01*
X018298Y011678D01*
X018364Y011687D01*
X018429Y011700D01*
X018494Y011717D01*
X018557Y011737D01*
X018619Y011761D01*
X018679Y011788D01*
X018738Y011819D01*
X018796Y011853D01*
X018851Y011890D01*
X018904Y011930D01*
X018954Y011973D01*
X019003Y012018D01*
X019048Y012067D01*
X019091Y012117D01*
X019131Y012170D01*
X019168Y012225D01*
X019202Y012283D01*
X019233Y012342D01*
X019260Y012402D01*
X019284Y012464D01*
X019304Y012527D01*
X019321Y012592D01*
X019334Y012657D01*
X019343Y012723D01*
X019349Y012789D01*
X019351Y012855D01*
X019349Y012921D01*
X019350Y012922D02*
X019350Y019672D01*
X019348Y019740D01*
X019343Y019807D01*
X019334Y019874D01*
X019321Y019941D01*
X019304Y020006D01*
X019285Y020071D01*
X019261Y020135D01*
X019234Y020197D01*
X019204Y020258D01*
X019171Y020316D01*
X019135Y020373D01*
X019095Y020428D01*
X019053Y020481D01*
X019007Y020532D01*
X018960Y020579D01*
X018909Y020625D01*
X018856Y020667D01*
X018801Y020707D01*
X018744Y020743D01*
X018686Y020776D01*
X018625Y020806D01*
X018563Y020833D01*
X018499Y020857D01*
X018434Y020876D01*
X018369Y020893D01*
X018302Y020906D01*
X018235Y020915D01*
X018168Y020920D01*
X018100Y020922D01*
X018137Y020922D02*
X011350Y020922D01*
X011282Y020920D01*
X011215Y020915D01*
X011148Y020906D01*
X011081Y020893D01*
X011016Y020876D01*
X010951Y020857D01*
X010887Y020833D01*
X010825Y020806D01*
X010764Y020776D01*
X010706Y020743D01*
X010649Y020707D01*
X010594Y020667D01*
X010541Y020625D01*
X010490Y020579D01*
X010443Y020532D01*
X010397Y020481D01*
X010355Y020428D01*
X010315Y020373D01*
X010279Y020316D01*
X010246Y020258D01*
X010216Y020197D01*
X010189Y020135D01*
X010165Y020071D01*
X010146Y020006D01*
X010129Y019941D01*
X010116Y019874D01*
X010107Y019807D01*
X010102Y019740D01*
X010100Y019672D01*
X009350Y019672D02*
X009348Y019740D01*
X009343Y019807D01*
X009334Y019874D01*
X009321Y019941D01*
X009304Y020006D01*
X009285Y020071D01*
X009261Y020135D01*
X009234Y020197D01*
X009204Y020258D01*
X009171Y020316D01*
X009135Y020373D01*
X009095Y020428D01*
X009053Y020481D01*
X009007Y020532D01*
X008960Y020579D01*
X008909Y020625D01*
X008856Y020667D01*
X008801Y020707D01*
X008744Y020743D01*
X008686Y020776D01*
X008625Y020806D01*
X008563Y020833D01*
X008499Y020857D01*
X008434Y020876D01*
X008369Y020893D01*
X008302Y020906D01*
X008235Y020915D01*
X008168Y020920D01*
X008100Y020922D01*
X001350Y020922D01*
X001282Y020920D01*
X001215Y020915D01*
X001148Y020906D01*
X001081Y020893D01*
X001016Y020876D01*
X000951Y020857D01*
X000887Y020833D01*
X000825Y020806D01*
X000764Y020776D01*
X000706Y020743D01*
X000649Y020707D01*
X000594Y020667D01*
X000541Y020625D01*
X000490Y020579D01*
X000443Y020532D01*
X000397Y020481D01*
X000355Y020428D01*
X000315Y020373D01*
X000279Y020316D01*
X000246Y020258D01*
X000216Y020197D01*
X000189Y020135D01*
X000165Y020071D01*
X000146Y020006D01*
X000129Y019941D01*
X000116Y019874D01*
X000107Y019807D01*
X000102Y019740D01*
X000100Y019672D01*
X000100Y012922D01*
X000102Y012854D01*
X000107Y012787D01*
X000116Y012720D01*
X000129Y012653D01*
X000146Y012588D01*
X000165Y012523D01*
X000189Y012459D01*
X000216Y012397D01*
X000246Y012336D01*
X000279Y012278D01*
X000315Y012221D01*
X000355Y012166D01*
X000397Y012113D01*
X000443Y012062D01*
X000490Y012015D01*
X000541Y011969D01*
X000594Y011927D01*
X000649Y011887D01*
X000706Y011851D01*
X000764Y011818D01*
X000825Y011788D01*
X000887Y011761D01*
X000951Y011737D01*
X001016Y011718D01*
X001081Y011701D01*
X001148Y011688D01*
X001215Y011679D01*
X001282Y011674D01*
X001350Y011672D01*
X001492Y011229D02*
X001420Y011227D01*
X001348Y011221D01*
X001276Y011212D01*
X001205Y011199D01*
X001135Y011182D01*
X001066Y011162D01*
X000998Y011137D01*
X000932Y011110D01*
X000866Y011079D01*
X000803Y011044D01*
X000741Y011007D01*
X000682Y010966D01*
X000625Y010922D01*
X000570Y010875D01*
X000518Y010825D01*
X000468Y010773D01*
X000421Y010718D01*
X000377Y010661D01*
X000336Y010602D01*
X000299Y010540D01*
X000264Y010477D01*
X000233Y010411D01*
X000206Y010345D01*
X000181Y010277D01*
X000161Y010208D01*
X000144Y010138D01*
X000131Y010067D01*
X000122Y009995D01*
X000116Y009923D01*
X000114Y009851D01*
X000114Y009854D01*
X000114Y009851D02*
X000114Y003001D01*
X000114Y002958D01*
X000113Y003001D02*
X000114Y002928D01*
X000119Y002854D01*
X000127Y002782D01*
X000140Y002710D01*
X000156Y002638D01*
X000175Y002568D01*
X000199Y002498D01*
X000226Y002430D01*
X000257Y002364D01*
X000291Y002299D01*
X000328Y002236D01*
X000369Y002175D01*
X000412Y002117D01*
X000459Y002060D01*
X000509Y002006D01*
X000561Y001955D01*
X000616Y001907D01*
X000673Y001862D01*
X000733Y001819D01*
X000795Y001780D01*
X000859Y001744D01*
X000924Y001712D01*
X000992Y001683D01*
X001060Y001658D01*
X001130Y001636D01*
X001201Y001618D01*
X001273Y001603D01*
X001345Y001593D01*
X001418Y001586D01*
X001491Y001583D01*
X018027Y021072D02*
X018030Y021072D01*
D11*
X003747Y000557D02*
X003747Y000310D01*
X003870Y000433D02*
X003623Y000433D01*
M02*
