G75*
G70*
%OFA0B0*%
%FSLAX24Y24*%
%IPPOS*%
%LPD*%
%AMOC8*
5,1,8,0,0,1.08239X$1,22.5*
%
%ADD10C,0.0000*%
%ADD11R,0.0750X0.0750*%
%ADD12R,0.0591X0.0443*%
%ADD13R,0.0394X0.0394*%
%ADD14R,0.0394X0.0447*%
%ADD15R,0.0409X0.0394*%
%ADD16C,0.0000*%
%ADD17R,0.0750X0.0750*%
%ADD18R,0.0591X0.0443*%
%ADD19C,0.0000*%
%ADD20C,0.0926*%
%ADD21C,0.0512*%
%ADD22OC8,0.0780*%
%ADD23C,0.0808*%
%ADD24C,0.0520*%
%ADD25R,0.0780X0.0780*%
%ADD26C,0.0780*%
%ADD27C,0.0631*%
%ADD28C,0.1340*%
%ADD29OC8,0.1040*%
%ADD30R,0.0396X0.0396*%
%ADD31C,0.0000*%
%ADD32C,0.1290*%
%ADD33R,0.0540X0.0290*%
%ADD34R,0.0780X0.0780*%
%ADD35C,0.0780*%
%ADD36R,0.0396X0.0396*%
%ADD37C,0.0000*%
%ADD38C,0.1290*%
%ADD39R,0.0780X0.0780*%
%ADD40C,0.0780*%
%ADD41R,0.0276X0.0650*%
%ADD42R,0.0591X0.0434*%
%ADD43R,0.0355X0.0355*%
%ADD44R,0.0396X0.0396*%
%ADD45C,0.0780*%
%ADD46C,0.0977*%
%ADD47OC8,0.0520*%
%ADD48C,0.0808*%
%ADD49C,0.0000*%
%ADD50C,0.1300*%
%ADD51C,0.0000*%
%ADD52C,0.1300*%
%ADD53C,0.0977*%
%ADD54OC8,0.0520*%
%ADD55C,0.0780*%
%ADD56OC8,0.0580*%
%ADD57C,0.0640*%
%ADD58R,0.0396X0.0396*%
%ADD59C,0.0000*%
%ADD60C,0.1290*%
%ADD61R,0.0780X0.0780*%
%ADD62C,0.0780*%
%ADD63R,0.0280X0.0910*%
%ADD64R,0.0473X0.0434*%
%ADD65R,0.0670X0.0500*%
%ADD66R,0.0396X0.0396*%
%ADD67C,0.0000*%
%ADD68C,0.1290*%
%ADD69R,0.0780X0.0780*%
%ADD70C,0.0780*%
%ADD71R,0.0396X0.0396*%
%ADD72C,0.0000*%
%ADD73C,0.1290*%
%ADD74C,0.0780*%
%ADD75R,0.0780X0.0780*%
%ADD76R,0.0396X0.0396*%
%ADD77C,0.0000*%
%ADD78C,0.1290*%
%ADD79C,0.0160*%
%ADD80R,0.0780X0.0780*%
%ADD81C,0.0780*%
%ADD82R,0.0670X0.0500*%
%ADD83R,0.1600X0.1600*%
%ADD84R,0.1290X0.1290*%
%ADD85R,0.0396X0.0396*%
D10*
X000114Y001475D02*
X000114Y001517D01*
X000114Y008368D01*
X000114Y008371D01*
X000114Y008368D02*
X000116Y008440D01*
X000122Y008512D01*
X000131Y008584D01*
X000144Y008655D01*
X000161Y008725D01*
X000181Y008794D01*
X000206Y008862D01*
X000233Y008928D01*
X000264Y008994D01*
X000299Y009057D01*
X000336Y009119D01*
X000377Y009178D01*
X000421Y009235D01*
X000468Y009290D01*
X000518Y009342D01*
X000570Y009392D01*
X000625Y009439D01*
X000682Y009483D01*
X000741Y009524D01*
X000803Y009561D01*
X000866Y009596D01*
X000932Y009627D01*
X000998Y009654D01*
X001066Y009679D01*
X001135Y009699D01*
X001205Y009716D01*
X001276Y009729D01*
X001348Y009738D01*
X001420Y009744D01*
X001492Y009746D01*
X007397Y009746D01*
X007397Y010189D01*
X001350Y010189D01*
X001489Y009746D02*
X001492Y009746D01*
X001350Y010189D02*
X001282Y010191D01*
X001215Y010196D01*
X001148Y010205D01*
X001081Y010218D01*
X001016Y010235D01*
X000951Y010254D01*
X000887Y010278D01*
X000825Y010305D01*
X000764Y010335D01*
X000706Y010368D01*
X000649Y010404D01*
X000594Y010444D01*
X000541Y010486D01*
X000490Y010532D01*
X000443Y010579D01*
X000397Y010630D01*
X000355Y010683D01*
X000315Y010738D01*
X000279Y010795D01*
X000246Y010853D01*
X000216Y010914D01*
X000189Y010976D01*
X000165Y011040D01*
X000146Y011105D01*
X000129Y011170D01*
X000116Y011237D01*
X000107Y011304D01*
X000102Y011371D01*
X000100Y011439D01*
X000100Y018189D01*
X000102Y018257D01*
X000107Y018324D01*
X000116Y018391D01*
X000129Y018458D01*
X000146Y018523D01*
X000165Y018588D01*
X000189Y018652D01*
X000216Y018714D01*
X000246Y018775D01*
X000279Y018833D01*
X000315Y018890D01*
X000355Y018945D01*
X000397Y018998D01*
X000443Y019049D01*
X000490Y019096D01*
X000541Y019142D01*
X000594Y019184D01*
X000649Y019224D01*
X000706Y019260D01*
X000764Y019293D01*
X000825Y019323D01*
X000887Y019350D01*
X000951Y019374D01*
X001016Y019393D01*
X001081Y019410D01*
X001148Y019423D01*
X001215Y019432D01*
X001282Y019437D01*
X001350Y019439D01*
X008100Y019439D01*
X008168Y019437D01*
X008235Y019432D01*
X008302Y019423D01*
X008369Y019410D01*
X008434Y019393D01*
X008499Y019374D01*
X008563Y019350D01*
X008625Y019323D01*
X008686Y019293D01*
X008744Y019260D01*
X008801Y019224D01*
X008856Y019184D01*
X008909Y019142D01*
X008960Y019096D01*
X009007Y019049D01*
X009053Y018998D01*
X009095Y018945D01*
X009135Y018890D01*
X009171Y018833D01*
X009204Y018775D01*
X009234Y018714D01*
X009261Y018652D01*
X009285Y018588D01*
X009304Y018523D01*
X009321Y018458D01*
X009334Y018391D01*
X009343Y018324D01*
X009348Y018257D01*
X009350Y018189D01*
X009350Y012189D01*
X010100Y012189D01*
X010100Y018189D01*
X010102Y018257D01*
X010107Y018324D01*
X010116Y018391D01*
X010129Y018458D01*
X010146Y018523D01*
X010165Y018588D01*
X010189Y018652D01*
X010216Y018714D01*
X010246Y018775D01*
X010279Y018833D01*
X010315Y018890D01*
X010355Y018945D01*
X010397Y018998D01*
X010443Y019049D01*
X010490Y019096D01*
X010541Y019142D01*
X010594Y019184D01*
X010649Y019224D01*
X010706Y019260D01*
X010764Y019293D01*
X010825Y019323D01*
X010887Y019350D01*
X010951Y019374D01*
X011016Y019393D01*
X011081Y019410D01*
X011148Y019423D01*
X011215Y019432D01*
X011282Y019437D01*
X011350Y019439D01*
X018137Y019439D01*
X018030Y019588D02*
X018027Y019588D01*
X018224Y019785D02*
X001689Y019785D01*
X001612Y019787D01*
X001535Y019793D01*
X001458Y019802D01*
X001382Y019815D01*
X001306Y019832D01*
X001232Y019853D01*
X001158Y019877D01*
X001086Y019905D01*
X001016Y019936D01*
X000947Y019971D01*
X000879Y020009D01*
X000814Y020050D01*
X000751Y020095D01*
X000690Y020143D01*
X000631Y020193D01*
X000575Y020246D01*
X000522Y020302D01*
X000472Y020361D01*
X000424Y020422D01*
X000379Y020485D01*
X000338Y020550D01*
X000300Y020618D01*
X000265Y020687D01*
X000234Y020757D01*
X000206Y020829D01*
X000182Y020903D01*
X000161Y020977D01*
X000144Y021053D01*
X000131Y021129D01*
X000122Y021206D01*
X000116Y021283D01*
X000114Y021360D01*
X000114Y037895D01*
X000116Y037972D01*
X000122Y038049D01*
X000131Y038126D01*
X000144Y038202D01*
X000161Y038278D01*
X000182Y038352D01*
X000206Y038426D01*
X000234Y038498D01*
X000265Y038568D01*
X000300Y038637D01*
X000338Y038705D01*
X000379Y038770D01*
X000424Y038833D01*
X000472Y038894D01*
X000522Y038953D01*
X000575Y039009D01*
X000631Y039062D01*
X000690Y039112D01*
X000751Y039160D01*
X000814Y039205D01*
X000879Y039246D01*
X000947Y039284D01*
X001016Y039319D01*
X001086Y039350D01*
X001158Y039378D01*
X001232Y039402D01*
X001306Y039423D01*
X001382Y039440D01*
X001458Y039453D01*
X001535Y039462D01*
X001612Y039468D01*
X001689Y039470D01*
X018224Y039470D01*
X018301Y039468D01*
X018378Y039462D01*
X018455Y039453D01*
X018531Y039440D01*
X018607Y039423D01*
X018681Y039402D01*
X018755Y039378D01*
X018827Y039350D01*
X018897Y039319D01*
X018966Y039284D01*
X019034Y039246D01*
X019099Y039205D01*
X019162Y039160D01*
X019223Y039112D01*
X019282Y039062D01*
X019338Y039009D01*
X019391Y038953D01*
X019441Y038894D01*
X019489Y038833D01*
X019534Y038770D01*
X019575Y038705D01*
X019613Y038637D01*
X019648Y038568D01*
X019679Y038498D01*
X019707Y038426D01*
X019731Y038352D01*
X019752Y038278D01*
X019769Y038202D01*
X019782Y038126D01*
X019791Y038049D01*
X019797Y037972D01*
X019799Y037895D01*
X019799Y022147D01*
X020208Y022147D01*
X020208Y028232D01*
X020210Y028300D01*
X020215Y028367D01*
X020224Y028434D01*
X020237Y028501D01*
X020254Y028566D01*
X020273Y028631D01*
X020297Y028695D01*
X020324Y028757D01*
X020354Y028818D01*
X020387Y028876D01*
X020423Y028933D01*
X020463Y028988D01*
X020505Y029041D01*
X020551Y029092D01*
X020598Y029139D01*
X020649Y029185D01*
X020702Y029227D01*
X020757Y029267D01*
X020814Y029303D01*
X020872Y029336D01*
X020933Y029366D01*
X020995Y029393D01*
X021059Y029417D01*
X021124Y029436D01*
X021189Y029453D01*
X021256Y029466D01*
X021323Y029475D01*
X021390Y029480D01*
X021458Y029482D01*
X021458Y030232D01*
X022208Y030232D02*
X022208Y029482D01*
X028208Y029482D01*
X028208Y030232D02*
X022208Y030232D01*
X021458Y030232D02*
X021392Y030230D01*
X021326Y030232D01*
X021260Y030238D01*
X021194Y030247D01*
X021129Y030260D01*
X021064Y030277D01*
X021001Y030297D01*
X020939Y030321D01*
X020879Y030348D01*
X020820Y030379D01*
X020762Y030413D01*
X020707Y030450D01*
X020654Y030490D01*
X020604Y030533D01*
X020555Y030578D01*
X020510Y030627D01*
X020467Y030677D01*
X020427Y030730D01*
X020390Y030785D01*
X020356Y030843D01*
X020325Y030902D01*
X020298Y030962D01*
X020274Y031024D01*
X020254Y031087D01*
X020237Y031152D01*
X020224Y031217D01*
X020215Y031283D01*
X020209Y031349D01*
X020207Y031415D01*
X020209Y031481D01*
X020208Y031482D02*
X020208Y038232D01*
X020210Y038300D01*
X020215Y038367D01*
X020224Y038434D01*
X020237Y038501D01*
X020254Y038566D01*
X020273Y038631D01*
X020297Y038695D01*
X020324Y038757D01*
X020354Y038818D01*
X020387Y038876D01*
X020423Y038933D01*
X020463Y038988D01*
X020505Y039041D01*
X020551Y039092D01*
X020598Y039139D01*
X020649Y039185D01*
X020702Y039227D01*
X020757Y039267D01*
X020814Y039303D01*
X020872Y039336D01*
X020933Y039366D01*
X020995Y039393D01*
X021059Y039417D01*
X021124Y039436D01*
X021189Y039453D01*
X021256Y039466D01*
X021323Y039475D01*
X021390Y039480D01*
X021458Y039482D01*
X028208Y039482D01*
X028276Y039480D01*
X028343Y039475D01*
X028410Y039466D01*
X028477Y039453D01*
X028542Y039436D01*
X028607Y039417D01*
X028671Y039393D01*
X028733Y039366D01*
X028794Y039336D01*
X028852Y039303D01*
X028909Y039267D01*
X028964Y039227D01*
X029017Y039185D01*
X029068Y039139D01*
X029115Y039092D01*
X029161Y039041D01*
X029203Y038988D01*
X029243Y038933D01*
X029279Y038876D01*
X029312Y038818D01*
X029342Y038757D01*
X029369Y038695D01*
X029393Y038631D01*
X029412Y038566D01*
X029429Y038501D01*
X029442Y038434D01*
X029451Y038367D01*
X029456Y038300D01*
X029458Y038232D01*
X029458Y031482D01*
X030208Y031482D02*
X030208Y038232D01*
X030210Y038300D01*
X030215Y038367D01*
X030224Y038434D01*
X030237Y038501D01*
X030254Y038566D01*
X030273Y038631D01*
X030297Y038695D01*
X030324Y038757D01*
X030354Y038818D01*
X030387Y038876D01*
X030423Y038933D01*
X030463Y038988D01*
X030505Y039041D01*
X030551Y039092D01*
X030598Y039139D01*
X030649Y039185D01*
X030702Y039227D01*
X030757Y039267D01*
X030814Y039303D01*
X030872Y039336D01*
X030933Y039366D01*
X030995Y039393D01*
X031059Y039417D01*
X031124Y039436D01*
X031189Y039453D01*
X031256Y039466D01*
X031323Y039475D01*
X031390Y039480D01*
X031458Y039482D01*
X038208Y039482D01*
X038276Y039480D01*
X038343Y039475D01*
X038410Y039466D01*
X038477Y039453D01*
X038542Y039436D01*
X038607Y039417D01*
X038671Y039393D01*
X038733Y039366D01*
X038794Y039336D01*
X038852Y039303D01*
X038909Y039267D01*
X038964Y039227D01*
X039017Y039185D01*
X039068Y039139D01*
X039115Y039092D01*
X039161Y039041D01*
X039203Y038988D01*
X039243Y038933D01*
X039279Y038876D01*
X039312Y038818D01*
X039342Y038757D01*
X039369Y038695D01*
X039393Y038631D01*
X039412Y038566D01*
X039429Y038501D01*
X039442Y038434D01*
X039451Y038367D01*
X039456Y038300D01*
X039458Y038232D01*
X039458Y031482D01*
X039456Y031414D01*
X039451Y031347D01*
X039442Y031280D01*
X039429Y031213D01*
X039412Y031148D01*
X039393Y031083D01*
X039369Y031019D01*
X039342Y030957D01*
X039312Y030896D01*
X039279Y030838D01*
X039243Y030781D01*
X039203Y030726D01*
X039161Y030673D01*
X039115Y030622D01*
X039068Y030575D01*
X039017Y030529D01*
X038964Y030487D01*
X038909Y030447D01*
X038852Y030411D01*
X038794Y030378D01*
X038733Y030348D01*
X038671Y030321D01*
X038607Y030297D01*
X038542Y030278D01*
X038477Y030261D01*
X038410Y030248D01*
X038343Y030239D01*
X038276Y030234D01*
X038208Y030232D01*
X038208Y029482D01*
X037458Y029482D02*
X037458Y030232D01*
X031458Y030232D01*
X031458Y029482D02*
X037458Y029482D01*
X038208Y029482D02*
X038276Y029480D01*
X038343Y029475D01*
X038410Y029466D01*
X038477Y029453D01*
X038542Y029436D01*
X038607Y029417D01*
X038671Y029393D01*
X038733Y029366D01*
X038794Y029336D01*
X038852Y029303D01*
X038909Y029267D01*
X038964Y029227D01*
X039017Y029185D01*
X039068Y029139D01*
X039115Y029092D01*
X039161Y029041D01*
X039203Y028988D01*
X039243Y028933D01*
X039279Y028876D01*
X039312Y028818D01*
X039342Y028757D01*
X039369Y028695D01*
X039393Y028631D01*
X039412Y028566D01*
X039429Y028501D01*
X039442Y028434D01*
X039451Y028367D01*
X039456Y028300D01*
X039458Y028232D01*
X039458Y021482D01*
X039456Y021414D01*
X039451Y021347D01*
X039442Y021280D01*
X039429Y021213D01*
X039412Y021148D01*
X039393Y021083D01*
X039369Y021019D01*
X039342Y020957D01*
X039312Y020896D01*
X039279Y020838D01*
X039243Y020781D01*
X039203Y020726D01*
X039161Y020673D01*
X039115Y020622D01*
X039068Y020575D01*
X039017Y020529D01*
X038964Y020487D01*
X038909Y020447D01*
X038852Y020411D01*
X038794Y020378D01*
X038733Y020348D01*
X038671Y020321D01*
X038607Y020297D01*
X038542Y020278D01*
X038477Y020261D01*
X038410Y020248D01*
X038343Y020239D01*
X038276Y020234D01*
X038208Y020232D01*
X031458Y020232D01*
X031392Y020230D01*
X031326Y020232D01*
X031260Y020238D01*
X031194Y020247D01*
X031129Y020260D01*
X031064Y020277D01*
X031001Y020297D01*
X030939Y020321D01*
X030879Y020348D01*
X030820Y020379D01*
X030762Y020413D01*
X030707Y020450D01*
X030654Y020490D01*
X030604Y020533D01*
X030555Y020578D01*
X030510Y020627D01*
X030467Y020677D01*
X030427Y020730D01*
X030390Y020785D01*
X030356Y020843D01*
X030325Y020902D01*
X030298Y020962D01*
X030274Y021024D01*
X030254Y021087D01*
X030237Y021152D01*
X030224Y021217D01*
X030215Y021283D01*
X030209Y021349D01*
X030207Y021415D01*
X030209Y021481D01*
X030208Y021482D02*
X029458Y021482D01*
X029458Y022232D02*
X029458Y028232D01*
X030208Y028232D02*
X030208Y022232D01*
X029458Y022232D01*
X029458Y021482D02*
X029456Y021414D01*
X029451Y021347D01*
X029442Y021280D01*
X029429Y021213D01*
X029412Y021148D01*
X029393Y021083D01*
X029369Y021019D01*
X029342Y020957D01*
X029312Y020896D01*
X029279Y020838D01*
X029243Y020781D01*
X029203Y020726D01*
X029161Y020673D01*
X029115Y020622D01*
X029068Y020575D01*
X029017Y020529D01*
X028964Y020487D01*
X028909Y020447D01*
X028852Y020411D01*
X028794Y020378D01*
X028733Y020348D01*
X028671Y020321D01*
X028607Y020297D01*
X028542Y020278D01*
X028477Y020261D01*
X028410Y020248D01*
X028343Y020239D01*
X028276Y020234D01*
X028208Y020232D01*
X022161Y020232D01*
X022161Y019785D01*
X037909Y019785D01*
X037986Y019783D01*
X038063Y019777D01*
X038140Y019768D01*
X038216Y019755D01*
X038292Y019738D01*
X038366Y019717D01*
X038440Y019693D01*
X038512Y019665D01*
X038582Y019634D01*
X038651Y019599D01*
X038719Y019561D01*
X038784Y019520D01*
X038847Y019475D01*
X038908Y019427D01*
X038967Y019377D01*
X039023Y019324D01*
X039076Y019268D01*
X039126Y019209D01*
X039174Y019148D01*
X039219Y019085D01*
X039260Y019020D01*
X039298Y018952D01*
X039333Y018883D01*
X039364Y018813D01*
X039392Y018741D01*
X039416Y018667D01*
X039437Y018593D01*
X039454Y018517D01*
X039467Y018441D01*
X039476Y018364D01*
X039482Y018287D01*
X039484Y018210D01*
X039484Y001675D01*
X039482Y001598D01*
X039476Y001521D01*
X039467Y001444D01*
X039454Y001368D01*
X039437Y001292D01*
X039416Y001218D01*
X039392Y001144D01*
X039364Y001072D01*
X039333Y001002D01*
X039298Y000933D01*
X039260Y000865D01*
X039219Y000800D01*
X039174Y000737D01*
X039126Y000676D01*
X039076Y000617D01*
X039023Y000561D01*
X038967Y000508D01*
X038908Y000458D01*
X038847Y000410D01*
X038784Y000365D01*
X038719Y000324D01*
X038651Y000286D01*
X038582Y000251D01*
X038512Y000220D01*
X038440Y000192D01*
X038366Y000168D01*
X038292Y000147D01*
X038216Y000130D01*
X038140Y000117D01*
X038063Y000108D01*
X037986Y000102D01*
X037909Y000100D01*
X021374Y000100D01*
X021297Y000102D01*
X021220Y000108D01*
X021143Y000117D01*
X021067Y000130D01*
X020991Y000147D01*
X020917Y000168D01*
X020843Y000192D01*
X020771Y000220D01*
X020701Y000251D01*
X020632Y000286D01*
X020564Y000324D01*
X020499Y000365D01*
X020436Y000410D01*
X020375Y000458D01*
X020316Y000508D01*
X020260Y000561D01*
X020207Y000617D01*
X020157Y000676D01*
X020109Y000737D01*
X020064Y000800D01*
X020023Y000865D01*
X019985Y000933D01*
X019950Y001002D01*
X019919Y001072D01*
X019891Y001144D01*
X019867Y001218D01*
X019846Y001292D01*
X019829Y001368D01*
X019816Y001444D01*
X019807Y001521D01*
X019801Y001598D01*
X019799Y001675D01*
X019799Y007580D01*
X019405Y007580D01*
X019405Y001478D01*
X019403Y001406D01*
X019397Y001334D01*
X019388Y001262D01*
X019375Y001191D01*
X019358Y001121D01*
X019338Y001052D01*
X019313Y000984D01*
X019286Y000918D01*
X019255Y000852D01*
X019220Y000789D01*
X019183Y000727D01*
X019142Y000668D01*
X019098Y000611D01*
X019051Y000556D01*
X019001Y000504D01*
X018949Y000454D01*
X018894Y000407D01*
X018837Y000363D01*
X018778Y000322D01*
X018716Y000285D01*
X018653Y000250D01*
X018587Y000219D01*
X018521Y000192D01*
X018453Y000167D01*
X018384Y000147D01*
X018314Y000130D01*
X018243Y000117D01*
X018171Y000108D01*
X018099Y000102D01*
X018027Y000100D01*
X018030Y000100D01*
X018027Y000100D02*
X001492Y000100D01*
X001489Y000100D01*
X001491Y000100D02*
X001418Y000103D01*
X001345Y000110D01*
X001273Y000120D01*
X001201Y000135D01*
X001130Y000153D01*
X001060Y000175D01*
X000992Y000200D01*
X000924Y000229D01*
X000859Y000261D01*
X000795Y000297D01*
X000733Y000336D01*
X000673Y000379D01*
X000616Y000424D01*
X000561Y000472D01*
X000509Y000523D01*
X000459Y000577D01*
X000412Y000634D01*
X000369Y000692D01*
X000328Y000753D01*
X000291Y000816D01*
X000257Y000881D01*
X000226Y000947D01*
X000199Y001015D01*
X000175Y001085D01*
X000156Y001155D01*
X000140Y001227D01*
X000127Y001299D01*
X000119Y001371D01*
X000114Y001445D01*
X000113Y001518D01*
X007988Y009746D02*
X018027Y009746D01*
X018421Y009746D02*
X018424Y009746D01*
X018100Y010189D02*
X011350Y010189D01*
X011282Y010191D01*
X011215Y010196D01*
X011148Y010205D01*
X011081Y010218D01*
X011016Y010235D01*
X010951Y010254D01*
X010887Y010278D01*
X010825Y010305D01*
X010764Y010335D01*
X010706Y010368D01*
X010649Y010404D01*
X010594Y010444D01*
X010541Y010486D01*
X010490Y010532D01*
X010443Y010579D01*
X010397Y010630D01*
X010355Y010683D01*
X010315Y010738D01*
X010279Y010795D01*
X010246Y010853D01*
X010216Y010914D01*
X010189Y010976D01*
X010165Y011040D01*
X010146Y011105D01*
X010129Y011170D01*
X010116Y011237D01*
X010107Y011304D01*
X010102Y011371D01*
X010100Y011439D01*
X009350Y011439D01*
X009349Y011438D02*
X009351Y011372D01*
X009349Y011306D01*
X009343Y011240D01*
X009334Y011174D01*
X009321Y011109D01*
X009304Y011044D01*
X009284Y010981D01*
X009260Y010919D01*
X009233Y010859D01*
X009202Y010800D01*
X009168Y010742D01*
X009131Y010687D01*
X009091Y010634D01*
X009048Y010584D01*
X009003Y010535D01*
X008954Y010490D01*
X008904Y010447D01*
X008851Y010407D01*
X008796Y010370D01*
X008738Y010336D01*
X008679Y010305D01*
X008619Y010278D01*
X008557Y010254D01*
X008494Y010234D01*
X008429Y010217D01*
X008364Y010204D01*
X008298Y010195D01*
X008232Y010189D01*
X008166Y010187D01*
X008100Y010189D01*
X007988Y010189D01*
X007988Y009746D01*
X018027Y009746D02*
X018099Y009744D01*
X018171Y009738D01*
X018243Y009729D01*
X018314Y009716D01*
X018384Y009699D01*
X018453Y009679D01*
X018521Y009654D01*
X018587Y009627D01*
X018653Y009596D01*
X018716Y009561D01*
X018778Y009524D01*
X018837Y009483D01*
X018894Y009439D01*
X018949Y009392D01*
X019001Y009342D01*
X019051Y009290D01*
X019098Y009235D01*
X019142Y009178D01*
X019183Y009119D01*
X019220Y009057D01*
X019255Y008994D01*
X019286Y008928D01*
X019313Y008862D01*
X019338Y008794D01*
X019358Y008725D01*
X019375Y008655D01*
X019388Y008584D01*
X019397Y008512D01*
X019403Y008440D01*
X019405Y008368D01*
X019405Y007974D01*
X019799Y007974D01*
X019799Y018210D01*
X019350Y018189D02*
X019350Y011439D01*
X019349Y011438D02*
X019351Y011372D01*
X019349Y011306D01*
X019343Y011240D01*
X019334Y011174D01*
X019321Y011109D01*
X019304Y011044D01*
X019284Y010981D01*
X019260Y010919D01*
X019233Y010859D01*
X019202Y010800D01*
X019168Y010742D01*
X019131Y010687D01*
X019091Y010634D01*
X019048Y010584D01*
X019003Y010535D01*
X018954Y010490D01*
X018904Y010447D01*
X018851Y010407D01*
X018796Y010370D01*
X018738Y010336D01*
X018679Y010305D01*
X018619Y010278D01*
X018557Y010254D01*
X018494Y010234D01*
X018429Y010217D01*
X018364Y010204D01*
X018298Y010195D01*
X018232Y010189D01*
X018166Y010187D01*
X018100Y010189D01*
X019350Y018189D02*
X019348Y018257D01*
X019343Y018324D01*
X019334Y018391D01*
X019321Y018458D01*
X019304Y018523D01*
X019285Y018588D01*
X019261Y018652D01*
X019234Y018714D01*
X019204Y018775D01*
X019171Y018833D01*
X019135Y018890D01*
X019095Y018945D01*
X019053Y018998D01*
X019007Y019049D01*
X018960Y019096D01*
X018909Y019142D01*
X018856Y019184D01*
X018801Y019224D01*
X018744Y019260D01*
X018686Y019293D01*
X018625Y019323D01*
X018563Y019350D01*
X018499Y019374D01*
X018434Y019393D01*
X018369Y019410D01*
X018302Y019423D01*
X018235Y019432D01*
X018168Y019437D01*
X018100Y019439D01*
X018224Y019785D02*
X018301Y019787D01*
X018378Y019793D01*
X018455Y019802D01*
X018531Y019815D01*
X018607Y019832D01*
X018681Y019853D01*
X018755Y019877D01*
X018827Y019905D01*
X018897Y019936D01*
X018966Y019971D01*
X019034Y020009D01*
X019099Y020050D01*
X019162Y020095D01*
X019223Y020143D01*
X019282Y020193D01*
X019338Y020246D01*
X019391Y020302D01*
X019441Y020361D01*
X019489Y020422D01*
X019534Y020485D01*
X019575Y020550D01*
X019613Y020618D01*
X019648Y020687D01*
X019679Y020757D01*
X019707Y020829D01*
X019731Y020903D01*
X019752Y020977D01*
X019769Y021053D01*
X019782Y021129D01*
X019791Y021206D01*
X019797Y021283D01*
X019799Y021360D01*
X019799Y021754D01*
X020208Y021754D01*
X020208Y021482D01*
X020209Y021481D02*
X020207Y021415D01*
X020209Y021349D01*
X020215Y021283D01*
X020224Y021217D01*
X020237Y021152D01*
X020254Y021087D01*
X020274Y021024D01*
X020298Y020962D01*
X020325Y020902D01*
X020356Y020843D01*
X020390Y020785D01*
X020427Y020730D01*
X020467Y020677D01*
X020510Y020627D01*
X020555Y020578D01*
X020604Y020533D01*
X020654Y020490D01*
X020707Y020450D01*
X020762Y020413D01*
X020820Y020379D01*
X020879Y020348D01*
X020939Y020321D01*
X021001Y020297D01*
X021064Y020277D01*
X021129Y020260D01*
X021194Y020247D01*
X021260Y020238D01*
X021326Y020232D01*
X021392Y020230D01*
X021458Y020232D01*
X021767Y020232D01*
X021767Y019785D01*
X021374Y019785D01*
X021297Y019783D01*
X021220Y019777D01*
X021143Y019768D01*
X021067Y019755D01*
X020991Y019738D01*
X020917Y019717D01*
X020843Y019693D01*
X020771Y019665D01*
X020701Y019634D01*
X020632Y019599D01*
X020564Y019561D01*
X020499Y019520D01*
X020436Y019475D01*
X020375Y019427D01*
X020316Y019377D01*
X020260Y019324D01*
X020207Y019268D01*
X020157Y019209D01*
X020109Y019148D01*
X020064Y019085D01*
X020023Y019020D01*
X019985Y018952D01*
X019950Y018883D01*
X019919Y018813D01*
X019891Y018741D01*
X019867Y018667D01*
X019846Y018593D01*
X019829Y018517D01*
X019816Y018441D01*
X019807Y018364D01*
X019801Y018287D01*
X019799Y018210D01*
X029458Y028232D02*
X029456Y028300D01*
X029451Y028367D01*
X029442Y028434D01*
X029429Y028501D01*
X029412Y028566D01*
X029393Y028631D01*
X029369Y028695D01*
X029342Y028757D01*
X029312Y028818D01*
X029279Y028876D01*
X029243Y028933D01*
X029203Y028988D01*
X029161Y029041D01*
X029115Y029092D01*
X029068Y029139D01*
X029017Y029185D01*
X028964Y029227D01*
X028909Y029267D01*
X028852Y029303D01*
X028794Y029336D01*
X028733Y029366D01*
X028671Y029393D01*
X028607Y029417D01*
X028542Y029436D01*
X028477Y029453D01*
X028410Y029466D01*
X028343Y029475D01*
X028276Y029480D01*
X028208Y029482D01*
X028208Y030232D02*
X028276Y030234D01*
X028343Y030239D01*
X028410Y030248D01*
X028477Y030261D01*
X028542Y030278D01*
X028607Y030297D01*
X028671Y030321D01*
X028733Y030348D01*
X028794Y030378D01*
X028852Y030411D01*
X028909Y030447D01*
X028964Y030487D01*
X029017Y030529D01*
X029068Y030575D01*
X029115Y030622D01*
X029161Y030673D01*
X029203Y030726D01*
X029243Y030781D01*
X029279Y030838D01*
X029312Y030896D01*
X029342Y030957D01*
X029369Y031019D01*
X029393Y031083D01*
X029412Y031148D01*
X029429Y031213D01*
X029442Y031280D01*
X029451Y031347D01*
X029456Y031414D01*
X029458Y031482D01*
X030209Y031481D02*
X030207Y031415D01*
X030209Y031349D01*
X030215Y031283D01*
X030224Y031217D01*
X030237Y031152D01*
X030254Y031087D01*
X030274Y031024D01*
X030298Y030962D01*
X030325Y030902D01*
X030356Y030843D01*
X030390Y030785D01*
X030427Y030730D01*
X030467Y030677D01*
X030510Y030627D01*
X030555Y030578D01*
X030604Y030533D01*
X030654Y030490D01*
X030707Y030450D01*
X030762Y030413D01*
X030820Y030379D01*
X030879Y030348D01*
X030939Y030321D01*
X031001Y030297D01*
X031064Y030277D01*
X031129Y030260D01*
X031194Y030247D01*
X031260Y030238D01*
X031326Y030232D01*
X031392Y030230D01*
X031458Y030232D01*
X031458Y029482D02*
X031390Y029480D01*
X031323Y029475D01*
X031256Y029466D01*
X031189Y029453D01*
X031124Y029436D01*
X031059Y029417D01*
X030995Y029393D01*
X030933Y029366D01*
X030872Y029336D01*
X030814Y029303D01*
X030757Y029267D01*
X030702Y029227D01*
X030649Y029185D01*
X030598Y029139D01*
X030551Y029092D01*
X030505Y029041D01*
X030463Y028988D01*
X030423Y028933D01*
X030387Y028876D01*
X030354Y028818D01*
X030324Y028757D01*
X030297Y028695D01*
X030273Y028631D01*
X030254Y028566D01*
X030237Y028501D01*
X030224Y028434D01*
X030215Y028367D01*
X030210Y028300D01*
X030208Y028232D01*
D11*
X029833Y021857D03*
X021833Y029857D03*
X037833Y029857D03*
X009725Y011814D03*
D12*
X007693Y009967D03*
D13*
X019602Y007777D03*
D14*
X021964Y020008D03*
D15*
X020004Y021950D03*
D16*
X1489Y100D02*
X1492Y100D01*
X18027Y100D01*
X18030Y100D01*
X18027Y100D02*
X18099Y102D01*
X18171Y108D01*
X18243Y117D01*
X18314Y130D01*
X18384Y147D01*
X18453Y167D01*
X18521Y192D01*
X18587Y219D01*
X18653Y250D01*
X18716Y285D01*
X18778Y322D01*
X18837Y363D01*
X18894Y407D01*
X18949Y454D01*
X19001Y504D01*
X19051Y556D01*
X19098Y611D01*
X19142Y668D01*
X19183Y727D01*
X19220Y789D01*
X19255Y852D01*
X19286Y918D01*
X19313Y984D01*
X19338Y1052D01*
X19358Y1121D01*
X19375Y1191D01*
X19388Y1262D01*
X19397Y1334D01*
X19403Y1406D01*
X19405Y1478D01*
X19405Y8368D01*
X19403Y8440D01*
X19397Y8512D01*
X19388Y8584D01*
X19375Y8655D01*
X19358Y8725D01*
X19338Y8794D01*
X19313Y8862D01*
X19286Y8928D01*
X19255Y8994D01*
X19220Y9057D01*
X19183Y9119D01*
X19142Y9178D01*
X19098Y9235D01*
X19051Y9290D01*
X19001Y9342D01*
X18949Y9392D01*
X18894Y9439D01*
X18837Y9483D01*
X18778Y9524D01*
X18716Y9561D01*
X18653Y9596D01*
X18587Y9627D01*
X18521Y9654D01*
X18453Y9679D01*
X18384Y9699D01*
X18314Y9716D01*
X18243Y9729D01*
X18171Y9738D01*
X18099Y9744D01*
X18027Y9746D01*
X7988Y9746D01*
X7988Y10189D01*
X8100Y10189D01*
X7397Y10189D02*
X7397Y9746D01*
X1492Y9746D01*
X1489Y9746D01*
X1350Y10189D02*
X7397Y10189D01*
X8100Y10189D02*
X8166Y10187D01*
X8232Y10189D01*
X8298Y10195D01*
X8364Y10204D01*
X8429Y10217D01*
X8494Y10234D01*
X8557Y10254D01*
X8619Y10278D01*
X8679Y10305D01*
X8738Y10336D01*
X8796Y10370D01*
X8851Y10407D01*
X8904Y10447D01*
X8954Y10490D01*
X9003Y10535D01*
X9048Y10584D01*
X9091Y10634D01*
X9131Y10687D01*
X9168Y10742D01*
X9202Y10800D01*
X9233Y10859D01*
X9260Y10919D01*
X9284Y10981D01*
X9304Y11044D01*
X9321Y11109D01*
X9334Y11174D01*
X9343Y11240D01*
X9349Y11306D01*
X9351Y11372D01*
X9349Y11438D01*
X9350Y11439D02*
X10100Y11439D01*
X10100Y12189D02*
X10100Y18189D01*
X9350Y18189D02*
X9350Y12189D01*
X10100Y12189D01*
X10100Y11439D02*
X10102Y11371D01*
X10107Y11304D01*
X10116Y11237D01*
X10129Y11170D01*
X10146Y11105D01*
X10165Y11040D01*
X10189Y10976D01*
X10216Y10914D01*
X10246Y10853D01*
X10279Y10795D01*
X10315Y10738D01*
X10355Y10683D01*
X10397Y10630D01*
X10443Y10579D01*
X10490Y10532D01*
X10541Y10486D01*
X10594Y10444D01*
X10649Y10404D01*
X10706Y10368D01*
X10764Y10335D01*
X10825Y10305D01*
X10887Y10278D01*
X10951Y10254D01*
X11016Y10235D01*
X11081Y10218D01*
X11148Y10205D01*
X11215Y10196D01*
X11282Y10191D01*
X11350Y10189D01*
X18100Y10189D01*
X18421Y9746D02*
X18424Y9746D01*
X18100Y10189D02*
X18166Y10187D01*
X18232Y10189D01*
X18298Y10195D01*
X18364Y10204D01*
X18429Y10217D01*
X18494Y10234D01*
X18557Y10254D01*
X18619Y10278D01*
X18679Y10305D01*
X18738Y10336D01*
X18796Y10370D01*
X18851Y10407D01*
X18904Y10447D01*
X18954Y10490D01*
X19003Y10535D01*
X19048Y10584D01*
X19091Y10634D01*
X19131Y10687D01*
X19168Y10742D01*
X19202Y10800D01*
X19233Y10859D01*
X19260Y10919D01*
X19284Y10981D01*
X19304Y11044D01*
X19321Y11109D01*
X19334Y11174D01*
X19343Y11240D01*
X19349Y11306D01*
X19351Y11372D01*
X19349Y11438D01*
X19350Y11439D02*
X19350Y18189D01*
X19348Y18257D01*
X19343Y18324D01*
X19334Y18391D01*
X19321Y18458D01*
X19304Y18523D01*
X19285Y18588D01*
X19261Y18652D01*
X19234Y18714D01*
X19204Y18775D01*
X19171Y18833D01*
X19135Y18890D01*
X19095Y18945D01*
X19053Y18998D01*
X19007Y19049D01*
X18960Y19096D01*
X18909Y19142D01*
X18856Y19184D01*
X18801Y19224D01*
X18744Y19260D01*
X18686Y19293D01*
X18625Y19323D01*
X18563Y19350D01*
X18499Y19374D01*
X18434Y19393D01*
X18369Y19410D01*
X18302Y19423D01*
X18235Y19432D01*
X18168Y19437D01*
X18100Y19439D01*
X18137Y19439D02*
X11350Y19439D01*
X11282Y19437D01*
X11215Y19432D01*
X11148Y19423D01*
X11081Y19410D01*
X11016Y19393D01*
X10951Y19374D01*
X10887Y19350D01*
X10825Y19323D01*
X10764Y19293D01*
X10706Y19260D01*
X10649Y19224D01*
X10594Y19184D01*
X10541Y19142D01*
X10490Y19096D01*
X10443Y19049D01*
X10397Y18998D01*
X10355Y18945D01*
X10315Y18890D01*
X10279Y18833D01*
X10246Y18775D01*
X10216Y18714D01*
X10189Y18652D01*
X10165Y18588D01*
X10146Y18523D01*
X10129Y18458D01*
X10116Y18391D01*
X10107Y18324D01*
X10102Y18257D01*
X10100Y18189D01*
X9350Y18189D02*
X9348Y18257D01*
X9343Y18324D01*
X9334Y18391D01*
X9321Y18458D01*
X9304Y18523D01*
X9285Y18588D01*
X9261Y18652D01*
X9234Y18714D01*
X9204Y18775D01*
X9171Y18833D01*
X9135Y18890D01*
X9095Y18945D01*
X9053Y18998D01*
X9007Y19049D01*
X8960Y19096D01*
X8909Y19142D01*
X8856Y19184D01*
X8801Y19224D01*
X8744Y19260D01*
X8686Y19293D01*
X8625Y19323D01*
X8563Y19350D01*
X8499Y19374D01*
X8434Y19393D01*
X8369Y19410D01*
X8302Y19423D01*
X8235Y19432D01*
X8168Y19437D01*
X8100Y19439D01*
X1350Y19439D01*
X1282Y19437D01*
X1215Y19432D01*
X1148Y19423D01*
X1081Y19410D01*
X1016Y19393D01*
X951Y19374D01*
X887Y19350D01*
X825Y19323D01*
X764Y19293D01*
X706Y19260D01*
X649Y19224D01*
X594Y19184D01*
X541Y19142D01*
X490Y19096D01*
X443Y19049D01*
X397Y18998D01*
X355Y18945D01*
X315Y18890D01*
X279Y18833D01*
X246Y18775D01*
X216Y18714D01*
X189Y18652D01*
X165Y18588D01*
X146Y18523D01*
X129Y18458D01*
X116Y18391D01*
X107Y18324D01*
X102Y18257D01*
X100Y18189D01*
X100Y11439D01*
X102Y11371D01*
X107Y11304D01*
X116Y11237D01*
X129Y11170D01*
X146Y11105D01*
X165Y11040D01*
X189Y10976D01*
X216Y10914D01*
X246Y10853D01*
X279Y10795D01*
X315Y10738D01*
X355Y10683D01*
X397Y10630D01*
X443Y10579D01*
X490Y10532D01*
X541Y10486D01*
X594Y10444D01*
X649Y10404D01*
X706Y10368D01*
X764Y10335D01*
X825Y10305D01*
X887Y10278D01*
X951Y10254D01*
X1016Y10235D01*
X1081Y10218D01*
X1148Y10205D01*
X1215Y10196D01*
X1282Y10191D01*
X1350Y10189D01*
X1492Y9746D02*
X1420Y9744D01*
X1348Y9738D01*
X1276Y9729D01*
X1205Y9716D01*
X1135Y9699D01*
X1066Y9679D01*
X998Y9654D01*
X932Y9627D01*
X866Y9596D01*
X803Y9561D01*
X741Y9524D01*
X682Y9483D01*
X625Y9439D01*
X570Y9392D01*
X518Y9342D01*
X468Y9290D01*
X421Y9235D01*
X377Y9178D01*
X336Y9119D01*
X299Y9057D01*
X264Y8994D01*
X233Y8928D01*
X206Y8862D01*
X181Y8794D01*
X161Y8725D01*
X144Y8655D01*
X131Y8584D01*
X122Y8512D01*
X116Y8440D01*
X114Y8368D01*
X114Y8371D01*
X114Y8368D02*
X114Y1518D01*
X114Y1475D01*
X113Y1518D02*
X114Y1445D01*
X119Y1371D01*
X127Y1299D01*
X140Y1227D01*
X156Y1155D01*
X175Y1085D01*
X199Y1015D01*
X226Y947D01*
X257Y881D01*
X291Y816D01*
X328Y753D01*
X369Y692D01*
X412Y634D01*
X459Y577D01*
X509Y523D01*
X561Y472D01*
X616Y424D01*
X673Y379D01*
X733Y336D01*
X795Y297D01*
X859Y261D01*
X924Y229D01*
X992Y200D01*
X1060Y175D01*
X1130Y153D01*
X1201Y135D01*
X1273Y120D01*
X1345Y110D01*
X1418Y103D01*
X1491Y100D01*
X18027Y19589D02*
X18030Y19589D01*
D17*
X9725Y11814D03*
D18*
X7693Y9967D03*
D19*
X1489Y100D02*
X1492Y100D01*
X18027Y100D01*
X18030Y100D01*
X17380Y1475D02*
X17382Y1525D01*
X17388Y1575D01*
X17398Y1625D01*
X17411Y1673D01*
X17428Y1721D01*
X17449Y1767D01*
X17473Y1811D01*
X17501Y1853D01*
X17532Y1893D01*
X17566Y1930D01*
X17603Y1965D01*
X17642Y1996D01*
X17683Y2025D01*
X17727Y2050D01*
X17773Y2072D01*
X17820Y2090D01*
X17868Y2104D01*
X17917Y2115D01*
X17967Y2122D01*
X18017Y2125D01*
X18068Y2124D01*
X18118Y2119D01*
X18168Y2110D01*
X18216Y2098D01*
X18264Y2081D01*
X18310Y2061D01*
X18355Y2038D01*
X18398Y2011D01*
X18438Y1981D01*
X18476Y1948D01*
X18511Y1912D01*
X18544Y1873D01*
X18573Y1832D01*
X18599Y1789D01*
X18622Y1744D01*
X18641Y1697D01*
X18656Y1649D01*
X18668Y1600D01*
X18676Y1550D01*
X18680Y1500D01*
X18680Y1450D01*
X18676Y1400D01*
X18668Y1350D01*
X18656Y1301D01*
X18641Y1253D01*
X18622Y1206D01*
X18599Y1161D01*
X18573Y1118D01*
X18544Y1077D01*
X18511Y1038D01*
X18476Y1002D01*
X18438Y969D01*
X18398Y939D01*
X18355Y912D01*
X18310Y889D01*
X18264Y869D01*
X18216Y852D01*
X18168Y840D01*
X18118Y831D01*
X18068Y826D01*
X18017Y825D01*
X17967Y828D01*
X17917Y835D01*
X17868Y846D01*
X17820Y860D01*
X17773Y878D01*
X17727Y900D01*
X17683Y925D01*
X17642Y954D01*
X17603Y985D01*
X17566Y1020D01*
X17532Y1057D01*
X17501Y1097D01*
X17473Y1139D01*
X17449Y1183D01*
X17428Y1229D01*
X17411Y1277D01*
X17398Y1325D01*
X17388Y1375D01*
X17382Y1425D01*
X17380Y1475D01*
X18027Y100D02*
X18099Y102D01*
X18171Y108D01*
X18243Y117D01*
X18314Y130D01*
X18384Y147D01*
X18453Y167D01*
X18521Y192D01*
X18587Y219D01*
X18653Y250D01*
X18716Y285D01*
X18778Y322D01*
X18837Y363D01*
X18894Y407D01*
X18949Y454D01*
X19001Y504D01*
X19051Y556D01*
X19098Y611D01*
X19142Y668D01*
X19183Y727D01*
X19220Y789D01*
X19255Y852D01*
X19286Y918D01*
X19313Y984D01*
X19338Y1052D01*
X19358Y1121D01*
X19375Y1191D01*
X19388Y1262D01*
X19397Y1334D01*
X19403Y1406D01*
X19405Y1478D01*
X19405Y8368D01*
X17377Y8368D02*
X17379Y8418D01*
X17385Y8468D01*
X17395Y8518D01*
X17408Y8566D01*
X17425Y8614D01*
X17446Y8660D01*
X17470Y8704D01*
X17498Y8746D01*
X17529Y8786D01*
X17563Y8823D01*
X17600Y8858D01*
X17639Y8889D01*
X17680Y8918D01*
X17724Y8943D01*
X17770Y8965D01*
X17817Y8983D01*
X17865Y8997D01*
X17914Y9008D01*
X17964Y9015D01*
X18014Y9018D01*
X18065Y9017D01*
X18115Y9012D01*
X18165Y9003D01*
X18213Y8991D01*
X18261Y8974D01*
X18307Y8954D01*
X18352Y8931D01*
X18395Y8904D01*
X18435Y8874D01*
X18473Y8841D01*
X18508Y8805D01*
X18541Y8766D01*
X18570Y8725D01*
X18596Y8682D01*
X18619Y8637D01*
X18638Y8590D01*
X18653Y8542D01*
X18665Y8493D01*
X18673Y8443D01*
X18677Y8393D01*
X18677Y8343D01*
X18673Y8293D01*
X18665Y8243D01*
X18653Y8194D01*
X18638Y8146D01*
X18619Y8099D01*
X18596Y8054D01*
X18570Y8011D01*
X18541Y7970D01*
X18508Y7931D01*
X18473Y7895D01*
X18435Y7862D01*
X18395Y7832D01*
X18352Y7805D01*
X18307Y7782D01*
X18261Y7762D01*
X18213Y7745D01*
X18165Y7733D01*
X18115Y7724D01*
X18065Y7719D01*
X18014Y7718D01*
X17964Y7721D01*
X17914Y7728D01*
X17865Y7739D01*
X17817Y7753D01*
X17770Y7771D01*
X17724Y7793D01*
X17680Y7818D01*
X17639Y7847D01*
X17600Y7878D01*
X17563Y7913D01*
X17529Y7950D01*
X17498Y7990D01*
X17470Y8032D01*
X17446Y8076D01*
X17425Y8122D01*
X17408Y8170D01*
X17395Y8218D01*
X17385Y8268D01*
X17379Y8318D01*
X17377Y8368D01*
X18027Y9746D02*
X18099Y9744D01*
X18171Y9738D01*
X18243Y9729D01*
X18314Y9716D01*
X18384Y9699D01*
X18453Y9679D01*
X18521Y9654D01*
X18587Y9627D01*
X18653Y9596D01*
X18716Y9561D01*
X18778Y9524D01*
X18837Y9483D01*
X18894Y9439D01*
X18949Y9392D01*
X19001Y9342D01*
X19051Y9290D01*
X19098Y9235D01*
X19142Y9178D01*
X19183Y9119D01*
X19220Y9057D01*
X19255Y8994D01*
X19286Y8928D01*
X19313Y8862D01*
X19338Y8794D01*
X19358Y8725D01*
X19375Y8655D01*
X19388Y8584D01*
X19397Y8512D01*
X19403Y8440D01*
X19405Y8368D01*
X18027Y9746D02*
X1492Y9746D01*
X839Y8371D02*
X841Y8421D01*
X847Y8471D01*
X857Y8521D01*
X870Y8569D01*
X887Y8617D01*
X908Y8663D01*
X932Y8707D01*
X960Y8749D01*
X991Y8789D01*
X1025Y8826D01*
X1062Y8861D01*
X1101Y8892D01*
X1142Y8921D01*
X1186Y8946D01*
X1232Y8968D01*
X1279Y8986D01*
X1327Y9000D01*
X1376Y9011D01*
X1426Y9018D01*
X1476Y9021D01*
X1527Y9020D01*
X1577Y9015D01*
X1627Y9006D01*
X1675Y8994D01*
X1723Y8977D01*
X1769Y8957D01*
X1814Y8934D01*
X1857Y8907D01*
X1897Y8877D01*
X1935Y8844D01*
X1970Y8808D01*
X2003Y8769D01*
X2032Y8728D01*
X2058Y8685D01*
X2081Y8640D01*
X2100Y8593D01*
X2115Y8545D01*
X2127Y8496D01*
X2135Y8446D01*
X2139Y8396D01*
X2139Y8346D01*
X2135Y8296D01*
X2127Y8246D01*
X2115Y8197D01*
X2100Y8149D01*
X2081Y8102D01*
X2058Y8057D01*
X2032Y8014D01*
X2003Y7973D01*
X1970Y7934D01*
X1935Y7898D01*
X1897Y7865D01*
X1857Y7835D01*
X1814Y7808D01*
X1769Y7785D01*
X1723Y7765D01*
X1675Y7748D01*
X1627Y7736D01*
X1577Y7727D01*
X1527Y7722D01*
X1476Y7721D01*
X1426Y7724D01*
X1376Y7731D01*
X1327Y7742D01*
X1279Y7756D01*
X1232Y7774D01*
X1186Y7796D01*
X1142Y7821D01*
X1101Y7850D01*
X1062Y7881D01*
X1025Y7916D01*
X991Y7953D01*
X960Y7993D01*
X932Y8035D01*
X908Y8079D01*
X887Y8125D01*
X870Y8173D01*
X857Y8221D01*
X847Y8271D01*
X841Y8321D01*
X839Y8371D01*
X114Y8368D02*
X116Y8440D01*
X122Y8512D01*
X131Y8584D01*
X144Y8655D01*
X161Y8725D01*
X181Y8794D01*
X206Y8862D01*
X233Y8928D01*
X264Y8994D01*
X299Y9057D01*
X336Y9119D01*
X377Y9178D01*
X421Y9235D01*
X468Y9290D01*
X518Y9342D01*
X570Y9392D01*
X625Y9439D01*
X682Y9483D01*
X741Y9524D01*
X803Y9561D01*
X866Y9596D01*
X932Y9627D01*
X998Y9654D01*
X1066Y9679D01*
X1135Y9699D01*
X1205Y9716D01*
X1276Y9729D01*
X1348Y9738D01*
X1420Y9744D01*
X1492Y9746D01*
X114Y8371D02*
X114Y8368D01*
X114Y1518D01*
X114Y1475D01*
X839Y1475D02*
X841Y1525D01*
X847Y1575D01*
X857Y1625D01*
X870Y1673D01*
X887Y1721D01*
X908Y1767D01*
X932Y1811D01*
X960Y1853D01*
X991Y1893D01*
X1025Y1930D01*
X1062Y1965D01*
X1101Y1996D01*
X1142Y2025D01*
X1186Y2050D01*
X1232Y2072D01*
X1279Y2090D01*
X1327Y2104D01*
X1376Y2115D01*
X1426Y2122D01*
X1476Y2125D01*
X1527Y2124D01*
X1577Y2119D01*
X1627Y2110D01*
X1675Y2098D01*
X1723Y2081D01*
X1769Y2061D01*
X1814Y2038D01*
X1857Y2011D01*
X1897Y1981D01*
X1935Y1948D01*
X1970Y1912D01*
X2003Y1873D01*
X2032Y1832D01*
X2058Y1789D01*
X2081Y1744D01*
X2100Y1697D01*
X2115Y1649D01*
X2127Y1600D01*
X2135Y1550D01*
X2139Y1500D01*
X2139Y1450D01*
X2135Y1400D01*
X2127Y1350D01*
X2115Y1301D01*
X2100Y1253D01*
X2081Y1206D01*
X2058Y1161D01*
X2032Y1118D01*
X2003Y1077D01*
X1970Y1038D01*
X1935Y1002D01*
X1897Y969D01*
X1857Y939D01*
X1814Y912D01*
X1769Y889D01*
X1723Y869D01*
X1675Y852D01*
X1627Y840D01*
X1577Y831D01*
X1527Y826D01*
X1476Y825D01*
X1426Y828D01*
X1376Y835D01*
X1327Y846D01*
X1279Y860D01*
X1232Y878D01*
X1186Y900D01*
X1142Y925D01*
X1101Y954D01*
X1062Y985D01*
X1025Y1020D01*
X991Y1057D01*
X960Y1097D01*
X932Y1139D01*
X908Y1183D01*
X887Y1229D01*
X870Y1277D01*
X857Y1325D01*
X847Y1375D01*
X841Y1425D01*
X839Y1475D01*
X113Y1518D02*
X114Y1445D01*
X119Y1371D01*
X127Y1299D01*
X140Y1227D01*
X156Y1155D01*
X175Y1085D01*
X199Y1015D01*
X226Y947D01*
X257Y881D01*
X291Y816D01*
X328Y753D01*
X369Y692D01*
X412Y634D01*
X459Y577D01*
X509Y523D01*
X561Y472D01*
X616Y424D01*
X673Y379D01*
X733Y336D01*
X795Y297D01*
X859Y261D01*
X924Y229D01*
X992Y200D01*
X1060Y175D01*
X1130Y153D01*
X1201Y135D01*
X1273Y120D01*
X1345Y110D01*
X1418Y103D01*
X1491Y100D01*
X1295Y2951D02*
X1297Y2981D01*
X1303Y3011D01*
X1312Y3040D01*
X1325Y3067D01*
X1342Y3092D01*
X1361Y3115D01*
X1384Y3136D01*
X1409Y3153D01*
X1435Y3167D01*
X1464Y3177D01*
X1493Y3184D01*
X1523Y3187D01*
X1554Y3186D01*
X1584Y3181D01*
X1613Y3172D01*
X1640Y3160D01*
X1666Y3145D01*
X1690Y3126D01*
X1711Y3104D01*
X1729Y3080D01*
X1744Y3053D01*
X1755Y3025D01*
X1763Y2996D01*
X1767Y2966D01*
X1767Y2936D01*
X1763Y2906D01*
X1755Y2877D01*
X1744Y2849D01*
X1729Y2822D01*
X1711Y2798D01*
X1690Y2776D01*
X1666Y2757D01*
X1640Y2742D01*
X1613Y2730D01*
X1584Y2721D01*
X1554Y2716D01*
X1523Y2715D01*
X1493Y2718D01*
X1464Y2725D01*
X1435Y2735D01*
X1409Y2749D01*
X1384Y2766D01*
X1361Y2787D01*
X1342Y2810D01*
X1325Y2835D01*
X1312Y2862D01*
X1303Y2891D01*
X1297Y2921D01*
X1295Y2951D01*
X311Y2951D02*
X313Y2981D01*
X319Y3011D01*
X328Y3040D01*
X341Y3067D01*
X358Y3092D01*
X377Y3115D01*
X400Y3136D01*
X425Y3153D01*
X451Y3167D01*
X480Y3177D01*
X509Y3184D01*
X539Y3187D01*
X570Y3186D01*
X600Y3181D01*
X629Y3172D01*
X656Y3160D01*
X682Y3145D01*
X706Y3126D01*
X727Y3104D01*
X745Y3080D01*
X760Y3053D01*
X771Y3025D01*
X779Y2996D01*
X783Y2966D01*
X783Y2936D01*
X779Y2906D01*
X771Y2877D01*
X760Y2849D01*
X745Y2822D01*
X727Y2798D01*
X706Y2776D01*
X682Y2757D01*
X656Y2742D01*
X629Y2730D01*
X600Y2721D01*
X570Y2716D01*
X539Y2715D01*
X509Y2718D01*
X480Y2725D01*
X451Y2735D01*
X425Y2749D01*
X400Y2766D01*
X377Y2787D01*
X358Y2810D01*
X341Y2835D01*
X328Y2862D01*
X319Y2891D01*
X313Y2921D01*
X311Y2951D01*
X3264Y4919D02*
X3266Y4949D01*
X3272Y4979D01*
X3281Y5008D01*
X3294Y5035D01*
X3311Y5060D01*
X3330Y5083D01*
X3353Y5104D01*
X3378Y5121D01*
X3404Y5135D01*
X3433Y5145D01*
X3462Y5152D01*
X3492Y5155D01*
X3523Y5154D01*
X3553Y5149D01*
X3582Y5140D01*
X3609Y5128D01*
X3635Y5113D01*
X3659Y5094D01*
X3680Y5072D01*
X3698Y5048D01*
X3713Y5021D01*
X3724Y4993D01*
X3732Y4964D01*
X3736Y4934D01*
X3736Y4904D01*
X3732Y4874D01*
X3724Y4845D01*
X3713Y4817D01*
X3698Y4790D01*
X3680Y4766D01*
X3659Y4744D01*
X3635Y4725D01*
X3609Y4710D01*
X3582Y4698D01*
X3553Y4689D01*
X3523Y4684D01*
X3492Y4683D01*
X3462Y4686D01*
X3433Y4693D01*
X3404Y4703D01*
X3378Y4717D01*
X3353Y4734D01*
X3330Y4755D01*
X3311Y4778D01*
X3294Y4803D01*
X3281Y4830D01*
X3272Y4859D01*
X3266Y4889D01*
X3264Y4919D01*
X1295Y6888D02*
X1297Y6918D01*
X1303Y6948D01*
X1312Y6977D01*
X1325Y7004D01*
X1342Y7029D01*
X1361Y7052D01*
X1384Y7073D01*
X1409Y7090D01*
X1435Y7104D01*
X1464Y7114D01*
X1493Y7121D01*
X1523Y7124D01*
X1554Y7123D01*
X1584Y7118D01*
X1613Y7109D01*
X1640Y7097D01*
X1666Y7082D01*
X1690Y7063D01*
X1711Y7041D01*
X1729Y7017D01*
X1744Y6990D01*
X1755Y6962D01*
X1763Y6933D01*
X1767Y6903D01*
X1767Y6873D01*
X1763Y6843D01*
X1755Y6814D01*
X1744Y6786D01*
X1729Y6759D01*
X1711Y6735D01*
X1690Y6713D01*
X1666Y6694D01*
X1640Y6679D01*
X1613Y6667D01*
X1584Y6658D01*
X1554Y6653D01*
X1523Y6652D01*
X1493Y6655D01*
X1464Y6662D01*
X1435Y6672D01*
X1409Y6686D01*
X1384Y6703D01*
X1361Y6724D01*
X1342Y6747D01*
X1325Y6772D01*
X1312Y6799D01*
X1303Y6828D01*
X1297Y6858D01*
X1295Y6888D01*
X311Y6888D02*
X313Y6918D01*
X319Y6948D01*
X328Y6977D01*
X341Y7004D01*
X358Y7029D01*
X377Y7052D01*
X400Y7073D01*
X425Y7090D01*
X451Y7104D01*
X480Y7114D01*
X509Y7121D01*
X539Y7124D01*
X570Y7123D01*
X600Y7118D01*
X629Y7109D01*
X656Y7097D01*
X682Y7082D01*
X706Y7063D01*
X727Y7041D01*
X745Y7017D01*
X760Y6990D01*
X771Y6962D01*
X779Y6933D01*
X783Y6903D01*
X783Y6873D01*
X779Y6843D01*
X771Y6814D01*
X760Y6786D01*
X745Y6759D01*
X727Y6735D01*
X706Y6713D01*
X682Y6694D01*
X656Y6679D01*
X629Y6667D01*
X600Y6658D01*
X570Y6653D01*
X539Y6652D01*
X509Y6655D01*
X480Y6662D01*
X451Y6672D01*
X425Y6686D01*
X400Y6703D01*
X377Y6724D01*
X358Y6747D01*
X341Y6772D01*
X328Y6799D01*
X319Y6828D01*
X313Y6858D01*
X311Y6888D01*
D20*
X3500Y6888D03*
X3500Y5903D03*
X1531Y4919D03*
X3500Y3935D03*
X3500Y2951D03*
D21*
X1531Y2951D03*
X547Y2951D03*
X3500Y4919D03*
X1531Y6888D03*
X547Y6888D03*
D22*
X17228Y6416D03*
X18228Y6416D03*
X18228Y5416D03*
X17228Y5416D03*
X17228Y4416D03*
X18228Y4416D03*
X18228Y3416D03*
X17228Y3416D03*
D23*
X12233Y6966D03*
X5414Y3029D03*
D24*
X12592Y8129D03*
X12592Y9129D03*
D25*
X3058Y8579D03*
D26*
X4058Y8579D03*
X5058Y8579D03*
X6058Y8579D03*
X2534Y5890D03*
X2534Y4890D03*
X2534Y3890D03*
X11545Y1276D03*
X12545Y1276D03*
X13545Y1276D03*
X14545Y1276D03*
X15545Y1276D03*
X16545Y1276D03*
D27*
X15600Y3225D02*
X15600Y3816D01*
X13828Y3816D02*
X13828Y3225D01*
X13828Y5784D02*
X13828Y6375D01*
X15600Y6375D02*
X15600Y5784D01*
D28*
X18027Y8368D03*
X18030Y1475D03*
X1489Y1475D03*
X1489Y8371D03*
D29*
X16551Y7482D03*
X16551Y2364D03*
D30*
X17370Y2671D03*
X16484Y3458D03*
X14976Y2856D03*
X14968Y2002D03*
X15500Y1982D03*
X14320Y2000D03*
X11137Y1970D03*
X8468Y1629D03*
X7102Y888D03*
X7102Y2462D03*
X7941Y2856D03*
X7939Y3397D03*
X6614Y3250D03*
X9514Y4600D03*
X9114Y5100D03*
X8614Y5800D03*
X8714Y6500D03*
X9514Y6500D03*
X10964Y6450D03*
X12007Y6194D03*
X12309Y5603D03*
X12651Y4806D03*
X14214Y4400D03*
X15598Y4935D03*
X16136Y4924D03*
X14414Y5350D03*
X14814Y6700D03*
X17370Y7199D03*
X12114Y8595D03*
X9514Y9150D03*
X7517Y8297D03*
X7014Y6100D03*
X5714Y5700D03*
X6564Y5300D03*
X4814Y5300D03*
X1014Y6400D03*
X1014Y3400D03*
X2301Y2913D03*
X10514Y3700D03*
X11114Y3700D03*
D31*
X100Y11439D02*
X98Y11373D01*
X100Y11307D01*
X106Y11241D01*
X115Y11175D01*
X128Y11110D01*
X145Y11045D01*
X165Y10982D01*
X189Y10920D01*
X216Y10860D01*
X247Y10801D01*
X281Y10743D01*
X318Y10688D01*
X358Y10635D01*
X401Y10585D01*
X446Y10536D01*
X495Y10491D01*
X545Y10448D01*
X598Y10408D01*
X653Y10371D01*
X711Y10337D01*
X770Y10306D01*
X830Y10279D01*
X892Y10255D01*
X955Y10235D01*
X1020Y10218D01*
X1085Y10205D01*
X1151Y10196D01*
X1217Y10190D01*
X1283Y10188D01*
X1349Y10190D01*
X1349Y10189D02*
X8099Y10189D01*
X8167Y10191D01*
X8234Y10196D01*
X8301Y10205D01*
X8368Y10218D01*
X8433Y10235D01*
X8498Y10254D01*
X8562Y10278D01*
X8624Y10305D01*
X8685Y10335D01*
X8743Y10368D01*
X8800Y10404D01*
X8855Y10444D01*
X8908Y10486D01*
X8959Y10532D01*
X9006Y10579D01*
X9052Y10630D01*
X9094Y10683D01*
X9134Y10738D01*
X9170Y10795D01*
X9203Y10853D01*
X9233Y10914D01*
X9260Y10976D01*
X9284Y11040D01*
X9303Y11105D01*
X9320Y11170D01*
X9333Y11237D01*
X9342Y11304D01*
X9347Y11371D01*
X9349Y11439D01*
X9349Y18189D01*
X9347Y18257D01*
X9342Y18324D01*
X9333Y18391D01*
X9320Y18458D01*
X9303Y18523D01*
X9284Y18588D01*
X9260Y18652D01*
X9233Y18714D01*
X9203Y18775D01*
X9170Y18833D01*
X9134Y18890D01*
X9094Y18945D01*
X9052Y18998D01*
X9006Y19049D01*
X8959Y19096D01*
X8908Y19142D01*
X8855Y19184D01*
X8800Y19224D01*
X8743Y19260D01*
X8685Y19293D01*
X8624Y19323D01*
X8562Y19350D01*
X8498Y19374D01*
X8433Y19393D01*
X8368Y19410D01*
X8301Y19423D01*
X8234Y19432D01*
X8167Y19437D01*
X8099Y19439D01*
X1349Y19439D01*
X724Y18189D02*
X726Y18239D01*
X732Y18288D01*
X742Y18337D01*
X755Y18384D01*
X773Y18431D01*
X794Y18476D01*
X818Y18519D01*
X846Y18560D01*
X877Y18599D01*
X911Y18635D01*
X948Y18669D01*
X988Y18699D01*
X1029Y18726D01*
X1073Y18750D01*
X1118Y18770D01*
X1165Y18786D01*
X1213Y18799D01*
X1262Y18808D01*
X1312Y18813D01*
X1361Y18814D01*
X1411Y18811D01*
X1460Y18804D01*
X1509Y18793D01*
X1556Y18779D01*
X1602Y18760D01*
X1647Y18738D01*
X1690Y18713D01*
X1730Y18684D01*
X1768Y18652D01*
X1804Y18618D01*
X1837Y18580D01*
X1866Y18540D01*
X1892Y18498D01*
X1915Y18454D01*
X1934Y18408D01*
X1950Y18361D01*
X1962Y18312D01*
X1970Y18263D01*
X1974Y18214D01*
X1974Y18164D01*
X1970Y18115D01*
X1962Y18066D01*
X1950Y18017D01*
X1934Y17970D01*
X1915Y17924D01*
X1892Y17880D01*
X1866Y17838D01*
X1837Y17798D01*
X1804Y17760D01*
X1768Y17726D01*
X1730Y17694D01*
X1690Y17665D01*
X1647Y17640D01*
X1602Y17618D01*
X1556Y17599D01*
X1509Y17585D01*
X1460Y17574D01*
X1411Y17567D01*
X1361Y17564D01*
X1312Y17565D01*
X1262Y17570D01*
X1213Y17579D01*
X1165Y17592D01*
X1118Y17608D01*
X1073Y17628D01*
X1029Y17652D01*
X988Y17679D01*
X948Y17709D01*
X911Y17743D01*
X877Y17779D01*
X846Y17818D01*
X818Y17859D01*
X794Y17902D01*
X773Y17947D01*
X755Y17994D01*
X742Y18041D01*
X732Y18090D01*
X726Y18139D01*
X724Y18189D01*
X99Y18189D02*
X99Y11439D01*
X724Y11439D02*
X726Y11489D01*
X732Y11538D01*
X742Y11587D01*
X755Y11634D01*
X773Y11681D01*
X794Y11726D01*
X818Y11769D01*
X846Y11810D01*
X877Y11849D01*
X911Y11885D01*
X948Y11919D01*
X988Y11949D01*
X1029Y11976D01*
X1073Y12000D01*
X1118Y12020D01*
X1165Y12036D01*
X1213Y12049D01*
X1262Y12058D01*
X1312Y12063D01*
X1361Y12064D01*
X1411Y12061D01*
X1460Y12054D01*
X1509Y12043D01*
X1556Y12029D01*
X1602Y12010D01*
X1647Y11988D01*
X1690Y11963D01*
X1730Y11934D01*
X1768Y11902D01*
X1804Y11868D01*
X1837Y11830D01*
X1866Y11790D01*
X1892Y11748D01*
X1915Y11704D01*
X1934Y11658D01*
X1950Y11611D01*
X1962Y11562D01*
X1970Y11513D01*
X1974Y11464D01*
X1974Y11414D01*
X1970Y11365D01*
X1962Y11316D01*
X1950Y11267D01*
X1934Y11220D01*
X1915Y11174D01*
X1892Y11130D01*
X1866Y11088D01*
X1837Y11048D01*
X1804Y11010D01*
X1768Y10976D01*
X1730Y10944D01*
X1690Y10915D01*
X1647Y10890D01*
X1602Y10868D01*
X1556Y10849D01*
X1509Y10835D01*
X1460Y10824D01*
X1411Y10817D01*
X1361Y10814D01*
X1312Y10815D01*
X1262Y10820D01*
X1213Y10829D01*
X1165Y10842D01*
X1118Y10858D01*
X1073Y10878D01*
X1029Y10902D01*
X988Y10929D01*
X948Y10959D01*
X911Y10993D01*
X877Y11029D01*
X846Y11068D01*
X818Y11109D01*
X794Y11152D01*
X773Y11197D01*
X755Y11244D01*
X742Y11291D01*
X732Y11340D01*
X726Y11389D01*
X724Y11439D01*
X99Y18189D02*
X101Y18257D01*
X106Y18324D01*
X115Y18391D01*
X128Y18458D01*
X145Y18523D01*
X164Y18588D01*
X188Y18652D01*
X215Y18714D01*
X245Y18775D01*
X278Y18833D01*
X314Y18890D01*
X354Y18945D01*
X396Y18998D01*
X442Y19049D01*
X489Y19096D01*
X540Y19142D01*
X593Y19184D01*
X648Y19224D01*
X705Y19260D01*
X763Y19293D01*
X824Y19323D01*
X886Y19350D01*
X950Y19374D01*
X1015Y19393D01*
X1080Y19410D01*
X1147Y19423D01*
X1214Y19432D01*
X1281Y19437D01*
X1349Y19439D01*
X7474Y18189D02*
X7476Y18239D01*
X7482Y18288D01*
X7492Y18337D01*
X7505Y18384D01*
X7523Y18431D01*
X7544Y18476D01*
X7568Y18519D01*
X7596Y18560D01*
X7627Y18599D01*
X7661Y18635D01*
X7698Y18669D01*
X7738Y18699D01*
X7779Y18726D01*
X7823Y18750D01*
X7868Y18770D01*
X7915Y18786D01*
X7963Y18799D01*
X8012Y18808D01*
X8062Y18813D01*
X8111Y18814D01*
X8161Y18811D01*
X8210Y18804D01*
X8259Y18793D01*
X8306Y18779D01*
X8352Y18760D01*
X8397Y18738D01*
X8440Y18713D01*
X8480Y18684D01*
X8518Y18652D01*
X8554Y18618D01*
X8587Y18580D01*
X8616Y18540D01*
X8642Y18498D01*
X8665Y18454D01*
X8684Y18408D01*
X8700Y18361D01*
X8712Y18312D01*
X8720Y18263D01*
X8724Y18214D01*
X8724Y18164D01*
X8720Y18115D01*
X8712Y18066D01*
X8700Y18017D01*
X8684Y17970D01*
X8665Y17924D01*
X8642Y17880D01*
X8616Y17838D01*
X8587Y17798D01*
X8554Y17760D01*
X8518Y17726D01*
X8480Y17694D01*
X8440Y17665D01*
X8397Y17640D01*
X8352Y17618D01*
X8306Y17599D01*
X8259Y17585D01*
X8210Y17574D01*
X8161Y17567D01*
X8111Y17564D01*
X8062Y17565D01*
X8012Y17570D01*
X7963Y17579D01*
X7915Y17592D01*
X7868Y17608D01*
X7823Y17628D01*
X7779Y17652D01*
X7738Y17679D01*
X7698Y17709D01*
X7661Y17743D01*
X7627Y17779D01*
X7596Y17818D01*
X7568Y17859D01*
X7544Y17902D01*
X7523Y17947D01*
X7505Y17994D01*
X7492Y18041D01*
X7482Y18090D01*
X7476Y18139D01*
X7474Y18189D01*
X7474Y11439D02*
X7476Y11489D01*
X7482Y11538D01*
X7492Y11587D01*
X7505Y11634D01*
X7523Y11681D01*
X7544Y11726D01*
X7568Y11769D01*
X7596Y11810D01*
X7627Y11849D01*
X7661Y11885D01*
X7698Y11919D01*
X7738Y11949D01*
X7779Y11976D01*
X7823Y12000D01*
X7868Y12020D01*
X7915Y12036D01*
X7963Y12049D01*
X8012Y12058D01*
X8062Y12063D01*
X8111Y12064D01*
X8161Y12061D01*
X8210Y12054D01*
X8259Y12043D01*
X8306Y12029D01*
X8352Y12010D01*
X8397Y11988D01*
X8440Y11963D01*
X8480Y11934D01*
X8518Y11902D01*
X8554Y11868D01*
X8587Y11830D01*
X8616Y11790D01*
X8642Y11748D01*
X8665Y11704D01*
X8684Y11658D01*
X8700Y11611D01*
X8712Y11562D01*
X8720Y11513D01*
X8724Y11464D01*
X8724Y11414D01*
X8720Y11365D01*
X8712Y11316D01*
X8700Y11267D01*
X8684Y11220D01*
X8665Y11174D01*
X8642Y11130D01*
X8616Y11088D01*
X8587Y11048D01*
X8554Y11010D01*
X8518Y10976D01*
X8480Y10944D01*
X8440Y10915D01*
X8397Y10890D01*
X8352Y10868D01*
X8306Y10849D01*
X8259Y10835D01*
X8210Y10824D01*
X8161Y10817D01*
X8111Y10814D01*
X8062Y10815D01*
X8012Y10820D01*
X7963Y10829D01*
X7915Y10842D01*
X7868Y10858D01*
X7823Y10878D01*
X7779Y10902D01*
X7738Y10929D01*
X7698Y10959D01*
X7661Y10993D01*
X7627Y11029D01*
X7596Y11068D01*
X7568Y11109D01*
X7544Y11152D01*
X7523Y11197D01*
X7505Y11244D01*
X7492Y11291D01*
X7482Y11340D01*
X7476Y11389D01*
X7474Y11439D01*
D32*
X8099Y11439D03*
X8099Y18189D03*
X1349Y18189D03*
X1349Y11439D03*
D33*
X6524Y12964D03*
X6524Y13314D03*
X6524Y13664D03*
X6524Y14437D03*
X6524Y14791D03*
D34*
X8124Y13314D03*
X3224Y11414D03*
X3224Y18214D03*
D35*
X4224Y18214D03*
X5224Y18214D03*
X6224Y18214D03*
X8124Y16314D03*
X8124Y15314D03*
X8124Y14314D03*
X6224Y11414D03*
X5224Y11414D03*
X4224Y11414D03*
D36*
X3724Y12414D03*
X4752Y14842D03*
X6174Y15464D03*
X7424Y16964D03*
X3324Y15914D03*
X824Y12714D03*
X7324Y12514D03*
D37*
X10101Y11439D02*
X10099Y11373D01*
X10101Y11307D01*
X10107Y11241D01*
X10116Y11175D01*
X10129Y11110D01*
X10146Y11045D01*
X10166Y10982D01*
X10190Y10920D01*
X10217Y10860D01*
X10248Y10801D01*
X10282Y10743D01*
X10319Y10688D01*
X10359Y10635D01*
X10402Y10585D01*
X10447Y10536D01*
X10496Y10491D01*
X10546Y10448D01*
X10599Y10408D01*
X10654Y10371D01*
X10712Y10337D01*
X10771Y10306D01*
X10831Y10279D01*
X10893Y10255D01*
X10956Y10235D01*
X11021Y10218D01*
X11086Y10205D01*
X11152Y10196D01*
X11218Y10190D01*
X11284Y10188D01*
X11350Y10190D01*
X11350Y10189D02*
X18100Y10189D01*
X18168Y10191D01*
X18235Y10196D01*
X18302Y10205D01*
X18369Y10218D01*
X18434Y10235D01*
X18499Y10254D01*
X18563Y10278D01*
X18625Y10305D01*
X18686Y10335D01*
X18744Y10368D01*
X18801Y10404D01*
X18856Y10444D01*
X18909Y10486D01*
X18960Y10532D01*
X19007Y10579D01*
X19053Y10630D01*
X19095Y10683D01*
X19135Y10738D01*
X19171Y10795D01*
X19204Y10853D01*
X19234Y10914D01*
X19261Y10976D01*
X19285Y11040D01*
X19304Y11105D01*
X19321Y11170D01*
X19334Y11237D01*
X19343Y11304D01*
X19348Y11371D01*
X19350Y11439D01*
X19350Y18189D01*
X19348Y18257D01*
X19343Y18324D01*
X19334Y18391D01*
X19321Y18458D01*
X19304Y18523D01*
X19285Y18588D01*
X19261Y18652D01*
X19234Y18714D01*
X19204Y18775D01*
X19171Y18833D01*
X19135Y18890D01*
X19095Y18945D01*
X19053Y18998D01*
X19007Y19049D01*
X18960Y19096D01*
X18909Y19142D01*
X18856Y19184D01*
X18801Y19224D01*
X18744Y19260D01*
X18686Y19293D01*
X18625Y19323D01*
X18563Y19350D01*
X18499Y19374D01*
X18434Y19393D01*
X18369Y19410D01*
X18302Y19423D01*
X18235Y19432D01*
X18168Y19437D01*
X18100Y19439D01*
X11350Y19439D01*
X10725Y18189D02*
X10727Y18239D01*
X10733Y18288D01*
X10743Y18337D01*
X10756Y18384D01*
X10774Y18431D01*
X10795Y18476D01*
X10819Y18519D01*
X10847Y18560D01*
X10878Y18599D01*
X10912Y18635D01*
X10949Y18669D01*
X10989Y18699D01*
X11030Y18726D01*
X11074Y18750D01*
X11119Y18770D01*
X11166Y18786D01*
X11214Y18799D01*
X11263Y18808D01*
X11313Y18813D01*
X11362Y18814D01*
X11412Y18811D01*
X11461Y18804D01*
X11510Y18793D01*
X11557Y18779D01*
X11603Y18760D01*
X11648Y18738D01*
X11691Y18713D01*
X11731Y18684D01*
X11769Y18652D01*
X11805Y18618D01*
X11838Y18580D01*
X11867Y18540D01*
X11893Y18498D01*
X11916Y18454D01*
X11935Y18408D01*
X11951Y18361D01*
X11963Y18312D01*
X11971Y18263D01*
X11975Y18214D01*
X11975Y18164D01*
X11971Y18115D01*
X11963Y18066D01*
X11951Y18017D01*
X11935Y17970D01*
X11916Y17924D01*
X11893Y17880D01*
X11867Y17838D01*
X11838Y17798D01*
X11805Y17760D01*
X11769Y17726D01*
X11731Y17694D01*
X11691Y17665D01*
X11648Y17640D01*
X11603Y17618D01*
X11557Y17599D01*
X11510Y17585D01*
X11461Y17574D01*
X11412Y17567D01*
X11362Y17564D01*
X11313Y17565D01*
X11263Y17570D01*
X11214Y17579D01*
X11166Y17592D01*
X11119Y17608D01*
X11074Y17628D01*
X11030Y17652D01*
X10989Y17679D01*
X10949Y17709D01*
X10912Y17743D01*
X10878Y17779D01*
X10847Y17818D01*
X10819Y17859D01*
X10795Y17902D01*
X10774Y17947D01*
X10756Y17994D01*
X10743Y18041D01*
X10733Y18090D01*
X10727Y18139D01*
X10725Y18189D01*
X10100Y18189D02*
X10100Y11439D01*
X10725Y11439D02*
X10727Y11489D01*
X10733Y11538D01*
X10743Y11587D01*
X10756Y11634D01*
X10774Y11681D01*
X10795Y11726D01*
X10819Y11769D01*
X10847Y11810D01*
X10878Y11849D01*
X10912Y11885D01*
X10949Y11919D01*
X10989Y11949D01*
X11030Y11976D01*
X11074Y12000D01*
X11119Y12020D01*
X11166Y12036D01*
X11214Y12049D01*
X11263Y12058D01*
X11313Y12063D01*
X11362Y12064D01*
X11412Y12061D01*
X11461Y12054D01*
X11510Y12043D01*
X11557Y12029D01*
X11603Y12010D01*
X11648Y11988D01*
X11691Y11963D01*
X11731Y11934D01*
X11769Y11902D01*
X11805Y11868D01*
X11838Y11830D01*
X11867Y11790D01*
X11893Y11748D01*
X11916Y11704D01*
X11935Y11658D01*
X11951Y11611D01*
X11963Y11562D01*
X11971Y11513D01*
X11975Y11464D01*
X11975Y11414D01*
X11971Y11365D01*
X11963Y11316D01*
X11951Y11267D01*
X11935Y11220D01*
X11916Y11174D01*
X11893Y11130D01*
X11867Y11088D01*
X11838Y11048D01*
X11805Y11010D01*
X11769Y10976D01*
X11731Y10944D01*
X11691Y10915D01*
X11648Y10890D01*
X11603Y10868D01*
X11557Y10849D01*
X11510Y10835D01*
X11461Y10824D01*
X11412Y10817D01*
X11362Y10814D01*
X11313Y10815D01*
X11263Y10820D01*
X11214Y10829D01*
X11166Y10842D01*
X11119Y10858D01*
X11074Y10878D01*
X11030Y10902D01*
X10989Y10929D01*
X10949Y10959D01*
X10912Y10993D01*
X10878Y11029D01*
X10847Y11068D01*
X10819Y11109D01*
X10795Y11152D01*
X10774Y11197D01*
X10756Y11244D01*
X10743Y11291D01*
X10733Y11340D01*
X10727Y11389D01*
X10725Y11439D01*
X10100Y18189D02*
X10102Y18257D01*
X10107Y18324D01*
X10116Y18391D01*
X10129Y18458D01*
X10146Y18523D01*
X10165Y18588D01*
X10189Y18652D01*
X10216Y18714D01*
X10246Y18775D01*
X10279Y18833D01*
X10315Y18890D01*
X10355Y18945D01*
X10397Y18998D01*
X10443Y19049D01*
X10490Y19096D01*
X10541Y19142D01*
X10594Y19184D01*
X10649Y19224D01*
X10706Y19260D01*
X10764Y19293D01*
X10825Y19323D01*
X10887Y19350D01*
X10951Y19374D01*
X11016Y19393D01*
X11081Y19410D01*
X11148Y19423D01*
X11215Y19432D01*
X11282Y19437D01*
X11350Y19439D01*
X17475Y18189D02*
X17477Y18239D01*
X17483Y18288D01*
X17493Y18337D01*
X17506Y18384D01*
X17524Y18431D01*
X17545Y18476D01*
X17569Y18519D01*
X17597Y18560D01*
X17628Y18599D01*
X17662Y18635D01*
X17699Y18669D01*
X17739Y18699D01*
X17780Y18726D01*
X17824Y18750D01*
X17869Y18770D01*
X17916Y18786D01*
X17964Y18799D01*
X18013Y18808D01*
X18063Y18813D01*
X18112Y18814D01*
X18162Y18811D01*
X18211Y18804D01*
X18260Y18793D01*
X18307Y18779D01*
X18353Y18760D01*
X18398Y18738D01*
X18441Y18713D01*
X18481Y18684D01*
X18519Y18652D01*
X18555Y18618D01*
X18588Y18580D01*
X18617Y18540D01*
X18643Y18498D01*
X18666Y18454D01*
X18685Y18408D01*
X18701Y18361D01*
X18713Y18312D01*
X18721Y18263D01*
X18725Y18214D01*
X18725Y18164D01*
X18721Y18115D01*
X18713Y18066D01*
X18701Y18017D01*
X18685Y17970D01*
X18666Y17924D01*
X18643Y17880D01*
X18617Y17838D01*
X18588Y17798D01*
X18555Y17760D01*
X18519Y17726D01*
X18481Y17694D01*
X18441Y17665D01*
X18398Y17640D01*
X18353Y17618D01*
X18307Y17599D01*
X18260Y17585D01*
X18211Y17574D01*
X18162Y17567D01*
X18112Y17564D01*
X18063Y17565D01*
X18013Y17570D01*
X17964Y17579D01*
X17916Y17592D01*
X17869Y17608D01*
X17824Y17628D01*
X17780Y17652D01*
X17739Y17679D01*
X17699Y17709D01*
X17662Y17743D01*
X17628Y17779D01*
X17597Y17818D01*
X17569Y17859D01*
X17545Y17902D01*
X17524Y17947D01*
X17506Y17994D01*
X17493Y18041D01*
X17483Y18090D01*
X17477Y18139D01*
X17475Y18189D01*
X17475Y11439D02*
X17477Y11489D01*
X17483Y11538D01*
X17493Y11587D01*
X17506Y11634D01*
X17524Y11681D01*
X17545Y11726D01*
X17569Y11769D01*
X17597Y11810D01*
X17628Y11849D01*
X17662Y11885D01*
X17699Y11919D01*
X17739Y11949D01*
X17780Y11976D01*
X17824Y12000D01*
X17869Y12020D01*
X17916Y12036D01*
X17964Y12049D01*
X18013Y12058D01*
X18063Y12063D01*
X18112Y12064D01*
X18162Y12061D01*
X18211Y12054D01*
X18260Y12043D01*
X18307Y12029D01*
X18353Y12010D01*
X18398Y11988D01*
X18441Y11963D01*
X18481Y11934D01*
X18519Y11902D01*
X18555Y11868D01*
X18588Y11830D01*
X18617Y11790D01*
X18643Y11748D01*
X18666Y11704D01*
X18685Y11658D01*
X18701Y11611D01*
X18713Y11562D01*
X18721Y11513D01*
X18725Y11464D01*
X18725Y11414D01*
X18721Y11365D01*
X18713Y11316D01*
X18701Y11267D01*
X18685Y11220D01*
X18666Y11174D01*
X18643Y11130D01*
X18617Y11088D01*
X18588Y11048D01*
X18555Y11010D01*
X18519Y10976D01*
X18481Y10944D01*
X18441Y10915D01*
X18398Y10890D01*
X18353Y10868D01*
X18307Y10849D01*
X18260Y10835D01*
X18211Y10824D01*
X18162Y10817D01*
X18112Y10814D01*
X18063Y10815D01*
X18013Y10820D01*
X17964Y10829D01*
X17916Y10842D01*
X17869Y10858D01*
X17824Y10878D01*
X17780Y10902D01*
X17739Y10929D01*
X17699Y10959D01*
X17662Y10993D01*
X17628Y11029D01*
X17597Y11068D01*
X17569Y11109D01*
X17545Y11152D01*
X17524Y11197D01*
X17506Y11244D01*
X17493Y11291D01*
X17483Y11340D01*
X17477Y11389D01*
X17475Y11439D01*
D38*
X18100Y11439D03*
X18100Y18189D03*
X11350Y18189D03*
X11350Y11439D03*
D39*
X11350Y13314D03*
X18100Y13314D03*
D40*
X18100Y14314D03*
X18100Y15314D03*
X18100Y16314D03*
X11350Y16314D03*
X11350Y15314D03*
X11350Y14314D03*
D41*
X13850Y14747D03*
X14350Y14747D03*
X14850Y14747D03*
X15350Y14747D03*
X15350Y16873D03*
X14850Y16873D03*
X14350Y16873D03*
X13850Y16873D03*
D42*
X13167Y17940D03*
X13167Y18688D03*
X14033Y18314D03*
X15417Y17940D03*
X15417Y18688D03*
X16283Y18314D03*
X16158Y13688D03*
X16158Y12940D03*
X15292Y13314D03*
X14033Y12940D03*
X14033Y13688D03*
X13167Y13314D03*
D43*
X12850Y12257D03*
X12850Y11371D03*
D44*
X12600Y17064D03*
X16975Y17064D03*
D45*
X12319Y21828D03*
X13787Y21753D03*
X14787Y21753D03*
X12319Y24828D03*
X12319Y25962D03*
X13303Y25962D03*
X14287Y25962D03*
X14287Y28962D03*
X13303Y28962D03*
X12319Y28962D03*
X12319Y30883D03*
X13787Y30808D03*
X14787Y30808D03*
X12319Y33883D03*
X12319Y35017D03*
X13303Y35017D03*
X14287Y35017D03*
X14287Y38017D03*
X13303Y38017D03*
X12319Y38017D03*
D46*
X17342Y32580D02*
X18279Y32580D01*
X18279Y30611D02*
X17342Y30611D01*
X17342Y28643D02*
X18279Y28643D01*
X18279Y26674D02*
X17342Y26674D01*
X3063Y33178D02*
X2126Y33178D01*
X2126Y35147D02*
X3063Y35147D01*
X2964Y26084D02*
X2027Y26084D01*
X2027Y24115D02*
X2964Y24115D01*
D47*
X13787Y24312D03*
X14287Y25062D03*
X14787Y24312D03*
X14787Y33367D03*
X14287Y34117D03*
X13787Y33367D03*
D48*
X10389Y31985D03*
X7988Y28525D03*
X10350Y27737D03*
X5665Y31985D03*
X5626Y27737D03*
X5626Y22934D03*
X10350Y22934D03*
X10389Y36789D03*
X8027Y37576D03*
X5665Y36789D03*
D49*
X114Y37895D02*
X114Y21359D01*
X1059Y21359D02*
X1061Y21409D01*
X1067Y21459D01*
X1077Y21508D01*
X1091Y21556D01*
X1108Y21603D01*
X1129Y21648D01*
X1154Y21692D01*
X1182Y21733D01*
X1214Y21772D01*
X1248Y21809D01*
X1285Y21843D01*
X1325Y21873D01*
X1367Y21900D01*
X1411Y21924D01*
X1457Y21945D01*
X1504Y21961D01*
X1552Y21974D01*
X1602Y21983D01*
X1651Y21988D01*
X1702Y21989D01*
X1752Y21986D01*
X1801Y21979D01*
X1850Y21968D01*
X1898Y21953D01*
X1944Y21935D01*
X1989Y21913D01*
X2032Y21887D01*
X2073Y21858D01*
X2112Y21826D01*
X2148Y21791D01*
X2180Y21753D01*
X2210Y21713D01*
X2237Y21670D01*
X2260Y21626D01*
X2279Y21580D01*
X2295Y21532D01*
X2307Y21483D01*
X2315Y21434D01*
X2319Y21384D01*
X2319Y21334D01*
X2315Y21284D01*
X2307Y21235D01*
X2295Y21186D01*
X2279Y21138D01*
X2260Y21092D01*
X2237Y21048D01*
X2210Y21005D01*
X2180Y20965D01*
X2148Y20927D01*
X2112Y20892D01*
X2073Y20860D01*
X2032Y20831D01*
X1989Y20805D01*
X1944Y20783D01*
X1898Y20765D01*
X1850Y20750D01*
X1801Y20739D01*
X1752Y20732D01*
X1702Y20729D01*
X1651Y20730D01*
X1602Y20735D01*
X1552Y20744D01*
X1504Y20757D01*
X1457Y20773D01*
X1411Y20794D01*
X1367Y20818D01*
X1325Y20845D01*
X1285Y20875D01*
X1248Y20909D01*
X1214Y20946D01*
X1182Y20985D01*
X1154Y21026D01*
X1129Y21070D01*
X1108Y21115D01*
X1091Y21162D01*
X1077Y21210D01*
X1067Y21259D01*
X1061Y21309D01*
X1059Y21359D01*
X114Y21359D02*
X116Y21282D01*
X122Y21205D01*
X131Y21128D01*
X144Y21052D01*
X161Y20976D01*
X182Y20902D01*
X206Y20828D01*
X234Y20756D01*
X265Y20686D01*
X300Y20617D01*
X338Y20549D01*
X379Y20484D01*
X424Y20421D01*
X472Y20360D01*
X522Y20301D01*
X575Y20245D01*
X631Y20192D01*
X690Y20142D01*
X751Y20094D01*
X814Y20049D01*
X879Y20008D01*
X947Y19970D01*
X1016Y19935D01*
X1086Y19904D01*
X1158Y19876D01*
X1232Y19852D01*
X1306Y19831D01*
X1382Y19814D01*
X1458Y19801D01*
X1535Y19792D01*
X1612Y19786D01*
X1689Y19784D01*
X1689Y19785D02*
X18224Y19785D01*
X17594Y21359D02*
X17596Y21409D01*
X17602Y21459D01*
X17612Y21508D01*
X17626Y21556D01*
X17643Y21603D01*
X17664Y21648D01*
X17689Y21692D01*
X17717Y21733D01*
X17749Y21772D01*
X17783Y21809D01*
X17820Y21843D01*
X17860Y21873D01*
X17902Y21900D01*
X17946Y21924D01*
X17992Y21945D01*
X18039Y21961D01*
X18087Y21974D01*
X18137Y21983D01*
X18186Y21988D01*
X18237Y21989D01*
X18287Y21986D01*
X18336Y21979D01*
X18385Y21968D01*
X18433Y21953D01*
X18479Y21935D01*
X18524Y21913D01*
X18567Y21887D01*
X18608Y21858D01*
X18647Y21826D01*
X18683Y21791D01*
X18715Y21753D01*
X18745Y21713D01*
X18772Y21670D01*
X18795Y21626D01*
X18814Y21580D01*
X18830Y21532D01*
X18842Y21483D01*
X18850Y21434D01*
X18854Y21384D01*
X18854Y21334D01*
X18850Y21284D01*
X18842Y21235D01*
X18830Y21186D01*
X18814Y21138D01*
X18795Y21092D01*
X18772Y21048D01*
X18745Y21005D01*
X18715Y20965D01*
X18683Y20927D01*
X18647Y20892D01*
X18608Y20860D01*
X18567Y20831D01*
X18524Y20805D01*
X18479Y20783D01*
X18433Y20765D01*
X18385Y20750D01*
X18336Y20739D01*
X18287Y20732D01*
X18237Y20729D01*
X18186Y20730D01*
X18137Y20735D01*
X18087Y20744D01*
X18039Y20757D01*
X17992Y20773D01*
X17946Y20794D01*
X17902Y20818D01*
X17860Y20845D01*
X17820Y20875D01*
X17783Y20909D01*
X17749Y20946D01*
X17717Y20985D01*
X17689Y21026D01*
X17664Y21070D01*
X17643Y21115D01*
X17626Y21162D01*
X17612Y21210D01*
X17602Y21259D01*
X17596Y21309D01*
X17594Y21359D01*
X18224Y19784D02*
X18301Y19786D01*
X18378Y19792D01*
X18455Y19801D01*
X18531Y19814D01*
X18607Y19831D01*
X18681Y19852D01*
X18755Y19876D01*
X18827Y19904D01*
X18897Y19935D01*
X18966Y19970D01*
X19034Y20008D01*
X19099Y20049D01*
X19162Y20094D01*
X19223Y20142D01*
X19282Y20192D01*
X19338Y20245D01*
X19391Y20301D01*
X19441Y20360D01*
X19489Y20421D01*
X19534Y20484D01*
X19575Y20549D01*
X19613Y20617D01*
X19648Y20686D01*
X19679Y20756D01*
X19707Y20828D01*
X19731Y20902D01*
X19752Y20976D01*
X19769Y21052D01*
X19782Y21128D01*
X19791Y21205D01*
X19797Y21282D01*
X19799Y21359D01*
X19799Y37895D01*
X17594Y37895D02*
X17596Y37945D01*
X17602Y37995D01*
X17612Y38044D01*
X17626Y38092D01*
X17643Y38139D01*
X17664Y38184D01*
X17689Y38228D01*
X17717Y38269D01*
X17749Y38308D01*
X17783Y38345D01*
X17820Y38379D01*
X17860Y38409D01*
X17902Y38436D01*
X17946Y38460D01*
X17992Y38481D01*
X18039Y38497D01*
X18087Y38510D01*
X18137Y38519D01*
X18186Y38524D01*
X18237Y38525D01*
X18287Y38522D01*
X18336Y38515D01*
X18385Y38504D01*
X18433Y38489D01*
X18479Y38471D01*
X18524Y38449D01*
X18567Y38423D01*
X18608Y38394D01*
X18647Y38362D01*
X18683Y38327D01*
X18715Y38289D01*
X18745Y38249D01*
X18772Y38206D01*
X18795Y38162D01*
X18814Y38116D01*
X18830Y38068D01*
X18842Y38019D01*
X18850Y37970D01*
X18854Y37920D01*
X18854Y37870D01*
X18850Y37820D01*
X18842Y37771D01*
X18830Y37722D01*
X18814Y37674D01*
X18795Y37628D01*
X18772Y37584D01*
X18745Y37541D01*
X18715Y37501D01*
X18683Y37463D01*
X18647Y37428D01*
X18608Y37396D01*
X18567Y37367D01*
X18524Y37341D01*
X18479Y37319D01*
X18433Y37301D01*
X18385Y37286D01*
X18336Y37275D01*
X18287Y37268D01*
X18237Y37265D01*
X18186Y37266D01*
X18137Y37271D01*
X18087Y37280D01*
X18039Y37293D01*
X17992Y37309D01*
X17946Y37330D01*
X17902Y37354D01*
X17860Y37381D01*
X17820Y37411D01*
X17783Y37445D01*
X17749Y37482D01*
X17717Y37521D01*
X17689Y37562D01*
X17664Y37606D01*
X17643Y37651D01*
X17626Y37698D01*
X17612Y37746D01*
X17602Y37795D01*
X17596Y37845D01*
X17594Y37895D01*
X18224Y39470D02*
X18301Y39468D01*
X18378Y39462D01*
X18455Y39453D01*
X18531Y39440D01*
X18607Y39423D01*
X18681Y39402D01*
X18755Y39378D01*
X18827Y39350D01*
X18897Y39319D01*
X18966Y39284D01*
X19034Y39246D01*
X19099Y39205D01*
X19162Y39160D01*
X19223Y39112D01*
X19282Y39062D01*
X19338Y39009D01*
X19391Y38953D01*
X19441Y38894D01*
X19489Y38833D01*
X19534Y38770D01*
X19575Y38705D01*
X19613Y38637D01*
X19648Y38568D01*
X19679Y38498D01*
X19707Y38426D01*
X19731Y38352D01*
X19752Y38278D01*
X19769Y38202D01*
X19782Y38126D01*
X19791Y38049D01*
X19797Y37972D01*
X19799Y37895D01*
X18224Y39470D02*
X1689Y39470D01*
X1059Y37895D02*
X1061Y37945D01*
X1067Y37995D01*
X1077Y38044D01*
X1091Y38092D01*
X1108Y38139D01*
X1129Y38184D01*
X1154Y38228D01*
X1182Y38269D01*
X1214Y38308D01*
X1248Y38345D01*
X1285Y38379D01*
X1325Y38409D01*
X1367Y38436D01*
X1411Y38460D01*
X1457Y38481D01*
X1504Y38497D01*
X1552Y38510D01*
X1602Y38519D01*
X1651Y38524D01*
X1702Y38525D01*
X1752Y38522D01*
X1801Y38515D01*
X1850Y38504D01*
X1898Y38489D01*
X1944Y38471D01*
X1989Y38449D01*
X2032Y38423D01*
X2073Y38394D01*
X2112Y38362D01*
X2148Y38327D01*
X2180Y38289D01*
X2210Y38249D01*
X2237Y38206D01*
X2260Y38162D01*
X2279Y38116D01*
X2295Y38068D01*
X2307Y38019D01*
X2315Y37970D01*
X2319Y37920D01*
X2319Y37870D01*
X2315Y37820D01*
X2307Y37771D01*
X2295Y37722D01*
X2279Y37674D01*
X2260Y37628D01*
X2237Y37584D01*
X2210Y37541D01*
X2180Y37501D01*
X2148Y37463D01*
X2112Y37428D01*
X2073Y37396D01*
X2032Y37367D01*
X1989Y37341D01*
X1944Y37319D01*
X1898Y37301D01*
X1850Y37286D01*
X1801Y37275D01*
X1752Y37268D01*
X1702Y37265D01*
X1651Y37266D01*
X1602Y37271D01*
X1552Y37280D01*
X1504Y37293D01*
X1457Y37309D01*
X1411Y37330D01*
X1367Y37354D01*
X1325Y37381D01*
X1285Y37411D01*
X1248Y37445D01*
X1214Y37482D01*
X1182Y37521D01*
X1154Y37562D01*
X1129Y37606D01*
X1108Y37651D01*
X1091Y37698D01*
X1077Y37746D01*
X1067Y37795D01*
X1061Y37845D01*
X1059Y37895D01*
X114Y37895D02*
X116Y37972D01*
X122Y38049D01*
X131Y38126D01*
X144Y38202D01*
X161Y38278D01*
X182Y38352D01*
X206Y38426D01*
X234Y38498D01*
X265Y38568D01*
X300Y38637D01*
X338Y38705D01*
X379Y38770D01*
X424Y38833D01*
X472Y38894D01*
X522Y38953D01*
X575Y39009D01*
X631Y39062D01*
X690Y39112D01*
X751Y39160D01*
X814Y39205D01*
X879Y39246D01*
X947Y39284D01*
X1016Y39319D01*
X1086Y39350D01*
X1158Y39378D01*
X1232Y39402D01*
X1306Y39423D01*
X1382Y39440D01*
X1458Y39453D01*
X1535Y39462D01*
X1612Y39468D01*
X1689Y39470D01*
D50*
X1689Y37895D03*
X18224Y37895D03*
X18224Y21359D03*
X1689Y21359D03*
D51*
X19799Y1674D02*
X19799Y18210D01*
X20744Y18210D02*
X20746Y18260D01*
X20752Y18310D01*
X20762Y18359D01*
X20776Y18407D01*
X20793Y18454D01*
X20814Y18499D01*
X20839Y18543D01*
X20867Y18584D01*
X20899Y18623D01*
X20933Y18660D01*
X20970Y18694D01*
X21010Y18724D01*
X21052Y18751D01*
X21096Y18775D01*
X21142Y18796D01*
X21189Y18812D01*
X21237Y18825D01*
X21287Y18834D01*
X21336Y18839D01*
X21387Y18840D01*
X21437Y18837D01*
X21486Y18830D01*
X21535Y18819D01*
X21583Y18804D01*
X21629Y18786D01*
X21674Y18764D01*
X21717Y18738D01*
X21758Y18709D01*
X21797Y18677D01*
X21833Y18642D01*
X21865Y18604D01*
X21895Y18564D01*
X21922Y18521D01*
X21945Y18477D01*
X21964Y18431D01*
X21980Y18383D01*
X21992Y18334D01*
X22000Y18285D01*
X22004Y18235D01*
X22004Y18185D01*
X22000Y18135D01*
X21992Y18086D01*
X21980Y18037D01*
X21964Y17989D01*
X21945Y17943D01*
X21922Y17899D01*
X21895Y17856D01*
X21865Y17816D01*
X21833Y17778D01*
X21797Y17743D01*
X21758Y17711D01*
X21717Y17682D01*
X21674Y17656D01*
X21629Y17634D01*
X21583Y17616D01*
X21535Y17601D01*
X21486Y17590D01*
X21437Y17583D01*
X21387Y17580D01*
X21336Y17581D01*
X21287Y17586D01*
X21237Y17595D01*
X21189Y17608D01*
X21142Y17624D01*
X21096Y17645D01*
X21052Y17669D01*
X21010Y17696D01*
X20970Y17726D01*
X20933Y17760D01*
X20899Y17797D01*
X20867Y17836D01*
X20839Y17877D01*
X20814Y17921D01*
X20793Y17966D01*
X20776Y18013D01*
X20762Y18061D01*
X20752Y18110D01*
X20746Y18160D01*
X20744Y18210D01*
X19799Y18210D02*
X19801Y18287D01*
X19807Y18364D01*
X19816Y18441D01*
X19829Y18517D01*
X19846Y18593D01*
X19867Y18667D01*
X19891Y18741D01*
X19919Y18813D01*
X19950Y18883D01*
X19985Y18952D01*
X20023Y19020D01*
X20064Y19085D01*
X20109Y19148D01*
X20157Y19209D01*
X20207Y19268D01*
X20260Y19324D01*
X20316Y19377D01*
X20375Y19427D01*
X20436Y19475D01*
X20499Y19520D01*
X20564Y19561D01*
X20632Y19599D01*
X20701Y19634D01*
X20771Y19665D01*
X20843Y19693D01*
X20917Y19717D01*
X20991Y19738D01*
X21067Y19755D01*
X21143Y19768D01*
X21220Y19777D01*
X21297Y19783D01*
X21374Y19785D01*
X37909Y19785D01*
X37279Y18210D02*
X37281Y18260D01*
X37287Y18310D01*
X37297Y18359D01*
X37311Y18407D01*
X37328Y18454D01*
X37349Y18499D01*
X37374Y18543D01*
X37402Y18584D01*
X37434Y18623D01*
X37468Y18660D01*
X37505Y18694D01*
X37545Y18724D01*
X37587Y18751D01*
X37631Y18775D01*
X37677Y18796D01*
X37724Y18812D01*
X37772Y18825D01*
X37822Y18834D01*
X37871Y18839D01*
X37922Y18840D01*
X37972Y18837D01*
X38021Y18830D01*
X38070Y18819D01*
X38118Y18804D01*
X38164Y18786D01*
X38209Y18764D01*
X38252Y18738D01*
X38293Y18709D01*
X38332Y18677D01*
X38368Y18642D01*
X38400Y18604D01*
X38430Y18564D01*
X38457Y18521D01*
X38480Y18477D01*
X38499Y18431D01*
X38515Y18383D01*
X38527Y18334D01*
X38535Y18285D01*
X38539Y18235D01*
X38539Y18185D01*
X38535Y18135D01*
X38527Y18086D01*
X38515Y18037D01*
X38499Y17989D01*
X38480Y17943D01*
X38457Y17899D01*
X38430Y17856D01*
X38400Y17816D01*
X38368Y17778D01*
X38332Y17743D01*
X38293Y17711D01*
X38252Y17682D01*
X38209Y17656D01*
X38164Y17634D01*
X38118Y17616D01*
X38070Y17601D01*
X38021Y17590D01*
X37972Y17583D01*
X37922Y17580D01*
X37871Y17581D01*
X37822Y17586D01*
X37772Y17595D01*
X37724Y17608D01*
X37677Y17624D01*
X37631Y17645D01*
X37587Y17669D01*
X37545Y17696D01*
X37505Y17726D01*
X37468Y17760D01*
X37434Y17797D01*
X37402Y17836D01*
X37374Y17877D01*
X37349Y17921D01*
X37328Y17966D01*
X37311Y18013D01*
X37297Y18061D01*
X37287Y18110D01*
X37281Y18160D01*
X37279Y18210D01*
X37909Y19785D02*
X37986Y19783D01*
X38063Y19777D01*
X38140Y19768D01*
X38216Y19755D01*
X38292Y19738D01*
X38366Y19717D01*
X38440Y19693D01*
X38512Y19665D01*
X38582Y19634D01*
X38651Y19599D01*
X38719Y19561D01*
X38784Y19520D01*
X38847Y19475D01*
X38908Y19427D01*
X38967Y19377D01*
X39023Y19324D01*
X39076Y19268D01*
X39126Y19209D01*
X39174Y19148D01*
X39219Y19085D01*
X39260Y19020D01*
X39298Y18952D01*
X39333Y18883D01*
X39364Y18813D01*
X39392Y18741D01*
X39416Y18667D01*
X39437Y18593D01*
X39454Y18517D01*
X39467Y18441D01*
X39476Y18364D01*
X39482Y18287D01*
X39484Y18210D01*
X39484Y1674D01*
X37279Y1674D02*
X37281Y1724D01*
X37287Y1774D01*
X37297Y1823D01*
X37311Y1871D01*
X37328Y1918D01*
X37349Y1963D01*
X37374Y2007D01*
X37402Y2048D01*
X37434Y2087D01*
X37468Y2124D01*
X37505Y2158D01*
X37545Y2188D01*
X37587Y2215D01*
X37631Y2239D01*
X37677Y2260D01*
X37724Y2276D01*
X37772Y2289D01*
X37822Y2298D01*
X37871Y2303D01*
X37922Y2304D01*
X37972Y2301D01*
X38021Y2294D01*
X38070Y2283D01*
X38118Y2268D01*
X38164Y2250D01*
X38209Y2228D01*
X38252Y2202D01*
X38293Y2173D01*
X38332Y2141D01*
X38368Y2106D01*
X38400Y2068D01*
X38430Y2028D01*
X38457Y1985D01*
X38480Y1941D01*
X38499Y1895D01*
X38515Y1847D01*
X38527Y1798D01*
X38535Y1749D01*
X38539Y1699D01*
X38539Y1649D01*
X38535Y1599D01*
X38527Y1550D01*
X38515Y1501D01*
X38499Y1453D01*
X38480Y1407D01*
X38457Y1363D01*
X38430Y1320D01*
X38400Y1280D01*
X38368Y1242D01*
X38332Y1207D01*
X38293Y1175D01*
X38252Y1146D01*
X38209Y1120D01*
X38164Y1098D01*
X38118Y1080D01*
X38070Y1065D01*
X38021Y1054D01*
X37972Y1047D01*
X37922Y1044D01*
X37871Y1045D01*
X37822Y1050D01*
X37772Y1059D01*
X37724Y1072D01*
X37677Y1088D01*
X37631Y1109D01*
X37587Y1133D01*
X37545Y1160D01*
X37505Y1190D01*
X37468Y1224D01*
X37434Y1261D01*
X37402Y1300D01*
X37374Y1341D01*
X37349Y1385D01*
X37328Y1430D01*
X37311Y1477D01*
X37297Y1525D01*
X37287Y1574D01*
X37281Y1624D01*
X37279Y1674D01*
X37909Y99D02*
X37986Y101D01*
X38063Y107D01*
X38140Y116D01*
X38216Y129D01*
X38292Y146D01*
X38366Y167D01*
X38440Y191D01*
X38512Y219D01*
X38582Y250D01*
X38651Y285D01*
X38719Y323D01*
X38784Y364D01*
X38847Y409D01*
X38908Y457D01*
X38967Y507D01*
X39023Y560D01*
X39076Y616D01*
X39126Y675D01*
X39174Y736D01*
X39219Y799D01*
X39260Y864D01*
X39298Y932D01*
X39333Y1001D01*
X39364Y1071D01*
X39392Y1143D01*
X39416Y1217D01*
X39437Y1291D01*
X39454Y1367D01*
X39467Y1443D01*
X39476Y1520D01*
X39482Y1597D01*
X39484Y1674D01*
X37909Y100D02*
X21374Y100D01*
X20744Y1674D02*
X20746Y1724D01*
X20752Y1774D01*
X20762Y1823D01*
X20776Y1871D01*
X20793Y1918D01*
X20814Y1963D01*
X20839Y2007D01*
X20867Y2048D01*
X20899Y2087D01*
X20933Y2124D01*
X20970Y2158D01*
X21010Y2188D01*
X21052Y2215D01*
X21096Y2239D01*
X21142Y2260D01*
X21189Y2276D01*
X21237Y2289D01*
X21287Y2298D01*
X21336Y2303D01*
X21387Y2304D01*
X21437Y2301D01*
X21486Y2294D01*
X21535Y2283D01*
X21583Y2268D01*
X21629Y2250D01*
X21674Y2228D01*
X21717Y2202D01*
X21758Y2173D01*
X21797Y2141D01*
X21833Y2106D01*
X21865Y2068D01*
X21895Y2028D01*
X21922Y1985D01*
X21945Y1941D01*
X21964Y1895D01*
X21980Y1847D01*
X21992Y1798D01*
X22000Y1749D01*
X22004Y1699D01*
X22004Y1649D01*
X22000Y1599D01*
X21992Y1550D01*
X21980Y1501D01*
X21964Y1453D01*
X21945Y1407D01*
X21922Y1363D01*
X21895Y1320D01*
X21865Y1280D01*
X21833Y1242D01*
X21797Y1207D01*
X21758Y1175D01*
X21717Y1146D01*
X21674Y1120D01*
X21629Y1098D01*
X21583Y1080D01*
X21535Y1065D01*
X21486Y1054D01*
X21437Y1047D01*
X21387Y1044D01*
X21336Y1045D01*
X21287Y1050D01*
X21237Y1059D01*
X21189Y1072D01*
X21142Y1088D01*
X21096Y1109D01*
X21052Y1133D01*
X21010Y1160D01*
X20970Y1190D01*
X20933Y1224D01*
X20899Y1261D01*
X20867Y1300D01*
X20839Y1341D01*
X20814Y1385D01*
X20793Y1430D01*
X20776Y1477D01*
X20762Y1525D01*
X20752Y1574D01*
X20746Y1624D01*
X20744Y1674D01*
X19799Y1674D02*
X19801Y1597D01*
X19807Y1520D01*
X19816Y1443D01*
X19829Y1367D01*
X19846Y1291D01*
X19867Y1217D01*
X19891Y1143D01*
X19919Y1071D01*
X19950Y1001D01*
X19985Y932D01*
X20023Y864D01*
X20064Y799D01*
X20109Y736D01*
X20157Y675D01*
X20207Y616D01*
X20260Y560D01*
X20316Y507D01*
X20375Y457D01*
X20436Y409D01*
X20499Y364D01*
X20564Y323D01*
X20632Y285D01*
X20701Y250D01*
X20771Y219D01*
X20843Y191D01*
X20917Y167D01*
X20991Y146D01*
X21067Y129D01*
X21143Y116D01*
X21220Y107D01*
X21297Y101D01*
X21374Y99D01*
D52*
X21374Y1674D03*
X37909Y1674D03*
X37909Y18210D03*
X21374Y18210D03*
D53*
X21550Y16071D02*
X22487Y16071D01*
X22487Y14103D02*
X21550Y14103D01*
X21562Y6596D02*
X22499Y6596D01*
X22499Y4627D02*
X21562Y4627D01*
X36830Y7974D02*
X37767Y7974D01*
X37767Y9942D02*
X36830Y9942D01*
X36830Y11911D02*
X37767Y11911D01*
D54*
X38106Y13560D03*
X36925Y13560D03*
X35775Y14257D03*
X35775Y15257D03*
X35775Y16257D03*
X36925Y16560D03*
X38106Y16560D03*
X31775Y16257D03*
X31775Y15257D03*
X31775Y14257D03*
X36925Y6324D03*
X38106Y6324D03*
X35775Y5627D03*
X35775Y4627D03*
X35775Y3627D03*
X36925Y3324D03*
X38106Y3324D03*
X31775Y3627D03*
X31775Y4627D03*
X31775Y5627D03*
D55*
X35244Y1674D03*
X36244Y1674D03*
X36244Y18210D03*
X35244Y18210D03*
D56*
X32216Y18210D03*
X30716Y18210D03*
X30618Y11123D03*
X32118Y11123D03*
X32216Y8761D03*
X30716Y8761D03*
X30716Y1674D03*
X32216Y1674D03*
D57*
X26776Y4218D02*
X26176Y4218D01*
X24776Y5218D02*
X24176Y5218D01*
X26176Y6218D02*
X26776Y6218D01*
X26776Y13667D02*
X26176Y13667D01*
X24776Y14667D02*
X24176Y14667D01*
X26176Y15667D02*
X26776Y15667D01*
D58*
X26689Y17029D03*
X24720Y17029D03*
X22653Y17324D03*
X24523Y13485D03*
X28657Y16832D03*
X21374Y7777D03*
X24523Y7580D03*
X26492Y7580D03*
X28460Y7383D03*
X24523Y4037D03*
D59*
X20209Y21482D02*
X20207Y21416D01*
X20209Y21350D01*
X20215Y21284D01*
X20224Y21218D01*
X20237Y21153D01*
X20254Y21088D01*
X20274Y21025D01*
X20298Y20963D01*
X20325Y20903D01*
X20356Y20844D01*
X20390Y20786D01*
X20427Y20731D01*
X20467Y20678D01*
X20510Y20628D01*
X20555Y20579D01*
X20604Y20534D01*
X20654Y20491D01*
X20707Y20451D01*
X20762Y20414D01*
X20820Y20380D01*
X20879Y20349D01*
X20939Y20322D01*
X21001Y20298D01*
X21064Y20278D01*
X21129Y20261D01*
X21194Y20248D01*
X21260Y20239D01*
X21326Y20233D01*
X21392Y20231D01*
X21458Y20233D01*
X21458Y20232D02*
X28208Y20232D01*
X28276Y20234D01*
X28343Y20239D01*
X28410Y20248D01*
X28477Y20261D01*
X28542Y20278D01*
X28607Y20297D01*
X28671Y20321D01*
X28733Y20348D01*
X28794Y20378D01*
X28852Y20411D01*
X28909Y20447D01*
X28964Y20487D01*
X29017Y20529D01*
X29068Y20575D01*
X29115Y20622D01*
X29161Y20673D01*
X29203Y20726D01*
X29243Y20781D01*
X29279Y20838D01*
X29312Y20896D01*
X29342Y20957D01*
X29369Y21019D01*
X29393Y21083D01*
X29412Y21148D01*
X29429Y21213D01*
X29442Y21280D01*
X29451Y21347D01*
X29456Y21414D01*
X29458Y21482D01*
X29458Y28232D01*
X29456Y28300D01*
X29451Y28367D01*
X29442Y28434D01*
X29429Y28501D01*
X29412Y28566D01*
X29393Y28631D01*
X29369Y28695D01*
X29342Y28757D01*
X29312Y28818D01*
X29279Y28876D01*
X29243Y28933D01*
X29203Y28988D01*
X29161Y29041D01*
X29115Y29092D01*
X29068Y29139D01*
X29017Y29185D01*
X28964Y29227D01*
X28909Y29267D01*
X28852Y29303D01*
X28794Y29336D01*
X28733Y29366D01*
X28671Y29393D01*
X28607Y29417D01*
X28542Y29436D01*
X28477Y29453D01*
X28410Y29466D01*
X28343Y29475D01*
X28276Y29480D01*
X28208Y29482D01*
X21458Y29482D01*
X20833Y28232D02*
X20835Y28282D01*
X20841Y28331D01*
X20851Y28380D01*
X20864Y28427D01*
X20882Y28474D01*
X20903Y28519D01*
X20927Y28562D01*
X20955Y28603D01*
X20986Y28642D01*
X21020Y28678D01*
X21057Y28712D01*
X21097Y28742D01*
X21138Y28769D01*
X21182Y28793D01*
X21227Y28813D01*
X21274Y28829D01*
X21322Y28842D01*
X21371Y28851D01*
X21421Y28856D01*
X21470Y28857D01*
X21520Y28854D01*
X21569Y28847D01*
X21618Y28836D01*
X21665Y28822D01*
X21711Y28803D01*
X21756Y28781D01*
X21799Y28756D01*
X21839Y28727D01*
X21877Y28695D01*
X21913Y28661D01*
X21946Y28623D01*
X21975Y28583D01*
X22001Y28541D01*
X22024Y28497D01*
X22043Y28451D01*
X22059Y28404D01*
X22071Y28355D01*
X22079Y28306D01*
X22083Y28257D01*
X22083Y28207D01*
X22079Y28158D01*
X22071Y28109D01*
X22059Y28060D01*
X22043Y28013D01*
X22024Y27967D01*
X22001Y27923D01*
X21975Y27881D01*
X21946Y27841D01*
X21913Y27803D01*
X21877Y27769D01*
X21839Y27737D01*
X21799Y27708D01*
X21756Y27683D01*
X21711Y27661D01*
X21665Y27642D01*
X21618Y27628D01*
X21569Y27617D01*
X21520Y27610D01*
X21470Y27607D01*
X21421Y27608D01*
X21371Y27613D01*
X21322Y27622D01*
X21274Y27635D01*
X21227Y27651D01*
X21182Y27671D01*
X21138Y27695D01*
X21097Y27722D01*
X21057Y27752D01*
X21020Y27786D01*
X20986Y27822D01*
X20955Y27861D01*
X20927Y27902D01*
X20903Y27945D01*
X20882Y27990D01*
X20864Y28037D01*
X20851Y28084D01*
X20841Y28133D01*
X20835Y28182D01*
X20833Y28232D01*
X20208Y28232D02*
X20208Y21482D01*
X20833Y21482D02*
X20835Y21532D01*
X20841Y21581D01*
X20851Y21630D01*
X20864Y21677D01*
X20882Y21724D01*
X20903Y21769D01*
X20927Y21812D01*
X20955Y21853D01*
X20986Y21892D01*
X21020Y21928D01*
X21057Y21962D01*
X21097Y21992D01*
X21138Y22019D01*
X21182Y22043D01*
X21227Y22063D01*
X21274Y22079D01*
X21322Y22092D01*
X21371Y22101D01*
X21421Y22106D01*
X21470Y22107D01*
X21520Y22104D01*
X21569Y22097D01*
X21618Y22086D01*
X21665Y22072D01*
X21711Y22053D01*
X21756Y22031D01*
X21799Y22006D01*
X21839Y21977D01*
X21877Y21945D01*
X21913Y21911D01*
X21946Y21873D01*
X21975Y21833D01*
X22001Y21791D01*
X22024Y21747D01*
X22043Y21701D01*
X22059Y21654D01*
X22071Y21605D01*
X22079Y21556D01*
X22083Y21507D01*
X22083Y21457D01*
X22079Y21408D01*
X22071Y21359D01*
X22059Y21310D01*
X22043Y21263D01*
X22024Y21217D01*
X22001Y21173D01*
X21975Y21131D01*
X21946Y21091D01*
X21913Y21053D01*
X21877Y21019D01*
X21839Y20987D01*
X21799Y20958D01*
X21756Y20933D01*
X21711Y20911D01*
X21665Y20892D01*
X21618Y20878D01*
X21569Y20867D01*
X21520Y20860D01*
X21470Y20857D01*
X21421Y20858D01*
X21371Y20863D01*
X21322Y20872D01*
X21274Y20885D01*
X21227Y20901D01*
X21182Y20921D01*
X21138Y20945D01*
X21097Y20972D01*
X21057Y21002D01*
X21020Y21036D01*
X20986Y21072D01*
X20955Y21111D01*
X20927Y21152D01*
X20903Y21195D01*
X20882Y21240D01*
X20864Y21287D01*
X20851Y21334D01*
X20841Y21383D01*
X20835Y21432D01*
X20833Y21482D01*
X20208Y28232D02*
X20210Y28300D01*
X20215Y28367D01*
X20224Y28434D01*
X20237Y28501D01*
X20254Y28566D01*
X20273Y28631D01*
X20297Y28695D01*
X20324Y28757D01*
X20354Y28818D01*
X20387Y28876D01*
X20423Y28933D01*
X20463Y28988D01*
X20505Y29041D01*
X20551Y29092D01*
X20598Y29139D01*
X20649Y29185D01*
X20702Y29227D01*
X20757Y29267D01*
X20814Y29303D01*
X20872Y29336D01*
X20933Y29366D01*
X20995Y29393D01*
X21059Y29417D01*
X21124Y29436D01*
X21189Y29453D01*
X21256Y29466D01*
X21323Y29475D01*
X21390Y29480D01*
X21458Y29482D01*
X27583Y28232D02*
X27585Y28282D01*
X27591Y28331D01*
X27601Y28380D01*
X27614Y28427D01*
X27632Y28474D01*
X27653Y28519D01*
X27677Y28562D01*
X27705Y28603D01*
X27736Y28642D01*
X27770Y28678D01*
X27807Y28712D01*
X27847Y28742D01*
X27888Y28769D01*
X27932Y28793D01*
X27977Y28813D01*
X28024Y28829D01*
X28072Y28842D01*
X28121Y28851D01*
X28171Y28856D01*
X28220Y28857D01*
X28270Y28854D01*
X28319Y28847D01*
X28368Y28836D01*
X28415Y28822D01*
X28461Y28803D01*
X28506Y28781D01*
X28549Y28756D01*
X28589Y28727D01*
X28627Y28695D01*
X28663Y28661D01*
X28696Y28623D01*
X28725Y28583D01*
X28751Y28541D01*
X28774Y28497D01*
X28793Y28451D01*
X28809Y28404D01*
X28821Y28355D01*
X28829Y28306D01*
X28833Y28257D01*
X28833Y28207D01*
X28829Y28158D01*
X28821Y28109D01*
X28809Y28060D01*
X28793Y28013D01*
X28774Y27967D01*
X28751Y27923D01*
X28725Y27881D01*
X28696Y27841D01*
X28663Y27803D01*
X28627Y27769D01*
X28589Y27737D01*
X28549Y27708D01*
X28506Y27683D01*
X28461Y27661D01*
X28415Y27642D01*
X28368Y27628D01*
X28319Y27617D01*
X28270Y27610D01*
X28220Y27607D01*
X28171Y27608D01*
X28121Y27613D01*
X28072Y27622D01*
X28024Y27635D01*
X27977Y27651D01*
X27932Y27671D01*
X27888Y27695D01*
X27847Y27722D01*
X27807Y27752D01*
X27770Y27786D01*
X27736Y27822D01*
X27705Y27861D01*
X27677Y27902D01*
X27653Y27945D01*
X27632Y27990D01*
X27614Y28037D01*
X27601Y28084D01*
X27591Y28133D01*
X27585Y28182D01*
X27583Y28232D01*
X27583Y21482D02*
X27585Y21532D01*
X27591Y21581D01*
X27601Y21630D01*
X27614Y21677D01*
X27632Y21724D01*
X27653Y21769D01*
X27677Y21812D01*
X27705Y21853D01*
X27736Y21892D01*
X27770Y21928D01*
X27807Y21962D01*
X27847Y21992D01*
X27888Y22019D01*
X27932Y22043D01*
X27977Y22063D01*
X28024Y22079D01*
X28072Y22092D01*
X28121Y22101D01*
X28171Y22106D01*
X28220Y22107D01*
X28270Y22104D01*
X28319Y22097D01*
X28368Y22086D01*
X28415Y22072D01*
X28461Y22053D01*
X28506Y22031D01*
X28549Y22006D01*
X28589Y21977D01*
X28627Y21945D01*
X28663Y21911D01*
X28696Y21873D01*
X28725Y21833D01*
X28751Y21791D01*
X28774Y21747D01*
X28793Y21701D01*
X28809Y21654D01*
X28821Y21605D01*
X28829Y21556D01*
X28833Y21507D01*
X28833Y21457D01*
X28829Y21408D01*
X28821Y21359D01*
X28809Y21310D01*
X28793Y21263D01*
X28774Y21217D01*
X28751Y21173D01*
X28725Y21131D01*
X28696Y21091D01*
X28663Y21053D01*
X28627Y21019D01*
X28589Y20987D01*
X28549Y20958D01*
X28506Y20933D01*
X28461Y20911D01*
X28415Y20892D01*
X28368Y20878D01*
X28319Y20867D01*
X28270Y20860D01*
X28220Y20857D01*
X28171Y20858D01*
X28121Y20863D01*
X28072Y20872D01*
X28024Y20885D01*
X27977Y20901D01*
X27932Y20921D01*
X27888Y20945D01*
X27847Y20972D01*
X27807Y21002D01*
X27770Y21036D01*
X27736Y21072D01*
X27705Y21111D01*
X27677Y21152D01*
X27653Y21195D01*
X27632Y21240D01*
X27614Y21287D01*
X27601Y21334D01*
X27591Y21383D01*
X27585Y21432D01*
X27583Y21482D01*
D60*
X28208Y21482D03*
X28208Y28232D03*
X21458Y28232D03*
X21458Y21482D03*
D61*
X21458Y26357D03*
X28208Y26357D03*
D62*
X28208Y25357D03*
X28208Y24357D03*
X28208Y23357D03*
X26333Y21482D03*
X25333Y21482D03*
X24333Y21482D03*
X21458Y23357D03*
X21458Y24357D03*
X21458Y25357D03*
D63*
X24083Y25887D03*
X24583Y25887D03*
X25083Y25887D03*
X25583Y25887D03*
X25583Y23827D03*
X25083Y23827D03*
X24583Y23827D03*
X24083Y23827D03*
D64*
X26498Y25857D03*
X27168Y25857D03*
D65*
X26208Y27632D03*
X26208Y28232D03*
X26208Y28832D03*
X24833Y28832D03*
X24833Y28232D03*
X24833Y27632D03*
X23458Y27632D03*
X23458Y28232D03*
X23458Y28832D03*
D66*
X23708Y26982D03*
X24583Y26982D03*
X25708Y24857D03*
X26958Y24857D03*
X26958Y22857D03*
X25833Y22732D03*
X23958Y22982D03*
X22458Y22482D03*
X22333Y24857D03*
X26833Y27045D03*
D67*
X30208Y31482D02*
X30208Y38232D01*
X30210Y38300D01*
X30215Y38367D01*
X30224Y38434D01*
X30237Y38501D01*
X30254Y38566D01*
X30273Y38631D01*
X30297Y38695D01*
X30324Y38757D01*
X30354Y38818D01*
X30387Y38876D01*
X30423Y38933D01*
X30463Y38988D01*
X30505Y39041D01*
X30551Y39092D01*
X30598Y39139D01*
X30649Y39185D01*
X30702Y39227D01*
X30757Y39267D01*
X30814Y39303D01*
X30872Y39336D01*
X30933Y39366D01*
X30995Y39393D01*
X31059Y39417D01*
X31124Y39436D01*
X31189Y39453D01*
X31256Y39466D01*
X31323Y39475D01*
X31390Y39480D01*
X31458Y39482D01*
X38208Y39482D01*
X38276Y39480D01*
X38343Y39475D01*
X38410Y39466D01*
X38477Y39453D01*
X38542Y39436D01*
X38607Y39417D01*
X38671Y39393D01*
X38733Y39366D01*
X38794Y39336D01*
X38852Y39303D01*
X38909Y39267D01*
X38964Y39227D01*
X39017Y39185D01*
X39068Y39139D01*
X39115Y39092D01*
X39161Y39041D01*
X39203Y38988D01*
X39243Y38933D01*
X39279Y38876D01*
X39312Y38818D01*
X39342Y38757D01*
X39369Y38695D01*
X39393Y38631D01*
X39412Y38566D01*
X39429Y38501D01*
X39442Y38434D01*
X39451Y38367D01*
X39456Y38300D01*
X39458Y38232D01*
X39458Y31482D01*
X39456Y31414D01*
X39451Y31347D01*
X39442Y31280D01*
X39429Y31213D01*
X39412Y31148D01*
X39393Y31083D01*
X39369Y31019D01*
X39342Y30957D01*
X39312Y30896D01*
X39279Y30838D01*
X39243Y30781D01*
X39203Y30726D01*
X39161Y30673D01*
X39115Y30622D01*
X39068Y30575D01*
X39017Y30529D01*
X38964Y30487D01*
X38909Y30447D01*
X38852Y30411D01*
X38794Y30378D01*
X38733Y30348D01*
X38671Y30321D01*
X38607Y30297D01*
X38542Y30278D01*
X38477Y30261D01*
X38410Y30248D01*
X38343Y30239D01*
X38276Y30234D01*
X38208Y30232D01*
X31458Y30232D01*
X31390Y30234D01*
X31323Y30239D01*
X31256Y30248D01*
X31189Y30261D01*
X31124Y30278D01*
X31059Y30297D01*
X30995Y30321D01*
X30933Y30348D01*
X30872Y30378D01*
X30814Y30411D01*
X30757Y30447D01*
X30702Y30487D01*
X30649Y30529D01*
X30598Y30575D01*
X30551Y30622D01*
X30505Y30673D01*
X30463Y30726D01*
X30423Y30781D01*
X30387Y30838D01*
X30354Y30896D01*
X30324Y30957D01*
X30297Y31019D01*
X30273Y31083D01*
X30254Y31148D01*
X30237Y31213D01*
X30224Y31280D01*
X30215Y31347D01*
X30210Y31414D01*
X30208Y31482D01*
X30833Y31482D02*
X30835Y31532D01*
X30841Y31581D01*
X30851Y31630D01*
X30864Y31677D01*
X30882Y31724D01*
X30903Y31769D01*
X30927Y31812D01*
X30955Y31853D01*
X30986Y31892D01*
X31020Y31928D01*
X31057Y31962D01*
X31097Y31992D01*
X31138Y32019D01*
X31182Y32043D01*
X31227Y32063D01*
X31274Y32079D01*
X31322Y32092D01*
X31371Y32101D01*
X31421Y32106D01*
X31470Y32107D01*
X31520Y32104D01*
X31569Y32097D01*
X31618Y32086D01*
X31665Y32072D01*
X31711Y32053D01*
X31756Y32031D01*
X31799Y32006D01*
X31839Y31977D01*
X31877Y31945D01*
X31913Y31911D01*
X31946Y31873D01*
X31975Y31833D01*
X32001Y31791D01*
X32024Y31747D01*
X32043Y31701D01*
X32059Y31654D01*
X32071Y31605D01*
X32079Y31556D01*
X32083Y31507D01*
X32083Y31457D01*
X32079Y31408D01*
X32071Y31359D01*
X32059Y31310D01*
X32043Y31263D01*
X32024Y31217D01*
X32001Y31173D01*
X31975Y31131D01*
X31946Y31091D01*
X31913Y31053D01*
X31877Y31019D01*
X31839Y30987D01*
X31799Y30958D01*
X31756Y30933D01*
X31711Y30911D01*
X31665Y30892D01*
X31618Y30878D01*
X31569Y30867D01*
X31520Y30860D01*
X31470Y30857D01*
X31421Y30858D01*
X31371Y30863D01*
X31322Y30872D01*
X31274Y30885D01*
X31227Y30901D01*
X31182Y30921D01*
X31138Y30945D01*
X31097Y30972D01*
X31057Y31002D01*
X31020Y31036D01*
X30986Y31072D01*
X30955Y31111D01*
X30927Y31152D01*
X30903Y31195D01*
X30882Y31240D01*
X30864Y31287D01*
X30851Y31334D01*
X30841Y31383D01*
X30835Y31432D01*
X30833Y31482D01*
X30833Y38232D02*
X30835Y38282D01*
X30841Y38331D01*
X30851Y38380D01*
X30864Y38427D01*
X30882Y38474D01*
X30903Y38519D01*
X30927Y38562D01*
X30955Y38603D01*
X30986Y38642D01*
X31020Y38678D01*
X31057Y38712D01*
X31097Y38742D01*
X31138Y38769D01*
X31182Y38793D01*
X31227Y38813D01*
X31274Y38829D01*
X31322Y38842D01*
X31371Y38851D01*
X31421Y38856D01*
X31470Y38857D01*
X31520Y38854D01*
X31569Y38847D01*
X31618Y38836D01*
X31665Y38822D01*
X31711Y38803D01*
X31756Y38781D01*
X31799Y38756D01*
X31839Y38727D01*
X31877Y38695D01*
X31913Y38661D01*
X31946Y38623D01*
X31975Y38583D01*
X32001Y38541D01*
X32024Y38497D01*
X32043Y38451D01*
X32059Y38404D01*
X32071Y38355D01*
X32079Y38306D01*
X32083Y38257D01*
X32083Y38207D01*
X32079Y38158D01*
X32071Y38109D01*
X32059Y38060D01*
X32043Y38013D01*
X32024Y37967D01*
X32001Y37923D01*
X31975Y37881D01*
X31946Y37841D01*
X31913Y37803D01*
X31877Y37769D01*
X31839Y37737D01*
X31799Y37708D01*
X31756Y37683D01*
X31711Y37661D01*
X31665Y37642D01*
X31618Y37628D01*
X31569Y37617D01*
X31520Y37610D01*
X31470Y37607D01*
X31421Y37608D01*
X31371Y37613D01*
X31322Y37622D01*
X31274Y37635D01*
X31227Y37651D01*
X31182Y37671D01*
X31138Y37695D01*
X31097Y37722D01*
X31057Y37752D01*
X31020Y37786D01*
X30986Y37822D01*
X30955Y37861D01*
X30927Y37902D01*
X30903Y37945D01*
X30882Y37990D01*
X30864Y38037D01*
X30851Y38084D01*
X30841Y38133D01*
X30835Y38182D01*
X30833Y38232D01*
X37583Y38232D02*
X37585Y38282D01*
X37591Y38331D01*
X37601Y38380D01*
X37614Y38427D01*
X37632Y38474D01*
X37653Y38519D01*
X37677Y38562D01*
X37705Y38603D01*
X37736Y38642D01*
X37770Y38678D01*
X37807Y38712D01*
X37847Y38742D01*
X37888Y38769D01*
X37932Y38793D01*
X37977Y38813D01*
X38024Y38829D01*
X38072Y38842D01*
X38121Y38851D01*
X38171Y38856D01*
X38220Y38857D01*
X38270Y38854D01*
X38319Y38847D01*
X38368Y38836D01*
X38415Y38822D01*
X38461Y38803D01*
X38506Y38781D01*
X38549Y38756D01*
X38589Y38727D01*
X38627Y38695D01*
X38663Y38661D01*
X38696Y38623D01*
X38725Y38583D01*
X38751Y38541D01*
X38774Y38497D01*
X38793Y38451D01*
X38809Y38404D01*
X38821Y38355D01*
X38829Y38306D01*
X38833Y38257D01*
X38833Y38207D01*
X38829Y38158D01*
X38821Y38109D01*
X38809Y38060D01*
X38793Y38013D01*
X38774Y37967D01*
X38751Y37923D01*
X38725Y37881D01*
X38696Y37841D01*
X38663Y37803D01*
X38627Y37769D01*
X38589Y37737D01*
X38549Y37708D01*
X38506Y37683D01*
X38461Y37661D01*
X38415Y37642D01*
X38368Y37628D01*
X38319Y37617D01*
X38270Y37610D01*
X38220Y37607D01*
X38171Y37608D01*
X38121Y37613D01*
X38072Y37622D01*
X38024Y37635D01*
X37977Y37651D01*
X37932Y37671D01*
X37888Y37695D01*
X37847Y37722D01*
X37807Y37752D01*
X37770Y37786D01*
X37736Y37822D01*
X37705Y37861D01*
X37677Y37902D01*
X37653Y37945D01*
X37632Y37990D01*
X37614Y38037D01*
X37601Y38084D01*
X37591Y38133D01*
X37585Y38182D01*
X37583Y38232D01*
X37583Y31482D02*
X37585Y31532D01*
X37591Y31581D01*
X37601Y31630D01*
X37614Y31677D01*
X37632Y31724D01*
X37653Y31769D01*
X37677Y31812D01*
X37705Y31853D01*
X37736Y31892D01*
X37770Y31928D01*
X37807Y31962D01*
X37847Y31992D01*
X37888Y32019D01*
X37932Y32043D01*
X37977Y32063D01*
X38024Y32079D01*
X38072Y32092D01*
X38121Y32101D01*
X38171Y32106D01*
X38220Y32107D01*
X38270Y32104D01*
X38319Y32097D01*
X38368Y32086D01*
X38415Y32072D01*
X38461Y32053D01*
X38506Y32031D01*
X38549Y32006D01*
X38589Y31977D01*
X38627Y31945D01*
X38663Y31911D01*
X38696Y31873D01*
X38725Y31833D01*
X38751Y31791D01*
X38774Y31747D01*
X38793Y31701D01*
X38809Y31654D01*
X38821Y31605D01*
X38829Y31556D01*
X38833Y31507D01*
X38833Y31457D01*
X38829Y31408D01*
X38821Y31359D01*
X38809Y31310D01*
X38793Y31263D01*
X38774Y31217D01*
X38751Y31173D01*
X38725Y31131D01*
X38696Y31091D01*
X38663Y31053D01*
X38627Y31019D01*
X38589Y30987D01*
X38549Y30958D01*
X38506Y30933D01*
X38461Y30911D01*
X38415Y30892D01*
X38368Y30878D01*
X38319Y30867D01*
X38270Y30860D01*
X38220Y30857D01*
X38171Y30858D01*
X38121Y30863D01*
X38072Y30872D01*
X38024Y30885D01*
X37977Y30901D01*
X37932Y30921D01*
X37888Y30945D01*
X37847Y30972D01*
X37807Y31002D01*
X37770Y31036D01*
X37736Y31072D01*
X37705Y31111D01*
X37677Y31152D01*
X37653Y31195D01*
X37632Y31240D01*
X37614Y31287D01*
X37601Y31334D01*
X37591Y31383D01*
X37585Y31432D01*
X37583Y31482D01*
D68*
X38208Y31482D03*
X38208Y38232D03*
X31458Y38232D03*
X31458Y31482D03*
D69*
X31458Y33357D03*
X33333Y31482D03*
X38208Y33357D03*
X36333Y38232D03*
D70*
X35333Y38232D03*
X34333Y38232D03*
X33333Y38232D03*
X31458Y36357D03*
X31458Y35357D03*
X31458Y34357D03*
X34333Y31482D03*
X35333Y31482D03*
X36333Y31482D03*
X38208Y34357D03*
X38208Y35357D03*
X38208Y36357D03*
D71*
X36208Y36232D03*
X36208Y33607D03*
X33583Y33607D03*
X33458Y36232D03*
D72*
X20209Y31482D02*
X20207Y31416D01*
X20209Y31350D01*
X20215Y31284D01*
X20224Y31218D01*
X20237Y31153D01*
X20254Y31088D01*
X20274Y31025D01*
X20298Y30963D01*
X20325Y30903D01*
X20356Y30844D01*
X20390Y30786D01*
X20427Y30731D01*
X20467Y30678D01*
X20510Y30628D01*
X20555Y30579D01*
X20604Y30534D01*
X20654Y30491D01*
X20707Y30451D01*
X20762Y30414D01*
X20820Y30380D01*
X20879Y30349D01*
X20939Y30322D01*
X21001Y30298D01*
X21064Y30278D01*
X21129Y30261D01*
X21194Y30248D01*
X21260Y30239D01*
X21326Y30233D01*
X21392Y30231D01*
X21458Y30233D01*
X21458Y30232D02*
X28208Y30232D01*
X28276Y30234D01*
X28343Y30239D01*
X28410Y30248D01*
X28477Y30261D01*
X28542Y30278D01*
X28607Y30297D01*
X28671Y30321D01*
X28733Y30348D01*
X28794Y30378D01*
X28852Y30411D01*
X28909Y30447D01*
X28964Y30487D01*
X29017Y30529D01*
X29068Y30575D01*
X29115Y30622D01*
X29161Y30673D01*
X29203Y30726D01*
X29243Y30781D01*
X29279Y30838D01*
X29312Y30896D01*
X29342Y30957D01*
X29369Y31019D01*
X29393Y31083D01*
X29412Y31148D01*
X29429Y31213D01*
X29442Y31280D01*
X29451Y31347D01*
X29456Y31414D01*
X29458Y31482D01*
X29458Y38232D01*
X29456Y38300D01*
X29451Y38367D01*
X29442Y38434D01*
X29429Y38501D01*
X29412Y38566D01*
X29393Y38631D01*
X29369Y38695D01*
X29342Y38757D01*
X29312Y38818D01*
X29279Y38876D01*
X29243Y38933D01*
X29203Y38988D01*
X29161Y39041D01*
X29115Y39092D01*
X29068Y39139D01*
X29017Y39185D01*
X28964Y39227D01*
X28909Y39267D01*
X28852Y39303D01*
X28794Y39336D01*
X28733Y39366D01*
X28671Y39393D01*
X28607Y39417D01*
X28542Y39436D01*
X28477Y39453D01*
X28410Y39466D01*
X28343Y39475D01*
X28276Y39480D01*
X28208Y39482D01*
X21458Y39482D01*
X21390Y39480D01*
X21323Y39475D01*
X21256Y39466D01*
X21189Y39453D01*
X21124Y39436D01*
X21059Y39417D01*
X20995Y39393D01*
X20933Y39366D01*
X20872Y39336D01*
X20814Y39303D01*
X20757Y39267D01*
X20702Y39227D01*
X20649Y39185D01*
X20598Y39139D01*
X20551Y39092D01*
X20505Y39041D01*
X20463Y38988D01*
X20423Y38933D01*
X20387Y38876D01*
X20354Y38818D01*
X20324Y38757D01*
X20297Y38695D01*
X20273Y38631D01*
X20254Y38566D01*
X20237Y38501D01*
X20224Y38434D01*
X20215Y38367D01*
X20210Y38300D01*
X20208Y38232D01*
X20208Y31482D01*
X20833Y31482D02*
X20835Y31532D01*
X20841Y31581D01*
X20851Y31630D01*
X20864Y31677D01*
X20882Y31724D01*
X20903Y31769D01*
X20927Y31812D01*
X20955Y31853D01*
X20986Y31892D01*
X21020Y31928D01*
X21057Y31962D01*
X21097Y31992D01*
X21138Y32019D01*
X21182Y32043D01*
X21227Y32063D01*
X21274Y32079D01*
X21322Y32092D01*
X21371Y32101D01*
X21421Y32106D01*
X21470Y32107D01*
X21520Y32104D01*
X21569Y32097D01*
X21618Y32086D01*
X21665Y32072D01*
X21711Y32053D01*
X21756Y32031D01*
X21799Y32006D01*
X21839Y31977D01*
X21877Y31945D01*
X21913Y31911D01*
X21946Y31873D01*
X21975Y31833D01*
X22001Y31791D01*
X22024Y31747D01*
X22043Y31701D01*
X22059Y31654D01*
X22071Y31605D01*
X22079Y31556D01*
X22083Y31507D01*
X22083Y31457D01*
X22079Y31408D01*
X22071Y31359D01*
X22059Y31310D01*
X22043Y31263D01*
X22024Y31217D01*
X22001Y31173D01*
X21975Y31131D01*
X21946Y31091D01*
X21913Y31053D01*
X21877Y31019D01*
X21839Y30987D01*
X21799Y30958D01*
X21756Y30933D01*
X21711Y30911D01*
X21665Y30892D01*
X21618Y30878D01*
X21569Y30867D01*
X21520Y30860D01*
X21470Y30857D01*
X21421Y30858D01*
X21371Y30863D01*
X21322Y30872D01*
X21274Y30885D01*
X21227Y30901D01*
X21182Y30921D01*
X21138Y30945D01*
X21097Y30972D01*
X21057Y31002D01*
X21020Y31036D01*
X20986Y31072D01*
X20955Y31111D01*
X20927Y31152D01*
X20903Y31195D01*
X20882Y31240D01*
X20864Y31287D01*
X20851Y31334D01*
X20841Y31383D01*
X20835Y31432D01*
X20833Y31482D01*
X27583Y31482D02*
X27585Y31532D01*
X27591Y31581D01*
X27601Y31630D01*
X27614Y31677D01*
X27632Y31724D01*
X27653Y31769D01*
X27677Y31812D01*
X27705Y31853D01*
X27736Y31892D01*
X27770Y31928D01*
X27807Y31962D01*
X27847Y31992D01*
X27888Y32019D01*
X27932Y32043D01*
X27977Y32063D01*
X28024Y32079D01*
X28072Y32092D01*
X28121Y32101D01*
X28171Y32106D01*
X28220Y32107D01*
X28270Y32104D01*
X28319Y32097D01*
X28368Y32086D01*
X28415Y32072D01*
X28461Y32053D01*
X28506Y32031D01*
X28549Y32006D01*
X28589Y31977D01*
X28627Y31945D01*
X28663Y31911D01*
X28696Y31873D01*
X28725Y31833D01*
X28751Y31791D01*
X28774Y31747D01*
X28793Y31701D01*
X28809Y31654D01*
X28821Y31605D01*
X28829Y31556D01*
X28833Y31507D01*
X28833Y31457D01*
X28829Y31408D01*
X28821Y31359D01*
X28809Y31310D01*
X28793Y31263D01*
X28774Y31217D01*
X28751Y31173D01*
X28725Y31131D01*
X28696Y31091D01*
X28663Y31053D01*
X28627Y31019D01*
X28589Y30987D01*
X28549Y30958D01*
X28506Y30933D01*
X28461Y30911D01*
X28415Y30892D01*
X28368Y30878D01*
X28319Y30867D01*
X28270Y30860D01*
X28220Y30857D01*
X28171Y30858D01*
X28121Y30863D01*
X28072Y30872D01*
X28024Y30885D01*
X27977Y30901D01*
X27932Y30921D01*
X27888Y30945D01*
X27847Y30972D01*
X27807Y31002D01*
X27770Y31036D01*
X27736Y31072D01*
X27705Y31111D01*
X27677Y31152D01*
X27653Y31195D01*
X27632Y31240D01*
X27614Y31287D01*
X27601Y31334D01*
X27591Y31383D01*
X27585Y31432D01*
X27583Y31482D01*
X27583Y38232D02*
X27585Y38282D01*
X27591Y38331D01*
X27601Y38380D01*
X27614Y38427D01*
X27632Y38474D01*
X27653Y38519D01*
X27677Y38562D01*
X27705Y38603D01*
X27736Y38642D01*
X27770Y38678D01*
X27807Y38712D01*
X27847Y38742D01*
X27888Y38769D01*
X27932Y38793D01*
X27977Y38813D01*
X28024Y38829D01*
X28072Y38842D01*
X28121Y38851D01*
X28171Y38856D01*
X28220Y38857D01*
X28270Y38854D01*
X28319Y38847D01*
X28368Y38836D01*
X28415Y38822D01*
X28461Y38803D01*
X28506Y38781D01*
X28549Y38756D01*
X28589Y38727D01*
X28627Y38695D01*
X28663Y38661D01*
X28696Y38623D01*
X28725Y38583D01*
X28751Y38541D01*
X28774Y38497D01*
X28793Y38451D01*
X28809Y38404D01*
X28821Y38355D01*
X28829Y38306D01*
X28833Y38257D01*
X28833Y38207D01*
X28829Y38158D01*
X28821Y38109D01*
X28809Y38060D01*
X28793Y38013D01*
X28774Y37967D01*
X28751Y37923D01*
X28725Y37881D01*
X28696Y37841D01*
X28663Y37803D01*
X28627Y37769D01*
X28589Y37737D01*
X28549Y37708D01*
X28506Y37683D01*
X28461Y37661D01*
X28415Y37642D01*
X28368Y37628D01*
X28319Y37617D01*
X28270Y37610D01*
X28220Y37607D01*
X28171Y37608D01*
X28121Y37613D01*
X28072Y37622D01*
X28024Y37635D01*
X27977Y37651D01*
X27932Y37671D01*
X27888Y37695D01*
X27847Y37722D01*
X27807Y37752D01*
X27770Y37786D01*
X27736Y37822D01*
X27705Y37861D01*
X27677Y37902D01*
X27653Y37945D01*
X27632Y37990D01*
X27614Y38037D01*
X27601Y38084D01*
X27591Y38133D01*
X27585Y38182D01*
X27583Y38232D01*
D73*
X28208Y38232D03*
X28208Y31482D03*
X21458Y31482D03*
D74*
X21458Y33357D03*
X21458Y34357D03*
X21458Y35357D03*
X21458Y36357D03*
X21458Y37357D03*
X28208Y36357D03*
X28208Y35357D03*
X28208Y34357D03*
D75*
X28208Y33357D03*
D76*
X26833Y33857D03*
X26208Y32982D03*
X26833Y31397D03*
X23583Y33982D03*
X22583Y35857D03*
X22583Y36982D03*
X21208Y38607D03*
X26333Y36857D03*
X26833Y35857D03*
X23083Y31357D03*
D77*
X30208Y21482D02*
X30208Y28232D01*
X30210Y28300D01*
X30215Y28367D01*
X30224Y28434D01*
X30237Y28501D01*
X30254Y28566D01*
X30273Y28631D01*
X30297Y28695D01*
X30324Y28757D01*
X30354Y28818D01*
X30387Y28876D01*
X30423Y28933D01*
X30463Y28988D01*
X30505Y29041D01*
X30551Y29092D01*
X30598Y29139D01*
X30649Y29185D01*
X30702Y29227D01*
X30757Y29267D01*
X30814Y29303D01*
X30872Y29336D01*
X30933Y29366D01*
X30995Y29393D01*
X31059Y29417D01*
X31124Y29436D01*
X31189Y29453D01*
X31256Y29466D01*
X31323Y29475D01*
X31390Y29480D01*
X31458Y29482D01*
X38208Y29482D01*
X38276Y29480D01*
X38343Y29475D01*
X38410Y29466D01*
X38477Y29453D01*
X38542Y29436D01*
X38607Y29417D01*
X38671Y29393D01*
X38733Y29366D01*
X38794Y29336D01*
X38852Y29303D01*
X38909Y29267D01*
X38964Y29227D01*
X39017Y29185D01*
X39068Y29139D01*
X39115Y29092D01*
X39161Y29041D01*
X39203Y28988D01*
X39243Y28933D01*
X39279Y28876D01*
X39312Y28818D01*
X39342Y28757D01*
X39369Y28695D01*
X39393Y28631D01*
X39412Y28566D01*
X39429Y28501D01*
X39442Y28434D01*
X39451Y28367D01*
X39456Y28300D01*
X39458Y28232D01*
X39458Y21482D01*
X39456Y21414D01*
X39451Y21347D01*
X39442Y21280D01*
X39429Y21213D01*
X39412Y21148D01*
X39393Y21083D01*
X39369Y21019D01*
X39342Y20957D01*
X39312Y20896D01*
X39279Y20838D01*
X39243Y20781D01*
X39203Y20726D01*
X39161Y20673D01*
X39115Y20622D01*
X39068Y20575D01*
X39017Y20529D01*
X38964Y20487D01*
X38909Y20447D01*
X38852Y20411D01*
X38794Y20378D01*
X38733Y20348D01*
X38671Y20321D01*
X38607Y20297D01*
X38542Y20278D01*
X38477Y20261D01*
X38410Y20248D01*
X38343Y20239D01*
X38276Y20234D01*
X38208Y20232D01*
X31458Y20232D01*
X31390Y20234D01*
X31323Y20239D01*
X31256Y20248D01*
X31189Y20261D01*
X31124Y20278D01*
X31059Y20297D01*
X30995Y20321D01*
X30933Y20348D01*
X30872Y20378D01*
X30814Y20411D01*
X30757Y20447D01*
X30702Y20487D01*
X30649Y20529D01*
X30598Y20575D01*
X30551Y20622D01*
X30505Y20673D01*
X30463Y20726D01*
X30423Y20781D01*
X30387Y20838D01*
X30354Y20896D01*
X30324Y20957D01*
X30297Y21019D01*
X30273Y21083D01*
X30254Y21148D01*
X30237Y21213D01*
X30224Y21280D01*
X30215Y21347D01*
X30210Y21414D01*
X30208Y21482D01*
X30833Y21482D02*
X30835Y21532D01*
X30841Y21581D01*
X30851Y21630D01*
X30864Y21677D01*
X30882Y21724D01*
X30903Y21769D01*
X30927Y21812D01*
X30955Y21853D01*
X30986Y21892D01*
X31020Y21928D01*
X31057Y21962D01*
X31097Y21992D01*
X31138Y22019D01*
X31182Y22043D01*
X31227Y22063D01*
X31274Y22079D01*
X31322Y22092D01*
X31371Y22101D01*
X31421Y22106D01*
X31470Y22107D01*
X31520Y22104D01*
X31569Y22097D01*
X31618Y22086D01*
X31665Y22072D01*
X31711Y22053D01*
X31756Y22031D01*
X31799Y22006D01*
X31839Y21977D01*
X31877Y21945D01*
X31913Y21911D01*
X31946Y21873D01*
X31975Y21833D01*
X32001Y21791D01*
X32024Y21747D01*
X32043Y21701D01*
X32059Y21654D01*
X32071Y21605D01*
X32079Y21556D01*
X32083Y21507D01*
X32083Y21457D01*
X32079Y21408D01*
X32071Y21359D01*
X32059Y21310D01*
X32043Y21263D01*
X32024Y21217D01*
X32001Y21173D01*
X31975Y21131D01*
X31946Y21091D01*
X31913Y21053D01*
X31877Y21019D01*
X31839Y20987D01*
X31799Y20958D01*
X31756Y20933D01*
X31711Y20911D01*
X31665Y20892D01*
X31618Y20878D01*
X31569Y20867D01*
X31520Y20860D01*
X31470Y20857D01*
X31421Y20858D01*
X31371Y20863D01*
X31322Y20872D01*
X31274Y20885D01*
X31227Y20901D01*
X31182Y20921D01*
X31138Y20945D01*
X31097Y20972D01*
X31057Y21002D01*
X31020Y21036D01*
X30986Y21072D01*
X30955Y21111D01*
X30927Y21152D01*
X30903Y21195D01*
X30882Y21240D01*
X30864Y21287D01*
X30851Y21334D01*
X30841Y21383D01*
X30835Y21432D01*
X30833Y21482D01*
X37583Y21482D02*
X37585Y21532D01*
X37591Y21581D01*
X37601Y21630D01*
X37614Y21677D01*
X37632Y21724D01*
X37653Y21769D01*
X37677Y21812D01*
X37705Y21853D01*
X37736Y21892D01*
X37770Y21928D01*
X37807Y21962D01*
X37847Y21992D01*
X37888Y22019D01*
X37932Y22043D01*
X37977Y22063D01*
X38024Y22079D01*
X38072Y22092D01*
X38121Y22101D01*
X38171Y22106D01*
X38220Y22107D01*
X38270Y22104D01*
X38319Y22097D01*
X38368Y22086D01*
X38415Y22072D01*
X38461Y22053D01*
X38506Y22031D01*
X38549Y22006D01*
X38589Y21977D01*
X38627Y21945D01*
X38663Y21911D01*
X38696Y21873D01*
X38725Y21833D01*
X38751Y21791D01*
X38774Y21747D01*
X38793Y21701D01*
X38809Y21654D01*
X38821Y21605D01*
X38829Y21556D01*
X38833Y21507D01*
X38833Y21457D01*
X38829Y21408D01*
X38821Y21359D01*
X38809Y21310D01*
X38793Y21263D01*
X38774Y21217D01*
X38751Y21173D01*
X38725Y21131D01*
X38696Y21091D01*
X38663Y21053D01*
X38627Y21019D01*
X38589Y20987D01*
X38549Y20958D01*
X38506Y20933D01*
X38461Y20911D01*
X38415Y20892D01*
X38368Y20878D01*
X38319Y20867D01*
X38270Y20860D01*
X38220Y20857D01*
X38171Y20858D01*
X38121Y20863D01*
X38072Y20872D01*
X38024Y20885D01*
X37977Y20901D01*
X37932Y20921D01*
X37888Y20945D01*
X37847Y20972D01*
X37807Y21002D01*
X37770Y21036D01*
X37736Y21072D01*
X37705Y21111D01*
X37677Y21152D01*
X37653Y21195D01*
X37632Y21240D01*
X37614Y21287D01*
X37601Y21334D01*
X37591Y21383D01*
X37585Y21432D01*
X37583Y21482D01*
X37583Y28232D02*
X37585Y28282D01*
X37591Y28331D01*
X37601Y28380D01*
X37614Y28427D01*
X37632Y28474D01*
X37653Y28519D01*
X37677Y28562D01*
X37705Y28603D01*
X37736Y28642D01*
X37770Y28678D01*
X37807Y28712D01*
X37847Y28742D01*
X37888Y28769D01*
X37932Y28793D01*
X37977Y28813D01*
X38024Y28829D01*
X38072Y28842D01*
X38121Y28851D01*
X38171Y28856D01*
X38220Y28857D01*
X38270Y28854D01*
X38319Y28847D01*
X38368Y28836D01*
X38415Y28822D01*
X38461Y28803D01*
X38506Y28781D01*
X38549Y28756D01*
X38589Y28727D01*
X38627Y28695D01*
X38663Y28661D01*
X38696Y28623D01*
X38725Y28583D01*
X38751Y28541D01*
X38774Y28497D01*
X38793Y28451D01*
X38809Y28404D01*
X38821Y28355D01*
X38829Y28306D01*
X38833Y28257D01*
X38833Y28207D01*
X38829Y28158D01*
X38821Y28109D01*
X38809Y28060D01*
X38793Y28013D01*
X38774Y27967D01*
X38751Y27923D01*
X38725Y27881D01*
X38696Y27841D01*
X38663Y27803D01*
X38627Y27769D01*
X38589Y27737D01*
X38549Y27708D01*
X38506Y27683D01*
X38461Y27661D01*
X38415Y27642D01*
X38368Y27628D01*
X38319Y27617D01*
X38270Y27610D01*
X38220Y27607D01*
X38171Y27608D01*
X38121Y27613D01*
X38072Y27622D01*
X38024Y27635D01*
X37977Y27651D01*
X37932Y27671D01*
X37888Y27695D01*
X37847Y27722D01*
X37807Y27752D01*
X37770Y27786D01*
X37736Y27822D01*
X37705Y27861D01*
X37677Y27902D01*
X37653Y27945D01*
X37632Y27990D01*
X37614Y28037D01*
X37601Y28084D01*
X37591Y28133D01*
X37585Y28182D01*
X37583Y28232D01*
D78*
X38208Y28232D03*
X38208Y21482D03*
X31458Y21482D03*
D79*
X36333Y27857D02*
X36335Y27888D01*
X36341Y27919D01*
X36351Y27949D01*
X36364Y27977D01*
X36381Y28004D01*
X36401Y28028D01*
X36424Y28050D01*
X36449Y28068D01*
X36477Y28083D01*
X36506Y28095D01*
X36536Y28103D01*
X36567Y28107D01*
X36599Y28107D01*
X36630Y28103D01*
X36660Y28095D01*
X36689Y28083D01*
X36717Y28068D01*
X36742Y28050D01*
X36765Y28028D01*
X36785Y28004D01*
X36802Y27977D01*
X36815Y27949D01*
X36825Y27919D01*
X36831Y27888D01*
X36833Y27857D01*
X36831Y27826D01*
X36825Y27795D01*
X36815Y27765D01*
X36802Y27737D01*
X36785Y27710D01*
X36765Y27686D01*
X36742Y27664D01*
X36717Y27646D01*
X36689Y27631D01*
X36660Y27619D01*
X36630Y27611D01*
X36599Y27607D01*
X36567Y27607D01*
X36536Y27611D01*
X36506Y27619D01*
X36477Y27631D01*
X36449Y27646D01*
X36424Y27664D01*
X36401Y27686D01*
X36381Y27710D01*
X36364Y27737D01*
X36351Y27765D01*
X36341Y27795D01*
X36335Y27826D01*
X36333Y27857D01*
X36333Y28857D02*
X36335Y28888D01*
X36341Y28919D01*
X36351Y28949D01*
X36364Y28977D01*
X36381Y29004D01*
X36401Y29028D01*
X36424Y29050D01*
X36449Y29068D01*
X36477Y29083D01*
X36506Y29095D01*
X36536Y29103D01*
X36567Y29107D01*
X36599Y29107D01*
X36630Y29103D01*
X36660Y29095D01*
X36689Y29083D01*
X36717Y29068D01*
X36742Y29050D01*
X36765Y29028D01*
X36785Y29004D01*
X36802Y28977D01*
X36815Y28949D01*
X36825Y28919D01*
X36831Y28888D01*
X36833Y28857D01*
X36831Y28826D01*
X36825Y28795D01*
X36815Y28765D01*
X36802Y28737D01*
X36785Y28710D01*
X36765Y28686D01*
X36742Y28664D01*
X36717Y28646D01*
X36689Y28631D01*
X36660Y28619D01*
X36630Y28611D01*
X36599Y28607D01*
X36567Y28607D01*
X36536Y28611D01*
X36506Y28619D01*
X36477Y28631D01*
X36449Y28646D01*
X36424Y28664D01*
X36401Y28686D01*
X36381Y28710D01*
X36364Y28737D01*
X36351Y28765D01*
X36341Y28795D01*
X36335Y28826D01*
X36333Y28857D01*
D80*
X38208Y23357D03*
D81*
X38208Y24357D03*
X38208Y25357D03*
X38208Y26357D03*
X31458Y26357D03*
X31458Y27357D03*
X31458Y25357D03*
X31458Y24357D03*
X31458Y23357D03*
D82*
X32583Y27632D03*
X32583Y28232D03*
X32583Y28832D03*
X35583Y28832D03*
X35583Y28232D03*
X35583Y27632D03*
D83*
X34083Y24857D03*
D84*
X34083Y27957D03*
X34083Y21757D03*
D85*
X34333Y22732D03*
X34021Y23670D03*
X35333Y23357D03*
X36833Y23795D03*
X37271Y24795D03*
X36583Y26857D03*
X34333Y27607D03*
X33458Y26732D03*
X31458Y28357D03*
X35083Y21170D03*
M02*
