%
M48
M72
T01C0.0236
T02C0.0315
T03C0.0320
T04C0.0354
T05C0.0360
T06C0.0394
T07C0.0400
T08C0.0472
T09C0.0512
T10C0.0551
T11C0.0591
T12C0.1250
T13C0.1260
T14C0.1300
%
T01
X2301Y2913
X1014Y3400
X4814Y5300
X5714Y5700
X6564Y5300
X7014Y6100
X8614Y5800
X9114Y5100
X9514Y4600
X10514Y3700
X11114Y3700
X12651Y4806
X12309Y5603
X12007Y6194
X10964Y6450
X9514Y6500
X8714Y6500
X7517Y8297
X9514Y9150
X12114Y8595
X14814Y6700
X14414Y5350
X15598Y4935
X16136Y4924
X14214Y4400
X16484Y3458
X17370Y2671
X15500Y1982
X14968Y2002
X14320Y2000
X14976Y2856
X11137Y1970
X8468Y1629
X7102Y888
X7102Y2462
X7941Y2856
X7939Y3397
X6614Y3250
X1014Y6400
X17370Y7199
X824Y12714
X3724Y12414
X4752Y14842
X6174Y15464
X7424Y16964
X3324Y15914
X7324Y12514
X12600Y17064
X16975Y17064
X17225Y14314
X24523Y4037
X28460Y7383
X26492Y7580
X24523Y7580
X21374Y7777
X24523Y13485
X24720Y17029
X26689Y17029
X28657Y16832
X22653Y17324
X22458Y22482
X23958Y22982
X25833Y22732
X26958Y22857
X26958Y24857
X25708Y24857
X24583Y26982
X23708Y26982
X22333Y24857
X26833Y27045
X33583Y33607
X36208Y33607
X36208Y36232
X33458Y36232
X23083Y31357
X23583Y33982
X22583Y35857
X22583Y36982
X21208Y38607
X26333Y36857
X26833Y35857
X26833Y33857
X26208Y32982
X26833Y31397
X34021Y23670
X34333Y22732
X35333Y23357
X36833Y23795
X37271Y24795
X36583Y26857
X34333Y27607
X33458Y26732
X31458Y28357
X35083Y21170
T02
X36583Y27857
X36583Y28857
T03
X12592Y8129
X12592Y9129
X13787Y21753
X14787Y21753
X14787Y24312
X14287Y25062
X13787Y24312
X13787Y30808
X14787Y30808
X14787Y33367
X14287Y34117
X13787Y33367
X31775Y16257
X31775Y15257
X31775Y14257
X35775Y14257
X35775Y15257
X35775Y16257
X36925Y16560
X38106Y16560
X36244Y18210
X35244Y18210
X36925Y13560
X38106Y13560
X38106Y6324
X36925Y6324
X35775Y5627
X35775Y4627
X35775Y3627
X36925Y3324
X38106Y3324
X36244Y1674
X35244Y1674
X31775Y3627
X31775Y4627
X31775Y5627
T04
X12319Y33883
X12319Y35017
X13303Y35017
X14287Y35017
X14287Y38017
X13303Y38017
X12319Y38017
X12319Y30883
X12319Y28962
X13303Y28962
X14287Y28962
X14287Y25962
X13303Y25962
X12319Y25962
X12319Y24828
X12319Y21828
T05
X32216Y8761
X30716Y8761
X30618Y11123
X32118Y11123
X32216Y18210
X30716Y18210
X30716Y1674
X32216Y1674
T06
X13828Y6080
X15600Y6080
X15600Y3521
X13828Y3521
T07
X16551Y2364
X16545Y1276
X15545Y1276
X14545Y1276
X13545Y1276
X12545Y1276
X11545Y1276
X17228Y3416
X18228Y3416
X18228Y4416
X17228Y4416
X17228Y5416
X18228Y5416
X18228Y6416
X17228Y6416
X16551Y7482
X6058Y8579
X5058Y8579
X4058Y8579
X3058Y8579
X2534Y5890
X2534Y4890
X2534Y3890
X8124Y13314
X8124Y14314
X8124Y15314
X8124Y16314
X6224Y18214
X5224Y18214
X4224Y18214
X3224Y18214
X3224Y11414
X4224Y11414
X5224Y11414
X6224Y11414
X18100Y14314
X18100Y15314
X18100Y16314
X18100Y13314
X11350Y13314
X11350Y14314
X11350Y15314
X11350Y16314
X26476Y4218
X24476Y5218
X26476Y6218
X26476Y13667
X24476Y14667
X26476Y15667
X28208Y26357
X28208Y25357
X28208Y24357
X28208Y23357
X26333Y21482
X25333Y21482
X24333Y21482
X21458Y23357
X21458Y24357
X21458Y25357
X21458Y26357
X33333Y38232
X34333Y38232
X35333Y38232
X36333Y38232
X38208Y36357
X38208Y35357
X38208Y34357
X38208Y33357
X36333Y31482
X35333Y31482
X34333Y31482
X33333Y31482
X31458Y33357
X31458Y34357
X31458Y35357
X31458Y36357
X28208Y33357
X28208Y34357
X28208Y35357
X28208Y36357
X21458Y36357
X21458Y35357
X21458Y34357
X21458Y33357
X21458Y37357
X38208Y26357
X38208Y25357
X38208Y24357
X38208Y23357
X31458Y23357
X31458Y24357
X31458Y25357
X31458Y26357
X31458Y27357
T08
X1531Y2951
X547Y2951
X3500Y4919
X1531Y6888
X547Y6888
T09
X5414Y3029
X12233Y6966
X10350Y22934
X5626Y22934
X5626Y27737
X7988Y28525
X10350Y27737
X10389Y31985
X5665Y31985
X5665Y36789
X8027Y37576
X10389Y36789
T10
X17811Y32580
X17811Y30611
X17811Y28643
X17811Y26674
X2496Y26084
X2496Y24115
X2594Y33178
X2594Y35147
X22018Y16071
X22018Y14103
X22031Y6596
X22031Y4627
X37299Y7974
X37299Y9942
X37299Y11911
T11
X3500Y6888
X3500Y5903
X1531Y4919
X3500Y3935
X3500Y2951
T12
X1349Y11439
X1349Y18189
X8099Y18189
X8099Y11439
X11350Y11439
X11350Y18189
X18100Y18189
X18100Y11439
X21458Y21482
X21458Y28232
X28208Y28232
X28208Y21482
X31458Y31482
X31458Y38232
X38208Y38232
X38208Y31482
X21458Y31482
X28208Y31482
X28208Y38232
X31458Y21482
X38208Y21482
X38208Y28232
T13
X1689Y21359
X18224Y21359
X18224Y37895
X1689Y37895
X21374Y1674
X37909Y1674
X37909Y18210
X21374Y18210
T14
X1489Y1475
X1489Y8371
X18027Y8368
X18030Y1475
M30
