G75*
G70*
%OFA0B0*%
%FSLAX24Y24*%
%IPPOS*%
%LPD*%
%AMOC8*
5,1,8,0,0,1.08239X$1,22.5*
%
%ADD10C,0.0000*%
D10*
X000100Y001475D02*
X000100Y001517D01*
X000100Y008368D01*
X000100Y008371D01*
X000100Y008368D02*
X000102Y008440D01*
X000108Y008512D01*
X000117Y008584D01*
X000130Y008655D01*
X000147Y008725D01*
X000167Y008794D01*
X000192Y008862D01*
X000219Y008928D01*
X000250Y008994D01*
X000285Y009057D01*
X000322Y009119D01*
X000363Y009178D01*
X000407Y009235D01*
X000454Y009290D01*
X000504Y009342D01*
X000556Y009392D01*
X000611Y009439D01*
X000668Y009483D01*
X000727Y009524D01*
X000789Y009561D01*
X000852Y009596D01*
X000918Y009627D01*
X000984Y009654D01*
X001052Y009679D01*
X001121Y009699D01*
X001191Y009716D01*
X001262Y009729D01*
X001334Y009738D01*
X001406Y009744D01*
X001478Y009746D01*
X001478Y010139D01*
X001475Y010139D01*
X001475Y009746D02*
X001478Y009746D01*
X001872Y009746D02*
X018014Y009746D01*
X018014Y010139D02*
X001872Y010139D01*
X001872Y009746D01*
X001478Y010139D02*
X001405Y010142D01*
X001332Y010149D01*
X001260Y010159D01*
X001188Y010174D01*
X001117Y010192D01*
X001047Y010214D01*
X000979Y010239D01*
X000911Y010268D01*
X000846Y010300D01*
X000782Y010336D01*
X000720Y010375D01*
X000660Y010418D01*
X000603Y010463D01*
X000548Y010511D01*
X000496Y010562D01*
X000446Y010616D01*
X000399Y010673D01*
X000356Y010731D01*
X000315Y010792D01*
X000278Y010855D01*
X000244Y010920D01*
X000213Y010986D01*
X000186Y011054D01*
X000162Y011124D01*
X000143Y011194D01*
X000127Y011266D01*
X000114Y011338D01*
X000106Y011410D01*
X000101Y011484D01*
X000100Y011557D01*
X000100Y018407D01*
X000100Y018410D01*
X000100Y018407D02*
X000102Y018479D01*
X000108Y018551D01*
X000117Y018623D01*
X000130Y018694D01*
X000147Y018764D01*
X000167Y018833D01*
X000192Y018901D01*
X000219Y018967D01*
X000250Y019033D01*
X000285Y019096D01*
X000322Y019158D01*
X000363Y019217D01*
X000407Y019274D01*
X000454Y019329D01*
X000504Y019381D01*
X000556Y019431D01*
X000611Y019478D01*
X000668Y019522D01*
X000727Y019563D01*
X000789Y019600D01*
X000852Y019635D01*
X000918Y019666D01*
X000984Y019693D01*
X001052Y019718D01*
X001121Y019738D01*
X001191Y019755D01*
X001262Y019768D01*
X001334Y019777D01*
X001406Y019783D01*
X001478Y019785D01*
X018014Y019785D01*
X018086Y019783D01*
X018158Y019777D01*
X018230Y019768D01*
X018301Y019755D01*
X018371Y019738D01*
X018440Y019718D01*
X018508Y019693D01*
X018574Y019666D01*
X018640Y019635D01*
X018703Y019600D01*
X018765Y019563D01*
X018824Y019522D01*
X018881Y019478D01*
X018936Y019431D01*
X018988Y019381D01*
X019038Y019329D01*
X019085Y019274D01*
X019129Y019217D01*
X019170Y019158D01*
X019207Y019096D01*
X019242Y019033D01*
X019273Y018967D01*
X019300Y018901D01*
X019325Y018833D01*
X019345Y018764D01*
X019362Y018694D01*
X019375Y018623D01*
X019384Y018551D01*
X019390Y018479D01*
X019392Y018407D01*
X019391Y018407D02*
X019391Y011517D01*
X019392Y011517D02*
X019390Y011445D01*
X019384Y011373D01*
X019375Y011301D01*
X019362Y011230D01*
X019345Y011160D01*
X019325Y011091D01*
X019300Y011023D01*
X019273Y010957D01*
X019242Y010891D01*
X019207Y010828D01*
X019170Y010766D01*
X019129Y010707D01*
X019085Y010650D01*
X019038Y010595D01*
X018988Y010543D01*
X018936Y010493D01*
X018881Y010446D01*
X018824Y010402D01*
X018765Y010361D01*
X018703Y010324D01*
X018640Y010289D01*
X018574Y010258D01*
X018508Y010231D01*
X018440Y010206D01*
X018371Y010186D01*
X018301Y010169D01*
X018230Y010156D01*
X018158Y010147D01*
X018086Y010141D01*
X018014Y010139D01*
X018017Y010139D01*
X018014Y009746D02*
X018086Y009744D01*
X018158Y009738D01*
X018230Y009729D01*
X018301Y009716D01*
X018371Y009699D01*
X018440Y009679D01*
X018508Y009654D01*
X018574Y009627D01*
X018640Y009596D01*
X018703Y009561D01*
X018765Y009524D01*
X018824Y009483D01*
X018881Y009439D01*
X018936Y009392D01*
X018988Y009342D01*
X019038Y009290D01*
X019085Y009235D01*
X019129Y009178D01*
X019170Y009119D01*
X019207Y009057D01*
X019242Y008994D01*
X019273Y008928D01*
X019300Y008862D01*
X019325Y008794D01*
X019345Y008725D01*
X019362Y008655D01*
X019375Y008584D01*
X019384Y008512D01*
X019390Y008440D01*
X019392Y008368D01*
X019391Y008368D02*
X019391Y001478D01*
X019392Y001478D02*
X019390Y001406D01*
X019384Y001334D01*
X019375Y001262D01*
X019362Y001191D01*
X019345Y001121D01*
X019325Y001052D01*
X019300Y000984D01*
X019273Y000918D01*
X019242Y000852D01*
X019207Y000789D01*
X019170Y000727D01*
X019129Y000668D01*
X019085Y000611D01*
X019038Y000556D01*
X018988Y000504D01*
X018936Y000454D01*
X018881Y000407D01*
X018824Y000363D01*
X018765Y000322D01*
X018703Y000285D01*
X018640Y000250D01*
X018574Y000219D01*
X018508Y000192D01*
X018440Y000167D01*
X018371Y000147D01*
X018301Y000130D01*
X018230Y000117D01*
X018158Y000108D01*
X018086Y000102D01*
X018014Y000100D01*
X018017Y000100D01*
X018014Y000100D02*
X001478Y000100D01*
X001475Y000100D01*
X001478Y000100D02*
X001405Y000103D01*
X001332Y000110D01*
X001260Y000120D01*
X001188Y000135D01*
X001117Y000153D01*
X001047Y000175D01*
X000979Y000200D01*
X000911Y000229D01*
X000846Y000261D01*
X000782Y000297D01*
X000720Y000336D01*
X000660Y000379D01*
X000603Y000424D01*
X000548Y000472D01*
X000496Y000523D01*
X000446Y000577D01*
X000399Y000634D01*
X000356Y000692D01*
X000315Y000753D01*
X000278Y000816D01*
X000244Y000881D01*
X000213Y000947D01*
X000186Y001015D01*
X000162Y001085D01*
X000143Y001155D01*
X000127Y001227D01*
X000114Y001299D01*
X000106Y001371D01*
X000101Y001445D01*
X000100Y001518D01*
X000100Y011514D02*
X000100Y011557D01*
M02*
