G75*
G70*
%OFA0B0*%
%FSLAX24Y24*%
%IPPOS*%
%LPD*%
%AMOC8*
5,1,8,0,0,1.08239X$1,22.5*
%
%ADD10C,0.0000*%
%ADD11C,0.0000*%
%ADD12C,0.0886*%
%ADD13OC8,0.0740*%
%ADD14C,0.0768*%
%ADD15C,0.0480*%
%ADD16R,0.0740X0.0740*%
%ADD17C,0.0740*%
%ADD18C,0.0591*%
%ADD19OC8,0.1000*%
%ADD20C,0.0120*%
%ADD21R,0.0356X0.0356*%
%ADD22C,0.0100*%
%ADD23C,0.0160*%
%ADD24C,0.0000*%
%ADD25C,0.0886*%
%ADD26OC8,0.0740*%
%ADD27C,0.0768*%
%ADD28C,0.0480*%
%ADD29R,0.0740X0.0740*%
%ADD30C,0.0740*%
%ADD31C,0.0591*%
%ADD32OC8,0.1000*%
%ADD33C,0.0120*%
%ADD34R,0.0356X0.0356*%
%ADD35C,0.0100*%
%ADD36C,0.0160*%
D10*
X000100Y001475D02*
X000100Y001517D01*
X000100Y008368D01*
X000100Y008371D01*
X000100Y008368D02*
X000102Y008440D01*
X000108Y008512D01*
X000117Y008584D01*
X000130Y008655D01*
X000147Y008725D01*
X000167Y008794D01*
X000192Y008862D01*
X000219Y008928D01*
X000250Y008994D01*
X000285Y009057D01*
X000322Y009119D01*
X000363Y009178D01*
X000407Y009235D01*
X000454Y009290D01*
X000504Y009342D01*
X000556Y009392D01*
X000611Y009439D01*
X000668Y009483D01*
X000727Y009524D01*
X000789Y009561D01*
X000852Y009596D01*
X000918Y009627D01*
X000984Y009654D01*
X001052Y009679D01*
X001121Y009699D01*
X001191Y009716D01*
X001262Y009729D01*
X001334Y009738D01*
X001406Y009744D01*
X001478Y009746D01*
X001478Y010139D01*
X001475Y010139D01*
X001475Y009746D02*
X001478Y009746D01*
X001872Y009746D02*
X018014Y009746D01*
X018014Y010139D02*
X001872Y010139D01*
X001872Y009746D01*
X001478Y010139D02*
X001405Y010142D01*
X001332Y010149D01*
X001260Y010159D01*
X001188Y010174D01*
X001117Y010192D01*
X001047Y010214D01*
X000979Y010239D01*
X000911Y010268D01*
X000846Y010300D01*
X000782Y010336D01*
X000720Y010375D01*
X000660Y010418D01*
X000603Y010463D01*
X000548Y010511D01*
X000496Y010562D01*
X000446Y010616D01*
X000399Y010673D01*
X000356Y010731D01*
X000315Y010792D01*
X000278Y010855D01*
X000244Y010920D01*
X000213Y010986D01*
X000186Y011054D01*
X000162Y011124D01*
X000143Y011194D01*
X000127Y011266D01*
X000114Y011338D01*
X000106Y011410D01*
X000101Y011484D01*
X000100Y011557D01*
X000100Y018407D01*
X000100Y018410D01*
X000100Y018407D02*
X000102Y018479D01*
X000108Y018551D01*
X000117Y018623D01*
X000130Y018694D01*
X000147Y018764D01*
X000167Y018833D01*
X000192Y018901D01*
X000219Y018967D01*
X000250Y019033D01*
X000285Y019096D01*
X000322Y019158D01*
X000363Y019217D01*
X000407Y019274D01*
X000454Y019329D01*
X000504Y019381D01*
X000556Y019431D01*
X000611Y019478D01*
X000668Y019522D01*
X000727Y019563D01*
X000789Y019600D01*
X000852Y019635D01*
X000918Y019666D01*
X000984Y019693D01*
X001052Y019718D01*
X001121Y019738D01*
X001191Y019755D01*
X001262Y019768D01*
X001334Y019777D01*
X001406Y019783D01*
X001478Y019785D01*
X018014Y019785D01*
X018086Y019783D01*
X018158Y019777D01*
X018230Y019768D01*
X018301Y019755D01*
X018371Y019738D01*
X018440Y019718D01*
X018508Y019693D01*
X018574Y019666D01*
X018640Y019635D01*
X018703Y019600D01*
X018765Y019563D01*
X018824Y019522D01*
X018881Y019478D01*
X018936Y019431D01*
X018988Y019381D01*
X019038Y019329D01*
X019085Y019274D01*
X019129Y019217D01*
X019170Y019158D01*
X019207Y019096D01*
X019242Y019033D01*
X019273Y018967D01*
X019300Y018901D01*
X019325Y018833D01*
X019345Y018764D01*
X019362Y018694D01*
X019375Y018623D01*
X019384Y018551D01*
X019390Y018479D01*
X019392Y018407D01*
X019391Y018407D02*
X019391Y011517D01*
X019392Y011517D02*
X019390Y011445D01*
X019384Y011373D01*
X019375Y011301D01*
X019362Y011230D01*
X019345Y011160D01*
X019325Y011091D01*
X019300Y011023D01*
X019273Y010957D01*
X019242Y010891D01*
X019207Y010828D01*
X019170Y010766D01*
X019129Y010707D01*
X019085Y010650D01*
X019038Y010595D01*
X018988Y010543D01*
X018936Y010493D01*
X018881Y010446D01*
X018824Y010402D01*
X018765Y010361D01*
X018703Y010324D01*
X018640Y010289D01*
X018574Y010258D01*
X018508Y010231D01*
X018440Y010206D01*
X018371Y010186D01*
X018301Y010169D01*
X018230Y010156D01*
X018158Y010147D01*
X018086Y010141D01*
X018014Y010139D01*
X018017Y010139D01*
X018014Y009746D02*
X018086Y009744D01*
X018158Y009738D01*
X018230Y009729D01*
X018301Y009716D01*
X018371Y009699D01*
X018440Y009679D01*
X018508Y009654D01*
X018574Y009627D01*
X018640Y009596D01*
X018703Y009561D01*
X018765Y009524D01*
X018824Y009483D01*
X018881Y009439D01*
X018936Y009392D01*
X018988Y009342D01*
X019038Y009290D01*
X019085Y009235D01*
X019129Y009178D01*
X019170Y009119D01*
X019207Y009057D01*
X019242Y008994D01*
X019273Y008928D01*
X019300Y008862D01*
X019325Y008794D01*
X019345Y008725D01*
X019362Y008655D01*
X019375Y008584D01*
X019384Y008512D01*
X019390Y008440D01*
X019392Y008368D01*
X019391Y008368D02*
X019391Y001478D01*
X019392Y001478D02*
X019390Y001406D01*
X019384Y001334D01*
X019375Y001262D01*
X019362Y001191D01*
X019345Y001121D01*
X019325Y001052D01*
X019300Y000984D01*
X019273Y000918D01*
X019242Y000852D01*
X019207Y000789D01*
X019170Y000727D01*
X019129Y000668D01*
X019085Y000611D01*
X019038Y000556D01*
X018988Y000504D01*
X018936Y000454D01*
X018881Y000407D01*
X018824Y000363D01*
X018765Y000322D01*
X018703Y000285D01*
X018640Y000250D01*
X018574Y000219D01*
X018508Y000192D01*
X018440Y000167D01*
X018371Y000147D01*
X018301Y000130D01*
X018230Y000117D01*
X018158Y000108D01*
X018086Y000102D01*
X018014Y000100D01*
X018017Y000100D01*
X018014Y000100D02*
X001478Y000100D01*
X001475Y000100D01*
X001478Y000100D02*
X001405Y000103D01*
X001332Y000110D01*
X001260Y000120D01*
X001188Y000135D01*
X001117Y000153D01*
X001047Y000175D01*
X000979Y000200D01*
X000911Y000229D01*
X000846Y000261D01*
X000782Y000297D01*
X000720Y000336D01*
X000660Y000379D01*
X000603Y000424D01*
X000548Y000472D01*
X000496Y000523D01*
X000446Y000577D01*
X000399Y000634D01*
X000356Y000692D01*
X000315Y000753D01*
X000278Y000816D01*
X000244Y000881D01*
X000213Y000947D01*
X000186Y001015D01*
X000162Y001085D01*
X000143Y001155D01*
X000127Y001227D01*
X000114Y001299D01*
X000106Y001371D01*
X000101Y001445D01*
X000100Y001518D01*
X000100Y011514D02*
X000100Y011557D01*
D11*
X1475Y100D02*
X1478Y100D01*
X18013Y100D01*
X18016Y100D01*
X17366Y1475D02*
X17368Y1525D01*
X17374Y1575D01*
X17384Y1625D01*
X17397Y1673D01*
X17414Y1721D01*
X17435Y1767D01*
X17459Y1811D01*
X17487Y1853D01*
X17518Y1893D01*
X17552Y1930D01*
X17589Y1965D01*
X17628Y1996D01*
X17669Y2025D01*
X17713Y2050D01*
X17759Y2072D01*
X17806Y2090D01*
X17854Y2104D01*
X17903Y2115D01*
X17953Y2122D01*
X18003Y2125D01*
X18054Y2124D01*
X18104Y2119D01*
X18154Y2110D01*
X18202Y2098D01*
X18250Y2081D01*
X18296Y2061D01*
X18341Y2038D01*
X18384Y2011D01*
X18424Y1981D01*
X18462Y1948D01*
X18497Y1912D01*
X18530Y1873D01*
X18559Y1832D01*
X18585Y1789D01*
X18608Y1744D01*
X18627Y1697D01*
X18642Y1649D01*
X18654Y1600D01*
X18662Y1550D01*
X18666Y1500D01*
X18666Y1450D01*
X18662Y1400D01*
X18654Y1350D01*
X18642Y1301D01*
X18627Y1253D01*
X18608Y1206D01*
X18585Y1161D01*
X18559Y1118D01*
X18530Y1077D01*
X18497Y1038D01*
X18462Y1002D01*
X18424Y969D01*
X18384Y939D01*
X18341Y912D01*
X18296Y889D01*
X18250Y869D01*
X18202Y852D01*
X18154Y840D01*
X18104Y831D01*
X18054Y826D01*
X18003Y825D01*
X17953Y828D01*
X17903Y835D01*
X17854Y846D01*
X17806Y860D01*
X17759Y878D01*
X17713Y900D01*
X17669Y925D01*
X17628Y954D01*
X17589Y985D01*
X17552Y1020D01*
X17518Y1057D01*
X17487Y1097D01*
X17459Y1139D01*
X17435Y1183D01*
X17414Y1229D01*
X17397Y1277D01*
X17384Y1325D01*
X17374Y1375D01*
X17368Y1425D01*
X17366Y1475D01*
X18013Y100D02*
X18085Y102D01*
X18157Y108D01*
X18229Y117D01*
X18300Y130D01*
X18370Y147D01*
X18439Y167D01*
X18507Y192D01*
X18573Y219D01*
X18639Y250D01*
X18702Y285D01*
X18764Y322D01*
X18823Y363D01*
X18880Y407D01*
X18935Y454D01*
X18987Y504D01*
X19037Y556D01*
X19084Y611D01*
X19128Y668D01*
X19169Y727D01*
X19206Y789D01*
X19241Y852D01*
X19272Y918D01*
X19299Y984D01*
X19324Y1052D01*
X19344Y1121D01*
X19361Y1191D01*
X19374Y1262D01*
X19383Y1334D01*
X19389Y1406D01*
X19391Y1478D01*
X19391Y8368D01*
X17363Y8368D02*
X17365Y8418D01*
X17371Y8468D01*
X17381Y8518D01*
X17394Y8566D01*
X17411Y8614D01*
X17432Y8660D01*
X17456Y8704D01*
X17484Y8746D01*
X17515Y8786D01*
X17549Y8823D01*
X17586Y8858D01*
X17625Y8889D01*
X17666Y8918D01*
X17710Y8943D01*
X17756Y8965D01*
X17803Y8983D01*
X17851Y8997D01*
X17900Y9008D01*
X17950Y9015D01*
X18000Y9018D01*
X18051Y9017D01*
X18101Y9012D01*
X18151Y9003D01*
X18199Y8991D01*
X18247Y8974D01*
X18293Y8954D01*
X18338Y8931D01*
X18381Y8904D01*
X18421Y8874D01*
X18459Y8841D01*
X18494Y8805D01*
X18527Y8766D01*
X18556Y8725D01*
X18582Y8682D01*
X18605Y8637D01*
X18624Y8590D01*
X18639Y8542D01*
X18651Y8493D01*
X18659Y8443D01*
X18663Y8393D01*
X18663Y8343D01*
X18659Y8293D01*
X18651Y8243D01*
X18639Y8194D01*
X18624Y8146D01*
X18605Y8099D01*
X18582Y8054D01*
X18556Y8011D01*
X18527Y7970D01*
X18494Y7931D01*
X18459Y7895D01*
X18421Y7862D01*
X18381Y7832D01*
X18338Y7805D01*
X18293Y7782D01*
X18247Y7762D01*
X18199Y7745D01*
X18151Y7733D01*
X18101Y7724D01*
X18051Y7719D01*
X18000Y7718D01*
X17950Y7721D01*
X17900Y7728D01*
X17851Y7739D01*
X17803Y7753D01*
X17756Y7771D01*
X17710Y7793D01*
X17666Y7818D01*
X17625Y7847D01*
X17586Y7878D01*
X17549Y7913D01*
X17515Y7950D01*
X17484Y7990D01*
X17456Y8032D01*
X17432Y8076D01*
X17411Y8122D01*
X17394Y8170D01*
X17381Y8218D01*
X17371Y8268D01*
X17365Y8318D01*
X17363Y8368D01*
X18013Y9746D02*
X18085Y9744D01*
X18157Y9738D01*
X18229Y9729D01*
X18300Y9716D01*
X18370Y9699D01*
X18439Y9679D01*
X18507Y9654D01*
X18573Y9627D01*
X18639Y9596D01*
X18702Y9561D01*
X18764Y9524D01*
X18823Y9483D01*
X18880Y9439D01*
X18935Y9392D01*
X18987Y9342D01*
X19037Y9290D01*
X19084Y9235D01*
X19128Y9178D01*
X19169Y9119D01*
X19206Y9057D01*
X19241Y8994D01*
X19272Y8928D01*
X19299Y8862D01*
X19324Y8794D01*
X19344Y8725D01*
X19361Y8655D01*
X19374Y8584D01*
X19383Y8512D01*
X19389Y8440D01*
X19391Y8368D01*
X18013Y9746D02*
X1478Y9746D01*
X825Y8371D02*
X827Y8421D01*
X833Y8471D01*
X843Y8521D01*
X856Y8569D01*
X873Y8617D01*
X894Y8663D01*
X918Y8707D01*
X946Y8749D01*
X977Y8789D01*
X1011Y8826D01*
X1048Y8861D01*
X1087Y8892D01*
X1128Y8921D01*
X1172Y8946D01*
X1218Y8968D01*
X1265Y8986D01*
X1313Y9000D01*
X1362Y9011D01*
X1412Y9018D01*
X1462Y9021D01*
X1513Y9020D01*
X1563Y9015D01*
X1613Y9006D01*
X1661Y8994D01*
X1709Y8977D01*
X1755Y8957D01*
X1800Y8934D01*
X1843Y8907D01*
X1883Y8877D01*
X1921Y8844D01*
X1956Y8808D01*
X1989Y8769D01*
X2018Y8728D01*
X2044Y8685D01*
X2067Y8640D01*
X2086Y8593D01*
X2101Y8545D01*
X2113Y8496D01*
X2121Y8446D01*
X2125Y8396D01*
X2125Y8346D01*
X2121Y8296D01*
X2113Y8246D01*
X2101Y8197D01*
X2086Y8149D01*
X2067Y8102D01*
X2044Y8057D01*
X2018Y8014D01*
X1989Y7973D01*
X1956Y7934D01*
X1921Y7898D01*
X1883Y7865D01*
X1843Y7835D01*
X1800Y7808D01*
X1755Y7785D01*
X1709Y7765D01*
X1661Y7748D01*
X1613Y7736D01*
X1563Y7727D01*
X1513Y7722D01*
X1462Y7721D01*
X1412Y7724D01*
X1362Y7731D01*
X1313Y7742D01*
X1265Y7756D01*
X1218Y7774D01*
X1172Y7796D01*
X1128Y7821D01*
X1087Y7850D01*
X1048Y7881D01*
X1011Y7916D01*
X977Y7953D01*
X946Y7993D01*
X918Y8035D01*
X894Y8079D01*
X873Y8125D01*
X856Y8173D01*
X843Y8221D01*
X833Y8271D01*
X827Y8321D01*
X825Y8371D01*
X100Y8368D02*
X102Y8440D01*
X108Y8512D01*
X117Y8584D01*
X130Y8655D01*
X147Y8725D01*
X167Y8794D01*
X192Y8862D01*
X219Y8928D01*
X250Y8994D01*
X285Y9057D01*
X322Y9119D01*
X363Y9178D01*
X407Y9235D01*
X454Y9290D01*
X504Y9342D01*
X556Y9392D01*
X611Y9439D01*
X668Y9483D01*
X727Y9524D01*
X789Y9561D01*
X852Y9596D01*
X918Y9627D01*
X984Y9654D01*
X1052Y9679D01*
X1121Y9699D01*
X1191Y9716D01*
X1262Y9729D01*
X1334Y9738D01*
X1406Y9744D01*
X1478Y9746D01*
X100Y8371D02*
X100Y8368D01*
X100Y1518D01*
X100Y1475D01*
X825Y1475D02*
X827Y1525D01*
X833Y1575D01*
X843Y1625D01*
X856Y1673D01*
X873Y1721D01*
X894Y1767D01*
X918Y1811D01*
X946Y1853D01*
X977Y1893D01*
X1011Y1930D01*
X1048Y1965D01*
X1087Y1996D01*
X1128Y2025D01*
X1172Y2050D01*
X1218Y2072D01*
X1265Y2090D01*
X1313Y2104D01*
X1362Y2115D01*
X1412Y2122D01*
X1462Y2125D01*
X1513Y2124D01*
X1563Y2119D01*
X1613Y2110D01*
X1661Y2098D01*
X1709Y2081D01*
X1755Y2061D01*
X1800Y2038D01*
X1843Y2011D01*
X1883Y1981D01*
X1921Y1948D01*
X1956Y1912D01*
X1989Y1873D01*
X2018Y1832D01*
X2044Y1789D01*
X2067Y1744D01*
X2086Y1697D01*
X2101Y1649D01*
X2113Y1600D01*
X2121Y1550D01*
X2125Y1500D01*
X2125Y1450D01*
X2121Y1400D01*
X2113Y1350D01*
X2101Y1301D01*
X2086Y1253D01*
X2067Y1206D01*
X2044Y1161D01*
X2018Y1118D01*
X1989Y1077D01*
X1956Y1038D01*
X1921Y1002D01*
X1883Y969D01*
X1843Y939D01*
X1800Y912D01*
X1755Y889D01*
X1709Y869D01*
X1661Y852D01*
X1613Y840D01*
X1563Y831D01*
X1513Y826D01*
X1462Y825D01*
X1412Y828D01*
X1362Y835D01*
X1313Y846D01*
X1265Y860D01*
X1218Y878D01*
X1172Y900D01*
X1128Y925D01*
X1087Y954D01*
X1048Y985D01*
X1011Y1020D01*
X977Y1057D01*
X946Y1097D01*
X918Y1139D01*
X894Y1183D01*
X873Y1229D01*
X856Y1277D01*
X843Y1325D01*
X833Y1375D01*
X827Y1425D01*
X825Y1475D01*
X99Y1518D02*
X100Y1445D01*
X105Y1371D01*
X113Y1299D01*
X126Y1227D01*
X142Y1155D01*
X161Y1085D01*
X185Y1015D01*
X212Y947D01*
X243Y881D01*
X277Y816D01*
X314Y753D01*
X355Y692D01*
X398Y634D01*
X445Y577D01*
X495Y523D01*
X547Y472D01*
X602Y424D01*
X659Y379D01*
X719Y336D01*
X781Y297D01*
X845Y261D01*
X910Y229D01*
X978Y200D01*
X1046Y175D01*
X1116Y153D01*
X1187Y135D01*
X1259Y120D01*
X1331Y110D01*
X1404Y103D01*
X1477Y100D01*
X1281Y2951D02*
X1283Y2981D01*
X1289Y3011D01*
X1298Y3040D01*
X1311Y3067D01*
X1328Y3092D01*
X1347Y3115D01*
X1370Y3136D01*
X1395Y3153D01*
X1421Y3167D01*
X1450Y3177D01*
X1479Y3184D01*
X1509Y3187D01*
X1540Y3186D01*
X1570Y3181D01*
X1599Y3172D01*
X1626Y3160D01*
X1652Y3145D01*
X1676Y3126D01*
X1697Y3104D01*
X1715Y3080D01*
X1730Y3053D01*
X1741Y3025D01*
X1749Y2996D01*
X1753Y2966D01*
X1753Y2936D01*
X1749Y2906D01*
X1741Y2877D01*
X1730Y2849D01*
X1715Y2822D01*
X1697Y2798D01*
X1676Y2776D01*
X1652Y2757D01*
X1626Y2742D01*
X1599Y2730D01*
X1570Y2721D01*
X1540Y2716D01*
X1509Y2715D01*
X1479Y2718D01*
X1450Y2725D01*
X1421Y2735D01*
X1395Y2749D01*
X1370Y2766D01*
X1347Y2787D01*
X1328Y2810D01*
X1311Y2835D01*
X1298Y2862D01*
X1289Y2891D01*
X1283Y2921D01*
X1281Y2951D01*
X297Y2951D02*
X299Y2981D01*
X305Y3011D01*
X314Y3040D01*
X327Y3067D01*
X344Y3092D01*
X363Y3115D01*
X386Y3136D01*
X411Y3153D01*
X437Y3167D01*
X466Y3177D01*
X495Y3184D01*
X525Y3187D01*
X556Y3186D01*
X586Y3181D01*
X615Y3172D01*
X642Y3160D01*
X668Y3145D01*
X692Y3126D01*
X713Y3104D01*
X731Y3080D01*
X746Y3053D01*
X757Y3025D01*
X765Y2996D01*
X769Y2966D01*
X769Y2936D01*
X765Y2906D01*
X757Y2877D01*
X746Y2849D01*
X731Y2822D01*
X713Y2798D01*
X692Y2776D01*
X668Y2757D01*
X642Y2742D01*
X615Y2730D01*
X586Y2721D01*
X556Y2716D01*
X525Y2715D01*
X495Y2718D01*
X466Y2725D01*
X437Y2735D01*
X411Y2749D01*
X386Y2766D01*
X363Y2787D01*
X344Y2810D01*
X327Y2835D01*
X314Y2862D01*
X305Y2891D01*
X299Y2921D01*
X297Y2951D01*
X3250Y4919D02*
X3252Y4949D01*
X3258Y4979D01*
X3267Y5008D01*
X3280Y5035D01*
X3297Y5060D01*
X3316Y5083D01*
X3339Y5104D01*
X3364Y5121D01*
X3390Y5135D01*
X3419Y5145D01*
X3448Y5152D01*
X3478Y5155D01*
X3509Y5154D01*
X3539Y5149D01*
X3568Y5140D01*
X3595Y5128D01*
X3621Y5113D01*
X3645Y5094D01*
X3666Y5072D01*
X3684Y5048D01*
X3699Y5021D01*
X3710Y4993D01*
X3718Y4964D01*
X3722Y4934D01*
X3722Y4904D01*
X3718Y4874D01*
X3710Y4845D01*
X3699Y4817D01*
X3684Y4790D01*
X3666Y4766D01*
X3645Y4744D01*
X3621Y4725D01*
X3595Y4710D01*
X3568Y4698D01*
X3539Y4689D01*
X3509Y4684D01*
X3478Y4683D01*
X3448Y4686D01*
X3419Y4693D01*
X3390Y4703D01*
X3364Y4717D01*
X3339Y4734D01*
X3316Y4755D01*
X3297Y4778D01*
X3280Y4803D01*
X3267Y4830D01*
X3258Y4859D01*
X3252Y4889D01*
X3250Y4919D01*
X1281Y6888D02*
X1283Y6918D01*
X1289Y6948D01*
X1298Y6977D01*
X1311Y7004D01*
X1328Y7029D01*
X1347Y7052D01*
X1370Y7073D01*
X1395Y7090D01*
X1421Y7104D01*
X1450Y7114D01*
X1479Y7121D01*
X1509Y7124D01*
X1540Y7123D01*
X1570Y7118D01*
X1599Y7109D01*
X1626Y7097D01*
X1652Y7082D01*
X1676Y7063D01*
X1697Y7041D01*
X1715Y7017D01*
X1730Y6990D01*
X1741Y6962D01*
X1749Y6933D01*
X1753Y6903D01*
X1753Y6873D01*
X1749Y6843D01*
X1741Y6814D01*
X1730Y6786D01*
X1715Y6759D01*
X1697Y6735D01*
X1676Y6713D01*
X1652Y6694D01*
X1626Y6679D01*
X1599Y6667D01*
X1570Y6658D01*
X1540Y6653D01*
X1509Y6652D01*
X1479Y6655D01*
X1450Y6662D01*
X1421Y6672D01*
X1395Y6686D01*
X1370Y6703D01*
X1347Y6724D01*
X1328Y6747D01*
X1311Y6772D01*
X1298Y6799D01*
X1289Y6828D01*
X1283Y6858D01*
X1281Y6888D01*
X297Y6888D02*
X299Y6918D01*
X305Y6948D01*
X314Y6977D01*
X327Y7004D01*
X344Y7029D01*
X363Y7052D01*
X386Y7073D01*
X411Y7090D01*
X437Y7104D01*
X466Y7114D01*
X495Y7121D01*
X525Y7124D01*
X556Y7123D01*
X586Y7118D01*
X615Y7109D01*
X642Y7097D01*
X668Y7082D01*
X692Y7063D01*
X713Y7041D01*
X731Y7017D01*
X746Y6990D01*
X757Y6962D01*
X765Y6933D01*
X769Y6903D01*
X769Y6873D01*
X765Y6843D01*
X757Y6814D01*
X746Y6786D01*
X731Y6759D01*
X713Y6735D01*
X692Y6713D01*
X668Y6694D01*
X642Y6679D01*
X615Y6667D01*
X586Y6658D01*
X556Y6653D01*
X525Y6652D01*
X495Y6655D01*
X466Y6662D01*
X437Y6672D01*
X411Y6686D01*
X386Y6703D01*
X363Y6724D01*
X344Y6747D01*
X327Y6772D01*
X314Y6799D01*
X305Y6828D01*
X299Y6858D01*
X297Y6888D01*
D12*
X3486Y6888D03*
X3486Y5903D03*
X1517Y4919D03*
X3486Y3935D03*
X3486Y2951D03*
D13*
X17214Y3416D03*
X18214Y3416D03*
X18214Y4416D03*
X17214Y4416D03*
X17214Y5416D03*
X18214Y5416D03*
X18214Y6416D03*
X17214Y6416D03*
D14*
X12219Y6966D03*
X5400Y3029D03*
D15*
X12578Y8129D03*
X12578Y9129D03*
D16*
X3044Y8579D03*
D17*
X4044Y8579D03*
X5044Y8579D03*
X6044Y8579D03*
X2520Y5890D03*
X2520Y4890D03*
X2520Y3890D03*
X11531Y1276D03*
X12531Y1276D03*
X13531Y1276D03*
X14531Y1276D03*
X15531Y1276D03*
X16531Y1276D03*
D18*
X15586Y3225D02*
X15586Y3816D01*
X13814Y3816D02*
X13814Y3225D01*
X13814Y5784D02*
X13814Y6375D01*
X15586Y6375D02*
X15586Y5784D01*
D19*
X16537Y7482D03*
X16537Y2364D03*
D20*
X15600Y3506D02*
X15586Y3521D01*
X13814Y3521D02*
X13814Y6080D01*
X4800Y5300D02*
X3300Y5300D01*
X2890Y4890D01*
X2520Y4890D01*
D21*
X4800Y5300D03*
X5700Y5700D03*
X6550Y5300D03*
X7000Y6100D03*
X8600Y5800D03*
X9100Y5100D03*
X9500Y4600D03*
X10500Y3700D03*
X11100Y3700D03*
X12637Y4806D03*
X12295Y5603D03*
X11993Y6194D03*
X10950Y6450D03*
X9500Y6500D03*
X8700Y6500D03*
X7503Y8297D03*
X9500Y9150D03*
X12100Y8595D03*
X14800Y6700D03*
X14400Y5350D03*
X15584Y4935D03*
X16122Y4924D03*
X14200Y4400D03*
X16470Y3458D03*
X17356Y2671D03*
X15486Y1982D03*
X14954Y2002D03*
X14306Y2000D03*
X14962Y2856D03*
X11123Y1970D03*
X8454Y1629D03*
X7088Y888D03*
X7088Y2462D03*
X7927Y2856D03*
X7925Y3397D03*
X6600Y3250D03*
X2287Y2913D03*
X1000Y3400D03*
X1000Y6400D03*
X17356Y7199D03*
D22*
X1027Y407D02*
X761Y566D01*
X545Y788D01*
X394Y1059D01*
X318Y1359D01*
X310Y1514D01*
X310Y1516D01*
X311Y1602D01*
X310Y1603D01*
X310Y2560D01*
X444Y2504D01*
X622Y2504D01*
X786Y2572D01*
X911Y2698D01*
X979Y2862D01*
X979Y3039D01*
X911Y3203D01*
X786Y3329D01*
X622Y3397D01*
X444Y3397D01*
X310Y3341D01*
X310Y6497D01*
X444Y6441D01*
X622Y6441D01*
X786Y6509D01*
X911Y6635D01*
X979Y6799D01*
X979Y6976D01*
X911Y7140D01*
X786Y7266D01*
X622Y7334D01*
X444Y7334D01*
X310Y7278D01*
X310Y8368D01*
X320Y8520D01*
X399Y8815D01*
X551Y9079D01*
X767Y9295D01*
X1031Y9447D01*
X1325Y9526D01*
X1478Y9536D01*
X12385Y9536D01*
X12323Y9510D01*
X12197Y9384D01*
X12128Y9218D01*
X12128Y9039D01*
X12197Y8874D01*
X12323Y8747D01*
X12489Y8679D01*
X12668Y8679D01*
X12743Y8710D01*
X12743Y8548D01*
X12668Y8579D01*
X12489Y8579D01*
X12323Y8510D01*
X12197Y8384D01*
X12128Y8218D01*
X12128Y8039D01*
X12140Y8010D01*
X10696Y8566D01*
X10646Y8587D01*
X10642Y8587D01*
X10638Y8588D01*
X10584Y8587D01*
X7866Y8587D01*
X7768Y8685D01*
X7425Y8685D01*
X6748Y9362D01*
X6747Y9364D01*
X6666Y9446D01*
X6559Y9490D01*
X3760Y9490D01*
X3760Y9490D01*
X3703Y9490D01*
X3645Y9490D01*
X3644Y9490D01*
X3592Y9468D01*
X3539Y9446D01*
X3538Y9446D01*
X3498Y9405D01*
X3457Y9364D01*
X3253Y9159D01*
X2587Y9159D01*
X2464Y9036D01*
X2464Y8401D01*
X2410Y8711D01*
X2410Y8711D01*
X2237Y9011D01*
X1972Y9233D01*
X1647Y9351D01*
X1302Y9351D01*
X977Y9233D01*
X977Y9233D01*
X712Y9011D01*
X539Y8711D01*
X479Y8371D01*
X539Y8031D01*
X539Y8031D01*
X712Y7731D01*
X977Y7509D01*
X1302Y7391D01*
X1647Y7391D01*
X1972Y7509D01*
X1972Y7509D01*
X2237Y7731D01*
X2237Y7731D01*
X2237Y7731D01*
X2410Y8031D01*
X2464Y8342D01*
X2464Y8122D01*
X2587Y7999D01*
X3501Y7999D01*
X3624Y8122D01*
X3624Y8179D01*
X3716Y8088D01*
X3929Y7999D01*
X4160Y7999D01*
X4211Y8021D01*
X4840Y7392D01*
X4840Y6248D01*
X4879Y6153D01*
X5312Y5721D01*
X5312Y5560D01*
X5188Y5560D01*
X5188Y5565D01*
X5065Y5688D01*
X4535Y5688D01*
X4417Y5570D01*
X4054Y5570D01*
X4138Y5773D01*
X4138Y6033D01*
X4039Y6273D01*
X3917Y6395D01*
X4039Y6518D01*
X4138Y6758D01*
X4138Y7017D01*
X4039Y7257D01*
X3855Y7441D01*
X3615Y7541D01*
X3356Y7541D01*
X3116Y7441D01*
X2932Y7257D01*
X2833Y7017D01*
X2833Y6758D01*
X2932Y6518D01*
X3054Y6395D01*
X2932Y6273D01*
X2914Y6231D01*
X2858Y6287D01*
X2792Y6335D01*
X2719Y6372D01*
X2641Y6397D01*
X2570Y6409D01*
X2570Y5940D01*
X2470Y5940D01*
X2470Y6409D01*
X2398Y6397D01*
X2320Y6372D01*
X2247Y6335D01*
X2181Y6287D01*
X2123Y6229D01*
X2075Y6163D01*
X2038Y6090D01*
X2013Y6012D01*
X2001Y5940D01*
X2470Y5940D01*
X2470Y5840D01*
X2001Y5840D01*
X2013Y5768D01*
X2038Y5691D01*
X2075Y5618D01*
X2123Y5551D01*
X2181Y5494D01*
X2247Y5445D01*
X2291Y5423D01*
X2191Y5382D01*
X2029Y5220D01*
X2024Y5230D01*
X1969Y5305D01*
X1903Y5371D01*
X1828Y5426D01*
X1745Y5469D01*
X1656Y5497D01*
X1567Y5511D01*
X1567Y4969D01*
X1467Y4969D01*
X1467Y4869D01*
X1567Y4869D01*
X1567Y4327D01*
X1656Y4341D01*
X1745Y4370D01*
X1828Y4412D01*
X1903Y4467D01*
X1969Y4533D01*
X2057Y4533D01*
X2028Y4562D02*
X2191Y4398D01*
X2211Y4390D01*
X2191Y4382D01*
X2028Y4219D01*
X1940Y4006D01*
X1940Y3775D01*
X2028Y3562D01*
X2191Y3398D01*
X2404Y3310D01*
X2635Y3310D01*
X2848Y3398D01*
X2973Y3524D01*
X3054Y3443D01*
X2932Y3320D01*
X2833Y3080D01*
X2833Y2821D01*
X2932Y2581D01*
X3116Y2397D01*
X3356Y2298D01*
X3615Y2298D01*
X3855Y2397D01*
X4039Y2581D01*
X4138Y2821D01*
X4138Y3080D01*
X4039Y3320D01*
X3917Y3443D01*
X4039Y3565D01*
X4138Y3805D01*
X4138Y4065D01*
X4039Y4305D01*
X3855Y4488D01*
X3734Y4539D01*
X3738Y4541D01*
X3864Y4666D01*
X3932Y4830D01*
X3932Y5008D01*
X3923Y5030D01*
X4417Y5030D01*
X4535Y4912D01*
X5065Y4912D01*
X5188Y5035D01*
X5188Y5040D01*
X5951Y5040D01*
X6047Y5080D01*
X6120Y5153D01*
X6407Y5440D01*
X6651Y5440D01*
X6747Y5480D01*
X6820Y5553D01*
X6979Y5712D01*
X7213Y5712D01*
X7213Y5252D01*
X5564Y3603D01*
X5518Y3622D01*
X5281Y3622D01*
X5063Y3532D01*
X4896Y3365D01*
X4806Y3147D01*
X4806Y2910D01*
X4896Y2692D01*
X5063Y2525D01*
X5281Y2435D01*
X5518Y2435D01*
X5736Y2525D01*
X5903Y2692D01*
X5993Y2910D01*
X5993Y3147D01*
X5974Y3193D01*
X7749Y4968D01*
X7793Y5074D01*
X7793Y7934D01*
X7866Y8007D01*
X10534Y8007D01*
X12002Y7442D01*
X12237Y7034D01*
X12566Y7224D01*
X12595Y7213D01*
X12645Y7192D01*
X12649Y7192D01*
X12652Y7191D01*
X12706Y7192D01*
X12988Y7192D01*
X12543Y6454D01*
X12382Y6454D01*
X12382Y6457D01*
X12424Y6471D01*
X12441Y6480D01*
X12200Y6897D01*
X11783Y6656D01*
X11811Y6618D01*
X11847Y6582D01*
X11728Y6582D01*
X11605Y6459D01*
X11605Y5929D01*
X11728Y5806D01*
X12259Y5806D01*
X12382Y5929D01*
X12382Y5934D01*
X12670Y5934D01*
X12702Y5929D01*
X12721Y5934D01*
X12741Y5934D01*
X12771Y5946D01*
X12802Y5954D01*
X12818Y5966D01*
X12837Y5973D01*
X12860Y5996D01*
X12885Y6015D01*
X12896Y6032D01*
X12910Y6047D01*
X12922Y6076D01*
X13435Y6927D01*
X14412Y6927D01*
X14412Y6435D01*
X14535Y6312D01*
X14540Y6312D01*
X14540Y4208D01*
X14379Y4047D01*
X14340Y3952D01*
X14340Y2404D01*
X14324Y2388D01*
X14041Y2388D01*
X13918Y2265D01*
X13918Y2102D01*
X12958Y3062D01*
X12958Y4089D01*
X12919Y4184D01*
X12845Y4258D01*
X11882Y5221D01*
X11787Y5260D01*
X10407Y5260D01*
X9088Y6580D01*
X9088Y6765D01*
X8965Y6888D01*
X8435Y6888D01*
X8312Y6765D01*
X8312Y6235D01*
X8358Y6188D01*
X8335Y6188D01*
X8212Y6065D01*
X8212Y5535D01*
X8335Y5412D01*
X8758Y5412D01*
X8712Y5365D01*
X8712Y4835D01*
X8835Y4712D01*
X8840Y4712D01*
X8840Y4248D01*
X8879Y4153D01*
X8928Y4104D01*
X8034Y3244D01*
X7662Y3244D01*
X7539Y3121D01*
X7539Y2722D01*
X7476Y2722D01*
X7476Y2727D01*
X7353Y2851D01*
X6823Y2851D01*
X6700Y2727D01*
X6700Y2197D01*
X6823Y2074D01*
X7353Y2074D01*
X7476Y2197D01*
X7476Y2202D01*
X8035Y2202D01*
X7108Y1276D01*
X6823Y1276D01*
X6700Y1153D01*
X6700Y622D01*
X6823Y499D01*
X7353Y499D01*
X7476Y622D01*
X7476Y908D01*
X9558Y2990D01*
X10781Y2990D01*
X10877Y3029D01*
X10950Y3103D01*
X11160Y3312D01*
X11279Y3312D01*
X11279Y1800D01*
X11203Y1768D01*
X11040Y1605D01*
X10951Y1392D01*
X10951Y1161D01*
X11040Y948D01*
X11203Y785D01*
X11416Y696D01*
X11647Y696D01*
X11860Y785D01*
X12023Y948D01*
X12031Y968D01*
X12040Y948D01*
X12203Y785D01*
X12416Y696D01*
X12647Y696D01*
X12860Y785D01*
X13023Y948D01*
X13031Y968D01*
X13040Y948D01*
X13203Y785D01*
X13416Y696D01*
X13647Y696D01*
X13860Y785D01*
X14023Y948D01*
X14031Y968D01*
X14040Y948D01*
X14203Y785D01*
X14416Y696D01*
X14647Y696D01*
X14860Y785D01*
X15023Y948D01*
X15031Y968D01*
X15040Y948D01*
X15203Y785D01*
X15416Y696D01*
X15647Y696D01*
X15860Y785D01*
X16023Y948D01*
X16064Y1047D01*
X16087Y1004D01*
X16135Y937D01*
X16193Y880D01*
X16259Y832D01*
X16332Y794D01*
X16410Y769D01*
X16481Y758D01*
X16481Y1226D01*
X16581Y1226D01*
X16581Y758D01*
X16653Y769D01*
X16731Y794D01*
X16804Y832D01*
X16870Y880D01*
X16928Y937D01*
X16976Y1004D01*
X17013Y1077D01*
X17039Y1154D01*
X17050Y1226D01*
X16581Y1226D01*
X16581Y1326D01*
X16481Y1326D01*
X16481Y1714D01*
X16487Y1714D01*
X16487Y2314D01*
X16587Y2314D01*
X16587Y2414D01*
X17187Y2414D01*
X17187Y2633D01*
X16984Y2836D01*
X17454Y2836D01*
X17756Y3139D01*
X17999Y2896D01*
X18164Y2896D01*
X18164Y3366D01*
X18264Y3366D01*
X18264Y2896D01*
X18429Y2896D01*
X18734Y3201D01*
X18734Y3366D01*
X18264Y3366D01*
X18264Y3466D01*
X18734Y3466D01*
X18734Y3632D01*
X18492Y3874D01*
X18794Y4176D01*
X18794Y4657D01*
X18534Y4916D01*
X18794Y5176D01*
X18794Y5657D01*
X18534Y5916D01*
X18794Y6176D01*
X18794Y6657D01*
X18454Y6996D01*
X17974Y6996D01*
X17714Y6737D01*
X17454Y6996D01*
X17055Y6996D01*
X17247Y7188D01*
X17247Y7735D01*
X17251Y7728D01*
X17516Y7506D01*
X17840Y7388D01*
X18186Y7388D01*
X18511Y7506D01*
X18775Y7728D01*
X18775Y7728D01*
X18775Y7728D01*
X18948Y8028D01*
X19008Y8368D01*
X18948Y8708D01*
X18775Y9008D01*
X18511Y9230D01*
X18511Y9230D01*
X18186Y9348D01*
X17840Y9348D01*
X17516Y9230D01*
X17516Y9230D01*
X17251Y9008D01*
X17251Y9008D01*
X17251Y9008D01*
X17078Y8708D01*
X17018Y8368D01*
X17018Y8368D01*
X17078Y8028D01*
X17078Y8028D01*
X17191Y7832D01*
X16913Y8110D01*
X16913Y9434D01*
X16811Y9536D01*
X18013Y9536D01*
X18166Y9526D01*
X18460Y9447D01*
X18724Y9295D01*
X18940Y9079D01*
X19092Y8815D01*
X19171Y8520D01*
X19181Y8368D01*
X19181Y1478D01*
X19171Y1326D01*
X19092Y1031D01*
X18940Y767D01*
X18724Y552D01*
X18460Y399D01*
X18166Y320D01*
X18013Y310D01*
X1480Y310D01*
X1326Y323D01*
X1027Y407D01*
X1067Y396D02*
X18447Y396D01*
X18625Y494D02*
X881Y494D01*
X977Y613D02*
X977Y613D01*
X1302Y495D01*
X1425Y495D01*
X1647Y495D01*
X1972Y613D01*
X1972Y613D01*
X2237Y835D01*
X2237Y835D01*
X2410Y1135D01*
X2470Y1475D01*
X2410Y1815D01*
X2410Y1815D01*
X2237Y2115D01*
X1972Y2337D01*
X1647Y2455D01*
X1302Y2455D01*
X977Y2337D01*
X977Y2337D01*
X712Y2115D01*
X712Y2115D01*
X712Y2115D01*
X539Y1815D01*
X479Y1475D01*
X539Y1135D01*
X539Y1135D01*
X712Y835D01*
X977Y613D01*
X1033Y593D02*
X735Y593D01*
X639Y691D02*
X884Y691D01*
X767Y790D02*
X544Y790D01*
X489Y888D02*
X682Y888D01*
X712Y835D02*
X712Y835D01*
X625Y987D02*
X434Y987D01*
X387Y1085D02*
X568Y1085D01*
X531Y1184D02*
X362Y1184D01*
X337Y1282D02*
X513Y1282D01*
X496Y1381D02*
X317Y1381D01*
X312Y1479D02*
X480Y1479D01*
X479Y1475D02*
X479Y1475D01*
X498Y1578D02*
X311Y1578D01*
X310Y1676D02*
X515Y1676D01*
X532Y1775D02*
X310Y1775D01*
X310Y1873D02*
X573Y1873D01*
X539Y1815D02*
X539Y1815D01*
X630Y1972D02*
X310Y1972D01*
X310Y2070D02*
X687Y2070D01*
X777Y2169D02*
X310Y2169D01*
X310Y2267D02*
X894Y2267D01*
X1056Y2366D02*
X310Y2366D01*
X310Y2464D02*
X3049Y2464D01*
X2950Y2563D02*
X1747Y2563D01*
X1770Y2572D02*
X1895Y2698D01*
X1963Y2862D01*
X1963Y3039D01*
X1895Y3203D01*
X1770Y3329D01*
X1606Y3397D01*
X1428Y3397D01*
X1264Y3329D01*
X1139Y3203D01*
X1071Y3039D01*
X1071Y2862D01*
X1139Y2698D01*
X1264Y2572D01*
X1428Y2504D01*
X1606Y2504D01*
X1770Y2572D01*
X1859Y2661D02*
X2899Y2661D01*
X2858Y2760D02*
X1921Y2760D01*
X1962Y2858D02*
X2833Y2858D01*
X2833Y2957D02*
X1963Y2957D01*
X1957Y3055D02*
X2833Y3055D01*
X2863Y3154D02*
X1916Y3154D01*
X1846Y3252D02*
X2904Y3252D01*
X2962Y3351D02*
X2733Y3351D01*
X2899Y3449D02*
X3048Y3449D01*
X2307Y3351D02*
X1717Y3351D01*
X2042Y3548D02*
X310Y3548D01*
X310Y3646D02*
X1993Y3646D01*
X1952Y3745D02*
X310Y3745D01*
X310Y3843D02*
X1940Y3843D01*
X1940Y3942D02*
X310Y3942D01*
X310Y4040D02*
X1954Y4040D01*
X1995Y4139D02*
X310Y4139D01*
X310Y4237D02*
X2046Y4237D01*
X2145Y4336D02*
X1624Y4336D01*
X1567Y4336D02*
X1467Y4336D01*
X1467Y4327D02*
X1467Y4869D01*
X925Y4869D01*
X939Y4780D01*
X968Y4691D01*
X1010Y4608D01*
X1065Y4533D01*
X1131Y4467D01*
X1206Y4412D01*
X1289Y4370D01*
X1378Y4341D01*
X1467Y4327D01*
X1410Y4336D02*
X310Y4336D01*
X310Y4434D02*
X1176Y4434D01*
X1065Y4533D02*
X310Y4533D01*
X310Y4631D02*
X998Y4631D01*
X955Y4730D02*
X310Y4730D01*
X310Y4828D02*
X931Y4828D01*
X925Y4969D02*
X1467Y4969D01*
X1467Y5511D01*
X1378Y5497D01*
X1289Y5469D01*
X1206Y5426D01*
X1131Y5371D01*
X1065Y5305D01*
X1010Y5230D01*
X968Y5147D01*
X939Y5058D01*
X925Y4969D01*
X934Y5025D02*
X310Y5025D01*
X310Y4927D02*
X1467Y4927D01*
X1467Y5025D02*
X1567Y5025D01*
X1567Y5124D02*
X1467Y5124D01*
X1467Y5222D02*
X1567Y5222D01*
X1567Y5321D02*
X1467Y5321D01*
X1467Y5419D02*
X1567Y5419D01*
X1197Y5419D02*
X310Y5419D01*
X310Y5321D02*
X1080Y5321D01*
X1006Y5222D02*
X310Y5222D01*
X310Y5124D02*
X960Y5124D01*
X1467Y4828D02*
X1567Y4828D01*
X1567Y4730D02*
X1467Y4730D01*
X1467Y4631D02*
X1567Y4631D01*
X1567Y4533D02*
X1467Y4533D01*
X1467Y4434D02*
X1567Y4434D01*
X1858Y4434D02*
X2155Y4434D01*
X2028Y4562D02*
X2014Y4595D01*
X1969Y4533D01*
X2028Y5222D02*
X2032Y5222D01*
X1954Y5321D02*
X2130Y5321D01*
X2281Y5419D02*
X1837Y5419D01*
X2157Y5518D02*
X310Y5518D01*
X310Y5616D02*
X2076Y5616D01*
X2030Y5715D02*
X310Y5715D01*
X310Y5813D02*
X2005Y5813D01*
X2012Y6010D02*
X310Y6010D01*
X310Y5912D02*
X2470Y5912D01*
X2470Y6010D02*
X2570Y6010D01*
X2570Y6109D02*
X2470Y6109D01*
X2470Y6207D02*
X2570Y6207D01*
X2570Y6306D02*
X2470Y6306D01*
X2470Y6404D02*
X2570Y6404D01*
X2598Y6404D02*
X3046Y6404D01*
X2965Y6306D02*
X2832Y6306D01*
X2947Y6503D02*
X1754Y6503D01*
X1770Y6509D02*
X1895Y6635D01*
X1963Y6799D01*
X1963Y6976D01*
X1895Y7140D01*
X1770Y7266D01*
X1606Y7334D01*
X1428Y7334D01*
X1264Y7266D01*
X1139Y7140D01*
X1071Y6976D01*
X1071Y6799D01*
X1139Y6635D01*
X1264Y6509D01*
X1428Y6441D01*
X1606Y6441D01*
X1770Y6509D01*
X1862Y6601D02*
X2897Y6601D01*
X2857Y6700D02*
X1922Y6700D01*
X1963Y6798D02*
X2833Y6798D01*
X2833Y6897D02*
X1963Y6897D01*
X1955Y6995D02*
X2833Y6995D01*
X2864Y7094D02*
X1915Y7094D01*
X1843Y7192D02*
X2905Y7192D01*
X2965Y7291D02*
X1710Y7291D01*
X1913Y7488D02*
X3228Y7488D01*
X3064Y7389D02*
X310Y7389D01*
X310Y7291D02*
X340Y7291D01*
X726Y7291D02*
X1324Y7291D01*
X1191Y7192D02*
X859Y7192D01*
X930Y7094D02*
X1119Y7094D01*
X1079Y6995D02*
X971Y6995D01*
X979Y6897D02*
X1071Y6897D01*
X1071Y6798D02*
X979Y6798D01*
X938Y6700D02*
X1112Y6700D01*
X1172Y6601D02*
X877Y6601D01*
X770Y6503D02*
X1280Y6503D01*
X2047Y6109D02*
X310Y6109D01*
X310Y6207D02*
X2107Y6207D01*
X2207Y6306D02*
X310Y6306D01*
X310Y6404D02*
X2441Y6404D01*
X3926Y6404D02*
X4840Y6404D01*
X4840Y6306D02*
X4007Y6306D01*
X4066Y6207D02*
X4857Y6207D01*
X4924Y6109D02*
X4107Y6109D01*
X4138Y6010D02*
X5022Y6010D01*
X5121Y5912D02*
X4138Y5912D01*
X4138Y5813D02*
X5219Y5813D01*
X5312Y5715D02*
X4114Y5715D01*
X4073Y5616D02*
X4463Y5616D01*
X4800Y5300D02*
X5900Y5300D01*
X6300Y5700D01*
X6600Y5700D01*
X7000Y6100D01*
X6612Y6109D02*
X5659Y6109D01*
X5679Y6088D02*
X5360Y6408D01*
X5360Y7552D01*
X5320Y7647D01*
X5247Y7721D01*
X4968Y7999D01*
X5160Y7999D01*
X5373Y8088D01*
X5536Y8251D01*
X5577Y8350D01*
X5600Y8307D01*
X5648Y8241D01*
X5706Y8183D01*
X5772Y8135D01*
X5845Y8097D01*
X5923Y8072D01*
X5994Y8061D01*
X5994Y8529D01*
X6094Y8529D01*
X6094Y8061D01*
X6166Y8072D01*
X6244Y8097D01*
X6317Y8135D01*
X6383Y8183D01*
X6441Y8241D01*
X6489Y8307D01*
X6526Y8380D01*
X6552Y8458D01*
X6563Y8529D01*
X6094Y8529D01*
X6094Y8629D01*
X6563Y8629D01*
X6552Y8701D01*
X6534Y8756D01*
X7115Y8175D01*
X7115Y8032D01*
X7213Y7934D01*
X7213Y6488D01*
X6735Y6488D01*
X6612Y6365D01*
X6612Y6080D01*
X6492Y5960D01*
X6248Y5960D01*
X6152Y5921D01*
X6088Y5856D01*
X6088Y5965D01*
X5965Y6088D01*
X5679Y6088D01*
X5560Y6207D02*
X6612Y6207D01*
X6612Y6306D02*
X5462Y6306D01*
X5363Y6404D02*
X6651Y6404D01*
X7213Y6503D02*
X5360Y6503D01*
X5360Y6601D02*
X7213Y6601D01*
X7213Y6700D02*
X5360Y6700D01*
X5360Y6798D02*
X7213Y6798D01*
X7213Y6897D02*
X5360Y6897D01*
X5360Y6995D02*
X7213Y6995D01*
X7213Y7094D02*
X5360Y7094D01*
X5360Y7192D02*
X7213Y7192D01*
X7213Y7291D02*
X5360Y7291D01*
X5360Y7389D02*
X7213Y7389D01*
X7213Y7488D02*
X5360Y7488D01*
X5346Y7586D02*
X7213Y7586D01*
X7213Y7685D02*
X5283Y7685D01*
X5184Y7783D02*
X7213Y7783D01*
X7213Y7882D02*
X5086Y7882D01*
X4987Y7980D02*
X7167Y7980D01*
X7115Y8079D02*
X6186Y8079D01*
X6094Y8079D02*
X5994Y8079D01*
X5902Y8079D02*
X5351Y8079D01*
X5463Y8177D02*
X5713Y8177D01*
X5622Y8276D02*
X5546Y8276D01*
X5994Y8276D02*
X6094Y8276D01*
X6094Y8374D02*
X5994Y8374D01*
X5994Y8473D02*
X6094Y8473D01*
X6094Y8571D02*
X6719Y8571D01*
X6817Y8473D02*
X6554Y8473D01*
X6524Y8374D02*
X6916Y8374D01*
X7014Y8276D02*
X6467Y8276D01*
X6376Y8177D02*
X7113Y8177D01*
X7793Y7882D02*
X10859Y7882D01*
X10604Y7980D02*
X7839Y7980D01*
X7793Y7783D02*
X11115Y7783D01*
X11370Y7685D02*
X7793Y7685D01*
X7793Y7586D02*
X11626Y7586D01*
X11882Y7488D02*
X7793Y7488D01*
X7793Y7389D02*
X11894Y7389D01*
X11910Y7401D02*
X11871Y7373D01*
X11811Y7313D01*
X11762Y7245D01*
X11724Y7170D01*
X11698Y7091D01*
X11685Y7008D01*
X11685Y6924D01*
X11698Y6841D01*
X11724Y6761D01*
X11733Y6743D01*
X12150Y6984D01*
X11910Y7401D01*
X11916Y7389D02*
X12032Y7389D01*
X12089Y7291D02*
X11973Y7291D01*
X12030Y7192D02*
X12145Y7192D01*
X12087Y7094D02*
X12202Y7094D01*
X12237Y7034D02*
X12150Y6984D01*
X12200Y6897D01*
X12287Y6947D01*
X12528Y6530D01*
X12566Y6558D01*
X12626Y6618D01*
X12675Y6686D01*
X12713Y6761D01*
X12739Y6841D01*
X12752Y6924D01*
X12752Y7008D01*
X12739Y7091D01*
X12713Y7170D01*
X12704Y7188D01*
X12287Y6947D01*
X12237Y7034D01*
X12259Y6995D02*
X12370Y6995D01*
X12341Y7094D02*
X12541Y7094D01*
X12511Y7192D02*
X12645Y7192D01*
X12738Y7094D02*
X12929Y7094D01*
X12869Y6995D02*
X12752Y6995D01*
X12748Y6897D02*
X12810Y6897D01*
X12751Y6798D02*
X12726Y6798D01*
X12691Y6700D02*
X12682Y6700D01*
X12632Y6601D02*
X12609Y6601D01*
X12572Y6503D02*
X12428Y6503D01*
X12371Y6601D02*
X12487Y6601D01*
X12430Y6700D02*
X12314Y6700D01*
X12258Y6798D02*
X12373Y6798D01*
X12316Y6897D02*
X12201Y6897D01*
X12199Y6897D02*
X11999Y6897D01*
X12029Y6798D02*
X11829Y6798D01*
X11858Y6700D02*
X9088Y6700D01*
X9088Y6601D02*
X11828Y6601D01*
X11649Y6503D02*
X9165Y6503D01*
X9263Y6404D02*
X11605Y6404D01*
X11605Y6306D02*
X9362Y6306D01*
X9460Y6207D02*
X11605Y6207D01*
X11605Y6109D02*
X9559Y6109D01*
X9657Y6010D02*
X11605Y6010D01*
X11622Y5912D02*
X9756Y5912D01*
X9854Y5813D02*
X11721Y5813D01*
X11993Y6194D02*
X12689Y6194D01*
X13289Y7187D01*
X15651Y7187D01*
X16200Y6638D01*
X16200Y5002D01*
X16122Y4924D01*
X15734Y4927D02*
X15060Y4927D01*
X15060Y5025D02*
X15734Y5025D01*
X15734Y5124D02*
X15060Y5124D01*
X15060Y5222D02*
X15767Y5222D01*
X15734Y5189D02*
X15734Y4659D01*
X15857Y4536D01*
X16247Y4536D01*
X16247Y4067D01*
X16291Y3960D01*
X16634Y3617D01*
X16634Y3313D01*
X16190Y3313D01*
X16094Y3273D01*
X16031Y3210D01*
X16031Y3472D01*
X15634Y3472D01*
X15634Y2813D01*
X15627Y2807D01*
X15588Y2711D01*
X15588Y1856D01*
X15416Y1856D01*
X15343Y1826D01*
X15343Y2267D01*
X15222Y2387D01*
X15222Y2468D01*
X15227Y2468D01*
X15350Y2591D01*
X15350Y2846D01*
X15352Y2845D01*
X15415Y2813D01*
X15481Y2791D01*
X15537Y2782D01*
X15537Y3472D01*
X15634Y3472D01*
X15634Y3569D01*
X16031Y3569D01*
X16031Y3851D01*
X16020Y3920D01*
X15998Y3987D01*
X15966Y4049D01*
X15925Y4106D01*
X15876Y4156D01*
X15819Y4197D01*
X15756Y4229D01*
X15690Y4250D01*
X15634Y4259D01*
X15634Y3569D01*
X15537Y3569D01*
X15537Y3472D01*
X15140Y3472D01*
X15140Y3244D01*
X14860Y3244D01*
X14860Y3792D01*
X14947Y3880D01*
X15020Y3953D01*
X15060Y4048D01*
X15060Y6312D01*
X15065Y6312D01*
X15140Y6388D01*
X15140Y6128D01*
X15537Y6128D01*
X15537Y6031D01*
X15634Y6031D01*
X15634Y5341D01*
X15690Y5350D01*
X15756Y5372D01*
X15819Y5404D01*
X15876Y5445D01*
X15925Y5494D01*
X15940Y5514D01*
X15940Y5312D01*
X15857Y5312D01*
X15734Y5189D01*
X15940Y5321D02*
X15060Y5321D01*
X15060Y5419D02*
X15331Y5419D01*
X15352Y5404D02*
X15415Y5372D01*
X15481Y5350D01*
X15537Y5341D01*
X15537Y6031D01*
X15140Y6031D01*
X15140Y5749D01*
X15151Y5680D01*
X15173Y5614D01*
X15205Y5551D01*
X15246Y5494D01*
X15295Y5445D01*
X15352Y5404D01*
X15229Y5518D02*
X15060Y5518D01*
X15060Y5616D02*
X15172Y5616D01*
X15146Y5715D02*
X15060Y5715D01*
X15060Y5813D02*
X15140Y5813D01*
X15140Y5912D02*
X15060Y5912D01*
X15060Y6010D02*
X15140Y6010D01*
X15060Y6109D02*
X15537Y6109D01*
X15537Y6128D02*
X15537Y6818D01*
X15481Y6809D01*
X15415Y6788D01*
X15352Y6756D01*
X15295Y6715D01*
X15246Y6665D01*
X15205Y6608D01*
X15188Y6575D01*
X15188Y6927D01*
X15543Y6927D01*
X15655Y6815D01*
X15634Y6818D01*
X15634Y6128D01*
X15537Y6128D01*
X15537Y6207D02*
X15634Y6207D01*
X15634Y6306D02*
X15537Y6306D01*
X15537Y6404D02*
X15634Y6404D01*
X15634Y6503D02*
X15537Y6503D01*
X15537Y6601D02*
X15634Y6601D01*
X15634Y6700D02*
X15537Y6700D01*
X15537Y6798D02*
X15634Y6798D01*
X15573Y6897D02*
X15188Y6897D01*
X15188Y6798D02*
X15447Y6798D01*
X15281Y6700D02*
X15188Y6700D01*
X15188Y6601D02*
X15201Y6601D01*
X14800Y6700D02*
X14800Y4100D01*
X14600Y3900D01*
X14600Y2297D01*
X14306Y2000D01*
X13918Y2169D02*
X13852Y2169D01*
X13920Y2267D02*
X13753Y2267D01*
X13655Y2366D02*
X14018Y2366D01*
X14340Y2464D02*
X13556Y2464D01*
X13458Y2563D02*
X14340Y2563D01*
X14340Y2661D02*
X13359Y2661D01*
X13261Y2760D02*
X13618Y2760D01*
X13528Y2797D02*
X13713Y2720D01*
X13914Y2720D01*
X14100Y2797D01*
X14242Y2939D01*
X14319Y3125D01*
X14319Y3916D01*
X14242Y4102D01*
X14100Y4244D01*
X14084Y4251D01*
X14084Y5349D01*
X14100Y5356D01*
X14242Y5498D01*
X14319Y5684D01*
X14319Y6476D01*
X14242Y6661D01*
X14100Y6803D01*
X13914Y6880D01*
X13713Y6880D01*
X13528Y6803D01*
X13386Y6661D01*
X13309Y6476D01*
X13309Y5684D01*
X13386Y5498D01*
X13528Y5356D01*
X13544Y5349D01*
X13544Y4251D01*
X13528Y4244D01*
X13386Y4102D01*
X13309Y3916D01*
X13309Y3125D01*
X13386Y2939D01*
X13528Y2797D01*
X13467Y2858D02*
X13162Y2858D01*
X13064Y2957D02*
X13378Y2957D01*
X13337Y3055D02*
X12965Y3055D01*
X12958Y3154D02*
X13309Y3154D01*
X13309Y3252D02*
X12958Y3252D01*
X12958Y3351D02*
X13309Y3351D01*
X13309Y3449D02*
X12958Y3449D01*
X12958Y3548D02*
X13309Y3548D01*
X13309Y3646D02*
X12958Y3646D01*
X12958Y3745D02*
X13309Y3745D01*
X13309Y3843D02*
X12958Y3843D01*
X12958Y3942D02*
X13319Y3942D01*
X13360Y4040D02*
X12958Y4040D01*
X12938Y4139D02*
X13422Y4139D01*
X13521Y4237D02*
X12866Y4237D01*
X12767Y4336D02*
X13544Y4336D01*
X13544Y4434D02*
X12669Y4434D01*
X12570Y4533D02*
X13544Y4533D01*
X13544Y4631D02*
X12472Y4631D01*
X12373Y4730D02*
X13544Y4730D01*
X13544Y4828D02*
X12275Y4828D01*
X12176Y4927D02*
X13544Y4927D01*
X13544Y5025D02*
X12078Y5025D01*
X11979Y5124D02*
X13544Y5124D01*
X13544Y5222D02*
X11879Y5222D01*
X11735Y5000D02*
X12698Y4037D01*
X12698Y2955D01*
X14376Y1276D01*
X14531Y1276D01*
X14099Y888D02*
X13963Y888D01*
X13865Y790D02*
X14198Y790D01*
X14865Y790D02*
X15198Y790D01*
X15099Y888D02*
X14963Y888D01*
X15531Y1276D02*
X15848Y1593D01*
X15848Y2659D01*
X16241Y3053D01*
X16832Y3053D01*
X17178Y3399D01*
X17196Y3399D01*
X16634Y3351D02*
X16031Y3351D01*
X16031Y3449D02*
X16634Y3449D01*
X16634Y3548D02*
X15634Y3548D01*
X15537Y3548D02*
X14860Y3548D01*
X14860Y3646D02*
X15140Y3646D01*
X15140Y3569D02*
X15537Y3569D01*
X15537Y4259D01*
X15481Y4250D01*
X15415Y4229D01*
X15352Y4197D01*
X15295Y4156D01*
X15246Y4106D01*
X15205Y4049D01*
X15173Y3987D01*
X15151Y3920D01*
X15140Y3851D01*
X15140Y3569D01*
X15140Y3449D02*
X14860Y3449D01*
X14860Y3351D02*
X15140Y3351D01*
X15140Y3252D02*
X14860Y3252D01*
X14340Y3252D02*
X14319Y3252D01*
X14319Y3154D02*
X14340Y3154D01*
X14340Y3055D02*
X14290Y3055D01*
X14250Y2957D02*
X14340Y2957D01*
X14340Y2858D02*
X14161Y2858D01*
X14010Y2760D02*
X14340Y2760D01*
X14962Y2856D02*
X14962Y2009D01*
X14954Y2002D01*
X15343Y1972D02*
X15588Y1972D01*
X15588Y2070D02*
X15343Y2070D01*
X15343Y2169D02*
X15588Y2169D01*
X15588Y2267D02*
X15342Y2267D01*
X15244Y2366D02*
X15588Y2366D01*
X15588Y2464D02*
X15222Y2464D01*
X15322Y2563D02*
X15588Y2563D01*
X15588Y2661D02*
X15350Y2661D01*
X15350Y2760D02*
X15608Y2760D01*
X15634Y2858D02*
X15537Y2858D01*
X15537Y2957D02*
X15634Y2957D01*
X15634Y3055D02*
X15537Y3055D01*
X15537Y3154D02*
X15634Y3154D01*
X15634Y3252D02*
X15537Y3252D01*
X15537Y3351D02*
X15634Y3351D01*
X15634Y3449D02*
X15537Y3449D01*
X15537Y3646D02*
X15634Y3646D01*
X15634Y3745D02*
X15537Y3745D01*
X15537Y3843D02*
X15634Y3843D01*
X15634Y3942D02*
X15537Y3942D01*
X15537Y4040D02*
X15634Y4040D01*
X15634Y4139D02*
X15537Y4139D01*
X15537Y4237D02*
X15634Y4237D01*
X15730Y4237D02*
X16247Y4237D01*
X16247Y4139D02*
X15893Y4139D01*
X15971Y4040D02*
X16258Y4040D01*
X16310Y3942D02*
X16013Y3942D01*
X16031Y3843D02*
X16408Y3843D01*
X16507Y3745D02*
X16031Y3745D01*
X16031Y3646D02*
X16605Y3646D01*
X16073Y3252D02*
X16031Y3252D01*
X15140Y3745D02*
X14860Y3745D01*
X14910Y3843D02*
X15140Y3843D01*
X15158Y3942D02*
X15009Y3942D01*
X15056Y4040D02*
X15200Y4040D01*
X15279Y4139D02*
X15060Y4139D01*
X15060Y4237D02*
X15441Y4237D01*
X15060Y4336D02*
X16247Y4336D01*
X16247Y4434D02*
X15060Y4434D01*
X15060Y4533D02*
X16247Y4533D01*
X15762Y4631D02*
X15060Y4631D01*
X15060Y4730D02*
X15734Y4730D01*
X15734Y4828D02*
X15060Y4828D01*
X14540Y4828D02*
X14084Y4828D01*
X14084Y4730D02*
X14540Y4730D01*
X14540Y4631D02*
X14084Y4631D01*
X14084Y4533D02*
X14540Y4533D01*
X14540Y4434D02*
X14084Y4434D01*
X14084Y4336D02*
X14540Y4336D01*
X14540Y4237D02*
X14107Y4237D01*
X14206Y4139D02*
X14471Y4139D01*
X14376Y4040D02*
X14268Y4040D01*
X14309Y3942D02*
X14340Y3942D01*
X14340Y3843D02*
X14319Y3843D01*
X14319Y3745D02*
X14340Y3745D01*
X14340Y3646D02*
X14319Y3646D01*
X14319Y3548D02*
X14340Y3548D01*
X14340Y3449D02*
X14319Y3449D01*
X14319Y3351D02*
X14340Y3351D01*
X12304Y4037D02*
X12304Y2503D01*
X13531Y1276D01*
X13099Y888D02*
X12963Y888D01*
X12865Y790D02*
X13198Y790D01*
X12531Y1276D02*
X11911Y1897D01*
X11911Y4037D01*
X11548Y4400D01*
X9700Y4400D01*
X9500Y4600D01*
X9100Y4300D02*
X9300Y4100D01*
X8006Y2856D01*
X7927Y2856D01*
X7539Y2858D02*
X5972Y2858D01*
X5993Y2957D02*
X7539Y2957D01*
X7539Y3055D02*
X5993Y3055D01*
X5990Y3154D02*
X7571Y3154D01*
X8043Y3252D02*
X6033Y3252D01*
X6132Y3351D02*
X8145Y3351D01*
X8247Y3449D02*
X6230Y3449D01*
X6329Y3548D02*
X8350Y3548D01*
X8452Y3646D02*
X6427Y3646D01*
X6526Y3745D02*
X8555Y3745D01*
X8657Y3843D02*
X6624Y3843D01*
X6723Y3942D02*
X8760Y3942D01*
X8862Y4040D02*
X6821Y4040D01*
X6920Y4139D02*
X8894Y4139D01*
X8844Y4237D02*
X7018Y4237D01*
X7117Y4336D02*
X8840Y4336D01*
X8840Y4434D02*
X7215Y4434D01*
X7314Y4533D02*
X8840Y4533D01*
X8840Y4631D02*
X7412Y4631D01*
X7511Y4730D02*
X8817Y4730D01*
X8719Y4828D02*
X7609Y4828D01*
X7708Y4927D02*
X8712Y4927D01*
X8712Y5025D02*
X7773Y5025D01*
X7793Y5124D02*
X8712Y5124D01*
X8712Y5222D02*
X7793Y5222D01*
X7793Y5321D02*
X8712Y5321D01*
X8328Y5419D02*
X7793Y5419D01*
X7793Y5518D02*
X8229Y5518D01*
X8212Y5616D02*
X7793Y5616D01*
X7793Y5715D02*
X8212Y5715D01*
X8212Y5813D02*
X7793Y5813D01*
X7793Y5912D02*
X8212Y5912D01*
X8212Y6010D02*
X7793Y6010D01*
X7793Y6109D02*
X8255Y6109D01*
X8340Y6207D02*
X7793Y6207D01*
X7793Y6306D02*
X8312Y6306D01*
X8312Y6404D02*
X7793Y6404D01*
X7793Y6503D02*
X8312Y6503D01*
X8312Y6601D02*
X7793Y6601D01*
X7793Y6700D02*
X8312Y6700D01*
X8345Y6798D02*
X7793Y6798D01*
X7793Y6897D02*
X11689Y6897D01*
X11685Y6995D02*
X7793Y6995D01*
X7793Y7094D02*
X11699Y7094D01*
X11735Y7192D02*
X7793Y7192D01*
X7793Y7291D02*
X11795Y7291D01*
X12144Y6995D02*
X12170Y6995D01*
X11712Y6798D02*
X9055Y6798D01*
X8800Y6500D02*
X8700Y6500D01*
X8800Y6500D02*
X10300Y5000D01*
X11735Y5000D01*
X11641Y4700D02*
X12304Y4037D01*
X11539Y3961D02*
X11539Y1284D01*
X11531Y1276D01*
X10951Y1282D02*
X7850Y1282D01*
X7752Y1184D02*
X10951Y1184D01*
X10983Y1085D02*
X7653Y1085D01*
X7555Y987D02*
X11023Y987D01*
X11099Y888D02*
X7476Y888D01*
X7476Y790D02*
X11198Y790D01*
X11865Y790D02*
X12198Y790D01*
X12099Y888D02*
X11963Y888D01*
X10951Y1381D02*
X7949Y1381D01*
X8047Y1479D02*
X10988Y1479D01*
X11028Y1578D02*
X8146Y1578D01*
X8244Y1676D02*
X11111Y1676D01*
X11219Y1775D02*
X8343Y1775D01*
X8441Y1873D02*
X11279Y1873D01*
X11279Y1972D02*
X8540Y1972D01*
X8638Y2070D02*
X11279Y2070D01*
X11279Y2169D02*
X8737Y2169D01*
X8835Y2267D02*
X11279Y2267D01*
X11279Y2366D02*
X8934Y2366D01*
X9032Y2464D02*
X11279Y2464D01*
X11279Y2563D02*
X9131Y2563D01*
X9229Y2661D02*
X11279Y2661D01*
X11279Y2760D02*
X9328Y2760D01*
X9426Y2858D02*
X11279Y2858D01*
X11279Y2957D02*
X9525Y2957D01*
X9450Y3250D02*
X7088Y888D01*
X6700Y888D02*
X2267Y888D01*
X2324Y987D02*
X6700Y987D01*
X6700Y1085D02*
X2381Y1085D01*
X2410Y1135D02*
X2410Y1135D01*
X2418Y1184D02*
X6731Y1184D01*
X7115Y1282D02*
X2436Y1282D01*
X2453Y1381D02*
X7213Y1381D01*
X7312Y1479D02*
X2469Y1479D01*
X2452Y1578D02*
X7410Y1578D01*
X7509Y1676D02*
X2434Y1676D01*
X2417Y1775D02*
X7607Y1775D01*
X7706Y1873D02*
X2376Y1873D01*
X2319Y1972D02*
X7804Y1972D01*
X7903Y2070D02*
X2263Y2070D01*
X2237Y2115D02*
X2237Y2115D01*
X2172Y2169D02*
X6728Y2169D01*
X6700Y2267D02*
X2055Y2267D01*
X1972Y2337D02*
X1972Y2337D01*
X1893Y2366D02*
X3191Y2366D01*
X3780Y2366D02*
X6700Y2366D01*
X6700Y2464D02*
X5589Y2464D01*
X5774Y2563D02*
X6700Y2563D01*
X6700Y2661D02*
X5872Y2661D01*
X5931Y2760D02*
X6732Y2760D01*
X7088Y2462D02*
X8171Y2462D01*
X9352Y3643D01*
X10443Y3643D01*
X10500Y3700D01*
X10730Y3250D02*
X9450Y3250D01*
X9300Y4100D02*
X11400Y4100D01*
X11539Y3961D01*
X11100Y3700D02*
X11100Y3620D01*
X10730Y3250D01*
X11001Y3154D02*
X11279Y3154D01*
X11279Y3252D02*
X11100Y3252D01*
X11279Y3055D02*
X10903Y3055D01*
X9100Y4300D02*
X9100Y5100D01*
X9000Y5800D02*
X8600Y5800D01*
X9000Y5800D02*
X10100Y4700D01*
X11641Y4700D01*
X10347Y5321D02*
X13544Y5321D01*
X13465Y5419D02*
X10248Y5419D01*
X10150Y5518D02*
X13377Y5518D01*
X13337Y5616D02*
X10051Y5616D01*
X9953Y5715D02*
X13309Y5715D01*
X13309Y5813D02*
X12266Y5813D01*
X12364Y5912D02*
X13309Y5912D01*
X13309Y6010D02*
X12879Y6010D01*
X12942Y6109D02*
X13309Y6109D01*
X13309Y6207D02*
X13001Y6207D01*
X13061Y6306D02*
X13309Y6306D01*
X13309Y6404D02*
X13120Y6404D01*
X13180Y6503D02*
X13320Y6503D01*
X13361Y6601D02*
X13239Y6601D01*
X13298Y6700D02*
X13424Y6700D01*
X13358Y6798D02*
X13523Y6798D01*
X13417Y6897D02*
X14412Y6897D01*
X14412Y6798D02*
X14105Y6798D01*
X14204Y6700D02*
X14412Y6700D01*
X14412Y6601D02*
X14267Y6601D01*
X14308Y6503D02*
X14412Y6503D01*
X14443Y6404D02*
X14319Y6404D01*
X14319Y6306D02*
X14540Y6306D01*
X14540Y6207D02*
X14319Y6207D01*
X14319Y6109D02*
X14540Y6109D01*
X14540Y6010D02*
X14319Y6010D01*
X14319Y5912D02*
X14540Y5912D01*
X14540Y5813D02*
X14319Y5813D01*
X14319Y5715D02*
X14540Y5715D01*
X14540Y5616D02*
X14291Y5616D01*
X14250Y5518D02*
X14540Y5518D01*
X14540Y5419D02*
X14163Y5419D01*
X14084Y5321D02*
X14540Y5321D01*
X14540Y5222D02*
X14084Y5222D01*
X14084Y5124D02*
X14540Y5124D01*
X14540Y5025D02*
X14084Y5025D01*
X14084Y4927D02*
X14540Y4927D01*
X15537Y5419D02*
X15634Y5419D01*
X15634Y5518D02*
X15537Y5518D01*
X15537Y5616D02*
X15634Y5616D01*
X15634Y5715D02*
X15537Y5715D01*
X15537Y5813D02*
X15634Y5813D01*
X15634Y5912D02*
X15537Y5912D01*
X15537Y6010D02*
X15634Y6010D01*
X15140Y6207D02*
X15060Y6207D01*
X15060Y6306D02*
X15140Y6306D01*
X15840Y5419D02*
X15940Y5419D01*
X17652Y6798D02*
X17776Y6798D01*
X17874Y6897D02*
X17554Y6897D01*
X17455Y6995D02*
X17973Y6995D01*
X17837Y7389D02*
X17247Y7389D01*
X17247Y7291D02*
X19181Y7291D01*
X19181Y7389D02*
X18189Y7389D01*
X18460Y7488D02*
X19181Y7488D01*
X19181Y7586D02*
X18606Y7586D01*
X18511Y7506D02*
X18511Y7506D01*
X18724Y7685D02*
X19181Y7685D01*
X19181Y7783D02*
X18807Y7783D01*
X18864Y7882D02*
X19181Y7882D01*
X19181Y7980D02*
X18921Y7980D01*
X18948Y8028D02*
X18948Y8028D01*
X18957Y8079D02*
X19181Y8079D01*
X19181Y8177D02*
X18975Y8177D01*
X18992Y8276D02*
X19181Y8276D01*
X19181Y8374D02*
X19007Y8374D01*
X19008Y8368D02*
X19008Y8368D01*
X18990Y8473D02*
X19174Y8473D01*
X19157Y8571D02*
X18972Y8571D01*
X18955Y8670D02*
X19131Y8670D01*
X19105Y8768D02*
X18914Y8768D01*
X18948Y8708D02*
X18948Y8708D01*
X18857Y8867D02*
X19062Y8867D01*
X19005Y8965D02*
X18800Y8965D01*
X18775Y9008D02*
X18775Y9008D01*
X18708Y9064D02*
X18948Y9064D01*
X18856Y9162D02*
X18591Y9162D01*
X18425Y9261D02*
X18758Y9261D01*
X18612Y9359D02*
X16913Y9359D01*
X16913Y9261D02*
X17601Y9261D01*
X17435Y9162D02*
X16913Y9162D01*
X16913Y9064D02*
X17318Y9064D01*
X17226Y8965D02*
X16913Y8965D01*
X16913Y8867D02*
X17169Y8867D01*
X17113Y8768D02*
X16913Y8768D01*
X16913Y8670D02*
X17071Y8670D01*
X17078Y8708D02*
X17078Y8708D01*
X17054Y8571D02*
X16913Y8571D01*
X16913Y8473D02*
X17036Y8473D01*
X17019Y8374D02*
X16913Y8374D01*
X16913Y8276D02*
X17034Y8276D01*
X17052Y8177D02*
X16913Y8177D01*
X16944Y8079D02*
X17069Y8079D01*
X17043Y7980D02*
X17105Y7980D01*
X17141Y7882D02*
X17162Y7882D01*
X17251Y7728D02*
X17251Y7728D01*
X17247Y7685D02*
X17303Y7685D01*
X17247Y7586D02*
X17420Y7586D01*
X17516Y7506D02*
X17516Y7506D01*
X17566Y7488D02*
X17247Y7488D01*
X17247Y7192D02*
X19181Y7192D01*
X19181Y7094D02*
X17152Y7094D01*
X18455Y6995D02*
X19181Y6995D01*
X19181Y6897D02*
X18554Y6897D01*
X18652Y6798D02*
X19181Y6798D01*
X19181Y6700D02*
X18751Y6700D01*
X18794Y6601D02*
X19181Y6601D01*
X19181Y6503D02*
X18794Y6503D01*
X18794Y6404D02*
X19181Y6404D01*
X19181Y6306D02*
X18794Y6306D01*
X18794Y6207D02*
X19181Y6207D01*
X19181Y6109D02*
X18727Y6109D01*
X18628Y6010D02*
X19181Y6010D01*
X19181Y5912D02*
X18539Y5912D01*
X18637Y5813D02*
X19181Y5813D01*
X19181Y5715D02*
X18736Y5715D01*
X18794Y5616D02*
X19181Y5616D01*
X19181Y5518D02*
X18794Y5518D01*
X18794Y5419D02*
X19181Y5419D01*
X19181Y5321D02*
X18794Y5321D01*
X18794Y5222D02*
X19181Y5222D01*
X19181Y5124D02*
X18742Y5124D01*
X18643Y5025D02*
X19181Y5025D01*
X19181Y4927D02*
X18545Y4927D01*
X18622Y4828D02*
X19181Y4828D01*
X19181Y4730D02*
X18721Y4730D01*
X18794Y4631D02*
X19181Y4631D01*
X19181Y4533D02*
X18794Y4533D01*
X18794Y4434D02*
X19181Y4434D01*
X19181Y4336D02*
X18794Y4336D01*
X18794Y4237D02*
X19181Y4237D01*
X19181Y4139D02*
X18757Y4139D01*
X18658Y4040D02*
X19181Y4040D01*
X19181Y3942D02*
X18560Y3942D01*
X18522Y3843D02*
X19181Y3843D01*
X19181Y3745D02*
X18621Y3745D01*
X18719Y3646D02*
X19181Y3646D01*
X19181Y3548D02*
X18734Y3548D01*
X18734Y3351D02*
X19181Y3351D01*
X19181Y3449D02*
X18264Y3449D01*
X18264Y3351D02*
X18164Y3351D01*
X18164Y3252D02*
X18264Y3252D01*
X18264Y3154D02*
X18164Y3154D01*
X18164Y3055D02*
X18264Y3055D01*
X18264Y2957D02*
X18164Y2957D01*
X17938Y2957D02*
X17575Y2957D01*
X17673Y3055D02*
X17840Y3055D01*
X17476Y2858D02*
X19181Y2858D01*
X19181Y2760D02*
X17060Y2760D01*
X17159Y2661D02*
X19181Y2661D01*
X19181Y2563D02*
X17187Y2563D01*
X17187Y2464D02*
X19181Y2464D01*
X19181Y2366D02*
X18434Y2366D01*
X18514Y2337D02*
X18189Y2455D01*
X17843Y2455D01*
X17519Y2337D01*
X17519Y2337D01*
X17254Y2115D01*
X17254Y2115D01*
X17254Y2115D01*
X17081Y1815D01*
X17021Y1475D01*
X17030Y1423D01*
X17013Y1476D01*
X16976Y1549D01*
X16928Y1615D01*
X16870Y1673D01*
X16809Y1717D01*
X17187Y2095D01*
X17187Y2314D01*
X16587Y2314D01*
X16587Y1794D01*
X16581Y1795D01*
X16581Y1326D01*
X17047Y1326D01*
X17081Y1135D01*
X17081Y1135D01*
X17254Y835D01*
X17519Y613D01*
X17843Y495D01*
X18189Y495D01*
X18514Y613D01*
X18779Y835D01*
X18779Y835D01*
X18779Y835D01*
X18951Y1135D01*
X19011Y1475D01*
X18951Y1815D01*
X18951Y1815D01*
X18779Y2115D01*
X18514Y2337D01*
X18514Y2337D01*
X18597Y2267D02*
X19181Y2267D01*
X19181Y2169D02*
X18714Y2169D01*
X18779Y2115D02*
X18779Y2115D01*
X18804Y2070D02*
X19181Y2070D01*
X19181Y1972D02*
X18861Y1972D01*
X18918Y1873D02*
X19181Y1873D01*
X19181Y1775D02*
X18959Y1775D01*
X18976Y1676D02*
X19181Y1676D01*
X19181Y1578D02*
X18993Y1578D01*
X19011Y1479D02*
X19181Y1479D01*
X19175Y1381D02*
X18995Y1381D01*
X19011Y1475D02*
X19011Y1475D01*
X18977Y1282D02*
X19159Y1282D01*
X19133Y1184D02*
X18960Y1184D01*
X18951Y1135D02*
X18951Y1135D01*
X18923Y1085D02*
X19107Y1085D01*
X19066Y987D02*
X18866Y987D01*
X18809Y888D02*
X19010Y888D01*
X18953Y790D02*
X18724Y790D01*
X18607Y691D02*
X18864Y691D01*
X18765Y593D02*
X18457Y593D01*
X18514Y613D02*
X18514Y613D01*
X17575Y593D02*
X7446Y593D01*
X7476Y691D02*
X17426Y691D01*
X17519Y613D02*
X17519Y613D01*
X17308Y790D02*
X16717Y790D01*
X16581Y790D02*
X16481Y790D01*
X16481Y888D02*
X16581Y888D01*
X16581Y987D02*
X16481Y987D01*
X16481Y1085D02*
X16581Y1085D01*
X16581Y1184D02*
X16481Y1184D01*
X16581Y1282D02*
X17055Y1282D01*
X17043Y1184D02*
X17073Y1184D01*
X17110Y1085D02*
X17016Y1085D01*
X16964Y987D02*
X17167Y987D01*
X17223Y888D02*
X16879Y888D01*
X17254Y835D02*
X17254Y835D01*
X16581Y1381D02*
X16481Y1381D01*
X16481Y1479D02*
X16581Y1479D01*
X16581Y1578D02*
X16481Y1578D01*
X16481Y1676D02*
X16581Y1676D01*
X16581Y1775D02*
X16487Y1775D01*
X16487Y1873D02*
X16587Y1873D01*
X16587Y1972D02*
X16487Y1972D01*
X16487Y2070D02*
X16587Y2070D01*
X16587Y2169D02*
X16487Y2169D01*
X16487Y2267D02*
X16587Y2267D01*
X16587Y2366D02*
X17598Y2366D01*
X17436Y2267D02*
X17187Y2267D01*
X17187Y2169D02*
X17318Y2169D01*
X17228Y2070D02*
X17162Y2070D01*
X17171Y1972D02*
X17064Y1972D01*
X17115Y1873D02*
X16965Y1873D01*
X17081Y1815D02*
X17081Y1815D01*
X17074Y1775D02*
X16867Y1775D01*
X16866Y1676D02*
X17057Y1676D01*
X17039Y1578D02*
X16955Y1578D01*
X17012Y1479D02*
X17022Y1479D01*
X17021Y1475D02*
X17021Y1475D01*
X16099Y987D02*
X16039Y987D01*
X15963Y888D02*
X16184Y888D01*
X16346Y790D02*
X15865Y790D01*
X15588Y1873D02*
X15343Y1873D01*
X18490Y2957D02*
X19181Y2957D01*
X19181Y3055D02*
X18588Y3055D01*
X18687Y3154D02*
X19181Y3154D01*
X19181Y3252D02*
X18734Y3252D01*
X12128Y8079D02*
X11961Y8079D01*
X12128Y8177D02*
X11705Y8177D01*
X11450Y8276D02*
X12152Y8276D01*
X12193Y8374D02*
X11194Y8374D01*
X10939Y8473D02*
X12285Y8473D01*
X12470Y8571D02*
X10684Y8571D01*
X12128Y9064D02*
X7046Y9064D01*
X6948Y9162D02*
X12128Y9162D01*
X12146Y9261D02*
X6849Y9261D01*
X6751Y9359D02*
X12186Y9359D01*
X12270Y9458D02*
X6637Y9458D01*
X7145Y8965D02*
X12159Y8965D01*
X12204Y8867D02*
X7243Y8867D01*
X7342Y8768D02*
X12302Y8768D01*
X12686Y8571D02*
X12743Y8571D01*
X12743Y8670D02*
X7783Y8670D01*
X6620Y8670D02*
X6557Y8670D01*
X6094Y8177D02*
X5994Y8177D01*
X5100Y7500D02*
X5100Y6300D01*
X5700Y5700D01*
X5312Y5616D02*
X5137Y5616D01*
X6043Y6010D02*
X6542Y6010D01*
X6144Y5912D02*
X6088Y5912D01*
X6386Y5419D02*
X7213Y5419D01*
X7213Y5321D02*
X6288Y5321D01*
X6189Y5222D02*
X7183Y5222D01*
X7085Y5124D02*
X6091Y5124D01*
X6691Y4730D02*
X3890Y4730D01*
X3931Y4828D02*
X6789Y4828D01*
X6888Y4927D02*
X5079Y4927D01*
X5178Y5025D02*
X6986Y5025D01*
X6592Y4631D02*
X3829Y4631D01*
X3748Y4533D02*
X6494Y4533D01*
X6395Y4434D02*
X3910Y4434D01*
X4008Y4336D02*
X6297Y4336D01*
X6198Y4237D02*
X4067Y4237D01*
X4108Y4139D02*
X6100Y4139D01*
X6001Y4040D02*
X4138Y4040D01*
X4138Y3942D02*
X5903Y3942D01*
X5804Y3843D02*
X4138Y3843D01*
X4114Y3745D02*
X5706Y3745D01*
X5607Y3646D02*
X4073Y3646D01*
X4022Y3548D02*
X5101Y3548D01*
X4980Y3449D02*
X3923Y3449D01*
X4009Y3351D02*
X4890Y3351D01*
X4849Y3252D02*
X4067Y3252D01*
X4108Y3154D02*
X4809Y3154D01*
X4806Y3055D02*
X4138Y3055D01*
X4138Y2957D02*
X4806Y2957D01*
X4827Y2858D02*
X4138Y2858D01*
X4113Y2760D02*
X4868Y2760D01*
X4927Y2661D02*
X4072Y2661D01*
X4021Y2563D02*
X5026Y2563D01*
X5210Y2464D02*
X3923Y2464D01*
X2140Y3449D02*
X310Y3449D01*
X310Y3351D02*
X333Y3351D01*
X733Y3351D02*
X1317Y3351D01*
X1188Y3252D02*
X862Y3252D01*
X932Y3154D02*
X1118Y3154D01*
X1077Y3055D02*
X972Y3055D01*
X979Y2957D02*
X1071Y2957D01*
X1072Y2858D02*
X978Y2858D01*
X937Y2760D02*
X1113Y2760D01*
X1175Y2661D02*
X874Y2661D01*
X762Y2563D02*
X1287Y2563D01*
X2182Y790D02*
X6700Y790D01*
X6700Y691D02*
X2065Y691D01*
X1916Y593D02*
X6730Y593D01*
X7447Y2169D02*
X8001Y2169D01*
X7539Y2760D02*
X7444Y2760D01*
X4520Y4927D02*
X3932Y4927D01*
X3925Y5025D02*
X4422Y5025D01*
X6785Y5518D02*
X7213Y5518D01*
X7213Y5616D02*
X6883Y5616D01*
X4840Y6503D02*
X4024Y6503D01*
X4074Y6601D02*
X4840Y6601D01*
X4840Y6700D02*
X4114Y6700D01*
X4138Y6798D02*
X4840Y6798D01*
X4840Y6897D02*
X4138Y6897D01*
X4138Y6995D02*
X4840Y6995D01*
X4840Y7094D02*
X4107Y7094D01*
X4066Y7192D02*
X4840Y7192D01*
X4840Y7291D02*
X4006Y7291D01*
X3907Y7389D02*
X4840Y7389D01*
X4745Y7488D02*
X3743Y7488D01*
X4351Y7882D02*
X2324Y7882D01*
X2380Y7980D02*
X4252Y7980D01*
X4449Y7783D02*
X2267Y7783D01*
X2181Y7685D02*
X4548Y7685D01*
X4646Y7586D02*
X2064Y7586D01*
X2410Y8031D02*
X2410Y8031D01*
X2418Y8079D02*
X2508Y8079D01*
X2464Y8177D02*
X2435Y8177D01*
X2453Y8276D02*
X2464Y8276D01*
X2452Y8473D02*
X2464Y8473D01*
X2464Y8571D02*
X2434Y8571D01*
X2417Y8670D02*
X2464Y8670D01*
X2464Y8768D02*
X2377Y8768D01*
X2320Y8867D02*
X2464Y8867D01*
X2464Y8965D02*
X2263Y8965D01*
X2237Y9011D02*
X2237Y9011D01*
X2174Y9064D02*
X2492Y9064D01*
X2056Y9162D02*
X3256Y9162D01*
X3354Y9261D02*
X1896Y9261D01*
X1972Y9233D02*
X1972Y9233D01*
X1054Y9261D02*
X733Y9261D01*
X634Y9162D02*
X893Y9162D01*
X775Y9064D02*
X542Y9064D01*
X485Y8965D02*
X686Y8965D01*
X712Y9011D02*
X712Y9011D01*
X629Y8867D02*
X429Y8867D01*
X386Y8768D02*
X572Y8768D01*
X532Y8670D02*
X360Y8670D01*
X333Y8571D02*
X515Y8571D01*
X497Y8473D02*
X317Y8473D01*
X310Y8374D02*
X480Y8374D01*
X479Y8371D02*
X479Y8371D01*
X496Y8276D02*
X310Y8276D01*
X310Y8177D02*
X514Y8177D01*
X531Y8079D02*
X310Y8079D01*
X310Y7980D02*
X569Y7980D01*
X625Y7882D02*
X310Y7882D01*
X310Y7783D02*
X682Y7783D01*
X712Y7731D02*
X712Y7731D01*
X768Y7685D02*
X310Y7685D01*
X310Y7586D02*
X885Y7586D01*
X977Y7509D02*
X977Y7509D01*
X1036Y7488D02*
X310Y7488D01*
X879Y9359D02*
X3452Y9359D01*
X3457Y9364D02*
X3457Y9364D01*
X3538Y9446D02*
X3538Y9446D01*
X3567Y9458D02*
X1071Y9458D01*
X3645Y9490D02*
X3645Y9490D01*
X4044Y8579D02*
X4044Y8555D01*
X5100Y7500D01*
X3737Y8079D02*
X3581Y8079D01*
X3624Y8177D02*
X3626Y8177D01*
X16889Y9458D02*
X18420Y9458D01*
D23*
X16537Y7482D02*
X12703Y7482D01*
X10588Y8297D01*
X7503Y8297D01*
X7503Y5132D01*
X5400Y3029D01*
X7403Y8297D02*
X6501Y9199D01*
X6501Y9200D01*
X3703Y9200D01*
X3085Y8579D01*
X3044Y8579D01*
X7403Y8297D02*
X7503Y8297D01*
X15586Y6080D02*
X15586Y3521D01*
X16537Y4125D02*
X17196Y3465D01*
X17196Y3399D01*
X17214Y3416D01*
X16537Y4125D02*
X16537Y7482D01*
D24*
X1475Y10140D02*
X1478Y10140D01*
X18013Y10140D01*
X18016Y10140D01*
X17366Y11515D02*
X17368Y11565D01*
X17374Y11615D01*
X17384Y11665D01*
X17397Y11713D01*
X17414Y11761D01*
X17435Y11807D01*
X17459Y11851D01*
X17487Y11893D01*
X17518Y11933D01*
X17552Y11970D01*
X17589Y12005D01*
X17628Y12036D01*
X17669Y12065D01*
X17713Y12090D01*
X17759Y12112D01*
X17806Y12130D01*
X17854Y12144D01*
X17903Y12155D01*
X17953Y12162D01*
X18003Y12165D01*
X18054Y12164D01*
X18104Y12159D01*
X18154Y12150D01*
X18202Y12138D01*
X18250Y12121D01*
X18296Y12101D01*
X18341Y12078D01*
X18384Y12051D01*
X18424Y12021D01*
X18462Y11988D01*
X18497Y11952D01*
X18530Y11913D01*
X18559Y11872D01*
X18585Y11829D01*
X18608Y11784D01*
X18627Y11737D01*
X18642Y11689D01*
X18654Y11640D01*
X18662Y11590D01*
X18666Y11540D01*
X18666Y11490D01*
X18662Y11440D01*
X18654Y11390D01*
X18642Y11341D01*
X18627Y11293D01*
X18608Y11246D01*
X18585Y11201D01*
X18559Y11158D01*
X18530Y11117D01*
X18497Y11078D01*
X18462Y11042D01*
X18424Y11009D01*
X18384Y10979D01*
X18341Y10952D01*
X18296Y10929D01*
X18250Y10909D01*
X18202Y10892D01*
X18154Y10880D01*
X18104Y10871D01*
X18054Y10866D01*
X18003Y10865D01*
X17953Y10868D01*
X17903Y10875D01*
X17854Y10886D01*
X17806Y10900D01*
X17759Y10918D01*
X17713Y10940D01*
X17669Y10965D01*
X17628Y10994D01*
X17589Y11025D01*
X17552Y11060D01*
X17518Y11097D01*
X17487Y11137D01*
X17459Y11179D01*
X17435Y11223D01*
X17414Y11269D01*
X17397Y11317D01*
X17384Y11365D01*
X17374Y11415D01*
X17368Y11465D01*
X17366Y11515D01*
X18013Y10140D02*
X18085Y10142D01*
X18157Y10148D01*
X18229Y10157D01*
X18300Y10170D01*
X18370Y10187D01*
X18439Y10207D01*
X18507Y10232D01*
X18573Y10259D01*
X18639Y10290D01*
X18702Y10325D01*
X18764Y10362D01*
X18823Y10403D01*
X18880Y10447D01*
X18935Y10494D01*
X18987Y10544D01*
X19037Y10596D01*
X19084Y10651D01*
X19128Y10708D01*
X19169Y10767D01*
X19206Y10829D01*
X19241Y10892D01*
X19272Y10958D01*
X19299Y11024D01*
X19324Y11092D01*
X19344Y11161D01*
X19361Y11231D01*
X19374Y11302D01*
X19383Y11374D01*
X19389Y11446D01*
X19391Y11518D01*
X19391Y18408D01*
X17363Y18408D02*
X17365Y18458D01*
X17371Y18508D01*
X17381Y18558D01*
X17394Y18606D01*
X17411Y18654D01*
X17432Y18700D01*
X17456Y18744D01*
X17484Y18786D01*
X17515Y18826D01*
X17549Y18863D01*
X17586Y18898D01*
X17625Y18929D01*
X17666Y18958D01*
X17710Y18983D01*
X17756Y19005D01*
X17803Y19023D01*
X17851Y19037D01*
X17900Y19048D01*
X17950Y19055D01*
X18000Y19058D01*
X18051Y19057D01*
X18101Y19052D01*
X18151Y19043D01*
X18199Y19031D01*
X18247Y19014D01*
X18293Y18994D01*
X18338Y18971D01*
X18381Y18944D01*
X18421Y18914D01*
X18459Y18881D01*
X18494Y18845D01*
X18527Y18806D01*
X18556Y18765D01*
X18582Y18722D01*
X18605Y18677D01*
X18624Y18630D01*
X18639Y18582D01*
X18651Y18533D01*
X18659Y18483D01*
X18663Y18433D01*
X18663Y18383D01*
X18659Y18333D01*
X18651Y18283D01*
X18639Y18234D01*
X18624Y18186D01*
X18605Y18139D01*
X18582Y18094D01*
X18556Y18051D01*
X18527Y18010D01*
X18494Y17971D01*
X18459Y17935D01*
X18421Y17902D01*
X18381Y17872D01*
X18338Y17845D01*
X18293Y17822D01*
X18247Y17802D01*
X18199Y17785D01*
X18151Y17773D01*
X18101Y17764D01*
X18051Y17759D01*
X18000Y17758D01*
X17950Y17761D01*
X17900Y17768D01*
X17851Y17779D01*
X17803Y17793D01*
X17756Y17811D01*
X17710Y17833D01*
X17666Y17858D01*
X17625Y17887D01*
X17586Y17918D01*
X17549Y17953D01*
X17515Y17990D01*
X17484Y18030D01*
X17456Y18072D01*
X17432Y18116D01*
X17411Y18162D01*
X17394Y18210D01*
X17381Y18258D01*
X17371Y18308D01*
X17365Y18358D01*
X17363Y18408D01*
X18013Y19786D02*
X18085Y19784D01*
X18157Y19778D01*
X18229Y19769D01*
X18300Y19756D01*
X18370Y19739D01*
X18439Y19719D01*
X18507Y19694D01*
X18573Y19667D01*
X18639Y19636D01*
X18702Y19601D01*
X18764Y19564D01*
X18823Y19523D01*
X18880Y19479D01*
X18935Y19432D01*
X18987Y19382D01*
X19037Y19330D01*
X19084Y19275D01*
X19128Y19218D01*
X19169Y19159D01*
X19206Y19097D01*
X19241Y19034D01*
X19272Y18968D01*
X19299Y18902D01*
X19324Y18834D01*
X19344Y18765D01*
X19361Y18695D01*
X19374Y18624D01*
X19383Y18552D01*
X19389Y18480D01*
X19391Y18408D01*
X18013Y19786D02*
X1478Y19786D01*
X825Y18411D02*
X827Y18461D01*
X833Y18511D01*
X843Y18561D01*
X856Y18609D01*
X873Y18657D01*
X894Y18703D01*
X918Y18747D01*
X946Y18789D01*
X977Y18829D01*
X1011Y18866D01*
X1048Y18901D01*
X1087Y18932D01*
X1128Y18961D01*
X1172Y18986D01*
X1218Y19008D01*
X1265Y19026D01*
X1313Y19040D01*
X1362Y19051D01*
X1412Y19058D01*
X1462Y19061D01*
X1513Y19060D01*
X1563Y19055D01*
X1613Y19046D01*
X1661Y19034D01*
X1709Y19017D01*
X1755Y18997D01*
X1800Y18974D01*
X1843Y18947D01*
X1883Y18917D01*
X1921Y18884D01*
X1956Y18848D01*
X1989Y18809D01*
X2018Y18768D01*
X2044Y18725D01*
X2067Y18680D01*
X2086Y18633D01*
X2101Y18585D01*
X2113Y18536D01*
X2121Y18486D01*
X2125Y18436D01*
X2125Y18386D01*
X2121Y18336D01*
X2113Y18286D01*
X2101Y18237D01*
X2086Y18189D01*
X2067Y18142D01*
X2044Y18097D01*
X2018Y18054D01*
X1989Y18013D01*
X1956Y17974D01*
X1921Y17938D01*
X1883Y17905D01*
X1843Y17875D01*
X1800Y17848D01*
X1755Y17825D01*
X1709Y17805D01*
X1661Y17788D01*
X1613Y17776D01*
X1563Y17767D01*
X1513Y17762D01*
X1462Y17761D01*
X1412Y17764D01*
X1362Y17771D01*
X1313Y17782D01*
X1265Y17796D01*
X1218Y17814D01*
X1172Y17836D01*
X1128Y17861D01*
X1087Y17890D01*
X1048Y17921D01*
X1011Y17956D01*
X977Y17993D01*
X946Y18033D01*
X918Y18075D01*
X894Y18119D01*
X873Y18165D01*
X856Y18213D01*
X843Y18261D01*
X833Y18311D01*
X827Y18361D01*
X825Y18411D01*
X100Y18408D02*
X102Y18480D01*
X108Y18552D01*
X117Y18624D01*
X130Y18695D01*
X147Y18765D01*
X167Y18834D01*
X192Y18902D01*
X219Y18968D01*
X250Y19034D01*
X285Y19097D01*
X322Y19159D01*
X363Y19218D01*
X407Y19275D01*
X454Y19330D01*
X504Y19382D01*
X556Y19432D01*
X611Y19479D01*
X668Y19523D01*
X727Y19564D01*
X789Y19601D01*
X852Y19636D01*
X918Y19667D01*
X984Y19694D01*
X1052Y19719D01*
X1121Y19739D01*
X1191Y19756D01*
X1262Y19769D01*
X1334Y19778D01*
X1406Y19784D01*
X1478Y19786D01*
X100Y18411D02*
X100Y18408D01*
X100Y11558D01*
X100Y11515D01*
X825Y11515D02*
X827Y11565D01*
X833Y11615D01*
X843Y11665D01*
X856Y11713D01*
X873Y11761D01*
X894Y11807D01*
X918Y11851D01*
X946Y11893D01*
X977Y11933D01*
X1011Y11970D01*
X1048Y12005D01*
X1087Y12036D01*
X1128Y12065D01*
X1172Y12090D01*
X1218Y12112D01*
X1265Y12130D01*
X1313Y12144D01*
X1362Y12155D01*
X1412Y12162D01*
X1462Y12165D01*
X1513Y12164D01*
X1563Y12159D01*
X1613Y12150D01*
X1661Y12138D01*
X1709Y12121D01*
X1755Y12101D01*
X1800Y12078D01*
X1843Y12051D01*
X1883Y12021D01*
X1921Y11988D01*
X1956Y11952D01*
X1989Y11913D01*
X2018Y11872D01*
X2044Y11829D01*
X2067Y11784D01*
X2086Y11737D01*
X2101Y11689D01*
X2113Y11640D01*
X2121Y11590D01*
X2125Y11540D01*
X2125Y11490D01*
X2121Y11440D01*
X2113Y11390D01*
X2101Y11341D01*
X2086Y11293D01*
X2067Y11246D01*
X2044Y11201D01*
X2018Y11158D01*
X1989Y11117D01*
X1956Y11078D01*
X1921Y11042D01*
X1883Y11009D01*
X1843Y10979D01*
X1800Y10952D01*
X1755Y10929D01*
X1709Y10909D01*
X1661Y10892D01*
X1613Y10880D01*
X1563Y10871D01*
X1513Y10866D01*
X1462Y10865D01*
X1412Y10868D01*
X1362Y10875D01*
X1313Y10886D01*
X1265Y10900D01*
X1218Y10918D01*
X1172Y10940D01*
X1128Y10965D01*
X1087Y10994D01*
X1048Y11025D01*
X1011Y11060D01*
X977Y11097D01*
X946Y11137D01*
X918Y11179D01*
X894Y11223D01*
X873Y11269D01*
X856Y11317D01*
X843Y11365D01*
X833Y11415D01*
X827Y11465D01*
X825Y11515D01*
X99Y11558D02*
X100Y11485D01*
X105Y11411D01*
X113Y11339D01*
X126Y11267D01*
X142Y11195D01*
X161Y11125D01*
X185Y11055D01*
X212Y10987D01*
X243Y10921D01*
X277Y10856D01*
X314Y10793D01*
X355Y10732D01*
X398Y10674D01*
X445Y10617D01*
X495Y10563D01*
X547Y10512D01*
X602Y10464D01*
X659Y10419D01*
X719Y10376D01*
X781Y10337D01*
X845Y10301D01*
X910Y10269D01*
X978Y10240D01*
X1046Y10215D01*
X1116Y10193D01*
X1187Y10175D01*
X1259Y10160D01*
X1331Y10150D01*
X1404Y10143D01*
X1477Y10140D01*
X1281Y12991D02*
X1283Y13021D01*
X1289Y13051D01*
X1298Y13080D01*
X1311Y13107D01*
X1328Y13132D01*
X1347Y13155D01*
X1370Y13176D01*
X1395Y13193D01*
X1421Y13207D01*
X1450Y13217D01*
X1479Y13224D01*
X1509Y13227D01*
X1540Y13226D01*
X1570Y13221D01*
X1599Y13212D01*
X1626Y13200D01*
X1652Y13185D01*
X1676Y13166D01*
X1697Y13144D01*
X1715Y13120D01*
X1730Y13093D01*
X1741Y13065D01*
X1749Y13036D01*
X1753Y13006D01*
X1753Y12976D01*
X1749Y12946D01*
X1741Y12917D01*
X1730Y12889D01*
X1715Y12862D01*
X1697Y12838D01*
X1676Y12816D01*
X1652Y12797D01*
X1626Y12782D01*
X1599Y12770D01*
X1570Y12761D01*
X1540Y12756D01*
X1509Y12755D01*
X1479Y12758D01*
X1450Y12765D01*
X1421Y12775D01*
X1395Y12789D01*
X1370Y12806D01*
X1347Y12827D01*
X1328Y12850D01*
X1311Y12875D01*
X1298Y12902D01*
X1289Y12931D01*
X1283Y12961D01*
X1281Y12991D01*
X297Y12991D02*
X299Y13021D01*
X305Y13051D01*
X314Y13080D01*
X327Y13107D01*
X344Y13132D01*
X363Y13155D01*
X386Y13176D01*
X411Y13193D01*
X437Y13207D01*
X466Y13217D01*
X495Y13224D01*
X525Y13227D01*
X556Y13226D01*
X586Y13221D01*
X615Y13212D01*
X642Y13200D01*
X668Y13185D01*
X692Y13166D01*
X713Y13144D01*
X731Y13120D01*
X746Y13093D01*
X757Y13065D01*
X765Y13036D01*
X769Y13006D01*
X769Y12976D01*
X765Y12946D01*
X757Y12917D01*
X746Y12889D01*
X731Y12862D01*
X713Y12838D01*
X692Y12816D01*
X668Y12797D01*
X642Y12782D01*
X615Y12770D01*
X586Y12761D01*
X556Y12756D01*
X525Y12755D01*
X495Y12758D01*
X466Y12765D01*
X437Y12775D01*
X411Y12789D01*
X386Y12806D01*
X363Y12827D01*
X344Y12850D01*
X327Y12875D01*
X314Y12902D01*
X305Y12931D01*
X299Y12961D01*
X297Y12991D01*
X3250Y14959D02*
X3252Y14989D01*
X3258Y15019D01*
X3267Y15048D01*
X3280Y15075D01*
X3297Y15100D01*
X3316Y15123D01*
X3339Y15144D01*
X3364Y15161D01*
X3390Y15175D01*
X3419Y15185D01*
X3448Y15192D01*
X3478Y15195D01*
X3509Y15194D01*
X3539Y15189D01*
X3568Y15180D01*
X3595Y15168D01*
X3621Y15153D01*
X3645Y15134D01*
X3666Y15112D01*
X3684Y15088D01*
X3699Y15061D01*
X3710Y15033D01*
X3718Y15004D01*
X3722Y14974D01*
X3722Y14944D01*
X3718Y14914D01*
X3710Y14885D01*
X3699Y14857D01*
X3684Y14830D01*
X3666Y14806D01*
X3645Y14784D01*
X3621Y14765D01*
X3595Y14750D01*
X3568Y14738D01*
X3539Y14729D01*
X3509Y14724D01*
X3478Y14723D01*
X3448Y14726D01*
X3419Y14733D01*
X3390Y14743D01*
X3364Y14757D01*
X3339Y14774D01*
X3316Y14795D01*
X3297Y14818D01*
X3280Y14843D01*
X3267Y14870D01*
X3258Y14899D01*
X3252Y14929D01*
X3250Y14959D01*
X1281Y16928D02*
X1283Y16958D01*
X1289Y16988D01*
X1298Y17017D01*
X1311Y17044D01*
X1328Y17069D01*
X1347Y17092D01*
X1370Y17113D01*
X1395Y17130D01*
X1421Y17144D01*
X1450Y17154D01*
X1479Y17161D01*
X1509Y17164D01*
X1540Y17163D01*
X1570Y17158D01*
X1599Y17149D01*
X1626Y17137D01*
X1652Y17122D01*
X1676Y17103D01*
X1697Y17081D01*
X1715Y17057D01*
X1730Y17030D01*
X1741Y17002D01*
X1749Y16973D01*
X1753Y16943D01*
X1753Y16913D01*
X1749Y16883D01*
X1741Y16854D01*
X1730Y16826D01*
X1715Y16799D01*
X1697Y16775D01*
X1676Y16753D01*
X1652Y16734D01*
X1626Y16719D01*
X1599Y16707D01*
X1570Y16698D01*
X1540Y16693D01*
X1509Y16692D01*
X1479Y16695D01*
X1450Y16702D01*
X1421Y16712D01*
X1395Y16726D01*
X1370Y16743D01*
X1347Y16764D01*
X1328Y16787D01*
X1311Y16812D01*
X1298Y16839D01*
X1289Y16868D01*
X1283Y16898D01*
X1281Y16928D01*
X297Y16928D02*
X299Y16958D01*
X305Y16988D01*
X314Y17017D01*
X327Y17044D01*
X344Y17069D01*
X363Y17092D01*
X386Y17113D01*
X411Y17130D01*
X437Y17144D01*
X466Y17154D01*
X495Y17161D01*
X525Y17164D01*
X556Y17163D01*
X586Y17158D01*
X615Y17149D01*
X642Y17137D01*
X668Y17122D01*
X692Y17103D01*
X713Y17081D01*
X731Y17057D01*
X746Y17030D01*
X757Y17002D01*
X765Y16973D01*
X769Y16943D01*
X769Y16913D01*
X765Y16883D01*
X757Y16854D01*
X746Y16826D01*
X731Y16799D01*
X713Y16775D01*
X692Y16753D01*
X668Y16734D01*
X642Y16719D01*
X615Y16707D01*
X586Y16698D01*
X556Y16693D01*
X525Y16692D01*
X495Y16695D01*
X466Y16702D01*
X437Y16712D01*
X411Y16726D01*
X386Y16743D01*
X363Y16764D01*
X344Y16787D01*
X327Y16812D01*
X314Y16839D01*
X305Y16868D01*
X299Y16898D01*
X297Y16928D01*
D25*
X3486Y16928D03*
X3486Y15943D03*
X1517Y14959D03*
X3486Y13975D03*
X3486Y12991D03*
D26*
X17214Y13456D03*
X18214Y13456D03*
X18214Y14456D03*
X17214Y14456D03*
X17214Y15456D03*
X18214Y15456D03*
X18214Y16456D03*
X17214Y16456D03*
D27*
X12219Y17006D03*
X5400Y13069D03*
D28*
X12578Y18169D03*
X12578Y19169D03*
D29*
X3044Y18619D03*
D30*
X4044Y18619D03*
X5044Y18619D03*
X6044Y18619D03*
X2520Y15930D03*
X2520Y14930D03*
X2520Y13930D03*
X11531Y11316D03*
X12531Y11316D03*
X13531Y11316D03*
X14531Y11316D03*
X15531Y11316D03*
X16531Y11316D03*
D31*
X15586Y13265D02*
X15586Y13856D01*
X13814Y13856D02*
X13814Y13265D01*
X13814Y15824D02*
X13814Y16415D01*
X15586Y16415D02*
X15586Y15824D01*
D32*
X16537Y17522D03*
X16537Y12404D03*
D33*
X15600Y13546D02*
X15586Y13561D01*
X13814Y13561D02*
X13814Y16120D01*
X4800Y15340D02*
X3300Y15340D01*
X2890Y14930D01*
X2520Y14930D01*
D34*
X4800Y15340D03*
X5700Y15740D03*
X6550Y15340D03*
X7000Y16140D03*
X8600Y15840D03*
X9100Y15140D03*
X9500Y14640D03*
X10500Y13740D03*
X11100Y13740D03*
X12637Y14846D03*
X12295Y15643D03*
X11993Y16234D03*
X10950Y16490D03*
X9500Y16540D03*
X8700Y16540D03*
X7503Y18337D03*
X9500Y19190D03*
X12100Y18635D03*
X14800Y16740D03*
X14400Y15390D03*
X15584Y14975D03*
X16122Y14964D03*
X14200Y14440D03*
X16470Y13498D03*
X17356Y12711D03*
X15486Y12022D03*
X14954Y12042D03*
X14306Y12040D03*
X14962Y12896D03*
X11123Y12010D03*
X8454Y11669D03*
X7088Y10928D03*
X7088Y12502D03*
X7927Y12896D03*
X7925Y13437D03*
X6600Y13290D03*
X2287Y12953D03*
X1000Y13440D03*
X1000Y16440D03*
X17356Y17239D03*
D35*
X1027Y10447D02*
X761Y10606D01*
X545Y10828D01*
X394Y11099D01*
X318Y11399D01*
X310Y11554D01*
X310Y11556D01*
X311Y11642D01*
X310Y11643D01*
X310Y12600D01*
X444Y12544D01*
X622Y12544D01*
X786Y12612D01*
X911Y12738D01*
X979Y12902D01*
X979Y13079D01*
X911Y13243D01*
X786Y13369D01*
X622Y13437D01*
X444Y13437D01*
X310Y13381D01*
X310Y16537D01*
X444Y16481D01*
X622Y16481D01*
X786Y16549D01*
X911Y16675D01*
X979Y16839D01*
X979Y17016D01*
X911Y17180D01*
X786Y17306D01*
X622Y17374D01*
X444Y17374D01*
X310Y17318D01*
X310Y18408D01*
X320Y18560D01*
X399Y18855D01*
X551Y19119D01*
X767Y19335D01*
X1031Y19487D01*
X1325Y19566D01*
X1478Y19576D01*
X12385Y19576D01*
X12323Y19550D01*
X12197Y19424D01*
X12128Y19258D01*
X12128Y19079D01*
X12197Y18914D01*
X12323Y18787D01*
X12489Y18719D01*
X12668Y18719D01*
X12743Y18750D01*
X12743Y18588D01*
X12668Y18619D01*
X12489Y18619D01*
X12323Y18550D01*
X12197Y18424D01*
X12128Y18258D01*
X12128Y18079D01*
X12140Y18050D01*
X10696Y18606D01*
X10646Y18627D01*
X10642Y18627D01*
X10638Y18628D01*
X10584Y18627D01*
X7866Y18627D01*
X7768Y18725D01*
X7425Y18725D01*
X6748Y19402D01*
X6747Y19404D01*
X6666Y19486D01*
X6559Y19530D01*
X3760Y19530D01*
X3760Y19530D01*
X3703Y19530D01*
X3645Y19530D01*
X3644Y19530D01*
X3592Y19508D01*
X3539Y19486D01*
X3538Y19486D01*
X3498Y19445D01*
X3457Y19404D01*
X3253Y19199D01*
X2587Y19199D01*
X2464Y19076D01*
X2464Y18441D01*
X2410Y18751D01*
X2410Y18751D01*
X2237Y19051D01*
X1972Y19273D01*
X1647Y19391D01*
X1302Y19391D01*
X977Y19273D01*
X977Y19273D01*
X712Y19051D01*
X539Y18751D01*
X479Y18411D01*
X539Y18071D01*
X539Y18071D01*
X712Y17771D01*
X977Y17549D01*
X1302Y17431D01*
X1647Y17431D01*
X1972Y17549D01*
X1972Y17549D01*
X2237Y17771D01*
X2237Y17771D01*
X2237Y17771D01*
X2410Y18071D01*
X2464Y18382D01*
X2464Y18162D01*
X2587Y18039D01*
X3501Y18039D01*
X3624Y18162D01*
X3624Y18219D01*
X3716Y18128D01*
X3929Y18039D01*
X4160Y18039D01*
X4211Y18061D01*
X4840Y17432D01*
X4840Y16288D01*
X4879Y16193D01*
X5312Y15761D01*
X5312Y15600D01*
X5188Y15600D01*
X5188Y15605D01*
X5065Y15728D01*
X4535Y15728D01*
X4417Y15610D01*
X4054Y15610D01*
X4138Y15813D01*
X4138Y16073D01*
X4039Y16313D01*
X3917Y16435D01*
X4039Y16558D01*
X4138Y16798D01*
X4138Y17057D01*
X4039Y17297D01*
X3855Y17481D01*
X3615Y17581D01*
X3356Y17581D01*
X3116Y17481D01*
X2932Y17297D01*
X2833Y17057D01*
X2833Y16798D01*
X2932Y16558D01*
X3054Y16435D01*
X2932Y16313D01*
X2914Y16271D01*
X2858Y16327D01*
X2792Y16375D01*
X2719Y16412D01*
X2641Y16437D01*
X2570Y16449D01*
X2570Y15980D01*
X2470Y15980D01*
X2470Y16449D01*
X2398Y16437D01*
X2320Y16412D01*
X2247Y16375D01*
X2181Y16327D01*
X2123Y16269D01*
X2075Y16203D01*
X2038Y16130D01*
X2013Y16052D01*
X2001Y15980D01*
X2470Y15980D01*
X2470Y15880D01*
X2001Y15880D01*
X2013Y15808D01*
X2038Y15731D01*
X2075Y15658D01*
X2123Y15591D01*
X2181Y15534D01*
X2247Y15485D01*
X2291Y15463D01*
X2191Y15422D01*
X2029Y15260D01*
X2024Y15270D01*
X1969Y15345D01*
X1903Y15411D01*
X1828Y15466D01*
X1745Y15509D01*
X1656Y15537D01*
X1567Y15551D01*
X1567Y15009D01*
X1467Y15009D01*
X1467Y14909D01*
X1567Y14909D01*
X1567Y14367D01*
X1656Y14381D01*
X1745Y14410D01*
X1828Y14452D01*
X1903Y14507D01*
X1969Y14573D01*
X2057Y14573D01*
X2028Y14602D02*
X2191Y14438D01*
X2211Y14430D01*
X2191Y14422D01*
X2028Y14259D01*
X1940Y14046D01*
X1940Y13815D01*
X2028Y13602D01*
X2191Y13438D01*
X2404Y13350D01*
X2635Y13350D01*
X2848Y13438D01*
X2973Y13564D01*
X3054Y13483D01*
X2932Y13360D01*
X2833Y13120D01*
X2833Y12861D01*
X2932Y12621D01*
X3116Y12437D01*
X3356Y12338D01*
X3615Y12338D01*
X3855Y12437D01*
X4039Y12621D01*
X4138Y12861D01*
X4138Y13120D01*
X4039Y13360D01*
X3917Y13483D01*
X4039Y13605D01*
X4138Y13845D01*
X4138Y14105D01*
X4039Y14345D01*
X3855Y14528D01*
X3734Y14579D01*
X3738Y14581D01*
X3864Y14706D01*
X3932Y14870D01*
X3932Y15048D01*
X3923Y15070D01*
X4417Y15070D01*
X4535Y14952D01*
X5065Y14952D01*
X5188Y15075D01*
X5188Y15080D01*
X5951Y15080D01*
X6047Y15120D01*
X6120Y15193D01*
X6407Y15480D01*
X6651Y15480D01*
X6747Y15520D01*
X6820Y15593D01*
X6979Y15752D01*
X7213Y15752D01*
X7213Y15292D01*
X5564Y13643D01*
X5518Y13662D01*
X5281Y13662D01*
X5063Y13572D01*
X4896Y13405D01*
X4806Y13187D01*
X4806Y12950D01*
X4896Y12732D01*
X5063Y12565D01*
X5281Y12475D01*
X5518Y12475D01*
X5736Y12565D01*
X5903Y12732D01*
X5993Y12950D01*
X5993Y13187D01*
X5974Y13233D01*
X7749Y15008D01*
X7793Y15114D01*
X7793Y17974D01*
X7866Y18047D01*
X10534Y18047D01*
X12002Y17482D01*
X12237Y17074D01*
X12566Y17264D01*
X12595Y17253D01*
X12645Y17232D01*
X12649Y17232D01*
X12652Y17231D01*
X12706Y17232D01*
X12988Y17232D01*
X12543Y16494D01*
X12382Y16494D01*
X12382Y16497D01*
X12424Y16511D01*
X12441Y16520D01*
X12200Y16937D01*
X11783Y16696D01*
X11811Y16658D01*
X11847Y16622D01*
X11728Y16622D01*
X11605Y16499D01*
X11605Y15969D01*
X11728Y15846D01*
X12259Y15846D01*
X12382Y15969D01*
X12382Y15974D01*
X12670Y15974D01*
X12702Y15969D01*
X12721Y15974D01*
X12741Y15974D01*
X12771Y15986D01*
X12802Y15994D01*
X12818Y16006D01*
X12837Y16013D01*
X12860Y16036D01*
X12885Y16055D01*
X12896Y16072D01*
X12910Y16087D01*
X12922Y16116D01*
X13435Y16967D01*
X14412Y16967D01*
X14412Y16475D01*
X14535Y16352D01*
X14540Y16352D01*
X14540Y14248D01*
X14379Y14087D01*
X14340Y13992D01*
X14340Y12444D01*
X14324Y12428D01*
X14041Y12428D01*
X13918Y12305D01*
X13918Y12142D01*
X12958Y13102D01*
X12958Y14129D01*
X12919Y14224D01*
X12845Y14298D01*
X11882Y15261D01*
X11787Y15300D01*
X10407Y15300D01*
X9088Y16620D01*
X9088Y16805D01*
X8965Y16928D01*
X8435Y16928D01*
X8312Y16805D01*
X8312Y16275D01*
X8358Y16228D01*
X8335Y16228D01*
X8212Y16105D01*
X8212Y15575D01*
X8335Y15452D01*
X8758Y15452D01*
X8712Y15405D01*
X8712Y14875D01*
X8835Y14752D01*
X8840Y14752D01*
X8840Y14288D01*
X8879Y14193D01*
X8928Y14144D01*
X8034Y13284D01*
X7662Y13284D01*
X7539Y13161D01*
X7539Y12762D01*
X7476Y12762D01*
X7476Y12767D01*
X7353Y12891D01*
X6823Y12891D01*
X6700Y12767D01*
X6700Y12237D01*
X6823Y12114D01*
X7353Y12114D01*
X7476Y12237D01*
X7476Y12242D01*
X8035Y12242D01*
X7108Y11316D01*
X6823Y11316D01*
X6700Y11193D01*
X6700Y10662D01*
X6823Y10539D01*
X7353Y10539D01*
X7476Y10662D01*
X7476Y10948D01*
X9558Y13030D01*
X10781Y13030D01*
X10877Y13069D01*
X10950Y13143D01*
X11160Y13352D01*
X11279Y13352D01*
X11279Y11840D01*
X11203Y11808D01*
X11040Y11645D01*
X10951Y11432D01*
X10951Y11201D01*
X11040Y10988D01*
X11203Y10825D01*
X11416Y10736D01*
X11647Y10736D01*
X11860Y10825D01*
X12023Y10988D01*
X12031Y11008D01*
X12040Y10988D01*
X12203Y10825D01*
X12416Y10736D01*
X12647Y10736D01*
X12860Y10825D01*
X13023Y10988D01*
X13031Y11008D01*
X13040Y10988D01*
X13203Y10825D01*
X13416Y10736D01*
X13647Y10736D01*
X13860Y10825D01*
X14023Y10988D01*
X14031Y11008D01*
X14040Y10988D01*
X14203Y10825D01*
X14416Y10736D01*
X14647Y10736D01*
X14860Y10825D01*
X15023Y10988D01*
X15031Y11008D01*
X15040Y10988D01*
X15203Y10825D01*
X15416Y10736D01*
X15647Y10736D01*
X15860Y10825D01*
X16023Y10988D01*
X16064Y11087D01*
X16087Y11044D01*
X16135Y10977D01*
X16193Y10920D01*
X16259Y10872D01*
X16332Y10834D01*
X16410Y10809D01*
X16481Y10798D01*
X16481Y11266D01*
X16581Y11266D01*
X16581Y10798D01*
X16653Y10809D01*
X16731Y10834D01*
X16804Y10872D01*
X16870Y10920D01*
X16928Y10977D01*
X16976Y11044D01*
X17013Y11117D01*
X17039Y11194D01*
X17050Y11266D01*
X16581Y11266D01*
X16581Y11366D01*
X16481Y11366D01*
X16481Y11754D01*
X16487Y11754D01*
X16487Y12354D01*
X16587Y12354D01*
X16587Y12454D01*
X17187Y12454D01*
X17187Y12673D01*
X16984Y12876D01*
X17454Y12876D01*
X17756Y13179D01*
X17999Y12936D01*
X18164Y12936D01*
X18164Y13406D01*
X18264Y13406D01*
X18264Y12936D01*
X18429Y12936D01*
X18734Y13241D01*
X18734Y13406D01*
X18264Y13406D01*
X18264Y13506D01*
X18734Y13506D01*
X18734Y13672D01*
X18492Y13914D01*
X18794Y14216D01*
X18794Y14697D01*
X18534Y14956D01*
X18794Y15216D01*
X18794Y15697D01*
X18534Y15956D01*
X18794Y16216D01*
X18794Y16697D01*
X18454Y17036D01*
X17974Y17036D01*
X17714Y16777D01*
X17454Y17036D01*
X17055Y17036D01*
X17247Y17228D01*
X17247Y17775D01*
X17251Y17768D01*
X17516Y17546D01*
X17840Y17428D01*
X18186Y17428D01*
X18511Y17546D01*
X18775Y17768D01*
X18775Y17768D01*
X18775Y17768D01*
X18948Y18068D01*
X19008Y18408D01*
X18948Y18748D01*
X18775Y19048D01*
X18511Y19270D01*
X18511Y19270D01*
X18186Y19388D01*
X17840Y19388D01*
X17516Y19270D01*
X17516Y19270D01*
X17251Y19048D01*
X17251Y19048D01*
X17251Y19048D01*
X17078Y18748D01*
X17018Y18408D01*
X17018Y18408D01*
X17078Y18068D01*
X17078Y18068D01*
X17191Y17872D01*
X16913Y18150D01*
X16913Y19474D01*
X16811Y19576D01*
X18013Y19576D01*
X18166Y19566D01*
X18460Y19487D01*
X18724Y19335D01*
X18940Y19119D01*
X19092Y18855D01*
X19171Y18560D01*
X19181Y18408D01*
X19181Y11518D01*
X19171Y11366D01*
X19092Y11071D01*
X18940Y10807D01*
X18724Y10592D01*
X18460Y10439D01*
X18166Y10360D01*
X18013Y10350D01*
X1480Y10350D01*
X1326Y10363D01*
X1027Y10447D01*
X1067Y10436D02*
X18447Y10436D01*
X18625Y10534D02*
X881Y10534D01*
X977Y10653D02*
X977Y10653D01*
X1302Y10535D01*
X1425Y10535D01*
X1647Y10535D01*
X1972Y10653D01*
X1972Y10653D01*
X2237Y10875D01*
X2237Y10875D01*
X2410Y11175D01*
X2470Y11515D01*
X2410Y11855D01*
X2410Y11855D01*
X2237Y12155D01*
X1972Y12377D01*
X1647Y12495D01*
X1302Y12495D01*
X977Y12377D01*
X977Y12377D01*
X712Y12155D01*
X712Y12155D01*
X712Y12155D01*
X539Y11855D01*
X479Y11515D01*
X539Y11175D01*
X539Y11175D01*
X712Y10875D01*
X977Y10653D01*
X1033Y10633D02*
X735Y10633D01*
X639Y10731D02*
X884Y10731D01*
X767Y10830D02*
X544Y10830D01*
X489Y10928D02*
X682Y10928D01*
X712Y10875D02*
X712Y10875D01*
X625Y11027D02*
X434Y11027D01*
X387Y11125D02*
X568Y11125D01*
X531Y11224D02*
X362Y11224D01*
X337Y11322D02*
X513Y11322D01*
X496Y11421D02*
X317Y11421D01*
X312Y11519D02*
X480Y11519D01*
X479Y11515D02*
X479Y11515D01*
X498Y11618D02*
X311Y11618D01*
X310Y11716D02*
X515Y11716D01*
X532Y11815D02*
X310Y11815D01*
X310Y11913D02*
X573Y11913D01*
X539Y11855D02*
X539Y11855D01*
X630Y12012D02*
X310Y12012D01*
X310Y12110D02*
X687Y12110D01*
X777Y12209D02*
X310Y12209D01*
X310Y12307D02*
X894Y12307D01*
X1056Y12406D02*
X310Y12406D01*
X310Y12504D02*
X3049Y12504D01*
X2950Y12603D02*
X1747Y12603D01*
X1770Y12612D02*
X1895Y12738D01*
X1963Y12902D01*
X1963Y13079D01*
X1895Y13243D01*
X1770Y13369D01*
X1606Y13437D01*
X1428Y13437D01*
X1264Y13369D01*
X1139Y13243D01*
X1071Y13079D01*
X1071Y12902D01*
X1139Y12738D01*
X1264Y12612D01*
X1428Y12544D01*
X1606Y12544D01*
X1770Y12612D01*
X1859Y12701D02*
X2899Y12701D01*
X2858Y12800D02*
X1921Y12800D01*
X1962Y12898D02*
X2833Y12898D01*
X2833Y12997D02*
X1963Y12997D01*
X1957Y13095D02*
X2833Y13095D01*
X2863Y13194D02*
X1916Y13194D01*
X1846Y13292D02*
X2904Y13292D01*
X2962Y13391D02*
X2733Y13391D01*
X2899Y13489D02*
X3048Y13489D01*
X2307Y13391D02*
X1717Y13391D01*
X2042Y13588D02*
X310Y13588D01*
X310Y13686D02*
X1993Y13686D01*
X1952Y13785D02*
X310Y13785D01*
X310Y13883D02*
X1940Y13883D01*
X1940Y13982D02*
X310Y13982D01*
X310Y14080D02*
X1954Y14080D01*
X1995Y14179D02*
X310Y14179D01*
X310Y14277D02*
X2046Y14277D01*
X2145Y14376D02*
X1624Y14376D01*
X1567Y14376D02*
X1467Y14376D01*
X1467Y14367D02*
X1467Y14909D01*
X925Y14909D01*
X939Y14820D01*
X968Y14731D01*
X1010Y14648D01*
X1065Y14573D01*
X1131Y14507D01*
X1206Y14452D01*
X1289Y14410D01*
X1378Y14381D01*
X1467Y14367D01*
X1410Y14376D02*
X310Y14376D01*
X310Y14474D02*
X1176Y14474D01*
X1065Y14573D02*
X310Y14573D01*
X310Y14671D02*
X998Y14671D01*
X955Y14770D02*
X310Y14770D01*
X310Y14868D02*
X931Y14868D01*
X925Y15009D02*
X1467Y15009D01*
X1467Y15551D01*
X1378Y15537D01*
X1289Y15509D01*
X1206Y15466D01*
X1131Y15411D01*
X1065Y15345D01*
X1010Y15270D01*
X968Y15187D01*
X939Y15098D01*
X925Y15009D01*
X934Y15065D02*
X310Y15065D01*
X310Y14967D02*
X1467Y14967D01*
X1467Y15065D02*
X1567Y15065D01*
X1567Y15164D02*
X1467Y15164D01*
X1467Y15262D02*
X1567Y15262D01*
X1567Y15361D02*
X1467Y15361D01*
X1467Y15459D02*
X1567Y15459D01*
X1197Y15459D02*
X310Y15459D01*
X310Y15361D02*
X1080Y15361D01*
X1006Y15262D02*
X310Y15262D01*
X310Y15164D02*
X960Y15164D01*
X1467Y14868D02*
X1567Y14868D01*
X1567Y14770D02*
X1467Y14770D01*
X1467Y14671D02*
X1567Y14671D01*
X1567Y14573D02*
X1467Y14573D01*
X1467Y14474D02*
X1567Y14474D01*
X1858Y14474D02*
X2155Y14474D01*
X2028Y14602D02*
X2014Y14635D01*
X1969Y14573D01*
X2028Y15262D02*
X2032Y15262D01*
X1954Y15361D02*
X2130Y15361D01*
X2281Y15459D02*
X1837Y15459D01*
X2157Y15558D02*
X310Y15558D01*
X310Y15656D02*
X2076Y15656D01*
X2030Y15755D02*
X310Y15755D01*
X310Y15853D02*
X2005Y15853D01*
X2012Y16050D02*
X310Y16050D01*
X310Y15952D02*
X2470Y15952D01*
X2470Y16050D02*
X2570Y16050D01*
X2570Y16149D02*
X2470Y16149D01*
X2470Y16247D02*
X2570Y16247D01*
X2570Y16346D02*
X2470Y16346D01*
X2470Y16444D02*
X2570Y16444D01*
X2598Y16444D02*
X3046Y16444D01*
X2965Y16346D02*
X2832Y16346D01*
X2947Y16543D02*
X1754Y16543D01*
X1770Y16549D02*
X1895Y16675D01*
X1963Y16839D01*
X1963Y17016D01*
X1895Y17180D01*
X1770Y17306D01*
X1606Y17374D01*
X1428Y17374D01*
X1264Y17306D01*
X1139Y17180D01*
X1071Y17016D01*
X1071Y16839D01*
X1139Y16675D01*
X1264Y16549D01*
X1428Y16481D01*
X1606Y16481D01*
X1770Y16549D01*
X1862Y16641D02*
X2897Y16641D01*
X2857Y16740D02*
X1922Y16740D01*
X1963Y16838D02*
X2833Y16838D01*
X2833Y16937D02*
X1963Y16937D01*
X1955Y17035D02*
X2833Y17035D01*
X2864Y17134D02*
X1915Y17134D01*
X1843Y17232D02*
X2905Y17232D01*
X2965Y17331D02*
X1710Y17331D01*
X1913Y17528D02*
X3228Y17528D01*
X3064Y17429D02*
X310Y17429D01*
X310Y17331D02*
X340Y17331D01*
X726Y17331D02*
X1324Y17331D01*
X1191Y17232D02*
X859Y17232D01*
X930Y17134D02*
X1119Y17134D01*
X1079Y17035D02*
X971Y17035D01*
X979Y16937D02*
X1071Y16937D01*
X1071Y16838D02*
X979Y16838D01*
X938Y16740D02*
X1112Y16740D01*
X1172Y16641D02*
X877Y16641D01*
X770Y16543D02*
X1280Y16543D01*
X2047Y16149D02*
X310Y16149D01*
X310Y16247D02*
X2107Y16247D01*
X2207Y16346D02*
X310Y16346D01*
X310Y16444D02*
X2441Y16444D01*
X3926Y16444D02*
X4840Y16444D01*
X4840Y16346D02*
X4007Y16346D01*
X4066Y16247D02*
X4857Y16247D01*
X4924Y16149D02*
X4107Y16149D01*
X4138Y16050D02*
X5022Y16050D01*
X5121Y15952D02*
X4138Y15952D01*
X4138Y15853D02*
X5219Y15853D01*
X5312Y15755D02*
X4114Y15755D01*
X4073Y15656D02*
X4463Y15656D01*
X4800Y15340D02*
X5900Y15340D01*
X6300Y15740D01*
X6600Y15740D01*
X7000Y16140D01*
X6612Y16149D02*
X5659Y16149D01*
X5679Y16128D02*
X5360Y16448D01*
X5360Y17592D01*
X5320Y17687D01*
X5247Y17761D01*
X4968Y18039D01*
X5160Y18039D01*
X5373Y18128D01*
X5536Y18291D01*
X5577Y18390D01*
X5600Y18347D01*
X5648Y18281D01*
X5706Y18223D01*
X5772Y18175D01*
X5845Y18137D01*
X5923Y18112D01*
X5994Y18101D01*
X5994Y18569D01*
X6094Y18569D01*
X6094Y18101D01*
X6166Y18112D01*
X6244Y18137D01*
X6317Y18175D01*
X6383Y18223D01*
X6441Y18281D01*
X6489Y18347D01*
X6526Y18420D01*
X6552Y18498D01*
X6563Y18569D01*
X6094Y18569D01*
X6094Y18669D01*
X6563Y18669D01*
X6552Y18741D01*
X6534Y18796D01*
X7115Y18215D01*
X7115Y18072D01*
X7213Y17974D01*
X7213Y16528D01*
X6735Y16528D01*
X6612Y16405D01*
X6612Y16120D01*
X6492Y16000D01*
X6248Y16000D01*
X6152Y15961D01*
X6088Y15896D01*
X6088Y16005D01*
X5965Y16128D01*
X5679Y16128D01*
X5560Y16247D02*
X6612Y16247D01*
X6612Y16346D02*
X5462Y16346D01*
X5363Y16444D02*
X6651Y16444D01*
X7213Y16543D02*
X5360Y16543D01*
X5360Y16641D02*
X7213Y16641D01*
X7213Y16740D02*
X5360Y16740D01*
X5360Y16838D02*
X7213Y16838D01*
X7213Y16937D02*
X5360Y16937D01*
X5360Y17035D02*
X7213Y17035D01*
X7213Y17134D02*
X5360Y17134D01*
X5360Y17232D02*
X7213Y17232D01*
X7213Y17331D02*
X5360Y17331D01*
X5360Y17429D02*
X7213Y17429D01*
X7213Y17528D02*
X5360Y17528D01*
X5346Y17626D02*
X7213Y17626D01*
X7213Y17725D02*
X5283Y17725D01*
X5184Y17823D02*
X7213Y17823D01*
X7213Y17922D02*
X5086Y17922D01*
X4987Y18020D02*
X7167Y18020D01*
X7115Y18119D02*
X6186Y18119D01*
X6094Y18119D02*
X5994Y18119D01*
X5902Y18119D02*
X5351Y18119D01*
X5463Y18217D02*
X5713Y18217D01*
X5622Y18316D02*
X5546Y18316D01*
X5994Y18316D02*
X6094Y18316D01*
X6094Y18414D02*
X5994Y18414D01*
X5994Y18513D02*
X6094Y18513D01*
X6094Y18611D02*
X6719Y18611D01*
X6817Y18513D02*
X6554Y18513D01*
X6524Y18414D02*
X6916Y18414D01*
X7014Y18316D02*
X6467Y18316D01*
X6376Y18217D02*
X7113Y18217D01*
X7793Y17922D02*
X10859Y17922D01*
X10604Y18020D02*
X7839Y18020D01*
X7793Y17823D02*
X11115Y17823D01*
X11370Y17725D02*
X7793Y17725D01*
X7793Y17626D02*
X11626Y17626D01*
X11882Y17528D02*
X7793Y17528D01*
X7793Y17429D02*
X11894Y17429D01*
X11910Y17441D02*
X11871Y17413D01*
X11811Y17353D01*
X11762Y17285D01*
X11724Y17210D01*
X11698Y17131D01*
X11685Y17048D01*
X11685Y16964D01*
X11698Y16881D01*
X11724Y16801D01*
X11733Y16783D01*
X12150Y17024D01*
X11910Y17441D01*
X11916Y17429D02*
X12032Y17429D01*
X12089Y17331D02*
X11973Y17331D01*
X12030Y17232D02*
X12145Y17232D01*
X12087Y17134D02*
X12202Y17134D01*
X12237Y17074D02*
X12150Y17024D01*
X12200Y16937D01*
X12287Y16987D01*
X12528Y16570D01*
X12566Y16598D01*
X12626Y16658D01*
X12675Y16726D01*
X12713Y16801D01*
X12739Y16881D01*
X12752Y16964D01*
X12752Y17048D01*
X12739Y17131D01*
X12713Y17210D01*
X12704Y17228D01*
X12287Y16987D01*
X12237Y17074D01*
X12259Y17035D02*
X12370Y17035D01*
X12341Y17134D02*
X12541Y17134D01*
X12511Y17232D02*
X12645Y17232D01*
X12738Y17134D02*
X12929Y17134D01*
X12869Y17035D02*
X12752Y17035D01*
X12748Y16937D02*
X12810Y16937D01*
X12751Y16838D02*
X12726Y16838D01*
X12691Y16740D02*
X12682Y16740D01*
X12632Y16641D02*
X12609Y16641D01*
X12572Y16543D02*
X12428Y16543D01*
X12371Y16641D02*
X12487Y16641D01*
X12430Y16740D02*
X12314Y16740D01*
X12258Y16838D02*
X12373Y16838D01*
X12316Y16937D02*
X12201Y16937D01*
X12199Y16937D02*
X11999Y16937D01*
X12029Y16838D02*
X11829Y16838D01*
X11858Y16740D02*
X9088Y16740D01*
X9088Y16641D02*
X11828Y16641D01*
X11649Y16543D02*
X9165Y16543D01*
X9263Y16444D02*
X11605Y16444D01*
X11605Y16346D02*
X9362Y16346D01*
X9460Y16247D02*
X11605Y16247D01*
X11605Y16149D02*
X9559Y16149D01*
X9657Y16050D02*
X11605Y16050D01*
X11622Y15952D02*
X9756Y15952D01*
X9854Y15853D02*
X11721Y15853D01*
X11993Y16234D02*
X12689Y16234D01*
X13289Y17227D01*
X15651Y17227D01*
X16200Y16678D01*
X16200Y15042D01*
X16122Y14964D01*
X15734Y14967D02*
X15060Y14967D01*
X15060Y15065D02*
X15734Y15065D01*
X15734Y15164D02*
X15060Y15164D01*
X15060Y15262D02*
X15767Y15262D01*
X15734Y15229D02*
X15734Y14699D01*
X15857Y14576D01*
X16247Y14576D01*
X16247Y14107D01*
X16291Y14000D01*
X16634Y13657D01*
X16634Y13353D01*
X16190Y13353D01*
X16094Y13313D01*
X16031Y13250D01*
X16031Y13512D01*
X15634Y13512D01*
X15634Y12853D01*
X15627Y12847D01*
X15588Y12751D01*
X15588Y11896D01*
X15416Y11896D01*
X15343Y11866D01*
X15343Y12307D01*
X15222Y12427D01*
X15222Y12508D01*
X15227Y12508D01*
X15350Y12631D01*
X15350Y12886D01*
X15352Y12885D01*
X15415Y12853D01*
X15481Y12831D01*
X15537Y12822D01*
X15537Y13512D01*
X15634Y13512D01*
X15634Y13609D01*
X16031Y13609D01*
X16031Y13891D01*
X16020Y13960D01*
X15998Y14027D01*
X15966Y14089D01*
X15925Y14146D01*
X15876Y14196D01*
X15819Y14237D01*
X15756Y14269D01*
X15690Y14290D01*
X15634Y14299D01*
X15634Y13609D01*
X15537Y13609D01*
X15537Y13512D01*
X15140Y13512D01*
X15140Y13284D01*
X14860Y13284D01*
X14860Y13832D01*
X14947Y13920D01*
X15020Y13993D01*
X15060Y14088D01*
X15060Y16352D01*
X15065Y16352D01*
X15140Y16428D01*
X15140Y16168D01*
X15537Y16168D01*
X15537Y16071D01*
X15634Y16071D01*
X15634Y15381D01*
X15690Y15390D01*
X15756Y15412D01*
X15819Y15444D01*
X15876Y15485D01*
X15925Y15534D01*
X15940Y15554D01*
X15940Y15352D01*
X15857Y15352D01*
X15734Y15229D01*
X15940Y15361D02*
X15060Y15361D01*
X15060Y15459D02*
X15331Y15459D01*
X15352Y15444D02*
X15415Y15412D01*
X15481Y15390D01*
X15537Y15381D01*
X15537Y16071D01*
X15140Y16071D01*
X15140Y15789D01*
X15151Y15720D01*
X15173Y15654D01*
X15205Y15591D01*
X15246Y15534D01*
X15295Y15485D01*
X15352Y15444D01*
X15229Y15558D02*
X15060Y15558D01*
X15060Y15656D02*
X15172Y15656D01*
X15146Y15755D02*
X15060Y15755D01*
X15060Y15853D02*
X15140Y15853D01*
X15140Y15952D02*
X15060Y15952D01*
X15060Y16050D02*
X15140Y16050D01*
X15060Y16149D02*
X15537Y16149D01*
X15537Y16168D02*
X15537Y16858D01*
X15481Y16849D01*
X15415Y16828D01*
X15352Y16796D01*
X15295Y16755D01*
X15246Y16705D01*
X15205Y16648D01*
X15188Y16615D01*
X15188Y16967D01*
X15543Y16967D01*
X15655Y16855D01*
X15634Y16858D01*
X15634Y16168D01*
X15537Y16168D01*
X15537Y16247D02*
X15634Y16247D01*
X15634Y16346D02*
X15537Y16346D01*
X15537Y16444D02*
X15634Y16444D01*
X15634Y16543D02*
X15537Y16543D01*
X15537Y16641D02*
X15634Y16641D01*
X15634Y16740D02*
X15537Y16740D01*
X15537Y16838D02*
X15634Y16838D01*
X15573Y16937D02*
X15188Y16937D01*
X15188Y16838D02*
X15447Y16838D01*
X15281Y16740D02*
X15188Y16740D01*
X15188Y16641D02*
X15201Y16641D01*
X14800Y16740D02*
X14800Y14140D01*
X14600Y13940D01*
X14600Y12337D01*
X14306Y12040D01*
X13918Y12209D02*
X13852Y12209D01*
X13920Y12307D02*
X13753Y12307D01*
X13655Y12406D02*
X14018Y12406D01*
X14340Y12504D02*
X13556Y12504D01*
X13458Y12603D02*
X14340Y12603D01*
X14340Y12701D02*
X13359Y12701D01*
X13261Y12800D02*
X13618Y12800D01*
X13528Y12837D02*
X13713Y12760D01*
X13914Y12760D01*
X14100Y12837D01*
X14242Y12979D01*
X14319Y13165D01*
X14319Y13956D01*
X14242Y14142D01*
X14100Y14284D01*
X14084Y14291D01*
X14084Y15389D01*
X14100Y15396D01*
X14242Y15538D01*
X14319Y15724D01*
X14319Y16516D01*
X14242Y16701D01*
X14100Y16843D01*
X13914Y16920D01*
X13713Y16920D01*
X13528Y16843D01*
X13386Y16701D01*
X13309Y16516D01*
X13309Y15724D01*
X13386Y15538D01*
X13528Y15396D01*
X13544Y15389D01*
X13544Y14291D01*
X13528Y14284D01*
X13386Y14142D01*
X13309Y13956D01*
X13309Y13165D01*
X13386Y12979D01*
X13528Y12837D01*
X13467Y12898D02*
X13162Y12898D01*
X13064Y12997D02*
X13378Y12997D01*
X13337Y13095D02*
X12965Y13095D01*
X12958Y13194D02*
X13309Y13194D01*
X13309Y13292D02*
X12958Y13292D01*
X12958Y13391D02*
X13309Y13391D01*
X13309Y13489D02*
X12958Y13489D01*
X12958Y13588D02*
X13309Y13588D01*
X13309Y13686D02*
X12958Y13686D01*
X12958Y13785D02*
X13309Y13785D01*
X13309Y13883D02*
X12958Y13883D01*
X12958Y13982D02*
X13319Y13982D01*
X13360Y14080D02*
X12958Y14080D01*
X12938Y14179D02*
X13422Y14179D01*
X13521Y14277D02*
X12866Y14277D01*
X12767Y14376D02*
X13544Y14376D01*
X13544Y14474D02*
X12669Y14474D01*
X12570Y14573D02*
X13544Y14573D01*
X13544Y14671D02*
X12472Y14671D01*
X12373Y14770D02*
X13544Y14770D01*
X13544Y14868D02*
X12275Y14868D01*
X12176Y14967D02*
X13544Y14967D01*
X13544Y15065D02*
X12078Y15065D01*
X11979Y15164D02*
X13544Y15164D01*
X13544Y15262D02*
X11879Y15262D01*
X11735Y15040D02*
X12698Y14077D01*
X12698Y12995D01*
X14376Y11316D01*
X14531Y11316D01*
X14099Y10928D02*
X13963Y10928D01*
X13865Y10830D02*
X14198Y10830D01*
X14865Y10830D02*
X15198Y10830D01*
X15099Y10928D02*
X14963Y10928D01*
X15531Y11316D02*
X15848Y11633D01*
X15848Y12699D01*
X16241Y13093D01*
X16832Y13093D01*
X17178Y13439D01*
X17196Y13439D01*
X16634Y13391D02*
X16031Y13391D01*
X16031Y13489D02*
X16634Y13489D01*
X16634Y13588D02*
X15634Y13588D01*
X15537Y13588D02*
X14860Y13588D01*
X14860Y13686D02*
X15140Y13686D01*
X15140Y13609D02*
X15537Y13609D01*
X15537Y14299D01*
X15481Y14290D01*
X15415Y14269D01*
X15352Y14237D01*
X15295Y14196D01*
X15246Y14146D01*
X15205Y14089D01*
X15173Y14027D01*
X15151Y13960D01*
X15140Y13891D01*
X15140Y13609D01*
X15140Y13489D02*
X14860Y13489D01*
X14860Y13391D02*
X15140Y13391D01*
X15140Y13292D02*
X14860Y13292D01*
X14340Y13292D02*
X14319Y13292D01*
X14319Y13194D02*
X14340Y13194D01*
X14340Y13095D02*
X14290Y13095D01*
X14250Y12997D02*
X14340Y12997D01*
X14340Y12898D02*
X14161Y12898D01*
X14010Y12800D02*
X14340Y12800D01*
X14962Y12896D02*
X14962Y12049D01*
X14954Y12042D01*
X15343Y12012D02*
X15588Y12012D01*
X15588Y12110D02*
X15343Y12110D01*
X15343Y12209D02*
X15588Y12209D01*
X15588Y12307D02*
X15342Y12307D01*
X15244Y12406D02*
X15588Y12406D01*
X15588Y12504D02*
X15222Y12504D01*
X15322Y12603D02*
X15588Y12603D01*
X15588Y12701D02*
X15350Y12701D01*
X15350Y12800D02*
X15608Y12800D01*
X15634Y12898D02*
X15537Y12898D01*
X15537Y12997D02*
X15634Y12997D01*
X15634Y13095D02*
X15537Y13095D01*
X15537Y13194D02*
X15634Y13194D01*
X15634Y13292D02*
X15537Y13292D01*
X15537Y13391D02*
X15634Y13391D01*
X15634Y13489D02*
X15537Y13489D01*
X15537Y13686D02*
X15634Y13686D01*
X15634Y13785D02*
X15537Y13785D01*
X15537Y13883D02*
X15634Y13883D01*
X15634Y13982D02*
X15537Y13982D01*
X15537Y14080D02*
X15634Y14080D01*
X15634Y14179D02*
X15537Y14179D01*
X15537Y14277D02*
X15634Y14277D01*
X15730Y14277D02*
X16247Y14277D01*
X16247Y14179D02*
X15893Y14179D01*
X15971Y14080D02*
X16258Y14080D01*
X16310Y13982D02*
X16013Y13982D01*
X16031Y13883D02*
X16408Y13883D01*
X16507Y13785D02*
X16031Y13785D01*
X16031Y13686D02*
X16605Y13686D01*
X16073Y13292D02*
X16031Y13292D01*
X15140Y13785D02*
X14860Y13785D01*
X14910Y13883D02*
X15140Y13883D01*
X15158Y13982D02*
X15009Y13982D01*
X15056Y14080D02*
X15200Y14080D01*
X15279Y14179D02*
X15060Y14179D01*
X15060Y14277D02*
X15441Y14277D01*
X15060Y14376D02*
X16247Y14376D01*
X16247Y14474D02*
X15060Y14474D01*
X15060Y14573D02*
X16247Y14573D01*
X15762Y14671D02*
X15060Y14671D01*
X15060Y14770D02*
X15734Y14770D01*
X15734Y14868D02*
X15060Y14868D01*
X14540Y14868D02*
X14084Y14868D01*
X14084Y14770D02*
X14540Y14770D01*
X14540Y14671D02*
X14084Y14671D01*
X14084Y14573D02*
X14540Y14573D01*
X14540Y14474D02*
X14084Y14474D01*
X14084Y14376D02*
X14540Y14376D01*
X14540Y14277D02*
X14107Y14277D01*
X14206Y14179D02*
X14471Y14179D01*
X14376Y14080D02*
X14268Y14080D01*
X14309Y13982D02*
X14340Y13982D01*
X14340Y13883D02*
X14319Y13883D01*
X14319Y13785D02*
X14340Y13785D01*
X14340Y13686D02*
X14319Y13686D01*
X14319Y13588D02*
X14340Y13588D01*
X14340Y13489D02*
X14319Y13489D01*
X14319Y13391D02*
X14340Y13391D01*
X12304Y14077D02*
X12304Y12543D01*
X13531Y11316D01*
X13099Y10928D02*
X12963Y10928D01*
X12865Y10830D02*
X13198Y10830D01*
X12531Y11316D02*
X11911Y11937D01*
X11911Y14077D01*
X11548Y14440D01*
X9700Y14440D01*
X9500Y14640D01*
X9100Y14340D02*
X9300Y14140D01*
X8006Y12896D01*
X7927Y12896D01*
X7539Y12898D02*
X5972Y12898D01*
X5993Y12997D02*
X7539Y12997D01*
X7539Y13095D02*
X5993Y13095D01*
X5990Y13194D02*
X7571Y13194D01*
X8043Y13292D02*
X6033Y13292D01*
X6132Y13391D02*
X8145Y13391D01*
X8247Y13489D02*
X6230Y13489D01*
X6329Y13588D02*
X8350Y13588D01*
X8452Y13686D02*
X6427Y13686D01*
X6526Y13785D02*
X8555Y13785D01*
X8657Y13883D02*
X6624Y13883D01*
X6723Y13982D02*
X8760Y13982D01*
X8862Y14080D02*
X6821Y14080D01*
X6920Y14179D02*
X8894Y14179D01*
X8844Y14277D02*
X7018Y14277D01*
X7117Y14376D02*
X8840Y14376D01*
X8840Y14474D02*
X7215Y14474D01*
X7314Y14573D02*
X8840Y14573D01*
X8840Y14671D02*
X7412Y14671D01*
X7511Y14770D02*
X8817Y14770D01*
X8719Y14868D02*
X7609Y14868D01*
X7708Y14967D02*
X8712Y14967D01*
X8712Y15065D02*
X7773Y15065D01*
X7793Y15164D02*
X8712Y15164D01*
X8712Y15262D02*
X7793Y15262D01*
X7793Y15361D02*
X8712Y15361D01*
X8328Y15459D02*
X7793Y15459D01*
X7793Y15558D02*
X8229Y15558D01*
X8212Y15656D02*
X7793Y15656D01*
X7793Y15755D02*
X8212Y15755D01*
X8212Y15853D02*
X7793Y15853D01*
X7793Y15952D02*
X8212Y15952D01*
X8212Y16050D02*
X7793Y16050D01*
X7793Y16149D02*
X8255Y16149D01*
X8340Y16247D02*
X7793Y16247D01*
X7793Y16346D02*
X8312Y16346D01*
X8312Y16444D02*
X7793Y16444D01*
X7793Y16543D02*
X8312Y16543D01*
X8312Y16641D02*
X7793Y16641D01*
X7793Y16740D02*
X8312Y16740D01*
X8345Y16838D02*
X7793Y16838D01*
X7793Y16937D02*
X11689Y16937D01*
X11685Y17035D02*
X7793Y17035D01*
X7793Y17134D02*
X11699Y17134D01*
X11735Y17232D02*
X7793Y17232D01*
X7793Y17331D02*
X11795Y17331D01*
X12144Y17035D02*
X12170Y17035D01*
X11712Y16838D02*
X9055Y16838D01*
X8800Y16540D02*
X8700Y16540D01*
X8800Y16540D02*
X10300Y15040D01*
X11735Y15040D01*
X11641Y14740D02*
X12304Y14077D01*
X11539Y14001D02*
X11539Y11324D01*
X11531Y11316D01*
X10951Y11322D02*
X7850Y11322D01*
X7752Y11224D02*
X10951Y11224D01*
X10983Y11125D02*
X7653Y11125D01*
X7555Y11027D02*
X11023Y11027D01*
X11099Y10928D02*
X7476Y10928D01*
X7476Y10830D02*
X11198Y10830D01*
X11865Y10830D02*
X12198Y10830D01*
X12099Y10928D02*
X11963Y10928D01*
X10951Y11421D02*
X7949Y11421D01*
X8047Y11519D02*
X10988Y11519D01*
X11028Y11618D02*
X8146Y11618D01*
X8244Y11716D02*
X11111Y11716D01*
X11219Y11815D02*
X8343Y11815D01*
X8441Y11913D02*
X11279Y11913D01*
X11279Y12012D02*
X8540Y12012D01*
X8638Y12110D02*
X11279Y12110D01*
X11279Y12209D02*
X8737Y12209D01*
X8835Y12307D02*
X11279Y12307D01*
X11279Y12406D02*
X8934Y12406D01*
X9032Y12504D02*
X11279Y12504D01*
X11279Y12603D02*
X9131Y12603D01*
X9229Y12701D02*
X11279Y12701D01*
X11279Y12800D02*
X9328Y12800D01*
X9426Y12898D02*
X11279Y12898D01*
X11279Y12997D02*
X9525Y12997D01*
X9450Y13290D02*
X7088Y10928D01*
X6700Y10928D02*
X2267Y10928D01*
X2324Y11027D02*
X6700Y11027D01*
X6700Y11125D02*
X2381Y11125D01*
X2410Y11175D02*
X2410Y11175D01*
X2418Y11224D02*
X6731Y11224D01*
X7115Y11322D02*
X2436Y11322D01*
X2453Y11421D02*
X7213Y11421D01*
X7312Y11519D02*
X2469Y11519D01*
X2452Y11618D02*
X7410Y11618D01*
X7509Y11716D02*
X2434Y11716D01*
X2417Y11815D02*
X7607Y11815D01*
X7706Y11913D02*
X2376Y11913D01*
X2319Y12012D02*
X7804Y12012D01*
X7903Y12110D02*
X2263Y12110D01*
X2237Y12155D02*
X2237Y12155D01*
X2172Y12209D02*
X6728Y12209D01*
X6700Y12307D02*
X2055Y12307D01*
X1972Y12377D02*
X1972Y12377D01*
X1893Y12406D02*
X3191Y12406D01*
X3780Y12406D02*
X6700Y12406D01*
X6700Y12504D02*
X5589Y12504D01*
X5774Y12603D02*
X6700Y12603D01*
X6700Y12701D02*
X5872Y12701D01*
X5931Y12800D02*
X6732Y12800D01*
X7088Y12502D02*
X8171Y12502D01*
X9352Y13683D01*
X10443Y13683D01*
X10500Y13740D01*
X10730Y13290D02*
X9450Y13290D01*
X9300Y14140D02*
X11400Y14140D01*
X11539Y14001D01*
X11100Y13740D02*
X11100Y13660D01*
X10730Y13290D01*
X11001Y13194D02*
X11279Y13194D01*
X11279Y13292D02*
X11100Y13292D01*
X11279Y13095D02*
X10903Y13095D01*
X9100Y14340D02*
X9100Y15140D01*
X9000Y15840D02*
X8600Y15840D01*
X9000Y15840D02*
X10100Y14740D01*
X11641Y14740D01*
X10347Y15361D02*
X13544Y15361D01*
X13465Y15459D02*
X10248Y15459D01*
X10150Y15558D02*
X13377Y15558D01*
X13337Y15656D02*
X10051Y15656D01*
X9953Y15755D02*
X13309Y15755D01*
X13309Y15853D02*
X12266Y15853D01*
X12364Y15952D02*
X13309Y15952D01*
X13309Y16050D02*
X12879Y16050D01*
X12942Y16149D02*
X13309Y16149D01*
X13309Y16247D02*
X13001Y16247D01*
X13061Y16346D02*
X13309Y16346D01*
X13309Y16444D02*
X13120Y16444D01*
X13180Y16543D02*
X13320Y16543D01*
X13361Y16641D02*
X13239Y16641D01*
X13298Y16740D02*
X13424Y16740D01*
X13358Y16838D02*
X13523Y16838D01*
X13417Y16937D02*
X14412Y16937D01*
X14412Y16838D02*
X14105Y16838D01*
X14204Y16740D02*
X14412Y16740D01*
X14412Y16641D02*
X14267Y16641D01*
X14308Y16543D02*
X14412Y16543D01*
X14443Y16444D02*
X14319Y16444D01*
X14319Y16346D02*
X14540Y16346D01*
X14540Y16247D02*
X14319Y16247D01*
X14319Y16149D02*
X14540Y16149D01*
X14540Y16050D02*
X14319Y16050D01*
X14319Y15952D02*
X14540Y15952D01*
X14540Y15853D02*
X14319Y15853D01*
X14319Y15755D02*
X14540Y15755D01*
X14540Y15656D02*
X14291Y15656D01*
X14250Y15558D02*
X14540Y15558D01*
X14540Y15459D02*
X14163Y15459D01*
X14084Y15361D02*
X14540Y15361D01*
X14540Y15262D02*
X14084Y15262D01*
X14084Y15164D02*
X14540Y15164D01*
X14540Y15065D02*
X14084Y15065D01*
X14084Y14967D02*
X14540Y14967D01*
X15537Y15459D02*
X15634Y15459D01*
X15634Y15558D02*
X15537Y15558D01*
X15537Y15656D02*
X15634Y15656D01*
X15634Y15755D02*
X15537Y15755D01*
X15537Y15853D02*
X15634Y15853D01*
X15634Y15952D02*
X15537Y15952D01*
X15537Y16050D02*
X15634Y16050D01*
X15140Y16247D02*
X15060Y16247D01*
X15060Y16346D02*
X15140Y16346D01*
X15840Y15459D02*
X15940Y15459D01*
X17652Y16838D02*
X17776Y16838D01*
X17874Y16937D02*
X17554Y16937D01*
X17455Y17035D02*
X17973Y17035D01*
X17837Y17429D02*
X17247Y17429D01*
X17247Y17331D02*
X19181Y17331D01*
X19181Y17429D02*
X18189Y17429D01*
X18460Y17528D02*
X19181Y17528D01*
X19181Y17626D02*
X18606Y17626D01*
X18511Y17546D02*
X18511Y17546D01*
X18724Y17725D02*
X19181Y17725D01*
X19181Y17823D02*
X18807Y17823D01*
X18864Y17922D02*
X19181Y17922D01*
X19181Y18020D02*
X18921Y18020D01*
X18948Y18068D02*
X18948Y18068D01*
X18957Y18119D02*
X19181Y18119D01*
X19181Y18217D02*
X18975Y18217D01*
X18992Y18316D02*
X19181Y18316D01*
X19181Y18414D02*
X19007Y18414D01*
X19008Y18408D02*
X19008Y18408D01*
X18990Y18513D02*
X19174Y18513D01*
X19157Y18611D02*
X18972Y18611D01*
X18955Y18710D02*
X19131Y18710D01*
X19105Y18808D02*
X18914Y18808D01*
X18948Y18748D02*
X18948Y18748D01*
X18857Y18907D02*
X19062Y18907D01*
X19005Y19005D02*
X18800Y19005D01*
X18775Y19048D02*
X18775Y19048D01*
X18708Y19104D02*
X18948Y19104D01*
X18856Y19202D02*
X18591Y19202D01*
X18425Y19301D02*
X18758Y19301D01*
X18612Y19399D02*
X16913Y19399D01*
X16913Y19301D02*
X17601Y19301D01*
X17435Y19202D02*
X16913Y19202D01*
X16913Y19104D02*
X17318Y19104D01*
X17226Y19005D02*
X16913Y19005D01*
X16913Y18907D02*
X17169Y18907D01*
X17113Y18808D02*
X16913Y18808D01*
X16913Y18710D02*
X17071Y18710D01*
X17078Y18748D02*
X17078Y18748D01*
X17054Y18611D02*
X16913Y18611D01*
X16913Y18513D02*
X17036Y18513D01*
X17019Y18414D02*
X16913Y18414D01*
X16913Y18316D02*
X17034Y18316D01*
X17052Y18217D02*
X16913Y18217D01*
X16944Y18119D02*
X17069Y18119D01*
X17043Y18020D02*
X17105Y18020D01*
X17141Y17922D02*
X17162Y17922D01*
X17251Y17768D02*
X17251Y17768D01*
X17247Y17725D02*
X17303Y17725D01*
X17247Y17626D02*
X17420Y17626D01*
X17516Y17546D02*
X17516Y17546D01*
X17566Y17528D02*
X17247Y17528D01*
X17247Y17232D02*
X19181Y17232D01*
X19181Y17134D02*
X17152Y17134D01*
X18455Y17035D02*
X19181Y17035D01*
X19181Y16937D02*
X18554Y16937D01*
X18652Y16838D02*
X19181Y16838D01*
X19181Y16740D02*
X18751Y16740D01*
X18794Y16641D02*
X19181Y16641D01*
X19181Y16543D02*
X18794Y16543D01*
X18794Y16444D02*
X19181Y16444D01*
X19181Y16346D02*
X18794Y16346D01*
X18794Y16247D02*
X19181Y16247D01*
X19181Y16149D02*
X18727Y16149D01*
X18628Y16050D02*
X19181Y16050D01*
X19181Y15952D02*
X18539Y15952D01*
X18637Y15853D02*
X19181Y15853D01*
X19181Y15755D02*
X18736Y15755D01*
X18794Y15656D02*
X19181Y15656D01*
X19181Y15558D02*
X18794Y15558D01*
X18794Y15459D02*
X19181Y15459D01*
X19181Y15361D02*
X18794Y15361D01*
X18794Y15262D02*
X19181Y15262D01*
X19181Y15164D02*
X18742Y15164D01*
X18643Y15065D02*
X19181Y15065D01*
X19181Y14967D02*
X18545Y14967D01*
X18622Y14868D02*
X19181Y14868D01*
X19181Y14770D02*
X18721Y14770D01*
X18794Y14671D02*
X19181Y14671D01*
X19181Y14573D02*
X18794Y14573D01*
X18794Y14474D02*
X19181Y14474D01*
X19181Y14376D02*
X18794Y14376D01*
X18794Y14277D02*
X19181Y14277D01*
X19181Y14179D02*
X18757Y14179D01*
X18658Y14080D02*
X19181Y14080D01*
X19181Y13982D02*
X18560Y13982D01*
X18522Y13883D02*
X19181Y13883D01*
X19181Y13785D02*
X18621Y13785D01*
X18719Y13686D02*
X19181Y13686D01*
X19181Y13588D02*
X18734Y13588D01*
X18734Y13391D02*
X19181Y13391D01*
X19181Y13489D02*
X18264Y13489D01*
X18264Y13391D02*
X18164Y13391D01*
X18164Y13292D02*
X18264Y13292D01*
X18264Y13194D02*
X18164Y13194D01*
X18164Y13095D02*
X18264Y13095D01*
X18264Y12997D02*
X18164Y12997D01*
X17938Y12997D02*
X17575Y12997D01*
X17673Y13095D02*
X17840Y13095D01*
X17476Y12898D02*
X19181Y12898D01*
X19181Y12800D02*
X17060Y12800D01*
X17159Y12701D02*
X19181Y12701D01*
X19181Y12603D02*
X17187Y12603D01*
X17187Y12504D02*
X19181Y12504D01*
X19181Y12406D02*
X18434Y12406D01*
X18514Y12377D02*
X18189Y12495D01*
X17843Y12495D01*
X17519Y12377D01*
X17519Y12377D01*
X17254Y12155D01*
X17254Y12155D01*
X17254Y12155D01*
X17081Y11855D01*
X17021Y11515D01*
X17030Y11463D01*
X17013Y11516D01*
X16976Y11589D01*
X16928Y11655D01*
X16870Y11713D01*
X16809Y11757D01*
X17187Y12135D01*
X17187Y12354D01*
X16587Y12354D01*
X16587Y11834D01*
X16581Y11835D01*
X16581Y11366D01*
X17047Y11366D01*
X17081Y11175D01*
X17081Y11175D01*
X17254Y10875D01*
X17519Y10653D01*
X17843Y10535D01*
X18189Y10535D01*
X18514Y10653D01*
X18779Y10875D01*
X18779Y10875D01*
X18779Y10875D01*
X18951Y11175D01*
X19011Y11515D01*
X18951Y11855D01*
X18951Y11855D01*
X18779Y12155D01*
X18514Y12377D01*
X18514Y12377D01*
X18597Y12307D02*
X19181Y12307D01*
X19181Y12209D02*
X18714Y12209D01*
X18779Y12155D02*
X18779Y12155D01*
X18804Y12110D02*
X19181Y12110D01*
X19181Y12012D02*
X18861Y12012D01*
X18918Y11913D02*
X19181Y11913D01*
X19181Y11815D02*
X18959Y11815D01*
X18976Y11716D02*
X19181Y11716D01*
X19181Y11618D02*
X18993Y11618D01*
X19011Y11519D02*
X19181Y11519D01*
X19175Y11421D02*
X18995Y11421D01*
X19011Y11515D02*
X19011Y11515D01*
X18977Y11322D02*
X19159Y11322D01*
X19133Y11224D02*
X18960Y11224D01*
X18951Y11175D02*
X18951Y11175D01*
X18923Y11125D02*
X19107Y11125D01*
X19066Y11027D02*
X18866Y11027D01*
X18809Y10928D02*
X19010Y10928D01*
X18953Y10830D02*
X18724Y10830D01*
X18607Y10731D02*
X18864Y10731D01*
X18765Y10633D02*
X18457Y10633D01*
X18514Y10653D02*
X18514Y10653D01*
X17575Y10633D02*
X7446Y10633D01*
X7476Y10731D02*
X17426Y10731D01*
X17519Y10653D02*
X17519Y10653D01*
X17308Y10830D02*
X16717Y10830D01*
X16581Y10830D02*
X16481Y10830D01*
X16481Y10928D02*
X16581Y10928D01*
X16581Y11027D02*
X16481Y11027D01*
X16481Y11125D02*
X16581Y11125D01*
X16581Y11224D02*
X16481Y11224D01*
X16581Y11322D02*
X17055Y11322D01*
X17043Y11224D02*
X17073Y11224D01*
X17110Y11125D02*
X17016Y11125D01*
X16964Y11027D02*
X17167Y11027D01*
X17223Y10928D02*
X16879Y10928D01*
X17254Y10875D02*
X17254Y10875D01*
X16581Y11421D02*
X16481Y11421D01*
X16481Y11519D02*
X16581Y11519D01*
X16581Y11618D02*
X16481Y11618D01*
X16481Y11716D02*
X16581Y11716D01*
X16581Y11815D02*
X16487Y11815D01*
X16487Y11913D02*
X16587Y11913D01*
X16587Y12012D02*
X16487Y12012D01*
X16487Y12110D02*
X16587Y12110D01*
X16587Y12209D02*
X16487Y12209D01*
X16487Y12307D02*
X16587Y12307D01*
X16587Y12406D02*
X17598Y12406D01*
X17436Y12307D02*
X17187Y12307D01*
X17187Y12209D02*
X17318Y12209D01*
X17228Y12110D02*
X17162Y12110D01*
X17171Y12012D02*
X17064Y12012D01*
X17115Y11913D02*
X16965Y11913D01*
X17081Y11855D02*
X17081Y11855D01*
X17074Y11815D02*
X16867Y11815D01*
X16866Y11716D02*
X17057Y11716D01*
X17039Y11618D02*
X16955Y11618D01*
X17012Y11519D02*
X17022Y11519D01*
X17021Y11515D02*
X17021Y11515D01*
X16099Y11027D02*
X16039Y11027D01*
X15963Y10928D02*
X16184Y10928D01*
X16346Y10830D02*
X15865Y10830D01*
X15588Y11913D02*
X15343Y11913D01*
X18490Y12997D02*
X19181Y12997D01*
X19181Y13095D02*
X18588Y13095D01*
X18687Y13194D02*
X19181Y13194D01*
X19181Y13292D02*
X18734Y13292D01*
X12128Y18119D02*
X11961Y18119D01*
X12128Y18217D02*
X11705Y18217D01*
X11450Y18316D02*
X12152Y18316D01*
X12193Y18414D02*
X11194Y18414D01*
X10939Y18513D02*
X12285Y18513D01*
X12470Y18611D02*
X10684Y18611D01*
X12128Y19104D02*
X7046Y19104D01*
X6948Y19202D02*
X12128Y19202D01*
X12146Y19301D02*
X6849Y19301D01*
X6751Y19399D02*
X12186Y19399D01*
X12270Y19498D02*
X6637Y19498D01*
X7145Y19005D02*
X12159Y19005D01*
X12204Y18907D02*
X7243Y18907D01*
X7342Y18808D02*
X12302Y18808D01*
X12686Y18611D02*
X12743Y18611D01*
X12743Y18710D02*
X7783Y18710D01*
X6620Y18710D02*
X6557Y18710D01*
X6094Y18217D02*
X5994Y18217D01*
X5100Y17540D02*
X5100Y16340D01*
X5700Y15740D01*
X5312Y15656D02*
X5137Y15656D01*
X6043Y16050D02*
X6542Y16050D01*
X6144Y15952D02*
X6088Y15952D01*
X6386Y15459D02*
X7213Y15459D01*
X7213Y15361D02*
X6288Y15361D01*
X6189Y15262D02*
X7183Y15262D01*
X7085Y15164D02*
X6091Y15164D01*
X6691Y14770D02*
X3890Y14770D01*
X3931Y14868D02*
X6789Y14868D01*
X6888Y14967D02*
X5079Y14967D01*
X5178Y15065D02*
X6986Y15065D01*
X6592Y14671D02*
X3829Y14671D01*
X3748Y14573D02*
X6494Y14573D01*
X6395Y14474D02*
X3910Y14474D01*
X4008Y14376D02*
X6297Y14376D01*
X6198Y14277D02*
X4067Y14277D01*
X4108Y14179D02*
X6100Y14179D01*
X6001Y14080D02*
X4138Y14080D01*
X4138Y13982D02*
X5903Y13982D01*
X5804Y13883D02*
X4138Y13883D01*
X4114Y13785D02*
X5706Y13785D01*
X5607Y13686D02*
X4073Y13686D01*
X4022Y13588D02*
X5101Y13588D01*
X4980Y13489D02*
X3923Y13489D01*
X4009Y13391D02*
X4890Y13391D01*
X4849Y13292D02*
X4067Y13292D01*
X4108Y13194D02*
X4809Y13194D01*
X4806Y13095D02*
X4138Y13095D01*
X4138Y12997D02*
X4806Y12997D01*
X4827Y12898D02*
X4138Y12898D01*
X4113Y12800D02*
X4868Y12800D01*
X4927Y12701D02*
X4072Y12701D01*
X4021Y12603D02*
X5026Y12603D01*
X5210Y12504D02*
X3923Y12504D01*
X2140Y13489D02*
X310Y13489D01*
X310Y13391D02*
X333Y13391D01*
X733Y13391D02*
X1317Y13391D01*
X1188Y13292D02*
X862Y13292D01*
X932Y13194D02*
X1118Y13194D01*
X1077Y13095D02*
X972Y13095D01*
X979Y12997D02*
X1071Y12997D01*
X1072Y12898D02*
X978Y12898D01*
X937Y12800D02*
X1113Y12800D01*
X1175Y12701D02*
X874Y12701D01*
X762Y12603D02*
X1287Y12603D01*
X2182Y10830D02*
X6700Y10830D01*
X6700Y10731D02*
X2065Y10731D01*
X1916Y10633D02*
X6730Y10633D01*
X7447Y12209D02*
X8001Y12209D01*
X7539Y12800D02*
X7444Y12800D01*
X4520Y14967D02*
X3932Y14967D01*
X3925Y15065D02*
X4422Y15065D01*
X6785Y15558D02*
X7213Y15558D01*
X7213Y15656D02*
X6883Y15656D01*
X4840Y16543D02*
X4024Y16543D01*
X4074Y16641D02*
X4840Y16641D01*
X4840Y16740D02*
X4114Y16740D01*
X4138Y16838D02*
X4840Y16838D01*
X4840Y16937D02*
X4138Y16937D01*
X4138Y17035D02*
X4840Y17035D01*
X4840Y17134D02*
X4107Y17134D01*
X4066Y17232D02*
X4840Y17232D01*
X4840Y17331D02*
X4006Y17331D01*
X3907Y17429D02*
X4840Y17429D01*
X4745Y17528D02*
X3743Y17528D01*
X4351Y17922D02*
X2324Y17922D01*
X2380Y18020D02*
X4252Y18020D01*
X4449Y17823D02*
X2267Y17823D01*
X2181Y17725D02*
X4548Y17725D01*
X4646Y17626D02*
X2064Y17626D01*
X2410Y18071D02*
X2410Y18071D01*
X2418Y18119D02*
X2508Y18119D01*
X2464Y18217D02*
X2435Y18217D01*
X2453Y18316D02*
X2464Y18316D01*
X2452Y18513D02*
X2464Y18513D01*
X2464Y18611D02*
X2434Y18611D01*
X2417Y18710D02*
X2464Y18710D01*
X2464Y18808D02*
X2377Y18808D01*
X2320Y18907D02*
X2464Y18907D01*
X2464Y19005D02*
X2263Y19005D01*
X2237Y19051D02*
X2237Y19051D01*
X2174Y19104D02*
X2492Y19104D01*
X2056Y19202D02*
X3256Y19202D01*
X3354Y19301D02*
X1896Y19301D01*
X1972Y19273D02*
X1972Y19273D01*
X1054Y19301D02*
X733Y19301D01*
X634Y19202D02*
X893Y19202D01*
X775Y19104D02*
X542Y19104D01*
X485Y19005D02*
X686Y19005D01*
X712Y19051D02*
X712Y19051D01*
X629Y18907D02*
X429Y18907D01*
X386Y18808D02*
X572Y18808D01*
X532Y18710D02*
X360Y18710D01*
X333Y18611D02*
X515Y18611D01*
X497Y18513D02*
X317Y18513D01*
X310Y18414D02*
X480Y18414D01*
X479Y18411D02*
X479Y18411D01*
X496Y18316D02*
X310Y18316D01*
X310Y18217D02*
X514Y18217D01*
X531Y18119D02*
X310Y18119D01*
X310Y18020D02*
X569Y18020D01*
X625Y17922D02*
X310Y17922D01*
X310Y17823D02*
X682Y17823D01*
X712Y17771D02*
X712Y17771D01*
X768Y17725D02*
X310Y17725D01*
X310Y17626D02*
X885Y17626D01*
X977Y17549D02*
X977Y17549D01*
X1036Y17528D02*
X310Y17528D01*
X879Y19399D02*
X3452Y19399D01*
X3457Y19404D02*
X3457Y19404D01*
X3538Y19486D02*
X3538Y19486D01*
X3567Y19498D02*
X1071Y19498D01*
X3645Y19530D02*
X3645Y19530D01*
X4044Y18619D02*
X4044Y18595D01*
X5100Y17540D01*
X3737Y18119D02*
X3581Y18119D01*
X3624Y18217D02*
X3626Y18217D01*
X16889Y19498D02*
X18420Y19498D01*
D36*
X16537Y17522D02*
X12703Y17522D01*
X10588Y18337D01*
X7503Y18337D01*
X7503Y15172D01*
X5400Y13069D01*
X7403Y18337D02*
X6501Y19239D01*
X6501Y19240D01*
X3703Y19240D01*
X3085Y18619D01*
X3044Y18619D01*
X7403Y18337D02*
X7503Y18337D01*
X15586Y16120D02*
X15586Y13561D01*
X16537Y14165D02*
X17196Y13505D01*
X17196Y13439D01*
X17214Y13456D01*
X16537Y14165D02*
X16537Y17522D01*
M02*
