G75*
G70*
%OFA0B0*%
%FSLAX24Y24*%
%IPPOS*%
%LPD*%
%AMOC8*
5,1,8,0,0,1.08239X$1,22.5*
%
%ADD10C,0.0000*%
%ADD11C,0.0000*%
%ADD12C,0.0051*%
%ADD13C,0.0110*%
%ADD14C,0.0886*%
%ADD15OC8,0.0740*%
%ADD16R,0.0472X0.0472*%
%ADD17R,0.0630X0.0512*%
%ADD18R,0.0512X0.0591*%
%ADD19R,0.0630X0.0709*%
%ADD20C,0.0768*%
%ADD21R,0.0472X0.0118*%
%ADD22C,0.0480*%
%ADD23R,0.0740X0.0740*%
%ADD24C,0.0740*%
%ADD25R,0.0591X0.0512*%
%ADD26C,0.0591*%
%ADD27OC8,0.1000*%
%ADD28C,0.0100*%
%ADD29R,0.0356X0.0356*%
%ADD30C,0.0120*%
%ADD31C,0.0160*%
%ADD32C,0.0000*%
%ADD33C,0.0051*%
%ADD34C,0.0110*%
%ADD35C,0.0886*%
%ADD36OC8,0.0740*%
%ADD37R,0.0472X0.0472*%
%ADD38R,0.0630X0.0512*%
%ADD39R,0.0512X0.0591*%
%ADD40R,0.0630X0.0709*%
%ADD41C,0.0768*%
%ADD42R,0.0472X0.0118*%
%ADD43C,0.0480*%
%ADD44R,0.0740X0.0740*%
%ADD45C,0.0740*%
%ADD46R,0.0591X0.0512*%
%ADD47C,0.0591*%
%ADD48OC8,0.1000*%
%ADD49C,0.0100*%
%ADD50R,0.0356X0.0356*%
%ADD51C,0.0120*%
%ADD52C,0.0160*%
D10*
X000100Y001475D02*
X000100Y001517D01*
X000100Y008368D01*
X000100Y008371D01*
X000100Y008368D02*
X000102Y008440D01*
X000108Y008512D01*
X000117Y008584D01*
X000130Y008655D01*
X000147Y008725D01*
X000167Y008794D01*
X000192Y008862D01*
X000219Y008928D01*
X000250Y008994D01*
X000285Y009057D01*
X000322Y009119D01*
X000363Y009178D01*
X000407Y009235D01*
X000454Y009290D01*
X000504Y009342D01*
X000556Y009392D01*
X000611Y009439D01*
X000668Y009483D01*
X000727Y009524D01*
X000789Y009561D01*
X000852Y009596D01*
X000918Y009627D01*
X000984Y009654D01*
X001052Y009679D01*
X001121Y009699D01*
X001191Y009716D01*
X001262Y009729D01*
X001334Y009738D01*
X001406Y009744D01*
X001478Y009746D01*
X001478Y010139D01*
X001475Y010139D01*
X001475Y009746D02*
X001478Y009746D01*
X001872Y009746D02*
X018014Y009746D01*
X018014Y010139D02*
X001872Y010139D01*
X001872Y009746D01*
X001478Y010139D02*
X001405Y010142D01*
X001332Y010149D01*
X001260Y010159D01*
X001188Y010174D01*
X001117Y010192D01*
X001047Y010214D01*
X000979Y010239D01*
X000911Y010268D01*
X000846Y010300D01*
X000782Y010336D01*
X000720Y010375D01*
X000660Y010418D01*
X000603Y010463D01*
X000548Y010511D01*
X000496Y010562D01*
X000446Y010616D01*
X000399Y010673D01*
X000356Y010731D01*
X000315Y010792D01*
X000278Y010855D01*
X000244Y010920D01*
X000213Y010986D01*
X000186Y011054D01*
X000162Y011124D01*
X000143Y011194D01*
X000127Y011266D01*
X000114Y011338D01*
X000106Y011410D01*
X000101Y011484D01*
X000100Y011557D01*
X000100Y018407D01*
X000100Y018410D01*
X000100Y018407D02*
X000102Y018479D01*
X000108Y018551D01*
X000117Y018623D01*
X000130Y018694D01*
X000147Y018764D01*
X000167Y018833D01*
X000192Y018901D01*
X000219Y018967D01*
X000250Y019033D01*
X000285Y019096D01*
X000322Y019158D01*
X000363Y019217D01*
X000407Y019274D01*
X000454Y019329D01*
X000504Y019381D01*
X000556Y019431D01*
X000611Y019478D01*
X000668Y019522D01*
X000727Y019563D01*
X000789Y019600D01*
X000852Y019635D01*
X000918Y019666D01*
X000984Y019693D01*
X001052Y019718D01*
X001121Y019738D01*
X001191Y019755D01*
X001262Y019768D01*
X001334Y019777D01*
X001406Y019783D01*
X001478Y019785D01*
X018014Y019785D01*
X018086Y019783D01*
X018158Y019777D01*
X018230Y019768D01*
X018301Y019755D01*
X018371Y019738D01*
X018440Y019718D01*
X018508Y019693D01*
X018574Y019666D01*
X018640Y019635D01*
X018703Y019600D01*
X018765Y019563D01*
X018824Y019522D01*
X018881Y019478D01*
X018936Y019431D01*
X018988Y019381D01*
X019038Y019329D01*
X019085Y019274D01*
X019129Y019217D01*
X019170Y019158D01*
X019207Y019096D01*
X019242Y019033D01*
X019273Y018967D01*
X019300Y018901D01*
X019325Y018833D01*
X019345Y018764D01*
X019362Y018694D01*
X019375Y018623D01*
X019384Y018551D01*
X019390Y018479D01*
X019392Y018407D01*
X019391Y018407D02*
X019391Y011517D01*
X019392Y011517D02*
X019390Y011445D01*
X019384Y011373D01*
X019375Y011301D01*
X019362Y011230D01*
X019345Y011160D01*
X019325Y011091D01*
X019300Y011023D01*
X019273Y010957D01*
X019242Y010891D01*
X019207Y010828D01*
X019170Y010766D01*
X019129Y010707D01*
X019085Y010650D01*
X019038Y010595D01*
X018988Y010543D01*
X018936Y010493D01*
X018881Y010446D01*
X018824Y010402D01*
X018765Y010361D01*
X018703Y010324D01*
X018640Y010289D01*
X018574Y010258D01*
X018508Y010231D01*
X018440Y010206D01*
X018371Y010186D01*
X018301Y010169D01*
X018230Y010156D01*
X018158Y010147D01*
X018086Y010141D01*
X018014Y010139D01*
X018017Y010139D01*
X018014Y009746D02*
X018086Y009744D01*
X018158Y009738D01*
X018230Y009729D01*
X018301Y009716D01*
X018371Y009699D01*
X018440Y009679D01*
X018508Y009654D01*
X018574Y009627D01*
X018640Y009596D01*
X018703Y009561D01*
X018765Y009524D01*
X018824Y009483D01*
X018881Y009439D01*
X018936Y009392D01*
X018988Y009342D01*
X019038Y009290D01*
X019085Y009235D01*
X019129Y009178D01*
X019170Y009119D01*
X019207Y009057D01*
X019242Y008994D01*
X019273Y008928D01*
X019300Y008862D01*
X019325Y008794D01*
X019345Y008725D01*
X019362Y008655D01*
X019375Y008584D01*
X019384Y008512D01*
X019390Y008440D01*
X019392Y008368D01*
X019391Y008368D02*
X019391Y001478D01*
X019392Y001478D02*
X019390Y001406D01*
X019384Y001334D01*
X019375Y001262D01*
X019362Y001191D01*
X019345Y001121D01*
X019325Y001052D01*
X019300Y000984D01*
X019273Y000918D01*
X019242Y000852D01*
X019207Y000789D01*
X019170Y000727D01*
X019129Y000668D01*
X019085Y000611D01*
X019038Y000556D01*
X018988Y000504D01*
X018936Y000454D01*
X018881Y000407D01*
X018824Y000363D01*
X018765Y000322D01*
X018703Y000285D01*
X018640Y000250D01*
X018574Y000219D01*
X018508Y000192D01*
X018440Y000167D01*
X018371Y000147D01*
X018301Y000130D01*
X018230Y000117D01*
X018158Y000108D01*
X018086Y000102D01*
X018014Y000100D01*
X018017Y000100D01*
X018014Y000100D02*
X001478Y000100D01*
X001475Y000100D01*
X001478Y000100D02*
X001405Y000103D01*
X001332Y000110D01*
X001260Y000120D01*
X001188Y000135D01*
X001117Y000153D01*
X001047Y000175D01*
X000979Y000200D01*
X000911Y000229D01*
X000846Y000261D01*
X000782Y000297D01*
X000720Y000336D01*
X000660Y000379D01*
X000603Y000424D01*
X000548Y000472D01*
X000496Y000523D01*
X000446Y000577D01*
X000399Y000634D01*
X000356Y000692D01*
X000315Y000753D01*
X000278Y000816D01*
X000244Y000881D01*
X000213Y000947D01*
X000186Y001015D01*
X000162Y001085D01*
X000143Y001155D01*
X000127Y001227D01*
X000114Y001299D01*
X000106Y001371D01*
X000101Y001445D01*
X000100Y001518D01*
X000100Y011514D02*
X000100Y011557D01*
D11*
X3666Y6033D02*
X3669Y6033D01*
X20205Y6033D01*
X20208Y6033D01*
X19558Y7407D02*
X19560Y7457D01*
X19566Y7507D01*
X19576Y7557D01*
X19589Y7605D01*
X19606Y7653D01*
X19627Y7699D01*
X19651Y7743D01*
X19679Y7785D01*
X19710Y7825D01*
X19744Y7862D01*
X19781Y7897D01*
X19820Y7928D01*
X19861Y7957D01*
X19905Y7982D01*
X19951Y8004D01*
X19998Y8022D01*
X20046Y8036D01*
X20095Y8047D01*
X20145Y8054D01*
X20195Y8057D01*
X20246Y8056D01*
X20296Y8051D01*
X20346Y8042D01*
X20394Y8030D01*
X20442Y8013D01*
X20488Y7993D01*
X20533Y7970D01*
X20576Y7943D01*
X20616Y7913D01*
X20654Y7880D01*
X20689Y7844D01*
X20722Y7805D01*
X20751Y7764D01*
X20777Y7721D01*
X20800Y7676D01*
X20819Y7629D01*
X20834Y7581D01*
X20846Y7532D01*
X20854Y7482D01*
X20858Y7432D01*
X20858Y7382D01*
X20854Y7332D01*
X20846Y7282D01*
X20834Y7233D01*
X20819Y7185D01*
X20800Y7138D01*
X20777Y7093D01*
X20751Y7050D01*
X20722Y7009D01*
X20689Y6970D01*
X20654Y6934D01*
X20616Y6901D01*
X20576Y6871D01*
X20533Y6844D01*
X20488Y6821D01*
X20442Y6801D01*
X20394Y6784D01*
X20346Y6772D01*
X20296Y6763D01*
X20246Y6758D01*
X20195Y6757D01*
X20145Y6760D01*
X20095Y6767D01*
X20046Y6778D01*
X19998Y6792D01*
X19951Y6810D01*
X19905Y6832D01*
X19861Y6857D01*
X19820Y6886D01*
X19781Y6917D01*
X19744Y6952D01*
X19710Y6989D01*
X19679Y7029D01*
X19651Y7071D01*
X19627Y7115D01*
X19606Y7161D01*
X19589Y7209D01*
X19576Y7257D01*
X19566Y7307D01*
X19560Y7357D01*
X19558Y7407D01*
X20205Y6033D02*
X20277Y6035D01*
X20349Y6041D01*
X20421Y6050D01*
X20492Y6063D01*
X20562Y6080D01*
X20631Y6100D01*
X20699Y6125D01*
X20765Y6152D01*
X20831Y6183D01*
X20894Y6218D01*
X20956Y6255D01*
X21015Y6296D01*
X21072Y6340D01*
X21127Y6387D01*
X21179Y6437D01*
X21229Y6489D01*
X21276Y6544D01*
X21320Y6601D01*
X21361Y6660D01*
X21398Y6722D01*
X21433Y6785D01*
X21464Y6851D01*
X21491Y6917D01*
X21516Y6985D01*
X21536Y7054D01*
X21553Y7124D01*
X21566Y7195D01*
X21575Y7267D01*
X21581Y7339D01*
X21583Y7411D01*
X21583Y14300D01*
X19555Y14300D02*
X19557Y14350D01*
X19563Y14400D01*
X19573Y14450D01*
X19586Y14498D01*
X19603Y14546D01*
X19624Y14592D01*
X19648Y14636D01*
X19676Y14678D01*
X19707Y14718D01*
X19741Y14755D01*
X19778Y14790D01*
X19817Y14821D01*
X19858Y14850D01*
X19902Y14875D01*
X19948Y14897D01*
X19995Y14915D01*
X20043Y14929D01*
X20092Y14940D01*
X20142Y14947D01*
X20192Y14950D01*
X20243Y14949D01*
X20293Y14944D01*
X20343Y14935D01*
X20391Y14923D01*
X20439Y14906D01*
X20485Y14886D01*
X20530Y14863D01*
X20573Y14836D01*
X20613Y14806D01*
X20651Y14773D01*
X20686Y14737D01*
X20719Y14698D01*
X20748Y14657D01*
X20774Y14614D01*
X20797Y14569D01*
X20816Y14522D01*
X20831Y14474D01*
X20843Y14425D01*
X20851Y14375D01*
X20855Y14325D01*
X20855Y14275D01*
X20851Y14225D01*
X20843Y14175D01*
X20831Y14126D01*
X20816Y14078D01*
X20797Y14031D01*
X20774Y13986D01*
X20748Y13943D01*
X20719Y13902D01*
X20686Y13863D01*
X20651Y13827D01*
X20613Y13794D01*
X20573Y13764D01*
X20530Y13737D01*
X20485Y13714D01*
X20439Y13694D01*
X20391Y13677D01*
X20343Y13665D01*
X20293Y13656D01*
X20243Y13651D01*
X20192Y13650D01*
X20142Y13653D01*
X20092Y13660D01*
X20043Y13671D01*
X19995Y13685D01*
X19948Y13703D01*
X19902Y13725D01*
X19858Y13750D01*
X19817Y13779D01*
X19778Y13810D01*
X19741Y13845D01*
X19707Y13882D01*
X19676Y13922D01*
X19648Y13964D01*
X19624Y14008D01*
X19603Y14054D01*
X19586Y14102D01*
X19573Y14150D01*
X19563Y14200D01*
X19557Y14250D01*
X19555Y14300D01*
X20205Y15678D02*
X20277Y15676D01*
X20349Y15670D01*
X20421Y15661D01*
X20492Y15648D01*
X20562Y15631D01*
X20631Y15611D01*
X20699Y15586D01*
X20765Y15559D01*
X20831Y15528D01*
X20894Y15493D01*
X20956Y15456D01*
X21015Y15415D01*
X21072Y15371D01*
X21127Y15324D01*
X21179Y15274D01*
X21229Y15222D01*
X21276Y15167D01*
X21320Y15110D01*
X21361Y15051D01*
X21398Y14989D01*
X21433Y14926D01*
X21464Y14860D01*
X21491Y14794D01*
X21516Y14726D01*
X21536Y14657D01*
X21553Y14587D01*
X21566Y14516D01*
X21575Y14444D01*
X21581Y14372D01*
X21583Y14300D01*
X20205Y15678D02*
X3669Y15678D01*
X3016Y14304D02*
X3018Y14354D01*
X3024Y14404D01*
X3034Y14454D01*
X3047Y14502D01*
X3064Y14550D01*
X3085Y14596D01*
X3109Y14640D01*
X3137Y14682D01*
X3168Y14722D01*
X3202Y14759D01*
X3239Y14794D01*
X3278Y14825D01*
X3319Y14854D01*
X3363Y14879D01*
X3409Y14901D01*
X3456Y14919D01*
X3504Y14933D01*
X3553Y14944D01*
X3603Y14951D01*
X3653Y14954D01*
X3704Y14953D01*
X3754Y14948D01*
X3804Y14939D01*
X3852Y14927D01*
X3900Y14910D01*
X3946Y14890D01*
X3991Y14867D01*
X4034Y14840D01*
X4074Y14810D01*
X4112Y14777D01*
X4147Y14741D01*
X4180Y14702D01*
X4209Y14661D01*
X4235Y14618D01*
X4258Y14573D01*
X4277Y14526D01*
X4292Y14478D01*
X4304Y14429D01*
X4312Y14379D01*
X4316Y14329D01*
X4316Y14279D01*
X4312Y14229D01*
X4304Y14179D01*
X4292Y14130D01*
X4277Y14082D01*
X4258Y14035D01*
X4235Y13990D01*
X4209Y13947D01*
X4180Y13906D01*
X4147Y13867D01*
X4112Y13831D01*
X4074Y13798D01*
X4034Y13768D01*
X3991Y13741D01*
X3946Y13718D01*
X3900Y13698D01*
X3852Y13681D01*
X3804Y13669D01*
X3754Y13660D01*
X3704Y13655D01*
X3653Y13654D01*
X3603Y13657D01*
X3553Y13664D01*
X3504Y13675D01*
X3456Y13689D01*
X3409Y13707D01*
X3363Y13729D01*
X3319Y13754D01*
X3278Y13783D01*
X3239Y13814D01*
X3202Y13849D01*
X3168Y13886D01*
X3137Y13926D01*
X3109Y13968D01*
X3085Y14012D01*
X3064Y14058D01*
X3047Y14106D01*
X3034Y14154D01*
X3024Y14204D01*
X3018Y14254D01*
X3016Y14304D01*
X2291Y14300D02*
X2293Y14372D01*
X2299Y14444D01*
X2308Y14516D01*
X2321Y14587D01*
X2338Y14657D01*
X2358Y14726D01*
X2383Y14794D01*
X2410Y14860D01*
X2441Y14926D01*
X2476Y14989D01*
X2513Y15051D01*
X2554Y15110D01*
X2598Y15167D01*
X2645Y15222D01*
X2695Y15274D01*
X2747Y15324D01*
X2802Y15371D01*
X2859Y15415D01*
X2918Y15456D01*
X2980Y15493D01*
X3043Y15528D01*
X3109Y15559D01*
X3175Y15586D01*
X3243Y15611D01*
X3312Y15631D01*
X3382Y15648D01*
X3453Y15661D01*
X3525Y15670D01*
X3597Y15676D01*
X3669Y15678D01*
X2291Y14304D02*
X2291Y14300D01*
X2291Y7450D01*
X2291Y7407D01*
X3016Y7407D02*
X3018Y7457D01*
X3024Y7507D01*
X3034Y7557D01*
X3047Y7605D01*
X3064Y7653D01*
X3085Y7699D01*
X3109Y7743D01*
X3137Y7785D01*
X3168Y7825D01*
X3202Y7862D01*
X3239Y7897D01*
X3278Y7928D01*
X3319Y7957D01*
X3363Y7982D01*
X3409Y8004D01*
X3456Y8022D01*
X3504Y8036D01*
X3553Y8047D01*
X3603Y8054D01*
X3653Y8057D01*
X3704Y8056D01*
X3754Y8051D01*
X3804Y8042D01*
X3852Y8030D01*
X3900Y8013D01*
X3946Y7993D01*
X3991Y7970D01*
X4034Y7943D01*
X4074Y7913D01*
X4112Y7880D01*
X4147Y7844D01*
X4180Y7805D01*
X4209Y7764D01*
X4235Y7721D01*
X4258Y7676D01*
X4277Y7629D01*
X4292Y7581D01*
X4304Y7532D01*
X4312Y7482D01*
X4316Y7432D01*
X4316Y7382D01*
X4312Y7332D01*
X4304Y7282D01*
X4292Y7233D01*
X4277Y7185D01*
X4258Y7138D01*
X4235Y7093D01*
X4209Y7050D01*
X4180Y7009D01*
X4147Y6970D01*
X4112Y6934D01*
X4074Y6901D01*
X4034Y6871D01*
X3991Y6844D01*
X3946Y6821D01*
X3900Y6801D01*
X3852Y6784D01*
X3804Y6772D01*
X3754Y6763D01*
X3704Y6758D01*
X3653Y6757D01*
X3603Y6760D01*
X3553Y6767D01*
X3504Y6778D01*
X3456Y6792D01*
X3409Y6810D01*
X3363Y6832D01*
X3319Y6857D01*
X3278Y6886D01*
X3239Y6917D01*
X3202Y6952D01*
X3168Y6989D01*
X3137Y7029D01*
X3109Y7071D01*
X3085Y7115D01*
X3064Y7161D01*
X3047Y7209D01*
X3034Y7257D01*
X3024Y7307D01*
X3018Y7357D01*
X3016Y7407D01*
X2291Y7450D02*
X2292Y7377D01*
X2297Y7303D01*
X2305Y7231D01*
X2318Y7159D01*
X2334Y7087D01*
X2353Y7017D01*
X2377Y6947D01*
X2404Y6879D01*
X2435Y6813D01*
X2469Y6748D01*
X2506Y6685D01*
X2547Y6624D01*
X2590Y6566D01*
X2637Y6509D01*
X2687Y6455D01*
X2739Y6404D01*
X2794Y6356D01*
X2851Y6311D01*
X2911Y6268D01*
X2973Y6229D01*
X3037Y6193D01*
X3102Y6161D01*
X3170Y6132D01*
X3238Y6107D01*
X3308Y6085D01*
X3379Y6067D01*
X3451Y6052D01*
X3523Y6042D01*
X3596Y6035D01*
X3669Y6032D01*
X3473Y8883D02*
X3475Y8913D01*
X3481Y8943D01*
X3490Y8972D01*
X3503Y8999D01*
X3520Y9024D01*
X3539Y9047D01*
X3562Y9068D01*
X3587Y9085D01*
X3613Y9099D01*
X3642Y9109D01*
X3671Y9116D01*
X3701Y9119D01*
X3732Y9118D01*
X3762Y9113D01*
X3791Y9104D01*
X3818Y9092D01*
X3844Y9077D01*
X3868Y9058D01*
X3889Y9036D01*
X3907Y9012D01*
X3922Y8985D01*
X3933Y8957D01*
X3941Y8928D01*
X3945Y8898D01*
X3945Y8868D01*
X3941Y8838D01*
X3933Y8809D01*
X3922Y8781D01*
X3907Y8754D01*
X3889Y8730D01*
X3868Y8708D01*
X3844Y8689D01*
X3818Y8674D01*
X3791Y8662D01*
X3762Y8653D01*
X3732Y8648D01*
X3701Y8647D01*
X3671Y8650D01*
X3642Y8657D01*
X3613Y8667D01*
X3587Y8681D01*
X3562Y8698D01*
X3539Y8719D01*
X3520Y8742D01*
X3503Y8767D01*
X3490Y8794D01*
X3481Y8823D01*
X3475Y8853D01*
X3473Y8883D01*
X2488Y8883D02*
X2490Y8913D01*
X2496Y8943D01*
X2505Y8972D01*
X2518Y8999D01*
X2535Y9024D01*
X2554Y9047D01*
X2577Y9068D01*
X2602Y9085D01*
X2628Y9099D01*
X2657Y9109D01*
X2686Y9116D01*
X2716Y9119D01*
X2747Y9118D01*
X2777Y9113D01*
X2806Y9104D01*
X2833Y9092D01*
X2859Y9077D01*
X2883Y9058D01*
X2904Y9036D01*
X2922Y9012D01*
X2937Y8985D01*
X2948Y8957D01*
X2956Y8928D01*
X2960Y8898D01*
X2960Y8868D01*
X2956Y8838D01*
X2948Y8809D01*
X2937Y8781D01*
X2922Y8754D01*
X2904Y8730D01*
X2883Y8708D01*
X2859Y8689D01*
X2833Y8674D01*
X2806Y8662D01*
X2777Y8653D01*
X2747Y8648D01*
X2716Y8647D01*
X2686Y8650D01*
X2657Y8657D01*
X2628Y8667D01*
X2602Y8681D01*
X2577Y8698D01*
X2554Y8719D01*
X2535Y8742D01*
X2518Y8767D01*
X2505Y8794D01*
X2496Y8823D01*
X2490Y8853D01*
X2488Y8883D01*
X5441Y10852D02*
X5443Y10882D01*
X5449Y10912D01*
X5458Y10941D01*
X5471Y10968D01*
X5488Y10993D01*
X5507Y11016D01*
X5530Y11037D01*
X5555Y11054D01*
X5581Y11068D01*
X5610Y11078D01*
X5639Y11085D01*
X5669Y11088D01*
X5700Y11087D01*
X5730Y11082D01*
X5759Y11073D01*
X5786Y11061D01*
X5812Y11046D01*
X5836Y11027D01*
X5857Y11005D01*
X5875Y10981D01*
X5890Y10954D01*
X5901Y10926D01*
X5909Y10897D01*
X5913Y10867D01*
X5913Y10837D01*
X5909Y10807D01*
X5901Y10778D01*
X5890Y10750D01*
X5875Y10723D01*
X5857Y10699D01*
X5836Y10677D01*
X5812Y10658D01*
X5786Y10643D01*
X5759Y10631D01*
X5730Y10622D01*
X5700Y10617D01*
X5669Y10616D01*
X5639Y10619D01*
X5610Y10626D01*
X5581Y10636D01*
X5555Y10650D01*
X5530Y10667D01*
X5507Y10688D01*
X5488Y10711D01*
X5471Y10736D01*
X5458Y10763D01*
X5449Y10792D01*
X5443Y10822D01*
X5441Y10852D01*
X3473Y12820D02*
X3475Y12850D01*
X3481Y12880D01*
X3490Y12909D01*
X3503Y12936D01*
X3520Y12961D01*
X3539Y12984D01*
X3562Y13005D01*
X3587Y13022D01*
X3613Y13036D01*
X3642Y13046D01*
X3671Y13053D01*
X3701Y13056D01*
X3732Y13055D01*
X3762Y13050D01*
X3791Y13041D01*
X3818Y13029D01*
X3844Y13014D01*
X3868Y12995D01*
X3889Y12973D01*
X3907Y12949D01*
X3922Y12922D01*
X3933Y12894D01*
X3941Y12865D01*
X3945Y12835D01*
X3945Y12805D01*
X3941Y12775D01*
X3933Y12746D01*
X3922Y12718D01*
X3907Y12691D01*
X3889Y12667D01*
X3868Y12645D01*
X3844Y12626D01*
X3818Y12611D01*
X3791Y12599D01*
X3762Y12590D01*
X3732Y12585D01*
X3701Y12584D01*
X3671Y12587D01*
X3642Y12594D01*
X3613Y12604D01*
X3587Y12618D01*
X3562Y12635D01*
X3539Y12656D01*
X3520Y12679D01*
X3503Y12704D01*
X3490Y12731D01*
X3481Y12760D01*
X3475Y12790D01*
X3473Y12820D01*
X2488Y12820D02*
X2490Y12850D01*
X2496Y12880D01*
X2505Y12909D01*
X2518Y12936D01*
X2535Y12961D01*
X2554Y12984D01*
X2577Y13005D01*
X2602Y13022D01*
X2628Y13036D01*
X2657Y13046D01*
X2686Y13053D01*
X2716Y13056D01*
X2747Y13055D01*
X2777Y13050D01*
X2806Y13041D01*
X2833Y13029D01*
X2859Y13014D01*
X2883Y12995D01*
X2904Y12973D01*
X2922Y12949D01*
X2937Y12922D01*
X2948Y12894D01*
X2956Y12865D01*
X2960Y12835D01*
X2960Y12805D01*
X2956Y12775D01*
X2948Y12746D01*
X2937Y12718D01*
X2922Y12691D01*
X2904Y12667D01*
X2883Y12645D01*
X2859Y12626D01*
X2833Y12611D01*
X2806Y12599D01*
X2777Y12590D01*
X2747Y12585D01*
X2716Y12584D01*
X2686Y12587D01*
X2657Y12594D01*
X2628Y12604D01*
X2602Y12618D01*
X2577Y12635D01*
X2554Y12656D01*
X2535Y12679D01*
X2518Y12704D01*
X2505Y12731D01*
X2496Y12760D01*
X2490Y12790D01*
X2488Y12820D01*
D12*
X-266Y6024D02*
X-255Y1163D01*
X-315Y5000D02*
X-266Y6024D01*
X-366Y5000D01*
X-389Y5000D02*
X-266Y6024D01*
X-161Y5000D01*
X-138Y5000D02*
X-389Y5000D01*
X-212Y5000D02*
X-266Y6024D01*
X-138Y5000D01*
X-1053Y6022D02*
X3669Y6033D01*
X3666Y7407D02*
X-1056Y7397D01*
X-269Y7398D02*
X-374Y8422D01*
X-397Y8422D02*
X-269Y7398D01*
X-169Y8422D01*
X-146Y8422D02*
X-397Y8422D01*
X-323Y8422D02*
X-269Y7398D01*
X-220Y8422D01*
X-146Y8422D02*
X-269Y7398D01*
X-274Y9446D01*
X2291Y14300D02*
X2291Y19418D01*
X2291Y18631D02*
X3315Y18733D01*
X3315Y18757D02*
X3315Y18505D01*
X2291Y18631D01*
X3315Y18529D01*
X3315Y18580D02*
X2291Y18631D01*
X3315Y18682D01*
X3315Y18757D02*
X2291Y18631D01*
X21583Y18631D01*
X20559Y18529D01*
X20559Y18505D02*
X21583Y18631D01*
X20559Y18733D01*
X20559Y18757D02*
X20559Y18505D01*
X20559Y18580D02*
X21583Y18631D01*
X20559Y18682D01*
X20559Y18757D02*
X21583Y18631D01*
X21583Y19418D02*
X21583Y14300D01*
X21583Y13415D02*
X25913Y13415D01*
X25126Y13415D02*
X25228Y12391D01*
X25252Y12391D02*
X25126Y13415D01*
X25024Y12391D01*
X25000Y12391D02*
X25252Y12391D01*
X25177Y12391D02*
X25126Y13415D01*
X25075Y12391D01*
X25000Y12391D02*
X25126Y13415D01*
X25126Y8296D01*
X25228Y9320D01*
X25252Y9320D02*
X25126Y8296D01*
X25024Y9320D01*
X25000Y9320D02*
X25252Y9320D01*
X25177Y9320D02*
X25126Y8296D01*
X25075Y9320D01*
X25000Y9320D02*
X25126Y8296D01*
X25913Y8296D02*
X21583Y8296D01*
X20598Y6033D02*
X29850Y6033D01*
X29063Y6033D02*
X29165Y7056D01*
X29189Y7056D02*
X29063Y6033D01*
X28961Y7056D01*
X28937Y7056D02*
X29189Y7056D01*
X29114Y7056D02*
X29063Y6033D01*
X29012Y7056D01*
X28937Y7056D02*
X29063Y6033D01*
X29063Y15678D01*
X29165Y14655D01*
X29189Y14655D02*
X29063Y15678D01*
X28961Y14655D01*
X28937Y14655D02*
X29189Y14655D01*
X29114Y14655D02*
X29063Y15678D01*
X29012Y14655D01*
X28937Y14655D02*
X29063Y15678D01*
X29850Y15678D02*
X20598Y15678D01*
D13*
X23620Y11929D02*
X23831Y11929D01*
X24043Y11717D01*
X24254Y11929D01*
X24466Y11929D01*
X24677Y11717D01*
X24677Y11294D01*
X24466Y11083D01*
X24677Y10660D02*
X24677Y9814D01*
X24677Y10237D02*
X23408Y10237D01*
X23831Y9814D01*
X23620Y11083D02*
X23408Y11294D01*
X23408Y11717D01*
X23620Y11929D01*
X24043Y11717D02*
X24043Y11506D01*
X27345Y10895D02*
X27980Y10261D01*
X27980Y11107D01*
X28614Y10895D02*
X27345Y10895D01*
X28403Y11529D02*
X28403Y11741D01*
X28614Y11741D01*
X28614Y11529D01*
X28403Y11529D01*
X28403Y12164D02*
X28614Y12375D01*
X28614Y12798D01*
X28403Y13010D01*
X27980Y13010D01*
X27768Y12798D01*
X27768Y12587D01*
X27980Y12164D01*
X27345Y12164D01*
X27345Y13010D01*
X27557Y9838D02*
X27345Y9626D01*
X27345Y9203D01*
X27557Y8992D01*
X27768Y9838D02*
X28614Y8992D01*
X28614Y9838D01*
X27768Y9838D02*
X27557Y9838D01*
X13010Y19291D02*
X13010Y20137D01*
X12799Y20349D01*
X12376Y20349D01*
X12164Y20137D01*
X12164Y19926D01*
X12376Y19714D01*
X13010Y19714D01*
X13010Y19291D02*
X12799Y19080D01*
X12376Y19080D01*
X12164Y19291D01*
X11742Y19714D02*
X10896Y19714D01*
X11530Y20349D01*
X11530Y19080D01*
X1243Y4948D02*
X1455Y4737D01*
X1455Y4314D01*
X1244Y4102D01*
X1033Y4101D01*
X821Y4313D01*
X610Y4101D01*
X398Y4100D01*
X186Y4311D01*
X186Y4735D01*
X397Y4946D01*
X821Y4524D02*
X821Y4313D01*
X399Y3678D02*
X187Y3677D01*
X188Y3466D01*
X399Y3466D01*
X399Y3678D01*
X823Y3044D02*
X825Y2198D01*
X1037Y1775D02*
X826Y1564D01*
X827Y929D01*
X404Y928D02*
X1250Y930D01*
X1461Y1142D01*
X1460Y1565D01*
X1248Y1776D01*
X1037Y1775D01*
X402Y1774D02*
X191Y1563D01*
X192Y1139D01*
X404Y928D01*
X190Y2408D02*
X1459Y2411D01*
X823Y3044D01*
D14*
X5677Y8883D03*
X5677Y9867D03*
X3709Y10852D03*
X5677Y11836D03*
X5677Y12820D03*
D15*
X19406Y12349D03*
X20406Y12349D03*
X20406Y11349D03*
X19406Y11349D03*
X19406Y10349D03*
X20406Y10349D03*
X20406Y9349D03*
X19406Y9349D03*
D16*
X6228Y7824D03*
X5343Y7824D03*
X5343Y6997D03*
X6228Y6997D03*
D17*
X7294Y7065D03*
X7294Y7813D03*
X8580Y7819D03*
X8580Y7071D03*
X9969Y7067D03*
X9969Y7815D03*
X9191Y9849D03*
X9191Y10597D03*
X7191Y10607D03*
X7191Y9859D03*
X7191Y12659D03*
X7191Y13407D03*
X8191Y13407D03*
X8191Y12659D03*
X9191Y12659D03*
X9191Y13407D03*
X12590Y7814D03*
X12590Y7065D03*
D18*
X12957Y13433D03*
X13626Y13433D03*
X13626Y14433D03*
X12957Y14433D03*
X11526Y13433D03*
X10857Y13433D03*
D19*
X10590Y14441D03*
X11693Y14441D03*
D20*
X14410Y12898D03*
X7591Y8961D03*
D21*
X10050Y10181D03*
X10050Y10437D03*
X10050Y10693D03*
X10050Y10949D03*
X10050Y11205D03*
X10050Y11461D03*
X10050Y11717D03*
X10050Y11972D03*
X10050Y12228D03*
X10050Y12484D03*
X12333Y12484D03*
X12333Y12228D03*
X12333Y11972D03*
X12333Y11717D03*
X12333Y11461D03*
X12333Y11205D03*
X12333Y10949D03*
X12333Y10693D03*
X12333Y10437D03*
X12333Y10181D03*
D22*
X14770Y14061D03*
X14770Y15061D03*
D23*
X5236Y14512D03*
D24*
X6236Y14512D03*
X7236Y14512D03*
X8236Y14512D03*
X4711Y11823D03*
X4711Y10823D03*
X4711Y9823D03*
X13723Y7209D03*
X14723Y7209D03*
X15723Y7209D03*
X16723Y7209D03*
X17723Y7209D03*
X18723Y7209D03*
D25*
X11274Y7115D03*
X11274Y7784D03*
X8198Y9889D03*
X8198Y10558D03*
D26*
X16006Y9748D02*
X16006Y9158D01*
X17777Y9158D02*
X17777Y9748D01*
X17777Y11717D02*
X17777Y12307D01*
X16006Y12307D02*
X16006Y11717D01*
D27*
X18728Y13415D03*
X18728Y8296D03*
D28*
X18678Y8298D02*
X18028Y8298D01*
X18078Y8346D02*
X18678Y8346D01*
X18678Y8246D01*
X18778Y8246D01*
X18778Y7726D01*
X18773Y7727D01*
X18773Y7259D01*
X18673Y7259D01*
X18673Y7646D01*
X18678Y7646D01*
X18678Y8246D01*
X18078Y8246D01*
X18078Y8027D01*
X18452Y7654D01*
X18450Y7653D01*
X18384Y7605D01*
X18326Y7547D01*
X18278Y7481D01*
X18256Y7438D01*
X18215Y7537D01*
X18051Y7700D01*
X17838Y7789D01*
X17608Y7789D01*
X17534Y7758D01*
X17534Y8173D01*
X17743Y8173D01*
X17846Y8173D01*
X17942Y8212D01*
X18078Y8349D01*
X18078Y8346D01*
X18078Y8200D02*
X17911Y8200D01*
X18078Y8101D02*
X17534Y8101D01*
X17534Y8003D02*
X18103Y8003D01*
X18201Y7904D02*
X17534Y7904D01*
X17534Y7806D02*
X18300Y7806D01*
X18398Y7707D02*
X18035Y7707D01*
X18143Y7609D02*
X18389Y7609D01*
X18299Y7510D02*
X18226Y7510D01*
X18673Y7510D02*
X18773Y7510D01*
X18773Y7412D02*
X18673Y7412D01*
X18673Y7313D02*
X18773Y7313D01*
X18773Y7259D02*
X19239Y7259D01*
X19273Y7067D01*
X19446Y6768D01*
X19446Y6768D01*
X19710Y6546D01*
X20035Y6427D01*
X20381Y6427D01*
X20705Y6546D01*
X20705Y6546D01*
X20970Y6768D01*
X21143Y7067D01*
X21143Y7067D01*
X21203Y7407D01*
X21203Y7407D01*
X21143Y7748D01*
X20970Y8047D01*
X20970Y8047D01*
X20705Y8269D01*
X20381Y8387D01*
X20035Y8387D01*
X19710Y8269D01*
X19446Y8047D01*
X19273Y7748D01*
X19213Y7407D01*
X19222Y7356D01*
X19205Y7408D01*
X19168Y7481D01*
X19120Y7547D01*
X19062Y7605D01*
X19001Y7650D01*
X19378Y8027D01*
X19378Y8246D01*
X18778Y8246D01*
X18778Y8346D01*
X19378Y8346D01*
X19378Y8566D01*
X19175Y8769D01*
X19646Y8769D01*
X19948Y9071D01*
X20190Y8829D01*
X20356Y8829D01*
X20356Y9299D01*
X20456Y9299D01*
X20456Y9399D01*
X20926Y9399D01*
X20926Y9564D01*
X20683Y9806D01*
X20986Y10109D01*
X20986Y10589D01*
X20726Y10849D01*
X20986Y11109D01*
X20986Y11589D01*
X20726Y11849D01*
X20986Y12109D01*
X20986Y12589D01*
X20646Y12929D01*
X20165Y12929D01*
X19906Y12669D01*
X19646Y12929D01*
X19247Y12929D01*
X19438Y13120D01*
X19438Y13668D01*
X19442Y13661D01*
X19707Y13439D01*
X19707Y13439D01*
X20032Y13320D01*
X20378Y13320D01*
X20702Y13439D01*
X20967Y13661D01*
X21140Y13960D01*
X21200Y14300D01*
X21200Y14300D01*
X21140Y14641D01*
X20967Y14940D01*
X20702Y15162D01*
X20378Y15280D01*
X20032Y15280D01*
X19707Y15162D01*
X19442Y14940D01*
X19270Y14641D01*
X19210Y14300D01*
X19270Y13960D01*
X19383Y13764D01*
X19105Y14042D01*
X19105Y15366D01*
X19003Y15468D01*
X20205Y15468D01*
X20357Y15458D01*
X20652Y15379D01*
X20916Y15227D01*
X21131Y15011D01*
X21284Y14747D01*
X21347Y14511D01*
X21347Y14203D01*
X21373Y14177D01*
X21373Y13538D01*
X21347Y13512D01*
X21347Y13317D01*
X21373Y13291D01*
X21373Y8420D01*
X21347Y8394D01*
X21347Y8199D01*
X21373Y8173D01*
X21373Y7411D01*
X21363Y7258D01*
X21284Y6964D01*
X21131Y6700D01*
X20916Y6484D01*
X20652Y6332D01*
X20357Y6253D01*
X20205Y6243D01*
X3792Y6243D01*
X3766Y6268D01*
X3472Y6268D01*
X3219Y6339D01*
X2953Y6498D01*
X2737Y6721D01*
X2585Y6991D01*
X2540Y7169D01*
X2713Y7170D01*
X2731Y7067D01*
X2904Y6768D01*
X2904Y6768D01*
X3169Y6546D01*
X3493Y6427D01*
X3839Y6427D01*
X4164Y6546D01*
X4428Y6768D01*
X4428Y6768D01*
X4601Y7067D01*
X4661Y7407D01*
X4661Y7407D01*
X4601Y7748D01*
X4428Y8047D01*
X4164Y8269D01*
X3839Y8387D01*
X3493Y8387D01*
X3169Y8269D01*
X3169Y8269D01*
X2904Y8047D01*
X2731Y7748D01*
X2731Y7748D01*
X2712Y7641D01*
X2501Y7640D01*
X2501Y8492D01*
X2636Y8437D01*
X2813Y8437D01*
X2977Y8505D01*
X3103Y8630D01*
X3171Y8794D01*
X3171Y8972D01*
X3103Y9136D01*
X2977Y9261D01*
X2813Y9329D01*
X2636Y9329D01*
X2501Y9274D01*
X2501Y12429D01*
X2636Y12374D01*
X2813Y12374D01*
X2977Y12442D01*
X3103Y12567D01*
X3171Y12731D01*
X3171Y12909D01*
X3103Y13073D01*
X2977Y13198D01*
X2813Y13266D01*
X2636Y13266D01*
X2501Y13211D01*
X2501Y14177D01*
X2527Y14203D01*
X2527Y14511D01*
X2590Y14747D01*
X2743Y15011D01*
X2958Y15227D01*
X3222Y15379D01*
X3517Y15458D01*
X3669Y15468D01*
X14576Y15468D01*
X14515Y15443D01*
X14403Y15331D01*
X14183Y15331D01*
X14134Y15333D01*
X14130Y15331D01*
X14125Y15331D01*
X14080Y15312D01*
X14033Y15295D01*
X14030Y15292D01*
X14026Y15290D01*
X13991Y15255D01*
X13740Y15018D01*
X13678Y15080D01*
X13605Y15153D01*
X13509Y15193D01*
X12340Y15193D01*
X12244Y15153D01*
X12171Y15080D01*
X12071Y14980D01*
X12054Y14938D01*
X12027Y14945D01*
X11743Y14945D01*
X11743Y14491D01*
X11643Y14491D01*
X11643Y14945D01*
X11358Y14945D01*
X11320Y14935D01*
X11285Y14915D01*
X11258Y14887D01*
X11238Y14853D01*
X11228Y14815D01*
X11228Y14491D01*
X11643Y14491D01*
X11643Y14391D01*
X11743Y14391D01*
X11743Y13936D01*
X12027Y13936D01*
X12031Y13937D01*
X12031Y13081D01*
X12071Y12985D01*
X12144Y12912D01*
X12363Y12693D01*
X12333Y12693D01*
X12077Y12693D01*
X12039Y12683D01*
X12005Y12663D01*
X11977Y12635D01*
X11957Y12601D01*
X11947Y12563D01*
X11947Y12484D01*
X11947Y12434D01*
X11887Y12374D01*
X11887Y11977D01*
X11424Y11977D01*
X11328Y11937D01*
X11179Y11788D01*
X11179Y11998D01*
X11133Y12045D01*
X11156Y12045D01*
X11279Y12168D01*
X11279Y12698D01*
X11156Y12821D01*
X10813Y12821D01*
X10880Y12927D01*
X11200Y12927D01*
X11260Y12987D01*
X11476Y12987D01*
X11476Y13383D01*
X11576Y13383D01*
X11576Y13483D01*
X11476Y13483D01*
X11476Y13878D01*
X11260Y13878D01*
X11200Y13938D01*
X11054Y13938D01*
X11115Y13999D01*
X11115Y14882D01*
X10992Y15005D01*
X10188Y15005D01*
X10065Y14882D01*
X10065Y14545D01*
X10034Y14543D01*
X9960Y14618D01*
X9429Y14618D01*
X9306Y14495D01*
X9306Y14209D01*
X8971Y13874D01*
X8971Y13873D01*
X8789Y13873D01*
X8691Y13775D01*
X8593Y13873D01*
X7951Y13873D01*
X7951Y14076D01*
X7964Y14067D01*
X8036Y14030D01*
X8114Y14005D01*
X8186Y13993D01*
X8186Y14462D01*
X8286Y14462D01*
X8286Y14562D01*
X8186Y14562D01*
X8186Y15030D01*
X8114Y15019D01*
X8036Y14994D01*
X7964Y14957D01*
X7897Y14908D01*
X7839Y14851D01*
X7791Y14784D01*
X7769Y14741D01*
X7728Y14840D01*
X7565Y15003D01*
X7351Y15092D01*
X7121Y15092D01*
X6908Y15003D01*
X6744Y14840D01*
X6736Y14820D01*
X6728Y14840D01*
X6565Y15003D01*
X6351Y15092D01*
X6121Y15092D01*
X5908Y15003D01*
X5816Y14912D01*
X5816Y14969D01*
X5693Y15092D01*
X4779Y15092D01*
X4656Y14969D01*
X4656Y14333D01*
X4601Y14644D01*
X4428Y14943D01*
X4428Y14943D01*
X4164Y15165D01*
X4164Y15165D01*
X3839Y15284D01*
X3493Y15284D01*
X3169Y15165D01*
X3169Y15165D01*
X2904Y14943D01*
X2731Y14644D01*
X2731Y14644D01*
X2671Y14304D01*
X2671Y14304D01*
X2731Y13963D01*
X2904Y13664D01*
X2904Y13664D01*
X3169Y13442D01*
X3493Y13324D01*
X3839Y13324D01*
X4164Y13442D01*
X4428Y13664D01*
X4428Y13664D01*
X4601Y13963D01*
X4656Y14274D01*
X4656Y14055D01*
X4779Y13932D01*
X4909Y13932D01*
X4362Y13386D01*
X4321Y13286D01*
X4321Y12944D01*
X4155Y12778D01*
X4155Y12909D01*
X4087Y13073D01*
X3961Y13198D01*
X3797Y13266D01*
X3620Y13266D01*
X3456Y13198D01*
X3330Y13073D01*
X3262Y12909D01*
X3262Y12731D01*
X3330Y12567D01*
X3456Y12442D01*
X3620Y12374D01*
X3751Y12374D01*
X2762Y11386D01*
X2721Y11286D01*
X2721Y10379D01*
X2762Y10280D01*
X2838Y10204D01*
X3138Y9904D01*
X3238Y9863D01*
X4131Y9863D01*
X4131Y9707D01*
X4220Y9494D01*
X4383Y9331D01*
X4596Y9243D01*
X4679Y9243D01*
X4679Y7062D01*
X4720Y6962D01*
X4896Y6786D01*
X4896Y6674D01*
X5019Y6551D01*
X5666Y6551D01*
X5785Y6671D01*
X5905Y6551D01*
X6552Y6551D01*
X6675Y6674D01*
X6675Y7320D01*
X6584Y7411D01*
X6675Y7501D01*
X6675Y7663D01*
X6769Y7663D01*
X6769Y7470D01*
X6800Y7439D01*
X6769Y7408D01*
X6769Y6722D01*
X6892Y6599D01*
X7373Y6599D01*
X7595Y6373D01*
X7596Y6372D01*
X7633Y6335D01*
X7669Y6297D01*
X7671Y6297D01*
X7671Y6296D01*
X7720Y6276D01*
X7768Y6255D01*
X7770Y6255D01*
X7771Y6255D01*
X7823Y6255D01*
X7876Y6254D01*
X7877Y6255D01*
X9038Y6255D01*
X9137Y6296D01*
X9273Y6432D01*
X9545Y6432D01*
X9668Y6555D01*
X9668Y6661D01*
X9919Y6661D01*
X9919Y7017D01*
X10019Y7017D01*
X10019Y7117D01*
X10433Y7117D01*
X10433Y7342D01*
X10423Y7380D01*
X10416Y7394D01*
X10493Y7472D01*
X10493Y8158D01*
X10389Y8262D01*
X10389Y8405D01*
X10507Y8523D01*
X10507Y9054D01*
X10384Y9177D01*
X9983Y9177D01*
X9983Y9513D01*
X10156Y9513D01*
X11479Y8190D01*
X11324Y8190D01*
X11324Y7834D01*
X11719Y7834D01*
X11719Y7950D01*
X12015Y7654D01*
X12017Y7650D01*
X12052Y7617D01*
X12065Y7604D01*
X12065Y7471D01*
X12096Y7439D01*
X12065Y7408D01*
X12065Y7315D01*
X11779Y7315D01*
X11779Y7458D01*
X11719Y7518D01*
X11719Y7734D01*
X11324Y7734D01*
X11324Y7834D01*
X11224Y7834D01*
X11224Y7734D01*
X10829Y7734D01*
X10829Y7518D01*
X10769Y7458D01*
X10769Y6772D01*
X10892Y6649D01*
X11656Y6649D01*
X11779Y6772D01*
X11779Y6795D01*
X12065Y6795D01*
X12065Y6723D01*
X12188Y6600D01*
X12668Y6600D01*
X12793Y6472D01*
X12793Y6470D01*
X12830Y6433D01*
X12867Y6396D01*
X12868Y6395D01*
X12869Y6394D01*
X12917Y6374D01*
X12965Y6354D01*
X12967Y6354D01*
X12968Y6353D01*
X13020Y6353D01*
X13073Y6353D01*
X13074Y6353D01*
X14156Y6353D01*
X14255Y6394D01*
X14331Y6470D01*
X14524Y6663D01*
X14608Y6629D01*
X14838Y6629D01*
X15051Y6717D01*
X15215Y6880D01*
X15223Y6900D01*
X15231Y6880D01*
X15394Y6717D01*
X15608Y6629D01*
X15838Y6629D01*
X16051Y6717D01*
X16215Y6880D01*
X16223Y6900D01*
X16231Y6880D01*
X16394Y6717D01*
X16608Y6629D01*
X16838Y6629D01*
X17051Y6717D01*
X17215Y6880D01*
X17223Y6900D01*
X17231Y6880D01*
X17394Y6717D01*
X17608Y6629D01*
X17838Y6629D01*
X18051Y6717D01*
X18215Y6880D01*
X18256Y6980D01*
X18278Y6936D01*
X18326Y6870D01*
X18384Y6812D01*
X18450Y6764D01*
X18523Y6727D01*
X18601Y6702D01*
X18673Y6690D01*
X18673Y7159D01*
X18773Y7159D01*
X18773Y7259D01*
X18773Y7215D02*
X19247Y7215D01*
X19242Y7159D02*
X18773Y7159D01*
X18773Y6690D01*
X18845Y6702D01*
X18923Y6727D01*
X18995Y6764D01*
X19062Y6812D01*
X19120Y6870D01*
X19168Y6936D01*
X19205Y7009D01*
X19230Y7087D01*
X19242Y7159D01*
X19235Y7116D02*
X19264Y7116D01*
X19273Y7067D02*
X19273Y7067D01*
X19301Y7018D02*
X19208Y7018D01*
X19155Y6919D02*
X19358Y6919D01*
X19415Y6821D02*
X19070Y6821D01*
X18908Y6722D02*
X19500Y6722D01*
X19617Y6624D02*
X14485Y6624D01*
X14386Y6525D02*
X19767Y6525D01*
X19710Y6546D02*
X19710Y6546D01*
X20649Y6525D02*
X20957Y6525D01*
X21055Y6624D02*
X20798Y6624D01*
X20916Y6722D02*
X21144Y6722D01*
X21201Y6821D02*
X21001Y6821D01*
X20970Y6768D02*
X20970Y6768D01*
X20970Y6768D01*
X21058Y6919D02*
X21258Y6919D01*
X21298Y7018D02*
X21114Y7018D01*
X21152Y7116D02*
X21325Y7116D01*
X21351Y7215D02*
X21169Y7215D01*
X21186Y7313D02*
X21366Y7313D01*
X21373Y7412D02*
X21202Y7412D01*
X21185Y7510D02*
X21373Y7510D01*
X21373Y7609D02*
X21168Y7609D01*
X21150Y7707D02*
X21373Y7707D01*
X21373Y7806D02*
X21110Y7806D01*
X21143Y7748D02*
X21143Y7748D01*
X21053Y7904D02*
X21373Y7904D01*
X21373Y8003D02*
X20996Y8003D01*
X20906Y8101D02*
X21373Y8101D01*
X21347Y8200D02*
X20788Y8200D01*
X20705Y8269D02*
X20705Y8269D01*
X20626Y8298D02*
X21347Y8298D01*
X21350Y8397D02*
X19378Y8397D01*
X19378Y8495D02*
X21373Y8495D01*
X21373Y8594D02*
X19350Y8594D01*
X19252Y8692D02*
X21373Y8692D01*
X21373Y8791D02*
X19668Y8791D01*
X19766Y8889D02*
X20130Y8889D01*
X20031Y8988D02*
X19865Y8988D01*
X20356Y8988D02*
X20456Y8988D01*
X20456Y9086D02*
X20356Y9086D01*
X20356Y9185D02*
X20456Y9185D01*
X20456Y9283D02*
X20356Y9283D01*
X20456Y9299D02*
X20456Y8829D01*
X20621Y8829D01*
X20926Y9133D01*
X20926Y9299D01*
X20456Y9299D01*
X20456Y9382D02*
X21373Y9382D01*
X21373Y9480D02*
X20926Y9480D01*
X20911Y9579D02*
X21373Y9579D01*
X21373Y9677D02*
X20813Y9677D01*
X20714Y9776D02*
X21373Y9776D01*
X21373Y9874D02*
X20751Y9874D01*
X20850Y9973D02*
X21373Y9973D01*
X21373Y10071D02*
X20948Y10071D01*
X20986Y10170D02*
X21373Y10170D01*
X21373Y10268D02*
X20986Y10268D01*
X20986Y10367D02*
X21373Y10367D01*
X21373Y10465D02*
X20986Y10465D01*
X20986Y10564D02*
X21373Y10564D01*
X21373Y10662D02*
X20912Y10662D01*
X20814Y10761D02*
X21373Y10761D01*
X21373Y10859D02*
X20736Y10859D01*
X20835Y10958D02*
X21373Y10958D01*
X21373Y11056D02*
X20933Y11056D01*
X20986Y11155D02*
X21373Y11155D01*
X21373Y11253D02*
X20986Y11253D01*
X20986Y11352D02*
X21373Y11352D01*
X21373Y11450D02*
X20986Y11450D01*
X20986Y11549D02*
X21373Y11549D01*
X21373Y11647D02*
X20927Y11647D01*
X20829Y11746D02*
X21373Y11746D01*
X21373Y11844D02*
X20730Y11844D01*
X20820Y11943D02*
X21373Y11943D01*
X21373Y12041D02*
X20918Y12041D01*
X20986Y12140D02*
X21373Y12140D01*
X21373Y12238D02*
X20986Y12238D01*
X20986Y12337D02*
X21373Y12337D01*
X21373Y12435D02*
X20986Y12435D01*
X20986Y12534D02*
X21373Y12534D01*
X21373Y12632D02*
X20942Y12632D01*
X20844Y12731D02*
X21373Y12731D01*
X21373Y12829D02*
X20745Y12829D01*
X20647Y12928D02*
X21373Y12928D01*
X21373Y13026D02*
X19344Y13026D01*
X19438Y13125D02*
X21373Y13125D01*
X21373Y13223D02*
X19438Y13223D01*
X19438Y13322D02*
X20028Y13322D01*
X19758Y13420D02*
X19438Y13420D01*
X19438Y13519D02*
X19612Y13519D01*
X19494Y13617D02*
X19438Y13617D01*
X19442Y13661D02*
X19442Y13661D01*
X19354Y13814D02*
X19333Y13814D01*
X19297Y13913D02*
X19234Y13913D01*
X19270Y13960D02*
X19270Y13960D01*
X19261Y14011D02*
X19136Y14011D01*
X19105Y14110D02*
X19243Y14110D01*
X19226Y14208D02*
X19105Y14208D01*
X19105Y14307D02*
X19211Y14307D01*
X19210Y14300D02*
X19210Y14300D01*
X19228Y14405D02*
X19105Y14405D01*
X19105Y14504D02*
X19245Y14504D01*
X19263Y14602D02*
X19105Y14602D01*
X19105Y14701D02*
X19304Y14701D01*
X19270Y14641D02*
X19270Y14641D01*
X19361Y14799D02*
X19105Y14799D01*
X19105Y14898D02*
X19418Y14898D01*
X19442Y14940D02*
X19442Y14940D01*
X19442Y14940D01*
X19509Y14996D02*
X19105Y14996D01*
X19105Y15095D02*
X19627Y15095D01*
X19707Y15162D02*
X19707Y15162D01*
X19792Y15193D02*
X19105Y15193D01*
X19105Y15292D02*
X20804Y15292D01*
X20702Y15162D02*
X20702Y15162D01*
X20617Y15193D02*
X20950Y15193D01*
X21048Y15095D02*
X20783Y15095D01*
X20900Y14996D02*
X21140Y14996D01*
X21197Y14898D02*
X20992Y14898D01*
X20967Y14940D02*
X20967Y14940D01*
X21048Y14799D02*
X21254Y14799D01*
X21296Y14701D02*
X21105Y14701D01*
X21140Y14641D02*
X21140Y14641D01*
X21147Y14602D02*
X21323Y14602D01*
X21347Y14504D02*
X21164Y14504D01*
X21181Y14405D02*
X21347Y14405D01*
X21347Y14307D02*
X21199Y14307D01*
X21184Y14208D02*
X21347Y14208D01*
X21373Y14110D02*
X21166Y14110D01*
X21149Y14011D02*
X21373Y14011D01*
X21373Y13913D02*
X21113Y13913D01*
X21140Y13960D02*
X21140Y13960D01*
X21056Y13814D02*
X21373Y13814D01*
X21373Y13716D02*
X20999Y13716D01*
X20967Y13661D02*
X20967Y13661D01*
X20967Y13661D01*
X20915Y13617D02*
X21373Y13617D01*
X21354Y13519D02*
X20798Y13519D01*
X20702Y13439D02*
X20702Y13439D01*
X20652Y13420D02*
X21347Y13420D01*
X21347Y13322D02*
X20381Y13322D01*
X20164Y12928D02*
X19647Y12928D01*
X19745Y12829D02*
X20066Y12829D01*
X19967Y12731D02*
X19844Y12731D01*
X19406Y12349D02*
X19223Y12433D01*
X18691Y12433D01*
X18291Y12833D01*
X17191Y12833D01*
X16991Y12633D01*
X16603Y12632D02*
X16395Y12632D01*
X16434Y12594D02*
X16292Y12736D01*
X16106Y12813D01*
X15905Y12813D01*
X15719Y12736D01*
X15577Y12594D01*
X15500Y12408D01*
X15500Y11616D01*
X15577Y11431D01*
X15609Y11399D01*
X14346Y11399D01*
X14250Y11359D01*
X14177Y11286D01*
X14100Y11209D01*
X13347Y11209D01*
X13898Y11760D01*
X13920Y11738D01*
X14450Y11738D01*
X14573Y11861D01*
X14573Y12390D01*
X14615Y12403D01*
X14633Y12412D01*
X14392Y12830D01*
X13975Y12589D01*
X14003Y12550D01*
X14039Y12514D01*
X13920Y12514D01*
X13851Y12446D01*
X13851Y12927D01*
X13876Y12927D01*
X13876Y12856D01*
X13890Y12773D01*
X13916Y12693D01*
X13925Y12675D01*
X14342Y12916D01*
X14392Y12830D01*
X14479Y12880D01*
X14429Y12966D01*
X14846Y13207D01*
X14817Y13246D01*
X14758Y13305D01*
X14690Y13355D01*
X14615Y13393D01*
X14535Y13419D01*
X14496Y13425D01*
X14529Y13439D01*
X14702Y13611D01*
X14859Y13611D01*
X15005Y13672D01*
X15058Y13619D01*
X18018Y13619D01*
X18018Y13120D01*
X18046Y13093D01*
X17140Y13093D01*
X17044Y13053D01*
X17012Y13021D01*
X16726Y13021D01*
X16603Y12898D01*
X16603Y12368D01*
X16726Y12245D01*
X17256Y12245D01*
X17332Y12320D01*
X17332Y12061D01*
X17729Y12061D01*
X17729Y11964D01*
X17332Y11964D01*
X17332Y11682D01*
X17343Y11613D01*
X17365Y11546D01*
X17393Y11491D01*
X17138Y11491D01*
X17043Y11451D01*
X16969Y11378D01*
X16584Y10993D01*
X16121Y10993D01*
X15956Y11212D01*
X16106Y11212D01*
X16292Y11289D01*
X16434Y11431D01*
X16511Y11616D01*
X16511Y12408D01*
X16434Y12594D01*
X16459Y12534D02*
X16603Y12534D01*
X16603Y12435D02*
X16500Y12435D01*
X16511Y12337D02*
X16634Y12337D01*
X16511Y12238D02*
X17332Y12238D01*
X17332Y12140D02*
X16511Y12140D01*
X16511Y12041D02*
X17729Y12041D01*
X17826Y12041D02*
X18531Y12041D01*
X18541Y12051D02*
X18222Y11733D01*
X18222Y11964D01*
X17826Y11964D01*
X17826Y12061D01*
X18222Y12061D01*
X18222Y12342D01*
X18212Y12412D01*
X18190Y12478D01*
X18158Y12541D01*
X18135Y12573D01*
X18184Y12573D01*
X18471Y12285D01*
X18544Y12212D01*
X18640Y12173D01*
X18826Y12173D01*
X18826Y12109D01*
X18843Y12091D01*
X18637Y12091D01*
X18541Y12051D01*
X18432Y11943D02*
X18222Y11943D01*
X18222Y11844D02*
X18334Y11844D01*
X18235Y11746D02*
X18222Y11746D01*
X18222Y12140D02*
X18826Y12140D01*
X18518Y12238D02*
X18222Y12238D01*
X18222Y12337D02*
X18420Y12337D01*
X18321Y12435D02*
X18204Y12435D01*
X18223Y12534D02*
X18162Y12534D01*
X18018Y13125D02*
X14703Y13125D01*
X14732Y13026D02*
X14532Y13026D01*
X14562Y12928D02*
X14451Y12928D01*
X14479Y12880D02*
X14896Y13121D01*
X14905Y13103D01*
X14931Y13023D01*
X14944Y12940D01*
X14944Y12856D01*
X14931Y12773D01*
X14905Y12693D01*
X14867Y12618D01*
X14817Y12550D01*
X14758Y12491D01*
X14719Y12463D01*
X14479Y12880D01*
X14508Y12829D02*
X14392Y12829D01*
X14391Y12829D02*
X14191Y12829D01*
X14220Y12731D02*
X14020Y12731D01*
X14050Y12632D02*
X13851Y12632D01*
X13851Y12534D02*
X14020Y12534D01*
X13903Y12731D02*
X13851Y12731D01*
X13851Y12829D02*
X13881Y12829D01*
X13331Y12829D02*
X12963Y12829D01*
X13012Y12780D02*
X12804Y12987D01*
X12907Y12987D01*
X12907Y13383D01*
X13007Y13383D01*
X13007Y12987D01*
X13223Y12987D01*
X13283Y12927D01*
X13331Y12927D01*
X13331Y12340D01*
X13223Y12232D01*
X13031Y12232D01*
X13051Y12281D01*
X13051Y12684D01*
X13012Y12780D01*
X13032Y12731D02*
X13331Y12731D01*
X13331Y12632D02*
X13051Y12632D01*
X13051Y12534D02*
X13331Y12534D01*
X13331Y12435D02*
X13051Y12435D01*
X13051Y12337D02*
X13328Y12337D01*
X13229Y12238D02*
X13034Y12238D01*
X12791Y12333D02*
X12687Y12228D01*
X12333Y12228D01*
X12333Y11972D02*
X13331Y11972D01*
X13591Y12233D01*
X13591Y13398D01*
X13283Y12928D02*
X12864Y12928D01*
X12907Y13026D02*
X13007Y13026D01*
X13007Y13125D02*
X12907Y13125D01*
X12907Y13223D02*
X13007Y13223D01*
X13007Y13322D02*
X12907Y13322D01*
X12907Y13483D02*
X12907Y13878D01*
X12681Y13878D01*
X12643Y13868D01*
X12609Y13848D01*
X12581Y13820D01*
X12561Y13786D01*
X12551Y13750D01*
X12551Y14116D01*
X12561Y14079D01*
X12581Y14045D01*
X12609Y14017D01*
X12643Y13998D01*
X12681Y13987D01*
X12907Y13987D01*
X12907Y14383D01*
X13007Y14383D01*
X13007Y13987D01*
X13223Y13987D01*
X13278Y13933D01*
X13223Y13878D01*
X13007Y13878D01*
X13007Y13483D01*
X12907Y13483D01*
X12907Y13519D02*
X13007Y13519D01*
X13007Y13617D02*
X12907Y13617D01*
X12907Y13716D02*
X13007Y13716D01*
X13007Y13814D02*
X12907Y13814D01*
X12907Y14011D02*
X13007Y14011D01*
X13007Y14110D02*
X12907Y14110D01*
X12907Y14208D02*
X13007Y14208D01*
X13007Y14307D02*
X12907Y14307D01*
X12553Y14110D02*
X12551Y14110D01*
X12551Y14011D02*
X12619Y14011D01*
X12551Y13913D02*
X13258Y13913D01*
X12577Y13814D02*
X12551Y13814D01*
X12031Y13814D02*
X11905Y13814D01*
X11902Y13820D02*
X11922Y13786D01*
X11932Y13748D01*
X11932Y13483D01*
X11576Y13483D01*
X11576Y13878D01*
X11802Y13878D01*
X11840Y13868D01*
X11874Y13848D01*
X11902Y13820D01*
X11932Y13716D02*
X12031Y13716D01*
X12031Y13617D02*
X11932Y13617D01*
X11932Y13519D02*
X12031Y13519D01*
X12031Y13420D02*
X11576Y13420D01*
X11576Y13383D02*
X11932Y13383D01*
X11932Y13118D01*
X11922Y13079D01*
X11902Y13045D01*
X11874Y13017D01*
X11840Y12998D01*
X11802Y12987D01*
X11576Y12987D01*
X11576Y13383D01*
X11576Y13322D02*
X11476Y13322D01*
X11476Y13223D02*
X11576Y13223D01*
X11576Y13125D02*
X11476Y13125D01*
X11476Y13026D02*
X11576Y13026D01*
X11883Y13026D02*
X12054Y13026D01*
X12031Y13125D02*
X11932Y13125D01*
X11932Y13223D02*
X12031Y13223D01*
X12031Y13322D02*
X11932Y13322D01*
X12291Y13133D02*
X12291Y14833D01*
X12391Y14933D01*
X13458Y14933D01*
X13747Y14643D01*
X14092Y14608D02*
X14092Y14050D01*
X13979Y13938D01*
X14264Y13938D01*
X14320Y13993D01*
X14320Y14151D01*
X14388Y14316D01*
X14515Y14443D01*
X14680Y14511D01*
X14859Y14511D01*
X14935Y14480D01*
X14935Y14643D01*
X14859Y14611D01*
X14680Y14611D01*
X14515Y14680D01*
X14403Y14791D01*
X14286Y14791D01*
X14092Y14608D01*
X14092Y14602D02*
X14935Y14602D01*
X14935Y14504D02*
X14878Y14504D01*
X14662Y14504D02*
X14092Y14504D01*
X14092Y14405D02*
X14477Y14405D01*
X14384Y14307D02*
X14092Y14307D01*
X14092Y14208D02*
X14343Y14208D01*
X14320Y14110D02*
X14092Y14110D01*
X14053Y14011D02*
X14320Y14011D01*
X14609Y13519D02*
X18018Y13519D01*
X18018Y13617D02*
X14873Y13617D01*
X14735Y13322D02*
X18018Y13322D01*
X18018Y13420D02*
X14526Y13420D01*
X14834Y13223D02*
X18018Y13223D01*
X17017Y13026D02*
X14930Y13026D01*
X14944Y12928D02*
X16633Y12928D01*
X16603Y12829D02*
X14940Y12829D01*
X14917Y12731D02*
X15714Y12731D01*
X15616Y12632D02*
X14874Y12632D01*
X14801Y12534D02*
X15552Y12534D01*
X15512Y12435D02*
X14620Y12435D01*
X14573Y12337D02*
X15500Y12337D01*
X15500Y12238D02*
X14573Y12238D01*
X14573Y12140D02*
X15500Y12140D01*
X15500Y12041D02*
X14573Y12041D01*
X14573Y11943D02*
X15500Y11943D01*
X15500Y11844D02*
X14556Y11844D01*
X14458Y11746D02*
X15500Y11746D01*
X15500Y11647D02*
X13785Y11647D01*
X13687Y11549D02*
X15528Y11549D01*
X15569Y11450D02*
X13588Y11450D01*
X13490Y11352D02*
X14243Y11352D01*
X14144Y11253D02*
X13391Y11253D01*
X12975Y11205D02*
X13906Y12135D01*
X13914Y12126D01*
X14185Y12126D01*
X13913Y11746D02*
X13884Y11746D01*
X14398Y11139D02*
X15685Y11139D01*
X15991Y10733D01*
X16691Y10733D01*
X17190Y11231D01*
X18088Y11231D01*
X18688Y11831D01*
X19996Y11831D01*
X20406Y12241D01*
X20406Y12349D01*
X20406Y11349D02*
X20406Y11241D01*
X19996Y10831D01*
X18996Y10831D01*
X18498Y10333D01*
X18291Y10333D01*
X18190Y10434D01*
X17193Y10434D01*
X16591Y9833D01*
X16591Y8933D01*
X16291Y8633D01*
X15691Y8633D01*
X15091Y9233D01*
X12391Y9233D01*
X10675Y10949D01*
X10050Y10949D01*
X10050Y11205D02*
X9763Y11205D01*
X9091Y10533D01*
X9191Y10597D01*
X9254Y11063D02*
X8789Y11063D01*
X8666Y10940D01*
X8666Y10268D01*
X8666Y10268D01*
X8643Y10291D01*
X8643Y10508D01*
X8248Y10508D01*
X8248Y10608D01*
X8643Y10608D01*
X8643Y10833D01*
X8633Y10872D01*
X8613Y10906D01*
X8585Y10934D01*
X8551Y10954D01*
X8513Y10964D01*
X8248Y10964D01*
X8248Y10608D01*
X8148Y10608D01*
X8148Y10964D01*
X7951Y10964D01*
X7951Y11545D01*
X8156Y11545D01*
X8234Y11622D01*
X8616Y11240D01*
X8712Y11201D01*
X9392Y11201D01*
X9254Y11063D01*
X9346Y11155D02*
X7951Y11155D01*
X7951Y11253D02*
X8603Y11253D01*
X8505Y11352D02*
X7951Y11352D01*
X7951Y11450D02*
X8406Y11450D01*
X8308Y11549D02*
X8161Y11549D01*
X8198Y11326D02*
X8198Y10558D01*
X8248Y10564D02*
X8666Y10564D01*
X8666Y10662D02*
X8643Y10662D01*
X8643Y10761D02*
X8666Y10761D01*
X8666Y10859D02*
X8636Y10859D01*
X8684Y10958D02*
X8535Y10958D01*
X8782Y11056D02*
X7951Y11056D01*
X8148Y10958D02*
X8248Y10958D01*
X8248Y10859D02*
X8148Y10859D01*
X8148Y10761D02*
X8248Y10761D01*
X8248Y10662D02*
X8148Y10662D01*
X8643Y10465D02*
X8666Y10465D01*
X8666Y10367D02*
X8643Y10367D01*
X8198Y9889D02*
X8142Y9833D01*
X7991Y9833D01*
X7691Y10133D01*
X7691Y11533D01*
X7491Y11733D01*
X7491Y12083D01*
X7691Y12283D01*
X7691Y14033D01*
X7236Y14488D01*
X7236Y14512D01*
X7745Y14799D02*
X7802Y14799D01*
X7887Y14898D02*
X7670Y14898D01*
X7572Y14996D02*
X8044Y14996D01*
X8186Y14996D02*
X8286Y14996D01*
X8286Y15030D02*
X8286Y14562D01*
X8755Y14562D01*
X8743Y14634D01*
X8718Y14711D01*
X8681Y14784D01*
X8633Y14851D01*
X8575Y14908D01*
X8509Y14957D01*
X8436Y14994D01*
X8358Y15019D01*
X8286Y15030D01*
X8286Y14898D02*
X8186Y14898D01*
X8186Y14799D02*
X8286Y14799D01*
X8286Y14701D02*
X8186Y14701D01*
X8186Y14602D02*
X8286Y14602D01*
X8286Y14504D02*
X9315Y14504D01*
X9306Y14405D02*
X8746Y14405D01*
X8743Y14390D02*
X8755Y14462D01*
X8286Y14462D01*
X8286Y13993D01*
X8358Y14005D01*
X8436Y14030D01*
X8509Y14067D01*
X8575Y14115D01*
X8633Y14173D01*
X8681Y14239D01*
X8718Y14312D01*
X8743Y14390D01*
X8715Y14307D02*
X9306Y14307D01*
X9305Y14208D02*
X8658Y14208D01*
X8567Y14110D02*
X9207Y14110D01*
X9108Y14011D02*
X8378Y14011D01*
X8286Y14011D02*
X8186Y14011D01*
X8094Y14011D02*
X7951Y14011D01*
X7951Y13913D02*
X9010Y13913D01*
X9191Y13726D02*
X9695Y14229D01*
X9975Y14602D02*
X10065Y14602D01*
X10065Y14701D02*
X8721Y14701D01*
X8748Y14602D02*
X9414Y14602D01*
X10065Y14799D02*
X8670Y14799D01*
X8586Y14898D02*
X10081Y14898D01*
X10180Y14996D02*
X8428Y14996D01*
X8286Y14405D02*
X8186Y14405D01*
X8186Y14307D02*
X8286Y14307D01*
X8286Y14208D02*
X8186Y14208D01*
X8186Y14110D02*
X8286Y14110D01*
X8652Y13814D02*
X8731Y13814D01*
X9191Y13726D02*
X9191Y13407D01*
X8191Y13407D01*
X8191Y12659D02*
X8191Y12233D01*
X7891Y11933D01*
X8291Y11933D01*
X8763Y11461D01*
X10050Y11461D01*
X10050Y11717D02*
X10875Y11717D01*
X10791Y11733D01*
X11179Y11844D02*
X11235Y11844D01*
X11179Y11943D02*
X11342Y11943D01*
X11252Y12140D02*
X11887Y12140D01*
X11887Y12238D02*
X11279Y12238D01*
X11279Y12337D02*
X11887Y12337D01*
X11947Y12435D02*
X11279Y12435D01*
X11279Y12534D02*
X11947Y12534D01*
X11947Y12484D02*
X11997Y12484D01*
X11997Y12484D01*
X11947Y12484D01*
X11975Y12632D02*
X11279Y12632D01*
X11247Y12731D02*
X12326Y12731D01*
X12333Y12693D02*
X12333Y12497D01*
X12333Y12497D01*
X12333Y12693D01*
X12333Y12632D02*
X12333Y12632D01*
X12333Y12534D02*
X12333Y12534D01*
X12791Y12633D02*
X12791Y12333D01*
X12791Y12633D02*
X12291Y13133D01*
X12129Y12928D02*
X11200Y12928D01*
X10818Y12829D02*
X12227Y12829D01*
X11576Y13519D02*
X11476Y13519D01*
X11476Y13617D02*
X11576Y13617D01*
X11576Y13716D02*
X11476Y13716D01*
X11476Y13814D02*
X11576Y13814D01*
X11643Y13936D02*
X11358Y13936D01*
X11320Y13946D01*
X11285Y13966D01*
X11258Y13994D01*
X11238Y14028D01*
X11228Y14066D01*
X11228Y14391D01*
X11643Y14391D01*
X11643Y13936D01*
X11643Y14011D02*
X11743Y14011D01*
X11743Y14110D02*
X11643Y14110D01*
X11643Y14208D02*
X11743Y14208D01*
X11743Y14307D02*
X11643Y14307D01*
X11643Y14405D02*
X11115Y14405D01*
X11115Y14307D02*
X11228Y14307D01*
X11228Y14208D02*
X11115Y14208D01*
X11115Y14110D02*
X11228Y14110D01*
X11248Y14011D02*
X11115Y14011D01*
X11225Y13913D02*
X12031Y13913D01*
X11743Y14504D02*
X11643Y14504D01*
X11643Y14602D02*
X11743Y14602D01*
X11743Y14701D02*
X11643Y14701D01*
X11643Y14799D02*
X11743Y14799D01*
X11743Y14898D02*
X11643Y14898D01*
X12087Y14996D02*
X11001Y14996D01*
X11099Y14898D02*
X11268Y14898D01*
X11228Y14799D02*
X11115Y14799D01*
X11115Y14701D02*
X11228Y14701D01*
X11228Y14602D02*
X11115Y14602D01*
X11115Y14504D02*
X11228Y14504D01*
X12186Y15095D02*
X4248Y15095D01*
X4365Y14996D02*
X4683Y14996D01*
X4656Y14898D02*
X4455Y14898D01*
X4512Y14799D02*
X4656Y14799D01*
X4656Y14701D02*
X4568Y14701D01*
X4601Y14644D02*
X4601Y14644D01*
X4609Y14602D02*
X4656Y14602D01*
X4656Y14504D02*
X4626Y14504D01*
X4643Y14405D02*
X4656Y14405D01*
X4644Y14208D02*
X4656Y14208D01*
X4656Y14110D02*
X4627Y14110D01*
X4610Y14011D02*
X4700Y14011D01*
X4601Y13963D02*
X4601Y13963D01*
X4572Y13913D02*
X4890Y13913D01*
X4791Y13814D02*
X4515Y13814D01*
X4458Y13716D02*
X4693Y13716D01*
X4594Y13617D02*
X4373Y13617D01*
X4428Y13664D02*
X4428Y13664D01*
X4496Y13519D02*
X4255Y13519D01*
X4164Y13442D02*
X4164Y13442D01*
X4105Y13420D02*
X4397Y13420D01*
X4336Y13322D02*
X2501Y13322D01*
X2501Y13420D02*
X3228Y13420D01*
X3169Y13442D02*
X3169Y13442D01*
X3077Y13519D02*
X2501Y13519D01*
X2501Y13617D02*
X2960Y13617D01*
X2874Y13716D02*
X2501Y13716D01*
X2501Y13814D02*
X2817Y13814D01*
X2760Y13913D02*
X2501Y13913D01*
X2501Y14011D02*
X2723Y14011D01*
X2731Y13963D02*
X2731Y13963D01*
X2705Y14110D02*
X2501Y14110D01*
X2527Y14208D02*
X2688Y14208D01*
X2672Y14307D02*
X2527Y14307D01*
X2527Y14405D02*
X2689Y14405D01*
X2706Y14504D02*
X2527Y14504D01*
X2551Y14602D02*
X2724Y14602D01*
X2764Y14701D02*
X2578Y14701D01*
X2620Y14799D02*
X2821Y14799D01*
X2878Y14898D02*
X2677Y14898D01*
X2734Y14996D02*
X2967Y14996D01*
X2904Y14943D02*
X2904Y14943D01*
X2904Y14943D01*
X2826Y15095D02*
X3084Y15095D01*
X2925Y15193D02*
X3245Y15193D01*
X3263Y15390D02*
X14462Y15390D01*
X14030Y15292D02*
X3070Y15292D01*
X4087Y15193D02*
X13925Y15193D01*
X13821Y15095D02*
X13663Y15095D01*
X13678Y15080D02*
X13678Y15080D01*
X14190Y14701D02*
X14494Y14701D01*
X14449Y12731D02*
X14565Y12731D01*
X14621Y12632D02*
X14506Y12632D01*
X14563Y12534D02*
X14678Y12534D01*
X16006Y12012D02*
X16006Y11533D01*
X16355Y11352D02*
X16943Y11352D01*
X17041Y11450D02*
X16442Y11450D01*
X16483Y11549D02*
X17364Y11549D01*
X17337Y11647D02*
X16511Y11647D01*
X16511Y11746D02*
X17332Y11746D01*
X17332Y11844D02*
X16511Y11844D01*
X16511Y11943D02*
X17332Y11943D01*
X16844Y11253D02*
X16206Y11253D01*
X15999Y11155D02*
X16746Y11155D01*
X16647Y11056D02*
X16073Y11056D01*
X15645Y10761D02*
X14431Y10761D01*
X14409Y10783D02*
X14505Y10879D01*
X15555Y10879D01*
X15764Y10603D01*
X15771Y10585D01*
X15795Y10562D01*
X15815Y10535D01*
X15831Y10525D01*
X15844Y10512D01*
X15875Y10499D01*
X15904Y10482D01*
X15922Y10480D01*
X15940Y10473D01*
X15973Y10473D01*
X16006Y10468D01*
X16024Y10473D01*
X16743Y10473D01*
X16839Y10512D01*
X17297Y10971D01*
X17926Y10971D01*
X17926Y10694D01*
X17141Y10694D01*
X17046Y10655D01*
X16430Y10039D01*
X16292Y10177D01*
X16106Y10254D01*
X15905Y10254D01*
X15868Y10238D01*
X15753Y10353D01*
X15657Y10393D01*
X14799Y10393D01*
X14409Y10783D01*
X14486Y10859D02*
X15570Y10859D01*
X15719Y10662D02*
X14530Y10662D01*
X14628Y10564D02*
X15793Y10564D01*
X15720Y10367D02*
X16758Y10367D01*
X16856Y10465D02*
X14727Y10465D01*
X14691Y10133D02*
X15606Y10133D01*
X16006Y9733D01*
X16006Y9453D01*
X16397Y10071D02*
X16462Y10071D01*
X16561Y10170D02*
X16299Y10170D01*
X16659Y10268D02*
X15838Y10268D01*
X16890Y10564D02*
X16955Y10564D01*
X16989Y10662D02*
X17064Y10662D01*
X17087Y10761D02*
X17926Y10761D01*
X17926Y10859D02*
X17186Y10859D01*
X17284Y10958D02*
X17926Y10958D01*
X18314Y10857D02*
X18806Y11349D01*
X19406Y11349D01*
X19406Y10349D02*
X19388Y10233D01*
X18898Y10233D01*
X18698Y10033D01*
X18191Y10033D01*
X17974Y10250D01*
X17509Y10250D01*
X17154Y9895D01*
X17154Y8789D01*
X16898Y8233D02*
X15091Y8233D01*
X14691Y8633D01*
X12191Y8633D01*
X10387Y10437D01*
X10050Y10437D01*
X10050Y10181D02*
X10243Y10181D01*
X12091Y8333D01*
X14491Y8333D01*
X14891Y7933D01*
X16498Y7933D01*
X16898Y8233D02*
X17146Y7934D01*
X17795Y8433D02*
X18335Y8973D01*
X18335Y9674D01*
X18491Y9831D01*
X19996Y9831D01*
X20406Y10241D01*
X20406Y10349D01*
X20926Y9283D02*
X21373Y9283D01*
X21373Y9185D02*
X20926Y9185D01*
X20878Y9086D02*
X21373Y9086D01*
X21373Y8988D02*
X20780Y8988D01*
X20681Y8889D02*
X21373Y8889D01*
X20456Y8889D02*
X20356Y8889D01*
X19790Y8298D02*
X18778Y8298D01*
X18778Y8346D02*
X18678Y8346D01*
X18678Y8946D01*
X18595Y8946D01*
X18595Y9567D01*
X18599Y9571D01*
X18826Y9571D01*
X18826Y9109D01*
X18988Y8946D01*
X18778Y8946D01*
X18778Y8346D01*
X18778Y8397D02*
X18678Y8397D01*
X18678Y8495D02*
X18778Y8495D01*
X18778Y8594D02*
X18678Y8594D01*
X18678Y8692D02*
X18778Y8692D01*
X18778Y8791D02*
X18678Y8791D01*
X18678Y8889D02*
X18778Y8889D01*
X18946Y8988D02*
X18595Y8988D01*
X18595Y9086D02*
X18848Y9086D01*
X18826Y9185D02*
X18595Y9185D01*
X18595Y9283D02*
X18826Y9283D01*
X18826Y9382D02*
X18595Y9382D01*
X18595Y9480D02*
X18826Y9480D01*
X17795Y8445D02*
X17795Y8433D01*
X15391Y8433D01*
X14891Y8933D01*
X12291Y8933D01*
X10531Y10693D01*
X10050Y10693D01*
X11291Y11033D02*
X11291Y11533D01*
X11475Y11717D01*
X12333Y11717D01*
X12333Y11461D02*
X11819Y11461D01*
X11691Y11333D01*
X11691Y10533D01*
X12333Y10437D02*
X12887Y10437D01*
X13291Y10033D01*
X13291Y9633D01*
X12691Y9633D02*
X12691Y10033D01*
X12543Y10181D01*
X12333Y10181D01*
X12333Y10693D02*
X14131Y10693D01*
X14691Y10133D01*
X14208Y10949D02*
X14398Y11139D01*
X14208Y10949D02*
X12333Y10949D01*
X12333Y11205D02*
X12975Y11205D01*
X11887Y12041D02*
X11136Y12041D01*
X10891Y12433D02*
X10431Y11972D01*
X10050Y11972D01*
X10050Y12228D02*
X9622Y12228D01*
X9191Y12659D01*
X9191Y12033D01*
X7191Y12659D02*
X7191Y11233D01*
X8198Y9889D02*
X8237Y9849D01*
X9191Y9849D01*
X9723Y9624D02*
X9872Y9773D01*
X10264Y9773D01*
X12233Y7804D01*
X12590Y7814D01*
X13115Y7806D02*
X14651Y7806D01*
X14668Y7789D02*
X14608Y7789D01*
X14394Y7700D01*
X14231Y7537D01*
X14223Y7517D01*
X14215Y7537D01*
X14051Y7700D01*
X13838Y7789D01*
X13608Y7789D01*
X13394Y7700D01*
X13231Y7537D01*
X13143Y7324D01*
X13143Y7093D01*
X13226Y6893D01*
X13136Y6893D01*
X13115Y6915D01*
X13115Y7408D01*
X13084Y7439D01*
X13115Y7471D01*
X13115Y8073D01*
X14384Y8073D01*
X14668Y7789D01*
X14552Y7904D02*
X13115Y7904D01*
X13115Y8003D02*
X14454Y8003D01*
X14411Y7707D02*
X14035Y7707D01*
X14143Y7609D02*
X14303Y7609D01*
X13411Y7707D02*
X13115Y7707D01*
X13115Y7609D02*
X13303Y7609D01*
X13220Y7510D02*
X13115Y7510D01*
X13111Y7412D02*
X13179Y7412D01*
X13143Y7313D02*
X13115Y7313D01*
X13115Y7215D02*
X13143Y7215D01*
X13143Y7116D02*
X13115Y7116D01*
X13115Y7018D02*
X13174Y7018D01*
X13215Y6919D02*
X13115Y6919D01*
X12590Y7065D02*
X12580Y7055D01*
X11313Y7055D01*
X11730Y6722D02*
X12065Y6722D01*
X12164Y6624D02*
X9668Y6624D01*
X9638Y6525D02*
X12740Y6525D01*
X12837Y6427D02*
X9268Y6427D01*
X9169Y6328D02*
X20639Y6328D01*
X20816Y6427D02*
X14288Y6427D01*
X15057Y6722D02*
X15389Y6722D01*
X15291Y6821D02*
X15155Y6821D01*
X16057Y6722D02*
X16389Y6722D01*
X16291Y6821D02*
X16155Y6821D01*
X17057Y6722D02*
X17389Y6722D01*
X17291Y6821D02*
X17155Y6821D01*
X18057Y6722D02*
X18538Y6722D01*
X18673Y6722D02*
X18773Y6722D01*
X18773Y6821D02*
X18673Y6821D01*
X18673Y6919D02*
X18773Y6919D01*
X18773Y7018D02*
X18673Y7018D01*
X18673Y7116D02*
X18773Y7116D01*
X18376Y6821D02*
X18155Y6821D01*
X18231Y6919D02*
X18291Y6919D01*
X18673Y7609D02*
X18773Y7609D01*
X18773Y7707D02*
X18678Y7707D01*
X18678Y7806D02*
X18778Y7806D01*
X18778Y7904D02*
X18678Y7904D01*
X18678Y8003D02*
X18778Y8003D01*
X18778Y8101D02*
X18678Y8101D01*
X18678Y8200D02*
X18778Y8200D01*
X19378Y8200D02*
X19627Y8200D01*
X19710Y8269D02*
X19710Y8269D01*
X19510Y8101D02*
X19378Y8101D01*
X19446Y8047D02*
X19446Y8047D01*
X19446Y8047D01*
X19420Y8003D02*
X19354Y8003D01*
X19363Y7904D02*
X19255Y7904D01*
X19306Y7806D02*
X19157Y7806D01*
X19273Y7748D02*
X19273Y7748D01*
X19266Y7707D02*
X19058Y7707D01*
X19057Y7609D02*
X19248Y7609D01*
X19231Y7510D02*
X19147Y7510D01*
X19203Y7412D02*
X19214Y7412D01*
X19213Y7407D02*
X19213Y7407D01*
X12068Y7412D02*
X11779Y7412D01*
X11727Y7510D02*
X12065Y7510D01*
X12060Y7609D02*
X11719Y7609D01*
X11719Y7707D02*
X11962Y7707D01*
X11863Y7806D02*
X11324Y7806D01*
X11324Y7904D02*
X11224Y7904D01*
X11224Y7834D02*
X11224Y8190D01*
X10959Y8190D01*
X10921Y8180D01*
X10887Y8160D01*
X10859Y8132D01*
X10839Y8098D01*
X10829Y8060D01*
X10829Y7834D01*
X11224Y7834D01*
X11224Y7806D02*
X10493Y7806D01*
X10493Y7904D02*
X10829Y7904D01*
X10829Y8003D02*
X10493Y8003D01*
X10493Y8101D02*
X10841Y8101D01*
X11224Y8101D02*
X11324Y8101D01*
X11324Y8003D02*
X11224Y8003D01*
X11469Y8200D02*
X10451Y8200D01*
X10389Y8298D02*
X11371Y8298D01*
X11272Y8397D02*
X10389Y8397D01*
X10478Y8495D02*
X11174Y8495D01*
X11075Y8594D02*
X10507Y8594D01*
X10507Y8692D02*
X10977Y8692D01*
X10878Y8791D02*
X10507Y8791D01*
X10507Y8889D02*
X10780Y8889D01*
X10681Y8988D02*
X10507Y8988D01*
X10474Y9086D02*
X10583Y9086D01*
X10484Y9185D02*
X9983Y9185D01*
X9983Y9283D02*
X10386Y9283D01*
X10287Y9382D02*
X9983Y9382D01*
X9983Y9480D02*
X10189Y9480D01*
X9723Y9624D02*
X9723Y8981D01*
X9525Y8782D01*
X7812Y8782D01*
X7591Y8961D01*
X8141Y9185D02*
X9463Y9185D01*
X9463Y9088D02*
X9417Y9042D01*
X8185Y9042D01*
X8185Y9079D01*
X8095Y9297D01*
X7969Y9423D01*
X8580Y9423D01*
X8666Y9509D01*
X8666Y9506D01*
X8789Y9383D01*
X9463Y9383D01*
X9463Y9088D01*
X9461Y9086D02*
X8182Y9086D01*
X8101Y9283D02*
X9463Y9283D01*
X9463Y9382D02*
X8010Y9382D01*
X8637Y9480D02*
X8693Y9480D01*
X10493Y7707D02*
X10829Y7707D01*
X10829Y7609D02*
X10493Y7609D01*
X10493Y7510D02*
X10821Y7510D01*
X10769Y7412D02*
X10433Y7412D01*
X10433Y7313D02*
X10769Y7313D01*
X10769Y7215D02*
X10433Y7215D01*
X10433Y7017D02*
X10019Y7017D01*
X10019Y6661D01*
X10303Y6661D01*
X10341Y6671D01*
X10376Y6691D01*
X10404Y6719D01*
X10423Y6753D01*
X10433Y6791D01*
X10433Y7017D01*
X10433Y6919D02*
X10769Y6919D01*
X10769Y6821D02*
X10433Y6821D01*
X10406Y6722D02*
X10819Y6722D01*
X10769Y7018D02*
X10019Y7018D01*
X10019Y7116D02*
X10769Y7116D01*
X10019Y6919D02*
X9919Y6919D01*
X9919Y6821D02*
X10019Y6821D01*
X10019Y6722D02*
X9919Y6722D01*
X11719Y7904D02*
X11765Y7904D01*
X7639Y6328D02*
X3259Y6328D01*
X3225Y6525D02*
X2927Y6525D01*
X2831Y6624D02*
X3076Y6624D01*
X3169Y6546D02*
X3169Y6546D01*
X3073Y6427D02*
X7542Y6427D01*
X7446Y6525D02*
X4107Y6525D01*
X4164Y6546D02*
X4164Y6546D01*
X4257Y6624D02*
X4947Y6624D01*
X4896Y6722D02*
X4374Y6722D01*
X4428Y6768D02*
X4428Y6768D01*
X4459Y6821D02*
X4862Y6821D01*
X4763Y6919D02*
X4516Y6919D01*
X4573Y7018D02*
X4697Y7018D01*
X4679Y7116D02*
X4610Y7116D01*
X4601Y7067D02*
X4601Y7067D01*
X4627Y7215D02*
X4679Y7215D01*
X4679Y7313D02*
X4645Y7313D01*
X4661Y7412D02*
X4679Y7412D01*
X4679Y7510D02*
X4643Y7510D01*
X4626Y7609D02*
X4679Y7609D01*
X4679Y7707D02*
X4608Y7707D01*
X4601Y7748D02*
X4601Y7748D01*
X4568Y7806D02*
X4679Y7806D01*
X4679Y7904D02*
X4511Y7904D01*
X4454Y8003D02*
X4679Y8003D01*
X4679Y8101D02*
X4364Y8101D01*
X4428Y8047D02*
X4428Y8047D01*
X4247Y8200D02*
X4679Y8200D01*
X4679Y8298D02*
X4084Y8298D01*
X4164Y8269D02*
X4164Y8269D01*
X3961Y8505D02*
X4087Y8630D01*
X4155Y8794D01*
X4155Y8972D01*
X4087Y9136D01*
X3961Y9261D01*
X3797Y9329D01*
X3620Y9329D01*
X3456Y9261D01*
X3330Y9136D01*
X3262Y8972D01*
X3262Y8794D01*
X3330Y8630D01*
X3456Y8505D01*
X3620Y8437D01*
X3797Y8437D01*
X3961Y8505D01*
X3938Y8495D02*
X4679Y8495D01*
X4679Y8397D02*
X2501Y8397D01*
X2501Y8298D02*
X3248Y8298D01*
X3086Y8200D02*
X2501Y8200D01*
X2501Y8101D02*
X2968Y8101D01*
X2904Y8047D02*
X2904Y8047D01*
X2904Y8047D01*
X2878Y8003D02*
X2501Y8003D01*
X2501Y7904D02*
X2821Y7904D01*
X2764Y7806D02*
X2501Y7806D01*
X2501Y7707D02*
X2724Y7707D01*
X2722Y7116D02*
X2554Y7116D01*
X2579Y7018D02*
X2760Y7018D01*
X2731Y7067D02*
X2731Y7067D01*
X2816Y6919D02*
X2626Y6919D01*
X2681Y6821D02*
X2873Y6821D01*
X2958Y6722D02*
X2736Y6722D01*
X2954Y8495D02*
X3479Y8495D01*
X3367Y8594D02*
X3066Y8594D01*
X3128Y8692D02*
X3305Y8692D01*
X3264Y8791D02*
X3169Y8791D01*
X3171Y8889D02*
X3262Y8889D01*
X3269Y8988D02*
X3164Y8988D01*
X3123Y9086D02*
X3310Y9086D01*
X3379Y9185D02*
X3054Y9185D01*
X2925Y9283D02*
X3509Y9283D01*
X3909Y9283D02*
X4498Y9283D01*
X4332Y9382D02*
X2501Y9382D01*
X2501Y9480D02*
X4234Y9480D01*
X4185Y9579D02*
X2501Y9579D01*
X2501Y9677D02*
X4144Y9677D01*
X4131Y9776D02*
X2501Y9776D01*
X2501Y9874D02*
X3210Y9874D01*
X3070Y9973D02*
X2501Y9973D01*
X2501Y10071D02*
X2971Y10071D01*
X2873Y10170D02*
X2501Y10170D01*
X2501Y10268D02*
X2774Y10268D01*
X2726Y10367D02*
X2501Y10367D01*
X2501Y10465D02*
X2721Y10465D01*
X2721Y10564D02*
X2501Y10564D01*
X2501Y10662D02*
X2721Y10662D01*
X2721Y10761D02*
X2501Y10761D01*
X2501Y10859D02*
X2721Y10859D01*
X2721Y10958D02*
X2501Y10958D01*
X2501Y11056D02*
X2721Y11056D01*
X2721Y11155D02*
X2501Y11155D01*
X2501Y11253D02*
X2721Y11253D01*
X2748Y11352D02*
X2501Y11352D01*
X2501Y11450D02*
X2827Y11450D01*
X2926Y11549D02*
X2501Y11549D01*
X2501Y11647D02*
X3024Y11647D01*
X3123Y11746D02*
X2501Y11746D01*
X2501Y11844D02*
X3221Y11844D01*
X3320Y11943D02*
X2501Y11943D01*
X2501Y12041D02*
X3418Y12041D01*
X3517Y12140D02*
X2501Y12140D01*
X2501Y12238D02*
X3615Y12238D01*
X3714Y12337D02*
X2501Y12337D01*
X2961Y12435D02*
X3472Y12435D01*
X3364Y12534D02*
X3069Y12534D01*
X3130Y12632D02*
X3304Y12632D01*
X3263Y12731D02*
X3170Y12731D01*
X3171Y12829D02*
X3262Y12829D01*
X3270Y12928D02*
X3163Y12928D01*
X3122Y13026D02*
X3311Y13026D01*
X3382Y13125D02*
X3051Y13125D01*
X2917Y13223D02*
X3516Y13223D01*
X3902Y13223D02*
X4321Y13223D01*
X4321Y13125D02*
X4035Y13125D01*
X4106Y13026D02*
X4321Y13026D01*
X4305Y12928D02*
X4147Y12928D01*
X4155Y12829D02*
X4206Y12829D01*
X4721Y12581D02*
X4721Y12479D01*
X4762Y12380D01*
X4808Y12334D01*
X4761Y12341D01*
X4761Y11873D01*
X4661Y11873D01*
X4661Y11773D01*
X4193Y11773D01*
X4204Y11701D01*
X4229Y11623D01*
X4267Y11550D01*
X4315Y11484D01*
X4373Y11426D01*
X4439Y11378D01*
X4483Y11356D01*
X4383Y11314D01*
X4221Y11152D01*
X4216Y11162D01*
X4161Y11238D01*
X4095Y11304D01*
X4019Y11359D01*
X3936Y11401D01*
X3848Y11430D01*
X3759Y11444D01*
X3759Y10902D01*
X3659Y10902D01*
X3659Y11444D01*
X3571Y11430D01*
X4721Y12581D01*
X4721Y12534D02*
X4674Y12534D01*
X4740Y12435D02*
X4576Y12435D01*
X4590Y12330D02*
X4512Y12305D01*
X4439Y12267D01*
X4373Y12219D01*
X4315Y12161D01*
X4267Y12095D01*
X4229Y12022D01*
X4204Y11944D01*
X4193Y11873D01*
X4661Y11873D01*
X4661Y12341D01*
X4590Y12330D01*
X4633Y12337D02*
X4477Y12337D01*
X4399Y12238D02*
X4379Y12238D01*
X4299Y12140D02*
X4280Y12140D01*
X4239Y12041D02*
X4182Y12041D01*
X4204Y11943D02*
X4083Y11943D01*
X3985Y11844D02*
X4661Y11844D01*
X4661Y11943D02*
X4761Y11943D01*
X4761Y12041D02*
X4661Y12041D01*
X4661Y12140D02*
X4761Y12140D01*
X4761Y12238D02*
X4661Y12238D01*
X4661Y12337D02*
X4761Y12337D01*
X4790Y12337D02*
X4806Y12337D01*
X4197Y11746D02*
X3886Y11746D01*
X3788Y11647D02*
X4222Y11647D01*
X4268Y11549D02*
X3689Y11549D01*
X3591Y11450D02*
X4348Y11450D01*
X4473Y11352D02*
X4029Y11352D01*
X4146Y11253D02*
X4322Y11253D01*
X4223Y11155D02*
X4220Y11155D01*
X3759Y11155D02*
X3659Y11155D01*
X3659Y11253D02*
X3759Y11253D01*
X3759Y11352D02*
X3659Y11352D01*
X3659Y11056D02*
X3759Y11056D01*
X3759Y10958D02*
X3659Y10958D01*
X2524Y9283D02*
X2501Y9283D01*
X4038Y9185D02*
X4679Y9185D01*
X4679Y9086D02*
X4108Y9086D01*
X4148Y8988D02*
X4679Y8988D01*
X4679Y8889D02*
X4155Y8889D01*
X4153Y8791D02*
X4679Y8791D01*
X4679Y8692D02*
X4113Y8692D01*
X4050Y8594D02*
X4679Y8594D01*
X6585Y7412D02*
X6773Y7412D01*
X6769Y7510D02*
X6675Y7510D01*
X6675Y7609D02*
X6769Y7609D01*
X6769Y7313D02*
X6675Y7313D01*
X6675Y7215D02*
X6769Y7215D01*
X6769Y7116D02*
X6675Y7116D01*
X6675Y7018D02*
X6769Y7018D01*
X6769Y6919D02*
X6675Y6919D01*
X6675Y6821D02*
X6769Y6821D01*
X6769Y6722D02*
X6675Y6722D01*
X6624Y6624D02*
X6868Y6624D01*
X7294Y7065D02*
X7475Y7036D01*
X5833Y6624D02*
X5738Y6624D01*
X2532Y13223D02*
X2501Y13223D01*
X5789Y14996D02*
X5900Y14996D01*
X6572Y14996D02*
X6900Y14996D01*
X6802Y14898D02*
X6670Y14898D01*
X16297Y12731D02*
X16603Y12731D01*
X19081Y15390D02*
X20612Y15390D01*
D29*
X19548Y13131D03*
X16991Y12633D03*
X16591Y11283D03*
X17776Y10867D03*
X18314Y10857D03*
X16391Y10333D03*
X14829Y10739D03*
X14487Y11536D03*
X14185Y12126D03*
X13141Y12383D03*
X11691Y12433D03*
X10891Y12433D03*
X10791Y11733D03*
X11291Y11033D03*
X11691Y10533D03*
X12691Y9633D03*
X13291Y9633D03*
X13315Y7903D03*
X10645Y7562D03*
X9280Y6820D03*
X9280Y8395D03*
X10119Y8789D03*
X10117Y9329D03*
X8791Y9183D03*
X8191Y11233D03*
X7891Y11933D03*
X7191Y11233D03*
X9191Y12033D03*
X9695Y14229D03*
X9691Y14833D03*
X14291Y14528D03*
X18662Y9391D03*
X19548Y8604D03*
X17678Y7915D03*
X17146Y7934D03*
X16498Y7933D03*
X17154Y8789D03*
X4479Y8845D03*
X3191Y9333D03*
X3191Y12333D03*
D30*
X2991Y11233D02*
X4591Y12833D01*
X4591Y13233D01*
X5191Y13833D01*
X5191Y14467D01*
X5236Y14512D01*
X5391Y13533D02*
X7065Y13533D01*
X7191Y13407D01*
X6391Y12233D02*
X5804Y12820D01*
X5677Y12820D01*
X4991Y12533D02*
X4991Y13133D01*
X5391Y13533D01*
X4991Y12533D02*
X5677Y11847D01*
X5677Y11836D01*
X6091Y11422D01*
X6091Y10233D01*
X5726Y9867D01*
X5677Y9867D01*
X6391Y9533D02*
X6391Y10633D01*
X7165Y10633D01*
X7191Y10607D01*
X6391Y10633D02*
X6391Y12233D01*
X8198Y11326D02*
X8191Y11233D01*
X7191Y9859D02*
X7191Y9361D01*
X7591Y8961D01*
X8103Y8296D02*
X8580Y7819D01*
X8103Y8296D02*
X6032Y8296D01*
X5343Y7903D01*
X5343Y7824D01*
X6228Y7824D02*
X6456Y7933D01*
X7361Y7933D01*
X7294Y7813D01*
X7294Y7065D02*
X7824Y6525D01*
X8984Y6525D01*
X9280Y6820D01*
X8743Y7071D02*
X9280Y7607D01*
X9280Y8395D01*
X9969Y7815D02*
X10119Y8015D01*
X10119Y8789D01*
X10091Y7933D02*
X9973Y7815D01*
X9969Y7815D01*
X8743Y7071D02*
X8580Y7071D01*
X8546Y7071D01*
X6228Y6997D02*
X5343Y6997D01*
X5327Y7097D01*
X5164Y6900D01*
X4949Y7115D01*
X4949Y9585D01*
X4711Y9823D01*
X4701Y9823D01*
X4391Y10133D01*
X3291Y10133D01*
X2991Y10433D01*
X2991Y11233D01*
X5677Y8883D02*
X5742Y8883D01*
X6391Y9533D01*
X11274Y7115D02*
X11313Y7055D01*
X12590Y7065D02*
X13022Y6623D01*
X14102Y6623D01*
X14688Y7209D01*
X14723Y7209D01*
X13591Y13398D02*
X13626Y13433D01*
X13761Y13668D01*
X14376Y13668D01*
X14770Y14061D01*
X14770Y15061D02*
X14179Y15061D01*
X13761Y14668D01*
X13747Y14643D01*
X13626Y14433D01*
D31*
X10857Y13433D02*
X10617Y14441D01*
X10615Y14439D01*
X10815Y13556D01*
X10591Y14433D01*
X10590Y14441D02*
X10617Y14441D01*
X10590Y14441D02*
X10441Y14279D01*
X9695Y14229D01*
X10395Y14229D02*
X10441Y14279D01*
X10857Y13433D02*
X10256Y12484D01*
X10050Y12484D01*
D32*
X3666Y16073D02*
X3669Y16073D01*
X20205Y16073D01*
X20208Y16073D01*
X19558Y17447D02*
X19560Y17497D01*
X19566Y17547D01*
X19576Y17597D01*
X19589Y17645D01*
X19606Y17693D01*
X19627Y17739D01*
X19651Y17783D01*
X19679Y17825D01*
X19710Y17865D01*
X19744Y17902D01*
X19781Y17937D01*
X19820Y17968D01*
X19861Y17997D01*
X19905Y18022D01*
X19951Y18044D01*
X19998Y18062D01*
X20046Y18076D01*
X20095Y18087D01*
X20145Y18094D01*
X20195Y18097D01*
X20246Y18096D01*
X20296Y18091D01*
X20346Y18082D01*
X20394Y18070D01*
X20442Y18053D01*
X20488Y18033D01*
X20533Y18010D01*
X20576Y17983D01*
X20616Y17953D01*
X20654Y17920D01*
X20689Y17884D01*
X20722Y17845D01*
X20751Y17804D01*
X20777Y17761D01*
X20800Y17716D01*
X20819Y17669D01*
X20834Y17621D01*
X20846Y17572D01*
X20854Y17522D01*
X20858Y17472D01*
X20858Y17422D01*
X20854Y17372D01*
X20846Y17322D01*
X20834Y17273D01*
X20819Y17225D01*
X20800Y17178D01*
X20777Y17133D01*
X20751Y17090D01*
X20722Y17049D01*
X20689Y17010D01*
X20654Y16974D01*
X20616Y16941D01*
X20576Y16911D01*
X20533Y16884D01*
X20488Y16861D01*
X20442Y16841D01*
X20394Y16824D01*
X20346Y16812D01*
X20296Y16803D01*
X20246Y16798D01*
X20195Y16797D01*
X20145Y16800D01*
X20095Y16807D01*
X20046Y16818D01*
X19998Y16832D01*
X19951Y16850D01*
X19905Y16872D01*
X19861Y16897D01*
X19820Y16926D01*
X19781Y16957D01*
X19744Y16992D01*
X19710Y17029D01*
X19679Y17069D01*
X19651Y17111D01*
X19627Y17155D01*
X19606Y17201D01*
X19589Y17249D01*
X19576Y17297D01*
X19566Y17347D01*
X19560Y17397D01*
X19558Y17447D01*
X20205Y16073D02*
X20277Y16075D01*
X20349Y16081D01*
X20421Y16090D01*
X20492Y16103D01*
X20562Y16120D01*
X20631Y16140D01*
X20699Y16165D01*
X20765Y16192D01*
X20831Y16223D01*
X20894Y16258D01*
X20956Y16295D01*
X21015Y16336D01*
X21072Y16380D01*
X21127Y16427D01*
X21179Y16477D01*
X21229Y16529D01*
X21276Y16584D01*
X21320Y16641D01*
X21361Y16700D01*
X21398Y16762D01*
X21433Y16825D01*
X21464Y16891D01*
X21491Y16957D01*
X21516Y17025D01*
X21536Y17094D01*
X21553Y17164D01*
X21566Y17235D01*
X21575Y17307D01*
X21581Y17379D01*
X21583Y17451D01*
X21583Y24340D01*
X19555Y24340D02*
X19557Y24390D01*
X19563Y24440D01*
X19573Y24490D01*
X19586Y24538D01*
X19603Y24586D01*
X19624Y24632D01*
X19648Y24676D01*
X19676Y24718D01*
X19707Y24758D01*
X19741Y24795D01*
X19778Y24830D01*
X19817Y24861D01*
X19858Y24890D01*
X19902Y24915D01*
X19948Y24937D01*
X19995Y24955D01*
X20043Y24969D01*
X20092Y24980D01*
X20142Y24987D01*
X20192Y24990D01*
X20243Y24989D01*
X20293Y24984D01*
X20343Y24975D01*
X20391Y24963D01*
X20439Y24946D01*
X20485Y24926D01*
X20530Y24903D01*
X20573Y24876D01*
X20613Y24846D01*
X20651Y24813D01*
X20686Y24777D01*
X20719Y24738D01*
X20748Y24697D01*
X20774Y24654D01*
X20797Y24609D01*
X20816Y24562D01*
X20831Y24514D01*
X20843Y24465D01*
X20851Y24415D01*
X20855Y24365D01*
X20855Y24315D01*
X20851Y24265D01*
X20843Y24215D01*
X20831Y24166D01*
X20816Y24118D01*
X20797Y24071D01*
X20774Y24026D01*
X20748Y23983D01*
X20719Y23942D01*
X20686Y23903D01*
X20651Y23867D01*
X20613Y23834D01*
X20573Y23804D01*
X20530Y23777D01*
X20485Y23754D01*
X20439Y23734D01*
X20391Y23717D01*
X20343Y23705D01*
X20293Y23696D01*
X20243Y23691D01*
X20192Y23690D01*
X20142Y23693D01*
X20092Y23700D01*
X20043Y23711D01*
X19995Y23725D01*
X19948Y23743D01*
X19902Y23765D01*
X19858Y23790D01*
X19817Y23819D01*
X19778Y23850D01*
X19741Y23885D01*
X19707Y23922D01*
X19676Y23962D01*
X19648Y24004D01*
X19624Y24048D01*
X19603Y24094D01*
X19586Y24142D01*
X19573Y24190D01*
X19563Y24240D01*
X19557Y24290D01*
X19555Y24340D01*
X20205Y25718D02*
X20277Y25716D01*
X20349Y25710D01*
X20421Y25701D01*
X20492Y25688D01*
X20562Y25671D01*
X20631Y25651D01*
X20699Y25626D01*
X20765Y25599D01*
X20831Y25568D01*
X20894Y25533D01*
X20956Y25496D01*
X21015Y25455D01*
X21072Y25411D01*
X21127Y25364D01*
X21179Y25314D01*
X21229Y25262D01*
X21276Y25207D01*
X21320Y25150D01*
X21361Y25091D01*
X21398Y25029D01*
X21433Y24966D01*
X21464Y24900D01*
X21491Y24834D01*
X21516Y24766D01*
X21536Y24697D01*
X21553Y24627D01*
X21566Y24556D01*
X21575Y24484D01*
X21581Y24412D01*
X21583Y24340D01*
X20205Y25718D02*
X3669Y25718D01*
X3016Y24344D02*
X3018Y24394D01*
X3024Y24444D01*
X3034Y24494D01*
X3047Y24542D01*
X3064Y24590D01*
X3085Y24636D01*
X3109Y24680D01*
X3137Y24722D01*
X3168Y24762D01*
X3202Y24799D01*
X3239Y24834D01*
X3278Y24865D01*
X3319Y24894D01*
X3363Y24919D01*
X3409Y24941D01*
X3456Y24959D01*
X3504Y24973D01*
X3553Y24984D01*
X3603Y24991D01*
X3653Y24994D01*
X3704Y24993D01*
X3754Y24988D01*
X3804Y24979D01*
X3852Y24967D01*
X3900Y24950D01*
X3946Y24930D01*
X3991Y24907D01*
X4034Y24880D01*
X4074Y24850D01*
X4112Y24817D01*
X4147Y24781D01*
X4180Y24742D01*
X4209Y24701D01*
X4235Y24658D01*
X4258Y24613D01*
X4277Y24566D01*
X4292Y24518D01*
X4304Y24469D01*
X4312Y24419D01*
X4316Y24369D01*
X4316Y24319D01*
X4312Y24269D01*
X4304Y24219D01*
X4292Y24170D01*
X4277Y24122D01*
X4258Y24075D01*
X4235Y24030D01*
X4209Y23987D01*
X4180Y23946D01*
X4147Y23907D01*
X4112Y23871D01*
X4074Y23838D01*
X4034Y23808D01*
X3991Y23781D01*
X3946Y23758D01*
X3900Y23738D01*
X3852Y23721D01*
X3804Y23709D01*
X3754Y23700D01*
X3704Y23695D01*
X3653Y23694D01*
X3603Y23697D01*
X3553Y23704D01*
X3504Y23715D01*
X3456Y23729D01*
X3409Y23747D01*
X3363Y23769D01*
X3319Y23794D01*
X3278Y23823D01*
X3239Y23854D01*
X3202Y23889D01*
X3168Y23926D01*
X3137Y23966D01*
X3109Y24008D01*
X3085Y24052D01*
X3064Y24098D01*
X3047Y24146D01*
X3034Y24194D01*
X3024Y24244D01*
X3018Y24294D01*
X3016Y24344D01*
X2291Y24340D02*
X2293Y24412D01*
X2299Y24484D01*
X2308Y24556D01*
X2321Y24627D01*
X2338Y24697D01*
X2358Y24766D01*
X2383Y24834D01*
X2410Y24900D01*
X2441Y24966D01*
X2476Y25029D01*
X2513Y25091D01*
X2554Y25150D01*
X2598Y25207D01*
X2645Y25262D01*
X2695Y25314D01*
X2747Y25364D01*
X2802Y25411D01*
X2859Y25455D01*
X2918Y25496D01*
X2980Y25533D01*
X3043Y25568D01*
X3109Y25599D01*
X3175Y25626D01*
X3243Y25651D01*
X3312Y25671D01*
X3382Y25688D01*
X3453Y25701D01*
X3525Y25710D01*
X3597Y25716D01*
X3669Y25718D01*
X2291Y24344D02*
X2291Y24340D01*
X2291Y17490D01*
X2291Y17447D01*
X3016Y17447D02*
X3018Y17497D01*
X3024Y17547D01*
X3034Y17597D01*
X3047Y17645D01*
X3064Y17693D01*
X3085Y17739D01*
X3109Y17783D01*
X3137Y17825D01*
X3168Y17865D01*
X3202Y17902D01*
X3239Y17937D01*
X3278Y17968D01*
X3319Y17997D01*
X3363Y18022D01*
X3409Y18044D01*
X3456Y18062D01*
X3504Y18076D01*
X3553Y18087D01*
X3603Y18094D01*
X3653Y18097D01*
X3704Y18096D01*
X3754Y18091D01*
X3804Y18082D01*
X3852Y18070D01*
X3900Y18053D01*
X3946Y18033D01*
X3991Y18010D01*
X4034Y17983D01*
X4074Y17953D01*
X4112Y17920D01*
X4147Y17884D01*
X4180Y17845D01*
X4209Y17804D01*
X4235Y17761D01*
X4258Y17716D01*
X4277Y17669D01*
X4292Y17621D01*
X4304Y17572D01*
X4312Y17522D01*
X4316Y17472D01*
X4316Y17422D01*
X4312Y17372D01*
X4304Y17322D01*
X4292Y17273D01*
X4277Y17225D01*
X4258Y17178D01*
X4235Y17133D01*
X4209Y17090D01*
X4180Y17049D01*
X4147Y17010D01*
X4112Y16974D01*
X4074Y16941D01*
X4034Y16911D01*
X3991Y16884D01*
X3946Y16861D01*
X3900Y16841D01*
X3852Y16824D01*
X3804Y16812D01*
X3754Y16803D01*
X3704Y16798D01*
X3653Y16797D01*
X3603Y16800D01*
X3553Y16807D01*
X3504Y16818D01*
X3456Y16832D01*
X3409Y16850D01*
X3363Y16872D01*
X3319Y16897D01*
X3278Y16926D01*
X3239Y16957D01*
X3202Y16992D01*
X3168Y17029D01*
X3137Y17069D01*
X3109Y17111D01*
X3085Y17155D01*
X3064Y17201D01*
X3047Y17249D01*
X3034Y17297D01*
X3024Y17347D01*
X3018Y17397D01*
X3016Y17447D01*
X2291Y17490D02*
X2292Y17417D01*
X2297Y17343D01*
X2305Y17271D01*
X2318Y17199D01*
X2334Y17127D01*
X2353Y17057D01*
X2377Y16987D01*
X2404Y16919D01*
X2435Y16853D01*
X2469Y16788D01*
X2506Y16725D01*
X2547Y16664D01*
X2590Y16606D01*
X2637Y16549D01*
X2687Y16495D01*
X2739Y16444D01*
X2794Y16396D01*
X2851Y16351D01*
X2911Y16308D01*
X2973Y16269D01*
X3037Y16233D01*
X3102Y16201D01*
X3170Y16172D01*
X3238Y16147D01*
X3308Y16125D01*
X3379Y16107D01*
X3451Y16092D01*
X3523Y16082D01*
X3596Y16075D01*
X3669Y16072D01*
X3473Y18923D02*
X3475Y18953D01*
X3481Y18983D01*
X3490Y19012D01*
X3503Y19039D01*
X3520Y19064D01*
X3539Y19087D01*
X3562Y19108D01*
X3587Y19125D01*
X3613Y19139D01*
X3642Y19149D01*
X3671Y19156D01*
X3701Y19159D01*
X3732Y19158D01*
X3762Y19153D01*
X3791Y19144D01*
X3818Y19132D01*
X3844Y19117D01*
X3868Y19098D01*
X3889Y19076D01*
X3907Y19052D01*
X3922Y19025D01*
X3933Y18997D01*
X3941Y18968D01*
X3945Y18938D01*
X3945Y18908D01*
X3941Y18878D01*
X3933Y18849D01*
X3922Y18821D01*
X3907Y18794D01*
X3889Y18770D01*
X3868Y18748D01*
X3844Y18729D01*
X3818Y18714D01*
X3791Y18702D01*
X3762Y18693D01*
X3732Y18688D01*
X3701Y18687D01*
X3671Y18690D01*
X3642Y18697D01*
X3613Y18707D01*
X3587Y18721D01*
X3562Y18738D01*
X3539Y18759D01*
X3520Y18782D01*
X3503Y18807D01*
X3490Y18834D01*
X3481Y18863D01*
X3475Y18893D01*
X3473Y18923D01*
X2488Y18923D02*
X2490Y18953D01*
X2496Y18983D01*
X2505Y19012D01*
X2518Y19039D01*
X2535Y19064D01*
X2554Y19087D01*
X2577Y19108D01*
X2602Y19125D01*
X2628Y19139D01*
X2657Y19149D01*
X2686Y19156D01*
X2716Y19159D01*
X2747Y19158D01*
X2777Y19153D01*
X2806Y19144D01*
X2833Y19132D01*
X2859Y19117D01*
X2883Y19098D01*
X2904Y19076D01*
X2922Y19052D01*
X2937Y19025D01*
X2948Y18997D01*
X2956Y18968D01*
X2960Y18938D01*
X2960Y18908D01*
X2956Y18878D01*
X2948Y18849D01*
X2937Y18821D01*
X2922Y18794D01*
X2904Y18770D01*
X2883Y18748D01*
X2859Y18729D01*
X2833Y18714D01*
X2806Y18702D01*
X2777Y18693D01*
X2747Y18688D01*
X2716Y18687D01*
X2686Y18690D01*
X2657Y18697D01*
X2628Y18707D01*
X2602Y18721D01*
X2577Y18738D01*
X2554Y18759D01*
X2535Y18782D01*
X2518Y18807D01*
X2505Y18834D01*
X2496Y18863D01*
X2490Y18893D01*
X2488Y18923D01*
X5441Y20892D02*
X5443Y20922D01*
X5449Y20952D01*
X5458Y20981D01*
X5471Y21008D01*
X5488Y21033D01*
X5507Y21056D01*
X5530Y21077D01*
X5555Y21094D01*
X5581Y21108D01*
X5610Y21118D01*
X5639Y21125D01*
X5669Y21128D01*
X5700Y21127D01*
X5730Y21122D01*
X5759Y21113D01*
X5786Y21101D01*
X5812Y21086D01*
X5836Y21067D01*
X5857Y21045D01*
X5875Y21021D01*
X5890Y20994D01*
X5901Y20966D01*
X5909Y20937D01*
X5913Y20907D01*
X5913Y20877D01*
X5909Y20847D01*
X5901Y20818D01*
X5890Y20790D01*
X5875Y20763D01*
X5857Y20739D01*
X5836Y20717D01*
X5812Y20698D01*
X5786Y20683D01*
X5759Y20671D01*
X5730Y20662D01*
X5700Y20657D01*
X5669Y20656D01*
X5639Y20659D01*
X5610Y20666D01*
X5581Y20676D01*
X5555Y20690D01*
X5530Y20707D01*
X5507Y20728D01*
X5488Y20751D01*
X5471Y20776D01*
X5458Y20803D01*
X5449Y20832D01*
X5443Y20862D01*
X5441Y20892D01*
X3473Y22860D02*
X3475Y22890D01*
X3481Y22920D01*
X3490Y22949D01*
X3503Y22976D01*
X3520Y23001D01*
X3539Y23024D01*
X3562Y23045D01*
X3587Y23062D01*
X3613Y23076D01*
X3642Y23086D01*
X3671Y23093D01*
X3701Y23096D01*
X3732Y23095D01*
X3762Y23090D01*
X3791Y23081D01*
X3818Y23069D01*
X3844Y23054D01*
X3868Y23035D01*
X3889Y23013D01*
X3907Y22989D01*
X3922Y22962D01*
X3933Y22934D01*
X3941Y22905D01*
X3945Y22875D01*
X3945Y22845D01*
X3941Y22815D01*
X3933Y22786D01*
X3922Y22758D01*
X3907Y22731D01*
X3889Y22707D01*
X3868Y22685D01*
X3844Y22666D01*
X3818Y22651D01*
X3791Y22639D01*
X3762Y22630D01*
X3732Y22625D01*
X3701Y22624D01*
X3671Y22627D01*
X3642Y22634D01*
X3613Y22644D01*
X3587Y22658D01*
X3562Y22675D01*
X3539Y22696D01*
X3520Y22719D01*
X3503Y22744D01*
X3490Y22771D01*
X3481Y22800D01*
X3475Y22830D01*
X3473Y22860D01*
X2488Y22860D02*
X2490Y22890D01*
X2496Y22920D01*
X2505Y22949D01*
X2518Y22976D01*
X2535Y23001D01*
X2554Y23024D01*
X2577Y23045D01*
X2602Y23062D01*
X2628Y23076D01*
X2657Y23086D01*
X2686Y23093D01*
X2716Y23096D01*
X2747Y23095D01*
X2777Y23090D01*
X2806Y23081D01*
X2833Y23069D01*
X2859Y23054D01*
X2883Y23035D01*
X2904Y23013D01*
X2922Y22989D01*
X2937Y22962D01*
X2948Y22934D01*
X2956Y22905D01*
X2960Y22875D01*
X2960Y22845D01*
X2956Y22815D01*
X2948Y22786D01*
X2937Y22758D01*
X2922Y22731D01*
X2904Y22707D01*
X2883Y22685D01*
X2859Y22666D01*
X2833Y22651D01*
X2806Y22639D01*
X2777Y22630D01*
X2747Y22625D01*
X2716Y22624D01*
X2686Y22627D01*
X2657Y22634D01*
X2628Y22644D01*
X2602Y22658D01*
X2577Y22675D01*
X2554Y22696D01*
X2535Y22719D01*
X2518Y22744D01*
X2505Y22771D01*
X2496Y22800D01*
X2490Y22830D01*
X2488Y22860D01*
D33*
X-266Y16064D02*
X-255Y11203D01*
X-315Y15040D02*
X-266Y16064D01*
X-366Y15040D01*
X-389Y15040D02*
X-266Y16064D01*
X-161Y15040D01*
X-138Y15040D02*
X-389Y15040D01*
X-212Y15040D02*
X-266Y16064D01*
X-138Y15040D01*
X-1053Y16062D02*
X3669Y16073D01*
X3666Y17447D02*
X-1056Y17437D01*
X-269Y17438D02*
X-374Y18462D01*
X-397Y18462D02*
X-269Y17438D01*
X-169Y18462D01*
X-146Y18462D02*
X-397Y18462D01*
X-323Y18462D02*
X-269Y17438D01*
X-220Y18462D01*
X-146Y18462D02*
X-269Y17438D01*
X-274Y19486D01*
X2291Y24340D02*
X2291Y29458D01*
X2291Y28671D02*
X3315Y28773D01*
X3315Y28797D02*
X3315Y28545D01*
X2291Y28671D01*
X3315Y28569D01*
X3315Y28620D02*
X2291Y28671D01*
X3315Y28722D01*
X3315Y28797D02*
X2291Y28671D01*
X21583Y28671D01*
X20559Y28569D01*
X20559Y28545D02*
X21583Y28671D01*
X20559Y28773D01*
X20559Y28797D02*
X20559Y28545D01*
X20559Y28620D02*
X21583Y28671D01*
X20559Y28722D01*
X20559Y28797D02*
X21583Y28671D01*
X21583Y29458D02*
X21583Y24340D01*
X21583Y23455D02*
X25913Y23455D01*
X25126Y23455D02*
X25228Y22431D01*
X25252Y22431D02*
X25126Y23455D01*
X25024Y22431D01*
X25000Y22431D02*
X25252Y22431D01*
X25177Y22431D02*
X25126Y23455D01*
X25075Y22431D01*
X25000Y22431D02*
X25126Y23455D01*
X25126Y18336D01*
X25228Y19360D01*
X25252Y19360D02*
X25126Y18336D01*
X25024Y19360D01*
X25000Y19360D02*
X25252Y19360D01*
X25177Y19360D02*
X25126Y18336D01*
X25075Y19360D01*
X25000Y19360D02*
X25126Y18336D01*
X25913Y18336D02*
X21583Y18336D01*
X20598Y16073D02*
X29850Y16073D01*
X29063Y16073D02*
X29165Y17096D01*
X29189Y17096D02*
X29063Y16073D01*
X28961Y17096D01*
X28937Y17096D02*
X29189Y17096D01*
X29114Y17096D02*
X29063Y16073D01*
X29012Y17096D01*
X28937Y17096D02*
X29063Y16073D01*
X29063Y25718D01*
X29165Y24695D01*
X29189Y24695D02*
X29063Y25718D01*
X28961Y24695D01*
X28937Y24695D02*
X29189Y24695D01*
X29114Y24695D02*
X29063Y25718D01*
X29012Y24695D01*
X28937Y24695D02*
X29063Y25718D01*
X29850Y25718D02*
X20598Y25718D01*
D34*
X23620Y21969D02*
X23831Y21969D01*
X24043Y21757D01*
X24254Y21969D01*
X24466Y21969D01*
X24677Y21757D01*
X24677Y21334D01*
X24466Y21123D01*
X24677Y20700D02*
X24677Y19854D01*
X24677Y20277D02*
X23408Y20277D01*
X23831Y19854D01*
X23620Y21123D02*
X23408Y21334D01*
X23408Y21757D01*
X23620Y21969D01*
X24043Y21757D02*
X24043Y21546D01*
X27345Y20935D02*
X27980Y20301D01*
X27980Y21147D01*
X28614Y20935D02*
X27345Y20935D01*
X28403Y21569D02*
X28403Y21781D01*
X28614Y21781D01*
X28614Y21569D01*
X28403Y21569D01*
X28403Y22204D02*
X28614Y22415D01*
X28614Y22838D01*
X28403Y23050D01*
X27980Y23050D01*
X27768Y22838D01*
X27768Y22627D01*
X27980Y22204D01*
X27345Y22204D01*
X27345Y23050D01*
X27557Y19878D02*
X27345Y19666D01*
X27345Y19243D01*
X27557Y19032D01*
X27768Y19878D02*
X28614Y19032D01*
X28614Y19878D01*
X27768Y19878D02*
X27557Y19878D01*
X13010Y29331D02*
X13010Y30177D01*
X12799Y30389D01*
X12376Y30389D01*
X12164Y30177D01*
X12164Y29966D01*
X12376Y29754D01*
X13010Y29754D01*
X13010Y29331D02*
X12799Y29120D01*
X12376Y29120D01*
X12164Y29331D01*
X11742Y29754D02*
X10896Y29754D01*
X11530Y30389D01*
X11530Y29120D01*
X1243Y14988D02*
X1455Y14777D01*
X1455Y14354D01*
X1244Y14142D01*
X1033Y14141D01*
X821Y14353D01*
X610Y14141D01*
X398Y14140D01*
X186Y14351D01*
X186Y14775D01*
X397Y14986D01*
X821Y14564D02*
X821Y14353D01*
X399Y13718D02*
X187Y13717D01*
X188Y13506D01*
X399Y13506D01*
X399Y13718D01*
X823Y13084D02*
X825Y12238D01*
X1037Y11815D02*
X826Y11604D01*
X827Y10969D01*
X404Y10968D02*
X1250Y10970D01*
X1461Y11182D01*
X1460Y11605D01*
X1248Y11816D01*
X1037Y11815D01*
X402Y11814D02*
X191Y11603D01*
X192Y11179D01*
X404Y10968D01*
X190Y12448D02*
X1459Y12451D01*
X823Y13084D01*
D35*
X5677Y18923D03*
X5677Y19907D03*
X3709Y20892D03*
X5677Y21876D03*
X5677Y22860D03*
D36*
X19406Y22389D03*
X20406Y22389D03*
X20406Y21389D03*
X19406Y21389D03*
X19406Y20389D03*
X20406Y20389D03*
X20406Y19389D03*
X19406Y19389D03*
D37*
X6228Y17864D03*
X5343Y17864D03*
X5343Y17037D03*
X6228Y17037D03*
D38*
X7294Y17105D03*
X7294Y17853D03*
X8580Y17859D03*
X8580Y17111D03*
X9969Y17107D03*
X9969Y17855D03*
X9191Y19889D03*
X9191Y20637D03*
X7191Y20647D03*
X7191Y19899D03*
X7191Y22699D03*
X7191Y23447D03*
X8191Y23447D03*
X8191Y22699D03*
X9191Y22699D03*
X9191Y23447D03*
X12590Y17854D03*
X12590Y17105D03*
D39*
X12957Y23473D03*
X13626Y23473D03*
X13626Y24473D03*
X12957Y24473D03*
X11526Y23473D03*
X10857Y23473D03*
D40*
X10590Y24481D03*
X11693Y24481D03*
D41*
X14410Y22938D03*
X7591Y19001D03*
D42*
X10050Y20221D03*
X10050Y20477D03*
X10050Y20733D03*
X10050Y20989D03*
X10050Y21245D03*
X10050Y21501D03*
X10050Y21757D03*
X10050Y22012D03*
X10050Y22268D03*
X10050Y22524D03*
X12333Y22524D03*
X12333Y22268D03*
X12333Y22012D03*
X12333Y21757D03*
X12333Y21501D03*
X12333Y21245D03*
X12333Y20989D03*
X12333Y20733D03*
X12333Y20477D03*
X12333Y20221D03*
D43*
X14770Y24101D03*
X14770Y25101D03*
D44*
X5236Y24552D03*
D45*
X6236Y24552D03*
X7236Y24552D03*
X8236Y24552D03*
X4711Y21863D03*
X4711Y20863D03*
X4711Y19863D03*
X13723Y17249D03*
X14723Y17249D03*
X15723Y17249D03*
X16723Y17249D03*
X17723Y17249D03*
X18723Y17249D03*
D46*
X11274Y17155D03*
X11274Y17824D03*
X8198Y19929D03*
X8198Y20598D03*
D47*
X16006Y19788D02*
X16006Y19198D01*
X17777Y19198D02*
X17777Y19788D01*
X17777Y21757D02*
X17777Y22347D01*
X16006Y22347D02*
X16006Y21757D01*
D48*
X18728Y23455D03*
X18728Y18336D03*
D49*
X18678Y18338D02*
X18028Y18338D01*
X18078Y18386D02*
X18678Y18386D01*
X18678Y18286D01*
X18778Y18286D01*
X18778Y17766D01*
X18773Y17767D01*
X18773Y17299D01*
X18673Y17299D01*
X18673Y17686D01*
X18678Y17686D01*
X18678Y18286D01*
X18078Y18286D01*
X18078Y18067D01*
X18452Y17694D01*
X18450Y17693D01*
X18384Y17645D01*
X18326Y17587D01*
X18278Y17521D01*
X18256Y17478D01*
X18215Y17577D01*
X18051Y17740D01*
X17838Y17829D01*
X17608Y17829D01*
X17534Y17798D01*
X17534Y18213D01*
X17743Y18213D01*
X17846Y18213D01*
X17942Y18252D01*
X18078Y18389D01*
X18078Y18386D01*
X18078Y18240D02*
X17911Y18240D01*
X18078Y18141D02*
X17534Y18141D01*
X17534Y18043D02*
X18103Y18043D01*
X18201Y17944D02*
X17534Y17944D01*
X17534Y17846D02*
X18300Y17846D01*
X18398Y17747D02*
X18035Y17747D01*
X18143Y17649D02*
X18389Y17649D01*
X18299Y17550D02*
X18226Y17550D01*
X18673Y17550D02*
X18773Y17550D01*
X18773Y17452D02*
X18673Y17452D01*
X18673Y17353D02*
X18773Y17353D01*
X18773Y17299D02*
X19239Y17299D01*
X19273Y17107D01*
X19446Y16808D01*
X19446Y16808D01*
X19710Y16586D01*
X20035Y16467D01*
X20381Y16467D01*
X20705Y16586D01*
X20705Y16586D01*
X20970Y16808D01*
X21143Y17107D01*
X21143Y17107D01*
X21203Y17447D01*
X21203Y17447D01*
X21143Y17788D01*
X20970Y18087D01*
X20970Y18087D01*
X20705Y18309D01*
X20381Y18427D01*
X20035Y18427D01*
X19710Y18309D01*
X19446Y18087D01*
X19273Y17788D01*
X19213Y17447D01*
X19222Y17396D01*
X19205Y17448D01*
X19168Y17521D01*
X19120Y17587D01*
X19062Y17645D01*
X19001Y17690D01*
X19378Y18067D01*
X19378Y18286D01*
X18778Y18286D01*
X18778Y18386D01*
X19378Y18386D01*
X19378Y18606D01*
X19175Y18809D01*
X19646Y18809D01*
X19948Y19111D01*
X20190Y18869D01*
X20356Y18869D01*
X20356Y19339D01*
X20456Y19339D01*
X20456Y19439D01*
X20926Y19439D01*
X20926Y19604D01*
X20683Y19846D01*
X20986Y20149D01*
X20986Y20629D01*
X20726Y20889D01*
X20986Y21149D01*
X20986Y21629D01*
X20726Y21889D01*
X20986Y22149D01*
X20986Y22629D01*
X20646Y22969D01*
X20165Y22969D01*
X19906Y22709D01*
X19646Y22969D01*
X19247Y22969D01*
X19438Y23160D01*
X19438Y23708D01*
X19442Y23701D01*
X19707Y23479D01*
X19707Y23479D01*
X20032Y23360D01*
X20378Y23360D01*
X20702Y23479D01*
X20967Y23701D01*
X21140Y24000D01*
X21200Y24340D01*
X21200Y24340D01*
X21140Y24681D01*
X20967Y24980D01*
X20702Y25202D01*
X20378Y25320D01*
X20032Y25320D01*
X19707Y25202D01*
X19442Y24980D01*
X19270Y24681D01*
X19210Y24340D01*
X19270Y24000D01*
X19383Y23804D01*
X19105Y24082D01*
X19105Y25406D01*
X19003Y25508D01*
X20205Y25508D01*
X20357Y25498D01*
X20652Y25419D01*
X20916Y25267D01*
X21131Y25051D01*
X21284Y24787D01*
X21347Y24551D01*
X21347Y24243D01*
X21373Y24217D01*
X21373Y23578D01*
X21347Y23552D01*
X21347Y23357D01*
X21373Y23331D01*
X21373Y18460D01*
X21347Y18434D01*
X21347Y18239D01*
X21373Y18213D01*
X21373Y17451D01*
X21363Y17298D01*
X21284Y17004D01*
X21131Y16740D01*
X20916Y16524D01*
X20652Y16372D01*
X20357Y16293D01*
X20205Y16283D01*
X3792Y16283D01*
X3766Y16308D01*
X3472Y16308D01*
X3219Y16379D01*
X2953Y16538D01*
X2737Y16761D01*
X2585Y17031D01*
X2540Y17209D01*
X2713Y17210D01*
X2731Y17107D01*
X2904Y16808D01*
X2904Y16808D01*
X3169Y16586D01*
X3493Y16467D01*
X3839Y16467D01*
X4164Y16586D01*
X4428Y16808D01*
X4428Y16808D01*
X4601Y17107D01*
X4661Y17447D01*
X4661Y17447D01*
X4601Y17788D01*
X4428Y18087D01*
X4164Y18309D01*
X3839Y18427D01*
X3493Y18427D01*
X3169Y18309D01*
X3169Y18309D01*
X2904Y18087D01*
X2731Y17788D01*
X2731Y17788D01*
X2712Y17681D01*
X2501Y17680D01*
X2501Y18532D01*
X2636Y18477D01*
X2813Y18477D01*
X2977Y18545D01*
X3103Y18670D01*
X3171Y18834D01*
X3171Y19012D01*
X3103Y19176D01*
X2977Y19301D01*
X2813Y19369D01*
X2636Y19369D01*
X2501Y19314D01*
X2501Y22469D01*
X2636Y22414D01*
X2813Y22414D01*
X2977Y22482D01*
X3103Y22607D01*
X3171Y22771D01*
X3171Y22949D01*
X3103Y23113D01*
X2977Y23238D01*
X2813Y23306D01*
X2636Y23306D01*
X2501Y23251D01*
X2501Y24217D01*
X2527Y24243D01*
X2527Y24551D01*
X2590Y24787D01*
X2743Y25051D01*
X2958Y25267D01*
X3222Y25419D01*
X3517Y25498D01*
X3669Y25508D01*
X14576Y25508D01*
X14515Y25483D01*
X14403Y25371D01*
X14183Y25371D01*
X14134Y25373D01*
X14130Y25371D01*
X14125Y25371D01*
X14080Y25352D01*
X14033Y25335D01*
X14030Y25332D01*
X14026Y25330D01*
X13991Y25295D01*
X13740Y25058D01*
X13678Y25120D01*
X13605Y25193D01*
X13509Y25233D01*
X12340Y25233D01*
X12244Y25193D01*
X12171Y25120D01*
X12071Y25020D01*
X12054Y24978D01*
X12027Y24985D01*
X11743Y24985D01*
X11743Y24531D01*
X11643Y24531D01*
X11643Y24985D01*
X11358Y24985D01*
X11320Y24975D01*
X11285Y24955D01*
X11258Y24927D01*
X11238Y24893D01*
X11228Y24855D01*
X11228Y24531D01*
X11643Y24531D01*
X11643Y24431D01*
X11743Y24431D01*
X11743Y23976D01*
X12027Y23976D01*
X12031Y23977D01*
X12031Y23121D01*
X12071Y23025D01*
X12144Y22952D01*
X12363Y22733D01*
X12333Y22733D01*
X12077Y22733D01*
X12039Y22723D01*
X12005Y22703D01*
X11977Y22675D01*
X11957Y22641D01*
X11947Y22603D01*
X11947Y22524D01*
X11947Y22474D01*
X11887Y22414D01*
X11887Y22017D01*
X11424Y22017D01*
X11328Y21977D01*
X11179Y21828D01*
X11179Y22038D01*
X11133Y22085D01*
X11156Y22085D01*
X11279Y22208D01*
X11279Y22738D01*
X11156Y22861D01*
X10813Y22861D01*
X10880Y22967D01*
X11200Y22967D01*
X11260Y23027D01*
X11476Y23027D01*
X11476Y23423D01*
X11576Y23423D01*
X11576Y23523D01*
X11476Y23523D01*
X11476Y23918D01*
X11260Y23918D01*
X11200Y23978D01*
X11054Y23978D01*
X11115Y24039D01*
X11115Y24922D01*
X10992Y25045D01*
X10188Y25045D01*
X10065Y24922D01*
X10065Y24585D01*
X10034Y24583D01*
X9960Y24658D01*
X9429Y24658D01*
X9306Y24535D01*
X9306Y24249D01*
X8971Y23914D01*
X8971Y23913D01*
X8789Y23913D01*
X8691Y23815D01*
X8593Y23913D01*
X7951Y23913D01*
X7951Y24116D01*
X7964Y24107D01*
X8036Y24070D01*
X8114Y24045D01*
X8186Y24033D01*
X8186Y24502D01*
X8286Y24502D01*
X8286Y24602D01*
X8186Y24602D01*
X8186Y25070D01*
X8114Y25059D01*
X8036Y25034D01*
X7964Y24997D01*
X7897Y24948D01*
X7839Y24891D01*
X7791Y24824D01*
X7769Y24781D01*
X7728Y24880D01*
X7565Y25043D01*
X7351Y25132D01*
X7121Y25132D01*
X6908Y25043D01*
X6744Y24880D01*
X6736Y24860D01*
X6728Y24880D01*
X6565Y25043D01*
X6351Y25132D01*
X6121Y25132D01*
X5908Y25043D01*
X5816Y24952D01*
X5816Y25009D01*
X5693Y25132D01*
X4779Y25132D01*
X4656Y25009D01*
X4656Y24373D01*
X4601Y24684D01*
X4428Y24983D01*
X4428Y24983D01*
X4164Y25205D01*
X4164Y25205D01*
X3839Y25324D01*
X3493Y25324D01*
X3169Y25205D01*
X3169Y25205D01*
X2904Y24983D01*
X2731Y24684D01*
X2731Y24684D01*
X2671Y24344D01*
X2671Y24344D01*
X2731Y24003D01*
X2904Y23704D01*
X2904Y23704D01*
X3169Y23482D01*
X3493Y23364D01*
X3839Y23364D01*
X4164Y23482D01*
X4428Y23704D01*
X4428Y23704D01*
X4601Y24003D01*
X4656Y24314D01*
X4656Y24095D01*
X4779Y23972D01*
X4909Y23972D01*
X4362Y23426D01*
X4321Y23326D01*
X4321Y22984D01*
X4155Y22818D01*
X4155Y22949D01*
X4087Y23113D01*
X3961Y23238D01*
X3797Y23306D01*
X3620Y23306D01*
X3456Y23238D01*
X3330Y23113D01*
X3262Y22949D01*
X3262Y22771D01*
X3330Y22607D01*
X3456Y22482D01*
X3620Y22414D01*
X3751Y22414D01*
X2762Y21426D01*
X2721Y21326D01*
X2721Y20419D01*
X2762Y20320D01*
X2838Y20244D01*
X3138Y19944D01*
X3238Y19903D01*
X4131Y19903D01*
X4131Y19747D01*
X4220Y19534D01*
X4383Y19371D01*
X4596Y19283D01*
X4679Y19283D01*
X4679Y17102D01*
X4720Y17002D01*
X4896Y16826D01*
X4896Y16714D01*
X5019Y16591D01*
X5666Y16591D01*
X5785Y16711D01*
X5905Y16591D01*
X6552Y16591D01*
X6675Y16714D01*
X6675Y17360D01*
X6584Y17451D01*
X6675Y17541D01*
X6675Y17703D01*
X6769Y17703D01*
X6769Y17510D01*
X6800Y17479D01*
X6769Y17448D01*
X6769Y16762D01*
X6892Y16639D01*
X7373Y16639D01*
X7595Y16413D01*
X7596Y16412D01*
X7633Y16375D01*
X7669Y16337D01*
X7671Y16337D01*
X7671Y16336D01*
X7720Y16316D01*
X7768Y16295D01*
X7770Y16295D01*
X7771Y16295D01*
X7823Y16295D01*
X7876Y16294D01*
X7877Y16295D01*
X9038Y16295D01*
X9137Y16336D01*
X9273Y16472D01*
X9545Y16472D01*
X9668Y16595D01*
X9668Y16701D01*
X9919Y16701D01*
X9919Y17057D01*
X10019Y17057D01*
X10019Y17157D01*
X10433Y17157D01*
X10433Y17382D01*
X10423Y17420D01*
X10416Y17434D01*
X10493Y17512D01*
X10493Y18198D01*
X10389Y18302D01*
X10389Y18445D01*
X10507Y18563D01*
X10507Y19094D01*
X10384Y19217D01*
X9983Y19217D01*
X9983Y19553D01*
X10156Y19553D01*
X11479Y18230D01*
X11324Y18230D01*
X11324Y17874D01*
X11719Y17874D01*
X11719Y17990D01*
X12015Y17694D01*
X12017Y17690D01*
X12052Y17657D01*
X12065Y17644D01*
X12065Y17511D01*
X12096Y17479D01*
X12065Y17448D01*
X12065Y17355D01*
X11779Y17355D01*
X11779Y17498D01*
X11719Y17558D01*
X11719Y17774D01*
X11324Y17774D01*
X11324Y17874D01*
X11224Y17874D01*
X11224Y17774D01*
X10829Y17774D01*
X10829Y17558D01*
X10769Y17498D01*
X10769Y16812D01*
X10892Y16689D01*
X11656Y16689D01*
X11779Y16812D01*
X11779Y16835D01*
X12065Y16835D01*
X12065Y16763D01*
X12188Y16640D01*
X12668Y16640D01*
X12793Y16512D01*
X12793Y16510D01*
X12830Y16473D01*
X12867Y16436D01*
X12868Y16435D01*
X12869Y16434D01*
X12917Y16414D01*
X12965Y16394D01*
X12967Y16394D01*
X12968Y16393D01*
X13020Y16393D01*
X13073Y16393D01*
X13074Y16393D01*
X14156Y16393D01*
X14255Y16434D01*
X14331Y16510D01*
X14524Y16703D01*
X14608Y16669D01*
X14838Y16669D01*
X15051Y16757D01*
X15215Y16920D01*
X15223Y16940D01*
X15231Y16920D01*
X15394Y16757D01*
X15608Y16669D01*
X15838Y16669D01*
X16051Y16757D01*
X16215Y16920D01*
X16223Y16940D01*
X16231Y16920D01*
X16394Y16757D01*
X16608Y16669D01*
X16838Y16669D01*
X17051Y16757D01*
X17215Y16920D01*
X17223Y16940D01*
X17231Y16920D01*
X17394Y16757D01*
X17608Y16669D01*
X17838Y16669D01*
X18051Y16757D01*
X18215Y16920D01*
X18256Y17020D01*
X18278Y16976D01*
X18326Y16910D01*
X18384Y16852D01*
X18450Y16804D01*
X18523Y16767D01*
X18601Y16742D01*
X18673Y16730D01*
X18673Y17199D01*
X18773Y17199D01*
X18773Y17299D01*
X18773Y17255D02*
X19247Y17255D01*
X19242Y17199D02*
X18773Y17199D01*
X18773Y16730D01*
X18845Y16742D01*
X18923Y16767D01*
X18995Y16804D01*
X19062Y16852D01*
X19120Y16910D01*
X19168Y16976D01*
X19205Y17049D01*
X19230Y17127D01*
X19242Y17199D01*
X19235Y17156D02*
X19264Y17156D01*
X19273Y17107D02*
X19273Y17107D01*
X19301Y17058D02*
X19208Y17058D01*
X19155Y16959D02*
X19358Y16959D01*
X19415Y16861D02*
X19070Y16861D01*
X18908Y16762D02*
X19500Y16762D01*
X19617Y16664D02*
X14485Y16664D01*
X14386Y16565D02*
X19767Y16565D01*
X19710Y16586D02*
X19710Y16586D01*
X20649Y16565D02*
X20957Y16565D01*
X21055Y16664D02*
X20798Y16664D01*
X20916Y16762D02*
X21144Y16762D01*
X21201Y16861D02*
X21001Y16861D01*
X20970Y16808D02*
X20970Y16808D01*
X20970Y16808D01*
X21058Y16959D02*
X21258Y16959D01*
X21298Y17058D02*
X21114Y17058D01*
X21152Y17156D02*
X21325Y17156D01*
X21351Y17255D02*
X21169Y17255D01*
X21186Y17353D02*
X21366Y17353D01*
X21373Y17452D02*
X21202Y17452D01*
X21185Y17550D02*
X21373Y17550D01*
X21373Y17649D02*
X21168Y17649D01*
X21150Y17747D02*
X21373Y17747D01*
X21373Y17846D02*
X21110Y17846D01*
X21143Y17788D02*
X21143Y17788D01*
X21053Y17944D02*
X21373Y17944D01*
X21373Y18043D02*
X20996Y18043D01*
X20906Y18141D02*
X21373Y18141D01*
X21347Y18240D02*
X20788Y18240D01*
X20705Y18309D02*
X20705Y18309D01*
X20626Y18338D02*
X21347Y18338D01*
X21350Y18437D02*
X19378Y18437D01*
X19378Y18535D02*
X21373Y18535D01*
X21373Y18634D02*
X19350Y18634D01*
X19252Y18732D02*
X21373Y18732D01*
X21373Y18831D02*
X19668Y18831D01*
X19766Y18929D02*
X20130Y18929D01*
X20031Y19028D02*
X19865Y19028D01*
X20356Y19028D02*
X20456Y19028D01*
X20456Y19126D02*
X20356Y19126D01*
X20356Y19225D02*
X20456Y19225D01*
X20456Y19323D02*
X20356Y19323D01*
X20456Y19339D02*
X20456Y18869D01*
X20621Y18869D01*
X20926Y19173D01*
X20926Y19339D01*
X20456Y19339D01*
X20456Y19422D02*
X21373Y19422D01*
X21373Y19520D02*
X20926Y19520D01*
X20911Y19619D02*
X21373Y19619D01*
X21373Y19717D02*
X20813Y19717D01*
X20714Y19816D02*
X21373Y19816D01*
X21373Y19914D02*
X20751Y19914D01*
X20850Y20013D02*
X21373Y20013D01*
X21373Y20111D02*
X20948Y20111D01*
X20986Y20210D02*
X21373Y20210D01*
X21373Y20308D02*
X20986Y20308D01*
X20986Y20407D02*
X21373Y20407D01*
X21373Y20505D02*
X20986Y20505D01*
X20986Y20604D02*
X21373Y20604D01*
X21373Y20702D02*
X20912Y20702D01*
X20814Y20801D02*
X21373Y20801D01*
X21373Y20899D02*
X20736Y20899D01*
X20835Y20998D02*
X21373Y20998D01*
X21373Y21096D02*
X20933Y21096D01*
X20986Y21195D02*
X21373Y21195D01*
X21373Y21293D02*
X20986Y21293D01*
X20986Y21392D02*
X21373Y21392D01*
X21373Y21490D02*
X20986Y21490D01*
X20986Y21589D02*
X21373Y21589D01*
X21373Y21687D02*
X20927Y21687D01*
X20829Y21786D02*
X21373Y21786D01*
X21373Y21884D02*
X20730Y21884D01*
X20820Y21983D02*
X21373Y21983D01*
X21373Y22081D02*
X20918Y22081D01*
X20986Y22180D02*
X21373Y22180D01*
X21373Y22278D02*
X20986Y22278D01*
X20986Y22377D02*
X21373Y22377D01*
X21373Y22475D02*
X20986Y22475D01*
X20986Y22574D02*
X21373Y22574D01*
X21373Y22672D02*
X20942Y22672D01*
X20844Y22771D02*
X21373Y22771D01*
X21373Y22869D02*
X20745Y22869D01*
X20647Y22968D02*
X21373Y22968D01*
X21373Y23066D02*
X19344Y23066D01*
X19438Y23165D02*
X21373Y23165D01*
X21373Y23263D02*
X19438Y23263D01*
X19438Y23362D02*
X20028Y23362D01*
X19758Y23460D02*
X19438Y23460D01*
X19438Y23559D02*
X19612Y23559D01*
X19494Y23657D02*
X19438Y23657D01*
X19442Y23701D02*
X19442Y23701D01*
X19354Y23854D02*
X19333Y23854D01*
X19297Y23953D02*
X19234Y23953D01*
X19270Y24000D02*
X19270Y24000D01*
X19261Y24051D02*
X19136Y24051D01*
X19105Y24150D02*
X19243Y24150D01*
X19226Y24248D02*
X19105Y24248D01*
X19105Y24347D02*
X19211Y24347D01*
X19210Y24340D02*
X19210Y24340D01*
X19228Y24445D02*
X19105Y24445D01*
X19105Y24544D02*
X19245Y24544D01*
X19263Y24642D02*
X19105Y24642D01*
X19105Y24741D02*
X19304Y24741D01*
X19270Y24681D02*
X19270Y24681D01*
X19361Y24839D02*
X19105Y24839D01*
X19105Y24938D02*
X19418Y24938D01*
X19442Y24980D02*
X19442Y24980D01*
X19442Y24980D01*
X19509Y25036D02*
X19105Y25036D01*
X19105Y25135D02*
X19627Y25135D01*
X19707Y25202D02*
X19707Y25202D01*
X19792Y25233D02*
X19105Y25233D01*
X19105Y25332D02*
X20804Y25332D01*
X20702Y25202D02*
X20702Y25202D01*
X20617Y25233D02*
X20950Y25233D01*
X21048Y25135D02*
X20783Y25135D01*
X20900Y25036D02*
X21140Y25036D01*
X21197Y24938D02*
X20992Y24938D01*
X20967Y24980D02*
X20967Y24980D01*
X21048Y24839D02*
X21254Y24839D01*
X21296Y24741D02*
X21105Y24741D01*
X21140Y24681D02*
X21140Y24681D01*
X21147Y24642D02*
X21323Y24642D01*
X21347Y24544D02*
X21164Y24544D01*
X21181Y24445D02*
X21347Y24445D01*
X21347Y24347D02*
X21199Y24347D01*
X21184Y24248D02*
X21347Y24248D01*
X21373Y24150D02*
X21166Y24150D01*
X21149Y24051D02*
X21373Y24051D01*
X21373Y23953D02*
X21113Y23953D01*
X21140Y24000D02*
X21140Y24000D01*
X21056Y23854D02*
X21373Y23854D01*
X21373Y23756D02*
X20999Y23756D01*
X20967Y23701D02*
X20967Y23701D01*
X20967Y23701D01*
X20915Y23657D02*
X21373Y23657D01*
X21354Y23559D02*
X20798Y23559D01*
X20702Y23479D02*
X20702Y23479D01*
X20652Y23460D02*
X21347Y23460D01*
X21347Y23362D02*
X20381Y23362D01*
X20164Y22968D02*
X19647Y22968D01*
X19745Y22869D02*
X20066Y22869D01*
X19967Y22771D02*
X19844Y22771D01*
X19406Y22389D02*
X19223Y22473D01*
X18691Y22473D01*
X18291Y22873D01*
X17191Y22873D01*
X16991Y22673D01*
X16603Y22672D02*
X16395Y22672D01*
X16434Y22634D02*
X16292Y22776D01*
X16106Y22853D01*
X15905Y22853D01*
X15719Y22776D01*
X15577Y22634D01*
X15500Y22448D01*
X15500Y21656D01*
X15577Y21471D01*
X15609Y21439D01*
X14346Y21439D01*
X14250Y21399D01*
X14177Y21326D01*
X14100Y21249D01*
X13347Y21249D01*
X13898Y21800D01*
X13920Y21778D01*
X14450Y21778D01*
X14573Y21901D01*
X14573Y22430D01*
X14615Y22443D01*
X14633Y22452D01*
X14392Y22870D01*
X13975Y22629D01*
X14003Y22590D01*
X14039Y22554D01*
X13920Y22554D01*
X13851Y22486D01*
X13851Y22967D01*
X13876Y22967D01*
X13876Y22896D01*
X13890Y22813D01*
X13916Y22733D01*
X13925Y22715D01*
X14342Y22956D01*
X14392Y22870D01*
X14479Y22920D01*
X14429Y23006D01*
X14846Y23247D01*
X14817Y23286D01*
X14758Y23345D01*
X14690Y23395D01*
X14615Y23433D01*
X14535Y23459D01*
X14496Y23465D01*
X14529Y23479D01*
X14702Y23651D01*
X14859Y23651D01*
X15005Y23712D01*
X15058Y23659D01*
X18018Y23659D01*
X18018Y23160D01*
X18046Y23133D01*
X17140Y23133D01*
X17044Y23093D01*
X17012Y23061D01*
X16726Y23061D01*
X16603Y22938D01*
X16603Y22408D01*
X16726Y22285D01*
X17256Y22285D01*
X17332Y22360D01*
X17332Y22101D01*
X17729Y22101D01*
X17729Y22004D01*
X17332Y22004D01*
X17332Y21722D01*
X17343Y21653D01*
X17365Y21586D01*
X17393Y21531D01*
X17138Y21531D01*
X17043Y21491D01*
X16969Y21418D01*
X16584Y21033D01*
X16121Y21033D01*
X15956Y21252D01*
X16106Y21252D01*
X16292Y21329D01*
X16434Y21471D01*
X16511Y21656D01*
X16511Y22448D01*
X16434Y22634D01*
X16459Y22574D02*
X16603Y22574D01*
X16603Y22475D02*
X16500Y22475D01*
X16511Y22377D02*
X16634Y22377D01*
X16511Y22278D02*
X17332Y22278D01*
X17332Y22180D02*
X16511Y22180D01*
X16511Y22081D02*
X17729Y22081D01*
X17826Y22081D02*
X18531Y22081D01*
X18541Y22091D02*
X18222Y21773D01*
X18222Y22004D01*
X17826Y22004D01*
X17826Y22101D01*
X18222Y22101D01*
X18222Y22382D01*
X18212Y22452D01*
X18190Y22518D01*
X18158Y22581D01*
X18135Y22613D01*
X18184Y22613D01*
X18471Y22325D01*
X18544Y22252D01*
X18640Y22213D01*
X18826Y22213D01*
X18826Y22149D01*
X18843Y22131D01*
X18637Y22131D01*
X18541Y22091D01*
X18432Y21983D02*
X18222Y21983D01*
X18222Y21884D02*
X18334Y21884D01*
X18235Y21786D02*
X18222Y21786D01*
X18222Y22180D02*
X18826Y22180D01*
X18518Y22278D02*
X18222Y22278D01*
X18222Y22377D02*
X18420Y22377D01*
X18321Y22475D02*
X18204Y22475D01*
X18223Y22574D02*
X18162Y22574D01*
X18018Y23165D02*
X14703Y23165D01*
X14732Y23066D02*
X14532Y23066D01*
X14562Y22968D02*
X14451Y22968D01*
X14479Y22920D02*
X14896Y23161D01*
X14905Y23143D01*
X14931Y23063D01*
X14944Y22980D01*
X14944Y22896D01*
X14931Y22813D01*
X14905Y22733D01*
X14867Y22658D01*
X14817Y22590D01*
X14758Y22531D01*
X14719Y22503D01*
X14479Y22920D01*
X14508Y22869D02*
X14392Y22869D01*
X14391Y22869D02*
X14191Y22869D01*
X14220Y22771D02*
X14020Y22771D01*
X14050Y22672D02*
X13851Y22672D01*
X13851Y22574D02*
X14020Y22574D01*
X13903Y22771D02*
X13851Y22771D01*
X13851Y22869D02*
X13881Y22869D01*
X13331Y22869D02*
X12963Y22869D01*
X13012Y22820D02*
X12804Y23027D01*
X12907Y23027D01*
X12907Y23423D01*
X13007Y23423D01*
X13007Y23027D01*
X13223Y23027D01*
X13283Y22967D01*
X13331Y22967D01*
X13331Y22380D01*
X13223Y22272D01*
X13031Y22272D01*
X13051Y22321D01*
X13051Y22724D01*
X13012Y22820D01*
X13032Y22771D02*
X13331Y22771D01*
X13331Y22672D02*
X13051Y22672D01*
X13051Y22574D02*
X13331Y22574D01*
X13331Y22475D02*
X13051Y22475D01*
X13051Y22377D02*
X13328Y22377D01*
X13229Y22278D02*
X13034Y22278D01*
X12791Y22373D02*
X12687Y22268D01*
X12333Y22268D01*
X12333Y22012D02*
X13331Y22012D01*
X13591Y22273D01*
X13591Y23438D01*
X13283Y22968D02*
X12864Y22968D01*
X12907Y23066D02*
X13007Y23066D01*
X13007Y23165D02*
X12907Y23165D01*
X12907Y23263D02*
X13007Y23263D01*
X13007Y23362D02*
X12907Y23362D01*
X12907Y23523D02*
X12907Y23918D01*
X12681Y23918D01*
X12643Y23908D01*
X12609Y23888D01*
X12581Y23860D01*
X12561Y23826D01*
X12551Y23790D01*
X12551Y24156D01*
X12561Y24119D01*
X12581Y24085D01*
X12609Y24057D01*
X12643Y24038D01*
X12681Y24027D01*
X12907Y24027D01*
X12907Y24423D01*
X13007Y24423D01*
X13007Y24027D01*
X13223Y24027D01*
X13278Y23973D01*
X13223Y23918D01*
X13007Y23918D01*
X13007Y23523D01*
X12907Y23523D01*
X12907Y23559D02*
X13007Y23559D01*
X13007Y23657D02*
X12907Y23657D01*
X12907Y23756D02*
X13007Y23756D01*
X13007Y23854D02*
X12907Y23854D01*
X12907Y24051D02*
X13007Y24051D01*
X13007Y24150D02*
X12907Y24150D01*
X12907Y24248D02*
X13007Y24248D01*
X13007Y24347D02*
X12907Y24347D01*
X12553Y24150D02*
X12551Y24150D01*
X12551Y24051D02*
X12619Y24051D01*
X12551Y23953D02*
X13258Y23953D01*
X12577Y23854D02*
X12551Y23854D01*
X12031Y23854D02*
X11905Y23854D01*
X11902Y23860D02*
X11922Y23826D01*
X11932Y23788D01*
X11932Y23523D01*
X11576Y23523D01*
X11576Y23918D01*
X11802Y23918D01*
X11840Y23908D01*
X11874Y23888D01*
X11902Y23860D01*
X11932Y23756D02*
X12031Y23756D01*
X12031Y23657D02*
X11932Y23657D01*
X11932Y23559D02*
X12031Y23559D01*
X12031Y23460D02*
X11576Y23460D01*
X11576Y23423D02*
X11932Y23423D01*
X11932Y23158D01*
X11922Y23119D01*
X11902Y23085D01*
X11874Y23057D01*
X11840Y23038D01*
X11802Y23027D01*
X11576Y23027D01*
X11576Y23423D01*
X11576Y23362D02*
X11476Y23362D01*
X11476Y23263D02*
X11576Y23263D01*
X11576Y23165D02*
X11476Y23165D01*
X11476Y23066D02*
X11576Y23066D01*
X11883Y23066D02*
X12054Y23066D01*
X12031Y23165D02*
X11932Y23165D01*
X11932Y23263D02*
X12031Y23263D01*
X12031Y23362D02*
X11932Y23362D01*
X12291Y23173D02*
X12291Y24873D01*
X12391Y24973D01*
X13458Y24973D01*
X13747Y24683D01*
X14092Y24648D02*
X14092Y24090D01*
X13979Y23978D01*
X14264Y23978D01*
X14320Y24033D01*
X14320Y24191D01*
X14388Y24356D01*
X14515Y24483D01*
X14680Y24551D01*
X14859Y24551D01*
X14935Y24520D01*
X14935Y24683D01*
X14859Y24651D01*
X14680Y24651D01*
X14515Y24720D01*
X14403Y24831D01*
X14286Y24831D01*
X14092Y24648D01*
X14092Y24642D02*
X14935Y24642D01*
X14935Y24544D02*
X14878Y24544D01*
X14662Y24544D02*
X14092Y24544D01*
X14092Y24445D02*
X14477Y24445D01*
X14384Y24347D02*
X14092Y24347D01*
X14092Y24248D02*
X14343Y24248D01*
X14320Y24150D02*
X14092Y24150D01*
X14053Y24051D02*
X14320Y24051D01*
X14609Y23559D02*
X18018Y23559D01*
X18018Y23657D02*
X14873Y23657D01*
X14735Y23362D02*
X18018Y23362D01*
X18018Y23460D02*
X14526Y23460D01*
X14834Y23263D02*
X18018Y23263D01*
X17017Y23066D02*
X14930Y23066D01*
X14944Y22968D02*
X16633Y22968D01*
X16603Y22869D02*
X14940Y22869D01*
X14917Y22771D02*
X15714Y22771D01*
X15616Y22672D02*
X14874Y22672D01*
X14801Y22574D02*
X15552Y22574D01*
X15512Y22475D02*
X14620Y22475D01*
X14573Y22377D02*
X15500Y22377D01*
X15500Y22278D02*
X14573Y22278D01*
X14573Y22180D02*
X15500Y22180D01*
X15500Y22081D02*
X14573Y22081D01*
X14573Y21983D02*
X15500Y21983D01*
X15500Y21884D02*
X14556Y21884D01*
X14458Y21786D02*
X15500Y21786D01*
X15500Y21687D02*
X13785Y21687D01*
X13687Y21589D02*
X15528Y21589D01*
X15569Y21490D02*
X13588Y21490D01*
X13490Y21392D02*
X14243Y21392D01*
X14144Y21293D02*
X13391Y21293D01*
X12975Y21245D02*
X13906Y22175D01*
X13914Y22166D01*
X14185Y22166D01*
X13913Y21786D02*
X13884Y21786D01*
X14398Y21179D02*
X15685Y21179D01*
X15991Y20773D01*
X16691Y20773D01*
X17190Y21271D01*
X18088Y21271D01*
X18688Y21871D01*
X19996Y21871D01*
X20406Y22281D01*
X20406Y22389D01*
X20406Y21389D02*
X20406Y21281D01*
X19996Y20871D01*
X18996Y20871D01*
X18498Y20373D01*
X18291Y20373D01*
X18190Y20474D01*
X17193Y20474D01*
X16591Y19873D01*
X16591Y18973D01*
X16291Y18673D01*
X15691Y18673D01*
X15091Y19273D01*
X12391Y19273D01*
X10675Y20989D01*
X10050Y20989D01*
X10050Y21245D02*
X9763Y21245D01*
X9091Y20573D01*
X9191Y20637D01*
X9254Y21103D02*
X8789Y21103D01*
X8666Y20980D01*
X8666Y20308D01*
X8666Y20308D01*
X8643Y20331D01*
X8643Y20548D01*
X8248Y20548D01*
X8248Y20648D01*
X8643Y20648D01*
X8643Y20873D01*
X8633Y20912D01*
X8613Y20946D01*
X8585Y20974D01*
X8551Y20994D01*
X8513Y21004D01*
X8248Y21004D01*
X8248Y20648D01*
X8148Y20648D01*
X8148Y21004D01*
X7951Y21004D01*
X7951Y21585D01*
X8156Y21585D01*
X8234Y21662D01*
X8616Y21280D01*
X8712Y21241D01*
X9392Y21241D01*
X9254Y21103D01*
X9346Y21195D02*
X7951Y21195D01*
X7951Y21293D02*
X8603Y21293D01*
X8505Y21392D02*
X7951Y21392D01*
X7951Y21490D02*
X8406Y21490D01*
X8308Y21589D02*
X8161Y21589D01*
X8198Y21366D02*
X8198Y20598D01*
X8248Y20604D02*
X8666Y20604D01*
X8666Y20702D02*
X8643Y20702D01*
X8643Y20801D02*
X8666Y20801D01*
X8666Y20899D02*
X8636Y20899D01*
X8684Y20998D02*
X8535Y20998D01*
X8782Y21096D02*
X7951Y21096D01*
X8148Y20998D02*
X8248Y20998D01*
X8248Y20899D02*
X8148Y20899D01*
X8148Y20801D02*
X8248Y20801D01*
X8248Y20702D02*
X8148Y20702D01*
X8643Y20505D02*
X8666Y20505D01*
X8666Y20407D02*
X8643Y20407D01*
X8198Y19929D02*
X8142Y19873D01*
X7991Y19873D01*
X7691Y20173D01*
X7691Y21573D01*
X7491Y21773D01*
X7491Y22123D01*
X7691Y22323D01*
X7691Y24073D01*
X7236Y24528D01*
X7236Y24552D01*
X7745Y24839D02*
X7802Y24839D01*
X7887Y24938D02*
X7670Y24938D01*
X7572Y25036D02*
X8044Y25036D01*
X8186Y25036D02*
X8286Y25036D01*
X8286Y25070D02*
X8286Y24602D01*
X8755Y24602D01*
X8743Y24674D01*
X8718Y24751D01*
X8681Y24824D01*
X8633Y24891D01*
X8575Y24948D01*
X8509Y24997D01*
X8436Y25034D01*
X8358Y25059D01*
X8286Y25070D01*
X8286Y24938D02*
X8186Y24938D01*
X8186Y24839D02*
X8286Y24839D01*
X8286Y24741D02*
X8186Y24741D01*
X8186Y24642D02*
X8286Y24642D01*
X8286Y24544D02*
X9315Y24544D01*
X9306Y24445D02*
X8746Y24445D01*
X8743Y24430D02*
X8755Y24502D01*
X8286Y24502D01*
X8286Y24033D01*
X8358Y24045D01*
X8436Y24070D01*
X8509Y24107D01*
X8575Y24155D01*
X8633Y24213D01*
X8681Y24279D01*
X8718Y24352D01*
X8743Y24430D01*
X8715Y24347D02*
X9306Y24347D01*
X9305Y24248D02*
X8658Y24248D01*
X8567Y24150D02*
X9207Y24150D01*
X9108Y24051D02*
X8378Y24051D01*
X8286Y24051D02*
X8186Y24051D01*
X8094Y24051D02*
X7951Y24051D01*
X7951Y23953D02*
X9010Y23953D01*
X9191Y23766D02*
X9695Y24269D01*
X9975Y24642D02*
X10065Y24642D01*
X10065Y24741D02*
X8721Y24741D01*
X8748Y24642D02*
X9414Y24642D01*
X10065Y24839D02*
X8670Y24839D01*
X8586Y24938D02*
X10081Y24938D01*
X10180Y25036D02*
X8428Y25036D01*
X8286Y24445D02*
X8186Y24445D01*
X8186Y24347D02*
X8286Y24347D01*
X8286Y24248D02*
X8186Y24248D01*
X8186Y24150D02*
X8286Y24150D01*
X8652Y23854D02*
X8731Y23854D01*
X9191Y23766D02*
X9191Y23447D01*
X8191Y23447D01*
X8191Y22699D02*
X8191Y22273D01*
X7891Y21973D01*
X8291Y21973D01*
X8763Y21501D01*
X10050Y21501D01*
X10050Y21757D02*
X10875Y21757D01*
X10791Y21773D01*
X11179Y21884D02*
X11235Y21884D01*
X11179Y21983D02*
X11342Y21983D01*
X11252Y22180D02*
X11887Y22180D01*
X11887Y22278D02*
X11279Y22278D01*
X11279Y22377D02*
X11887Y22377D01*
X11947Y22475D02*
X11279Y22475D01*
X11279Y22574D02*
X11947Y22574D01*
X11947Y22524D02*
X11997Y22524D01*
X11997Y22524D01*
X11947Y22524D01*
X11975Y22672D02*
X11279Y22672D01*
X11247Y22771D02*
X12326Y22771D01*
X12333Y22733D02*
X12333Y22537D01*
X12333Y22537D01*
X12333Y22733D01*
X12333Y22672D02*
X12333Y22672D01*
X12333Y22574D02*
X12333Y22574D01*
X12791Y22673D02*
X12791Y22373D01*
X12791Y22673D02*
X12291Y23173D01*
X12129Y22968D02*
X11200Y22968D01*
X10818Y22869D02*
X12227Y22869D01*
X11576Y23559D02*
X11476Y23559D01*
X11476Y23657D02*
X11576Y23657D01*
X11576Y23756D02*
X11476Y23756D01*
X11476Y23854D02*
X11576Y23854D01*
X11643Y23976D02*
X11358Y23976D01*
X11320Y23986D01*
X11285Y24006D01*
X11258Y24034D01*
X11238Y24068D01*
X11228Y24106D01*
X11228Y24431D01*
X11643Y24431D01*
X11643Y23976D01*
X11643Y24051D02*
X11743Y24051D01*
X11743Y24150D02*
X11643Y24150D01*
X11643Y24248D02*
X11743Y24248D01*
X11743Y24347D02*
X11643Y24347D01*
X11643Y24445D02*
X11115Y24445D01*
X11115Y24347D02*
X11228Y24347D01*
X11228Y24248D02*
X11115Y24248D01*
X11115Y24150D02*
X11228Y24150D01*
X11248Y24051D02*
X11115Y24051D01*
X11225Y23953D02*
X12031Y23953D01*
X11743Y24544D02*
X11643Y24544D01*
X11643Y24642D02*
X11743Y24642D01*
X11743Y24741D02*
X11643Y24741D01*
X11643Y24839D02*
X11743Y24839D01*
X11743Y24938D02*
X11643Y24938D01*
X12087Y25036D02*
X11001Y25036D01*
X11099Y24938D02*
X11268Y24938D01*
X11228Y24839D02*
X11115Y24839D01*
X11115Y24741D02*
X11228Y24741D01*
X11228Y24642D02*
X11115Y24642D01*
X11115Y24544D02*
X11228Y24544D01*
X12186Y25135D02*
X4248Y25135D01*
X4365Y25036D02*
X4683Y25036D01*
X4656Y24938D02*
X4455Y24938D01*
X4512Y24839D02*
X4656Y24839D01*
X4656Y24741D02*
X4568Y24741D01*
X4601Y24684D02*
X4601Y24684D01*
X4609Y24642D02*
X4656Y24642D01*
X4656Y24544D02*
X4626Y24544D01*
X4643Y24445D02*
X4656Y24445D01*
X4644Y24248D02*
X4656Y24248D01*
X4656Y24150D02*
X4627Y24150D01*
X4610Y24051D02*
X4700Y24051D01*
X4601Y24003D02*
X4601Y24003D01*
X4572Y23953D02*
X4890Y23953D01*
X4791Y23854D02*
X4515Y23854D01*
X4458Y23756D02*
X4693Y23756D01*
X4594Y23657D02*
X4373Y23657D01*
X4428Y23704D02*
X4428Y23704D01*
X4496Y23559D02*
X4255Y23559D01*
X4164Y23482D02*
X4164Y23482D01*
X4105Y23460D02*
X4397Y23460D01*
X4336Y23362D02*
X2501Y23362D01*
X2501Y23460D02*
X3228Y23460D01*
X3169Y23482D02*
X3169Y23482D01*
X3077Y23559D02*
X2501Y23559D01*
X2501Y23657D02*
X2960Y23657D01*
X2874Y23756D02*
X2501Y23756D01*
X2501Y23854D02*
X2817Y23854D01*
X2760Y23953D02*
X2501Y23953D01*
X2501Y24051D02*
X2723Y24051D01*
X2731Y24003D02*
X2731Y24003D01*
X2705Y24150D02*
X2501Y24150D01*
X2527Y24248D02*
X2688Y24248D01*
X2672Y24347D02*
X2527Y24347D01*
X2527Y24445D02*
X2689Y24445D01*
X2706Y24544D02*
X2527Y24544D01*
X2551Y24642D02*
X2724Y24642D01*
X2764Y24741D02*
X2578Y24741D01*
X2620Y24839D02*
X2821Y24839D01*
X2878Y24938D02*
X2677Y24938D01*
X2734Y25036D02*
X2967Y25036D01*
X2904Y24983D02*
X2904Y24983D01*
X2904Y24983D01*
X2826Y25135D02*
X3084Y25135D01*
X2925Y25233D02*
X3245Y25233D01*
X3263Y25430D02*
X14462Y25430D01*
X14030Y25332D02*
X3070Y25332D01*
X4087Y25233D02*
X13925Y25233D01*
X13821Y25135D02*
X13663Y25135D01*
X13678Y25120D02*
X13678Y25120D01*
X14190Y24741D02*
X14494Y24741D01*
X14449Y22771D02*
X14565Y22771D01*
X14621Y22672D02*
X14506Y22672D01*
X14563Y22574D02*
X14678Y22574D01*
X16006Y22052D02*
X16006Y21573D01*
X16355Y21392D02*
X16943Y21392D01*
X17041Y21490D02*
X16442Y21490D01*
X16483Y21589D02*
X17364Y21589D01*
X17337Y21687D02*
X16511Y21687D01*
X16511Y21786D02*
X17332Y21786D01*
X17332Y21884D02*
X16511Y21884D01*
X16511Y21983D02*
X17332Y21983D01*
X16844Y21293D02*
X16206Y21293D01*
X15999Y21195D02*
X16746Y21195D01*
X16647Y21096D02*
X16073Y21096D01*
X15645Y20801D02*
X14431Y20801D01*
X14409Y20823D02*
X14505Y20919D01*
X15555Y20919D01*
X15764Y20643D01*
X15771Y20625D01*
X15795Y20602D01*
X15815Y20575D01*
X15831Y20565D01*
X15844Y20552D01*
X15875Y20539D01*
X15904Y20522D01*
X15922Y20520D01*
X15940Y20513D01*
X15973Y20513D01*
X16006Y20508D01*
X16024Y20513D01*
X16743Y20513D01*
X16839Y20552D01*
X17297Y21011D01*
X17926Y21011D01*
X17926Y20734D01*
X17141Y20734D01*
X17046Y20695D01*
X16430Y20079D01*
X16292Y20217D01*
X16106Y20294D01*
X15905Y20294D01*
X15868Y20278D01*
X15753Y20393D01*
X15657Y20433D01*
X14799Y20433D01*
X14409Y20823D01*
X14486Y20899D02*
X15570Y20899D01*
X15719Y20702D02*
X14530Y20702D01*
X14628Y20604D02*
X15793Y20604D01*
X15720Y20407D02*
X16758Y20407D01*
X16856Y20505D02*
X14727Y20505D01*
X14691Y20173D02*
X15606Y20173D01*
X16006Y19773D01*
X16006Y19493D01*
X16397Y20111D02*
X16462Y20111D01*
X16561Y20210D02*
X16299Y20210D01*
X16659Y20308D02*
X15838Y20308D01*
X16890Y20604D02*
X16955Y20604D01*
X16989Y20702D02*
X17064Y20702D01*
X17087Y20801D02*
X17926Y20801D01*
X17926Y20899D02*
X17186Y20899D01*
X17284Y20998D02*
X17926Y20998D01*
X18314Y20897D02*
X18806Y21389D01*
X19406Y21389D01*
X19406Y20389D02*
X19388Y20273D01*
X18898Y20273D01*
X18698Y20073D01*
X18191Y20073D01*
X17974Y20290D01*
X17509Y20290D01*
X17154Y19935D01*
X17154Y18829D01*
X16898Y18273D02*
X15091Y18273D01*
X14691Y18673D01*
X12191Y18673D01*
X10387Y20477D01*
X10050Y20477D01*
X10050Y20221D02*
X10243Y20221D01*
X12091Y18373D01*
X14491Y18373D01*
X14891Y17973D01*
X16498Y17973D01*
X16898Y18273D02*
X17146Y17974D01*
X17795Y18473D02*
X18335Y19013D01*
X18335Y19714D01*
X18491Y19871D01*
X19996Y19871D01*
X20406Y20281D01*
X20406Y20389D01*
X20926Y19323D02*
X21373Y19323D01*
X21373Y19225D02*
X20926Y19225D01*
X20878Y19126D02*
X21373Y19126D01*
X21373Y19028D02*
X20780Y19028D01*
X20681Y18929D02*
X21373Y18929D01*
X20456Y18929D02*
X20356Y18929D01*
X19790Y18338D02*
X18778Y18338D01*
X18778Y18386D02*
X18678Y18386D01*
X18678Y18986D01*
X18595Y18986D01*
X18595Y19607D01*
X18599Y19611D01*
X18826Y19611D01*
X18826Y19149D01*
X18988Y18986D01*
X18778Y18986D01*
X18778Y18386D01*
X18778Y18437D02*
X18678Y18437D01*
X18678Y18535D02*
X18778Y18535D01*
X18778Y18634D02*
X18678Y18634D01*
X18678Y18732D02*
X18778Y18732D01*
X18778Y18831D02*
X18678Y18831D01*
X18678Y18929D02*
X18778Y18929D01*
X18946Y19028D02*
X18595Y19028D01*
X18595Y19126D02*
X18848Y19126D01*
X18826Y19225D02*
X18595Y19225D01*
X18595Y19323D02*
X18826Y19323D01*
X18826Y19422D02*
X18595Y19422D01*
X18595Y19520D02*
X18826Y19520D01*
X17795Y18485D02*
X17795Y18473D01*
X15391Y18473D01*
X14891Y18973D01*
X12291Y18973D01*
X10531Y20733D01*
X10050Y20733D01*
X11291Y21073D02*
X11291Y21573D01*
X11475Y21757D01*
X12333Y21757D01*
X12333Y21501D02*
X11819Y21501D01*
X11691Y21373D01*
X11691Y20573D01*
X12333Y20477D02*
X12887Y20477D01*
X13291Y20073D01*
X13291Y19673D01*
X12691Y19673D02*
X12691Y20073D01*
X12543Y20221D01*
X12333Y20221D01*
X12333Y20733D02*
X14131Y20733D01*
X14691Y20173D01*
X14208Y20989D02*
X14398Y21179D01*
X14208Y20989D02*
X12333Y20989D01*
X12333Y21245D02*
X12975Y21245D01*
X11887Y22081D02*
X11136Y22081D01*
X10891Y22473D02*
X10431Y22012D01*
X10050Y22012D01*
X10050Y22268D02*
X9622Y22268D01*
X9191Y22699D01*
X9191Y22073D01*
X7191Y22699D02*
X7191Y21273D01*
X8198Y19929D02*
X8237Y19889D01*
X9191Y19889D01*
X9723Y19664D02*
X9872Y19813D01*
X10264Y19813D01*
X12233Y17844D01*
X12590Y17854D01*
X13115Y17846D02*
X14651Y17846D01*
X14668Y17829D02*
X14608Y17829D01*
X14394Y17740D01*
X14231Y17577D01*
X14223Y17557D01*
X14215Y17577D01*
X14051Y17740D01*
X13838Y17829D01*
X13608Y17829D01*
X13394Y17740D01*
X13231Y17577D01*
X13143Y17364D01*
X13143Y17133D01*
X13226Y16933D01*
X13136Y16933D01*
X13115Y16955D01*
X13115Y17448D01*
X13084Y17479D01*
X13115Y17511D01*
X13115Y18113D01*
X14384Y18113D01*
X14668Y17829D01*
X14552Y17944D02*
X13115Y17944D01*
X13115Y18043D02*
X14454Y18043D01*
X14411Y17747D02*
X14035Y17747D01*
X14143Y17649D02*
X14303Y17649D01*
X13411Y17747D02*
X13115Y17747D01*
X13115Y17649D02*
X13303Y17649D01*
X13220Y17550D02*
X13115Y17550D01*
X13111Y17452D02*
X13179Y17452D01*
X13143Y17353D02*
X13115Y17353D01*
X13115Y17255D02*
X13143Y17255D01*
X13143Y17156D02*
X13115Y17156D01*
X13115Y17058D02*
X13174Y17058D01*
X13215Y16959D02*
X13115Y16959D01*
X12590Y17105D02*
X12580Y17095D01*
X11313Y17095D01*
X11730Y16762D02*
X12065Y16762D01*
X12164Y16664D02*
X9668Y16664D01*
X9638Y16565D02*
X12740Y16565D01*
X12837Y16467D02*
X9268Y16467D01*
X9169Y16368D02*
X20639Y16368D01*
X20816Y16467D02*
X14288Y16467D01*
X15057Y16762D02*
X15389Y16762D01*
X15291Y16861D02*
X15155Y16861D01*
X16057Y16762D02*
X16389Y16762D01*
X16291Y16861D02*
X16155Y16861D01*
X17057Y16762D02*
X17389Y16762D01*
X17291Y16861D02*
X17155Y16861D01*
X18057Y16762D02*
X18538Y16762D01*
X18673Y16762D02*
X18773Y16762D01*
X18773Y16861D02*
X18673Y16861D01*
X18673Y16959D02*
X18773Y16959D01*
X18773Y17058D02*
X18673Y17058D01*
X18673Y17156D02*
X18773Y17156D01*
X18376Y16861D02*
X18155Y16861D01*
X18231Y16959D02*
X18291Y16959D01*
X18673Y17649D02*
X18773Y17649D01*
X18773Y17747D02*
X18678Y17747D01*
X18678Y17846D02*
X18778Y17846D01*
X18778Y17944D02*
X18678Y17944D01*
X18678Y18043D02*
X18778Y18043D01*
X18778Y18141D02*
X18678Y18141D01*
X18678Y18240D02*
X18778Y18240D01*
X19378Y18240D02*
X19627Y18240D01*
X19710Y18309D02*
X19710Y18309D01*
X19510Y18141D02*
X19378Y18141D01*
X19446Y18087D02*
X19446Y18087D01*
X19446Y18087D01*
X19420Y18043D02*
X19354Y18043D01*
X19363Y17944D02*
X19255Y17944D01*
X19306Y17846D02*
X19157Y17846D01*
X19273Y17788D02*
X19273Y17788D01*
X19266Y17747D02*
X19058Y17747D01*
X19057Y17649D02*
X19248Y17649D01*
X19231Y17550D02*
X19147Y17550D01*
X19203Y17452D02*
X19214Y17452D01*
X19213Y17447D02*
X19213Y17447D01*
X12068Y17452D02*
X11779Y17452D01*
X11727Y17550D02*
X12065Y17550D01*
X12060Y17649D02*
X11719Y17649D01*
X11719Y17747D02*
X11962Y17747D01*
X11863Y17846D02*
X11324Y17846D01*
X11324Y17944D02*
X11224Y17944D01*
X11224Y17874D02*
X11224Y18230D01*
X10959Y18230D01*
X10921Y18220D01*
X10887Y18200D01*
X10859Y18172D01*
X10839Y18138D01*
X10829Y18100D01*
X10829Y17874D01*
X11224Y17874D01*
X11224Y17846D02*
X10493Y17846D01*
X10493Y17944D02*
X10829Y17944D01*
X10829Y18043D02*
X10493Y18043D01*
X10493Y18141D02*
X10841Y18141D01*
X11224Y18141D02*
X11324Y18141D01*
X11324Y18043D02*
X11224Y18043D01*
X11469Y18240D02*
X10451Y18240D01*
X10389Y18338D02*
X11371Y18338D01*
X11272Y18437D02*
X10389Y18437D01*
X10478Y18535D02*
X11174Y18535D01*
X11075Y18634D02*
X10507Y18634D01*
X10507Y18732D02*
X10977Y18732D01*
X10878Y18831D02*
X10507Y18831D01*
X10507Y18929D02*
X10780Y18929D01*
X10681Y19028D02*
X10507Y19028D01*
X10474Y19126D02*
X10583Y19126D01*
X10484Y19225D02*
X9983Y19225D01*
X9983Y19323D02*
X10386Y19323D01*
X10287Y19422D02*
X9983Y19422D01*
X9983Y19520D02*
X10189Y19520D01*
X9723Y19664D02*
X9723Y19021D01*
X9525Y18822D01*
X7812Y18822D01*
X7591Y19001D01*
X8141Y19225D02*
X9463Y19225D01*
X9463Y19128D02*
X9417Y19082D01*
X8185Y19082D01*
X8185Y19119D01*
X8095Y19337D01*
X7969Y19463D01*
X8580Y19463D01*
X8666Y19549D01*
X8666Y19546D01*
X8789Y19423D01*
X9463Y19423D01*
X9463Y19128D01*
X9461Y19126D02*
X8182Y19126D01*
X8101Y19323D02*
X9463Y19323D01*
X9463Y19422D02*
X8010Y19422D01*
X8637Y19520D02*
X8693Y19520D01*
X10493Y17747D02*
X10829Y17747D01*
X10829Y17649D02*
X10493Y17649D01*
X10493Y17550D02*
X10821Y17550D01*
X10769Y17452D02*
X10433Y17452D01*
X10433Y17353D02*
X10769Y17353D01*
X10769Y17255D02*
X10433Y17255D01*
X10433Y17057D02*
X10019Y17057D01*
X10019Y16701D01*
X10303Y16701D01*
X10341Y16711D01*
X10376Y16731D01*
X10404Y16759D01*
X10423Y16793D01*
X10433Y16831D01*
X10433Y17057D01*
X10433Y16959D02*
X10769Y16959D01*
X10769Y16861D02*
X10433Y16861D01*
X10406Y16762D02*
X10819Y16762D01*
X10769Y17058D02*
X10019Y17058D01*
X10019Y17156D02*
X10769Y17156D01*
X10019Y16959D02*
X9919Y16959D01*
X9919Y16861D02*
X10019Y16861D01*
X10019Y16762D02*
X9919Y16762D01*
X11719Y17944D02*
X11765Y17944D01*
X7639Y16368D02*
X3259Y16368D01*
X3225Y16565D02*
X2927Y16565D01*
X2831Y16664D02*
X3076Y16664D01*
X3169Y16586D02*
X3169Y16586D01*
X3073Y16467D02*
X7542Y16467D01*
X7446Y16565D02*
X4107Y16565D01*
X4164Y16586D02*
X4164Y16586D01*
X4257Y16664D02*
X4947Y16664D01*
X4896Y16762D02*
X4374Y16762D01*
X4428Y16808D02*
X4428Y16808D01*
X4459Y16861D02*
X4862Y16861D01*
X4763Y16959D02*
X4516Y16959D01*
X4573Y17058D02*
X4697Y17058D01*
X4679Y17156D02*
X4610Y17156D01*
X4601Y17107D02*
X4601Y17107D01*
X4627Y17255D02*
X4679Y17255D01*
X4679Y17353D02*
X4645Y17353D01*
X4661Y17452D02*
X4679Y17452D01*
X4679Y17550D02*
X4643Y17550D01*
X4626Y17649D02*
X4679Y17649D01*
X4679Y17747D02*
X4608Y17747D01*
X4601Y17788D02*
X4601Y17788D01*
X4568Y17846D02*
X4679Y17846D01*
X4679Y17944D02*
X4511Y17944D01*
X4454Y18043D02*
X4679Y18043D01*
X4679Y18141D02*
X4364Y18141D01*
X4428Y18087D02*
X4428Y18087D01*
X4247Y18240D02*
X4679Y18240D01*
X4679Y18338D02*
X4084Y18338D01*
X4164Y18309D02*
X4164Y18309D01*
X3961Y18545D02*
X4087Y18670D01*
X4155Y18834D01*
X4155Y19012D01*
X4087Y19176D01*
X3961Y19301D01*
X3797Y19369D01*
X3620Y19369D01*
X3456Y19301D01*
X3330Y19176D01*
X3262Y19012D01*
X3262Y18834D01*
X3330Y18670D01*
X3456Y18545D01*
X3620Y18477D01*
X3797Y18477D01*
X3961Y18545D01*
X3938Y18535D02*
X4679Y18535D01*
X4679Y18437D02*
X2501Y18437D01*
X2501Y18338D02*
X3248Y18338D01*
X3086Y18240D02*
X2501Y18240D01*
X2501Y18141D02*
X2968Y18141D01*
X2904Y18087D02*
X2904Y18087D01*
X2904Y18087D01*
X2878Y18043D02*
X2501Y18043D01*
X2501Y17944D02*
X2821Y17944D01*
X2764Y17846D02*
X2501Y17846D01*
X2501Y17747D02*
X2724Y17747D01*
X2722Y17156D02*
X2554Y17156D01*
X2579Y17058D02*
X2760Y17058D01*
X2731Y17107D02*
X2731Y17107D01*
X2816Y16959D02*
X2626Y16959D01*
X2681Y16861D02*
X2873Y16861D01*
X2958Y16762D02*
X2736Y16762D01*
X2954Y18535D02*
X3479Y18535D01*
X3367Y18634D02*
X3066Y18634D01*
X3128Y18732D02*
X3305Y18732D01*
X3264Y18831D02*
X3169Y18831D01*
X3171Y18929D02*
X3262Y18929D01*
X3269Y19028D02*
X3164Y19028D01*
X3123Y19126D02*
X3310Y19126D01*
X3379Y19225D02*
X3054Y19225D01*
X2925Y19323D02*
X3509Y19323D01*
X3909Y19323D02*
X4498Y19323D01*
X4332Y19422D02*
X2501Y19422D01*
X2501Y19520D02*
X4234Y19520D01*
X4185Y19619D02*
X2501Y19619D01*
X2501Y19717D02*
X4144Y19717D01*
X4131Y19816D02*
X2501Y19816D01*
X2501Y19914D02*
X3210Y19914D01*
X3070Y20013D02*
X2501Y20013D01*
X2501Y20111D02*
X2971Y20111D01*
X2873Y20210D02*
X2501Y20210D01*
X2501Y20308D02*
X2774Y20308D01*
X2726Y20407D02*
X2501Y20407D01*
X2501Y20505D02*
X2721Y20505D01*
X2721Y20604D02*
X2501Y20604D01*
X2501Y20702D02*
X2721Y20702D01*
X2721Y20801D02*
X2501Y20801D01*
X2501Y20899D02*
X2721Y20899D01*
X2721Y20998D02*
X2501Y20998D01*
X2501Y21096D02*
X2721Y21096D01*
X2721Y21195D02*
X2501Y21195D01*
X2501Y21293D02*
X2721Y21293D01*
X2748Y21392D02*
X2501Y21392D01*
X2501Y21490D02*
X2827Y21490D01*
X2926Y21589D02*
X2501Y21589D01*
X2501Y21687D02*
X3024Y21687D01*
X3123Y21786D02*
X2501Y21786D01*
X2501Y21884D02*
X3221Y21884D01*
X3320Y21983D02*
X2501Y21983D01*
X2501Y22081D02*
X3418Y22081D01*
X3517Y22180D02*
X2501Y22180D01*
X2501Y22278D02*
X3615Y22278D01*
X3714Y22377D02*
X2501Y22377D01*
X2961Y22475D02*
X3472Y22475D01*
X3364Y22574D02*
X3069Y22574D01*
X3130Y22672D02*
X3304Y22672D01*
X3263Y22771D02*
X3170Y22771D01*
X3171Y22869D02*
X3262Y22869D01*
X3270Y22968D02*
X3163Y22968D01*
X3122Y23066D02*
X3311Y23066D01*
X3382Y23165D02*
X3051Y23165D01*
X2917Y23263D02*
X3516Y23263D01*
X3902Y23263D02*
X4321Y23263D01*
X4321Y23165D02*
X4035Y23165D01*
X4106Y23066D02*
X4321Y23066D01*
X4305Y22968D02*
X4147Y22968D01*
X4155Y22869D02*
X4206Y22869D01*
X4721Y22621D02*
X4721Y22519D01*
X4762Y22420D01*
X4808Y22374D01*
X4761Y22381D01*
X4761Y21913D01*
X4661Y21913D01*
X4661Y21813D01*
X4193Y21813D01*
X4204Y21741D01*
X4229Y21663D01*
X4267Y21590D01*
X4315Y21524D01*
X4373Y21466D01*
X4439Y21418D01*
X4483Y21396D01*
X4383Y21354D01*
X4221Y21192D01*
X4216Y21202D01*
X4161Y21278D01*
X4095Y21344D01*
X4019Y21399D01*
X3936Y21441D01*
X3848Y21470D01*
X3759Y21484D01*
X3759Y20942D01*
X3659Y20942D01*
X3659Y21484D01*
X3571Y21470D01*
X4721Y22621D01*
X4721Y22574D02*
X4674Y22574D01*
X4740Y22475D02*
X4576Y22475D01*
X4590Y22370D02*
X4512Y22345D01*
X4439Y22307D01*
X4373Y22259D01*
X4315Y22201D01*
X4267Y22135D01*
X4229Y22062D01*
X4204Y21984D01*
X4193Y21913D01*
X4661Y21913D01*
X4661Y22381D01*
X4590Y22370D01*
X4633Y22377D02*
X4477Y22377D01*
X4399Y22278D02*
X4379Y22278D01*
X4299Y22180D02*
X4280Y22180D01*
X4239Y22081D02*
X4182Y22081D01*
X4204Y21983D02*
X4083Y21983D01*
X3985Y21884D02*
X4661Y21884D01*
X4661Y21983D02*
X4761Y21983D01*
X4761Y22081D02*
X4661Y22081D01*
X4661Y22180D02*
X4761Y22180D01*
X4761Y22278D02*
X4661Y22278D01*
X4661Y22377D02*
X4761Y22377D01*
X4790Y22377D02*
X4806Y22377D01*
X4197Y21786D02*
X3886Y21786D01*
X3788Y21687D02*
X4222Y21687D01*
X4268Y21589D02*
X3689Y21589D01*
X3591Y21490D02*
X4348Y21490D01*
X4473Y21392D02*
X4029Y21392D01*
X4146Y21293D02*
X4322Y21293D01*
X4223Y21195D02*
X4220Y21195D01*
X3759Y21195D02*
X3659Y21195D01*
X3659Y21293D02*
X3759Y21293D01*
X3759Y21392D02*
X3659Y21392D01*
X3659Y21096D02*
X3759Y21096D01*
X3759Y20998D02*
X3659Y20998D01*
X2524Y19323D02*
X2501Y19323D01*
X4038Y19225D02*
X4679Y19225D01*
X4679Y19126D02*
X4108Y19126D01*
X4148Y19028D02*
X4679Y19028D01*
X4679Y18929D02*
X4155Y18929D01*
X4153Y18831D02*
X4679Y18831D01*
X4679Y18732D02*
X4113Y18732D01*
X4050Y18634D02*
X4679Y18634D01*
X6585Y17452D02*
X6773Y17452D01*
X6769Y17550D02*
X6675Y17550D01*
X6675Y17649D02*
X6769Y17649D01*
X6769Y17353D02*
X6675Y17353D01*
X6675Y17255D02*
X6769Y17255D01*
X6769Y17156D02*
X6675Y17156D01*
X6675Y17058D02*
X6769Y17058D01*
X6769Y16959D02*
X6675Y16959D01*
X6675Y16861D02*
X6769Y16861D01*
X6769Y16762D02*
X6675Y16762D01*
X6624Y16664D02*
X6868Y16664D01*
X7294Y17105D02*
X7475Y17076D01*
X5833Y16664D02*
X5738Y16664D01*
X2532Y23263D02*
X2501Y23263D01*
X5789Y25036D02*
X5900Y25036D01*
X6572Y25036D02*
X6900Y25036D01*
X6802Y24938D02*
X6670Y24938D01*
X16297Y22771D02*
X16603Y22771D01*
X19081Y25430D02*
X20612Y25430D01*
D50*
X19548Y23171D03*
X16991Y22673D03*
X16591Y21323D03*
X17776Y20907D03*
X18314Y20897D03*
X16391Y20373D03*
X14829Y20779D03*
X14487Y21576D03*
X14185Y22166D03*
X13141Y22423D03*
X11691Y22473D03*
X10891Y22473D03*
X10791Y21773D03*
X11291Y21073D03*
X11691Y20573D03*
X12691Y19673D03*
X13291Y19673D03*
X13315Y17943D03*
X10645Y17602D03*
X9280Y16860D03*
X9280Y18435D03*
X10119Y18829D03*
X10117Y19369D03*
X8791Y19223D03*
X8191Y21273D03*
X7891Y21973D03*
X7191Y21273D03*
X9191Y22073D03*
X9695Y24269D03*
X9691Y24873D03*
X14291Y24568D03*
X18662Y19431D03*
X19548Y18644D03*
X17678Y17955D03*
X17146Y17974D03*
X16498Y17973D03*
X17154Y18829D03*
X4479Y18885D03*
X3191Y19373D03*
X3191Y22373D03*
D51*
X2991Y21273D02*
X4591Y22873D01*
X4591Y23273D01*
X5191Y23873D01*
X5191Y24507D01*
X5236Y24552D01*
X5391Y23573D02*
X7065Y23573D01*
X7191Y23447D01*
X6391Y22273D02*
X5804Y22860D01*
X5677Y22860D01*
X4991Y22573D02*
X4991Y23173D01*
X5391Y23573D01*
X4991Y22573D02*
X5677Y21887D01*
X5677Y21876D01*
X6091Y21462D01*
X6091Y20273D01*
X5726Y19907D01*
X5677Y19907D01*
X6391Y19573D02*
X6391Y20673D01*
X7165Y20673D01*
X7191Y20647D01*
X6391Y20673D02*
X6391Y22273D01*
X8198Y21366D02*
X8191Y21273D01*
X7191Y19899D02*
X7191Y19401D01*
X7591Y19001D01*
X8103Y18336D02*
X8580Y17859D01*
X8103Y18336D02*
X6032Y18336D01*
X5343Y17943D01*
X5343Y17864D01*
X6228Y17864D02*
X6456Y17973D01*
X7361Y17973D01*
X7294Y17853D01*
X7294Y17105D02*
X7824Y16565D01*
X8984Y16565D01*
X9280Y16860D01*
X8743Y17111D02*
X9280Y17647D01*
X9280Y18435D01*
X9969Y17855D02*
X10119Y18055D01*
X10119Y18829D01*
X10091Y17973D02*
X9973Y17855D01*
X9969Y17855D01*
X8743Y17111D02*
X8580Y17111D01*
X8546Y17111D01*
X6228Y17037D02*
X5343Y17037D01*
X5327Y17137D01*
X5164Y16940D01*
X4949Y17155D01*
X4949Y19625D01*
X4711Y19863D01*
X4701Y19863D01*
X4391Y20173D01*
X3291Y20173D01*
X2991Y20473D01*
X2991Y21273D01*
X5677Y18923D02*
X5742Y18923D01*
X6391Y19573D01*
X11274Y17155D02*
X11313Y17095D01*
X12590Y17105D02*
X13022Y16663D01*
X14102Y16663D01*
X14688Y17249D01*
X14723Y17249D01*
X13591Y23438D02*
X13626Y23473D01*
X13761Y23708D01*
X14376Y23708D01*
X14770Y24101D01*
X14770Y25101D02*
X14179Y25101D01*
X13761Y24708D01*
X13747Y24683D01*
X13626Y24473D01*
D52*
X10857Y23473D02*
X10617Y24481D01*
X10615Y24479D01*
X10815Y23596D01*
X10591Y24473D01*
X10590Y24481D02*
X10617Y24481D01*
X10590Y24481D02*
X10441Y24319D01*
X9695Y24269D01*
X10395Y24269D02*
X10441Y24319D01*
X10857Y23473D02*
X10256Y22524D01*
X10050Y22524D01*
M02*
