G75*
G70*
%OFA0B0*%
%FSLAX24Y24*%
%IPPOS*%
%LPD*%
%AMOC8*
5,1,8,0,0,1.08239X$1,22.5*
%
%ADD10C,0.0000*%
%ADD11C,0.0050*%
%ADD12C,0.0000*%
%ADD13C,0.0060*%
%ADD14C,0.0080*%
%ADD15C,0.0051*%
%ADD16C,0.0110*%
%ADD17R,0.0110X0.0005*%
%ADD18R,0.0210X0.0005*%
%ADD19R,0.0280X0.0005*%
%ADD20R,0.0325X0.0005*%
%ADD21R,0.0365X0.0005*%
%ADD22R,0.0410X0.0005*%
%ADD23R,0.0440X0.0005*%
%ADD24R,0.0470X0.0005*%
%ADD25R,0.0505X0.0005*%
%ADD26R,0.0530X0.0005*%
%ADD27R,0.0555X0.0005*%
%ADD28R,0.0580X0.0005*%
%ADD29R,0.0600X0.0005*%
%ADD30R,0.0625X0.0005*%
%ADD31R,0.0645X0.0005*%
%ADD32R,0.0665X0.0005*%
%ADD33R,0.0685X0.0005*%
%ADD34R,0.0705X0.0005*%
%ADD35R,0.0715X0.0005*%
%ADD36R,0.0735X0.0005*%
%ADD37R,0.0755X0.0005*%
%ADD38R,0.0090X0.0005*%
%ADD39R,0.0770X0.0005*%
%ADD40R,0.0190X0.0005*%
%ADD41R,0.0355X0.0005*%
%ADD42R,0.0360X0.0005*%
%ADD43R,0.0260X0.0005*%
%ADD44R,0.0315X0.0005*%
%ADD45R,0.0320X0.0005*%
%ADD46R,0.0295X0.0005*%
%ADD47R,0.0275X0.0005*%
%ADD48R,0.0400X0.0005*%
%ADD49R,0.0265X0.0005*%
%ADD50R,0.0435X0.0005*%
%ADD51R,0.0255X0.0005*%
%ADD52R,0.0465X0.0005*%
%ADD53R,0.0245X0.0005*%
%ADD54R,0.0495X0.0005*%
%ADD55R,0.0235X0.0005*%
%ADD56R,0.0525X0.0005*%
%ADD57R,0.0230X0.0005*%
%ADD58R,0.0240X0.0005*%
%ADD59R,0.0545X0.0005*%
%ADD60R,0.0820X0.0005*%
%ADD61R,0.0220X0.0005*%
%ADD62R,0.0025X0.0005*%
%ADD63R,0.0795X0.0005*%
%ADD64R,0.0215X0.0005*%
%ADD65R,0.0035X0.0005*%
%ADD66R,0.0040X0.0005*%
%ADD67R,0.0800X0.0005*%
%ADD68R,0.0205X0.0005*%
%ADD69R,0.0050X0.0005*%
%ADD70R,0.0805X0.0005*%
%ADD71R,0.0165X0.0005*%
%ADD72R,0.0055X0.0005*%
%ADD73R,0.0200X0.0005*%
%ADD74R,0.0060X0.0005*%
%ADD75R,0.0300X0.0005*%
%ADD76R,0.0195X0.0005*%
%ADD77R,0.0065X0.0005*%
%ADD78R,0.0345X0.0005*%
%ADD79R,0.0070X0.0005*%
%ADD80R,0.0385X0.0005*%
%ADD81R,0.0080X0.0005*%
%ADD82R,0.0425X0.0005*%
%ADD83R,0.0185X0.0005*%
%ADD84R,0.0085X0.0005*%
%ADD85R,0.0635X0.0005*%
%ADD86R,0.0810X0.0005*%
%ADD87R,0.0095X0.0005*%
%ADD88R,0.0335X0.0005*%
%ADD89R,0.0655X0.0005*%
%ADD90R,0.0105X0.0005*%
%ADD91R,0.0290X0.0005*%
%ADD92R,0.0660X0.0005*%
%ADD93R,0.0115X0.0005*%
%ADD94R,0.0285X0.0005*%
%ADD95R,0.0120X0.0005*%
%ADD96R,0.0270X0.0005*%
%ADD97R,0.0675X0.0005*%
%ADD98R,0.0130X0.0005*%
%ADD99R,0.0680X0.0005*%
%ADD100R,0.0135X0.0005*%
%ADD101R,0.0250X0.0005*%
%ADD102R,0.0140X0.0005*%
%ADD103R,0.0180X0.0005*%
%ADD104R,0.0695X0.0005*%
%ADD105R,0.0150X0.0005*%
%ADD106R,0.0160X0.0005*%
%ADD107R,0.0155X0.0005*%
%ADD108R,0.0145X0.0005*%
%ADD109R,0.0700X0.0005*%
%ADD110R,0.0225X0.0005*%
%ADD111R,0.0170X0.0005*%
%ADD112R,0.0100X0.0005*%
%ADD113R,0.0075X0.0005*%
%ADD114R,0.0720X0.0005*%
%ADD115R,0.0725X0.0005*%
%ADD116R,0.0340X0.0005*%
%ADD117R,0.0305X0.0005*%
%ADD118R,0.0175X0.0005*%
%ADD119R,0.0005X0.0005*%
%ADD120R,0.0010X0.0005*%
%ADD121R,0.0015X0.0005*%
%ADD122R,0.0020X0.0005*%
%ADD123R,0.0030X0.0005*%
%ADD124R,0.0125X0.0005*%
%ADD125R,0.0045X0.0005*%
%ADD126R,0.0370X0.0005*%
%ADD127R,0.0375X0.0005*%
%ADD128R,0.0350X0.0005*%
%ADD129R,0.0330X0.0005*%
%ADD130R,0.0485X0.0005*%
%ADD131R,0.0480X0.0005*%
%ADD132R,0.0460X0.0005*%
%ADD133R,0.0445X0.0005*%
%ADD134R,0.0310X0.0005*%
%ADD135R,0.0380X0.0005*%
%ADD136R,0.0415X0.0005*%
%ADD137R,0.0450X0.0005*%
%ADD138R,0.0490X0.0005*%
%ADD139R,0.0965X0.0005*%
%ADD140R,0.0975X0.0005*%
%ADD141R,0.0980X0.0005*%
%ADD142R,0.0990X0.0005*%
%ADD143R,0.1005X0.0005*%
%ADD144R,0.0615X0.0005*%
%ADD145R,0.0640X0.0005*%
%ADD146R,0.0605X0.0005*%
%ADD147R,0.0620X0.0005*%
%ADD148R,0.0590X0.0005*%
%ADD149R,0.0570X0.0005*%
%ADD150R,0.0540X0.0005*%
%ADD151R,0.0515X0.0005*%
%ADD152R,0.0565X0.0005*%
%ADD153R,0.0535X0.0005*%
%ADD154R,0.0395X0.0005*%
%ADD155R,0.0520X0.0005*%
%ADD156R,0.0500X0.0005*%
%ADD157R,0.0430X0.0005*%
%ADD158C,0.0059*%
%ADD159C,0.0050*%
%ADD160C,0.0000*%
%ADD161C,0.0060*%
%ADD162C,0.0080*%
%ADD163C,0.0051*%
%ADD164C,0.0110*%
%ADD165R,0.0110X0.0005*%
%ADD166R,0.0210X0.0005*%
%ADD167R,0.0280X0.0005*%
%ADD168R,0.0325X0.0005*%
%ADD169R,0.0365X0.0005*%
%ADD170R,0.0410X0.0005*%
%ADD171R,0.0440X0.0005*%
%ADD172R,0.0470X0.0005*%
%ADD173R,0.0505X0.0005*%
%ADD174R,0.0530X0.0005*%
%ADD175R,0.0555X0.0005*%
%ADD176R,0.0580X0.0005*%
%ADD177R,0.0600X0.0005*%
%ADD178R,0.0625X0.0005*%
%ADD179R,0.0645X0.0005*%
%ADD180R,0.0665X0.0005*%
%ADD181R,0.0685X0.0005*%
%ADD182R,0.0705X0.0005*%
%ADD183R,0.0715X0.0005*%
%ADD184R,0.0735X0.0005*%
%ADD185R,0.0755X0.0005*%
%ADD186R,0.0090X0.0005*%
%ADD187R,0.0770X0.0005*%
%ADD188R,0.0190X0.0005*%
%ADD189R,0.0355X0.0005*%
%ADD190R,0.0360X0.0005*%
%ADD191R,0.0260X0.0005*%
%ADD192R,0.0315X0.0005*%
%ADD193R,0.0320X0.0005*%
%ADD194R,0.0295X0.0005*%
%ADD195R,0.0275X0.0005*%
%ADD196R,0.0400X0.0005*%
%ADD197R,0.0265X0.0005*%
%ADD198R,0.0435X0.0005*%
%ADD199R,0.0255X0.0005*%
%ADD200R,0.0465X0.0005*%
%ADD201R,0.0245X0.0005*%
%ADD202R,0.0495X0.0005*%
%ADD203R,0.0235X0.0005*%
%ADD204R,0.0525X0.0005*%
%ADD205R,0.0230X0.0005*%
%ADD206R,0.0240X0.0005*%
%ADD207R,0.0545X0.0005*%
%ADD208R,0.0820X0.0005*%
%ADD209R,0.0220X0.0005*%
%ADD210R,0.0025X0.0005*%
%ADD211R,0.0795X0.0005*%
%ADD212R,0.0215X0.0005*%
%ADD213R,0.0035X0.0005*%
%ADD214R,0.0040X0.0005*%
%ADD215R,0.0800X0.0005*%
%ADD216R,0.0205X0.0005*%
%ADD217R,0.0050X0.0005*%
%ADD218R,0.0805X0.0005*%
%ADD219R,0.0165X0.0005*%
%ADD220R,0.0055X0.0005*%
%ADD221R,0.0200X0.0005*%
%ADD222R,0.0060X0.0005*%
%ADD223R,0.0300X0.0005*%
%ADD224R,0.0195X0.0005*%
%ADD225R,0.0065X0.0005*%
%ADD226R,0.0345X0.0005*%
%ADD227R,0.0070X0.0005*%
%ADD228R,0.0385X0.0005*%
%ADD229R,0.0080X0.0005*%
%ADD230R,0.0425X0.0005*%
%ADD231R,0.0185X0.0005*%
%ADD232R,0.0085X0.0005*%
%ADD233R,0.0635X0.0005*%
%ADD234R,0.0810X0.0005*%
%ADD235R,0.0095X0.0005*%
%ADD236R,0.0335X0.0005*%
%ADD237R,0.0655X0.0005*%
%ADD238R,0.0105X0.0005*%
%ADD239R,0.0290X0.0005*%
%ADD240R,0.0660X0.0005*%
%ADD241R,0.0115X0.0005*%
%ADD242R,0.0285X0.0005*%
%ADD243R,0.0120X0.0005*%
%ADD244R,0.0270X0.0005*%
%ADD245R,0.0675X0.0005*%
%ADD246R,0.0130X0.0005*%
%ADD247R,0.0680X0.0005*%
%ADD248R,0.0135X0.0005*%
%ADD249R,0.0250X0.0005*%
%ADD250R,0.0140X0.0005*%
%ADD251R,0.0180X0.0005*%
%ADD252R,0.0695X0.0005*%
%ADD253R,0.0150X0.0005*%
%ADD254R,0.0160X0.0005*%
%ADD255R,0.0155X0.0005*%
%ADD256R,0.0145X0.0005*%
%ADD257R,0.0700X0.0005*%
%ADD258R,0.0225X0.0005*%
%ADD259R,0.0170X0.0005*%
%ADD260R,0.0100X0.0005*%
%ADD261R,0.0075X0.0005*%
%ADD262R,0.0720X0.0005*%
%ADD263R,0.0725X0.0005*%
%ADD264R,0.0340X0.0005*%
%ADD265R,0.0305X0.0005*%
%ADD266R,0.0175X0.0005*%
%ADD267R,0.0005X0.0005*%
%ADD268R,0.0010X0.0005*%
%ADD269R,0.0015X0.0005*%
%ADD270R,0.0020X0.0005*%
%ADD271R,0.0030X0.0005*%
%ADD272R,0.0125X0.0005*%
%ADD273R,0.0045X0.0005*%
%ADD274R,0.0370X0.0005*%
%ADD275R,0.0375X0.0005*%
%ADD276R,0.0350X0.0005*%
%ADD277R,0.0330X0.0005*%
%ADD278R,0.0485X0.0005*%
%ADD279R,0.0480X0.0005*%
%ADD280R,0.0460X0.0005*%
%ADD281R,0.0445X0.0005*%
%ADD282R,0.0310X0.0005*%
%ADD283R,0.0380X0.0005*%
%ADD284R,0.0415X0.0005*%
%ADD285R,0.0450X0.0005*%
%ADD286R,0.0490X0.0005*%
%ADD287R,0.0965X0.0005*%
%ADD288R,0.0975X0.0005*%
%ADD289R,0.0980X0.0005*%
%ADD290R,0.0990X0.0005*%
%ADD291R,0.1005X0.0005*%
%ADD292R,0.0615X0.0005*%
%ADD293R,0.0640X0.0005*%
%ADD294R,0.0605X0.0005*%
%ADD295R,0.0620X0.0005*%
%ADD296R,0.0590X0.0005*%
%ADD297R,0.0570X0.0005*%
%ADD298R,0.0540X0.0005*%
%ADD299R,0.0515X0.0005*%
%ADD300R,0.0565X0.0005*%
%ADD301R,0.0535X0.0005*%
%ADD302R,0.0395X0.0005*%
%ADD303R,0.0520X0.0005*%
%ADD304R,0.0500X0.0005*%
%ADD305R,0.0430X0.0005*%
%ADD306C,0.0059*%
D10*
X000100Y001475D02*
X000100Y001517D01*
X000100Y008368D01*
X000100Y008371D01*
X000100Y008368D02*
X000102Y008440D01*
X000108Y008512D01*
X000117Y008584D01*
X000130Y008655D01*
X000147Y008725D01*
X000167Y008794D01*
X000192Y008862D01*
X000219Y008928D01*
X000250Y008994D01*
X000285Y009057D01*
X000322Y009119D01*
X000363Y009178D01*
X000407Y009235D01*
X000454Y009290D01*
X000504Y009342D01*
X000556Y009392D01*
X000611Y009439D01*
X000668Y009483D01*
X000727Y009524D01*
X000789Y009561D01*
X000852Y009596D01*
X000918Y009627D01*
X000984Y009654D01*
X001052Y009679D01*
X001121Y009699D01*
X001191Y009716D01*
X001262Y009729D01*
X001334Y009738D01*
X001406Y009744D01*
X001478Y009746D01*
X001478Y010139D01*
X001475Y010139D01*
X001475Y009746D02*
X001478Y009746D01*
X001872Y009746D02*
X018014Y009746D01*
X018014Y010139D02*
X001872Y010139D01*
X001872Y009746D01*
X001478Y010139D02*
X001405Y010142D01*
X001332Y010149D01*
X001260Y010159D01*
X001188Y010174D01*
X001117Y010192D01*
X001047Y010214D01*
X000979Y010239D01*
X000911Y010268D01*
X000846Y010300D01*
X000782Y010336D01*
X000720Y010375D01*
X000660Y010418D01*
X000603Y010463D01*
X000548Y010511D01*
X000496Y010562D01*
X000446Y010616D01*
X000399Y010673D01*
X000356Y010731D01*
X000315Y010792D01*
X000278Y010855D01*
X000244Y010920D01*
X000213Y010986D01*
X000186Y011054D01*
X000162Y011124D01*
X000143Y011194D01*
X000127Y011266D01*
X000114Y011338D01*
X000106Y011410D01*
X000101Y011484D01*
X000100Y011557D01*
X000100Y018407D01*
X000100Y018410D01*
X000100Y018407D02*
X000102Y018479D01*
X000108Y018551D01*
X000117Y018623D01*
X000130Y018694D01*
X000147Y018764D01*
X000167Y018833D01*
X000192Y018901D01*
X000219Y018967D01*
X000250Y019033D01*
X000285Y019096D01*
X000322Y019158D01*
X000363Y019217D01*
X000407Y019274D01*
X000454Y019329D01*
X000504Y019381D01*
X000556Y019431D01*
X000611Y019478D01*
X000668Y019522D01*
X000727Y019563D01*
X000789Y019600D01*
X000852Y019635D01*
X000918Y019666D01*
X000984Y019693D01*
X001052Y019718D01*
X001121Y019738D01*
X001191Y019755D01*
X001262Y019768D01*
X001334Y019777D01*
X001406Y019783D01*
X001478Y019785D01*
X018014Y019785D01*
X018086Y019783D01*
X018158Y019777D01*
X018230Y019768D01*
X018301Y019755D01*
X018371Y019738D01*
X018440Y019718D01*
X018508Y019693D01*
X018574Y019666D01*
X018640Y019635D01*
X018703Y019600D01*
X018765Y019563D01*
X018824Y019522D01*
X018881Y019478D01*
X018936Y019431D01*
X018988Y019381D01*
X019038Y019329D01*
X019085Y019274D01*
X019129Y019217D01*
X019170Y019158D01*
X019207Y019096D01*
X019242Y019033D01*
X019273Y018967D01*
X019300Y018901D01*
X019325Y018833D01*
X019345Y018764D01*
X019362Y018694D01*
X019375Y018623D01*
X019384Y018551D01*
X019390Y018479D01*
X019392Y018407D01*
X019391Y018407D02*
X019391Y011517D01*
X019392Y011517D02*
X019390Y011445D01*
X019384Y011373D01*
X019375Y011301D01*
X019362Y011230D01*
X019345Y011160D01*
X019325Y011091D01*
X019300Y011023D01*
X019273Y010957D01*
X019242Y010891D01*
X019207Y010828D01*
X019170Y010766D01*
X019129Y010707D01*
X019085Y010650D01*
X019038Y010595D01*
X018988Y010543D01*
X018936Y010493D01*
X018881Y010446D01*
X018824Y010402D01*
X018765Y010361D01*
X018703Y010324D01*
X018640Y010289D01*
X018574Y010258D01*
X018508Y010231D01*
X018440Y010206D01*
X018371Y010186D01*
X018301Y010169D01*
X018230Y010156D01*
X018158Y010147D01*
X018086Y010141D01*
X018014Y010139D01*
X018017Y010139D01*
X018014Y009746D02*
X018086Y009744D01*
X018158Y009738D01*
X018230Y009729D01*
X018301Y009716D01*
X018371Y009699D01*
X018440Y009679D01*
X018508Y009654D01*
X018574Y009627D01*
X018640Y009596D01*
X018703Y009561D01*
X018765Y009524D01*
X018824Y009483D01*
X018881Y009439D01*
X018936Y009392D01*
X018988Y009342D01*
X019038Y009290D01*
X019085Y009235D01*
X019129Y009178D01*
X019170Y009119D01*
X019207Y009057D01*
X019242Y008994D01*
X019273Y008928D01*
X019300Y008862D01*
X019325Y008794D01*
X019345Y008725D01*
X019362Y008655D01*
X019375Y008584D01*
X019384Y008512D01*
X019390Y008440D01*
X019392Y008368D01*
X019391Y008368D02*
X019391Y001478D01*
X019392Y001478D02*
X019390Y001406D01*
X019384Y001334D01*
X019375Y001262D01*
X019362Y001191D01*
X019345Y001121D01*
X019325Y001052D01*
X019300Y000984D01*
X019273Y000918D01*
X019242Y000852D01*
X019207Y000789D01*
X019170Y000727D01*
X019129Y000668D01*
X019085Y000611D01*
X019038Y000556D01*
X018988Y000504D01*
X018936Y000454D01*
X018881Y000407D01*
X018824Y000363D01*
X018765Y000322D01*
X018703Y000285D01*
X018640Y000250D01*
X018574Y000219D01*
X018508Y000192D01*
X018440Y000167D01*
X018371Y000147D01*
X018301Y000130D01*
X018230Y000117D01*
X018158Y000108D01*
X018086Y000102D01*
X018014Y000100D01*
X018017Y000100D01*
X018014Y000100D02*
X001478Y000100D01*
X001475Y000100D01*
X001478Y000100D02*
X001405Y000103D01*
X001332Y000110D01*
X001260Y000120D01*
X001188Y000135D01*
X001117Y000153D01*
X001047Y000175D01*
X000979Y000200D01*
X000911Y000229D01*
X000846Y000261D01*
X000782Y000297D01*
X000720Y000336D01*
X000660Y000379D01*
X000603Y000424D01*
X000548Y000472D01*
X000496Y000523D01*
X000446Y000577D01*
X000399Y000634D01*
X000356Y000692D01*
X000315Y000753D01*
X000278Y000816D01*
X000244Y000881D01*
X000213Y000947D01*
X000186Y001015D01*
X000162Y001085D01*
X000143Y001155D01*
X000127Y001227D01*
X000114Y001299D01*
X000106Y001371D01*
X000101Y001445D01*
X000100Y001518D01*
X000100Y011514D02*
X000100Y011557D01*
D11*
X4794Y6749D02*
X4885Y6749D01*
X4930Y6794D01*
X4749Y6974D01*
X4749Y6794D01*
X4794Y6749D01*
X4930Y6794D02*
X4930Y6974D01*
X4885Y7019D01*
X4794Y7019D01*
X4749Y6974D01*
X5032Y6794D02*
X5032Y6749D01*
X5077Y6749D01*
X5077Y6794D01*
X5032Y6794D01*
X5191Y6794D02*
X5236Y6749D01*
X5327Y6749D01*
X5372Y6794D01*
X5282Y6884D02*
X5236Y6884D01*
X5191Y6839D01*
X5191Y6794D01*
X5236Y6884D02*
X5191Y6929D01*
X5191Y6974D01*
X5236Y7019D01*
X5327Y7019D01*
X5372Y6974D01*
X5781Y6929D02*
X5781Y6749D01*
X5781Y6884D02*
X5961Y6884D01*
X5961Y6929D02*
X5961Y6749D01*
X6075Y6794D02*
X6120Y6749D01*
X6211Y6749D01*
X6256Y6794D01*
X6211Y6884D02*
X6120Y6884D01*
X6075Y6839D01*
X6075Y6794D01*
X6211Y6884D02*
X6256Y6929D01*
X6256Y6974D01*
X6211Y7019D01*
X6120Y7019D01*
X6075Y6974D01*
X5961Y6929D02*
X5871Y7019D01*
X5781Y6929D01*
X6370Y6884D02*
X6550Y6884D01*
X6665Y6974D02*
X6665Y7019D01*
X6665Y6974D02*
X6755Y6884D01*
X6755Y6749D01*
X6755Y6884D02*
X6845Y6974D01*
X6845Y7019D01*
X6959Y6974D02*
X6959Y6929D01*
X7004Y6884D01*
X7140Y6884D01*
X7140Y6749D02*
X7004Y6749D01*
X6959Y6794D01*
X6959Y6839D01*
X7004Y6884D01*
X6959Y6974D02*
X7004Y7019D01*
X7140Y7019D01*
X7140Y6749D01*
X7549Y6794D02*
X7594Y6749D01*
X7684Y6749D01*
X7729Y6794D01*
X7729Y6974D01*
X7684Y7019D01*
X7594Y7019D01*
X7549Y6974D01*
X7843Y6974D02*
X7888Y7019D01*
X7978Y7019D01*
X8023Y6974D01*
X8023Y6794D01*
X7978Y6749D01*
X7888Y6749D01*
X7843Y6794D01*
X3450Y9878D02*
X3360Y9788D01*
X3270Y9878D01*
X3270Y10058D01*
X3156Y10013D02*
X3156Y9833D01*
X3111Y9788D01*
X3021Y9788D01*
X2976Y9833D01*
X2861Y9833D02*
X2861Y10013D01*
X2816Y10058D01*
X2726Y10058D01*
X2681Y10013D01*
X2681Y9833D02*
X2726Y9788D01*
X2816Y9788D01*
X2861Y9833D01*
X2976Y10013D02*
X3021Y10058D01*
X3111Y10058D01*
X3156Y10013D01*
X3450Y10058D02*
X3450Y9878D01*
X3156Y10788D02*
X3021Y10788D01*
X2976Y10833D01*
X2976Y11013D01*
X3021Y11058D01*
X3156Y11058D01*
X3156Y10788D01*
X2861Y10833D02*
X2861Y11013D01*
X2816Y11058D01*
X2726Y11058D01*
X2681Y11013D01*
X2681Y10833D01*
X2726Y10788D01*
X2816Y10788D01*
X2861Y10833D01*
X2771Y10878D02*
X2681Y10788D01*
X2726Y11738D02*
X2681Y11783D01*
X2681Y11963D01*
X2726Y12008D01*
X2861Y12008D01*
X2861Y11738D01*
X2726Y11738D01*
X2976Y11738D02*
X2976Y12008D01*
X3156Y12008D02*
X2976Y11738D01*
X3156Y11738D02*
X3156Y12008D01*
X3270Y11963D02*
X3315Y12008D01*
X3405Y12008D01*
X3450Y11963D01*
X3450Y11783D01*
X3405Y11738D01*
X3315Y11738D01*
X3270Y11783D01*
X3270Y11873D01*
X3360Y11873D01*
X4931Y15114D02*
X4886Y15159D01*
X4931Y15114D02*
X5021Y15114D01*
X5066Y15159D01*
X5066Y15339D01*
X5021Y15384D01*
X4931Y15384D01*
X4886Y15339D01*
X5180Y15339D02*
X5225Y15384D01*
X5315Y15384D01*
X5360Y15339D01*
X5360Y15159D01*
X5315Y15114D01*
X5225Y15114D01*
X5180Y15159D01*
X5475Y15204D02*
X5475Y15384D01*
X5475Y15204D02*
X5565Y15114D01*
X5655Y15204D01*
X5655Y15384D01*
X5787Y15329D02*
X5787Y15284D01*
X5832Y15239D01*
X5787Y15194D01*
X5787Y15149D01*
X5832Y15104D01*
X5922Y15104D01*
X5967Y15149D01*
X6082Y15104D02*
X6262Y15104D01*
X6172Y15104D02*
X6172Y15374D01*
X6262Y15284D01*
X6376Y15329D02*
X6376Y15239D01*
X6422Y15194D01*
X6557Y15194D01*
X6557Y15104D02*
X6557Y15374D01*
X6422Y15374D01*
X6376Y15329D01*
X6789Y15239D02*
X6969Y15239D01*
X6834Y15374D01*
X6834Y15104D01*
X7083Y15104D02*
X7264Y15104D01*
X7173Y15104D02*
X7173Y15374D01*
X7264Y15284D01*
X7378Y15239D02*
X7423Y15194D01*
X7558Y15194D01*
X7558Y15104D02*
X7558Y15374D01*
X7423Y15374D01*
X7378Y15329D01*
X7378Y15239D01*
X7887Y15159D02*
X7887Y15339D01*
X7932Y15384D01*
X8067Y15384D01*
X8067Y15114D01*
X7932Y15114D01*
X7887Y15159D01*
X8182Y15114D02*
X8182Y15384D01*
X8362Y15384D02*
X8182Y15114D01*
X8362Y15114D02*
X8362Y15384D01*
X8476Y15339D02*
X8522Y15384D01*
X8612Y15384D01*
X8657Y15339D01*
X8657Y15159D01*
X8612Y15114D01*
X8522Y15114D01*
X8476Y15159D01*
X8476Y15249D01*
X8567Y15249D01*
X5967Y15329D02*
X5922Y15374D01*
X5832Y15374D01*
X5787Y15329D01*
X5832Y15239D02*
X5877Y15239D01*
X13631Y6608D02*
X13811Y6608D01*
X13721Y6608D02*
X13721Y6338D01*
X13926Y6383D02*
X13971Y6338D01*
X14061Y6338D01*
X14106Y6383D01*
X14061Y6473D02*
X14106Y6518D01*
X14106Y6563D01*
X14061Y6608D01*
X13971Y6608D01*
X13926Y6563D01*
X13971Y6473D02*
X13926Y6428D01*
X13926Y6383D01*
X13971Y6473D02*
X14061Y6473D01*
X14220Y6608D02*
X14400Y6608D01*
X14310Y6608D02*
X14310Y6338D01*
X14681Y6608D02*
X14861Y6608D01*
X14771Y6608D02*
X14771Y6338D01*
X14976Y6383D02*
X15021Y6338D01*
X15111Y6338D01*
X15156Y6383D01*
X15111Y6473D02*
X15021Y6473D01*
X14976Y6428D01*
X14976Y6383D01*
X15111Y6473D02*
X15156Y6518D01*
X15156Y6563D01*
X15111Y6608D01*
X15021Y6608D01*
X14976Y6563D01*
X15270Y6563D02*
X15270Y6473D01*
X15315Y6428D01*
X15450Y6428D01*
X15360Y6428D02*
X15270Y6338D01*
X15450Y6338D02*
X15450Y6608D01*
X15315Y6608D01*
X15270Y6563D01*
X15681Y6563D02*
X15681Y6383D01*
X15726Y6338D01*
X15861Y6338D01*
X15861Y6608D01*
X15726Y6608D01*
X15681Y6563D01*
X15976Y6608D02*
X16156Y6338D01*
X16270Y6338D02*
X16360Y6428D01*
X16315Y6428D02*
X16450Y6428D01*
X16450Y6338D02*
X16450Y6608D01*
X16315Y6608D01*
X16270Y6563D01*
X16270Y6473D01*
X16315Y6428D01*
X16156Y6608D02*
X15976Y6338D01*
X16631Y6383D02*
X16631Y6563D01*
X16676Y6608D01*
X16811Y6608D01*
X16811Y6338D01*
X16676Y6338D01*
X16631Y6383D01*
X16926Y6338D02*
X17106Y6608D01*
X17220Y6608D02*
X17400Y6608D01*
X17310Y6608D02*
X17310Y6338D01*
X17106Y6338D02*
X16926Y6608D01*
X17631Y6563D02*
X17676Y6608D01*
X17766Y6608D01*
X17811Y6563D01*
X17811Y6383D01*
X17766Y6338D01*
X17676Y6338D01*
X17631Y6383D01*
X17926Y6383D02*
X17971Y6338D01*
X18061Y6338D01*
X18106Y6383D01*
X18106Y6563D01*
X18061Y6608D01*
X17971Y6608D01*
X17926Y6563D01*
X18220Y6608D02*
X18220Y6428D01*
X18310Y6338D01*
X18400Y6428D01*
X18400Y6608D01*
X18631Y6563D02*
X18631Y6383D01*
X18676Y6338D01*
X18811Y6338D01*
X18811Y6608D01*
X18676Y6608D01*
X18631Y6563D01*
X18926Y6608D02*
X18926Y6338D01*
X19106Y6608D01*
X19106Y6338D01*
X19220Y6383D02*
X19220Y6473D01*
X19310Y6473D01*
X19220Y6563D02*
X19265Y6608D01*
X19355Y6608D01*
X19400Y6563D01*
X19400Y6383D01*
X19355Y6338D01*
X19265Y6338D01*
X19220Y6383D01*
X20051Y8464D02*
X20006Y8509D01*
X20006Y8689D01*
X20051Y8734D01*
X20187Y8734D01*
X20187Y8464D01*
X20051Y8464D01*
X20301Y8464D02*
X20301Y8734D01*
X20481Y8734D02*
X20301Y8464D01*
X20481Y8464D02*
X20481Y8734D01*
X20596Y8689D02*
X20641Y8734D01*
X20731Y8734D01*
X20776Y8689D01*
X20776Y8509D01*
X20731Y8464D01*
X20641Y8464D01*
X20596Y8509D01*
X20596Y8599D01*
X20686Y8599D01*
D12*
X21583Y7411D02*
X21581Y7339D01*
X21575Y7267D01*
X21566Y7195D01*
X21553Y7124D01*
X21536Y7054D01*
X21516Y6985D01*
X21491Y6917D01*
X21464Y6851D01*
X21433Y6785D01*
X21398Y6722D01*
X21361Y6660D01*
X21320Y6601D01*
X21276Y6544D01*
X21229Y6489D01*
X21179Y6437D01*
X21127Y6387D01*
X21072Y6340D01*
X21015Y6296D01*
X20956Y6255D01*
X20894Y6218D01*
X20831Y6183D01*
X20765Y6152D01*
X20699Y6125D01*
X20631Y6100D01*
X20562Y6080D01*
X20492Y6063D01*
X20421Y6050D01*
X20349Y6041D01*
X20277Y6035D01*
X20205Y6033D01*
X20208Y6033D01*
X20205Y6033D02*
X3669Y6033D01*
X3666Y6033D01*
X3016Y7407D02*
X3018Y7457D01*
X3024Y7507D01*
X3034Y7557D01*
X3047Y7605D01*
X3064Y7653D01*
X3085Y7699D01*
X3109Y7743D01*
X3137Y7785D01*
X3168Y7825D01*
X3202Y7862D01*
X3239Y7897D01*
X3278Y7928D01*
X3319Y7957D01*
X3363Y7982D01*
X3409Y8004D01*
X3456Y8022D01*
X3504Y8036D01*
X3553Y8047D01*
X3603Y8054D01*
X3653Y8057D01*
X3704Y8056D01*
X3754Y8051D01*
X3804Y8042D01*
X3852Y8030D01*
X3900Y8013D01*
X3946Y7993D01*
X3991Y7970D01*
X4034Y7943D01*
X4074Y7913D01*
X4112Y7880D01*
X4147Y7844D01*
X4180Y7805D01*
X4209Y7764D01*
X4235Y7721D01*
X4258Y7676D01*
X4277Y7629D01*
X4292Y7581D01*
X4304Y7532D01*
X4312Y7482D01*
X4316Y7432D01*
X4316Y7382D01*
X4312Y7332D01*
X4304Y7282D01*
X4292Y7233D01*
X4277Y7185D01*
X4258Y7138D01*
X4235Y7093D01*
X4209Y7050D01*
X4180Y7009D01*
X4147Y6970D01*
X4112Y6934D01*
X4074Y6901D01*
X4034Y6871D01*
X3991Y6844D01*
X3946Y6821D01*
X3900Y6801D01*
X3852Y6784D01*
X3804Y6772D01*
X3754Y6763D01*
X3704Y6758D01*
X3653Y6757D01*
X3603Y6760D01*
X3553Y6767D01*
X3504Y6778D01*
X3456Y6792D01*
X3409Y6810D01*
X3363Y6832D01*
X3319Y6857D01*
X3278Y6886D01*
X3239Y6917D01*
X3202Y6952D01*
X3168Y6989D01*
X3137Y7029D01*
X3109Y7071D01*
X3085Y7115D01*
X3064Y7161D01*
X3047Y7209D01*
X3034Y7257D01*
X3024Y7307D01*
X3018Y7357D01*
X3016Y7407D01*
X2291Y7450D02*
X2292Y7377D01*
X2297Y7303D01*
X2305Y7231D01*
X2318Y7159D01*
X2334Y7087D01*
X2353Y7017D01*
X2377Y6947D01*
X2404Y6879D01*
X2435Y6813D01*
X2469Y6748D01*
X2506Y6685D01*
X2547Y6624D01*
X2590Y6566D01*
X2637Y6509D01*
X2687Y6455D01*
X2739Y6404D01*
X2794Y6356D01*
X2851Y6311D01*
X2911Y6268D01*
X2973Y6229D01*
X3037Y6193D01*
X3102Y6161D01*
X3170Y6132D01*
X3238Y6107D01*
X3308Y6085D01*
X3379Y6067D01*
X3451Y6052D01*
X3523Y6042D01*
X3596Y6035D01*
X3669Y6032D01*
X2291Y7407D02*
X2291Y7450D01*
X2291Y14300D01*
X2291Y14304D01*
X3016Y14304D02*
X3018Y14354D01*
X3024Y14404D01*
X3034Y14454D01*
X3047Y14502D01*
X3064Y14550D01*
X3085Y14596D01*
X3109Y14640D01*
X3137Y14682D01*
X3168Y14722D01*
X3202Y14759D01*
X3239Y14794D01*
X3278Y14825D01*
X3319Y14854D01*
X3363Y14879D01*
X3409Y14901D01*
X3456Y14919D01*
X3504Y14933D01*
X3553Y14944D01*
X3603Y14951D01*
X3653Y14954D01*
X3704Y14953D01*
X3754Y14948D01*
X3804Y14939D01*
X3852Y14927D01*
X3900Y14910D01*
X3946Y14890D01*
X3991Y14867D01*
X4034Y14840D01*
X4074Y14810D01*
X4112Y14777D01*
X4147Y14741D01*
X4180Y14702D01*
X4209Y14661D01*
X4235Y14618D01*
X4258Y14573D01*
X4277Y14526D01*
X4292Y14478D01*
X4304Y14429D01*
X4312Y14379D01*
X4316Y14329D01*
X4316Y14279D01*
X4312Y14229D01*
X4304Y14179D01*
X4292Y14130D01*
X4277Y14082D01*
X4258Y14035D01*
X4235Y13990D01*
X4209Y13947D01*
X4180Y13906D01*
X4147Y13867D01*
X4112Y13831D01*
X4074Y13798D01*
X4034Y13768D01*
X3991Y13741D01*
X3946Y13718D01*
X3900Y13698D01*
X3852Y13681D01*
X3804Y13669D01*
X3754Y13660D01*
X3704Y13655D01*
X3653Y13654D01*
X3603Y13657D01*
X3553Y13664D01*
X3504Y13675D01*
X3456Y13689D01*
X3409Y13707D01*
X3363Y13729D01*
X3319Y13754D01*
X3278Y13783D01*
X3239Y13814D01*
X3202Y13849D01*
X3168Y13886D01*
X3137Y13926D01*
X3109Y13968D01*
X3085Y14012D01*
X3064Y14058D01*
X3047Y14106D01*
X3034Y14154D01*
X3024Y14204D01*
X3018Y14254D01*
X3016Y14304D01*
X2291Y14300D02*
X2293Y14372D01*
X2299Y14444D01*
X2308Y14516D01*
X2321Y14587D01*
X2338Y14657D01*
X2358Y14726D01*
X2383Y14794D01*
X2410Y14860D01*
X2441Y14926D01*
X2476Y14989D01*
X2513Y15051D01*
X2554Y15110D01*
X2598Y15167D01*
X2645Y15222D01*
X2695Y15274D01*
X2747Y15324D01*
X2802Y15371D01*
X2859Y15415D01*
X2918Y15456D01*
X2980Y15493D01*
X3043Y15528D01*
X3109Y15559D01*
X3175Y15586D01*
X3243Y15611D01*
X3312Y15631D01*
X3382Y15648D01*
X3453Y15661D01*
X3525Y15670D01*
X3597Y15676D01*
X3669Y15678D01*
X20205Y15678D01*
X19555Y14300D02*
X19557Y14350D01*
X19563Y14400D01*
X19573Y14450D01*
X19586Y14498D01*
X19603Y14546D01*
X19624Y14592D01*
X19648Y14636D01*
X19676Y14678D01*
X19707Y14718D01*
X19741Y14755D01*
X19778Y14790D01*
X19817Y14821D01*
X19858Y14850D01*
X19902Y14875D01*
X19948Y14897D01*
X19995Y14915D01*
X20043Y14929D01*
X20092Y14940D01*
X20142Y14947D01*
X20192Y14950D01*
X20243Y14949D01*
X20293Y14944D01*
X20343Y14935D01*
X20391Y14923D01*
X20439Y14906D01*
X20485Y14886D01*
X20530Y14863D01*
X20573Y14836D01*
X20613Y14806D01*
X20651Y14773D01*
X20686Y14737D01*
X20719Y14698D01*
X20748Y14657D01*
X20774Y14614D01*
X20797Y14569D01*
X20816Y14522D01*
X20831Y14474D01*
X20843Y14425D01*
X20851Y14375D01*
X20855Y14325D01*
X20855Y14275D01*
X20851Y14225D01*
X20843Y14175D01*
X20831Y14126D01*
X20816Y14078D01*
X20797Y14031D01*
X20774Y13986D01*
X20748Y13943D01*
X20719Y13902D01*
X20686Y13863D01*
X20651Y13827D01*
X20613Y13794D01*
X20573Y13764D01*
X20530Y13737D01*
X20485Y13714D01*
X20439Y13694D01*
X20391Y13677D01*
X20343Y13665D01*
X20293Y13656D01*
X20243Y13651D01*
X20192Y13650D01*
X20142Y13653D01*
X20092Y13660D01*
X20043Y13671D01*
X19995Y13685D01*
X19948Y13703D01*
X19902Y13725D01*
X19858Y13750D01*
X19817Y13779D01*
X19778Y13810D01*
X19741Y13845D01*
X19707Y13882D01*
X19676Y13922D01*
X19648Y13964D01*
X19624Y14008D01*
X19603Y14054D01*
X19586Y14102D01*
X19573Y14150D01*
X19563Y14200D01*
X19557Y14250D01*
X19555Y14300D01*
X20205Y15678D02*
X20277Y15676D01*
X20349Y15670D01*
X20421Y15661D01*
X20492Y15648D01*
X20562Y15631D01*
X20631Y15611D01*
X20699Y15586D01*
X20765Y15559D01*
X20831Y15528D01*
X20894Y15493D01*
X20956Y15456D01*
X21015Y15415D01*
X21072Y15371D01*
X21127Y15324D01*
X21179Y15274D01*
X21229Y15222D01*
X21276Y15167D01*
X21320Y15110D01*
X21361Y15051D01*
X21398Y14989D01*
X21433Y14926D01*
X21464Y14860D01*
X21491Y14794D01*
X21516Y14726D01*
X21536Y14657D01*
X21553Y14587D01*
X21566Y14516D01*
X21575Y14444D01*
X21581Y14372D01*
X21583Y14300D01*
X21583Y7411D01*
X19558Y7407D02*
X19560Y7457D01*
X19566Y7507D01*
X19576Y7557D01*
X19589Y7605D01*
X19606Y7653D01*
X19627Y7699D01*
X19651Y7743D01*
X19679Y7785D01*
X19710Y7825D01*
X19744Y7862D01*
X19781Y7897D01*
X19820Y7928D01*
X19861Y7957D01*
X19905Y7982D01*
X19951Y8004D01*
X19998Y8022D01*
X20046Y8036D01*
X20095Y8047D01*
X20145Y8054D01*
X20195Y8057D01*
X20246Y8056D01*
X20296Y8051D01*
X20346Y8042D01*
X20394Y8030D01*
X20442Y8013D01*
X20488Y7993D01*
X20533Y7970D01*
X20576Y7943D01*
X20616Y7913D01*
X20654Y7880D01*
X20689Y7844D01*
X20722Y7805D01*
X20751Y7764D01*
X20777Y7721D01*
X20800Y7676D01*
X20819Y7629D01*
X20834Y7581D01*
X20846Y7532D01*
X20854Y7482D01*
X20858Y7432D01*
X20858Y7382D01*
X20854Y7332D01*
X20846Y7282D01*
X20834Y7233D01*
X20819Y7185D01*
X20800Y7138D01*
X20777Y7093D01*
X20751Y7050D01*
X20722Y7009D01*
X20689Y6970D01*
X20654Y6934D01*
X20616Y6901D01*
X20576Y6871D01*
X20533Y6844D01*
X20488Y6821D01*
X20442Y6801D01*
X20394Y6784D01*
X20346Y6772D01*
X20296Y6763D01*
X20246Y6758D01*
X20195Y6757D01*
X20145Y6760D01*
X20095Y6767D01*
X20046Y6778D01*
X19998Y6792D01*
X19951Y6810D01*
X19905Y6832D01*
X19861Y6857D01*
X19820Y6886D01*
X19781Y6917D01*
X19744Y6952D01*
X19710Y6989D01*
X19679Y7029D01*
X19651Y7071D01*
X19627Y7115D01*
X19606Y7161D01*
X19589Y7209D01*
X19576Y7257D01*
X19566Y7307D01*
X19560Y7357D01*
X19558Y7407D01*
X5441Y10852D02*
X5443Y10882D01*
X5449Y10912D01*
X5458Y10941D01*
X5471Y10968D01*
X5488Y10993D01*
X5507Y11016D01*
X5530Y11037D01*
X5555Y11054D01*
X5581Y11068D01*
X5610Y11078D01*
X5639Y11085D01*
X5669Y11088D01*
X5700Y11087D01*
X5730Y11082D01*
X5759Y11073D01*
X5786Y11061D01*
X5812Y11046D01*
X5836Y11027D01*
X5857Y11005D01*
X5875Y10981D01*
X5890Y10954D01*
X5901Y10926D01*
X5909Y10897D01*
X5913Y10867D01*
X5913Y10837D01*
X5909Y10807D01*
X5901Y10778D01*
X5890Y10750D01*
X5875Y10723D01*
X5857Y10699D01*
X5836Y10677D01*
X5812Y10658D01*
X5786Y10643D01*
X5759Y10631D01*
X5730Y10622D01*
X5700Y10617D01*
X5669Y10616D01*
X5639Y10619D01*
X5610Y10626D01*
X5581Y10636D01*
X5555Y10650D01*
X5530Y10667D01*
X5507Y10688D01*
X5488Y10711D01*
X5471Y10736D01*
X5458Y10763D01*
X5449Y10792D01*
X5443Y10822D01*
X5441Y10852D01*
X3473Y8883D02*
X3475Y8913D01*
X3481Y8943D01*
X3490Y8972D01*
X3503Y8999D01*
X3520Y9024D01*
X3539Y9047D01*
X3562Y9068D01*
X3587Y9085D01*
X3613Y9099D01*
X3642Y9109D01*
X3671Y9116D01*
X3701Y9119D01*
X3732Y9118D01*
X3762Y9113D01*
X3791Y9104D01*
X3818Y9092D01*
X3844Y9077D01*
X3868Y9058D01*
X3889Y9036D01*
X3907Y9012D01*
X3922Y8985D01*
X3933Y8957D01*
X3941Y8928D01*
X3945Y8898D01*
X3945Y8868D01*
X3941Y8838D01*
X3933Y8809D01*
X3922Y8781D01*
X3907Y8754D01*
X3889Y8730D01*
X3868Y8708D01*
X3844Y8689D01*
X3818Y8674D01*
X3791Y8662D01*
X3762Y8653D01*
X3732Y8648D01*
X3701Y8647D01*
X3671Y8650D01*
X3642Y8657D01*
X3613Y8667D01*
X3587Y8681D01*
X3562Y8698D01*
X3539Y8719D01*
X3520Y8742D01*
X3503Y8767D01*
X3490Y8794D01*
X3481Y8823D01*
X3475Y8853D01*
X3473Y8883D01*
X2488Y8883D02*
X2490Y8913D01*
X2496Y8943D01*
X2505Y8972D01*
X2518Y8999D01*
X2535Y9024D01*
X2554Y9047D01*
X2577Y9068D01*
X2602Y9085D01*
X2628Y9099D01*
X2657Y9109D01*
X2686Y9116D01*
X2716Y9119D01*
X2747Y9118D01*
X2777Y9113D01*
X2806Y9104D01*
X2833Y9092D01*
X2859Y9077D01*
X2883Y9058D01*
X2904Y9036D01*
X2922Y9012D01*
X2937Y8985D01*
X2948Y8957D01*
X2956Y8928D01*
X2960Y8898D01*
X2960Y8868D01*
X2956Y8838D01*
X2948Y8809D01*
X2937Y8781D01*
X2922Y8754D01*
X2904Y8730D01*
X2883Y8708D01*
X2859Y8689D01*
X2833Y8674D01*
X2806Y8662D01*
X2777Y8653D01*
X2747Y8648D01*
X2716Y8647D01*
X2686Y8650D01*
X2657Y8657D01*
X2628Y8667D01*
X2602Y8681D01*
X2577Y8698D01*
X2554Y8719D01*
X2535Y8742D01*
X2518Y8767D01*
X2505Y8794D01*
X2496Y8823D01*
X2490Y8853D01*
X2488Y8883D01*
X2488Y12820D02*
X2490Y12850D01*
X2496Y12880D01*
X2505Y12909D01*
X2518Y12936D01*
X2535Y12961D01*
X2554Y12984D01*
X2577Y13005D01*
X2602Y13022D01*
X2628Y13036D01*
X2657Y13046D01*
X2686Y13053D01*
X2716Y13056D01*
X2747Y13055D01*
X2777Y13050D01*
X2806Y13041D01*
X2833Y13029D01*
X2859Y13014D01*
X2883Y12995D01*
X2904Y12973D01*
X2922Y12949D01*
X2937Y12922D01*
X2948Y12894D01*
X2956Y12865D01*
X2960Y12835D01*
X2960Y12805D01*
X2956Y12775D01*
X2948Y12746D01*
X2937Y12718D01*
X2922Y12691D01*
X2904Y12667D01*
X2883Y12645D01*
X2859Y12626D01*
X2833Y12611D01*
X2806Y12599D01*
X2777Y12590D01*
X2747Y12585D01*
X2716Y12584D01*
X2686Y12587D01*
X2657Y12594D01*
X2628Y12604D01*
X2602Y12618D01*
X2577Y12635D01*
X2554Y12656D01*
X2535Y12679D01*
X2518Y12704D01*
X2505Y12731D01*
X2496Y12760D01*
X2490Y12790D01*
X2488Y12820D01*
X3473Y12820D02*
X3475Y12850D01*
X3481Y12880D01*
X3490Y12909D01*
X3503Y12936D01*
X3520Y12961D01*
X3539Y12984D01*
X3562Y13005D01*
X3587Y13022D01*
X3613Y13036D01*
X3642Y13046D01*
X3671Y13053D01*
X3701Y13056D01*
X3732Y13055D01*
X3762Y13050D01*
X3791Y13041D01*
X3818Y13029D01*
X3844Y13014D01*
X3868Y12995D01*
X3889Y12973D01*
X3907Y12949D01*
X3922Y12922D01*
X3933Y12894D01*
X3941Y12865D01*
X3945Y12835D01*
X3945Y12805D01*
X3941Y12775D01*
X3933Y12746D01*
X3922Y12718D01*
X3907Y12691D01*
X3889Y12667D01*
X3868Y12645D01*
X3844Y12626D01*
X3818Y12611D01*
X3791Y12599D01*
X3762Y12590D01*
X3732Y12585D01*
X3701Y12584D01*
X3671Y12587D01*
X3642Y12594D01*
X3613Y12604D01*
X3587Y12618D01*
X3562Y12635D01*
X3539Y12656D01*
X3520Y12679D01*
X3503Y12704D01*
X3490Y12731D01*
X3481Y12760D01*
X3475Y12790D01*
X3473Y12820D01*
D13*
X10623Y8833D02*
X10623Y8776D01*
X10849Y8776D01*
X10849Y8719D02*
X10849Y8833D01*
X10793Y8890D01*
X10679Y8890D01*
X10623Y8833D01*
X10679Y8663D02*
X10793Y8663D01*
X10849Y8719D01*
X10986Y8663D02*
X11156Y8776D01*
X10986Y8890D01*
X11156Y9003D02*
X11156Y8663D01*
X11298Y8719D02*
X11298Y8833D01*
X11355Y8890D01*
X11468Y8890D01*
X11525Y8833D01*
X11525Y8719D01*
X11468Y8663D01*
X11355Y8663D01*
X11298Y8719D01*
X11666Y8663D02*
X11666Y8833D01*
X11723Y8890D01*
X11780Y8833D01*
X11780Y8663D01*
X11893Y8663D02*
X11893Y8890D01*
X11836Y8890D01*
X11780Y8833D01*
X12035Y8776D02*
X12035Y8719D01*
X12091Y8663D01*
X12205Y8663D01*
X12261Y8719D01*
X12205Y8833D02*
X12091Y8833D01*
X12035Y8776D01*
X12035Y8946D02*
X12091Y9003D01*
X12205Y9003D01*
X12261Y8946D01*
X12261Y8890D01*
X12205Y8833D01*
X12261Y9263D02*
X12261Y9603D01*
X12148Y9490D01*
X12035Y9603D01*
X12035Y9263D01*
X11893Y9319D02*
X11836Y9376D01*
X11666Y9376D01*
X11666Y9433D02*
X11666Y9263D01*
X11836Y9263D01*
X11893Y9319D01*
X11836Y9490D02*
X11723Y9490D01*
X11666Y9433D01*
X11525Y9433D02*
X11525Y9319D01*
X11468Y9263D01*
X11298Y9263D01*
X11298Y9206D02*
X11298Y9490D01*
X11468Y9490D01*
X11525Y9433D01*
X11156Y9490D02*
X11100Y9490D01*
X11100Y9263D01*
X11156Y9263D02*
X11043Y9263D01*
X10911Y9319D02*
X10854Y9263D01*
X10684Y9263D01*
X10684Y9490D02*
X10854Y9490D01*
X10911Y9433D01*
X10911Y9319D01*
X11100Y9603D02*
X11100Y9660D01*
X11298Y9206D02*
X11355Y9149D01*
X11411Y9149D01*
X11355Y8303D02*
X11298Y8246D01*
X11525Y8019D01*
X11468Y7963D01*
X11355Y7963D01*
X11298Y8019D01*
X11298Y8246D01*
X11355Y8303D02*
X11468Y8303D01*
X11525Y8246D01*
X11525Y8019D01*
X11666Y8019D02*
X11723Y7963D01*
X11836Y7963D01*
X11893Y8019D01*
X11893Y8246D01*
X11836Y8303D01*
X11723Y8303D01*
X11666Y8246D01*
X11666Y8019D01*
X12035Y7963D02*
X12035Y8303D01*
X12148Y8190D01*
X12261Y8303D01*
X12261Y7963D01*
X11156Y7963D02*
X10930Y7963D01*
X11043Y7963D02*
X11043Y8303D01*
X11156Y8190D01*
X21047Y9158D02*
X21387Y9158D01*
X21047Y9385D01*
X21387Y9385D01*
X21387Y9526D02*
X21047Y9526D01*
X21160Y9526D02*
X21160Y9696D01*
X21217Y9753D01*
X21330Y9753D01*
X21387Y9696D01*
X21387Y9526D01*
X21160Y9640D02*
X21047Y9753D01*
X21047Y9894D02*
X21387Y9894D01*
X21387Y10121D01*
X21330Y10263D02*
X21387Y10319D01*
X21387Y10433D01*
X21330Y10490D01*
X21274Y10490D01*
X21047Y10263D01*
X21047Y10490D01*
X21217Y10631D02*
X21217Y10858D01*
X21047Y10801D02*
X21387Y10801D01*
X21217Y10631D01*
X21387Y10999D02*
X21047Y10999D01*
X21047Y11226D01*
X21103Y11368D02*
X21330Y11595D01*
X21103Y11595D01*
X21047Y11538D01*
X21047Y11424D01*
X21103Y11368D01*
X21330Y11368D01*
X21387Y11424D01*
X21387Y11538D01*
X21330Y11595D01*
X21274Y11736D02*
X21387Y11849D01*
X21047Y11849D01*
X21047Y11736D02*
X21047Y11963D01*
X21217Y12104D02*
X21217Y12331D01*
X21330Y12218D02*
X21103Y12218D01*
X21217Y10008D02*
X21217Y9894D01*
D14*
X18120Y8342D02*
X17839Y8342D01*
X8720Y7794D02*
X8886Y7670D01*
X9058Y7554D01*
X9235Y7447D01*
X9417Y7348D01*
X9604Y7259D01*
X9795Y7178D01*
X9990Y7107D01*
X10188Y7046D01*
X10388Y6995D01*
X10591Y6953D01*
X10796Y6921D01*
X11002Y6900D01*
X11209Y6888D01*
X11416Y6887D01*
X11623Y6895D01*
X11829Y6914D01*
X12035Y6943D01*
X12238Y6982D01*
X12439Y7030D01*
X12638Y7089D01*
X12834Y7157D01*
X13026Y7235D01*
X13214Y7322D01*
X13398Y7418D01*
X13576Y7522D01*
X13750Y7636D01*
X13917Y7758D01*
X14079Y7888D01*
X14234Y8025D01*
X14382Y8170D01*
X14523Y8322D01*
X14656Y8481D01*
X14781Y8646D01*
X14898Y8817D01*
X15007Y8993D01*
X15106Y9175D01*
X15197Y9361D01*
X15279Y9551D01*
X15351Y9746D01*
X15414Y9943D01*
X15467Y10143D01*
X15510Y10346D01*
X15543Y10551D01*
X15566Y10756D01*
X15579Y10963D01*
X15582Y11170D01*
X15575Y11377D01*
X15557Y11584D01*
X15530Y11789D01*
X15492Y11993D01*
X15445Y12195D01*
X15388Y12394D01*
X15321Y12590D01*
X15245Y12783D01*
X15159Y12971D01*
X15065Y13156D01*
X14961Y13335D01*
X14849Y13509D01*
X14728Y13678D01*
X14600Y13840D01*
X14463Y13996D01*
X14319Y14145D01*
X14168Y14287D01*
X14010Y14421D01*
X13846Y14548D01*
X13676Y14666D01*
X13500Y14776D01*
X13319Y14877D01*
X13134Y14969D01*
X12944Y15052D01*
X12750Y15125D01*
X12553Y15189D01*
X12353Y15244D01*
X12151Y15288D01*
X11947Y15323D01*
X11741Y15347D01*
X11534Y15362D01*
X11327Y15366D01*
X11120Y15360D01*
X10914Y15344D01*
X10708Y15318D01*
X10504Y15282D01*
X10302Y15236D01*
X10102Y15181D01*
X9906Y15115D01*
X9713Y15040D01*
X9523Y14956D01*
X9338Y14863D01*
X9158Y14760D01*
X8983Y14649D01*
X8814Y14530D01*
X8651Y14402D01*
X8494Y14267D01*
X8344Y14124D01*
X8201Y13974D01*
X8066Y13817D01*
X7938Y13654D01*
X7819Y13485D01*
X7708Y13310D01*
X7605Y13130D01*
X7512Y12945D01*
X7428Y12755D01*
X7353Y12562D01*
X7287Y12366D01*
X7232Y12166D01*
X7186Y11964D01*
X7150Y11760D01*
X7124Y11555D01*
X7108Y11348D01*
X7102Y11141D01*
X7106Y10934D01*
X7121Y10727D01*
X7145Y10521D01*
X7145Y10522D02*
X6122Y9931D01*
X7697Y7203D01*
X8720Y7794D01*
X17839Y13419D02*
X18120Y13419D01*
X17980Y13559D02*
X17980Y13279D01*
D15*
X-266Y6024D02*
X-255Y1163D01*
X-315Y5000D02*
X-266Y6024D01*
X-366Y5000D01*
X-389Y5000D02*
X-266Y6024D01*
X-161Y5000D01*
X-138Y5000D02*
X-389Y5000D01*
X-212Y5000D02*
X-266Y6024D01*
X-138Y5000D01*
X-1053Y6022D02*
X3669Y6033D01*
X3666Y7407D02*
X-1056Y7397D01*
X-269Y7398D02*
X-374Y8422D01*
X-397Y8422D02*
X-269Y7398D01*
X-169Y8422D01*
X-146Y8422D02*
X-397Y8422D01*
X-323Y8422D02*
X-269Y7398D01*
X-220Y8422D01*
X-146Y8422D02*
X-269Y7398D01*
X-274Y9446D01*
X2291Y14300D02*
X2291Y19418D01*
X2291Y18631D02*
X3315Y18733D01*
X3315Y18757D02*
X3315Y18505D01*
X2291Y18631D01*
X3315Y18529D01*
X3315Y18580D02*
X2291Y18631D01*
X3315Y18682D01*
X3315Y18757D02*
X2291Y18631D01*
X21583Y18631D01*
X20559Y18529D01*
X20559Y18505D02*
X21583Y18631D01*
X20559Y18733D01*
X20559Y18757D02*
X20559Y18505D01*
X20559Y18580D02*
X21583Y18631D01*
X20559Y18682D01*
X20559Y18757D02*
X21583Y18631D01*
X21583Y19418D02*
X21583Y14300D01*
X21583Y13415D02*
X25913Y13415D01*
X25126Y13415D02*
X25228Y12391D01*
X25252Y12391D02*
X25126Y13415D01*
X25024Y12391D01*
X25000Y12391D02*
X25252Y12391D01*
X25177Y12391D02*
X25126Y13415D01*
X25075Y12391D01*
X25000Y12391D02*
X25126Y13415D01*
X25126Y8296D01*
X25228Y9320D01*
X25252Y9320D02*
X25126Y8296D01*
X25024Y9320D01*
X25000Y9320D02*
X25252Y9320D01*
X25177Y9320D02*
X25126Y8296D01*
X25075Y9320D01*
X25000Y9320D02*
X25126Y8296D01*
X25913Y8296D02*
X21583Y8296D01*
X20598Y6033D02*
X29850Y6033D01*
X29063Y6033D02*
X29165Y7056D01*
X29189Y7056D02*
X29063Y6033D01*
X28961Y7056D01*
X28937Y7056D02*
X29189Y7056D01*
X29114Y7056D02*
X29063Y6033D01*
X29012Y7056D01*
X28937Y7056D02*
X29063Y6033D01*
X29063Y15678D01*
X29165Y14655D01*
X29189Y14655D02*
X29063Y15678D01*
X28961Y14655D01*
X28937Y14655D02*
X29189Y14655D01*
X29114Y14655D02*
X29063Y15678D01*
X29012Y14655D01*
X28937Y14655D02*
X29063Y15678D01*
X29850Y15678D02*
X20598Y15678D01*
D16*
X23620Y11929D02*
X23831Y11929D01*
X24043Y11717D01*
X24254Y11929D01*
X24466Y11929D01*
X24677Y11717D01*
X24677Y11294D01*
X24466Y11083D01*
X24677Y10660D02*
X24677Y9814D01*
X24677Y10237D02*
X23408Y10237D01*
X23831Y9814D01*
X23620Y11083D02*
X23408Y11294D01*
X23408Y11717D01*
X23620Y11929D01*
X24043Y11717D02*
X24043Y11506D01*
X27345Y10895D02*
X27980Y10261D01*
X27980Y11107D01*
X28614Y10895D02*
X27345Y10895D01*
X28403Y11529D02*
X28403Y11741D01*
X28614Y11741D01*
X28614Y11529D01*
X28403Y11529D01*
X28403Y12164D02*
X28614Y12375D01*
X28614Y12798D01*
X28403Y13010D01*
X27980Y13010D01*
X27768Y12798D01*
X27768Y12587D01*
X27980Y12164D01*
X27345Y12164D01*
X27345Y13010D01*
X27557Y9838D02*
X27345Y9626D01*
X27345Y9203D01*
X27557Y8992D01*
X27768Y9838D02*
X28614Y8992D01*
X28614Y9838D01*
X27768Y9838D02*
X27557Y9838D01*
X13010Y19291D02*
X13010Y20137D01*
X12799Y20349D01*
X12376Y20349D01*
X12164Y20137D01*
X12164Y19926D01*
X12376Y19714D01*
X13010Y19714D01*
X13010Y19291D02*
X12799Y19080D01*
X12376Y19080D01*
X12164Y19291D01*
X11742Y19714D02*
X10896Y19714D01*
X11530Y20349D01*
X11530Y19080D01*
X1243Y4948D02*
X1455Y4737D01*
X1455Y4314D01*
X1244Y4102D01*
X1033Y4101D01*
X821Y4313D01*
X610Y4101D01*
X398Y4100D01*
X186Y4311D01*
X186Y4735D01*
X397Y4946D01*
X821Y4524D02*
X821Y4313D01*
X399Y3678D02*
X187Y3677D01*
X188Y3466D01*
X399Y3466D01*
X399Y3678D01*
X823Y3044D02*
X825Y2198D01*
X1037Y1775D02*
X826Y1564D01*
X827Y929D01*
X404Y928D02*
X1250Y930D01*
X1461Y1142D01*
X1460Y1565D01*
X1248Y1776D01*
X1037Y1775D01*
X402Y1774D02*
X191Y1563D01*
X192Y1139D01*
X404Y928D01*
X190Y2408D02*
X1459Y2411D01*
X823Y3044D01*
D17*
X11277Y12628D03*
X11172Y12903D03*
X11187Y12913D03*
X11192Y12918D03*
X11197Y12923D03*
X11212Y12933D03*
X11257Y12963D03*
X11272Y12973D03*
X11277Y12978D03*
X11292Y12988D03*
X11307Y12998D03*
X11312Y13003D03*
X11322Y13008D03*
X11327Y13013D03*
X11332Y13018D03*
X11342Y13023D03*
X11347Y13028D03*
X11357Y13033D03*
X11362Y13038D03*
X11377Y13048D03*
X11157Y13278D03*
X11037Y13433D03*
X11037Y13438D03*
X11032Y13443D03*
X11032Y13448D03*
X11562Y13588D03*
X11562Y13593D03*
X11722Y13613D03*
X11722Y13618D03*
X11782Y13143D03*
X11752Y12948D03*
X11407Y14153D03*
X11407Y14158D03*
D18*
X11277Y14353D03*
X11687Y14548D03*
X12627Y14043D03*
X12627Y13503D03*
X12622Y13498D03*
X12367Y12978D03*
X11637Y12798D03*
X11277Y12633D03*
X10172Y12903D03*
X10087Y13933D03*
X10372Y14083D03*
D19*
X10337Y14063D03*
X11687Y14543D03*
X12532Y14093D03*
X11277Y12638D03*
X11002Y12753D03*
D20*
X11275Y12643D03*
X10305Y12843D03*
X11265Y14383D03*
X11685Y14538D03*
D21*
X10280Y14018D03*
X11275Y12648D03*
D22*
X11277Y12653D03*
X12372Y14148D03*
D23*
X12382Y14138D03*
X11277Y12658D03*
D24*
X11277Y12663D03*
X12392Y14123D03*
D25*
X11675Y14508D03*
X11275Y12668D03*
D26*
X11277Y12673D03*
D27*
X11275Y12678D03*
X11650Y14488D03*
D28*
X11632Y14473D03*
X11277Y12683D03*
D29*
X11277Y12688D03*
X11622Y14463D03*
D30*
X11275Y12693D03*
D31*
X11275Y12698D03*
X11920Y12843D03*
D32*
X11950Y12858D03*
X11275Y12703D03*
D33*
X11275Y12708D03*
X11975Y12873D03*
D34*
X12005Y12893D03*
X11275Y12713D03*
D35*
X11275Y12718D03*
X12010Y12898D03*
X12015Y12903D03*
D36*
X11275Y12723D03*
D37*
X11275Y12728D03*
D38*
X11092Y12838D03*
X11157Y13253D03*
X11022Y13483D03*
X11017Y13493D03*
X11017Y13498D03*
X11562Y13613D03*
X11727Y13588D03*
X11782Y13118D03*
X11747Y12953D03*
X10542Y12728D03*
X11402Y14183D03*
D39*
X11277Y12733D03*
D40*
X11357Y13063D03*
X10542Y12733D03*
X10067Y13388D03*
X10062Y13393D03*
X10057Y13403D03*
X10052Y13408D03*
X10047Y13413D03*
X10042Y13418D03*
X10037Y13893D03*
X10042Y13898D03*
X10047Y13903D03*
X10382Y14088D03*
X10507Y14308D03*
X10512Y14313D03*
X10517Y14318D03*
X12497Y13403D03*
X12657Y13528D03*
X12662Y13533D03*
X12662Y14013D03*
X12657Y14018D03*
X12412Y13013D03*
X12407Y13008D03*
D41*
X11490Y12738D03*
X10540Y12748D03*
X10295Y14028D03*
D42*
X10287Y14023D03*
X10237Y13993D03*
X11472Y14443D03*
X12352Y14168D03*
X12472Y14108D03*
X11062Y12738D03*
D43*
X10542Y12738D03*
X10242Y12863D03*
X10347Y14068D03*
X10627Y14388D03*
X11272Y14368D03*
X12297Y12938D03*
D44*
X11520Y12743D03*
X11030Y12743D03*
X11440Y14438D03*
D45*
X12497Y14103D03*
X10317Y14048D03*
X10207Y13988D03*
X10542Y12743D03*
D46*
X11015Y12748D03*
X11535Y12748D03*
X10190Y13983D03*
X10330Y14058D03*
X12515Y14098D03*
D47*
X12320Y14193D03*
X11350Y13088D03*
X11805Y12918D03*
X11550Y12753D03*
X12280Y12933D03*
D48*
X12367Y14153D03*
X10542Y12753D03*
D49*
X10805Y12853D03*
X10985Y12758D03*
X11565Y12758D03*
X11340Y13078D03*
X10160Y13973D03*
X12545Y14088D03*
D50*
X10540Y12758D03*
D51*
X10975Y12763D03*
X11575Y12763D03*
X11340Y13073D03*
X12305Y12943D03*
X12555Y14083D03*
X10150Y13968D03*
D52*
X11700Y14523D03*
X10540Y12763D03*
D53*
X10965Y12768D03*
X11585Y12768D03*
X12315Y12948D03*
X12530Y13438D03*
X12535Y13443D03*
X12570Y13468D03*
X10605Y14378D03*
X10140Y13963D03*
D54*
X10540Y12768D03*
D55*
X10955Y12773D03*
X11595Y12773D03*
X12000Y12813D03*
X12335Y12958D03*
X12520Y13428D03*
X12525Y13433D03*
X12585Y14068D03*
X10595Y14373D03*
X10120Y13953D03*
D56*
X10540Y12773D03*
D57*
X10212Y12878D03*
X10202Y12883D03*
X10112Y13948D03*
X10362Y14078D03*
X10587Y14368D03*
X12597Y14063D03*
X12597Y13483D03*
X12587Y13478D03*
X11612Y12783D03*
X11602Y12778D03*
D58*
X11337Y13093D03*
X10947Y12778D03*
X10812Y12858D03*
X10222Y12873D03*
X10127Y13958D03*
X11272Y14363D03*
X12577Y14073D03*
X12577Y13473D03*
X12327Y12953D03*
D59*
X10540Y12778D03*
X11655Y14493D03*
D60*
X10662Y12783D03*
D61*
X10187Y12893D03*
X10102Y13943D03*
X10572Y14358D03*
X10577Y14363D03*
X11622Y12788D03*
X12352Y12968D03*
X12612Y14053D03*
D62*
X11745Y13503D03*
X11745Y13498D03*
X11570Y13678D03*
X10970Y13653D03*
X10970Y13648D03*
X11170Y13153D03*
X11170Y13148D03*
X11065Y12788D03*
X11790Y13048D03*
X11390Y14268D03*
X11390Y14273D03*
D63*
X10640Y12788D03*
X10630Y12793D03*
D64*
X10820Y12863D03*
X11325Y13098D03*
X11630Y12793D03*
X12360Y12973D03*
X12510Y13418D03*
X12615Y13493D03*
X12620Y14048D03*
X10565Y14353D03*
X10095Y13938D03*
X10180Y12898D03*
D65*
X11070Y12793D03*
X11745Y12963D03*
X11745Y13513D03*
X11570Y13668D03*
X11570Y13673D03*
X10980Y13618D03*
X10975Y13628D03*
X10975Y13633D03*
X11395Y14253D03*
D66*
X11392Y14248D03*
X11567Y13663D03*
X11742Y13523D03*
X11742Y13518D03*
X11787Y13068D03*
X11787Y13063D03*
X11167Y13173D03*
X11167Y13178D03*
X11072Y12798D03*
X10842Y12908D03*
X10982Y13608D03*
X10982Y13613D03*
X10977Y13623D03*
D67*
X10592Y12813D03*
X10602Y12808D03*
X10622Y12798D03*
D68*
X10165Y12908D03*
X10160Y12913D03*
X10080Y13928D03*
X10550Y14343D03*
X10555Y14348D03*
X12505Y13413D03*
X12635Y13508D03*
X12635Y14038D03*
X12375Y12983D03*
X11650Y12808D03*
X11645Y12803D03*
D69*
X11787Y13073D03*
X11787Y13078D03*
X11787Y13083D03*
X11737Y13538D03*
X11567Y13653D03*
X10987Y13593D03*
X10987Y13588D03*
X11397Y14233D03*
X11072Y12803D03*
D70*
X10610Y12803D03*
X10585Y12818D03*
X10575Y12823D03*
X10570Y12828D03*
X10560Y12833D03*
D71*
X10080Y12993D03*
X10075Y12998D03*
X10075Y13003D03*
X10070Y13008D03*
X10065Y13333D03*
X10070Y13343D03*
X10075Y13348D03*
X10075Y13353D03*
X10080Y13363D03*
X10080Y13368D03*
X9980Y13488D03*
X9975Y13493D03*
X9970Y13503D03*
X9975Y13818D03*
X9980Y13828D03*
X9985Y13833D03*
X10395Y14093D03*
X10450Y14238D03*
X10455Y14243D03*
X10455Y14248D03*
X10460Y14253D03*
X10465Y14258D03*
X12490Y13393D03*
X12480Y13098D03*
X12475Y13088D03*
X12470Y13083D03*
X12470Y13078D03*
X12465Y13073D03*
X12000Y12808D03*
X11125Y12888D03*
X12715Y13588D03*
X12720Y13598D03*
X12725Y13603D03*
X12730Y13608D03*
X12735Y13618D03*
X12735Y13928D03*
X12730Y13938D03*
X12725Y13943D03*
X12720Y13948D03*
X12715Y13958D03*
D72*
X11855Y14238D03*
X11860Y14268D03*
X11865Y14298D03*
X11870Y14328D03*
X11875Y14353D03*
X11875Y14358D03*
X11880Y14383D03*
X11880Y14388D03*
X11885Y14413D03*
X11885Y14418D03*
X11905Y14538D03*
X11905Y14543D03*
X11395Y14228D03*
X11565Y13648D03*
X11740Y13543D03*
X11165Y13198D03*
X11165Y13193D03*
X11075Y12808D03*
X10995Y13568D03*
X10995Y13573D03*
X10990Y13578D03*
X10990Y13583D03*
D73*
X10822Y12868D03*
X10152Y12918D03*
X10067Y13918D03*
X10072Y13923D03*
X10542Y14338D03*
X11817Y14443D03*
X12287Y14208D03*
X12642Y14033D03*
X12647Y14028D03*
X12647Y13518D03*
X12642Y13513D03*
X12502Y13408D03*
X12387Y12993D03*
X12382Y12988D03*
X11777Y12928D03*
X11657Y12813D03*
D74*
X11787Y13088D03*
X11787Y13093D03*
X11827Y13198D03*
X11837Y13223D03*
X11847Y13248D03*
X11857Y13273D03*
X11882Y13338D03*
X11892Y13363D03*
X11902Y13388D03*
X11912Y13413D03*
X11937Y13478D03*
X11947Y13503D03*
X11957Y13528D03*
X11967Y13553D03*
X11992Y13618D03*
X12002Y13643D03*
X12012Y13668D03*
X12022Y13693D03*
X12057Y13783D03*
X12067Y13808D03*
X12077Y13833D03*
X12087Y13858D03*
X12112Y13923D03*
X12122Y13948D03*
X12132Y13973D03*
X12142Y13998D03*
X12152Y14023D03*
X12162Y14048D03*
X12167Y14063D03*
X12177Y14088D03*
X11842Y14153D03*
X11842Y14158D03*
X11842Y14163D03*
X11842Y14168D03*
X11842Y14173D03*
X11842Y14178D03*
X11847Y14183D03*
X11847Y14188D03*
X11847Y14193D03*
X11847Y14198D03*
X11847Y14203D03*
X11847Y14208D03*
X11852Y14213D03*
X11852Y14218D03*
X11852Y14223D03*
X11852Y14228D03*
X11852Y14233D03*
X11857Y14243D03*
X11857Y14248D03*
X11857Y14253D03*
X11857Y14258D03*
X11857Y14263D03*
X11862Y14273D03*
X11862Y14278D03*
X11862Y14283D03*
X11862Y14288D03*
X11862Y14293D03*
X11867Y14303D03*
X11867Y14308D03*
X11867Y14313D03*
X11867Y14318D03*
X11867Y14323D03*
X11872Y14333D03*
X11872Y14338D03*
X11872Y14343D03*
X11872Y14348D03*
X11877Y14363D03*
X11877Y14368D03*
X11877Y14373D03*
X11877Y14378D03*
X11882Y14393D03*
X11882Y14398D03*
X11882Y14403D03*
X11882Y14408D03*
X11907Y14548D03*
X11907Y14553D03*
X11837Y14148D03*
X11837Y14143D03*
X11837Y14138D03*
X11837Y14133D03*
X11837Y14128D03*
X11837Y14123D03*
X11832Y14113D03*
X11832Y14108D03*
X11832Y14103D03*
X11832Y14098D03*
X11832Y14093D03*
X11827Y14083D03*
X11827Y14078D03*
X11827Y14073D03*
X11827Y14068D03*
X11822Y14058D03*
X11822Y14053D03*
X11822Y14048D03*
X11822Y14043D03*
X11822Y14038D03*
X11817Y14028D03*
X11817Y14023D03*
X11817Y14018D03*
X11817Y14013D03*
X11817Y14008D03*
X11812Y13998D03*
X11812Y13993D03*
X11812Y13988D03*
X11812Y13983D03*
X11812Y13978D03*
X11807Y13968D03*
X11807Y13963D03*
X11807Y13958D03*
X11807Y13953D03*
X11802Y13943D03*
X11802Y13938D03*
X11802Y13933D03*
X11802Y13928D03*
X11802Y13923D03*
X11797Y13913D03*
X11797Y13908D03*
X11797Y13903D03*
X11797Y13898D03*
X11797Y13893D03*
X11792Y13883D03*
X11792Y13878D03*
X11792Y13873D03*
X11792Y13868D03*
X11792Y13863D03*
X11787Y13853D03*
X11787Y13848D03*
X11787Y13843D03*
X11787Y13838D03*
X11787Y13833D03*
X11782Y13823D03*
X11782Y13818D03*
X11782Y13813D03*
X11782Y13808D03*
X11777Y13798D03*
X11777Y13793D03*
X11777Y13788D03*
X11777Y13783D03*
X11777Y13778D03*
X11772Y13768D03*
X11772Y13763D03*
X11772Y13758D03*
X11772Y13753D03*
X11772Y13748D03*
X11767Y13738D03*
X11767Y13733D03*
X11767Y13728D03*
X11767Y13723D03*
X11767Y13718D03*
X11762Y13708D03*
X11762Y13703D03*
X11762Y13698D03*
X11762Y13693D03*
X11757Y13683D03*
X11757Y13678D03*
X11757Y13673D03*
X11757Y13668D03*
X11757Y13663D03*
X11737Y13548D03*
X11617Y13508D03*
X11607Y13533D03*
X11627Y13483D03*
X11637Y13458D03*
X11567Y13643D03*
X11282Y13718D03*
X11277Y13698D03*
X11272Y13678D03*
X11267Y13653D03*
X11262Y13633D03*
X11257Y13613D03*
X11252Y13588D03*
X11247Y13568D03*
X11242Y13548D03*
X11237Y13523D03*
X11232Y13503D03*
X11227Y13483D03*
X11222Y13458D03*
X11217Y13438D03*
X11212Y13418D03*
X11207Y13393D03*
X11202Y13378D03*
X11202Y13373D03*
X11197Y13363D03*
X11197Y13358D03*
X11197Y13353D03*
X11192Y13338D03*
X11192Y13333D03*
X11192Y13328D03*
X11187Y13318D03*
X11187Y13313D03*
X11162Y13208D03*
X11162Y13203D03*
X11037Y13203D03*
X11037Y13208D03*
X11037Y13213D03*
X11032Y13253D03*
X11032Y13258D03*
X11027Y13283D03*
X11027Y13288D03*
X11027Y13293D03*
X11027Y13298D03*
X11027Y13303D03*
X11022Y13313D03*
X11022Y13318D03*
X11022Y13323D03*
X11022Y13328D03*
X11022Y13333D03*
X11022Y13338D03*
X11022Y13343D03*
X11022Y13348D03*
X11017Y13358D03*
X11017Y13363D03*
X11017Y13368D03*
X11017Y13373D03*
X11017Y13378D03*
X11017Y13383D03*
X10997Y13558D03*
X10997Y13563D03*
X11287Y13743D03*
X11292Y13763D03*
X11297Y13783D03*
X11302Y13808D03*
X11307Y13828D03*
X11312Y13848D03*
X11317Y13873D03*
X11322Y13893D03*
X11327Y13913D03*
X11332Y13938D03*
X11337Y13958D03*
X11342Y13978D03*
X11347Y14003D03*
X11352Y14023D03*
X11357Y14043D03*
X11362Y14063D03*
X11362Y14068D03*
X11367Y14088D03*
X11372Y14108D03*
X11397Y14218D03*
X11397Y14223D03*
X11042Y13168D03*
X11042Y13163D03*
X11042Y13158D03*
X11042Y13153D03*
X11047Y13143D03*
X11047Y13138D03*
X11047Y13133D03*
X11047Y13128D03*
X11047Y13123D03*
X11047Y13118D03*
X11047Y13113D03*
X11047Y13108D03*
X11047Y13103D03*
X11052Y13098D03*
X11052Y13093D03*
X11052Y13088D03*
X11052Y13083D03*
X11052Y13078D03*
X11052Y13073D03*
X11052Y13068D03*
X11052Y13063D03*
X11052Y13058D03*
X11052Y13053D03*
X11057Y13048D03*
X11057Y13043D03*
X11057Y13038D03*
X11057Y13033D03*
X11057Y13028D03*
X11057Y13023D03*
X11057Y13018D03*
X11057Y13013D03*
X11057Y13008D03*
X11057Y13003D03*
X11062Y12998D03*
X11062Y12993D03*
X11062Y12988D03*
X11062Y12983D03*
X11062Y12978D03*
X11062Y12973D03*
X11062Y12968D03*
X11062Y12963D03*
X11062Y12958D03*
X11062Y12953D03*
X11067Y12948D03*
X11067Y12943D03*
X11067Y12938D03*
X11067Y12933D03*
X11067Y12928D03*
X11067Y12923D03*
X11067Y12918D03*
X11067Y12913D03*
X11067Y12908D03*
X11067Y12903D03*
X11072Y12898D03*
X11077Y12813D03*
D75*
X10282Y12848D03*
X12002Y12818D03*
X11267Y14378D03*
X10922Y14508D03*
D76*
X10535Y14333D03*
X10530Y14328D03*
X10525Y14323D03*
X10060Y13913D03*
X10055Y13908D03*
X10135Y12933D03*
X10140Y12928D03*
X10145Y12923D03*
X11665Y12818D03*
X11670Y12823D03*
X11675Y12828D03*
X12395Y12998D03*
X12400Y13003D03*
X12655Y13523D03*
X12650Y14023D03*
D77*
X12230Y14223D03*
X12230Y14228D03*
X12235Y14238D03*
X12240Y14253D03*
X12245Y14263D03*
X12250Y14278D03*
X12255Y14288D03*
X12260Y14303D03*
X12270Y14328D03*
X12280Y14353D03*
X12285Y14368D03*
X12290Y14378D03*
X12295Y14393D03*
X12300Y14403D03*
X12305Y14418D03*
X12310Y14428D03*
X12315Y14443D03*
X12320Y14453D03*
X12325Y14468D03*
X12330Y14478D03*
X12335Y14493D03*
X12340Y14503D03*
X12340Y14508D03*
X12345Y14518D03*
X12350Y14528D03*
X12350Y14533D03*
X12350Y14538D03*
X12355Y14543D03*
X12355Y14548D03*
X12360Y14553D03*
X12185Y14103D03*
X12180Y14098D03*
X12180Y14093D03*
X12175Y14083D03*
X12175Y14078D03*
X12170Y14073D03*
X12170Y14068D03*
X12165Y14058D03*
X12165Y14053D03*
X12160Y14043D03*
X12160Y14038D03*
X12155Y14033D03*
X12155Y14028D03*
X12150Y14018D03*
X12150Y14013D03*
X12145Y14008D03*
X12145Y14003D03*
X12140Y13993D03*
X12140Y13988D03*
X12135Y13983D03*
X12135Y13978D03*
X12130Y13968D03*
X12130Y13963D03*
X12125Y13958D03*
X12125Y13953D03*
X12120Y13943D03*
X12120Y13938D03*
X12115Y13933D03*
X12115Y13928D03*
X12110Y13918D03*
X12110Y13913D03*
X12105Y13908D03*
X12105Y13903D03*
X12105Y13898D03*
X12100Y13893D03*
X12100Y13888D03*
X12095Y13883D03*
X12095Y13878D03*
X12095Y13873D03*
X12090Y13868D03*
X12090Y13863D03*
X12085Y13853D03*
X12085Y13848D03*
X12080Y13843D03*
X12080Y13838D03*
X12075Y13828D03*
X12075Y13823D03*
X12070Y13818D03*
X12070Y13813D03*
X12065Y13803D03*
X12065Y13798D03*
X12060Y13793D03*
X12060Y13788D03*
X12055Y13778D03*
X12055Y13773D03*
X12050Y13768D03*
X12050Y13763D03*
X12050Y13758D03*
X12045Y13753D03*
X12045Y13748D03*
X12040Y13743D03*
X12040Y13738D03*
X12040Y13733D03*
X12035Y13728D03*
X12035Y13723D03*
X12030Y13718D03*
X12030Y13713D03*
X12030Y13708D03*
X12025Y13703D03*
X12025Y13698D03*
X12020Y13688D03*
X12020Y13683D03*
X12015Y13678D03*
X12015Y13673D03*
X12010Y13663D03*
X12010Y13658D03*
X12005Y13653D03*
X12005Y13648D03*
X12000Y13638D03*
X12000Y13633D03*
X11995Y13628D03*
X11995Y13623D03*
X11990Y13613D03*
X11990Y13608D03*
X11985Y13603D03*
X11985Y13598D03*
X11985Y13593D03*
X11980Y13588D03*
X11980Y13583D03*
X11975Y13578D03*
X11975Y13573D03*
X11975Y13568D03*
X11970Y13563D03*
X11970Y13558D03*
X11965Y13548D03*
X11965Y13543D03*
X11960Y13538D03*
X11960Y13533D03*
X11955Y13523D03*
X11955Y13518D03*
X11950Y13513D03*
X11950Y13508D03*
X11945Y13498D03*
X11945Y13493D03*
X11940Y13488D03*
X11940Y13483D03*
X11935Y13473D03*
X11935Y13468D03*
X11930Y13463D03*
X11930Y13458D03*
X11930Y13453D03*
X11925Y13448D03*
X11925Y13443D03*
X11920Y13438D03*
X11920Y13433D03*
X11920Y13428D03*
X11915Y13423D03*
X11915Y13418D03*
X11910Y13408D03*
X11910Y13403D03*
X11905Y13398D03*
X11905Y13393D03*
X11900Y13383D03*
X11900Y13378D03*
X11895Y13373D03*
X11895Y13368D03*
X11890Y13358D03*
X11890Y13353D03*
X11885Y13348D03*
X11885Y13343D03*
X11880Y13333D03*
X11880Y13328D03*
X11875Y13323D03*
X11875Y13318D03*
X11875Y13313D03*
X11870Y13308D03*
X11870Y13303D03*
X11865Y13298D03*
X11865Y13293D03*
X11865Y13288D03*
X11860Y13283D03*
X11860Y13278D03*
X11855Y13268D03*
X11855Y13263D03*
X11850Y13258D03*
X11850Y13253D03*
X11845Y13243D03*
X11845Y13238D03*
X11840Y13233D03*
X11840Y13228D03*
X11835Y13218D03*
X11835Y13213D03*
X11830Y13208D03*
X11830Y13203D03*
X11825Y13193D03*
X11825Y13188D03*
X11820Y13183D03*
X11740Y13203D03*
X11730Y13228D03*
X11725Y13238D03*
X11720Y13253D03*
X11715Y13263D03*
X11710Y13273D03*
X11710Y13278D03*
X11705Y13288D03*
X11700Y13298D03*
X11700Y13303D03*
X11695Y13313D03*
X11690Y13323D03*
X11690Y13328D03*
X11685Y13338D03*
X11680Y13348D03*
X11675Y13358D03*
X11675Y13363D03*
X11670Y13373D03*
X11665Y13383D03*
X11665Y13388D03*
X11660Y13398D03*
X11655Y13408D03*
X11655Y13413D03*
X11655Y13418D03*
X11650Y13423D03*
X11650Y13428D03*
X11645Y13433D03*
X11645Y13438D03*
X11645Y13443D03*
X11640Y13448D03*
X11640Y13453D03*
X11635Y13463D03*
X11635Y13468D03*
X11630Y13473D03*
X11630Y13478D03*
X11625Y13488D03*
X11625Y13493D03*
X11620Y13498D03*
X11620Y13503D03*
X11615Y13513D03*
X11615Y13518D03*
X11610Y13523D03*
X11610Y13528D03*
X11605Y13538D03*
X11605Y13543D03*
X11600Y13548D03*
X11600Y13553D03*
X11600Y13558D03*
X11565Y13638D03*
X11615Y13788D03*
X11610Y13798D03*
X11605Y13808D03*
X11600Y13818D03*
X11595Y13828D03*
X11590Y13838D03*
X11585Y13848D03*
X11580Y13858D03*
X11575Y13868D03*
X11570Y13878D03*
X11565Y13883D03*
X11565Y13888D03*
X11560Y13893D03*
X11560Y13898D03*
X11555Y13903D03*
X11555Y13908D03*
X11550Y13913D03*
X11550Y13918D03*
X11545Y13923D03*
X11540Y13933D03*
X11535Y13943D03*
X11530Y13953D03*
X11525Y13963D03*
X11520Y13973D03*
X11515Y13983D03*
X11510Y13993D03*
X11505Y14003D03*
X11500Y14013D03*
X11495Y14023D03*
X11490Y14033D03*
X11485Y14043D03*
X11480Y14053D03*
X11475Y14063D03*
X11470Y14073D03*
X11465Y14083D03*
X11460Y14093D03*
X11455Y14103D03*
X11450Y14113D03*
X11445Y14123D03*
X11375Y14123D03*
X11375Y14118D03*
X11375Y14113D03*
X11370Y14103D03*
X11370Y14098D03*
X11370Y14093D03*
X11365Y14083D03*
X11365Y14078D03*
X11365Y14073D03*
X11360Y14058D03*
X11360Y14053D03*
X11360Y14048D03*
X11355Y14038D03*
X11355Y14033D03*
X11355Y14028D03*
X11350Y14018D03*
X11350Y14013D03*
X11350Y14008D03*
X11345Y13998D03*
X11345Y13993D03*
X11345Y13988D03*
X11345Y13983D03*
X11340Y13973D03*
X11340Y13968D03*
X11340Y13963D03*
X11335Y13953D03*
X11335Y13948D03*
X11335Y13943D03*
X11330Y13933D03*
X11330Y13928D03*
X11330Y13923D03*
X11330Y13918D03*
X11325Y13908D03*
X11325Y13903D03*
X11325Y13898D03*
X11320Y13888D03*
X11320Y13883D03*
X11320Y13878D03*
X11315Y13868D03*
X11315Y13863D03*
X11315Y13858D03*
X11315Y13853D03*
X11310Y13843D03*
X11310Y13838D03*
X11310Y13833D03*
X11305Y13823D03*
X11305Y13818D03*
X11305Y13813D03*
X11300Y13803D03*
X11300Y13798D03*
X11300Y13793D03*
X11300Y13788D03*
X11295Y13778D03*
X11295Y13773D03*
X11295Y13768D03*
X11290Y13758D03*
X11290Y13753D03*
X11290Y13748D03*
X11285Y13738D03*
X11285Y13733D03*
X11285Y13728D03*
X11285Y13723D03*
X11280Y13713D03*
X11280Y13708D03*
X11280Y13703D03*
X11275Y13693D03*
X11275Y13688D03*
X11275Y13683D03*
X11270Y13673D03*
X11270Y13668D03*
X11270Y13663D03*
X11270Y13658D03*
X11265Y13648D03*
X11265Y13643D03*
X11265Y13638D03*
X11260Y13628D03*
X11260Y13623D03*
X11260Y13618D03*
X11255Y13608D03*
X11255Y13603D03*
X11255Y13598D03*
X11255Y13593D03*
X11250Y13583D03*
X11250Y13578D03*
X11250Y13573D03*
X11245Y13563D03*
X11245Y13558D03*
X11245Y13553D03*
X11240Y13543D03*
X11240Y13538D03*
X11240Y13533D03*
X11240Y13528D03*
X11235Y13518D03*
X11235Y13513D03*
X11235Y13508D03*
X11230Y13498D03*
X11230Y13493D03*
X11230Y13488D03*
X11225Y13478D03*
X11225Y13473D03*
X11225Y13468D03*
X11225Y13463D03*
X11220Y13453D03*
X11220Y13448D03*
X11220Y13443D03*
X11215Y13433D03*
X11215Y13428D03*
X11215Y13423D03*
X11210Y13413D03*
X11210Y13408D03*
X11210Y13403D03*
X11210Y13398D03*
X11205Y13388D03*
X11205Y13383D03*
X11200Y13368D03*
X11195Y13348D03*
X11195Y13343D03*
X11190Y13323D03*
X11120Y13313D03*
X11115Y13323D03*
X11110Y13333D03*
X11105Y13343D03*
X11100Y13353D03*
X11095Y13363D03*
X11090Y13373D03*
X11085Y13383D03*
X11020Y13353D03*
X11025Y13308D03*
X11030Y13278D03*
X11030Y13273D03*
X11030Y13268D03*
X11030Y13263D03*
X11035Y13248D03*
X11035Y13243D03*
X11035Y13238D03*
X11035Y13233D03*
X11035Y13228D03*
X11035Y13223D03*
X11035Y13218D03*
X11040Y13198D03*
X11040Y13193D03*
X11040Y13188D03*
X11040Y13183D03*
X11040Y13178D03*
X11040Y13173D03*
X11045Y13148D03*
X11165Y13213D03*
X11000Y13548D03*
X11000Y13553D03*
X11735Y13553D03*
X11755Y13658D03*
X11760Y13688D03*
X11765Y13713D03*
X11770Y13743D03*
X11775Y13773D03*
X11780Y13803D03*
X11785Y13828D03*
X11790Y13858D03*
X11795Y13888D03*
X11800Y13918D03*
X11805Y13948D03*
X11810Y13973D03*
X11815Y14003D03*
X11820Y14033D03*
X11825Y14063D03*
X11830Y14088D03*
X11835Y14118D03*
X11400Y14208D03*
X11400Y14213D03*
X11285Y14308D03*
X11750Y12958D03*
X11080Y12818D03*
D78*
X12000Y12823D03*
D79*
X11787Y13098D03*
X11787Y13103D03*
X11747Y13183D03*
X11747Y13188D03*
X11742Y13193D03*
X11742Y13198D03*
X11737Y13208D03*
X11737Y13213D03*
X11732Y13218D03*
X11732Y13223D03*
X11727Y13233D03*
X11722Y13243D03*
X11722Y13248D03*
X11717Y13258D03*
X11712Y13268D03*
X11707Y13283D03*
X11702Y13293D03*
X11697Y13308D03*
X11692Y13318D03*
X11687Y13333D03*
X11682Y13343D03*
X11677Y13353D03*
X11672Y13368D03*
X11667Y13378D03*
X11662Y13393D03*
X11657Y13403D03*
X11732Y13558D03*
X11732Y13563D03*
X11682Y13658D03*
X11677Y13668D03*
X11672Y13678D03*
X11667Y13683D03*
X11667Y13688D03*
X11662Y13693D03*
X11662Y13698D03*
X11657Y13703D03*
X11657Y13708D03*
X11652Y13713D03*
X11652Y13718D03*
X11647Y13723D03*
X11647Y13728D03*
X11642Y13733D03*
X11642Y13738D03*
X11637Y13743D03*
X11637Y13748D03*
X11632Y13753D03*
X11632Y13758D03*
X11627Y13763D03*
X11627Y13768D03*
X11622Y13773D03*
X11622Y13778D03*
X11617Y13783D03*
X11612Y13793D03*
X11607Y13803D03*
X11602Y13813D03*
X11597Y13823D03*
X11592Y13833D03*
X11587Y13843D03*
X11582Y13853D03*
X11577Y13863D03*
X11572Y13873D03*
X11542Y13928D03*
X11537Y13938D03*
X11532Y13948D03*
X11527Y13958D03*
X11522Y13968D03*
X11517Y13978D03*
X11512Y13988D03*
X11507Y13998D03*
X11502Y14008D03*
X11497Y14018D03*
X11492Y14028D03*
X11487Y14038D03*
X11482Y14048D03*
X11477Y14058D03*
X11472Y14068D03*
X11467Y14078D03*
X11462Y14088D03*
X11457Y14098D03*
X11452Y14108D03*
X11447Y14118D03*
X11567Y13633D03*
X11502Y13518D03*
X11487Y13493D03*
X11472Y13468D03*
X11467Y13458D03*
X11457Y13443D03*
X11452Y13433D03*
X11447Y13423D03*
X11442Y13418D03*
X11437Y13408D03*
X11432Y13398D03*
X11427Y13393D03*
X11422Y13383D03*
X11417Y13373D03*
X11412Y13363D03*
X11407Y13358D03*
X11407Y13353D03*
X11402Y13348D03*
X11402Y13343D03*
X11397Y13338D03*
X11392Y13333D03*
X11392Y13328D03*
X11387Y13323D03*
X11387Y13318D03*
X11382Y13313D03*
X11377Y13308D03*
X11377Y13303D03*
X11372Y13298D03*
X11372Y13293D03*
X11367Y13288D03*
X11362Y13283D03*
X11362Y13278D03*
X11357Y13273D03*
X11357Y13268D03*
X11352Y13263D03*
X11347Y13258D03*
X11347Y13253D03*
X11342Y13248D03*
X11342Y13243D03*
X11337Y13238D03*
X11332Y13233D03*
X11332Y13228D03*
X11327Y13223D03*
X11327Y13218D03*
X11322Y13213D03*
X11317Y13208D03*
X11317Y13203D03*
X11312Y13198D03*
X11312Y13193D03*
X11307Y13188D03*
X11302Y13183D03*
X11302Y13178D03*
X11297Y13173D03*
X11297Y13168D03*
X11292Y13163D03*
X11287Y13158D03*
X11287Y13153D03*
X11282Y13148D03*
X11282Y13143D03*
X11277Y13138D03*
X11272Y13133D03*
X11272Y13128D03*
X11267Y13123D03*
X11162Y13218D03*
X11162Y13223D03*
X11117Y13318D03*
X11112Y13328D03*
X11107Y13338D03*
X11102Y13348D03*
X11097Y13358D03*
X11092Y13368D03*
X11087Y13378D03*
X11002Y13543D03*
X11082Y12823D03*
X12232Y14233D03*
X12237Y14243D03*
X12237Y14248D03*
X12242Y14258D03*
X12247Y14268D03*
X12247Y14273D03*
X12252Y14283D03*
X12257Y14293D03*
X12257Y14298D03*
X12262Y14308D03*
X12262Y14313D03*
X12267Y14318D03*
X12267Y14323D03*
X12272Y14333D03*
X12272Y14338D03*
X12277Y14343D03*
X12277Y14348D03*
X12282Y14358D03*
X12282Y14363D03*
X12287Y14373D03*
X12292Y14383D03*
X12292Y14388D03*
X12297Y14398D03*
X12302Y14408D03*
X12302Y14413D03*
X12307Y14423D03*
X12312Y14433D03*
X12312Y14438D03*
X12317Y14448D03*
X12322Y14458D03*
X12322Y14463D03*
X12327Y14473D03*
X12332Y14483D03*
X12332Y14488D03*
X12337Y14498D03*
X12342Y14513D03*
X12347Y14523D03*
D80*
X12365Y14158D03*
X12000Y12828D03*
D81*
X11787Y13113D03*
X11732Y13568D03*
X11732Y13573D03*
X11272Y13118D03*
X11087Y12828D03*
X11012Y13513D03*
X11012Y13518D03*
X11402Y14193D03*
X11402Y14198D03*
D82*
X10920Y14493D03*
X12375Y14143D03*
X12000Y12833D03*
D83*
X11680Y12833D03*
X12415Y13018D03*
X12420Y13023D03*
X12670Y13538D03*
X12675Y13543D03*
X12680Y13548D03*
X12680Y13998D03*
X12675Y14003D03*
X12670Y14008D03*
X11280Y14348D03*
X10030Y13888D03*
X10025Y13883D03*
X10020Y13438D03*
X10025Y13433D03*
X10030Y13428D03*
X10035Y13423D03*
X10060Y13398D03*
X10070Y13383D03*
X10120Y12948D03*
X10125Y12943D03*
X10130Y12938D03*
D84*
X11090Y12833D03*
X11160Y13238D03*
X11160Y13243D03*
X11160Y13248D03*
X11015Y13503D03*
X11015Y13508D03*
X11565Y13618D03*
X11730Y13583D03*
X11730Y13578D03*
X11405Y14188D03*
X11285Y14313D03*
D85*
X11910Y12838D03*
D86*
X10552Y12838D03*
D87*
X11095Y12843D03*
X11160Y13258D03*
X11025Y13473D03*
X11025Y13478D03*
X11020Y13488D03*
X11565Y13608D03*
X11725Y13593D03*
X11785Y13123D03*
X11405Y14173D03*
X11405Y14178D03*
X11870Y14428D03*
D88*
X10305Y14038D03*
X10785Y12843D03*
D89*
X11935Y12848D03*
D90*
X11785Y13138D03*
X11300Y12993D03*
X11285Y12983D03*
X11265Y12968D03*
X11250Y12958D03*
X11245Y12953D03*
X11235Y12948D03*
X11180Y12908D03*
X11165Y12898D03*
X11100Y12848D03*
X11155Y13273D03*
X11030Y13453D03*
X11030Y13458D03*
X11725Y13603D03*
X11725Y13608D03*
X11405Y14163D03*
X11405Y14168D03*
X11685Y14553D03*
X12245Y14218D03*
D91*
X12327Y14188D03*
X12267Y12928D03*
X10797Y12848D03*
D92*
X11942Y12853D03*
X10922Y14448D03*
D93*
X11040Y13428D03*
X11040Y13423D03*
X11155Y13293D03*
X11155Y13288D03*
X11155Y13283D03*
X11285Y13113D03*
X11370Y13043D03*
X11225Y12943D03*
X11220Y12938D03*
X11205Y12928D03*
X11100Y12853D03*
X10840Y12893D03*
X11785Y13148D03*
X11720Y13623D03*
D94*
X11270Y14373D03*
X10655Y14398D03*
X10175Y13978D03*
X10270Y12853D03*
D95*
X11102Y12858D03*
X11377Y13053D03*
X11152Y13298D03*
X11042Y13413D03*
X11042Y13418D03*
X11562Y13583D03*
X11722Y13628D03*
X11407Y14143D03*
X11407Y14148D03*
X11282Y14323D03*
X11857Y14433D03*
X11782Y13158D03*
X11782Y13153D03*
D96*
X11347Y13083D03*
X10257Y12858D03*
X10637Y14393D03*
D97*
X11960Y12863D03*
D98*
X11757Y12943D03*
X11782Y13168D03*
X11152Y13308D03*
X11052Y13388D03*
X11047Y13398D03*
X11107Y12863D03*
X10837Y12888D03*
X11717Y13643D03*
X11717Y13648D03*
X11412Y14128D03*
X11282Y14328D03*
D99*
X10922Y14443D03*
X11967Y12868D03*
D100*
X11785Y13173D03*
X11560Y13563D03*
X11560Y13568D03*
X11715Y13653D03*
X11110Y12868D03*
D101*
X10232Y12868D03*
X10352Y14073D03*
X10617Y14383D03*
X10922Y14513D03*
X12312Y14198D03*
X12567Y14078D03*
X12562Y13463D03*
X12552Y13458D03*
X12547Y13453D03*
X12542Y13448D03*
D102*
X11782Y13178D03*
X11112Y12873D03*
D103*
X10827Y12873D03*
X11312Y13103D03*
X11767Y12933D03*
X12427Y13028D03*
X12432Y13033D03*
X12437Y13038D03*
X12682Y13993D03*
X10922Y14518D03*
X10502Y14303D03*
X10497Y14298D03*
X10492Y14293D03*
X10487Y14288D03*
X10022Y13878D03*
X10017Y13873D03*
X10012Y13868D03*
X10017Y13443D03*
X10072Y13378D03*
X10112Y12953D03*
D104*
X11985Y12878D03*
X11990Y12883D03*
D105*
X11762Y12938D03*
X11117Y12878D03*
X10037Y13073D03*
X10032Y13083D03*
X10032Y13088D03*
X10032Y13093D03*
X10027Y13103D03*
X10027Y13108D03*
X10027Y13113D03*
X10022Y13123D03*
X10022Y13128D03*
X10022Y13133D03*
X10022Y13138D03*
X10022Y13143D03*
X10017Y13183D03*
X10017Y13188D03*
X10017Y13193D03*
X10022Y13213D03*
X10022Y13218D03*
X10022Y13223D03*
X10022Y13228D03*
X10022Y13233D03*
X10027Y13238D03*
X10027Y13243D03*
X10027Y13248D03*
X10027Y13253D03*
X10032Y13258D03*
X10032Y13263D03*
X10037Y13278D03*
X9947Y13548D03*
X9942Y13563D03*
X9937Y13573D03*
X9937Y13578D03*
X9937Y13583D03*
X9932Y13593D03*
X9932Y13598D03*
X9932Y13603D03*
X9932Y13608D03*
X9927Y13623D03*
X9927Y13628D03*
X9927Y13633D03*
X9927Y13638D03*
X9927Y13643D03*
X9927Y13648D03*
X9927Y13653D03*
X9927Y13658D03*
X9927Y13663D03*
X9927Y13668D03*
X9927Y13673D03*
X9927Y13678D03*
X9927Y13683D03*
X9927Y13688D03*
X9932Y13708D03*
X9932Y13713D03*
X9932Y13718D03*
X9932Y13723D03*
X9937Y13728D03*
X9937Y13733D03*
X9937Y13738D03*
X9942Y13748D03*
X9942Y13753D03*
X10402Y14098D03*
X10402Y14103D03*
X10402Y14108D03*
X10407Y14123D03*
X10407Y14128D03*
X10407Y14133D03*
X10407Y14138D03*
X10412Y14148D03*
X10412Y14153D03*
X10412Y14158D03*
X10417Y14168D03*
X10422Y14183D03*
X12507Y13348D03*
X12512Y13338D03*
X12512Y13333D03*
X12512Y13328D03*
X12517Y13318D03*
X12517Y13313D03*
X12517Y13308D03*
X12517Y13303D03*
X12522Y13293D03*
X12522Y13288D03*
X12522Y13283D03*
X12522Y13278D03*
X12522Y13273D03*
X12522Y13268D03*
X12522Y13263D03*
X12522Y13258D03*
X12522Y13253D03*
X12522Y13248D03*
X12522Y13243D03*
X12522Y13238D03*
X12522Y13233D03*
X12522Y13228D03*
X12522Y13223D03*
X12522Y13218D03*
X12522Y13213D03*
X12517Y13198D03*
X12517Y13193D03*
X12517Y13188D03*
X12517Y13183D03*
X12512Y13178D03*
X12512Y13173D03*
X12512Y13168D03*
X12507Y13158D03*
X12762Y13678D03*
X12767Y13693D03*
X12767Y13698D03*
X12767Y13703D03*
X12772Y13708D03*
X12772Y13713D03*
X12772Y13718D03*
X12772Y13723D03*
X12777Y13733D03*
X12777Y13738D03*
X12777Y13743D03*
X12777Y13748D03*
X12777Y13753D03*
X12777Y13758D03*
X12777Y13763D03*
X12777Y13768D03*
X12777Y13773D03*
X12777Y13778D03*
X12777Y13783D03*
X12777Y13788D03*
X12777Y13793D03*
X12777Y13798D03*
X12777Y13803D03*
X12777Y13808D03*
X12772Y13823D03*
X12772Y13828D03*
X12772Y13833D03*
X12772Y13838D03*
X12767Y13843D03*
X12767Y13848D03*
X12767Y13853D03*
X12762Y13863D03*
X12762Y13868D03*
D106*
X12752Y13893D03*
X12747Y13903D03*
X12742Y13913D03*
X12737Y13923D03*
X12732Y13933D03*
X12752Y13653D03*
X12747Y13643D03*
X12742Y13633D03*
X12737Y13623D03*
X12732Y13613D03*
X12492Y13383D03*
X12497Y13373D03*
X12492Y13118D03*
X12487Y13108D03*
X12482Y13103D03*
X12477Y13093D03*
X10832Y12878D03*
X10067Y13013D03*
X10062Y13018D03*
X10062Y13023D03*
X10057Y13028D03*
X10052Y13038D03*
X10047Y13048D03*
X10047Y13303D03*
X10052Y13313D03*
X10057Y13323D03*
X10062Y13328D03*
X10067Y13338D03*
X10077Y13358D03*
X9972Y13498D03*
X9967Y13508D03*
X9962Y13513D03*
X9962Y13518D03*
X9957Y13788D03*
X9962Y13798D03*
X9967Y13803D03*
X9967Y13808D03*
X9972Y13813D03*
X9977Y13823D03*
X10437Y14213D03*
X10437Y14218D03*
X10442Y14223D03*
X10442Y14228D03*
X10447Y14233D03*
X11282Y14338D03*
D107*
X10435Y14208D03*
X10430Y14203D03*
X10430Y14198D03*
X10425Y14193D03*
X10425Y14188D03*
X10420Y14178D03*
X10420Y14173D03*
X10415Y14163D03*
X9960Y13793D03*
X9955Y13783D03*
X9955Y13778D03*
X9950Y13773D03*
X9950Y13768D03*
X9945Y13763D03*
X9945Y13758D03*
X9940Y13743D03*
X9935Y13588D03*
X9940Y13568D03*
X9945Y13558D03*
X9945Y13553D03*
X9950Y13543D03*
X9950Y13538D03*
X9955Y13533D03*
X9955Y13528D03*
X9960Y13523D03*
X10055Y13318D03*
X10050Y13308D03*
X10045Y13298D03*
X10045Y13293D03*
X10040Y13288D03*
X10040Y13283D03*
X10035Y13273D03*
X10035Y13268D03*
X10030Y13098D03*
X10035Y13078D03*
X10040Y13068D03*
X10040Y13063D03*
X10045Y13058D03*
X10045Y13053D03*
X10050Y13043D03*
X10055Y13033D03*
X11120Y12883D03*
X11370Y13058D03*
X12490Y13113D03*
X12495Y13123D03*
X12495Y13128D03*
X12500Y13133D03*
X12500Y13138D03*
X12505Y13143D03*
X12505Y13148D03*
X12505Y13153D03*
X12510Y13163D03*
X12515Y13323D03*
X12510Y13343D03*
X12505Y13353D03*
X12505Y13358D03*
X12500Y13363D03*
X12500Y13368D03*
X12495Y13378D03*
X12490Y13388D03*
X12740Y13628D03*
X12745Y13638D03*
X12750Y13648D03*
X12755Y13658D03*
X12755Y13663D03*
X12760Y13668D03*
X12760Y13673D03*
X12765Y13683D03*
X12765Y13688D03*
X12765Y13858D03*
X12760Y13873D03*
X12760Y13878D03*
X12755Y13883D03*
X12755Y13888D03*
X12750Y13898D03*
X12745Y13908D03*
X12740Y13918D03*
D108*
X12775Y13818D03*
X12775Y13813D03*
X12775Y13728D03*
X12520Y13298D03*
X12520Y13208D03*
X12520Y13203D03*
X11300Y13108D03*
X10835Y12883D03*
X10025Y13118D03*
X10020Y13148D03*
X10020Y13153D03*
X10020Y13158D03*
X10020Y13163D03*
X10020Y13168D03*
X10020Y13173D03*
X10020Y13178D03*
X10020Y13198D03*
X10020Y13203D03*
X10020Y13208D03*
X9930Y13613D03*
X9930Y13618D03*
X9930Y13693D03*
X9930Y13698D03*
X9930Y13703D03*
X10405Y14113D03*
X10405Y14118D03*
X10410Y14143D03*
X11280Y14333D03*
X11845Y14438D03*
D109*
X10922Y14438D03*
X11997Y12888D03*
D110*
X11785Y12923D03*
X11350Y13068D03*
X12345Y12963D03*
X12515Y13423D03*
X12605Y13488D03*
X12605Y14058D03*
X12300Y14203D03*
X11275Y14358D03*
X10195Y12888D03*
D111*
X10092Y12978D03*
X10087Y12983D03*
X10082Y12988D03*
X10002Y13458D03*
X9997Y13463D03*
X9992Y13468D03*
X9992Y13473D03*
X9987Y13478D03*
X9982Y13483D03*
X9987Y13838D03*
X9992Y13843D03*
X9997Y13848D03*
X9997Y13853D03*
X10467Y14263D03*
X10472Y14268D03*
X12277Y14213D03*
X12702Y13973D03*
X12707Y13968D03*
X12712Y13963D03*
X12717Y13953D03*
X12717Y13593D03*
X12712Y13583D03*
X12707Y13578D03*
X12702Y13573D03*
X12462Y13068D03*
X12457Y13063D03*
X12452Y13058D03*
X11127Y12893D03*
D112*
X10842Y12898D03*
X11157Y13263D03*
X11157Y13268D03*
X11027Y13463D03*
X11027Y13468D03*
X11562Y13598D03*
X11562Y13603D03*
X11727Y13598D03*
X11782Y13133D03*
X11782Y13128D03*
X11282Y14318D03*
D113*
X11400Y14203D03*
X11880Y14423D03*
X12190Y14108D03*
X11675Y13673D03*
X11680Y13663D03*
X11565Y13628D03*
X11565Y13623D03*
X11525Y13558D03*
X11525Y13553D03*
X11520Y13548D03*
X11515Y13543D03*
X11515Y13538D03*
X11510Y13533D03*
X11510Y13528D03*
X11505Y13523D03*
X11500Y13513D03*
X11495Y13508D03*
X11495Y13503D03*
X11490Y13498D03*
X11485Y13488D03*
X11480Y13483D03*
X11480Y13478D03*
X11475Y13473D03*
X11470Y13463D03*
X11465Y13453D03*
X11460Y13448D03*
X11455Y13438D03*
X11450Y13428D03*
X11440Y13413D03*
X11435Y13403D03*
X11425Y13388D03*
X11420Y13378D03*
X11415Y13368D03*
X11160Y13233D03*
X11160Y13228D03*
X11010Y13523D03*
X11010Y13528D03*
X11005Y13533D03*
X11005Y13538D03*
X11785Y13108D03*
X10840Y12903D03*
D114*
X12022Y12908D03*
D115*
X12030Y12913D03*
D116*
X12227Y12918D03*
X12347Y14173D03*
D117*
X10670Y14403D03*
X10325Y14053D03*
X12255Y12923D03*
D118*
X12440Y13043D03*
X12445Y13048D03*
X12450Y13053D03*
X12495Y13398D03*
X12685Y13553D03*
X12690Y13558D03*
X12695Y13563D03*
X12700Y13568D03*
X12700Y13978D03*
X12695Y13983D03*
X12690Y13988D03*
X11280Y14343D03*
X10485Y14283D03*
X10480Y14278D03*
X10475Y14273D03*
X10010Y13863D03*
X10005Y13858D03*
X10005Y13453D03*
X10010Y13448D03*
X10075Y13373D03*
X10095Y12973D03*
X10100Y12968D03*
X10105Y12963D03*
X10110Y12958D03*
D119*
X11170Y13123D03*
X11790Y13023D03*
X11750Y13468D03*
X11750Y13473D03*
X10955Y13698D03*
X10955Y13703D03*
X11285Y14303D03*
D120*
X11387Y14293D03*
X11387Y14288D03*
X11572Y13698D03*
X11572Y13693D03*
X11747Y13478D03*
X11787Y13028D03*
X11172Y13128D03*
X11172Y13133D03*
X10957Y13688D03*
X10957Y13693D03*
D121*
X10960Y13683D03*
X10960Y13678D03*
X11570Y13688D03*
X11750Y13483D03*
X11790Y13033D03*
X11170Y13138D03*
X11170Y13143D03*
X11390Y14278D03*
X11390Y14283D03*
X10925Y14523D03*
D122*
X10962Y13673D03*
X10962Y13668D03*
X10967Y13663D03*
X10967Y13658D03*
X11572Y13683D03*
X11747Y13493D03*
X11747Y13488D03*
X11787Y13043D03*
X11787Y13038D03*
D123*
X11787Y13053D03*
X11787Y13058D03*
X11742Y13508D03*
X11167Y13168D03*
X11167Y13163D03*
X11167Y13158D03*
X10972Y13638D03*
X10972Y13643D03*
X11392Y14258D03*
X11392Y14263D03*
D124*
X11410Y14138D03*
X11410Y14133D03*
X11720Y13638D03*
X11720Y13633D03*
X11560Y13578D03*
X11560Y13573D03*
X11155Y13303D03*
X11050Y13393D03*
X11045Y13403D03*
X11045Y13408D03*
X11785Y13163D03*
D125*
X11740Y13528D03*
X11740Y13533D03*
X11570Y13658D03*
X10985Y13603D03*
X10985Y13598D03*
X11165Y13188D03*
X11165Y13183D03*
X11395Y14238D03*
X11395Y14243D03*
D126*
X10272Y14013D03*
X10257Y14003D03*
X10247Y13998D03*
D127*
X10265Y14008D03*
X12360Y14163D03*
D128*
X11262Y14388D03*
X10922Y14503D03*
X10297Y14033D03*
D129*
X10312Y14043D03*
X10687Y14408D03*
X12342Y14178D03*
D130*
X12400Y14113D03*
X11690Y14518D03*
D131*
X12397Y14118D03*
D132*
X12387Y14128D03*
X10922Y14488D03*
D133*
X12385Y14133D03*
D134*
X12337Y14183D03*
D135*
X11257Y14393D03*
D136*
X11255Y14398D03*
D137*
X11247Y14403D03*
X11707Y14528D03*
D138*
X11237Y14408D03*
X10922Y14483D03*
D139*
X11015Y14413D03*
D140*
X11025Y14418D03*
D141*
X11037Y14423D03*
D142*
X11052Y14428D03*
D143*
X11070Y14433D03*
D144*
X11610Y14448D03*
X11615Y14453D03*
D145*
X10922Y14453D03*
D146*
X11620Y14458D03*
D147*
X10922Y14458D03*
D148*
X10922Y14463D03*
X11627Y14468D03*
D149*
X11637Y14478D03*
X10922Y14468D03*
D150*
X10922Y14473D03*
D151*
X10920Y14478D03*
D152*
X11645Y14483D03*
D153*
X11660Y14498D03*
D154*
X10920Y14498D03*
D155*
X11667Y14503D03*
D156*
X11682Y14513D03*
D157*
X11717Y14533D03*
D158*
X6513Y8291D02*
X6532Y8101D01*
X6596Y8080D01*
X6656Y8049D01*
X6804Y8170D01*
X6906Y8069D01*
X6785Y7920D01*
X6816Y7860D01*
X6836Y7796D01*
X7027Y7777D01*
X7027Y7633D01*
X6836Y7614D01*
X6816Y7550D01*
X6785Y7490D01*
X6906Y7341D01*
X6804Y7240D01*
X6656Y7361D01*
X6596Y7330D01*
X6511Y7534D01*
X6549Y7556D01*
X6581Y7585D01*
X6605Y7621D01*
X6620Y7662D01*
X6625Y7705D01*
X6620Y7749D01*
X6604Y7790D01*
X6579Y7827D01*
X6546Y7856D01*
X6507Y7877D01*
X6465Y7888D01*
X6421Y7888D01*
X6377Y7878D01*
X6338Y7858D01*
X6305Y7830D01*
X6279Y7794D01*
X6262Y7753D01*
X6256Y7709D01*
X6260Y7665D01*
X6275Y7623D01*
X6299Y7586D01*
X6331Y7556D01*
X6370Y7534D01*
X6285Y7330D01*
X6225Y7361D01*
X6077Y7240D01*
X5975Y7341D01*
X6096Y7490D01*
X6065Y7550D01*
X6045Y7614D01*
X5854Y7633D01*
X5854Y7777D01*
X6045Y7796D01*
X6065Y7860D01*
X6096Y7920D01*
X5975Y8069D01*
X6077Y8170D01*
X6225Y8049D01*
X6285Y8080D01*
X6349Y8101D01*
X6369Y8291D01*
X6513Y8291D01*
X6514Y8277D02*
X6367Y8277D01*
X6361Y8220D02*
X6520Y8220D01*
X6526Y8162D02*
X6356Y8162D01*
X6350Y8105D02*
X6532Y8105D01*
X6724Y8105D02*
X6870Y8105D01*
X6888Y8047D02*
X5993Y8047D01*
X6011Y8105D02*
X6158Y8105D01*
X6087Y8162D02*
X6069Y8162D01*
X6040Y7990D02*
X6841Y7990D01*
X6795Y7932D02*
X6087Y7932D01*
X6073Y7874D02*
X6370Y7874D01*
X6295Y7817D02*
X6052Y7817D01*
X5854Y7759D02*
X6265Y7759D01*
X6257Y7702D02*
X5854Y7702D01*
X5854Y7644D02*
X6268Y7644D01*
X6299Y7587D02*
X6054Y7587D01*
X6076Y7529D02*
X6368Y7529D01*
X6344Y7472D02*
X6081Y7472D01*
X6034Y7414D02*
X6320Y7414D01*
X6296Y7356D02*
X6234Y7356D01*
X6220Y7356D02*
X5987Y7356D01*
X6018Y7299D02*
X6150Y7299D01*
X6079Y7241D02*
X6075Y7241D01*
X6561Y7414D02*
X6847Y7414D01*
X6894Y7356D02*
X6661Y7356D01*
X6647Y7356D02*
X6585Y7356D01*
X6537Y7472D02*
X6800Y7472D01*
X6805Y7529D02*
X6513Y7529D01*
X6582Y7587D02*
X6828Y7587D01*
X7027Y7644D02*
X6614Y7644D01*
X6625Y7702D02*
X7027Y7702D01*
X7027Y7759D02*
X6616Y7759D01*
X6586Y7817D02*
X6830Y7817D01*
X6808Y7874D02*
X6512Y7874D01*
X6794Y8162D02*
X6812Y8162D01*
X6863Y7299D02*
X6732Y7299D01*
X6802Y7241D02*
X6806Y7241D01*
D159*
X4794Y16789D02*
X4885Y16789D01*
X4930Y16834D01*
X4749Y17014D01*
X4749Y16834D01*
X4794Y16789D01*
X4930Y16834D02*
X4930Y17014D01*
X4885Y17059D01*
X4794Y17059D01*
X4749Y17014D01*
X5032Y16834D02*
X5032Y16789D01*
X5077Y16789D01*
X5077Y16834D01*
X5032Y16834D01*
X5191Y16834D02*
X5236Y16789D01*
X5327Y16789D01*
X5372Y16834D01*
X5282Y16924D02*
X5236Y16924D01*
X5191Y16879D01*
X5191Y16834D01*
X5236Y16924D02*
X5191Y16969D01*
X5191Y17014D01*
X5236Y17059D01*
X5327Y17059D01*
X5372Y17014D01*
X5781Y16969D02*
X5781Y16789D01*
X5781Y16924D02*
X5961Y16924D01*
X5961Y16969D02*
X5961Y16789D01*
X6075Y16834D02*
X6120Y16789D01*
X6211Y16789D01*
X6256Y16834D01*
X6211Y16924D02*
X6120Y16924D01*
X6075Y16879D01*
X6075Y16834D01*
X6211Y16924D02*
X6256Y16969D01*
X6256Y17014D01*
X6211Y17059D01*
X6120Y17059D01*
X6075Y17014D01*
X5961Y16969D02*
X5871Y17059D01*
X5781Y16969D01*
X6370Y16924D02*
X6550Y16924D01*
X6665Y17014D02*
X6665Y17059D01*
X6665Y17014D02*
X6755Y16924D01*
X6755Y16789D01*
X6755Y16924D02*
X6845Y17014D01*
X6845Y17059D01*
X6959Y17014D02*
X6959Y16969D01*
X7004Y16924D01*
X7140Y16924D01*
X7140Y16789D02*
X7004Y16789D01*
X6959Y16834D01*
X6959Y16879D01*
X7004Y16924D01*
X6959Y17014D02*
X7004Y17059D01*
X7140Y17059D01*
X7140Y16789D01*
X7549Y16834D02*
X7594Y16789D01*
X7684Y16789D01*
X7729Y16834D01*
X7729Y17014D01*
X7684Y17059D01*
X7594Y17059D01*
X7549Y17014D01*
X7843Y17014D02*
X7888Y17059D01*
X7978Y17059D01*
X8023Y17014D01*
X8023Y16834D01*
X7978Y16789D01*
X7888Y16789D01*
X7843Y16834D01*
X3450Y19918D02*
X3360Y19828D01*
X3270Y19918D01*
X3270Y20098D01*
X3156Y20053D02*
X3156Y19873D01*
X3111Y19828D01*
X3021Y19828D01*
X2976Y19873D01*
X2861Y19873D02*
X2861Y20053D01*
X2816Y20098D01*
X2726Y20098D01*
X2681Y20053D01*
X2681Y19873D02*
X2726Y19828D01*
X2816Y19828D01*
X2861Y19873D01*
X2976Y20053D02*
X3021Y20098D01*
X3111Y20098D01*
X3156Y20053D01*
X3450Y20098D02*
X3450Y19918D01*
X3156Y20828D02*
X3021Y20828D01*
X2976Y20873D01*
X2976Y21053D01*
X3021Y21098D01*
X3156Y21098D01*
X3156Y20828D01*
X2861Y20873D02*
X2861Y21053D01*
X2816Y21098D01*
X2726Y21098D01*
X2681Y21053D01*
X2681Y20873D01*
X2726Y20828D01*
X2816Y20828D01*
X2861Y20873D01*
X2771Y20918D02*
X2681Y20828D01*
X2726Y21778D02*
X2681Y21823D01*
X2681Y22003D01*
X2726Y22048D01*
X2861Y22048D01*
X2861Y21778D01*
X2726Y21778D01*
X2976Y21778D02*
X2976Y22048D01*
X3156Y22048D02*
X2976Y21778D01*
X3156Y21778D02*
X3156Y22048D01*
X3270Y22003D02*
X3315Y22048D01*
X3405Y22048D01*
X3450Y22003D01*
X3450Y21823D01*
X3405Y21778D01*
X3315Y21778D01*
X3270Y21823D01*
X3270Y21913D01*
X3360Y21913D01*
X4931Y25154D02*
X4886Y25199D01*
X4931Y25154D02*
X5021Y25154D01*
X5066Y25199D01*
X5066Y25379D01*
X5021Y25424D01*
X4931Y25424D01*
X4886Y25379D01*
X5180Y25379D02*
X5225Y25424D01*
X5315Y25424D01*
X5360Y25379D01*
X5360Y25199D01*
X5315Y25154D01*
X5225Y25154D01*
X5180Y25199D01*
X5475Y25244D02*
X5475Y25424D01*
X5475Y25244D02*
X5565Y25154D01*
X5655Y25244D01*
X5655Y25424D01*
X5787Y25369D02*
X5787Y25324D01*
X5832Y25279D01*
X5787Y25234D01*
X5787Y25189D01*
X5832Y25144D01*
X5922Y25144D01*
X5967Y25189D01*
X6082Y25144D02*
X6262Y25144D01*
X6172Y25144D02*
X6172Y25414D01*
X6262Y25324D01*
X6376Y25369D02*
X6376Y25279D01*
X6422Y25234D01*
X6557Y25234D01*
X6557Y25144D02*
X6557Y25414D01*
X6422Y25414D01*
X6376Y25369D01*
X6789Y25279D02*
X6969Y25279D01*
X6834Y25414D01*
X6834Y25144D01*
X7083Y25144D02*
X7264Y25144D01*
X7173Y25144D02*
X7173Y25414D01*
X7264Y25324D01*
X7378Y25279D02*
X7423Y25234D01*
X7558Y25234D01*
X7558Y25144D02*
X7558Y25414D01*
X7423Y25414D01*
X7378Y25369D01*
X7378Y25279D01*
X7887Y25199D02*
X7887Y25379D01*
X7932Y25424D01*
X8067Y25424D01*
X8067Y25154D01*
X7932Y25154D01*
X7887Y25199D01*
X8182Y25154D02*
X8182Y25424D01*
X8362Y25424D02*
X8182Y25154D01*
X8362Y25154D02*
X8362Y25424D01*
X8476Y25379D02*
X8522Y25424D01*
X8612Y25424D01*
X8657Y25379D01*
X8657Y25199D01*
X8612Y25154D01*
X8522Y25154D01*
X8476Y25199D01*
X8476Y25289D01*
X8567Y25289D01*
X5967Y25369D02*
X5922Y25414D01*
X5832Y25414D01*
X5787Y25369D01*
X5832Y25279D02*
X5877Y25279D01*
X13631Y16648D02*
X13811Y16648D01*
X13721Y16648D02*
X13721Y16378D01*
X13926Y16423D02*
X13971Y16378D01*
X14061Y16378D01*
X14106Y16423D01*
X14061Y16513D02*
X14106Y16558D01*
X14106Y16603D01*
X14061Y16648D01*
X13971Y16648D01*
X13926Y16603D01*
X13971Y16513D02*
X13926Y16468D01*
X13926Y16423D01*
X13971Y16513D02*
X14061Y16513D01*
X14220Y16648D02*
X14400Y16648D01*
X14310Y16648D02*
X14310Y16378D01*
X14681Y16648D02*
X14861Y16648D01*
X14771Y16648D02*
X14771Y16378D01*
X14976Y16423D02*
X15021Y16378D01*
X15111Y16378D01*
X15156Y16423D01*
X15111Y16513D02*
X15021Y16513D01*
X14976Y16468D01*
X14976Y16423D01*
X15111Y16513D02*
X15156Y16558D01*
X15156Y16603D01*
X15111Y16648D01*
X15021Y16648D01*
X14976Y16603D01*
X15270Y16603D02*
X15270Y16513D01*
X15315Y16468D01*
X15450Y16468D01*
X15360Y16468D02*
X15270Y16378D01*
X15450Y16378D02*
X15450Y16648D01*
X15315Y16648D01*
X15270Y16603D01*
X15681Y16603D02*
X15681Y16423D01*
X15726Y16378D01*
X15861Y16378D01*
X15861Y16648D01*
X15726Y16648D01*
X15681Y16603D01*
X15976Y16648D02*
X16156Y16378D01*
X16270Y16378D02*
X16360Y16468D01*
X16315Y16468D02*
X16450Y16468D01*
X16450Y16378D02*
X16450Y16648D01*
X16315Y16648D01*
X16270Y16603D01*
X16270Y16513D01*
X16315Y16468D01*
X16156Y16648D02*
X15976Y16378D01*
X16631Y16423D02*
X16631Y16603D01*
X16676Y16648D01*
X16811Y16648D01*
X16811Y16378D01*
X16676Y16378D01*
X16631Y16423D01*
X16926Y16378D02*
X17106Y16648D01*
X17220Y16648D02*
X17400Y16648D01*
X17310Y16648D02*
X17310Y16378D01*
X17106Y16378D02*
X16926Y16648D01*
X17631Y16603D02*
X17676Y16648D01*
X17766Y16648D01*
X17811Y16603D01*
X17811Y16423D01*
X17766Y16378D01*
X17676Y16378D01*
X17631Y16423D01*
X17926Y16423D02*
X17971Y16378D01*
X18061Y16378D01*
X18106Y16423D01*
X18106Y16603D01*
X18061Y16648D01*
X17971Y16648D01*
X17926Y16603D01*
X18220Y16648D02*
X18220Y16468D01*
X18310Y16378D01*
X18400Y16468D01*
X18400Y16648D01*
X18631Y16603D02*
X18631Y16423D01*
X18676Y16378D01*
X18811Y16378D01*
X18811Y16648D01*
X18676Y16648D01*
X18631Y16603D01*
X18926Y16648D02*
X18926Y16378D01*
X19106Y16648D01*
X19106Y16378D01*
X19220Y16423D02*
X19220Y16513D01*
X19310Y16513D01*
X19220Y16603D02*
X19265Y16648D01*
X19355Y16648D01*
X19400Y16603D01*
X19400Y16423D01*
X19355Y16378D01*
X19265Y16378D01*
X19220Y16423D01*
X20051Y18504D02*
X20006Y18549D01*
X20006Y18729D01*
X20051Y18774D01*
X20187Y18774D01*
X20187Y18504D01*
X20051Y18504D01*
X20301Y18504D02*
X20301Y18774D01*
X20481Y18774D02*
X20301Y18504D01*
X20481Y18504D02*
X20481Y18774D01*
X20596Y18729D02*
X20641Y18774D01*
X20731Y18774D01*
X20776Y18729D01*
X20776Y18549D01*
X20731Y18504D01*
X20641Y18504D01*
X20596Y18549D01*
X20596Y18639D01*
X20686Y18639D01*
D160*
X21583Y17451D02*
X21581Y17379D01*
X21575Y17307D01*
X21566Y17235D01*
X21553Y17164D01*
X21536Y17094D01*
X21516Y17025D01*
X21491Y16957D01*
X21464Y16891D01*
X21433Y16825D01*
X21398Y16762D01*
X21361Y16700D01*
X21320Y16641D01*
X21276Y16584D01*
X21229Y16529D01*
X21179Y16477D01*
X21127Y16427D01*
X21072Y16380D01*
X21015Y16336D01*
X20956Y16295D01*
X20894Y16258D01*
X20831Y16223D01*
X20765Y16192D01*
X20699Y16165D01*
X20631Y16140D01*
X20562Y16120D01*
X20492Y16103D01*
X20421Y16090D01*
X20349Y16081D01*
X20277Y16075D01*
X20205Y16073D01*
X20208Y16073D01*
X20205Y16073D02*
X3669Y16073D01*
X3666Y16073D01*
X3016Y17447D02*
X3018Y17497D01*
X3024Y17547D01*
X3034Y17597D01*
X3047Y17645D01*
X3064Y17693D01*
X3085Y17739D01*
X3109Y17783D01*
X3137Y17825D01*
X3168Y17865D01*
X3202Y17902D01*
X3239Y17937D01*
X3278Y17968D01*
X3319Y17997D01*
X3363Y18022D01*
X3409Y18044D01*
X3456Y18062D01*
X3504Y18076D01*
X3553Y18087D01*
X3603Y18094D01*
X3653Y18097D01*
X3704Y18096D01*
X3754Y18091D01*
X3804Y18082D01*
X3852Y18070D01*
X3900Y18053D01*
X3946Y18033D01*
X3991Y18010D01*
X4034Y17983D01*
X4074Y17953D01*
X4112Y17920D01*
X4147Y17884D01*
X4180Y17845D01*
X4209Y17804D01*
X4235Y17761D01*
X4258Y17716D01*
X4277Y17669D01*
X4292Y17621D01*
X4304Y17572D01*
X4312Y17522D01*
X4316Y17472D01*
X4316Y17422D01*
X4312Y17372D01*
X4304Y17322D01*
X4292Y17273D01*
X4277Y17225D01*
X4258Y17178D01*
X4235Y17133D01*
X4209Y17090D01*
X4180Y17049D01*
X4147Y17010D01*
X4112Y16974D01*
X4074Y16941D01*
X4034Y16911D01*
X3991Y16884D01*
X3946Y16861D01*
X3900Y16841D01*
X3852Y16824D01*
X3804Y16812D01*
X3754Y16803D01*
X3704Y16798D01*
X3653Y16797D01*
X3603Y16800D01*
X3553Y16807D01*
X3504Y16818D01*
X3456Y16832D01*
X3409Y16850D01*
X3363Y16872D01*
X3319Y16897D01*
X3278Y16926D01*
X3239Y16957D01*
X3202Y16992D01*
X3168Y17029D01*
X3137Y17069D01*
X3109Y17111D01*
X3085Y17155D01*
X3064Y17201D01*
X3047Y17249D01*
X3034Y17297D01*
X3024Y17347D01*
X3018Y17397D01*
X3016Y17447D01*
X2291Y17490D02*
X2292Y17417D01*
X2297Y17343D01*
X2305Y17271D01*
X2318Y17199D01*
X2334Y17127D01*
X2353Y17057D01*
X2377Y16987D01*
X2404Y16919D01*
X2435Y16853D01*
X2469Y16788D01*
X2506Y16725D01*
X2547Y16664D01*
X2590Y16606D01*
X2637Y16549D01*
X2687Y16495D01*
X2739Y16444D01*
X2794Y16396D01*
X2851Y16351D01*
X2911Y16308D01*
X2973Y16269D01*
X3037Y16233D01*
X3102Y16201D01*
X3170Y16172D01*
X3238Y16147D01*
X3308Y16125D01*
X3379Y16107D01*
X3451Y16092D01*
X3523Y16082D01*
X3596Y16075D01*
X3669Y16072D01*
X2291Y17447D02*
X2291Y17490D01*
X2291Y24340D01*
X2291Y24344D01*
X3016Y24344D02*
X3018Y24394D01*
X3024Y24444D01*
X3034Y24494D01*
X3047Y24542D01*
X3064Y24590D01*
X3085Y24636D01*
X3109Y24680D01*
X3137Y24722D01*
X3168Y24762D01*
X3202Y24799D01*
X3239Y24834D01*
X3278Y24865D01*
X3319Y24894D01*
X3363Y24919D01*
X3409Y24941D01*
X3456Y24959D01*
X3504Y24973D01*
X3553Y24984D01*
X3603Y24991D01*
X3653Y24994D01*
X3704Y24993D01*
X3754Y24988D01*
X3804Y24979D01*
X3852Y24967D01*
X3900Y24950D01*
X3946Y24930D01*
X3991Y24907D01*
X4034Y24880D01*
X4074Y24850D01*
X4112Y24817D01*
X4147Y24781D01*
X4180Y24742D01*
X4209Y24701D01*
X4235Y24658D01*
X4258Y24613D01*
X4277Y24566D01*
X4292Y24518D01*
X4304Y24469D01*
X4312Y24419D01*
X4316Y24369D01*
X4316Y24319D01*
X4312Y24269D01*
X4304Y24219D01*
X4292Y24170D01*
X4277Y24122D01*
X4258Y24075D01*
X4235Y24030D01*
X4209Y23987D01*
X4180Y23946D01*
X4147Y23907D01*
X4112Y23871D01*
X4074Y23838D01*
X4034Y23808D01*
X3991Y23781D01*
X3946Y23758D01*
X3900Y23738D01*
X3852Y23721D01*
X3804Y23709D01*
X3754Y23700D01*
X3704Y23695D01*
X3653Y23694D01*
X3603Y23697D01*
X3553Y23704D01*
X3504Y23715D01*
X3456Y23729D01*
X3409Y23747D01*
X3363Y23769D01*
X3319Y23794D01*
X3278Y23823D01*
X3239Y23854D01*
X3202Y23889D01*
X3168Y23926D01*
X3137Y23966D01*
X3109Y24008D01*
X3085Y24052D01*
X3064Y24098D01*
X3047Y24146D01*
X3034Y24194D01*
X3024Y24244D01*
X3018Y24294D01*
X3016Y24344D01*
X2291Y24340D02*
X2293Y24412D01*
X2299Y24484D01*
X2308Y24556D01*
X2321Y24627D01*
X2338Y24697D01*
X2358Y24766D01*
X2383Y24834D01*
X2410Y24900D01*
X2441Y24966D01*
X2476Y25029D01*
X2513Y25091D01*
X2554Y25150D01*
X2598Y25207D01*
X2645Y25262D01*
X2695Y25314D01*
X2747Y25364D01*
X2802Y25411D01*
X2859Y25455D01*
X2918Y25496D01*
X2980Y25533D01*
X3043Y25568D01*
X3109Y25599D01*
X3175Y25626D01*
X3243Y25651D01*
X3312Y25671D01*
X3382Y25688D01*
X3453Y25701D01*
X3525Y25710D01*
X3597Y25716D01*
X3669Y25718D01*
X20205Y25718D01*
X19555Y24340D02*
X19557Y24390D01*
X19563Y24440D01*
X19573Y24490D01*
X19586Y24538D01*
X19603Y24586D01*
X19624Y24632D01*
X19648Y24676D01*
X19676Y24718D01*
X19707Y24758D01*
X19741Y24795D01*
X19778Y24830D01*
X19817Y24861D01*
X19858Y24890D01*
X19902Y24915D01*
X19948Y24937D01*
X19995Y24955D01*
X20043Y24969D01*
X20092Y24980D01*
X20142Y24987D01*
X20192Y24990D01*
X20243Y24989D01*
X20293Y24984D01*
X20343Y24975D01*
X20391Y24963D01*
X20439Y24946D01*
X20485Y24926D01*
X20530Y24903D01*
X20573Y24876D01*
X20613Y24846D01*
X20651Y24813D01*
X20686Y24777D01*
X20719Y24738D01*
X20748Y24697D01*
X20774Y24654D01*
X20797Y24609D01*
X20816Y24562D01*
X20831Y24514D01*
X20843Y24465D01*
X20851Y24415D01*
X20855Y24365D01*
X20855Y24315D01*
X20851Y24265D01*
X20843Y24215D01*
X20831Y24166D01*
X20816Y24118D01*
X20797Y24071D01*
X20774Y24026D01*
X20748Y23983D01*
X20719Y23942D01*
X20686Y23903D01*
X20651Y23867D01*
X20613Y23834D01*
X20573Y23804D01*
X20530Y23777D01*
X20485Y23754D01*
X20439Y23734D01*
X20391Y23717D01*
X20343Y23705D01*
X20293Y23696D01*
X20243Y23691D01*
X20192Y23690D01*
X20142Y23693D01*
X20092Y23700D01*
X20043Y23711D01*
X19995Y23725D01*
X19948Y23743D01*
X19902Y23765D01*
X19858Y23790D01*
X19817Y23819D01*
X19778Y23850D01*
X19741Y23885D01*
X19707Y23922D01*
X19676Y23962D01*
X19648Y24004D01*
X19624Y24048D01*
X19603Y24094D01*
X19586Y24142D01*
X19573Y24190D01*
X19563Y24240D01*
X19557Y24290D01*
X19555Y24340D01*
X20205Y25718D02*
X20277Y25716D01*
X20349Y25710D01*
X20421Y25701D01*
X20492Y25688D01*
X20562Y25671D01*
X20631Y25651D01*
X20699Y25626D01*
X20765Y25599D01*
X20831Y25568D01*
X20894Y25533D01*
X20956Y25496D01*
X21015Y25455D01*
X21072Y25411D01*
X21127Y25364D01*
X21179Y25314D01*
X21229Y25262D01*
X21276Y25207D01*
X21320Y25150D01*
X21361Y25091D01*
X21398Y25029D01*
X21433Y24966D01*
X21464Y24900D01*
X21491Y24834D01*
X21516Y24766D01*
X21536Y24697D01*
X21553Y24627D01*
X21566Y24556D01*
X21575Y24484D01*
X21581Y24412D01*
X21583Y24340D01*
X21583Y17451D01*
X19558Y17447D02*
X19560Y17497D01*
X19566Y17547D01*
X19576Y17597D01*
X19589Y17645D01*
X19606Y17693D01*
X19627Y17739D01*
X19651Y17783D01*
X19679Y17825D01*
X19710Y17865D01*
X19744Y17902D01*
X19781Y17937D01*
X19820Y17968D01*
X19861Y17997D01*
X19905Y18022D01*
X19951Y18044D01*
X19998Y18062D01*
X20046Y18076D01*
X20095Y18087D01*
X20145Y18094D01*
X20195Y18097D01*
X20246Y18096D01*
X20296Y18091D01*
X20346Y18082D01*
X20394Y18070D01*
X20442Y18053D01*
X20488Y18033D01*
X20533Y18010D01*
X20576Y17983D01*
X20616Y17953D01*
X20654Y17920D01*
X20689Y17884D01*
X20722Y17845D01*
X20751Y17804D01*
X20777Y17761D01*
X20800Y17716D01*
X20819Y17669D01*
X20834Y17621D01*
X20846Y17572D01*
X20854Y17522D01*
X20858Y17472D01*
X20858Y17422D01*
X20854Y17372D01*
X20846Y17322D01*
X20834Y17273D01*
X20819Y17225D01*
X20800Y17178D01*
X20777Y17133D01*
X20751Y17090D01*
X20722Y17049D01*
X20689Y17010D01*
X20654Y16974D01*
X20616Y16941D01*
X20576Y16911D01*
X20533Y16884D01*
X20488Y16861D01*
X20442Y16841D01*
X20394Y16824D01*
X20346Y16812D01*
X20296Y16803D01*
X20246Y16798D01*
X20195Y16797D01*
X20145Y16800D01*
X20095Y16807D01*
X20046Y16818D01*
X19998Y16832D01*
X19951Y16850D01*
X19905Y16872D01*
X19861Y16897D01*
X19820Y16926D01*
X19781Y16957D01*
X19744Y16992D01*
X19710Y17029D01*
X19679Y17069D01*
X19651Y17111D01*
X19627Y17155D01*
X19606Y17201D01*
X19589Y17249D01*
X19576Y17297D01*
X19566Y17347D01*
X19560Y17397D01*
X19558Y17447D01*
X5441Y20892D02*
X5443Y20922D01*
X5449Y20952D01*
X5458Y20981D01*
X5471Y21008D01*
X5488Y21033D01*
X5507Y21056D01*
X5530Y21077D01*
X5555Y21094D01*
X5581Y21108D01*
X5610Y21118D01*
X5639Y21125D01*
X5669Y21128D01*
X5700Y21127D01*
X5730Y21122D01*
X5759Y21113D01*
X5786Y21101D01*
X5812Y21086D01*
X5836Y21067D01*
X5857Y21045D01*
X5875Y21021D01*
X5890Y20994D01*
X5901Y20966D01*
X5909Y20937D01*
X5913Y20907D01*
X5913Y20877D01*
X5909Y20847D01*
X5901Y20818D01*
X5890Y20790D01*
X5875Y20763D01*
X5857Y20739D01*
X5836Y20717D01*
X5812Y20698D01*
X5786Y20683D01*
X5759Y20671D01*
X5730Y20662D01*
X5700Y20657D01*
X5669Y20656D01*
X5639Y20659D01*
X5610Y20666D01*
X5581Y20676D01*
X5555Y20690D01*
X5530Y20707D01*
X5507Y20728D01*
X5488Y20751D01*
X5471Y20776D01*
X5458Y20803D01*
X5449Y20832D01*
X5443Y20862D01*
X5441Y20892D01*
X3473Y18923D02*
X3475Y18953D01*
X3481Y18983D01*
X3490Y19012D01*
X3503Y19039D01*
X3520Y19064D01*
X3539Y19087D01*
X3562Y19108D01*
X3587Y19125D01*
X3613Y19139D01*
X3642Y19149D01*
X3671Y19156D01*
X3701Y19159D01*
X3732Y19158D01*
X3762Y19153D01*
X3791Y19144D01*
X3818Y19132D01*
X3844Y19117D01*
X3868Y19098D01*
X3889Y19076D01*
X3907Y19052D01*
X3922Y19025D01*
X3933Y18997D01*
X3941Y18968D01*
X3945Y18938D01*
X3945Y18908D01*
X3941Y18878D01*
X3933Y18849D01*
X3922Y18821D01*
X3907Y18794D01*
X3889Y18770D01*
X3868Y18748D01*
X3844Y18729D01*
X3818Y18714D01*
X3791Y18702D01*
X3762Y18693D01*
X3732Y18688D01*
X3701Y18687D01*
X3671Y18690D01*
X3642Y18697D01*
X3613Y18707D01*
X3587Y18721D01*
X3562Y18738D01*
X3539Y18759D01*
X3520Y18782D01*
X3503Y18807D01*
X3490Y18834D01*
X3481Y18863D01*
X3475Y18893D01*
X3473Y18923D01*
X2488Y18923D02*
X2490Y18953D01*
X2496Y18983D01*
X2505Y19012D01*
X2518Y19039D01*
X2535Y19064D01*
X2554Y19087D01*
X2577Y19108D01*
X2602Y19125D01*
X2628Y19139D01*
X2657Y19149D01*
X2686Y19156D01*
X2716Y19159D01*
X2747Y19158D01*
X2777Y19153D01*
X2806Y19144D01*
X2833Y19132D01*
X2859Y19117D01*
X2883Y19098D01*
X2904Y19076D01*
X2922Y19052D01*
X2937Y19025D01*
X2948Y18997D01*
X2956Y18968D01*
X2960Y18938D01*
X2960Y18908D01*
X2956Y18878D01*
X2948Y18849D01*
X2937Y18821D01*
X2922Y18794D01*
X2904Y18770D01*
X2883Y18748D01*
X2859Y18729D01*
X2833Y18714D01*
X2806Y18702D01*
X2777Y18693D01*
X2747Y18688D01*
X2716Y18687D01*
X2686Y18690D01*
X2657Y18697D01*
X2628Y18707D01*
X2602Y18721D01*
X2577Y18738D01*
X2554Y18759D01*
X2535Y18782D01*
X2518Y18807D01*
X2505Y18834D01*
X2496Y18863D01*
X2490Y18893D01*
X2488Y18923D01*
X2488Y22860D02*
X2490Y22890D01*
X2496Y22920D01*
X2505Y22949D01*
X2518Y22976D01*
X2535Y23001D01*
X2554Y23024D01*
X2577Y23045D01*
X2602Y23062D01*
X2628Y23076D01*
X2657Y23086D01*
X2686Y23093D01*
X2716Y23096D01*
X2747Y23095D01*
X2777Y23090D01*
X2806Y23081D01*
X2833Y23069D01*
X2859Y23054D01*
X2883Y23035D01*
X2904Y23013D01*
X2922Y22989D01*
X2937Y22962D01*
X2948Y22934D01*
X2956Y22905D01*
X2960Y22875D01*
X2960Y22845D01*
X2956Y22815D01*
X2948Y22786D01*
X2937Y22758D01*
X2922Y22731D01*
X2904Y22707D01*
X2883Y22685D01*
X2859Y22666D01*
X2833Y22651D01*
X2806Y22639D01*
X2777Y22630D01*
X2747Y22625D01*
X2716Y22624D01*
X2686Y22627D01*
X2657Y22634D01*
X2628Y22644D01*
X2602Y22658D01*
X2577Y22675D01*
X2554Y22696D01*
X2535Y22719D01*
X2518Y22744D01*
X2505Y22771D01*
X2496Y22800D01*
X2490Y22830D01*
X2488Y22860D01*
X3473Y22860D02*
X3475Y22890D01*
X3481Y22920D01*
X3490Y22949D01*
X3503Y22976D01*
X3520Y23001D01*
X3539Y23024D01*
X3562Y23045D01*
X3587Y23062D01*
X3613Y23076D01*
X3642Y23086D01*
X3671Y23093D01*
X3701Y23096D01*
X3732Y23095D01*
X3762Y23090D01*
X3791Y23081D01*
X3818Y23069D01*
X3844Y23054D01*
X3868Y23035D01*
X3889Y23013D01*
X3907Y22989D01*
X3922Y22962D01*
X3933Y22934D01*
X3941Y22905D01*
X3945Y22875D01*
X3945Y22845D01*
X3941Y22815D01*
X3933Y22786D01*
X3922Y22758D01*
X3907Y22731D01*
X3889Y22707D01*
X3868Y22685D01*
X3844Y22666D01*
X3818Y22651D01*
X3791Y22639D01*
X3762Y22630D01*
X3732Y22625D01*
X3701Y22624D01*
X3671Y22627D01*
X3642Y22634D01*
X3613Y22644D01*
X3587Y22658D01*
X3562Y22675D01*
X3539Y22696D01*
X3520Y22719D01*
X3503Y22744D01*
X3490Y22771D01*
X3481Y22800D01*
X3475Y22830D01*
X3473Y22860D01*
D161*
X10623Y18873D02*
X10623Y18816D01*
X10849Y18816D01*
X10849Y18759D02*
X10849Y18873D01*
X10793Y18930D01*
X10679Y18930D01*
X10623Y18873D01*
X10679Y18703D02*
X10793Y18703D01*
X10849Y18759D01*
X10986Y18703D02*
X11156Y18816D01*
X10986Y18930D01*
X11156Y19043D02*
X11156Y18703D01*
X11298Y18759D02*
X11298Y18873D01*
X11355Y18930D01*
X11468Y18930D01*
X11525Y18873D01*
X11525Y18759D01*
X11468Y18703D01*
X11355Y18703D01*
X11298Y18759D01*
X11666Y18703D02*
X11666Y18873D01*
X11723Y18930D01*
X11780Y18873D01*
X11780Y18703D01*
X11893Y18703D02*
X11893Y18930D01*
X11836Y18930D01*
X11780Y18873D01*
X12035Y18816D02*
X12035Y18759D01*
X12091Y18703D01*
X12205Y18703D01*
X12261Y18759D01*
X12205Y18873D02*
X12091Y18873D01*
X12035Y18816D01*
X12035Y18986D02*
X12091Y19043D01*
X12205Y19043D01*
X12261Y18986D01*
X12261Y18930D01*
X12205Y18873D01*
X12261Y19303D02*
X12261Y19643D01*
X12148Y19530D01*
X12035Y19643D01*
X12035Y19303D01*
X11893Y19359D02*
X11836Y19416D01*
X11666Y19416D01*
X11666Y19473D02*
X11666Y19303D01*
X11836Y19303D01*
X11893Y19359D01*
X11836Y19530D02*
X11723Y19530D01*
X11666Y19473D01*
X11525Y19473D02*
X11525Y19359D01*
X11468Y19303D01*
X11298Y19303D01*
X11298Y19246D02*
X11298Y19530D01*
X11468Y19530D01*
X11525Y19473D01*
X11156Y19530D02*
X11100Y19530D01*
X11100Y19303D01*
X11156Y19303D02*
X11043Y19303D01*
X10911Y19359D02*
X10854Y19303D01*
X10684Y19303D01*
X10684Y19530D02*
X10854Y19530D01*
X10911Y19473D01*
X10911Y19359D01*
X11100Y19643D02*
X11100Y19700D01*
X11298Y19246D02*
X11355Y19189D01*
X11411Y19189D01*
X11355Y18343D02*
X11298Y18286D01*
X11525Y18059D01*
X11468Y18003D01*
X11355Y18003D01*
X11298Y18059D01*
X11298Y18286D01*
X11355Y18343D02*
X11468Y18343D01*
X11525Y18286D01*
X11525Y18059D01*
X11666Y18059D02*
X11723Y18003D01*
X11836Y18003D01*
X11893Y18059D01*
X11893Y18286D01*
X11836Y18343D01*
X11723Y18343D01*
X11666Y18286D01*
X11666Y18059D01*
X12035Y18003D02*
X12035Y18343D01*
X12148Y18230D01*
X12261Y18343D01*
X12261Y18003D01*
X11156Y18003D02*
X10930Y18003D01*
X11043Y18003D02*
X11043Y18343D01*
X11156Y18230D01*
X21047Y19198D02*
X21387Y19198D01*
X21047Y19425D01*
X21387Y19425D01*
X21387Y19566D02*
X21047Y19566D01*
X21160Y19566D02*
X21160Y19736D01*
X21217Y19793D01*
X21330Y19793D01*
X21387Y19736D01*
X21387Y19566D01*
X21160Y19680D02*
X21047Y19793D01*
X21047Y19934D02*
X21387Y19934D01*
X21387Y20161D01*
X21330Y20303D02*
X21387Y20359D01*
X21387Y20473D01*
X21330Y20530D01*
X21274Y20530D01*
X21047Y20303D01*
X21047Y20530D01*
X21217Y20671D02*
X21217Y20898D01*
X21047Y20841D02*
X21387Y20841D01*
X21217Y20671D01*
X21387Y21039D02*
X21047Y21039D01*
X21047Y21266D01*
X21103Y21408D02*
X21330Y21635D01*
X21103Y21635D01*
X21047Y21578D01*
X21047Y21464D01*
X21103Y21408D01*
X21330Y21408D01*
X21387Y21464D01*
X21387Y21578D01*
X21330Y21635D01*
X21274Y21776D02*
X21387Y21889D01*
X21047Y21889D01*
X21047Y21776D02*
X21047Y22003D01*
X21217Y22144D02*
X21217Y22371D01*
X21330Y22258D02*
X21103Y22258D01*
X21217Y20048D02*
X21217Y19934D01*
D162*
X18120Y18382D02*
X17839Y18382D01*
X8720Y17834D02*
X8886Y17710D01*
X9058Y17594D01*
X9235Y17487D01*
X9417Y17388D01*
X9604Y17299D01*
X9795Y17218D01*
X9990Y17147D01*
X10188Y17086D01*
X10388Y17035D01*
X10591Y16993D01*
X10796Y16961D01*
X11002Y16940D01*
X11209Y16928D01*
X11416Y16927D01*
X11623Y16935D01*
X11829Y16954D01*
X12035Y16983D01*
X12238Y17022D01*
X12439Y17070D01*
X12638Y17129D01*
X12834Y17197D01*
X13026Y17275D01*
X13214Y17362D01*
X13398Y17458D01*
X13576Y17562D01*
X13750Y17676D01*
X13917Y17798D01*
X14079Y17928D01*
X14234Y18065D01*
X14382Y18210D01*
X14523Y18362D01*
X14656Y18521D01*
X14781Y18686D01*
X14898Y18857D01*
X15007Y19033D01*
X15106Y19215D01*
X15197Y19401D01*
X15279Y19591D01*
X15351Y19786D01*
X15414Y19983D01*
X15467Y20183D01*
X15510Y20386D01*
X15543Y20591D01*
X15566Y20796D01*
X15579Y21003D01*
X15582Y21210D01*
X15575Y21417D01*
X15557Y21624D01*
X15530Y21829D01*
X15492Y22033D01*
X15445Y22235D01*
X15388Y22434D01*
X15321Y22630D01*
X15245Y22823D01*
X15159Y23011D01*
X15065Y23196D01*
X14961Y23375D01*
X14849Y23549D01*
X14728Y23718D01*
X14600Y23880D01*
X14463Y24036D01*
X14319Y24185D01*
X14168Y24327D01*
X14010Y24461D01*
X13846Y24588D01*
X13676Y24706D01*
X13500Y24816D01*
X13319Y24917D01*
X13134Y25009D01*
X12944Y25092D01*
X12750Y25165D01*
X12553Y25229D01*
X12353Y25284D01*
X12151Y25328D01*
X11947Y25363D01*
X11741Y25387D01*
X11534Y25402D01*
X11327Y25406D01*
X11120Y25400D01*
X10914Y25384D01*
X10708Y25358D01*
X10504Y25322D01*
X10302Y25276D01*
X10102Y25221D01*
X9906Y25155D01*
X9713Y25080D01*
X9523Y24996D01*
X9338Y24903D01*
X9158Y24800D01*
X8983Y24689D01*
X8814Y24570D01*
X8651Y24442D01*
X8494Y24307D01*
X8344Y24164D01*
X8201Y24014D01*
X8066Y23857D01*
X7938Y23694D01*
X7819Y23525D01*
X7708Y23350D01*
X7605Y23170D01*
X7512Y22985D01*
X7428Y22795D01*
X7353Y22602D01*
X7287Y22406D01*
X7232Y22206D01*
X7186Y22004D01*
X7150Y21800D01*
X7124Y21595D01*
X7108Y21388D01*
X7102Y21181D01*
X7106Y20974D01*
X7121Y20767D01*
X7145Y20561D01*
X7145Y20562D02*
X6122Y19971D01*
X7697Y17243D01*
X8720Y17834D01*
X17839Y23459D02*
X18120Y23459D01*
X17980Y23599D02*
X17980Y23319D01*
D163*
X-266Y16064D02*
X-255Y11203D01*
X-315Y15040D02*
X-266Y16064D01*
X-366Y15040D01*
X-389Y15040D02*
X-266Y16064D01*
X-161Y15040D01*
X-138Y15040D02*
X-389Y15040D01*
X-212Y15040D02*
X-266Y16064D01*
X-138Y15040D01*
X-1053Y16062D02*
X3669Y16073D01*
X3666Y17447D02*
X-1056Y17437D01*
X-269Y17438D02*
X-374Y18462D01*
X-397Y18462D02*
X-269Y17438D01*
X-169Y18462D01*
X-146Y18462D02*
X-397Y18462D01*
X-323Y18462D02*
X-269Y17438D01*
X-220Y18462D01*
X-146Y18462D02*
X-269Y17438D01*
X-274Y19486D01*
X2291Y24340D02*
X2291Y29458D01*
X2291Y28671D02*
X3315Y28773D01*
X3315Y28797D02*
X3315Y28545D01*
X2291Y28671D01*
X3315Y28569D01*
X3315Y28620D02*
X2291Y28671D01*
X3315Y28722D01*
X3315Y28797D02*
X2291Y28671D01*
X21583Y28671D01*
X20559Y28569D01*
X20559Y28545D02*
X21583Y28671D01*
X20559Y28773D01*
X20559Y28797D02*
X20559Y28545D01*
X20559Y28620D02*
X21583Y28671D01*
X20559Y28722D01*
X20559Y28797D02*
X21583Y28671D01*
X21583Y29458D02*
X21583Y24340D01*
X21583Y23455D02*
X25913Y23455D01*
X25126Y23455D02*
X25228Y22431D01*
X25252Y22431D02*
X25126Y23455D01*
X25024Y22431D01*
X25000Y22431D02*
X25252Y22431D01*
X25177Y22431D02*
X25126Y23455D01*
X25075Y22431D01*
X25000Y22431D02*
X25126Y23455D01*
X25126Y18336D01*
X25228Y19360D01*
X25252Y19360D02*
X25126Y18336D01*
X25024Y19360D01*
X25000Y19360D02*
X25252Y19360D01*
X25177Y19360D02*
X25126Y18336D01*
X25075Y19360D01*
X25000Y19360D02*
X25126Y18336D01*
X25913Y18336D02*
X21583Y18336D01*
X20598Y16073D02*
X29850Y16073D01*
X29063Y16073D02*
X29165Y17096D01*
X29189Y17096D02*
X29063Y16073D01*
X28961Y17096D01*
X28937Y17096D02*
X29189Y17096D01*
X29114Y17096D02*
X29063Y16073D01*
X29012Y17096D01*
X28937Y17096D02*
X29063Y16073D01*
X29063Y25718D01*
X29165Y24695D01*
X29189Y24695D02*
X29063Y25718D01*
X28961Y24695D01*
X28937Y24695D02*
X29189Y24695D01*
X29114Y24695D02*
X29063Y25718D01*
X29012Y24695D01*
X28937Y24695D02*
X29063Y25718D01*
X29850Y25718D02*
X20598Y25718D01*
D164*
X23620Y21969D02*
X23831Y21969D01*
X24043Y21757D01*
X24254Y21969D01*
X24466Y21969D01*
X24677Y21757D01*
X24677Y21334D01*
X24466Y21123D01*
X24677Y20700D02*
X24677Y19854D01*
X24677Y20277D02*
X23408Y20277D01*
X23831Y19854D01*
X23620Y21123D02*
X23408Y21334D01*
X23408Y21757D01*
X23620Y21969D01*
X24043Y21757D02*
X24043Y21546D01*
X27345Y20935D02*
X27980Y20301D01*
X27980Y21147D01*
X28614Y20935D02*
X27345Y20935D01*
X28403Y21569D02*
X28403Y21781D01*
X28614Y21781D01*
X28614Y21569D01*
X28403Y21569D01*
X28403Y22204D02*
X28614Y22415D01*
X28614Y22838D01*
X28403Y23050D01*
X27980Y23050D01*
X27768Y22838D01*
X27768Y22627D01*
X27980Y22204D01*
X27345Y22204D01*
X27345Y23050D01*
X27557Y19878D02*
X27345Y19666D01*
X27345Y19243D01*
X27557Y19032D01*
X27768Y19878D02*
X28614Y19032D01*
X28614Y19878D01*
X27768Y19878D02*
X27557Y19878D01*
X13010Y29331D02*
X13010Y30177D01*
X12799Y30389D01*
X12376Y30389D01*
X12164Y30177D01*
X12164Y29966D01*
X12376Y29754D01*
X13010Y29754D01*
X13010Y29331D02*
X12799Y29120D01*
X12376Y29120D01*
X12164Y29331D01*
X11742Y29754D02*
X10896Y29754D01*
X11530Y30389D01*
X11530Y29120D01*
X1243Y14988D02*
X1455Y14777D01*
X1455Y14354D01*
X1244Y14142D01*
X1033Y14141D01*
X821Y14353D01*
X610Y14141D01*
X398Y14140D01*
X186Y14351D01*
X186Y14775D01*
X397Y14986D01*
X821Y14564D02*
X821Y14353D01*
X399Y13718D02*
X187Y13717D01*
X188Y13506D01*
X399Y13506D01*
X399Y13718D01*
X823Y13084D02*
X825Y12238D01*
X1037Y11815D02*
X826Y11604D01*
X827Y10969D01*
X404Y10968D02*
X1250Y10970D01*
X1461Y11182D01*
X1460Y11605D01*
X1248Y11816D01*
X1037Y11815D01*
X402Y11814D02*
X191Y11603D01*
X192Y11179D01*
X404Y10968D01*
X190Y12448D02*
X1459Y12451D01*
X823Y13084D01*
D165*
X11277Y22668D03*
X11172Y22943D03*
X11187Y22953D03*
X11192Y22958D03*
X11197Y22963D03*
X11212Y22973D03*
X11257Y23003D03*
X11272Y23013D03*
X11277Y23018D03*
X11292Y23028D03*
X11307Y23038D03*
X11312Y23043D03*
X11322Y23048D03*
X11327Y23053D03*
X11332Y23058D03*
X11342Y23063D03*
X11347Y23068D03*
X11357Y23073D03*
X11362Y23078D03*
X11377Y23088D03*
X11157Y23318D03*
X11037Y23473D03*
X11037Y23478D03*
X11032Y23483D03*
X11032Y23488D03*
X11562Y23628D03*
X11562Y23633D03*
X11722Y23653D03*
X11722Y23658D03*
X11782Y23183D03*
X11752Y22988D03*
X11407Y24193D03*
X11407Y24198D03*
D166*
X11277Y24393D03*
X11687Y24588D03*
X12627Y24083D03*
X12627Y23543D03*
X12622Y23538D03*
X12367Y23018D03*
X11637Y22838D03*
X11277Y22673D03*
X10172Y22943D03*
X10087Y23973D03*
X10372Y24123D03*
D167*
X10337Y24103D03*
X11687Y24583D03*
X12532Y24133D03*
X11277Y22678D03*
X11002Y22793D03*
D168*
X11275Y22683D03*
X10305Y22883D03*
X11265Y24423D03*
X11685Y24578D03*
D169*
X10280Y24058D03*
X11275Y22688D03*
D170*
X11277Y22693D03*
X12372Y24188D03*
D171*
X12382Y24178D03*
X11277Y22698D03*
D172*
X11277Y22703D03*
X12392Y24163D03*
D173*
X11675Y24548D03*
X11275Y22708D03*
D174*
X11277Y22713D03*
D175*
X11275Y22718D03*
X11650Y24528D03*
D176*
X11632Y24513D03*
X11277Y22723D03*
D177*
X11277Y22728D03*
X11622Y24503D03*
D178*
X11275Y22733D03*
D179*
X11275Y22738D03*
X11920Y22883D03*
D180*
X11950Y22898D03*
X11275Y22743D03*
D181*
X11275Y22748D03*
X11975Y22913D03*
D182*
X12005Y22933D03*
X11275Y22753D03*
D183*
X11275Y22758D03*
X12010Y22938D03*
X12015Y22943D03*
D184*
X11275Y22763D03*
D185*
X11275Y22768D03*
D186*
X11092Y22878D03*
X11157Y23293D03*
X11022Y23523D03*
X11017Y23533D03*
X11017Y23538D03*
X11562Y23653D03*
X11727Y23628D03*
X11782Y23158D03*
X11747Y22993D03*
X10542Y22768D03*
X11402Y24223D03*
D187*
X11277Y22773D03*
D188*
X11357Y23103D03*
X10542Y22773D03*
X10067Y23428D03*
X10062Y23433D03*
X10057Y23443D03*
X10052Y23448D03*
X10047Y23453D03*
X10042Y23458D03*
X10037Y23933D03*
X10042Y23938D03*
X10047Y23943D03*
X10382Y24128D03*
X10507Y24348D03*
X10512Y24353D03*
X10517Y24358D03*
X12497Y23443D03*
X12657Y23568D03*
X12662Y23573D03*
X12662Y24053D03*
X12657Y24058D03*
X12412Y23053D03*
X12407Y23048D03*
D189*
X11490Y22778D03*
X10540Y22788D03*
X10295Y24068D03*
D190*
X10287Y24063D03*
X10237Y24033D03*
X11472Y24483D03*
X12352Y24208D03*
X12472Y24148D03*
X11062Y22778D03*
D191*
X10542Y22778D03*
X10242Y22903D03*
X10347Y24108D03*
X10627Y24428D03*
X11272Y24408D03*
X12297Y22978D03*
D192*
X11520Y22783D03*
X11030Y22783D03*
X11440Y24478D03*
D193*
X12497Y24143D03*
X10317Y24088D03*
X10207Y24028D03*
X10542Y22783D03*
D194*
X11015Y22788D03*
X11535Y22788D03*
X10190Y24023D03*
X10330Y24098D03*
X12515Y24138D03*
D195*
X12320Y24233D03*
X11350Y23128D03*
X11805Y22958D03*
X11550Y22793D03*
X12280Y22973D03*
D196*
X12367Y24193D03*
X10542Y22793D03*
D197*
X10805Y22893D03*
X10985Y22798D03*
X11565Y22798D03*
X11340Y23118D03*
X10160Y24013D03*
X12545Y24128D03*
D198*
X10540Y22798D03*
D199*
X10975Y22803D03*
X11575Y22803D03*
X11340Y23113D03*
X12305Y22983D03*
X12555Y24123D03*
X10150Y24008D03*
D200*
X11700Y24563D03*
X10540Y22803D03*
D201*
X10965Y22808D03*
X11585Y22808D03*
X12315Y22988D03*
X12530Y23478D03*
X12535Y23483D03*
X12570Y23508D03*
X10605Y24418D03*
X10140Y24003D03*
D202*
X10540Y22808D03*
D203*
X10955Y22813D03*
X11595Y22813D03*
X12000Y22853D03*
X12335Y22998D03*
X12520Y23468D03*
X12525Y23473D03*
X12585Y24108D03*
X10595Y24413D03*
X10120Y23993D03*
D204*
X10540Y22813D03*
D205*
X10212Y22918D03*
X10202Y22923D03*
X10112Y23988D03*
X10362Y24118D03*
X10587Y24408D03*
X12597Y24103D03*
X12597Y23523D03*
X12587Y23518D03*
X11612Y22823D03*
X11602Y22818D03*
D206*
X11337Y23133D03*
X10947Y22818D03*
X10812Y22898D03*
X10222Y22913D03*
X10127Y23998D03*
X11272Y24403D03*
X12577Y24113D03*
X12577Y23513D03*
X12327Y22993D03*
D207*
X10540Y22818D03*
X11655Y24533D03*
D208*
X10662Y22823D03*
D209*
X10187Y22933D03*
X10102Y23983D03*
X10572Y24398D03*
X10577Y24403D03*
X11622Y22828D03*
X12352Y23008D03*
X12612Y24093D03*
D210*
X11745Y23543D03*
X11745Y23538D03*
X11570Y23718D03*
X10970Y23693D03*
X10970Y23688D03*
X11170Y23193D03*
X11170Y23188D03*
X11065Y22828D03*
X11790Y23088D03*
X11390Y24308D03*
X11390Y24313D03*
D211*
X10640Y22828D03*
X10630Y22833D03*
D212*
X10820Y22903D03*
X11325Y23138D03*
X11630Y22833D03*
X12360Y23013D03*
X12510Y23458D03*
X12615Y23533D03*
X12620Y24088D03*
X10565Y24393D03*
X10095Y23978D03*
X10180Y22938D03*
D213*
X11070Y22833D03*
X11745Y23003D03*
X11745Y23553D03*
X11570Y23708D03*
X11570Y23713D03*
X10980Y23658D03*
X10975Y23668D03*
X10975Y23673D03*
X11395Y24293D03*
D214*
X11392Y24288D03*
X11567Y23703D03*
X11742Y23563D03*
X11742Y23558D03*
X11787Y23108D03*
X11787Y23103D03*
X11167Y23213D03*
X11167Y23218D03*
X11072Y22838D03*
X10842Y22948D03*
X10982Y23648D03*
X10982Y23653D03*
X10977Y23663D03*
D215*
X10592Y22853D03*
X10602Y22848D03*
X10622Y22838D03*
D216*
X10165Y22948D03*
X10160Y22953D03*
X10080Y23968D03*
X10550Y24383D03*
X10555Y24388D03*
X12505Y23453D03*
X12635Y23548D03*
X12635Y24078D03*
X12375Y23023D03*
X11650Y22848D03*
X11645Y22843D03*
D217*
X11787Y23113D03*
X11787Y23118D03*
X11787Y23123D03*
X11737Y23578D03*
X11567Y23693D03*
X10987Y23633D03*
X10987Y23628D03*
X11397Y24273D03*
X11072Y22843D03*
D218*
X10610Y22843D03*
X10585Y22858D03*
X10575Y22863D03*
X10570Y22868D03*
X10560Y22873D03*
D219*
X10080Y23033D03*
X10075Y23038D03*
X10075Y23043D03*
X10070Y23048D03*
X10065Y23373D03*
X10070Y23383D03*
X10075Y23388D03*
X10075Y23393D03*
X10080Y23403D03*
X10080Y23408D03*
X9980Y23528D03*
X9975Y23533D03*
X9970Y23543D03*
X9975Y23858D03*
X9980Y23868D03*
X9985Y23873D03*
X10395Y24133D03*
X10450Y24278D03*
X10455Y24283D03*
X10455Y24288D03*
X10460Y24293D03*
X10465Y24298D03*
X12490Y23433D03*
X12480Y23138D03*
X12475Y23128D03*
X12470Y23123D03*
X12470Y23118D03*
X12465Y23113D03*
X12000Y22848D03*
X11125Y22928D03*
X12715Y23628D03*
X12720Y23638D03*
X12725Y23643D03*
X12730Y23648D03*
X12735Y23658D03*
X12735Y23968D03*
X12730Y23978D03*
X12725Y23983D03*
X12720Y23988D03*
X12715Y23998D03*
D220*
X11855Y24278D03*
X11860Y24308D03*
X11865Y24338D03*
X11870Y24368D03*
X11875Y24393D03*
X11875Y24398D03*
X11880Y24423D03*
X11880Y24428D03*
X11885Y24453D03*
X11885Y24458D03*
X11905Y24578D03*
X11905Y24583D03*
X11395Y24268D03*
X11565Y23688D03*
X11740Y23583D03*
X11165Y23238D03*
X11165Y23233D03*
X11075Y22848D03*
X10995Y23608D03*
X10995Y23613D03*
X10990Y23618D03*
X10990Y23623D03*
D221*
X10822Y22908D03*
X10152Y22958D03*
X10067Y23958D03*
X10072Y23963D03*
X10542Y24378D03*
X11817Y24483D03*
X12287Y24248D03*
X12642Y24073D03*
X12647Y24068D03*
X12647Y23558D03*
X12642Y23553D03*
X12502Y23448D03*
X12387Y23033D03*
X12382Y23028D03*
X11777Y22968D03*
X11657Y22853D03*
D222*
X11787Y23128D03*
X11787Y23133D03*
X11827Y23238D03*
X11837Y23263D03*
X11847Y23288D03*
X11857Y23313D03*
X11882Y23378D03*
X11892Y23403D03*
X11902Y23428D03*
X11912Y23453D03*
X11937Y23518D03*
X11947Y23543D03*
X11957Y23568D03*
X11967Y23593D03*
X11992Y23658D03*
X12002Y23683D03*
X12012Y23708D03*
X12022Y23733D03*
X12057Y23823D03*
X12067Y23848D03*
X12077Y23873D03*
X12087Y23898D03*
X12112Y23963D03*
X12122Y23988D03*
X12132Y24013D03*
X12142Y24038D03*
X12152Y24063D03*
X12162Y24088D03*
X12167Y24103D03*
X12177Y24128D03*
X11842Y24193D03*
X11842Y24198D03*
X11842Y24203D03*
X11842Y24208D03*
X11842Y24213D03*
X11842Y24218D03*
X11847Y24223D03*
X11847Y24228D03*
X11847Y24233D03*
X11847Y24238D03*
X11847Y24243D03*
X11847Y24248D03*
X11852Y24253D03*
X11852Y24258D03*
X11852Y24263D03*
X11852Y24268D03*
X11852Y24273D03*
X11857Y24283D03*
X11857Y24288D03*
X11857Y24293D03*
X11857Y24298D03*
X11857Y24303D03*
X11862Y24313D03*
X11862Y24318D03*
X11862Y24323D03*
X11862Y24328D03*
X11862Y24333D03*
X11867Y24343D03*
X11867Y24348D03*
X11867Y24353D03*
X11867Y24358D03*
X11867Y24363D03*
X11872Y24373D03*
X11872Y24378D03*
X11872Y24383D03*
X11872Y24388D03*
X11877Y24403D03*
X11877Y24408D03*
X11877Y24413D03*
X11877Y24418D03*
X11882Y24433D03*
X11882Y24438D03*
X11882Y24443D03*
X11882Y24448D03*
X11907Y24588D03*
X11907Y24593D03*
X11837Y24188D03*
X11837Y24183D03*
X11837Y24178D03*
X11837Y24173D03*
X11837Y24168D03*
X11837Y24163D03*
X11832Y24153D03*
X11832Y24148D03*
X11832Y24143D03*
X11832Y24138D03*
X11832Y24133D03*
X11827Y24123D03*
X11827Y24118D03*
X11827Y24113D03*
X11827Y24108D03*
X11822Y24098D03*
X11822Y24093D03*
X11822Y24088D03*
X11822Y24083D03*
X11822Y24078D03*
X11817Y24068D03*
X11817Y24063D03*
X11817Y24058D03*
X11817Y24053D03*
X11817Y24048D03*
X11812Y24038D03*
X11812Y24033D03*
X11812Y24028D03*
X11812Y24023D03*
X11812Y24018D03*
X11807Y24008D03*
X11807Y24003D03*
X11807Y23998D03*
X11807Y23993D03*
X11802Y23983D03*
X11802Y23978D03*
X11802Y23973D03*
X11802Y23968D03*
X11802Y23963D03*
X11797Y23953D03*
X11797Y23948D03*
X11797Y23943D03*
X11797Y23938D03*
X11797Y23933D03*
X11792Y23923D03*
X11792Y23918D03*
X11792Y23913D03*
X11792Y23908D03*
X11792Y23903D03*
X11787Y23893D03*
X11787Y23888D03*
X11787Y23883D03*
X11787Y23878D03*
X11787Y23873D03*
X11782Y23863D03*
X11782Y23858D03*
X11782Y23853D03*
X11782Y23848D03*
X11777Y23838D03*
X11777Y23833D03*
X11777Y23828D03*
X11777Y23823D03*
X11777Y23818D03*
X11772Y23808D03*
X11772Y23803D03*
X11772Y23798D03*
X11772Y23793D03*
X11772Y23788D03*
X11767Y23778D03*
X11767Y23773D03*
X11767Y23768D03*
X11767Y23763D03*
X11767Y23758D03*
X11762Y23748D03*
X11762Y23743D03*
X11762Y23738D03*
X11762Y23733D03*
X11757Y23723D03*
X11757Y23718D03*
X11757Y23713D03*
X11757Y23708D03*
X11757Y23703D03*
X11737Y23588D03*
X11617Y23548D03*
X11607Y23573D03*
X11627Y23523D03*
X11637Y23498D03*
X11567Y23683D03*
X11282Y23758D03*
X11277Y23738D03*
X11272Y23718D03*
X11267Y23693D03*
X11262Y23673D03*
X11257Y23653D03*
X11252Y23628D03*
X11247Y23608D03*
X11242Y23588D03*
X11237Y23563D03*
X11232Y23543D03*
X11227Y23523D03*
X11222Y23498D03*
X11217Y23478D03*
X11212Y23458D03*
X11207Y23433D03*
X11202Y23418D03*
X11202Y23413D03*
X11197Y23403D03*
X11197Y23398D03*
X11197Y23393D03*
X11192Y23378D03*
X11192Y23373D03*
X11192Y23368D03*
X11187Y23358D03*
X11187Y23353D03*
X11162Y23248D03*
X11162Y23243D03*
X11037Y23243D03*
X11037Y23248D03*
X11037Y23253D03*
X11032Y23293D03*
X11032Y23298D03*
X11027Y23323D03*
X11027Y23328D03*
X11027Y23333D03*
X11027Y23338D03*
X11027Y23343D03*
X11022Y23353D03*
X11022Y23358D03*
X11022Y23363D03*
X11022Y23368D03*
X11022Y23373D03*
X11022Y23378D03*
X11022Y23383D03*
X11022Y23388D03*
X11017Y23398D03*
X11017Y23403D03*
X11017Y23408D03*
X11017Y23413D03*
X11017Y23418D03*
X11017Y23423D03*
X10997Y23598D03*
X10997Y23603D03*
X11287Y23783D03*
X11292Y23803D03*
X11297Y23823D03*
X11302Y23848D03*
X11307Y23868D03*
X11312Y23888D03*
X11317Y23913D03*
X11322Y23933D03*
X11327Y23953D03*
X11332Y23978D03*
X11337Y23998D03*
X11342Y24018D03*
X11347Y24043D03*
X11352Y24063D03*
X11357Y24083D03*
X11362Y24103D03*
X11362Y24108D03*
X11367Y24128D03*
X11372Y24148D03*
X11397Y24258D03*
X11397Y24263D03*
X11042Y23208D03*
X11042Y23203D03*
X11042Y23198D03*
X11042Y23193D03*
X11047Y23183D03*
X11047Y23178D03*
X11047Y23173D03*
X11047Y23168D03*
X11047Y23163D03*
X11047Y23158D03*
X11047Y23153D03*
X11047Y23148D03*
X11047Y23143D03*
X11052Y23138D03*
X11052Y23133D03*
X11052Y23128D03*
X11052Y23123D03*
X11052Y23118D03*
X11052Y23113D03*
X11052Y23108D03*
X11052Y23103D03*
X11052Y23098D03*
X11052Y23093D03*
X11057Y23088D03*
X11057Y23083D03*
X11057Y23078D03*
X11057Y23073D03*
X11057Y23068D03*
X11057Y23063D03*
X11057Y23058D03*
X11057Y23053D03*
X11057Y23048D03*
X11057Y23043D03*
X11062Y23038D03*
X11062Y23033D03*
X11062Y23028D03*
X11062Y23023D03*
X11062Y23018D03*
X11062Y23013D03*
X11062Y23008D03*
X11062Y23003D03*
X11062Y22998D03*
X11062Y22993D03*
X11067Y22988D03*
X11067Y22983D03*
X11067Y22978D03*
X11067Y22973D03*
X11067Y22968D03*
X11067Y22963D03*
X11067Y22958D03*
X11067Y22953D03*
X11067Y22948D03*
X11067Y22943D03*
X11072Y22938D03*
X11077Y22853D03*
D223*
X10282Y22888D03*
X12002Y22858D03*
X11267Y24418D03*
X10922Y24548D03*
D224*
X10535Y24373D03*
X10530Y24368D03*
X10525Y24363D03*
X10060Y23953D03*
X10055Y23948D03*
X10135Y22973D03*
X10140Y22968D03*
X10145Y22963D03*
X11665Y22858D03*
X11670Y22863D03*
X11675Y22868D03*
X12395Y23038D03*
X12400Y23043D03*
X12655Y23563D03*
X12650Y24063D03*
D225*
X12230Y24263D03*
X12230Y24268D03*
X12235Y24278D03*
X12240Y24293D03*
X12245Y24303D03*
X12250Y24318D03*
X12255Y24328D03*
X12260Y24343D03*
X12270Y24368D03*
X12280Y24393D03*
X12285Y24408D03*
X12290Y24418D03*
X12295Y24433D03*
X12300Y24443D03*
X12305Y24458D03*
X12310Y24468D03*
X12315Y24483D03*
X12320Y24493D03*
X12325Y24508D03*
X12330Y24518D03*
X12335Y24533D03*
X12340Y24543D03*
X12340Y24548D03*
X12345Y24558D03*
X12350Y24568D03*
X12350Y24573D03*
X12350Y24578D03*
X12355Y24583D03*
X12355Y24588D03*
X12360Y24593D03*
X12185Y24143D03*
X12180Y24138D03*
X12180Y24133D03*
X12175Y24123D03*
X12175Y24118D03*
X12170Y24113D03*
X12170Y24108D03*
X12165Y24098D03*
X12165Y24093D03*
X12160Y24083D03*
X12160Y24078D03*
X12155Y24073D03*
X12155Y24068D03*
X12150Y24058D03*
X12150Y24053D03*
X12145Y24048D03*
X12145Y24043D03*
X12140Y24033D03*
X12140Y24028D03*
X12135Y24023D03*
X12135Y24018D03*
X12130Y24008D03*
X12130Y24003D03*
X12125Y23998D03*
X12125Y23993D03*
X12120Y23983D03*
X12120Y23978D03*
X12115Y23973D03*
X12115Y23968D03*
X12110Y23958D03*
X12110Y23953D03*
X12105Y23948D03*
X12105Y23943D03*
X12105Y23938D03*
X12100Y23933D03*
X12100Y23928D03*
X12095Y23923D03*
X12095Y23918D03*
X12095Y23913D03*
X12090Y23908D03*
X12090Y23903D03*
X12085Y23893D03*
X12085Y23888D03*
X12080Y23883D03*
X12080Y23878D03*
X12075Y23868D03*
X12075Y23863D03*
X12070Y23858D03*
X12070Y23853D03*
X12065Y23843D03*
X12065Y23838D03*
X12060Y23833D03*
X12060Y23828D03*
X12055Y23818D03*
X12055Y23813D03*
X12050Y23808D03*
X12050Y23803D03*
X12050Y23798D03*
X12045Y23793D03*
X12045Y23788D03*
X12040Y23783D03*
X12040Y23778D03*
X12040Y23773D03*
X12035Y23768D03*
X12035Y23763D03*
X12030Y23758D03*
X12030Y23753D03*
X12030Y23748D03*
X12025Y23743D03*
X12025Y23738D03*
X12020Y23728D03*
X12020Y23723D03*
X12015Y23718D03*
X12015Y23713D03*
X12010Y23703D03*
X12010Y23698D03*
X12005Y23693D03*
X12005Y23688D03*
X12000Y23678D03*
X12000Y23673D03*
X11995Y23668D03*
X11995Y23663D03*
X11990Y23653D03*
X11990Y23648D03*
X11985Y23643D03*
X11985Y23638D03*
X11985Y23633D03*
X11980Y23628D03*
X11980Y23623D03*
X11975Y23618D03*
X11975Y23613D03*
X11975Y23608D03*
X11970Y23603D03*
X11970Y23598D03*
X11965Y23588D03*
X11965Y23583D03*
X11960Y23578D03*
X11960Y23573D03*
X11955Y23563D03*
X11955Y23558D03*
X11950Y23553D03*
X11950Y23548D03*
X11945Y23538D03*
X11945Y23533D03*
X11940Y23528D03*
X11940Y23523D03*
X11935Y23513D03*
X11935Y23508D03*
X11930Y23503D03*
X11930Y23498D03*
X11930Y23493D03*
X11925Y23488D03*
X11925Y23483D03*
X11920Y23478D03*
X11920Y23473D03*
X11920Y23468D03*
X11915Y23463D03*
X11915Y23458D03*
X11910Y23448D03*
X11910Y23443D03*
X11905Y23438D03*
X11905Y23433D03*
X11900Y23423D03*
X11900Y23418D03*
X11895Y23413D03*
X11895Y23408D03*
X11890Y23398D03*
X11890Y23393D03*
X11885Y23388D03*
X11885Y23383D03*
X11880Y23373D03*
X11880Y23368D03*
X11875Y23363D03*
X11875Y23358D03*
X11875Y23353D03*
X11870Y23348D03*
X11870Y23343D03*
X11865Y23338D03*
X11865Y23333D03*
X11865Y23328D03*
X11860Y23323D03*
X11860Y23318D03*
X11855Y23308D03*
X11855Y23303D03*
X11850Y23298D03*
X11850Y23293D03*
X11845Y23283D03*
X11845Y23278D03*
X11840Y23273D03*
X11840Y23268D03*
X11835Y23258D03*
X11835Y23253D03*
X11830Y23248D03*
X11830Y23243D03*
X11825Y23233D03*
X11825Y23228D03*
X11820Y23223D03*
X11740Y23243D03*
X11730Y23268D03*
X11725Y23278D03*
X11720Y23293D03*
X11715Y23303D03*
X11710Y23313D03*
X11710Y23318D03*
X11705Y23328D03*
X11700Y23338D03*
X11700Y23343D03*
X11695Y23353D03*
X11690Y23363D03*
X11690Y23368D03*
X11685Y23378D03*
X11680Y23388D03*
X11675Y23398D03*
X11675Y23403D03*
X11670Y23413D03*
X11665Y23423D03*
X11665Y23428D03*
X11660Y23438D03*
X11655Y23448D03*
X11655Y23453D03*
X11655Y23458D03*
X11650Y23463D03*
X11650Y23468D03*
X11645Y23473D03*
X11645Y23478D03*
X11645Y23483D03*
X11640Y23488D03*
X11640Y23493D03*
X11635Y23503D03*
X11635Y23508D03*
X11630Y23513D03*
X11630Y23518D03*
X11625Y23528D03*
X11625Y23533D03*
X11620Y23538D03*
X11620Y23543D03*
X11615Y23553D03*
X11615Y23558D03*
X11610Y23563D03*
X11610Y23568D03*
X11605Y23578D03*
X11605Y23583D03*
X11600Y23588D03*
X11600Y23593D03*
X11600Y23598D03*
X11565Y23678D03*
X11615Y23828D03*
X11610Y23838D03*
X11605Y23848D03*
X11600Y23858D03*
X11595Y23868D03*
X11590Y23878D03*
X11585Y23888D03*
X11580Y23898D03*
X11575Y23908D03*
X11570Y23918D03*
X11565Y23923D03*
X11565Y23928D03*
X11560Y23933D03*
X11560Y23938D03*
X11555Y23943D03*
X11555Y23948D03*
X11550Y23953D03*
X11550Y23958D03*
X11545Y23963D03*
X11540Y23973D03*
X11535Y23983D03*
X11530Y23993D03*
X11525Y24003D03*
X11520Y24013D03*
X11515Y24023D03*
X11510Y24033D03*
X11505Y24043D03*
X11500Y24053D03*
X11495Y24063D03*
X11490Y24073D03*
X11485Y24083D03*
X11480Y24093D03*
X11475Y24103D03*
X11470Y24113D03*
X11465Y24123D03*
X11460Y24133D03*
X11455Y24143D03*
X11450Y24153D03*
X11445Y24163D03*
X11375Y24163D03*
X11375Y24158D03*
X11375Y24153D03*
X11370Y24143D03*
X11370Y24138D03*
X11370Y24133D03*
X11365Y24123D03*
X11365Y24118D03*
X11365Y24113D03*
X11360Y24098D03*
X11360Y24093D03*
X11360Y24088D03*
X11355Y24078D03*
X11355Y24073D03*
X11355Y24068D03*
X11350Y24058D03*
X11350Y24053D03*
X11350Y24048D03*
X11345Y24038D03*
X11345Y24033D03*
X11345Y24028D03*
X11345Y24023D03*
X11340Y24013D03*
X11340Y24008D03*
X11340Y24003D03*
X11335Y23993D03*
X11335Y23988D03*
X11335Y23983D03*
X11330Y23973D03*
X11330Y23968D03*
X11330Y23963D03*
X11330Y23958D03*
X11325Y23948D03*
X11325Y23943D03*
X11325Y23938D03*
X11320Y23928D03*
X11320Y23923D03*
X11320Y23918D03*
X11315Y23908D03*
X11315Y23903D03*
X11315Y23898D03*
X11315Y23893D03*
X11310Y23883D03*
X11310Y23878D03*
X11310Y23873D03*
X11305Y23863D03*
X11305Y23858D03*
X11305Y23853D03*
X11300Y23843D03*
X11300Y23838D03*
X11300Y23833D03*
X11300Y23828D03*
X11295Y23818D03*
X11295Y23813D03*
X11295Y23808D03*
X11290Y23798D03*
X11290Y23793D03*
X11290Y23788D03*
X11285Y23778D03*
X11285Y23773D03*
X11285Y23768D03*
X11285Y23763D03*
X11280Y23753D03*
X11280Y23748D03*
X11280Y23743D03*
X11275Y23733D03*
X11275Y23728D03*
X11275Y23723D03*
X11270Y23713D03*
X11270Y23708D03*
X11270Y23703D03*
X11270Y23698D03*
X11265Y23688D03*
X11265Y23683D03*
X11265Y23678D03*
X11260Y23668D03*
X11260Y23663D03*
X11260Y23658D03*
X11255Y23648D03*
X11255Y23643D03*
X11255Y23638D03*
X11255Y23633D03*
X11250Y23623D03*
X11250Y23618D03*
X11250Y23613D03*
X11245Y23603D03*
X11245Y23598D03*
X11245Y23593D03*
X11240Y23583D03*
X11240Y23578D03*
X11240Y23573D03*
X11240Y23568D03*
X11235Y23558D03*
X11235Y23553D03*
X11235Y23548D03*
X11230Y23538D03*
X11230Y23533D03*
X11230Y23528D03*
X11225Y23518D03*
X11225Y23513D03*
X11225Y23508D03*
X11225Y23503D03*
X11220Y23493D03*
X11220Y23488D03*
X11220Y23483D03*
X11215Y23473D03*
X11215Y23468D03*
X11215Y23463D03*
X11210Y23453D03*
X11210Y23448D03*
X11210Y23443D03*
X11210Y23438D03*
X11205Y23428D03*
X11205Y23423D03*
X11200Y23408D03*
X11195Y23388D03*
X11195Y23383D03*
X11190Y23363D03*
X11120Y23353D03*
X11115Y23363D03*
X11110Y23373D03*
X11105Y23383D03*
X11100Y23393D03*
X11095Y23403D03*
X11090Y23413D03*
X11085Y23423D03*
X11020Y23393D03*
X11025Y23348D03*
X11030Y23318D03*
X11030Y23313D03*
X11030Y23308D03*
X11030Y23303D03*
X11035Y23288D03*
X11035Y23283D03*
X11035Y23278D03*
X11035Y23273D03*
X11035Y23268D03*
X11035Y23263D03*
X11035Y23258D03*
X11040Y23238D03*
X11040Y23233D03*
X11040Y23228D03*
X11040Y23223D03*
X11040Y23218D03*
X11040Y23213D03*
X11045Y23188D03*
X11165Y23253D03*
X11000Y23588D03*
X11000Y23593D03*
X11735Y23593D03*
X11755Y23698D03*
X11760Y23728D03*
X11765Y23753D03*
X11770Y23783D03*
X11775Y23813D03*
X11780Y23843D03*
X11785Y23868D03*
X11790Y23898D03*
X11795Y23928D03*
X11800Y23958D03*
X11805Y23988D03*
X11810Y24013D03*
X11815Y24043D03*
X11820Y24073D03*
X11825Y24103D03*
X11830Y24128D03*
X11835Y24158D03*
X11400Y24248D03*
X11400Y24253D03*
X11285Y24348D03*
X11750Y22998D03*
X11080Y22858D03*
D226*
X12000Y22863D03*
D227*
X11787Y23138D03*
X11787Y23143D03*
X11747Y23223D03*
X11747Y23228D03*
X11742Y23233D03*
X11742Y23238D03*
X11737Y23248D03*
X11737Y23253D03*
X11732Y23258D03*
X11732Y23263D03*
X11727Y23273D03*
X11722Y23283D03*
X11722Y23288D03*
X11717Y23298D03*
X11712Y23308D03*
X11707Y23323D03*
X11702Y23333D03*
X11697Y23348D03*
X11692Y23358D03*
X11687Y23373D03*
X11682Y23383D03*
X11677Y23393D03*
X11672Y23408D03*
X11667Y23418D03*
X11662Y23433D03*
X11657Y23443D03*
X11732Y23598D03*
X11732Y23603D03*
X11682Y23698D03*
X11677Y23708D03*
X11672Y23718D03*
X11667Y23723D03*
X11667Y23728D03*
X11662Y23733D03*
X11662Y23738D03*
X11657Y23743D03*
X11657Y23748D03*
X11652Y23753D03*
X11652Y23758D03*
X11647Y23763D03*
X11647Y23768D03*
X11642Y23773D03*
X11642Y23778D03*
X11637Y23783D03*
X11637Y23788D03*
X11632Y23793D03*
X11632Y23798D03*
X11627Y23803D03*
X11627Y23808D03*
X11622Y23813D03*
X11622Y23818D03*
X11617Y23823D03*
X11612Y23833D03*
X11607Y23843D03*
X11602Y23853D03*
X11597Y23863D03*
X11592Y23873D03*
X11587Y23883D03*
X11582Y23893D03*
X11577Y23903D03*
X11572Y23913D03*
X11542Y23968D03*
X11537Y23978D03*
X11532Y23988D03*
X11527Y23998D03*
X11522Y24008D03*
X11517Y24018D03*
X11512Y24028D03*
X11507Y24038D03*
X11502Y24048D03*
X11497Y24058D03*
X11492Y24068D03*
X11487Y24078D03*
X11482Y24088D03*
X11477Y24098D03*
X11472Y24108D03*
X11467Y24118D03*
X11462Y24128D03*
X11457Y24138D03*
X11452Y24148D03*
X11447Y24158D03*
X11567Y23673D03*
X11502Y23558D03*
X11487Y23533D03*
X11472Y23508D03*
X11467Y23498D03*
X11457Y23483D03*
X11452Y23473D03*
X11447Y23463D03*
X11442Y23458D03*
X11437Y23448D03*
X11432Y23438D03*
X11427Y23433D03*
X11422Y23423D03*
X11417Y23413D03*
X11412Y23403D03*
X11407Y23398D03*
X11407Y23393D03*
X11402Y23388D03*
X11402Y23383D03*
X11397Y23378D03*
X11392Y23373D03*
X11392Y23368D03*
X11387Y23363D03*
X11387Y23358D03*
X11382Y23353D03*
X11377Y23348D03*
X11377Y23343D03*
X11372Y23338D03*
X11372Y23333D03*
X11367Y23328D03*
X11362Y23323D03*
X11362Y23318D03*
X11357Y23313D03*
X11357Y23308D03*
X11352Y23303D03*
X11347Y23298D03*
X11347Y23293D03*
X11342Y23288D03*
X11342Y23283D03*
X11337Y23278D03*
X11332Y23273D03*
X11332Y23268D03*
X11327Y23263D03*
X11327Y23258D03*
X11322Y23253D03*
X11317Y23248D03*
X11317Y23243D03*
X11312Y23238D03*
X11312Y23233D03*
X11307Y23228D03*
X11302Y23223D03*
X11302Y23218D03*
X11297Y23213D03*
X11297Y23208D03*
X11292Y23203D03*
X11287Y23198D03*
X11287Y23193D03*
X11282Y23188D03*
X11282Y23183D03*
X11277Y23178D03*
X11272Y23173D03*
X11272Y23168D03*
X11267Y23163D03*
X11162Y23258D03*
X11162Y23263D03*
X11117Y23358D03*
X11112Y23368D03*
X11107Y23378D03*
X11102Y23388D03*
X11097Y23398D03*
X11092Y23408D03*
X11087Y23418D03*
X11002Y23583D03*
X11082Y22863D03*
X12232Y24273D03*
X12237Y24283D03*
X12237Y24288D03*
X12242Y24298D03*
X12247Y24308D03*
X12247Y24313D03*
X12252Y24323D03*
X12257Y24333D03*
X12257Y24338D03*
X12262Y24348D03*
X12262Y24353D03*
X12267Y24358D03*
X12267Y24363D03*
X12272Y24373D03*
X12272Y24378D03*
X12277Y24383D03*
X12277Y24388D03*
X12282Y24398D03*
X12282Y24403D03*
X12287Y24413D03*
X12292Y24423D03*
X12292Y24428D03*
X12297Y24438D03*
X12302Y24448D03*
X12302Y24453D03*
X12307Y24463D03*
X12312Y24473D03*
X12312Y24478D03*
X12317Y24488D03*
X12322Y24498D03*
X12322Y24503D03*
X12327Y24513D03*
X12332Y24523D03*
X12332Y24528D03*
X12337Y24538D03*
X12342Y24553D03*
X12347Y24563D03*
D228*
X12365Y24198D03*
X12000Y22868D03*
D229*
X11787Y23153D03*
X11732Y23608D03*
X11732Y23613D03*
X11272Y23158D03*
X11087Y22868D03*
X11012Y23553D03*
X11012Y23558D03*
X11402Y24233D03*
X11402Y24238D03*
D230*
X10920Y24533D03*
X12375Y24183D03*
X12000Y22873D03*
D231*
X11680Y22873D03*
X12415Y23058D03*
X12420Y23063D03*
X12670Y23578D03*
X12675Y23583D03*
X12680Y23588D03*
X12680Y24038D03*
X12675Y24043D03*
X12670Y24048D03*
X11280Y24388D03*
X10030Y23928D03*
X10025Y23923D03*
X10020Y23478D03*
X10025Y23473D03*
X10030Y23468D03*
X10035Y23463D03*
X10060Y23438D03*
X10070Y23423D03*
X10120Y22988D03*
X10125Y22983D03*
X10130Y22978D03*
D232*
X11090Y22873D03*
X11160Y23278D03*
X11160Y23283D03*
X11160Y23288D03*
X11015Y23543D03*
X11015Y23548D03*
X11565Y23658D03*
X11730Y23623D03*
X11730Y23618D03*
X11405Y24228D03*
X11285Y24353D03*
D233*
X11910Y22878D03*
D234*
X10552Y22878D03*
D235*
X11095Y22883D03*
X11160Y23298D03*
X11025Y23513D03*
X11025Y23518D03*
X11020Y23528D03*
X11565Y23648D03*
X11725Y23633D03*
X11785Y23163D03*
X11405Y24213D03*
X11405Y24218D03*
X11870Y24468D03*
D236*
X10305Y24078D03*
X10785Y22883D03*
D237*
X11935Y22888D03*
D238*
X11785Y23178D03*
X11300Y23033D03*
X11285Y23023D03*
X11265Y23008D03*
X11250Y22998D03*
X11245Y22993D03*
X11235Y22988D03*
X11180Y22948D03*
X11165Y22938D03*
X11100Y22888D03*
X11155Y23313D03*
X11030Y23493D03*
X11030Y23498D03*
X11725Y23643D03*
X11725Y23648D03*
X11405Y24203D03*
X11405Y24208D03*
X11685Y24593D03*
X12245Y24258D03*
D239*
X12327Y24228D03*
X12267Y22968D03*
X10797Y22888D03*
D240*
X11942Y22893D03*
X10922Y24488D03*
D241*
X11040Y23468D03*
X11040Y23463D03*
X11155Y23333D03*
X11155Y23328D03*
X11155Y23323D03*
X11285Y23153D03*
X11370Y23083D03*
X11225Y22983D03*
X11220Y22978D03*
X11205Y22968D03*
X11100Y22893D03*
X10840Y22933D03*
X11785Y23188D03*
X11720Y23663D03*
D242*
X11270Y24413D03*
X10655Y24438D03*
X10175Y24018D03*
X10270Y22893D03*
D243*
X11102Y22898D03*
X11377Y23093D03*
X11152Y23338D03*
X11042Y23453D03*
X11042Y23458D03*
X11562Y23623D03*
X11722Y23668D03*
X11407Y24183D03*
X11407Y24188D03*
X11282Y24363D03*
X11857Y24473D03*
X11782Y23198D03*
X11782Y23193D03*
D244*
X11347Y23123D03*
X10257Y22898D03*
X10637Y24433D03*
D245*
X11960Y22903D03*
D246*
X11757Y22983D03*
X11782Y23208D03*
X11152Y23348D03*
X11052Y23428D03*
X11047Y23438D03*
X11107Y22903D03*
X10837Y22928D03*
X11717Y23683D03*
X11717Y23688D03*
X11412Y24168D03*
X11282Y24368D03*
D247*
X10922Y24483D03*
X11967Y22908D03*
D248*
X11785Y23213D03*
X11560Y23603D03*
X11560Y23608D03*
X11715Y23693D03*
X11110Y22908D03*
D249*
X10232Y22908D03*
X10352Y24113D03*
X10617Y24423D03*
X10922Y24553D03*
X12312Y24238D03*
X12567Y24118D03*
X12562Y23503D03*
X12552Y23498D03*
X12547Y23493D03*
X12542Y23488D03*
D250*
X11782Y23218D03*
X11112Y22913D03*
D251*
X10827Y22913D03*
X11312Y23143D03*
X11767Y22973D03*
X12427Y23068D03*
X12432Y23073D03*
X12437Y23078D03*
X12682Y24033D03*
X10922Y24558D03*
X10502Y24343D03*
X10497Y24338D03*
X10492Y24333D03*
X10487Y24328D03*
X10022Y23918D03*
X10017Y23913D03*
X10012Y23908D03*
X10017Y23483D03*
X10072Y23418D03*
X10112Y22993D03*
D252*
X11985Y22918D03*
X11990Y22923D03*
D253*
X11762Y22978D03*
X11117Y22918D03*
X10037Y23113D03*
X10032Y23123D03*
X10032Y23128D03*
X10032Y23133D03*
X10027Y23143D03*
X10027Y23148D03*
X10027Y23153D03*
X10022Y23163D03*
X10022Y23168D03*
X10022Y23173D03*
X10022Y23178D03*
X10022Y23183D03*
X10017Y23223D03*
X10017Y23228D03*
X10017Y23233D03*
X10022Y23253D03*
X10022Y23258D03*
X10022Y23263D03*
X10022Y23268D03*
X10022Y23273D03*
X10027Y23278D03*
X10027Y23283D03*
X10027Y23288D03*
X10027Y23293D03*
X10032Y23298D03*
X10032Y23303D03*
X10037Y23318D03*
X9947Y23588D03*
X9942Y23603D03*
X9937Y23613D03*
X9937Y23618D03*
X9937Y23623D03*
X9932Y23633D03*
X9932Y23638D03*
X9932Y23643D03*
X9932Y23648D03*
X9927Y23663D03*
X9927Y23668D03*
X9927Y23673D03*
X9927Y23678D03*
X9927Y23683D03*
X9927Y23688D03*
X9927Y23693D03*
X9927Y23698D03*
X9927Y23703D03*
X9927Y23708D03*
X9927Y23713D03*
X9927Y23718D03*
X9927Y23723D03*
X9927Y23728D03*
X9932Y23748D03*
X9932Y23753D03*
X9932Y23758D03*
X9932Y23763D03*
X9937Y23768D03*
X9937Y23773D03*
X9937Y23778D03*
X9942Y23788D03*
X9942Y23793D03*
X10402Y24138D03*
X10402Y24143D03*
X10402Y24148D03*
X10407Y24163D03*
X10407Y24168D03*
X10407Y24173D03*
X10407Y24178D03*
X10412Y24188D03*
X10412Y24193D03*
X10412Y24198D03*
X10417Y24208D03*
X10422Y24223D03*
X12507Y23388D03*
X12512Y23378D03*
X12512Y23373D03*
X12512Y23368D03*
X12517Y23358D03*
X12517Y23353D03*
X12517Y23348D03*
X12517Y23343D03*
X12522Y23333D03*
X12522Y23328D03*
X12522Y23323D03*
X12522Y23318D03*
X12522Y23313D03*
X12522Y23308D03*
X12522Y23303D03*
X12522Y23298D03*
X12522Y23293D03*
X12522Y23288D03*
X12522Y23283D03*
X12522Y23278D03*
X12522Y23273D03*
X12522Y23268D03*
X12522Y23263D03*
X12522Y23258D03*
X12522Y23253D03*
X12517Y23238D03*
X12517Y23233D03*
X12517Y23228D03*
X12517Y23223D03*
X12512Y23218D03*
X12512Y23213D03*
X12512Y23208D03*
X12507Y23198D03*
X12762Y23718D03*
X12767Y23733D03*
X12767Y23738D03*
X12767Y23743D03*
X12772Y23748D03*
X12772Y23753D03*
X12772Y23758D03*
X12772Y23763D03*
X12777Y23773D03*
X12777Y23778D03*
X12777Y23783D03*
X12777Y23788D03*
X12777Y23793D03*
X12777Y23798D03*
X12777Y23803D03*
X12777Y23808D03*
X12777Y23813D03*
X12777Y23818D03*
X12777Y23823D03*
X12777Y23828D03*
X12777Y23833D03*
X12777Y23838D03*
X12777Y23843D03*
X12777Y23848D03*
X12772Y23863D03*
X12772Y23868D03*
X12772Y23873D03*
X12772Y23878D03*
X12767Y23883D03*
X12767Y23888D03*
X12767Y23893D03*
X12762Y23903D03*
X12762Y23908D03*
D254*
X12752Y23933D03*
X12747Y23943D03*
X12742Y23953D03*
X12737Y23963D03*
X12732Y23973D03*
X12752Y23693D03*
X12747Y23683D03*
X12742Y23673D03*
X12737Y23663D03*
X12732Y23653D03*
X12492Y23423D03*
X12497Y23413D03*
X12492Y23158D03*
X12487Y23148D03*
X12482Y23143D03*
X12477Y23133D03*
X10832Y22918D03*
X10067Y23053D03*
X10062Y23058D03*
X10062Y23063D03*
X10057Y23068D03*
X10052Y23078D03*
X10047Y23088D03*
X10047Y23343D03*
X10052Y23353D03*
X10057Y23363D03*
X10062Y23368D03*
X10067Y23378D03*
X10077Y23398D03*
X9972Y23538D03*
X9967Y23548D03*
X9962Y23553D03*
X9962Y23558D03*
X9957Y23828D03*
X9962Y23838D03*
X9967Y23843D03*
X9967Y23848D03*
X9972Y23853D03*
X9977Y23863D03*
X10437Y24253D03*
X10437Y24258D03*
X10442Y24263D03*
X10442Y24268D03*
X10447Y24273D03*
X11282Y24378D03*
D255*
X10435Y24248D03*
X10430Y24243D03*
X10430Y24238D03*
X10425Y24233D03*
X10425Y24228D03*
X10420Y24218D03*
X10420Y24213D03*
X10415Y24203D03*
X9960Y23833D03*
X9955Y23823D03*
X9955Y23818D03*
X9950Y23813D03*
X9950Y23808D03*
X9945Y23803D03*
X9945Y23798D03*
X9940Y23783D03*
X9935Y23628D03*
X9940Y23608D03*
X9945Y23598D03*
X9945Y23593D03*
X9950Y23583D03*
X9950Y23578D03*
X9955Y23573D03*
X9955Y23568D03*
X9960Y23563D03*
X10055Y23358D03*
X10050Y23348D03*
X10045Y23338D03*
X10045Y23333D03*
X10040Y23328D03*
X10040Y23323D03*
X10035Y23313D03*
X10035Y23308D03*
X10030Y23138D03*
X10035Y23118D03*
X10040Y23108D03*
X10040Y23103D03*
X10045Y23098D03*
X10045Y23093D03*
X10050Y23083D03*
X10055Y23073D03*
X11120Y22923D03*
X11370Y23098D03*
X12490Y23153D03*
X12495Y23163D03*
X12495Y23168D03*
X12500Y23173D03*
X12500Y23178D03*
X12505Y23183D03*
X12505Y23188D03*
X12505Y23193D03*
X12510Y23203D03*
X12515Y23363D03*
X12510Y23383D03*
X12505Y23393D03*
X12505Y23398D03*
X12500Y23403D03*
X12500Y23408D03*
X12495Y23418D03*
X12490Y23428D03*
X12740Y23668D03*
X12745Y23678D03*
X12750Y23688D03*
X12755Y23698D03*
X12755Y23703D03*
X12760Y23708D03*
X12760Y23713D03*
X12765Y23723D03*
X12765Y23728D03*
X12765Y23898D03*
X12760Y23913D03*
X12760Y23918D03*
X12755Y23923D03*
X12755Y23928D03*
X12750Y23938D03*
X12745Y23948D03*
X12740Y23958D03*
D256*
X12775Y23858D03*
X12775Y23853D03*
X12775Y23768D03*
X12520Y23338D03*
X12520Y23248D03*
X12520Y23243D03*
X11300Y23148D03*
X10835Y22923D03*
X10025Y23158D03*
X10020Y23188D03*
X10020Y23193D03*
X10020Y23198D03*
X10020Y23203D03*
X10020Y23208D03*
X10020Y23213D03*
X10020Y23218D03*
X10020Y23238D03*
X10020Y23243D03*
X10020Y23248D03*
X9930Y23653D03*
X9930Y23658D03*
X9930Y23733D03*
X9930Y23738D03*
X9930Y23743D03*
X10405Y24153D03*
X10405Y24158D03*
X10410Y24183D03*
X11280Y24373D03*
X11845Y24478D03*
D257*
X10922Y24478D03*
X11997Y22928D03*
D258*
X11785Y22963D03*
X11350Y23108D03*
X12345Y23003D03*
X12515Y23463D03*
X12605Y23528D03*
X12605Y24098D03*
X12300Y24243D03*
X11275Y24398D03*
X10195Y22928D03*
D259*
X10092Y23018D03*
X10087Y23023D03*
X10082Y23028D03*
X10002Y23498D03*
X9997Y23503D03*
X9992Y23508D03*
X9992Y23513D03*
X9987Y23518D03*
X9982Y23523D03*
X9987Y23878D03*
X9992Y23883D03*
X9997Y23888D03*
X9997Y23893D03*
X10467Y24303D03*
X10472Y24308D03*
X12277Y24253D03*
X12702Y24013D03*
X12707Y24008D03*
X12712Y24003D03*
X12717Y23993D03*
X12717Y23633D03*
X12712Y23623D03*
X12707Y23618D03*
X12702Y23613D03*
X12462Y23108D03*
X12457Y23103D03*
X12452Y23098D03*
X11127Y22933D03*
D260*
X10842Y22938D03*
X11157Y23303D03*
X11157Y23308D03*
X11027Y23503D03*
X11027Y23508D03*
X11562Y23638D03*
X11562Y23643D03*
X11727Y23638D03*
X11782Y23173D03*
X11782Y23168D03*
X11282Y24358D03*
D261*
X11400Y24243D03*
X11880Y24463D03*
X12190Y24148D03*
X11675Y23713D03*
X11680Y23703D03*
X11565Y23668D03*
X11565Y23663D03*
X11525Y23598D03*
X11525Y23593D03*
X11520Y23588D03*
X11515Y23583D03*
X11515Y23578D03*
X11510Y23573D03*
X11510Y23568D03*
X11505Y23563D03*
X11500Y23553D03*
X11495Y23548D03*
X11495Y23543D03*
X11490Y23538D03*
X11485Y23528D03*
X11480Y23523D03*
X11480Y23518D03*
X11475Y23513D03*
X11470Y23503D03*
X11465Y23493D03*
X11460Y23488D03*
X11455Y23478D03*
X11450Y23468D03*
X11440Y23453D03*
X11435Y23443D03*
X11425Y23428D03*
X11420Y23418D03*
X11415Y23408D03*
X11160Y23273D03*
X11160Y23268D03*
X11010Y23563D03*
X11010Y23568D03*
X11005Y23573D03*
X11005Y23578D03*
X11785Y23148D03*
X10840Y22943D03*
D262*
X12022Y22948D03*
D263*
X12030Y22953D03*
D264*
X12227Y22958D03*
X12347Y24213D03*
D265*
X10670Y24443D03*
X10325Y24093D03*
X12255Y22963D03*
D266*
X12440Y23083D03*
X12445Y23088D03*
X12450Y23093D03*
X12495Y23438D03*
X12685Y23593D03*
X12690Y23598D03*
X12695Y23603D03*
X12700Y23608D03*
X12700Y24018D03*
X12695Y24023D03*
X12690Y24028D03*
X11280Y24383D03*
X10485Y24323D03*
X10480Y24318D03*
X10475Y24313D03*
X10010Y23903D03*
X10005Y23898D03*
X10005Y23493D03*
X10010Y23488D03*
X10075Y23413D03*
X10095Y23013D03*
X10100Y23008D03*
X10105Y23003D03*
X10110Y22998D03*
D267*
X11170Y23163D03*
X11790Y23063D03*
X11750Y23508D03*
X11750Y23513D03*
X10955Y23738D03*
X10955Y23743D03*
X11285Y24343D03*
D268*
X11387Y24333D03*
X11387Y24328D03*
X11572Y23738D03*
X11572Y23733D03*
X11747Y23518D03*
X11787Y23068D03*
X11172Y23168D03*
X11172Y23173D03*
X10957Y23728D03*
X10957Y23733D03*
D269*
X10960Y23723D03*
X10960Y23718D03*
X11570Y23728D03*
X11750Y23523D03*
X11790Y23073D03*
X11170Y23178D03*
X11170Y23183D03*
X11390Y24318D03*
X11390Y24323D03*
X10925Y24563D03*
D270*
X10962Y23713D03*
X10962Y23708D03*
X10967Y23703D03*
X10967Y23698D03*
X11572Y23723D03*
X11747Y23533D03*
X11747Y23528D03*
X11787Y23083D03*
X11787Y23078D03*
D271*
X11787Y23093D03*
X11787Y23098D03*
X11742Y23548D03*
X11167Y23208D03*
X11167Y23203D03*
X11167Y23198D03*
X10972Y23678D03*
X10972Y23683D03*
X11392Y24298D03*
X11392Y24303D03*
D272*
X11410Y24178D03*
X11410Y24173D03*
X11720Y23678D03*
X11720Y23673D03*
X11560Y23618D03*
X11560Y23613D03*
X11155Y23343D03*
X11050Y23433D03*
X11045Y23443D03*
X11045Y23448D03*
X11785Y23203D03*
D273*
X11740Y23568D03*
X11740Y23573D03*
X11570Y23698D03*
X10985Y23643D03*
X10985Y23638D03*
X11165Y23228D03*
X11165Y23223D03*
X11395Y24278D03*
X11395Y24283D03*
D274*
X10272Y24053D03*
X10257Y24043D03*
X10247Y24038D03*
D275*
X10265Y24048D03*
X12360Y24203D03*
D276*
X11262Y24428D03*
X10922Y24543D03*
X10297Y24073D03*
D277*
X10312Y24083D03*
X10687Y24448D03*
X12342Y24218D03*
D278*
X12400Y24153D03*
X11690Y24558D03*
D279*
X12397Y24158D03*
D280*
X12387Y24168D03*
X10922Y24528D03*
D281*
X12385Y24173D03*
D282*
X12337Y24223D03*
D283*
X11257Y24433D03*
D284*
X11255Y24438D03*
D285*
X11247Y24443D03*
X11707Y24568D03*
D286*
X11237Y24448D03*
X10922Y24523D03*
D287*
X11015Y24453D03*
D288*
X11025Y24458D03*
D289*
X11037Y24463D03*
D290*
X11052Y24468D03*
D291*
X11070Y24473D03*
D292*
X11610Y24488D03*
X11615Y24493D03*
D293*
X10922Y24493D03*
D294*
X11620Y24498D03*
D295*
X10922Y24498D03*
D296*
X10922Y24503D03*
X11627Y24508D03*
D297*
X11637Y24518D03*
X10922Y24508D03*
D298*
X10922Y24513D03*
D299*
X10920Y24518D03*
D300*
X11645Y24523D03*
D301*
X11660Y24538D03*
D302*
X10920Y24538D03*
D303*
X11667Y24543D03*
D304*
X11682Y24553D03*
D305*
X11717Y24573D03*
D306*
X6513Y18331D02*
X6532Y18141D01*
X6596Y18120D01*
X6656Y18089D01*
X6804Y18210D01*
X6906Y18109D01*
X6785Y17960D01*
X6816Y17900D01*
X6836Y17836D01*
X7027Y17817D01*
X7027Y17673D01*
X6836Y17654D01*
X6816Y17590D01*
X6785Y17530D01*
X6906Y17381D01*
X6804Y17280D01*
X6656Y17401D01*
X6596Y17370D01*
X6511Y17574D01*
X6549Y17596D01*
X6581Y17625D01*
X6605Y17661D01*
X6620Y17702D01*
X6625Y17745D01*
X6620Y17789D01*
X6604Y17830D01*
X6579Y17867D01*
X6546Y17896D01*
X6507Y17917D01*
X6465Y17928D01*
X6421Y17928D01*
X6377Y17918D01*
X6338Y17898D01*
X6305Y17870D01*
X6279Y17834D01*
X6262Y17793D01*
X6256Y17749D01*
X6260Y17705D01*
X6275Y17663D01*
X6299Y17626D01*
X6331Y17596D01*
X6370Y17574D01*
X6285Y17370D01*
X6225Y17401D01*
X6077Y17280D01*
X5975Y17381D01*
X6096Y17530D01*
X6065Y17590D01*
X6045Y17654D01*
X5854Y17673D01*
X5854Y17817D01*
X6045Y17836D01*
X6065Y17900D01*
X6096Y17960D01*
X5975Y18109D01*
X6077Y18210D01*
X6225Y18089D01*
X6285Y18120D01*
X6349Y18141D01*
X6369Y18331D01*
X6513Y18331D01*
X6514Y18317D02*
X6367Y18317D01*
X6361Y18260D02*
X6520Y18260D01*
X6526Y18202D02*
X6356Y18202D01*
X6350Y18145D02*
X6532Y18145D01*
X6724Y18145D02*
X6870Y18145D01*
X6888Y18087D02*
X5993Y18087D01*
X6011Y18145D02*
X6158Y18145D01*
X6087Y18202D02*
X6069Y18202D01*
X6040Y18030D02*
X6841Y18030D01*
X6795Y17972D02*
X6087Y17972D01*
X6073Y17914D02*
X6370Y17914D01*
X6295Y17857D02*
X6052Y17857D01*
X5854Y17799D02*
X6265Y17799D01*
X6257Y17742D02*
X5854Y17742D01*
X5854Y17684D02*
X6268Y17684D01*
X6299Y17627D02*
X6054Y17627D01*
X6076Y17569D02*
X6368Y17569D01*
X6344Y17512D02*
X6081Y17512D01*
X6034Y17454D02*
X6320Y17454D01*
X6296Y17396D02*
X6234Y17396D01*
X6220Y17396D02*
X5987Y17396D01*
X6018Y17339D02*
X6150Y17339D01*
X6079Y17281D02*
X6075Y17281D01*
X6561Y17454D02*
X6847Y17454D01*
X6894Y17396D02*
X6661Y17396D01*
X6647Y17396D02*
X6585Y17396D01*
X6537Y17512D02*
X6800Y17512D01*
X6805Y17569D02*
X6513Y17569D01*
X6582Y17627D02*
X6828Y17627D01*
X7027Y17684D02*
X6614Y17684D01*
X6625Y17742D02*
X7027Y17742D01*
X7027Y17799D02*
X6616Y17799D01*
X6586Y17857D02*
X6830Y17857D01*
X6808Y17914D02*
X6512Y17914D01*
X6794Y18202D02*
X6812Y18202D01*
X6863Y17339D02*
X6732Y17339D01*
X6802Y17281D02*
X6806Y17281D01*
M02*
