%
M48
M72
T01C0.0236
T02C0.0320
T03C0.0394
T04C0.0400
T05C0.0472
T06C0.0512
T07C0.0591
T08C0.1300
%
T01
X9280Y6820
X10645Y7562
X9280Y8395
X10119Y8789
X10117Y9329
X8791Y9183
X11291Y11033
X11691Y10533
X12691Y9633
X13291Y9633
X14829Y10739
X14487Y11536
X14185Y12126
X13141Y12383
X11691Y12433
X10891Y12433
X10791Y11733
X9191Y12033
X8191Y11233
X7891Y11933
X7191Y11233
X4479Y8845
X3191Y9333
X3191Y12333
X9695Y14229
X9691Y14833
X14291Y14528
X16991Y12633
X16591Y11283
X17776Y10867
X18314Y10857
X16391Y10333
X18662Y9391
X19548Y8604
X17678Y7915
X17146Y7934
X16498Y7933
X17154Y8789
X13315Y7903
X19548Y13131
X9280Y16860
X10645Y17602
X9280Y18435
X10119Y18829
X10117Y19369
X8791Y19223
X11291Y21073
X11691Y20573
X12691Y19673
X13291Y19673
X14829Y20779
X14487Y21576
X14185Y22166
X13141Y22423
X11691Y22473
X10891Y22473
X10791Y21773
X9191Y22073
X8191Y21273
X7891Y21973
X7191Y21273
X4479Y18885
X3191Y19373
X3191Y22373
X9695Y24269
X9691Y24873
X14291Y24568
X16991Y22673
X16591Y21323
X17776Y20907
X18314Y20897
X16391Y20373
X18662Y19431
X19548Y18644
X17678Y17955
X17146Y17974
X16498Y17973
X17154Y18829
X13315Y17943
X19548Y23171
T02
X14770Y14061
X14770Y15061
X14770Y24101
X14770Y25101
T03
X16006Y12012
X17777Y12012
X17777Y9453
X16006Y9453
X16006Y22052
X17777Y22052
X17777Y19493
X16006Y19493
T04
X18728Y8296
X18723Y7209
X17723Y7209
X16723Y7209
X15723Y7209
X14723Y7209
X13723Y7209
X19406Y9349
X20406Y9349
X20406Y10349
X19406Y10349
X19406Y11349
X20406Y11349
X20406Y12349
X19406Y12349
X18728Y13415
X8236Y14512
X7236Y14512
X6236Y14512
X5236Y14512
X4711Y11823
X4711Y10823
X4711Y9823
X18728Y18336
X18723Y17249
X17723Y17249
X16723Y17249
X15723Y17249
X14723Y17249
X13723Y17249
X19406Y19389
X20406Y19389
X20406Y20389
X19406Y20389
X19406Y21389
X20406Y21389
X20406Y22389
X19406Y22389
X18728Y23455
X8236Y24552
X7236Y24552
X6236Y24552
X5236Y24552
X4711Y21863
X4711Y20863
X4711Y19863
T05
X3709Y8883
X2724Y8883
X5677Y10852
X3709Y12820
X2724Y12820
X3709Y18923
X2724Y18923
X5677Y20892
X3709Y22860
X2724Y22860
T06
X7591Y8961
X14410Y12898
X7591Y19001
X14410Y22938
T07
X5677Y12820
X5677Y11836
X3709Y10852
X5677Y9867
X5677Y8883
X5677Y22860
X5677Y21876
X3709Y20892
X5677Y19907
X5677Y18923
T08
X3666Y7407
X3666Y14304
X20205Y14300
X20208Y7407
X3666Y17447
X3666Y24344
X20205Y24340
X20208Y17447
M30
