G75*
G70*
%OFA0B0*%
%FSLAX24Y24*%
%IPPOS*%
%LPD*%
%AMOC8*
5,1,8,0,0,1.08239X$1,22.5*
%
%ADD10C,0.0000*%
%ADD11C,0.0000*%
%ADD12C,0.0050*%
%ADD13C,0.0060*%
%ADD14C,0.0051*%
%ADD15C,0.0110*%
%ADD16R,0.0110X0.0005*%
%ADD17R,0.0210X0.0005*%
%ADD18R,0.0280X0.0005*%
%ADD19R,0.0325X0.0005*%
%ADD20R,0.0365X0.0005*%
%ADD21R,0.0410X0.0005*%
%ADD22R,0.0440X0.0005*%
%ADD23R,0.0470X0.0005*%
%ADD24R,0.0505X0.0005*%
%ADD25R,0.0530X0.0005*%
%ADD26R,0.0555X0.0005*%
%ADD27R,0.0580X0.0005*%
%ADD28R,0.0600X0.0005*%
%ADD29R,0.0625X0.0005*%
%ADD30R,0.0645X0.0005*%
%ADD31R,0.0665X0.0005*%
%ADD32R,0.0685X0.0005*%
%ADD33R,0.0705X0.0005*%
%ADD34R,0.0715X0.0005*%
%ADD35R,0.0735X0.0005*%
%ADD36R,0.0755X0.0005*%
%ADD37R,0.0090X0.0005*%
%ADD38R,0.0770X0.0005*%
%ADD39R,0.0190X0.0005*%
%ADD40R,0.0355X0.0005*%
%ADD41R,0.0360X0.0005*%
%ADD42R,0.0260X0.0005*%
%ADD43R,0.0315X0.0005*%
%ADD44R,0.0320X0.0005*%
%ADD45R,0.0295X0.0005*%
%ADD46R,0.0275X0.0005*%
%ADD47R,0.0400X0.0005*%
%ADD48R,0.0265X0.0005*%
%ADD49R,0.0435X0.0005*%
%ADD50R,0.0255X0.0005*%
%ADD51R,0.0465X0.0005*%
%ADD52R,0.0245X0.0005*%
%ADD53R,0.0495X0.0005*%
%ADD54R,0.0235X0.0005*%
%ADD55R,0.0525X0.0005*%
%ADD56R,0.0230X0.0005*%
%ADD57R,0.0240X0.0005*%
%ADD58R,0.0545X0.0005*%
%ADD59R,0.0820X0.0005*%
%ADD60R,0.0220X0.0005*%
%ADD61R,0.0025X0.0005*%
%ADD62R,0.0795X0.0005*%
%ADD63R,0.0215X0.0005*%
%ADD64R,0.0035X0.0005*%
%ADD65R,0.0040X0.0005*%
%ADD66R,0.0800X0.0005*%
%ADD67R,0.0205X0.0005*%
%ADD68R,0.0050X0.0005*%
%ADD69R,0.0805X0.0005*%
%ADD70R,0.0165X0.0005*%
%ADD71R,0.0055X0.0005*%
%ADD72R,0.0200X0.0005*%
%ADD73R,0.0060X0.0005*%
%ADD74R,0.0300X0.0005*%
%ADD75R,0.0195X0.0005*%
%ADD76R,0.0065X0.0005*%
%ADD77R,0.0345X0.0005*%
%ADD78R,0.0070X0.0005*%
%ADD79R,0.0385X0.0005*%
%ADD80R,0.0080X0.0005*%
%ADD81R,0.0425X0.0005*%
%ADD82R,0.0185X0.0005*%
%ADD83R,0.0085X0.0005*%
%ADD84R,0.0635X0.0005*%
%ADD85R,0.0810X0.0005*%
%ADD86R,0.0095X0.0005*%
%ADD87R,0.0335X0.0005*%
%ADD88R,0.0655X0.0005*%
%ADD89R,0.0105X0.0005*%
%ADD90R,0.0290X0.0005*%
%ADD91R,0.0660X0.0005*%
%ADD92R,0.0115X0.0005*%
%ADD93R,0.0285X0.0005*%
%ADD94R,0.0120X0.0005*%
%ADD95R,0.0270X0.0005*%
%ADD96R,0.0675X0.0005*%
%ADD97R,0.0130X0.0005*%
%ADD98R,0.0680X0.0005*%
%ADD99R,0.0135X0.0005*%
%ADD100R,0.0250X0.0005*%
%ADD101R,0.0140X0.0005*%
%ADD102R,0.0180X0.0005*%
%ADD103R,0.0695X0.0005*%
%ADD104R,0.0150X0.0005*%
%ADD105R,0.0160X0.0005*%
%ADD106R,0.0155X0.0005*%
%ADD107R,0.0145X0.0005*%
%ADD108R,0.0700X0.0005*%
%ADD109R,0.0225X0.0005*%
%ADD110R,0.0170X0.0005*%
%ADD111R,0.0100X0.0005*%
%ADD112R,0.0075X0.0005*%
%ADD113R,0.0720X0.0005*%
%ADD114R,0.0725X0.0005*%
%ADD115R,0.0340X0.0005*%
%ADD116R,0.0305X0.0005*%
%ADD117R,0.0175X0.0005*%
%ADD118R,0.0005X0.0005*%
%ADD119R,0.0010X0.0005*%
%ADD120R,0.0015X0.0005*%
%ADD121R,0.0020X0.0005*%
%ADD122R,0.0030X0.0005*%
%ADD123R,0.0125X0.0005*%
%ADD124R,0.0045X0.0005*%
%ADD125R,0.0370X0.0005*%
%ADD126R,0.0375X0.0005*%
%ADD127R,0.0350X0.0005*%
%ADD128R,0.0330X0.0005*%
%ADD129R,0.0485X0.0005*%
%ADD130R,0.0480X0.0005*%
%ADD131R,0.0460X0.0005*%
%ADD132R,0.0445X0.0005*%
%ADD133R,0.0310X0.0005*%
%ADD134R,0.0380X0.0005*%
%ADD135R,0.0415X0.0005*%
%ADD136R,0.0450X0.0005*%
%ADD137R,0.0490X0.0005*%
%ADD138R,0.0965X0.0005*%
%ADD139R,0.0975X0.0005*%
%ADD140R,0.0980X0.0005*%
%ADD141R,0.0990X0.0005*%
%ADD142R,0.1005X0.0005*%
%ADD143R,0.0615X0.0005*%
%ADD144R,0.0640X0.0005*%
%ADD145R,0.0605X0.0005*%
%ADD146R,0.0620X0.0005*%
%ADD147R,0.0590X0.0005*%
%ADD148R,0.0570X0.0005*%
%ADD149R,0.0540X0.0005*%
%ADD150R,0.0515X0.0005*%
%ADD151R,0.0565X0.0005*%
%ADD152R,0.0535X0.0005*%
%ADD153R,0.0395X0.0005*%
%ADD154R,0.0520X0.0005*%
%ADD155R,0.0500X0.0005*%
%ADD156R,0.0430X0.0005*%
%ADD157C,0.0080*%
%ADD158R,0.0079X0.0079*%
%ADD159C,0.0160*%
%ADD160R,0.0230X0.0160*%
%ADD161C,0.0000*%
%ADD162C,0.0050*%
%ADD163C,0.0060*%
%ADD164C,0.0051*%
%ADD165C,0.0110*%
%ADD166R,0.0110X0.0005*%
%ADD167R,0.0210X0.0005*%
%ADD168R,0.0280X0.0005*%
%ADD169R,0.0325X0.0005*%
%ADD170R,0.0365X0.0005*%
%ADD171R,0.0410X0.0005*%
%ADD172R,0.0440X0.0005*%
%ADD173R,0.0470X0.0005*%
%ADD174R,0.0505X0.0005*%
%ADD175R,0.0530X0.0005*%
%ADD176R,0.0555X0.0005*%
%ADD177R,0.0580X0.0005*%
%ADD178R,0.0600X0.0005*%
%ADD179R,0.0625X0.0005*%
%ADD180R,0.0645X0.0005*%
%ADD181R,0.0665X0.0005*%
%ADD182R,0.0685X0.0005*%
%ADD183R,0.0705X0.0005*%
%ADD184R,0.0715X0.0005*%
%ADD185R,0.0735X0.0005*%
%ADD186R,0.0755X0.0005*%
%ADD187R,0.0090X0.0005*%
%ADD188R,0.0770X0.0005*%
%ADD189R,0.0190X0.0005*%
%ADD190R,0.0355X0.0005*%
%ADD191R,0.0360X0.0005*%
%ADD192R,0.0260X0.0005*%
%ADD193R,0.0315X0.0005*%
%ADD194R,0.0320X0.0005*%
%ADD195R,0.0295X0.0005*%
%ADD196R,0.0275X0.0005*%
%ADD197R,0.0400X0.0005*%
%ADD198R,0.0265X0.0005*%
%ADD199R,0.0435X0.0005*%
%ADD200R,0.0255X0.0005*%
%ADD201R,0.0465X0.0005*%
%ADD202R,0.0245X0.0005*%
%ADD203R,0.0495X0.0005*%
%ADD204R,0.0235X0.0005*%
%ADD205R,0.0525X0.0005*%
%ADD206R,0.0230X0.0005*%
%ADD207R,0.0240X0.0005*%
%ADD208R,0.0545X0.0005*%
%ADD209R,0.0820X0.0005*%
%ADD210R,0.0220X0.0005*%
%ADD211R,0.0025X0.0005*%
%ADD212R,0.0795X0.0005*%
%ADD213R,0.0215X0.0005*%
%ADD214R,0.0035X0.0005*%
%ADD215R,0.0040X0.0005*%
%ADD216R,0.0800X0.0005*%
%ADD217R,0.0205X0.0005*%
%ADD218R,0.0050X0.0005*%
%ADD219R,0.0805X0.0005*%
%ADD220R,0.0165X0.0005*%
%ADD221R,0.0055X0.0005*%
%ADD222R,0.0200X0.0005*%
%ADD223R,0.0060X0.0005*%
%ADD224R,0.0300X0.0005*%
%ADD225R,0.0195X0.0005*%
%ADD226R,0.0065X0.0005*%
%ADD227R,0.0345X0.0005*%
%ADD228R,0.0070X0.0005*%
%ADD229R,0.0385X0.0005*%
%ADD230R,0.0080X0.0005*%
%ADD231R,0.0425X0.0005*%
%ADD232R,0.0185X0.0005*%
%ADD233R,0.0085X0.0005*%
%ADD234R,0.0635X0.0005*%
%ADD235R,0.0810X0.0005*%
%ADD236R,0.0095X0.0005*%
%ADD237R,0.0335X0.0005*%
%ADD238R,0.0655X0.0005*%
%ADD239R,0.0105X0.0005*%
%ADD240R,0.0290X0.0005*%
%ADD241R,0.0660X0.0005*%
%ADD242R,0.0115X0.0005*%
%ADD243R,0.0285X0.0005*%
%ADD244R,0.0120X0.0005*%
%ADD245R,0.0270X0.0005*%
%ADD246R,0.0675X0.0005*%
%ADD247R,0.0130X0.0005*%
%ADD248R,0.0680X0.0005*%
%ADD249R,0.0135X0.0005*%
%ADD250R,0.0250X0.0005*%
%ADD251R,0.0140X0.0005*%
%ADD252R,0.0180X0.0005*%
%ADD253R,0.0695X0.0005*%
%ADD254R,0.0150X0.0005*%
%ADD255R,0.0160X0.0005*%
%ADD256R,0.0155X0.0005*%
%ADD257R,0.0145X0.0005*%
%ADD258R,0.0700X0.0005*%
%ADD259R,0.0225X0.0005*%
%ADD260R,0.0170X0.0005*%
%ADD261R,0.0100X0.0005*%
%ADD262R,0.0075X0.0005*%
%ADD263R,0.0720X0.0005*%
%ADD264R,0.0725X0.0005*%
%ADD265R,0.0340X0.0005*%
%ADD266R,0.0305X0.0005*%
%ADD267R,0.0175X0.0005*%
%ADD268R,0.0005X0.0005*%
%ADD269R,0.0010X0.0005*%
%ADD270R,0.0015X0.0005*%
%ADD271R,0.0020X0.0005*%
%ADD272R,0.0030X0.0005*%
%ADD273R,0.0125X0.0005*%
%ADD274R,0.0045X0.0005*%
%ADD275R,0.0370X0.0005*%
%ADD276R,0.0375X0.0005*%
%ADD277R,0.0350X0.0005*%
%ADD278R,0.0330X0.0005*%
%ADD279R,0.0485X0.0005*%
%ADD280R,0.0480X0.0005*%
%ADD281R,0.0460X0.0005*%
%ADD282R,0.0445X0.0005*%
%ADD283R,0.0310X0.0005*%
%ADD284R,0.0380X0.0005*%
%ADD285R,0.0415X0.0005*%
%ADD286R,0.0450X0.0005*%
%ADD287R,0.0490X0.0005*%
%ADD288R,0.0965X0.0005*%
%ADD289R,0.0975X0.0005*%
%ADD290R,0.0980X0.0005*%
%ADD291R,0.0990X0.0005*%
%ADD292R,0.1005X0.0005*%
%ADD293R,0.0615X0.0005*%
%ADD294R,0.0640X0.0005*%
%ADD295R,0.0605X0.0005*%
%ADD296R,0.0620X0.0005*%
%ADD297R,0.0590X0.0005*%
%ADD298R,0.0570X0.0005*%
%ADD299R,0.0540X0.0005*%
%ADD300R,0.0515X0.0005*%
%ADD301R,0.0565X0.0005*%
%ADD302R,0.0535X0.0005*%
%ADD303R,0.0395X0.0005*%
%ADD304R,0.0520X0.0005*%
%ADD305R,0.0500X0.0005*%
%ADD306R,0.0430X0.0005*%
%ADD307C,0.0080*%
%ADD308R,0.0079X0.0079*%
%ADD309C,0.0160*%
%ADD310R,0.0230X0.0160*%
D10*
X000100Y001475D02*
X000100Y001517D01*
X000100Y008368D01*
X000100Y008371D01*
X000100Y008368D02*
X000102Y008440D01*
X000108Y008512D01*
X000117Y008584D01*
X000130Y008655D01*
X000147Y008725D01*
X000167Y008794D01*
X000192Y008862D01*
X000219Y008928D01*
X000250Y008994D01*
X000285Y009057D01*
X000322Y009119D01*
X000363Y009178D01*
X000407Y009235D01*
X000454Y009290D01*
X000504Y009342D01*
X000556Y009392D01*
X000611Y009439D01*
X000668Y009483D01*
X000727Y009524D01*
X000789Y009561D01*
X000852Y009596D01*
X000918Y009627D01*
X000984Y009654D01*
X001052Y009679D01*
X001121Y009699D01*
X001191Y009716D01*
X001262Y009729D01*
X001334Y009738D01*
X001406Y009744D01*
X001478Y009746D01*
X001478Y010139D01*
X001475Y010139D01*
X001475Y009746D02*
X001478Y009746D01*
X001872Y009746D02*
X018014Y009746D01*
X018014Y010139D02*
X001872Y010139D01*
X001872Y009746D01*
X001478Y010139D02*
X001405Y010142D01*
X001332Y010149D01*
X001260Y010159D01*
X001188Y010174D01*
X001117Y010192D01*
X001047Y010214D01*
X000979Y010239D01*
X000911Y010268D01*
X000846Y010300D01*
X000782Y010336D01*
X000720Y010375D01*
X000660Y010418D01*
X000603Y010463D01*
X000548Y010511D01*
X000496Y010562D01*
X000446Y010616D01*
X000399Y010673D01*
X000356Y010731D01*
X000315Y010792D01*
X000278Y010855D01*
X000244Y010920D01*
X000213Y010986D01*
X000186Y011054D01*
X000162Y011124D01*
X000143Y011194D01*
X000127Y011266D01*
X000114Y011338D01*
X000106Y011410D01*
X000101Y011484D01*
X000100Y011557D01*
X000100Y018407D01*
X000100Y018410D01*
X000100Y018407D02*
X000102Y018479D01*
X000108Y018551D01*
X000117Y018623D01*
X000130Y018694D01*
X000147Y018764D01*
X000167Y018833D01*
X000192Y018901D01*
X000219Y018967D01*
X000250Y019033D01*
X000285Y019096D01*
X000322Y019158D01*
X000363Y019217D01*
X000407Y019274D01*
X000454Y019329D01*
X000504Y019381D01*
X000556Y019431D01*
X000611Y019478D01*
X000668Y019522D01*
X000727Y019563D01*
X000789Y019600D01*
X000852Y019635D01*
X000918Y019666D01*
X000984Y019693D01*
X001052Y019718D01*
X001121Y019738D01*
X001191Y019755D01*
X001262Y019768D01*
X001334Y019777D01*
X001406Y019783D01*
X001478Y019785D01*
X018014Y019785D01*
X018086Y019783D01*
X018158Y019777D01*
X018230Y019768D01*
X018301Y019755D01*
X018371Y019738D01*
X018440Y019718D01*
X018508Y019693D01*
X018574Y019666D01*
X018640Y019635D01*
X018703Y019600D01*
X018765Y019563D01*
X018824Y019522D01*
X018881Y019478D01*
X018936Y019431D01*
X018988Y019381D01*
X019038Y019329D01*
X019085Y019274D01*
X019129Y019217D01*
X019170Y019158D01*
X019207Y019096D01*
X019242Y019033D01*
X019273Y018967D01*
X019300Y018901D01*
X019325Y018833D01*
X019345Y018764D01*
X019362Y018694D01*
X019375Y018623D01*
X019384Y018551D01*
X019390Y018479D01*
X019392Y018407D01*
X019391Y018407D02*
X019391Y011517D01*
X019392Y011517D02*
X019390Y011445D01*
X019384Y011373D01*
X019375Y011301D01*
X019362Y011230D01*
X019345Y011160D01*
X019325Y011091D01*
X019300Y011023D01*
X019273Y010957D01*
X019242Y010891D01*
X019207Y010828D01*
X019170Y010766D01*
X019129Y010707D01*
X019085Y010650D01*
X019038Y010595D01*
X018988Y010543D01*
X018936Y010493D01*
X018881Y010446D01*
X018824Y010402D01*
X018765Y010361D01*
X018703Y010324D01*
X018640Y010289D01*
X018574Y010258D01*
X018508Y010231D01*
X018440Y010206D01*
X018371Y010186D01*
X018301Y010169D01*
X018230Y010156D01*
X018158Y010147D01*
X018086Y010141D01*
X018014Y010139D01*
X018017Y010139D01*
X018014Y009746D02*
X018086Y009744D01*
X018158Y009738D01*
X018230Y009729D01*
X018301Y009716D01*
X018371Y009699D01*
X018440Y009679D01*
X018508Y009654D01*
X018574Y009627D01*
X018640Y009596D01*
X018703Y009561D01*
X018765Y009524D01*
X018824Y009483D01*
X018881Y009439D01*
X018936Y009392D01*
X018988Y009342D01*
X019038Y009290D01*
X019085Y009235D01*
X019129Y009178D01*
X019170Y009119D01*
X019207Y009057D01*
X019242Y008994D01*
X019273Y008928D01*
X019300Y008862D01*
X019325Y008794D01*
X019345Y008725D01*
X019362Y008655D01*
X019375Y008584D01*
X019384Y008512D01*
X019390Y008440D01*
X019392Y008368D01*
X019391Y008368D02*
X019391Y001478D01*
X019392Y001478D02*
X019390Y001406D01*
X019384Y001334D01*
X019375Y001262D01*
X019362Y001191D01*
X019345Y001121D01*
X019325Y001052D01*
X019300Y000984D01*
X019273Y000918D01*
X019242Y000852D01*
X019207Y000789D01*
X019170Y000727D01*
X019129Y000668D01*
X019085Y000611D01*
X019038Y000556D01*
X018988Y000504D01*
X018936Y000454D01*
X018881Y000407D01*
X018824Y000363D01*
X018765Y000322D01*
X018703Y000285D01*
X018640Y000250D01*
X018574Y000219D01*
X018508Y000192D01*
X018440Y000167D01*
X018371Y000147D01*
X018301Y000130D01*
X018230Y000117D01*
X018158Y000108D01*
X018086Y000102D01*
X018014Y000100D01*
X018017Y000100D01*
X018014Y000100D02*
X001478Y000100D01*
X001475Y000100D01*
X001478Y000100D02*
X001405Y000103D01*
X001332Y000110D01*
X001260Y000120D01*
X001188Y000135D01*
X001117Y000153D01*
X001047Y000175D01*
X000979Y000200D01*
X000911Y000229D01*
X000846Y000261D01*
X000782Y000297D01*
X000720Y000336D01*
X000660Y000379D01*
X000603Y000424D01*
X000548Y000472D01*
X000496Y000523D01*
X000446Y000577D01*
X000399Y000634D01*
X000356Y000692D01*
X000315Y000753D01*
X000278Y000816D01*
X000244Y000881D01*
X000213Y000947D01*
X000186Y001015D01*
X000162Y001085D01*
X000143Y001155D01*
X000127Y001227D01*
X000114Y001299D01*
X000106Y001371D01*
X000101Y001445D01*
X000100Y001518D01*
X000100Y011514D02*
X000100Y011557D01*
D11*
X3666Y6033D02*
X3669Y6033D01*
X20205Y6033D01*
X20208Y6033D01*
X19558Y7407D02*
X19560Y7457D01*
X19566Y7507D01*
X19576Y7557D01*
X19589Y7605D01*
X19606Y7653D01*
X19627Y7699D01*
X19651Y7743D01*
X19679Y7785D01*
X19710Y7825D01*
X19744Y7862D01*
X19781Y7897D01*
X19820Y7928D01*
X19861Y7957D01*
X19905Y7982D01*
X19951Y8004D01*
X19998Y8022D01*
X20046Y8036D01*
X20095Y8047D01*
X20145Y8054D01*
X20195Y8057D01*
X20246Y8056D01*
X20296Y8051D01*
X20346Y8042D01*
X20394Y8030D01*
X20442Y8013D01*
X20488Y7993D01*
X20533Y7970D01*
X20576Y7943D01*
X20616Y7913D01*
X20654Y7880D01*
X20689Y7844D01*
X20722Y7805D01*
X20751Y7764D01*
X20777Y7721D01*
X20800Y7676D01*
X20819Y7629D01*
X20834Y7581D01*
X20846Y7532D01*
X20854Y7482D01*
X20858Y7432D01*
X20858Y7382D01*
X20854Y7332D01*
X20846Y7282D01*
X20834Y7233D01*
X20819Y7185D01*
X20800Y7138D01*
X20777Y7093D01*
X20751Y7050D01*
X20722Y7009D01*
X20689Y6970D01*
X20654Y6934D01*
X20616Y6901D01*
X20576Y6871D01*
X20533Y6844D01*
X20488Y6821D01*
X20442Y6801D01*
X20394Y6784D01*
X20346Y6772D01*
X20296Y6763D01*
X20246Y6758D01*
X20195Y6757D01*
X20145Y6760D01*
X20095Y6767D01*
X20046Y6778D01*
X19998Y6792D01*
X19951Y6810D01*
X19905Y6832D01*
X19861Y6857D01*
X19820Y6886D01*
X19781Y6917D01*
X19744Y6952D01*
X19710Y6989D01*
X19679Y7029D01*
X19651Y7071D01*
X19627Y7115D01*
X19606Y7161D01*
X19589Y7209D01*
X19576Y7257D01*
X19566Y7307D01*
X19560Y7357D01*
X19558Y7407D01*
X20205Y6033D02*
X20277Y6035D01*
X20349Y6041D01*
X20421Y6050D01*
X20492Y6063D01*
X20562Y6080D01*
X20631Y6100D01*
X20699Y6125D01*
X20765Y6152D01*
X20831Y6183D01*
X20894Y6218D01*
X20956Y6255D01*
X21015Y6296D01*
X21072Y6340D01*
X21127Y6387D01*
X21179Y6437D01*
X21229Y6489D01*
X21276Y6544D01*
X21320Y6601D01*
X21361Y6660D01*
X21398Y6722D01*
X21433Y6785D01*
X21464Y6851D01*
X21491Y6917D01*
X21516Y6985D01*
X21536Y7054D01*
X21553Y7124D01*
X21566Y7195D01*
X21575Y7267D01*
X21581Y7339D01*
X21583Y7411D01*
X21583Y14300D01*
X19555Y14300D02*
X19557Y14350D01*
X19563Y14400D01*
X19573Y14450D01*
X19586Y14498D01*
X19603Y14546D01*
X19624Y14592D01*
X19648Y14636D01*
X19676Y14678D01*
X19707Y14718D01*
X19741Y14755D01*
X19778Y14790D01*
X19817Y14821D01*
X19858Y14850D01*
X19902Y14875D01*
X19948Y14897D01*
X19995Y14915D01*
X20043Y14929D01*
X20092Y14940D01*
X20142Y14947D01*
X20192Y14950D01*
X20243Y14949D01*
X20293Y14944D01*
X20343Y14935D01*
X20391Y14923D01*
X20439Y14906D01*
X20485Y14886D01*
X20530Y14863D01*
X20573Y14836D01*
X20613Y14806D01*
X20651Y14773D01*
X20686Y14737D01*
X20719Y14698D01*
X20748Y14657D01*
X20774Y14614D01*
X20797Y14569D01*
X20816Y14522D01*
X20831Y14474D01*
X20843Y14425D01*
X20851Y14375D01*
X20855Y14325D01*
X20855Y14275D01*
X20851Y14225D01*
X20843Y14175D01*
X20831Y14126D01*
X20816Y14078D01*
X20797Y14031D01*
X20774Y13986D01*
X20748Y13943D01*
X20719Y13902D01*
X20686Y13863D01*
X20651Y13827D01*
X20613Y13794D01*
X20573Y13764D01*
X20530Y13737D01*
X20485Y13714D01*
X20439Y13694D01*
X20391Y13677D01*
X20343Y13665D01*
X20293Y13656D01*
X20243Y13651D01*
X20192Y13650D01*
X20142Y13653D01*
X20092Y13660D01*
X20043Y13671D01*
X19995Y13685D01*
X19948Y13703D01*
X19902Y13725D01*
X19858Y13750D01*
X19817Y13779D01*
X19778Y13810D01*
X19741Y13845D01*
X19707Y13882D01*
X19676Y13922D01*
X19648Y13964D01*
X19624Y14008D01*
X19603Y14054D01*
X19586Y14102D01*
X19573Y14150D01*
X19563Y14200D01*
X19557Y14250D01*
X19555Y14300D01*
X20205Y15678D02*
X20277Y15676D01*
X20349Y15670D01*
X20421Y15661D01*
X20492Y15648D01*
X20562Y15631D01*
X20631Y15611D01*
X20699Y15586D01*
X20765Y15559D01*
X20831Y15528D01*
X20894Y15493D01*
X20956Y15456D01*
X21015Y15415D01*
X21072Y15371D01*
X21127Y15324D01*
X21179Y15274D01*
X21229Y15222D01*
X21276Y15167D01*
X21320Y15110D01*
X21361Y15051D01*
X21398Y14989D01*
X21433Y14926D01*
X21464Y14860D01*
X21491Y14794D01*
X21516Y14726D01*
X21536Y14657D01*
X21553Y14587D01*
X21566Y14516D01*
X21575Y14444D01*
X21581Y14372D01*
X21583Y14300D01*
X20205Y15678D02*
X3669Y15678D01*
X3016Y14304D02*
X3018Y14354D01*
X3024Y14404D01*
X3034Y14454D01*
X3047Y14502D01*
X3064Y14550D01*
X3085Y14596D01*
X3109Y14640D01*
X3137Y14682D01*
X3168Y14722D01*
X3202Y14759D01*
X3239Y14794D01*
X3278Y14825D01*
X3319Y14854D01*
X3363Y14879D01*
X3409Y14901D01*
X3456Y14919D01*
X3504Y14933D01*
X3553Y14944D01*
X3603Y14951D01*
X3653Y14954D01*
X3704Y14953D01*
X3754Y14948D01*
X3804Y14939D01*
X3852Y14927D01*
X3900Y14910D01*
X3946Y14890D01*
X3991Y14867D01*
X4034Y14840D01*
X4074Y14810D01*
X4112Y14777D01*
X4147Y14741D01*
X4180Y14702D01*
X4209Y14661D01*
X4235Y14618D01*
X4258Y14573D01*
X4277Y14526D01*
X4292Y14478D01*
X4304Y14429D01*
X4312Y14379D01*
X4316Y14329D01*
X4316Y14279D01*
X4312Y14229D01*
X4304Y14179D01*
X4292Y14130D01*
X4277Y14082D01*
X4258Y14035D01*
X4235Y13990D01*
X4209Y13947D01*
X4180Y13906D01*
X4147Y13867D01*
X4112Y13831D01*
X4074Y13798D01*
X4034Y13768D01*
X3991Y13741D01*
X3946Y13718D01*
X3900Y13698D01*
X3852Y13681D01*
X3804Y13669D01*
X3754Y13660D01*
X3704Y13655D01*
X3653Y13654D01*
X3603Y13657D01*
X3553Y13664D01*
X3504Y13675D01*
X3456Y13689D01*
X3409Y13707D01*
X3363Y13729D01*
X3319Y13754D01*
X3278Y13783D01*
X3239Y13814D01*
X3202Y13849D01*
X3168Y13886D01*
X3137Y13926D01*
X3109Y13968D01*
X3085Y14012D01*
X3064Y14058D01*
X3047Y14106D01*
X3034Y14154D01*
X3024Y14204D01*
X3018Y14254D01*
X3016Y14304D01*
X2291Y14300D02*
X2293Y14372D01*
X2299Y14444D01*
X2308Y14516D01*
X2321Y14587D01*
X2338Y14657D01*
X2358Y14726D01*
X2383Y14794D01*
X2410Y14860D01*
X2441Y14926D01*
X2476Y14989D01*
X2513Y15051D01*
X2554Y15110D01*
X2598Y15167D01*
X2645Y15222D01*
X2695Y15274D01*
X2747Y15324D01*
X2802Y15371D01*
X2859Y15415D01*
X2918Y15456D01*
X2980Y15493D01*
X3043Y15528D01*
X3109Y15559D01*
X3175Y15586D01*
X3243Y15611D01*
X3312Y15631D01*
X3382Y15648D01*
X3453Y15661D01*
X3525Y15670D01*
X3597Y15676D01*
X3669Y15678D01*
X2291Y14304D02*
X2291Y14300D01*
X2291Y7450D01*
X2291Y7407D01*
X3016Y7407D02*
X3018Y7457D01*
X3024Y7507D01*
X3034Y7557D01*
X3047Y7605D01*
X3064Y7653D01*
X3085Y7699D01*
X3109Y7743D01*
X3137Y7785D01*
X3168Y7825D01*
X3202Y7862D01*
X3239Y7897D01*
X3278Y7928D01*
X3319Y7957D01*
X3363Y7982D01*
X3409Y8004D01*
X3456Y8022D01*
X3504Y8036D01*
X3553Y8047D01*
X3603Y8054D01*
X3653Y8057D01*
X3704Y8056D01*
X3754Y8051D01*
X3804Y8042D01*
X3852Y8030D01*
X3900Y8013D01*
X3946Y7993D01*
X3991Y7970D01*
X4034Y7943D01*
X4074Y7913D01*
X4112Y7880D01*
X4147Y7844D01*
X4180Y7805D01*
X4209Y7764D01*
X4235Y7721D01*
X4258Y7676D01*
X4277Y7629D01*
X4292Y7581D01*
X4304Y7532D01*
X4312Y7482D01*
X4316Y7432D01*
X4316Y7382D01*
X4312Y7332D01*
X4304Y7282D01*
X4292Y7233D01*
X4277Y7185D01*
X4258Y7138D01*
X4235Y7093D01*
X4209Y7050D01*
X4180Y7009D01*
X4147Y6970D01*
X4112Y6934D01*
X4074Y6901D01*
X4034Y6871D01*
X3991Y6844D01*
X3946Y6821D01*
X3900Y6801D01*
X3852Y6784D01*
X3804Y6772D01*
X3754Y6763D01*
X3704Y6758D01*
X3653Y6757D01*
X3603Y6760D01*
X3553Y6767D01*
X3504Y6778D01*
X3456Y6792D01*
X3409Y6810D01*
X3363Y6832D01*
X3319Y6857D01*
X3278Y6886D01*
X3239Y6917D01*
X3202Y6952D01*
X3168Y6989D01*
X3137Y7029D01*
X3109Y7071D01*
X3085Y7115D01*
X3064Y7161D01*
X3047Y7209D01*
X3034Y7257D01*
X3024Y7307D01*
X3018Y7357D01*
X3016Y7407D01*
X2291Y7450D02*
X2292Y7377D01*
X2297Y7303D01*
X2305Y7231D01*
X2318Y7159D01*
X2334Y7087D01*
X2353Y7017D01*
X2377Y6947D01*
X2404Y6879D01*
X2435Y6813D01*
X2469Y6748D01*
X2506Y6685D01*
X2547Y6624D01*
X2590Y6566D01*
X2637Y6509D01*
X2687Y6455D01*
X2739Y6404D01*
X2794Y6356D01*
X2851Y6311D01*
X2911Y6268D01*
X2973Y6229D01*
X3037Y6193D01*
X3102Y6161D01*
X3170Y6132D01*
X3238Y6107D01*
X3308Y6085D01*
X3379Y6067D01*
X3451Y6052D01*
X3523Y6042D01*
X3596Y6035D01*
X3669Y6032D01*
X3473Y8883D02*
X3475Y8913D01*
X3481Y8943D01*
X3490Y8972D01*
X3503Y8999D01*
X3520Y9024D01*
X3539Y9047D01*
X3562Y9068D01*
X3587Y9085D01*
X3613Y9099D01*
X3642Y9109D01*
X3671Y9116D01*
X3701Y9119D01*
X3732Y9118D01*
X3762Y9113D01*
X3791Y9104D01*
X3818Y9092D01*
X3844Y9077D01*
X3868Y9058D01*
X3889Y9036D01*
X3907Y9012D01*
X3922Y8985D01*
X3933Y8957D01*
X3941Y8928D01*
X3945Y8898D01*
X3945Y8868D01*
X3941Y8838D01*
X3933Y8809D01*
X3922Y8781D01*
X3907Y8754D01*
X3889Y8730D01*
X3868Y8708D01*
X3844Y8689D01*
X3818Y8674D01*
X3791Y8662D01*
X3762Y8653D01*
X3732Y8648D01*
X3701Y8647D01*
X3671Y8650D01*
X3642Y8657D01*
X3613Y8667D01*
X3587Y8681D01*
X3562Y8698D01*
X3539Y8719D01*
X3520Y8742D01*
X3503Y8767D01*
X3490Y8794D01*
X3481Y8823D01*
X3475Y8853D01*
X3473Y8883D01*
X2488Y8883D02*
X2490Y8913D01*
X2496Y8943D01*
X2505Y8972D01*
X2518Y8999D01*
X2535Y9024D01*
X2554Y9047D01*
X2577Y9068D01*
X2602Y9085D01*
X2628Y9099D01*
X2657Y9109D01*
X2686Y9116D01*
X2716Y9119D01*
X2747Y9118D01*
X2777Y9113D01*
X2806Y9104D01*
X2833Y9092D01*
X2859Y9077D01*
X2883Y9058D01*
X2904Y9036D01*
X2922Y9012D01*
X2937Y8985D01*
X2948Y8957D01*
X2956Y8928D01*
X2960Y8898D01*
X2960Y8868D01*
X2956Y8838D01*
X2948Y8809D01*
X2937Y8781D01*
X2922Y8754D01*
X2904Y8730D01*
X2883Y8708D01*
X2859Y8689D01*
X2833Y8674D01*
X2806Y8662D01*
X2777Y8653D01*
X2747Y8648D01*
X2716Y8647D01*
X2686Y8650D01*
X2657Y8657D01*
X2628Y8667D01*
X2602Y8681D01*
X2577Y8698D01*
X2554Y8719D01*
X2535Y8742D01*
X2518Y8767D01*
X2505Y8794D01*
X2496Y8823D01*
X2490Y8853D01*
X2488Y8883D01*
X5441Y10852D02*
X5443Y10882D01*
X5449Y10912D01*
X5458Y10941D01*
X5471Y10968D01*
X5488Y10993D01*
X5507Y11016D01*
X5530Y11037D01*
X5555Y11054D01*
X5581Y11068D01*
X5610Y11078D01*
X5639Y11085D01*
X5669Y11088D01*
X5700Y11087D01*
X5730Y11082D01*
X5759Y11073D01*
X5786Y11061D01*
X5812Y11046D01*
X5836Y11027D01*
X5857Y11005D01*
X5875Y10981D01*
X5890Y10954D01*
X5901Y10926D01*
X5909Y10897D01*
X5913Y10867D01*
X5913Y10837D01*
X5909Y10807D01*
X5901Y10778D01*
X5890Y10750D01*
X5875Y10723D01*
X5857Y10699D01*
X5836Y10677D01*
X5812Y10658D01*
X5786Y10643D01*
X5759Y10631D01*
X5730Y10622D01*
X5700Y10617D01*
X5669Y10616D01*
X5639Y10619D01*
X5610Y10626D01*
X5581Y10636D01*
X5555Y10650D01*
X5530Y10667D01*
X5507Y10688D01*
X5488Y10711D01*
X5471Y10736D01*
X5458Y10763D01*
X5449Y10792D01*
X5443Y10822D01*
X5441Y10852D01*
X3473Y12820D02*
X3475Y12850D01*
X3481Y12880D01*
X3490Y12909D01*
X3503Y12936D01*
X3520Y12961D01*
X3539Y12984D01*
X3562Y13005D01*
X3587Y13022D01*
X3613Y13036D01*
X3642Y13046D01*
X3671Y13053D01*
X3701Y13056D01*
X3732Y13055D01*
X3762Y13050D01*
X3791Y13041D01*
X3818Y13029D01*
X3844Y13014D01*
X3868Y12995D01*
X3889Y12973D01*
X3907Y12949D01*
X3922Y12922D01*
X3933Y12894D01*
X3941Y12865D01*
X3945Y12835D01*
X3945Y12805D01*
X3941Y12775D01*
X3933Y12746D01*
X3922Y12718D01*
X3907Y12691D01*
X3889Y12667D01*
X3868Y12645D01*
X3844Y12626D01*
X3818Y12611D01*
X3791Y12599D01*
X3762Y12590D01*
X3732Y12585D01*
X3701Y12584D01*
X3671Y12587D01*
X3642Y12594D01*
X3613Y12604D01*
X3587Y12618D01*
X3562Y12635D01*
X3539Y12656D01*
X3520Y12679D01*
X3503Y12704D01*
X3490Y12731D01*
X3481Y12760D01*
X3475Y12790D01*
X3473Y12820D01*
X2488Y12820D02*
X2490Y12850D01*
X2496Y12880D01*
X2505Y12909D01*
X2518Y12936D01*
X2535Y12961D01*
X2554Y12984D01*
X2577Y13005D01*
X2602Y13022D01*
X2628Y13036D01*
X2657Y13046D01*
X2686Y13053D01*
X2716Y13056D01*
X2747Y13055D01*
X2777Y13050D01*
X2806Y13041D01*
X2833Y13029D01*
X2859Y13014D01*
X2883Y12995D01*
X2904Y12973D01*
X2922Y12949D01*
X2937Y12922D01*
X2948Y12894D01*
X2956Y12865D01*
X2960Y12835D01*
X2960Y12805D01*
X2956Y12775D01*
X2948Y12746D01*
X2937Y12718D01*
X2922Y12691D01*
X2904Y12667D01*
X2883Y12645D01*
X2859Y12626D01*
X2833Y12611D01*
X2806Y12599D01*
X2777Y12590D01*
X2747Y12585D01*
X2716Y12584D01*
X2686Y12587D01*
X2657Y12594D01*
X2628Y12604D01*
X2602Y12618D01*
X2577Y12635D01*
X2554Y12656D01*
X2535Y12679D01*
X2518Y12704D01*
X2505Y12731D01*
X2496Y12760D01*
X2490Y12790D01*
X2488Y12820D01*
D12*
X2727Y12008D02*
X2682Y11963D01*
X2682Y11783D01*
X2727Y11738D01*
X2818Y11738D01*
X2863Y11783D01*
X2863Y11873D01*
X2772Y11873D01*
X2863Y11963D02*
X2818Y12008D01*
X2727Y12008D01*
X2977Y12008D02*
X3157Y11738D01*
X3157Y12008D01*
X3272Y12008D02*
X3407Y12008D01*
X3452Y11963D01*
X3452Y11783D01*
X3407Y11738D01*
X3272Y11738D01*
X3272Y12008D01*
X2977Y12008D02*
X2977Y11738D01*
X3017Y11058D02*
X3107Y11058D01*
X3152Y11013D01*
X3152Y10833D01*
X3107Y10788D01*
X3017Y10788D01*
X2972Y10833D01*
X2972Y11013D01*
X3017Y11058D01*
X2857Y11013D02*
X2857Y10833D01*
X2812Y10788D01*
X2677Y10788D01*
X2677Y11058D01*
X2812Y11058D01*
X2857Y11013D01*
X3062Y10878D02*
X3152Y10788D01*
X3112Y10058D02*
X3022Y10058D01*
X2977Y10013D01*
X2977Y9833D01*
X3022Y9788D01*
X3112Y9788D01*
X3157Y9833D01*
X3272Y9833D02*
X3272Y10013D01*
X3317Y10058D01*
X3407Y10058D01*
X3452Y10013D01*
X3452Y9833D02*
X3407Y9788D01*
X3317Y9788D01*
X3272Y9833D01*
X3157Y10013D02*
X3112Y10058D01*
X2863Y10058D02*
X2863Y9878D01*
X2772Y9788D01*
X2682Y9878D01*
X2682Y10058D01*
X10325Y9925D02*
X10325Y12740D01*
X12058Y12740D01*
X12058Y9925D01*
X10325Y9925D01*
X10443Y12583D02*
X10445Y12591D01*
X10450Y12598D01*
X10457Y12602D01*
X10465Y12603D01*
X10473Y12600D01*
X10479Y12595D01*
X10483Y12587D01*
X10483Y12579D01*
X10479Y12571D01*
X10473Y12566D01*
X10465Y12563D01*
X10457Y12564D01*
X10450Y12568D01*
X10445Y12575D01*
X10443Y12583D01*
X8565Y15114D02*
X8430Y15114D01*
X8430Y15384D01*
X8565Y15384D01*
X8610Y15339D01*
X8610Y15159D01*
X8565Y15114D01*
X8315Y15114D02*
X8315Y15384D01*
X8135Y15384D02*
X8135Y15114D01*
X8020Y15159D02*
X8020Y15249D01*
X7930Y15249D01*
X7840Y15159D02*
X7885Y15114D01*
X7975Y15114D01*
X8020Y15159D01*
X7840Y15159D02*
X7840Y15339D01*
X7885Y15384D01*
X7975Y15384D01*
X8020Y15339D01*
X8135Y15384D02*
X8315Y15114D01*
X7610Y15249D02*
X7430Y15249D01*
X7565Y15384D01*
X7565Y15114D01*
X7315Y15114D02*
X7135Y15114D01*
X7225Y15114D02*
X7225Y15384D01*
X7135Y15294D01*
X7020Y15249D02*
X6975Y15204D01*
X6840Y15204D01*
X6840Y15114D02*
X6840Y15384D01*
X6975Y15384D01*
X7020Y15339D01*
X7020Y15249D01*
X6608Y15204D02*
X6608Y15159D01*
X6563Y15114D01*
X6473Y15114D01*
X6428Y15159D01*
X6314Y15114D02*
X6133Y15114D01*
X6223Y15114D02*
X6223Y15384D01*
X6133Y15294D01*
X6019Y15249D02*
X5974Y15204D01*
X5839Y15204D01*
X5839Y15114D02*
X5839Y15384D01*
X5974Y15384D01*
X6019Y15339D01*
X6019Y15249D01*
X6428Y15339D02*
X6473Y15384D01*
X6563Y15384D01*
X6608Y15339D01*
X6608Y15294D01*
X6563Y15249D01*
X6608Y15204D01*
X6563Y15249D02*
X6518Y15249D01*
X5608Y15159D02*
X5563Y15114D01*
X5473Y15114D01*
X5428Y15159D01*
X5428Y15339D01*
X5473Y15384D01*
X5563Y15384D01*
X5608Y15339D01*
X5314Y15339D02*
X5268Y15384D01*
X5178Y15384D01*
X5133Y15339D01*
X5133Y15159D01*
X5178Y15114D01*
X5268Y15114D01*
X5314Y15159D01*
X5019Y15204D02*
X5019Y15384D01*
X5019Y15204D02*
X4929Y15114D01*
X4839Y15204D01*
X4839Y15384D01*
X16516Y10928D02*
X16516Y10658D01*
X16651Y10658D01*
X16697Y10703D01*
X16697Y10748D01*
X16651Y10793D01*
X16516Y10793D01*
X16516Y10928D02*
X16651Y10928D01*
X16697Y10883D01*
X16697Y10838D01*
X16651Y10793D01*
X16811Y10928D02*
X16991Y10928D01*
X16901Y10928D02*
X16901Y10658D01*
X17106Y10658D02*
X17106Y10928D01*
X17286Y10658D01*
X17286Y10928D01*
X20038Y8703D02*
X20038Y8523D01*
X20083Y8478D01*
X20174Y8478D01*
X20219Y8523D01*
X20219Y8613D01*
X20128Y8613D01*
X20038Y8703D02*
X20083Y8748D01*
X20174Y8748D01*
X20219Y8703D01*
X20333Y8748D02*
X20513Y8478D01*
X20513Y8748D01*
X20628Y8748D02*
X20763Y8748D01*
X20808Y8703D01*
X20808Y8523D01*
X20763Y8478D01*
X20628Y8478D01*
X20628Y8748D01*
X20333Y8748D02*
X20333Y8478D01*
X19357Y6608D02*
X19222Y6608D01*
X19222Y6338D01*
X19357Y6338D01*
X19402Y6383D01*
X19402Y6563D01*
X19357Y6608D01*
X19107Y6608D02*
X19107Y6338D01*
X18927Y6608D01*
X18927Y6338D01*
X18813Y6383D02*
X18813Y6473D01*
X18722Y6473D01*
X18632Y6563D02*
X18632Y6383D01*
X18677Y6338D01*
X18768Y6338D01*
X18813Y6383D01*
X18813Y6563D02*
X18768Y6608D01*
X18677Y6608D01*
X18632Y6563D01*
X18402Y6563D02*
X18357Y6608D01*
X18267Y6608D01*
X18222Y6563D01*
X18222Y6383D01*
X18267Y6338D01*
X18357Y6338D01*
X18402Y6383D01*
X18107Y6383D02*
X18062Y6338D01*
X17972Y6338D01*
X17927Y6383D01*
X17927Y6563D01*
X17972Y6608D01*
X18062Y6608D01*
X18107Y6563D01*
X17813Y6608D02*
X17813Y6428D01*
X17722Y6338D01*
X17632Y6428D01*
X17632Y6608D01*
X17402Y6563D02*
X17402Y6383D01*
X17357Y6338D01*
X17222Y6338D01*
X17222Y6608D01*
X17357Y6608D01*
X17402Y6563D01*
X17107Y6608D02*
X16927Y6338D01*
X17107Y6338D02*
X16927Y6608D01*
X16813Y6608D02*
X16632Y6608D01*
X16722Y6608D02*
X16722Y6338D01*
X16452Y6383D02*
X16452Y6563D01*
X16407Y6608D01*
X16272Y6608D01*
X16272Y6338D01*
X16407Y6338D01*
X16452Y6383D01*
X16157Y6338D02*
X15977Y6608D01*
X15863Y6563D02*
X15863Y6473D01*
X15818Y6428D01*
X15682Y6428D01*
X15682Y6338D02*
X15682Y6608D01*
X15818Y6608D01*
X15863Y6563D01*
X15772Y6428D02*
X15863Y6338D01*
X15977Y6338D02*
X16157Y6608D01*
X15452Y6608D02*
X15272Y6608D01*
X15362Y6608D02*
X15362Y6338D01*
X15157Y6383D02*
X15112Y6338D01*
X15022Y6338D01*
X14977Y6383D01*
X15022Y6473D02*
X14977Y6518D01*
X14977Y6563D01*
X15022Y6608D01*
X15112Y6608D01*
X15157Y6563D01*
X15112Y6473D02*
X15157Y6428D01*
X15157Y6383D01*
X15112Y6473D02*
X15022Y6473D01*
X14863Y6473D02*
X14863Y6563D01*
X14818Y6608D01*
X14682Y6608D01*
X14682Y6338D01*
X14682Y6428D02*
X14818Y6428D01*
X14863Y6473D01*
X14772Y6428D02*
X14863Y6338D01*
X14402Y6608D02*
X14222Y6608D01*
X14312Y6608D02*
X14312Y6338D01*
X14107Y6383D02*
X14062Y6338D01*
X13972Y6338D01*
X13927Y6383D01*
X13972Y6473D02*
X14062Y6473D01*
X14107Y6428D01*
X14107Y6383D01*
X13972Y6473D02*
X13927Y6518D01*
X13927Y6563D01*
X13972Y6608D01*
X14062Y6608D01*
X14107Y6563D01*
X13813Y6608D02*
X13632Y6608D01*
X13722Y6608D02*
X13722Y6338D01*
D13*
X12956Y6430D02*
X12729Y6430D01*
X12899Y6600D01*
X12899Y6259D01*
X12588Y6259D02*
X12474Y6373D01*
X12531Y6373D02*
X12361Y6373D01*
X12361Y6259D02*
X12361Y6600D01*
X12531Y6600D01*
X12588Y6543D01*
X12588Y6430D01*
X12531Y6373D01*
X11578Y6373D02*
X11578Y6316D01*
X11521Y6259D01*
X11408Y6259D01*
X11351Y6316D01*
X11210Y6316D02*
X11153Y6259D01*
X11040Y6259D01*
X10983Y6316D01*
X10983Y6543D01*
X11040Y6600D01*
X11153Y6600D01*
X11210Y6543D01*
X11351Y6543D02*
X11408Y6600D01*
X11521Y6600D01*
X11578Y6543D01*
X11578Y6486D01*
X11521Y6430D01*
X11578Y6373D01*
X11521Y6430D02*
X11465Y6430D01*
X10298Y6486D02*
X10242Y6430D01*
X10298Y6373D01*
X10298Y6316D01*
X10242Y6259D01*
X10128Y6259D01*
X10072Y6316D01*
X9930Y6259D02*
X9817Y6373D01*
X9873Y6373D02*
X9703Y6373D01*
X9703Y6259D02*
X9703Y6600D01*
X9873Y6600D01*
X9930Y6543D01*
X9930Y6430D01*
X9873Y6373D01*
X10072Y6543D02*
X10128Y6600D01*
X10242Y6600D01*
X10298Y6543D01*
X10298Y6486D01*
X10242Y6430D02*
X10185Y6430D01*
X8920Y6486D02*
X8920Y6543D01*
X8864Y6600D01*
X8750Y6600D01*
X8694Y6543D01*
X8552Y6543D02*
X8552Y6430D01*
X8495Y6373D01*
X8325Y6373D01*
X8325Y6259D02*
X8325Y6600D01*
X8495Y6600D01*
X8552Y6543D01*
X8439Y6373D02*
X8552Y6259D01*
X8694Y6259D02*
X8920Y6486D01*
X8920Y6259D02*
X8694Y6259D01*
X7626Y6262D02*
X7399Y6262D01*
X7513Y6262D02*
X7513Y6602D01*
X7399Y6489D01*
X7258Y6545D02*
X7258Y6432D01*
X7201Y6375D01*
X7031Y6375D01*
X7031Y6262D02*
X7031Y6602D01*
X7201Y6602D01*
X7258Y6545D01*
X7144Y6375D02*
X7258Y6262D01*
X6558Y6259D02*
X6331Y6600D01*
X6190Y6543D02*
X6190Y6430D01*
X6133Y6373D01*
X5963Y6373D01*
X5963Y6259D02*
X5963Y6600D01*
X6133Y6600D01*
X6190Y6543D01*
X6077Y6373D02*
X6190Y6259D01*
X6331Y6259D02*
X6558Y6600D01*
X5672Y6600D02*
X5446Y6259D01*
X5672Y6259D02*
X5446Y6600D01*
X5304Y6600D02*
X5077Y6600D01*
X5191Y6600D02*
X5191Y6259D01*
X6385Y9013D02*
X6385Y9353D01*
X6555Y9353D01*
X6612Y9296D01*
X6612Y9183D01*
X6555Y9126D01*
X6385Y9126D01*
X6498Y9126D02*
X6612Y9013D01*
X6753Y9069D02*
X6810Y9013D01*
X6923Y9013D01*
X6980Y9069D01*
X6980Y9126D01*
X6923Y9183D01*
X6810Y9183D01*
X6753Y9240D01*
X6753Y9296D01*
X6810Y9353D01*
X6923Y9353D01*
X6980Y9296D01*
X6980Y9240D01*
X6923Y9183D01*
X6810Y9183D02*
X6753Y9126D01*
X6753Y9069D01*
X7991Y9060D02*
X8048Y9003D01*
X8161Y9003D01*
X8218Y9060D01*
X8359Y9060D02*
X8416Y9003D01*
X8529Y9003D01*
X8586Y9060D01*
X8586Y9117D01*
X8529Y9173D01*
X8359Y9173D01*
X8359Y9060D01*
X8359Y9173D02*
X8473Y9287D01*
X8586Y9343D01*
X8218Y9287D02*
X8161Y9343D01*
X8048Y9343D01*
X7991Y9287D01*
X7991Y9060D01*
X9031Y9015D02*
X9031Y9356D01*
X9201Y9356D01*
X9258Y9299D01*
X9258Y9186D01*
X9201Y9129D01*
X9031Y9129D01*
X9144Y9129D02*
X9258Y9015D01*
X9399Y9015D02*
X9399Y9072D01*
X9626Y9299D01*
X9626Y9356D01*
X9399Y9356D01*
X10598Y9246D02*
X10598Y9586D01*
X10712Y9472D01*
X10825Y9586D01*
X10825Y9246D01*
X10967Y9302D02*
X11024Y9359D01*
X11194Y9359D01*
X11194Y9416D02*
X11194Y9246D01*
X11024Y9246D01*
X10967Y9302D01*
X11024Y9472D02*
X11137Y9472D01*
X11194Y9416D01*
X11335Y9416D02*
X11392Y9472D01*
X11562Y9472D01*
X11562Y9189D01*
X11505Y9132D01*
X11449Y9132D01*
X11392Y9246D02*
X11562Y9246D01*
X11703Y9246D02*
X11817Y9246D01*
X11760Y9246D02*
X11760Y9472D01*
X11703Y9472D01*
X11760Y9586D02*
X11760Y9643D01*
X11949Y9416D02*
X12006Y9472D01*
X12176Y9472D01*
X12176Y9246D02*
X12006Y9246D01*
X11949Y9302D01*
X11949Y9416D01*
X11751Y8872D02*
X11808Y8816D01*
X11808Y8759D01*
X11581Y8759D01*
X11581Y8702D02*
X11581Y8816D01*
X11637Y8872D01*
X11751Y8872D01*
X11751Y8646D02*
X11637Y8646D01*
X11581Y8702D01*
X11449Y8646D02*
X11392Y8702D01*
X11392Y8929D01*
X11335Y8872D02*
X11449Y8872D01*
X11194Y8816D02*
X11194Y8702D01*
X11137Y8646D01*
X11024Y8646D01*
X10967Y8702D01*
X10967Y8816D01*
X11024Y8872D01*
X11137Y8872D01*
X11194Y8816D01*
X10825Y8986D02*
X10825Y8646D01*
X10598Y8646D02*
X10598Y8986D01*
X10712Y8872D01*
X10825Y8986D01*
X11335Y9302D02*
X11392Y9246D01*
X11335Y9302D02*
X11335Y9416D01*
X11346Y10230D02*
X11572Y10230D01*
X11459Y10230D02*
X11459Y10570D01*
X11346Y10457D01*
X11204Y10514D02*
X11204Y10287D01*
X11147Y10230D01*
X11034Y10230D01*
X10977Y10287D01*
X10977Y10514D01*
X11034Y10570D01*
X11147Y10570D01*
X11204Y10514D01*
X11091Y10343D02*
X11204Y10230D01*
X8701Y11887D02*
X8701Y11944D01*
X8644Y12001D01*
X8474Y12001D01*
X8474Y11887D01*
X8531Y11831D01*
X8644Y11831D01*
X8701Y11887D01*
X8588Y12114D02*
X8474Y12001D01*
X8333Y12001D02*
X8276Y11944D01*
X8106Y11944D01*
X8106Y11831D02*
X8106Y12171D01*
X8276Y12171D01*
X8333Y12114D01*
X8333Y12001D01*
X8219Y11944D02*
X8333Y11831D01*
X8588Y12114D02*
X8701Y12171D01*
X7480Y12096D02*
X7480Y11869D01*
X7423Y11813D01*
X7310Y11813D01*
X7253Y11869D01*
X7310Y11983D02*
X7480Y11983D01*
X7480Y12096D02*
X7423Y12153D01*
X7310Y12153D01*
X7253Y12096D01*
X7253Y12040D01*
X7310Y11983D01*
X7112Y11983D02*
X7055Y11926D01*
X6885Y11926D01*
X6998Y11926D02*
X7112Y11813D01*
X7112Y11983D02*
X7112Y12096D01*
X7055Y12153D01*
X6885Y12153D01*
X6885Y11813D01*
X8817Y13881D02*
X8817Y14221D01*
X8988Y14221D01*
X9044Y14164D01*
X9044Y14051D01*
X8988Y13994D01*
X8817Y13994D01*
X8931Y13994D02*
X9044Y13881D01*
X9186Y13937D02*
X9242Y13881D01*
X9356Y13881D01*
X9413Y13937D01*
X9413Y14051D01*
X9356Y14108D01*
X9299Y14108D01*
X9186Y14051D01*
X9186Y14221D01*
X9413Y14221D01*
X9841Y13503D02*
X9785Y13446D01*
X9785Y13219D01*
X9841Y13163D01*
X9955Y13163D01*
X10012Y13219D01*
X10153Y13163D02*
X10380Y13163D01*
X10266Y13163D02*
X10266Y13503D01*
X10153Y13390D01*
X10012Y13446D02*
X9955Y13503D01*
X9841Y13503D01*
X10878Y14913D02*
X10992Y14913D01*
X11048Y14969D01*
X11190Y14913D02*
X11417Y15140D01*
X11417Y15196D01*
X11360Y15253D01*
X11246Y15253D01*
X11190Y15196D01*
X11048Y15196D02*
X10992Y15253D01*
X10878Y15253D01*
X10821Y15196D01*
X10821Y14969D01*
X10878Y14913D01*
X11190Y14913D02*
X11417Y14913D01*
X13071Y14969D02*
X13128Y14913D01*
X13242Y14913D01*
X13298Y14969D01*
X13440Y15083D02*
X13667Y15083D01*
X13610Y14913D02*
X13610Y15253D01*
X13440Y15083D01*
X13298Y15196D02*
X13242Y15253D01*
X13128Y15253D01*
X13071Y15196D01*
X13071Y14969D01*
X15420Y15111D02*
X15420Y14011D01*
X15570Y14011D01*
X15570Y15111D01*
X15570Y15161D01*
X18570Y15161D01*
X18587Y15159D01*
X18604Y15155D01*
X18620Y15148D01*
X18634Y15138D01*
X18647Y15125D01*
X18657Y15111D01*
X18664Y15095D01*
X18668Y15078D01*
X18670Y15061D01*
X18670Y14061D01*
X18668Y14044D01*
X18664Y14027D01*
X18657Y14011D01*
X18647Y13997D01*
X18634Y13984D01*
X18620Y13974D01*
X18604Y13967D01*
X18587Y13963D01*
X18570Y13961D01*
X15570Y13961D01*
X15570Y14011D01*
X16470Y14561D02*
X16670Y14561D01*
X16670Y14261D01*
X16820Y14261D02*
X16970Y14261D01*
X16970Y14861D01*
X16820Y14861D01*
X16820Y14261D01*
X17120Y14261D02*
X17120Y14561D01*
X17320Y14561D01*
X17120Y14561D02*
X17120Y14861D01*
X16670Y14861D02*
X16670Y14561D01*
X17650Y14448D02*
X17706Y14391D01*
X17820Y14391D01*
X17877Y14448D01*
X17877Y14675D01*
X17820Y14732D01*
X17706Y14732D01*
X17650Y14675D01*
X17650Y14448D01*
X17763Y14505D02*
X17877Y14391D01*
X18018Y14562D02*
X18245Y14562D01*
X18188Y14732D02*
X18188Y14391D01*
X18018Y14562D02*
X18188Y14732D01*
X18228Y13915D02*
X18228Y13715D01*
X18228Y13915D02*
X18428Y13915D01*
X19028Y13915D02*
X19228Y13915D01*
X19228Y13715D01*
X19228Y13115D02*
X19228Y12915D01*
X19028Y12915D01*
X19156Y12849D02*
X18906Y12599D01*
X18906Y12099D01*
X19156Y11849D01*
X18906Y11599D01*
X18906Y11099D01*
X19156Y10849D01*
X18906Y10599D01*
X18906Y10099D01*
X19156Y9849D01*
X18906Y9599D01*
X18906Y9099D01*
X19156Y8849D01*
X20656Y8849D01*
X20906Y9099D01*
X20906Y9599D01*
X20656Y9849D01*
X20906Y10099D01*
X20906Y10599D01*
X20656Y10849D01*
X20906Y11099D01*
X20906Y11599D01*
X20656Y11849D01*
X20906Y12099D01*
X20906Y12599D01*
X20656Y12849D01*
X19156Y12849D01*
X18428Y12915D02*
X18228Y12915D01*
X18228Y13115D01*
X21103Y12218D02*
X21330Y12218D01*
X21217Y12331D02*
X21217Y12104D01*
X21387Y11963D02*
X21387Y11736D01*
X21387Y11849D02*
X21046Y11849D01*
X21160Y11736D01*
X21103Y11595D02*
X21330Y11368D01*
X21387Y11424D01*
X21387Y11538D01*
X21330Y11595D01*
X21103Y11595D01*
X21046Y11538D01*
X21046Y11424D01*
X21103Y11368D01*
X21330Y11368D01*
X21387Y11226D02*
X21387Y10999D01*
X21046Y10999D01*
X21046Y10801D02*
X21217Y10631D01*
X21217Y10858D01*
X21387Y10801D02*
X21046Y10801D01*
X21103Y10490D02*
X21046Y10433D01*
X21046Y10319D01*
X21103Y10263D01*
X21046Y10121D02*
X21046Y9894D01*
X21387Y9894D01*
X21387Y9753D02*
X21273Y9640D01*
X21273Y9696D02*
X21273Y9526D01*
X21387Y9526D02*
X21046Y9526D01*
X21046Y9696D01*
X21103Y9753D01*
X21217Y9753D01*
X21273Y9696D01*
X21217Y9894D02*
X21217Y10008D01*
X21387Y10263D02*
X21160Y10490D01*
X21103Y10490D01*
X21387Y10490D02*
X21387Y10263D01*
X21387Y9385D02*
X21046Y9385D01*
X21046Y9158D02*
X21387Y9385D01*
X21387Y9158D02*
X21046Y9158D01*
X19228Y8796D02*
X19028Y8796D01*
X19228Y8796D02*
X19228Y8596D01*
X19228Y7996D02*
X19228Y7796D01*
X19028Y7796D01*
X18428Y7796D02*
X18228Y7796D01*
X18228Y7996D01*
X18228Y8596D02*
X18228Y8796D01*
X18428Y8796D01*
X13630Y12669D02*
X13573Y12613D01*
X13460Y12613D01*
X13403Y12669D01*
X13403Y12783D02*
X13516Y12840D01*
X13573Y12840D01*
X13630Y12783D01*
X13630Y12669D01*
X13403Y12783D02*
X13403Y12953D01*
X13630Y12953D01*
X13262Y12896D02*
X13205Y12953D01*
X13091Y12953D01*
X13035Y12896D01*
X13035Y12669D01*
X13091Y12613D01*
X13205Y12613D01*
X13262Y12669D01*
X15420Y15111D02*
X15570Y15111D01*
D14*
X-266Y6024D02*
X-255Y1163D01*
X-315Y5000D02*
X-266Y6024D01*
X-366Y5000D01*
X-389Y5000D02*
X-266Y6024D01*
X-161Y5000D01*
X-138Y5000D02*
X-389Y5000D01*
X-212Y5000D02*
X-266Y6024D01*
X-138Y5000D01*
X-1053Y6022D02*
X3669Y6033D01*
X3666Y7407D02*
X-1056Y7397D01*
X-269Y7398D02*
X-374Y8422D01*
X-397Y8422D02*
X-269Y7398D01*
X-169Y8422D01*
X-146Y8422D02*
X-397Y8422D01*
X-323Y8422D02*
X-269Y7398D01*
X-220Y8422D01*
X-146Y8422D02*
X-269Y7398D01*
X-274Y9446D01*
X2291Y14300D02*
X2291Y19418D01*
X2291Y18631D02*
X3315Y18733D01*
X3315Y18757D02*
X3315Y18505D01*
X2291Y18631D01*
X3315Y18529D01*
X3315Y18580D02*
X2291Y18631D01*
X3315Y18682D01*
X3315Y18757D02*
X2291Y18631D01*
X21583Y18631D01*
X20559Y18529D01*
X20559Y18505D02*
X21583Y18631D01*
X20559Y18733D01*
X20559Y18757D02*
X20559Y18505D01*
X20559Y18580D02*
X21583Y18631D01*
X20559Y18682D01*
X20559Y18757D02*
X21583Y18631D01*
X21583Y19418D02*
X21583Y14300D01*
X21583Y13415D02*
X25913Y13415D01*
X25126Y13415D02*
X25228Y12391D01*
X25252Y12391D02*
X25126Y13415D01*
X25024Y12391D01*
X25000Y12391D02*
X25252Y12391D01*
X25177Y12391D02*
X25126Y13415D01*
X25075Y12391D01*
X25000Y12391D02*
X25126Y13415D01*
X25126Y8296D01*
X25228Y9320D01*
X25252Y9320D02*
X25126Y8296D01*
X25024Y9320D01*
X25000Y9320D02*
X25252Y9320D01*
X25177Y9320D02*
X25126Y8296D01*
X25075Y9320D01*
X25000Y9320D02*
X25126Y8296D01*
X25913Y8296D02*
X21583Y8296D01*
X20598Y6033D02*
X29850Y6033D01*
X29063Y6033D02*
X29165Y7056D01*
X29189Y7056D02*
X29063Y6033D01*
X28961Y7056D01*
X28937Y7056D02*
X29189Y7056D01*
X29114Y7056D02*
X29063Y6033D01*
X29012Y7056D01*
X28937Y7056D02*
X29063Y6033D01*
X29063Y15678D01*
X29165Y14655D01*
X29189Y14655D02*
X29063Y15678D01*
X28961Y14655D01*
X28937Y14655D02*
X29189Y14655D01*
X29114Y14655D02*
X29063Y15678D01*
X29012Y14655D01*
X28937Y14655D02*
X29063Y15678D01*
X29850Y15678D02*
X20598Y15678D01*
D15*
X23620Y11929D02*
X23831Y11929D01*
X24043Y11717D01*
X24254Y11929D01*
X24466Y11929D01*
X24677Y11717D01*
X24677Y11294D01*
X24466Y11083D01*
X24677Y10660D02*
X24677Y9814D01*
X24677Y10237D02*
X23408Y10237D01*
X23831Y9814D01*
X23620Y11083D02*
X23408Y11294D01*
X23408Y11717D01*
X23620Y11929D01*
X24043Y11717D02*
X24043Y11506D01*
X27345Y10895D02*
X27980Y10261D01*
X27980Y11107D01*
X28614Y10895D02*
X27345Y10895D01*
X28403Y11529D02*
X28403Y11741D01*
X28614Y11741D01*
X28614Y11529D01*
X28403Y11529D01*
X28403Y12164D02*
X28614Y12375D01*
X28614Y12798D01*
X28403Y13010D01*
X27980Y13010D01*
X27768Y12798D01*
X27768Y12587D01*
X27980Y12164D01*
X27345Y12164D01*
X27345Y13010D01*
X27557Y9838D02*
X27345Y9626D01*
X27345Y9203D01*
X27557Y8992D01*
X27768Y9838D02*
X28614Y8992D01*
X28614Y9838D01*
X27768Y9838D02*
X27557Y9838D01*
X13010Y19291D02*
X13010Y20137D01*
X12799Y20349D01*
X12376Y20349D01*
X12164Y20137D01*
X12164Y19926D01*
X12376Y19714D01*
X13010Y19714D01*
X13010Y19291D02*
X12799Y19080D01*
X12376Y19080D01*
X12164Y19291D01*
X11742Y19714D02*
X10896Y19714D01*
X11530Y20349D01*
X11530Y19080D01*
X1243Y4948D02*
X1455Y4737D01*
X1455Y4314D01*
X1244Y4102D01*
X1033Y4101D01*
X821Y4313D01*
X610Y4101D01*
X398Y4100D01*
X186Y4311D01*
X186Y4735D01*
X397Y4946D01*
X821Y4524D02*
X821Y4313D01*
X399Y3678D02*
X187Y3677D01*
X188Y3466D01*
X399Y3466D01*
X399Y3678D01*
X823Y3044D02*
X825Y2198D01*
X1037Y1775D02*
X826Y1564D01*
X827Y929D01*
X404Y928D02*
X1250Y930D01*
X1461Y1142D01*
X1460Y1565D01*
X1248Y1776D01*
X1037Y1775D01*
X402Y1774D02*
X191Y1563D01*
X192Y1139D01*
X404Y928D01*
X190Y2408D02*
X1459Y2411D01*
X823Y3044D01*
D16*
X13678Y10316D03*
X13648Y10511D03*
X14053Y10416D03*
X14068Y10406D03*
X14073Y10401D03*
X14083Y10396D03*
X14088Y10391D03*
X14098Y10386D03*
X14103Y10381D03*
X14108Y10376D03*
X14118Y10371D03*
X14123Y10366D03*
X14138Y10356D03*
X14153Y10346D03*
X14158Y10341D03*
X14173Y10331D03*
X14218Y10301D03*
X14233Y10291D03*
X14238Y10286D03*
X14243Y10281D03*
X14258Y10271D03*
X14153Y9996D03*
X14273Y10646D03*
X14393Y10801D03*
X14393Y10806D03*
X14398Y10811D03*
X14398Y10816D03*
X13868Y10956D03*
X13868Y10961D03*
X13708Y10981D03*
X13708Y10986D03*
X14023Y11521D03*
X14023Y11526D03*
D17*
X14153Y11721D03*
X13743Y11916D03*
X12803Y11411D03*
X12803Y10871D03*
X12808Y10866D03*
X13063Y10346D03*
X13793Y10166D03*
X14153Y10001D03*
X15258Y10271D03*
X15343Y11301D03*
X15058Y11451D03*
D18*
X15093Y11431D03*
X13743Y11911D03*
X12898Y11461D03*
X14428Y10121D03*
X14153Y10006D03*
D19*
X14155Y10011D03*
X15125Y10211D03*
X14165Y11751D03*
X13745Y11906D03*
D20*
X15150Y11386D03*
X14155Y10016D03*
D21*
X14153Y10021D03*
X13058Y11516D03*
D22*
X13048Y11506D03*
X14153Y10026D03*
D23*
X14153Y10031D03*
X13038Y11491D03*
D24*
X13755Y11876D03*
X14155Y10036D03*
D25*
X14153Y10041D03*
D26*
X14155Y10046D03*
X13780Y11856D03*
D27*
X13798Y11841D03*
X14153Y10051D03*
D28*
X14153Y10056D03*
X13808Y11831D03*
D29*
X14155Y10061D03*
D30*
X14155Y10066D03*
X13510Y10211D03*
D31*
X13480Y10226D03*
X14155Y10071D03*
D32*
X14155Y10076D03*
X13455Y10241D03*
D33*
X13425Y10261D03*
X14155Y10081D03*
D34*
X14155Y10086D03*
X13420Y10266D03*
X13415Y10271D03*
D35*
X14155Y10091D03*
D36*
X14155Y10096D03*
D37*
X14338Y10206D03*
X14273Y10621D03*
X14408Y10851D03*
X14413Y10861D03*
X14413Y10866D03*
X13868Y10981D03*
X13703Y10956D03*
X13648Y10486D03*
X13683Y10321D03*
X14888Y10096D03*
X14028Y11551D03*
D38*
X14153Y10101D03*
D39*
X14073Y10431D03*
X14888Y10101D03*
X15363Y10756D03*
X15368Y10761D03*
X15373Y10771D03*
X15378Y10776D03*
X15383Y10781D03*
X15388Y10786D03*
X15393Y11261D03*
X15388Y11266D03*
X15383Y11271D03*
X15048Y11456D03*
X14923Y11676D03*
X14918Y11681D03*
X14913Y11686D03*
X12933Y10771D03*
X12773Y10896D03*
X12768Y10901D03*
X12768Y11381D03*
X12773Y11386D03*
X13018Y10381D03*
X13023Y10376D03*
D40*
X13940Y10106D03*
X14890Y10116D03*
X15135Y11396D03*
D41*
X15143Y11391D03*
X15193Y11361D03*
X13958Y11811D03*
X13078Y11536D03*
X12958Y11476D03*
X14368Y10106D03*
D42*
X14888Y10106D03*
X15188Y10231D03*
X15083Y11436D03*
X14803Y11756D03*
X14158Y11736D03*
X13133Y10306D03*
D43*
X13910Y10111D03*
X14400Y10111D03*
X13990Y11806D03*
D44*
X12933Y11471D03*
X14888Y10111D03*
X15223Y11356D03*
X15113Y11416D03*
D45*
X15100Y11426D03*
X15240Y11351D03*
X14415Y10116D03*
X13895Y10116D03*
X12915Y11466D03*
D46*
X13110Y11561D03*
X13150Y10301D03*
X13625Y10286D03*
X13880Y10121D03*
X14080Y10456D03*
D47*
X14888Y10121D03*
X13063Y11521D03*
D48*
X12885Y11456D03*
X14090Y10446D03*
X13865Y10126D03*
X14445Y10126D03*
X14625Y10221D03*
X15270Y11341D03*
D49*
X14890Y10126D03*
D50*
X14455Y10131D03*
X14090Y10441D03*
X13855Y10131D03*
X13125Y10311D03*
X12875Y11451D03*
X15280Y11336D03*
D51*
X13730Y11891D03*
X14890Y10131D03*
D52*
X14465Y10136D03*
X13845Y10136D03*
X13115Y10316D03*
X12900Y10806D03*
X12895Y10811D03*
X12860Y10836D03*
X14825Y11746D03*
X15290Y11331D03*
D53*
X14890Y10136D03*
D54*
X14475Y10141D03*
X13835Y10141D03*
X13430Y10181D03*
X13095Y10326D03*
X12910Y10796D03*
X12905Y10801D03*
X12845Y11436D03*
X14835Y11741D03*
X15310Y11321D03*
D55*
X14890Y10141D03*
D56*
X15218Y10246D03*
X15228Y10251D03*
X13828Y10146D03*
X13818Y10151D03*
X12843Y10846D03*
X12833Y10851D03*
X12833Y11431D03*
X14843Y11736D03*
X15068Y11446D03*
X15318Y11316D03*
D57*
X15303Y11326D03*
X14158Y11731D03*
X12853Y11441D03*
X12853Y10841D03*
X13103Y10321D03*
X14093Y10461D03*
X14483Y10146D03*
X14618Y10226D03*
X15208Y10241D03*
D58*
X14890Y10146D03*
X13775Y11861D03*
D59*
X14768Y10151D03*
D60*
X15243Y10261D03*
X13808Y10156D03*
X13078Y10336D03*
X12818Y11421D03*
X14853Y11731D03*
X14858Y11726D03*
X15328Y11311D03*
D61*
X14460Y11021D03*
X14460Y11016D03*
X14260Y10521D03*
X14260Y10516D03*
X14365Y10156D03*
X13640Y10416D03*
X13685Y10866D03*
X13685Y10871D03*
X13860Y11046D03*
X14040Y11636D03*
X14040Y11641D03*
D62*
X14790Y10156D03*
X14800Y10161D03*
D63*
X14610Y10231D03*
X14105Y10466D03*
X13800Y10161D03*
X13070Y10341D03*
X12920Y10786D03*
X12815Y10861D03*
X12810Y11416D03*
X14865Y11721D03*
X15335Y11306D03*
X15250Y10266D03*
D64*
X14360Y10161D03*
X13685Y10331D03*
X13685Y10881D03*
X13860Y11036D03*
X13860Y11041D03*
X14450Y10986D03*
X14455Y10996D03*
X14455Y11001D03*
X14035Y11621D03*
D65*
X14038Y11616D03*
X13863Y11031D03*
X13688Y10891D03*
X13688Y10886D03*
X13643Y10436D03*
X13643Y10431D03*
X14263Y10541D03*
X14263Y10546D03*
X14588Y10276D03*
X14358Y10166D03*
X14448Y10976D03*
X14448Y10981D03*
X14453Y10991D03*
D66*
X14838Y10181D03*
X14828Y10176D03*
X14808Y10166D03*
D67*
X15265Y10276D03*
X15270Y10281D03*
X15350Y11296D03*
X14880Y11711D03*
X14875Y11716D03*
X12925Y10781D03*
X12795Y10876D03*
X13055Y10351D03*
X13780Y10176D03*
X13785Y10171D03*
X12795Y11406D03*
D68*
X13693Y10906D03*
X13863Y11021D03*
X14443Y10961D03*
X14443Y10956D03*
X14033Y11601D03*
X13643Y10451D03*
X13643Y10446D03*
X13643Y10441D03*
X14358Y10171D03*
D69*
X14820Y10171D03*
X14845Y10186D03*
X14855Y10191D03*
X14860Y10196D03*
X14870Y10201D03*
D70*
X15350Y10361D03*
X15355Y10366D03*
X15355Y10371D03*
X15360Y10376D03*
X15365Y10701D03*
X15360Y10711D03*
X15355Y10716D03*
X15355Y10721D03*
X15350Y10731D03*
X15350Y10736D03*
X15450Y10856D03*
X15455Y10861D03*
X15460Y10871D03*
X15455Y11186D03*
X15450Y11196D03*
X15445Y11201D03*
X15035Y11461D03*
X14980Y11606D03*
X14975Y11611D03*
X14975Y11616D03*
X14970Y11621D03*
X14965Y11626D03*
X12940Y10761D03*
X12715Y10956D03*
X12710Y10966D03*
X12705Y10971D03*
X12700Y10976D03*
X12695Y10986D03*
X12695Y11296D03*
X12700Y11306D03*
X12705Y11311D03*
X12710Y11316D03*
X12715Y11326D03*
X12950Y10466D03*
X12955Y10456D03*
X12960Y10451D03*
X12960Y10446D03*
X12965Y10441D03*
X13430Y10176D03*
X14305Y10256D03*
D71*
X14355Y10176D03*
X14265Y10561D03*
X14265Y10566D03*
X14435Y10936D03*
X14435Y10941D03*
X14440Y10946D03*
X14440Y10951D03*
X13865Y11016D03*
X13690Y10911D03*
X13575Y11606D03*
X13570Y11636D03*
X13565Y11666D03*
X13560Y11696D03*
X13555Y11721D03*
X13555Y11726D03*
X13550Y11751D03*
X13550Y11756D03*
X13545Y11781D03*
X13545Y11786D03*
X13525Y11906D03*
X13525Y11911D03*
X14035Y11596D03*
D72*
X13613Y11811D03*
X13143Y11576D03*
X12788Y11401D03*
X12783Y11396D03*
X12783Y10886D03*
X12788Y10881D03*
X12928Y10776D03*
X13043Y10361D03*
X13048Y10356D03*
X13653Y10296D03*
X13773Y10181D03*
X14608Y10236D03*
X15278Y10286D03*
X15363Y11286D03*
X15358Y11291D03*
X14888Y11706D03*
D73*
X14088Y11346D03*
X14093Y11326D03*
X14098Y11306D03*
X14103Y11281D03*
X14108Y11261D03*
X14113Y11241D03*
X14118Y11216D03*
X14123Y11196D03*
X14128Y11176D03*
X14133Y11151D03*
X14138Y11131D03*
X14143Y11111D03*
X14148Y11086D03*
X14153Y11066D03*
X14158Y11046D03*
X14163Y11021D03*
X14168Y11001D03*
X14173Y10981D03*
X14178Y10956D03*
X14183Y10936D03*
X14188Y10916D03*
X14193Y10891D03*
X14198Y10871D03*
X14203Y10851D03*
X14208Y10826D03*
X14213Y10806D03*
X14218Y10786D03*
X14223Y10761D03*
X14228Y10746D03*
X14228Y10741D03*
X14233Y10731D03*
X14233Y10726D03*
X14233Y10721D03*
X14238Y10706D03*
X14238Y10701D03*
X14238Y10696D03*
X14243Y10686D03*
X14243Y10681D03*
X14268Y10576D03*
X14268Y10571D03*
X14388Y10536D03*
X14388Y10531D03*
X14388Y10526D03*
X14388Y10521D03*
X14383Y10511D03*
X14383Y10506D03*
X14383Y10501D03*
X14383Y10496D03*
X14383Y10491D03*
X14383Y10486D03*
X14383Y10481D03*
X14383Y10476D03*
X14383Y10471D03*
X14378Y10466D03*
X14378Y10461D03*
X14378Y10456D03*
X14378Y10451D03*
X14378Y10446D03*
X14378Y10441D03*
X14378Y10436D03*
X14378Y10431D03*
X14378Y10426D03*
X14378Y10421D03*
X14373Y10416D03*
X14373Y10411D03*
X14373Y10406D03*
X14373Y10401D03*
X14373Y10396D03*
X14373Y10391D03*
X14373Y10386D03*
X14373Y10381D03*
X14373Y10376D03*
X14373Y10371D03*
X14368Y10366D03*
X14368Y10361D03*
X14368Y10356D03*
X14368Y10351D03*
X14368Y10346D03*
X14368Y10341D03*
X14368Y10336D03*
X14368Y10331D03*
X14368Y10326D03*
X14368Y10321D03*
X14363Y10316D03*
X14363Y10311D03*
X14363Y10306D03*
X14363Y10301D03*
X14363Y10296D03*
X14363Y10291D03*
X14363Y10286D03*
X14363Y10281D03*
X14363Y10276D03*
X14363Y10271D03*
X14358Y10266D03*
X14353Y10181D03*
X14393Y10571D03*
X14393Y10576D03*
X14393Y10581D03*
X14398Y10621D03*
X14398Y10626D03*
X14403Y10651D03*
X14403Y10656D03*
X14403Y10661D03*
X14403Y10666D03*
X14403Y10671D03*
X14408Y10681D03*
X14408Y10686D03*
X14408Y10691D03*
X14408Y10696D03*
X14408Y10701D03*
X14408Y10706D03*
X14408Y10711D03*
X14408Y10716D03*
X14413Y10726D03*
X14413Y10731D03*
X14413Y10736D03*
X14413Y10741D03*
X14413Y10746D03*
X14413Y10751D03*
X14433Y10926D03*
X14433Y10931D03*
X14083Y11371D03*
X14078Y11391D03*
X14073Y11411D03*
X14068Y11431D03*
X14068Y11436D03*
X14063Y11456D03*
X14058Y11476D03*
X14033Y11586D03*
X14033Y11591D03*
X13593Y11516D03*
X13593Y11511D03*
X13593Y11506D03*
X13593Y11501D03*
X13593Y11496D03*
X13593Y11491D03*
X13598Y11481D03*
X13598Y11476D03*
X13598Y11471D03*
X13598Y11466D03*
X13598Y11461D03*
X13603Y11451D03*
X13603Y11446D03*
X13603Y11441D03*
X13603Y11436D03*
X13608Y11426D03*
X13608Y11421D03*
X13608Y11416D03*
X13608Y11411D03*
X13608Y11406D03*
X13613Y11396D03*
X13613Y11391D03*
X13613Y11386D03*
X13613Y11381D03*
X13613Y11376D03*
X13618Y11366D03*
X13618Y11361D03*
X13618Y11356D03*
X13618Y11351D03*
X13618Y11346D03*
X13623Y11336D03*
X13623Y11331D03*
X13623Y11326D03*
X13623Y11321D03*
X13628Y11311D03*
X13628Y11306D03*
X13628Y11301D03*
X13628Y11296D03*
X13628Y11291D03*
X13633Y11281D03*
X13633Y11276D03*
X13633Y11271D03*
X13633Y11266D03*
X13633Y11261D03*
X13638Y11251D03*
X13638Y11246D03*
X13638Y11241D03*
X13638Y11236D03*
X13638Y11231D03*
X13643Y11221D03*
X13643Y11216D03*
X13643Y11211D03*
X13643Y11206D03*
X13643Y11201D03*
X13648Y11191D03*
X13648Y11186D03*
X13648Y11181D03*
X13648Y11176D03*
X13653Y11166D03*
X13653Y11161D03*
X13653Y11156D03*
X13653Y11151D03*
X13653Y11146D03*
X13658Y11136D03*
X13658Y11131D03*
X13658Y11126D03*
X13658Y11121D03*
X13658Y11116D03*
X13663Y11106D03*
X13663Y11101D03*
X13663Y11096D03*
X13663Y11091D03*
X13663Y11086D03*
X13668Y11076D03*
X13668Y11071D03*
X13668Y11066D03*
X13668Y11061D03*
X13673Y11051D03*
X13673Y11046D03*
X13673Y11041D03*
X13673Y11036D03*
X13673Y11031D03*
X13693Y10916D03*
X13813Y10876D03*
X13803Y10851D03*
X13793Y10826D03*
X13823Y10901D03*
X13863Y11011D03*
X13483Y10871D03*
X13493Y10846D03*
X13473Y10896D03*
X13463Y10921D03*
X13438Y10986D03*
X13428Y11011D03*
X13418Y11036D03*
X13408Y11061D03*
X13373Y11151D03*
X13363Y11176D03*
X13353Y11201D03*
X13343Y11226D03*
X13318Y11291D03*
X13308Y11316D03*
X13298Y11341D03*
X13288Y11366D03*
X13278Y11391D03*
X13268Y11416D03*
X13263Y11431D03*
X13253Y11456D03*
X13588Y11521D03*
X13588Y11526D03*
X13588Y11531D03*
X13588Y11536D03*
X13588Y11541D03*
X13588Y11546D03*
X13583Y11551D03*
X13583Y11556D03*
X13583Y11561D03*
X13583Y11566D03*
X13583Y11571D03*
X13583Y11576D03*
X13578Y11581D03*
X13578Y11586D03*
X13578Y11591D03*
X13578Y11596D03*
X13578Y11601D03*
X13573Y11611D03*
X13573Y11616D03*
X13573Y11621D03*
X13573Y11626D03*
X13573Y11631D03*
X13568Y11641D03*
X13568Y11646D03*
X13568Y11651D03*
X13568Y11656D03*
X13568Y11661D03*
X13563Y11671D03*
X13563Y11676D03*
X13563Y11681D03*
X13563Y11686D03*
X13563Y11691D03*
X13558Y11701D03*
X13558Y11706D03*
X13558Y11711D03*
X13558Y11716D03*
X13553Y11731D03*
X13553Y11736D03*
X13553Y11741D03*
X13553Y11746D03*
X13548Y11761D03*
X13548Y11766D03*
X13548Y11771D03*
X13548Y11776D03*
X13523Y11916D03*
X13523Y11921D03*
X13518Y10781D03*
X13528Y10756D03*
X13538Y10731D03*
X13548Y10706D03*
X13573Y10641D03*
X13583Y10616D03*
X13593Y10591D03*
X13603Y10566D03*
X13643Y10461D03*
X13643Y10456D03*
D74*
X13428Y10186D03*
X15148Y10216D03*
X14508Y11876D03*
X14163Y11746D03*
D75*
X14895Y11701D03*
X14900Y11696D03*
X14905Y11691D03*
X15370Y11281D03*
X15375Y11276D03*
X15295Y10301D03*
X15290Y10296D03*
X15285Y10291D03*
X13765Y10186D03*
X13760Y10191D03*
X13755Y10196D03*
X13035Y10366D03*
X13030Y10371D03*
X12775Y10891D03*
X12780Y11391D03*
D76*
X13150Y11721D03*
X13145Y11736D03*
X13140Y11746D03*
X13135Y11761D03*
X13130Y11771D03*
X13125Y11786D03*
X13120Y11796D03*
X13115Y11811D03*
X13110Y11821D03*
X13105Y11836D03*
X13100Y11846D03*
X13095Y11861D03*
X13090Y11871D03*
X13090Y11876D03*
X13085Y11886D03*
X13080Y11896D03*
X13080Y11901D03*
X13080Y11906D03*
X13075Y11911D03*
X13075Y11916D03*
X13070Y11921D03*
X13160Y11696D03*
X13170Y11671D03*
X13175Y11656D03*
X13180Y11646D03*
X13185Y11631D03*
X13190Y11621D03*
X13195Y11606D03*
X13200Y11596D03*
X13200Y11591D03*
X13245Y11471D03*
X13250Y11466D03*
X13250Y11461D03*
X13255Y11451D03*
X13255Y11446D03*
X13260Y11441D03*
X13260Y11436D03*
X13265Y11426D03*
X13265Y11421D03*
X13270Y11411D03*
X13270Y11406D03*
X13275Y11401D03*
X13275Y11396D03*
X13280Y11386D03*
X13280Y11381D03*
X13285Y11376D03*
X13285Y11371D03*
X13290Y11361D03*
X13290Y11356D03*
X13295Y11351D03*
X13295Y11346D03*
X13300Y11336D03*
X13300Y11331D03*
X13305Y11326D03*
X13305Y11321D03*
X13310Y11311D03*
X13310Y11306D03*
X13315Y11301D03*
X13315Y11296D03*
X13320Y11286D03*
X13320Y11281D03*
X13325Y11276D03*
X13325Y11271D03*
X13325Y11266D03*
X13330Y11261D03*
X13330Y11256D03*
X13335Y11251D03*
X13335Y11246D03*
X13335Y11241D03*
X13340Y11236D03*
X13340Y11231D03*
X13345Y11221D03*
X13345Y11216D03*
X13350Y11211D03*
X13350Y11206D03*
X13355Y11196D03*
X13355Y11191D03*
X13360Y11186D03*
X13360Y11181D03*
X13365Y11171D03*
X13365Y11166D03*
X13370Y11161D03*
X13370Y11156D03*
X13375Y11146D03*
X13375Y11141D03*
X13380Y11136D03*
X13380Y11131D03*
X13380Y11126D03*
X13385Y11121D03*
X13385Y11116D03*
X13390Y11111D03*
X13390Y11106D03*
X13390Y11101D03*
X13395Y11096D03*
X13395Y11091D03*
X13400Y11086D03*
X13400Y11081D03*
X13400Y11076D03*
X13405Y11071D03*
X13405Y11066D03*
X13410Y11056D03*
X13410Y11051D03*
X13415Y11046D03*
X13415Y11041D03*
X13420Y11031D03*
X13420Y11026D03*
X13425Y11021D03*
X13425Y11016D03*
X13430Y11006D03*
X13430Y11001D03*
X13435Y10996D03*
X13435Y10991D03*
X13440Y10981D03*
X13440Y10976D03*
X13445Y10971D03*
X13445Y10966D03*
X13445Y10961D03*
X13450Y10956D03*
X13450Y10951D03*
X13455Y10946D03*
X13455Y10941D03*
X13455Y10936D03*
X13460Y10931D03*
X13460Y10926D03*
X13465Y10916D03*
X13465Y10911D03*
X13470Y10906D03*
X13470Y10901D03*
X13475Y10891D03*
X13475Y10886D03*
X13480Y10881D03*
X13480Y10876D03*
X13485Y10866D03*
X13485Y10861D03*
X13490Y10856D03*
X13490Y10851D03*
X13495Y10841D03*
X13495Y10836D03*
X13500Y10831D03*
X13500Y10826D03*
X13500Y10821D03*
X13505Y10816D03*
X13505Y10811D03*
X13510Y10806D03*
X13510Y10801D03*
X13510Y10796D03*
X13515Y10791D03*
X13515Y10786D03*
X13520Y10776D03*
X13520Y10771D03*
X13525Y10766D03*
X13525Y10761D03*
X13530Y10751D03*
X13530Y10746D03*
X13535Y10741D03*
X13535Y10736D03*
X13540Y10726D03*
X13540Y10721D03*
X13545Y10716D03*
X13545Y10711D03*
X13550Y10701D03*
X13550Y10696D03*
X13555Y10691D03*
X13555Y10686D03*
X13555Y10681D03*
X13560Y10676D03*
X13560Y10671D03*
X13565Y10666D03*
X13565Y10661D03*
X13565Y10656D03*
X13570Y10651D03*
X13570Y10646D03*
X13575Y10636D03*
X13575Y10631D03*
X13580Y10626D03*
X13580Y10621D03*
X13585Y10611D03*
X13585Y10606D03*
X13590Y10601D03*
X13590Y10596D03*
X13595Y10586D03*
X13595Y10581D03*
X13600Y10576D03*
X13600Y10571D03*
X13605Y10561D03*
X13605Y10556D03*
X13610Y10551D03*
X13690Y10571D03*
X13700Y10596D03*
X13705Y10606D03*
X13710Y10621D03*
X13715Y10631D03*
X13720Y10641D03*
X13720Y10646D03*
X13725Y10656D03*
X13730Y10666D03*
X13730Y10671D03*
X13735Y10681D03*
X13740Y10691D03*
X13740Y10696D03*
X13745Y10706D03*
X13750Y10716D03*
X13755Y10726D03*
X13755Y10731D03*
X13760Y10741D03*
X13765Y10751D03*
X13765Y10756D03*
X13770Y10766D03*
X13775Y10776D03*
X13775Y10781D03*
X13775Y10786D03*
X13780Y10791D03*
X13780Y10796D03*
X13785Y10801D03*
X13785Y10806D03*
X13785Y10811D03*
X13790Y10816D03*
X13790Y10821D03*
X13795Y10831D03*
X13795Y10836D03*
X13800Y10841D03*
X13800Y10846D03*
X13805Y10856D03*
X13805Y10861D03*
X13810Y10866D03*
X13810Y10871D03*
X13815Y10881D03*
X13815Y10886D03*
X13820Y10891D03*
X13820Y10896D03*
X13825Y10906D03*
X13825Y10911D03*
X13830Y10916D03*
X13830Y10921D03*
X13830Y10926D03*
X13865Y11006D03*
X13815Y11156D03*
X13820Y11166D03*
X13825Y11176D03*
X13830Y11186D03*
X13835Y11196D03*
X13840Y11206D03*
X13845Y11216D03*
X13850Y11226D03*
X13855Y11236D03*
X13860Y11246D03*
X13865Y11251D03*
X13865Y11256D03*
X13870Y11261D03*
X13870Y11266D03*
X13875Y11271D03*
X13875Y11276D03*
X13880Y11281D03*
X13880Y11286D03*
X13885Y11291D03*
X13890Y11301D03*
X13895Y11311D03*
X13900Y11321D03*
X13905Y11331D03*
X13910Y11341D03*
X13915Y11351D03*
X13920Y11361D03*
X13925Y11371D03*
X13930Y11381D03*
X13935Y11391D03*
X13940Y11401D03*
X13945Y11411D03*
X13950Y11421D03*
X13955Y11431D03*
X13960Y11441D03*
X13965Y11451D03*
X13970Y11461D03*
X13975Y11471D03*
X13980Y11481D03*
X13985Y11491D03*
X14055Y11491D03*
X14055Y11486D03*
X14055Y11481D03*
X14060Y11471D03*
X14060Y11466D03*
X14060Y11461D03*
X14065Y11451D03*
X14065Y11446D03*
X14065Y11441D03*
X14070Y11426D03*
X14070Y11421D03*
X14070Y11416D03*
X14075Y11406D03*
X14075Y11401D03*
X14075Y11396D03*
X14080Y11386D03*
X14080Y11381D03*
X14080Y11376D03*
X14085Y11366D03*
X14085Y11361D03*
X14085Y11356D03*
X14085Y11351D03*
X14090Y11341D03*
X14090Y11336D03*
X14090Y11331D03*
X14095Y11321D03*
X14095Y11316D03*
X14095Y11311D03*
X14100Y11301D03*
X14100Y11296D03*
X14100Y11291D03*
X14100Y11286D03*
X14105Y11276D03*
X14105Y11271D03*
X14105Y11266D03*
X14110Y11256D03*
X14110Y11251D03*
X14110Y11246D03*
X14115Y11236D03*
X14115Y11231D03*
X14115Y11226D03*
X14115Y11221D03*
X14120Y11211D03*
X14120Y11206D03*
X14120Y11201D03*
X14125Y11191D03*
X14125Y11186D03*
X14125Y11181D03*
X14130Y11171D03*
X14130Y11166D03*
X14130Y11161D03*
X14130Y11156D03*
X14135Y11146D03*
X14135Y11141D03*
X14135Y11136D03*
X14140Y11126D03*
X14140Y11121D03*
X14140Y11116D03*
X14145Y11106D03*
X14145Y11101D03*
X14145Y11096D03*
X14145Y11091D03*
X14150Y11081D03*
X14150Y11076D03*
X14150Y11071D03*
X14155Y11061D03*
X14155Y11056D03*
X14155Y11051D03*
X14160Y11041D03*
X14160Y11036D03*
X14160Y11031D03*
X14160Y11026D03*
X14165Y11016D03*
X14165Y11011D03*
X14165Y11006D03*
X14170Y10996D03*
X14170Y10991D03*
X14170Y10986D03*
X14175Y10976D03*
X14175Y10971D03*
X14175Y10966D03*
X14175Y10961D03*
X14180Y10951D03*
X14180Y10946D03*
X14180Y10941D03*
X14185Y10931D03*
X14185Y10926D03*
X14185Y10921D03*
X14190Y10911D03*
X14190Y10906D03*
X14190Y10901D03*
X14190Y10896D03*
X14195Y10886D03*
X14195Y10881D03*
X14195Y10876D03*
X14200Y10866D03*
X14200Y10861D03*
X14200Y10856D03*
X14205Y10846D03*
X14205Y10841D03*
X14205Y10836D03*
X14205Y10831D03*
X14210Y10821D03*
X14210Y10816D03*
X14210Y10811D03*
X14215Y10801D03*
X14215Y10796D03*
X14215Y10791D03*
X14220Y10781D03*
X14220Y10776D03*
X14220Y10771D03*
X14220Y10766D03*
X14225Y10756D03*
X14225Y10751D03*
X14230Y10736D03*
X14235Y10716D03*
X14235Y10711D03*
X14240Y10691D03*
X14310Y10681D03*
X14315Y10691D03*
X14320Y10701D03*
X14325Y10711D03*
X14330Y10721D03*
X14335Y10731D03*
X14340Y10741D03*
X14345Y10751D03*
X14410Y10721D03*
X14405Y10676D03*
X14400Y10646D03*
X14400Y10641D03*
X14400Y10636D03*
X14400Y10631D03*
X14395Y10616D03*
X14395Y10611D03*
X14395Y10606D03*
X14395Y10601D03*
X14395Y10596D03*
X14395Y10591D03*
X14395Y10586D03*
X14390Y10566D03*
X14390Y10561D03*
X14390Y10556D03*
X14390Y10551D03*
X14390Y10546D03*
X14390Y10541D03*
X14385Y10516D03*
X14265Y10581D03*
X14430Y10916D03*
X14430Y10921D03*
X13695Y10921D03*
X13675Y11026D03*
X13670Y11056D03*
X13665Y11081D03*
X13660Y11111D03*
X13655Y11141D03*
X13650Y11171D03*
X13645Y11196D03*
X13640Y11226D03*
X13635Y11256D03*
X13630Y11286D03*
X13625Y11316D03*
X13620Y11341D03*
X13615Y11371D03*
X13610Y11401D03*
X13605Y11431D03*
X13600Y11456D03*
X13595Y11486D03*
X14030Y11576D03*
X14030Y11581D03*
X14145Y11676D03*
X13680Y10326D03*
X14350Y10186D03*
D77*
X13430Y10191D03*
D78*
X13643Y10466D03*
X13643Y10471D03*
X13683Y10551D03*
X13683Y10556D03*
X13688Y10561D03*
X13688Y10566D03*
X13693Y10576D03*
X13693Y10581D03*
X13698Y10586D03*
X13698Y10591D03*
X13703Y10601D03*
X13708Y10611D03*
X13708Y10616D03*
X13713Y10626D03*
X13718Y10636D03*
X13723Y10651D03*
X13728Y10661D03*
X13733Y10676D03*
X13738Y10686D03*
X13743Y10701D03*
X13748Y10711D03*
X13753Y10721D03*
X13758Y10736D03*
X13763Y10746D03*
X13768Y10761D03*
X13773Y10771D03*
X13698Y10926D03*
X13698Y10931D03*
X13748Y11026D03*
X13753Y11036D03*
X13758Y11046D03*
X13763Y11051D03*
X13763Y11056D03*
X13768Y11061D03*
X13768Y11066D03*
X13773Y11071D03*
X13773Y11076D03*
X13778Y11081D03*
X13778Y11086D03*
X13783Y11091D03*
X13783Y11096D03*
X13788Y11101D03*
X13788Y11106D03*
X13793Y11111D03*
X13793Y11116D03*
X13798Y11121D03*
X13798Y11126D03*
X13803Y11131D03*
X13803Y11136D03*
X13808Y11141D03*
X13808Y11146D03*
X13813Y11151D03*
X13818Y11161D03*
X13823Y11171D03*
X13828Y11181D03*
X13833Y11191D03*
X13838Y11201D03*
X13843Y11211D03*
X13848Y11221D03*
X13853Y11231D03*
X13858Y11241D03*
X13888Y11296D03*
X13893Y11306D03*
X13898Y11316D03*
X13903Y11326D03*
X13908Y11336D03*
X13913Y11346D03*
X13918Y11356D03*
X13923Y11366D03*
X13928Y11376D03*
X13933Y11386D03*
X13938Y11396D03*
X13943Y11406D03*
X13948Y11416D03*
X13953Y11426D03*
X13958Y11436D03*
X13963Y11446D03*
X13968Y11456D03*
X13973Y11466D03*
X13978Y11476D03*
X13983Y11486D03*
X13863Y11001D03*
X13928Y10886D03*
X13943Y10861D03*
X13958Y10836D03*
X13963Y10826D03*
X13973Y10811D03*
X13978Y10801D03*
X13983Y10791D03*
X13988Y10786D03*
X13993Y10776D03*
X13998Y10766D03*
X14003Y10761D03*
X14008Y10751D03*
X14013Y10741D03*
X14018Y10731D03*
X14023Y10726D03*
X14023Y10721D03*
X14028Y10716D03*
X14028Y10711D03*
X14033Y10706D03*
X14038Y10701D03*
X14038Y10696D03*
X14043Y10691D03*
X14043Y10686D03*
X14048Y10681D03*
X14053Y10676D03*
X14053Y10671D03*
X14058Y10666D03*
X14058Y10661D03*
X14063Y10656D03*
X14068Y10651D03*
X14068Y10646D03*
X14073Y10641D03*
X14073Y10636D03*
X14078Y10631D03*
X14083Y10626D03*
X14083Y10621D03*
X14088Y10616D03*
X14088Y10611D03*
X14093Y10606D03*
X14098Y10601D03*
X14098Y10596D03*
X14103Y10591D03*
X14103Y10586D03*
X14108Y10581D03*
X14113Y10576D03*
X14113Y10571D03*
X14118Y10566D03*
X14118Y10561D03*
X14123Y10556D03*
X14128Y10551D03*
X14128Y10546D03*
X14133Y10541D03*
X14133Y10536D03*
X14138Y10531D03*
X14143Y10526D03*
X14143Y10521D03*
X14148Y10516D03*
X14148Y10511D03*
X14153Y10506D03*
X14158Y10501D03*
X14158Y10496D03*
X14163Y10491D03*
X14268Y10586D03*
X14268Y10591D03*
X14313Y10686D03*
X14318Y10696D03*
X14323Y10706D03*
X14328Y10716D03*
X14333Y10726D03*
X14338Y10736D03*
X14343Y10746D03*
X14428Y10911D03*
X14348Y10191D03*
X13198Y11601D03*
X13193Y11611D03*
X13193Y11616D03*
X13188Y11626D03*
X13183Y11636D03*
X13183Y11641D03*
X13178Y11651D03*
X13173Y11661D03*
X13173Y11666D03*
X13168Y11676D03*
X13168Y11681D03*
X13163Y11686D03*
X13163Y11691D03*
X13158Y11701D03*
X13158Y11706D03*
X13153Y11711D03*
X13153Y11716D03*
X13148Y11726D03*
X13148Y11731D03*
X13143Y11741D03*
X13138Y11751D03*
X13138Y11756D03*
X13133Y11766D03*
X13128Y11776D03*
X13128Y11781D03*
X13123Y11791D03*
X13118Y11801D03*
X13118Y11806D03*
X13113Y11816D03*
X13108Y11826D03*
X13108Y11831D03*
X13103Y11841D03*
X13098Y11851D03*
X13098Y11856D03*
X13093Y11866D03*
X13088Y11881D03*
X13083Y11891D03*
D79*
X13065Y11526D03*
X13430Y10196D03*
D80*
X13643Y10481D03*
X13698Y10936D03*
X13698Y10941D03*
X14158Y10486D03*
X14418Y10881D03*
X14418Y10886D03*
X14343Y10196D03*
X14028Y11561D03*
X14028Y11566D03*
D81*
X14510Y11861D03*
X13055Y11511D03*
X13430Y10201D03*
D82*
X13750Y10201D03*
X13015Y10386D03*
X13010Y10391D03*
X12760Y10906D03*
X12755Y10911D03*
X12750Y10916D03*
X12750Y11366D03*
X12755Y11371D03*
X12760Y11376D03*
X14150Y11716D03*
X15400Y11256D03*
X15405Y11251D03*
X15410Y10806D03*
X15405Y10801D03*
X15400Y10796D03*
X15395Y10791D03*
X15370Y10766D03*
X15360Y10751D03*
X15310Y10316D03*
X15305Y10311D03*
X15300Y10306D03*
D83*
X14415Y10871D03*
X14415Y10876D03*
X14270Y10616D03*
X14270Y10611D03*
X14270Y10606D03*
X14340Y10201D03*
X13865Y10986D03*
X13700Y10951D03*
X13700Y10946D03*
X14025Y11556D03*
X14145Y11681D03*
D84*
X13520Y10206D03*
D85*
X14878Y10206D03*
D86*
X14335Y10211D03*
X14270Y10626D03*
X14405Y10841D03*
X14405Y10846D03*
X14410Y10856D03*
X13865Y10976D03*
X13705Y10961D03*
X13645Y10491D03*
X14025Y11541D03*
X14025Y11546D03*
X13560Y11796D03*
D87*
X15125Y11406D03*
X14645Y10211D03*
D88*
X13495Y10216D03*
D89*
X13645Y10506D03*
X13705Y10971D03*
X13705Y10976D03*
X14275Y10641D03*
X14400Y10821D03*
X14400Y10826D03*
X14130Y10361D03*
X14145Y10351D03*
X14165Y10336D03*
X14180Y10326D03*
X14185Y10321D03*
X14195Y10316D03*
X14250Y10276D03*
X14265Y10266D03*
X14330Y10216D03*
X14025Y11531D03*
X14025Y11536D03*
X13745Y11921D03*
X13185Y11586D03*
D90*
X13103Y11556D03*
X13163Y10296D03*
X14633Y10216D03*
D91*
X13488Y10221D03*
X14508Y11816D03*
D92*
X13710Y10991D03*
X13645Y10516D03*
X14060Y10411D03*
X14145Y10481D03*
X14205Y10311D03*
X14210Y10306D03*
X14225Y10296D03*
X14330Y10221D03*
X14590Y10261D03*
X14275Y10651D03*
X14275Y10656D03*
X14275Y10661D03*
X14390Y10791D03*
X14390Y10796D03*
D93*
X15160Y10221D03*
X15255Y11346D03*
X14775Y11766D03*
X14160Y11741D03*
D94*
X14148Y11691D03*
X14023Y11516D03*
X14023Y11511D03*
X13573Y11801D03*
X13708Y10996D03*
X13868Y10951D03*
X14388Y10786D03*
X14388Y10781D03*
X14278Y10666D03*
X14053Y10421D03*
X14328Y10226D03*
X13648Y10521D03*
X13648Y10526D03*
D95*
X14083Y10451D03*
X15173Y10226D03*
X14793Y11761D03*
D96*
X13470Y10231D03*
D97*
X13673Y10311D03*
X13648Y10536D03*
X13713Y11011D03*
X13713Y11016D03*
X14018Y11496D03*
X14148Y11696D03*
X14383Y10766D03*
X14378Y10756D03*
X14278Y10676D03*
X14323Y10231D03*
X14593Y10256D03*
D98*
X13463Y10236D03*
X14508Y11811D03*
D99*
X13870Y10936D03*
X13870Y10931D03*
X13715Y11021D03*
X13645Y10541D03*
X14320Y10236D03*
D100*
X15198Y10236D03*
X15078Y11441D03*
X14813Y11751D03*
X14508Y11881D03*
X13118Y11566D03*
X12863Y11446D03*
X12868Y10831D03*
X12878Y10826D03*
X12883Y10821D03*
X12888Y10816D03*
D101*
X13648Y10546D03*
X14318Y10241D03*
D102*
X14603Y10241D03*
X14118Y10471D03*
X13663Y10301D03*
X13003Y10396D03*
X12998Y10401D03*
X12993Y10406D03*
X12748Y11361D03*
X14508Y11886D03*
X14928Y11671D03*
X14933Y11666D03*
X14938Y11661D03*
X14943Y11656D03*
X15408Y11246D03*
X15413Y11241D03*
X15418Y11236D03*
X15413Y10811D03*
X15358Y10746D03*
X15318Y10321D03*
D103*
X13445Y10246D03*
X13440Y10251D03*
D104*
X13668Y10306D03*
X14313Y10246D03*
X15393Y10441D03*
X15398Y10451D03*
X15398Y10456D03*
X15398Y10461D03*
X15403Y10471D03*
X15403Y10476D03*
X15403Y10481D03*
X15408Y10491D03*
X15408Y10496D03*
X15408Y10501D03*
X15408Y10506D03*
X15408Y10511D03*
X15413Y10551D03*
X15413Y10556D03*
X15413Y10561D03*
X15408Y10581D03*
X15408Y10586D03*
X15408Y10591D03*
X15408Y10596D03*
X15408Y10601D03*
X15403Y10606D03*
X15403Y10611D03*
X15403Y10616D03*
X15403Y10621D03*
X15398Y10626D03*
X15398Y10631D03*
X15393Y10646D03*
X15483Y10916D03*
X15488Y10931D03*
X15493Y10941D03*
X15493Y10946D03*
X15493Y10951D03*
X15498Y10961D03*
X15498Y10966D03*
X15498Y10971D03*
X15498Y10976D03*
X15503Y10991D03*
X15503Y10996D03*
X15503Y11001D03*
X15503Y11006D03*
X15503Y11011D03*
X15503Y11016D03*
X15503Y11021D03*
X15503Y11026D03*
X15503Y11031D03*
X15503Y11036D03*
X15503Y11041D03*
X15503Y11046D03*
X15503Y11051D03*
X15503Y11056D03*
X15498Y11076D03*
X15498Y11081D03*
X15498Y11086D03*
X15498Y11091D03*
X15493Y11096D03*
X15493Y11101D03*
X15493Y11106D03*
X15488Y11116D03*
X15488Y11121D03*
X15028Y11466D03*
X15028Y11471D03*
X15028Y11476D03*
X15023Y11491D03*
X15023Y11496D03*
X15023Y11501D03*
X15023Y11506D03*
X15018Y11516D03*
X15018Y11521D03*
X15018Y11526D03*
X15013Y11536D03*
X15008Y11551D03*
X12923Y10716D03*
X12918Y10706D03*
X12918Y10701D03*
X12918Y10696D03*
X12913Y10686D03*
X12913Y10681D03*
X12913Y10676D03*
X12913Y10671D03*
X12908Y10661D03*
X12908Y10656D03*
X12908Y10651D03*
X12908Y10646D03*
X12908Y10641D03*
X12908Y10636D03*
X12908Y10631D03*
X12908Y10626D03*
X12908Y10621D03*
X12908Y10616D03*
X12908Y10611D03*
X12908Y10606D03*
X12908Y10601D03*
X12908Y10596D03*
X12908Y10591D03*
X12908Y10586D03*
X12908Y10581D03*
X12913Y10566D03*
X12913Y10561D03*
X12913Y10556D03*
X12913Y10551D03*
X12918Y10546D03*
X12918Y10541D03*
X12918Y10536D03*
X12923Y10526D03*
X12668Y11046D03*
X12663Y11061D03*
X12663Y11066D03*
X12663Y11071D03*
X12658Y11076D03*
X12658Y11081D03*
X12658Y11086D03*
X12658Y11091D03*
X12653Y11101D03*
X12653Y11106D03*
X12653Y11111D03*
X12653Y11116D03*
X12653Y11121D03*
X12653Y11126D03*
X12653Y11131D03*
X12653Y11136D03*
X12653Y11141D03*
X12653Y11146D03*
X12653Y11151D03*
X12653Y11156D03*
X12653Y11161D03*
X12653Y11166D03*
X12653Y11171D03*
X12653Y11176D03*
X12658Y11191D03*
X12658Y11196D03*
X12658Y11201D03*
X12658Y11206D03*
X12663Y11211D03*
X12663Y11216D03*
X12663Y11221D03*
X12668Y11231D03*
X12668Y11236D03*
D105*
X12678Y11261D03*
X12683Y11271D03*
X12688Y11281D03*
X12693Y11291D03*
X12698Y11301D03*
X12678Y11021D03*
X12683Y11011D03*
X12688Y11001D03*
X12693Y10991D03*
X12698Y10981D03*
X12938Y10751D03*
X12933Y10741D03*
X12938Y10486D03*
X12943Y10476D03*
X12948Y10471D03*
X12953Y10461D03*
X14598Y10246D03*
X15363Y10381D03*
X15368Y10386D03*
X15368Y10391D03*
X15373Y10396D03*
X15378Y10406D03*
X15383Y10416D03*
X15383Y10671D03*
X15378Y10681D03*
X15373Y10691D03*
X15368Y10696D03*
X15363Y10706D03*
X15353Y10726D03*
X15458Y10866D03*
X15463Y10876D03*
X15468Y10881D03*
X15468Y10886D03*
X15473Y11156D03*
X15468Y11166D03*
X15463Y11171D03*
X15463Y11176D03*
X15458Y11181D03*
X15453Y11191D03*
X14993Y11581D03*
X14993Y11586D03*
X14988Y11591D03*
X14988Y11596D03*
X14983Y11601D03*
X14148Y11706D03*
D106*
X14995Y11576D03*
X15000Y11571D03*
X15000Y11566D03*
X15005Y11561D03*
X15005Y11556D03*
X15010Y11546D03*
X15010Y11541D03*
X15015Y11531D03*
X15470Y11161D03*
X15475Y11151D03*
X15475Y11146D03*
X15480Y11141D03*
X15480Y11136D03*
X15485Y11131D03*
X15485Y11126D03*
X15490Y11111D03*
X15495Y10956D03*
X15490Y10936D03*
X15485Y10926D03*
X15485Y10921D03*
X15480Y10911D03*
X15480Y10906D03*
X15475Y10901D03*
X15475Y10896D03*
X15470Y10891D03*
X15375Y10686D03*
X15380Y10676D03*
X15385Y10666D03*
X15385Y10661D03*
X15390Y10656D03*
X15390Y10651D03*
X15395Y10641D03*
X15395Y10636D03*
X15400Y10466D03*
X15395Y10446D03*
X15390Y10436D03*
X15390Y10431D03*
X15385Y10426D03*
X15385Y10421D03*
X15380Y10411D03*
X15375Y10401D03*
X14310Y10251D03*
X14060Y10426D03*
X12940Y10481D03*
X12935Y10491D03*
X12935Y10496D03*
X12930Y10501D03*
X12930Y10506D03*
X12925Y10511D03*
X12925Y10516D03*
X12925Y10521D03*
X12920Y10531D03*
X12915Y10691D03*
X12920Y10711D03*
X12925Y10721D03*
X12925Y10726D03*
X12930Y10731D03*
X12930Y10736D03*
X12935Y10746D03*
X12940Y10756D03*
X12690Y10996D03*
X12685Y11006D03*
X12680Y11016D03*
X12675Y11026D03*
X12675Y11031D03*
X12670Y11036D03*
X12670Y11041D03*
X12665Y11051D03*
X12665Y11056D03*
X12665Y11226D03*
X12670Y11241D03*
X12670Y11246D03*
X12675Y11251D03*
X12675Y11256D03*
X12680Y11266D03*
X12685Y11276D03*
X12690Y11286D03*
D107*
X12655Y11186D03*
X12655Y11181D03*
X12655Y11096D03*
X12910Y10666D03*
X12910Y10576D03*
X12910Y10571D03*
X14130Y10476D03*
X14595Y10251D03*
X15405Y10486D03*
X15410Y10516D03*
X15410Y10521D03*
X15410Y10526D03*
X15410Y10531D03*
X15410Y10536D03*
X15410Y10541D03*
X15410Y10546D03*
X15410Y10566D03*
X15410Y10571D03*
X15410Y10576D03*
X15500Y10981D03*
X15500Y10986D03*
X15500Y11061D03*
X15500Y11066D03*
X15500Y11071D03*
X15025Y11481D03*
X15025Y11486D03*
X15020Y11511D03*
X14150Y11701D03*
X13585Y11806D03*
D108*
X14508Y11806D03*
X13433Y10256D03*
D109*
X13645Y10291D03*
X14080Y10436D03*
X13085Y10331D03*
X12915Y10791D03*
X12825Y10856D03*
X12825Y11426D03*
X13130Y11571D03*
X14155Y11726D03*
X15235Y10256D03*
D110*
X15338Y10346D03*
X15343Y10351D03*
X15348Y10356D03*
X15428Y10826D03*
X15433Y10831D03*
X15438Y10836D03*
X15438Y10841D03*
X15443Y10846D03*
X15448Y10851D03*
X15443Y11206D03*
X15438Y11211D03*
X15433Y11216D03*
X15433Y11221D03*
X14963Y11631D03*
X14958Y11636D03*
X13153Y11581D03*
X12728Y11341D03*
X12723Y11336D03*
X12718Y11331D03*
X12713Y11321D03*
X12713Y10961D03*
X12718Y10951D03*
X12723Y10946D03*
X12728Y10941D03*
X12968Y10436D03*
X12973Y10431D03*
X12978Y10426D03*
X14303Y10261D03*
D111*
X14588Y10266D03*
X14273Y10631D03*
X14273Y10636D03*
X14403Y10831D03*
X14403Y10836D03*
X13868Y10966D03*
X13868Y10971D03*
X13703Y10966D03*
X13648Y10501D03*
X13648Y10496D03*
X14148Y11686D03*
D112*
X14030Y11571D03*
X13550Y11791D03*
X13240Y11476D03*
X13755Y11041D03*
X13750Y11031D03*
X13865Y10996D03*
X13865Y10991D03*
X13905Y10926D03*
X13905Y10921D03*
X13910Y10916D03*
X13915Y10911D03*
X13915Y10906D03*
X13920Y10901D03*
X13920Y10896D03*
X13925Y10891D03*
X13930Y10881D03*
X13935Y10876D03*
X13935Y10871D03*
X13940Y10866D03*
X13945Y10856D03*
X13950Y10851D03*
X13950Y10846D03*
X13955Y10841D03*
X13960Y10831D03*
X13965Y10821D03*
X13970Y10816D03*
X13975Y10806D03*
X13980Y10796D03*
X13990Y10781D03*
X13995Y10771D03*
X14005Y10756D03*
X14010Y10746D03*
X14015Y10736D03*
X14270Y10601D03*
X14270Y10596D03*
X14420Y10891D03*
X14420Y10896D03*
X14425Y10901D03*
X14425Y10906D03*
X13645Y10476D03*
X14590Y10271D03*
D113*
X13408Y10276D03*
D114*
X13400Y10281D03*
D115*
X13203Y10286D03*
X13083Y11541D03*
D116*
X13175Y10291D03*
X15105Y11421D03*
X14760Y11771D03*
D117*
X14945Y11651D03*
X14950Y11646D03*
X14955Y11641D03*
X15420Y11231D03*
X15425Y11226D03*
X15425Y10821D03*
X15420Y10816D03*
X15355Y10741D03*
X15335Y10341D03*
X15330Y10336D03*
X15325Y10331D03*
X15320Y10326D03*
X14150Y11711D03*
X12935Y10766D03*
X12745Y10921D03*
X12740Y10926D03*
X12735Y10931D03*
X12730Y10936D03*
X12730Y11346D03*
X12735Y11351D03*
X12740Y11356D03*
X12980Y10421D03*
X12985Y10416D03*
X12990Y10411D03*
D118*
X13640Y10391D03*
X13680Y10836D03*
X13680Y10841D03*
X14260Y10491D03*
X14475Y11066D03*
X14475Y11071D03*
X14145Y11671D03*
D119*
X14043Y11661D03*
X14043Y11656D03*
X13858Y11066D03*
X13858Y11061D03*
X13683Y10846D03*
X13643Y10396D03*
X14258Y10496D03*
X14258Y10501D03*
X14473Y11056D03*
X14473Y11061D03*
D120*
X14470Y11051D03*
X14470Y11046D03*
X14260Y10511D03*
X14260Y10506D03*
X13640Y10401D03*
X13680Y10851D03*
X13860Y11056D03*
X14040Y11646D03*
X14040Y11651D03*
X14505Y11891D03*
D121*
X14468Y11041D03*
X14468Y11036D03*
X14463Y11031D03*
X14463Y11026D03*
X13858Y11051D03*
X13683Y10861D03*
X13683Y10856D03*
X13643Y10411D03*
X13643Y10406D03*
D122*
X13643Y10421D03*
X13643Y10426D03*
X13688Y10876D03*
X14263Y10536D03*
X14263Y10531D03*
X14263Y10526D03*
X14458Y11006D03*
X14458Y11011D03*
X14038Y11626D03*
X14038Y11631D03*
D123*
X14020Y11506D03*
X14020Y11501D03*
X13870Y10946D03*
X13870Y10941D03*
X13710Y11001D03*
X13710Y11006D03*
X13645Y10531D03*
X14275Y10671D03*
X14380Y10761D03*
X14385Y10771D03*
X14385Y10776D03*
D124*
X14445Y10966D03*
X14445Y10971D03*
X14265Y10556D03*
X14265Y10551D03*
X13860Y11026D03*
X13690Y10901D03*
X13690Y10896D03*
X14035Y11606D03*
X14035Y11611D03*
D125*
X15158Y11381D03*
X15173Y11371D03*
X15183Y11366D03*
D126*
X15165Y11376D03*
X13070Y11531D03*
D127*
X14168Y11756D03*
X14508Y11871D03*
X15133Y11401D03*
D128*
X15118Y11411D03*
X14743Y11776D03*
X13088Y11546D03*
D129*
X13030Y11481D03*
X13740Y11886D03*
D130*
X13033Y11486D03*
D131*
X13043Y11496D03*
X14508Y11856D03*
D132*
X13045Y11501D03*
D133*
X13093Y11551D03*
D134*
X14173Y11761D03*
D135*
X14175Y11766D03*
D136*
X14183Y11771D03*
X13723Y11896D03*
D137*
X14193Y11776D03*
X14508Y11851D03*
D138*
X14415Y11781D03*
D139*
X14405Y11786D03*
D140*
X14393Y11791D03*
D141*
X14378Y11796D03*
D142*
X14360Y11801D03*
D143*
X13820Y11816D03*
X13815Y11821D03*
D144*
X14508Y11821D03*
D145*
X13810Y11826D03*
D146*
X14508Y11826D03*
D147*
X14508Y11831D03*
X13803Y11836D03*
D148*
X13793Y11846D03*
X14508Y11836D03*
D149*
X14508Y11841D03*
D150*
X14510Y11846D03*
D151*
X13785Y11851D03*
D152*
X13770Y11866D03*
D153*
X14510Y11866D03*
D154*
X13763Y11871D03*
D155*
X13748Y11881D03*
D156*
X13713Y11901D03*
D157*
X15105Y12979D02*
X15386Y12979D01*
X16498Y11953D02*
X17285Y11953D01*
X18112Y11323D02*
X18112Y10142D01*
X17285Y9512D02*
X16498Y9512D01*
X15671Y10142D02*
X15671Y11323D01*
X16202Y10733D02*
X16204Y10785D01*
X16210Y10837D01*
X16220Y10888D01*
X16233Y10938D01*
X16251Y10988D01*
X16272Y11035D01*
X16296Y11081D01*
X16325Y11125D01*
X16356Y11167D01*
X16390Y11206D01*
X16427Y11243D01*
X16467Y11276D01*
X16510Y11307D01*
X16554Y11334D01*
X16600Y11358D01*
X16649Y11378D01*
X16698Y11394D01*
X16749Y11407D01*
X16800Y11416D01*
X16852Y11421D01*
X16904Y11422D01*
X16956Y11419D01*
X17008Y11412D01*
X17059Y11401D01*
X17109Y11387D01*
X17158Y11368D01*
X17205Y11346D01*
X17250Y11321D01*
X17294Y11292D01*
X17335Y11260D01*
X17374Y11225D01*
X17409Y11187D01*
X17442Y11146D01*
X17472Y11104D01*
X17498Y11059D01*
X17521Y11012D01*
X17540Y10963D01*
X17556Y10913D01*
X17568Y10863D01*
X17576Y10811D01*
X17580Y10759D01*
X17580Y10707D01*
X17576Y10655D01*
X17568Y10603D01*
X17556Y10553D01*
X17540Y10503D01*
X17521Y10454D01*
X17498Y10407D01*
X17472Y10362D01*
X17442Y10320D01*
X17409Y10279D01*
X17374Y10241D01*
X17335Y10206D01*
X17294Y10174D01*
X17250Y10145D01*
X17205Y10120D01*
X17158Y10098D01*
X17109Y10079D01*
X17059Y10065D01*
X17008Y10054D01*
X16956Y10047D01*
X16904Y10044D01*
X16852Y10045D01*
X16800Y10050D01*
X16749Y10059D01*
X16698Y10072D01*
X16649Y10088D01*
X16600Y10108D01*
X16554Y10132D01*
X16510Y10159D01*
X16467Y10190D01*
X16427Y10223D01*
X16390Y10260D01*
X16356Y10299D01*
X16325Y10341D01*
X16296Y10385D01*
X16272Y10431D01*
X16251Y10478D01*
X16233Y10528D01*
X16220Y10578D01*
X16210Y10629D01*
X16204Y10681D01*
X16202Y10733D01*
X17818Y8347D02*
X18099Y8347D01*
X17973Y7709D02*
X17473Y7709D01*
X17223Y7459D01*
X16973Y7709D01*
X16473Y7709D01*
X16223Y7459D01*
X15973Y7709D01*
X15473Y7709D01*
X15223Y7459D01*
X14973Y7709D01*
X14473Y7709D01*
X14223Y7459D01*
X13973Y7709D01*
X13473Y7709D01*
X13223Y7459D01*
X13223Y6959D01*
X13473Y6709D01*
X13973Y6709D01*
X14223Y6959D01*
X14473Y6709D01*
X14973Y6709D01*
X15223Y6959D01*
X15473Y6709D01*
X15973Y6709D01*
X16223Y6959D01*
X16473Y6709D01*
X16973Y6709D01*
X17223Y6959D01*
X17473Y6709D01*
X17973Y6709D01*
X18223Y6959D01*
X18473Y6709D01*
X18973Y6709D01*
X19223Y6959D01*
X19223Y7459D01*
X18973Y7709D01*
X18473Y7709D01*
X18223Y7459D01*
X17973Y7709D01*
X17958Y13275D02*
X17958Y13555D01*
X17818Y13415D02*
X18099Y13415D01*
X8736Y14262D02*
X8486Y14012D01*
X7986Y14012D01*
X7736Y14262D01*
X7486Y14012D01*
X6986Y14012D01*
X6736Y14262D01*
X6486Y14012D01*
X5986Y14012D01*
X5736Y14262D01*
X5486Y14012D01*
X4986Y14012D01*
X4736Y14262D01*
X4736Y14762D01*
X4986Y15012D01*
X5486Y15012D01*
X5736Y14762D01*
X5986Y15012D01*
X6486Y15012D01*
X6736Y14762D01*
X6986Y15012D01*
X7486Y15012D01*
X7736Y14762D01*
X7986Y15012D01*
X8486Y15012D01*
X8736Y14762D01*
X8736Y14262D01*
X6661Y13214D02*
X6268Y13214D01*
X6661Y13214D02*
X6661Y8489D01*
X6268Y8489D01*
X6885Y8654D02*
X7166Y8654D01*
X7025Y8514D02*
X7025Y8794D01*
X5087Y8489D02*
X2331Y8489D01*
X2331Y13214D01*
X5087Y13214D01*
X4961Y12323D02*
X4461Y12323D01*
X4211Y12073D01*
X4211Y11573D01*
X4461Y11323D01*
X4211Y11073D01*
X4211Y10573D01*
X4461Y10323D01*
X4211Y10073D01*
X4211Y9573D01*
X4461Y9323D01*
X4961Y9323D01*
X5211Y9573D01*
X5211Y10073D01*
X4961Y10323D01*
X5211Y10573D01*
X5211Y11073D01*
X4961Y11323D01*
X5211Y11573D01*
X5211Y12073D01*
X4961Y12323D01*
D158*
X5343Y7450D03*
X6228Y7450D03*
D159*
X15050Y14341D02*
X15070Y14361D01*
X15220Y14361D01*
X15170Y14761D02*
X15070Y14761D01*
X15050Y14781D01*
D160*
X15285Y14761D03*
X15285Y14361D03*
D161*
X3666Y16073D02*
X3669Y16073D01*
X20205Y16073D01*
X20208Y16073D01*
X19558Y17447D02*
X19560Y17497D01*
X19566Y17547D01*
X19576Y17597D01*
X19589Y17645D01*
X19606Y17693D01*
X19627Y17739D01*
X19651Y17783D01*
X19679Y17825D01*
X19710Y17865D01*
X19744Y17902D01*
X19781Y17937D01*
X19820Y17968D01*
X19861Y17997D01*
X19905Y18022D01*
X19951Y18044D01*
X19998Y18062D01*
X20046Y18076D01*
X20095Y18087D01*
X20145Y18094D01*
X20195Y18097D01*
X20246Y18096D01*
X20296Y18091D01*
X20346Y18082D01*
X20394Y18070D01*
X20442Y18053D01*
X20488Y18033D01*
X20533Y18010D01*
X20576Y17983D01*
X20616Y17953D01*
X20654Y17920D01*
X20689Y17884D01*
X20722Y17845D01*
X20751Y17804D01*
X20777Y17761D01*
X20800Y17716D01*
X20819Y17669D01*
X20834Y17621D01*
X20846Y17572D01*
X20854Y17522D01*
X20858Y17472D01*
X20858Y17422D01*
X20854Y17372D01*
X20846Y17322D01*
X20834Y17273D01*
X20819Y17225D01*
X20800Y17178D01*
X20777Y17133D01*
X20751Y17090D01*
X20722Y17049D01*
X20689Y17010D01*
X20654Y16974D01*
X20616Y16941D01*
X20576Y16911D01*
X20533Y16884D01*
X20488Y16861D01*
X20442Y16841D01*
X20394Y16824D01*
X20346Y16812D01*
X20296Y16803D01*
X20246Y16798D01*
X20195Y16797D01*
X20145Y16800D01*
X20095Y16807D01*
X20046Y16818D01*
X19998Y16832D01*
X19951Y16850D01*
X19905Y16872D01*
X19861Y16897D01*
X19820Y16926D01*
X19781Y16957D01*
X19744Y16992D01*
X19710Y17029D01*
X19679Y17069D01*
X19651Y17111D01*
X19627Y17155D01*
X19606Y17201D01*
X19589Y17249D01*
X19576Y17297D01*
X19566Y17347D01*
X19560Y17397D01*
X19558Y17447D01*
X20205Y16073D02*
X20277Y16075D01*
X20349Y16081D01*
X20421Y16090D01*
X20492Y16103D01*
X20562Y16120D01*
X20631Y16140D01*
X20699Y16165D01*
X20765Y16192D01*
X20831Y16223D01*
X20894Y16258D01*
X20956Y16295D01*
X21015Y16336D01*
X21072Y16380D01*
X21127Y16427D01*
X21179Y16477D01*
X21229Y16529D01*
X21276Y16584D01*
X21320Y16641D01*
X21361Y16700D01*
X21398Y16762D01*
X21433Y16825D01*
X21464Y16891D01*
X21491Y16957D01*
X21516Y17025D01*
X21536Y17094D01*
X21553Y17164D01*
X21566Y17235D01*
X21575Y17307D01*
X21581Y17379D01*
X21583Y17451D01*
X21583Y24340D01*
X19555Y24340D02*
X19557Y24390D01*
X19563Y24440D01*
X19573Y24490D01*
X19586Y24538D01*
X19603Y24586D01*
X19624Y24632D01*
X19648Y24676D01*
X19676Y24718D01*
X19707Y24758D01*
X19741Y24795D01*
X19778Y24830D01*
X19817Y24861D01*
X19858Y24890D01*
X19902Y24915D01*
X19948Y24937D01*
X19995Y24955D01*
X20043Y24969D01*
X20092Y24980D01*
X20142Y24987D01*
X20192Y24990D01*
X20243Y24989D01*
X20293Y24984D01*
X20343Y24975D01*
X20391Y24963D01*
X20439Y24946D01*
X20485Y24926D01*
X20530Y24903D01*
X20573Y24876D01*
X20613Y24846D01*
X20651Y24813D01*
X20686Y24777D01*
X20719Y24738D01*
X20748Y24697D01*
X20774Y24654D01*
X20797Y24609D01*
X20816Y24562D01*
X20831Y24514D01*
X20843Y24465D01*
X20851Y24415D01*
X20855Y24365D01*
X20855Y24315D01*
X20851Y24265D01*
X20843Y24215D01*
X20831Y24166D01*
X20816Y24118D01*
X20797Y24071D01*
X20774Y24026D01*
X20748Y23983D01*
X20719Y23942D01*
X20686Y23903D01*
X20651Y23867D01*
X20613Y23834D01*
X20573Y23804D01*
X20530Y23777D01*
X20485Y23754D01*
X20439Y23734D01*
X20391Y23717D01*
X20343Y23705D01*
X20293Y23696D01*
X20243Y23691D01*
X20192Y23690D01*
X20142Y23693D01*
X20092Y23700D01*
X20043Y23711D01*
X19995Y23725D01*
X19948Y23743D01*
X19902Y23765D01*
X19858Y23790D01*
X19817Y23819D01*
X19778Y23850D01*
X19741Y23885D01*
X19707Y23922D01*
X19676Y23962D01*
X19648Y24004D01*
X19624Y24048D01*
X19603Y24094D01*
X19586Y24142D01*
X19573Y24190D01*
X19563Y24240D01*
X19557Y24290D01*
X19555Y24340D01*
X20205Y25718D02*
X20277Y25716D01*
X20349Y25710D01*
X20421Y25701D01*
X20492Y25688D01*
X20562Y25671D01*
X20631Y25651D01*
X20699Y25626D01*
X20765Y25599D01*
X20831Y25568D01*
X20894Y25533D01*
X20956Y25496D01*
X21015Y25455D01*
X21072Y25411D01*
X21127Y25364D01*
X21179Y25314D01*
X21229Y25262D01*
X21276Y25207D01*
X21320Y25150D01*
X21361Y25091D01*
X21398Y25029D01*
X21433Y24966D01*
X21464Y24900D01*
X21491Y24834D01*
X21516Y24766D01*
X21536Y24697D01*
X21553Y24627D01*
X21566Y24556D01*
X21575Y24484D01*
X21581Y24412D01*
X21583Y24340D01*
X20205Y25718D02*
X3669Y25718D01*
X3016Y24344D02*
X3018Y24394D01*
X3024Y24444D01*
X3034Y24494D01*
X3047Y24542D01*
X3064Y24590D01*
X3085Y24636D01*
X3109Y24680D01*
X3137Y24722D01*
X3168Y24762D01*
X3202Y24799D01*
X3239Y24834D01*
X3278Y24865D01*
X3319Y24894D01*
X3363Y24919D01*
X3409Y24941D01*
X3456Y24959D01*
X3504Y24973D01*
X3553Y24984D01*
X3603Y24991D01*
X3653Y24994D01*
X3704Y24993D01*
X3754Y24988D01*
X3804Y24979D01*
X3852Y24967D01*
X3900Y24950D01*
X3946Y24930D01*
X3991Y24907D01*
X4034Y24880D01*
X4074Y24850D01*
X4112Y24817D01*
X4147Y24781D01*
X4180Y24742D01*
X4209Y24701D01*
X4235Y24658D01*
X4258Y24613D01*
X4277Y24566D01*
X4292Y24518D01*
X4304Y24469D01*
X4312Y24419D01*
X4316Y24369D01*
X4316Y24319D01*
X4312Y24269D01*
X4304Y24219D01*
X4292Y24170D01*
X4277Y24122D01*
X4258Y24075D01*
X4235Y24030D01*
X4209Y23987D01*
X4180Y23946D01*
X4147Y23907D01*
X4112Y23871D01*
X4074Y23838D01*
X4034Y23808D01*
X3991Y23781D01*
X3946Y23758D01*
X3900Y23738D01*
X3852Y23721D01*
X3804Y23709D01*
X3754Y23700D01*
X3704Y23695D01*
X3653Y23694D01*
X3603Y23697D01*
X3553Y23704D01*
X3504Y23715D01*
X3456Y23729D01*
X3409Y23747D01*
X3363Y23769D01*
X3319Y23794D01*
X3278Y23823D01*
X3239Y23854D01*
X3202Y23889D01*
X3168Y23926D01*
X3137Y23966D01*
X3109Y24008D01*
X3085Y24052D01*
X3064Y24098D01*
X3047Y24146D01*
X3034Y24194D01*
X3024Y24244D01*
X3018Y24294D01*
X3016Y24344D01*
X2291Y24340D02*
X2293Y24412D01*
X2299Y24484D01*
X2308Y24556D01*
X2321Y24627D01*
X2338Y24697D01*
X2358Y24766D01*
X2383Y24834D01*
X2410Y24900D01*
X2441Y24966D01*
X2476Y25029D01*
X2513Y25091D01*
X2554Y25150D01*
X2598Y25207D01*
X2645Y25262D01*
X2695Y25314D01*
X2747Y25364D01*
X2802Y25411D01*
X2859Y25455D01*
X2918Y25496D01*
X2980Y25533D01*
X3043Y25568D01*
X3109Y25599D01*
X3175Y25626D01*
X3243Y25651D01*
X3312Y25671D01*
X3382Y25688D01*
X3453Y25701D01*
X3525Y25710D01*
X3597Y25716D01*
X3669Y25718D01*
X2291Y24344D02*
X2291Y24340D01*
X2291Y17490D01*
X2291Y17447D01*
X3016Y17447D02*
X3018Y17497D01*
X3024Y17547D01*
X3034Y17597D01*
X3047Y17645D01*
X3064Y17693D01*
X3085Y17739D01*
X3109Y17783D01*
X3137Y17825D01*
X3168Y17865D01*
X3202Y17902D01*
X3239Y17937D01*
X3278Y17968D01*
X3319Y17997D01*
X3363Y18022D01*
X3409Y18044D01*
X3456Y18062D01*
X3504Y18076D01*
X3553Y18087D01*
X3603Y18094D01*
X3653Y18097D01*
X3704Y18096D01*
X3754Y18091D01*
X3804Y18082D01*
X3852Y18070D01*
X3900Y18053D01*
X3946Y18033D01*
X3991Y18010D01*
X4034Y17983D01*
X4074Y17953D01*
X4112Y17920D01*
X4147Y17884D01*
X4180Y17845D01*
X4209Y17804D01*
X4235Y17761D01*
X4258Y17716D01*
X4277Y17669D01*
X4292Y17621D01*
X4304Y17572D01*
X4312Y17522D01*
X4316Y17472D01*
X4316Y17422D01*
X4312Y17372D01*
X4304Y17322D01*
X4292Y17273D01*
X4277Y17225D01*
X4258Y17178D01*
X4235Y17133D01*
X4209Y17090D01*
X4180Y17049D01*
X4147Y17010D01*
X4112Y16974D01*
X4074Y16941D01*
X4034Y16911D01*
X3991Y16884D01*
X3946Y16861D01*
X3900Y16841D01*
X3852Y16824D01*
X3804Y16812D01*
X3754Y16803D01*
X3704Y16798D01*
X3653Y16797D01*
X3603Y16800D01*
X3553Y16807D01*
X3504Y16818D01*
X3456Y16832D01*
X3409Y16850D01*
X3363Y16872D01*
X3319Y16897D01*
X3278Y16926D01*
X3239Y16957D01*
X3202Y16992D01*
X3168Y17029D01*
X3137Y17069D01*
X3109Y17111D01*
X3085Y17155D01*
X3064Y17201D01*
X3047Y17249D01*
X3034Y17297D01*
X3024Y17347D01*
X3018Y17397D01*
X3016Y17447D01*
X2291Y17490D02*
X2292Y17417D01*
X2297Y17343D01*
X2305Y17271D01*
X2318Y17199D01*
X2334Y17127D01*
X2353Y17057D01*
X2377Y16987D01*
X2404Y16919D01*
X2435Y16853D01*
X2469Y16788D01*
X2506Y16725D01*
X2547Y16664D01*
X2590Y16606D01*
X2637Y16549D01*
X2687Y16495D01*
X2739Y16444D01*
X2794Y16396D01*
X2851Y16351D01*
X2911Y16308D01*
X2973Y16269D01*
X3037Y16233D01*
X3102Y16201D01*
X3170Y16172D01*
X3238Y16147D01*
X3308Y16125D01*
X3379Y16107D01*
X3451Y16092D01*
X3523Y16082D01*
X3596Y16075D01*
X3669Y16072D01*
X3473Y18923D02*
X3475Y18953D01*
X3481Y18983D01*
X3490Y19012D01*
X3503Y19039D01*
X3520Y19064D01*
X3539Y19087D01*
X3562Y19108D01*
X3587Y19125D01*
X3613Y19139D01*
X3642Y19149D01*
X3671Y19156D01*
X3701Y19159D01*
X3732Y19158D01*
X3762Y19153D01*
X3791Y19144D01*
X3818Y19132D01*
X3844Y19117D01*
X3868Y19098D01*
X3889Y19076D01*
X3907Y19052D01*
X3922Y19025D01*
X3933Y18997D01*
X3941Y18968D01*
X3945Y18938D01*
X3945Y18908D01*
X3941Y18878D01*
X3933Y18849D01*
X3922Y18821D01*
X3907Y18794D01*
X3889Y18770D01*
X3868Y18748D01*
X3844Y18729D01*
X3818Y18714D01*
X3791Y18702D01*
X3762Y18693D01*
X3732Y18688D01*
X3701Y18687D01*
X3671Y18690D01*
X3642Y18697D01*
X3613Y18707D01*
X3587Y18721D01*
X3562Y18738D01*
X3539Y18759D01*
X3520Y18782D01*
X3503Y18807D01*
X3490Y18834D01*
X3481Y18863D01*
X3475Y18893D01*
X3473Y18923D01*
X2488Y18923D02*
X2490Y18953D01*
X2496Y18983D01*
X2505Y19012D01*
X2518Y19039D01*
X2535Y19064D01*
X2554Y19087D01*
X2577Y19108D01*
X2602Y19125D01*
X2628Y19139D01*
X2657Y19149D01*
X2686Y19156D01*
X2716Y19159D01*
X2747Y19158D01*
X2777Y19153D01*
X2806Y19144D01*
X2833Y19132D01*
X2859Y19117D01*
X2883Y19098D01*
X2904Y19076D01*
X2922Y19052D01*
X2937Y19025D01*
X2948Y18997D01*
X2956Y18968D01*
X2960Y18938D01*
X2960Y18908D01*
X2956Y18878D01*
X2948Y18849D01*
X2937Y18821D01*
X2922Y18794D01*
X2904Y18770D01*
X2883Y18748D01*
X2859Y18729D01*
X2833Y18714D01*
X2806Y18702D01*
X2777Y18693D01*
X2747Y18688D01*
X2716Y18687D01*
X2686Y18690D01*
X2657Y18697D01*
X2628Y18707D01*
X2602Y18721D01*
X2577Y18738D01*
X2554Y18759D01*
X2535Y18782D01*
X2518Y18807D01*
X2505Y18834D01*
X2496Y18863D01*
X2490Y18893D01*
X2488Y18923D01*
X5441Y20892D02*
X5443Y20922D01*
X5449Y20952D01*
X5458Y20981D01*
X5471Y21008D01*
X5488Y21033D01*
X5507Y21056D01*
X5530Y21077D01*
X5555Y21094D01*
X5581Y21108D01*
X5610Y21118D01*
X5639Y21125D01*
X5669Y21128D01*
X5700Y21127D01*
X5730Y21122D01*
X5759Y21113D01*
X5786Y21101D01*
X5812Y21086D01*
X5836Y21067D01*
X5857Y21045D01*
X5875Y21021D01*
X5890Y20994D01*
X5901Y20966D01*
X5909Y20937D01*
X5913Y20907D01*
X5913Y20877D01*
X5909Y20847D01*
X5901Y20818D01*
X5890Y20790D01*
X5875Y20763D01*
X5857Y20739D01*
X5836Y20717D01*
X5812Y20698D01*
X5786Y20683D01*
X5759Y20671D01*
X5730Y20662D01*
X5700Y20657D01*
X5669Y20656D01*
X5639Y20659D01*
X5610Y20666D01*
X5581Y20676D01*
X5555Y20690D01*
X5530Y20707D01*
X5507Y20728D01*
X5488Y20751D01*
X5471Y20776D01*
X5458Y20803D01*
X5449Y20832D01*
X5443Y20862D01*
X5441Y20892D01*
X3473Y22860D02*
X3475Y22890D01*
X3481Y22920D01*
X3490Y22949D01*
X3503Y22976D01*
X3520Y23001D01*
X3539Y23024D01*
X3562Y23045D01*
X3587Y23062D01*
X3613Y23076D01*
X3642Y23086D01*
X3671Y23093D01*
X3701Y23096D01*
X3732Y23095D01*
X3762Y23090D01*
X3791Y23081D01*
X3818Y23069D01*
X3844Y23054D01*
X3868Y23035D01*
X3889Y23013D01*
X3907Y22989D01*
X3922Y22962D01*
X3933Y22934D01*
X3941Y22905D01*
X3945Y22875D01*
X3945Y22845D01*
X3941Y22815D01*
X3933Y22786D01*
X3922Y22758D01*
X3907Y22731D01*
X3889Y22707D01*
X3868Y22685D01*
X3844Y22666D01*
X3818Y22651D01*
X3791Y22639D01*
X3762Y22630D01*
X3732Y22625D01*
X3701Y22624D01*
X3671Y22627D01*
X3642Y22634D01*
X3613Y22644D01*
X3587Y22658D01*
X3562Y22675D01*
X3539Y22696D01*
X3520Y22719D01*
X3503Y22744D01*
X3490Y22771D01*
X3481Y22800D01*
X3475Y22830D01*
X3473Y22860D01*
X2488Y22860D02*
X2490Y22890D01*
X2496Y22920D01*
X2505Y22949D01*
X2518Y22976D01*
X2535Y23001D01*
X2554Y23024D01*
X2577Y23045D01*
X2602Y23062D01*
X2628Y23076D01*
X2657Y23086D01*
X2686Y23093D01*
X2716Y23096D01*
X2747Y23095D01*
X2777Y23090D01*
X2806Y23081D01*
X2833Y23069D01*
X2859Y23054D01*
X2883Y23035D01*
X2904Y23013D01*
X2922Y22989D01*
X2937Y22962D01*
X2948Y22934D01*
X2956Y22905D01*
X2960Y22875D01*
X2960Y22845D01*
X2956Y22815D01*
X2948Y22786D01*
X2937Y22758D01*
X2922Y22731D01*
X2904Y22707D01*
X2883Y22685D01*
X2859Y22666D01*
X2833Y22651D01*
X2806Y22639D01*
X2777Y22630D01*
X2747Y22625D01*
X2716Y22624D01*
X2686Y22627D01*
X2657Y22634D01*
X2628Y22644D01*
X2602Y22658D01*
X2577Y22675D01*
X2554Y22696D01*
X2535Y22719D01*
X2518Y22744D01*
X2505Y22771D01*
X2496Y22800D01*
X2490Y22830D01*
X2488Y22860D01*
D162*
X2727Y22048D02*
X2682Y22003D01*
X2682Y21823D01*
X2727Y21778D01*
X2818Y21778D01*
X2863Y21823D01*
X2863Y21913D01*
X2772Y21913D01*
X2863Y22003D02*
X2818Y22048D01*
X2727Y22048D01*
X2977Y22048D02*
X3157Y21778D01*
X3157Y22048D01*
X3272Y22048D02*
X3407Y22048D01*
X3452Y22003D01*
X3452Y21823D01*
X3407Y21778D01*
X3272Y21778D01*
X3272Y22048D01*
X2977Y22048D02*
X2977Y21778D01*
X3017Y21098D02*
X3107Y21098D01*
X3152Y21053D01*
X3152Y20873D01*
X3107Y20828D01*
X3017Y20828D01*
X2972Y20873D01*
X2972Y21053D01*
X3017Y21098D01*
X2857Y21053D02*
X2857Y20873D01*
X2812Y20828D01*
X2677Y20828D01*
X2677Y21098D01*
X2812Y21098D01*
X2857Y21053D01*
X3062Y20918D02*
X3152Y20828D01*
X3112Y20098D02*
X3022Y20098D01*
X2977Y20053D01*
X2977Y19873D01*
X3022Y19828D01*
X3112Y19828D01*
X3157Y19873D01*
X3272Y19873D02*
X3272Y20053D01*
X3317Y20098D01*
X3407Y20098D01*
X3452Y20053D01*
X3452Y19873D02*
X3407Y19828D01*
X3317Y19828D01*
X3272Y19873D01*
X3157Y20053D02*
X3112Y20098D01*
X2863Y20098D02*
X2863Y19918D01*
X2772Y19828D01*
X2682Y19918D01*
X2682Y20098D01*
X10325Y19965D02*
X10325Y22780D01*
X12058Y22780D01*
X12058Y19965D01*
X10325Y19965D01*
X10443Y22623D02*
X10445Y22631D01*
X10450Y22638D01*
X10457Y22642D01*
X10465Y22643D01*
X10473Y22640D01*
X10479Y22635D01*
X10483Y22627D01*
X10483Y22619D01*
X10479Y22611D01*
X10473Y22606D01*
X10465Y22603D01*
X10457Y22604D01*
X10450Y22608D01*
X10445Y22615D01*
X10443Y22623D01*
X8565Y25154D02*
X8430Y25154D01*
X8430Y25424D01*
X8565Y25424D01*
X8610Y25379D01*
X8610Y25199D01*
X8565Y25154D01*
X8315Y25154D02*
X8315Y25424D01*
X8135Y25424D02*
X8135Y25154D01*
X8020Y25199D02*
X8020Y25289D01*
X7930Y25289D01*
X7840Y25199D02*
X7885Y25154D01*
X7975Y25154D01*
X8020Y25199D01*
X7840Y25199D02*
X7840Y25379D01*
X7885Y25424D01*
X7975Y25424D01*
X8020Y25379D01*
X8135Y25424D02*
X8315Y25154D01*
X7610Y25289D02*
X7430Y25289D01*
X7565Y25424D01*
X7565Y25154D01*
X7315Y25154D02*
X7135Y25154D01*
X7225Y25154D02*
X7225Y25424D01*
X7135Y25334D01*
X7020Y25289D02*
X6975Y25244D01*
X6840Y25244D01*
X6840Y25154D02*
X6840Y25424D01*
X6975Y25424D01*
X7020Y25379D01*
X7020Y25289D01*
X6608Y25244D02*
X6608Y25199D01*
X6563Y25154D01*
X6473Y25154D01*
X6428Y25199D01*
X6314Y25154D02*
X6133Y25154D01*
X6223Y25154D02*
X6223Y25424D01*
X6133Y25334D01*
X6019Y25289D02*
X5974Y25244D01*
X5839Y25244D01*
X5839Y25154D02*
X5839Y25424D01*
X5974Y25424D01*
X6019Y25379D01*
X6019Y25289D01*
X6428Y25379D02*
X6473Y25424D01*
X6563Y25424D01*
X6608Y25379D01*
X6608Y25334D01*
X6563Y25289D01*
X6608Y25244D01*
X6563Y25289D02*
X6518Y25289D01*
X5608Y25199D02*
X5563Y25154D01*
X5473Y25154D01*
X5428Y25199D01*
X5428Y25379D01*
X5473Y25424D01*
X5563Y25424D01*
X5608Y25379D01*
X5314Y25379D02*
X5268Y25424D01*
X5178Y25424D01*
X5133Y25379D01*
X5133Y25199D01*
X5178Y25154D01*
X5268Y25154D01*
X5314Y25199D01*
X5019Y25244D02*
X5019Y25424D01*
X5019Y25244D02*
X4929Y25154D01*
X4839Y25244D01*
X4839Y25424D01*
X16516Y20968D02*
X16516Y20698D01*
X16651Y20698D01*
X16697Y20743D01*
X16697Y20788D01*
X16651Y20833D01*
X16516Y20833D01*
X16516Y20968D02*
X16651Y20968D01*
X16697Y20923D01*
X16697Y20878D01*
X16651Y20833D01*
X16811Y20968D02*
X16991Y20968D01*
X16901Y20968D02*
X16901Y20698D01*
X17106Y20698D02*
X17106Y20968D01*
X17286Y20698D01*
X17286Y20968D01*
X20038Y18743D02*
X20038Y18563D01*
X20083Y18518D01*
X20174Y18518D01*
X20219Y18563D01*
X20219Y18653D01*
X20128Y18653D01*
X20038Y18743D02*
X20083Y18788D01*
X20174Y18788D01*
X20219Y18743D01*
X20333Y18788D02*
X20513Y18518D01*
X20513Y18788D01*
X20628Y18788D02*
X20763Y18788D01*
X20808Y18743D01*
X20808Y18563D01*
X20763Y18518D01*
X20628Y18518D01*
X20628Y18788D01*
X20333Y18788D02*
X20333Y18518D01*
X19357Y16648D02*
X19222Y16648D01*
X19222Y16378D01*
X19357Y16378D01*
X19402Y16423D01*
X19402Y16603D01*
X19357Y16648D01*
X19107Y16648D02*
X19107Y16378D01*
X18927Y16648D01*
X18927Y16378D01*
X18813Y16423D02*
X18813Y16513D01*
X18722Y16513D01*
X18632Y16603D02*
X18632Y16423D01*
X18677Y16378D01*
X18768Y16378D01*
X18813Y16423D01*
X18813Y16603D02*
X18768Y16648D01*
X18677Y16648D01*
X18632Y16603D01*
X18402Y16603D02*
X18357Y16648D01*
X18267Y16648D01*
X18222Y16603D01*
X18222Y16423D01*
X18267Y16378D01*
X18357Y16378D01*
X18402Y16423D01*
X18107Y16423D02*
X18062Y16378D01*
X17972Y16378D01*
X17927Y16423D01*
X17927Y16603D01*
X17972Y16648D01*
X18062Y16648D01*
X18107Y16603D01*
X17813Y16648D02*
X17813Y16468D01*
X17722Y16378D01*
X17632Y16468D01*
X17632Y16648D01*
X17402Y16603D02*
X17402Y16423D01*
X17357Y16378D01*
X17222Y16378D01*
X17222Y16648D01*
X17357Y16648D01*
X17402Y16603D01*
X17107Y16648D02*
X16927Y16378D01*
X17107Y16378D02*
X16927Y16648D01*
X16813Y16648D02*
X16632Y16648D01*
X16722Y16648D02*
X16722Y16378D01*
X16452Y16423D02*
X16452Y16603D01*
X16407Y16648D01*
X16272Y16648D01*
X16272Y16378D01*
X16407Y16378D01*
X16452Y16423D01*
X16157Y16378D02*
X15977Y16648D01*
X15863Y16603D02*
X15863Y16513D01*
X15818Y16468D01*
X15682Y16468D01*
X15682Y16378D02*
X15682Y16648D01*
X15818Y16648D01*
X15863Y16603D01*
X15772Y16468D02*
X15863Y16378D01*
X15977Y16378D02*
X16157Y16648D01*
X15452Y16648D02*
X15272Y16648D01*
X15362Y16648D02*
X15362Y16378D01*
X15157Y16423D02*
X15112Y16378D01*
X15022Y16378D01*
X14977Y16423D01*
X15022Y16513D02*
X14977Y16558D01*
X14977Y16603D01*
X15022Y16648D01*
X15112Y16648D01*
X15157Y16603D01*
X15112Y16513D02*
X15157Y16468D01*
X15157Y16423D01*
X15112Y16513D02*
X15022Y16513D01*
X14863Y16513D02*
X14863Y16603D01*
X14818Y16648D01*
X14682Y16648D01*
X14682Y16378D01*
X14682Y16468D02*
X14818Y16468D01*
X14863Y16513D01*
X14772Y16468D02*
X14863Y16378D01*
X14402Y16648D02*
X14222Y16648D01*
X14312Y16648D02*
X14312Y16378D01*
X14107Y16423D02*
X14062Y16378D01*
X13972Y16378D01*
X13927Y16423D01*
X13972Y16513D02*
X14062Y16513D01*
X14107Y16468D01*
X14107Y16423D01*
X13972Y16513D02*
X13927Y16558D01*
X13927Y16603D01*
X13972Y16648D01*
X14062Y16648D01*
X14107Y16603D01*
X13813Y16648D02*
X13632Y16648D01*
X13722Y16648D02*
X13722Y16378D01*
D163*
X12956Y16470D02*
X12729Y16470D01*
X12899Y16640D01*
X12899Y16299D01*
X12588Y16299D02*
X12474Y16413D01*
X12531Y16413D02*
X12361Y16413D01*
X12361Y16299D02*
X12361Y16640D01*
X12531Y16640D01*
X12588Y16583D01*
X12588Y16470D01*
X12531Y16413D01*
X11578Y16413D02*
X11578Y16356D01*
X11521Y16299D01*
X11408Y16299D01*
X11351Y16356D01*
X11210Y16356D02*
X11153Y16299D01*
X11040Y16299D01*
X10983Y16356D01*
X10983Y16583D01*
X11040Y16640D01*
X11153Y16640D01*
X11210Y16583D01*
X11351Y16583D02*
X11408Y16640D01*
X11521Y16640D01*
X11578Y16583D01*
X11578Y16526D01*
X11521Y16470D01*
X11578Y16413D01*
X11521Y16470D02*
X11465Y16470D01*
X10298Y16526D02*
X10242Y16470D01*
X10298Y16413D01*
X10298Y16356D01*
X10242Y16299D01*
X10128Y16299D01*
X10072Y16356D01*
X9930Y16299D02*
X9817Y16413D01*
X9873Y16413D02*
X9703Y16413D01*
X9703Y16299D02*
X9703Y16640D01*
X9873Y16640D01*
X9930Y16583D01*
X9930Y16470D01*
X9873Y16413D01*
X10072Y16583D02*
X10128Y16640D01*
X10242Y16640D01*
X10298Y16583D01*
X10298Y16526D01*
X10242Y16470D02*
X10185Y16470D01*
X8920Y16526D02*
X8920Y16583D01*
X8864Y16640D01*
X8750Y16640D01*
X8694Y16583D01*
X8552Y16583D02*
X8552Y16470D01*
X8495Y16413D01*
X8325Y16413D01*
X8325Y16299D02*
X8325Y16640D01*
X8495Y16640D01*
X8552Y16583D01*
X8439Y16413D02*
X8552Y16299D01*
X8694Y16299D02*
X8920Y16526D01*
X8920Y16299D02*
X8694Y16299D01*
X7626Y16302D02*
X7399Y16302D01*
X7513Y16302D02*
X7513Y16642D01*
X7399Y16529D01*
X7258Y16585D02*
X7258Y16472D01*
X7201Y16415D01*
X7031Y16415D01*
X7031Y16302D02*
X7031Y16642D01*
X7201Y16642D01*
X7258Y16585D01*
X7144Y16415D02*
X7258Y16302D01*
X6558Y16299D02*
X6331Y16640D01*
X6190Y16583D02*
X6190Y16470D01*
X6133Y16413D01*
X5963Y16413D01*
X5963Y16299D02*
X5963Y16640D01*
X6133Y16640D01*
X6190Y16583D01*
X6077Y16413D02*
X6190Y16299D01*
X6331Y16299D02*
X6558Y16640D01*
X5672Y16640D02*
X5446Y16299D01*
X5672Y16299D02*
X5446Y16640D01*
X5304Y16640D02*
X5077Y16640D01*
X5191Y16640D02*
X5191Y16299D01*
X6385Y19053D02*
X6385Y19393D01*
X6555Y19393D01*
X6612Y19336D01*
X6612Y19223D01*
X6555Y19166D01*
X6385Y19166D01*
X6498Y19166D02*
X6612Y19053D01*
X6753Y19109D02*
X6810Y19053D01*
X6923Y19053D01*
X6980Y19109D01*
X6980Y19166D01*
X6923Y19223D01*
X6810Y19223D01*
X6753Y19280D01*
X6753Y19336D01*
X6810Y19393D01*
X6923Y19393D01*
X6980Y19336D01*
X6980Y19280D01*
X6923Y19223D01*
X6810Y19223D02*
X6753Y19166D01*
X6753Y19109D01*
X7991Y19100D02*
X8048Y19043D01*
X8161Y19043D01*
X8218Y19100D01*
X8359Y19100D02*
X8416Y19043D01*
X8529Y19043D01*
X8586Y19100D01*
X8586Y19157D01*
X8529Y19213D01*
X8359Y19213D01*
X8359Y19100D01*
X8359Y19213D02*
X8473Y19327D01*
X8586Y19383D01*
X8218Y19327D02*
X8161Y19383D01*
X8048Y19383D01*
X7991Y19327D01*
X7991Y19100D01*
X9031Y19055D02*
X9031Y19396D01*
X9201Y19396D01*
X9258Y19339D01*
X9258Y19226D01*
X9201Y19169D01*
X9031Y19169D01*
X9144Y19169D02*
X9258Y19055D01*
X9399Y19055D02*
X9399Y19112D01*
X9626Y19339D01*
X9626Y19396D01*
X9399Y19396D01*
X10598Y19286D02*
X10598Y19626D01*
X10712Y19512D01*
X10825Y19626D01*
X10825Y19286D01*
X10967Y19342D02*
X11024Y19399D01*
X11194Y19399D01*
X11194Y19456D02*
X11194Y19286D01*
X11024Y19286D01*
X10967Y19342D01*
X11024Y19512D02*
X11137Y19512D01*
X11194Y19456D01*
X11335Y19456D02*
X11392Y19512D01*
X11562Y19512D01*
X11562Y19229D01*
X11505Y19172D01*
X11449Y19172D01*
X11392Y19286D02*
X11562Y19286D01*
X11703Y19286D02*
X11817Y19286D01*
X11760Y19286D02*
X11760Y19512D01*
X11703Y19512D01*
X11760Y19626D02*
X11760Y19683D01*
X11949Y19456D02*
X12006Y19512D01*
X12176Y19512D01*
X12176Y19286D02*
X12006Y19286D01*
X11949Y19342D01*
X11949Y19456D01*
X11751Y18912D02*
X11808Y18856D01*
X11808Y18799D01*
X11581Y18799D01*
X11581Y18742D02*
X11581Y18856D01*
X11637Y18912D01*
X11751Y18912D01*
X11751Y18686D02*
X11637Y18686D01*
X11581Y18742D01*
X11449Y18686D02*
X11392Y18742D01*
X11392Y18969D01*
X11335Y18912D02*
X11449Y18912D01*
X11194Y18856D02*
X11194Y18742D01*
X11137Y18686D01*
X11024Y18686D01*
X10967Y18742D01*
X10967Y18856D01*
X11024Y18912D01*
X11137Y18912D01*
X11194Y18856D01*
X10825Y19026D02*
X10825Y18686D01*
X10598Y18686D02*
X10598Y19026D01*
X10712Y18912D01*
X10825Y19026D01*
X11335Y19342D02*
X11392Y19286D01*
X11335Y19342D02*
X11335Y19456D01*
X11346Y20270D02*
X11572Y20270D01*
X11459Y20270D02*
X11459Y20610D01*
X11346Y20497D01*
X11204Y20554D02*
X11204Y20327D01*
X11147Y20270D01*
X11034Y20270D01*
X10977Y20327D01*
X10977Y20554D01*
X11034Y20610D01*
X11147Y20610D01*
X11204Y20554D01*
X11091Y20383D02*
X11204Y20270D01*
X8701Y21927D02*
X8701Y21984D01*
X8644Y22041D01*
X8474Y22041D01*
X8474Y21927D01*
X8531Y21871D01*
X8644Y21871D01*
X8701Y21927D01*
X8588Y22154D02*
X8474Y22041D01*
X8333Y22041D02*
X8276Y21984D01*
X8106Y21984D01*
X8106Y21871D02*
X8106Y22211D01*
X8276Y22211D01*
X8333Y22154D01*
X8333Y22041D01*
X8219Y21984D02*
X8333Y21871D01*
X8588Y22154D02*
X8701Y22211D01*
X7480Y22136D02*
X7480Y21909D01*
X7423Y21853D01*
X7310Y21853D01*
X7253Y21909D01*
X7310Y22023D02*
X7480Y22023D01*
X7480Y22136D02*
X7423Y22193D01*
X7310Y22193D01*
X7253Y22136D01*
X7253Y22080D01*
X7310Y22023D01*
X7112Y22023D02*
X7055Y21966D01*
X6885Y21966D01*
X6998Y21966D02*
X7112Y21853D01*
X7112Y22023D02*
X7112Y22136D01*
X7055Y22193D01*
X6885Y22193D01*
X6885Y21853D01*
X8817Y23921D02*
X8817Y24261D01*
X8988Y24261D01*
X9044Y24204D01*
X9044Y24091D01*
X8988Y24034D01*
X8817Y24034D01*
X8931Y24034D02*
X9044Y23921D01*
X9186Y23977D02*
X9242Y23921D01*
X9356Y23921D01*
X9413Y23977D01*
X9413Y24091D01*
X9356Y24148D01*
X9299Y24148D01*
X9186Y24091D01*
X9186Y24261D01*
X9413Y24261D01*
X9841Y23543D02*
X9785Y23486D01*
X9785Y23259D01*
X9841Y23203D01*
X9955Y23203D01*
X10012Y23259D01*
X10153Y23203D02*
X10380Y23203D01*
X10266Y23203D02*
X10266Y23543D01*
X10153Y23430D01*
X10012Y23486D02*
X9955Y23543D01*
X9841Y23543D01*
X10878Y24953D02*
X10992Y24953D01*
X11048Y25009D01*
X11190Y24953D02*
X11417Y25180D01*
X11417Y25236D01*
X11360Y25293D01*
X11246Y25293D01*
X11190Y25236D01*
X11048Y25236D02*
X10992Y25293D01*
X10878Y25293D01*
X10821Y25236D01*
X10821Y25009D01*
X10878Y24953D01*
X11190Y24953D02*
X11417Y24953D01*
X13071Y25009D02*
X13128Y24953D01*
X13242Y24953D01*
X13298Y25009D01*
X13440Y25123D02*
X13667Y25123D01*
X13610Y24953D02*
X13610Y25293D01*
X13440Y25123D01*
X13298Y25236D02*
X13242Y25293D01*
X13128Y25293D01*
X13071Y25236D01*
X13071Y25009D01*
X15420Y25151D02*
X15420Y24051D01*
X15570Y24051D01*
X15570Y25151D01*
X15570Y25201D01*
X18570Y25201D01*
X18587Y25199D01*
X18604Y25195D01*
X18620Y25188D01*
X18634Y25178D01*
X18647Y25165D01*
X18657Y25151D01*
X18664Y25135D01*
X18668Y25118D01*
X18670Y25101D01*
X18670Y24101D01*
X18668Y24084D01*
X18664Y24067D01*
X18657Y24051D01*
X18647Y24037D01*
X18634Y24024D01*
X18620Y24014D01*
X18604Y24007D01*
X18587Y24003D01*
X18570Y24001D01*
X15570Y24001D01*
X15570Y24051D01*
X16470Y24601D02*
X16670Y24601D01*
X16670Y24301D01*
X16820Y24301D02*
X16970Y24301D01*
X16970Y24901D01*
X16820Y24901D01*
X16820Y24301D01*
X17120Y24301D02*
X17120Y24601D01*
X17320Y24601D01*
X17120Y24601D02*
X17120Y24901D01*
X16670Y24901D02*
X16670Y24601D01*
X17650Y24488D02*
X17706Y24431D01*
X17820Y24431D01*
X17877Y24488D01*
X17877Y24715D01*
X17820Y24772D01*
X17706Y24772D01*
X17650Y24715D01*
X17650Y24488D01*
X17763Y24545D02*
X17877Y24431D01*
X18018Y24602D02*
X18245Y24602D01*
X18188Y24772D02*
X18188Y24431D01*
X18018Y24602D02*
X18188Y24772D01*
X18228Y23955D02*
X18228Y23755D01*
X18228Y23955D02*
X18428Y23955D01*
X19028Y23955D02*
X19228Y23955D01*
X19228Y23755D01*
X19228Y23155D02*
X19228Y22955D01*
X19028Y22955D01*
X19156Y22889D02*
X18906Y22639D01*
X18906Y22139D01*
X19156Y21889D01*
X18906Y21639D01*
X18906Y21139D01*
X19156Y20889D01*
X18906Y20639D01*
X18906Y20139D01*
X19156Y19889D01*
X18906Y19639D01*
X18906Y19139D01*
X19156Y18889D01*
X20656Y18889D01*
X20906Y19139D01*
X20906Y19639D01*
X20656Y19889D01*
X20906Y20139D01*
X20906Y20639D01*
X20656Y20889D01*
X20906Y21139D01*
X20906Y21639D01*
X20656Y21889D01*
X20906Y22139D01*
X20906Y22639D01*
X20656Y22889D01*
X19156Y22889D01*
X18428Y22955D02*
X18228Y22955D01*
X18228Y23155D01*
X21103Y22258D02*
X21330Y22258D01*
X21217Y22371D02*
X21217Y22144D01*
X21387Y22003D02*
X21387Y21776D01*
X21387Y21889D02*
X21046Y21889D01*
X21160Y21776D01*
X21103Y21635D02*
X21330Y21408D01*
X21387Y21464D01*
X21387Y21578D01*
X21330Y21635D01*
X21103Y21635D01*
X21046Y21578D01*
X21046Y21464D01*
X21103Y21408D01*
X21330Y21408D01*
X21387Y21266D02*
X21387Y21039D01*
X21046Y21039D01*
X21046Y20841D02*
X21217Y20671D01*
X21217Y20898D01*
X21387Y20841D02*
X21046Y20841D01*
X21103Y20530D02*
X21046Y20473D01*
X21046Y20359D01*
X21103Y20303D01*
X21046Y20161D02*
X21046Y19934D01*
X21387Y19934D01*
X21387Y19793D02*
X21273Y19680D01*
X21273Y19736D02*
X21273Y19566D01*
X21387Y19566D02*
X21046Y19566D01*
X21046Y19736D01*
X21103Y19793D01*
X21217Y19793D01*
X21273Y19736D01*
X21217Y19934D02*
X21217Y20048D01*
X21387Y20303D02*
X21160Y20530D01*
X21103Y20530D01*
X21387Y20530D02*
X21387Y20303D01*
X21387Y19425D02*
X21046Y19425D01*
X21046Y19198D02*
X21387Y19425D01*
X21387Y19198D02*
X21046Y19198D01*
X19228Y18836D02*
X19028Y18836D01*
X19228Y18836D02*
X19228Y18636D01*
X19228Y18036D02*
X19228Y17836D01*
X19028Y17836D01*
X18428Y17836D02*
X18228Y17836D01*
X18228Y18036D01*
X18228Y18636D02*
X18228Y18836D01*
X18428Y18836D01*
X13630Y22709D02*
X13573Y22653D01*
X13460Y22653D01*
X13403Y22709D01*
X13403Y22823D02*
X13516Y22880D01*
X13573Y22880D01*
X13630Y22823D01*
X13630Y22709D01*
X13403Y22823D02*
X13403Y22993D01*
X13630Y22993D01*
X13262Y22936D02*
X13205Y22993D01*
X13091Y22993D01*
X13035Y22936D01*
X13035Y22709D01*
X13091Y22653D01*
X13205Y22653D01*
X13262Y22709D01*
X15420Y25151D02*
X15570Y25151D01*
D164*
X-266Y16064D02*
X-255Y11203D01*
X-315Y15040D02*
X-266Y16064D01*
X-366Y15040D01*
X-389Y15040D02*
X-266Y16064D01*
X-161Y15040D01*
X-138Y15040D02*
X-389Y15040D01*
X-212Y15040D02*
X-266Y16064D01*
X-138Y15040D01*
X-1053Y16062D02*
X3669Y16073D01*
X3666Y17447D02*
X-1056Y17437D01*
X-269Y17438D02*
X-374Y18462D01*
X-397Y18462D02*
X-269Y17438D01*
X-169Y18462D01*
X-146Y18462D02*
X-397Y18462D01*
X-323Y18462D02*
X-269Y17438D01*
X-220Y18462D01*
X-146Y18462D02*
X-269Y17438D01*
X-274Y19486D01*
X2291Y24340D02*
X2291Y29458D01*
X2291Y28671D02*
X3315Y28773D01*
X3315Y28797D02*
X3315Y28545D01*
X2291Y28671D01*
X3315Y28569D01*
X3315Y28620D02*
X2291Y28671D01*
X3315Y28722D01*
X3315Y28797D02*
X2291Y28671D01*
X21583Y28671D01*
X20559Y28569D01*
X20559Y28545D02*
X21583Y28671D01*
X20559Y28773D01*
X20559Y28797D02*
X20559Y28545D01*
X20559Y28620D02*
X21583Y28671D01*
X20559Y28722D01*
X20559Y28797D02*
X21583Y28671D01*
X21583Y29458D02*
X21583Y24340D01*
X21583Y23455D02*
X25913Y23455D01*
X25126Y23455D02*
X25228Y22431D01*
X25252Y22431D02*
X25126Y23455D01*
X25024Y22431D01*
X25000Y22431D02*
X25252Y22431D01*
X25177Y22431D02*
X25126Y23455D01*
X25075Y22431D01*
X25000Y22431D02*
X25126Y23455D01*
X25126Y18336D01*
X25228Y19360D01*
X25252Y19360D02*
X25126Y18336D01*
X25024Y19360D01*
X25000Y19360D02*
X25252Y19360D01*
X25177Y19360D02*
X25126Y18336D01*
X25075Y19360D01*
X25000Y19360D02*
X25126Y18336D01*
X25913Y18336D02*
X21583Y18336D01*
X20598Y16073D02*
X29850Y16073D01*
X29063Y16073D02*
X29165Y17096D01*
X29189Y17096D02*
X29063Y16073D01*
X28961Y17096D01*
X28937Y17096D02*
X29189Y17096D01*
X29114Y17096D02*
X29063Y16073D01*
X29012Y17096D01*
X28937Y17096D02*
X29063Y16073D01*
X29063Y25718D01*
X29165Y24695D01*
X29189Y24695D02*
X29063Y25718D01*
X28961Y24695D01*
X28937Y24695D02*
X29189Y24695D01*
X29114Y24695D02*
X29063Y25718D01*
X29012Y24695D01*
X28937Y24695D02*
X29063Y25718D01*
X29850Y25718D02*
X20598Y25718D01*
D165*
X23620Y21969D02*
X23831Y21969D01*
X24043Y21757D01*
X24254Y21969D01*
X24466Y21969D01*
X24677Y21757D01*
X24677Y21334D01*
X24466Y21123D01*
X24677Y20700D02*
X24677Y19854D01*
X24677Y20277D02*
X23408Y20277D01*
X23831Y19854D01*
X23620Y21123D02*
X23408Y21334D01*
X23408Y21757D01*
X23620Y21969D01*
X24043Y21757D02*
X24043Y21546D01*
X27345Y20935D02*
X27980Y20301D01*
X27980Y21147D01*
X28614Y20935D02*
X27345Y20935D01*
X28403Y21569D02*
X28403Y21781D01*
X28614Y21781D01*
X28614Y21569D01*
X28403Y21569D01*
X28403Y22204D02*
X28614Y22415D01*
X28614Y22838D01*
X28403Y23050D01*
X27980Y23050D01*
X27768Y22838D01*
X27768Y22627D01*
X27980Y22204D01*
X27345Y22204D01*
X27345Y23050D01*
X27557Y19878D02*
X27345Y19666D01*
X27345Y19243D01*
X27557Y19032D01*
X27768Y19878D02*
X28614Y19032D01*
X28614Y19878D01*
X27768Y19878D02*
X27557Y19878D01*
X13010Y29331D02*
X13010Y30177D01*
X12799Y30389D01*
X12376Y30389D01*
X12164Y30177D01*
X12164Y29966D01*
X12376Y29754D01*
X13010Y29754D01*
X13010Y29331D02*
X12799Y29120D01*
X12376Y29120D01*
X12164Y29331D01*
X11742Y29754D02*
X10896Y29754D01*
X11530Y30389D01*
X11530Y29120D01*
X1243Y14988D02*
X1455Y14777D01*
X1455Y14354D01*
X1244Y14142D01*
X1033Y14141D01*
X821Y14353D01*
X610Y14141D01*
X398Y14140D01*
X186Y14351D01*
X186Y14775D01*
X397Y14986D01*
X821Y14564D02*
X821Y14353D01*
X399Y13718D02*
X187Y13717D01*
X188Y13506D01*
X399Y13506D01*
X399Y13718D01*
X823Y13084D02*
X825Y12238D01*
X1037Y11815D02*
X826Y11604D01*
X827Y10969D01*
X404Y10968D02*
X1250Y10970D01*
X1461Y11182D01*
X1460Y11605D01*
X1248Y11816D01*
X1037Y11815D01*
X402Y11814D02*
X191Y11603D01*
X192Y11179D01*
X404Y10968D01*
X190Y12448D02*
X1459Y12451D01*
X823Y13084D01*
D166*
X13678Y20356D03*
X13648Y20551D03*
X14053Y20456D03*
X14068Y20446D03*
X14073Y20441D03*
X14083Y20436D03*
X14088Y20431D03*
X14098Y20426D03*
X14103Y20421D03*
X14108Y20416D03*
X14118Y20411D03*
X14123Y20406D03*
X14138Y20396D03*
X14153Y20386D03*
X14158Y20381D03*
X14173Y20371D03*
X14218Y20341D03*
X14233Y20331D03*
X14238Y20326D03*
X14243Y20321D03*
X14258Y20311D03*
X14153Y20036D03*
X14273Y20686D03*
X14393Y20841D03*
X14393Y20846D03*
X14398Y20851D03*
X14398Y20856D03*
X13868Y20996D03*
X13868Y21001D03*
X13708Y21021D03*
X13708Y21026D03*
X14023Y21561D03*
X14023Y21566D03*
D167*
X14153Y21761D03*
X13743Y21956D03*
X12803Y21451D03*
X12803Y20911D03*
X12808Y20906D03*
X13063Y20386D03*
X13793Y20206D03*
X14153Y20041D03*
X15258Y20311D03*
X15343Y21341D03*
X15058Y21491D03*
D168*
X15093Y21471D03*
X13743Y21951D03*
X12898Y21501D03*
X14428Y20161D03*
X14153Y20046D03*
D169*
X14155Y20051D03*
X15125Y20251D03*
X14165Y21791D03*
X13745Y21946D03*
D170*
X15150Y21426D03*
X14155Y20056D03*
D171*
X14153Y20061D03*
X13058Y21556D03*
D172*
X13048Y21546D03*
X14153Y20066D03*
D173*
X14153Y20071D03*
X13038Y21531D03*
D174*
X13755Y21916D03*
X14155Y20076D03*
D175*
X14153Y20081D03*
D176*
X14155Y20086D03*
X13780Y21896D03*
D177*
X13798Y21881D03*
X14153Y20091D03*
D178*
X14153Y20096D03*
X13808Y21871D03*
D179*
X14155Y20101D03*
D180*
X14155Y20106D03*
X13510Y20251D03*
D181*
X13480Y20266D03*
X14155Y20111D03*
D182*
X14155Y20116D03*
X13455Y20281D03*
D183*
X13425Y20301D03*
X14155Y20121D03*
D184*
X14155Y20126D03*
X13420Y20306D03*
X13415Y20311D03*
D185*
X14155Y20131D03*
D186*
X14155Y20136D03*
D187*
X14338Y20246D03*
X14273Y20661D03*
X14408Y20891D03*
X14413Y20901D03*
X14413Y20906D03*
X13868Y21021D03*
X13703Y20996D03*
X13648Y20526D03*
X13683Y20361D03*
X14888Y20136D03*
X14028Y21591D03*
D188*
X14153Y20141D03*
D189*
X14073Y20471D03*
X14888Y20141D03*
X15363Y20796D03*
X15368Y20801D03*
X15373Y20811D03*
X15378Y20816D03*
X15383Y20821D03*
X15388Y20826D03*
X15393Y21301D03*
X15388Y21306D03*
X15383Y21311D03*
X15048Y21496D03*
X14923Y21716D03*
X14918Y21721D03*
X14913Y21726D03*
X12933Y20811D03*
X12773Y20936D03*
X12768Y20941D03*
X12768Y21421D03*
X12773Y21426D03*
X13018Y20421D03*
X13023Y20416D03*
D190*
X13940Y20146D03*
X14890Y20156D03*
X15135Y21436D03*
D191*
X15143Y21431D03*
X15193Y21401D03*
X13958Y21851D03*
X13078Y21576D03*
X12958Y21516D03*
X14368Y20146D03*
D192*
X14888Y20146D03*
X15188Y20271D03*
X15083Y21476D03*
X14803Y21796D03*
X14158Y21776D03*
X13133Y20346D03*
D193*
X13910Y20151D03*
X14400Y20151D03*
X13990Y21846D03*
D194*
X12933Y21511D03*
X14888Y20151D03*
X15223Y21396D03*
X15113Y21456D03*
D195*
X15100Y21466D03*
X15240Y21391D03*
X14415Y20156D03*
X13895Y20156D03*
X12915Y21506D03*
D196*
X13110Y21601D03*
X13150Y20341D03*
X13625Y20326D03*
X13880Y20161D03*
X14080Y20496D03*
D197*
X14888Y20161D03*
X13063Y21561D03*
D198*
X12885Y21496D03*
X14090Y20486D03*
X13865Y20166D03*
X14445Y20166D03*
X14625Y20261D03*
X15270Y21381D03*
D199*
X14890Y20166D03*
D200*
X14455Y20171D03*
X14090Y20481D03*
X13855Y20171D03*
X13125Y20351D03*
X12875Y21491D03*
X15280Y21376D03*
D201*
X13730Y21931D03*
X14890Y20171D03*
D202*
X14465Y20176D03*
X13845Y20176D03*
X13115Y20356D03*
X12900Y20846D03*
X12895Y20851D03*
X12860Y20876D03*
X14825Y21786D03*
X15290Y21371D03*
D203*
X14890Y20176D03*
D204*
X14475Y20181D03*
X13835Y20181D03*
X13430Y20221D03*
X13095Y20366D03*
X12910Y20836D03*
X12905Y20841D03*
X12845Y21476D03*
X14835Y21781D03*
X15310Y21361D03*
D205*
X14890Y20181D03*
D206*
X15218Y20286D03*
X15228Y20291D03*
X13828Y20186D03*
X13818Y20191D03*
X12843Y20886D03*
X12833Y20891D03*
X12833Y21471D03*
X14843Y21776D03*
X15068Y21486D03*
X15318Y21356D03*
D207*
X15303Y21366D03*
X14158Y21771D03*
X12853Y21481D03*
X12853Y20881D03*
X13103Y20361D03*
X14093Y20501D03*
X14483Y20186D03*
X14618Y20266D03*
X15208Y20281D03*
D208*
X14890Y20186D03*
X13775Y21901D03*
D209*
X14768Y20191D03*
D210*
X15243Y20301D03*
X13808Y20196D03*
X13078Y20376D03*
X12818Y21461D03*
X14853Y21771D03*
X14858Y21766D03*
X15328Y21351D03*
D211*
X14460Y21061D03*
X14460Y21056D03*
X14260Y20561D03*
X14260Y20556D03*
X14365Y20196D03*
X13640Y20456D03*
X13685Y20906D03*
X13685Y20911D03*
X13860Y21086D03*
X14040Y21676D03*
X14040Y21681D03*
D212*
X14790Y20196D03*
X14800Y20201D03*
D213*
X14610Y20271D03*
X14105Y20506D03*
X13800Y20201D03*
X13070Y20381D03*
X12920Y20826D03*
X12815Y20901D03*
X12810Y21456D03*
X14865Y21761D03*
X15335Y21346D03*
X15250Y20306D03*
D214*
X14360Y20201D03*
X13685Y20371D03*
X13685Y20921D03*
X13860Y21076D03*
X13860Y21081D03*
X14450Y21026D03*
X14455Y21036D03*
X14455Y21041D03*
X14035Y21661D03*
D215*
X14038Y21656D03*
X13863Y21071D03*
X13688Y20931D03*
X13688Y20926D03*
X13643Y20476D03*
X13643Y20471D03*
X14263Y20581D03*
X14263Y20586D03*
X14588Y20316D03*
X14358Y20206D03*
X14448Y21016D03*
X14448Y21021D03*
X14453Y21031D03*
D216*
X14838Y20221D03*
X14828Y20216D03*
X14808Y20206D03*
D217*
X15265Y20316D03*
X15270Y20321D03*
X15350Y21336D03*
X14880Y21751D03*
X14875Y21756D03*
X12925Y20821D03*
X12795Y20916D03*
X13055Y20391D03*
X13780Y20216D03*
X13785Y20211D03*
X12795Y21446D03*
D218*
X13693Y20946D03*
X13863Y21061D03*
X14443Y21001D03*
X14443Y20996D03*
X14033Y21641D03*
X13643Y20491D03*
X13643Y20486D03*
X13643Y20481D03*
X14358Y20211D03*
D219*
X14820Y20211D03*
X14845Y20226D03*
X14855Y20231D03*
X14860Y20236D03*
X14870Y20241D03*
D220*
X15350Y20401D03*
X15355Y20406D03*
X15355Y20411D03*
X15360Y20416D03*
X15365Y20741D03*
X15360Y20751D03*
X15355Y20756D03*
X15355Y20761D03*
X15350Y20771D03*
X15350Y20776D03*
X15450Y20896D03*
X15455Y20901D03*
X15460Y20911D03*
X15455Y21226D03*
X15450Y21236D03*
X15445Y21241D03*
X15035Y21501D03*
X14980Y21646D03*
X14975Y21651D03*
X14975Y21656D03*
X14970Y21661D03*
X14965Y21666D03*
X12940Y20801D03*
X12715Y20996D03*
X12710Y21006D03*
X12705Y21011D03*
X12700Y21016D03*
X12695Y21026D03*
X12695Y21336D03*
X12700Y21346D03*
X12705Y21351D03*
X12710Y21356D03*
X12715Y21366D03*
X12950Y20506D03*
X12955Y20496D03*
X12960Y20491D03*
X12960Y20486D03*
X12965Y20481D03*
X13430Y20216D03*
X14305Y20296D03*
D221*
X14355Y20216D03*
X14265Y20601D03*
X14265Y20606D03*
X14435Y20976D03*
X14435Y20981D03*
X14440Y20986D03*
X14440Y20991D03*
X13865Y21056D03*
X13690Y20951D03*
X13575Y21646D03*
X13570Y21676D03*
X13565Y21706D03*
X13560Y21736D03*
X13555Y21761D03*
X13555Y21766D03*
X13550Y21791D03*
X13550Y21796D03*
X13545Y21821D03*
X13545Y21826D03*
X13525Y21946D03*
X13525Y21951D03*
X14035Y21636D03*
D222*
X13613Y21851D03*
X13143Y21616D03*
X12788Y21441D03*
X12783Y21436D03*
X12783Y20926D03*
X12788Y20921D03*
X12928Y20816D03*
X13043Y20401D03*
X13048Y20396D03*
X13653Y20336D03*
X13773Y20221D03*
X14608Y20276D03*
X15278Y20326D03*
X15363Y21326D03*
X15358Y21331D03*
X14888Y21746D03*
D223*
X14088Y21386D03*
X14093Y21366D03*
X14098Y21346D03*
X14103Y21321D03*
X14108Y21301D03*
X14113Y21281D03*
X14118Y21256D03*
X14123Y21236D03*
X14128Y21216D03*
X14133Y21191D03*
X14138Y21171D03*
X14143Y21151D03*
X14148Y21126D03*
X14153Y21106D03*
X14158Y21086D03*
X14163Y21061D03*
X14168Y21041D03*
X14173Y21021D03*
X14178Y20996D03*
X14183Y20976D03*
X14188Y20956D03*
X14193Y20931D03*
X14198Y20911D03*
X14203Y20891D03*
X14208Y20866D03*
X14213Y20846D03*
X14218Y20826D03*
X14223Y20801D03*
X14228Y20786D03*
X14228Y20781D03*
X14233Y20771D03*
X14233Y20766D03*
X14233Y20761D03*
X14238Y20746D03*
X14238Y20741D03*
X14238Y20736D03*
X14243Y20726D03*
X14243Y20721D03*
X14268Y20616D03*
X14268Y20611D03*
X14388Y20576D03*
X14388Y20571D03*
X14388Y20566D03*
X14388Y20561D03*
X14383Y20551D03*
X14383Y20546D03*
X14383Y20541D03*
X14383Y20536D03*
X14383Y20531D03*
X14383Y20526D03*
X14383Y20521D03*
X14383Y20516D03*
X14383Y20511D03*
X14378Y20506D03*
X14378Y20501D03*
X14378Y20496D03*
X14378Y20491D03*
X14378Y20486D03*
X14378Y20481D03*
X14378Y20476D03*
X14378Y20471D03*
X14378Y20466D03*
X14378Y20461D03*
X14373Y20456D03*
X14373Y20451D03*
X14373Y20446D03*
X14373Y20441D03*
X14373Y20436D03*
X14373Y20431D03*
X14373Y20426D03*
X14373Y20421D03*
X14373Y20416D03*
X14373Y20411D03*
X14368Y20406D03*
X14368Y20401D03*
X14368Y20396D03*
X14368Y20391D03*
X14368Y20386D03*
X14368Y20381D03*
X14368Y20376D03*
X14368Y20371D03*
X14368Y20366D03*
X14368Y20361D03*
X14363Y20356D03*
X14363Y20351D03*
X14363Y20346D03*
X14363Y20341D03*
X14363Y20336D03*
X14363Y20331D03*
X14363Y20326D03*
X14363Y20321D03*
X14363Y20316D03*
X14363Y20311D03*
X14358Y20306D03*
X14353Y20221D03*
X14393Y20611D03*
X14393Y20616D03*
X14393Y20621D03*
X14398Y20661D03*
X14398Y20666D03*
X14403Y20691D03*
X14403Y20696D03*
X14403Y20701D03*
X14403Y20706D03*
X14403Y20711D03*
X14408Y20721D03*
X14408Y20726D03*
X14408Y20731D03*
X14408Y20736D03*
X14408Y20741D03*
X14408Y20746D03*
X14408Y20751D03*
X14408Y20756D03*
X14413Y20766D03*
X14413Y20771D03*
X14413Y20776D03*
X14413Y20781D03*
X14413Y20786D03*
X14413Y20791D03*
X14433Y20966D03*
X14433Y20971D03*
X14083Y21411D03*
X14078Y21431D03*
X14073Y21451D03*
X14068Y21471D03*
X14068Y21476D03*
X14063Y21496D03*
X14058Y21516D03*
X14033Y21626D03*
X14033Y21631D03*
X13593Y21556D03*
X13593Y21551D03*
X13593Y21546D03*
X13593Y21541D03*
X13593Y21536D03*
X13593Y21531D03*
X13598Y21521D03*
X13598Y21516D03*
X13598Y21511D03*
X13598Y21506D03*
X13598Y21501D03*
X13603Y21491D03*
X13603Y21486D03*
X13603Y21481D03*
X13603Y21476D03*
X13608Y21466D03*
X13608Y21461D03*
X13608Y21456D03*
X13608Y21451D03*
X13608Y21446D03*
X13613Y21436D03*
X13613Y21431D03*
X13613Y21426D03*
X13613Y21421D03*
X13613Y21416D03*
X13618Y21406D03*
X13618Y21401D03*
X13618Y21396D03*
X13618Y21391D03*
X13618Y21386D03*
X13623Y21376D03*
X13623Y21371D03*
X13623Y21366D03*
X13623Y21361D03*
X13628Y21351D03*
X13628Y21346D03*
X13628Y21341D03*
X13628Y21336D03*
X13628Y21331D03*
X13633Y21321D03*
X13633Y21316D03*
X13633Y21311D03*
X13633Y21306D03*
X13633Y21301D03*
X13638Y21291D03*
X13638Y21286D03*
X13638Y21281D03*
X13638Y21276D03*
X13638Y21271D03*
X13643Y21261D03*
X13643Y21256D03*
X13643Y21251D03*
X13643Y21246D03*
X13643Y21241D03*
X13648Y21231D03*
X13648Y21226D03*
X13648Y21221D03*
X13648Y21216D03*
X13653Y21206D03*
X13653Y21201D03*
X13653Y21196D03*
X13653Y21191D03*
X13653Y21186D03*
X13658Y21176D03*
X13658Y21171D03*
X13658Y21166D03*
X13658Y21161D03*
X13658Y21156D03*
X13663Y21146D03*
X13663Y21141D03*
X13663Y21136D03*
X13663Y21131D03*
X13663Y21126D03*
X13668Y21116D03*
X13668Y21111D03*
X13668Y21106D03*
X13668Y21101D03*
X13673Y21091D03*
X13673Y21086D03*
X13673Y21081D03*
X13673Y21076D03*
X13673Y21071D03*
X13693Y20956D03*
X13813Y20916D03*
X13803Y20891D03*
X13793Y20866D03*
X13823Y20941D03*
X13863Y21051D03*
X13483Y20911D03*
X13493Y20886D03*
X13473Y20936D03*
X13463Y20961D03*
X13438Y21026D03*
X13428Y21051D03*
X13418Y21076D03*
X13408Y21101D03*
X13373Y21191D03*
X13363Y21216D03*
X13353Y21241D03*
X13343Y21266D03*
X13318Y21331D03*
X13308Y21356D03*
X13298Y21381D03*
X13288Y21406D03*
X13278Y21431D03*
X13268Y21456D03*
X13263Y21471D03*
X13253Y21496D03*
X13588Y21561D03*
X13588Y21566D03*
X13588Y21571D03*
X13588Y21576D03*
X13588Y21581D03*
X13588Y21586D03*
X13583Y21591D03*
X13583Y21596D03*
X13583Y21601D03*
X13583Y21606D03*
X13583Y21611D03*
X13583Y21616D03*
X13578Y21621D03*
X13578Y21626D03*
X13578Y21631D03*
X13578Y21636D03*
X13578Y21641D03*
X13573Y21651D03*
X13573Y21656D03*
X13573Y21661D03*
X13573Y21666D03*
X13573Y21671D03*
X13568Y21681D03*
X13568Y21686D03*
X13568Y21691D03*
X13568Y21696D03*
X13568Y21701D03*
X13563Y21711D03*
X13563Y21716D03*
X13563Y21721D03*
X13563Y21726D03*
X13563Y21731D03*
X13558Y21741D03*
X13558Y21746D03*
X13558Y21751D03*
X13558Y21756D03*
X13553Y21771D03*
X13553Y21776D03*
X13553Y21781D03*
X13553Y21786D03*
X13548Y21801D03*
X13548Y21806D03*
X13548Y21811D03*
X13548Y21816D03*
X13523Y21956D03*
X13523Y21961D03*
X13518Y20821D03*
X13528Y20796D03*
X13538Y20771D03*
X13548Y20746D03*
X13573Y20681D03*
X13583Y20656D03*
X13593Y20631D03*
X13603Y20606D03*
X13643Y20501D03*
X13643Y20496D03*
D224*
X13428Y20226D03*
X15148Y20256D03*
X14508Y21916D03*
X14163Y21786D03*
D225*
X14895Y21741D03*
X14900Y21736D03*
X14905Y21731D03*
X15370Y21321D03*
X15375Y21316D03*
X15295Y20341D03*
X15290Y20336D03*
X15285Y20331D03*
X13765Y20226D03*
X13760Y20231D03*
X13755Y20236D03*
X13035Y20406D03*
X13030Y20411D03*
X12775Y20931D03*
X12780Y21431D03*
D226*
X13150Y21761D03*
X13145Y21776D03*
X13140Y21786D03*
X13135Y21801D03*
X13130Y21811D03*
X13125Y21826D03*
X13120Y21836D03*
X13115Y21851D03*
X13110Y21861D03*
X13105Y21876D03*
X13100Y21886D03*
X13095Y21901D03*
X13090Y21911D03*
X13090Y21916D03*
X13085Y21926D03*
X13080Y21936D03*
X13080Y21941D03*
X13080Y21946D03*
X13075Y21951D03*
X13075Y21956D03*
X13070Y21961D03*
X13160Y21736D03*
X13170Y21711D03*
X13175Y21696D03*
X13180Y21686D03*
X13185Y21671D03*
X13190Y21661D03*
X13195Y21646D03*
X13200Y21636D03*
X13200Y21631D03*
X13245Y21511D03*
X13250Y21506D03*
X13250Y21501D03*
X13255Y21491D03*
X13255Y21486D03*
X13260Y21481D03*
X13260Y21476D03*
X13265Y21466D03*
X13265Y21461D03*
X13270Y21451D03*
X13270Y21446D03*
X13275Y21441D03*
X13275Y21436D03*
X13280Y21426D03*
X13280Y21421D03*
X13285Y21416D03*
X13285Y21411D03*
X13290Y21401D03*
X13290Y21396D03*
X13295Y21391D03*
X13295Y21386D03*
X13300Y21376D03*
X13300Y21371D03*
X13305Y21366D03*
X13305Y21361D03*
X13310Y21351D03*
X13310Y21346D03*
X13315Y21341D03*
X13315Y21336D03*
X13320Y21326D03*
X13320Y21321D03*
X13325Y21316D03*
X13325Y21311D03*
X13325Y21306D03*
X13330Y21301D03*
X13330Y21296D03*
X13335Y21291D03*
X13335Y21286D03*
X13335Y21281D03*
X13340Y21276D03*
X13340Y21271D03*
X13345Y21261D03*
X13345Y21256D03*
X13350Y21251D03*
X13350Y21246D03*
X13355Y21236D03*
X13355Y21231D03*
X13360Y21226D03*
X13360Y21221D03*
X13365Y21211D03*
X13365Y21206D03*
X13370Y21201D03*
X13370Y21196D03*
X13375Y21186D03*
X13375Y21181D03*
X13380Y21176D03*
X13380Y21171D03*
X13380Y21166D03*
X13385Y21161D03*
X13385Y21156D03*
X13390Y21151D03*
X13390Y21146D03*
X13390Y21141D03*
X13395Y21136D03*
X13395Y21131D03*
X13400Y21126D03*
X13400Y21121D03*
X13400Y21116D03*
X13405Y21111D03*
X13405Y21106D03*
X13410Y21096D03*
X13410Y21091D03*
X13415Y21086D03*
X13415Y21081D03*
X13420Y21071D03*
X13420Y21066D03*
X13425Y21061D03*
X13425Y21056D03*
X13430Y21046D03*
X13430Y21041D03*
X13435Y21036D03*
X13435Y21031D03*
X13440Y21021D03*
X13440Y21016D03*
X13445Y21011D03*
X13445Y21006D03*
X13445Y21001D03*
X13450Y20996D03*
X13450Y20991D03*
X13455Y20986D03*
X13455Y20981D03*
X13455Y20976D03*
X13460Y20971D03*
X13460Y20966D03*
X13465Y20956D03*
X13465Y20951D03*
X13470Y20946D03*
X13470Y20941D03*
X13475Y20931D03*
X13475Y20926D03*
X13480Y20921D03*
X13480Y20916D03*
X13485Y20906D03*
X13485Y20901D03*
X13490Y20896D03*
X13490Y20891D03*
X13495Y20881D03*
X13495Y20876D03*
X13500Y20871D03*
X13500Y20866D03*
X13500Y20861D03*
X13505Y20856D03*
X13505Y20851D03*
X13510Y20846D03*
X13510Y20841D03*
X13510Y20836D03*
X13515Y20831D03*
X13515Y20826D03*
X13520Y20816D03*
X13520Y20811D03*
X13525Y20806D03*
X13525Y20801D03*
X13530Y20791D03*
X13530Y20786D03*
X13535Y20781D03*
X13535Y20776D03*
X13540Y20766D03*
X13540Y20761D03*
X13545Y20756D03*
X13545Y20751D03*
X13550Y20741D03*
X13550Y20736D03*
X13555Y20731D03*
X13555Y20726D03*
X13555Y20721D03*
X13560Y20716D03*
X13560Y20711D03*
X13565Y20706D03*
X13565Y20701D03*
X13565Y20696D03*
X13570Y20691D03*
X13570Y20686D03*
X13575Y20676D03*
X13575Y20671D03*
X13580Y20666D03*
X13580Y20661D03*
X13585Y20651D03*
X13585Y20646D03*
X13590Y20641D03*
X13590Y20636D03*
X13595Y20626D03*
X13595Y20621D03*
X13600Y20616D03*
X13600Y20611D03*
X13605Y20601D03*
X13605Y20596D03*
X13610Y20591D03*
X13690Y20611D03*
X13700Y20636D03*
X13705Y20646D03*
X13710Y20661D03*
X13715Y20671D03*
X13720Y20681D03*
X13720Y20686D03*
X13725Y20696D03*
X13730Y20706D03*
X13730Y20711D03*
X13735Y20721D03*
X13740Y20731D03*
X13740Y20736D03*
X13745Y20746D03*
X13750Y20756D03*
X13755Y20766D03*
X13755Y20771D03*
X13760Y20781D03*
X13765Y20791D03*
X13765Y20796D03*
X13770Y20806D03*
X13775Y20816D03*
X13775Y20821D03*
X13775Y20826D03*
X13780Y20831D03*
X13780Y20836D03*
X13785Y20841D03*
X13785Y20846D03*
X13785Y20851D03*
X13790Y20856D03*
X13790Y20861D03*
X13795Y20871D03*
X13795Y20876D03*
X13800Y20881D03*
X13800Y20886D03*
X13805Y20896D03*
X13805Y20901D03*
X13810Y20906D03*
X13810Y20911D03*
X13815Y20921D03*
X13815Y20926D03*
X13820Y20931D03*
X13820Y20936D03*
X13825Y20946D03*
X13825Y20951D03*
X13830Y20956D03*
X13830Y20961D03*
X13830Y20966D03*
X13865Y21046D03*
X13815Y21196D03*
X13820Y21206D03*
X13825Y21216D03*
X13830Y21226D03*
X13835Y21236D03*
X13840Y21246D03*
X13845Y21256D03*
X13850Y21266D03*
X13855Y21276D03*
X13860Y21286D03*
X13865Y21291D03*
X13865Y21296D03*
X13870Y21301D03*
X13870Y21306D03*
X13875Y21311D03*
X13875Y21316D03*
X13880Y21321D03*
X13880Y21326D03*
X13885Y21331D03*
X13890Y21341D03*
X13895Y21351D03*
X13900Y21361D03*
X13905Y21371D03*
X13910Y21381D03*
X13915Y21391D03*
X13920Y21401D03*
X13925Y21411D03*
X13930Y21421D03*
X13935Y21431D03*
X13940Y21441D03*
X13945Y21451D03*
X13950Y21461D03*
X13955Y21471D03*
X13960Y21481D03*
X13965Y21491D03*
X13970Y21501D03*
X13975Y21511D03*
X13980Y21521D03*
X13985Y21531D03*
X14055Y21531D03*
X14055Y21526D03*
X14055Y21521D03*
X14060Y21511D03*
X14060Y21506D03*
X14060Y21501D03*
X14065Y21491D03*
X14065Y21486D03*
X14065Y21481D03*
X14070Y21466D03*
X14070Y21461D03*
X14070Y21456D03*
X14075Y21446D03*
X14075Y21441D03*
X14075Y21436D03*
X14080Y21426D03*
X14080Y21421D03*
X14080Y21416D03*
X14085Y21406D03*
X14085Y21401D03*
X14085Y21396D03*
X14085Y21391D03*
X14090Y21381D03*
X14090Y21376D03*
X14090Y21371D03*
X14095Y21361D03*
X14095Y21356D03*
X14095Y21351D03*
X14100Y21341D03*
X14100Y21336D03*
X14100Y21331D03*
X14100Y21326D03*
X14105Y21316D03*
X14105Y21311D03*
X14105Y21306D03*
X14110Y21296D03*
X14110Y21291D03*
X14110Y21286D03*
X14115Y21276D03*
X14115Y21271D03*
X14115Y21266D03*
X14115Y21261D03*
X14120Y21251D03*
X14120Y21246D03*
X14120Y21241D03*
X14125Y21231D03*
X14125Y21226D03*
X14125Y21221D03*
X14130Y21211D03*
X14130Y21206D03*
X14130Y21201D03*
X14130Y21196D03*
X14135Y21186D03*
X14135Y21181D03*
X14135Y21176D03*
X14140Y21166D03*
X14140Y21161D03*
X14140Y21156D03*
X14145Y21146D03*
X14145Y21141D03*
X14145Y21136D03*
X14145Y21131D03*
X14150Y21121D03*
X14150Y21116D03*
X14150Y21111D03*
X14155Y21101D03*
X14155Y21096D03*
X14155Y21091D03*
X14160Y21081D03*
X14160Y21076D03*
X14160Y21071D03*
X14160Y21066D03*
X14165Y21056D03*
X14165Y21051D03*
X14165Y21046D03*
X14170Y21036D03*
X14170Y21031D03*
X14170Y21026D03*
X14175Y21016D03*
X14175Y21011D03*
X14175Y21006D03*
X14175Y21001D03*
X14180Y20991D03*
X14180Y20986D03*
X14180Y20981D03*
X14185Y20971D03*
X14185Y20966D03*
X14185Y20961D03*
X14190Y20951D03*
X14190Y20946D03*
X14190Y20941D03*
X14190Y20936D03*
X14195Y20926D03*
X14195Y20921D03*
X14195Y20916D03*
X14200Y20906D03*
X14200Y20901D03*
X14200Y20896D03*
X14205Y20886D03*
X14205Y20881D03*
X14205Y20876D03*
X14205Y20871D03*
X14210Y20861D03*
X14210Y20856D03*
X14210Y20851D03*
X14215Y20841D03*
X14215Y20836D03*
X14215Y20831D03*
X14220Y20821D03*
X14220Y20816D03*
X14220Y20811D03*
X14220Y20806D03*
X14225Y20796D03*
X14225Y20791D03*
X14230Y20776D03*
X14235Y20756D03*
X14235Y20751D03*
X14240Y20731D03*
X14310Y20721D03*
X14315Y20731D03*
X14320Y20741D03*
X14325Y20751D03*
X14330Y20761D03*
X14335Y20771D03*
X14340Y20781D03*
X14345Y20791D03*
X14410Y20761D03*
X14405Y20716D03*
X14400Y20686D03*
X14400Y20681D03*
X14400Y20676D03*
X14400Y20671D03*
X14395Y20656D03*
X14395Y20651D03*
X14395Y20646D03*
X14395Y20641D03*
X14395Y20636D03*
X14395Y20631D03*
X14395Y20626D03*
X14390Y20606D03*
X14390Y20601D03*
X14390Y20596D03*
X14390Y20591D03*
X14390Y20586D03*
X14390Y20581D03*
X14385Y20556D03*
X14265Y20621D03*
X14430Y20956D03*
X14430Y20961D03*
X13695Y20961D03*
X13675Y21066D03*
X13670Y21096D03*
X13665Y21121D03*
X13660Y21151D03*
X13655Y21181D03*
X13650Y21211D03*
X13645Y21236D03*
X13640Y21266D03*
X13635Y21296D03*
X13630Y21326D03*
X13625Y21356D03*
X13620Y21381D03*
X13615Y21411D03*
X13610Y21441D03*
X13605Y21471D03*
X13600Y21496D03*
X13595Y21526D03*
X14030Y21616D03*
X14030Y21621D03*
X14145Y21716D03*
X13680Y20366D03*
X14350Y20226D03*
D227*
X13430Y20231D03*
D228*
X13643Y20506D03*
X13643Y20511D03*
X13683Y20591D03*
X13683Y20596D03*
X13688Y20601D03*
X13688Y20606D03*
X13693Y20616D03*
X13693Y20621D03*
X13698Y20626D03*
X13698Y20631D03*
X13703Y20641D03*
X13708Y20651D03*
X13708Y20656D03*
X13713Y20666D03*
X13718Y20676D03*
X13723Y20691D03*
X13728Y20701D03*
X13733Y20716D03*
X13738Y20726D03*
X13743Y20741D03*
X13748Y20751D03*
X13753Y20761D03*
X13758Y20776D03*
X13763Y20786D03*
X13768Y20801D03*
X13773Y20811D03*
X13698Y20966D03*
X13698Y20971D03*
X13748Y21066D03*
X13753Y21076D03*
X13758Y21086D03*
X13763Y21091D03*
X13763Y21096D03*
X13768Y21101D03*
X13768Y21106D03*
X13773Y21111D03*
X13773Y21116D03*
X13778Y21121D03*
X13778Y21126D03*
X13783Y21131D03*
X13783Y21136D03*
X13788Y21141D03*
X13788Y21146D03*
X13793Y21151D03*
X13793Y21156D03*
X13798Y21161D03*
X13798Y21166D03*
X13803Y21171D03*
X13803Y21176D03*
X13808Y21181D03*
X13808Y21186D03*
X13813Y21191D03*
X13818Y21201D03*
X13823Y21211D03*
X13828Y21221D03*
X13833Y21231D03*
X13838Y21241D03*
X13843Y21251D03*
X13848Y21261D03*
X13853Y21271D03*
X13858Y21281D03*
X13888Y21336D03*
X13893Y21346D03*
X13898Y21356D03*
X13903Y21366D03*
X13908Y21376D03*
X13913Y21386D03*
X13918Y21396D03*
X13923Y21406D03*
X13928Y21416D03*
X13933Y21426D03*
X13938Y21436D03*
X13943Y21446D03*
X13948Y21456D03*
X13953Y21466D03*
X13958Y21476D03*
X13963Y21486D03*
X13968Y21496D03*
X13973Y21506D03*
X13978Y21516D03*
X13983Y21526D03*
X13863Y21041D03*
X13928Y20926D03*
X13943Y20901D03*
X13958Y20876D03*
X13963Y20866D03*
X13973Y20851D03*
X13978Y20841D03*
X13983Y20831D03*
X13988Y20826D03*
X13993Y20816D03*
X13998Y20806D03*
X14003Y20801D03*
X14008Y20791D03*
X14013Y20781D03*
X14018Y20771D03*
X14023Y20766D03*
X14023Y20761D03*
X14028Y20756D03*
X14028Y20751D03*
X14033Y20746D03*
X14038Y20741D03*
X14038Y20736D03*
X14043Y20731D03*
X14043Y20726D03*
X14048Y20721D03*
X14053Y20716D03*
X14053Y20711D03*
X14058Y20706D03*
X14058Y20701D03*
X14063Y20696D03*
X14068Y20691D03*
X14068Y20686D03*
X14073Y20681D03*
X14073Y20676D03*
X14078Y20671D03*
X14083Y20666D03*
X14083Y20661D03*
X14088Y20656D03*
X14088Y20651D03*
X14093Y20646D03*
X14098Y20641D03*
X14098Y20636D03*
X14103Y20631D03*
X14103Y20626D03*
X14108Y20621D03*
X14113Y20616D03*
X14113Y20611D03*
X14118Y20606D03*
X14118Y20601D03*
X14123Y20596D03*
X14128Y20591D03*
X14128Y20586D03*
X14133Y20581D03*
X14133Y20576D03*
X14138Y20571D03*
X14143Y20566D03*
X14143Y20561D03*
X14148Y20556D03*
X14148Y20551D03*
X14153Y20546D03*
X14158Y20541D03*
X14158Y20536D03*
X14163Y20531D03*
X14268Y20626D03*
X14268Y20631D03*
X14313Y20726D03*
X14318Y20736D03*
X14323Y20746D03*
X14328Y20756D03*
X14333Y20766D03*
X14338Y20776D03*
X14343Y20786D03*
X14428Y20951D03*
X14348Y20231D03*
X13198Y21641D03*
X13193Y21651D03*
X13193Y21656D03*
X13188Y21666D03*
X13183Y21676D03*
X13183Y21681D03*
X13178Y21691D03*
X13173Y21701D03*
X13173Y21706D03*
X13168Y21716D03*
X13168Y21721D03*
X13163Y21726D03*
X13163Y21731D03*
X13158Y21741D03*
X13158Y21746D03*
X13153Y21751D03*
X13153Y21756D03*
X13148Y21766D03*
X13148Y21771D03*
X13143Y21781D03*
X13138Y21791D03*
X13138Y21796D03*
X13133Y21806D03*
X13128Y21816D03*
X13128Y21821D03*
X13123Y21831D03*
X13118Y21841D03*
X13118Y21846D03*
X13113Y21856D03*
X13108Y21866D03*
X13108Y21871D03*
X13103Y21881D03*
X13098Y21891D03*
X13098Y21896D03*
X13093Y21906D03*
X13088Y21921D03*
X13083Y21931D03*
D229*
X13065Y21566D03*
X13430Y20236D03*
D230*
X13643Y20521D03*
X13698Y20976D03*
X13698Y20981D03*
X14158Y20526D03*
X14418Y20921D03*
X14418Y20926D03*
X14343Y20236D03*
X14028Y21601D03*
X14028Y21606D03*
D231*
X14510Y21901D03*
X13055Y21551D03*
X13430Y20241D03*
D232*
X13750Y20241D03*
X13015Y20426D03*
X13010Y20431D03*
X12760Y20946D03*
X12755Y20951D03*
X12750Y20956D03*
X12750Y21406D03*
X12755Y21411D03*
X12760Y21416D03*
X14150Y21756D03*
X15400Y21296D03*
X15405Y21291D03*
X15410Y20846D03*
X15405Y20841D03*
X15400Y20836D03*
X15395Y20831D03*
X15370Y20806D03*
X15360Y20791D03*
X15310Y20356D03*
X15305Y20351D03*
X15300Y20346D03*
D233*
X14415Y20911D03*
X14415Y20916D03*
X14270Y20656D03*
X14270Y20651D03*
X14270Y20646D03*
X14340Y20241D03*
X13865Y21026D03*
X13700Y20991D03*
X13700Y20986D03*
X14025Y21596D03*
X14145Y21721D03*
D234*
X13520Y20246D03*
D235*
X14878Y20246D03*
D236*
X14335Y20251D03*
X14270Y20666D03*
X14405Y20881D03*
X14405Y20886D03*
X14410Y20896D03*
X13865Y21016D03*
X13705Y21001D03*
X13645Y20531D03*
X14025Y21581D03*
X14025Y21586D03*
X13560Y21836D03*
D237*
X15125Y21446D03*
X14645Y20251D03*
D238*
X13495Y20256D03*
D239*
X13645Y20546D03*
X13705Y21011D03*
X13705Y21016D03*
X14275Y20681D03*
X14400Y20861D03*
X14400Y20866D03*
X14130Y20401D03*
X14145Y20391D03*
X14165Y20376D03*
X14180Y20366D03*
X14185Y20361D03*
X14195Y20356D03*
X14250Y20316D03*
X14265Y20306D03*
X14330Y20256D03*
X14025Y21571D03*
X14025Y21576D03*
X13745Y21961D03*
X13185Y21626D03*
D240*
X13103Y21596D03*
X13163Y20336D03*
X14633Y20256D03*
D241*
X13488Y20261D03*
X14508Y21856D03*
D242*
X13710Y21031D03*
X13645Y20556D03*
X14060Y20451D03*
X14145Y20521D03*
X14205Y20351D03*
X14210Y20346D03*
X14225Y20336D03*
X14330Y20261D03*
X14590Y20301D03*
X14275Y20691D03*
X14275Y20696D03*
X14275Y20701D03*
X14390Y20831D03*
X14390Y20836D03*
D243*
X15160Y20261D03*
X15255Y21386D03*
X14775Y21806D03*
X14160Y21781D03*
D244*
X14148Y21731D03*
X14023Y21556D03*
X14023Y21551D03*
X13573Y21841D03*
X13708Y21036D03*
X13868Y20991D03*
X14388Y20826D03*
X14388Y20821D03*
X14278Y20706D03*
X14053Y20461D03*
X14328Y20266D03*
X13648Y20561D03*
X13648Y20566D03*
D245*
X14083Y20491D03*
X15173Y20266D03*
X14793Y21801D03*
D246*
X13470Y20271D03*
D247*
X13673Y20351D03*
X13648Y20576D03*
X13713Y21051D03*
X13713Y21056D03*
X14018Y21536D03*
X14148Y21736D03*
X14383Y20806D03*
X14378Y20796D03*
X14278Y20716D03*
X14323Y20271D03*
X14593Y20296D03*
D248*
X13463Y20276D03*
X14508Y21851D03*
D249*
X13870Y20976D03*
X13870Y20971D03*
X13715Y21061D03*
X13645Y20581D03*
X14320Y20276D03*
D250*
X15198Y20276D03*
X15078Y21481D03*
X14813Y21791D03*
X14508Y21921D03*
X13118Y21606D03*
X12863Y21486D03*
X12868Y20871D03*
X12878Y20866D03*
X12883Y20861D03*
X12888Y20856D03*
D251*
X13648Y20586D03*
X14318Y20281D03*
D252*
X14603Y20281D03*
X14118Y20511D03*
X13663Y20341D03*
X13003Y20436D03*
X12998Y20441D03*
X12993Y20446D03*
X12748Y21401D03*
X14508Y21926D03*
X14928Y21711D03*
X14933Y21706D03*
X14938Y21701D03*
X14943Y21696D03*
X15408Y21286D03*
X15413Y21281D03*
X15418Y21276D03*
X15413Y20851D03*
X15358Y20786D03*
X15318Y20361D03*
D253*
X13445Y20286D03*
X13440Y20291D03*
D254*
X13668Y20346D03*
X14313Y20286D03*
X15393Y20481D03*
X15398Y20491D03*
X15398Y20496D03*
X15398Y20501D03*
X15403Y20511D03*
X15403Y20516D03*
X15403Y20521D03*
X15408Y20531D03*
X15408Y20536D03*
X15408Y20541D03*
X15408Y20546D03*
X15408Y20551D03*
X15413Y20591D03*
X15413Y20596D03*
X15413Y20601D03*
X15408Y20621D03*
X15408Y20626D03*
X15408Y20631D03*
X15408Y20636D03*
X15408Y20641D03*
X15403Y20646D03*
X15403Y20651D03*
X15403Y20656D03*
X15403Y20661D03*
X15398Y20666D03*
X15398Y20671D03*
X15393Y20686D03*
X15483Y20956D03*
X15488Y20971D03*
X15493Y20981D03*
X15493Y20986D03*
X15493Y20991D03*
X15498Y21001D03*
X15498Y21006D03*
X15498Y21011D03*
X15498Y21016D03*
X15503Y21031D03*
X15503Y21036D03*
X15503Y21041D03*
X15503Y21046D03*
X15503Y21051D03*
X15503Y21056D03*
X15503Y21061D03*
X15503Y21066D03*
X15503Y21071D03*
X15503Y21076D03*
X15503Y21081D03*
X15503Y21086D03*
X15503Y21091D03*
X15503Y21096D03*
X15498Y21116D03*
X15498Y21121D03*
X15498Y21126D03*
X15498Y21131D03*
X15493Y21136D03*
X15493Y21141D03*
X15493Y21146D03*
X15488Y21156D03*
X15488Y21161D03*
X15028Y21506D03*
X15028Y21511D03*
X15028Y21516D03*
X15023Y21531D03*
X15023Y21536D03*
X15023Y21541D03*
X15023Y21546D03*
X15018Y21556D03*
X15018Y21561D03*
X15018Y21566D03*
X15013Y21576D03*
X15008Y21591D03*
X12923Y20756D03*
X12918Y20746D03*
X12918Y20741D03*
X12918Y20736D03*
X12913Y20726D03*
X12913Y20721D03*
X12913Y20716D03*
X12913Y20711D03*
X12908Y20701D03*
X12908Y20696D03*
X12908Y20691D03*
X12908Y20686D03*
X12908Y20681D03*
X12908Y20676D03*
X12908Y20671D03*
X12908Y20666D03*
X12908Y20661D03*
X12908Y20656D03*
X12908Y20651D03*
X12908Y20646D03*
X12908Y20641D03*
X12908Y20636D03*
X12908Y20631D03*
X12908Y20626D03*
X12908Y20621D03*
X12913Y20606D03*
X12913Y20601D03*
X12913Y20596D03*
X12913Y20591D03*
X12918Y20586D03*
X12918Y20581D03*
X12918Y20576D03*
X12923Y20566D03*
X12668Y21086D03*
X12663Y21101D03*
X12663Y21106D03*
X12663Y21111D03*
X12658Y21116D03*
X12658Y21121D03*
X12658Y21126D03*
X12658Y21131D03*
X12653Y21141D03*
X12653Y21146D03*
X12653Y21151D03*
X12653Y21156D03*
X12653Y21161D03*
X12653Y21166D03*
X12653Y21171D03*
X12653Y21176D03*
X12653Y21181D03*
X12653Y21186D03*
X12653Y21191D03*
X12653Y21196D03*
X12653Y21201D03*
X12653Y21206D03*
X12653Y21211D03*
X12653Y21216D03*
X12658Y21231D03*
X12658Y21236D03*
X12658Y21241D03*
X12658Y21246D03*
X12663Y21251D03*
X12663Y21256D03*
X12663Y21261D03*
X12668Y21271D03*
X12668Y21276D03*
D255*
X12678Y21301D03*
X12683Y21311D03*
X12688Y21321D03*
X12693Y21331D03*
X12698Y21341D03*
X12678Y21061D03*
X12683Y21051D03*
X12688Y21041D03*
X12693Y21031D03*
X12698Y21021D03*
X12938Y20791D03*
X12933Y20781D03*
X12938Y20526D03*
X12943Y20516D03*
X12948Y20511D03*
X12953Y20501D03*
X14598Y20286D03*
X15363Y20421D03*
X15368Y20426D03*
X15368Y20431D03*
X15373Y20436D03*
X15378Y20446D03*
X15383Y20456D03*
X15383Y20711D03*
X15378Y20721D03*
X15373Y20731D03*
X15368Y20736D03*
X15363Y20746D03*
X15353Y20766D03*
X15458Y20906D03*
X15463Y20916D03*
X15468Y20921D03*
X15468Y20926D03*
X15473Y21196D03*
X15468Y21206D03*
X15463Y21211D03*
X15463Y21216D03*
X15458Y21221D03*
X15453Y21231D03*
X14993Y21621D03*
X14993Y21626D03*
X14988Y21631D03*
X14988Y21636D03*
X14983Y21641D03*
X14148Y21746D03*
D256*
X14995Y21616D03*
X15000Y21611D03*
X15000Y21606D03*
X15005Y21601D03*
X15005Y21596D03*
X15010Y21586D03*
X15010Y21581D03*
X15015Y21571D03*
X15470Y21201D03*
X15475Y21191D03*
X15475Y21186D03*
X15480Y21181D03*
X15480Y21176D03*
X15485Y21171D03*
X15485Y21166D03*
X15490Y21151D03*
X15495Y20996D03*
X15490Y20976D03*
X15485Y20966D03*
X15485Y20961D03*
X15480Y20951D03*
X15480Y20946D03*
X15475Y20941D03*
X15475Y20936D03*
X15470Y20931D03*
X15375Y20726D03*
X15380Y20716D03*
X15385Y20706D03*
X15385Y20701D03*
X15390Y20696D03*
X15390Y20691D03*
X15395Y20681D03*
X15395Y20676D03*
X15400Y20506D03*
X15395Y20486D03*
X15390Y20476D03*
X15390Y20471D03*
X15385Y20466D03*
X15385Y20461D03*
X15380Y20451D03*
X15375Y20441D03*
X14310Y20291D03*
X14060Y20466D03*
X12940Y20521D03*
X12935Y20531D03*
X12935Y20536D03*
X12930Y20541D03*
X12930Y20546D03*
X12925Y20551D03*
X12925Y20556D03*
X12925Y20561D03*
X12920Y20571D03*
X12915Y20731D03*
X12920Y20751D03*
X12925Y20761D03*
X12925Y20766D03*
X12930Y20771D03*
X12930Y20776D03*
X12935Y20786D03*
X12940Y20796D03*
X12690Y21036D03*
X12685Y21046D03*
X12680Y21056D03*
X12675Y21066D03*
X12675Y21071D03*
X12670Y21076D03*
X12670Y21081D03*
X12665Y21091D03*
X12665Y21096D03*
X12665Y21266D03*
X12670Y21281D03*
X12670Y21286D03*
X12675Y21291D03*
X12675Y21296D03*
X12680Y21306D03*
X12685Y21316D03*
X12690Y21326D03*
D257*
X12655Y21226D03*
X12655Y21221D03*
X12655Y21136D03*
X12910Y20706D03*
X12910Y20616D03*
X12910Y20611D03*
X14130Y20516D03*
X14595Y20291D03*
X15405Y20526D03*
X15410Y20556D03*
X15410Y20561D03*
X15410Y20566D03*
X15410Y20571D03*
X15410Y20576D03*
X15410Y20581D03*
X15410Y20586D03*
X15410Y20606D03*
X15410Y20611D03*
X15410Y20616D03*
X15500Y21021D03*
X15500Y21026D03*
X15500Y21101D03*
X15500Y21106D03*
X15500Y21111D03*
X15025Y21521D03*
X15025Y21526D03*
X15020Y21551D03*
X14150Y21741D03*
X13585Y21846D03*
D258*
X14508Y21846D03*
X13433Y20296D03*
D259*
X13645Y20331D03*
X14080Y20476D03*
X13085Y20371D03*
X12915Y20831D03*
X12825Y20896D03*
X12825Y21466D03*
X13130Y21611D03*
X14155Y21766D03*
X15235Y20296D03*
D260*
X15338Y20386D03*
X15343Y20391D03*
X15348Y20396D03*
X15428Y20866D03*
X15433Y20871D03*
X15438Y20876D03*
X15438Y20881D03*
X15443Y20886D03*
X15448Y20891D03*
X15443Y21246D03*
X15438Y21251D03*
X15433Y21256D03*
X15433Y21261D03*
X14963Y21671D03*
X14958Y21676D03*
X13153Y21621D03*
X12728Y21381D03*
X12723Y21376D03*
X12718Y21371D03*
X12713Y21361D03*
X12713Y21001D03*
X12718Y20991D03*
X12723Y20986D03*
X12728Y20981D03*
X12968Y20476D03*
X12973Y20471D03*
X12978Y20466D03*
X14303Y20301D03*
D261*
X14588Y20306D03*
X14273Y20671D03*
X14273Y20676D03*
X14403Y20871D03*
X14403Y20876D03*
X13868Y21006D03*
X13868Y21011D03*
X13703Y21006D03*
X13648Y20541D03*
X13648Y20536D03*
X14148Y21726D03*
D262*
X14030Y21611D03*
X13550Y21831D03*
X13240Y21516D03*
X13755Y21081D03*
X13750Y21071D03*
X13865Y21036D03*
X13865Y21031D03*
X13905Y20966D03*
X13905Y20961D03*
X13910Y20956D03*
X13915Y20951D03*
X13915Y20946D03*
X13920Y20941D03*
X13920Y20936D03*
X13925Y20931D03*
X13930Y20921D03*
X13935Y20916D03*
X13935Y20911D03*
X13940Y20906D03*
X13945Y20896D03*
X13950Y20891D03*
X13950Y20886D03*
X13955Y20881D03*
X13960Y20871D03*
X13965Y20861D03*
X13970Y20856D03*
X13975Y20846D03*
X13980Y20836D03*
X13990Y20821D03*
X13995Y20811D03*
X14005Y20796D03*
X14010Y20786D03*
X14015Y20776D03*
X14270Y20641D03*
X14270Y20636D03*
X14420Y20931D03*
X14420Y20936D03*
X14425Y20941D03*
X14425Y20946D03*
X13645Y20516D03*
X14590Y20311D03*
D263*
X13408Y20316D03*
D264*
X13400Y20321D03*
D265*
X13203Y20326D03*
X13083Y21581D03*
D266*
X13175Y20331D03*
X15105Y21461D03*
X14760Y21811D03*
D267*
X14945Y21691D03*
X14950Y21686D03*
X14955Y21681D03*
X15420Y21271D03*
X15425Y21266D03*
X15425Y20861D03*
X15420Y20856D03*
X15355Y20781D03*
X15335Y20381D03*
X15330Y20376D03*
X15325Y20371D03*
X15320Y20366D03*
X14150Y21751D03*
X12935Y20806D03*
X12745Y20961D03*
X12740Y20966D03*
X12735Y20971D03*
X12730Y20976D03*
X12730Y21386D03*
X12735Y21391D03*
X12740Y21396D03*
X12980Y20461D03*
X12985Y20456D03*
X12990Y20451D03*
D268*
X13640Y20431D03*
X13680Y20876D03*
X13680Y20881D03*
X14260Y20531D03*
X14475Y21106D03*
X14475Y21111D03*
X14145Y21711D03*
D269*
X14043Y21701D03*
X14043Y21696D03*
X13858Y21106D03*
X13858Y21101D03*
X13683Y20886D03*
X13643Y20436D03*
X14258Y20536D03*
X14258Y20541D03*
X14473Y21096D03*
X14473Y21101D03*
D270*
X14470Y21091D03*
X14470Y21086D03*
X14260Y20551D03*
X14260Y20546D03*
X13640Y20441D03*
X13680Y20891D03*
X13860Y21096D03*
X14040Y21686D03*
X14040Y21691D03*
X14505Y21931D03*
D271*
X14468Y21081D03*
X14468Y21076D03*
X14463Y21071D03*
X14463Y21066D03*
X13858Y21091D03*
X13683Y20901D03*
X13683Y20896D03*
X13643Y20451D03*
X13643Y20446D03*
D272*
X13643Y20461D03*
X13643Y20466D03*
X13688Y20916D03*
X14263Y20576D03*
X14263Y20571D03*
X14263Y20566D03*
X14458Y21046D03*
X14458Y21051D03*
X14038Y21666D03*
X14038Y21671D03*
D273*
X14020Y21546D03*
X14020Y21541D03*
X13870Y20986D03*
X13870Y20981D03*
X13710Y21041D03*
X13710Y21046D03*
X13645Y20571D03*
X14275Y20711D03*
X14380Y20801D03*
X14385Y20811D03*
X14385Y20816D03*
D274*
X14445Y21006D03*
X14445Y21011D03*
X14265Y20596D03*
X14265Y20591D03*
X13860Y21066D03*
X13690Y20941D03*
X13690Y20936D03*
X14035Y21646D03*
X14035Y21651D03*
D275*
X15158Y21421D03*
X15173Y21411D03*
X15183Y21406D03*
D276*
X15165Y21416D03*
X13070Y21571D03*
D277*
X14168Y21796D03*
X14508Y21911D03*
X15133Y21441D03*
D278*
X15118Y21451D03*
X14743Y21816D03*
X13088Y21586D03*
D279*
X13030Y21521D03*
X13740Y21926D03*
D280*
X13033Y21526D03*
D281*
X13043Y21536D03*
X14508Y21896D03*
D282*
X13045Y21541D03*
D283*
X13093Y21591D03*
D284*
X14173Y21801D03*
D285*
X14175Y21806D03*
D286*
X14183Y21811D03*
X13723Y21936D03*
D287*
X14193Y21816D03*
X14508Y21891D03*
D288*
X14415Y21821D03*
D289*
X14405Y21826D03*
D290*
X14393Y21831D03*
D291*
X14378Y21836D03*
D292*
X14360Y21841D03*
D293*
X13820Y21856D03*
X13815Y21861D03*
D294*
X14508Y21861D03*
D295*
X13810Y21866D03*
D296*
X14508Y21866D03*
D297*
X14508Y21871D03*
X13803Y21876D03*
D298*
X13793Y21886D03*
X14508Y21876D03*
D299*
X14508Y21881D03*
D300*
X14510Y21886D03*
D301*
X13785Y21891D03*
D302*
X13770Y21906D03*
D303*
X14510Y21906D03*
D304*
X13763Y21911D03*
D305*
X13748Y21921D03*
D306*
X13713Y21941D03*
D307*
X15105Y23019D02*
X15386Y23019D01*
X16498Y21993D02*
X17285Y21993D01*
X18112Y21363D02*
X18112Y20182D01*
X17285Y19552D02*
X16498Y19552D01*
X15671Y20182D02*
X15671Y21363D01*
X16202Y20773D02*
X16204Y20825D01*
X16210Y20877D01*
X16220Y20928D01*
X16233Y20978D01*
X16251Y21028D01*
X16272Y21075D01*
X16296Y21121D01*
X16325Y21165D01*
X16356Y21207D01*
X16390Y21246D01*
X16427Y21283D01*
X16467Y21316D01*
X16510Y21347D01*
X16554Y21374D01*
X16600Y21398D01*
X16649Y21418D01*
X16698Y21434D01*
X16749Y21447D01*
X16800Y21456D01*
X16852Y21461D01*
X16904Y21462D01*
X16956Y21459D01*
X17008Y21452D01*
X17059Y21441D01*
X17109Y21427D01*
X17158Y21408D01*
X17205Y21386D01*
X17250Y21361D01*
X17294Y21332D01*
X17335Y21300D01*
X17374Y21265D01*
X17409Y21227D01*
X17442Y21186D01*
X17472Y21144D01*
X17498Y21099D01*
X17521Y21052D01*
X17540Y21003D01*
X17556Y20953D01*
X17568Y20903D01*
X17576Y20851D01*
X17580Y20799D01*
X17580Y20747D01*
X17576Y20695D01*
X17568Y20643D01*
X17556Y20593D01*
X17540Y20543D01*
X17521Y20494D01*
X17498Y20447D01*
X17472Y20402D01*
X17442Y20360D01*
X17409Y20319D01*
X17374Y20281D01*
X17335Y20246D01*
X17294Y20214D01*
X17250Y20185D01*
X17205Y20160D01*
X17158Y20138D01*
X17109Y20119D01*
X17059Y20105D01*
X17008Y20094D01*
X16956Y20087D01*
X16904Y20084D01*
X16852Y20085D01*
X16800Y20090D01*
X16749Y20099D01*
X16698Y20112D01*
X16649Y20128D01*
X16600Y20148D01*
X16554Y20172D01*
X16510Y20199D01*
X16467Y20230D01*
X16427Y20263D01*
X16390Y20300D01*
X16356Y20339D01*
X16325Y20381D01*
X16296Y20425D01*
X16272Y20471D01*
X16251Y20518D01*
X16233Y20568D01*
X16220Y20618D01*
X16210Y20669D01*
X16204Y20721D01*
X16202Y20773D01*
X17818Y18387D02*
X18099Y18387D01*
X17973Y17749D02*
X17473Y17749D01*
X17223Y17499D01*
X16973Y17749D01*
X16473Y17749D01*
X16223Y17499D01*
X15973Y17749D01*
X15473Y17749D01*
X15223Y17499D01*
X14973Y17749D01*
X14473Y17749D01*
X14223Y17499D01*
X13973Y17749D01*
X13473Y17749D01*
X13223Y17499D01*
X13223Y16999D01*
X13473Y16749D01*
X13973Y16749D01*
X14223Y16999D01*
X14473Y16749D01*
X14973Y16749D01*
X15223Y16999D01*
X15473Y16749D01*
X15973Y16749D01*
X16223Y16999D01*
X16473Y16749D01*
X16973Y16749D01*
X17223Y16999D01*
X17473Y16749D01*
X17973Y16749D01*
X18223Y16999D01*
X18473Y16749D01*
X18973Y16749D01*
X19223Y16999D01*
X19223Y17499D01*
X18973Y17749D01*
X18473Y17749D01*
X18223Y17499D01*
X17973Y17749D01*
X17958Y23315D02*
X17958Y23595D01*
X17818Y23455D02*
X18099Y23455D01*
X8736Y24302D02*
X8486Y24052D01*
X7986Y24052D01*
X7736Y24302D01*
X7486Y24052D01*
X6986Y24052D01*
X6736Y24302D01*
X6486Y24052D01*
X5986Y24052D01*
X5736Y24302D01*
X5486Y24052D01*
X4986Y24052D01*
X4736Y24302D01*
X4736Y24802D01*
X4986Y25052D01*
X5486Y25052D01*
X5736Y24802D01*
X5986Y25052D01*
X6486Y25052D01*
X6736Y24802D01*
X6986Y25052D01*
X7486Y25052D01*
X7736Y24802D01*
X7986Y25052D01*
X8486Y25052D01*
X8736Y24802D01*
X8736Y24302D01*
X6661Y23254D02*
X6268Y23254D01*
X6661Y23254D02*
X6661Y18529D01*
X6268Y18529D01*
X6885Y18694D02*
X7166Y18694D01*
X7025Y18554D02*
X7025Y18834D01*
X5087Y18529D02*
X2331Y18529D01*
X2331Y23254D01*
X5087Y23254D01*
X4961Y22363D02*
X4461Y22363D01*
X4211Y22113D01*
X4211Y21613D01*
X4461Y21363D01*
X4211Y21113D01*
X4211Y20613D01*
X4461Y20363D01*
X4211Y20113D01*
X4211Y19613D01*
X4461Y19363D01*
X4961Y19363D01*
X5211Y19613D01*
X5211Y20113D01*
X4961Y20363D01*
X5211Y20613D01*
X5211Y21113D01*
X4961Y21363D01*
X5211Y21613D01*
X5211Y22113D01*
X4961Y22363D01*
D308*
X5343Y17490D03*
X6228Y17490D03*
D309*
X15050Y24381D02*
X15070Y24401D01*
X15220Y24401D01*
X15170Y24801D02*
X15070Y24801D01*
X15050Y24821D01*
D310*
X15285Y24801D03*
X15285Y24401D03*
M02*
