%
M48
M72
T01C0.0236
T02C0.0320
T03C0.0394
T04C0.0400
T05C0.0472
T06C0.0512
T07C0.0591
T08C0.1300
%
T01
X2287Y2913
X1000Y3400
X4800Y5300
X5700Y5700
X6550Y5300
X7000Y6100
X8600Y5800
X9100Y5100
X9500Y4600
X10500Y3700
X11100Y3700
X12637Y4806
X12295Y5603
X11993Y6194
X10950Y6450
X9500Y6500
X8700Y6500
X7503Y8297
X9500Y9150
X12100Y8595
X14800Y6700
X14400Y5350
X15584Y4935
X16122Y4924
X14200Y4400
X16470Y3458
X17356Y2671
X15486Y1982
X14954Y2002
X14306Y2000
X14962Y2856
X11123Y1970
X8454Y1629
X7088Y888
X7088Y2462
X7927Y2856
X7925Y3397
X6600Y3250
X1000Y6400
X17356Y7199
X2287Y12953
X1000Y13440
X4800Y15340
X5700Y15740
X6550Y15340
X7000Y16140
X8600Y15840
X9100Y15140
X9500Y14640
X10500Y13740
X11100Y13740
X12637Y14846
X12295Y15643
X11993Y16234
X10950Y16490
X9500Y16540
X8700Y16540
X7503Y18337
X9500Y19190
X12100Y18635
X14800Y16740
X14400Y15390
X15584Y14975
X16122Y14964
X14200Y14440
X16470Y13498
X17356Y12711
X15486Y12022
X14954Y12042
X14306Y12040
X14962Y12896
X11123Y12010
X8454Y11669
X7088Y10928
X7088Y12502
X7927Y12896
X7925Y13437
X6600Y13290
X1000Y16440
X17356Y17239
T02
X12578Y8129
X12578Y9129
X12578Y18169
X12578Y19169
T03
X13814Y6080
X15586Y6080
X15586Y3521
X13814Y3521
X13814Y16120
X15586Y16120
X15586Y13561
X13814Y13561
T04
X16537Y2364
X16531Y1276
X15531Y1276
X14531Y1276
X13531Y1276
X12531Y1276
X11531Y1276
X17214Y3416
X18214Y3416
X18214Y4416
X17214Y4416
X17214Y5416
X18214Y5416
X18214Y6416
X17214Y6416
X16537Y7482
X6044Y8579
X5044Y8579
X4044Y8579
X3044Y8579
X2520Y5890
X2520Y4890
X2520Y3890
X16537Y12404
X16531Y11316
X15531Y11316
X14531Y11316
X13531Y11316
X12531Y11316
X11531Y11316
X17214Y13456
X18214Y13456
X18214Y14456
X17214Y14456
X17214Y15456
X18214Y15456
X18214Y16456
X17214Y16456
X16537Y17522
X6044Y18619
X5044Y18619
X4044Y18619
X3044Y18619
X2520Y15930
X2520Y14930
X2520Y13930
T05
X1517Y2951
X533Y2951
X3486Y4919
X1517Y6888
X533Y6888
X1517Y12991
X533Y12991
X3486Y14959
X1517Y16928
X533Y16928
T06
X5400Y3029
X12219Y6966
X5400Y13069
X12219Y17006
T07
X3486Y6888
X3486Y5903
X1517Y4919
X3486Y3935
X3486Y2951
X3486Y16928
X3486Y15943
X1517Y14959
X3486Y13975
X3486Y12991
T08
X1475Y1475
X1475Y8371
X18013Y8368
X18016Y1475
X1475Y11515
X1475Y18411
X18013Y18408
X18016Y11515
M30
