G75*
G70*
%OFA0B0*%
%FSLAX24Y24*%
%IPPOS*%
%LPD*%
%AMOC8*
5,1,8,0,0,1.08239X$1,22.5*
%
%ADD10C,0.0000*%
%ADD11R,0.0394X0.0394*%
%ADD12C,0.0000*%
%ADD13C,0.0926*%
%ADD14C,0.0512*%
%ADD15OC8,0.0780*%
%ADD16C,0.0808*%
%ADD17C,0.0520*%
%ADD18R,0.0780X0.0780*%
%ADD19C,0.0780*%
%ADD20C,0.0631*%
%ADD21C,0.1340*%
%ADD22OC8,0.1040*%
%ADD23R,0.0396X0.0396*%
%ADD24C,0.0000*%
%ADD25C,0.0926*%
%ADD26C,0.0512*%
%ADD27OC8,0.0780*%
%ADD28C,0.0808*%
%ADD29C,0.0520*%
%ADD30R,0.0780X0.0780*%
%ADD31C,0.0780*%
%ADD32C,0.0631*%
%ADD33C,0.1340*%
%ADD34OC8,0.1040*%
%ADD35R,0.0396X0.0396*%
D10*
X000100Y001475D02*
X000100Y001517D01*
X000100Y008368D01*
X000100Y008371D01*
X000100Y008368D02*
X000102Y008440D01*
X000108Y008512D01*
X000117Y008584D01*
X000130Y008655D01*
X000147Y008725D01*
X000167Y008794D01*
X000192Y008862D01*
X000219Y008928D01*
X000250Y008994D01*
X000285Y009057D01*
X000322Y009119D01*
X000363Y009178D01*
X000407Y009235D01*
X000454Y009290D01*
X000504Y009342D01*
X000556Y009392D01*
X000611Y009439D01*
X000668Y009483D01*
X000727Y009524D01*
X000789Y009561D01*
X000852Y009596D01*
X000918Y009627D01*
X000984Y009654D01*
X001052Y009679D01*
X001121Y009699D01*
X001191Y009716D01*
X001262Y009729D01*
X001334Y009738D01*
X001406Y009744D01*
X001478Y009746D01*
X001478Y010139D01*
X001475Y010139D01*
X001475Y009746D02*
X001478Y009746D01*
X001872Y009746D02*
X018014Y009746D01*
X018014Y010139D02*
X001872Y010139D01*
X001872Y009746D01*
X001478Y010139D02*
X001405Y010142D01*
X001332Y010149D01*
X001260Y010159D01*
X001188Y010174D01*
X001117Y010192D01*
X001047Y010214D01*
X000979Y010239D01*
X000911Y010268D01*
X000846Y010300D01*
X000782Y010336D01*
X000720Y010375D01*
X000660Y010418D01*
X000603Y010463D01*
X000548Y010511D01*
X000496Y010562D01*
X000446Y010616D01*
X000399Y010673D01*
X000356Y010731D01*
X000315Y010792D01*
X000278Y010855D01*
X000244Y010920D01*
X000213Y010986D01*
X000186Y011054D01*
X000162Y011124D01*
X000143Y011194D01*
X000127Y011266D01*
X000114Y011338D01*
X000106Y011410D01*
X000101Y011484D01*
X000100Y011557D01*
X000100Y018407D01*
X000100Y018410D01*
X000100Y018407D02*
X000102Y018479D01*
X000108Y018551D01*
X000117Y018623D01*
X000130Y018694D01*
X000147Y018764D01*
X000167Y018833D01*
X000192Y018901D01*
X000219Y018967D01*
X000250Y019033D01*
X000285Y019096D01*
X000322Y019158D01*
X000363Y019217D01*
X000407Y019274D01*
X000454Y019329D01*
X000504Y019381D01*
X000556Y019431D01*
X000611Y019478D01*
X000668Y019522D01*
X000727Y019563D01*
X000789Y019600D01*
X000852Y019635D01*
X000918Y019666D01*
X000984Y019693D01*
X001052Y019718D01*
X001121Y019738D01*
X001191Y019755D01*
X001262Y019768D01*
X001334Y019777D01*
X001406Y019783D01*
X001478Y019785D01*
X018014Y019785D01*
X018086Y019783D01*
X018158Y019777D01*
X018230Y019768D01*
X018301Y019755D01*
X018371Y019738D01*
X018440Y019718D01*
X018508Y019693D01*
X018574Y019666D01*
X018640Y019635D01*
X018703Y019600D01*
X018765Y019563D01*
X018824Y019522D01*
X018881Y019478D01*
X018936Y019431D01*
X018988Y019381D01*
X019038Y019329D01*
X019085Y019274D01*
X019129Y019217D01*
X019170Y019158D01*
X019207Y019096D01*
X019242Y019033D01*
X019273Y018967D01*
X019300Y018901D01*
X019325Y018833D01*
X019345Y018764D01*
X019362Y018694D01*
X019375Y018623D01*
X019384Y018551D01*
X019390Y018479D01*
X019392Y018407D01*
X019391Y018407D02*
X019391Y011517D01*
X019392Y011517D02*
X019390Y011445D01*
X019384Y011373D01*
X019375Y011301D01*
X019362Y011230D01*
X019345Y011160D01*
X019325Y011091D01*
X019300Y011023D01*
X019273Y010957D01*
X019242Y010891D01*
X019207Y010828D01*
X019170Y010766D01*
X019129Y010707D01*
X019085Y010650D01*
X019038Y010595D01*
X018988Y010543D01*
X018936Y010493D01*
X018881Y010446D01*
X018824Y010402D01*
X018765Y010361D01*
X018703Y010324D01*
X018640Y010289D01*
X018574Y010258D01*
X018508Y010231D01*
X018440Y010206D01*
X018371Y010186D01*
X018301Y010169D01*
X018230Y010156D01*
X018158Y010147D01*
X018086Y010141D01*
X018014Y010139D01*
X018017Y010139D01*
X018014Y009746D02*
X018086Y009744D01*
X018158Y009738D01*
X018230Y009729D01*
X018301Y009716D01*
X018371Y009699D01*
X018440Y009679D01*
X018508Y009654D01*
X018574Y009627D01*
X018640Y009596D01*
X018703Y009561D01*
X018765Y009524D01*
X018824Y009483D01*
X018881Y009439D01*
X018936Y009392D01*
X018988Y009342D01*
X019038Y009290D01*
X019085Y009235D01*
X019129Y009178D01*
X019170Y009119D01*
X019207Y009057D01*
X019242Y008994D01*
X019273Y008928D01*
X019300Y008862D01*
X019325Y008794D01*
X019345Y008725D01*
X019362Y008655D01*
X019375Y008584D01*
X019384Y008512D01*
X019390Y008440D01*
X019392Y008368D01*
X019391Y008368D02*
X019391Y001478D01*
X019392Y001478D02*
X019390Y001406D01*
X019384Y001334D01*
X019375Y001262D01*
X019362Y001191D01*
X019345Y001121D01*
X019325Y001052D01*
X019300Y000984D01*
X019273Y000918D01*
X019242Y000852D01*
X019207Y000789D01*
X019170Y000727D01*
X019129Y000668D01*
X019085Y000611D01*
X019038Y000556D01*
X018988Y000504D01*
X018936Y000454D01*
X018881Y000407D01*
X018824Y000363D01*
X018765Y000322D01*
X018703Y000285D01*
X018640Y000250D01*
X018574Y000219D01*
X018508Y000192D01*
X018440Y000167D01*
X018371Y000147D01*
X018301Y000130D01*
X018230Y000117D01*
X018158Y000108D01*
X018086Y000102D01*
X018014Y000100D01*
X018017Y000100D01*
X018014Y000100D02*
X001478Y000100D01*
X001475Y000100D01*
X001478Y000100D02*
X001405Y000103D01*
X001332Y000110D01*
X001260Y000120D01*
X001188Y000135D01*
X001117Y000153D01*
X001047Y000175D01*
X000979Y000200D01*
X000911Y000229D01*
X000846Y000261D01*
X000782Y000297D01*
X000720Y000336D01*
X000660Y000379D01*
X000603Y000424D01*
X000548Y000472D01*
X000496Y000523D01*
X000446Y000577D01*
X000399Y000634D01*
X000356Y000692D01*
X000315Y000753D01*
X000278Y000816D01*
X000244Y000881D01*
X000213Y000947D01*
X000186Y001015D01*
X000162Y001085D01*
X000143Y001155D01*
X000127Y001227D01*
X000114Y001299D01*
X000106Y001371D01*
X000101Y001445D01*
X000100Y001518D01*
X000100Y011514D02*
X000100Y011557D01*
D11*
X001675Y009943D03*
D12*
X1475Y100D02*
X1478Y100D01*
X18013Y100D01*
X18016Y100D01*
X17366Y1475D02*
X17368Y1525D01*
X17374Y1575D01*
X17384Y1625D01*
X17397Y1673D01*
X17414Y1721D01*
X17435Y1767D01*
X17459Y1811D01*
X17487Y1853D01*
X17518Y1893D01*
X17552Y1930D01*
X17589Y1965D01*
X17628Y1996D01*
X17669Y2025D01*
X17713Y2050D01*
X17759Y2072D01*
X17806Y2090D01*
X17854Y2104D01*
X17903Y2115D01*
X17953Y2122D01*
X18003Y2125D01*
X18054Y2124D01*
X18104Y2119D01*
X18154Y2110D01*
X18202Y2098D01*
X18250Y2081D01*
X18296Y2061D01*
X18341Y2038D01*
X18384Y2011D01*
X18424Y1981D01*
X18462Y1948D01*
X18497Y1912D01*
X18530Y1873D01*
X18559Y1832D01*
X18585Y1789D01*
X18608Y1744D01*
X18627Y1697D01*
X18642Y1649D01*
X18654Y1600D01*
X18662Y1550D01*
X18666Y1500D01*
X18666Y1450D01*
X18662Y1400D01*
X18654Y1350D01*
X18642Y1301D01*
X18627Y1253D01*
X18608Y1206D01*
X18585Y1161D01*
X18559Y1118D01*
X18530Y1077D01*
X18497Y1038D01*
X18462Y1002D01*
X18424Y969D01*
X18384Y939D01*
X18341Y912D01*
X18296Y889D01*
X18250Y869D01*
X18202Y852D01*
X18154Y840D01*
X18104Y831D01*
X18054Y826D01*
X18003Y825D01*
X17953Y828D01*
X17903Y835D01*
X17854Y846D01*
X17806Y860D01*
X17759Y878D01*
X17713Y900D01*
X17669Y925D01*
X17628Y954D01*
X17589Y985D01*
X17552Y1020D01*
X17518Y1057D01*
X17487Y1097D01*
X17459Y1139D01*
X17435Y1183D01*
X17414Y1229D01*
X17397Y1277D01*
X17384Y1325D01*
X17374Y1375D01*
X17368Y1425D01*
X17366Y1475D01*
X18013Y100D02*
X18085Y102D01*
X18157Y108D01*
X18229Y117D01*
X18300Y130D01*
X18370Y147D01*
X18439Y167D01*
X18507Y192D01*
X18573Y219D01*
X18639Y250D01*
X18702Y285D01*
X18764Y322D01*
X18823Y363D01*
X18880Y407D01*
X18935Y454D01*
X18987Y504D01*
X19037Y556D01*
X19084Y611D01*
X19128Y668D01*
X19169Y727D01*
X19206Y789D01*
X19241Y852D01*
X19272Y918D01*
X19299Y984D01*
X19324Y1052D01*
X19344Y1121D01*
X19361Y1191D01*
X19374Y1262D01*
X19383Y1334D01*
X19389Y1406D01*
X19391Y1478D01*
X19391Y8368D01*
X17363Y8368D02*
X17365Y8418D01*
X17371Y8468D01*
X17381Y8518D01*
X17394Y8566D01*
X17411Y8614D01*
X17432Y8660D01*
X17456Y8704D01*
X17484Y8746D01*
X17515Y8786D01*
X17549Y8823D01*
X17586Y8858D01*
X17625Y8889D01*
X17666Y8918D01*
X17710Y8943D01*
X17756Y8965D01*
X17803Y8983D01*
X17851Y8997D01*
X17900Y9008D01*
X17950Y9015D01*
X18000Y9018D01*
X18051Y9017D01*
X18101Y9012D01*
X18151Y9003D01*
X18199Y8991D01*
X18247Y8974D01*
X18293Y8954D01*
X18338Y8931D01*
X18381Y8904D01*
X18421Y8874D01*
X18459Y8841D01*
X18494Y8805D01*
X18527Y8766D01*
X18556Y8725D01*
X18582Y8682D01*
X18605Y8637D01*
X18624Y8590D01*
X18639Y8542D01*
X18651Y8493D01*
X18659Y8443D01*
X18663Y8393D01*
X18663Y8343D01*
X18659Y8293D01*
X18651Y8243D01*
X18639Y8194D01*
X18624Y8146D01*
X18605Y8099D01*
X18582Y8054D01*
X18556Y8011D01*
X18527Y7970D01*
X18494Y7931D01*
X18459Y7895D01*
X18421Y7862D01*
X18381Y7832D01*
X18338Y7805D01*
X18293Y7782D01*
X18247Y7762D01*
X18199Y7745D01*
X18151Y7733D01*
X18101Y7724D01*
X18051Y7719D01*
X18000Y7718D01*
X17950Y7721D01*
X17900Y7728D01*
X17851Y7739D01*
X17803Y7753D01*
X17756Y7771D01*
X17710Y7793D01*
X17666Y7818D01*
X17625Y7847D01*
X17586Y7878D01*
X17549Y7913D01*
X17515Y7950D01*
X17484Y7990D01*
X17456Y8032D01*
X17432Y8076D01*
X17411Y8122D01*
X17394Y8170D01*
X17381Y8218D01*
X17371Y8268D01*
X17365Y8318D01*
X17363Y8368D01*
X18013Y9746D02*
X18085Y9744D01*
X18157Y9738D01*
X18229Y9729D01*
X18300Y9716D01*
X18370Y9699D01*
X18439Y9679D01*
X18507Y9654D01*
X18573Y9627D01*
X18639Y9596D01*
X18702Y9561D01*
X18764Y9524D01*
X18823Y9483D01*
X18880Y9439D01*
X18935Y9392D01*
X18987Y9342D01*
X19037Y9290D01*
X19084Y9235D01*
X19128Y9178D01*
X19169Y9119D01*
X19206Y9057D01*
X19241Y8994D01*
X19272Y8928D01*
X19299Y8862D01*
X19324Y8794D01*
X19344Y8725D01*
X19361Y8655D01*
X19374Y8584D01*
X19383Y8512D01*
X19389Y8440D01*
X19391Y8368D01*
X18013Y9746D02*
X1478Y9746D01*
X825Y8371D02*
X827Y8421D01*
X833Y8471D01*
X843Y8521D01*
X856Y8569D01*
X873Y8617D01*
X894Y8663D01*
X918Y8707D01*
X946Y8749D01*
X977Y8789D01*
X1011Y8826D01*
X1048Y8861D01*
X1087Y8892D01*
X1128Y8921D01*
X1172Y8946D01*
X1218Y8968D01*
X1265Y8986D01*
X1313Y9000D01*
X1362Y9011D01*
X1412Y9018D01*
X1462Y9021D01*
X1513Y9020D01*
X1563Y9015D01*
X1613Y9006D01*
X1661Y8994D01*
X1709Y8977D01*
X1755Y8957D01*
X1800Y8934D01*
X1843Y8907D01*
X1883Y8877D01*
X1921Y8844D01*
X1956Y8808D01*
X1989Y8769D01*
X2018Y8728D01*
X2044Y8685D01*
X2067Y8640D01*
X2086Y8593D01*
X2101Y8545D01*
X2113Y8496D01*
X2121Y8446D01*
X2125Y8396D01*
X2125Y8346D01*
X2121Y8296D01*
X2113Y8246D01*
X2101Y8197D01*
X2086Y8149D01*
X2067Y8102D01*
X2044Y8057D01*
X2018Y8014D01*
X1989Y7973D01*
X1956Y7934D01*
X1921Y7898D01*
X1883Y7865D01*
X1843Y7835D01*
X1800Y7808D01*
X1755Y7785D01*
X1709Y7765D01*
X1661Y7748D01*
X1613Y7736D01*
X1563Y7727D01*
X1513Y7722D01*
X1462Y7721D01*
X1412Y7724D01*
X1362Y7731D01*
X1313Y7742D01*
X1265Y7756D01*
X1218Y7774D01*
X1172Y7796D01*
X1128Y7821D01*
X1087Y7850D01*
X1048Y7881D01*
X1011Y7916D01*
X977Y7953D01*
X946Y7993D01*
X918Y8035D01*
X894Y8079D01*
X873Y8125D01*
X856Y8173D01*
X843Y8221D01*
X833Y8271D01*
X827Y8321D01*
X825Y8371D01*
X100Y8368D02*
X102Y8440D01*
X108Y8512D01*
X117Y8584D01*
X130Y8655D01*
X147Y8725D01*
X167Y8794D01*
X192Y8862D01*
X219Y8928D01*
X250Y8994D01*
X285Y9057D01*
X322Y9119D01*
X363Y9178D01*
X407Y9235D01*
X454Y9290D01*
X504Y9342D01*
X556Y9392D01*
X611Y9439D01*
X668Y9483D01*
X727Y9524D01*
X789Y9561D01*
X852Y9596D01*
X918Y9627D01*
X984Y9654D01*
X1052Y9679D01*
X1121Y9699D01*
X1191Y9716D01*
X1262Y9729D01*
X1334Y9738D01*
X1406Y9744D01*
X1478Y9746D01*
X100Y8371D02*
X100Y8368D01*
X100Y1518D01*
X100Y1475D01*
X825Y1475D02*
X827Y1525D01*
X833Y1575D01*
X843Y1625D01*
X856Y1673D01*
X873Y1721D01*
X894Y1767D01*
X918Y1811D01*
X946Y1853D01*
X977Y1893D01*
X1011Y1930D01*
X1048Y1965D01*
X1087Y1996D01*
X1128Y2025D01*
X1172Y2050D01*
X1218Y2072D01*
X1265Y2090D01*
X1313Y2104D01*
X1362Y2115D01*
X1412Y2122D01*
X1462Y2125D01*
X1513Y2124D01*
X1563Y2119D01*
X1613Y2110D01*
X1661Y2098D01*
X1709Y2081D01*
X1755Y2061D01*
X1800Y2038D01*
X1843Y2011D01*
X1883Y1981D01*
X1921Y1948D01*
X1956Y1912D01*
X1989Y1873D01*
X2018Y1832D01*
X2044Y1789D01*
X2067Y1744D01*
X2086Y1697D01*
X2101Y1649D01*
X2113Y1600D01*
X2121Y1550D01*
X2125Y1500D01*
X2125Y1450D01*
X2121Y1400D01*
X2113Y1350D01*
X2101Y1301D01*
X2086Y1253D01*
X2067Y1206D01*
X2044Y1161D01*
X2018Y1118D01*
X1989Y1077D01*
X1956Y1038D01*
X1921Y1002D01*
X1883Y969D01*
X1843Y939D01*
X1800Y912D01*
X1755Y889D01*
X1709Y869D01*
X1661Y852D01*
X1613Y840D01*
X1563Y831D01*
X1513Y826D01*
X1462Y825D01*
X1412Y828D01*
X1362Y835D01*
X1313Y846D01*
X1265Y860D01*
X1218Y878D01*
X1172Y900D01*
X1128Y925D01*
X1087Y954D01*
X1048Y985D01*
X1011Y1020D01*
X977Y1057D01*
X946Y1097D01*
X918Y1139D01*
X894Y1183D01*
X873Y1229D01*
X856Y1277D01*
X843Y1325D01*
X833Y1375D01*
X827Y1425D01*
X825Y1475D01*
X99Y1518D02*
X100Y1445D01*
X105Y1371D01*
X113Y1299D01*
X126Y1227D01*
X142Y1155D01*
X161Y1085D01*
X185Y1015D01*
X212Y947D01*
X243Y881D01*
X277Y816D01*
X314Y753D01*
X355Y692D01*
X398Y634D01*
X445Y577D01*
X495Y523D01*
X547Y472D01*
X602Y424D01*
X659Y379D01*
X719Y336D01*
X781Y297D01*
X845Y261D01*
X910Y229D01*
X978Y200D01*
X1046Y175D01*
X1116Y153D01*
X1187Y135D01*
X1259Y120D01*
X1331Y110D01*
X1404Y103D01*
X1477Y100D01*
X1281Y2951D02*
X1283Y2981D01*
X1289Y3011D01*
X1298Y3040D01*
X1311Y3067D01*
X1328Y3092D01*
X1347Y3115D01*
X1370Y3136D01*
X1395Y3153D01*
X1421Y3167D01*
X1450Y3177D01*
X1479Y3184D01*
X1509Y3187D01*
X1540Y3186D01*
X1570Y3181D01*
X1599Y3172D01*
X1626Y3160D01*
X1652Y3145D01*
X1676Y3126D01*
X1697Y3104D01*
X1715Y3080D01*
X1730Y3053D01*
X1741Y3025D01*
X1749Y2996D01*
X1753Y2966D01*
X1753Y2936D01*
X1749Y2906D01*
X1741Y2877D01*
X1730Y2849D01*
X1715Y2822D01*
X1697Y2798D01*
X1676Y2776D01*
X1652Y2757D01*
X1626Y2742D01*
X1599Y2730D01*
X1570Y2721D01*
X1540Y2716D01*
X1509Y2715D01*
X1479Y2718D01*
X1450Y2725D01*
X1421Y2735D01*
X1395Y2749D01*
X1370Y2766D01*
X1347Y2787D01*
X1328Y2810D01*
X1311Y2835D01*
X1298Y2862D01*
X1289Y2891D01*
X1283Y2921D01*
X1281Y2951D01*
X297Y2951D02*
X299Y2981D01*
X305Y3011D01*
X314Y3040D01*
X327Y3067D01*
X344Y3092D01*
X363Y3115D01*
X386Y3136D01*
X411Y3153D01*
X437Y3167D01*
X466Y3177D01*
X495Y3184D01*
X525Y3187D01*
X556Y3186D01*
X586Y3181D01*
X615Y3172D01*
X642Y3160D01*
X668Y3145D01*
X692Y3126D01*
X713Y3104D01*
X731Y3080D01*
X746Y3053D01*
X757Y3025D01*
X765Y2996D01*
X769Y2966D01*
X769Y2936D01*
X765Y2906D01*
X757Y2877D01*
X746Y2849D01*
X731Y2822D01*
X713Y2798D01*
X692Y2776D01*
X668Y2757D01*
X642Y2742D01*
X615Y2730D01*
X586Y2721D01*
X556Y2716D01*
X525Y2715D01*
X495Y2718D01*
X466Y2725D01*
X437Y2735D01*
X411Y2749D01*
X386Y2766D01*
X363Y2787D01*
X344Y2810D01*
X327Y2835D01*
X314Y2862D01*
X305Y2891D01*
X299Y2921D01*
X297Y2951D01*
X3250Y4919D02*
X3252Y4949D01*
X3258Y4979D01*
X3267Y5008D01*
X3280Y5035D01*
X3297Y5060D01*
X3316Y5083D01*
X3339Y5104D01*
X3364Y5121D01*
X3390Y5135D01*
X3419Y5145D01*
X3448Y5152D01*
X3478Y5155D01*
X3509Y5154D01*
X3539Y5149D01*
X3568Y5140D01*
X3595Y5128D01*
X3621Y5113D01*
X3645Y5094D01*
X3666Y5072D01*
X3684Y5048D01*
X3699Y5021D01*
X3710Y4993D01*
X3718Y4964D01*
X3722Y4934D01*
X3722Y4904D01*
X3718Y4874D01*
X3710Y4845D01*
X3699Y4817D01*
X3684Y4790D01*
X3666Y4766D01*
X3645Y4744D01*
X3621Y4725D01*
X3595Y4710D01*
X3568Y4698D01*
X3539Y4689D01*
X3509Y4684D01*
X3478Y4683D01*
X3448Y4686D01*
X3419Y4693D01*
X3390Y4703D01*
X3364Y4717D01*
X3339Y4734D01*
X3316Y4755D01*
X3297Y4778D01*
X3280Y4803D01*
X3267Y4830D01*
X3258Y4859D01*
X3252Y4889D01*
X3250Y4919D01*
X1281Y6888D02*
X1283Y6918D01*
X1289Y6948D01*
X1298Y6977D01*
X1311Y7004D01*
X1328Y7029D01*
X1347Y7052D01*
X1370Y7073D01*
X1395Y7090D01*
X1421Y7104D01*
X1450Y7114D01*
X1479Y7121D01*
X1509Y7124D01*
X1540Y7123D01*
X1570Y7118D01*
X1599Y7109D01*
X1626Y7097D01*
X1652Y7082D01*
X1676Y7063D01*
X1697Y7041D01*
X1715Y7017D01*
X1730Y6990D01*
X1741Y6962D01*
X1749Y6933D01*
X1753Y6903D01*
X1753Y6873D01*
X1749Y6843D01*
X1741Y6814D01*
X1730Y6786D01*
X1715Y6759D01*
X1697Y6735D01*
X1676Y6713D01*
X1652Y6694D01*
X1626Y6679D01*
X1599Y6667D01*
X1570Y6658D01*
X1540Y6653D01*
X1509Y6652D01*
X1479Y6655D01*
X1450Y6662D01*
X1421Y6672D01*
X1395Y6686D01*
X1370Y6703D01*
X1347Y6724D01*
X1328Y6747D01*
X1311Y6772D01*
X1298Y6799D01*
X1289Y6828D01*
X1283Y6858D01*
X1281Y6888D01*
X297Y6888D02*
X299Y6918D01*
X305Y6948D01*
X314Y6977D01*
X327Y7004D01*
X344Y7029D01*
X363Y7052D01*
X386Y7073D01*
X411Y7090D01*
X437Y7104D01*
X466Y7114D01*
X495Y7121D01*
X525Y7124D01*
X556Y7123D01*
X586Y7118D01*
X615Y7109D01*
X642Y7097D01*
X668Y7082D01*
X692Y7063D01*
X713Y7041D01*
X731Y7017D01*
X746Y6990D01*
X757Y6962D01*
X765Y6933D01*
X769Y6903D01*
X769Y6873D01*
X765Y6843D01*
X757Y6814D01*
X746Y6786D01*
X731Y6759D01*
X713Y6735D01*
X692Y6713D01*
X668Y6694D01*
X642Y6679D01*
X615Y6667D01*
X586Y6658D01*
X556Y6653D01*
X525Y6652D01*
X495Y6655D01*
X466Y6662D01*
X437Y6672D01*
X411Y6686D01*
X386Y6703D01*
X363Y6724D01*
X344Y6747D01*
X327Y6772D01*
X314Y6799D01*
X305Y6828D01*
X299Y6858D01*
X297Y6888D01*
D13*
X3486Y6888D03*
X3486Y5903D03*
X1517Y4919D03*
X3486Y3935D03*
X3486Y2951D03*
D14*
X1517Y2951D03*
X533Y2951D03*
X3486Y4919D03*
X1517Y6888D03*
X533Y6888D03*
D15*
X17214Y6416D03*
X18214Y6416D03*
X18214Y5416D03*
X17214Y5416D03*
X17214Y4416D03*
X18214Y4416D03*
X18214Y3416D03*
X17214Y3416D03*
D16*
X12219Y6966D03*
X5400Y3029D03*
D17*
X12578Y8129D03*
X12578Y9129D03*
D18*
X3044Y8579D03*
D19*
X4044Y8579D03*
X5044Y8579D03*
X6044Y8579D03*
X2520Y5890D03*
X2520Y4890D03*
X2520Y3890D03*
X11531Y1276D03*
X12531Y1276D03*
X13531Y1276D03*
X14531Y1276D03*
X15531Y1276D03*
X16531Y1276D03*
D20*
X15586Y3225D02*
X15586Y3816D01*
X13814Y3816D02*
X13814Y3225D01*
X13814Y5784D02*
X13814Y6375D01*
X15586Y6375D02*
X15586Y5784D01*
D21*
X18013Y8368D03*
X18016Y1475D03*
X1475Y1475D03*
X1475Y8371D03*
D22*
X16537Y7482D03*
X16537Y2364D03*
D23*
X17356Y2671D03*
X16470Y3458D03*
X14962Y2856D03*
X14954Y2002D03*
X15486Y1982D03*
X14306Y2000D03*
X11123Y1970D03*
X8454Y1629D03*
X7088Y888D03*
X7088Y2462D03*
X7927Y2856D03*
X7925Y3397D03*
X6600Y3250D03*
X9500Y4600D03*
X9100Y5100D03*
X8600Y5800D03*
X8700Y6500D03*
X9500Y6500D03*
X10950Y6450D03*
X11993Y6194D03*
X12295Y5603D03*
X12637Y4806D03*
X14200Y4400D03*
X15584Y4935D03*
X16122Y4924D03*
X14400Y5350D03*
X14800Y6700D03*
X17356Y7199D03*
X12100Y8595D03*
X9500Y9150D03*
X7503Y8297D03*
X7000Y6100D03*
X5700Y5700D03*
X6550Y5300D03*
X4800Y5300D03*
X1000Y6400D03*
X1000Y3400D03*
X2287Y2913D03*
X10500Y3700D03*
X11100Y3700D03*
D24*
X1475Y10140D02*
X1478Y10140D01*
X18013Y10140D01*
X18016Y10140D01*
X17366Y11515D02*
X17368Y11565D01*
X17374Y11615D01*
X17384Y11665D01*
X17397Y11713D01*
X17414Y11761D01*
X17435Y11807D01*
X17459Y11851D01*
X17487Y11893D01*
X17518Y11933D01*
X17552Y11970D01*
X17589Y12005D01*
X17628Y12036D01*
X17669Y12065D01*
X17713Y12090D01*
X17759Y12112D01*
X17806Y12130D01*
X17854Y12144D01*
X17903Y12155D01*
X17953Y12162D01*
X18003Y12165D01*
X18054Y12164D01*
X18104Y12159D01*
X18154Y12150D01*
X18202Y12138D01*
X18250Y12121D01*
X18296Y12101D01*
X18341Y12078D01*
X18384Y12051D01*
X18424Y12021D01*
X18462Y11988D01*
X18497Y11952D01*
X18530Y11913D01*
X18559Y11872D01*
X18585Y11829D01*
X18608Y11784D01*
X18627Y11737D01*
X18642Y11689D01*
X18654Y11640D01*
X18662Y11590D01*
X18666Y11540D01*
X18666Y11490D01*
X18662Y11440D01*
X18654Y11390D01*
X18642Y11341D01*
X18627Y11293D01*
X18608Y11246D01*
X18585Y11201D01*
X18559Y11158D01*
X18530Y11117D01*
X18497Y11078D01*
X18462Y11042D01*
X18424Y11009D01*
X18384Y10979D01*
X18341Y10952D01*
X18296Y10929D01*
X18250Y10909D01*
X18202Y10892D01*
X18154Y10880D01*
X18104Y10871D01*
X18054Y10866D01*
X18003Y10865D01*
X17953Y10868D01*
X17903Y10875D01*
X17854Y10886D01*
X17806Y10900D01*
X17759Y10918D01*
X17713Y10940D01*
X17669Y10965D01*
X17628Y10994D01*
X17589Y11025D01*
X17552Y11060D01*
X17518Y11097D01*
X17487Y11137D01*
X17459Y11179D01*
X17435Y11223D01*
X17414Y11269D01*
X17397Y11317D01*
X17384Y11365D01*
X17374Y11415D01*
X17368Y11465D01*
X17366Y11515D01*
X18013Y10140D02*
X18085Y10142D01*
X18157Y10148D01*
X18229Y10157D01*
X18300Y10170D01*
X18370Y10187D01*
X18439Y10207D01*
X18507Y10232D01*
X18573Y10259D01*
X18639Y10290D01*
X18702Y10325D01*
X18764Y10362D01*
X18823Y10403D01*
X18880Y10447D01*
X18935Y10494D01*
X18987Y10544D01*
X19037Y10596D01*
X19084Y10651D01*
X19128Y10708D01*
X19169Y10767D01*
X19206Y10829D01*
X19241Y10892D01*
X19272Y10958D01*
X19299Y11024D01*
X19324Y11092D01*
X19344Y11161D01*
X19361Y11231D01*
X19374Y11302D01*
X19383Y11374D01*
X19389Y11446D01*
X19391Y11518D01*
X19391Y18408D01*
X17363Y18408D02*
X17365Y18458D01*
X17371Y18508D01*
X17381Y18558D01*
X17394Y18606D01*
X17411Y18654D01*
X17432Y18700D01*
X17456Y18744D01*
X17484Y18786D01*
X17515Y18826D01*
X17549Y18863D01*
X17586Y18898D01*
X17625Y18929D01*
X17666Y18958D01*
X17710Y18983D01*
X17756Y19005D01*
X17803Y19023D01*
X17851Y19037D01*
X17900Y19048D01*
X17950Y19055D01*
X18000Y19058D01*
X18051Y19057D01*
X18101Y19052D01*
X18151Y19043D01*
X18199Y19031D01*
X18247Y19014D01*
X18293Y18994D01*
X18338Y18971D01*
X18381Y18944D01*
X18421Y18914D01*
X18459Y18881D01*
X18494Y18845D01*
X18527Y18806D01*
X18556Y18765D01*
X18582Y18722D01*
X18605Y18677D01*
X18624Y18630D01*
X18639Y18582D01*
X18651Y18533D01*
X18659Y18483D01*
X18663Y18433D01*
X18663Y18383D01*
X18659Y18333D01*
X18651Y18283D01*
X18639Y18234D01*
X18624Y18186D01*
X18605Y18139D01*
X18582Y18094D01*
X18556Y18051D01*
X18527Y18010D01*
X18494Y17971D01*
X18459Y17935D01*
X18421Y17902D01*
X18381Y17872D01*
X18338Y17845D01*
X18293Y17822D01*
X18247Y17802D01*
X18199Y17785D01*
X18151Y17773D01*
X18101Y17764D01*
X18051Y17759D01*
X18000Y17758D01*
X17950Y17761D01*
X17900Y17768D01*
X17851Y17779D01*
X17803Y17793D01*
X17756Y17811D01*
X17710Y17833D01*
X17666Y17858D01*
X17625Y17887D01*
X17586Y17918D01*
X17549Y17953D01*
X17515Y17990D01*
X17484Y18030D01*
X17456Y18072D01*
X17432Y18116D01*
X17411Y18162D01*
X17394Y18210D01*
X17381Y18258D01*
X17371Y18308D01*
X17365Y18358D01*
X17363Y18408D01*
X18013Y19786D02*
X18085Y19784D01*
X18157Y19778D01*
X18229Y19769D01*
X18300Y19756D01*
X18370Y19739D01*
X18439Y19719D01*
X18507Y19694D01*
X18573Y19667D01*
X18639Y19636D01*
X18702Y19601D01*
X18764Y19564D01*
X18823Y19523D01*
X18880Y19479D01*
X18935Y19432D01*
X18987Y19382D01*
X19037Y19330D01*
X19084Y19275D01*
X19128Y19218D01*
X19169Y19159D01*
X19206Y19097D01*
X19241Y19034D01*
X19272Y18968D01*
X19299Y18902D01*
X19324Y18834D01*
X19344Y18765D01*
X19361Y18695D01*
X19374Y18624D01*
X19383Y18552D01*
X19389Y18480D01*
X19391Y18408D01*
X18013Y19786D02*
X1478Y19786D01*
X825Y18411D02*
X827Y18461D01*
X833Y18511D01*
X843Y18561D01*
X856Y18609D01*
X873Y18657D01*
X894Y18703D01*
X918Y18747D01*
X946Y18789D01*
X977Y18829D01*
X1011Y18866D01*
X1048Y18901D01*
X1087Y18932D01*
X1128Y18961D01*
X1172Y18986D01*
X1218Y19008D01*
X1265Y19026D01*
X1313Y19040D01*
X1362Y19051D01*
X1412Y19058D01*
X1462Y19061D01*
X1513Y19060D01*
X1563Y19055D01*
X1613Y19046D01*
X1661Y19034D01*
X1709Y19017D01*
X1755Y18997D01*
X1800Y18974D01*
X1843Y18947D01*
X1883Y18917D01*
X1921Y18884D01*
X1956Y18848D01*
X1989Y18809D01*
X2018Y18768D01*
X2044Y18725D01*
X2067Y18680D01*
X2086Y18633D01*
X2101Y18585D01*
X2113Y18536D01*
X2121Y18486D01*
X2125Y18436D01*
X2125Y18386D01*
X2121Y18336D01*
X2113Y18286D01*
X2101Y18237D01*
X2086Y18189D01*
X2067Y18142D01*
X2044Y18097D01*
X2018Y18054D01*
X1989Y18013D01*
X1956Y17974D01*
X1921Y17938D01*
X1883Y17905D01*
X1843Y17875D01*
X1800Y17848D01*
X1755Y17825D01*
X1709Y17805D01*
X1661Y17788D01*
X1613Y17776D01*
X1563Y17767D01*
X1513Y17762D01*
X1462Y17761D01*
X1412Y17764D01*
X1362Y17771D01*
X1313Y17782D01*
X1265Y17796D01*
X1218Y17814D01*
X1172Y17836D01*
X1128Y17861D01*
X1087Y17890D01*
X1048Y17921D01*
X1011Y17956D01*
X977Y17993D01*
X946Y18033D01*
X918Y18075D01*
X894Y18119D01*
X873Y18165D01*
X856Y18213D01*
X843Y18261D01*
X833Y18311D01*
X827Y18361D01*
X825Y18411D01*
X100Y18408D02*
X102Y18480D01*
X108Y18552D01*
X117Y18624D01*
X130Y18695D01*
X147Y18765D01*
X167Y18834D01*
X192Y18902D01*
X219Y18968D01*
X250Y19034D01*
X285Y19097D01*
X322Y19159D01*
X363Y19218D01*
X407Y19275D01*
X454Y19330D01*
X504Y19382D01*
X556Y19432D01*
X611Y19479D01*
X668Y19523D01*
X727Y19564D01*
X789Y19601D01*
X852Y19636D01*
X918Y19667D01*
X984Y19694D01*
X1052Y19719D01*
X1121Y19739D01*
X1191Y19756D01*
X1262Y19769D01*
X1334Y19778D01*
X1406Y19784D01*
X1478Y19786D01*
X100Y18411D02*
X100Y18408D01*
X100Y11558D01*
X100Y11515D01*
X825Y11515D02*
X827Y11565D01*
X833Y11615D01*
X843Y11665D01*
X856Y11713D01*
X873Y11761D01*
X894Y11807D01*
X918Y11851D01*
X946Y11893D01*
X977Y11933D01*
X1011Y11970D01*
X1048Y12005D01*
X1087Y12036D01*
X1128Y12065D01*
X1172Y12090D01*
X1218Y12112D01*
X1265Y12130D01*
X1313Y12144D01*
X1362Y12155D01*
X1412Y12162D01*
X1462Y12165D01*
X1513Y12164D01*
X1563Y12159D01*
X1613Y12150D01*
X1661Y12138D01*
X1709Y12121D01*
X1755Y12101D01*
X1800Y12078D01*
X1843Y12051D01*
X1883Y12021D01*
X1921Y11988D01*
X1956Y11952D01*
X1989Y11913D01*
X2018Y11872D01*
X2044Y11829D01*
X2067Y11784D01*
X2086Y11737D01*
X2101Y11689D01*
X2113Y11640D01*
X2121Y11590D01*
X2125Y11540D01*
X2125Y11490D01*
X2121Y11440D01*
X2113Y11390D01*
X2101Y11341D01*
X2086Y11293D01*
X2067Y11246D01*
X2044Y11201D01*
X2018Y11158D01*
X1989Y11117D01*
X1956Y11078D01*
X1921Y11042D01*
X1883Y11009D01*
X1843Y10979D01*
X1800Y10952D01*
X1755Y10929D01*
X1709Y10909D01*
X1661Y10892D01*
X1613Y10880D01*
X1563Y10871D01*
X1513Y10866D01*
X1462Y10865D01*
X1412Y10868D01*
X1362Y10875D01*
X1313Y10886D01*
X1265Y10900D01*
X1218Y10918D01*
X1172Y10940D01*
X1128Y10965D01*
X1087Y10994D01*
X1048Y11025D01*
X1011Y11060D01*
X977Y11097D01*
X946Y11137D01*
X918Y11179D01*
X894Y11223D01*
X873Y11269D01*
X856Y11317D01*
X843Y11365D01*
X833Y11415D01*
X827Y11465D01*
X825Y11515D01*
X99Y11558D02*
X100Y11485D01*
X105Y11411D01*
X113Y11339D01*
X126Y11267D01*
X142Y11195D01*
X161Y11125D01*
X185Y11055D01*
X212Y10987D01*
X243Y10921D01*
X277Y10856D01*
X314Y10793D01*
X355Y10732D01*
X398Y10674D01*
X445Y10617D01*
X495Y10563D01*
X547Y10512D01*
X602Y10464D01*
X659Y10419D01*
X719Y10376D01*
X781Y10337D01*
X845Y10301D01*
X910Y10269D01*
X978Y10240D01*
X1046Y10215D01*
X1116Y10193D01*
X1187Y10175D01*
X1259Y10160D01*
X1331Y10150D01*
X1404Y10143D01*
X1477Y10140D01*
X1281Y12991D02*
X1283Y13021D01*
X1289Y13051D01*
X1298Y13080D01*
X1311Y13107D01*
X1328Y13132D01*
X1347Y13155D01*
X1370Y13176D01*
X1395Y13193D01*
X1421Y13207D01*
X1450Y13217D01*
X1479Y13224D01*
X1509Y13227D01*
X1540Y13226D01*
X1570Y13221D01*
X1599Y13212D01*
X1626Y13200D01*
X1652Y13185D01*
X1676Y13166D01*
X1697Y13144D01*
X1715Y13120D01*
X1730Y13093D01*
X1741Y13065D01*
X1749Y13036D01*
X1753Y13006D01*
X1753Y12976D01*
X1749Y12946D01*
X1741Y12917D01*
X1730Y12889D01*
X1715Y12862D01*
X1697Y12838D01*
X1676Y12816D01*
X1652Y12797D01*
X1626Y12782D01*
X1599Y12770D01*
X1570Y12761D01*
X1540Y12756D01*
X1509Y12755D01*
X1479Y12758D01*
X1450Y12765D01*
X1421Y12775D01*
X1395Y12789D01*
X1370Y12806D01*
X1347Y12827D01*
X1328Y12850D01*
X1311Y12875D01*
X1298Y12902D01*
X1289Y12931D01*
X1283Y12961D01*
X1281Y12991D01*
X297Y12991D02*
X299Y13021D01*
X305Y13051D01*
X314Y13080D01*
X327Y13107D01*
X344Y13132D01*
X363Y13155D01*
X386Y13176D01*
X411Y13193D01*
X437Y13207D01*
X466Y13217D01*
X495Y13224D01*
X525Y13227D01*
X556Y13226D01*
X586Y13221D01*
X615Y13212D01*
X642Y13200D01*
X668Y13185D01*
X692Y13166D01*
X713Y13144D01*
X731Y13120D01*
X746Y13093D01*
X757Y13065D01*
X765Y13036D01*
X769Y13006D01*
X769Y12976D01*
X765Y12946D01*
X757Y12917D01*
X746Y12889D01*
X731Y12862D01*
X713Y12838D01*
X692Y12816D01*
X668Y12797D01*
X642Y12782D01*
X615Y12770D01*
X586Y12761D01*
X556Y12756D01*
X525Y12755D01*
X495Y12758D01*
X466Y12765D01*
X437Y12775D01*
X411Y12789D01*
X386Y12806D01*
X363Y12827D01*
X344Y12850D01*
X327Y12875D01*
X314Y12902D01*
X305Y12931D01*
X299Y12961D01*
X297Y12991D01*
X3250Y14959D02*
X3252Y14989D01*
X3258Y15019D01*
X3267Y15048D01*
X3280Y15075D01*
X3297Y15100D01*
X3316Y15123D01*
X3339Y15144D01*
X3364Y15161D01*
X3390Y15175D01*
X3419Y15185D01*
X3448Y15192D01*
X3478Y15195D01*
X3509Y15194D01*
X3539Y15189D01*
X3568Y15180D01*
X3595Y15168D01*
X3621Y15153D01*
X3645Y15134D01*
X3666Y15112D01*
X3684Y15088D01*
X3699Y15061D01*
X3710Y15033D01*
X3718Y15004D01*
X3722Y14974D01*
X3722Y14944D01*
X3718Y14914D01*
X3710Y14885D01*
X3699Y14857D01*
X3684Y14830D01*
X3666Y14806D01*
X3645Y14784D01*
X3621Y14765D01*
X3595Y14750D01*
X3568Y14738D01*
X3539Y14729D01*
X3509Y14724D01*
X3478Y14723D01*
X3448Y14726D01*
X3419Y14733D01*
X3390Y14743D01*
X3364Y14757D01*
X3339Y14774D01*
X3316Y14795D01*
X3297Y14818D01*
X3280Y14843D01*
X3267Y14870D01*
X3258Y14899D01*
X3252Y14929D01*
X3250Y14959D01*
X1281Y16928D02*
X1283Y16958D01*
X1289Y16988D01*
X1298Y17017D01*
X1311Y17044D01*
X1328Y17069D01*
X1347Y17092D01*
X1370Y17113D01*
X1395Y17130D01*
X1421Y17144D01*
X1450Y17154D01*
X1479Y17161D01*
X1509Y17164D01*
X1540Y17163D01*
X1570Y17158D01*
X1599Y17149D01*
X1626Y17137D01*
X1652Y17122D01*
X1676Y17103D01*
X1697Y17081D01*
X1715Y17057D01*
X1730Y17030D01*
X1741Y17002D01*
X1749Y16973D01*
X1753Y16943D01*
X1753Y16913D01*
X1749Y16883D01*
X1741Y16854D01*
X1730Y16826D01*
X1715Y16799D01*
X1697Y16775D01*
X1676Y16753D01*
X1652Y16734D01*
X1626Y16719D01*
X1599Y16707D01*
X1570Y16698D01*
X1540Y16693D01*
X1509Y16692D01*
X1479Y16695D01*
X1450Y16702D01*
X1421Y16712D01*
X1395Y16726D01*
X1370Y16743D01*
X1347Y16764D01*
X1328Y16787D01*
X1311Y16812D01*
X1298Y16839D01*
X1289Y16868D01*
X1283Y16898D01*
X1281Y16928D01*
X297Y16928D02*
X299Y16958D01*
X305Y16988D01*
X314Y17017D01*
X327Y17044D01*
X344Y17069D01*
X363Y17092D01*
X386Y17113D01*
X411Y17130D01*
X437Y17144D01*
X466Y17154D01*
X495Y17161D01*
X525Y17164D01*
X556Y17163D01*
X586Y17158D01*
X615Y17149D01*
X642Y17137D01*
X668Y17122D01*
X692Y17103D01*
X713Y17081D01*
X731Y17057D01*
X746Y17030D01*
X757Y17002D01*
X765Y16973D01*
X769Y16943D01*
X769Y16913D01*
X765Y16883D01*
X757Y16854D01*
X746Y16826D01*
X731Y16799D01*
X713Y16775D01*
X692Y16753D01*
X668Y16734D01*
X642Y16719D01*
X615Y16707D01*
X586Y16698D01*
X556Y16693D01*
X525Y16692D01*
X495Y16695D01*
X466Y16702D01*
X437Y16712D01*
X411Y16726D01*
X386Y16743D01*
X363Y16764D01*
X344Y16787D01*
X327Y16812D01*
X314Y16839D01*
X305Y16868D01*
X299Y16898D01*
X297Y16928D01*
D25*
X3486Y16928D03*
X3486Y15943D03*
X1517Y14959D03*
X3486Y13975D03*
X3486Y12991D03*
D26*
X1517Y12991D03*
X533Y12991D03*
X3486Y14959D03*
X1517Y16928D03*
X533Y16928D03*
D27*
X17214Y16456D03*
X18214Y16456D03*
X18214Y15456D03*
X17214Y15456D03*
X17214Y14456D03*
X18214Y14456D03*
X18214Y13456D03*
X17214Y13456D03*
D28*
X12219Y17006D03*
X5400Y13069D03*
D29*
X12578Y18169D03*
X12578Y19169D03*
D30*
X3044Y18619D03*
D31*
X4044Y18619D03*
X5044Y18619D03*
X6044Y18619D03*
X2520Y15930D03*
X2520Y14930D03*
X2520Y13930D03*
X11531Y11316D03*
X12531Y11316D03*
X13531Y11316D03*
X14531Y11316D03*
X15531Y11316D03*
X16531Y11316D03*
D32*
X15586Y13265D02*
X15586Y13856D01*
X13814Y13856D02*
X13814Y13265D01*
X13814Y15824D02*
X13814Y16415D01*
X15586Y16415D02*
X15586Y15824D01*
D33*
X18013Y18408D03*
X18016Y11515D03*
X1475Y11515D03*
X1475Y18411D03*
D34*
X16537Y17522D03*
X16537Y12404D03*
D35*
X17356Y12711D03*
X16470Y13498D03*
X14962Y12896D03*
X14954Y12042D03*
X15486Y12022D03*
X14306Y12040D03*
X11123Y12010D03*
X8454Y11669D03*
X7088Y10928D03*
X7088Y12502D03*
X7927Y12896D03*
X7925Y13437D03*
X6600Y13290D03*
X9500Y14640D03*
X9100Y15140D03*
X8600Y15840D03*
X8700Y16540D03*
X9500Y16540D03*
X10950Y16490D03*
X11993Y16234D03*
X12295Y15643D03*
X12637Y14846D03*
X14200Y14440D03*
X15584Y14975D03*
X16122Y14964D03*
X14400Y15390D03*
X14800Y16740D03*
X17356Y17239D03*
X12100Y18635D03*
X9500Y19190D03*
X7503Y18337D03*
X7000Y16140D03*
X5700Y15740D03*
X6550Y15340D03*
X4800Y15340D03*
X1000Y16440D03*
X1000Y13440D03*
X2287Y12953D03*
X10500Y13740D03*
X11100Y13740D03*
M02*
